<?xml version="1.0" encoding="utf-8"?>
<!-- Generator: Adobe Illustrator 19.0.0, SVG Export Plug-In . SVG Version: 6.00 Build 0)  -->
<svg version="1.1" id="Layer_1" xmlns="http://www.w3.org/2000/svg" xmlns:xlink="http://www.w3.org/1999/xlink" x="0px" y="0px"
	 viewBox="488 51.6 1572.2 739.3" style="enable-background:new 488 51.6 1572.2 739.3;" xml:space="preserve">
<style type="text/css">
	.st0{opacity:0.53;fill:#3F3B3A;enable-background:new    ;}
	.st1{fill:#FFFFFF;stroke:#3F3B3A;stroke-miterlimit:10;}
	.st2{opacity:0.5;}
	.st3{fill:#61B584;}
	.st4{fill:none;stroke:#3F3B3A;stroke-width:6;stroke-linecap:round;stroke-linejoin:round;stroke-miterlimit:10;}
	.st5{fill:#FFFFFF;stroke:#3F3B3A;stroke-width:4;stroke-linecap:round;stroke-linejoin:round;stroke-miterlimit:10;}
	.st6{fill:#61B584;stroke:#3F3B3A;stroke-width:4;stroke-miterlimit:10;}
	.st7{fill:#61B584;stroke:#3F3B3A;stroke-width:4;stroke-linecap:round;stroke-linejoin:round;stroke-miterlimit:10;}
	.st8{fill:#62BC88;}
	.st9{fill:none;stroke:#3F3B3A;stroke-width:4;stroke-miterlimit:10;}
	.st10{enable-background:new    ;}
	.st11{fill:#3D3D3D;}
	.st12{fill:#3F3B3A;}
	.st13{fill:#60B484;stroke:#3F3B3A;stroke-width:4;stroke-linecap:round;stroke-linejoin:round;stroke-miterlimit:10;}
	.st14{fill:none;stroke:#3F3B3A;stroke-width:4;stroke-linecap:round;stroke-linejoin:round;stroke-miterlimit:10;}
	.st15{opacity:0.53;}
	.st16{fill:#61B584;stroke:#3F3B3A;stroke-width:5;stroke-linecap:round;stroke-linejoin:round;stroke-miterlimit:10;}
	.st17{fill:#FFFFFF;}
	.st18{fill:#3E3A39;}
</style>
<path id="XMLID_490_" class="st0" d="M947.6,382c0-23.9-19.6-43.5-43.5-43.5H546.5c-23.9,0.1-43.5,19.6-43.5,43.5v351.1
	c0,23.9,19.6,43.5,43.5,43.5h357.6c23.9,0,43.5-19.6,43.5-43.5V382z"/>
<path id="XMLID_37_" class="st1" d="M546.5,707.9c-22.3,0-40.5-18.1-40.5-40.5v-561c0-22.3,18.1-40.5,40.5-40.5h357.6
	c22.3,0,40.5,18.1,40.5,40.5v73.7l38.5,33.8l-38.5,33.8v419.7c0,22.3-18.1,40.5-40.5,40.5H546.5L546.5,707.9z"/>
<g id="XMLID_491_" class="st2">
	<circle id="XMLID_494_" class="st3" cx="604.9" cy="270.1" r="54.6"/>
</g>
<g id="XMLID_499_" class="st2">
	<circle id="XMLID_500_" class="st3" cx="610.4" cy="423" r="54.6"/>
</g>
<line id="XMLID_480_" class="st4" x1="1273.6" y1="213.6" x2="985.1" y2="213.6"/>
<line id="XMLID_453_" class="st4" x1="1562.6" y1="213.6" x2="1274.1" y2="213.6"/>
<path id="XMLID_109_" class="st0" d="M1599.9,163c0-23.9,19.6-43.5,43.5-43.5h358.3c23.9,0,43.5,19.6,43.5,43.5v351.1
	c0,23.9-19.6,43.5-43.5,43.5h-358.3c-23.9,0-43.5-19.6-43.5-43.5L1599.9,163L1599.9,163z"/>
<path id="XMLID_30_" class="st1" d="M1643.4,497.9c-22.3,0-40.5-18.1-40.5-40.5V247.7l-38.5-33.8l38.5-33.8v-63.7
	c0-22.3,18.1-40.5,40.5-40.5H2001c22.3,0,40.5,18.1,40.5,40.5v341.1c0,22.3-18.1,40.5-40.5,40.5h-357.6V497.9z"/>
<line id="XMLID_102_" class="st4" x1="1619.6" y1="299.2" x2="1591.6" y2="299.2"/>
<line id="XMLID_13_" class="st4" x1="1619.6" y1="284.5" x2="1591.6" y2="284.5"/>
<g id="XMLID_110_">
	<path id="XMLID_479_" class="st5" d="M641.6,270.1c1.3-1.8,2.1-4,2.1-6.4c0-5.9-4.8-10.8-10.8-10.8l0,0c-0.9,0-1.6-0.7-1.6-1.6l0,0
		c0-5.9-4.8-10.8-10.8-10.8c-1,0-2,0.1-2.9,0.4c-1,0.3-2.1-0.5-2.1-1.6c0-0.3,0-0.7,0-1c-0.4-5.4-4.9-9.7-10.3-9.8
		c-6.1-0.2-11.1,4.7-11.1,10.7v0.1c0,1.1-1,1.9-2.1,1.6c-0.9-0.3-1.9-0.4-2.9-0.4c-5.9,0-10.8,4.8-10.8,10.8l0,0
		c0,0.9-0.7,1.6-1.6,1.6l0,0c-5.9,0-10.8,4.8-10.8,10.8c0,2.4,0.8,4.6,2.1,6.4H641.6z"/>
	<polygon id="XMLID_478_" class="st5" points="597.8,276.5 599.5,336.5 610.4,336.5 612.5,276.5 	"/>
	<path id="XMLID_477_" class="st5" d="M627.4,276.5l-7.5,60h12c0.7,0,1.3-0.5,1.4-1.2l9.4-58.8H627.4L627.4,276.5z"/>
	<path id="XMLID_476_" class="st5" d="M567.1,276.5l9.4,58.8c0.1,0.7,0.7,1.2,1.4,1.2h12l-7.1-60H567.1z"/>
	<polygon id="XMLID_475_" class="st6" points="582.9,276.5 590,336.5 599.5,336.5 597.8,276.5 	"/>
	<polygon id="XMLID_385_" class="st6" points="612.5,276.5 610.4,336.5 619.8,336.5 627.4,276.5 	"/>
	<path id="XMLID_358_" class="st6" d="M644.4,276.5h-79c-0.6,0-1.2-0.5-1.2-1.2v-5.8c0-0.6,0.5-1.2,1.2-1.2h79
		c0.6,0,1.2,0.5,1.2,1.2v5.8C645.6,276,645.1,276.5,644.4,276.5z"/>
</g>
<path id="XMLID_501_" class="st5" d="M631.5,478.9c6-10.2,9.8-20.4,12-32l1.2-0.5c1.5-0.7,2.7-1.9,3.3-3.5s0.5-3.3-0.2-4.8
	s-1.9-2.7-3.5-3.3c-1.6-0.6-3.3-0.5-4.8,0.2l-2,0.9c-15.5-9.1-32.4-15.4-50.1-18.6l-0.9-2c-0.7-1.5-1.9-2.7-3.5-3.3
	c-1.6-0.6-3.3-0.5-4.8,0.2c-3.1,1.4-4.5,5.2-3.1,8.3l0.5,1.1c-6,10.2-9.8,20.5-11.9,32.1l-1.2,0.5c-3.1,1.4-4.5,5.2-3.1,8.3
	c0.7,1.5,1.9,2.7,3.5,3.3c1.6,0.6,3.3,0.5,4.8-0.2l2.3-1c15.4,9,32.1,15.3,49.7,18.5l1.1,2.3c0.7,1.5,1.9,2.7,3.5,3.3
	c1.6,0.6,3.3,0.5,4.8-0.2s2.7-1.9,3.3-3.5s0.5-3.3-0.2-4.8L631.5,478.9z"/>
<path id="XMLID_482_" class="st7" d="M633.5,442.2c-4.5-0.4-8.8-2.4-11.9-5.7c-7.3-7.5-7.2-19.6,0.3-27c3.3-3.2,7.5-5.1,12.1-5.4
	l5.7-0.4l-4.5-3.5c-5.4-4.2-12.2-6.3-19.1-6c-7,0.4-13.5,3.2-18.5,8.1c-11.3,11-11.5,29.3-0.5,40.6c4.9,5,11.4,8,18.3,8.6
	c6.9,0.5,13.7-1.4,19.2-5.5l4.6-3.4L633.5,442.2z"/>
<path id="XMLID_498_" class="st8" d="M802.1,337.1h-81.8c-11.7,0-21.3-9.6-21.3-21.3l0,0c0-13.7,11.2-24.9,24.9-24.9h78.2
	c11.7,0,21.3,9.6,21.3,21.3v3.6C823.4,327.6,813.8,337.1,802.1,337.1z"/>
<path id="XMLID_495_" class="st9" d="M791.3,328.5h-81.8c-11.7,0-21.3-9.6-21.3-21.3l0,0c0-13.7,11.2-24.9,24.9-24.9h78.2
	c11.7,0,21.3,9.6,21.3,21.3v3.6C812.6,318.9,803,328.5,791.3,328.5z"/>
<g class="st10">
	<path class="st11" d="M713.5,311c-0.2-0.1-0.3-0.3-0.4-0.5s-0.1-0.4,0-0.6s0.2-0.3,0.3-0.5s0.3-0.2,0.5-0.2s0.4,0,0.7,0.1
		c0,0,0.2,0.1,0.4,0.2s0.4,0.2,0.5,0.3s0.4,0.1,0.6,0.2s0.6,0.1,0.8,0.1s0.4,0,0.7,0s0.5-0.1,0.7-0.1s0.4-0.1,0.5-0.3
		s0.2-0.3,0.2-0.5s-0.1-0.3-0.3-0.5s-0.5-0.3-0.9-0.4l-1.3-0.4c-0.5-0.1-0.9-0.3-1.2-0.4s-0.6-0.2-0.9-0.4s-0.6-0.3-0.7-0.5
		s-0.3-0.4-0.4-0.7s-0.2-0.6-0.2-1c0-1,0.4-1.7,1.2-2.2s1.9-0.7,3.3-0.7c0.4,0,0.8,0.1,1.1,0.2s0.6,0.2,0.8,0.2s0.4,0.2,0.7,0.3
		c0.2,0.1,0.4,0.3,0.5,0.4s0.2,0.4,0.1,0.6s-0.1,0.4-0.2,0.5s-0.3,0.3-0.5,0.3s-0.4,0-0.7-0.1c-0.6-0.2-1.3-0.4-2-0.5
		c-0.2,0-0.5,0-0.7,0s-0.5,0.1-0.7,0.2s-0.3,0.3-0.3,0.5s0.1,0.4,0.3,0.5s0.5,0.2,0.9,0.3l1.3,0.3c0.5,0.1,1,0.3,1.4,0.4
		s0.7,0.3,1,0.6s0.5,0.5,0.7,0.8s0.2,0.7,0.2,1.2c0,0.7-0.2,1.3-0.6,1.8s-0.9,0.9-1.6,1.1s-1.4,0.3-2.2,0.3
		C715.8,312.2,714.6,311.8,713.5,311z"/>
	<path class="st11" d="M723.7,299.9c-0.3-0.3-0.5-0.7-0.5-1.1c0-0.5,0.2-0.8,0.5-1.1s0.7-0.4,1.2-0.4s0.9,0.1,1.2,0.4
		s0.5,0.7,0.5,1.1c0,0.5-0.2,0.8-0.5,1.1s-0.7,0.4-1.2,0.4S724,300.2,723.7,299.9z M723.8,311.6c-0.2-0.3-0.4-0.9-0.4-1.6v-5.7
		c0-0.7,0.1-1.2,0.3-1.6s0.6-0.5,1.1-0.5c0.6,0,1,0.2,1.2,0.5s0.4,0.9,0.4,1.6v5.7c0,0.7-0.1,1.2-0.3,1.6s-0.6,0.5-1.2,0.5
		C724.4,312.1,724,311.9,723.8,311.6z"/>
	<path class="st11" d="M730.3,311.4c-0.5-0.6-0.8-1.5-0.8-2.8v-4.2h-0.6c-0.4,0-0.6-0.1-0.8-0.3s-0.3-0.5-0.3-0.9c0-0.7,0.3-1,1-1
		h0.8l0.2-1.9c0.1-1.2,0.6-1.8,1.5-1.8c0.8,0,1.2,0.7,1.2,2v1.7h1.2c0.7,0,1,0.4,1,1.1c0,0.4-0.1,0.6-0.3,0.8s-0.4,0.3-0.8,0.3h-1.1
		v3.5c0,0.8,0.1,1.4,0.3,1.7s0.6,0.5,1.1,0.4h0.6c0.2,0,0.3,0,0.5,0.2s0.2,0.3,0.3,0.4s0.1,0.4,0.1,0.5s-0.1,0.4-0.2,0.5
		s-0.2,0.3-0.4,0.3c-0.4,0.2-1.2,0.3-2.3,0.3C731.6,312.2,730.9,311.9,730.3,311.4z"/>
	<path class="st11" d="M739.1,311.7c-0.8-0.4-1.4-0.9-1.9-1.7s-0.7-1.7-0.7-2.8c0-1,0.2-1.8,0.6-2.6s1-1.4,1.8-1.8s1.7-0.7,2.7-0.7
		c0.8,0,1.5,0.1,2.1,0.4s1.1,0.6,1.4,1s0.6,0.9,0.8,1.5s0.3,1.2,0.3,1.8c0,0.5-0.3,0.8-1,0.8h-5.7c0.1,1.6,0.9,2.4,2.6,2.4
		c0.5,0,0.9-0.1,1.3-0.3s0.8-0.4,1.1-0.7c0.3-0.2,0.5-0.2,0.8,0s0.5,0.4,0.6,0.8s0,0.7-0.2,0.9c-0.2,0.2-0.4,0.4-0.6,0.5
		s-0.5,0.3-0.8,0.5s-0.7,0.3-1.1,0.4s-0.9,0.1-1.4,0.1C740.8,312.2,739.9,312.1,739.1,311.7z M743.7,306.3c0-0.8-0.2-1.3-0.5-1.7
		s-0.8-0.6-1.5-0.6c-0.6,0-1.1,0.2-1.5,0.7s-0.6,1-0.6,1.7h4.1V306.3z"/>
	<path class="st11" d="M756.6,316.3c-0.6-0.1-1.1-0.2-1.5-0.4c-0.3-0.2-0.6-0.4-0.7-0.6s-0.1-0.5,0-0.8s0.3-0.4,0.5-0.6
		s0.5-0.2,0.8-0.1c1.1,0.3,2,0.4,2.8,0.3c0.3,0,0.6-0.1,0.8-0.1s0.4-0.1,0.6-0.2s0.4-0.3,0.5-0.4s0.2-0.4,0.3-0.7s0.1-0.7,0.1-1.1
		v-1.2c-0.2,0.6-0.6,1.1-1.2,1.4s-1.2,0.4-2,0.4c-1.3-0.1-2.3-0.6-3.2-1.4s-1.2-2-1.2-3.5c0-1.4,0.4-2.6,1.1-3.6s1.8-1.4,3.1-1.5
		c1.7-0.1,2.8,0.5,3.4,1.8v-0.2c0-0.5,0.1-0.9,0.4-1.1s0.6-0.4,1.1-0.4s0.9,0.2,1.1,0.5s0.3,0.9,0.3,1.7v6.5c0,1.7-0.4,3-1.3,4
		s-2.2,1.5-3.9,1.5C757.8,316.4,757.2,316.4,756.6,316.3z M760.2,309.4c0.4-0.5,0.6-1.2,0.6-2.2s-0.2-1.8-0.5-2.3s-0.9-0.8-1.7-0.8
		c-0.3,0-0.6,0.1-0.8,0.2s-0.4,0.2-0.6,0.4s-0.3,0.4-0.4,0.7s-0.2,0.5-0.2,0.8s-0.1,0.6-0.1,1c0,1,0.2,1.7,0.5,2.2s0.9,0.7,1.5,0.7
		C759.3,310.1,759.8,309.8,760.2,309.4z"/>
	<path class="st11" d="M767.1,310.9c-0.9-0.9-1.4-2.1-1.4-3.7c0-0.7,0.1-1.4,0.3-2s0.5-1.1,1-1.6s1-0.8,1.7-1.1s1.5-0.4,2.4-0.4
		c1.7,0,3,0.5,4,1.4s1.4,2.2,1.4,3.7c0,0.7-0.1,1.4-0.3,2s-0.6,1.1-1,1.6s-1,0.8-1.7,1.1s-1.5,0.4-2.4,0.4
		C769.3,312.2,768,311.8,767.1,310.9z M772.7,309.4c0.4-0.5,0.6-1.3,0.6-2.2c0-1-0.2-1.7-0.6-2.3s-0.9-0.8-1.6-0.8s-1.3,0.3-1.6,0.8
		s-0.6,1.3-0.6,2.3c0,0.9,0.2,1.7,0.6,2.2s0.9,0.8,1.6,0.8C771.8,310.2,772.3,309.9,772.7,309.4z"/>
</g>
<path id="XMLID_505_" class="st8" d="M802.1,484.7h-81.8c-11.7,0-21.3-9.6-21.3-21.3l0,0c0-13.7,11.2-24.9,24.9-24.9h78.2
	c11.7,0,21.3,9.6,21.3,21.3v3.6C823.4,475.1,813.8,484.7,802.1,484.7z"/>
<path id="XMLID_503_" class="st9" d="M791.3,476h-81.8c-11.7,0-21.3-9.6-21.3-21.3l0,0c0-13.7,11.2-24.9,24.9-24.9h78.2
	c11.7,0,21.3,9.6,21.3,21.3v3.6C812.6,466.5,803,476,791.3,476z"/>
<g class="st10">
	<path class="st11" d="M713.5,458.6c-0.2-0.1-0.3-0.3-0.4-0.5s-0.1-0.4,0-0.6s0.2-0.3,0.3-0.5s0.3-0.2,0.5-0.2s0.4,0,0.7,0.1
		c0,0,0.2,0.1,0.4,0.2s0.4,0.2,0.5,0.3s0.4,0.1,0.6,0.2s0.6,0.1,0.8,0.1s0.4,0,0.7,0s0.5-0.1,0.7-0.1s0.4-0.1,0.5-0.3
		s0.2-0.3,0.2-0.5s-0.1-0.3-0.3-0.5s-0.5-0.3-0.9-0.4l-1.3-0.4c-0.5-0.1-0.9-0.3-1.2-0.4s-0.6-0.2-0.9-0.4s-0.6-0.3-0.7-0.5
		s-0.3-0.4-0.4-0.7s-0.2-0.6-0.2-1c0-1,0.4-1.7,1.2-2.2s1.9-0.7,3.3-0.7c0.4,0,0.8,0.1,1.1,0.2s0.6,0.2,0.8,0.2s0.4,0.2,0.7,0.3
		c0.2,0.1,0.4,0.3,0.5,0.4s0.2,0.4,0.1,0.6s-0.1,0.4-0.2,0.5s-0.3,0.3-0.5,0.3s-0.4,0-0.7-0.1c-0.6-0.2-1.3-0.4-2-0.5
		c-0.2,0-0.5,0-0.7,0s-0.5,0.1-0.7,0.2s-0.3,0.3-0.3,0.5s0.1,0.4,0.3,0.5s0.5,0.2,0.9,0.3l1.3,0.3c0.5,0.1,1,0.3,1.4,0.4
		s0.7,0.3,1,0.6s0.5,0.5,0.7,0.8s0.2,0.7,0.2,1.2c0,0.7-0.2,1.3-0.6,1.8s-0.9,0.9-1.6,1.1s-1.4,0.3-2.2,0.3
		C715.8,459.7,714.6,459.3,713.5,458.6z"/>
	<path class="st11" d="M723.7,447.4c-0.3-0.3-0.5-0.7-0.5-1.1c0-0.5,0.2-0.8,0.5-1.1s0.7-0.4,1.2-0.4s0.9,0.1,1.2,0.4
		s0.5,0.7,0.5,1.1c0,0.5-0.2,0.8-0.5,1.1s-0.7,0.4-1.2,0.4C724.4,447.9,724,447.7,723.7,447.4z M723.8,459.2
		c-0.2-0.3-0.4-0.9-0.4-1.6v-5.7c0-0.7,0.1-1.2,0.3-1.6s0.6-0.5,1.1-0.5c0.6,0,1,0.2,1.2,0.5s0.4,0.9,0.4,1.6v5.7
		c0,0.7-0.1,1.2-0.3,1.6s-0.6,0.5-1.2,0.5C724.4,459.7,724,459.5,723.8,459.2z"/>
	<path class="st11" d="M730.3,458.9c-0.5-0.6-0.8-1.5-0.8-2.8v-4.2h-0.6c-0.4,0-0.6-0.1-0.8-0.3s-0.3-0.5-0.3-0.9c0-0.7,0.3-1,1-1
		h0.8l0.2-1.9c0.1-1.2,0.6-1.8,1.5-1.8c0.8,0,1.2,0.7,1.2,2v1.7h1.2c0.7,0,1,0.4,1,1.1c0,0.4-0.1,0.6-0.3,0.8s-0.4,0.3-0.8,0.3h-1.1
		v3.5c0,0.8,0.1,1.4,0.3,1.7s0.6,0.5,1.1,0.4h0.6c0.2,0,0.3,0,0.5,0.2s0.2,0.3,0.3,0.4s0.1,0.4,0.1,0.5s-0.1,0.4-0.2,0.5
		s-0.2,0.3-0.4,0.3c-0.4,0.2-1.2,0.3-2.3,0.3C731.6,459.8,730.9,459.5,730.3,458.9z"/>
	<path class="st11" d="M739.1,459.2c-0.8-0.4-1.4-0.9-1.9-1.7s-0.7-1.7-0.7-2.8c0-1,0.2-1.8,0.6-2.6s1-1.4,1.8-1.8s1.7-0.7,2.7-0.7
		c0.8,0,1.5,0.1,2.1,0.4s1.1,0.6,1.4,1s0.6,0.9,0.8,1.5s0.3,1.2,0.3,1.8c0,0.5-0.3,0.8-1,0.8h-5.7c0.1,1.6,0.9,2.4,2.6,2.4
		c0.5,0,0.9-0.1,1.3-0.3s0.8-0.4,1.1-0.7c0.3-0.2,0.5-0.2,0.8,0s0.5,0.4,0.6,0.8s0,0.7-0.2,0.9c-0.2,0.2-0.4,0.4-0.6,0.5
		s-0.5,0.3-0.8,0.5s-0.7,0.3-1.1,0.4s-0.9,0.1-1.4,0.1C740.8,459.8,739.9,459.6,739.1,459.2z M743.7,453.8c0-0.8-0.2-1.3-0.5-1.7
		s-0.8-0.6-1.5-0.6c-0.6,0-1.1,0.2-1.5,0.7s-0.6,1-0.6,1.7h4.1V453.8z"/>
	<path class="st11" d="M756.6,463.8c-0.6-0.1-1.1-0.2-1.5-0.4c-0.3-0.2-0.6-0.4-0.7-0.6s-0.1-0.5,0-0.8s0.3-0.4,0.5-0.6
		s0.5-0.2,0.8-0.1c1.1,0.3,2,0.4,2.8,0.3c0.3,0,0.6-0.1,0.8-0.1s0.4-0.1,0.6-0.2s0.4-0.3,0.5-0.4s0.2-0.4,0.3-0.7s0.1-0.7,0.1-1.1
		v-1.2c-0.2,0.6-0.6,1.1-1.2,1.4s-1.2,0.4-2,0.4c-1.3-0.1-2.3-0.6-3.2-1.4s-1.2-2-1.2-3.5c0-1.4,0.4-2.6,1.1-3.6s1.8-1.4,3.1-1.5
		c1.7-0.1,2.8,0.5,3.4,1.8v-0.2c0-0.5,0.1-0.9,0.4-1.1s0.6-0.4,1.1-0.4s0.9,0.2,1.1,0.5s0.3,0.9,0.3,1.7v6.5c0,1.7-0.4,3-1.3,4
		s-2.2,1.5-3.9,1.5C757.8,464,757.2,463.9,756.6,463.8z M760.2,456.9c0.4-0.5,0.6-1.2,0.6-2.2s-0.2-1.8-0.5-2.3s-0.9-0.8-1.7-0.8
		c-0.3,0-0.6,0.1-0.8,0.2s-0.4,0.2-0.6,0.4s-0.3,0.4-0.4,0.7s-0.2,0.5-0.2,0.8s-0.1,0.6-0.1,1c0,1,0.2,1.7,0.5,2.2s0.9,0.7,1.5,0.7
		C759.3,457.6,759.8,457.4,760.2,456.9z"/>
	<path class="st11" d="M767.1,458.4c-0.9-0.9-1.4-2.1-1.4-3.7c0-0.7,0.1-1.4,0.3-2s0.5-1.1,1-1.6s1-0.8,1.7-1.1s1.5-0.4,2.4-0.4
		c1.7,0,3,0.5,4,1.4s1.4,2.2,1.4,3.7c0,0.7-0.1,1.4-0.3,2s-0.6,1.1-1,1.6s-1,0.8-1.7,1.1s-1.5,0.4-2.4,0.4
		C769.3,459.8,768,459.3,767.1,458.4z M772.7,457c0.4-0.5,0.6-1.3,0.6-2.2c0-1-0.2-1.7-0.6-2.3s-0.9-0.8-1.6-0.8s-1.3,0.3-1.6,0.8
		s-0.6,1.3-0.6,2.3c0,0.9,0.2,1.7,0.6,2.2s0.9,0.8,1.6,0.8S772.3,457.5,772.7,457z"/>
</g>
<g id="XMLID_509_" class="st2">
	<circle id="XMLID_510_" class="st3" cx="610.4" cy="577.6" r="54.6"/>
</g>
<path id="XMLID_447_" class="st8" d="M802.1,639.3h-81.8c-11.7,0-21.3-9.6-21.3-21.3l0,0c0-13.7,11.2-24.9,24.9-24.9h78.2
	c11.7,0,21.3,9.6,21.3,21.3v3.6C823.4,629.7,813.8,639.3,802.1,639.3z"/>
<path id="XMLID_340_" class="st9" d="M791.3,630.6h-81.8c-11.7,0-21.3-9.6-21.3-21.3l0,0c0-13.7,11.2-24.9,24.9-24.9h78.2
	c11.7,0,21.3,9.6,21.3,21.3v3.6C812.6,621.1,803,630.6,791.3,630.6z"/>
<g class="st10">
	<path class="st11" d="M713.5,613.2c-0.2-0.1-0.3-0.3-0.4-0.5s-0.1-0.4,0-0.6s0.2-0.3,0.3-0.5s0.3-0.2,0.5-0.2s0.4,0,0.7,0.1
		c0,0,0.2,0.1,0.4,0.2s0.4,0.2,0.5,0.3s0.4,0.1,0.6,0.2s0.6,0.1,0.8,0.1s0.4,0,0.7,0s0.5-0.1,0.7-0.1s0.4-0.1,0.5-0.3
		s0.2-0.3,0.2-0.5s-0.1-0.3-0.3-0.5s-0.5-0.3-0.9-0.4l-1.3-0.4c-0.5-0.1-0.9-0.3-1.2-0.4s-0.6-0.2-0.9-0.4s-0.6-0.3-0.7-0.5
		s-0.3-0.4-0.4-0.7s-0.2-0.6-0.2-1c0-1,0.4-1.7,1.2-2.2s1.9-0.7,3.3-0.7c0.4,0,0.8,0.1,1.1,0.2s0.6,0.2,0.8,0.2s0.4,0.2,0.7,0.3
		c0.2,0.1,0.4,0.3,0.5,0.4s0.2,0.4,0.1,0.6s-0.1,0.4-0.2,0.5s-0.3,0.3-0.5,0.3s-0.4,0-0.7-0.1c-0.6-0.2-1.3-0.4-2-0.5
		c-0.2,0-0.5,0-0.7,0s-0.5,0.1-0.7,0.2s-0.3,0.3-0.3,0.5s0.1,0.4,0.3,0.5s0.5,0.2,0.9,0.3l1.3,0.3c0.5,0.1,1,0.3,1.4,0.4
		s0.7,0.3,1,0.6s0.5,0.5,0.7,0.8s0.2,0.7,0.2,1.2c0,0.7-0.2,1.3-0.6,1.8s-0.9,0.9-1.6,1.1s-1.4,0.3-2.2,0.3
		C715.8,614.3,714.6,613.9,713.5,613.2z"/>
	<path class="st11" d="M723.7,602.1c-0.3-0.3-0.5-0.7-0.5-1.1c0-0.5,0.2-0.8,0.5-1.1s0.7-0.4,1.2-0.4s0.9,0.1,1.2,0.4
		s0.5,0.7,0.5,1.1c0,0.5-0.2,0.8-0.5,1.1s-0.7,0.4-1.2,0.4S724,602.3,723.7,602.1z M723.8,613.8c-0.2-0.3-0.4-0.9-0.4-1.6v-5.7
		c0-0.7,0.1-1.2,0.3-1.6s0.6-0.5,1.1-0.5c0.6,0,1,0.2,1.2,0.5s0.4,0.9,0.4,1.6v5.7c0,0.7-0.1,1.2-0.3,1.6s-0.6,0.5-1.2,0.5
		C724.4,614.3,724,614.1,723.8,613.8z"/>
	<path class="st11" d="M730.3,613.5c-0.5-0.6-0.8-1.5-0.8-2.8v-4.2h-0.6c-0.4,0-0.6-0.1-0.8-0.3s-0.3-0.5-0.3-0.9c0-0.7,0.3-1,1-1
		h0.8l0.2-1.9c0.1-1.2,0.6-1.8,1.5-1.8c0.8,0,1.2,0.7,1.2,2v1.7h1.2c0.7,0,1,0.4,1,1.1c0,0.4-0.1,0.6-0.3,0.8s-0.4,0.3-0.8,0.3h-1.1
		v3.5c0,0.8,0.1,1.4,0.3,1.7s0.6,0.5,1.1,0.4h0.6c0.2,0,0.3,0,0.5,0.2s0.2,0.3,0.3,0.4s0.1,0.4,0.1,0.5s-0.1,0.4-0.2,0.5
		s-0.2,0.3-0.4,0.3c-0.4,0.2-1.2,0.3-2.3,0.3C731.6,614.4,730.9,614.1,730.3,613.5z"/>
	<path class="st11" d="M739.1,613.8c-0.8-0.4-1.4-0.9-1.9-1.7s-0.7-1.7-0.7-2.8c0-1,0.2-1.8,0.6-2.6s1-1.4,1.8-1.8s1.7-0.7,2.7-0.7
		c0.8,0,1.5,0.1,2.1,0.4s1.1,0.6,1.4,1s0.6,0.9,0.8,1.5s0.3,1.2,0.3,1.8c0,0.5-0.3,0.8-1,0.8h-5.7c0.1,1.6,0.9,2.4,2.6,2.4
		c0.5,0,0.9-0.1,1.3-0.3s0.8-0.4,1.1-0.7c0.3-0.2,0.5-0.2,0.8,0s0.5,0.4,0.6,0.8s0,0.7-0.2,0.9s-0.4,0.4-0.6,0.5s-0.5,0.3-0.8,0.5
		s-0.7,0.3-1.1,0.4s-0.9,0.1-1.4,0.1C740.8,614.4,739.9,614.2,739.1,613.8z M743.7,608.4c0-0.8-0.2-1.3-0.5-1.7s-0.8-0.6-1.5-0.6
		c-0.6,0-1.1,0.2-1.5,0.7s-0.6,1-0.6,1.7h4.1V608.4z"/>
	<path class="st11" d="M756.6,618.4c-0.6-0.1-1.1-0.2-1.5-0.4c-0.3-0.2-0.6-0.4-0.7-0.6s-0.1-0.5,0-0.8s0.3-0.4,0.5-0.6
		s0.5-0.2,0.8-0.1c1.1,0.3,2,0.4,2.8,0.3c0.3,0,0.6-0.1,0.8-0.1s0.4-0.1,0.6-0.2s0.4-0.3,0.5-0.4s0.2-0.4,0.3-0.7s0.1-0.7,0.1-1.1
		v-1.2c-0.2,0.6-0.6,1.1-1.2,1.4s-1.2,0.4-2,0.4c-1.3-0.1-2.3-0.6-3.2-1.4s-1.2-2-1.2-3.5c0-1.4,0.4-2.6,1.1-3.6s1.8-1.4,3.1-1.5
		c1.7-0.1,2.8,0.5,3.4,1.8v-0.2c0-0.5,0.1-0.9,0.4-1.1s0.6-0.4,1.1-0.4s0.9,0.2,1.1,0.5s0.3,0.9,0.3,1.7v6.5c0,1.7-0.4,3-1.3,4
		s-2.2,1.5-3.9,1.5C757.8,618.6,757.2,618.5,756.6,618.4z M760.2,611.5c0.4-0.5,0.6-1.2,0.6-2.2s-0.2-1.8-0.5-2.3s-0.9-0.8-1.7-0.8
		c-0.3,0-0.6,0.1-0.8,0.2s-0.4,0.2-0.6,0.4s-0.3,0.4-0.4,0.7s-0.2,0.5-0.2,0.8s-0.1,0.6-0.1,1c0,1,0.2,1.7,0.5,2.2s0.9,0.7,1.5,0.7
		C759.3,612.2,759.8,612,760.2,611.5z"/>
	<path class="st11" d="M767.1,613c-0.9-0.9-1.4-2.1-1.4-3.7c0-0.7,0.1-1.4,0.3-2s0.5-1.1,1-1.6s1-0.8,1.7-1.1s1.5-0.4,2.4-0.4
		c1.7,0,3,0.5,4,1.4s1.4,2.2,1.4,3.7c0,0.7-0.1,1.4-0.3,2s-0.6,1.1-1,1.6s-1,0.8-1.7,1.1s-1.5,0.4-2.4,0.4
		C769.3,614.4,768,613.9,767.1,613z M772.7,611.6c0.4-0.5,0.6-1.3,0.6-2.2c0-1-0.2-1.7-0.6-2.3s-0.9-0.8-1.6-0.8s-1.3,0.3-1.6,0.8
		s-0.6,1.3-0.6,2.3c0,0.9,0.2,1.7,0.6,2.2s0.9,0.8,1.6,0.8C771.8,612.4,772.3,612.1,772.7,611.6z"/>
</g>
<g class="st10">
	<path class="st12" d="M1775.8,227.3c0.1,0.2,0.2,0.4,0.2,0.7s-0.1,0.5-0.2,0.7s-0.3,0.3-0.6,0.3h-11.1v5.2c0,0.3-0.1,0.5-0.3,0.7
		c-0.2,0.1-0.5,0.2-0.8,0.2s-0.6-0.1-0.8-0.2c-0.2-0.1-0.4-0.4-0.4-0.7V229h-11.7c-0.3,0-0.5-0.1-0.6-0.3s-0.2-0.4-0.2-0.7
		s0.1-0.5,0.2-0.7s0.3-0.3,0.6-0.3h25.1C1775.4,227,1775.6,227.1,1775.8,227.3z M1772.4,213.5c0.1,0.2,0.2,0.4,0.2,0.7
		s-0.1,0.5-0.2,0.7s-0.3,0.3-0.6,0.3h-8v0.8c0,0.8,0.2,1.6,0.7,2.2c0.5,0.6,1.3,1.2,2.4,1.7s2.1,0.9,3.1,1.3c1,0.4,2,0.8,2.9,1.2
		c0.3,0.1,0.4,0.3,0.5,0.6s0,0.5-0.1,0.8s-0.3,0.4-0.5,0.6s-0.5,0.1-0.8,0c-0.9-0.4-1.8-0.7-2.8-1.1c-0.9-0.4-1.9-0.8-3-1.3
		c-0.7-0.3-1.2-0.5-1.6-0.8s-0.8-0.5-1.1-0.8c-0.3-0.2-0.5-0.5-0.6-0.7s-0.2-0.4-0.3-0.7l0,0c-0.1,0.4-0.4,0.9-0.9,1.4
		s-1.4,1-2.7,1.6c-1.1,0.5-2.1,0.9-3,1.3c-0.9,0.4-1.9,0.8-2.8,1.1c-0.3,0.1-0.6,0.1-0.8,0c-0.2-0.1-0.4-0.3-0.5-0.6
		c-0.1-0.2-0.1-0.5-0.1-0.8s0.2-0.5,0.5-0.6c1-0.4,1.9-0.8,2.9-1.2s2-0.9,3.1-1.3c1.2-0.5,2-1.1,2.4-1.7c0.5-0.6,0.7-1.3,0.7-2.2
		v-0.8h-8c-0.3,0-0.5-0.1-0.6-0.3s-0.2-0.4-0.2-0.7s0.1-0.5,0.2-0.7s0.3-0.3,0.6-0.3h18.3C1772,213.2,1772.2,213.3,1772.4,213.5z
		 M1754.3,232.1c0.3,0,0.6,0.1,0.8,0.2c0.2,0.1,0.4,0.4,0.4,0.7v5.2c0,0.4,0.2,0.6,0.6,0.6h15.9c0.3,0,0.5,0.1,0.6,0.3
		s0.2,0.4,0.2,0.7s-0.1,0.5-0.2,0.7s-0.3,0.3-0.6,0.3h-16.6c-0.8,0-1.4-0.2-1.7-0.5c-0.3-0.3-0.5-0.9-0.5-1.7v-5.7
		c0-0.3,0.1-0.6,0.4-0.7S1753.9,232.1,1754.3,232.1z"/>
	<path class="st12" d="M1781.4,213.8c0.3,0,0.6,0.1,0.8,0.2c0.2,0.1,0.4,0.4,0.4,0.7v6.1h8.8v-6.1c0-0.3,0.1-0.6,0.3-0.7
		s0.5-0.2,0.8-0.2s0.6,0.1,0.8,0.2c0.2,0.1,0.4,0.4,0.4,0.7v15c0,0.8-0.2,1.4-0.5,1.7s-0.9,0.5-1.7,0.5h-9c-0.8,0-1.4-0.2-1.7-0.5
		c-0.3-0.3-0.5-0.9-0.5-1.7v-15c0-0.3,0.1-0.6,0.4-0.7C1780.9,213.9,1781.1,213.8,1781.4,213.8z M1782.6,229.4c0,0.2,0,0.4,0.1,0.5
		s0.2,0.1,0.5,0.1h7.6c0.2,0,0.4,0,0.5-0.1s0.1-0.2,0.1-0.5v-6.5h-8.8L1782.6,229.4L1782.6,229.4z M1800.9,211.9
		c0.3,0,0.6,0.1,0.8,0.2s0.4,0.4,0.4,0.7v25.5c0,0.3-0.1,0.6-0.4,0.7c-0.2,0.1-0.5,0.2-0.8,0.2s-0.6-0.1-0.8-0.2
		c-0.2-0.1-0.4-0.4-0.4-0.7v-25.5c0-0.3,0.1-0.6,0.4-0.7S1800.6,211.9,1800.9,211.9z"/>
	<path class="st12" d="M1834,226.1c0.1,0.2,0.2,0.4,0.2,0.7s-0.1,0.5-0.2,0.7s-0.3,0.3-0.6,0.3H1822v4.5h-2.3v-4.5h-11.4
		c-0.3,0-0.5-0.1-0.6-0.3s-0.2-0.4-0.2-0.7s0.1-0.5,0.2-0.7s0.3-0.3,0.6-0.3h25.1C1833.7,225.8,1833.9,225.9,1834,226.1z
		 M1830.6,213.4c0.1,0.2,0.2,0.4,0.2,0.7s-0.1,0.5-0.2,0.7s-0.3,0.3-0.6,0.3h-8v0.7c0,0.8,0.2,1.4,0.7,2s1.3,1.1,2.4,1.6
		c1.2,0.5,2.2,0.9,3.2,1.3s1.9,0.7,2.8,1.1c0.3,0.1,0.5,0.3,0.6,0.6s0.1,0.5,0,0.8s-0.3,0.4-0.5,0.6s-0.5,0.1-0.8,0
		c-0.9-0.3-1.8-0.7-2.8-1c-0.9-0.4-2-0.8-3-1.2c-0.7-0.3-1.2-0.5-1.6-0.8s-0.8-0.5-1.1-0.7c-0.3-0.2-0.5-0.4-0.7-0.7
		c-0.1-0.2-0.3-0.4-0.3-0.6l0,0c-0.1,0.4-0.4,0.9-1,1.3c-0.5,0.5-1.5,1-2.8,1.5c-1.1,0.4-2.1,0.9-3,1.2c-0.9,0.4-1.9,0.7-2.8,1
		c-0.3,0.1-0.6,0.1-0.8,0c-0.2-0.1-0.4-0.3-0.5-0.6c-0.1-0.2-0.1-0.5,0-0.8s0.3-0.5,0.6-0.6c0.9-0.3,1.9-0.7,2.8-1.1s2-0.8,3.2-1.3
		s2-1,2.4-1.6s0.7-1.2,0.7-2v-0.7h-8c-0.3,0-0.4-0.1-0.6-0.3c-0.1-0.2-0.2-0.4-0.2-0.7s0.1-0.5,0.2-0.7s0.3-0.3,0.6-0.3h18.4
		C1830.3,213.1,1830.5,213.2,1830.6,213.4z M1820.8,231c3.1,0,5.4,0.4,7.1,1.3c1.7,0.9,2.5,2.2,2.5,4s-0.8,3.2-2.5,4
		c-1.7,0.9-4,1.3-7.1,1.3s-5.4-0.4-7.1-1.3c-1.7-0.9-2.5-2.2-2.5-4s0.8-3.2,2.5-4S1817.8,231,1820.8,231z M1820.8,232.9
		c-2.5,0-4.3,0.3-5.4,0.9c-1.2,0.6-1.8,1.4-1.8,2.5s0.6,2,1.8,2.5c1.2,0.6,3,0.9,5.4,0.9s4.3-0.3,5.4-0.9c1.2-0.6,1.8-1.4,1.8-2.5
		s-0.6-2-1.8-2.5C1825.1,233.2,1823.3,232.9,1820.8,232.9z"/>
	<path class="st12" d="M1845.1,213.1c1.2,0,2.3,0.2,3.2,0.5c0.9,0.3,1.7,0.8,2.3,1.4c0.6,0.6,1,1.3,1.3,2.1s0.4,1.7,0.4,2.7
		c0,0.9-0.1,1.8-0.4,2.6s-0.7,1.5-1.3,2.1c-0.6,0.6-1.3,1.1-2.3,1.4c-0.9,0.3-2,0.5-3.2,0.5s-2.3-0.2-3.2-0.5
		c-0.9-0.3-1.7-0.8-2.3-1.4c-0.6-0.6-1-1.3-1.3-2.1s-0.4-1.7-0.4-2.6c0-1,0.1-1.9,0.4-2.7s0.7-1.5,1.3-2.1c0.6-0.6,1.3-1.1,2.3-1.4
		C1842.9,213.2,1843.9,213.1,1845.1,213.1z M1845.1,215.1c-0.9,0-1.7,0.1-2.3,0.4s-1.1,0.6-1.5,1s-0.7,0.9-0.9,1.5
		c-0.2,0.6-0.3,1.2-0.3,1.8s0.1,1.2,0.3,1.8s0.5,1.1,0.9,1.5s0.9,0.8,1.5,1s1.4,0.4,2.3,0.4s1.7-0.1,2.3-0.4c0.6-0.3,1.1-0.6,1.5-1
		s0.7-0.9,0.9-1.5c0.2-0.6,0.3-1.2,0.3-1.8s-0.1-1.2-0.3-1.8c-0.2-0.6-0.5-1.1-0.9-1.5s-0.9-0.8-1.5-1
		C1846.8,215.2,1846,215.1,1845.1,215.1z M1843.4,229.2c0.3,0,0.6,0.1,0.8,0.2c0.2,0.1,0.4,0.4,0.4,0.7v3.2h13.5v-3.2
		c0-0.3,0.1-0.6,0.4-0.7s0.5-0.2,0.8-0.2s0.6,0.1,0.8,0.2c0.2,0.1,0.4,0.4,0.4,0.7v8.7c0,0.8-0.2,1.4-0.5,1.7s-0.9,0.5-1.7,0.5
		h-13.7c-0.8,0-1.4-0.2-1.7-0.5c-0.3-0.3-0.5-0.9-0.5-1.7v-8.7c0-0.3,0.1-0.6,0.4-0.7C1842.8,229.3,1843.1,229.2,1843.4,229.2z
		 M1844.5,238.4c0,0.4,0.2,0.6,0.6,0.6h12.3c0.4,0,0.6-0.2,0.6-0.6v-3.1h-13.5V238.4z M1859.2,211.9c0.3,0,0.6,0.1,0.8,0.2
		c0.2,0.1,0.4,0.4,0.4,0.7v13.7c0,0.3-0.1,0.6-0.4,0.7c-0.2,0.1-0.5,0.2-0.8,0.2s-0.6-0.1-0.8-0.2s-0.4-0.4-0.4-0.7v-13.7
		c0-0.3,0.1-0.6,0.4-0.7S1858.9,211.9,1859.2,211.9z"/>
	<path class="st12" d="M1869,213.8c0.3,0,0.6,0.1,0.8,0.2s0.4,0.4,0.4,0.7v14.4c0,0.4,0.2,0.6,0.6,0.6c2.5,0,4.7-0.1,6.7-0.2
		c2-0.1,4-0.3,5.9-0.6c0.3,0,0.5,0,0.6,0.2c0.2,0.2,0.3,0.4,0.3,0.7s0,0.6-0.1,0.8s-0.3,0.4-0.6,0.4c-0.8,0.1-1.7,0.2-2.6,0.3
		s-1.9,0.2-3,0.2c-1.1,0.1-2.3,0.1-3.6,0.1s-2.7,0-4.3,0c-0.8,0-1.4-0.2-1.7-0.5c-0.3-0.3-0.5-0.9-0.5-1.7v-14.9
		c0-0.3,0.1-0.6,0.4-0.7C1868.4,213.9,1868.7,213.8,1869,213.8z M1888.3,211.9c0.3,0,0.6,0.1,0.8,0.2c0.2,0.1,0.4,0.4,0.4,0.7v25.5
		c0,0.3-0.1,0.6-0.4,0.7c-0.2,0.1-0.5,0.2-0.8,0.2s-0.6-0.1-0.8-0.2c-0.2-0.1-0.4-0.4-0.4-0.7v-25.5c0-0.3,0.1-0.6,0.4-0.7
		C1887.7,212,1888,211.9,1888.3,211.9z"/>
	<path class="st12" d="M1909.7,214.4c0.1,0.2,0.2,0.4,0.2,0.7s-0.1,0.5-0.2,0.7s-0.3,0.3-0.6,0.3h-9.9c-0.4,0-0.6,0.2-0.6,0.6v12.5
		c0,0.4,0.2,0.6,0.6,0.6c2.4,0,4.5-0.1,6.5-0.2s3.9-0.3,5.8-0.6c0.3,0,0.5,0,0.6,0.2s0.3,0.4,0.3,0.7s0,0.6-0.1,0.8
		s-0.3,0.4-0.6,0.4c-0.8,0.1-1.7,0.2-2.6,0.3s-1.9,0.2-3,0.2c-1.1,0.1-2.3,0.1-3.5,0.1c-1.3,0-2.7,0-4.2,0c-0.8,0-1.4-0.2-1.7-0.5
		c-0.3-0.3-0.5-0.9-0.5-1.7V216c0-0.8,0.2-1.4,0.5-1.7s0.9-0.5,1.7-0.5h10.6C1909.3,214.1,1909.5,214.2,1909.7,214.4z M1916,211.9
		c0.3,0,0.6,0.1,0.8,0.2s0.4,0.4,0.4,0.7v8.9h4.1c0.3,0,0.5,0.1,0.6,0.3s0.2,0.4,0.2,0.7s-0.1,0.5-0.2,0.8c-0.1,0.2-0.3,0.3-0.6,0.3
		h-4.1v14.5c0,0.3-0.1,0.6-0.4,0.7c-0.2,0.1-0.5,0.2-0.8,0.2s-0.6-0.1-0.8-0.2c-0.2-0.1-0.4-0.4-0.4-0.7v-25.5
		c0-0.3,0.1-0.6,0.4-0.7S1915.7,211.9,1916,211.9z"/>
	<path class="st12" d="M1935.4,218.1c0.5,0,1,0.2,1.3,0.5c0.3,0.4,0.5,0.8,0.5,1.3s-0.2,0.9-0.5,1.3c-0.3,0.4-0.8,0.5-1.3,0.5
		s-0.9-0.2-1.3-0.5c-0.4-0.4-0.5-0.8-0.5-1.3s0.2-0.9,0.5-1.3C1934.5,218.2,1934.9,218.1,1935.4,218.1z M1935.4,230.3
		c0.5,0,1,0.2,1.3,0.5c0.3,0.4,0.5,0.8,0.5,1.3s-0.2,0.9-0.5,1.3c-0.3,0.4-0.8,0.5-1.3,0.5s-0.9-0.2-1.3-0.5
		c-0.4-0.4-0.5-0.8-0.5-1.3s0.2-0.9,0.5-1.3C1934.5,230.5,1934.9,230.3,1935.4,230.3z"/>
	<path class="st12" d="M1942.4,211.2c0.5-0.3,0.9-0.2,1.3,0.3c1.5,1.8,2.6,4,3.3,6.4c0.7,2.4,1.1,5,1.1,7.7v0.7
		c0,2.7-0.4,5.3-1.1,7.7s-1.9,4.5-3.3,6.4c-0.4,0.5-0.8,0.6-1.3,0.3c-0.2-0.1-0.3-0.3-0.4-0.5s0-0.4,0.1-0.7
		c1.2-1.9,2.1-3.9,2.7-6.1c0.6-2.2,0.9-4.5,0.9-6.9v-1c0-2.5-0.3-4.8-0.9-6.9c-0.6-2.2-1.5-4.2-2.7-6.1c-0.1-0.2-0.2-0.5-0.1-0.7
		C1942.1,211.5,1942.2,211.3,1942.4,211.2z"/>
</g>
<g id="XMLID_449_">
	<path id="XMLID_533_" class="st6" d="M610.4,537.9L610.4,537.9c-21.3,0-38.7,17.3-38.7,38.7V605c0,21.3,17.3,38.7,38.7,38.7l0,0
		c21.3,0,38.7-17.3,38.7-38.7v-28.4C649,555.2,631.7,537.9,610.4,537.9z M641.4,604.3c0,17.1-14,31.1-31.1,31.1l0,0
		c-17.1,0-31.1-14-31.1-31.1v-27.1c0-17.1,14-31.1,31.1-31.1l0,0c17.1,0,31.1,14,31.1,31.1V604.3z"/>
	<g id="XMLID_12_">
		<path id="XMLID_535_" class="st5" d="M617.9,586.3c1.2-4,5.2-6.4,9.3-5.8c0.1,0,0.2,0,0.3,0.1c0.4,0.1,0.8,0.2,1.2,0.3l0,0
			c0.4,0.1,0.8,0.3,1.2,0.5c0.1,0,0.1,0.1,0.2,0.1c0.4,0.2,0.7,0.4,1,0.7c0.5,0.4,1,0.8,1.4,1.3c0.6-0.2,1.3-0.3,1.9-0.3
			c3.4,0,6.3,2.4,6.9,5.8l0,0v-11.9c0-17.1-14-31.1-31.1-31.1l0,0c-17.1,0-31.1,14-31.1,31.1v27.1c0,0.4,0,0.8,0,1.2
			c1.7-1,3.9-1,5.7-0.2c1.7-2.7,4.8-4.2,8-3.6c3.2,0.6,5.7,3,6.3,6.1h0.2c2.6,0,4.7,2.1,4.7,4.7c0,2.6-2.1,4.7-4.7,4.7h-16.9
			c-0.1,0-0.2,0-0.2,0c4.9,10.7,15.7,18.2,28.2,18.2l0,0c17.1,0,31.1-14,31.1-31.1v-4.3c-0.4,0.1-0.9,0.2-1.3,0.2h-24
			c-1.3,0-2.6-0.4-3.7-1.1c0,0,0,0-0.1,0c-0.2-0.1-0.4-0.3-0.6-0.5c-0.1-0.1-0.2-0.2-0.4-0.3c-0.2-0.2-0.3-0.3-0.5-0.5
			c-0.1-0.1-0.3-0.3-0.4-0.5c-0.1-0.2-0.2-0.3-0.3-0.5s-0.2-0.4-0.3-0.6c-0.1-0.2-0.2-0.3-0.2-0.5c-0.1-0.3-0.2-0.5-0.2-0.8
			c0-0.1-0.1-0.3-0.1-0.4c-0.5-2.4,0.3-4.8,2.1-6.5C613.1,586.3,615.6,585.7,617.9,586.3z"/>
		<path id="XMLID_537_" class="st13" d="M599.5,617.2c2.6,0,4.7-2.1,4.7-4.7c0-2.6-2.1-4.7-4.7-4.7h-0.2c-0.6-3.1-3.1-5.6-6.3-6.1
			c-3.2-0.6-6.3,0.9-8,3.6c-1.8-0.9-4-0.8-5.7,0.2c0.2,4.2,1.1,8.1,2.8,11.7c0.1,0,0.1,0,0.2,0H599.5z"/>
		<path id="XMLID_542_" class="st5" d="M641.4,589.1c-0.6-3.4-3.5-5.8-6.9-5.8c-0.6,0-1.3,0.1-1.9,0.3c-0.4-0.5-0.9-0.9-1.4-1.3
			c-0.3-0.2-0.7-0.5-1-0.7c-0.1,0-0.1-0.1-0.2-0.1c-0.4-0.2-0.8-0.4-1.2-0.5l0,0c-0.4-0.1-0.8-0.2-1.2-0.3c-0.1,0-0.2,0-0.3-0.1
			c-4.1-0.7-8.1,1.8-9.3,5.8c-2.3-0.6-4.9,0-6.6,1.6c-1.8,1.7-2.6,4.1-2.1,6.5c0,0.2,0.1,0.3,0.1,0.4c0.1,0.3,0.1,0.5,0.2,0.8
			c0.1,0.2,0.1,0.3,0.2,0.5c0.1,0.2,0.2,0.4,0.3,0.6c0.1,0.2,0.2,0.3,0.3,0.5s0.2,0.3,0.4,0.5s0.3,0.3,0.5,0.5
			c0.1,0.1,0.2,0.2,0.4,0.3c0.2,0.2,0.4,0.3,0.6,0.5c0,0,0,0,0.1,0c1.1,0.7,2.4,1.1,3.7,1.1h24c0.5,0,0.9-0.1,1.3-0.2L641.4,589.1
			L641.4,589.1z"/>
		<line id="XMLID_113_" class="st14" x1="580" y1="573" x2="640.7" y2="573"/>
		<line id="XMLID_324_" class="st14" x1="603" y1="559.8" x2="617.7" y2="559.8"/>
	</g>
</g>
<g id="XMLID_531_" class="st15">
	<circle id="XMLID_532_" class="st12" cx="595.7" cy="149.7" r="34"/>
</g>
<g id="XMLID_529_">
	<circle id="XMLID_530_" class="st16" cx="587" cy="141" r="34"/>
</g>
<g id="XMLID_525_" class="st15">
	<circle id="XMLID_526_" class="st12" cx="1692.6" cy="149.7" r="34"/>
</g>
<g id="XMLID_514_">
	<path id="XMLID_517_" class="st17" d="M599.2,135.1c-9.8,0-9.8,9.8-9.8,9.8s-0.7,9.8,9.8,9.8c0,0,8.8,0.5,8.8-6.8h-4.5
		c0,0,0.1,2.8-4.1,2.8c0,0-4.5,0.3-4.5-4.4h13.3C608.1,146.2,609.6,135.1,599.2,135.1z M594.8,142.8c0,0,0.5-3.9,4.5-3.9
		s3.9,3.9,3.9,3.9H594.8z M583.6,140.3c0,0,3.9-0.3,3.9-4.9c0-4.6-3.2-6.8-7.2-6.8h-13.4v25.6h13.3c0,0,8.1,0.2,8.1-7.6
		C588.4,146.7,588.7,140.3,583.6,140.3z M572.8,133.2h7.5c0,0,1.8,0,1.8,2.7s-1.1,3.1-2.3,3.1h-7V133.2z M579.9,149.7h-7.1v-6.9h7.5
		c0,0,2.7,0,2.7,3.5C582.9,149.3,580.9,149.6,579.9,149.7z M593.7,130.1v3.2h10.6v-3.2H593.7z"/>
</g>
<g id="XMLID_111_">
	<circle id="XMLID_512_" class="st16" cx="1683.9" cy="141" r="34"/>
	<g id="XMLID_456_">
		<path id="XMLID_458_" class="st17" d="M1683.9,119.4c-11.9,0-21.6,9.7-21.6,21.6s9.7,21.6,21.6,21.6s21.6-9.7,21.6-21.6
			C1705.5,129.1,1695.8,119.4,1683.9,119.4L1683.9,119.4z M1698.1,129.6c2.5,3.1,4,6.9,4,11.1c-0.8-0.2-4.3-0.8-8.4-0.8
			c-1.3,0-2.8,0.1-4.2,0.2c-0.1-0.3-0.2-0.6-0.4-0.9c-0.4-0.9-0.8-1.7-1.2-2.6C1694.4,134.1,1697.5,130.5,1698.1,129.6L1698.1,129.6
			z M1683.9,122.8c4.6,0,8.8,1.7,12,4.5c-0.5,0.7-3.3,4.1-9.4,6.5c-2.9-5.2-6-9.5-6.7-10.5C1681.1,123,1682.5,122.8,1683.9,122.8
			L1683.9,122.8z M1676.1,124.6c0.6,0.9,3.8,5.2,6.7,10.4c-7.9,2.1-14.8,2.2-16.5,2.2h-0.2C1667.3,131.6,1671,127,1676.1,124.6
			L1676.1,124.6z M1665.6,141.1c0-0.2,0-0.3,0-0.5c0.1,0,0.3,0,0.5,0c2.3,0,10.1-0.2,18.2-2.6c0.5,1,1,1.9,1.4,2.9
			c-0.2,0.1-0.4,0.1-0.6,0.2c-9.1,2.9-14.1,10.8-14.9,12C1667.4,149.9,1665.6,145.7,1665.6,141.1L1665.6,141.1z M1683.9,159.3
			c-4.2,0-8.1-1.4-11.1-3.8c0.5-1,4.3-7.8,14.3-11.3l0,0c2.5,6.5,3.6,12,3.9,13.7C1688.8,158.8,1686.4,159.3,1683.9,159.3
			L1683.9,159.3z M1694.3,156.1c-0.2-1.4-1.2-6.5-3.5-12.8c1.3-0.2,2.5-0.3,3.7-0.3c3.8,0,6.8,0.8,7.5,1
			C1701.1,149,1698.3,153.3,1694.3,156.1L1694.3,156.1z"/>
	</g>
</g>
<g>
	<g>
		<path class="st18" d="M1751.6,162.1c-0.7-0.7-1.1-1.5-1.3-2.4s-0.3-2-0.3-3.2v-20.9c0-2.4,0.4-4.1,1.3-5.1s2.4-1.5,4.6-1.5h5
			c6.3,0,11.1,1.5,14.4,4.4s4.9,7.2,4.9,12.9c0,5.5-1.6,9.7-4.7,12.6s-7.8,4.3-13.9,4.3h-7.4
			C1753.1,163.1,1752.2,162.8,1751.6,162.1z M1761.1,157.2c2.4,0,4.4-0.3,5.8-1s2.5-1.8,3.2-3.5s1-3.8,1-6.6c0-4.1-0.8-7-2.3-8.7
			s-4-2.5-7.5-2.5h-2.9v22.3H1761.1z"/>
		<path class="st18" d="M1787.3,161.8c-0.8-0.9-1.2-2.1-1.2-3.6v-24.7c0-1.5,0.5-2.6,1.5-3.4s2.3-1.2,3.8-1.2h9.4
			c1.5,0,2.8,0.1,4,0.2s2.4,0.4,3.6,0.8s2.2,0.9,2.9,1.5s1.4,1.4,1.9,2.5s0.7,2.2,0.7,3.6c0,4.5-2.5,7.1-7.5,8v0.1
			c1.3,0.1,2.3,0.4,3.1,0.7s1.5,0.8,2,1.4s0.9,1.3,1.2,2.2s0.5,1.9,0.6,3.3l0.4,3.1c0.3,2.4,0.1,4.1-0.5,5.2s-1.8,1.6-3.4,1.6
			c-1.4,0-2.5-0.5-3.2-1.4s-1.2-2.4-1.3-4.4l-0.4-3.1c-0.2-1.8-0.7-3.1-1.5-3.9s-2.1-1.2-4-1.2h-4.8v9c0,1.6-0.4,2.8-1.2,3.6
			s-1.9,1.3-3.1,1.3C1789.1,163.1,1788.1,162.7,1787.3,161.8z M1798.4,143.6c1,0,1.8-0.1,2.6-0.2s1.5-0.3,2.2-0.6s1.3-0.8,1.7-1.4
			s0.6-1.4,0.6-2.4c0-0.6-0.1-1.2-0.2-1.7s-0.3-0.9-0.6-1.2s-0.5-0.6-0.9-0.8s-0.8-0.4-1.1-0.5s-0.8-0.2-1.4-0.3s-1.1-0.1-1.5-0.1
			s-0.9,0-1.6,0h-3.6v9.3h3.8V143.6z"/>
		<path class="st18" d="M1821.5,161.7c-0.8-1-1.3-2.1-1.3-3.4v-24.4c0-1.3,0.4-2.5,1.3-3.5s1.9-1.4,3.1-1.4s2.2,0.5,3,1.4
			s1.3,2.1,1.3,3.5v24.4c0,1.3-0.4,2.5-1.3,3.4s-1.9,1.4-3.1,1.4C1823.3,163.1,1822.3,162.6,1821.5,161.7z"/>
		<path class="st18" d="M1839.2,162.9c-0.6-0.1-1.1-0.4-1.6-0.9s-0.9-1.1-1.1-2s-0.3-2.1-0.3-3.5v-23.1c0-1.5,0.5-2.6,1.5-3.3
			s2.3-1.1,3.9-1.1h6.7c0.1,0,0.4,0,0.7,0c1,0,1.7,0,2.2,0s1.2,0,2.1,0.1s1.6,0.1,2.1,0.2s1.1,0.2,1.9,0.4s1.4,0.4,1.8,0.7
			s0.9,0.6,1.4,1.1s0.9,0.9,1.2,1.5s0.5,1.2,0.7,2s0.3,1.6,0.3,2.6c0,1.8-0.6,3.5-1.8,4.9s-2.7,2.4-4.6,2.7v0.1
			c2.3,0.3,4.2,1.3,5.6,2.8s2.1,3.3,2.1,5.4c0,1.2-0.2,2.4-0.7,3.5s-1.2,2.1-2.1,3s-2.2,1.6-3.7,2.2s-3.3,0.8-5.3,0.8h-10.5
			C1840.5,163.1,1839.8,163,1839.2,162.9z M1847.4,143.6c1.1,0,2.1-0.1,2.9-0.2s1.6-0.4,2.2-0.7s1.2-0.8,1.5-1.5s0.5-1.4,0.5-2.3
			s-0.2-1.7-0.5-2.3s-0.8-1.1-1.5-1.4s-1.3-0.6-2.1-0.7s-1.6-0.2-2.6-0.2h-3.5v9.3L1847.4,143.6L1847.4,143.6z M1847.8,157.7
			c1.3,0,2.5-0.1,3.3-0.2s1.7-0.4,2.3-0.8s1.2-0.9,1.5-1.6s0.5-1.5,0.5-2.6c0-1.8-0.7-3-2-3.8s-3.3-1.1-5.9-1.1h-3.2v9.9h3.5
			L1847.8,157.7L1847.8,157.7z"/>
		<path class="st18" d="M1872.5,162.9c-0.6-0.1-1.1-0.4-1.6-0.9s-0.9-1.1-1.1-2s-0.3-2.1-0.3-3.5v-23.1c0-1.5,0.5-2.6,1.5-3.3
			s2.3-1.1,3.9-1.1h6.7c0.1,0,0.4,0,0.7,0c1,0,1.7,0,2.2,0s1.2,0,2.1,0.1s1.6,0.1,2.1,0.2s1.1,0.2,1.9,0.4s1.4,0.4,1.8,0.7
			s0.9,0.6,1.4,1.1s0.9,0.9,1.2,1.5s0.5,1.2,0.7,2s0.3,1.6,0.3,2.6c0,1.8-0.6,3.5-1.8,4.9s-2.7,2.4-4.6,2.7v0.1
			c2.3,0.3,4.2,1.3,5.6,2.8s2.1,3.3,2.1,5.4c0,1.2-0.2,2.4-0.7,3.5s-1.2,2.1-2.1,3s-2.2,1.6-3.7,2.2s-3.3,0.8-5.3,0.8H1875
			C1873.9,163.1,1873.1,163,1872.5,162.9z M1880.8,143.6c1.1,0,2.1-0.1,2.9-0.2s1.6-0.4,2.2-0.7s1.2-0.8,1.5-1.5s0.5-1.4,0.5-2.3
			s-0.2-1.7-0.5-2.3s-0.8-1.1-1.5-1.4s-1.3-0.6-2.1-0.7s-1.6-0.2-2.6-0.2h-3.5v9.3L1880.8,143.6L1880.8,143.6z M1881.2,157.7
			c1.3,0,2.5-0.1,3.3-0.2s1.7-0.4,2.3-0.8s1.2-0.9,1.5-1.6s0.5-1.5,0.5-2.6c0-1.8-0.7-3-2-3.8s-3.3-1.1-5.9-1.1h-3.2v9.9h3.5
			L1881.2,157.7L1881.2,157.7z"/>
		<path class="st18" d="M1904.6,162c-0.7-0.7-1.1-1.6-1.4-2.6s-0.4-2.1-0.4-3.4v-22.2c0-1.3,0.4-2.5,1.3-3.4s1.9-1.4,3-1.4
			c1.2,0,2.2,0.5,3.1,1.4s1.3,2.1,1.3,3.4v22.8h11.7c0.9,0,1.6,0.3,2.2,0.9s0.9,1.4,0.9,2.3s-0.3,1.7-0.9,2.3s-1.3,0.9-2.2,0.9
			h-16.1C1906.1,163.1,1905.3,162.7,1904.6,162z"/>
		<path class="st18" d="M1933,162.6c-0.6-0.4-1-0.8-1.3-1.4s-0.5-1.2-0.7-1.9s-0.2-1.4-0.2-2.1v-21.3c0-0.9,0-1.6,0.1-2.3
			s0.2-1.2,0.4-1.8s0.5-1.1,0.9-1.5s0.9-0.7,1.6-0.9s1.5-0.3,2.4-0.3h15.1c0.9,0,1.7,0.3,2.3,0.9s0.9,1.4,0.9,2.3s-0.3,1.6-0.9,2.2
			s-1.4,0.9-2.3,0.9h-12.1v7.3h11c0.9,0,1.7,0.3,2.3,0.9s0.9,1.4,0.9,2.3s-0.3,1.6-0.9,2.2s-1.4,0.9-2.3,0.9h-11v7.9h12.7
			c0.8,0,1.6,0.3,2.1,0.9s0.9,1.4,0.9,2.3s-0.3,1.6-0.9,2.2s-1.3,0.9-2.1,0.9H1935C1934.2,163.1,1933.5,162.9,1933,162.6z"/>
	</g>
</g>
<g>
	<g>
		<path class="st18" d="M659.9,157.1c-0.6-0.1-1.1-0.4-1.6-0.9s-0.9-1.1-1.1-2s-0.3-2.1-0.3-3.5v-23.1c0-1.5,0.5-2.6,1.5-3.3
			s2.3-1.1,3.9-1.1h6.7c0.1,0,0.4,0,0.7,0c1,0,1.7,0,2.2,0s1.2,0,2.1,0.1s1.6,0.1,2.1,0.2s1.1,0.2,1.9,0.4s1.4,0.4,1.8,0.7
			s0.9,0.6,1.4,1.1s0.9,0.9,1.2,1.5s0.5,1.2,0.7,2s0.3,1.6,0.3,2.6c0,1.8-0.6,3.5-1.8,4.9s-2.7,2.4-4.6,2.7v0.1
			c2.3,0.3,4.2,1.3,5.6,2.8s2.1,3.3,2.1,5.4c0,1.2-0.2,2.4-0.7,3.5s-1.2,2.1-2.1,3s-2.2,1.6-3.7,2.2s-3.3,0.8-5.3,0.8h-10.5
			C661.3,157.3,660.5,157.3,659.9,157.1z M668.2,137.9c1.1,0,2.1-0.1,2.9-0.2s1.6-0.4,2.2-0.7s1.2-0.8,1.5-1.5s0.5-1.4,0.5-2.3
			s-0.2-1.7-0.5-2.3s-0.8-1.1-1.5-1.4s-1.3-0.6-2.1-0.7s-1.6-0.2-2.6-0.2h-3.5v9.3L668.2,137.9L668.2,137.9z M668.6,152
			c1.3,0,2.5-0.1,3.3-0.2s1.7-0.4,2.3-0.8s1.2-0.9,1.5-1.6s0.5-1.5,0.5-2.6c0-1.8-0.7-3-2-3.8s-3.3-1.1-5.9-1.1h-3.2v9.9h3.5V152z"
			/>
		<path class="st18" d="M691.5,155.9c-0.8-1-1.3-2.1-1.3-3.4v-24.4c0-1.3,0.4-2.5,1.3-3.4s1.9-1.4,3-1.4c1.2,0,2.2,0.5,3.1,1.4
			s1.3,2.1,1.3,3.4v8.1H711v-8.1c0-1.3,0.4-2.5,1.3-3.4s1.9-1.4,3.1-1.4s2.2,0.5,3.1,1.4s1.3,2.1,1.3,3.4v24.4
			c0,1.3-0.4,2.5-1.3,3.4s-1.9,1.4-3.1,1.4s-2.2-0.5-3-1.4s-1.3-2.1-1.3-3.4v-9.2H699v9.2c0,1.3-0.4,2.5-1.3,3.4s-1.9,1.4-3.1,1.4
			C693.4,157.3,692.4,156.9,691.5,155.9z"/>
		<path class="st18" d="M747.6,149.6h-13.8l-1.5,4.4c-0.4,1.1-0.9,1.9-1.7,2.5s-1.5,0.8-2.3,0.8s-1.5-0.3-2.2-0.7s-1.2-1.1-1.4-2
			s-0.2-1.9,0.2-3.1l8.6-22.1c0.5-1.3,1-2.4,1.5-3.3s1.1-1.6,1.8-2.1s1.2-0.8,1.9-1s1.3-0.3,2.1-0.3s1.5,0.1,2.1,0.3s1.2,0.5,1.9,1
			s1.2,1.2,1.8,2.1s1,2,1.5,3.3l8.6,22.1c0.3,1.1,0.4,2.1,0.2,3.1s-0.7,1.6-1.4,2s-1.4,0.6-2.2,0.7s-1.5-0.2-2.3-0.8
			s-1.3-1.4-1.7-2.5L747.6,149.6z M740.7,130l-5.2,14.6h10.3L740.7,130z"/>
		<path class="st18" d="M762.7,156.2c-0.7-0.8-1.1-1.7-1.1-2.7v-25.2c0-1.5,0.4-2.8,1.2-3.7s1.8-1.3,3-1.3c1.7,0,3.4,1.4,5.2,4
			l13.9,18v-18.1c0-1.1,0.4-2,1.1-2.7s1.6-1.1,2.6-1.1s1.9,0.4,2.6,1.1s1.1,1.7,1.1,2.7v23.2c0,1-0.1,1.9-0.2,2.7s-0.3,1.5-0.6,2.2
			s-0.7,1.3-1.3,1.6s-1.3,0.6-2.2,0.6s-1.8-0.3-2.6-1s-1.7-1.7-2.6-2.9L769,135v18.4c0,1.1-0.4,2-1.1,2.7s-1.6,1.1-2.6,1.1
			C764.3,157.3,763.4,157,762.7,156.2z"/>
		<path class="st18" d="M808.5,157.1c-2-0.8-3.8-1.9-5.3-3.3s-2.7-3.3-3.6-5.5s-1.3-4.8-1.3-7.5c0-2.8,0.4-5.4,1.3-7.7
			s2.1-4.2,3.7-5.7s3.4-2.7,5.5-3.5s4.4-1.2,6.9-1.2c2.1,0,4,0.2,5.7,0.7c1.1,0.3,2.4,0.9,3.9,1.6c0.5,0.3,0.9,0.7,1.2,1.2
			s0.5,0.9,0.5,1.4s0.1,0.9,0,1.4s-0.3,0.9-0.5,1.2s-0.6,0.6-0.9,0.9s-0.8,0.4-1.3,0.4s-1-0.1-1.6-0.3c-2.4-1-4.5-1.5-6.5-1.5
			c-1,0-2,0.1-2.8,0.2s-1.6,0.4-2.4,0.9s-1.5,1.1-2,1.9s-0.9,1.9-1.3,3.2s-0.5,3-0.5,4.9c0,3.6,0.7,6.3,2.2,8.2s3.6,2.8,6.4,2.8
			c1.2,0,2.5-0.2,4-0.6s2.8-0.9,4-1.6c0.7-0.4,1.4-0.3,2.1,0.1c0.8,0.5,1.3,1.2,1.4,2.1c0.2,1.3-0.3,2.5-1.6,3.6
			c-2.8,2.1-6.3,3.2-10.5,3.2C812.7,158.2,810.5,157.8,808.5,157.1z"/>
		<path class="st18" d="M834.4,156.8c-0.6-0.4-1-0.8-1.3-1.4s-0.5-1.2-0.7-1.9s-0.2-1.4-0.2-2.1v-21.3c0-0.9,0-1.6,0.1-2.3
			s0.2-1.2,0.4-1.8s0.5-1.1,0.9-1.5s0.9-0.7,1.6-0.9s1.5-0.3,2.4-0.3h15.1c0.9,0,1.7,0.3,2.3,0.9s0.9,1.4,0.9,2.3s-0.3,1.6-0.9,2.2
			s-1.4,0.9-2.3,0.9h-12.1v7.3h11c0.9,0,1.7,0.3,2.3,0.9s0.9,1.4,0.9,2.3s-0.3,1.6-0.9,2.2s-1.4,0.9-2.3,0.9h-11v7.9h12.7
			c0.8,0,1.6,0.3,2.1,0.9s0.9,1.4,0.9,2.3s-0.3,1.6-0.9,2.2s-1.3,0.9-2.1,0.9h-16.9C835.6,157.3,835,157.2,834.4,156.8z"/>
	</g>
</g>
<g>
	<g>
		<g>
			<path class="st18" d="M700.9,255.8c-0.4-0.5-0.9-1.3-1.3-2.4l-4.9-12.2v14.4c0,0.4-0.1,0.8-0.3,1.2c-0.2,0.3-0.4,0.6-0.7,0.8
				c-0.3,0.2-0.6,0.3-0.9,0.4c-0.3,0.1-0.7,0.1-1,0c-0.3-0.1-0.6-0.2-0.9-0.4s-0.5-0.4-0.7-0.8c-0.2-0.3-0.3-0.7-0.3-1.1l0-16
				c0-0.6,0.1-1.1,0.4-1.6c0.2-0.5,0.6-0.9,1-1.2c0.4-0.3,0.8-0.6,1.3-0.8c0.5-0.2,1-0.3,1.6-0.2c0.5,0.1,1.1,0.2,1.6,0.4
				s1,0.6,1.5,1.2c0.5,0.5,0.8,1.2,1.1,2l4.4,10.8l4.4-10.8c0.3-0.8,0.7-1.5,1.1-2c0.5-0.5,0.9-0.9,1.5-1.2c0.5-0.2,1-0.4,1.6-0.4
				c0.5,0,1.1,0,1.6,0.2c0.5,0.2,0.9,0.5,1.3,0.8c0.4,0.3,0.7,0.7,1,1.2c0.2,0.5,0.4,1,0.4,1.6l0,16c0,0.5-0.1,0.9-0.3,1.3
				c-0.2,0.4-0.5,0.6-0.9,0.8s-0.7,0.3-1.1,0.3c-0.4,0-0.8-0.1-1.1-0.2s-0.6-0.4-0.9-0.8c-0.2-0.4-0.3-0.8-0.3-1.3l0-14.4l-4.9,12.2
				c-0.4,1.1-0.8,1.9-1.3,2.4c-0.4,0.5-1.1,0.7-1.9,0.7C702,256.5,701.4,256.3,700.9,255.8z"/>
			<path class="st18" d="M721.6,257.3c-0.4-0.2-0.6-0.5-0.8-0.9s-0.3-0.8-0.4-1.2c-0.1-0.4-0.1-0.9-0.1-1.4v-13.6c0-0.6,0-1,0.1-1.4
				s0.1-0.8,0.3-1.2c0.1-0.4,0.3-0.7,0.6-1c0.2-0.2,0.6-0.4,1-0.6c0.4-0.1,0.9-0.2,1.5-0.2h9.6c0.6,0,1.1,0.2,1.5,0.6
				c0.4,0.4,0.6,0.9,0.6,1.4s-0.2,1-0.6,1.4c-0.4,0.4-0.9,0.6-1.5,0.6h-7.7v4.7h7.1c0.6,0,1.1,0.2,1.5,0.6c0.4,0.4,0.6,0.9,0.6,1.4
				s-0.2,1-0.6,1.4c-0.4,0.4-0.9,0.6-1.5,0.6h-7.1v5h8.1c0.5,0,1,0.2,1.4,0.6s0.6,0.9,0.6,1.4s-0.2,1-0.6,1.4
				c-0.4,0.4-0.8,0.6-1.4,0.6h-10.8C722.3,257.6,721.9,257.5,721.6,257.3z"/>
			<path class="st18" d="M741.1,255.3c-2-1.9-3-4.7-3-8.6c0-1.6,0.2-3.1,0.7-4.4c0.5-1.4,1.2-2.6,2.1-3.6c0.9-1.1,2.1-1.9,3.6-2.5
				c1.5-0.6,3.2-0.9,5.1-0.9c1.3,0,2.6,0.2,3.9,0.5c1.3,0.3,2.4,0.8,3.2,1.4c0.3,0.2,0.6,0.5,0.7,0.8c0.2,0.3,0.2,0.6,0.2,0.9
				c0,0.5-0.2,1-0.5,1.4s-0.8,0.6-1.3,0.6c-0.3,0-0.6-0.1-0.9-0.3c-0.6-0.3-1.4-0.6-2.3-0.8s-1.8-0.3-2.7-0.3c-2,0-3.5,0.6-4.5,1.9
				c-1,1.3-1.5,3.2-1.5,5.6c0,1.3,0.1,2.4,0.4,3.3s0.7,1.6,1.3,2.1c0.6,0.5,1.2,0.9,1.9,1.1c0.7,0.2,1.5,0.3,2.4,0.3
				c1,0,2-0.1,3.2-0.4V249h-2c-0.7,0-1.2-0.1-1.6-0.4c-0.4-0.2-0.6-0.7-0.6-1.3c0-1,0.6-1.6,1.8-1.6c0.6,0,1.6,0,2.8,0
				c1.2,0,2.2,0,2.8,0c0.7,0,1.2,0.2,1.5,0.6c0.2,0.4,0.4,1.1,0.4,2.1v3.9c0,0.7,0,1.4-0.1,1.8c-0.1,0.5-0.1,0.9-0.3,1.3
				c-0.1,0.4-0.4,0.7-0.7,1c-0.3,0.2-0.7,0.4-1.1,0.6c-0.4,0.2-1,0.3-1.7,0.5c-2.4,0.3-4,0.4-4.9,0.4
				C746,258.2,743.1,257.2,741.1,255.3z"/>
			<path class="st18" d="M775,252.6h-8.8l-1,2.8c-0.2,0.7-0.6,1.2-1.1,1.6c-0.5,0.4-1,0.5-1.5,0.5c-0.5,0-1-0.2-1.4-0.4
				s-0.7-0.7-0.9-1.3c-0.1-0.6-0.1-1.2,0.1-2l5.5-14.1c0.3-0.8,0.6-1.6,1-2.1s0.7-1,1.1-1.3c0.4-0.3,0.8-0.5,1.2-0.6
				c0.4-0.1,0.8-0.2,1.3-0.2c0.5,0,0.9,0.1,1.3,0.2s0.8,0.3,1.2,0.6c0.4,0.3,0.8,0.7,1.1,1.3c0.3,0.6,0.7,1.3,1,2.1l5.5,14.1
				c0.2,0.7,0.3,1.4,0.1,2c-0.1,0.6-0.4,1-0.9,1.3s-0.9,0.4-1.4,0.4c-0.5,0-1-0.1-1.5-0.5c-0.5-0.4-0.8-0.9-1.1-1.6L775,252.6z
				 M770.6,240.1l-3.3,9.4h6.6L770.6,240.1z"/>
			<path class="st18" d="M786,257.5c-0.4-0.1-0.7-0.3-1-0.6c-0.3-0.3-0.5-0.7-0.7-1.3c-0.1-0.6-0.2-1.3-0.2-2.2v-14.8
				c0-1,0.3-1.7,1-2.1c0.6-0.4,1.5-0.7,2.5-0.7h4.3c0.1,0,0.2,0,0.4,0c0.6,0,1.1,0,1.4,0c0.3,0,0.7,0,1.3,0.1c0.6,0,1.1,0.1,1.4,0.1
				s0.7,0.2,1.2,0.3s0.9,0.3,1.2,0.5s0.6,0.4,0.9,0.7c0.3,0.3,0.6,0.6,0.8,1c0.2,0.4,0.3,0.8,0.4,1.3c0.1,0.5,0.2,1,0.2,1.6
				c0,1.2-0.4,2.2-1.1,3.2c-0.8,0.9-1.7,1.5-3,1.7v0.1c1.5,0.2,2.7,0.8,3.6,1.8c0.9,1,1.3,2.1,1.3,3.5c0,0.8-0.2,1.5-0.5,2.3
				c-0.3,0.7-0.8,1.4-1.4,1.9c-0.6,0.6-1.4,1-2.4,1.4c-1,0.3-2.1,0.5-3.4,0.5h-6.7C786.9,257.6,786.4,257.6,786,257.5z M791.2,245.2
				c0.7,0,1.3,0,1.9-0.1c0.5-0.1,1-0.2,1.4-0.4c0.4-0.2,0.8-0.5,1-0.9c0.2-0.4,0.3-0.9,0.3-1.5c0-0.6-0.1-1.1-0.3-1.5
				s-0.5-0.7-0.9-0.9s-0.9-0.4-1.3-0.4c-0.5-0.1-1-0.1-1.7-0.1h-2.2v5.9H791.2z M791.5,254.2c0.9,0,1.6,0,2.1-0.1s1.1-0.2,1.5-0.5
				c0.4-0.2,0.8-0.6,1-1s0.3-1,0.3-1.7c0-1.1-0.4-1.9-1.3-2.4c-0.9-0.5-2.1-0.7-3.8-0.7h-2v6.4H791.5z"/>
			<path class="st18" d="M807.3,255.3c-1.8-1.9-2.7-4.8-2.7-8.6c0-3.8,0.9-6.7,2.7-8.6s4.5-2.9,8-2.9c3.5,0,6.2,1,8,2.9
				c1.8,1.9,2.7,4.8,2.7,8.6c0,3.8-0.9,6.6-2.7,8.6c-1.8,1.9-4.5,2.9-8,2.9C811.8,258.2,809.2,257.2,807.3,255.3z M819.2,252.5
				c0.8-1.1,1.1-3,1.1-5.7c0-2.7-0.4-4.6-1.1-5.8c-0.8-1.1-2-1.7-3.8-1.7c-1.2,0-2.1,0.2-2.8,0.7c-0.7,0.5-1.2,1.2-1.6,2.3
				c-0.3,1.1-0.5,2.5-0.5,4.4c0,2.7,0.4,4.6,1.1,5.7c0.8,1.1,2,1.7,3.8,1.7C817.1,254.1,818.4,253.6,819.2,252.5z"/>
			<path class="st18" d="M837.7,250.3l-4.6,5.9c-0.2,0.3-0.5,0.6-0.7,0.8c-0.7,0.6-1.5,0.7-2.2,0.4c-0.6-0.2-1.1-0.7-1.3-1.3
				c-0.3-0.9-0.1-2,0.7-3l5.3-6.3l-5.1-6.6c-0.4-0.6-0.6-1.2-0.6-1.9c0-0.6,0.1-1.1,0.5-1.5s0.7-0.7,1.2-0.9c0.5-0.2,1-0.2,1.5,0.1
				s1.1,0.6,1.5,1.3l4.4,5.8l4.1-5.4c0.2-0.4,0.5-0.7,0.8-0.9c0.8-0.7,1.6-0.9,2.4-0.5c0.6,0.3,1,0.7,1.3,1.4
				c0.3,0.8,0.2,1.5-0.3,2.2l-5.5,6.8l5.6,7.3c0.2,0.3,0.3,0.5,0.4,0.8c0.3,0.8,0.2,1.6-0.3,2.3c-0.5,0.6-1.1,1-1.8,1
				c-1,0.1-1.8-0.4-2.6-1.5L837.7,250.3z"/>
		</g>
	</g>
	<g>
		<g>
			<path class="st18" d="M692.4,402.9c-2-1.9-3-4.7-3-8.6c0-1.6,0.2-3.1,0.7-4.4c0.5-1.4,1.2-2.6,2.1-3.6c0.9-1.1,2.1-1.9,3.6-2.5
				c1.5-0.6,3.2-0.9,5.1-0.9c1.3,0,2.6,0.2,3.9,0.5c1.3,0.3,2.4,0.8,3.2,1.4c0.3,0.2,0.6,0.5,0.7,0.8c0.2,0.3,0.2,0.6,0.2,0.9
				c0,0.5-0.2,1-0.5,1.4s-0.8,0.6-1.3,0.6c-0.3,0-0.6-0.1-0.9-0.3c-0.6-0.3-1.4-0.6-2.3-0.8s-1.8-0.3-2.7-0.3c-2,0-3.5,0.6-4.5,1.9
				c-1,1.3-1.5,3.2-1.5,5.6c0,1.3,0.1,2.4,0.4,3.3s0.7,1.6,1.3,2.1c0.6,0.5,1.2,0.9,1.9,1.1c0.7,0.2,1.5,0.3,2.4,0.3
				c1,0,2-0.1,3.2-0.4v-4.5h-2c-0.7,0-1.2-0.1-1.6-0.4c-0.4-0.2-0.6-0.7-0.6-1.3c0-1,0.6-1.6,1.8-1.6c0.6,0,1.6,0,2.8,0
				c1.2,0,2.2,0,2.8,0c0.7,0,1.2,0.2,1.5,0.6c0.2,0.4,0.4,1.1,0.4,2.1v3.9c0,0.7,0,1.4-0.1,1.8c-0.1,0.5-0.1,0.9-0.3,1.3
				c-0.1,0.4-0.4,0.7-0.7,1c-0.3,0.2-0.7,0.4-1.1,0.6c-0.4,0.2-1,0.3-1.7,0.5c-2.4,0.3-4,0.4-4.9,0.4
				C697.2,405.7,694.4,404.8,692.4,402.9z"/>
			<path class="st18" d="M715,402.9c-1.8-1.9-2.7-4.8-2.7-8.6c0-3.8,0.9-6.7,2.7-8.6s4.5-2.9,8-2.9c3.5,0,6.2,1,8,2.9
				c1.8,1.9,2.7,4.8,2.7,8.6c0,3.8-0.9,6.6-2.7,8.6c-1.8,1.9-4.5,2.9-8,2.9C719.4,405.7,716.8,404.8,715,402.9z M726.8,400
				c0.8-1.1,1.1-3,1.1-5.7c0-2.7-0.4-4.6-1.1-5.8c-0.8-1.1-2-1.7-3.8-1.7c-1.2,0-2.1,0.2-2.8,0.7c-0.7,0.5-1.2,1.2-1.6,2.3
				c-0.3,1.1-0.5,2.5-0.5,4.4c0,2.7,0.4,4.6,1.1,5.7c0.8,1.1,2,1.7,3.8,1.7C724.7,401.7,726,401.1,726.8,400z"/>
			<path class="st18" d="M739.4,402.9c-1.8-1.9-2.7-4.8-2.7-8.6c0-3.8,0.9-6.7,2.7-8.6s4.5-2.9,8-2.9c3.5,0,6.2,1,8,2.9
				c1.8,1.9,2.7,4.8,2.7,8.6c0,3.8-0.9,6.6-2.7,8.6c-1.8,1.9-4.5,2.9-8,2.9C743.9,405.7,741.2,404.8,739.4,402.9z M751.2,400
				c0.8-1.1,1.1-3,1.1-5.7c0-2.7-0.4-4.6-1.1-5.8c-0.8-1.1-2-1.7-3.8-1.7c-1.2,0-2.1,0.2-2.8,0.7c-0.7,0.5-1.2,1.2-1.6,2.3
				c-0.3,1.1-0.5,2.5-0.5,4.4c0,2.7,0.4,4.6,1.1,5.7c0.8,1.1,2,1.7,3.8,1.7C749.2,401.7,750.5,401.1,751.2,400z"/>
			<path class="st18" d="M763,404.5c-0.4-0.4-0.7-0.9-0.9-1.5c-0.1-0.6-0.2-1.3-0.2-2v-13.4c0-1.5,0.3-2.6,0.8-3.3s1.5-1,2.9-1h3.2
				c4.1,0,7.1,0.9,9.2,2.8c2.1,1.9,3.1,4.6,3.1,8.3c0,3.5-1,6.2-3,8c-2,1.8-5,2.7-8.9,2.7h-4.7C763.9,405.1,763.4,404.9,763,404.5z
				 M769.1,401.4c1.6,0,2.8-0.2,3.7-0.7c0.9-0.4,1.6-1.2,2-2.2c0.4-1,0.7-2.4,0.7-4.2c0-2.6-0.5-4.5-1.4-5.5c-1-1.1-2.6-1.6-4.8-1.6
				h-1.8v14.2H769.1z"/>
			<path class="st18" d="M790.9,405c-1.3-0.5-2.4-1.2-3.4-2.1s-1.8-2.1-2.3-3.5c-0.6-1.4-0.8-3-0.8-4.8c0-1.8,0.3-3.4,0.8-4.9
				c0.6-1.5,1.3-2.7,2.3-3.7c1-1,2.2-1.7,3.5-2.3c1.3-0.5,2.8-0.8,4.4-0.8c1.3,0,2.6,0.1,3.7,0.4c0.7,0.2,1.5,0.5,2.5,1
				c0.3,0.2,0.6,0.5,0.8,0.8c0.2,0.3,0.3,0.6,0.3,0.9c0,0.3,0,0.6,0,0.9c-0.1,0.3-0.2,0.6-0.3,0.8c-0.2,0.2-0.4,0.4-0.6,0.6
				c-0.2,0.2-0.5,0.2-0.8,0.2c-0.3,0-0.7-0.1-1-0.2c-1.5-0.7-2.9-1-4.1-1c-0.7,0-1.3,0-1.8,0.1c-0.5,0.1-1,0.3-1.5,0.6
				c-0.5,0.3-0.9,0.7-1.3,1.2c-0.3,0.5-0.6,1.2-0.8,2.1c-0.2,0.9-0.3,1.9-0.3,3.1c0,2.3,0.5,4,1.4,5.2s2.3,1.8,4.1,1.8
				c0.8,0,1.6-0.1,2.5-0.4c0.9-0.3,1.8-0.6,2.5-1c0.4-0.2,0.9-0.2,1.4,0.1c0.5,0.3,0.8,0.8,0.9,1.4c0.1,0.9-0.2,1.6-1,2.3
				c-1.8,1.4-4,2.1-6.7,2.1C793.6,405.7,792.2,405.5,790.9,405z"/>
			<path class="st18" d="M806.8,404.2c-0.5-0.6-0.8-1.3-0.8-2.2v-15.6c0-0.9,0.3-1.6,0.8-2.2c0.5-0.6,1.2-0.9,1.9-0.9
				c0.8,0,1.4,0.3,2,0.9s0.8,1.3,0.8,2.2v5.2h7.8v-5.2c0-0.8,0.3-1.6,0.8-2.2s1.2-0.9,2-0.9c0.8,0,1.4,0.3,2,0.9
				c0.5,0.6,0.8,1.3,0.8,2.2V402c0,0.9-0.3,1.6-0.8,2.2c-0.5,0.6-1.2,0.9-2,0.9c-0.8,0-1.4-0.3-1.9-0.9c-0.5-0.6-0.8-1.3-0.8-2.2
				l0-5.9h-7.8v5.9c0,0.9-0.3,1.6-0.8,2.2s-1.2,0.9-2,0.9C808,405.1,807.4,404.8,806.8,404.2z"/>
			<path class="st18" d="M830.9,402.9c-1.8-1.9-2.7-4.8-2.7-8.6c0-3.8,0.9-6.7,2.7-8.6s4.5-2.9,8-2.9c3.5,0,6.2,1,8,2.9
				c1.8,1.9,2.7,4.8,2.7,8.6c0,3.8-0.9,6.6-2.7,8.6c-1.8,1.9-4.5,2.9-8,2.9C835.4,405.7,832.7,404.8,830.9,402.9z M842.7,400
				c0.8-1.1,1.1-3,1.1-5.7c0-2.7-0.4-4.6-1.1-5.8c-0.8-1.1-2-1.7-3.8-1.7c-1.2,0-2.1,0.2-2.8,0.7c-0.7,0.5-1.2,1.2-1.6,2.3
				c-0.3,1.1-0.5,2.5-0.5,4.4c0,2.7,0.4,4.6,1.1,5.7c0.8,1.1,2,1.7,3.8,1.7C840.7,401.7,841.9,401.1,842.7,400z"/>
			<path class="st18" d="M854.3,404.2c-0.5-0.6-0.8-1.3-0.8-2.2v-15.6c0-0.9,0.3-1.6,0.8-2.2c0.5-0.6,1.2-0.9,2-0.9
				c0.8,0,1.4,0.3,1.9,0.9s0.8,1.4,0.8,2.2V402c0,0.9-0.3,1.6-0.8,2.2s-1.2,0.9-2,0.9C855.5,405.1,854.9,404.8,854.3,404.2z"/>
			<path class="st18" d="M869.5,405c-1.3-0.5-2.4-1.2-3.4-2.1s-1.8-2.1-2.3-3.5c-0.6-1.4-0.8-3-0.8-4.8c0-1.8,0.3-3.4,0.8-4.9
				c0.6-1.5,1.3-2.7,2.3-3.7c1-1,2.2-1.7,3.5-2.3c1.3-0.5,2.8-0.8,4.4-0.8c1.3,0,2.6,0.1,3.7,0.4c0.7,0.2,1.5,0.5,2.5,1
				c0.3,0.2,0.6,0.5,0.8,0.8c0.2,0.3,0.3,0.6,0.3,0.9c0,0.3,0,0.6,0,0.9c-0.1,0.3-0.2,0.6-0.3,0.8c-0.2,0.2-0.4,0.4-0.6,0.6
				c-0.2,0.2-0.5,0.2-0.8,0.2c-0.3,0-0.7-0.1-1-0.2c-1.5-0.7-2.9-1-4.1-1c-0.7,0-1.3,0-1.8,0.1c-0.5,0.1-1,0.3-1.5,0.6
				c-0.5,0.3-0.9,0.7-1.3,1.2c-0.3,0.5-0.6,1.2-0.8,2.1c-0.2,0.9-0.3,1.9-0.3,3.1c0,2.3,0.5,4,1.4,5.2s2.3,1.8,4.1,1.8
				c0.8,0,1.6-0.1,2.5-0.4c0.9-0.3,1.8-0.6,2.5-1c0.4-0.2,0.9-0.2,1.4,0.1c0.5,0.3,0.8,0.8,0.9,1.4c0.1,0.9-0.2,1.6-1,2.3
				c-1.8,1.4-4,2.1-6.7,2.1C872.2,405.7,870.8,405.5,869.5,405z"/>
			<path class="st18" d="M886.1,404.8c-0.4-0.2-0.6-0.5-0.8-0.9s-0.3-0.8-0.4-1.2c-0.1-0.4-0.1-0.9-0.1-1.4v-13.6c0-0.6,0-1,0.1-1.4
				s0.1-0.8,0.3-1.2c0.1-0.4,0.3-0.7,0.6-1c0.2-0.2,0.6-0.4,1-0.6c0.4-0.1,0.9-0.2,1.5-0.2h9.6c0.6,0,1.1,0.2,1.5,0.6
				c0.4,0.4,0.6,0.9,0.6,1.4s-0.2,1-0.6,1.4c-0.4,0.4-0.9,0.6-1.5,0.6H890v4.7h7.1c0.6,0,1.1,0.2,1.5,0.6c0.4,0.4,0.6,0.9,0.6,1.4
				s-0.2,1-0.6,1.4c-0.4,0.4-0.9,0.6-1.5,0.6H890v5h8.1c0.5,0,1,0.2,1.4,0.6s0.6,0.9,0.6,1.4s-0.2,1-0.6,1.4
				c-0.4,0.4-0.8,0.6-1.4,0.6h-10.8C886.9,405.1,886.4,405,886.1,404.8z"/>
		</g>
	</g>
	<g>
		<g>
			<path class="st18" d="M692.3,559.8c-1-0.3-1.8-0.9-2.5-1.6c-0.5-0.5-0.8-1-0.9-1.5c0-0.2,0-0.3,0-0.4c0-0.7,0.2-1.2,0.6-1.7
				c0.4-0.5,0.9-0.7,1.5-0.7c0.5,0,1,0.2,1.5,0.6c0.8,0.6,1.7,0.9,2.5,0.9c1,0,1.7-0.2,2.2-0.7c0.4-0.5,0.7-1.3,0.7-2.5v-11
				c0-0.8,0.3-1.6,0.8-2.2c0.5-0.6,1.2-0.9,1.9-0.9c0.8,0,1.4,0.3,2,0.9c0.5,0.6,0.8,1.3,0.8,2.2l0,11.5c0,2.5-0.7,4.4-2.1,5.7
				c-1.4,1.3-3.3,2-5.8,2C694.3,560.3,693.3,560.1,692.3,559.8z"/>
			<path class="st18" d="M708.6,558.8c-0.5-0.6-0.8-1.3-0.8-2.2v-15.6c0-0.9,0.3-1.6,0.8-2.2c0.5-0.6,1.2-0.9,2-0.9
				c0.8,0,1.4,0.3,1.9,0.9c0.5,0.6,0.8,1.3,0.8,2.2v15.6c0,0.9-0.3,1.6-0.8,2.2s-1.2,0.9-2,0.9C709.8,559.8,709.1,559.5,708.6,558.8
				z"/>
			<path class="st18" d="M718.6,559c-0.5-0.5-0.7-1.1-0.7-1.8v-16.1c0-1,0.3-1.8,0.8-2.3c0.5-0.6,1.2-0.9,1.9-0.9
				c1.1,0,2.2,0.9,3.3,2.6l8.9,11.5v-11.6c0-0.7,0.2-1.3,0.7-1.8c0.4-0.5,1-0.7,1.6-0.7s1.2,0.2,1.7,0.7c0.5,0.5,0.7,1.1,0.7,1.8
				v14.8c0,0.7,0,1.2-0.1,1.7c-0.1,0.5-0.2,1-0.4,1.4c-0.2,0.5-0.5,0.8-0.8,1c-0.4,0.2-0.8,0.4-1.4,0.4c-0.6,0-1.1-0.2-1.7-0.7
				c-0.5-0.4-1.1-1.1-1.6-1.9l-8.9-11.7v11.8c0,0.7-0.2,1.3-0.7,1.8c-0.5,0.5-1,0.7-1.7,0.7C719.6,559.8,719.1,559.5,718.6,559z"/>
			<path class="st18" d="M755.3,554.8h-8.8l-1,2.8c-0.2,0.7-0.6,1.2-1.1,1.6c-0.5,0.4-1,0.5-1.5,0.5s-1-0.2-1.4-0.4
				c-0.4-0.3-0.7-0.7-0.9-1.3c-0.1-0.6-0.1-1.2,0.1-2l5.5-14.1c0.3-0.8,0.6-1.6,1-2.1s0.7-1,1.1-1.3s0.8-0.5,1.2-0.6
				c0.4-0.1,0.8-0.2,1.3-0.2c0.5,0,0.9,0.1,1.3,0.2s0.8,0.3,1.2,0.6s0.8,0.7,1.1,1.3c0.3,0.6,0.7,1.3,1,2.1L761,556
				c0.2,0.7,0.3,1.4,0.1,2c-0.1,0.6-0.4,1-0.9,1.3c-0.4,0.3-0.9,0.4-1.4,0.4s-1-0.1-1.5-0.5c-0.5-0.4-0.8-0.9-1.1-1.6L755.3,554.8z
				 M750.9,542.3l-3.3,9.4h6.6L750.9,542.3z"/>
			<path class="st18" d="M765.3,558.8c-0.5-0.6-0.8-1.3-0.8-2.2v-15.6c0-0.9,0.3-1.6,0.8-2.2c0.5-0.6,1.2-0.9,2-0.9
				c0.8,0,1.4,0.3,1.9,0.9c0.5,0.6,0.8,1.3,0.8,2.2v15.6c0,0.9-0.3,1.6-0.8,2.2s-1.2,0.9-2,0.9C766.5,559.8,765.8,559.5,765.3,558.8
				z"/>
			<path class="st18" d="M775.4,558.9c-0.5-0.6-0.8-1.3-0.8-2.3v-15.8c0-1,0.3-1.7,1-2.2c0.6-0.5,1.5-0.7,2.4-0.7h6
				c1,0,1.8,0,2.6,0.1c0.8,0.1,1.5,0.2,2.3,0.5c0.8,0.2,1.4,0.6,1.9,1c0.5,0.4,0.9,0.9,1.2,1.6c0.3,0.7,0.5,1.4,0.5,2.3
				c0,2.9-1.6,4.6-4.8,5.1v0.1c0.8,0.1,1.5,0.2,2,0.4c0.5,0.2,0.9,0.5,1.3,0.9c0.3,0.4,0.6,0.9,0.7,1.4c0.2,0.5,0.3,1.2,0.4,2.1
				l0.3,2c0.2,1.5,0.1,2.7-0.3,3.3c-0.4,0.7-1.1,1-2.2,1c-0.9,0-1.6-0.3-2-0.9c-0.5-0.6-0.7-1.5-0.8-2.8l-0.2-2
				c-0.1-1.1-0.4-2-0.9-2.5c-0.5-0.5-1.4-0.8-2.5-0.8h-3.1v5.8c0,1-0.3,1.8-0.8,2.3c-0.5,0.5-1.2,0.8-2,0.8
				C776.6,559.8,775.9,559.5,775.4,558.9z M782.5,547.3c0.6,0,1.2,0,1.6-0.1c0.5-0.1,0.9-0.2,1.4-0.4c0.5-0.2,0.8-0.5,1.1-0.9
				c0.3-0.4,0.4-0.9,0.4-1.5c0-0.4,0-0.8-0.1-1.1c-0.1-0.3-0.2-0.6-0.4-0.8c-0.1-0.2-0.3-0.4-0.6-0.5c-0.3-0.2-0.5-0.3-0.7-0.3
				c-0.2-0.1-0.5-0.1-0.9-0.2c-0.4,0-0.7-0.1-0.9-0.1c-0.3,0-0.6,0-1,0h-2.3v6H782.5z"/>
		</g>
	</g>
</g>
</svg>
