<?xml version="1.0" encoding="utf-8"?>
<!-- Generator: Adobe Illustrator 19.0.0, SVG Export Plug-In . SVG Version: 6.00 Build 0)  -->
<svg version="1.1" id="Layer_1" xmlns="http://www.w3.org/2000/svg" xmlns:xlink="http://www.w3.org/1999/xlink" x="0px" y="0px"
	 viewBox="-279 -4618.1 43.3 12099" style="enable-background:new -279 -4618.1 43.3 12099;" xml:space="preserve">
<style type="text/css">
	.st0{fill:#3E3A39;}
	.st1{fill:#FFFFFF;}
	.st2{fill:none;stroke:#3E3A39;stroke-width:6;stroke-linecap:round;stroke-miterlimit:10;}
</style>
<g>
	<g id="XMLID_1533_">
		<path class="st0" d="M-257.3-3676c-1.7,0-3-1.3-3-3v-720.3c0-1.7,1.3-3,3-3s3,1.3,3,3v720.3C-254.3-3677.3-255.6-3676-257.3-3676z
			"/>
	</g>
	<g id="XMLID_1532_">
		<path class="st0" d="M-257.3-4426.2c-1.7,0-3-1.3-3-3v-63.5c0-1.7,1.3-3,3-3s3,1.3,3,3v63.5
			C-254.3-4427.6-255.6-4426.2-257.3-4426.2z"/>
	</g>
	<g id="XMLID_1531_">
		<path class="st0" d="M-257.3-4521.9c-1.7,0-3-1.3-3-3v-40.5c0-1.7,1.3-3,3-3s3,1.3,3,3v40.5
			C-254.3-4523.3-255.6-4521.9-257.3-4521.9z"/>
	</g>
	<g id="XMLID_1495_">
		<path class="st0" d="M-257.3-4586.6c-1.7,0-3-1.3-3-3v-25.5c0-1.7,1.3-3,3-3s3,1.3,3,3v25.5
			C-254.3-4587.9-255.6-4586.6-257.3-4586.6z"/>
	</g>
	<g id="XMLID_1492_">
		<circle class="st1" cx="-257.3" cy="-3821.6" r="15"/>
		<path class="st0" d="M-257.3-3803.6c-9.9,0-18-8.1-18-18s8.1-18,18-18s18,8.1,18,18S-247.4-3803.6-257.3-3803.6z M-257.3-3833.6
			c-6.6,0-12,5.4-12,12s5.4,12,12,12s12-5.4,12-12S-250.6-3833.6-257.3-3833.6z"/>
	</g>
	<g id="XMLID_1491_">
		<circle class="st1" cx="-257.3" cy="-3698.6" r="15"/>
		<path class="st0" d="M-257.3-3680.6c-9.9,0-18-8.1-18-18s8.1-18,18-18s18,8.1,18,18S-247.4-3680.6-257.3-3680.6z M-257.3-3710.6
			c-6.6,0-12,5.4-12,12s5.4,12,12,12s12-5.4,12-12S-250.6-3710.6-257.3-3710.6z"/>
	</g>
	<g id="XMLID_1487_">
		<path class="st0" d="M-257.3,6446.1c-1.7,0-3-1.3-3-3V-3679.1c0-1.7,1.3-3,3-3s3,1.3,3,3V6443.1
			C-254.3,6444.7-255.6,6446.1-257.3,6446.1z"/>
	</g>
	<g id="XMLID_1454_">
		<circle class="st1" cx="-257.3" cy="-2915.9" r="15"/>
		<path class="st0" d="M-257.3-2897.9c-9.9,0-18-8.1-18-18c0-9.9,8.1-18,18-18s18,8.1,18,18C-239.3-2906-247.4-2897.9-257.3-2897.9z
			 M-257.3-2927.9c-6.6,0-12,5.4-12,12c0,6.6,5.4,12,12,12s12-5.4,12-12C-245.3-2922.5-250.6-2927.9-257.3-2927.9z"/>
	</g>
	<g id="XMLID_1453_">
		<circle class="st1" cx="-257.3" cy="-2792.9" r="15"/>
		<path class="st0" d="M-257.3-2774.9c-9.9,0-18-8.1-18-18c0-9.9,8.1-18,18-18s18,8.1,18,18C-239.3-2783-247.4-2774.9-257.3-2774.9z
			 M-257.3-2804.9c-6.6,0-12,5.4-12,12c0,6.6,5.4,12,12,12s12-5.4,12-12C-245.3-2799.5-250.6-2804.9-257.3-2804.9z"/>
	</g>
</g>
<line id="XMLID_270_" class="st2" x1="-257.3" y1="6474.9" x2="-257.3" y2="6544.2"/>
<line id="XMLID_321_" class="st2" x1="-257.3" y1="6573.9" x2="-257.3" y2="6597.2"/>
<line id="XMLID_323_" class="st2" x1="-257.3" y1="6626.9" x2="-257.3" y2="6650.2"/>
</svg>
