<?xml version="1.0" encoding="utf-8"?>
<!-- Generator: Adobe Illustrator 19.0.0, SVG Export Plug-In . SVG Version: 6.00 Build 0)  -->
<svg version="1.1" id="Layer_1" xmlns="http://www.w3.org/2000/svg" xmlns:xlink="http://www.w3.org/1999/xlink" x="0px" y="0px"
	 viewBox="662 314.6 1920 277" style="enable-background:new 662 314.6 1920 277;" xml:space="preserve">
<style type="text/css">
	.st0{fill:#FFFFFF;}
	.st1{fill:#3F3B3A;}
</style>
<path id="XMLID_750_" class="st0" d="M2582.1,517.2c-1.7-0.1-3.5-0.6-5.2-0.4c-28.2,2.4-46.8-11.1-63.4-33.1
	c-41.3-54.6-97.1-75.1-164.3-63.3c-13.1,2.3-25.8,7.6-38,13.2c-8.6,4-13.3,3-19.6-4.2c-49-55.6-109.6-92.8-182.7-105.7
	c-137.2-24.2-249.1,20.1-333.5,131.1c-20,26.3-40.9,49.8-74.3,57.7c-10.5,2.5-21.4,3.7-32.2,4c-19.5,0.7-39.1-0.4-58.7,0.5
	c-23.2,1.1-43.2-4.2-60.8-20.8c-13.5-12.8-31.3-14.8-48.9-8.2c-7.1,2.7-11.2,2-16.8-3.5c-49.1-49.3-125.8-41.2-163.8,17.4
	c-6.9,10.7-15.3,15.3-28,15.1c-25.6-0.5-51.3-0.2-76.9-0.1c-29,0.1-53-10.3-72.9-31.7c-37.1-39.7-85.7-49.6-135.5-27.5
	c-9.5,4.2-13.3-0.4-18.4-5.9c-80.7-87-206.5-101.3-304.5-34.5c-7.5,5.1-14.5,11-21.8,16.6c0,16.9,0,109.2,0,153.2l1920.2,0
	C2582.2,583,2582.1,519.8,2582.1,517.2z"/>
<path id="XMLID_749_" class="st1" d="M2582.2,514.5c-3.6-0.4-7.2-0.5-10.7-0.5c-4.2-0.1-8.2-0.1-12.1-0.7c-5.9-1-11.7-2.9-17-5.7
	c-9.7-5.1-18.5-13.3-27.9-25.7c-41.5-55-97.7-76.6-167.1-64.4c-13.7,2.4-27.2,8.1-38.7,13.4c-7.5,3.5-10.6,2.8-16.1-3.5
	c-51.2-58.2-113.2-94.1-184.2-106.7c-83.5-14.7-161.8-3.3-226.2,33.2c-33.4,18.9-59.5,43.7-85.6,69.6c-7.7,7.7-14.4,16.5-20.9,25
	c-5.1,6.7-10.4,13.7-16.2,20c-10.6,11.6-20.9,20.7-31.6,27.8c-12.1,8-25.5,11.6-42,14.6c-23.6,4.3-47.7,5.4-71.6,3.4
	c-21.6-1.8-46-3.9-63.4-20.4c-13.7-12.9-32.6-16.1-51.9-8.8c-6.2,2.3-9,1.8-13.6-2.8c-24-24.1-56.1-36-88.2-32.7
	c-32.3,3.3-61.5,21.8-80.2,50.5c-6.4,9.8-14,13.9-25.4,13.7c-19.8-0.4-40-0.3-59.5-0.2c-5.8,0-11.6,0.1-17.5,0.1c-0.1,0-0.3,0-0.4,0
	c-28,0-51-10-70.3-30.7c-18.9-20.2-40.6-33-64.5-37.8c-24-4.9-48.9-1.6-74.2,9.6c-7.2,3.2-9.6,0.6-14.4-4.6l-0.6-0.6
	c-39.5-42.6-91.9-69.6-147.5-75.9S730,381.9,682,414.6c-5.2,3.6-10.2,7.5-15.1,11.3c-1.7,1.3-3.3,2.6-5,3.9v6.8
	c0.6,0,1.3-0.2,1.8-0.6c2.3-1.8,4.6-3.6,6.9-5.4c4.8-3.8,9.7-7.6,14.7-11.1c97-66.1,220.6-52.1,300.4,34.1l0.6,0.6
	c5,5.4,10.1,11,21.2,6c48.7-21.7,95.6-12.1,131.9,26.8c20.5,21.9,44.9,32.6,74.7,32.6c0.1,0,0.3,0,0.4,0c5.8,0,11.6-0.1,17.5-0.1
	c19.5-0.1,39.6-0.2,59.3,0.2c13.6,0.3,23-4.8,30.5-16.4c17.7-27.2,45.3-44.7,75.8-47.8c30.3-3.1,60.6,8.1,83.3,30.9
	c6.3,6.3,11.5,7.4,19.9,4.2c17.4-6.6,33.6-3.9,45.7,7.6c18.9,17.9,44.5,20.1,67,22c7.9,0.7,15.7,1,23.6,1c16.6,0,33.2-1.5,49.6-4.5
	c17.2-3.1,31.3-7,44.3-15.5c11.1-7.3,21.8-16.7,32.7-28.7c5.9-6.5,11.3-13.6,16.5-20.4c6.4-8.4,12.9-17,20.4-24.4
	c25.7-25.6,51.6-50,84.3-68.6c63.2-35.8,140-47,222.2-32.5c69.7,12.3,130.5,47.5,180.8,104.7c7.2,8.2,13.3,9.5,23.1,4.9
	c11.1-5.1,24.2-10.7,37.2-13c67-11.8,121.2,9.1,161.3,62.1c9.9,13.1,19.4,21.8,29.8,27.4c5.9,3.1,12.3,5.3,18.9,6.4
	c4.4,0.7,8.7,0.8,13,0.8c3.5,0,6.8,0.1,10.1,0.5c0.2,0,0.5,0,0.7,0L2582.2,514.5L2582.2,514.5z"/>
</svg>
