<?xml version="1.0" encoding="utf-8"?>
<!-- Generator: Adobe Illustrator 19.0.0, SVG Export Plug-In . SVG Version: 6.00 Build 0)  -->
<svg version="1.1" id="Layer_1" xmlns="http://www.w3.org/2000/svg" xmlns:xlink="http://www.w3.org/1999/xlink" x="0px" y="0px"
	 viewBox="106 -393.1 844 1627" style="enable-background:new 106 -393.1 844 1627;" xml:space="preserve">
<style type="text/css">
	.st0{fill:#FFFFFF;stroke:#3F3B3A;stroke-width:6;stroke-linecap:round;stroke-linejoin:round;stroke-miterlimit:10;}
	.st1{fill:#E0E0E0;stroke:#3F3B3A;stroke-width:6;stroke-linecap:round;stroke-linejoin:round;stroke-miterlimit:10;}
	.st2{fill:#3F3B3A;}
	.st3{font-family:'Nunito-Bold';}
	.st4{font-size:40px;}
	.st5{font-family:'NanumSquareRoundB';}
	.st6{font-family:'NanumSquareRoundR';}
	.st7{font-size:32px;}
	.st8{fill:none;stroke:#3F3B3A;stroke-width:6;stroke-linecap:round;stroke-linejoin:round;stroke-miterlimit:10;}
	.st9{fill:#61B584;stroke:#3F3B3A;stroke-width:6;stroke-miterlimit:10;}
	.st10{font-size:65px;}
	.st11{fill:none;stroke:#3F3B3A;stroke-width:6;stroke-miterlimit:10;}
	.st12{fill:#FFFFFF;stroke:#3F3B3A;stroke-width:6;stroke-miterlimit:10;}
	.st13{fill:none;stroke:#3F3B3A;stroke-width:6;stroke-linecap:round;stroke-miterlimit:10;}
	.st14{fill:#61B584;stroke:#3F3B3A;stroke-width:6;stroke-linecap:round;stroke-linejoin:round;stroke-miterlimit:10;}
</style>
<g id="XMLID_55_">
	<path id="XMLID_1653_" class="st0" d="M293.3,125.9h353.8c0,0,65.3,1,75.9,52.2c4.7,22.6,9.4,45.1,35.9,50c13,2.4,28,1,41.1,2.9
		c8.4,1.2,16.7,3.6,24.4,7c23.9,10.8,40.6,31.3,50.8,54c2.3,5.1,4.6,10.4,6.1,15.8l9.2,32.3H293.3V125.9z"/>
	<path id="XMLID_1652_" class="st1" d="M312.7,260.5c0,28.6,24.2,51.6,53.2,49.6c24.9-1.7,44.9-22.2,46.1-47.1
		c0.7-15.4-5.5-29.3-15.9-38.9c2.9-5.8,4.4-12.4,4-19.4c-1.1-19-16.5-34.4-35.5-35.6c-22-1.3-40.2,16.1-40.2,37.8
		c0,6.2,1.5,12,4.1,17.1C318.9,233.1,312.7,246.1,312.7,260.5z"/>
	<text transform="matrix(1 0 0 1 421.2506 544.4304)" class="st2 st3 st4">2011.10 </text>
	<text transform="matrix(1 0 0 1 589.5506 544.4304)" class="st2 st5 st4">~ </text>
	<text transform="matrix(1 0 0 1 623.7506 544.4304)" class="st2 st3 st4">2015.06</text>
	<text id="XMLID_63_" transform="matrix(1 0 0 1 421.2506 633.4304)" class="st2 st3 st4">coupang</text>
	<text transform="matrix(1 0 0 1 416.992 717.9072)" class="st2 st6 st7">쿠팡에 다니면서 만들었던 </text>
	<text transform="matrix(1 0 0 1 416.992 761.9072)" class="st2 st6 st7">이벤트 페이지와 상세페이지 정리중</text>
	<line id="XMLID_1503_" class="st8" x1="791.6" y1="-351.6" x2="791.6" y2="-373.8"/>
	<path id="XMLID_1211_" class="st9" d="M884.6-128.8c-6.3,0-11.5-5.2-11.5-11.5c0-5,7.4-20.5,11.5-28.4c4.1,7.9,11.5,23.4,11.5,28.4
		C896.2-134,891-128.8,884.6-128.8z"/>
	<path id="XMLID_1209_" class="st9" d="M586.2-297.3c-8.7,0-15.8-7.1-15.8-15.8c0-6.8,10.2-28,15.8-38.9c5.6,10.8,15.8,32,15.8,38.9
		C601.9-304.4,594.9-297.3,586.2-297.3z"/>
	<g id="XMLID_1118_">
		<text id="XMLID_71_" transform="matrix(1 0 0 1 325.2446 449.2991)" class="st2 st3 st10">ContentDesign</text>
	</g>
	<path id="XMLID_1117_" class="st11" d="M868.9,340H289.1c-23.9,0-43.5,19.6-43.5,43.5v497.3V1171c0,23.9-19.6,43.5-43.5,43.5h-81.7
		"/>
	<g id="XMLID_1114_">
		<path id="XMLID_1116_" class="st9" d="M350.6,600.2c-10.2,0-18.4,8-18.4,17.7c0,2.8,0.7,5.4,2,7.9v0.1l16.4,23.7l16.5-23.7
			c1.3-2.5,2-5.2,2-7.9C369,608.1,360.7,600.2,350.6,600.2z"/>
		<circle id="XMLID_1115_" class="st12" cx="350.6" cy="616.8" r="7.8"/>
	</g>
	<g id="XMLID_1106_">
		<path id="XMLID_1113_" class="st0" d="M328,530.3v22.2c0,3.5,2.9,6.4,6.4,6.4h32.2c3.5,0,6.4-2.9,6.4-6.4v-22.2H328z"/>
		<path id="XMLID_1112_" class="st9" d="M373.1,522.7c0-3.5-2.9-6.4-6.4-6.4h-32.2c-3.5,0-6.4,2.9-6.4,6.4v7.7h45.1v-7.7H373.1z"/>
		<line id="XMLID_1111_" class="st13" x1="337.6" y1="511.8" x2="337.6" y2="520.6"/>
		<line id="XMLID_1110_" class="st13" x1="363.5" y1="511.8" x2="363.5" y2="520.6"/>
		<circle id="XMLID_1109_" class="st9" cx="364.5" cy="549.4" r="11"/>
		<line id="XMLID_1108_" class="st13" x1="364.5" y1="546" x2="364.5" y2="549.4"/>
		<line id="XMLID_1107_" class="st13" x1="368" y1="549.3" x2="364.5" y2="549.3"/>
	</g>
	<line id="XMLID_1105_" class="st8" x1="350.6" y1="710.2" x2="350.6" y2="834.3"/>
	<circle id="XMLID_1104_" class="st9" cx="350.6" cy="702.2" r="9.9"/>
	<circle id="XMLID_1103_" class="st9" cx="350.6" cy="767.2" r="9.9"/>
	<circle id="XMLID_1102_" class="st9" cx="350.6" cy="832.1" r="9.9"/>
	<g id="XMLID_1070_">
		<line id="XMLID_1072_" class="st8" x1="817.7" y1="148" x2="817.7" y2="133.8"/>
		<line id="XMLID_1071_" class="st8" x1="801" y1="148" x2="801" y2="133.8"/>
	</g>
	<g id="XMLID_1067_">
		<line id="XMLID_1069_" class="st8" x1="561.2" y1="89.5" x2="561.2" y2="75.3"/>
		<line id="XMLID_1068_" class="st8" x1="544.5" y1="89.5" x2="544.5" y2="75.3"/>
	</g>
	<g id="XMLID_1064_">
		<line id="XMLID_1066_" class="st8" x1="753.2" y1="-29.7" x2="753.2" y2="-43.9"/>
		<line id="XMLID_1065_" class="st8" x1="736.5" y1="-29.7" x2="736.5" y2="-43.9"/>
	</g>
	<g id="XMLID_1043_">
		<ellipse id="XMLID_1045_" class="st9" cx="354.2" cy="-157.9" rx="14" ry="9"/>
		<line id="XMLID_1044_" class="st13" x1="368.2" y1="-159.7" x2="368.2" y2="-215.7"/>
	</g>
	<g id="XMLID_1040_">
		<ellipse id="XMLID_1042_" class="st9" cx="882.2" cy="167.5" rx="14" ry="9"/>
		<line id="XMLID_1041_" class="st13" x1="896.1" y1="165.8" x2="896.1" y2="109.8"/>
	</g>
	<circle id="XMLID_1035_" class="st9" cx="251.6" cy="-154.9" r="9.9"/>
	<circle id="XMLID_1034_" class="st9" cx="628.7" cy="67" r="9.9"/>
	<line id="XMLID_1026_" class="st8" x1="302.2" y1="-211" x2="302.2" y2="-269.7"/>
	<line id="XMLID_1023_" class="st8" x1="935.6" y1="6.9" x2="935.6" y2="-33.3"/>
	<line id="XMLID_1022_" class="st8" x1="935.6" y1="31.5" x2="935.6" y2="19.3"/>
	<g id="XMLID_1013_">
		<polygon id="XMLID_1014_" class="st14" points="335.6,908.9 345.2,914.5 335.2,926.9 341.6,932.1 351.6,919.7 359.2,928.1 
			367.6,893.3 		"/>
	</g>
	<g id="XMLID_1004_">
		<path id="XMLID_1009_" class="st1" d="M229.3-30.3c0.4-10.7,9.2-19.1,19.8-19.1h12.5v38.9h-12.5C238.2-10.5,229.3-19.3,229.3-30.3
			L229.3-30.3z"/>
		<path id="XMLID_1008_" class="st9" d="M556.6-30.7c0,23.7-19.2,43-43,43h-5.8v-84.4h5.8C536.7-72.1,555.7-53.8,556.6-30.7
			L556.6-30.7z"/>
		<path id="XMLID_1007_" class="st9" d="M372.7,10.9H271.4c-5.4,0-9.8-4.4-9.8-9.8v-62.2c0-5.4,4.4-9.8,9.8-9.8h101.3V10.9z"/>
		<path id="XMLID_1006_" class="st1" d="M333.5,81c-1.6,9.1-10.2,15.1-19.2,13.6c-6.9-1.2-12.4-6.6-13.6-13.6V11h32.8V81z"/>
		<polygon id="XMLID_1005_" class="st0" points="372.7,-77.1 372.7,-29.9 372.7,-29.9 372.7,17.3 507.8,86.7 507.8,-29.9 
			507.8,-29.9 507.8,-146.5 		"/>
	</g>
	<path id="XMLID_1003_" class="st9" d="M454.1,301.6L454.1,301.6c-9.1,0-16.5-7.4-16.5-16.5V179.3c0-9.1,7.4-16.5,16.5-16.5l0,0
		c9.1,0,16.5,7.4,16.5,16.5v105.9C470.5,294.2,463.1,301.6,454.1,301.6z"/>
	<path id="XMLID_1002_" class="st9" d="M367.8,123.2c0-41.2-33.4-74.6-74.6-74.6s-74.6,33.4-74.6,74.6c0,21.6,9.2,41.1,23.9,54.7
		c-3.9,7.7-6.2,16.4-6.2,25.7c0,31.4,25.4,56.8,56.8,56.8s56.8-25.4,56.8-56.8c0-9.3-2.2-18-6.2-25.7
		C358.6,164.3,367.8,144.8,367.8,123.2z"/>
	<polyline id="XMLID_1001_" class="st0" points="537.6,191.9 529.6,183.2 521.3,191.9 513.3,183.2 504.9,191.9 496.9,183.2 
		488.6,191.9 	"/>
	<polyline id="XMLID_1000_" class="st0" points="648.4,178.9 640.4,170.2 632.1,178.9 624.1,170.2 615.8,178.9 607.8,170.2 
		599.4,178.9 	"/>
	<polyline id="XMLID_999_" class="st0" points="685,246.4 677,237.7 668.6,246.4 660.6,237.7 652.3,246.4 	"/>
	<g id="XMLID_996_">
		<line id="XMLID_998_" class="st8" x1="458.7" y1="148.5" x2="458.7" y2="128.7"/>
		<line id="XMLID_997_" class="st8" x1="442.1" y1="148.5" x2="442.1" y2="128.7"/>
	</g>
	<g id="XMLID_994_">
		<line id="XMLID_995_" class="st8" x1="602.7" y1="148.5" x2="602.7" y2="128.7"/>
	</g>
	<g id="XMLID_991_">
		<line id="XMLID_993_" class="st8" x1="408.6" y1="339.3" x2="408.6" y2="326.7"/>
		<circle id="XMLID_992_" class="st9" cx="408.6" cy="316.6" r="11.7"/>
	</g>
	<circle id="XMLID_990_" class="st0" cx="299.1" cy="101.2" r="12.3"/>
	<circle id="XMLID_989_" class="st0" cx="268.4" cy="159.9" r="17.7"/>
	<circle id="XMLID_988_" class="st0" cx="317.1" cy="205.2" r="11"/>
	<polyline id="XMLID_987_" class="st8" points="649.6,-92.3 632.1,-75.3 650.1,-75.3 631.1,-57.8 	"/>
	<polyline id="XMLID_986_" class="st8" points="886.6,-309.7 869.1,-292.8 887.1,-292.8 868.1,-275.3 	"/>
	<polyline id="XMLID_985_" class="st8" points="599.1,-0.2 581.7,16.8 599.7,16.8 580.6,34.3 	"/>
	<polyline id="XMLID_984_" class="st8" points="572.1,-162.2 554.7,-145.2 572.7,-145.2 553.6,-127.7 	"/>
	<g id="XMLID_976_">
		<path id="XMLID_983_" class="st1" d="M718.5-186.7h17.4c0,4.7-3.8,8.5-8.5,8.5H727C722.3-178.2,718.5-182,718.5-186.7L718.5-186.7
			z"/>
		<path id="XMLID_982_" class="st9" d="M744.4-203.3h-34.5v8c0,4.7,3.8,8.5,8.5,8.5h17.4c4.7,0,8.5-3.8,8.5-8.5L744.4-203.3
			L744.4-203.3z"/>
		<path id="XMLID_981_" class="st0" d="M766.7-258.7c0-21.8-17.7-39.5-39.5-39.5s-39.5,17.7-39.5,39.5c0,11.3,4.7,21.4,12.3,28.6
			l0,0c0,0,7,7,9,14c1.1,3.7,1,12.8,1,12.8h17.2h17.2c0,0,0-9.1,1-12.8c2-7,9-14,9-14C762-237.3,766.7-247.4,766.7-258.7z"/>
		<path id="XMLID_977_" class="st2" d="M748.1-239.7c0.6-2.1,0.4-4.3-0.6-6c-1.5-2.6-5.1-4.6-10.4-1.8c-2.7,1.5-4.6,4.8-5.8,10.3
			c-0.1,0.4-0.2,0.7-0.2,1.1c-1.6,0.1-3,0.2-3.9,0.2s-2.3,0-3.9-0.2c-0.1-0.4-0.1-0.8-0.2-1.1c-1.2-5.4-3.1-8.8-5.8-10.3
			c-5.3-2.8-9-0.8-10.4,1.8c-1,1.7-1.2,3.9-0.6,6c0.6,2.2,2,4,4,5.2c2.4,1.4,5.8,2.3,8.9,2.7c0.3,2.5,0.5,5.6,0.6,9.4
			c0.2,9.2-0.6,18.1-0.7,19.1h4.8c0.2-2.2,0.9-10.4,0.7-19.1c-0.1-3.2-0.2-6.2-0.5-8.9c1.8,0.1,3.1,0.1,3.2,0.1c0.2,0,1.4,0,3.2-0.1
			c-0.3,2.6-0.4,5.6-0.5,8.9c-0.2,8.8,0.5,16.9,0.7,19.1h4.8c-0.1-1-0.9-9.8-0.7-19.1c0.1-3.8,0.3-6.9,0.6-9.5
			c3.1-0.5,6.5-1.3,8.9-2.7C746.1-235.7,747.5-237.6,748.1-239.7z M712.6-238.6c-2-1.2-2.4-3.6-1.7-4.7c0.3-0.5,0.8-0.7,1.4-0.7
			c0.9,0,2,0.5,2.6,0.8s2.1,1.6,3.3,6.5C716.1-237.2,714-237.8,712.6-238.6L712.6-238.6z M741.7-238.6c-1.4,0.8-3.4,1.4-5.6,1.8
			c1.1-4.9,2.6-6.2,3.3-6.5c0.6-0.3,1.7-0.8,2.6-0.8c0.6,0,1.1,0.2,1.4,0.7C744-242.2,743.7-239.8,741.7-238.6L741.7-238.6z"/>
	</g>
	<line id="XMLID_975_" class="st8" x1="793.5" y1="-236.7" x2="815.7" y2="-236.7"/>
	<line id="XMLID_974_" class="st8" x1="791.8" y1="-279.8" x2="798.9" y2="-283.8"/>
	<line id="XMLID_973_" class="st8" x1="825.2" y1="-236.7" x2="834.7" y2="-236.7"/>
	<line id="XMLID_972_" class="st8" x1="646.2" y1="-236.7" x2="654" y2="-236.7"/>
	<line id="XMLID_971_" class="st8" x1="628.9" y1="-236.7" x2="636.7" y2="-236.7"/>
	<line id="XMLID_970_" class="st8" x1="656" y1="-326.8" x2="663.3" y2="-316.4"/>
	<line id="XMLID_969_" class="st8" x1="651.3" y1="-196" x2="633.4" y2="-185.6"/>
	<line id="XMLID_968_" class="st8" x1="675.2" y1="-157.7" x2="670.1" y2="-148.3"/>
	<line id="XMLID_967_" class="st8" x1="784" y1="-168.7" x2="794.2" y2="-151"/>
	<line id="XMLID_966_" class="st8" x1="727.2" y1="-149.8" x2="727.2" y2="-129.8"/>
	<line id="XMLID_965_" class="st8" x1="727.2" y1="-339.8" x2="727.2" y2="-319.8"/>
	<line id="XMLID_964_" class="st8" x1="727.2" y1="-119.7" x2="727.2" y2="-111.6"/>
	<path id="XMLID_963_" class="st12" d="M432.8-289.1h-0.7c0-9.5-7.7-17.3-17.3-17.3s-17.3,7.7-17.3,17.3h-12
		c-8.2,0-14.9,6.7-14.9,14.9s6.7,14.9,14.9,14.9h47.2c8.2,0,14.9-6.7,14.9-14.9S441-289.1,432.8-289.1z"/>
	<path id="XMLID_962_" class="st1" d="M522.9-232.4h-1.1c0-15-12.2-27.2-27.2-27.2s-27.2,12.2-27.2,27.2h-8.9
		c-12.9,0-23.4,10.5-23.4,23.4s10.5,23.4,23.4,23.4h64.3c12.9,0,23.4-10.5,23.4-23.4C546.3-221.8,535.8-232.4,522.9-232.4z"/>
	<line id="XMLID_931_" class="st8" x1="360.5" y1="339.7" x2="360.5" y2="262.3"/>
	<line id="XMLID_930_" class="st8" x1="454.1" y1="340" x2="454.1" y2="262.5"/>
	<path id="XMLID_929_" class="st12" d="M820.1,287.1c-9,0-17.3,2.6-24.1,7.1c-9-14.6-26.1-24.5-45.7-24.5c-29,0-52.5,21.6-52.5,48.2
		c0,8,2.1,15.6,5.9,22.2h155c2-4.5,3.1-9.4,3.1-14.6C861.9,304.2,843.2,287.1,820.1,287.1z"/>
	<g id="XMLID_925_">
		<polygon id="XMLID_928_" class="st8" points="463.2,340 500.7,265.1 538.2,340 		"/>
		<line id="XMLID_927_" class="st8" x1="500.7" y1="339.7" x2="500.7" y2="307.7"/>
		<line id="XMLID_926_" class="st8" x1="500.7" y1="265.1" x2="500.7" y2="235.7"/>
	</g>
	<polygon id="XMLID_119_" class="st1" points="521,340 593.3,195.8 665.5,340 	"/>
	<line id="XMLID_118_" class="st8" x1="593.3" y1="339.4" x2="593.3" y2="277.9"/>
	<line id="XMLID_117_" class="st8" x1="293.3" y1="337.8" x2="293.3" y2="260.4"/>
	<g id="XMLID_114_">
		<path id="XMLID_116_" class="st1" d="M688.7,49.4c0,16.4,13.8,29.5,30.5,28.4c14.3-1,25.7-12.7,26.4-27c0.4-8.8-3.2-16.8-9.1-22.3
			c1.7-3.3,2.5-7.1,2.3-11.1c-0.6-10.9-9.5-19.7-20.3-20.3c-12.6-0.7-23,9.2-23,21.6c0,3.5,0.8,6.9,2.3,9.8
			C692.2,33.7,688.7,41.2,688.7,49.4z"/>
		<line id="XMLID_115_" class="st8" x1="716" y1="94.7" x2="716" y2="50.4"/>
	</g>
	<path id="XMLID_113_" class="st9" d="M808.7-13.6c0,16.4,13.8,29.5,30.5,28.4c14.3-1,25.7-12.7,26.4-27c0.4-8.8-3.2-16.8-9.1-22.3
		c1.7-3.3,2.5-7.1,2.3-11.1c-0.6-10.9-9.5-19.7-20.3-20.3c-12.6-0.7-23,9.2-23,21.6c0,3.5,0.8,6.9,2.3,9.8
		C812.2-29.3,808.7-21.8,808.7-13.6z"/>
	<line id="XMLID_112_" class="st8" x1="836" y1="31.7" x2="836" y2="-12.6"/>
	<path id="XMLID_111_" class="st9" d="M637.2,303.9c6.1,0,11.8,1.8,16.5,4.8c6.1-10,17.8-16.7,31.2-16.7c19.8,0,35.8,14.7,35.8,32.9
		c0,5.5-1.4,10.6-4,15.1H610.9c-1.4-3.1-2.1-6.4-2.1-10C608.7,315.6,621.5,303.9,637.2,303.9z"/>
	<path id="XMLID_110_" class="st0" d="M330.9,318.3c-3.7,0-7.1,1.1-9.9,2.9c-3.7-6-10.7-10.1-18.8-10.1c-11.9,0-21.5,8.9-21.5,19.8
		c0,3.3,0.9,6.4,2.4,9.1h63.6c0.8-1.8,1.3-3.9,1.3-6C348,325.3,340.4,318.3,330.9,318.3z"/>
	<polygon id="XMLID_109_" class="st14" points="500.7,238.6 539.4,238.6 525.8,225.2 525.8,225.2 525.8,225.2 525.8,225.2 
		525.8,225.2 525.8,225.2 525.8,225.2 539.4,211.8 500.7,211.8 	"/>
</g>
</svg>
