<?xml version="1.0" encoding="utf-8"?>
<!-- Generator: Adobe Illustrator 19.0.0, SVG Export Plug-In . SVG Version: 6.00 Build 0)  -->
<svg version="1.1" id="Layer_1" xmlns="http://www.w3.org/2000/svg" xmlns:xlink="http://www.w3.org/1999/xlink" x="0px" y="0px"
	 viewBox="124 -393.1 844 1627" style="enable-background:new 124 -393.1 844 1627;" xml:space="preserve">
<style type="text/css">
	.st0{fill:#FFFFFF;stroke:#3F3B3A;stroke-width:6;stroke-linecap:round;stroke-linejoin:round;stroke-miterlimit:10;}
	.st1{fill:#E0E0E0;stroke:#3F3B3A;stroke-width:6;stroke-linecap:round;stroke-linejoin:round;stroke-miterlimit:10;}
	.st2{enable-background:new    ;}
	.st3{fill:#3F3B3A;}
	.st4{fill:none;stroke:#3F3B3A;stroke-width:6;stroke-linecap:round;stroke-linejoin:round;stroke-miterlimit:10;}
	.st5{fill:#61B584;stroke:#3F3B3A;stroke-width:6;stroke-miterlimit:10;}
	.st6{fill:none;stroke:#3F3B3A;stroke-width:6;stroke-miterlimit:10;}
	.st7{fill:#FFFFFF;stroke:#3F3B3A;stroke-width:6;stroke-miterlimit:10;}
	.st8{fill:none;stroke:#3F3B3A;stroke-width:6;stroke-linecap:round;stroke-miterlimit:10;}
	.st9{fill:#61B584;stroke:#3F3B3A;stroke-width:6;stroke-linecap:round;stroke-linejoin:round;stroke-miterlimit:10;}
	.st10{fill:none;stroke:#3E3A39;stroke-width:6;stroke-linecap:round;stroke-linejoin:round;stroke-miterlimit:10;}
	.st11{fill:#60B383;}
	.st12{fill:#3E3A39;}
</style>
<path id="XMLID_1653_" class="st0" d="M311.3,125.9h353.8c0,0,65.3,1,75.9,52.2c4.7,22.6,9.4,45.1,35.9,50c13,2.4,28,1,41.1,2.9
	c8.4,1.2,16.7,3.6,24.4,7c23.9,10.8,40.6,31.3,50.8,54c2.3,5.1,4.6,10.4,6.1,15.8l9.2,32.3H311.3V125.9z"/>
<path id="XMLID_1652_" class="st1" d="M330.7,260.5c0,28.6,24.2,51.6,53.2,49.6c24.9-1.7,44.9-22.2,46.1-47.1
	c0.7-15.4-5.5-29.3-15.9-38.9c2.9-5.8,4.4-12.4,4-19.4c-1.1-19-16.5-34.4-35.5-35.6c-22-1.3-40.2,16.1-40.2,37.8
	c0,6.2,1.5,12,4.1,17.1C336.9,233.1,330.7,246.1,330.7,260.5z"/>
<g class="st2">
	<path class="st3" d="M455.7,532.9l-8.3,7.3h10.8c0.5,0,1,0.2,1.3,0.6c0.3,0.4,0.4,0.9,0.4,1.5s-0.2,1.1-0.4,1.5
		c-0.3,0.4-0.7,0.6-1.3,0.6h-13.9c-0.9,0-1.5-0.3-2-0.8s-0.8-1.2-0.8-1.9c0-1,0.4-1.8,1.1-2.5l10.1-10.1c1.7-1.6,2.5-3.1,2.5-4.6
		c0-1.2-0.4-2.2-1.3-3s-1.9-1.2-3.2-1.2c-0.7,0-1.4,0.1-2.1,0.2c-0.7,0.2-1.1,0.3-1.4,0.4c-0.3,0.1-0.8,0.4-1.4,0.8
		c-0.7,0.4-1,0.6-1.1,0.6c-0.2,0.1-0.4,0.1-0.6,0.1c-0.5,0-1-0.3-1.5-0.8s-0.7-1.1-0.7-1.6c0-0.7,0.3-1.2,1-1.6
		c1.3-0.8,2.6-1.4,3.9-1.8c1.3-0.4,2.8-0.6,4.4-0.6c2.7,0,4.8,0.8,6.5,2.3s2.5,3.5,2.5,5.7C460.4,527.3,458.8,530.2,455.7,532.9z"/>
	<path class="st3" d="M471.5,544.2c-1.2-0.5-2.2-1.3-3-2.2s-1.4-2-2-3.3c-0.5-1.3-0.9-2.6-1.1-4s-0.3-2.9-0.3-4.5s0.1-3.1,0.3-4.4
		c0.2-1.4,0.6-2.7,1.1-4s1.2-2.4,1.9-3.2s1.8-1.6,3-2.1s2.6-0.8,4.2-0.8c1.5,0,2.9,0.3,4.2,0.8c1.2,0.5,2.2,1.2,3,2.1
		c0.8,0.9,1.4,2,2,3.2c0.5,1.3,0.9,2.6,1.1,4s0.3,2.9,0.3,4.5s-0.1,3.1-0.3,4.5c-0.2,1.4-0.6,2.7-1.1,4s-1.2,2.4-2,3.3
		c-0.8,0.9-1.8,1.6-3,2.2c-1.2,0.5-2.6,0.8-4.2,0.8S472.7,544.7,471.5,544.2z M477.6,540.2c0.5-0.3,1-0.6,1.4-1.1s0.7-1.1,0.9-1.7
		c0.2-0.6,0.4-1.3,0.6-2.2c0.1-0.8,0.2-1.6,0.3-2.4c0-0.8,0.1-1.6,0.1-2.6s0-1.8-0.1-2.6c0-0.8-0.1-1.6-0.3-2.4
		c-0.1-0.8-0.3-1.5-0.5-2.1s-0.5-1.1-0.9-1.6s-0.8-0.9-1.4-1.1c-0.6-0.3-1.2-0.4-1.9-0.4s-1.3,0.1-1.9,0.4c-0.6,0.3-1,0.6-1.4,1.1
		s-0.7,1-0.9,1.6c-0.2,0.6-0.4,1.3-0.5,2.1s-0.2,1.6-0.3,2.4c0,0.8-0.1,1.6-0.1,2.6s0,1.8,0.1,2.6c0,0.8,0.1,1.6,0.3,2.4
		c0.1,0.8,0.3,1.6,0.5,2.2c0.2,0.6,0.5,1.2,0.9,1.7s0.8,0.9,1.4,1.1c0.6,0.3,1.2,0.4,1.9,0.4S477,540.5,477.6,540.2z"/>
	<path class="st3" d="M499.3,543.6c-0.5-0.6-0.8-1.4-0.8-2.4V522l-3.8,2.3c-0.3,0.2-0.6,0.3-1,0.3c-0.5,0-1-0.2-1.3-0.6
		c-0.4-0.4-0.5-0.9-0.5-1.4c0-0.7,0.3-1.3,1-1.7l6.9-4.1c0.5-0.3,1.1-0.5,1.6-0.5c0.8,0,1.4,0.3,1.9,0.8s0.7,1.4,0.7,2.4v21.8
		c0,1-0.3,1.7-0.8,2.3s-1.2,0.9-2,0.9C500.4,544.5,499.8,544.2,499.3,543.6z"/>
	<path class="st3" d="M523.3,543.6c-0.5-0.6-0.8-1.4-0.8-2.4V522l-3.8,2.3c-0.3,0.2-0.6,0.3-1,0.3c-0.5,0-1-0.2-1.3-0.6
		c-0.4-0.4-0.5-0.9-0.5-1.4c0-0.7,0.3-1.3,1-1.7l6.9-4.1c0.5-0.3,1.1-0.5,1.6-0.5c0.8,0,1.4,0.3,1.9,0.8s0.7,1.4,0.7,2.4v21.8
		c0,1-0.3,1.7-0.8,2.3s-1.2,0.9-2,0.9C524.5,544.5,523.8,544.2,523.3,543.6z"/>
	<path class="st3" d="M540,543.7c-0.5-0.5-0.8-1.2-0.8-2c0-0.7,0.3-1.4,0.8-1.9s1.2-0.8,2-0.8s1.4,0.3,2,0.8s0.8,1.2,0.8,2
		s-0.3,1.4-0.8,1.9s-1.2,0.8-2,0.8S540.5,544.3,540,543.7z"/>
	<path class="st3" d="M559.5,543.6c-0.5-0.6-0.8-1.4-0.8-2.4V522l-3.8,2.3c-0.3,0.2-0.6,0.3-1,0.3c-0.5,0-1-0.2-1.3-0.6
		c-0.4-0.4-0.5-0.9-0.5-1.4c0-0.7,0.3-1.3,1-1.7l6.9-4.1c0.5-0.3,1.1-0.5,1.6-0.5c0.8,0,1.4,0.3,1.9,0.8s0.7,1.4,0.7,2.4v21.8
		c0,1-0.3,1.7-0.8,2.3s-1.2,0.9-2,0.9C560.7,544.5,560.1,544.2,559.5,543.6z"/>
	<path class="st3" d="M580.1,544.2c-1.2-0.5-2.2-1.3-3-2.2s-1.4-2-2-3.3c-0.5-1.3-0.9-2.6-1.1-4c-0.2-1.4-0.3-2.9-0.3-4.5
		s0.1-3.1,0.3-4.4c0.2-1.4,0.6-2.7,1.1-4s1.2-2.4,1.9-3.2s1.8-1.6,3-2.1s2.6-0.8,4.2-0.8c1.5,0,2.9,0.3,4.2,0.8
		c1.2,0.5,2.2,1.2,3,2.1c0.8,0.9,1.4,2,2,3.2c0.5,1.3,0.9,2.6,1.1,4s0.3,2.9,0.3,4.5s-0.1,3.1-0.3,4.5s-0.6,2.7-1.1,4
		s-1.2,2.4-2,3.3c-0.8,0.9-1.8,1.6-3,2.2c-1.2,0.5-2.6,0.8-4.2,0.8S581.3,544.7,580.1,544.2z M586.1,540.2c0.5-0.3,1-0.6,1.4-1.1
		s0.7-1.1,0.9-1.7c0.2-0.6,0.4-1.3,0.6-2.2c0.1-0.8,0.2-1.6,0.3-2.4c0-0.8,0.1-1.6,0.1-2.6s0-1.8-0.1-2.6c0-0.8-0.1-1.6-0.3-2.4
		c-0.1-0.8-0.3-1.5-0.5-2.1s-0.5-1.1-0.9-1.6s-0.8-0.9-1.4-1.1c-0.6-0.3-1.2-0.4-1.9-0.4s-1.3,0.1-1.9,0.4c-0.6,0.3-1,0.6-1.4,1.1
		s-0.7,1-0.9,1.6s-0.4,1.3-0.5,2.1s-0.2,1.6-0.3,2.4c0,0.8-0.1,1.6-0.1,2.6s0,1.8,0.1,2.6c0,0.8,0.1,1.6,0.3,2.4
		c0.1,0.8,0.3,1.6,0.5,2.2c0.2,0.6,0.5,1.2,0.9,1.7s0.8,0.9,1.4,1.1c0.6,0.3,1.2,0.4,1.9,0.4S585.6,540.5,586.1,540.2z"/>
</g>
<g class="st2">
	<path class="st3" d="M627.9,526.2c0.5,0.1,0.8,0.3,1,0.6s0.3,0.7,0.2,1.3c-0.3,1.7-1,3.1-2,4.1s-2.3,1.5-3.8,1.5
		c-0.9,0-1.7-0.2-2.4-0.6c-0.7-0.4-1.3-0.8-1.8-1.3s-1.1-0.9-1.6-1.3c-0.5-0.4-1.1-0.6-1.7-0.6c-0.7,0-1.2,0.3-1.6,0.8
		c-0.4,0.6-0.7,1.3-0.9,2.2c-0.1,0.5-0.4,0.8-0.8,1c-0.4,0.2-0.8,0.2-1.2,0.1c-0.5-0.1-0.8-0.3-1-0.6s-0.3-0.7-0.2-1.3
		c0.1-0.7,0.4-1.4,0.7-2.1s0.7-1.3,1.2-1.8s1-1,1.7-1.3s1.4-0.5,2.2-0.5c1,0,1.8,0.2,2.5,0.6c0.7,0.4,1.3,0.9,1.8,1.3
		c0.5,0.5,1,0.9,1.5,1.3c0.5,0.4,1,0.6,1.6,0.6c1.4,0,2.2-1,2.6-3c0.1-0.5,0.4-0.9,0.8-1S627.5,526.2,627.9,526.2z"/>
</g>
<g class="st2">
	<path class="st3" d="M658.2,532.9l-8.3,7.3h10.8c0.5,0,1,0.2,1.3,0.6c0.3,0.4,0.4,0.9,0.4,1.5s-0.2,1.1-0.4,1.5
		c-0.3,0.4-0.7,0.6-1.3,0.6h-13.9c-0.9,0-1.5-0.3-2-0.8s-0.8-1.2-0.8-1.9c0-1,0.4-1.8,1.1-2.5l10.1-10.1c1.7-1.6,2.5-3.1,2.5-4.6
		c0-1.2-0.4-2.2-1.3-3c-0.9-0.8-1.9-1.2-3.2-1.2c-0.7,0-1.4,0.1-2.1,0.2c-0.7,0.2-1.1,0.3-1.4,0.4c-0.3,0.1-0.8,0.4-1.4,0.8
		c-0.7,0.4-1,0.6-1.1,0.6c-0.2,0.1-0.4,0.1-0.6,0.1c-0.5,0-1-0.3-1.5-0.8s-0.7-1.1-0.7-1.6c0-0.7,0.3-1.2,1-1.6
		c1.3-0.8,2.6-1.4,3.9-1.8c1.3-0.4,2.8-0.6,4.4-0.6c2.7,0,4.8,0.8,6.5,2.3s2.5,3.5,2.5,5.7C662.9,527.3,661.3,530.2,658.2,532.9z"/>
	<path class="st3" d="M674,544.2c-1.2-0.5-2.2-1.3-3-2.2s-1.4-2-2-3.3c-0.5-1.3-0.9-2.6-1.1-4c-0.2-1.4-0.3-2.9-0.3-4.5
		s0.1-3.1,0.3-4.4c0.2-1.4,0.6-2.7,1.1-4s1.2-2.4,1.9-3.2s1.8-1.6,3-2.1s2.6-0.8,4.2-0.8c1.5,0,2.9,0.3,4.2,0.8
		c1.2,0.5,2.2,1.2,3,2.1c0.8,0.9,1.4,2,2,3.2c0.5,1.3,0.9,2.6,1.1,4s0.3,2.9,0.3,4.5s-0.1,3.1-0.3,4.5s-0.6,2.7-1.1,4
		s-1.2,2.4-2,3.3c-0.8,0.9-1.8,1.6-3,2.2c-1.2,0.5-2.6,0.8-4.2,0.8S675.2,544.7,674,544.2z M680.1,540.2c0.5-0.3,1-0.6,1.4-1.1
		s0.7-1.1,0.9-1.7c0.2-0.6,0.4-1.3,0.6-2.2c0.1-0.8,0.2-1.6,0.3-2.4c0-0.8,0.1-1.6,0.1-2.6s0-1.8-0.1-2.6c0-0.8-0.1-1.6-0.3-2.4
		c-0.1-0.8-0.3-1.5-0.5-2.1s-0.5-1.1-0.9-1.6s-0.8-0.9-1.4-1.1c-0.6-0.3-1.2-0.4-1.9-0.4s-1.3,0.1-1.9,0.4c-0.6,0.3-1,0.6-1.4,1.1
		s-0.7,1-0.9,1.6s-0.4,1.3-0.5,2.1s-0.2,1.6-0.3,2.4c0,0.8-0.1,1.6-0.1,2.6s0,1.8,0.1,2.6c0,0.8,0.1,1.6,0.3,2.4
		c0.1,0.8,0.3,1.6,0.5,2.2c0.2,0.6,0.5,1.2,0.9,1.7s0.8,0.9,1.4,1.1c0.6,0.3,1.2,0.4,1.9,0.4S679.5,540.5,680.1,540.2z"/>
	<path class="st3" d="M701.8,543.6c-0.5-0.6-0.8-1.4-0.8-2.4V522l-3.8,2.3c-0.3,0.2-0.6,0.3-1,0.3c-0.5,0-1-0.2-1.3-0.6
		c-0.4-0.4-0.5-0.9-0.5-1.4c0-0.7,0.3-1.3,1-1.7l6.9-4.1c0.5-0.3,1.1-0.5,1.6-0.5c0.8,0,1.4,0.3,1.9,0.8s0.7,1.4,0.7,2.4v21.8
		c0,1-0.3,1.7-0.8,2.3s-1.2,0.9-2,0.9C702.9,544.5,702.3,544.2,701.8,543.6z"/>
	<path class="st3" d="M718,541.9c-0.4-0.3-0.5-0.7-0.5-1.3s0.2-1.1,0.6-1.7c0.4-0.5,0.9-0.8,1.4-0.8c0.3,0,0.6,0.1,0.9,0.3
		c1.8,1.4,3.8,2,5.9,2c1.6,0,2.9-0.4,3.7-1.3s1.3-2.1,1.3-3.7c0-1.5-0.4-2.7-1.3-3.5c-0.9-0.8-2-1.3-3.4-1.3c-1.6,0-3.1,0.6-4.7,1.8
		c-0.2,0.1-0.5,0.2-0.8,0.2c-0.7,0-1.4-0.2-2.1-0.6c-0.7-0.4-1-1-1-1.7v-11.6c0-1,0.2-1.6,0.7-2s1.2-0.6,2.2-0.6h12.4
		c0.6,0,1,0.2,1.4,0.6c0.3,0.4,0.5,0.9,0.5,1.5s-0.2,1.1-0.5,1.5s-0.8,0.6-1.4,0.6h-10.8v7.7l0.2-0.2c0.1-0.1,0.4-0.2,0.7-0.4
		c0.3-0.1,0.7-0.3,1.1-0.4s0.9-0.3,1.6-0.4s1.3-0.2,2-0.2c2.6,0,4.7,0.8,6.3,2.4s2.4,3.8,2.4,6.5c0,1.9-0.5,3.5-1.4,4.9
		s-2.1,2.5-3.6,3.3s-3.2,1.1-5.1,1.1C723.2,544.9,720.4,543.9,718,541.9z"/>
	<path class="st3" d="M742.5,543.7c-0.5-0.5-0.8-1.2-0.8-2c0-0.7,0.3-1.4,0.8-1.9s1.2-0.8,2-0.8s1.4,0.3,2,0.8s0.8,1.2,0.8,2
		s-0.3,1.4-0.8,1.9s-1.2,0.8-2,0.8S743,544.3,742.5,543.7z"/>
	<path class="st3" d="M758.5,544.2c-1.2-0.5-2.2-1.3-3-2.2s-1.4-2-2-3.3c-0.5-1.3-0.9-2.6-1.1-4c-0.2-1.4-0.3-2.9-0.3-4.5
		s0.1-3.1,0.3-4.4c0.2-1.4,0.6-2.7,1.1-4s1.2-2.4,1.9-3.2s1.8-1.6,3-2.1s2.6-0.8,4.2-0.8c1.5,0,2.9,0.3,4.2,0.8
		c1.2,0.5,2.2,1.2,3,2.1c0.8,0.9,1.4,2,2,3.2c0.5,1.3,0.9,2.6,1.1,4s0.3,2.9,0.3,4.5s-0.1,3.1-0.3,4.5s-0.6,2.7-1.1,4
		s-1.2,2.4-2,3.3c-0.8,0.9-1.8,1.6-3,2.2c-1.2,0.5-2.6,0.8-4.2,0.8S759.8,544.7,758.5,544.2z M764.6,540.2c0.5-0.3,1-0.6,1.4-1.1
		s0.7-1.1,0.9-1.7c0.2-0.6,0.4-1.3,0.6-2.2c0.1-0.8,0.2-1.6,0.3-2.4c0-0.8,0.1-1.6,0.1-2.6s0-1.8-0.1-2.6c0-0.8-0.1-1.6-0.3-2.4
		c-0.1-0.8-0.3-1.5-0.5-2.1s-0.5-1.1-0.9-1.6s-0.8-0.9-1.4-1.1c-0.6-0.3-1.2-0.4-1.9-0.4s-1.3,0.1-1.9,0.4c-0.6,0.3-1,0.6-1.4,1.1
		s-0.7,1-0.9,1.6s-0.4,1.3-0.5,2.1s-0.2,1.6-0.3,2.4c0,0.8-0.1,1.6-0.1,2.6s0,1.8,0.1,2.6c0,0.8,0.1,1.6,0.3,2.4
		c0.1,0.8,0.3,1.6,0.5,2.2c0.2,0.6,0.5,1.2,0.9,1.7s0.8,0.9,1.4,1.1c0.6,0.3,1.2,0.4,1.9,0.4S764.1,540.5,764.6,540.2z"/>
	<path class="st3" d="M783.2,544.2c-1.3-0.4-2.3-1.1-3.1-1.8s-1.5-1.7-2.1-2.8s-1-2.3-1.2-3.6s-0.4-2.7-0.4-4.2
		c0-1.9,0.1-3.6,0.3-5.1s0.6-3,1.2-4.4c0.6-1.4,1.3-2.6,2.2-3.6s2.1-1.7,3.5-2.3s3.1-0.9,5-0.9c2.2,0,4.2,0.5,6.2,1.4
		c0.6,0.3,1,0.8,1,1.6c0,0.6-0.2,1.2-0.5,1.7c-0.4,0.5-0.8,0.8-1.3,0.8c-0.1,0-0.3,0-0.5-0.1c-1.9-0.7-3.5-1-4.9-1
		c-1.1,0-2,0.2-2.8,0.5s-1.4,0.7-1.9,1.3c-0.5,0.5-0.9,1.2-1.2,2s-0.5,1.7-0.6,2.6c-0.1,0.9-0.2,1.9-0.2,3.1c0.4-0.8,1.1-1.4,2.3-2
		c1.1-0.5,2.5-0.8,4-0.8c2.7,0,4.9,0.8,6.6,2.5c1.8,1.6,2.6,3.8,2.6,6.4c0,2.8-0.9,5.1-2.8,6.8c-1.8,1.8-4.3,2.6-7.4,2.6
		C785.9,544.9,784.4,544.7,783.2,544.2z M783.6,531.7c-0.9,1-1.3,2.3-1.3,4c0,1.5,0.4,2.8,1.3,3.6c0.9,0.9,2.1,1.3,3.6,1.3
		c1.6,0,2.9-0.4,3.8-1.3c0.9-0.9,1.3-2.1,1.3-3.8c0-1.6-0.4-2.9-1.2-3.9s-2-1.4-3.6-1.4C785.8,530.3,784.5,530.8,783.6,531.7z"/>
</g>
<line id="XMLID_1503_" class="st4" x1="809.6" y1="-351.6" x2="809.6" y2="-373.8"/>
<path id="XMLID_1211_" class="st5" d="M902.6-128.8c-6.3,0-11.5-5.2-11.5-11.5c0-5,7.4-20.5,11.5-28.4c4.1,7.9,11.5,23.4,11.5,28.4
	C914.2-134,909-128.8,902.6-128.8z"/>
<path id="XMLID_1209_" class="st5" d="M604.2-297.3c-8.7,0-15.8-7.1-15.8-15.8c0-6.8,10.2-28,15.8-38.9c5.6,10.8,15.8,32,15.8,38.9
	C619.9-304.4,612.9-297.3,604.2-297.3z"/>
<g class="st2">
	<path class="st3" d="M357.3,447.3c-3.3-1.9-5.9-4.7-7.8-8.3c-1.9-3.6-2.8-7.8-2.8-12.5c0-3.7,0.6-7,1.7-10.1s2.7-5.6,4.7-7.6
		c2-2.1,4.4-3.6,7.2-4.8c2.8-1.1,5.8-1.7,9-1.7c4,0,8,1,11.9,2.9c1.5,0.8,2.2,1.9,2.2,3.3c0,1-0.3,1.8-1,2.6s-1.5,1.1-2.5,1.1
		c-0.4,0-0.8-0.1-1.2-0.3c-0.2-0.1-0.6-0.2-1.2-0.5s-1.1-0.5-1.6-0.7c-0.4-0.2-1-0.3-1.7-0.5s-1.4-0.4-2.2-0.5
		c-0.8-0.1-1.6-0.2-2.4-0.2c-4.3,0-7.6,1.4-9.9,4.1c-2.3,2.8-3.5,6.9-3.5,12.5c0,5.3,1.2,9.4,3.5,12.2c2.3,2.9,5.7,4.3,10.1,4.3
		c2.9,0,6.1-0.9,9.5-2.8c0.4-0.2,0.9-0.3,1.3-0.3c0.9,0,1.6,0.4,2.2,1.1s0.9,1.5,0.9,2.5c0,1.3-0.6,2.4-1.8,3.2
		c-3.7,2.5-8.2,3.7-13.6,3.7C364.3,450.2,360.6,449.2,357.3,447.3z"/>
	<path class="st3" d="M398.3,448.4c-2.2-0.9-3.9-2.1-5.2-3.7c-1.3-1.5-2.3-3.3-3-5.2c-0.7-1.9-1-3.9-1-6.1c0-1.7,0.2-3.3,0.6-4.9
		s1.1-3.1,2-4.5s2-2.6,3.3-3.7c1.3-1,2.8-1.9,4.7-2.5c1.9-0.6,3.9-0.9,6.1-0.9s4.2,0.3,6,0.9s3.4,1.4,4.7,2.4c1.3,1,2.4,2.2,3.3,3.6
		s1.6,2.9,2,4.5s0.7,3.3,0.7,5s-0.2,3.3-0.6,4.8s-1.1,3-1.9,4.4c-0.9,1.4-2,2.6-3.2,3.7s-2.9,1.8-4.7,2.5c-1.9,0.6-3.9,0.9-6.2,0.9
		C402.9,449.7,400.5,449.3,398.3,448.4z M412.1,441.4c1.5-1.9,2.3-4.6,2.3-8s-0.8-6.1-2.3-8.1c-1.5-1.9-3.7-2.9-6.4-2.9
		c-2.8,0-4.9,1-6.4,2.9s-2.3,4.6-2.3,8.1c0,3.4,0.8,6.1,2.3,8s3.6,2.9,6.4,2.9S410.6,443.3,412.1,441.4z"/>
	<path class="st3" d="M430.2,448.2c-0.7-0.8-1.1-1.8-1.1-3.2v-23.5c0-1.3,0.4-2.3,1.1-3s1.7-1,2.9-1c1.1,0,2.1,0.3,2.8,1
		c0.7,0.7,1.1,1.7,1.1,2.9v1.1c0.9-1.8,2.3-3.2,4.1-4.1c1.8-0.9,3.9-1.4,6.4-1.4c1.5,0,3,0.2,4.3,0.7s2.5,1.2,3.6,2.2
		s1.9,2.2,2.5,3.8s0.9,3.4,0.9,5.4V445c0,1.4-0.4,2.4-1.1,3.2s-1.7,1.2-2.9,1.2c-1.1,0-2.1-0.4-2.8-1.2c-0.7-0.8-1.1-1.8-1.1-3.2
		v-15.7c0-2.2-0.6-3.8-1.7-5s-2.6-1.7-4.3-1.7c-2.1,0-3.9,0.8-5.5,2.5c-1.5,1.7-2.3,3.9-2.3,6.5V445c0,1.4-0.4,2.4-1.1,3.2
		c-0.8,0.8-1.7,1.2-2.9,1.2C431.9,449.3,430.9,449,430.2,448.2z"/>
	<path class="st3" d="M471.9,447c-1.6-1.7-2.4-4.3-2.4-7.5V423h-3.1c-0.9,0-1.6-0.2-2.1-0.7s-0.7-1.2-0.7-2s0.2-1.4,0.7-1.9
		s1.2-0.7,2.1-0.7h3.3l1-7.9c0.1-1.1,0.5-2.1,1.2-2.8c0.7-0.7,1.6-1.1,2.7-1.1c0.9,0,1.7,0.3,2.2,0.9s0.8,1.5,0.8,2.8v8.1h5.1
		c0.9,0,1.6,0.2,2,0.7c0.5,0.5,0.7,1.2,0.7,2s-0.2,1.4-0.7,1.9s-1.2,0.7-2.1,0.7h-5.1v14.4c0,2,0.3,3.5,0.8,4.5s1.4,1.5,2.7,1.5h0.3
		l2.3-0.1h0.2c0.9,0,1.6,0.3,2.1,0.9s0.8,1.3,0.8,2.1c0,0.5-0.1,1-0.3,1.3c-0.2,0.4-0.4,0.7-0.8,0.9c-0.4,0.2-0.7,0.4-1.1,0.6
		c-0.4,0.1-0.9,0.2-1.5,0.3s-1.2,0.1-1.7,0.1s-1.1,0-1.8,0h-0.7C475.7,449.6,473.5,448.7,471.9,447z"/>
	<path class="st3" d="M492.1,425.1c1.2-2.4,3-4.3,5.4-5.8s5.2-2.2,8.4-2.2c2.5,0,4.6,0.4,6.5,1.2c1.9,0.8,3.4,1.9,4.6,3.4
		c1.2,1.4,2,3.1,2.6,4.9s0.9,3.7,0.9,5.8c0,0.8-0.2,1.5-0.6,2s-1,0.8-1.7,0.8h-20.1c0.3,6,3.4,9,9.2,9c2.6,0,5.4-1.1,8.4-3.2
		c0.4-0.3,0.8-0.4,1.2-0.4c0.7,0,1.2,0.3,1.7,0.9s0.8,1.3,0.8,2c0,0.8-0.3,1.6-1,2.2c-3.3,2.8-7.2,4.2-11.7,4.2c-5,0-9-1.5-12-4.4
		s-4.5-7-4.5-12.2C490.3,430.2,490.9,427.5,492.1,425.1z M513.8,430.7c-0.2-2.4-0.9-4.4-2.1-6c-1.2-1.6-3.1-2.3-5.5-2.3
		s-4.2,0.8-5.6,2.4c-1.3,1.6-2.1,3.6-2.3,5.9H513.8z"/>
	<path class="st3" d="M527.9,448.2c-0.7-0.8-1.1-1.8-1.1-3.2v-23.5c0-1.3,0.4-2.3,1.1-3s1.7-1,2.9-1c1.1,0,2.1,0.3,2.8,1
		s1.1,1.7,1.1,2.9v1.1c0.9-1.8,2.3-3.2,4.1-4.1s3.9-1.4,6.4-1.4c1.5,0,3,0.2,4.3,0.7s2.5,1.2,3.6,2.2s1.9,2.2,2.5,3.8
		c0.6,1.6,0.9,3.4,0.9,5.4V445c0,1.4-0.4,2.4-1.1,3.2s-1.7,1.2-2.9,1.2c-1.1,0-2.1-0.4-2.8-1.2s-1.1-1.8-1.1-3.2v-15.7
		c0-2.2-0.6-3.8-1.7-5c-1.1-1.2-2.6-1.7-4.3-1.7c-2.1,0-3.9,0.8-5.5,2.5c-1.5,1.7-2.3,3.9-2.3,6.5V445c0,1.4-0.4,2.4-1.1,3.2
		s-1.7,1.2-2.9,1.2C529.6,449.3,528.7,449,527.9,448.2z"/>
	<path class="st3" d="M569.6,447c-1.6-1.7-2.4-4.3-2.4-7.5V423h-3.1c-0.9,0-1.6-0.2-2.1-0.7s-0.7-1.2-0.7-2s0.2-1.4,0.7-1.9
		s1.2-0.7,2.1-0.7h3.3l1-7.9c0.1-1.1,0.5-2.1,1.2-2.8c0.7-0.7,1.6-1.1,2.7-1.1c0.9,0,1.7,0.3,2.2,0.9s0.8,1.5,0.8,2.8v8.1h5.1
		c0.9,0,1.6,0.2,2,0.7c0.5,0.5,0.7,1.2,0.7,2s-0.2,1.4-0.7,1.9s-1.2,0.7-2.1,0.7h-5.1v14.4c0,2,0.3,3.5,0.8,4.5s1.4,1.5,2.7,1.5h0.3
		l2.3-0.1h0.2c0.9,0,1.6,0.3,2.1,0.9s0.8,1.3,0.8,2.1c0,0.5-0.1,1-0.3,1.3s-0.4,0.7-0.8,0.9c-0.4,0.2-0.7,0.4-1.1,0.6
		c-0.4,0.1-0.9,0.2-1.5,0.3s-1.2,0.1-1.7,0.1s-1.1,0-1.8,0h-0.7C573.5,449.6,571.2,448.7,569.6,447z"/>
	<path class="st3" d="M592.1,447.8c-0.8-1-1.3-2.3-1.3-3.8v-35.1c0-1.7,0.4-3,1.3-3.9c0.9-1,2.1-1.4,3.7-1.4h10.1
		c8.2,0,14.5,2,18.7,5.9s6.3,9.7,6.3,17.2c0,7.3-2.1,12.9-6.3,16.8s-10.2,5.8-17.9,5.8h-11.3C594,449.3,592.9,448.8,592.1,447.8z
		 M607,442.3c5.4,0,9.1-1.2,11.3-3.7c2.1-2.5,3.2-6.5,3.2-12.2c0-3.9-0.6-7-1.7-9.3c-1.1-2.3-2.7-4-4.9-5s-5-1.5-8.6-1.5h-6.4v31.7
		H607z"/>
	<path class="st3" d="M638.6,425.1c1.2-2.4,3-4.3,5.4-5.8s5.2-2.2,8.4-2.2c2.5,0,4.6,0.4,6.5,1.2c1.9,0.8,3.4,1.9,4.6,3.4
		c1.2,1.4,2,3.1,2.6,4.9s0.9,3.7,0.9,5.8c0,0.8-0.2,1.5-0.6,2s-1,0.8-1.7,0.8h-20.1c0.3,6,3.4,9,9.2,9c2.6,0,5.4-1.1,8.4-3.2
		c0.4-0.3,0.8-0.4,1.2-0.4c0.7,0,1.2,0.3,1.7,0.9s0.8,1.3,0.8,2c0,0.8-0.3,1.6-1,2.2c-3.3,2.8-7.2,4.2-11.7,4.2c-5,0-9-1.5-12-4.4
		s-4.5-7-4.5-12.2C636.8,430.2,637.4,427.5,638.6,425.1z M660.3,430.7c-0.2-2.4-0.9-4.4-2.1-6c-1.2-1.6-3.1-2.3-5.5-2.3
		s-4.2,0.8-5.6,2.4c-1.3,1.6-2.1,3.6-2.3,5.9H660.3z"/>
	<path class="st3" d="M672.2,444c0-0.7,0.2-1.3,0.7-1.8s1.1-0.8,1.8-0.8c0.5,0,1.1,0.2,1.7,0.5c0.9,0.5,1.7,0.9,2.2,1.2
		c0.6,0.3,1.5,0.6,2.7,0.9s2.5,0.5,3.7,0.5s2.3-0.1,3.3-0.4c1-0.2,1.8-0.7,2.5-1.3c0.7-0.6,1-1.5,1-2.5c0-1.8-1.5-3.1-4.4-3.8
		l-5-1.3c-1.5-0.4-2.7-0.8-3.7-1.1c-0.9-0.3-1.9-0.7-2.8-1.2c-1-0.5-1.7-1-2.2-1.7c-0.5-0.6-0.9-1.4-1.2-2.3s-0.5-2-0.5-3.2
		c0-2.9,1.2-5.1,3.5-6.7s5.4-2.3,9.2-2.3c3.7,0,7.1,0.8,10.4,2.4c1.1,0.6,1.7,1.4,1.7,2.5c0,0.7-0.2,1.3-0.7,1.7
		c-0.4,0.5-1,0.7-1.7,0.7c-0.4,0-0.8-0.1-1.2-0.3c0,0-0.3-0.1-0.7-0.3c-0.4-0.2-0.8-0.3-0.9-0.3c-0.2-0.1-0.5-0.2-1-0.3
		c-0.5-0.2-0.9-0.3-1.3-0.3c-0.3-0.1-0.8-0.2-1.3-0.3c-0.5-0.1-1-0.2-1.4-0.2c-0.5,0-1-0.1-1.4-0.1c-1.6,0-3,0.3-4.2,0.8
		c-1.1,0.5-1.7,1.4-1.7,2.5c0,1,0.3,1.7,0.9,2.2c0.6,0.5,1.8,0.9,3.6,1.3l4.9,1.2c3.4,0.8,5.9,2,7.5,3.5s2.4,3.5,2.4,6.1
		c0,3.2-1.2,5.7-3.6,7.4c-2.4,1.7-5.5,2.6-9.3,2.6c-4.9,0-9.1-1.2-12.4-3.7C672.6,445.6,672.2,444.9,672.2,444z"/>
	<path class="st3" d="M705.9,409.9c-0.9-0.8-1.3-1.9-1.3-3.2c0-1.3,0.4-2.4,1.3-3.2c0.9-0.8,2-1.2,3.4-1.2s2.5,0.4,3.3,1.2
		c0.8,0.8,1.3,1.9,1.3,3.2c0,1.3-0.4,2.4-1.3,3.2c-0.9,0.8-2,1.2-3.3,1.2C707.9,411.2,706.8,410.8,705.9,409.9z M706.4,448.2
		c-0.7-0.8-1.1-1.9-1.1-3.3V422c0-1.4,0.4-2.5,1.1-3.3c0.7-0.8,1.7-1.2,2.9-1.2s2.1,0.4,2.9,1.2c0.8,0.8,1.1,1.9,1.1,3.3v22.9
		c0,1.4-0.4,2.5-1.1,3.3c-0.8,0.8-1.7,1.2-2.9,1.2C708.1,449.3,707.1,449,706.4,448.2z"/>
	<path class="st3" d="M744.2,444.3c-1.8,3.4-5,5.1-9.5,5.1c-4.6,0-8.2-1.4-11-4.2c-2.8-2.8-4.1-6.7-4.1-11.5c0-4.9,1.3-8.9,4-11.9
		s6.3-4.6,10.9-4.6c2.6,0,4.6,0.4,6,1.3s2.7,2.2,3.8,3.9v-1.5c0.1-1.1,0.5-1.9,1.2-2.5s1.5-0.9,2.5-0.9c1.1,0,2,0.4,2.7,1.2
		c0.7,0.8,1.1,1.9,1.1,3.3v26c0,5-1.5,8.8-4.4,11.5c-2.9,2.6-6.9,3.9-11.9,3.9c-2.3,0-4.4-0.2-6.5-0.7s-3.7-1.1-4.8-1.8
		c-1-0.6-1.5-1.4-1.5-2.4c0-0.7,0.2-1.4,0.7-1.9c0.5-0.6,1.1-0.8,1.8-0.8c0.3,0,0.7,0.1,1,0.2c0.2,0.1,0.8,0.3,1.7,0.6
		s1.7,0.6,2.1,0.7s1.1,0.3,2,0.4s1.7,0.2,2.6,0.2c3,0,5.3-0.7,6.9-2.2s2.5-3.7,2.5-6.7v-4.7H744.2z M742,441.5
		c1.5-1.7,2.2-4.4,2.2-8c0-7.3-2.7-11-8.1-11c-1.2,0-2.3,0.2-3.2,0.6c-1,0.4-1.7,0.9-2.4,1.6c-0.6,0.7-1.2,1.5-1.6,2.4
		c-0.4,0.9-0.7,1.9-0.9,3c-0.2,1-0.3,2.2-0.3,3.4c0,3.5,0.8,6.1,2.4,7.9c1.6,1.8,3.6,2.7,6,2.7C738.6,444,740.5,443.2,742,441.5z"/>
	<path class="st3" d="M761.1,448.2c-0.7-0.8-1.1-1.8-1.1-3.2v-23.5c0-1.3,0.4-2.3,1.1-3s1.7-1,2.9-1c1.1,0,2.1,0.3,2.8,1
		s1.1,1.7,1.1,2.9v1.1c0.9-1.8,2.3-3.2,4.1-4.1s3.9-1.4,6.4-1.4c1.5,0,3,0.2,4.3,0.7s2.5,1.2,3.6,2.2s1.9,2.2,2.5,3.8
		c0.6,1.6,0.9,3.4,0.9,5.4V445c0,1.4-0.4,2.4-1.1,3.2s-1.7,1.2-2.9,1.2c-1.1,0-2.1-0.4-2.8-1.2c-0.7-0.8-1.1-1.8-1.1-3.2v-15.7
		c0-2.2-0.6-3.8-1.7-5c-1.1-1.2-2.6-1.7-4.3-1.7c-2.1,0-3.9,0.8-5.5,2.5c-1.5,1.7-2.3,3.9-2.3,6.5V445c0,1.4-0.4,2.4-1.1,3.2
		c-0.8,0.8-1.7,1.2-2.9,1.2C762.8,449.3,761.8,449,761.1,448.2z"/>
</g>
<path id="XMLID_1117_" class="st6" d="M886.9,340H307.1c-23.9,0-43.5,19.6-43.5,43.5v497.3V1171c0,23.9-19.6,43.5-43.5,43.5h-81.7"
	/>
<g id="XMLID_1114_">
	<path id="XMLID_1116_" class="st5" d="M368.6,600.2c-10.2,0-18.4,8-18.4,17.7c0,2.8,0.7,5.4,2,7.9v0.1l16.4,23.7l16.5-23.7
		c1.3-2.5,2-5.2,2-7.9C387,608.1,378.7,600.2,368.6,600.2z"/>
	<circle id="XMLID_1115_" class="st7" cx="368.6" cy="616.8" r="7.8"/>
</g>
<g id="XMLID_1106_">
	<path id="XMLID_1113_" class="st0" d="M346,530.3v22.2c0,3.5,2.9,6.4,6.4,6.4h32.2c3.5,0,6.4-2.9,6.4-6.4v-22.2H346z"/>
	<path id="XMLID_1112_" class="st5" d="M391.1,522.7c0-3.5-2.9-6.4-6.4-6.4h-32.2c-3.5,0-6.4,2.9-6.4,6.4v7.7h45.1v-7.7H391.1z"/>
	<line id="XMLID_1111_" class="st8" x1="355.6" y1="511.8" x2="355.6" y2="520.6"/>
	<line id="XMLID_1110_" class="st8" x1="381.5" y1="511.8" x2="381.5" y2="520.6"/>
	<circle id="XMLID_1109_" class="st5" cx="382.5" cy="549.4" r="11"/>
	<line id="XMLID_1108_" class="st8" x1="382.5" y1="546" x2="382.5" y2="549.4"/>
	<line id="XMLID_1107_" class="st8" x1="386" y1="549.3" x2="382.5" y2="549.3"/>
</g>
<line id="XMLID_1105_" class="st4" x1="368.6" y1="710.2" x2="368.6" y2="834.3"/>
<circle id="XMLID_1104_" class="st5" cx="368.6" cy="702.2" r="9.9"/>
<circle id="XMLID_1103_" class="st5" cx="368.6" cy="767.2" r="9.9"/>
<circle id="XMLID_1102_" class="st5" cx="368.6" cy="832.1" r="9.9"/>
<g id="XMLID_1070_">
	<line id="XMLID_1072_" class="st4" x1="835.7" y1="148" x2="835.7" y2="133.8"/>
	<line id="XMLID_1071_" class="st4" x1="819" y1="148" x2="819" y2="133.8"/>
</g>
<g id="XMLID_1067_">
	<line id="XMLID_1069_" class="st4" x1="579.2" y1="89.5" x2="579.2" y2="75.3"/>
	<line id="XMLID_1068_" class="st4" x1="562.5" y1="89.5" x2="562.5" y2="75.3"/>
</g>
<g id="XMLID_1064_">
	<line id="XMLID_1066_" class="st4" x1="771.2" y1="-29.7" x2="771.2" y2="-43.9"/>
	<line id="XMLID_1065_" class="st4" x1="754.5" y1="-29.7" x2="754.5" y2="-43.9"/>
</g>
<g id="XMLID_1043_">
	<ellipse id="XMLID_1045_" class="st5" cx="372.2" cy="-157.9" rx="14" ry="9"/>
	<line id="XMLID_1044_" class="st8" x1="386.2" y1="-159.7" x2="386.2" y2="-215.7"/>
</g>
<g id="XMLID_1040_">
	<ellipse id="XMLID_1042_" class="st5" cx="900.2" cy="167.5" rx="14" ry="9"/>
	<line id="XMLID_1041_" class="st8" x1="914.1" y1="165.8" x2="914.1" y2="109.8"/>
</g>
<circle id="XMLID_1035_" class="st5" cx="269.6" cy="-154.9" r="9.9"/>
<circle id="XMLID_1034_" class="st5" cx="646.7" cy="67" r="9.9"/>
<line id="XMLID_1026_" class="st4" x1="320.2" y1="-211" x2="320.2" y2="-269.7"/>
<line id="XMLID_1023_" class="st4" x1="953.6" y1="6.9" x2="953.6" y2="-33.3"/>
<line id="XMLID_1022_" class="st4" x1="953.6" y1="31.5" x2="953.6" y2="19.3"/>
<g id="XMLID_1013_">
	<polygon id="XMLID_1014_" class="st9" points="353.6,908.9 363.2,914.5 353.2,926.9 359.6,932.1 369.6,919.7 377.2,928.1 
		385.6,893.3 	"/>
</g>
<g id="XMLID_1004_">
	<path id="XMLID_1009_" class="st1" d="M247.3-30.3c0.4-10.7,9.2-19.1,19.8-19.1h12.5v38.9h-12.5C256.2-10.5,247.3-19.3,247.3-30.3
		L247.3-30.3z"/>
	<path id="XMLID_1008_" class="st5" d="M574.6-30.7c0,23.7-19.2,43-43,43h-5.8v-84.4h5.8C554.7-72.1,573.7-53.8,574.6-30.7
		L574.6-30.7z"/>
	<path id="XMLID_1007_" class="st5" d="M390.7,10.9H289.4c-5.4,0-9.8-4.4-9.8-9.8v-62.2c0-5.4,4.4-9.8,9.8-9.8h101.3V10.9z"/>
	<path id="XMLID_1006_" class="st1" d="M351.5,81c-1.6,9.1-10.2,15.1-19.2,13.6c-6.9-1.2-12.4-6.6-13.6-13.6V11h32.8L351.5,81
		L351.5,81z"/>
	<polygon id="XMLID_1005_" class="st0" points="390.7,-77.1 390.7,-29.9 390.7,-29.9 390.7,17.3 525.8,86.7 525.8,-29.9 
		525.8,-29.9 525.8,-146.5 	"/>
</g>
<path id="XMLID_1003_" class="st5" d="M472.1,301.6L472.1,301.6c-9.1,0-16.5-7.4-16.5-16.5V179.3c0-9.1,7.4-16.5,16.5-16.5l0,0
	c9.1,0,16.5,7.4,16.5,16.5v105.9C488.5,294.2,481.1,301.6,472.1,301.6z"/>
<path id="XMLID_1002_" class="st5" d="M385.8,123.2c0-41.2-33.4-74.6-74.6-74.6s-74.6,33.4-74.6,74.6c0,21.6,9.2,41.1,23.9,54.7
	c-3.9,7.7-6.2,16.4-6.2,25.7c0,31.4,25.4,56.8,56.8,56.8s56.8-25.4,56.8-56.8c0-9.3-2.2-18-6.2-25.7
	C376.6,164.3,385.8,144.8,385.8,123.2z"/>
<polyline id="XMLID_1001_" class="st0" points="555.6,191.9 547.6,183.2 539.3,191.9 531.3,183.2 522.9,191.9 514.9,183.2 
	506.6,191.9 "/>
<polyline id="XMLID_1000_" class="st0" points="666.4,178.9 658.4,170.2 650.1,178.9 642.1,170.2 633.8,178.9 625.8,170.2 
	617.4,178.9 "/>
<polyline id="XMLID_999_" class="st0" points="703,246.4 695,237.7 686.6,246.4 678.6,237.7 670.3,246.4 "/>
<g id="XMLID_996_">
	<line id="XMLID_998_" class="st4" x1="476.7" y1="148.5" x2="476.7" y2="128.7"/>
	<line id="XMLID_997_" class="st4" x1="460.1" y1="148.5" x2="460.1" y2="128.7"/>
</g>
<g id="XMLID_994_">
	<line id="XMLID_995_" class="st4" x1="620.7" y1="148.5" x2="620.7" y2="128.7"/>
</g>
<g id="XMLID_991_">
	<line id="XMLID_993_" class="st4" x1="426.6" y1="339.3" x2="426.6" y2="326.7"/>
	<circle id="XMLID_992_" class="st5" cx="426.6" cy="316.6" r="11.7"/>
</g>
<circle id="XMLID_990_" class="st0" cx="317.1" cy="101.2" r="12.3"/>
<circle id="XMLID_989_" class="st0" cx="286.4" cy="159.9" r="17.7"/>
<circle id="XMLID_988_" class="st0" cx="335.1" cy="205.2" r="11"/>
<polyline id="XMLID_987_" class="st4" points="667.6,-92.3 650.1,-75.3 668.1,-75.3 649.1,-57.8 "/>
<polyline id="XMLID_986_" class="st4" points="904.6,-309.7 887.1,-292.8 905.1,-292.8 886.1,-275.3 "/>
<polyline id="XMLID_985_" class="st4" points="617.1,-0.2 599.7,16.8 617.7,16.8 598.6,34.3 "/>
<polyline id="XMLID_984_" class="st4" points="590.1,-162.2 572.7,-145.2 590.7,-145.2 571.6,-127.7 "/>
<path id="XMLID_983_" class="st1" d="M736.5-186.7h17.4c0,4.7-3.8,8.5-8.5,8.5H745C740.3-178.2,736.5-182,736.5-186.7L736.5-186.7z"
	/>
<path id="XMLID_982_" class="st5" d="M762.4-203.3h-34.5v8c0,4.7,3.8,8.5,8.5,8.5h17.4c4.7,0,8.5-3.8,8.5-8.5L762.4-203.3
	L762.4-203.3z"/>
<path id="XMLID_981_" class="st0" d="M784.7-258.7c0-21.8-17.7-39.5-39.5-39.5s-39.5,17.7-39.5,39.5c0,11.3,4.7,21.4,12.3,28.6l0,0
	c0,0,7,7,9,14c1.1,3.7,1,12.8,1,12.8h17.2h17.2c0,0,0-9.1,1-12.8c2-7,9-14,9-14C780-237.3,784.7-247.4,784.7-258.7z"/>
<line id="XMLID_975_" class="st4" x1="811.5" y1="-236.7" x2="833.7" y2="-236.7"/>
<line id="XMLID_974_" class="st4" x1="809.8" y1="-279.8" x2="816.9" y2="-283.8"/>
<line id="XMLID_973_" class="st4" x1="843.2" y1="-236.7" x2="852.7" y2="-236.7"/>
<line id="XMLID_972_" class="st4" x1="664.2" y1="-236.7" x2="672" y2="-236.7"/>
<line id="XMLID_971_" class="st4" x1="646.9" y1="-236.7" x2="654.7" y2="-236.7"/>
<line id="XMLID_970_" class="st4" x1="674" y1="-326.8" x2="681.3" y2="-316.4"/>
<line id="XMLID_969_" class="st4" x1="669.3" y1="-196" x2="651.4" y2="-185.6"/>
<line id="XMLID_968_" class="st4" x1="693.2" y1="-157.7" x2="688.1" y2="-148.3"/>
<line id="XMLID_967_" class="st4" x1="802" y1="-168.7" x2="812.2" y2="-151"/>
<line id="XMLID_966_" class="st4" x1="745.2" y1="-149.8" x2="745.2" y2="-129.8"/>
<line id="XMLID_965_" class="st4" x1="745.2" y1="-339.8" x2="745.2" y2="-319.8"/>
<line id="XMLID_964_" class="st4" x1="745.2" y1="-119.7" x2="745.2" y2="-111.6"/>
<path id="XMLID_963_" class="st7" d="M450.8-289.1h-0.7c0-9.5-7.7-17.3-17.3-17.3s-17.3,7.7-17.3,17.3h-12
	c-8.2,0-14.9,6.7-14.9,14.9s6.7,14.9,14.9,14.9h47.2c8.2,0,14.9-6.7,14.9-14.9S459-289.1,450.8-289.1z"/>
<path id="XMLID_962_" class="st1" d="M540.9-232.4h-1.1c0-15-12.2-27.2-27.2-27.2s-27.2,12.2-27.2,27.2h-8.9
	c-12.9,0-23.4,10.5-23.4,23.4s10.5,23.4,23.4,23.4h64.3c12.9,0,23.4-10.5,23.4-23.4C564.3-221.8,553.8-232.4,540.9-232.4z"/>
<line id="XMLID_931_" class="st4" x1="378.5" y1="339.7" x2="378.5" y2="262.3"/>
<line id="XMLID_930_" class="st4" x1="472.1" y1="340" x2="472.1" y2="262.5"/>
<path id="XMLID_929_" class="st7" d="M838.1,287.1c-9,0-17.3,2.6-24.1,7.1c-9-14.6-26.1-24.5-45.7-24.5c-29,0-52.5,21.6-52.5,48.2
	c0,8,2.1,15.6,5.9,22.2h155c2-4.5,3.1-9.4,3.1-14.6C879.9,304.2,861.2,287.1,838.1,287.1z"/>
<g id="XMLID_925_">
	<polygon id="XMLID_928_" class="st4" points="481.2,340 518.7,265.1 556.2,340 	"/>
	<line id="XMLID_927_" class="st4" x1="518.7" y1="339.7" x2="518.7" y2="307.7"/>
	<line id="XMLID_926_" class="st4" x1="518.7" y1="265.1" x2="518.7" y2="235.7"/>
</g>
<polygon id="XMLID_119_" class="st1" points="539,340 611.3,195.8 683.5,340 "/>
<line id="XMLID_118_" class="st4" x1="611.3" y1="339.4" x2="611.3" y2="277.9"/>
<line id="XMLID_117_" class="st4" x1="311.3" y1="337.8" x2="311.3" y2="260.4"/>
<g id="XMLID_114_">
	<path id="XMLID_116_" class="st1" d="M706.7,49.4c0,16.4,13.8,29.5,30.5,28.4c14.3-1,25.7-12.7,26.4-27c0.4-8.8-3.2-16.8-9.1-22.3
		c1.7-3.3,2.5-7.1,2.3-11.1c-0.6-10.9-9.5-19.7-20.3-20.3c-12.6-0.7-23,9.2-23,21.6c0,3.5,0.8,6.9,2.3,9.8
		C710.2,33.7,706.7,41.2,706.7,49.4z"/>
	<line id="XMLID_115_" class="st4" x1="734" y1="94.7" x2="734" y2="50.4"/>
</g>
<path id="XMLID_113_" class="st5" d="M826.7-13.6c0,16.4,13.8,29.5,30.5,28.4c14.3-1,25.7-12.7,26.4-27c0.4-8.8-3.2-16.8-9.1-22.3
	c1.7-3.3,2.5-7.1,2.3-11.1c-0.6-10.9-9.5-19.7-20.3-20.3c-12.6-0.7-23,9.2-23,21.6c0,3.5,0.8,6.9,2.3,9.8
	C830.2-29.3,826.7-21.8,826.7-13.6z"/>
<line id="XMLID_112_" class="st4" x1="854" y1="31.7" x2="854" y2="-12.6"/>
<path id="XMLID_111_" class="st5" d="M655.2,303.9c6.1,0,11.8,1.8,16.5,4.8c6.1-10,17.8-16.7,31.2-16.7c19.8,0,35.8,14.7,35.8,32.9
	c0,5.5-1.4,10.6-4,15.1H628.9c-1.4-3.1-2.1-6.4-2.1-10C626.7,315.6,639.5,303.9,655.2,303.9z"/>
<path id="XMLID_110_" class="st0" d="M348.9,318.3c-3.7,0-7.1,1.1-9.9,2.9c-3.7-6-10.7-10.1-18.8-10.1c-11.9,0-21.5,8.9-21.5,19.8
	c0,3.3,0.9,6.4,2.4,9.1h63.6c0.8-1.8,1.3-3.9,1.3-6C366,325.3,358.4,318.3,348.9,318.3z"/>
<polygon id="XMLID_109_" class="st9" points="518.7,238.6 557.4,238.6 543.8,225.2 543.8,225.2 543.8,225.2 543.8,225.2 
	543.8,225.2 543.8,225.2 543.8,225.2 557.4,211.8 518.7,211.8 "/>
<g id="XMLID_195_">
	<path id="XMLID_2_" class="st10" d="M741.2-204.8c0,0,1.7-25.1-2-33.7c-1.2-2.8-3.2-7-6.1-8.3c-4-1.9-6.2,3.8-4.5,6.7
		c1.7,3,5.8,4.4,9,5.3c0,0,4.7,1.2,7.6,1.2"/>
	<path id="XMLID_200_" class="st10" d="M749.2-204.8c0,0-1.7-25.1,2-33.7c1.2-2.8,3.2-7,6.1-8.3c4-1.9,6.2,3.8,4.5,6.7
		c-1.7,3-5.8,4.4-9,5.3c0,0-4.7,1.2-7.6,1.2"/>
</g>
<g>
	<path id="XMLID_208_" class="st11" d="M742.3,932.6H440.3c-5.5,0-9.9-4.4-9.9-9.9v0c0-5.5,4.4-9.9,9.9-9.9h301.9
		c5.5,0,9.9,4.4,9.9,9.9v0C752.2,928.1,747.7,932.6,742.3,932.6z"/>
	<g>
		<path class="st12" d="M443.2,898.8c-0.5,0-0.9-0.2-1.1-0.5c-0.2-0.3-0.4-0.7-0.4-1.2c0-0.5,0.1-0.9,0.4-1.2
			c0.2-0.3,0.6-0.5,1.1-0.5h7.6c1,0,1.7,0.2,2.1,0.6c0.4,0.4,0.6,1.1,0.6,2.1v3.4c0,1,0,1.8-0.1,2.6c-0.1,0.7-0.2,1.4-0.4,2
			c-0.2,0.6-0.5,1.2-0.9,1.8c-0.4,0.6-0.9,1.2-1.6,1.8s-1.5,1.3-2.5,2.1s-2.2,1.6-3.6,2.6c-0.4,0.3-0.9,0.4-1.4,0.2
			c-0.5-0.1-0.9-0.4-1.2-0.8c-0.1-0.2-0.2-0.4-0.3-0.6c-0.1-0.2-0.1-0.5-0.1-0.7c0-0.2,0-0.5,0.1-0.7c0.1-0.2,0.3-0.4,0.5-0.5
			c1.2-0.8,2.2-1.6,3.1-2.2c0.8-0.6,1.5-1.2,2.1-1.7c0.6-0.5,1-0.9,1.3-1.4c0.3-0.4,0.6-0.9,0.7-1.3c0.1-0.4,0.2-0.9,0.3-1.5
			c0-0.5,0-1.1,0-1.9v-1.7c0-0.5-0.2-0.7-0.7-0.7H443.2z M451.7,902.5h5.1v-7.7c0-0.6,0.2-1,0.6-1.2c0.4-0.3,0.8-0.4,1.3-0.4
			c0.5,0,0.9,0.1,1.3,0.4c0.4,0.3,0.6,0.7,0.6,1.2v23.1c0,0.6-0.2,1-0.6,1.2c-0.4,0.3-0.8,0.4-1.3,0.4c-0.5,0-0.9-0.1-1.3-0.4
			c-0.4-0.3-0.6-0.7-0.6-1.2V906h-5.1V902.5z M462.8,894.5c0-0.6,0.2-1,0.6-1.2c0.4-0.3,0.8-0.4,1.3-0.4c0.5,0,0.9,0.1,1.3,0.4
			c0.4,0.3,0.6,0.7,0.6,1.2v24.8c0,0.6-0.2,1-0.6,1.2c-0.4,0.3-0.8,0.4-1.3,0.4c-0.5,0-0.9-0.1-1.3-0.4c-0.4-0.3-0.6-0.7-0.6-1.2
			V894.5z"/>
		<path class="st12" d="M481,900.6c0,0.6,0,1.2,0.1,1.8s0.2,1,0.4,1.5s0.4,1,0.8,1.4c0.3,0.5,0.7,0.9,1.1,1.4
			c0.6,0.6,1.2,1.2,1.7,1.8c0.6,0.6,1.1,1.1,1.6,1.5c0.4,0.4,0.6,0.8,0.5,1.3c-0.1,0.5-0.3,0.9-0.6,1.3c-0.1,0.1-0.3,0.3-0.5,0.4
			c-0.2,0.1-0.4,0.2-0.7,0.2s-0.4,0-0.7,0c-0.2-0.1-0.4-0.2-0.6-0.4c-0.4-0.4-0.9-0.8-1.4-1.3c-0.5-0.5-1-1-1.5-1.6
			c-0.9-0.9-1.4-1.6-1.8-2c-0.3-0.5-0.5-0.8-0.6-1.2h0c0,0.2-0.1,0.4-0.2,0.6c-0.1,0.2-0.2,0.4-0.4,0.7c-0.2,0.2-0.4,0.5-0.7,0.9
			c-0.3,0.3-0.6,0.7-1.1,1.2c-0.5,0.6-1,1.1-1.6,1.6c-0.5,0.5-1.1,1.1-1.8,1.7c-0.4,0.4-0.9,0.5-1.4,0.3c-0.5-0.1-0.9-0.4-1.2-0.7
			c-0.3-0.4-0.5-0.8-0.5-1.3c0-0.5,0.2-0.9,0.5-1.3c1.3-1.2,2.6-2.5,3.7-3.7c0.4-0.5,0.8-1,1.1-1.4c0.3-0.5,0.6-0.9,0.8-1.4
			s0.3-1,0.4-1.5c0.1-0.5,0.1-1.1,0.1-1.8v-4.5c0-0.6,0.2-1.1,0.6-1.3s0.9-0.4,1.5-0.4s1,0.1,1.5,0.4s0.6,0.7,0.6,1.3V900.6z
			 M494,919.2c0,0.6-0.2,1-0.6,1.3s-0.9,0.4-1.5,0.4c-0.5,0-1-0.1-1.4-0.4s-0.6-0.7-0.6-1.3v-24.5c0-0.6,0.2-1,0.6-1.3
			s0.9-0.4,1.4-0.4c0.6,0,1,0.1,1.5,0.4s0.6,0.7,0.6,1.3V919.2z"/>
		<path class="st12" d="M513.3,908.5v3.8h-4v-3.8h-10.1c-0.5,0-0.8-0.2-1-0.5c-0.2-0.3-0.3-0.7-0.3-1.2c0-0.4,0.1-0.8,0.3-1.2
			c0.2-0.3,0.6-0.5,1-0.5h24.3c0.5,0,0.8,0.2,1,0.5c0.2,0.3,0.3,0.7,0.3,1.2c0,0.5-0.1,0.9-0.3,1.2c-0.2,0.3-0.6,0.5-1,0.5H513.3z
			 M518.7,910.6c1,0,1.7,0.2,2.1,0.6c0.4,0.4,0.6,1.1,0.6,2.1v2.3c0,1-0.2,1.7-0.6,2.1c-0.4,0.4-1.1,0.6-2.1,0.6h-13
			c-0.3,0-0.5,0.2-0.5,0.5v0.6c0,0.3,0.2,0.5,0.5,0.5h15c0.4,0,0.8,0.2,1,0.5c0.2,0.3,0.3,0.7,0.3,1.1c0,0.4-0.1,0.8-0.3,1.1
			c-0.2,0.3-0.5,0.5-1,0.5h-16.8c-1,0-1.7-0.2-2.1-0.6c-0.4-0.4-0.6-1.1-0.6-2.1v-2.4c0-1,0.2-1.7,0.6-2.1c0.4-0.4,1.1-0.6,2.1-0.6
			h13c0.3,0,0.5-0.2,0.5-0.5v-0.5c0-0.3-0.2-0.5-0.5-0.5h-14.5c-0.4,0-0.8-0.2-1-0.5c-0.2-0.3-0.3-0.7-0.3-1.1
			c0-0.4,0.1-0.8,0.3-1.1c0.2-0.3,0.5-0.5,1-0.5H518.7z M504,903.5c-1,0-1.7-0.2-2.1-0.6c-0.4-0.4-0.6-1.1-0.6-2.1v-4.6
			c0-1,0.2-1.7,0.6-2.1c0.4-0.4,1.1-0.6,2.1-0.6h14.6c1,0,1.7,0.2,2.1,0.6c0.4,0.4,0.6,1.1,0.6,2.1v4.6c0,1-0.2,1.7-0.6,2.1
			c-0.4,0.4-1.1,0.6-2.1,0.6H504z M516.5,900.2c0.5,0,0.7-0.2,0.7-0.7v-1.9c0-0.5-0.2-0.7-0.7-0.7h-10.4c-0.5,0-0.7,0.2-0.7,0.7v1.9
			c0,0.5,0.2,0.7,0.7,0.7H516.5z"/>
		<path class="st12" d="M544.2,900.6c0,0.6,0,1.2,0.1,1.8s0.2,1,0.4,1.5c0.2,0.5,0.4,1,0.8,1.4c0.3,0.5,0.7,0.9,1.1,1.4
			c0.6,0.6,1.2,1.2,1.7,1.8c0.6,0.6,1.1,1.1,1.6,1.5c0.4,0.4,0.6,0.8,0.5,1.3c-0.1,0.5-0.3,0.9-0.6,1.3c-0.1,0.1-0.3,0.3-0.5,0.4
			c-0.2,0.1-0.4,0.2-0.7,0.2c-0.2,0-0.4,0-0.7,0c-0.2-0.1-0.4-0.2-0.6-0.4c-0.4-0.4-0.9-0.8-1.4-1.3c-0.5-0.5-1-1-1.5-1.6
			c-0.9-0.9-1.4-1.6-1.7-2c-0.3-0.4-0.5-0.8-0.6-1.2h0c0,0.2-0.1,0.4-0.2,0.6c-0.1,0.2-0.2,0.4-0.4,0.7c-0.2,0.3-0.4,0.5-0.7,0.9
			c-0.3,0.3-0.6,0.7-1.1,1.2c-0.5,0.6-1,1.1-1.6,1.6s-1.1,1.1-1.8,1.7c-0.4,0.4-0.9,0.5-1.4,0.3c-0.5-0.1-0.9-0.4-1.2-0.7
			c-0.3-0.4-0.5-0.8-0.5-1.3c0-0.5,0.2-0.9,0.5-1.3c1.3-1.2,2.6-2.5,3.7-3.7c0.4-0.5,0.8-1,1.1-1.4c0.3-0.5,0.6-0.9,0.8-1.4
			c0.2-0.5,0.3-1,0.4-1.5s0.1-1.1,0.1-1.8v-4.4c0-0.6,0.2-1.1,0.6-1.3s0.9-0.4,1.5-0.4s1,0.1,1.5,0.4s0.6,0.7,0.6,1.3V900.6z
			 M559.5,902.4c0.5,0,0.9,0.2,1.1,0.5s0.4,0.8,0.4,1.2s-0.1,0.9-0.4,1.3s-0.6,0.5-1.1,0.5h-3v13.2c0,0.6-0.2,1-0.6,1.3
			s-0.9,0.4-1.4,0.4s-1-0.1-1.4-0.4s-0.6-0.7-0.6-1.3v-24.5c0-0.6,0.2-1,0.6-1.3s0.9-0.4,1.4-0.4s1,0.1,1.4,0.4s0.6,0.7,0.6,1.3v7.7
			H559.5z"/>
		<path class="st12" d="M562.6,904.3c0-3.2,0.6-5.6,1.9-7.2c1.3-1.7,3.2-2.5,5.8-2.5s4.5,0.8,5.8,2.5c1.3,1.7,1.9,4.1,1.9,7.2
			c0,3.2-0.6,5.6-1.9,7.2c-1.3,1.7-3.2,2.5-5.8,2.5s-4.5-0.8-5.8-2.5C563.2,909.9,562.6,907.5,562.6,904.3z M574.1,904.3
			c0-2-0.3-3.6-0.8-4.6s-1.5-1.6-2.9-1.6c-1.4,0-2.4,0.5-2.9,1.6c-0.6,1-0.8,2.6-0.8,4.6s0.3,3.6,0.8,4.6c0.6,1,1.5,1.6,2.9,1.6
			c1.4,0,2.4-0.5,2.9-1.6S574.1,906.3,574.1,904.3z M586.1,919.2c0,0.6-0.2,1-0.6,1.3s-0.9,0.4-1.5,0.4c-0.5,0-1-0.1-1.4-0.4
			s-0.6-0.7-0.6-1.3v-24.5c0-0.6,0.2-1,0.6-1.3s0.9-0.4,1.4-0.4c0.6,0,1,0.1,1.5,0.4s0.6,0.7,0.6,1.3V919.2z"/>
		<path class="st12" d="M591.4,918.3c-0.5,0-0.9-0.2-1.1-0.5c-0.2-0.3-0.4-0.7-0.4-1.2c0-0.5,0.1-0.9,0.4-1.2s0.6-0.5,1.1-0.5h24.2
			c0.5,0,0.9,0.2,1.1,0.5c0.2,0.3,0.4,0.8,0.4,1.2c0,0.5-0.1,0.9-0.4,1.2c-0.2,0.3-0.6,0.5-1.1,0.5H591.4z M597.4,901.1h14.3
			c0.5,0,0.9,0.2,1.1,0.5c0.2,0.3,0.4,0.7,0.4,1.2c0,0.4-0.1,0.8-0.4,1.2c-0.2,0.3-0.6,0.5-1.1,0.5h-14.3v2.2c0,0.5,0.2,0.7,0.7,0.7
			h14.4c0.5,0,0.9,0.2,1.1,0.5c0.2,0.3,0.4,0.7,0.4,1.2c0,0.5-0.1,0.9-0.4,1.2c-0.2,0.3-0.6,0.5-1.1,0.5h-16.4c-1,0-1.7-0.2-2.1-0.6
			c-0.4-0.4-0.6-1.1-0.6-2.1v-10.8c0-1,0.2-1.7,0.6-2.1c0.4-0.4,1.1-0.6,2.1-0.6H612c0.5,0,0.9,0.2,1.1,0.5c0.2,0.3,0.4,0.7,0.4,1.2
			s-0.1,0.9-0.4,1.2c-0.2,0.3-0.6,0.5-1.1,0.5h-13.9c-0.5,0-0.7,0.2-0.7,0.7V901.1z"/>
		<path class="st12" d="M630.4,901.5h6.1v-5c0-0.6,0.2-1,0.6-1.3s0.9-0.4,1.4-0.4c0.5,0,1,0.1,1.4,0.4s0.6,0.7,0.6,1.3v14.4
			c0,1-0.2,1.7-0.6,2.1c-0.4,0.4-1.1,0.6-2.1,0.6h-8.8c-1,0-1.7-0.2-2.1-0.6c-0.4-0.4-0.6-1.1-0.6-2.1v-14.4c0-0.6,0.2-1,0.6-1.3
			s0.9-0.4,1.4-0.4c0.5,0,1,0.1,1.4,0.4s0.6,0.7,0.6,1.3V901.5z M635.8,910.1c0.5,0,0.7-0.2,0.7-0.7v-4.5h-6.1v4.5
			c0,0.5,0.2,0.7,0.7,0.7H635.8z M651.6,902.4c0.5,0,0.9,0.2,1.1,0.5s0.4,0.8,0.4,1.2s-0.1,0.9-0.4,1.3s-0.6,0.5-1.1,0.5h-3v13.2
			c0,0.6-0.2,1-0.6,1.3s-0.9,0.4-1.4,0.4s-1-0.1-1.4-0.4s-0.6-0.7-0.6-1.3v-24.5c0-0.6,0.2-1,0.6-1.3s0.9-0.4,1.4-0.4s1,0.1,1.4,0.4
			s0.6,0.7,0.6,1.3v7.7H651.6z"/>
		<path class="st12" d="M655.2,918.3c-0.5,0-0.9-0.2-1.1-0.5c-0.2-0.3-0.4-0.7-0.4-1.2s0.1-0.9,0.4-1.2c0.2-0.3,0.6-0.5,1.1-0.5h10
			v-6h4.1v6h10c0.5,0,0.9,0.2,1.1,0.5c0.2,0.3,0.4,0.7,0.4,1.2s-0.1,0.9-0.4,1.2c-0.2,0.3-0.6,0.5-1.1,0.5H655.2z M674.5,894.6
			c1,0,1.7,0.2,2.1,0.6c0.4,0.4,0.6,1.1,0.6,2.1v4.3c0,1-0.2,1.7-0.6,2.1c-0.4,0.4-1.1,0.6-2.1,0.6h-12.4c-0.5,0-0.7,0.2-0.7,0.7
			v1.4c0,0.5,0.2,0.7,0.7,0.7h14.3c0.5,0,0.9,0.2,1.1,0.5c0.2,0.3,0.4,0.7,0.4,1.2s-0.1,0.9-0.4,1.2c-0.2,0.3-0.6,0.5-1.1,0.5h-16.4
			c-1,0-1.7-0.2-2.1-0.6c-0.4-0.4-0.6-1.1-0.6-2.1v-4.3c0-1,0.2-1.7,0.6-2.1c0.4-0.4,1.1-0.6,2.1-0.6h12.4c0.5,0,0.7-0.2,0.7-0.7
			v-1.3c0-0.5-0.2-0.7-0.7-0.7h-13.8c-0.5,0-0.9-0.2-1.1-0.5c-0.2-0.3-0.4-0.7-0.4-1.2c0-0.5,0.1-0.9,0.4-1.2
			c0.2-0.3,0.6-0.5,1.1-0.5H674.5z"/>
		<path class="st12" d="M684.4,898.6c-0.5,0-0.9-0.2-1.1-0.5s-0.4-0.7-0.4-1.2c0-0.5,0.1-0.9,0.4-1.2c0.2-0.3,0.6-0.5,1.1-0.5h9.6
			c1,0,1.7,0.2,2.1,0.6s0.6,1.1,0.6,2.1v3.5c0,1.3-0.1,2.5-0.4,3.5s-0.8,2-1.6,2.9c-0.8,0.9-1.9,1.9-3.4,3c-1.5,1.1-3.4,2.3-5.8,3.8
			c-0.4,0.3-0.9,0.3-1.4,0.1c-0.5-0.2-0.8-0.5-1.1-0.8s-0.4-0.8-0.4-1.3s0.2-0.9,0.7-1.2c1.5-0.9,2.7-1.6,3.7-2.3
			c1-0.7,1.9-1.3,2.6-1.8s1.2-1,1.6-1.5s0.7-0.9,0.9-1.4c0.2-0.5,0.3-0.9,0.4-1.4c0.1-0.5,0.1-1.1,0.1-1.7v-1.8
			c0-0.5-0.2-0.7-0.7-0.7H684.4z M708.3,902.4c0.5,0,0.9,0.2,1.1,0.5c0.2,0.3,0.4,0.8,0.4,1.2s-0.1,0.9-0.4,1.3
			c-0.2,0.4-0.6,0.5-1.1,0.5h-3v13.2c0,0.6-0.2,1-0.6,1.3s-0.9,0.4-1.4,0.4s-1-0.1-1.4-0.4s-0.6-0.7-0.6-1.3v-24.5
			c0-0.6,0.2-1,0.6-1.3s0.9-0.4,1.4-0.4s1,0.1,1.4,0.4s0.6,0.7,0.6,1.3v7.7H708.3z"/>
		<path class="st12" d="M713.4,898.6c-0.5,0-0.9-0.2-1.1-0.5c-0.2-0.3-0.4-0.7-0.4-1.2c0-0.5,0.1-0.9,0.4-1.2
			c0.2-0.3,0.6-0.5,1.1-0.5h9.6c1,0,1.7,0.2,2.1,0.6c0.4,0.4,0.6,1.1,0.6,2.1v3.6c0,0.9-0.1,1.7-0.2,2.4c-0.1,0.7-0.3,1.4-0.6,2.1
			s-0.7,1.3-1.2,1.9s-1.2,1.3-2,2c-0.8,0.7-1.8,1.4-3,2.2c-1.2,0.8-2.6,1.7-4.2,2.7c-0.4,0.3-0.9,0.3-1.4,0.1
			c-0.5-0.2-0.8-0.5-1.1-0.8c-0.3-0.4-0.4-0.8-0.4-1.3s0.2-0.9,0.7-1.2c1.5-0.9,2.7-1.6,3.7-2.3c1-0.7,1.9-1.3,2.6-1.8
			s1.2-1,1.6-1.5c0.4-0.4,0.7-0.9,0.9-1.4c0.2-0.5,0.3-0.9,0.4-1.4s0.1-1.1,0.1-1.7v-1.9c0-0.5-0.2-0.7-0.7-0.7H713.4z M734.9,919.2
			c0,0.6-0.2,1-0.6,1.3s-0.9,0.4-1.5,0.4c-0.5,0-1-0.1-1.4-0.4s-0.6-0.7-0.6-1.3v-24.5c0-0.6,0.2-1,0.6-1.3s0.9-0.4,1.4-0.4
			c0.6,0,1,0.1,1.5,0.4s0.6,0.7,0.6,1.3V919.2z"/>
	</g>
</g>
<g>
	<path class="st12" d="M449.4,639.1c-2-1.2-3.6-2.9-4.8-5.1c-1.2-2.2-1.7-4.8-1.7-7.7c0-2.3,0.4-4.3,1.1-6.2s1.7-3.4,2.9-4.7
		c1.2-1.3,2.7-2.2,4.4-2.9s3.5-1,5.5-1c2.5,0,4.9,0.6,7.3,1.8c0.9,0.5,1.3,1.2,1.3,2c0,0.6-0.2,1.1-0.6,1.6s-0.9,0.7-1.5,0.7
		c-0.2,0-0.5-0.1-0.7-0.2c-0.1,0-0.3-0.1-0.7-0.3s-0.7-0.3-1-0.4c-0.3-0.1-0.6-0.2-1-0.3c-0.4-0.1-0.9-0.2-1.3-0.3s-1-0.1-1.5-0.1
		c-2.6,0-4.7,0.8-6.1,2.5c-1.4,1.7-2.1,4.3-2.1,7.7c0,3.3,0.7,5.8,2.2,7.5c1.4,1.8,3.5,2.6,6.2,2.6c1.8,0,3.7-0.6,5.8-1.7
		c0.3-0.1,0.5-0.2,0.8-0.2c0.5,0,1,0.2,1.4,0.7s0.6,1,0.6,1.5c0,0.8-0.4,1.5-1.1,2c-2.3,1.5-5.1,2.3-8.3,2.3
		C453.7,640.9,451.4,640.3,449.4,639.1z"/>
	<path class="st12" d="M473,636.9c-2.4-2.6-3.6-6.2-3.6-10.8s1.2-8.2,3.6-10.8s5.8-3.9,10.1-3.9c4.4,0,7.8,1.3,10.1,3.9
		c2.4,2.6,3.6,6.2,3.6,10.8s-1.2,8.2-3.6,10.8c-2.4,2.6-5.7,3.9-10.1,3.9C478.8,640.9,475.4,639.5,473,636.9z M489,633.8
		c1.3-1.8,1.9-4.3,1.9-7.6c0-3.3-0.6-5.9-1.9-7.6c-1.3-1.8-3.2-2.7-5.9-2.7c-2.6,0-4.6,0.9-5.9,2.7s-1.9,4.3-1.9,7.6
		c0,3.3,0.6,5.9,1.9,7.6c1.3,1.8,3.2,2.7,5.9,2.7C485.7,636.4,487.7,635.6,489,633.8z"/>
	<path class="st12" d="M509.1,640.2c-1.4-0.4-2.6-1-3.7-1.9c-1.1-0.8-1.9-1.9-2.5-3.2c-0.6-1.3-0.9-2.8-0.9-4.5V615
		c0-0.9,0.3-1.6,0.8-2.1s1.2-0.8,2-0.8c0.8,0,1.4,0.3,2,0.8c0.6,0.5,0.8,1.2,0.8,2.1v15.5c0,1,0.2,1.9,0.5,2.7
		c0.3,0.8,0.8,1.4,1.4,1.9c0.6,0.5,1.2,0.8,1.9,1c0.7,0.2,1.4,0.4,2.2,0.4s1.5-0.1,2.2-0.4s1.3-0.6,1.9-1s1.1-1.1,1.4-1.9
		c0.3-0.8,0.5-1.7,0.5-2.7V615c0-0.9,0.3-1.6,0.8-2.1c0.6-0.5,1.2-0.8,2-0.8c0.8,0,1.4,0.3,2,0.8c0.6,0.5,0.8,1.2,0.8,2.1v15.6
		c0,1.7-0.3,3.2-0.9,4.5s-1.4,2.4-2.5,3.2c-1.1,0.8-2.3,1.5-3.7,1.9c-1.4,0.4-2.9,0.6-4.6,0.6C512,640.9,510.5,640.6,509.1,640.2z"
		/>
	<path class="st12" d="M532.6,639.6c-0.6-0.5-0.8-1.2-0.8-2.1v-21.9c0-1,0.3-1.8,0.8-2.5c0.5-0.7,1.3-1,2.2-1h8.4
		c1.6,0,3,0.1,4.2,0.4c1.2,0.3,2.3,0.8,3.2,1.4c0.9,0.6,1.6,1.5,2.1,2.6c0.5,1.1,0.7,2.4,0.7,4c0,5.7-3.6,8.5-10.7,8.5h-5.4v8.3
		c0,0.9-0.3,1.6-0.8,2.1c-0.6,0.5-1.2,0.8-2,0.8C533.8,640.4,533.1,640.1,532.6,639.6z M542.4,625.1c1,0,1.7-0.1,2.4-0.2
		c0.6-0.1,1.2-0.4,1.7-0.7c0.5-0.3,0.9-0.8,1.1-1.4s0.4-1.3,0.4-2.2c0-0.9-0.1-1.6-0.4-2.2s-0.6-1-1.1-1.3c-0.5-0.3-1.1-0.5-1.7-0.6
		s-1.4-0.2-2.3-0.2h-5.2v8.7H542.4z"/>
	<path class="st12" d="M574.8,633.9h-12.5l-1.8,4.7c-0.2,0.6-0.6,1.1-1,1.4c-0.5,0.3-1,0.5-1.5,0.5c-0.7,0-1.3-0.2-1.9-0.7
		s-0.8-1.1-0.8-1.8c0-0.3,0.1-0.7,0.2-1l8.6-21.5c0.5-1.4,1.2-2.4,1.9-2.9c0.7-0.5,1.6-0.7,2.6-0.7c1,0,1.9,0.2,2.6,0.7
		c0.7,0.5,1.3,1.5,1.9,2.9l8.6,21.5c0.1,0.3,0.2,0.7,0.2,1c0,0.7-0.3,1.3-0.8,1.8s-1.2,0.7-1.9,0.7c-0.6,0-1.1-0.2-1.5-0.5
		c-0.5-0.3-0.8-0.8-1-1.4L574.8,633.9z M568.6,617.2l-4.8,12.9h9.6L568.6,617.2z"/>
	<path class="st12" d="M586.8,639.7c-0.5-0.4-0.8-1-0.8-1.8v-22.3c0-1,0.3-1.9,0.8-2.5s1.3-0.9,2.1-0.9c0.6,0,1.2,0.2,1.8,0.5
		c0.6,0.4,1.1,0.8,1.6,1.4l12.9,17.8v-17.3c0-0.7,0.3-1.3,0.8-1.8c0.5-0.5,1.1-0.7,1.8-0.7c0.7,0,1.2,0.2,1.7,0.7
		c0.5,0.5,0.8,1.1,0.8,1.8v21.9c0,1.1-0.3,2-0.8,2.7s-1.3,1.1-2.1,1.1c-0.6,0-1.2-0.2-1.8-0.6c-0.7-0.4-1.2-0.9-1.6-1.5l-12.8-17.7
		v17.3c0,0.7-0.3,1.3-0.8,1.8s-1.1,0.7-1.8,0.7C587.9,640.3,587.3,640.1,586.8,639.7z"/>
	<path class="st12" d="M622.3,639.2c-2.1-1.1-3.8-2.8-5-5c-1.2-2.2-1.8-4.9-1.8-8.1c0-2.1,0.3-4,0.9-5.7c0.6-1.8,1.5-3.3,2.7-4.7
		s2.7-2.4,4.6-3.2s4-1.2,6.4-1.2c3.2,0,6,0.6,8.4,1.7c0.4,0.2,0.7,0.5,0.9,0.8c0.2,0.3,0.3,0.7,0.3,1.1c0,0.6-0.2,1.1-0.5,1.6
		c-0.4,0.5-0.8,0.7-1.4,0.7c-0.2,0-0.5-0.1-0.7-0.2c-2.7-0.8-5-1.3-6.8-1.3c-1.5,0-2.9,0.2-4,0.7c-1.1,0.5-2.1,1.2-2.8,2.1
		c-0.7,0.9-1.2,2-1.5,3.2c-0.3,1.2-0.5,2.6-0.5,4.2c0,6.8,2.9,10.3,8.6,10.3c1.7,0,3.4-0.2,5.1-0.6v-6.7h-4.1c-0.6,0-1-0.2-1.4-0.6
		c-0.3-0.4-0.5-0.9-0.5-1.4c0-0.5,0.2-1,0.5-1.4c0.3-0.4,0.8-0.6,1.3-0.6h7.6c1.4,0,2.1,0.9,2.1,2.6v8.2c0,1.2-0.2,2.1-0.6,2.6
		s-1.1,0.9-2.1,1.2c-3.5,0.8-6.2,1.2-8.2,1.2C627,640.9,624.5,640.3,622.3,639.2z"/>
</g>
<g>
	<path class="st12" d="M464.2,708.8c0.1,0.2,0.2,0.4,0.2,0.7c0,0.3-0.1,0.5-0.2,0.7c-0.1,0.2-0.3,0.3-0.6,0.3h-11.3V721
		c0,0.3-0.1,0.6-0.4,0.7c-0.2,0.1-0.5,0.2-0.8,0.2c-0.3,0-0.6-0.1-0.8-0.2s-0.4-0.4-0.4-0.7v-10.5h-11.4c-0.3,0-0.5-0.1-0.6-0.3
		c-0.1-0.2-0.2-0.4-0.2-0.7c0-0.3,0.1-0.5,0.2-0.7c0.1-0.2,0.3-0.3,0.6-0.3h25C463.9,708.5,464.1,708.6,464.2,708.8z M459.8,694.2
		c0.3,0.3,0.5,0.9,0.5,1.7v2.7c0,2.3-0.1,4.3-0.4,6c-0.2,1.8-0.6,3.4-1,4.9l-2.1-0.4c0.3-1,0.5-2,0.7-3c0.2-1,0.3-2.1,0.4-3.2
		l-16.1,0.3c-0.3,0-0.5-0.1-0.6-0.3s-0.2-0.4-0.2-0.7c0-0.3,0-0.5,0.2-0.8c0.1-0.2,0.3-0.3,0.6-0.3l16.3-0.2c0-0.4,0-0.8,0-1.2
		c0-0.4,0-0.8,0-1.2v-2.2c0-0.2,0-0.4-0.1-0.5c-0.1-0.1-0.3-0.1-0.5-0.1h-15.1c-0.3,0-0.5-0.1-0.6-0.3c-0.1-0.2-0.2-0.4-0.2-0.7
		c0-0.3,0.1-0.5,0.2-0.7s0.3-0.3,0.6-0.3h15.7C458.9,693.8,459.5,693.9,459.8,694.2z"/>
	<path class="st12" d="M482.6,704.9c0.5-0.1,0.9,0.2,1,0.8c0,0.3,0,0.5-0.1,0.8c-0.1,0.2-0.3,0.4-0.6,0.4c-1.1,0.1-2.2,0.3-3.4,0.4
		s-2.4,0.2-3.7,0.2c-1.3,0.1-2.7,0.1-4.1,0.1c-1.5,0-3,0-4.7,0c-0.3,0-0.5-0.1-0.6-0.3s-0.2-0.4-0.2-0.7c0-0.3,0.1-0.5,0.2-0.7
		s0.3-0.3,0.6-0.3h2.8v-9.5h-2.5c-0.3,0-0.5-0.1-0.6-0.3s-0.2-0.4-0.2-0.7c0-0.3,0.1-0.5,0.2-0.7s0.3-0.3,0.6-0.3h14.8
		c0.3,0,0.5,0.1,0.6,0.3c0.1,0.2,0.2,0.4,0.2,0.7c0,0.3-0.1,0.5-0.2,0.7c-0.1,0.2-0.3,0.3-0.6,0.3h-2.4v9.1c0.5,0,1-0.1,1.5-0.1
		C481.6,705.1,482.1,705,482.6,704.9z M479.7,710.4c2.9,0,5.1,0.5,6.6,1.5c1.5,1,2.3,2.4,2.3,4.3s-0.8,3.3-2.3,4.3s-3.7,1.5-6.6,1.5
		c-2.9,0-5.1-0.5-6.6-1.5c-1.5-1-2.3-2.4-2.3-4.3s0.8-3.3,2.3-4.3C474.7,710.9,476.9,710.4,479.7,710.4z M472,705.6
		c1,0,1.9,0,2.8-0.1c0.9,0,1.8-0.1,2.6-0.1v-9.3H472V705.6z M479.7,712.3c-2.3,0-3.9,0.3-5,1c-1.1,0.7-1.6,1.6-1.6,2.8
		s0.5,2.1,1.6,2.8s2.7,1,5,1c2.3,0,3.9-0.3,5-1s1.6-1.6,1.6-2.8s-0.5-2.1-1.6-2.8C483.7,712.7,482,712.3,479.7,712.3z M487.2,692.3
		c0.3,0,0.6,0.1,0.8,0.2s0.4,0.4,0.4,0.7v6.4h4.1c0.3,0,0.5,0.1,0.6,0.3c0.1,0.2,0.2,0.5,0.2,0.8c0,0.3-0.1,0.5-0.2,0.7
		s-0.3,0.3-0.6,0.3h-4.1v7.3c0,0.3-0.1,0.6-0.4,0.7s-0.5,0.2-0.8,0.2s-0.6-0.1-0.8-0.2c-0.2-0.1-0.4-0.4-0.4-0.7v-15.8
		c0-0.3,0.1-0.6,0.4-0.7C486.7,692.4,486.9,692.3,487.2,692.3z"/>
	<path class="st12" d="M501.3,703c0.3,0,0.6,0.1,0.8,0.2c0.2,0.1,0.4,0.4,0.4,0.7v8.4c1.5,0,3.1-0.1,4.7-0.2
		c1.6-0.1,3.2-0.2,4.9-0.4c0.2,0,0.4,0,0.6,0.2c0.2,0.2,0.3,0.4,0.3,0.7c0,0.3,0,0.5-0.1,0.8c-0.1,0.2-0.3,0.3-0.6,0.3
		c-2.8,0.2-5.6,0.4-8.4,0.5c-2.8,0.1-5.6,0.1-8.6,0.1c-0.3,0-0.5-0.1-0.6-0.3c-0.1-0.2-0.2-0.4-0.2-0.7c0-0.3,0.1-0.5,0.2-0.7
		c0.1-0.2,0.3-0.3,0.6-0.3h5V704c0-0.3,0.1-0.6,0.3-0.7S501,703,501.3,703z M510,695.2c0.3,0.3,0.5,0.9,0.5,1.7v1.6
		c0,1.8-0.1,3.3-0.2,4.8s-0.4,2.8-0.8,4.2c-0.1,0.3-0.2,0.4-0.5,0.6c-0.3,0.1-0.6,0.2-0.9,0.1c-0.3,0-0.5-0.2-0.7-0.4
		c-0.2-0.2-0.2-0.4-0.2-0.7c0.4-1.5,0.6-2.9,0.8-4.2c0.1-1.3,0.2-2.8,0.2-4.4v-1.1c0-0.4-0.2-0.6-0.6-0.6h-10.7
		c-0.3,0-0.5-0.1-0.6-0.3c-0.1-0.2-0.2-0.4-0.2-0.7s0.1-0.5,0.2-0.7c0.1-0.2,0.3-0.3,0.6-0.3h11.4
		C509.1,694.7,509.7,694.9,510,695.2z M516.1,692.3c0.3,0,0.6,0.1,0.8,0.2s0.4,0.4,0.4,0.7v9.9h3.6c0.3,0,0.5,0.1,0.6,0.3
		c0.1,0.2,0.2,0.4,0.2,0.7c0,0.3-0.1,0.5-0.2,0.8c-0.1,0.2-0.3,0.3-0.6,0.3h-3.6v13.5c0,0.3-0.1,0.6-0.4,0.7
		c-0.2,0.1-0.5,0.2-0.8,0.2c-0.3,0-0.6-0.1-0.8-0.2c-0.2-0.1-0.4-0.4-0.4-0.7v-25.5c0-0.3,0.1-0.6,0.4-0.7S515.8,692.3,516.1,692.3z
		"/>
	<path class="st12" d="M548.9,707.8c0.3,0,0.5,0,0.6,0.2s0.2,0.4,0.3,0.7c0,0.3,0,0.5-0.2,0.8c-0.1,0.2-0.3,0.3-0.5,0.3
		c-1.4,0.1-2.7,0.2-4,0.3s-2.7,0.1-4,0.2v8.2c0,0.3-0.1,0.6-0.4,0.7c-0.2,0.1-0.5,0.2-0.8,0.2s-0.6-0.1-0.8-0.2
		c-0.2-0.1-0.4-0.4-0.4-0.7v-8.1c-2.5,0.1-5,0.1-7.6,0.1c-0.3,0-0.5-0.1-0.6-0.3c-0.1-0.2-0.2-0.4-0.2-0.7c0-0.3,0.1-0.5,0.2-0.7
		c0.1-0.2,0.3-0.3,0.6-0.3c1.5,0,2.9,0,4.4,0c1.4,0,2.9,0,4.3-0.1c1.5-0.1,2.9-0.1,4.4-0.2S547.3,708,548.9,707.8z M539.8,693.5
		c1.2,0,2.3,0.1,3.2,0.4s1.7,0.7,2.3,1.2s1.1,1.2,1.4,1.9c0.3,0.7,0.5,1.5,0.5,2.4c0,0.8-0.2,1.6-0.5,2.3c-0.3,0.7-0.8,1.4-1.4,1.9
		c-0.6,0.5-1.4,1-2.3,1.3c-0.9,0.3-2,0.5-3.2,0.5s-2.3-0.2-3.2-0.5c-0.9-0.3-1.7-0.7-2.3-1.3c-0.6-0.5-1.1-1.2-1.4-1.9
		c-0.3-0.7-0.5-1.5-0.5-2.3c0-0.9,0.2-1.6,0.5-2.4c0.3-0.7,0.8-1.4,1.4-1.9s1.4-0.9,2.3-1.2C537.4,693.7,538.5,693.5,539.8,693.5z
		 M539.8,695.5c-0.9,0-1.7,0.1-2.3,0.3c-0.7,0.2-1.2,0.5-1.6,0.8c-0.4,0.4-0.7,0.8-0.9,1.3c-0.2,0.5-0.3,1-0.3,1.6
		c0,1.1,0.4,2,1.3,2.8c0.8,0.8,2.1,1.2,3.9,1.2s3.1-0.4,3.9-1.2c0.8-0.8,1.3-1.7,1.3-2.8c0-0.6-0.1-1.1-0.3-1.6
		c-0.2-0.5-0.5-0.9-0.9-1.3c-0.4-0.4-1-0.6-1.6-0.8C541.4,695.6,540.7,695.5,539.8,695.5z M553,692.3c0.3,0,0.6,0.1,0.8,0.2
		s0.4,0.4,0.4,0.7v25.5c0,0.3-0.1,0.6-0.4,0.7c-0.2,0.1-0.5,0.2-0.8,0.2s-0.6-0.1-0.8-0.2c-0.2-0.1-0.4-0.4-0.4-0.7v-25.5
		c0-0.3,0.1-0.6,0.4-0.7C552.5,692.4,552.7,692.3,553,692.3z"/>
	<path class="st12" d="M568.3,694.7c0.8,0,1.4,0.2,1.7,0.5c0.3,0.3,0.5,0.9,0.5,1.7v13.1c0,0.8-0.2,1.4-0.5,1.7
		c-0.3,0.3-0.9,0.5-1.7,0.5h-7c-0.8,0-1.4-0.2-1.7-0.5c-0.3-0.3-0.5-0.9-0.5-1.7v-13.1c0-0.8,0.2-1.4,0.5-1.7
		c0.3-0.3,0.9-0.5,1.7-0.5H568.3z M561.9,696.8c-0.4,0-0.6,0.2-0.6,0.6v12.2c0,0.4,0.2,0.6,0.6,0.6h5.8c0.4,0,0.6-0.2,0.6-0.6v-12.2
		c0-0.4-0.2-0.6-0.6-0.6H561.9z M576.1,692.7c0.3,0,0.5,0.1,0.8,0.2c0.2,0.1,0.3,0.4,0.3,0.7v23.9c0,0.3-0.1,0.6-0.3,0.7
		c-0.2,0.1-0.5,0.2-0.8,0.2c-0.3,0-0.6-0.1-0.8-0.2c-0.2-0.1-0.3-0.4-0.3-0.7v-13.1h-5.5v-2h5.5v-8.8c0-0.3,0.1-0.6,0.3-0.7
		C575.6,692.7,575.8,692.7,576.1,692.7z M581.8,692.3c0.3,0,0.6,0.1,0.8,0.2c0.2,0.1,0.3,0.4,0.3,0.7v25.5c0,0.3-0.1,0.6-0.3,0.7
		c-0.2,0.1-0.5,0.2-0.8,0.2c-0.3,0-0.5-0.1-0.8-0.2c-0.2-0.1-0.3-0.4-0.3-0.7v-25.5c0-0.3,0.1-0.6,0.3-0.7
		C581.2,692.4,581.5,692.3,581.8,692.3z"/>
	<path class="st12" d="M613,715c0.1,0.2,0.2,0.5,0.2,0.8c0,0.3-0.1,0.5-0.2,0.7c-0.1,0.2-0.3,0.3-0.6,0.3h-25
		c-0.3,0-0.5-0.1-0.6-0.3c-0.1-0.2-0.2-0.4-0.2-0.7c0-0.3,0.1-0.5,0.2-0.8c0.1-0.2,0.3-0.3,0.6-0.3h25
		C612.7,714.7,612.9,714.8,613,715z M609.5,694.5c0.3,0,0.4,0.1,0.6,0.3c0.1,0.2,0.2,0.4,0.2,0.7s-0.1,0.5-0.2,0.7
		c-0.1,0.2-0.3,0.3-0.6,0.3h-3.6v10h3.8c0.3,0,0.5,0.1,0.6,0.3c0.1,0.2,0.2,0.4,0.2,0.7s-0.1,0.5-0.2,0.7s-0.3,0.3-0.6,0.3h-19.5
		c-0.3,0-0.5-0.1-0.6-0.3s-0.2-0.4-0.2-0.7s0.1-0.5,0.2-0.7c0.1-0.2,0.3-0.3,0.6-0.3h3.8v-10h-3.6c-0.3,0-0.4-0.1-0.6-0.3
		c-0.1-0.2-0.2-0.4-0.2-0.7s0.1-0.5,0.2-0.7c0.1-0.2,0.3-0.3,0.6-0.3H609.5z M603.5,706.5v-10h-7.4v10H603.5z"/>
	<path class="st12" d="M635,693.9c0.8,0,1.4,0.2,1.7,0.5c0.3,0.3,0.5,0.9,0.5,1.7v8.4c0,0.8-0.2,1.4-0.5,1.7
		c-0.3,0.3-0.9,0.5-1.7,0.5h-8.9c-0.8,0-1.4-0.2-1.7-0.5c-0.3-0.3-0.5-0.9-0.5-1.7v-8.4c0-0.8,0.2-1.4,0.5-1.7
		c0.3-0.3,0.9-0.5,1.7-0.5H635z M626.8,695.9c-0.4,0-0.6,0.2-0.6,0.6v7.5c0,0.4,0.2,0.6,0.6,0.6h7.5c0.4,0,0.6-0.2,0.6-0.6v-7.5
		c0-0.4-0.2-0.6-0.6-0.6H626.8z M636.7,708.3c0.3,0,0.6,0.1,0.8,0.2c0.2,0.1,0.4,0.4,0.4,0.7v2.3h8c0.3,0,0.4,0.1,0.6,0.3
		s0.2,0.4,0.2,0.6c0,0.3-0.1,0.5-0.2,0.7c-0.1,0.2-0.3,0.3-0.6,0.3h-8v0.6c0,0.4,0,0.7,0.1,1.1c0.1,0.3,0.3,0.6,0.5,0.9
		c0.2,0.3,0.5,0.5,0.9,0.8c0.4,0.3,0.9,0.5,1.5,0.8c0.9,0.4,1.8,0.7,2.7,1c0.9,0.3,1.8,0.7,2.8,1c0.3,0.1,0.4,0.3,0.5,0.5
		c0.1,0.2,0.1,0.4,0,0.7c-0.1,0.2-0.2,0.4-0.4,0.6c-0.2,0.1-0.4,0.2-0.7,0c-0.9-0.3-1.8-0.6-2.7-0.9s-1.7-0.7-2.5-1
		c-1.2-0.4-2.1-0.9-2.7-1.4c-0.7-0.5-1.1-0.9-1.2-1.4h0c-0.3,1-1.7,1.9-3.9,2.8c-0.8,0.3-1.6,0.7-2.5,1s-1.7,0.6-2.7,0.9
		c-0.3,0.1-0.5,0.1-0.7,0c-0.2-0.1-0.3-0.3-0.4-0.6c-0.1-0.3-0.1-0.5,0-0.7c0.1-0.2,0.3-0.4,0.5-0.5c1-0.3,1.9-0.6,2.8-1
		c0.9-0.3,1.8-0.7,2.6-1c0.6-0.3,1.1-0.5,1.5-0.8c0.4-0.3,0.7-0.5,1-0.8c0.2-0.3,0.4-0.6,0.5-0.9c0.1-0.3,0.1-0.7,0.1-1.1v-0.6h-8.2
		c-0.3,0-0.4-0.1-0.6-0.3c-0.1-0.2-0.2-0.4-0.2-0.7c0-0.2,0.1-0.4,0.2-0.6s0.3-0.3,0.6-0.3h8.2v-2.3c0-0.3,0.1-0.6,0.4-0.7
		C636.1,708.4,636.4,708.3,636.7,708.3z M644.6,692.3c0.3,0,0.6,0.1,0.8,0.2s0.4,0.4,0.4,0.7v14.6c0,0.3-0.1,0.6-0.4,0.7
		s-0.5,0.2-0.8,0.2s-0.6-0.1-0.8-0.2c-0.2-0.1-0.4-0.4-0.4-0.7v-14.6c0-0.3,0.1-0.6,0.4-0.7C644.1,692.4,644.3,692.3,644.6,692.3z"
		/>
	<path class="st12" d="M666.6,708.5c0.3,0,0.6,0.1,0.8,0.2c0.2,0.1,0.3,0.4,0.3,0.7v5.4h6.4v-5.4c0-0.3,0.1-0.6,0.3-0.7
		s0.5-0.2,0.8-0.2s0.6,0.1,0.8,0.2c0.2,0.1,0.3,0.4,0.3,0.7v5.4h7.1c0.3,0,0.5,0.1,0.6,0.3c0.1,0.2,0.2,0.4,0.2,0.7
		s-0.1,0.5-0.2,0.7c-0.1,0.2-0.3,0.3-0.6,0.3h-25.1c-0.3,0-0.5-0.1-0.6-0.3c-0.1-0.2-0.2-0.4-0.2-0.7s0.1-0.5,0.2-0.7
		c0.1-0.2,0.3-0.3,0.6-0.3h7.1v-5.4c0-0.3,0.1-0.6,0.3-0.7C666,708.5,666.3,708.5,666.6,708.5z M670.9,693.6c0.3,0,0.6,0.1,0.8,0.2
		c0.2,0.2,0.4,0.4,0.4,0.8v1.8c0,0.8,0,1.4,0.1,2c0.1,0.6,0.3,1.1,0.5,1.6c0.2,0.5,0.6,0.9,1,1.3s1,0.8,1.6,1.2c1,0.6,2,1.2,3,1.9
		c1.1,0.6,2.2,1.3,3.4,1.9c0.2,0.1,0.4,0.3,0.4,0.6c0,0.3,0,0.5-0.2,0.8c-0.1,0.3-0.4,0.4-0.6,0.5s-0.5,0.1-0.7,0
		c-1-0.6-2-1.1-3.1-1.8c-1.1-0.6-2.1-1.2-3-1.8c-1.2-0.8-2-1.4-2.6-2s-0.8-1-1-1.5h0c-0.1,0.4-0.4,1-1,1.5c-0.5,0.6-1.4,1.2-2.6,2
		c-0.9,0.6-1.9,1.2-3,1.8c-1.1,0.6-2.1,1.2-3.1,1.8c-0.3,0.1-0.5,0.1-0.8,0s-0.5-0.3-0.6-0.5c-0.1-0.2-0.2-0.5-0.2-0.8
		s0.1-0.5,0.4-0.6c1.2-0.6,2.3-1.3,3.4-1.9c1.1-0.6,2.1-1.3,3-1.9c0.6-0.4,1.2-0.8,1.6-1.2c0.4-0.4,0.8-0.8,1-1.3
		c0.2-0.5,0.4-1,0.5-1.6c0.1-0.6,0.1-1.2,0.1-2v-1.8c0-0.3,0.1-0.6,0.4-0.8C670.3,693.6,670.6,693.6,670.9,693.6z"/>
	<path class="st12" d="M703.4,704.9c0.5-0.1,0.9,0.2,1,0.8c0,0.3,0,0.5-0.1,0.8c-0.1,0.2-0.3,0.4-0.6,0.4c-1.1,0.1-2.2,0.3-3.4,0.4
		c-1.2,0.1-2.4,0.2-3.8,0.2c-1.3,0.1-2.7,0.1-4.2,0.1c-1.5,0-3.1,0-4.8,0c-0.3,0-0.5-0.1-0.6-0.3c-0.1-0.2-0.2-0.4-0.2-0.7
		c0-0.3,0.1-0.5,0.2-0.7c0.1-0.2,0.3-0.3,0.6-0.3h2.8v-9.5h-2.5c-0.3,0-0.5-0.1-0.6-0.3s-0.2-0.4-0.2-0.7c0-0.3,0.1-0.5,0.2-0.7
		s0.3-0.3,0.6-0.3h14.9c0.3,0,0.5,0.1,0.6,0.3c0.1,0.2,0.2,0.4,0.2,0.7c0,0.3-0.1,0.5-0.2,0.7c-0.1,0.2-0.3,0.3-0.6,0.3h-2.4v9.2
		C701.3,705.2,702.4,705.1,703.4,704.9z M700.8,710.4c2.9,0,5.2,0.5,6.7,1.5c1.6,1,2.3,2.4,2.3,4.3s-0.8,3.3-2.3,4.3
		c-1.6,1-3.8,1.5-6.7,1.5s-5.2-0.5-6.7-1.5c-1.5-1-2.3-2.4-2.3-4.3s0.8-3.3,2.3-4.3S697.9,710.4,700.8,710.4z M692.5,705.7
		c1.9,0,3.7-0.1,5.5-0.2v-9.3h-5.5V705.7z M700.8,712.3c-2.3,0-4,0.3-5.1,1c-1.1,0.7-1.6,1.6-1.6,2.8s0.5,2.1,1.6,2.8s2.8,1,5.1,1
		c2.3,0,4-0.3,5.1-1s1.6-1.6,1.6-2.8s-0.5-2.1-1.6-2.8C704.8,712.7,703.1,712.3,700.8,712.3z M708.5,692.3c0.3,0,0.6,0.1,0.8,0.2
		c0.2,0.1,0.4,0.4,0.4,0.7v15.8c0,0.3-0.1,0.6-0.4,0.7c-0.2,0.1-0.5,0.2-0.8,0.2c-0.3,0-0.6-0.1-0.8-0.2s-0.4-0.4-0.4-0.7v-15.8
		c0-0.3,0.1-0.6,0.4-0.7S708.2,692.3,708.5,692.3z"/>
	<path class="st12" d="M728.7,705.6h11.4c0.3,0,0.4,0.1,0.6,0.3c0.1,0.2,0.2,0.4,0.2,0.7c0,0.3-0.1,0.5-0.2,0.7
		c-0.1,0.2-0.3,0.3-0.6,0.3H715c-0.3,0-0.4-0.1-0.6-0.3c-0.1-0.2-0.2-0.4-0.2-0.7c0-0.3,0.1-0.5,0.2-0.7c0.1-0.2,0.3-0.3,0.6-0.3
		h11.4v-4.3h2.3V705.6z M736.6,710.6c0.3,0.3,0.5,0.9,0.5,1.7v2.4c0,0.8-0.2,1.4-0.5,1.7c-0.3,0.3-0.9,0.5-1.7,0.5h-14
		c-0.3,0-0.5,0.2-0.5,0.5v2c0,0.3,0.2,0.5,0.5,0.5h16.3c0.3,0,0.4,0.1,0.6,0.3c0.1,0.2,0.2,0.4,0.2,0.6c0,0.3-0.1,0.5-0.2,0.7
		c-0.1,0.2-0.3,0.3-0.6,0.3h-16.9c-0.8,0-1.4-0.2-1.7-0.5c-0.3-0.3-0.5-0.9-0.5-1.7v-2.4c0-0.8,0.2-1.4,0.5-1.7
		c0.3-0.3,0.9-0.5,1.7-0.5h14c0.4,0,0.5-0.2,0.5-0.5v-2c0-0.3-0.2-0.5-0.5-0.5h-15.6c-0.3,0-0.4-0.1-0.6-0.3
		c-0.1-0.2-0.2-0.4-0.2-0.7c0-0.2,0.1-0.4,0.2-0.6c0.1-0.2,0.3-0.3,0.6-0.3h16.1C735.7,710.1,736.2,710.3,736.6,710.6z M734.8,693.1
		c0.8,0,1.4,0.2,1.7,0.5c0.3,0.3,0.5,0.9,0.5,1.7v4.9c0,0.8-0.2,1.4-0.5,1.7c-0.3,0.3-0.9,0.5-1.7,0.5h-14.5c-0.8,0-1.4-0.2-1.7-0.5
		c-0.3-0.3-0.5-0.9-0.5-1.7v-4.9c0-0.8,0.2-1.4,0.5-1.7c0.3-0.3,0.9-0.5,1.7-0.5H734.8z M721,695c-0.2,0-0.4,0-0.5,0.1
		c-0.1,0.1-0.1,0.2-0.1,0.5v4.2c0,0.2,0,0.4,0.1,0.5c0.1,0.1,0.2,0.1,0.5,0.1h13.1c0.2,0,0.4,0,0.5-0.1c0.1-0.1,0.1-0.2,0.1-0.5
		v-4.2c0-0.2,0-0.4-0.1-0.5c-0.1-0.1-0.2-0.1-0.5-0.1H721z"/>
	<path class="st12" d="M749.1,694.3c2.1,0,3.7,0.8,4.7,2.3c1,1.5,1.5,3.8,1.5,6.8s-0.5,5.3-1.5,6.8c-1,1.5-2.6,2.3-4.7,2.3
		c-2.1,0-3.7-0.8-4.7-2.3c-1-1.5-1.5-3.8-1.5-6.8s0.5-5.3,1.5-6.8C745.4,695.1,747,694.3,749.1,694.3z M749.1,696.4
		c-1.5,0-2.5,0.6-3.1,1.8s-0.9,2.9-0.9,5.2c0,2.3,0.3,4,0.9,5.2s1.6,1.8,3.1,1.8s2.5-0.6,3.1-1.8c0.6-1.2,0.9-2.9,0.9-5.2
		c0-2.3-0.3-4-0.9-5.2C751.6,697,750.6,696.4,749.1,696.4z M760.4,692.7c0.3,0,0.5,0.1,0.8,0.2s0.3,0.4,0.3,0.7v23.9
		c0,0.3-0.1,0.6-0.3,0.7s-0.5,0.2-0.8,0.2c-0.3,0-0.6-0.1-0.8-0.2c-0.2-0.1-0.3-0.4-0.3-0.7v-13.1h-5.5v-2h5.5v-8.8
		c0-0.3,0.1-0.6,0.3-0.7C759.9,692.7,760.1,692.7,760.4,692.7z M766.1,692.3c0.3,0,0.6,0.1,0.8,0.2s0.3,0.4,0.3,0.7v25.5
		c0,0.3-0.1,0.6-0.3,0.7c-0.2,0.1-0.5,0.2-0.8,0.2c-0.3,0-0.5-0.1-0.8-0.2c-0.2-0.1-0.3-0.4-0.3-0.7v-25.5c0-0.3,0.1-0.6,0.3-0.7
		C765.5,692.4,765.8,692.3,766.1,692.3z"/>
	<path class="st12" d="M452.5,738.8c0.1,0.2,0.2,0.4,0.2,0.7c0,0.3-0.1,0.5-0.2,0.7c-0.1,0.2-0.3,0.3-0.6,0.3H442
		c-0.4,0-0.6,0.2-0.6,0.6v12.5c0,0.4,0.2,0.6,0.6,0.6c2.4,0,4.5-0.1,6.5-0.2c2-0.1,3.9-0.3,5.8-0.6c0.3,0,0.5,0,0.6,0.2
		c0.2,0.2,0.3,0.4,0.3,0.7c0,0.3,0,0.6-0.1,0.8c-0.1,0.2-0.3,0.4-0.6,0.4c-0.8,0.1-1.7,0.2-2.6,0.3c-0.9,0.1-1.9,0.2-3,0.2
		c-1.1,0.1-2.3,0.1-3.5,0.1c-1.3,0-2.7,0-4.2,0c-0.8,0-1.4-0.2-1.7-0.5c-0.3-0.3-0.5-0.9-0.5-1.7v-13.5c0-0.8,0.2-1.4,0.5-1.7
		s0.9-0.5,1.7-0.5h10.6C452.2,738.5,452.4,738.6,452.5,738.8z M458.9,736.3c0.3,0,0.6,0.1,0.8,0.2s0.4,0.4,0.4,0.7v8.9h4.1
		c0.3,0,0.5,0.1,0.6,0.3c0.1,0.2,0.2,0.4,0.2,0.7c0,0.3-0.1,0.5-0.2,0.8c-0.1,0.2-0.3,0.3-0.6,0.3h-4.1v14.5c0,0.3-0.1,0.6-0.4,0.7
		c-0.2,0.1-0.5,0.2-0.8,0.2s-0.6-0.1-0.8-0.2c-0.2-0.1-0.4-0.4-0.4-0.7v-25.5c0-0.3,0.1-0.6,0.4-0.7
		C458.3,736.4,458.6,736.3,458.9,736.3z"/>
	<path class="st12" d="M469.3,738.3c0.3,0,0.6,0.1,0.8,0.2s0.4,0.4,0.4,0.7v14.4c0,0.4,0.2,0.6,0.6,0.6c2.5,0,4.7-0.1,6.7-0.2
		c2-0.1,4-0.3,5.9-0.6c0.3,0,0.5,0,0.6,0.2s0.3,0.4,0.3,0.7c0,0.3,0,0.6-0.1,0.8s-0.3,0.4-0.6,0.4c-0.8,0.1-1.7,0.2-2.6,0.3
		c-0.9,0.1-1.9,0.2-3,0.2c-1.1,0.1-2.3,0.1-3.6,0.1c-1.3,0-2.7,0-4.3,0c-0.8,0-1.4-0.2-1.7-0.5c-0.3-0.3-0.5-0.9-0.5-1.7v-14.9
		c0-0.3,0.1-0.6,0.4-0.7C468.7,738.3,469,738.3,469.3,738.3z M488.6,736.3c0.3,0,0.6,0.1,0.8,0.2s0.4,0.4,0.4,0.7v25.5
		c0,0.3-0.1,0.6-0.4,0.7c-0.2,0.1-0.5,0.2-0.8,0.2s-0.6-0.1-0.8-0.2c-0.2-0.1-0.4-0.4-0.4-0.7v-25.5c0-0.3,0.1-0.6,0.4-0.7
		C488,736.4,488.3,736.3,488.6,736.3z"/>
	<path class="st12" d="M506.7,738.2c0.8,0,1.4,0.2,1.7,0.5c0.3,0.3,0.5,0.9,0.5,1.7v9.4c0,0.8-0.2,1.4-0.5,1.7
		c-0.3,0.3-0.9,0.5-1.7,0.5h-8.5c-0.8,0-1.4-0.2-1.7-0.5c-0.3-0.3-0.5-0.9-0.5-1.7v-9.4c0-0.8,0.2-1.4,0.5-1.7
		c0.3-0.3,0.9-0.5,1.7-0.5H506.7z M498.9,740.2c-0.2,0-0.4,0-0.5,0.1c-0.1,0.1-0.1,0.2-0.1,0.5v8.5c0,0.4,0.2,0.6,0.6,0.6h7.1
		c0.4,0,0.6-0.2,0.6-0.6v-8.5c0-0.2,0-0.4-0.1-0.5c-0.1-0.1-0.3-0.1-0.5-0.1H498.9z M501.2,755.3c0.3,0,0.6,0.1,0.8,0.2
		c0.2,0.1,0.4,0.4,0.4,0.7v6.3c0,0.4,0.2,0.6,0.6,0.6h15.3c0.3,0,0.5,0.1,0.6,0.3c0.1,0.2,0.2,0.4,0.2,0.7s-0.1,0.5-0.2,0.7
		c-0.1,0.2-0.3,0.3-0.6,0.3h-16.1c-0.8,0-1.4-0.2-1.7-0.5c-0.3-0.3-0.5-0.9-0.5-1.7v-6.8c0-0.3,0.1-0.6,0.4-0.7
		C500.6,755.4,500.9,755.3,501.2,755.3z M517.1,736.3c0.3,0,0.6,0.1,0.8,0.2s0.4,0.4,0.4,0.7v19.5c0,0.3-0.1,0.6-0.4,0.7
		s-0.5,0.2-0.8,0.2c-0.3,0-0.6-0.1-0.8-0.2c-0.2-0.1-0.4-0.4-0.4-0.7v-7.5h-4.6c-0.3,0-0.5-0.1-0.6-0.3c-0.1-0.2-0.2-0.4-0.2-0.7
		c0-0.3,0.1-0.5,0.2-0.7c0.1-0.2,0.3-0.3,0.6-0.3h4.6V743h-4.6c-0.3,0-0.5-0.1-0.6-0.3c-0.1-0.2-0.2-0.4-0.2-0.7s0.1-0.5,0.2-0.7
		c0.1-0.2,0.3-0.3,0.6-0.3h4.6v-3.7c0-0.3,0.1-0.6,0.4-0.7C516.6,736.4,516.8,736.3,517.1,736.3z"/>
	<path class="st12" d="M531.8,737.8c0.3,0,0.6,0.1,0.8,0.2s0.4,0.4,0.4,0.8v5.3c0,0.7,0,1.3,0.1,1.9c0.1,0.6,0.2,1.1,0.4,1.6
		c0.2,0.5,0.5,1,0.8,1.4c0.3,0.5,0.8,1,1.3,1.5c0.7,0.7,1.4,1.5,2.1,2.1c0.7,0.7,1.3,1.3,1.9,1.8c0.2,0.2,0.3,0.4,0.3,0.7
		s-0.1,0.5-0.3,0.8c-0.2,0.2-0.4,0.3-0.7,0.3c-0.3,0.1-0.5,0-0.8-0.3c-0.6-0.5-1.1-1-1.7-1.6c-0.6-0.6-1.2-1.2-2-1.9
		c-0.5-0.5-0.9-1-1.2-1.4c-0.3-0.4-0.6-0.7-0.8-1s-0.3-0.5-0.4-0.7c-0.1-0.2-0.2-0.4-0.2-0.6h0c0,0.2-0.1,0.4-0.2,0.6
		c-0.1,0.2-0.2,0.4-0.4,0.7c-0.2,0.3-0.4,0.6-0.8,1c-0.3,0.4-0.7,0.8-1.2,1.4c-0.7,0.7-1.4,1.4-2,2c-0.6,0.6-1.3,1.3-2,1.9
		c-0.3,0.2-0.5,0.3-0.8,0.3s-0.5-0.2-0.7-0.4c-0.2-0.2-0.3-0.5-0.3-0.8s0.1-0.5,0.3-0.7c0.8-0.7,1.5-1.4,2.2-2.1
		c0.7-0.7,1.4-1.4,2.1-2.2c0.5-0.5,0.9-1,1.3-1.5c0.3-0.5,0.6-0.9,0.8-1.4c0.2-0.5,0.4-1,0.4-1.6c0.1-0.6,0.1-1.2,0.1-1.9v-5.3
		c0-0.4,0.1-0.6,0.4-0.8C531.2,737.9,531.4,737.8,531.8,737.8z M545.5,736.3c0.3,0,0.6,0.1,0.8,0.2c0.2,0.1,0.4,0.4,0.4,0.7v25.5
		c0,0.3-0.1,0.6-0.4,0.7c-0.2,0.1-0.5,0.2-0.8,0.2s-0.6-0.1-0.8-0.2c-0.2-0.1-0.4-0.4-0.4-0.7v-15.6h-5.7c-0.3,0-0.5-0.1-0.6-0.3
		c-0.1-0.2-0.2-0.4-0.2-0.7c0-0.3,0.1-0.5,0.2-0.7c0.1-0.2,0.3-0.3,0.6-0.3h5.7v-7.9c0-0.3,0.1-0.6,0.4-0.7
		C544.9,736.4,545.2,736.3,545.5,736.3z"/>
	<path class="st12" d="M570.5,738.2c0.8,0,1.4,0.2,1.7,0.5c0.3,0.3,0.5,0.9,0.5,1.7v9.4c0,0.8-0.2,1.4-0.5,1.7
		c-0.3,0.3-0.9,0.5-1.7,0.5h-8.8c-0.8,0-1.4-0.2-1.7-0.5c-0.3-0.3-0.5-0.9-0.5-1.7v-9.4c0-0.8,0.2-1.4,0.5-1.7
		c0.3-0.3,0.9-0.5,1.7-0.5H570.5z M562.3,740.2c-0.2,0-0.4,0-0.5,0.1c-0.1,0.1-0.1,0.2-0.1,0.5v8.5c0,0.4,0.2,0.6,0.6,0.6h7.4
		c0.4,0,0.6-0.2,0.6-0.6v-8.5c0-0.2,0-0.4-0.1-0.5c-0.1-0.1-0.2-0.1-0.5-0.1H562.3z M563.9,755.3c0.3,0,0.6,0.1,0.8,0.2
		s0.4,0.4,0.4,0.7v6.3c0,0.4,0.2,0.6,0.6,0.6h14.8c0.3,0,0.5,0.1,0.6,0.3c0.1,0.2,0.2,0.4,0.2,0.7s-0.1,0.5-0.2,0.7
		c-0.1,0.2-0.3,0.3-0.6,0.3H565c-0.8,0-1.4-0.2-1.7-0.5c-0.3-0.3-0.5-0.9-0.5-1.7v-6.8c0-0.3,0.1-0.6,0.4-0.7
		S563.6,755.3,563.9,755.3z M579.4,736.3c0.3,0,0.6,0.1,0.8,0.2s0.4,0.4,0.4,0.7v7.4h4.1c0.3,0,0.5,0.1,0.6,0.3
		c0.1,0.2,0.2,0.5,0.2,0.8c0,0.3-0.1,0.5-0.2,0.7c-0.1,0.2-0.3,0.3-0.6,0.3h-4.1v10c0,0.3-0.1,0.6-0.4,0.7s-0.5,0.2-0.8,0.2
		s-0.6-0.1-0.8-0.2c-0.2-0.1-0.4-0.4-0.4-0.7v-19.5c0-0.3,0.1-0.6,0.4-0.7C578.8,736.4,579.1,736.3,579.4,736.3z"/>
	<path class="st12" d="M613,749.4c0.1,0.2,0.2,0.4,0.2,0.7s-0.1,0.5-0.2,0.7c-0.1,0.2-0.3,0.3-0.6,0.3h-25.1c-0.3,0-0.5-0.1-0.6-0.3
		c-0.1-0.2-0.2-0.4-0.2-0.7s0.1-0.5,0.2-0.7c0.1-0.2,0.3-0.3,0.6-0.3h25.1C612.7,749.1,612.9,749.2,613,749.4z M608.9,754.6
		c0.3,0.3,0.5,0.9,0.5,1.7v2.4c0,0.8-0.2,1.4-0.5,1.7c-0.3,0.3-0.9,0.5-1.7,0.5h-14c-0.3,0-0.5,0.2-0.5,0.5v2c0,0.3,0.2,0.5,0.5,0.5
		h16.3c0.3,0,0.4,0.1,0.6,0.3c0.1,0.2,0.2,0.4,0.2,0.6c0,0.3-0.1,0.5-0.2,0.7c-0.1,0.2-0.3,0.3-0.6,0.3h-16.9
		c-0.8,0-1.4-0.2-1.7-0.5c-0.3-0.3-0.5-0.9-0.5-1.7v-2.4c0-0.8,0.2-1.4,0.5-1.7s0.9-0.5,1.7-0.5h14c0.4,0,0.5-0.2,0.5-0.5v-2
		c0-0.3-0.2-0.5-0.5-0.5H591c-0.3,0-0.4-0.1-0.6-0.3c-0.1-0.2-0.2-0.4-0.2-0.7c0-0.2,0.1-0.4,0.2-0.6c0.1-0.2,0.3-0.3,0.6-0.3h16.1
		C608,754.1,608.6,754.3,608.9,754.6z M609.1,737.3c0.1,0.2,0.2,0.4,0.2,0.7c0,0.3-0.1,0.5-0.2,0.7c-0.1,0.2-0.3,0.3-0.6,0.3h-15.1
		c-0.2,0-0.4,0-0.5,0.1c-0.1,0.1-0.1,0.2-0.1,0.5v4.1c0,0.2,0,0.4,0.1,0.5c0.1,0.1,0.2,0.1,0.5,0.1h15.5c0.3,0,0.5,0.1,0.6,0.3
		c0.1,0.2,0.2,0.4,0.2,0.7s-0.1,0.5-0.2,0.7c-0.1,0.2-0.3,0.3-0.6,0.3h-16.2c-0.8,0-1.4-0.2-1.7-0.5c-0.3-0.3-0.5-0.9-0.5-1.7v-4.8
		c0-0.8,0.2-1.4,0.5-1.7c0.3-0.3,0.9-0.5,1.7-0.5h15.9C608.7,737.1,609,737.2,609.1,737.3z"/>
	<path class="st12" d="M623.1,737.6c1.2,0,2.3,0.2,3.2,0.5c0.9,0.4,1.6,0.8,2.2,1.4s1,1.3,1.3,2.1c0.3,0.8,0.4,1.7,0.4,2.7
		c0,0.9-0.1,1.8-0.4,2.6s-0.7,1.5-1.3,2.1c-0.6,0.6-1.3,1.1-2.2,1.4c-0.9,0.4-1.9,0.5-3.2,0.5s-2.3-0.2-3.2-0.5
		c-0.9-0.4-1.6-0.8-2.2-1.4c-0.6-0.6-1-1.3-1.3-2.1c-0.3-0.8-0.4-1.7-0.4-2.6c0-1,0.1-1.9,0.4-2.7c0.3-0.8,0.7-1.5,1.3-2.1
		s1.3-1.1,2.2-1.4C620.8,737.7,621.8,737.6,623.1,737.6z M624.4,753.8c0.3,0,0.6,0.1,0.8,0.2c0.2,0.1,0.3,0.4,0.3,0.7v1.7
		c0,0.5,0,1,0.1,1.4c0.1,0.4,0.1,0.7,0.3,1.1c0.1,0.3,0.3,0.7,0.6,1c0.2,0.3,0.5,0.7,0.9,1.1c0.3,0.3,0.6,0.6,0.9,0.9
		c0.3,0.3,0.6,0.6,0.9,0.9c0.3,0.3,0.7,0.3,1,0c0.3-0.3,0.6-0.5,0.9-0.9s0.6-0.6,0.9-0.9c0.4-0.4,0.7-0.8,0.9-1.1
		c0.2-0.3,0.4-0.7,0.5-1c0.1-0.3,0.2-0.7,0.3-1.1c0.1-0.4,0.1-0.8,0.1-1.4v-1.7c0-0.3,0.1-0.6,0.4-0.7c0.2-0.1,0.5-0.2,0.8-0.2
		s0.6,0.1,0.8,0.2c0.2,0.1,0.4,0.4,0.4,0.7v1.7c0,0.5,0,1,0.1,1.4c0.1,0.4,0.2,0.8,0.3,1.1c0.2,0.3,0.4,0.7,0.7,1
		c0.3,0.3,0.6,0.7,1.1,1.1c0.4,0.4,0.9,0.8,1.4,1.2c0.6,0.4,1.1,0.9,1.7,1.3c0.2,0.2,0.3,0.4,0.3,0.6c0,0.3-0.1,0.5-0.3,0.7
		c-0.2,0.2-0.4,0.4-0.7,0.4s-0.5,0-0.8-0.2c-0.6-0.4-1.1-0.8-1.5-1.2c-0.5-0.4-0.9-0.7-1.2-1.1c-0.7-0.6-1.3-1.2-1.6-1.6
		c-0.3-0.4-0.5-0.8-0.6-1.1h0c0,0.2-0.1,0.3-0.2,0.5s-0.2,0.4-0.4,0.6c-0.2,0.2-0.4,0.4-0.6,0.7s-0.5,0.6-0.9,1
		c-0.6,0.6-1.1,1.1-1.6,1.6c-0.6,0.5-1,0.7-1.4,0.7c-0.4,0-0.9-0.2-1.4-0.7c-0.3-0.3-0.5-0.5-0.8-0.8s-0.5-0.5-0.8-0.8
		c-0.4-0.4-0.7-0.7-0.9-1s-0.4-0.5-0.6-0.7c-0.2-0.2-0.3-0.4-0.4-0.6c-0.1-0.2-0.1-0.3-0.2-0.5h0c-0.1,0.3-0.3,0.7-0.7,1.1
		c-0.3,0.4-0.9,0.9-1.6,1.6c-0.4,0.3-0.8,0.6-1.2,1c-0.5,0.4-1,0.8-1.5,1.2c-0.2,0.2-0.5,0.2-0.8,0.2s-0.5-0.2-0.7-0.4
		c-0.2-0.2-0.3-0.5-0.3-0.7c0-0.3,0.1-0.5,0.3-0.6c0.6-0.4,1.2-0.9,1.7-1.3c0.5-0.4,1-0.9,1.5-1.2c0.4-0.4,0.8-0.7,1.1-1.1
		c0.3-0.3,0.5-0.7,0.7-1c0.2-0.3,0.3-0.7,0.3-1.1c0.1-0.4,0.1-0.9,0.1-1.4v-1.7c0-0.3,0.1-0.6,0.4-0.7
		C623.9,753.9,624.1,753.8,624.4,753.8z M623.1,739.5c-0.9,0-1.6,0.1-2.2,0.4c-0.6,0.3-1.1,0.6-1.5,1c-0.4,0.4-0.7,0.9-0.8,1.5
		c-0.2,0.6-0.3,1.2-0.3,1.8c0,0.6,0.1,1.2,0.3,1.8c0.2,0.6,0.5,1.1,0.8,1.5c0.4,0.4,0.9,0.8,1.5,1c0.6,0.3,1.4,0.4,2.2,0.4
		s1.6-0.1,2.2-0.4c0.6-0.3,1.1-0.6,1.5-1s0.7-0.9,0.8-1.5c0.2-0.6,0.3-1.2,0.3-1.8c0-0.6-0.1-1.3-0.3-1.8c-0.2-0.6-0.5-1.1-0.8-1.5
		s-0.9-0.8-1.5-1C624.7,739.7,623.9,739.5,623.1,739.5z M637.6,736.3c0.3,0,0.6,0.1,0.8,0.2c0.2,0.1,0.4,0.4,0.4,0.7v14.6
		c0,0.3-0.1,0.6-0.4,0.7c-0.2,0.1-0.5,0.2-0.8,0.2c-0.3,0-0.6-0.1-0.8-0.2c-0.2-0.1-0.4-0.4-0.4-0.7v-6.5h-8v-2h8v-6
		c0-0.3,0.1-0.6,0.4-0.7C637.1,736.4,637.3,736.3,637.6,736.3z"/>
	<path class="st12" d="M658.2,738.5c0.1,0.2,0.2,0.4,0.2,0.7c0,0.3-0.1,0.5-0.2,0.7c-0.1,0.2-0.3,0.3-0.6,0.3h-9.6
		c-0.4,0-0.6,0.2-0.6,0.6v9.3c0,0.4,0.2,0.6,0.6,0.6c2.4,0,4.5-0.1,6.5-0.2s3.9-0.3,5.8-0.6c0.3,0,0.5,0,0.6,0.2s0.3,0.4,0.3,0.7
		c0,0.3,0,0.6-0.1,0.8c-0.1,0.2-0.3,0.4-0.6,0.4c-0.8,0.1-1.7,0.2-2.6,0.3c-0.9,0.1-1.9,0.2-3,0.2c-1.1,0.1-2.3,0.1-3.5,0.1
		c-1.3,0-2.7,0-4.2,0c-0.8,0-1.4-0.2-1.7-0.5s-0.5-0.9-0.5-1.7v-10.2c0-0.8,0.2-1.4,0.5-1.7c0.3-0.3,0.9-0.5,1.7-0.5h10.4
		C657.8,738.2,658,738.3,658.2,738.5z M650,755.5c0.3,0,0.6,0.1,0.8,0.2c0.2,0.1,0.4,0.4,0.4,0.7v6.1c0,0.4,0.2,0.6,0.6,0.6h15.3
		c0.3,0,0.5,0.1,0.6,0.3c0.1,0.2,0.2,0.4,0.2,0.7s-0.1,0.5-0.2,0.7c-0.1,0.2-0.3,0.3-0.6,0.3H651c-0.8,0-1.4-0.2-1.7-0.5
		c-0.3-0.3-0.5-0.9-0.5-1.7v-6.6c0-0.3,0.1-0.6,0.4-0.7C649.4,755.6,649.7,755.5,650,755.5z M665.9,736.3c0.3,0,0.6,0.1,0.8,0.2
		c0.2,0.1,0.4,0.4,0.4,0.7v19.5c0,0.3-0.1,0.6-0.4,0.7c-0.2,0.1-0.5,0.2-0.8,0.2s-0.6-0.1-0.8-0.2c-0.2-0.1-0.4-0.4-0.4-0.7v-10.8
		h-7.3c-0.3,0-0.5-0.1-0.6-0.3c-0.1-0.2-0.2-0.4-0.2-0.7c0-0.3,0.1-0.5,0.2-0.7c0.1-0.2,0.3-0.3,0.6-0.3h7.3v-6.8
		c0-0.3,0.1-0.6,0.4-0.7C665.4,736.4,665.6,736.3,665.9,736.3z"/>
	<path class="st12" d="M687.3,738c2.4,0,4.2,0.8,5.4,2.4c1.2,1.6,1.8,3.9,1.8,7c0,3.1-0.6,5.4-1.8,7c-1.2,1.6-3,2.4-5.4,2.4
		s-4.2-0.8-5.5-2.4c-1.2-1.6-1.8-3.9-1.8-7c0-3,0.6-5.4,1.8-7C683,738.8,684.8,738,687.3,738z M687.3,740.1c-1.7,0-3,0.6-3.8,1.9
		c-0.8,1.3-1.2,3.1-1.2,5.4c0,2.3,0.4,4.1,1.2,5.4c0.8,1.3,2.1,1.9,3.8,1.9s3-0.6,3.8-1.9c0.8-1.3,1.2-3.1,1.2-5.4
		c0-2.3-0.4-4.1-1.2-5.4C690.3,740.8,689,740.1,687.3,740.1z M701.2,736.3c0.3,0,0.6,0.1,0.8,0.2s0.4,0.4,0.4,0.7v25.5
		c0,0.3-0.1,0.6-0.4,0.7c-0.2,0.1-0.5,0.2-0.8,0.2s-0.6-0.1-0.8-0.2c-0.2-0.1-0.4-0.4-0.4-0.7v-25.5c0-0.3,0.1-0.6,0.4-0.7
		C700.7,736.4,700.9,736.3,701.2,736.3z"/>
	<path class="st12" d="M709,738.2c0.3,0,0.6,0.1,0.8,0.2c0.2,0.1,0.3,0.4,0.3,0.7v4.5h7v-4.5c0-0.3,0.1-0.5,0.3-0.7
		c0.2-0.1,0.5-0.2,0.8-0.2c0.3,0,0.6,0.1,0.8,0.2c0.2,0.1,0.3,0.4,0.3,0.7v11.3c0,0.8-0.2,1.4-0.5,1.7c-0.3,0.3-0.9,0.5-1.7,0.5h-7
		c-0.8,0-1.4-0.2-1.7-0.5c-0.3-0.3-0.5-0.9-0.5-1.7v-11.3c0-0.3,0.1-0.5,0.3-0.7C708.5,738.2,708.7,738.2,709,738.2z M710.1,749.9
		c0,0.4,0.2,0.6,0.6,0.6h5.8c0.4,0,0.6-0.2,0.6-0.6v-4.4h-7V749.9z M713.9,755.5c0.3,0,0.6,0.1,0.8,0.2c0.2,0.1,0.4,0.4,0.4,0.7v6.1
		c0,0.4,0.2,0.6,0.6,0.6h16c0.3,0,0.5,0.1,0.6,0.3c0.1,0.2,0.2,0.4,0.2,0.7s-0.1,0.5-0.2,0.7c-0.1,0.2-0.3,0.3-0.6,0.3h-16.7
		c-0.8,0-1.4-0.2-1.7-0.5c-0.3-0.3-0.5-0.9-0.5-1.7v-6.6c0-0.3,0.1-0.6,0.4-0.7C713.3,755.6,713.6,755.5,713.9,755.5z M724.9,736.5
		c0.3,0,0.6,0.1,0.8,0.2s0.3,0.4,0.3,0.7v18.1c0,0.3-0.1,0.6-0.3,0.7c-0.2,0.1-0.5,0.2-0.8,0.2c-0.3,0-0.5-0.1-0.8-0.2
		c-0.2-0.1-0.3-0.4-0.3-0.7v-9.2h-5.5v-2h5.5v-6.9c0-0.3,0.1-0.6,0.3-0.7C724.4,736.6,724.6,736.5,724.9,736.5z M730.5,736.3
		c0.3,0,0.6,0.1,0.8,0.2s0.3,0.4,0.3,0.7v19.6c0,0.3-0.1,0.5-0.3,0.7s-0.5,0.2-0.8,0.2c-0.3,0-0.5-0.1-0.8-0.2
		c-0.2-0.1-0.3-0.4-0.3-0.7v-19.6c0-0.3,0.1-0.6,0.3-0.7C730,736.4,730.3,736.3,730.5,736.3z"/>
	<path class="st12" d="M761.8,759c0.1,0.2,0.2,0.5,0.2,0.8c0,0.3-0.1,0.5-0.2,0.7c-0.1,0.2-0.3,0.3-0.6,0.3h-25
		c-0.3,0-0.5-0.1-0.6-0.3c-0.1-0.2-0.2-0.4-0.2-0.7c0-0.3,0.1-0.5,0.2-0.8c0.1-0.2,0.3-0.3,0.6-0.3h25
		C761.5,758.7,761.7,758.8,761.8,759z M757.9,738.5c0.1,0.2,0.2,0.4,0.2,0.7s-0.1,0.5-0.2,0.7c-0.1,0.2-0.3,0.3-0.6,0.3H742
		c-0.4,0-0.6,0.2-0.6,0.6v4H757c0.3,0,0.5,0.1,0.6,0.3c0.1,0.2,0.2,0.4,0.2,0.7c0,0.3-0.1,0.5-0.2,0.7c-0.1,0.2-0.3,0.3-0.6,0.3
		h-15.6v4c0,0.4,0.2,0.6,0.6,0.6h15.9c0.3,0,0.5,0.1,0.6,0.3c0.1,0.2,0.2,0.4,0.2,0.7s-0.1,0.5-0.2,0.7c-0.1,0.2-0.3,0.3-0.6,0.3
		h-16.6c-0.8,0-1.4-0.2-1.7-0.5c-0.3-0.3-0.5-0.9-0.5-1.7v-10.8c0-0.8,0.2-1.4,0.5-1.7c0.3-0.3,0.9-0.5,1.7-0.5h16
		C757.6,738.2,757.8,738.3,757.9,738.5z"/>
	<path class="st12" d="M784.3,738.9c0.3,0,0.5,0.1,0.6,0.3c0.1,0.2,0.2,0.4,0.2,0.7c0,0.3-0.1,0.5-0.2,0.7c-0.1,0.2-0.3,0.3-0.6,0.3
		h-2v13.2c0.9-0.1,1.7-0.2,2.5-0.3c0.2,0,0.4,0,0.6,0.2c0.2,0.2,0.3,0.4,0.3,0.7c0,0.3,0,0.6-0.1,0.8c-0.1,0.2-0.3,0.3-0.5,0.4
		c-0.9,0.1-1.8,0.2-2.8,0.3c-1,0.1-2,0.1-3.1,0.2c-1.1,0-2.2,0.1-3.5,0.1s-2.6,0-4.1,0c-0.3,0-0.5-0.1-0.6-0.3
		c-0.1-0.2-0.2-0.4-0.2-0.7c0-0.3,0.1-0.5,0.2-0.7c0.1-0.2,0.3-0.3,0.6-0.3h2.1v-13.5h-1.9c-0.3,0-0.5-0.1-0.6-0.3
		c-0.1-0.2-0.2-0.4-0.2-0.7c0-0.3,0.1-0.5,0.2-0.7c0.1-0.2,0.3-0.3,0.6-0.3H784.3z M775.9,754.4c0.7,0,1.5,0,2.2-0.1
		c0.7,0,1.4-0.1,2.1-0.1v-13.3h-4.3V754.4z M789,736.6c0.3,0,0.5,0.1,0.8,0.2c0.2,0.1,0.3,0.4,0.3,0.7v24c0,0.3-0.1,0.6-0.3,0.7
		c-0.2,0.1-0.5,0.2-0.8,0.2s-0.5-0.1-0.8-0.2s-0.3-0.4-0.3-0.7v-13.2H785c-0.3,0-0.5-0.1-0.6-0.3c-0.1-0.2-0.2-0.4-0.2-0.7
		c0-0.3,0.1-0.5,0.2-0.7c0.1-0.2,0.3-0.3,0.6-0.3h2.9v-8.7c0-0.3,0.1-0.6,0.3-0.7C788.5,736.6,788.7,736.6,789,736.6z M794.4,736.3
		c0.3,0,0.6,0.1,0.8,0.2s0.3,0.4,0.3,0.7v25.5c0,0.3-0.1,0.6-0.3,0.7c-0.2,0.1-0.5,0.2-0.8,0.2c-0.3,0-0.5-0.1-0.8-0.2
		c-0.2-0.1-0.3-0.4-0.3-0.7v-25.5c0-0.3,0.1-0.6,0.3-0.7C793.9,736.4,794.1,736.3,794.4,736.3z"/>
	<path class="st12" d="M807.7,738c2.4,0,4.2,0.8,5.4,2.4c1.2,1.6,1.8,3.9,1.8,7c0,3.1-0.6,5.4-1.8,7c-1.2,1.6-3,2.4-5.4,2.4
		s-4.2-0.8-5.5-2.4c-1.2-1.6-1.8-3.9-1.8-7c0-3,0.6-5.4,1.8-7C803.5,738.8,805.3,738,807.7,738z M807.7,740.1c-1.7,0-3,0.6-3.8,1.9
		c-0.8,1.3-1.2,3.1-1.2,5.4c0,2.3,0.4,4.1,1.2,5.4c0.8,1.3,2.1,1.9,3.8,1.9s3-0.6,3.8-1.9c0.8-1.3,1.2-3.1,1.2-5.4
		c0-2.3-0.4-4.1-1.2-5.4C810.8,740.8,809.5,740.1,807.7,740.1z M821.7,736.3c0.3,0,0.6,0.1,0.8,0.2s0.4,0.4,0.4,0.7v25.5
		c0,0.3-0.1,0.6-0.4,0.7c-0.2,0.1-0.5,0.2-0.8,0.2s-0.6-0.1-0.8-0.2c-0.2-0.1-0.4-0.4-0.4-0.7v-25.5c0-0.3,0.1-0.6,0.4-0.7
		C821.2,736.4,821.4,736.3,821.7,736.3z"/>
	<path class="st12" d="M844.7,738.9c0.1,0.2,0.2,0.4,0.2,0.7c0,0.3-0.1,0.5-0.2,0.7c-0.1,0.2-0.3,0.3-0.6,0.3h-6v3.7
		c0,0.7,0,1.3,0.1,1.9c0.1,0.6,0.2,1.1,0.4,1.6c0.2,0.5,0.5,1,0.8,1.4c0.3,0.5,0.8,1,1.3,1.5c0.7,0.7,1.4,1.4,2.1,2.1
		c0.7,0.7,1.3,1.3,1.9,1.7c0.2,0.2,0.3,0.5,0.3,0.8s-0.1,0.5-0.3,0.7c-0.2,0.2-0.5,0.3-0.7,0.4s-0.5,0-0.8-0.3
		c-0.5-0.4-1.1-1-1.7-1.6c-0.6-0.6-1.3-1.3-2-2c-0.5-0.5-0.9-0.9-1.2-1.3c-0.3-0.4-0.6-0.7-0.8-1c-0.2-0.3-0.3-0.5-0.4-0.7
		c-0.1-0.2-0.1-0.4-0.2-0.6h0c0,0.2-0.1,0.4-0.2,0.6c-0.1,0.2-0.2,0.4-0.4,0.7c-0.2,0.3-0.4,0.6-0.8,1c-0.3,0.4-0.7,0.8-1.2,1.3
		c-0.7,0.7-1.4,1.4-2.1,2c-0.7,0.6-1.4,1.3-2.1,1.9c-0.3,0.2-0.5,0.3-0.8,0.3c-0.3-0.1-0.5-0.2-0.7-0.4c-0.2-0.2-0.3-0.5-0.3-0.8
		c0-0.3,0.1-0.5,0.3-0.7c0.8-0.7,1.6-1.4,2.3-2.1c0.7-0.7,1.5-1.4,2.2-2.1c0.5-0.5,0.9-1,1.3-1.5c0.3-0.5,0.6-0.9,0.8-1.4
		c0.2-0.5,0.3-1,0.4-1.6c0.1-0.6,0.1-1.2,0.1-1.9v-3.7h-6.1c-0.3,0-0.5-0.1-0.6-0.3c-0.1-0.2-0.2-0.4-0.2-0.7c0-0.3,0.1-0.5,0.2-0.7
		c0.1-0.2,0.3-0.3,0.6-0.3h14.4C844.3,738.6,844.5,738.7,844.7,738.9z M850,736.3c0.3,0,0.6,0.1,0.8,0.2s0.4,0.4,0.4,0.7v25.5
		c0,0.3-0.1,0.6-0.4,0.7c-0.2,0.1-0.5,0.2-0.8,0.2s-0.6-0.1-0.8-0.2c-0.2-0.1-0.4-0.4-0.4-0.7v-25.5c0-0.3,0.1-0.6,0.4-0.7
		S849.7,736.3,850,736.3z"/>
	<path class="st12" d="M873.5,756.1c0.2,0,0.4,0,0.6,0.2s0.3,0.4,0.3,0.7c0,0.3,0,0.5-0.1,0.8c-0.1,0.2-0.3,0.3-0.6,0.3
		c-2.8,0.2-5.6,0.4-8.4,0.5c-2.8,0.1-5.6,0.1-8.6,0.1c-0.3,0-0.5-0.1-0.6-0.3c-0.1-0.2-0.2-0.4-0.2-0.7s0.1-0.5,0.2-0.7
		c0.1-0.2,0.3-0.3,0.6-0.3c1.2,0,2.3,0,3.5,0s2.4,0,3.6,0v-6.8h2.3v6.7c1.2,0,2.4-0.1,3.7-0.2C870.9,756.3,872.1,756.2,873.5,756.1z
		 M864.8,737.9c1.2,0,2.3,0.2,3.2,0.5c0.9,0.3,1.7,0.8,2.3,1.4c0.6,0.6,1.1,1.3,1.4,2.1s0.5,1.7,0.5,2.6s-0.2,1.8-0.5,2.6
		s-0.8,1.5-1.4,2.1c-0.6,0.6-1.4,1.1-2.3,1.4c-0.9,0.3-2,0.5-3.2,0.5c-1.2,0-2.3-0.2-3.2-0.5c-0.9-0.3-1.7-0.8-2.3-1.4
		c-0.6-0.6-1.1-1.3-1.4-2.1s-0.5-1.7-0.5-2.6s0.2-1.8,0.5-2.6s0.8-1.5,1.4-2.1c0.6-0.6,1.4-1.1,2.3-1.4
		C862.5,738.1,863.6,737.9,864.8,737.9z M864.8,739.9c-0.9,0-1.6,0.1-2.3,0.4c-0.7,0.2-1.2,0.6-1.6,1s-0.7,0.9-0.9,1.5
		s-0.3,1.2-0.3,1.8s0.1,1.2,0.3,1.8c0.2,0.6,0.5,1.1,0.9,1.5s0.9,0.7,1.6,1c0.7,0.2,1.4,0.4,2.3,0.4c0.9,0,1.6-0.1,2.3-0.4
		c0.7-0.2,1.2-0.6,1.6-1s0.7-0.9,0.9-1.5c0.2-0.6,0.3-1.2,0.3-1.8s-0.1-1.2-0.3-1.8s-0.5-1.1-0.9-1.5s-0.9-0.7-1.6-1
		C866.4,740,865.7,739.9,864.8,739.9z M877.6,736.3c0.3,0,0.6,0.1,0.8,0.2c0.2,0.1,0.4,0.4,0.4,0.7v9.9h3.6c0.3,0,0.5,0.1,0.6,0.3
		c0.1,0.2,0.2,0.4,0.2,0.7c0,0.3-0.1,0.5-0.2,0.8c-0.1,0.2-0.3,0.3-0.6,0.3h-3.6v13.5c0,0.3-0.1,0.6-0.4,0.7
		c-0.2,0.1-0.5,0.2-0.8,0.2s-0.6-0.1-0.8-0.2c-0.2-0.1-0.4-0.4-0.4-0.7v-25.5c0-0.3,0.1-0.6,0.4-0.7
		C877,736.4,877.3,736.3,877.6,736.3z"/>
	<path class="st12" d="M446.4,781.3c0.3,0,0.6,0.1,0.8,0.2s0.4,0.4,0.4,0.7v3.3c0,1.1,0.2,2,0.5,2.8c0.4,0.8,0.9,1.5,1.8,2.2
		c0.8,0.6,1.5,1.2,2.2,1.8s1.4,1,2,1.5c0.3,0.2,0.4,0.4,0.4,0.7c0,0.3-0.1,0.5-0.2,0.8c-0.2,0.2-0.4,0.4-0.6,0.4
		c-0.3,0.1-0.5,0-0.8-0.2c-0.5-0.3-1.1-0.8-1.7-1.3s-1.4-1.1-2.1-1.6c-0.8-0.7-1.4-1.2-1.8-1.7c-0.4-0.5-0.7-0.9-0.7-1.2h0
		c-0.1,0.3-0.3,0.8-0.7,1.3c-0.4,0.5-1,1.1-1.8,1.8c-0.7,0.6-1.4,1.2-2.2,1.7c-0.7,0.5-1.4,1.1-2.2,1.6c-0.3,0.2-0.5,0.3-0.8,0.2
		c-0.3-0.1-0.5-0.2-0.7-0.4c-0.2-0.2-0.3-0.5-0.2-0.8c0-0.3,0.2-0.5,0.4-0.7c0.8-0.6,1.6-1.2,2.4-1.7c0.7-0.6,1.5-1.2,2.3-1.8
		c0.8-0.7,1.4-1.4,1.8-2.2c0.4-0.8,0.5-1.7,0.5-2.8v-3.3c0-0.3,0.1-0.6,0.4-0.7C445.9,781.4,446.1,781.3,446.4,781.3z M451.4,798.2
		c2.9,0,5.1,0.5,6.6,1.5c1.5,1,2.3,2.4,2.3,4.4c0,1.9-0.8,3.4-2.3,4.4s-3.7,1.5-6.6,1.5c-2.9,0-5.1-0.5-6.6-1.5
		c-1.5-1-2.3-2.4-2.3-4.4c0-1.9,0.8-3.4,2.3-4.4C446.4,798.7,448.6,798.2,451.4,798.2z M451.4,800.1c-2.3,0-3.9,0.4-5,1.1
		s-1.6,1.7-1.6,2.9c0,1.2,0.5,2.2,1.6,2.9c1.1,0.7,2.7,1.1,5,1.1c2.3,0,3.9-0.4,5-1.1c1.1-0.7,1.6-1.7,1.6-2.9
		c0-1.2-0.5-2.2-1.6-2.9S453.7,800.1,451.4,800.1z M458.9,780.3c0.3,0,0.6,0.1,0.8,0.2s0.4,0.4,0.4,0.7v6.3h4.1
		c0.3,0,0.5,0.1,0.6,0.3c0.1,0.2,0.2,0.5,0.2,0.8c0,0.3-0.1,0.5-0.2,0.7c-0.1,0.2-0.3,0.3-0.6,0.3h-4.1v7.2c0,0.3-0.1,0.6-0.4,0.7
		c-0.2,0.1-0.5,0.2-0.8,0.2s-0.6-0.1-0.8-0.2c-0.2-0.1-0.4-0.4-0.4-0.7v-15.6c0-0.3,0.1-0.6,0.4-0.7
		C458.3,780.4,458.6,780.3,458.9,780.3z"/>
	<path class="st12" d="M473.3,782c0.3,0,0.6,0.1,0.8,0.2c0.2,0.1,0.4,0.4,0.4,0.7v5.3c0,0.7,0,1.3,0.1,1.8c0.1,0.5,0.2,1.1,0.3,1.5
		c0.2,0.5,0.4,0.9,0.6,1.4c0.3,0.4,0.6,0.9,1,1.4c0.6,0.7,1.2,1.4,1.8,2.1c0.6,0.7,1.1,1.2,1.6,1.8c0.2,0.2,0.3,0.5,0.3,0.8
		c0,0.3-0.1,0.5-0.4,0.7c-0.2,0.2-0.4,0.3-0.7,0.3c-0.3,0-0.5-0.1-0.8-0.3c-0.4-0.4-0.8-0.8-1.4-1.4c-0.5-0.6-1.1-1.2-1.6-1.9
		c-0.8-0.9-1.3-1.6-1.6-2.1s-0.4-0.9-0.5-1.3h0c0,0.2-0.1,0.4-0.2,0.6c-0.1,0.2-0.2,0.5-0.4,0.7c-0.2,0.3-0.4,0.6-0.6,0.9
		c-0.3,0.4-0.6,0.8-1,1.2c-0.6,0.7-1.1,1.3-1.7,1.9c-0.6,0.6-1.1,1.2-1.7,1.8c-0.2,0.2-0.5,0.3-0.8,0.3c-0.3,0-0.5-0.1-0.7-0.3
		c-0.2-0.2-0.3-0.4-0.4-0.7c0-0.3,0.1-0.5,0.3-0.8c0.6-0.7,1.3-1.4,1.9-2.1c0.7-0.7,1.3-1.4,1.9-2.2c0.4-0.5,0.7-0.9,1-1.4
		c0.3-0.4,0.5-0.9,0.6-1.4c0.2-0.5,0.3-1,0.3-1.5s0.1-1.2,0.1-1.8V783c0-0.3,0.1-0.6,0.4-0.7C472.7,782.1,473,782,473.3,782z
		 M484,780.7c0.3,0,0.5,0.1,0.8,0.2c0.2,0.1,0.3,0.4,0.3,0.7v23.9c0,0.3-0.1,0.6-0.3,0.7c-0.2,0.1-0.5,0.2-0.8,0.2
		c-0.3,0-0.6-0.1-0.8-0.2s-0.3-0.4-0.3-0.7v-14.3h-4c-0.3,0-0.5-0.1-0.6-0.3c-0.1-0.2-0.2-0.4-0.2-0.7c0-0.3,0.1-0.5,0.2-0.7
		c0.1-0.2,0.3-0.3,0.6-0.3h4v-7.6c0-0.3,0.1-0.6,0.3-0.7S483.7,780.7,484,780.7z M489.6,780.3c0.3,0,0.6,0.1,0.8,0.2
		c0.2,0.1,0.3,0.4,0.3,0.7v25.5c0,0.3-0.1,0.6-0.3,0.7c-0.2,0.1-0.5,0.2-0.8,0.2c-0.3,0-0.5-0.1-0.8-0.2c-0.2-0.1-0.3-0.4-0.3-0.7
		v-25.5c0-0.3,0.1-0.6,0.3-0.7S489.3,780.3,489.6,780.3z"/>
	<path class="st12" d="M507.8,782.9c0.3,0,0.5,0.1,0.6,0.3c0.1,0.2,0.2,0.4,0.2,0.7c0,0.3-0.1,0.5-0.2,0.7c-0.1,0.2-0.3,0.3-0.6,0.3
		h-2v13.2c0.9-0.1,1.7-0.2,2.5-0.3c0.2,0,0.4,0,0.6,0.2s0.3,0.4,0.3,0.7c0,0.3,0,0.6-0.1,0.8c-0.1,0.2-0.3,0.3-0.5,0.4
		c-0.9,0.1-1.8,0.2-2.8,0.3c-1,0.1-2,0.1-3.1,0.2c-1.1,0-2.2,0.1-3.5,0.1s-2.6,0-4.1,0c-0.3,0-0.5-0.1-0.6-0.3
		c-0.1-0.2-0.2-0.4-0.2-0.7c0-0.3,0.1-0.5,0.2-0.7c0.1-0.2,0.3-0.3,0.6-0.3h2.1v-13.5h-1.9c-0.3,0-0.5-0.1-0.6-0.3
		c-0.1-0.2-0.2-0.4-0.2-0.7c0-0.3,0.1-0.5,0.2-0.7c0.1-0.2,0.3-0.3,0.6-0.3H507.8z M499.4,798.4c0.7,0,1.5,0,2.2-0.1
		c0.7,0,1.4-0.1,2.1-0.1v-13.3h-4.3V798.4z M512.5,780.6c0.3,0,0.5,0.1,0.8,0.2c0.2,0.1,0.3,0.4,0.3,0.7v24c0,0.3-0.1,0.6-0.3,0.7
		s-0.5,0.2-0.8,0.2c-0.3,0-0.5-0.1-0.8-0.2c-0.2-0.1-0.3-0.4-0.3-0.7v-13.2h-2.9c-0.3,0-0.5-0.1-0.6-0.3c-0.1-0.2-0.2-0.4-0.2-0.7
		c0-0.3,0.1-0.5,0.2-0.7c0.1-0.2,0.3-0.3,0.6-0.3h2.9v-8.7c0-0.3,0.1-0.6,0.3-0.7C512,780.6,512.3,780.6,512.5,780.6z M517.9,780.3
		c0.3,0,0.6,0.1,0.8,0.2c0.2,0.1,0.3,0.4,0.3,0.7v25.5c0,0.3-0.1,0.6-0.3,0.7c-0.2,0.1-0.5,0.2-0.8,0.2c-0.3,0-0.5-0.1-0.8-0.2
		c-0.2-0.1-0.3-0.4-0.3-0.7v-25.5c0-0.3,0.1-0.6,0.3-0.7S517.6,780.3,517.9,780.3z"/>
	<path class="st12" d="M531.3,782c2.4,0,4.2,0.8,5.4,2.4c1.2,1.6,1.8,3.9,1.8,7c0,3.1-0.6,5.4-1.8,7c-1.2,1.6-3,2.4-5.4,2.4
		s-4.2-0.8-5.5-2.4c-1.2-1.6-1.8-3.9-1.8-7c0-3,0.6-5.4,1.8-7C527,782.8,528.8,782,531.3,782z M531.3,784.1c-1.7,0-3,0.6-3.8,1.9
		c-0.8,1.3-1.2,3.1-1.2,5.4c0,2.3,0.4,4.1,1.2,5.4c0.8,1.3,2.1,1.9,3.8,1.9s3-0.6,3.8-1.9c0.8-1.3,1.2-3.1,1.2-5.4
		c0-2.3-0.4-4.1-1.2-5.4C534.3,784.8,533,784.1,531.3,784.1z M545.2,780.3c0.3,0,0.6,0.1,0.8,0.2s0.4,0.4,0.4,0.7v25.5
		c0,0.3-0.1,0.6-0.4,0.7c-0.2,0.1-0.5,0.2-0.8,0.2s-0.6-0.1-0.8-0.2c-0.2-0.1-0.4-0.4-0.4-0.7v-25.5c0-0.3,0.1-0.6,0.4-0.7
		C544.7,780.4,544.9,780.3,545.2,780.3z"/>
	<path class="st12" d="M568.2,782.9c0.1,0.2,0.2,0.4,0.2,0.7c0,0.3-0.1,0.5-0.2,0.7c-0.1,0.2-0.3,0.3-0.6,0.3h-6v3.7
		c0,0.7,0,1.3,0.1,1.9c0.1,0.6,0.2,1.1,0.4,1.6c0.2,0.5,0.5,1,0.8,1.4c0.3,0.5,0.8,1,1.3,1.5c0.7,0.7,1.4,1.4,2.1,2.1
		s1.3,1.3,1.9,1.7c0.2,0.2,0.3,0.5,0.3,0.8c0,0.3-0.1,0.5-0.3,0.7c-0.2,0.2-0.5,0.3-0.7,0.4c-0.3,0.1-0.5,0-0.8-0.3
		c-0.5-0.4-1.1-1-1.7-1.6c-0.6-0.6-1.3-1.3-2-2c-0.5-0.5-0.9-0.9-1.2-1.3c-0.3-0.4-0.6-0.7-0.8-1c-0.2-0.3-0.3-0.5-0.4-0.7
		c-0.1-0.2-0.1-0.4-0.2-0.6h0c0,0.2-0.1,0.4-0.2,0.6c-0.1,0.2-0.2,0.4-0.4,0.7c-0.2,0.3-0.4,0.6-0.8,1c-0.3,0.4-0.7,0.8-1.2,1.3
		c-0.7,0.7-1.4,1.4-2.1,2c-0.7,0.6-1.4,1.3-2.1,1.9c-0.3,0.2-0.5,0.3-0.8,0.3c-0.3-0.1-0.5-0.2-0.7-0.4c-0.2-0.2-0.3-0.5-0.3-0.8
		s0.1-0.5,0.3-0.7c0.8-0.7,1.6-1.4,2.3-2.1c0.7-0.7,1.5-1.4,2.2-2.1c0.5-0.5,0.9-1,1.3-1.5c0.3-0.5,0.6-0.9,0.8-1.4
		c0.2-0.5,0.3-1,0.4-1.6c0.1-0.6,0.1-1.2,0.1-1.9v-3.7h-6.1c-0.3,0-0.5-0.1-0.6-0.3c-0.1-0.2-0.2-0.4-0.2-0.7c0-0.3,0.1-0.5,0.2-0.7
		s0.3-0.3,0.6-0.3h14.4C567.9,782.6,568.1,782.7,568.2,782.9z M573.6,780.3c0.3,0,0.6,0.1,0.8,0.2s0.4,0.4,0.4,0.7v25.5
		c0,0.3-0.1,0.6-0.4,0.7c-0.2,0.1-0.5,0.2-0.8,0.2s-0.6-0.1-0.8-0.2c-0.2-0.1-0.4-0.4-0.4-0.7v-25.5c0-0.3,0.1-0.6,0.4-0.7
		C573,780.4,573.3,780.3,573.6,780.3z"/>
	<path class="st12" d="M603.3,782.4c0.1,0.2,0.2,0.4,0.2,0.7c0,0.3-0.1,0.5-0.2,0.7c-0.1,0.2-0.3,0.3-0.6,0.3h-5.8v2.3
		c0,1.1,0.2,2,0.5,2.8c0.3,0.7,0.9,1.4,1.7,2.1c0.8,0.6,1.6,1.2,2.3,1.7c0.7,0.5,1.3,1,1.8,1.3c0.3,0.2,0.4,0.5,0.4,0.7
		c0,0.3-0.1,0.5-0.2,0.8c-0.1,0.2-0.4,0.4-0.6,0.4c-0.3,0.1-0.5,0-0.8-0.2c-0.4-0.3-0.9-0.6-1.6-1.2c-0.7-0.5-1.4-1.1-2.1-1.6
		c-0.8-0.7-1.4-1.3-1.8-1.7s-0.6-0.9-0.7-1.2h0c-0.1,0.4-0.3,0.8-0.7,1.2c-0.4,0.5-1,1-1.9,1.7c-0.7,0.6-1.5,1.2-2.2,1.7
		c-0.7,0.5-1.4,1-2,1.5c-0.3,0.2-0.5,0.2-0.8,0.2c-0.3-0.1-0.5-0.2-0.6-0.4c-0.2-0.2-0.3-0.5-0.2-0.8c0-0.3,0.2-0.5,0.5-0.7
		c0.8-0.6,1.5-1.1,2.3-1.7c0.7-0.6,1.5-1.2,2.3-1.8c0.8-0.7,1.4-1.4,1.7-2.1c0.3-0.7,0.5-1.6,0.5-2.7v-2.3h-6
		c-0.3,0-0.5-0.1-0.6-0.3c-0.1-0.2-0.2-0.4-0.2-0.7c0-0.3,0.1-0.5,0.2-0.7s0.3-0.3,0.6-0.3h14.1
		C602.9,782.1,603.1,782.2,603.3,782.4z M601.6,798.2c2.9,0,5.2,0.5,6.8,1.5c1.6,1,2.4,2.4,2.4,4.4c0,1.9-0.8,3.4-2.4,4.4
		c-1.6,1-3.8,1.5-6.8,1.5s-5.2-0.5-6.7-1.5c-1.6-1-2.4-2.4-2.4-4.4c0-1.9,0.8-3.4,2.4-4.4C596.4,798.7,598.6,798.2,601.6,798.2z
		 M601.6,800.1c-2.3,0-4,0.4-5.1,1.1c-1.1,0.7-1.6,1.7-1.6,2.9c0,1.2,0.5,2.2,1.6,2.9c1.1,0.7,2.8,1.1,5.1,1.1s4-0.4,5.2-1.1
		c1.1-0.7,1.7-1.7,1.7-2.9c0-1.2-0.6-2.2-1.7-2.9C605.6,800.5,603.9,800.1,601.6,800.1z M609.3,780.3c0.3,0,0.6,0.1,0.8,0.2
		c0.2,0.1,0.4,0.4,0.4,0.7v15.6c0,0.3-0.1,0.6-0.4,0.7c-0.2,0.1-0.5,0.2-0.8,0.2c-0.3,0-0.6-0.1-0.8-0.2c-0.2-0.1-0.4-0.4-0.4-0.7
		v-7h-5.5c-0.3,0-0.5-0.1-0.6-0.3c-0.1-0.2-0.2-0.4-0.2-0.7c0-0.3,0.1-0.5,0.2-0.7c0.1-0.2,0.3-0.3,0.6-0.3h5.5v-6.6
		c0-0.3,0.1-0.6,0.4-0.7C608.7,780.4,609,780.3,609.3,780.3z"/>
	<path class="st12" d="M629.1,782.8c0.3,0.3,0.5,0.9,0.5,1.7v5.9c0,0.8-0.2,1.4-0.5,1.7c-0.3,0.3-0.9,0.5-1.7,0.5h-7.7
		c-0.4,0-0.6,0.2-0.6,0.6v5.3c0,0.4,0.2,0.6,0.6,0.6c2.5,0,4.8-0.1,6.8-0.2c2-0.1,4-0.3,5.9-0.6c0.3,0,0.5,0,0.6,0.2
		c0.2,0.2,0.3,0.4,0.3,0.7c0,0.3,0,0.6-0.1,0.8c-0.1,0.2-0.3,0.4-0.6,0.4c-0.8,0.1-1.7,0.2-2.6,0.3c-0.9,0.1-1.9,0.2-3.1,0.2
		c-1.1,0.1-2.3,0.1-3.6,0.1c-1.3,0-2.8,0-4.4,0c-0.8,0-1.4-0.2-1.7-0.5c-0.3-0.3-0.5-0.9-0.5-1.7v-6.1c0-0.8,0.2-1.4,0.5-1.7
		c0.3-0.3,0.9-0.5,1.7-0.5h7.7c0.4,0,0.6-0.2,0.6-0.6v-5.1c0-0.4-0.2-0.6-0.6-0.6h-9.1c-0.3,0-0.5-0.1-0.6-0.3
		c-0.1-0.2-0.2-0.4-0.2-0.7c0-0.3,0.1-0.5,0.2-0.7c0.1-0.2,0.3-0.3,0.6-0.3h9.8C628.2,782.4,628.8,782.5,629.1,782.8z M637.4,780.3
		c0.3,0,0.6,0.1,0.8,0.2s0.4,0.4,0.4,0.7v25.5c0,0.3-0.1,0.6-0.4,0.7c-0.2,0.1-0.5,0.2-0.8,0.2s-0.6-0.1-0.8-0.2
		c-0.2-0.1-0.4-0.4-0.4-0.7v-25.5c0-0.3,0.1-0.6,0.4-0.7S637.1,780.3,637.4,780.3z"/>
	<path class="st12" d="M669.7,794.5c0.1,0.2,0.2,0.4,0.2,0.7s-0.1,0.5-0.2,0.7c-0.1,0.2-0.3,0.3-0.6,0.3h-11.4v4.5h-2.3v-4.5H644
		c-0.3,0-0.5-0.1-0.6-0.3c-0.1-0.2-0.2-0.4-0.2-0.7s0.1-0.5,0.2-0.7c0.1-0.2,0.3-0.3,0.6-0.3H669
		C669.3,794.2,669.5,794.3,669.7,794.5z M666.3,781.8c0.1,0.2,0.2,0.4,0.2,0.7s-0.1,0.5-0.2,0.7c-0.1,0.2-0.3,0.3-0.6,0.3h-8v0.7
		c0,0.8,0.2,1.4,0.7,2c0.4,0.6,1.3,1.1,2.4,1.6c1.2,0.5,2.2,0.9,3.2,1.3s1.9,0.7,2.8,1.1c0.3,0.1,0.5,0.3,0.6,0.6
		c0.1,0.3,0.1,0.5,0,0.8c-0.1,0.3-0.3,0.4-0.5,0.6c-0.2,0.1-0.5,0.1-0.8,0c-0.9-0.3-1.8-0.7-2.8-1c-0.9-0.4-2-0.8-3-1.2
		c-0.7-0.3-1.2-0.5-1.6-0.8c-0.4-0.3-0.8-0.5-1.1-0.7c-0.3-0.2-0.5-0.4-0.7-0.7s-0.3-0.4-0.3-0.6h0c-0.1,0.4-0.4,0.9-1,1.3
		c-0.5,0.5-1.5,1-2.8,1.5c-1.1,0.4-2.1,0.9-3,1.2c-0.9,0.4-1.9,0.7-2.8,1c-0.3,0.1-0.6,0.1-0.8,0s-0.4-0.3-0.5-0.6
		c-0.1-0.2-0.1-0.5,0-0.8c0.1-0.3,0.3-0.5,0.6-0.6c0.9-0.3,1.9-0.7,2.8-1.1s2-0.8,3.2-1.3c1.2-0.5,2-1,2.4-1.6
		c0.4-0.6,0.7-1.2,0.7-2v-0.7h-8c-0.3,0-0.4-0.1-0.6-0.3c-0.1-0.2-0.2-0.4-0.2-0.7s0.1-0.5,0.2-0.7c0.1-0.2,0.3-0.3,0.6-0.3h18.4
		C665.9,781.5,666.1,781.6,666.3,781.8z M656.5,799.4c3,0,5.4,0.4,7.1,1.3s2.5,2.2,2.5,4c0,1.8-0.8,3.2-2.5,4s-4,1.3-7.1,1.3
		c-3.1,0-5.4-0.4-7.1-1.3s-2.5-2.2-2.5-4c0-1.8,0.8-3.2,2.5-4S653.5,799.4,656.5,799.4z M656.5,801.3c-2.5,0-4.3,0.3-5.4,0.9
		c-1.2,0.6-1.8,1.4-1.8,2.5c0,1.1,0.6,2,1.8,2.5c1.2,0.6,3,0.9,5.4,0.9c2.5,0,4.3-0.3,5.4-0.9c1.2-0.6,1.8-1.4,1.8-2.5
		c0-1.1-0.6-2-1.8-2.5C660.8,801.6,659,801.3,656.5,801.3z"/>
</g>
</svg>
