<?xml version="1.0" encoding="utf-8"?>
<!-- Generator: Adobe Illustrator 19.0.0, SVG Export Plug-In . SVG Version: 6.00 Build 0)  -->
<svg version="1.1" id="Layer_1" xmlns="http://www.w3.org/2000/svg" xmlns:xlink="http://www.w3.org/1999/xlink" x="0px" y="0px"
	 viewBox="-283 396.3 29 49.6" style="enable-background:new -283 396.3 29 49.6;" xml:space="preserve">
<style type="text/css">
	.st0{fill:#61B584;}
	.st1{fill:#3F3B3A;}
</style>
<g id="XMLID_615_">
	<path id="XMLID_617_" class="st0" d="M-268.5,442.9c-6.3,0-11.5-5.1-11.5-11.5c0-5,7.4-20.5,11.5-28.4c4.1,8,11.5,23.4,11.5,28.4
		C-257,437.8-262.1,442.9-268.5,442.9z"/>
	<path id="XMLID_619_" class="st1" d="M-268.5,445.9c-8,0-14.5-6.5-14.5-14.5c0-6.1,8.3-22.8,11.8-29.7l2.7-5.2l2.7,5.2
		c3.5,6.9,11.8,23.6,11.8,29.7C-254,439.4-260.5,445.9-268.5,445.9z M-268.5,409.7c-5.1,10.5-8.5,19-8.5,21.7c0,4.7,3.8,8.5,8.5,8.5
		s8.5-3.8,8.5-8.5C-260,428.7-263.4,420.2-268.5,409.7z"/>
</g>
</svg>
