<?xml version="1.0" encoding="utf-8"?>
<!-- Generator: Adobe Illustrator 19.0.0, SVG Export Plug-In . SVG Version: 6.00 Build 0)  -->
<svg version="1.1" id="Layer_1" xmlns="http://www.w3.org/2000/svg" xmlns:xlink="http://www.w3.org/1999/xlink" x="0px" y="0px"
	 viewBox="106 -393.1 807 1627" style="enable-background:new 106 -393.1 807 1627;" xml:space="preserve">
<style type="text/css">
	.st0{enable-background:new    ;}
	.st1{fill:#3E3A39;}
	.st2{fill:#60B383;stroke:#3E3A39;stroke-width:6;stroke-miterlimit:10;}
	.st3{fill:none;stroke:#3E3A39;stroke-width:6;stroke-linecap:round;stroke-linejoin:round;stroke-miterlimit:10;}
	.st4{fill:none;stroke:#3E3A39;stroke-width:6;stroke-linecap:round;stroke-miterlimit:10;}
	.st5{fill:none;stroke:#3E3A39;stroke-width:6;stroke-miterlimit:10;}
	.st6{fill:#FFFFFF;stroke:#3E3A39;stroke-width:6;stroke-miterlimit:10;}
	.st7{fill:#FFFFFF;stroke:#3E3A39;stroke-width:6;stroke-linecap:round;stroke-linejoin:round;stroke-miterlimit:10;}
	.st8{fill:#60B383;stroke:#3E3A39;stroke-width:6;stroke-linecap:round;stroke-linejoin:round;stroke-miterlimit:10;}
	.st9{fill:#E0E0DF;stroke:#3E3A39;stroke-width:6;stroke-linecap:round;stroke-linejoin:round;stroke-miterlimit:10;}
	.st10{fill:#60B383;stroke:#3E3A39;stroke-width:6;stroke-linejoin:round;stroke-miterlimit:10;}
</style>
<g>
	<g class="st0">
		<path class="st1" d="M270.2,572.4c0.1,0.2,0.2,0.4,0.2,0.7s-0.1,0.5-0.2,0.7s-0.3,0.3-0.6,0.3h-11.1v5.2c0,0.3-0.1,0.5-0.3,0.7
			c-0.2,0.1-0.5,0.2-0.8,0.2c-0.3,0-0.6-0.1-0.8-0.2c-0.2-0.1-0.4-0.4-0.4-0.7v-5.2h-11.7c-0.3,0-0.5-0.1-0.6-0.3
			c-0.1-0.2-0.2-0.4-0.2-0.7s0.1-0.5,0.2-0.7c0.1-0.2,0.3-0.3,0.6-0.3h25.1C269.9,572.1,270.1,572.2,270.2,572.4z M266.9,558.6
			c0.1,0.2,0.2,0.4,0.2,0.7s-0.1,0.5-0.2,0.7c-0.1,0.2-0.3,0.3-0.6,0.3h-8v0.8c0,0.8,0.2,1.6,0.7,2.2c0.5,0.6,1.3,1.2,2.4,1.7
			c1.1,0.5,2.1,0.9,3.1,1.3c1,0.4,2,0.8,2.9,1.2c0.3,0.1,0.4,0.3,0.5,0.6s0,0.5-0.1,0.8c-0.1,0.3-0.3,0.4-0.5,0.6s-0.5,0.1-0.8,0
			c-0.9-0.4-1.8-0.7-2.8-1.1c-0.9-0.4-1.9-0.8-3-1.3c-0.7-0.3-1.2-0.5-1.6-0.8c-0.4-0.3-0.8-0.5-1.1-0.8s-0.5-0.5-0.6-0.7
			c-0.1-0.2-0.2-0.4-0.3-0.7h0c-0.1,0.4-0.4,0.9-0.9,1.4c-0.5,0.5-1.4,1-2.7,1.6c-1.1,0.5-2.1,0.9-3,1.3c-0.9,0.4-1.9,0.8-2.8,1.1
			c-0.3,0.1-0.6,0.1-0.8,0s-0.4-0.3-0.5-0.6c-0.1-0.2-0.1-0.5-0.1-0.8s0.2-0.5,0.5-0.6c1-0.4,1.9-0.8,2.9-1.2c1-0.4,2-0.9,3.1-1.3
			c1.2-0.5,2-1.1,2.4-1.7c0.5-0.6,0.7-1.3,0.7-2.2v-0.8h-8c-0.3,0-0.5-0.1-0.6-0.3c-0.1-0.2-0.2-0.4-0.2-0.7s0.1-0.5,0.2-0.7
			c0.1-0.2,0.3-0.3,0.6-0.3h18.3C266.5,558.3,266.7,558.4,266.9,558.6z M248.7,577.2c0.3,0,0.6,0.1,0.8,0.2s0.4,0.4,0.4,0.7v5.2
			c0,0.4,0.2,0.6,0.6,0.6h15.9c0.3,0,0.5,0.1,0.6,0.3c0.1,0.2,0.2,0.4,0.2,0.7s-0.1,0.5-0.2,0.7c-0.1,0.2-0.3,0.3-0.6,0.3h-16.6
			c-0.8,0-1.4-0.2-1.7-0.5c-0.3-0.3-0.5-0.9-0.5-1.7v-5.7c0-0.3,0.1-0.6,0.4-0.7C248.1,577.3,248.4,577.2,248.7,577.2z"/>
		<path class="st1" d="M275.9,558.9c0.3,0,0.6,0.1,0.8,0.2c0.2,0.1,0.4,0.4,0.4,0.7v6.1h8.8v-6.1c0-0.3,0.1-0.6,0.3-0.7
			s0.5-0.2,0.8-0.2c0.3,0,0.6,0.1,0.8,0.2c0.2,0.1,0.4,0.4,0.4,0.7v15c0,0.8-0.2,1.4-0.5,1.7c-0.3,0.3-0.9,0.5-1.7,0.5h-9
			c-0.8,0-1.4-0.2-1.7-0.5c-0.3-0.3-0.5-0.9-0.5-1.7v-15c0-0.3,0.1-0.6,0.4-0.7C275.3,559,275.6,558.9,275.9,558.9z M277.1,574.5
			c0,0.2,0,0.4,0.1,0.5c0.1,0.1,0.2,0.1,0.5,0.1h7.6c0.2,0,0.4,0,0.5-0.1c0.1-0.1,0.1-0.2,0.1-0.5V568h-8.8V574.5z M295.4,557
			c0.3,0,0.6,0.1,0.8,0.2s0.4,0.4,0.4,0.7v25.5c0,0.3-0.1,0.6-0.4,0.7c-0.2,0.1-0.5,0.2-0.8,0.2s-0.6-0.1-0.8-0.2
			c-0.2-0.1-0.4-0.4-0.4-0.7V558c0-0.3,0.1-0.6,0.4-0.7C294.9,557.1,295.1,557,295.4,557z"/>
		<path class="st1" d="M328.5,571.2c0.1,0.2,0.2,0.4,0.2,0.7s-0.1,0.5-0.2,0.7c-0.1,0.2-0.3,0.3-0.6,0.3h-11.4v4.5h-2.3v-4.5h-11.4
			c-0.3,0-0.5-0.1-0.6-0.3c-0.1-0.2-0.2-0.4-0.2-0.7s0.1-0.5,0.2-0.7c0.1-0.2,0.3-0.3,0.6-0.3h25.1
			C328.2,570.9,328.4,571,328.5,571.2z M325.1,558.5c0.1,0.2,0.2,0.4,0.2,0.7s-0.1,0.5-0.2,0.7c-0.1,0.2-0.3,0.3-0.6,0.3h-8v0.7
			c0,0.8,0.2,1.4,0.7,2c0.4,0.6,1.3,1.1,2.4,1.6c1.2,0.5,2.2,0.9,3.2,1.3s1.9,0.7,2.8,1.1c0.3,0.1,0.5,0.3,0.6,0.6
			c0.1,0.3,0.1,0.5,0,0.8c-0.1,0.3-0.3,0.4-0.5,0.6c-0.2,0.1-0.5,0.1-0.8,0c-0.9-0.3-1.8-0.7-2.8-1c-0.9-0.4-2-0.8-3-1.2
			c-0.7-0.3-1.2-0.5-1.6-0.8c-0.4-0.3-0.8-0.5-1.1-0.7c-0.3-0.2-0.5-0.4-0.7-0.7c-0.1-0.2-0.3-0.4-0.3-0.6h0c-0.1,0.4-0.4,0.9-1,1.3
			c-0.5,0.5-1.5,1-2.8,1.5c-1.1,0.4-2.1,0.9-3,1.2c-0.9,0.4-1.9,0.7-2.8,1c-0.3,0.1-0.6,0.1-0.8,0c-0.2-0.1-0.4-0.3-0.5-0.6
			c-0.1-0.2-0.1-0.5,0-0.8c0.1-0.3,0.3-0.5,0.6-0.6c0.9-0.3,1.9-0.7,2.8-1.1s2-0.8,3.2-1.3c1.2-0.5,2-1,2.4-1.6
			c0.4-0.6,0.7-1.2,0.7-2v-0.7h-8c-0.3,0-0.4-0.1-0.6-0.3c-0.1-0.2-0.2-0.4-0.2-0.7s0.1-0.5,0.2-0.7c0.1-0.2,0.3-0.3,0.6-0.3h18.4
			C324.8,558.2,325,558.3,325.1,558.5z M315.3,576.1c3.1,0,5.4,0.4,7.1,1.3c1.7,0.9,2.5,2.2,2.5,4c0,1.8-0.8,3.2-2.5,4
			c-1.7,0.9-4,1.3-7.1,1.3c-3.1,0-5.4-0.4-7.1-1.3s-2.5-2.2-2.5-4c0-1.8,0.8-3.2,2.5-4S312.3,576.1,315.3,576.1z M315.3,578
			c-2.5,0-4.3,0.3-5.4,0.9c-1.2,0.6-1.8,1.4-1.8,2.5c0,1.1,0.6,2,1.8,2.5c1.2,0.6,3,0.9,5.4,0.9c2.5,0,4.3-0.3,5.4-0.9
			c1.2-0.6,1.8-1.4,1.8-2.5c0-1.1-0.6-2-1.8-2.5C319.6,578.3,317.8,578,315.3,578z"/>
		<path class="st1" d="M339.6,558.2c1.2,0,2.3,0.2,3.2,0.5c0.9,0.3,1.7,0.8,2.3,1.4c0.6,0.6,1,1.3,1.3,2.1c0.3,0.8,0.4,1.7,0.4,2.7
			c0,0.9-0.1,1.8-0.4,2.6c-0.3,0.8-0.7,1.5-1.3,2.1c-0.6,0.6-1.3,1.1-2.3,1.4c-0.9,0.3-2,0.5-3.2,0.5s-2.3-0.2-3.2-0.5
			c-0.9-0.3-1.7-0.8-2.3-1.4c-0.6-0.6-1-1.3-1.3-2.1s-0.4-1.7-0.4-2.6c0-1,0.1-1.9,0.4-2.7s0.7-1.5,1.3-2.1c0.6-0.6,1.3-1.1,2.3-1.4
			C337.3,558.3,338.4,558.2,339.6,558.2z M339.6,560.2c-0.9,0-1.7,0.1-2.3,0.4c-0.6,0.3-1.1,0.6-1.5,1c-0.4,0.4-0.7,0.9-0.9,1.5
			c-0.2,0.6-0.3,1.2-0.3,1.8c0,0.6,0.1,1.2,0.3,1.8c0.2,0.6,0.5,1.1,0.9,1.5s0.9,0.8,1.5,1c0.6,0.3,1.4,0.4,2.3,0.4s1.7-0.1,2.3-0.4
			c0.6-0.3,1.1-0.6,1.5-1c0.4-0.4,0.7-0.9,0.9-1.5c0.2-0.6,0.3-1.2,0.3-1.8c0-0.6-0.1-1.2-0.3-1.8c-0.2-0.6-0.5-1.1-0.9-1.5
			c-0.4-0.4-0.9-0.8-1.5-1C341.3,560.3,340.5,560.2,339.6,560.2z M337.9,574.3c0.3,0,0.6,0.1,0.8,0.2c0.2,0.1,0.4,0.4,0.4,0.7v3.2
			h13.5v-3.2c0-0.3,0.1-0.6,0.4-0.7s0.5-0.2,0.8-0.2c0.3,0,0.6,0.1,0.8,0.2c0.2,0.1,0.4,0.4,0.4,0.7v8.7c0,0.8-0.2,1.4-0.5,1.7
			c-0.3,0.3-0.9,0.5-1.7,0.5h-13.7c-0.8,0-1.4-0.2-1.7-0.5c-0.3-0.3-0.5-0.9-0.5-1.7v-8.7c0-0.3,0.1-0.6,0.4-0.7
			C337.3,574.4,337.6,574.3,337.9,574.3z M339,583.5c0,0.4,0.2,0.6,0.6,0.6h12.3c0.4,0,0.6-0.2,0.6-0.6v-3.1H339V583.5z M353.7,557
			c0.3,0,0.6,0.1,0.8,0.2c0.2,0.1,0.4,0.4,0.4,0.7v13.7c0,0.3-0.1,0.6-0.4,0.7c-0.2,0.1-0.5,0.2-0.8,0.2c-0.3,0-0.6-0.1-0.8-0.2
			c-0.2-0.1-0.4-0.4-0.4-0.7V558c0-0.3,0.1-0.6,0.4-0.7C353.1,557.1,353.4,557,353.7,557z"/>
		<path class="st1" d="M363.5,558.9c0.3,0,0.6,0.1,0.8,0.2s0.4,0.4,0.4,0.7v14.4c0,0.4,0.2,0.6,0.6,0.6c2.5,0,4.7-0.1,6.7-0.2
			c2-0.1,4-0.3,5.9-0.6c0.3,0,0.5,0,0.6,0.2s0.3,0.4,0.3,0.7c0,0.3,0,0.6-0.1,0.8s-0.3,0.4-0.6,0.4c-0.8,0.1-1.7,0.2-2.6,0.3
			c-0.9,0.1-1.9,0.2-3,0.2c-1.1,0.1-2.3,0.1-3.6,0.1c-1.3,0-2.7,0-4.3,0c-0.8,0-1.4-0.2-1.7-0.5c-0.3-0.3-0.5-0.9-0.5-1.7v-14.9
			c0-0.3,0.1-0.6,0.4-0.7C362.9,559,363.2,558.9,363.5,558.9z M382.8,557c0.3,0,0.6,0.1,0.8,0.2s0.4,0.4,0.4,0.7v25.5
			c0,0.3-0.1,0.6-0.4,0.7c-0.2,0.1-0.5,0.2-0.8,0.2s-0.6-0.1-0.8-0.2c-0.2-0.1-0.4-0.4-0.4-0.7V558c0-0.3,0.1-0.6,0.4-0.7
			C382.2,557.1,382.5,557,382.8,557z"/>
		<path class="st1" d="M404.2,559.5c0.1,0.2,0.2,0.4,0.2,0.7c0,0.3-0.1,0.5-0.2,0.7c-0.1,0.2-0.3,0.3-0.6,0.3h-9.9
			c-0.4,0-0.6,0.2-0.6,0.6v12.5c0,0.4,0.2,0.6,0.6,0.6c2.4,0,4.5-0.1,6.5-0.2c2-0.1,3.9-0.3,5.8-0.6c0.3,0,0.5,0,0.6,0.2
			c0.2,0.2,0.3,0.4,0.3,0.7c0,0.3,0,0.6-0.1,0.8c-0.1,0.2-0.3,0.4-0.6,0.4c-0.8,0.1-1.7,0.2-2.6,0.3c-0.9,0.1-1.9,0.2-3,0.2
			c-1.1,0.1-2.3,0.1-3.5,0.1c-1.3,0-2.7,0-4.2,0c-0.8,0-1.4-0.2-1.7-0.5c-0.3-0.3-0.5-0.9-0.5-1.7v-13.5c0-0.8,0.2-1.4,0.5-1.7
			s0.9-0.5,1.7-0.5h10.6C403.8,559.2,404,559.3,404.2,559.5z M410.5,557c0.3,0,0.6,0.1,0.8,0.2s0.4,0.4,0.4,0.7v8.9h4.1
			c0.3,0,0.5,0.1,0.6,0.3c0.1,0.2,0.2,0.4,0.2,0.7c0,0.3-0.1,0.5-0.2,0.8c-0.1,0.2-0.3,0.3-0.6,0.3h-4.1v14.5c0,0.3-0.1,0.6-0.4,0.7
			c-0.2,0.1-0.5,0.2-0.8,0.2s-0.6-0.1-0.8-0.2c-0.2-0.1-0.4-0.4-0.4-0.7V558c0-0.3,0.1-0.6,0.4-0.7S410.2,557,410.5,557z"/>
		<path class="st1" d="M429.9,563.2c0.5,0,1,0.2,1.3,0.5c0.3,0.4,0.5,0.8,0.5,1.3c0,0.5-0.2,0.9-0.5,1.3c-0.3,0.4-0.8,0.5-1.3,0.5
			c-0.5,0-0.9-0.2-1.3-0.5c-0.4-0.4-0.5-0.8-0.5-1.3c0-0.5,0.2-0.9,0.5-1.3C429,563.3,429.4,563.2,429.9,563.2z M429.9,575.4
			c0.5,0,1,0.2,1.3,0.5c0.3,0.4,0.5,0.8,0.5,1.3c0,0.5-0.2,0.9-0.5,1.3c-0.3,0.4-0.8,0.5-1.3,0.5c-0.5,0-0.9-0.2-1.3-0.5
			c-0.4-0.4-0.5-0.8-0.5-1.3c0-0.5,0.2-0.9,0.5-1.3C429,575.6,429.4,575.4,429.9,575.4z"/>
		<path class="st1" d="M436.9,556.3c0.5-0.3,0.9-0.2,1.3,0.3c1.5,1.8,2.6,4,3.3,6.4c0.7,2.4,1.1,5,1.1,7.7v0.7
			c0,2.7-0.4,5.3-1.1,7.7c-0.7,2.4-1.9,4.5-3.3,6.4c-0.4,0.5-0.8,0.6-1.3,0.3c-0.2-0.1-0.3-0.3-0.4-0.5c-0.1-0.2,0-0.4,0.1-0.7
			c1.2-1.9,2.1-3.9,2.7-6.1s0.9-4.5,0.9-6.9v-1c0-2.5-0.3-4.8-0.9-6.9s-1.5-4.2-2.7-6.1c-0.1-0.2-0.2-0.5-0.1-0.7
			C436.6,556.6,436.7,556.4,436.9,556.3z"/>
	</g>
	<path id="XMLID_8_" class="st2" d="M557.2,83.8c-8.7,0-15.8-7.1-15.8-15.8c0-6.8,10.2-28,15.8-38.9c5.6,10.8,15.8,32,15.8,38.9
		C573,76.7,565.9,83.8,557.2,83.8z"/>
	<path id="XMLID_12_" class="st2" d="M158.2-187.7c-8.7,0-15.8-7.1-15.8-15.8c0-6.8,10.2-28,15.8-38.9c5.6,10.8,15.8,32,15.8,38.9
		C174-194.8,166.9-187.7,158.2-187.7z"/>
	<g id="XMLID_157_">
		<line id="XMLID_174_" class="st3" x1="740.7" y1="268.8" x2="740.7" y2="254.5"/>
		<line id="XMLID_158_" class="st3" x1="724" y1="268.8" x2="724" y2="254.5"/>
	</g>
	<g id="XMLID_200_">
		<line id="XMLID_202_" class="st3" x1="445.7" y1="146.7" x2="445.7" y2="132.4"/>
		<line id="XMLID_201_" class="st3" x1="429" y1="146.7" x2="429" y2="132.4"/>
	</g>
	<g id="XMLID_160_">
		<ellipse id="XMLID_162_" class="st2" cx="566.7" cy="-307.8" rx="14" ry="9"/>
		<line id="XMLID_161_" class="st4" x1="580.7" y1="-309.5" x2="580.7" y2="-365.6"/>
	</g>
	<g id="XMLID_163_">
		<ellipse id="XMLID_165_" class="st2" cx="175.3" cy="106.3" rx="14" ry="9"/>
		<line id="XMLID_164_" class="st4" x1="189.2" y1="104.6" x2="189.2" y2="48.5"/>
	</g>
	<circle id="XMLID_166_" class="st2" cx="302.7" cy="43.3" r="9.9"/>
	<circle id="XMLID_167_" class="st2" cx="739.2" cy="179.8" r="9.9"/>
	<line id="XMLID_14_" class="st3" x1="665.7" y1="-284.9" x2="665.7" y2="-343.6"/>
	<line id="XMLID_32_" class="st3" x1="310.2" y1="-51.2" x2="310.2" y2="-84.1"/>
	<line id="XMLID_155_" class="st3" x1="782.7" y1="164.8" x2="782.7" y2="113.9"/>
	<line id="XMLID_156_" class="st3" x1="116.7" y1="158.8" x2="116.7" y2="115.4"/>
	<line id="XMLID_15_" class="st3" x1="665.7" y1="-254.2" x2="665.7" y2="-269.6"/>
	<path id="XMLID_85_" class="st5" d="M145.8,364.5h579.8c23.9,0,43.5,19.6,43.5,43.5l-1.8,333.5v421.3c0,23.9,19.6,43.5,43.5,43.5
		h91.6"/>
	<g class="st0">
		<path class="st1" d="M175.5,490.2c-0.9-0.9-1.3-2-1.3-3.4v-36.3c0-1.4,0.4-2.6,1.3-3.4c0.9-0.9,2-1.3,3.2-1.3
			c1.2,0,2.3,0.4,3.2,1.3c0.9,0.9,1.4,2,1.4,3.4v36.3c0,1.4-0.5,2.6-1.4,3.4c-0.9,0.9-2,1.3-3.2,1.3
			C177.4,491.5,176.4,491.1,175.5,490.2z"/>
		<path class="st1" d="M201.8,483.2c1.5,1.9,3.6,2.9,6.3,2.9c2.6,0,4.7-0.5,6.4-1.7c0.5-0.4,1.1-0.5,1.6-0.5c0.7,0,1.2,0.3,1.7,0.8
			c0.5,0.5,0.7,1.1,0.7,1.9c0,1-0.4,1.8-1.3,2.5c-0.9,0.8-2.2,1.5-3.9,2c-1.7,0.5-3.7,0.8-6,0.8c-4.7,0-8.5-1.5-11.5-4.6
			c-3-3.1-4.4-7-4.4-11.8c0-3,0.7-5.7,2-8.2c1.3-2.5,3.2-4.4,5.7-5.9c2.5-1.5,5.2-2.2,8.3-2.2c3.7,0,6.7,0.8,9,2.5
			c1,0.7,1.4,1.5,1.4,2.5c0,0.7-0.2,1.3-0.7,1.8s-1.1,0.8-1.8,0.8c-0.5,0-1-0.1-1.5-0.4c-1.9-1-3.8-1.4-5.6-1.4
			c-2.8,0-4.9,1-6.5,2.9c-1.6,1.9-2.3,4.5-2.3,7.6C199.5,478.7,200.3,481.2,201.8,483.2z"/>
		<path class="st1" d="M231.8,490.5c-2.2-0.9-3.9-2.1-5.2-3.7c-1.3-1.5-2.3-3.3-3-5.2c-0.7-1.9-1-3.9-1-6.1c0-1.7,0.2-3.3,0.6-4.9
			c0.4-1.6,1.1-3.1,2-4.5s2-2.6,3.3-3.7c1.3-1,2.8-1.9,4.7-2.5c1.9-0.6,3.9-0.9,6.1-0.9c2.2,0,4.2,0.3,6,0.9
			c1.8,0.6,3.4,1.4,4.7,2.4c1.3,1,2.4,2.2,3.3,3.6c0.9,1.4,1.6,2.9,2,4.5c0.4,1.6,0.7,3.3,0.7,5c0,1.7-0.2,3.3-0.6,4.8
			c-0.4,1.5-1.1,3-1.9,4.4c-0.9,1.4-2,2.6-3.2,3.7s-2.9,1.8-4.7,2.5c-1.9,0.6-3.9,0.9-6.2,0.9C236.5,491.9,234,491.4,231.8,490.5z
			 M245.7,483.6c1.5-1.9,2.3-4.6,2.3-8c0-3.4-0.8-6.1-2.3-8.1c-1.5-1.9-3.7-2.9-6.4-2.9c-2.8,0-4.9,1-6.4,2.9
			c-1.5,1.9-2.3,4.6-2.3,8.1c0,3.4,0.8,6.1,2.3,8s3.6,2.9,6.4,2.9C242,486.5,244.1,485.5,245.7,483.6z"/>
		<path class="st1" d="M263.8,490.4c-0.7-0.8-1.1-1.8-1.1-3.2v-23.5c0-1.3,0.4-2.3,1.1-3s1.7-1,2.9-1c1.1,0,2.1,0.3,2.8,1
			c0.7,0.7,1.1,1.7,1.1,2.9v1.1c0.9-1.8,2.3-3.2,4.1-4.1c1.8-0.9,3.9-1.4,6.4-1.4c1.5,0,3,0.2,4.3,0.7c1.3,0.5,2.5,1.2,3.6,2.2
			c1.1,1,1.9,2.2,2.5,3.8c0.6,1.6,0.9,3.4,0.9,5.4v15.7c0,1.4-0.4,2.4-1.1,3.2s-1.7,1.2-2.9,1.2c-1.1,0-2.1-0.4-2.8-1.2
			c-0.7-0.8-1.1-1.8-1.1-3.2v-15.7c0-2.2-0.6-3.8-1.7-5c-1.1-1.2-2.6-1.7-4.3-1.7c-2.1,0-3.9,0.8-5.5,2.5c-1.5,1.7-2.3,3.9-2.3,6.5
			v13.4c0,1.4-0.4,2.4-1.1,3.2c-0.8,0.8-1.7,1.2-2.9,1.2C265.4,491.5,264.5,491.1,263.8,490.4z"/>
		<path class="st1" d="M302.9,489.9c-0.8-1-1.3-2.3-1.3-3.8v-35.1c0-1.7,0.4-3,1.3-3.9c0.9-1,2.1-1.4,3.7-1.4h10.1
			c8.2,0,14.5,2,18.7,5.9c4.2,3.9,6.3,9.7,6.3,17.2c0,7.3-2.1,12.9-6.3,16.8c-4.2,3.9-10.2,5.8-17.9,5.8h-11.3
			C304.9,491.5,303.8,491,302.9,489.9z M317.8,484.5c5.4,0,9.1-1.2,11.3-3.7c2.1-2.5,3.2-6.5,3.2-12.2c0-3.9-0.6-7-1.7-9.3
			c-1.1-2.3-2.7-4-4.9-5c-2.2-1-5-1.5-8.6-1.5h-6.4v31.7H317.8z"/>
		<path class="st1" d="M349.5,467.3c1.2-2.4,3-4.3,5.4-5.8c2.4-1.5,5.2-2.2,8.4-2.2c2.5,0,4.6,0.4,6.5,1.2c1.9,0.8,3.4,1.9,4.6,3.4
			c1.2,1.4,2,3.1,2.6,4.9c0.6,1.8,0.9,3.7,0.9,5.8c0,0.8-0.2,1.5-0.6,2s-1,0.8-1.7,0.8h-20.1c0.3,6,3.4,9,9.2,9
			c2.6,0,5.4-1.1,8.4-3.2c0.4-0.3,0.8-0.4,1.2-0.4c0.7,0,1.2,0.3,1.7,0.9c0.5,0.6,0.8,1.3,0.8,2c0,0.8-0.3,1.6-1,2.2
			c-3.3,2.8-7.2,4.2-11.7,4.2c-5,0-9-1.5-12-4.4c-3-2.9-4.5-7-4.5-12.2C347.7,472.4,348.3,469.7,349.5,467.3z M371.2,472.9
			c-0.2-2.4-0.9-4.4-2.1-6c-1.2-1.6-3.1-2.3-5.5-2.3c-2.4,0-4.2,0.8-5.6,2.4c-1.3,1.6-2.1,3.6-2.3,5.9H371.2z"/>
		<path class="st1" d="M383.1,486.2c0-0.7,0.2-1.3,0.7-1.8c0.5-0.5,1.1-0.8,1.8-0.8c0.5,0,1.1,0.2,1.7,0.5c0.9,0.5,1.7,0.9,2.2,1.2
			c0.6,0.3,1.5,0.6,2.7,0.9c1.2,0.3,2.5,0.5,3.7,0.5c1.2,0,2.3-0.1,3.3-0.4c1-0.2,1.8-0.7,2.5-1.3c0.7-0.6,1-1.5,1-2.5
			c0-1.8-1.5-3.1-4.4-3.8l-5-1.3c-1.5-0.4-2.7-0.8-3.6-1.1c-0.9-0.3-1.9-0.7-2.8-1.2c-1-0.5-1.7-1-2.2-1.7c-0.5-0.6-0.9-1.4-1.2-2.3
			s-0.5-2-0.5-3.2c0-2.9,1.2-5.1,3.5-6.7c2.3-1.6,5.4-2.3,9.2-2.3c3.7,0,7.1,0.8,10.4,2.4c1.1,0.6,1.7,1.4,1.7,2.5
			c0,0.7-0.2,1.3-0.7,1.7c-0.4,0.5-1,0.7-1.7,0.7c-0.4,0-0.8-0.1-1.2-0.3c0,0-0.3-0.1-0.7-0.3c-0.4-0.2-0.8-0.3-0.9-0.3
			c-0.2-0.1-0.5-0.2-1-0.3c-0.5-0.2-0.9-0.3-1.3-0.3c-0.3-0.1-0.8-0.2-1.3-0.3c-0.5-0.1-1-0.2-1.4-0.2c-0.5,0-1-0.1-1.4-0.1
			c-1.6,0-3,0.3-4.2,0.8c-1.1,0.5-1.7,1.4-1.7,2.5c0,1,0.3,1.7,0.9,2.2c0.6,0.5,1.8,0.9,3.6,1.3l4.9,1.2c3.4,0.8,5.9,2,7.5,3.5
			c1.6,1.5,2.4,3.5,2.4,6.1c0,3.2-1.2,5.7-3.6,7.4c-2.4,1.7-5.5,2.6-9.3,2.6c-4.9,0-9.1-1.2-12.4-3.7
			C383.5,487.8,383.1,487.1,383.1,486.2z"/>
		<path class="st1" d="M416.8,452.1c-0.9-0.8-1.3-1.9-1.3-3.2c0-1.3,0.4-2.4,1.3-3.2c0.9-0.8,2-1.2,3.4-1.2c1.4,0,2.5,0.4,3.3,1.2
			c0.8,0.8,1.3,1.9,1.3,3.2c0,1.3-0.4,2.4-1.3,3.2c-0.9,0.8-2,1.2-3.3,1.2C418.8,453.3,417.6,452.9,416.8,452.1z M417.3,490.4
			c-0.7-0.8-1.1-1.9-1.1-3.3v-22.9c0-1.4,0.4-2.5,1.1-3.3c0.7-0.8,1.7-1.2,2.9-1.2c1.2,0,2.1,0.4,2.9,1.2c0.8,0.8,1.1,1.9,1.1,3.3
			v22.9c0,1.4-0.4,2.5-1.1,3.3c-0.8,0.8-1.7,1.2-2.9,1.2C419,491.5,418,491.1,417.3,490.4z"/>
		<path class="st1" d="M455,486.4c-1.8,3.4-5,5.1-9.5,5.1c-4.6,0-8.2-1.4-11-4.2c-2.8-2.8-4.1-6.7-4.1-11.5c0-4.9,1.3-8.9,4-11.9
			s6.3-4.6,10.9-4.6c2.6,0,4.6,0.4,6,1.3s2.7,2.2,3.8,3.9V463c0.1-1.1,0.5-1.9,1.2-2.5c0.7-0.6,1.5-0.9,2.5-0.9c1.1,0,2,0.4,2.7,1.2
			c0.7,0.8,1.1,1.9,1.1,3.3v26c0,5-1.5,8.8-4.4,11.5c-2.9,2.6-6.9,3.9-11.9,3.9c-2.3,0-4.4-0.2-6.5-0.7c-2.1-0.5-3.7-1.1-4.8-1.8
			c-1-0.6-1.5-1.4-1.5-2.4c0-0.7,0.2-1.4,0.7-1.9c0.5-0.6,1.1-0.8,1.8-0.8c0.3,0,0.7,0.1,1,0.2c0.2,0.1,0.8,0.3,1.7,0.6
			s1.7,0.6,2.1,0.7s1.1,0.3,2,0.4c0.9,0.1,1.7,0.2,2.6,0.2c3,0,5.3-0.7,6.9-2.2s2.5-3.7,2.5-6.7V486.4z M452.8,483.6
			c1.5-1.7,2.2-4.4,2.2-8c0-7.3-2.7-11-8.1-11c-1.2,0-2.3,0.2-3.2,0.6s-1.7,0.9-2.4,1.6c-0.6,0.7-1.2,1.5-1.6,2.4
			c-0.4,0.9-0.7,1.9-0.9,3c-0.2,1-0.3,2.2-0.3,3.4c0,3.5,0.8,6.1,2.4,7.9c1.6,1.8,3.6,2.7,6,2.7
			C449.4,486.2,451.4,485.3,452.8,483.6z"/>
		<path class="st1" d="M472,490.4c-0.7-0.8-1.1-1.8-1.1-3.2v-23.5c0-1.3,0.4-2.3,1.1-3s1.7-1,2.9-1c1.1,0,2.1,0.3,2.8,1
			c0.7,0.7,1.1,1.7,1.1,2.9v1.1c0.9-1.8,2.3-3.2,4.1-4.1c1.8-0.9,3.9-1.4,6.4-1.4c1.5,0,3,0.2,4.3,0.7c1.3,0.5,2.5,1.2,3.6,2.2
			c1.1,1,1.9,2.2,2.5,3.8c0.6,1.6,0.9,3.4,0.9,5.4v15.7c0,1.4-0.4,2.4-1.1,3.2s-1.7,1.2-2.9,1.2c-1.1,0-2.1-0.4-2.8-1.2
			c-0.7-0.8-1.1-1.8-1.1-3.2v-15.7c0-2.2-0.6-3.8-1.7-5c-1.1-1.2-2.6-1.7-4.3-1.7c-2.1,0-3.9,0.8-5.5,2.5c-1.5,1.7-2.3,3.9-2.3,6.5
			v13.4c0,1.4-0.4,2.4-1.1,3.2c-0.8,0.8-1.7,1.2-2.9,1.2C473.6,491.5,472.7,491.1,472,490.4z"/>
	</g>
	<g id="XMLID_81_">
		<path id="XMLID_83_" class="st2" d="M189.3,632.5c-10.2,0-18.4,8-18.4,17.7c0,2.8,0.7,5.4,2,7.9v0.1l16.4,23.7l16.5-23.7
			c1.3-2.5,2-5.2,2-7.9C207.7,640.5,199.4,632.5,189.3,632.5z"/>
		<circle id="XMLID_82_" class="st6" cx="189.3" cy="649.2" r="7.8"/>
	</g>
	<g id="XMLID_71_">
		<path id="XMLID_80_" class="st7" d="M166.7,562.7v22.2c0,3.5,2.9,6.4,6.4,6.4h32.2c3.5,0,6.4-2.9,6.4-6.4v-22.2H166.7z"/>
		<path id="XMLID_79_" class="st2" d="M211.8,555c0-3.5-2.9-6.4-6.4-6.4h-32.2c-3.5,0-6.4,2.9-6.4,6.4v7.7h45.1V555H211.8z"/>
		<line id="XMLID_77_" class="st4" x1="176.3" y1="544.2" x2="176.3" y2="553"/>
		<line id="XMLID_76_" class="st4" x1="202.3" y1="544.2" x2="202.3" y2="553"/>
		<circle id="XMLID_74_" class="st2" cx="203.2" cy="581.7" r="11"/>
		<line id="XMLID_73_" class="st4" x1="203.2" y1="578.3" x2="203.2" y2="581.7"/>
		<line id="XMLID_72_" class="st4" x1="206.7" y1="581.7" x2="203.2" y2="581.7"/>
	</g>
	<line id="XMLID_70_" class="st3" x1="189.3" y1="742.6" x2="189.3" y2="866.6"/>
	<circle id="XMLID_69_" class="st2" cx="189.3" cy="734.5" r="9.9"/>
	<circle id="XMLID_55_" class="st2" cx="189.3" cy="799.5" r="9.9"/>
	<circle id="XMLID_54_" class="st2" cx="189.3" cy="864.5" r="9.9"/>
	<g id="XMLID_20_">
		<polygon id="XMLID_52_" class="st8" points="174.6,932.4 184.3,938 174.2,950.4 180.6,955.6 190.7,943.2 198.3,951.6 206.7,916.7 
					"/>
	</g>
	<path id="XMLID_173_" class="st9" d="M464,15.3h-1.1c0-15-12.2-27.2-27.2-27.2s-27.2,12.2-27.2,27.2h-8.9
		c-12.9,0-23.4,10.5-23.4,23.4s10.5,23.4,23.4,23.4h64.3c12.9,0,23.4-10.5,23.4-23.4S476.9,15.3,464,15.3z"/>
	<g id="XMLID_149_">
		<g id="XMLID_152_">
			<polygon id="XMLID_154_" class="st7" points="459.3,266.6 493.5,207.4 553,207.4 587.3,266.6 			"/>
		</g>
		<polygon id="XMLID_151_" class="st7" points="527.7,266.6 493.5,207.4 459.3,266.6 		"/>
		<line id="XMLID_150_" class="st3" x1="493.5" y1="244.2" x2="493.5" y2="266.1"/>
	</g>
	<g id="XMLID_142_">
		<g id="XMLID_147_">
			<polygon id="XMLID_148_" class="st9" points="735.5,336.9 691.3,260.2 614.2,260.2 570,336.9 			"/>
		</g>
		<polygon id="XMLID_145_" class="st9" points="647,336.9 691.3,260.2 735.5,336.9 		"/>
		<line id="XMLID_144_" class="st3" x1="691.3" y1="307.8" x2="691.3" y2="336.2"/>
	</g>
	<g id="XMLID_159_">
		<path id="XMLID_171_" class="st7" d="M410.2-249.3c-71.2,0-113.3,62.1-113.3,62.1l0,0c0,0,42.1,62.1,113.3,62.1
			s113.3-62.1,113.3-62.1l0,0C523.5-187.2,481.4-249.3,410.2-249.3z"/>
		<circle id="XMLID_170_" class="st10" cx="410.2" cy="-187.2" r="49.6"/>
		<circle id="XMLID_169_" class="st7" cx="410.2" cy="-187.2" r="25.6"/>
		<circle id="XMLID_168_" class="st9" cx="428.8" cy="-202.3" r="14.1"/>
	</g>
	
		<rect id="XMLID_172_" x="271.1" y="-304.7" transform="matrix(0.7071 0.7071 -0.7071 0.7071 -124.0381 -285.8929)" class="st10" width="24" height="24"/>
	
		<rect id="XMLID_175_" x="440.6" y="-73.7" transform="matrix(0.7071 0.7071 -0.7071 0.7071 88.9403 -338.078)" class="st10" width="24" height="24"/>
	
		<rect id="XMLID_176_" x="584.6" y="-219.2" transform="matrix(0.7071 0.7071 -0.7071 0.7071 28.2418 -482.5125)" class="st10" width="24" height="24"/>
	<line id="XMLID_2_" class="st3" x1="493.5" y1="207.4" x2="493.5" y2="185.5"/>
	<polygon id="XMLID_204_" class="st8" points="493.5,185.8 532.2,185.8 518.5,172.4 518.5,172.4 518.5,172.4 518.5,172.4 
		518.5,172.4 518.5,172.4 518.5,172.4 532.2,159 493.5,159 	"/>
	<g id="XMLID_3_">
		<circle id="XMLID_5_" class="st7" cx="599.4" cy="166.5" r="34.3"/>
		<line id="XMLID_4_" class="st3" x1="599.4" y1="182.3" x2="599.4" y2="229"/>
	</g>
	<path id="XMLID_7_" class="st7" d="M197.3,342.6c-3.7,0-7.1,1.1-9.9,2.9c-3.7-6-10.7-10.1-18.8-10.1c-11.9,0-21.5,8.9-21.5,19.8
		c0,3.3,0.9,6.4,2.4,9.1H213c0.8-1.8,1.3-3.9,1.3-6C214.4,349.6,206.8,342.6,197.3,342.6z"/>
	<g id="XMLID_188_">
		<polygon id="XMLID_195_" class="st10" points="152.6,221 284.5,221 314.3,113.7 		"/>
		<polygon id="XMLID_191_" class="st9" points="314.3,113.7 314.3,113.7 284.5,221 475.9,221 		"/>
		<rect id="XMLID_190_" x="411.8" y="221" class="st7" width="23.4" height="143.6"/>
		<rect id="XMLID_189_" x="193.3" y="221" class="st7" width="23.4" height="143.6"/>
	</g>
	<g id="XMLID_181_">
		<rect id="XMLID_187_" x="228.2" y="288.8" class="st9" width="79.8" height="75.7"/>
		<rect id="XMLID_186_" x="301.6" y="243.9" class="st10" width="91.6" height="120.7"/>
		<circle id="XMLID_185_" class="st9" cx="347.4" cy="273.4" r="14.8"/>
		<circle id="XMLID_184_" class="st10" cx="268.1" cy="326.7" r="14.8"/>
		<circle id="XMLID_183_" class="st9" cx="347.4" cy="329" r="25.6"/>
		<circle id="XMLID_182_" class="st7" cx="347.4" cy="329" r="11.9"/>
	</g>
	<g id="XMLID_34_">
		<path id="XMLID_75_" class="st9" d="M697,96.6c-2.6,0-4.7-2.1-4.7-4.7V43.3c0-2.6,2.1-4.7,4.7-4.7s4.7,2.1,4.7,4.7v48.6
			C701.7,94.5,699.5,96.6,697,96.6z"/>
		<path id="XMLID_49_" class="st9" d="M710.4,94.5h-27.2c-2.3,0-4.2-1.6-4.6-3.8l-8.9-47.4c-0.3-1.4,0.1-2.8,1-3.9
			c0.9-1.1,2.2-1.7,3.6-1.7h45.1c1.4,0,2.7,0.6,3.6,1.7c0.9,1.1,1.3,2.5,1,3.9l-9,47.4C714.5,92.9,712.5,94.5,710.4,94.5z M687,85.2
			h19.5l7.2-38.1h-33.8L687,85.2z"/>
		<path id="XMLID_48_" class="st7" d="M719.4,82.4c1.4,0,2.4,1.2,2.2,2.6l-1.8,11.4l-3.2,20.8c-0.4,2.5-2.5,4.3-5,4.3h-28.9
			c-2.5,0-4.6-1.8-5-4.3l-2.8-17.9l-2.2-14.2c-0.2-1.4,0.8-2.6,2.2-2.6L719.4,82.4L719.4,82.4z"/>
		<path id="XMLID_46_" class="st10" d="M625.3-49.7c0-62.2,31.2-112.7,69.6-112.7c-62.2,0-112.7,50.5-112.7,112.7
			c0,48.1,30.1,89.1,72.5,105.3H670C643.9,39.4,625.3-1.7,625.3-49.7z"/>
		<path id="XMLID_45_" class="st7" d="M807.5-49.7c0-61.6-49.5-111.7-110.8-112.7l0,0c37.6,1.6,67.7,51.4,67.7,112.7
			c0,48.1-18.6,89.1-44.8,105.3H735C777.5,39.4,807.5-1.7,807.5-49.7z"/>
		<path id="XMLID_44_" class="st10" d="M719.7,55.6c26.2-16.2,44.8-57.3,44.8-105.3c0-61.2-30.2-111.1-67.7-112.7v218
			C696.8,55.6,719.7,55.6,719.7,55.6z"/>
		<path id="XMLID_43_" class="st7" d="M625.3-49.7c0,48.1,18.6,89.1,44.8,105.3h26.7v-218c-0.6,0-1.2,0-1.8,0
			C656.4-162.4,625.3-112,625.3-49.7z"/>
	</g>
	<g id="XMLID_78_">
		<path id="XMLID_141_" class="st3" d="M195.9-15.4h-12.3c-1,0-1.9-0.8-2.1-1.8l-4-22.7c-0.1-0.7,0-1.3,0.4-1.8s1-0.8,1.6-0.8h20.3
			c0.6,0,1.2,0.3,1.6,0.8c0.4,0.5,0.6,1.2,0.4,1.8l-4,22.7C197.8-16.2,196.9-15.4,195.9-15.4z"/>
		<path id="XMLID_140_" class="st7" d="M200.6-24.4c0.7,0,1.2,0.6,1.1,1.2l-0.8,5.4l-1.6,9.9c-0.2,1.2-1.2,2.1-2.4,2.1h-13.8
			c-1.2,0-2.2-0.9-2.4-2.1l-1.3-8.6l-1.1-6.8c-0.1-0.7,0.4-1.2,1.1-1.2h21.2V-24.4z"/>
		<path id="XMLID_108_" class="st10" d="M155.6-84.5c0-29.8,14.9-53.9,33.3-53.9c-29.8,0-53.9,24.1-53.9,53.9
			c0,23,14.4,42.6,34.7,50.4h7.4C164.5-41.8,155.6-61.5,155.6-84.5z"/>
		<path id="XMLID_107_" class="st7" d="M242.8-84.5c0-29.5-23.7-53.4-53-53.9l0,0c18,0.8,32.4,24.6,32.4,53.9
			c0,23-8.9,42.6-21.4,50.4h7.4C228.4-41.8,242.8-61.5,242.8-84.5z"/>
		<path id="XMLID_106_" class="st10" d="M200.8-34.1c12.5-7.7,21.4-27.4,21.4-50.4c0-29.3-14.4-53.1-32.4-53.9v104.3
			C189.8-34.1,200.8-34.1,200.8-34.1z"/>
		<path id="XMLID_105_" class="st7" d="M155.6-84.5c0,23,8.9,42.6,21.4,50.4h12.8v-104.3c-0.3,0-0.6,0-0.9,0
			C170.5-138.4,155.6-114.2,155.6-84.5z"/>
	</g>
	<path id="XMLID_180_" class="st2" d="M483,305.6c10,0,19.2,2.9,26.8,7.8c10-16.3,29-27.2,50.8-27.2c32.2,0,58.3,24,58.3,53.5
		c0,8.9-2.4,17.3-6.5,24.6H440.2c-2.3-5-3.5-10.5-3.5-16.2C436.7,324.6,457.5,305.6,483,305.6z"/>
	<g id="XMLID_177_">
		<line id="XMLID_179_" class="st3" x1="592.7" y1="362.4" x2="592.7" y2="348.6"/>
		<line id="XMLID_178_" class="st3" x1="578" y1="362.4" x2="578" y2="348.6"/>
	</g>
</g>
</svg>
