<?xml version="1.0" encoding="utf-8"?>
<!-- Generator: Adobe Illustrator 19.0.0, SVG Export Plug-In . SVG Version: 6.00 Build 0)  -->
<svg version="1.1" id="Layer_1" xmlns="http://www.w3.org/2000/svg" xmlns:xlink="http://www.w3.org/1999/xlink" x="0px" y="0px"
	 viewBox="106 -393.1 807 1627" style="enable-background:new 106 -393.1 807 1627;" xml:space="preserve">
<style type="text/css">
	.st0{fill:#3E3A39;}
	.st1{font-family:'NanumSquareRoundR';}
	.st2{font-size:32px;}
	.st3{fill:#60B383;stroke:#3E3A39;stroke-width:6;stroke-miterlimit:10;}
	.st4{fill:none;stroke:#3E3A39;stroke-width:6;stroke-linecap:round;stroke-linejoin:round;stroke-miterlimit:10;}
	.st5{fill:none;stroke:#3E3A39;stroke-width:6;stroke-linecap:round;stroke-miterlimit:10;}
	.st6{fill:none;stroke:#3E3A39;stroke-width:6;stroke-miterlimit:10;}
	.st7{font-family:'Nunito-Bold';}
	.st8{font-size:65px;}
	.st9{fill:#FFFFFF;stroke:#3E3A39;stroke-width:6;stroke-miterlimit:10;}
	.st10{fill:#FFFFFF;stroke:#3E3A39;stroke-width:6;stroke-linecap:round;stroke-linejoin:round;stroke-miterlimit:10;}
	.st11{fill:#60B383;stroke:#3E3A39;stroke-width:6;stroke-linecap:round;stroke-linejoin:round;stroke-miterlimit:10;}
	.st12{fill:#E0E0DF;stroke:#3E3A39;stroke-width:6;stroke-linecap:round;stroke-linejoin:round;stroke-miterlimit:10;}
	.st13{fill:#60B383;stroke:#3E3A39;stroke-width:6;stroke-linejoin:round;stroke-miterlimit:10;}
</style>
<g>
	<text id="XMLID_68_" transform="matrix(1 0 0 1 242.5805 581.7485)" class="st0 st1 st2">준비중입니다 :)</text>
	<path id="XMLID_8_" class="st3" d="M557.2,83.8c-8.7,0-15.8-7.1-15.8-15.8c0-6.8,10.2-28,15.8-38.9c5.6,10.8,15.8,32,15.8,38.9
		C573,76.7,565.9,83.8,557.2,83.8z"/>
	<path id="XMLID_12_" class="st3" d="M158.2-187.7c-8.7,0-15.8-7.1-15.8-15.8c0-6.8,10.2-28,15.8-38.9c5.6,10.8,15.8,32,15.8,38.9
		C174-194.8,166.9-187.7,158.2-187.7z"/>
	<g id="XMLID_157_">
		<line id="XMLID_174_" class="st4" x1="740.7" y1="268.8" x2="740.7" y2="254.5"/>
		<line id="XMLID_158_" class="st4" x1="724" y1="268.8" x2="724" y2="254.5"/>
	</g>
	<g id="XMLID_200_">
		<line id="XMLID_202_" class="st4" x1="445.7" y1="146.7" x2="445.7" y2="132.4"/>
		<line id="XMLID_201_" class="st4" x1="429" y1="146.7" x2="429" y2="132.4"/>
	</g>
	<g id="XMLID_160_">
		<ellipse id="XMLID_162_" class="st3" cx="566.7" cy="-307.8" rx="14" ry="9"/>
		<line id="XMLID_161_" class="st5" x1="580.7" y1="-309.5" x2="580.7" y2="-365.6"/>
	</g>
	<g id="XMLID_163_">
		<ellipse id="XMLID_165_" class="st3" cx="175.3" cy="106.3" rx="14" ry="9"/>
		<line id="XMLID_164_" class="st5" x1="189.2" y1="104.6" x2="189.2" y2="48.5"/>
	</g>
	<circle id="XMLID_166_" class="st3" cx="302.7" cy="43.3" r="9.9"/>
	<circle id="XMLID_167_" class="st3" cx="739.2" cy="179.8" r="9.9"/>
	<line id="XMLID_14_" class="st4" x1="665.7" y1="-284.9" x2="665.7" y2="-343.6"/>
	<line id="XMLID_32_" class="st4" x1="310.2" y1="-51.2" x2="310.2" y2="-84.1"/>
	<line id="XMLID_155_" class="st4" x1="782.7" y1="164.8" x2="782.7" y2="113.9"/>
	<line id="XMLID_156_" class="st4" x1="116.7" y1="158.8" x2="116.7" y2="115.4"/>
	<line id="XMLID_15_" class="st4" x1="665.7" y1="-254.2" x2="665.7" y2="-269.6"/>
	<path id="XMLID_85_" class="st6" d="M145.8,364.5h579.8c23.9,0,43.5,19.6,43.5,43.5l-1.8,333.5v421.3c0,23.9,19.6,43.5,43.5,43.5
		h91.6"/>
	<text id="XMLID_84_" transform="matrix(1 0 0 1 168.4611 491.476)" class="st0 st7 st8">IconDesign</text>
	<g id="XMLID_81_">
		<path id="XMLID_83_" class="st3" d="M189.3,632.5c-10.2,0-18.4,8-18.4,17.7c0,2.8,0.7,5.4,2,7.9v0.1l16.4,23.7l16.5-23.7
			c1.3-2.5,2-5.2,2-7.9C207.7,640.5,199.4,632.5,189.3,632.5z"/>
		<circle id="XMLID_82_" class="st9" cx="189.3" cy="649.2" r="7.8"/>
	</g>
	<g id="XMLID_71_">
		<path id="XMLID_80_" class="st10" d="M166.7,562.7v22.2c0,3.5,2.9,6.4,6.4,6.4h32.2c3.5,0,6.4-2.9,6.4-6.4v-22.2H166.7z"/>
		<path id="XMLID_79_" class="st3" d="M211.8,555c0-3.5-2.9-6.4-6.4-6.4h-32.2c-3.5,0-6.4,2.9-6.4,6.4v7.7h45.1V555H211.8z"/>
		<line id="XMLID_77_" class="st5" x1="176.3" y1="544.2" x2="176.3" y2="553"/>
		<line id="XMLID_76_" class="st5" x1="202.3" y1="544.2" x2="202.3" y2="553"/>
		<circle id="XMLID_74_" class="st3" cx="203.2" cy="581.7" r="11"/>
		<line id="XMLID_73_" class="st5" x1="203.2" y1="578.3" x2="203.2" y2="581.7"/>
		<line id="XMLID_72_" class="st5" x1="206.7" y1="581.7" x2="203.2" y2="581.7"/>
	</g>
	<line id="XMLID_70_" class="st4" x1="189.3" y1="742.6" x2="189.3" y2="866.6"/>
	<circle id="XMLID_69_" class="st3" cx="189.3" cy="734.5" r="9.9"/>
	<circle id="XMLID_55_" class="st3" cx="189.3" cy="799.5" r="9.9"/>
	<circle id="XMLID_54_" class="st3" cx="189.3" cy="864.5" r="9.9"/>
	<g id="XMLID_20_">
		<polygon id="XMLID_52_" class="st11" points="174.6,932.4 184.3,938 174.2,950.4 180.6,955.6 190.7,943.2 198.3,951.6 
			206.7,916.7 		"/>
	</g>
	<path id="XMLID_173_" class="st12" d="M464,15.3h-1.1c0-15-12.2-27.2-27.2-27.2s-27.2,12.2-27.2,27.2h-8.9
		c-12.9,0-23.4,10.5-23.4,23.4s10.5,23.4,23.4,23.4h64.3c12.9,0,23.4-10.5,23.4-23.4S476.9,15.3,464,15.3z"/>
	<g id="XMLID_149_">
		<g id="XMLID_152_">
			<polygon id="XMLID_154_" class="st10" points="459.3,266.6 493.5,207.4 553,207.4 587.3,266.6 			"/>
		</g>
		<polygon id="XMLID_151_" class="st10" points="527.7,266.6 493.5,207.4 459.3,266.6 		"/>
		<line id="XMLID_150_" class="st4" x1="493.5" y1="244.2" x2="493.5" y2="266.1"/>
	</g>
	<g id="XMLID_142_">
		<g id="XMLID_147_">
			<polygon id="XMLID_148_" class="st12" points="735.5,336.9 691.3,260.2 614.2,260.2 570,336.9 			"/>
		</g>
		<polygon id="XMLID_145_" class="st12" points="647,336.9 691.3,260.2 735.5,336.9 		"/>
		<line id="XMLID_144_" class="st4" x1="691.3" y1="307.8" x2="691.3" y2="336.2"/>
	</g>
	<g id="XMLID_159_">
		<path id="XMLID_171_" class="st10" d="M410.2-249.3c-71.2,0-113.3,62.1-113.3,62.1l0,0c0,0,42.1,62.1,113.3,62.1
			s113.3-62.1,113.3-62.1l0,0C523.5-187.2,481.4-249.3,410.2-249.3z"/>
		<circle id="XMLID_170_" class="st13" cx="410.2" cy="-187.2" r="49.6"/>
		<circle id="XMLID_169_" class="st10" cx="410.2" cy="-187.2" r="25.6"/>
		<circle id="XMLID_168_" class="st12" cx="428.8" cy="-202.3" r="14.1"/>
	</g>
	
		<rect id="XMLID_172_" x="271.2" y="-304.7" transform="matrix(-0.7071 -0.7071 0.7071 -0.7071 690.353 -299.4311)" class="st13" width="24" height="24"/>
	
		<rect id="XMLID_175_" x="440.7" y="-73.7" transform="matrix(-0.7071 -0.7071 0.7071 -0.7071 816.3486 214.7576)" class="st13" width="24" height="24"/>
	
		<rect id="XMLID_176_" x="584.7" y="-219.2" transform="matrix(-0.7071 -0.7071 0.7071 -0.7071 1165.0526 68.2101)" class="st13" width="24" height="24"/>
	<line id="XMLID_2_" class="st4" x1="493.5" y1="207.4" x2="493.5" y2="185.5"/>
	<polygon id="XMLID_204_" class="st11" points="493.5,185.8 532.2,185.8 518.5,172.4 518.5,172.4 518.5,172.4 518.5,172.4 
		518.5,172.4 518.5,172.4 518.5,172.4 532.2,159 493.5,159 	"/>
	<g id="XMLID_3_">
		<circle id="XMLID_5_" class="st10" cx="599.4" cy="166.5" r="34.3"/>
		<line id="XMLID_4_" class="st4" x1="599.4" y1="182.3" x2="599.4" y2="229"/>
	</g>
	<path id="XMLID_7_" class="st10" d="M197.3,342.6c-3.7,0-7.1,1.1-9.9,2.9c-3.7-6-10.7-10.1-18.8-10.1c-11.9,0-21.5,8.9-21.5,19.8
		c0,3.3,0.9,6.4,2.4,9.1H213c0.8-1.8,1.3-3.9,1.3-6C214.4,349.6,206.8,342.6,197.3,342.6z"/>
	<g id="XMLID_188_">
		<polygon id="XMLID_195_" class="st13" points="152.6,221 284.5,221 314.3,113.7 		"/>
		<polygon id="XMLID_191_" class="st12" points="314.3,113.7 314.3,113.7 284.5,221 475.9,221 		"/>
		<rect id="XMLID_190_" x="411.8" y="221" class="st10" width="23.4" height="143.6"/>
		<rect id="XMLID_189_" x="193.3" y="221" class="st10" width="23.4" height="143.6"/>
	</g>
	<g id="XMLID_181_">
		<rect id="XMLID_187_" x="228.2" y="288.8" class="st12" width="79.8" height="75.7"/>
		<rect id="XMLID_186_" x="301.6" y="243.9" class="st13" width="91.6" height="120.7"/>
		<circle id="XMLID_185_" class="st12" cx="347.4" cy="273.4" r="14.8"/>
		<circle id="XMLID_184_" class="st13" cx="268.1" cy="326.7" r="14.8"/>
		<circle id="XMLID_183_" class="st12" cx="347.4" cy="329" r="25.6"/>
		<circle id="XMLID_182_" class="st10" cx="347.4" cy="329" r="11.9"/>
	</g>
	<g id="XMLID_34_">
		<path id="XMLID_75_" class="st12" d="M697,96.6c-2.6,0-4.7-2.1-4.7-4.7V43.3c0-2.6,2.1-4.7,4.7-4.7s4.7,2.1,4.7,4.7v48.6
			C701.7,94.5,699.5,96.6,697,96.6z"/>
		<path id="XMLID_49_" class="st12" d="M710.4,94.5h-27.2c-2.3,0-4.2-1.6-4.6-3.8l-8.9-47.4c-0.3-1.4,0.1-2.8,1-3.9
			c0.9-1.1,2.2-1.7,3.6-1.7h45.1c1.4,0,2.7,0.6,3.6,1.7c0.9,1.1,1.3,2.5,1,3.9L715,90.7C714.5,92.9,712.5,94.5,710.4,94.5z
			 M687,85.2h19.5l7.2-38.1h-33.8L687,85.2z"/>
		<path id="XMLID_48_" class="st10" d="M719.4,82.4c1.4,0,2.4,1.2,2.2,2.6l-1.8,11.4l-3.2,20.8c-0.4,2.5-2.5,4.3-5,4.3h-28.9
			c-2.5,0-4.6-1.8-5-4.3l-2.8-17.9l-2.2-14.2c-0.2-1.4,0.8-2.6,2.2-2.6L719.4,82.4L719.4,82.4z"/>
		<path id="XMLID_46_" class="st13" d="M625.3-49.7c0-62.2,31.2-112.7,69.6-112.7c-62.2,0-112.7,50.5-112.7,112.7
			c0,48.1,30.1,89.1,72.5,105.3H670C643.9,39.4,625.3-1.7,625.3-49.7z"/>
		<path id="XMLID_45_" class="st10" d="M807.5-49.7c0-61.6-49.5-111.7-110.8-112.7l0,0c37.6,1.6,67.7,51.4,67.7,112.7
			c0,48.1-18.6,89.1-44.8,105.3h15.4C777.5,39.4,807.5-1.7,807.5-49.7z"/>
		<path id="XMLID_44_" class="st13" d="M719.7,55.6c26.2-16.2,44.8-57.3,44.8-105.3c0-61.2-30.2-111.1-67.7-112.7v218
			C696.8,55.6,719.7,55.6,719.7,55.6z"/>
		<path id="XMLID_43_" class="st10" d="M625.3-49.7c0,48.1,18.6,89.1,44.8,105.3h26.7v-218c-0.6,0-1.2,0-1.8,0
			C656.4-162.4,625.3-112,625.3-49.7z"/>
	</g>
	<g id="XMLID_78_">
		<path id="XMLID_141_" class="st4" d="M195.9-15.4h-12.3c-1,0-1.9-0.8-2.1-1.8l-4-22.7c-0.1-0.7,0-1.3,0.4-1.8s1-0.8,1.6-0.8h20.3
			c0.6,0,1.2,0.3,1.6,0.8s0.6,1.2,0.4,1.8l-4,22.7C197.8-16.2,196.9-15.4,195.9-15.4z"/>
		<path id="XMLID_140_" class="st10" d="M200.6-24.4c0.7,0,1.2,0.6,1.1,1.2l-0.8,5.4l-1.6,9.9c-0.2,1.2-1.2,2.1-2.4,2.1h-13.8
			c-1.2,0-2.2-0.9-2.4-2.1l-1.3-8.6l-1.1-6.8c-0.1-0.7,0.4-1.2,1.1-1.2h21.2V-24.4z"/>
		<path id="XMLID_108_" class="st13" d="M155.6-84.5c0-29.8,14.9-53.9,33.3-53.9c-29.8,0-53.9,24.1-53.9,53.9
			c0,23,14.4,42.6,34.7,50.4h7.4C164.5-41.8,155.6-61.5,155.6-84.5z"/>
		<path id="XMLID_107_" class="st10" d="M242.8-84.5c0-29.5-23.7-53.4-53-53.9l0,0c18,0.8,32.4,24.6,32.4,53.9
			c0,23-8.9,42.6-21.4,50.4h7.4C228.4-41.8,242.8-61.5,242.8-84.5z"/>
		<path id="XMLID_106_" class="st13" d="M200.8-34.1c12.5-7.7,21.4-27.4,21.4-50.4c0-29.3-14.4-53.1-32.4-53.9v104.3
			C189.8-34.1,200.8-34.1,200.8-34.1z"/>
		<path id="XMLID_105_" class="st10" d="M155.6-84.5c0,23,8.9,42.6,21.4,50.4h12.8v-104.3c-0.3,0-0.6,0-0.9,0
			C170.5-138.4,155.6-114.2,155.6-84.5z"/>
	</g>
	<path id="XMLID_180_" class="st3" d="M483,305.6c10,0,19.2,2.9,26.8,7.8c10-16.3,29-27.2,50.8-27.2c32.2,0,58.3,24,58.3,53.5
		c0,8.9-2.4,17.3-6.5,24.6H440.2c-2.3-5-3.5-10.5-3.5-16.2C436.7,324.6,457.5,305.6,483,305.6z"/>
	<g id="XMLID_177_">
		<line id="XMLID_179_" class="st4" x1="592.7" y1="362.4" x2="592.7" y2="348.6"/>
		<line id="XMLID_178_" class="st4" x1="578" y1="362.4" x2="578" y2="348.6"/>
	</g>
</g>
</svg>
