<?xml version="1.0" encoding="utf-8"?>
<!-- Generator: Adobe Illustrator 24.1.0, SVG Export Plug-In . SVG Version: 6.00 Build 0)  -->
<svg version="1.1" id="Layer_1" xmlns="http://www.w3.org/2000/svg" xmlns:xlink="http://www.w3.org/1999/xlink" x="0px" y="0px"
	 viewBox="0 0 652 366" style="enable-background:new 0 0 652 366;" xml:space="preserve">
<style type="text/css">
	.st0{fill:none;stroke:#3E3A39;stroke-width:6;stroke-linecap:round;stroke-linejoin:round;stroke-miterlimit:10;}
	.st1{fill:#61BB87;stroke:#3E3A39;stroke-width:6;stroke-miterlimit:10;}
	.st2{fill:#FFFFFF;}
</style>
<line id="XMLID_1380_" class="st0" x1="547.38" y1="204.75" x2="562.59" y2="204.75"/>
<line id="XMLID_1379_" class="st0" x1="572.06" y1="204.75" x2="580.85" y2="204.75"/>
<g id="XMLID_1376_">
	<path id="XMLID_1378_" class="st0" d="M82.22,259.58c0,0,21.86,8.87,42.78-18.06s39.29-54.26,103.62-55.33"/>
	<line id="XMLID_1377_" class="st0" x1="49.15" y1="259.58" x2="69.71" y2="259.58"/>
</g>
<path id="XMLID_1373_" class="st1" d="M356.93,95.67c-2.83-5.23-6.24-10.12-10.15-14.59l1.19-8.19c0.71-4.85,2.95-12.24-1.18-14.89
	l-17.11-11.04c-4.14-2.65-9.91,2.54-14.04,5.18l-7,4.51c-5.68-1.69-11.54-2.75-17.45-3.16l-4.97-6.68
	c-2.92-3.93-6.53-10.8-11.36-9.74l-19.92,4.34c-4.79,1.03-5.22,8.79-6.27,13.54l-1.77,8.11c-5.23,2.83-10.12,6.24-14.59,10.15
	l-8.2-1.18c-4.85-0.71-12.22-2.97-14.87,1.17L198.18,90.3c-2.65,4.14,2.52,9.92,5.19,14.05l4.51,6.98
	c-1.69,5.69-2.75,11.55-3.16,17.48l-6.68,4.94c-3.93,2.92-10.82,6.54-9.75,11.37l4.34,19.92c1.03,4.79,8.79,5.22,13.54,6.27
	l8.12,1.78c2.83,5.21,6.22,10.1,10.13,14.56l-1.18,8.2c-0.71,4.88-2.97,12.22,1.17,14.87l17.11,11.04
	c4.14,2.65,9.91-2.51,14.05-5.19l6.99-4.52c5.69,1.69,11.54,2.76,17.46,3.18l4.97,6.68c2.92,3.93,6.54,10.82,11.37,9.75l19.92-4.34
	c4.77-0.93,5.19-8.7,6.25-13.5l1.78-8.12c5.22-2.83,10.11-6.23,14.58-10.14l8.2,1.18c4.88,0.71,12.24,2.95,14.89-1.18l11.04-17.11
	c2.65-4.14-2.51-9.91-5.18-14.04l-4.52-7.02c1.68-5.68,2.74-11.52,3.16-17.42L356.93,95.67z M249.09,160.02
	c-13.61-19.57-8.23-46.82,12-60.9c20.23-14.07,47.66-9.64,61.27,9.93s8.23,46.82-12,60.9C290.12,184.02,262.7,179.59,249.09,160.02z
	"/>
<path id="XMLID_1370_" class="st1" d="M454.89,164.19l-2.34-4.85c1.53-3.53,2.67-7.22,3.39-11l4.65-2.68
	c2.77-1.58,7.42-3.38,7.12-6.55l-1.2-13.14c-0.3-3.17-5.24-4.05-8.25-5.09l-5.11-1.78c-1.41-3.57-3.2-6.97-5.35-10.15l1.43-5.22
	c0.84-3.06,2.9-7.65,0.43-9.68l-10.17-8.43c-2.44-2.03-6.58,0.85-9.42,2.21l-4.84,2.34c-3.53-1.53-7.22-2.67-11.01-3.39l-2.67-4.65
	c-1.58-2.76-3.38-7.42-6.55-7.12l-13.14,1.2c-3.17,0.3-4.04,5.25-5.09,8.25l-1.77,5.1c-3.57,1.41-6.98,3.21-10.16,5.36l-5.2-1.42
	c-3.06-0.84-7.65-2.9-9.68-0.43l-8.43,10.17c-2.03,2.44,0.85,6.57,2.21,9.41l2.34,4.84c-1.53,3.53-2.67,7.22-3.39,11.01l-4.65,2.68
	c-2.76,1.58-7.42,3.37-7.12,6.54l1.2,13.14c0.3,3.17,5.25,4.05,8.26,5.1l5.09,1.76c1.41,3.58,3.21,6.99,5.37,10.18l-1.43,5.19
	c-0.84,3.06-2.91,7.66-0.43,9.7l10.17,8.43c2.44,2.03,6.57-0.85,9.41-2.21l4.85-2.34c3.52,1.53,7.21,2.66,10.98,3.38l2.68,4.65
	c1.58,2.77,3.37,7.42,6.54,7.12l13.14-1.2c3.17-0.3,4.05-5.24,5.1-8.26l1.76-5.1c3.58-1.41,6.99-3.21,10.18-5.36l5.2,1.42
	c3.06,0.84,7.66,2.91,9.7,0.43l8.43-10.17C459.16,171.2,456.27,167.07,454.89,164.19z M395.92,166.08
	c-14.76-4.54-22.91-20.6-18.21-35.86s20.46-23.96,35.22-19.41c14.76,4.54,22.91,20.6,18.21,35.86
	C426.44,161.93,410.68,170.62,395.92,166.08z"/>
<g id="XMLID_1341_">
	<path id="XMLID_1350_" class="st0" d="M191.77,165.28c1.03,4.79,8.79,5.22,13.54,6.27l8.12,1.78c0.41,0.76,0.84,1.51,1.28,2.26
		l39.15-8.81c-2.06-1.95-3.95-4.12-5.63-6.53c-2.74-3.94-4.7-8.2-5.94-12.6l-51.82,11.66L191.77,165.28z"/>
	<path id="XMLID_1349_" class="st0" d="M223.55,187.89l-1.17,8.2c-0.01,0.07-0.02,0.15-0.04,0.23l71.51-16.09l-0.65-2.9
		c-14.08,3.11-28.91-0.68-39.35-10.55l-39.15,8.81C217.26,179.96,220.22,184.08,223.55,187.89z"/>
	<path id="XMLID_1348_" class="st0" d="M240.66,222.01c4.14,2.65,9.91-2.51,14.05-5.19l6.99-4.52c5.69,1.69,11.54,2.76,17.46,3.18
		l4.97,6.68c2.92,3.93,6.54,10.82,11.37,9.75l9.51-2.07l-6.51-28.92l-67.13,15.1L240.66,222.01z"/>
	<path id="XMLID_1347_" class="st0" d="M223.55,210.97l7.83,5.05l67.13-15.1l-4.65-20.68l-71.51,16.09
		C221.6,201.2,219.48,208.36,223.55,210.97z"/>
	<path id="XMLID_1346_" class="st0" d="M187.43,145.36l3.04,13.96l51.82-11.66c-2.06-7.34-2.07-15.08-0.18-22.41l-47.8,10.75
		C190.63,138.54,186.59,141.57,187.43,145.36z"/>
	<path id="XMLID_1345_" class="st0" d="M265.47,54.07l-18.33,4.12l-1.11,5.09c-5.23,2.83-10.12,6.24-14.59,10.15l-8.2-1.18
		c-4.85-0.71-12.22-2.97-14.87,1.17l-11.04,17.11c-0.14,0.22-0.25,0.45-0.35,0.68l73.15-16.46L265.47,54.07z"/>
	<path id="XMLID_1344_" class="st0" d="M207.02,111.57c-1.69,5.69-2.75,11.55-3.16,17.48l-6.68,4.94c-0.85,0.63-1.85,1.3-2.87,2.01
		l47.8-10.75c2.58-10.01,8.7-19.27,17.95-25.77l-53.13,11.95L207.02,111.57z"/>
	<path id="XMLID_1343_" class="st0" d="M274.18,92.78l-4.06-18.03l-73.15,16.46c-1.75,4.07,3.01,9.47,5.53,13.38l4.42,6.84
		l53.13-11.95c0.06-0.04,0.11-0.08,0.16-0.12C264.61,96.3,269.34,94.13,274.18,92.78z"/>
	<path id="XMLID_1342_" class="st0" d="M262.27,39.85l-8.2,1.79c-4.79,1.03-5.22,8.79-6.27,13.54l-0.66,3.02l18.33-4.12
		L262.27,39.85z"/>
</g>
<path id="XMLID_923_" class="st2" d="M484.64,201.43c-32.64-9.19-26.62-40.24-71.61-39.61c-45,0.63-56.72,28.83-56.72,28.83
	c-20.91-15.53-39.29,0.63-39.29,0.63l-1.2,1.48c-52.27-1.57-76.6,22.38-98.61,49.22c-23.13,28.2-47.53,23.45-47.53,23.45
	l73.17,32.61l277.4-21.14l15.73-70.72C535.97,206.18,517.28,210.62,484.64,201.43z"/>
<path id="XMLID_918_" class="st0" d="M170.63,264.32c0,0,24.4,4.75,47.53-23.45s48.8-53.23,106.78-48.8s84.29,43.41,84.29,43.41
	s26.93-16.48,51.97-3.8s24.08,29.47,53.55,32"/>
<path id="XMLID_917_" class="st0" d="M317.97,190.17c0,0,18.38-16.16,39.29-0.63c0,0,11.72-28.2,56.72-28.84
	c45-0.63,38.97,30.42,71.61,39.61s51.33,4.75,51.33,4.75"/>
<line id="XMLID_916_" class="st0" x1="528.37" y1="266.35" x2="543.58" y2="266.35"/>
<line id="XMLID_915_" class="st0" x1="146.23" y1="266.35" x2="161.44" y2="266.35"/>
</svg>
