<?xml version="1.0" encoding="utf-8"?>
<!-- Generator: Adobe Illustrator 24.1.0, SVG Export Plug-In . SVG Version: 6.00 Build 0)  -->
<svg version="1.1" id="Layer_1" xmlns="http://www.w3.org/2000/svg" xmlns:xlink="http://www.w3.org/1999/xlink" x="0px" y="0px"
	 viewBox="0 0 652 366" style="enable-background:new 0 0 652 366;" xml:space="preserve">
<style type="text/css">
	.st0{fill:none;stroke:#3E3A39;stroke-width:6;stroke-miterlimit:10;}
	.st1{fill:#60B383;stroke:#3E3A39;stroke-width:6;stroke-miterlimit:10;}
	.st2{fill:none;stroke:#333333;stroke-width:6;stroke-miterlimit:10;}
	.st3{fill:none;stroke:#3E3A39;stroke-width:6;stroke-linecap:round;stroke-linejoin:round;stroke-miterlimit:10;}
	.st4{fill:#FFFFFF;stroke:#3E3A39;stroke-width:6;stroke-miterlimit:10;}
	.st5{fill:#FFFFFF;}
</style>
<g id="XMLID_18_">
	<g id="XMLID_1359_">
		<g id="XMLID_1362_">
			
				<ellipse id="XMLID_1364_" transform="matrix(0.8784 -0.4779 0.4779 0.8784 -26.9987 198.4118)" class="st0" cx="376.48" cy="152.27" rx="101.73" ry="156.46"/>
			
				<ellipse id="XMLID_1363_" transform="matrix(0.8784 -0.4779 0.4779 0.8784 -26.9987 198.4118)" class="st0" cx="376.48" cy="152.27" rx="156.46" ry="101.73"/>
		</g>
		<circle id="XMLID_1361_" class="st1" cx="376.78" cy="42.13" r="11.61"/>
		<circle id="XMLID_1360_" class="st1" cx="440" cy="230.99" r="11.61"/>
	</g>
	<g id="XMLID_17_">
		<path id="XMLID_1534_" d="M395.11,228.99h-0.09c-2.58,0-4.66,2.09-4.66,4.66s2.09,4.66,4.66,4.66h0.09c2.58,0,4.66-2.09,4.66-4.66
			S397.68,228.99,395.11,228.99z"/>
		<path id="XMLID_1367_" class="st1" d="M397.71,78.83c-32-9.45-65.73,8.89-75.18,40.89c-6.16,20.86-0.73,43.1,14.19,58.79
			l-3.74,12.66l58.04,17.14l3.74-12.66c21.04-5.06,37.69-20.78,43.85-41.65C448.06,122.01,429.71,88.29,397.71,78.83z
			 M376.29,151.38c-8.01-2.37-12.59-10.78-10.22-18.79c2.37-8.01,10.78-12.59,18.79-10.22c8.01,2.37,12.59,10.78,10.22,18.79
			C392.71,149.17,384.3,153.75,376.29,151.38z"/>
		<path id="XMLID_1366_" class="st2" d="M382.92,222.88l-51.01-15.07c-4.23-1.25-6.67-5.73-5.42-9.96l0.36-1.22
			c1.25-4.23,5.73-6.67,9.96-5.42l51.01,15.07c4.23,1.25,6.67,5.73,5.42,9.96l-0.36,1.22C391.63,221.69,387.14,224.13,382.92,222.88
			z"/>
		<path id="XMLID_1365_" class="st2" d="M378.01,239.47L327,224.41c-4.23-1.25-6.67-5.73-5.42-9.96l0.36-1.22
			c1.25-4.23,5.73-6.67,9.96-5.42l51.01,15.07c4.23,1.25,6.67,5.73,5.42,9.96l-0.36,1.22C386.72,238.29,382.24,240.72,378.01,239.47
			z"/>
		<g id="XMLID_1353_">
			<path id="XMLID_1358_" class="st3" d="M399.51,79.32c-0.5-0.16-1-0.34-1.51-0.49c-23.26-6.87-47.42,0.96-62.52,18.03h58.22
				L399.51,79.32z"/>
			<path id="XMLID_1357_" class="st3" d="M335.48,96.86c-5.67,6.41-10.07,14.13-12.66,22.87c-0.26,0.89-0.49,1.78-0.71,2.67h54.38
				c2.73-0.83,5.72-0.9,8.66-0.03c0.03,0.01,0.06,0.02,0.09,0.03l8.46-25.53H335.48z"/>
			<path id="XMLID_1356_" class="st3" d="M337.01,178.51l-3.74,12.66l26.57,7.85l8.47-25.56h-35.61
				C334.04,175.2,335.47,176.9,337.01,178.51z"/>
			<path id="XMLID_1355_" class="st3" d="M321.35,147.92c1.71,9.19,5.56,17.93,11.36,25.53h35.61l7.41-22.37
				c-1.97-0.71-3.71-1.8-5.16-3.16H321.35z"/>
			<path id="XMLID_1354_" class="st3" d="M366.35,132.58c1.5-5.07,5.42-8.76,10.13-10.19h-54.38c-2.1,8.52-2.31,17.2-0.76,25.53
				h49.22C366.5,144.14,364.67,138.27,366.35,132.58z"/>
		</g>
		<circle id="XMLID_1352_" class="st4" cx="380.97" cy="135.57" r="17.72"/>
	</g>
</g>
<path id="XMLID_922_" class="st5" d="M614.51,329.25c-8.33-2.28-18.89-7.28-31.07-17.66c-30.76-26.21-50.13-6.84-50.13-6.84
	c-2.85-5.7-11.96-13.1-11.96-13.1c-16.3-12.41-31.78-17.86-45.78-18.93l-2.64-2.15c-57.54-72.92-131.59-55.83-161.79-33.04
	c-30.19,22.79-59.82,14.81-59.82,14.81l-1.07,0.41c-12.21-5.16-27.05-8.69-45.65-9.53c-50.7-2.28-78.61,19.94-101.4,48.42
	c-14.08,17.6-29.23,23.88-38.77,26.12l269.74,5.63v32.61h87.7v-30.78L614.51,329.25z"/>
<path id="XMLID_921_" class="st3" d="M6.61,317.37l47.85,1.14c0,0,25.64,1.14,48.42-27.34s50.7-50.7,101.4-48.42
	s73.49,24.5,91.15,45.57c0,0,34.75-25.07,74.06,7.98c0,0,15.95,17.09,24.5,20.51"/>
<path id="XMLID_920_" class="st3" d="M251,251.85c0,0,29.62,7.98,59.82-14.81s104.25-39.88,161.79,33.04"/>
<path id="XMLID_919_" class="st3" d="M376.48,320.92c0,0,23.93-1.14,37.6-19.94c13.67-18.8,57.54-50.7,109.95-10.82
	c0,0,9.11,7.41,11.96,13.1c0,0,19.37-19.37,50.13,6.84s51.27,18.23,51.27,18.23"/>
</svg>
