<?xml version="1.0" encoding="utf-8"?>
<!-- Generator: Adobe Illustrator 19.0.0, SVG Export Plug-In . SVG Version: 6.00 Build 0)  -->
<svg version="1.1" id="Layer_1" xmlns="http://www.w3.org/2000/svg" xmlns:xlink="http://www.w3.org/1999/xlink" x="0px" y="0px"
	 viewBox="0 0 636.8 320.9" style="enable-background:new 0 0 636.8 320.9;" xml:space="preserve">
<style type="text/css">
	.st0{fill:#3F3B3A;}
	.st1{fill:#61B584;}
	.st2{fill:#040000;}
	.st3{fill:#333333;}
	.st4{fill:#FFFFFF;}
</style>
<g id="XMLID_18_">
	<g id="XMLID_1359_">
		<g id="XMLID_1362_">
			<g id="XMLID_1364_">
				<path id="XMLID_52_" class="st0" d="M413.5,298c-16.6,0-34.4-4.9-52.4-14.7c-31.5-17.1-60-46.9-80.2-84.2s-29.9-77.4-27-113.1
					c2.8-36.2,18.1-63.5,42.8-77s56-11.4,87.9,5.9c31.5,17.1,60,46.9,80.2,84.2c20.2,37.2,29.8,77.4,27,113.1
					c-2.8,36.2-18.1,63.5-42.8,77C438.3,295.1,426.3,298,413.5,298z M332.2,6.3c-11.6,0-22.7,2.6-32.7,8
					c-47.8,26-53.8,107.7-13.4,182C326.6,270.7,398.4,310,446.2,284c22.9-12.5,37.1-38.1,39.7-72.2c2.7-34.6-6.6-73.5-26.3-109.8
					C427.6,43.2,376,6.3,332.2,6.3z"/>
			</g>
			<g id="XMLID_1363_">
				<path id="XMLID_49_" class="st0" d="M322.2,268.7c-4.2,0-8.3-0.2-12.4-0.5c-36.2-2.8-63.5-18.1-77-42.8s-11.4-56,5.9-87.9
					c17.1-31.5,46.9-60,84.2-80.2c37.2-20.2,77.4-29.9,113.1-27c36.2,2.8,63.5,18.1,77,42.8c13.5,24.8,11.4,56-5.9,87.9
					c-17.1,31.5-46.9,60-84.2,80.2C389.9,259.1,354.6,268.7,322.2,268.7z M423.5,35.6c-31.5,0-65.7,9.3-97.8,26.8
					c-74.3,40.4-113.6,112.2-87.6,160.1c12.5,22.9,38.1,37.1,72.2,39.7c34.6,2.7,73.5-6.6,109.8-26.3c36.2-19.7,65.2-47.3,81.7-77.8
					c16.3-30.1,18.4-59.3,5.9-82.2c-12.5-22.9-38.1-37.1-72.2-39.7C431.5,35.8,427.6,35.6,423.5,35.6z"/>
			</g>
		</g>
		<g id="XMLID_1361_">
			<circle id="XMLID_45_" class="st1" cx="373.2" cy="39" r="11.6"/>
			<path id="XMLID_46_" class="st0" d="M373.2,53.6c-1.4,0-2.8-0.2-4.1-0.6c-3.7-1.1-6.8-3.6-8.7-7c-1.9-3.4-2.3-7.4-1.2-11.1
				c1.1-3.7,3.6-6.8,7-8.7s7.4-2.3,11.1-1.2s6.8,3.6,8.7,7c1.9,3.4,2.3,7.4,1.2,11.1C385.3,49.5,379.5,53.6,373.2,53.6z M373.2,30.4
				c-1.4,0-2.8,0.4-4.1,1.1c-2,1.1-3.5,2.9-4.1,5.1c-0.7,2.2-0.4,4.5,0.7,6.6c1.1,2,2.9,3.5,5.1,4.1c4.6,1.3,9.4-1.3,10.7-5.8
				c0.7-2.2,0.4-4.5-0.7-6.6c-1.1-2-2.9-3.5-5.1-4.1C374.8,30.5,374,30.4,373.2,30.4z"/>
		</g>
		<g id="XMLID_1360_">
			<circle id="XMLID_41_" class="st1" cx="436.4" cy="227.9" r="11.6"/>
			<path id="XMLID_42_" class="st0" d="M436.4,242.5c-1.4,0-2.8-0.2-4.1-0.6c-7.7-2.3-12.2-10.4-9.9-18.1
				c2.3-7.7,10.4-12.2,18.1-9.9c7.7,2.3,12.2,10.4,9.9,18.1l0,0C448.5,238.4,442.7,242.5,436.4,242.5z M436.4,219.3
				c-1.4,0-2.8,0.4-4.1,1.1c-2,1.1-3.5,2.9-4.1,5.1c-0.7,2.2-0.4,4.5,0.7,6.6c1.1,2,2.9,3.5,5.1,4.1c4.6,1.3,9.4-1.3,10.7-5.8
				c1.3-4.6-1.3-9.4-5.8-10.7C438,219.4,437.2,219.3,436.4,219.3z"/>
		</g>
	</g>
	<g id="XMLID_17_">
		<g id="XMLID_1534_">
			<path id="XMLID_8_" class="st2" d="M391.5,225.9L391.5,225.9c-2.7,0-4.8,2.1-4.8,4.7c0,2.6,2.1,4.7,4.7,4.7h0.1
				c2.6,0,4.7-2.1,4.7-4.7C396.2,228,394.1,225.9,391.5,225.9z"/>
		</g>
		<g id="XMLID_1367_">
			<path id="XMLID_32_" class="st1" d="M394.1,75.7c-32-9.5-65.7,8.9-75.2,40.9c-6.2,20.9-0.7,43.1,14.2,58.8l-3.7,12.7l58,17.1
				l3.7-12.7c21-5.1,37.7-20.8,43.8-41.6C444.4,118.9,426.1,85.2,394.1,75.7z M372.7,148.3c-8-2.4-12.6-10.8-10.2-18.8
				c2.4-8,10.8-12.6,18.8-10.2c8,2.4,12.6,10.8,10.2,18.8C389.1,146,380.7,150.6,372.7,148.3z"/>
			<path id="XMLID_35_" class="st0" d="M389.4,208.9l-63.8-18.8l4.1-13.9c-14.7-16.3-19.9-39.3-13.7-60.4
				c9.9-33.6,45.3-52.8,78.9-42.9l0,0c33.6,9.9,52.8,45.3,42.9,78.9c-6.2,21.1-23.1,37.6-44.3,43.3L389.4,208.9z M333.1,186
				l52.3,15.4l3.4-11.4l1.7-0.4c20.2-4.9,35.8-19.7,41.7-39.6c9-30.4-8.5-62.5-38.9-71.5l0,0c-30.4-9-62.5,8.5-71.5,38.9
				c-5.9,19.9-0.8,40.8,13.5,55.9l1.2,1.3L333.1,186z M377,151.9c-1.7,0-3.5-0.2-5.2-0.8l0,0c-9.6-2.8-15.1-12.9-12.3-22.5
				c2.8-9.6,12.9-15.1,22.5-12.3c4.6,1.4,8.5,4.5,10.8,8.7c2.3,4.3,2.8,9.2,1.5,13.8c-1.4,4.6-4.5,8.5-8.7,10.8
				C382.9,151.1,380,151.9,377,151.9z M373.5,145.4c3.1,0.9,6.4,0.6,9.2-1s4.9-4.1,5.8-7.2c0.9-3.1,0.6-6.4-1-9.2s-4.1-4.9-7.2-5.8
				c-6.4-1.9-13.2,1.8-15.1,8.2C363.4,136.7,367.1,143.5,373.5,145.4L373.5,145.4z"/>
		</g>
		<g id="XMLID_1366_">
			<path id="XMLID_29_" class="st3" d="M381.6,223.1c-1,0-2.1-0.1-3.1-0.5l-51-15.1c-5.8-1.7-9.2-7.9-7.4-13.7l0.4-1.2
				c1.7-5.8,7.9-9.2,13.7-7.4l51,15.1c5.8,1.7,9.2,7.9,7.4,13.7l-0.4,1.2C390.7,220,386.3,223.1,381.6,223.1z M380.2,216.9
				c2.7,0.8,5.4-0.7,6.2-3.4l0.4-1.2c0.8-2.7-0.7-5.4-3.4-6.2l-51-15.1c-2.7-0.8-5.4,0.7-6.2,3.4l-0.4,1.2c-0.8,2.7,0.7,5.4,3.4,6.2
				L380.2,216.9z"/>
		</g>
		<g id="XMLID_1365_">
			<path id="XMLID_26_" class="st3" d="M376.7,239.7c-1,0-2.1-0.1-3.1-0.5l-51-15.1c-5.8-1.7-9.2-7.9-7.4-13.7l0.4-1.2
				c0.8-2.8,2.7-5.1,5.3-6.5c2.6-1.4,5.6-1.7,8.4-0.9l51,15.1c2.8,0.8,5.1,2.7,6.5,5.3s1.7,5.6,0.9,8.4l-0.4,1.2
				C385.8,236.6,381.4,239.7,376.7,239.7z M326,207.4c-0.8,0-1.7,0.2-2.4,0.6c-1.2,0.6-2,1.7-2.4,3l-0.4,1.2
				c-0.8,2.7,0.7,5.4,3.4,6.2l51,15.1c2.7,0.8,5.4-0.7,6.2-3.4l0.4-1.2c0.4-1.3,0.2-2.6-0.4-3.8s-1.7-2-3-2.4l-51-15.1
				C327,207.4,326.5,207.4,326,207.4z"/>
		</g>
		<g id="XMLID_1353_">
			<g id="XMLID_1358_">
				<path id="XMLID_23_" class="st0" d="M390.1,96.7h-58.2c-1.2,0-2.3-0.7-2.7-1.8c-0.5-1.1-0.3-2.3,0.5-3.2
					c16.3-18.4,42.1-25.9,65.6-18.9c0.4,0.1,0.7,0.2,1.1,0.4l0.5,0.2c0.8,0.2,1.4,0.8,1.8,1.5c0.4,0.7,0.4,1.5,0.2,2.3l-5.8,17.5
					C392.5,95.9,391.4,96.7,390.1,96.7z M339.1,90.7h48.8l4.2-12.6C373.4,73.2,353.5,78.1,339.1,90.7z"/>
			</g>
			<g id="XMLID_1357_">
				<path id="XMLID_20_" class="st0" d="M381.6,122.3c-0.3,0-0.6,0-0.9-0.1c0,0-0.1,0-0.1,0c-2.2-0.7-4.6-0.6-6.9,0
					c-0.3,0.1-0.6,0.1-0.9,0.1h-54.4c-0.9,0-1.8-0.4-2.4-1.1c-0.6-0.7-0.8-1.7-0.6-2.6c0.2-0.9,0.5-1.9,0.7-2.8
					c2.6-8.9,7.1-17,13.3-24c0.6-0.6,1.4-1,2.2-1h58.2c1,0,1.9,0.5,2.4,1.2c0.6,0.8,0.7,1.8,0.4,2.7l-8.5,25.5
					C384.1,121.5,382.9,122.3,381.6,122.3z M322.5,116.3h50c2.4-0.6,4.8-0.8,7.2-0.5l6.3-19h-52.7
					C328.4,102.5,324.7,109.1,322.5,116.3z"/>
			</g>
			<g id="XMLID_1356_">
				<path id="XMLID_15_" class="st0" d="M356.2,198.9c-0.3,0-0.6,0-0.9-0.1l-26.6-7.8c-1.6-0.5-2.5-2.1-2-3.7l3.3-11
					c-1.1-1.3-2.3-2.6-3.3-4c-0.7-0.9-0.8-2.1-0.3-3.2s1.5-1.7,2.7-1.7h35.6c1,0,1.9,0.5,2.4,1.2c0.6,0.8,0.7,1.8,0.4,2.7l-8.5,25.6
					C358.7,198.1,357.5,198.9,356.2,198.9z M333.4,186l20.9,6.2l6.3-18.9h-25c0.7,0.8,1,1.9,0.7,2.9L333.4,186z"/>
			</g>
			<g id="XMLID_1355_">
				<path id="XMLID_12_" class="st0" d="M364.7,173.3h-35.6c-0.9,0-1.8-0.4-2.4-1.2c-6-7.9-10.1-17.1-11.9-26.8
					c-0.2-0.9,0.1-1.8,0.6-2.5c0.6-0.7,1.4-1.1,2.3-1.1H367c0.8,0,1.5,0.3,2,0.8c1.2,1.1,2.6,2,4.1,2.5c1.5,0.6,2.3,2.2,1.8,3.8
					l-7.4,22.4C367.1,172.5,366,173.3,364.7,173.3z M330.6,167.3h31.9l5.9-17.8c-0.9-0.5-1.8-1.1-2.6-1.8h-44.4
					C323.2,154.8,326.4,161.5,330.6,167.3z"/>
			</g>
			<g id="XMLID_1354_">
				<path id="XMLID_9_" class="st0" d="M367,147.8h-49.2c-1.4,0-2.7-1-2.9-2.5c-1.7-8.9-1.4-17.9,0.8-26.8c0.3-1.3,1.5-2.3,2.9-2.3
					h54.4c1.5,0,2.7,1.1,3,2.6c0.2,1.5-0.7,2.9-2.1,3.3c-3.9,1.2-7,4.2-8.1,8.2c-1.3,4.4,0,9.1,3.4,12.3c0.9,0.8,1.2,2.1,0.7,3.3
					C369.3,147,368.2,147.8,367,147.8z M320.3,141.8H361c-2-4-2.5-8.7-1.1-13.2v0c0.7-2.4,1.8-4.5,3.3-6.3h-42.3
					C319.6,128.7,319.4,135.3,320.3,141.8z"/>
			</g>
		</g>
		<g id="XMLID_1352_">
			<circle id="XMLID_1_" class="st4" cx="377.4" cy="132.4" r="17.7"/>
			<path id="XMLID_5_" class="st0" d="M377.4,153.2c-1.9,0-3.9-0.3-5.9-0.9c-11-3.2-17.2-14.8-14-25.7c1.6-5.3,5.1-9.7,10-12.3
				c4.9-2.6,10.5-3.2,15.8-1.7c5.3,1.6,9.7,5.1,12.3,10s3.2,10.5,1.7,15.8v0C394.6,147.3,386.3,153.2,377.4,153.2z M377.3,117.7
				c-2.4,0-4.8,0.6-7,1.8c-3.5,1.9-6,5-7.1,8.8c-2.3,7.8,2.2,16,9.9,18.3c7.8,2.3,16-2.2,18.3-9.9v0c1.1-3.8,0.7-7.7-1.2-11.2
				c-1.9-3.5-5-6-8.8-7.1C380.2,117.9,378.7,117.7,377.3,117.7z"/>
		</g>
	</g>
</g>
<g id="XMLID_922_">
	<path class="st4" d="M610.9,326.1c-8.3-2.3-18.9-7.3-31.1-17.7c-30.8-26.2-50.1-6.8-50.1-6.8c-2.8-5.7-12-13.1-12-13.1
		c-16.3-12.4-31.8-17.9-45.8-18.9l-2.6-2.1c-57.5-72.9-131.6-55.8-161.8-33c-30.2,22.8-59.8,14.8-59.8,14.8l-1.1,0.4
		c-12.2-5.2-27-8.7-45.6-9.5c-50.7-2.3-78.6,19.9-101.4,48.4c-14.1,17.6-29.2,23.9-38.8,26.1l269.7,5.6v32.6h87.7v-30.8L610.9,326.1
		z"/>
</g>
<g id="XMLID_921_">
	<path id="XMLID_4_" class="st0" d="M51.3,318.4c-0.3,0-0.5,0-0.6,0l-47.8-1.1c-1.7,0-3-1.4-2.9-3.1c0-1.7,1.4-3,3.1-2.9l47.9,1.1
		c0.3,0,24.5,0.6,46-26.2c20.7-25.9,49.2-52,103.9-49.5c50.4,2.3,73.9,23.9,91.6,44.6c3.6-2.1,11.1-5.8,21.2-7.4
		c13-2,33-0.7,54.2,17c0.1,0.1,0.2,0.2,0.3,0.3c4.3,4.6,16.9,17.2,23.4,19.8c1.5,0.6,2.3,2.4,1.7,3.9s-2.4,2.3-3.9,1.7
		c-8.7-3.5-23.8-19.3-25.4-21.1c-37-31-69.9-8-70.2-7.7c-1.3,0.9-3,0.7-4.1-0.5c-17.1-20.4-39.4-42.3-89-44.5
		c-51.8-2.3-78.2,21.4-98.9,47.3C79.8,317.1,55.6,318.4,51.3,318.4z"/>
</g>
<g id="XMLID_920_">
	<path id="XMLID_3_" class="st0" d="M469,270c-0.9,0-1.8-0.4-2.4-1.1C412.1,199.7,341,212.2,309,236.3c-31,23.4-61.1,15.7-62.4,15.3
		c-1.6-0.4-2.5-2.1-2.1-3.7c0.4-1.6,2.1-2.5,3.7-2.1c0.4,0.1,28.7,7.2,57.2-14.3c14.6-11,41.4-22.1,72.6-20
		c24.6,1.7,60.8,12.3,93.3,53.5c1,1.3,0.8,3.2-0.5,4.2C470.3,269.8,469.6,270,469,270z"/>
</g>
<g id="XMLID_919_">
	<path id="XMLID_2_" class="st0" d="M625.5,329.4c-9.4,0-25.2-3.3-44.9-20.1c-28.3-24.1-45.9-7.2-46.1-7c-0.7,0.7-1.6,1-2.6,0.8
		c-1-0.2-1.8-0.8-2.2-1.6c-2.1-4.2-8.8-10.2-11.2-12.1c-19.3-14.6-39-20.6-58.6-17.8c-22,3.2-39.1,17.1-47,28
		c-14.4,19.7-38.8,21.1-39.9,21.2c-1.7,0.1-3.1-1.2-3.1-2.9c-0.1-1.7,1.2-3.1,2.8-3.1l0,0c0.2,0,22.7-1.3,35.3-18.7
		c8.6-11.8,27.1-26.9,51-30.4c21.3-3.1,42.5,3.3,63.2,19c0.4,0.3,7,5.7,10.9,11.1c6.9-4.6,25.7-12.9,51.3,8.9
		c28.8,24.5,48.1,17.8,48.3,17.7c1.5-0.6,3.3,0.2,3.9,1.7c0.6,1.5-0.2,3.3-1.7,3.9C634.5,328.1,631.2,329.4,625.5,329.4z"/>
</g>
</svg>
