<?xml version="1.0" encoding="utf-8"?>
<!-- Generator: Adobe Illustrator 19.0.0, SVG Export Plug-In . SVG Version: 6.00 Build 0)  -->
<svg version="1.1" id="Layer_1" xmlns="http://www.w3.org/2000/svg" xmlns:xlink="http://www.w3.org/1999/xlink" x="0px" y="0px"
	 viewBox="-17 297.9 600.6 362" style="enable-background:new -17 297.9 600.6 362;" xml:space="preserve">
<style type="text/css">
	.st0{fill:#61BB87;stroke:#3E3A39;stroke-width:6;stroke-linecap:round;stroke-linejoin:round;stroke-miterlimit:10;}
	.st1{fill:none;stroke:#3E3A39;stroke-width:6;stroke-linecap:round;stroke-linejoin:round;stroke-miterlimit:10;}
	.st2{fill:#3E3A39;}
	.st3{fill:#FFFFFF;}
	.st4{fill:#61BB87;}
</style>
<g>
	<g id="XMLID_1561_">
		<path id="XMLID_1564_" class="st0" d="M324.6,484.7c0,0,12.4-28.5,44.5-10.7c0,0,11.1-26,49.9-21c38.8,4.9,37.1,33.8,59.4,34.2
			s23.5,0,23.5,0"/>
		<line id="XMLID_1563_" class="st1" x1="516.4" y1="487.4" x2="546.1" y2="487.4"/>
		<line id="XMLID_1562_" class="st1" x1="567.9" y1="487.4" x2="576.6" y2="487.4"/>
	</g>
	<g>
		<path id="XMLID_2_" class="st2" d="M303.9,519.9H194.8c-23.9,0-43.4-19.6-43.4-43.5v-109c0-23.9,19.6-43.5,43.4-43.5h109.1
			c23.9,0,43.5,19.5,43.5,43.5v109.1C347.4,500.4,327.9,519.9,303.9,519.9z"/>
		<path id="XMLID_1_" class="st3" d="M279.5,419.7l24.5-31.5c1.9-3.3,2.9-6.9,2.9-10.5c0-13-12.3-23.5-27.4-23.5
			s-27.4,10.6-27.4,23.5c0,3.7,1,7.2,2.9,10.5v0.1L279.5,419.7L279.5,419.7z"/>
		<g id="XMLID_39_">
			<path id="XMLID_40_" class="st3" d="M197.6,412.4c-0.8-0.6-1.4-1.3-1.8-2.1c-0.4-0.9-0.5-1.7-0.4-2.6s0.3-1.7,0.7-2.6
				s1-1.5,1.7-2c0.8-0.5,1.6-0.8,2.5-0.9s1.9,0.1,3.1,0.7c4.6,2,9.2,3,13.8,3c3,0,5.5-0.5,7.4-1.6s2.9-2.7,2.9-4.9
				c0-2.9-2.1-5-6.3-6.4l-13.6-4.5c-5.1-1.9-8.7-4-10.8-6.3s-3.1-5.5-3.1-9.5c0-5.5,2.2-10,6.6-13.3c4.4-3.3,10.3-5,17.8-5
				c3.6,0,7.2,0.5,10.9,1.4s6.6,2.3,8.5,4.1c0.8,0.8,1.3,1.7,1.6,2.8s0.2,2-0.2,2.9c-0.3,0.9-0.8,1.7-1.4,2.4
				c-0.6,0.7-1.4,1.2-2.2,1.4c-0.9,0.2-1.7,0.1-2.5-0.3c-2.5-1.4-4.8-2.3-6.8-2.9c-2-0.5-4.5-0.8-7.3-0.8c-1.9,0-3.6,0.2-5.1,0.6
				c-1.6,0.4-2.9,1.1-3.9,2c-1.1,1-1.6,2.1-1.6,3.5c0,1.8,0.7,3.1,2.2,4.2c1.5,1,3.6,2,6.4,3c0.7,0.3,1.7,0.4,3.1,0.6
				c1.4,0.2,2.5,0.4,3.2,0.6c2.5,0.8,4.7,1.5,6.4,2.2s3.5,1.6,5.2,2.6s3.1,2.1,4.1,3.3c1,1.2,1.8,2.6,2.5,4.3
				c0.6,1.7,0.9,3.6,0.9,5.7c0,5.8-2.2,10.4-6.6,13.7c-4.4,3.4-10.4,5.1-17.9,5.1C209,416.8,202.4,415.3,197.6,412.4z"/>
		</g>
		<g id="XMLID_19_">
			<path id="XMLID_23_" class="st3" d="M200.1,494c-1-0.6-1.8-1.5-2.3-2.5c-0.6-1.1-0.9-2.2-1.2-3.3c-0.3-1.2-0.4-2.4-0.4-3.7v-37.2
				c0-1.6,0.1-2.9,0.2-3.9s0.4-2.1,0.7-3.2c0.4-1.1,0.9-2,1.6-2.6c0.7-0.7,1.6-1.2,2.7-1.6c1.2-0.4,2.6-0.6,4.2-0.6H232
				c1.6,0,2.9,0.5,4,1.6s1.7,2.4,1.7,3.9c0,1.6-0.6,2.9-1.7,3.9c-1.1,1.1-2.4,1.6-4,1.6h-21.1v12.7h19.3c1.6,0,2.9,0.5,4,1.6
				s1.7,2.4,1.7,4s-0.6,2.9-1.7,3.9c-1.1,1-2.4,1.6-4,1.6h-19.3v13.7h22.2c1.5,0,2.7,0.5,3.8,1.6s1.5,2.4,1.5,3.9
				c0,1.6-0.5,2.9-1.5,3.9c-1,1.1-2.3,1.6-3.8,1.6h-29.5C202.2,494.9,201.1,494.6,200.1,494z"/>
			<path id="XMLID_36_" class="st3" d="M251.3,492.9c-1.2-1.3-1.9-2.9-1.9-4.8V444c0-2.7,0.7-4.8,2.1-6.4c1.4-1.6,3.2-2.3,5.3-2.3
				c3,0,6,2.4,9.1,7l24.3,31.4V442c0-1.9,0.6-3.5,1.8-4.8c1.2-1.3,2.7-2,4.5-2s3.3,0.7,4.5,2c1.3,1.3,1.9,2.9,1.9,4.8v40.5
				c0,1.8-0.1,3.4-0.3,4.7s-0.5,2.6-1,3.9c-0.5,1.2-1.2,2.2-2.3,2.9s-2.3,1-3.8,1c-1.6,0-3.1-0.6-4.5-1.8c-1.5-1.2-3-2.9-4.5-5.1
				L262,456v32.2c0,1.9-0.6,3.4-1.9,4.8s-2.8,2-4.5,2C254.1,494.9,252.6,494.3,251.3,492.9z"/>
		</g>
		<circle id="XMLID_1554_" class="st4" cx="279.5" cy="377.9" r="15.7"/>
	</g>
	<path class="st4" d="M334.8,507c-7.9,8-18.8,12.9-30.9,12.9H194.8c-12,0-22.9-5-30.8-12.9H-10.1v126.9h583V507H334.8z"/>
	<g id="XMLID_1551_">
		<path id="XMLID_1553_" class="st0" d="M33.1,520.5h11.6c0,0,6.6,0.8,11.1-3.9c4.5-4.7,15-21,39.2-10.3c0,0,26.4-26.8,58.4-20.2
			c32,6.6,30.5,23.9,43.7,30.7c13.2,6.8,17.5,5.8,26.4,5.8h48.2"/>
		<line id="XMLID_1552_" class="st1" x1="3.2" y1="521" x2="14.7" y2="521"/>
	</g>
	<g id="XMLID_1546_">
		<path id="XMLID_1550_" class="st0" d="M176.8,556.1H191c0,0,11.6,3.1,18.8-10.1c7.2-13.2,38.1-49.9,81.9-49.9s66.8,22.3,79.6,35.7
			c0,0,32.8-14.9,53.6,3.7c4.3,3.9,9,7.9,12.8,12.4c3,3.7,5.5,9.4,11,9.6c6.6,0.2,23.5,0,23.5,0"/>
		<line id="XMLID_1549_" class="st1" x1="148.2" y1="557.7" x2="159.8" y2="557.7"/>
		<line id="XMLID_1548_" class="st1" x1="491.5" y1="557.7" x2="517.9" y2="557.7"/>
		<line id="XMLID_1547_" class="st1" x1="529.4" y1="557.7" x2="538.5" y2="557.7"/>
	</g>
</g>
</svg>
