<?xml version="1.0" encoding="utf-8"?>
<!-- Generator: Adobe Illustrator 19.0.0, SVG Export Plug-In . SVG Version: 6.00 Build 0)  -->
<svg version="1.1" id="Layer_1" xmlns="http://www.w3.org/2000/svg" xmlns:xlink="http://www.w3.org/1999/xlink" x="0px" y="0px"
	 viewBox="106 -324.1 807 1488" style="enable-background:new 106 -324.1 807 1488;" xml:space="preserve">
<style type="text/css">
	.st0{fill:#FFFFFF;stroke:#3E3A39;stroke-width:6;stroke-linecap:round;stroke-linejoin:round;stroke-miterlimit:10;}
	.st1{fill:none;stroke:#3E3A39;stroke-width:6;stroke-linecap:round;stroke-linejoin:round;stroke-miterlimit:10;}
	.st2{fill:#60B383;stroke:#3E3A39;stroke-width:6;stroke-miterlimit:10;}
	.st3{fill:#E0E0DF;stroke:#3E3A39;stroke-width:6;stroke-linecap:round;stroke-linejoin:round;stroke-miterlimit:10;}
	.st4{fill:none;stroke:#3E3A39;stroke-width:6;stroke-miterlimit:10;}
	.st5{fill:#FFFFFF;stroke:#3E3A39;stroke-width:6;stroke-miterlimit:10;}
	.st6{fill:none;stroke:#3E3A39;stroke-width:6;stroke-linecap:round;stroke-miterlimit:10;}
	.st7{fill:#60B383;stroke:#3E3A39;stroke-width:6;stroke-linecap:round;stroke-linejoin:round;stroke-miterlimit:10;}
	.st8{enable-background:new    ;}
	.st9{fill:#3E3A39;}
	.st10{fill:#60B383;}
</style>
<circle id="XMLID_1651_" class="st0" cx="581" cy="-218.3" r="30.4"/>
<line id="XMLID_1650_" class="st1" x1="161.9" y1="199.4" x2="611.2" y2="199.4"/>
<g id="XMLID_16_">
	<path id="XMLID_1649_" class="st0" d="M474.7-15.6c4.4-5.8,6.9-13,6.9-20.9c0-19.2-15.6-34.9-34.8-34.9c0,0,0,0-0.1,0
		c-3,0-5.3-2.4-5.3-5.3c0,0,0,0,0-0.1c0-19.2-15.6-34.8-34.8-34.8c-3.3,0-6.5,0.5-9.6,1.3c-3.4,1-6.8-1.5-6.7-5c0-1.1,0-2.3-0.1-3.4
		c-1.4-17.5-15.9-31.3-33.5-31.9c-19.8-0.7-36.1,15.2-36.1,34.8v0.4c0,3.5-3.3,6.1-6.7,5.1c-3-0.9-6.2-1.3-9.6-1.3
		c-19.2,0-34.8,15.6-34.8,34.8v0.1c0,3-2.4,5.3-5.3,5.3c0,0,0,0-0.1,0c-19.2,0-34.8,15.6-34.8,34.8c0,7.8,2.6,15,6.9,20.9h238.5
		V-15.6z"/>
	<polygon id="XMLID_1648_" class="st0" points="332.9,5.2 338.4,199.4 373.6,199.4 380.4,5.2 	"/>
	<path id="XMLID_1647_" class="st0" d="M428.7,5.2l-24.4,194.3h39c2.3,0,4.2-1.6,4.5-3.8L478.4,5.2H428.7L428.7,5.2z"/>
	<path id="XMLID_1646_" class="st0" d="M233.5,5.2l30.6,190.4c0.4,2.2,2.3,3.8,4.5,3.8h39l-23-194.3L233.5,5.2L233.5,5.2z"/>
	<polygon id="XMLID_1645_" class="st2" points="284.7,5.2 307.6,199.4 338.4,199.4 332.9,5.2 	"/>
	<polygon id="XMLID_1644_" class="st2" points="380.4,5.2 373.6,199.4 404.3,199.4 428.7,5.2 	"/>
	<path id="XMLID_1643_" class="st2" d="M484,5.2H228c-2.1,0-3.8-1.7-3.8-3.8v-18.7c0-2.1,1.7-3.8,3.8-3.8h256c2.1,0,3.8,1.7,3.8,3.8
		V1.4C487.8,3.5,486.1,5.2,484,5.2z"/>
</g>
<g id="XMLID_1615_">
	<path id="XMLID_1642_" class="st2" d="M604.5-41.4c-105.1,0-190.4,85.2-190.4,190.4h380.7C794.8,43.8,709.6-41.4,604.5-41.4z"/>
	<rect id="XMLID_1641_" x="589" y="148.9" class="st3" width="31" height="265.6"/>
	<circle id="XMLID_1640_" class="st0" cx="668.6" cy="49.1" r="26.7"/>
	<path id="XMLID_1639_" class="st0" d="M525.6,34.3c-20.4,0-37,16.5-37,37s16.5,37,37,37c20.4,0,37-16.5,37-37S546,34.3,525.6,34.3z
		"/>
	<path id="XMLID_1638_" class="st0" d="M588.8,3.5c18.6,0,33.7-15.1,33.7-33.7c0-3.6-0.6-7.2-1.7-10.5c-5.4-0.5-10.9-0.7-16.4-0.7
		c-16.9,0-33.4,2.2-49,6.4c-0.2,1.6-0.3,3.2-0.3,4.8C555.1-11.6,570.2,3.5,588.8,3.5z"/>
	<path id="XMLID_1637_" class="st0" d="M680,145.1c0-18.6-15.1-33.7-33.7-33.7c-18.6,0-33.7,15.1-33.7,33.7c0,1.3,0.1,2.6,0.2,3.9
		h67C679.9,147.7,680,146.4,680,145.1z"/>
	<path id="XMLID_1636_" class="st0" d="M432.7,120c-6.2,0-12.1,1.7-17.1,4.6c-1,8-1.5,16.1-1.5,24.3h52
		C463.8,132.6,449.7,120,432.7,120z"/>
	<path id="XMLID_1635_" class="st1" d="M726.2,36.3c0,0,23.5,18.5,26.5,45.5"/>
	<line id="XMLID_1634_" class="st1" x1="589" y1="175.2" x2="600" y2="175.2"/>
	<line id="XMLID_1633_" class="st1" x1="609" y1="205" x2="620" y2="205"/>
	<line id="XMLID_1632_" class="st1" x1="589" y1="233.3" x2="600" y2="233.3"/>
	<line id="XMLID_1631_" class="st1" x1="609" y1="263.1" x2="620" y2="263.1"/>
	<line id="XMLID_1630_" class="st1" x1="589" y1="295.3" x2="600" y2="295.3"/>
	<line id="XMLID_1629_" class="st1" x1="609" y1="325.1" x2="620" y2="325.1"/>
	<line id="XMLID_1628_" class="st1" x1="589" y1="353.4" x2="600" y2="353.4"/>
	<line id="XMLID_1627_" class="st1" x1="452" y1="148.9" x2="452" y2="167.4"/>
	<line id="XMLID_1626_" class="st1" x1="476.3" y1="148.9" x2="476.3" y2="167.4"/>
	<line id="XMLID_1625_" class="st1" x1="500.5" y1="148.9" x2="500.5" y2="167.4"/>
	<line id="XMLID_1624_" class="st1" x1="524.7" y1="148.9" x2="524.7" y2="167.4"/>
	<line id="XMLID_1623_" class="st1" x1="548.9" y1="148.9" x2="548.9" y2="167.4"/>
	<line id="XMLID_1622_" class="st1" x1="573.1" y1="148.9" x2="573.1" y2="167.4"/>
	<line id="XMLID_1621_" class="st1" x1="637.4" y1="148.9" x2="637.4" y2="167.4"/>
	<line id="XMLID_1620_" class="st1" x1="661.7" y1="148.9" x2="661.7" y2="167.4"/>
	<line id="XMLID_1619_" class="st1" x1="685.9" y1="148.9" x2="685.9" y2="167.4"/>
	<line id="XMLID_1618_" class="st1" x1="710.1" y1="148.9" x2="710.1" y2="167.4"/>
	<line id="XMLID_1617_" class="st1" x1="734.3" y1="148.9" x2="734.3" y2="167.4"/>
	<line id="XMLID_1616_" class="st1" x1="758.5" y1="148.9" x2="758.5" y2="167.4"/>
</g>
<line id="XMLID_1502_" class="st1" x1="435.8" y1="-277.2" x2="435.8" y2="-299.5"/>
<path id="XMLID_1338_" class="st4" d="M133.9,414.5h579.8c23.9,0,43.5,19.5,43.5,43.5l-1.8,333.5v304.3c0,23.9,19.5,43.4,43.5,43.4
	h91.7"/>
<path id="XMLID_47_" class="st5" d="M775.4-86h-0.7c0-9.5-7.7-17.3-17.3-17.3c-9.5,0-17.3,7.7-17.3,17.3h-12
	c-8.2,0-14.9,6.7-14.9,14.9s6.7,14.9,14.9,14.9h47.3c8.2,0,14.9-6.7,14.9-14.9S783.6-86,775.4-86z"/>
<g id="XMLID_1073_">
	<line id="XMLID_1075_" class="st1" x1="559.6" y1="354.4" x2="559.6" y2="340.1"/>
	<line id="XMLID_1074_" class="st1" x1="542.9" y1="354.4" x2="542.9" y2="340.1"/>
</g>
<g id="XMLID_1061_">
	<line id="XMLID_1063_" class="st1" x1="335.2" y1="284" x2="335.2" y2="263.4"/>
	<line id="XMLID_1062_" class="st1" x1="318.6" y1="284" x2="318.6" y2="263.4"/>
</g>
<g id="XMLID_1058_">
	<line id="XMLID_1060_" class="st1" x1="164.7" y1="362.5" x2="164.7" y2="353.3"/>
	<line id="XMLID_1059_" class="st1" x1="148" y1="362.5" x2="148" y2="353.3"/>
</g>
<g id="XMLID_1055_">
	<line id="XMLID_1057_" class="st1" x1="476.3" y1="252.9" x2="476.3" y2="239.1"/>
	<line id="XMLID_1056_" class="st1" x1="459.6" y1="252.9" x2="459.6" y2="239.1"/>
</g>
<g id="XMLID_1052_">
	<line id="XMLID_1054_" class="st1" x1="551.8" y1="260.2" x2="551.8" y2="247.6"/>
	<circle id="XMLID_1053_" class="st2" cx="551.8" cy="237.4" r="11.7"/>
</g>
<g id="XMLID_1049_">
	<line id="XMLID_1051_" class="st1" x1="418.3" y1="311.2" x2="418.3" y2="298.6"/>
	<circle id="XMLID_1050_" class="st2" cx="418.3" cy="288.4" r="11.7"/>
</g>
<g id="XMLID_1046_">
	<ellipse id="XMLID_1048_" class="st2" cx="605.8" cy="-107.6" rx="14" ry="9"/>
	<line id="XMLID_1047_" class="st6" x1="619.8" y1="-109.3" x2="619.8" y2="-165.3"/>
</g>
<g id="XMLID_1037_">
	<ellipse id="XMLID_1039_" class="st2" cx="142.4" cy="96.4" rx="14" ry="9"/>
	<line id="XMLID_1038_" class="st6" x1="156.3" y1="94.7" x2="156.3" y2="38.7"/>
</g>
<circle id="XMLID_1036_" class="st2" cx="795.1" cy="22.6" r="9.9"/>
<circle id="XMLID_1033_" class="st2" cx="193.6" cy="154.6" r="9.9"/>
<circle id="XMLID_1032_" class="st2" cx="254.9" cy="-194.6" r="9.9"/>
<path id="XMLID_1031_" class="st0" d="M214.3-154.9c0-6.6-5.3-12-11.9-12c-4.4,0-8.4,2.4-10.5,6.1c-0.5,0-1-0.2-1.6-0.2
	c-5.2,0-10.3,1.7-14.4,4.9c-3.9-5.3-11.4-6.5-16.8-2.6s-6.5,11.4-2.6,16.8c2.3,3.1,5.9,4.9,9.7,4.9c0,0.5,0.1,1,0.2,1.6
	c-5.8,3.2-7.9,10.4-4.8,16.2c3.2,5.8,10.4,7.9,16.2,4.8c0.6-0.3,1.2-0.7,1.7-1.1c11.7,6,26.1,1.3,32.1-10.4c3.4-6.8,3.4-14.8,0-21.6
	C213.4-149.6,214.3-152.2,214.3-154.9z"/>
<path id="XMLID_1030_" class="st0" d="M504.8-185.4c0-13.3-10.7-24-24-24c0-8.8-7.2-16-16-16s-16,7.2-16,16c0,6.5,3.9,12.3,9.9,14.8
	c-5.1,12.2,0.7,26.3,12.9,31.4c5.9,2.4,12.5,2.4,18.4,0c3.4,8.2,12.8,12,20.9,8.6c8.2-3.4,12-12.8,8.6-20.9
	C517.1-181.5,511.3-185.4,504.8-185.4z"/>
<path id="XMLID_1028_" class="st0" d="M364.7-231.8c2.7-2.9,4.4-6.7,4.4-11c0-8.8-7.2-16-16-16s-16,7.2-16,16c0,1,0.1,2,0.3,2.9
	c-1-0.2-1.9-0.3-2.9-0.3c-8.8,0-16,7.2-16,16s7.2,16,16,16c6.6,0,12.3-4.1,14.8-9.8c0.7,6.3,6.1,11.2,12.6,11.2
	c7,0,12.7-5.7,12.7-12.7C374.5-225.5,370.3-230.5,364.7-231.8z"/>
<line id="XMLID_1027_" class="st1" x1="696.3" y1="-106.7" x2="696.3" y2="-165.3"/>
<line id="XMLID_1025_" class="st1" x1="132.8" y1="-11.7" x2="132.8" y2="-51.9"/>
<line id="XMLID_1024_" class="st1" x1="132.8" y1="12.9" x2="132.8" y2="0.7"/>
<polygon id="XMLID_1021_" class="st7" points="575.9,-235.4 595.4,-218.3 575.9,-201.2 "/>
<polygon id="XMLID_1012_" class="st7" points="261.1,195.1 261.1,159.9 324,177.5 "/>
<polygon id="XMLID_338_" class="st2" points="173.9,414.5 261.1,240.4 348.4,414.5 "/>
<g id="XMLID_333_">
	<line id="XMLID_336_" class="st1" x1="261.1" y1="240.4" x2="277.5" y2="207.9"/>
	<line id="XMLID_335_" class="st1" x1="261.1" y1="240.4" x2="244.7" y2="207.9"/>
	<line id="XMLID_334_" class="st1" x1="261.1" y1="176.1" x2="261.1" y2="288.9"/>
</g>
<path id="XMLID_322_" class="st3" d="M283.7,353.6c0-12.4-10.2-22.6-22.6-22.6l0,0c-12.4,0-22.6,10.2-22.6,22.6v60.9h45.1
	L283.7,353.6L283.7,353.6z"/>
<line id="XMLID_139_" class="st1" x1="261.1" y1="331.1" x2="261.1" y2="414.5"/>
<polygon id="XMLID_138_" class="st5" points="313.8,414.5 367.3,307.7 420.8,414.5 "/>
<g id="XMLID_136_">
	<path id="XMLID_137_" class="st3" d="M381.1,377.2c0-7.6-6.2-13.8-13.9-13.8l0,0c-7.6,0-13.9,6.2-13.9,13.8v37.4H381L381.1,377.2
		L381.1,377.2z"/>
</g>
<g id="XMLID_131_">
	<line id="XMLID_135_" class="st1" x1="367.3" y1="307.7" x2="377.4" y2="287.8"/>
	<line id="XMLID_133_" class="st1" x1="367.3" y1="307.7" x2="357.2" y2="287.8"/>
	<line id="XMLID_132_" class="st1" x1="367.3" y1="307.8" x2="367.3" y2="337.5"/>
</g>
<g id="XMLID_124_">
	<path id="XMLID_130_" class="st2" d="M683.2,234.9c-49.6,0-89.9,40.2-89.9,89.9H773C773,275.1,732.8,234.9,683.2,234.9z"/>
	<rect id="XMLID_129_" x="676.5" y="324.8" class="st3" width="13.3" height="89.8"/>
	<path id="XMLID_128_" class="st0" d="M687.1,258.2c12.1,0,22.5-7.4,26.9-17.9c-9.6-3.5-20-5.5-30.9-5.5c-8.3,0-16.2,1.1-23.8,3.2
		C663.2,249.8,674.2,258.2,687.1,258.2z"/>
	<path id="XMLID_127_" class="st0" d="M730.8,279.5c0,10.3,8.3,18.6,18.6,18.6c6.9,0,13-3.8,16.1-9.4c-4.5-10.3-11-19.7-18.9-27.5
		C737.6,262.4,730.8,270.1,730.8,279.5z"/>
	<path id="XMLID_126_" class="st0" d="M735.4,320.9c0-7.5-6-13.5-13.5-13.5s-13.5,6-13.5,13.5c0,1.3,0.2,2.6,0.5,3.8h25.9
		C735.2,323.5,735.4,322.3,735.4,320.9z"/>
	<path id="XMLID_125_" class="st0" d="M641.7,280c-7.5,0-13.5,6-13.5,13.5s6,13.5,13.5,13.5s13.5-6,13.5-13.5S649.2,280,641.7,280z"
		/>
</g>
<g id="XMLID_121_">
	<circle id="XMLID_123_" class="st0" cx="458.5" cy="351.7" r="34.3"/>
	<line id="XMLID_122_" class="st1" x1="458.5" y1="367.5" x2="458.5" y2="414.3"/>
</g>
<path id="XMLID_120_" class="st0" d="M676.6,382.2c-5.5,0-10.6,1.6-14.7,4.3c-5.5-8.9-15.9-15-27.9-15c-17.7,0-32,13.2-32,29.4
	c0,4.9,1.3,9.5,3.6,13.5h94.6c1.2-2.7,1.9-5.8,1.9-8.9C702,392.7,690.6,382.2,676.6,382.2z"/>
<g class="st8">
	<path class="st9" d="M251.5,620.3l-8.3,7.3H254c0.5,0,1,0.2,1.3,0.6c0.3,0.4,0.4,0.9,0.4,1.5s-0.1,1.1-0.4,1.5
		c-0.3,0.4-0.7,0.6-1.3,0.6h-13.9c-0.9,0-1.5-0.3-2-0.8s-0.8-1.2-0.8-1.9c0-1,0.4-1.8,1.1-2.5l10.1-10.1c1.7-1.6,2.5-3.1,2.5-4.6
		c0-1.2-0.4-2.2-1.3-3c-0.9-0.8-1.9-1.2-3.2-1.2c-0.7,0-1.4,0.1-2.1,0.2c-0.7,0.2-1.1,0.3-1.4,0.4c-0.3,0.1-0.8,0.4-1.4,0.8
		c-0.7,0.4-1,0.6-1.1,0.6c-0.2,0.1-0.4,0.1-0.6,0.1c-0.5,0-1-0.3-1.5-0.8s-0.7-1.1-0.7-1.6c0-0.7,0.3-1.2,1-1.6
		c1.3-0.8,2.6-1.4,3.9-1.8c1.3-0.4,2.8-0.6,4.4-0.6c2.7,0,4.8,0.8,6.5,2.3s2.5,3.5,2.5,5.7C256.1,614.7,254.6,617.5,251.5,620.3z"/>
	<path class="st9" d="M267.2,631.5c-1.2-0.5-2.2-1.3-3-2.2s-1.4-2-2-3.3c-0.5-1.3-0.9-2.6-1.1-4s-0.3-2.9-0.3-4.5s0.1-3.1,0.3-4.4
		c0.2-1.4,0.6-2.7,1.1-4s1.2-2.4,1.9-3.2s1.8-1.6,3-2.1s2.6-0.8,4.2-0.8c1.5,0,2.9,0.3,4.2,0.8c1.2,0.5,2.2,1.2,3,2.1
		c0.8,0.9,1.4,2,2,3.2c0.5,1.3,0.9,2.6,1.1,4s0.3,2.9,0.3,4.5s-0.1,3.1-0.3,4.5c-0.2,1.4-0.6,2.7-1.1,4s-1.2,2.4-2,3.3
		c-0.8,0.9-1.8,1.6-3,2.2c-1.2,0.5-2.6,0.8-4.2,0.8C269.7,632.4,268.5,632,267.2,631.5z M273.3,627.6c0.5-0.3,1-0.6,1.4-1.1
		c0.4-0.5,0.7-1.1,0.9-1.7c0.2-0.6,0.4-1.3,0.6-2.2c0.1-0.8,0.2-1.6,0.3-2.4c0-0.8,0.1-1.6,0.1-2.6s0-1.8-0.1-2.6
		c0-0.8-0.1-1.6-0.3-2.4c-0.1-0.8-0.3-1.5-0.5-2.1s-0.5-1.1-0.9-1.6c-0.4-0.5-0.8-0.9-1.4-1.1c-0.6-0.3-1.2-0.4-1.9-0.4
		s-1.3,0.1-1.9,0.4c-0.6,0.3-1,0.6-1.4,1.1c-0.4,0.5-0.7,1-0.9,1.6c-0.2,0.6-0.4,1.3-0.5,2.1c-0.1,0.8-0.2,1.6-0.3,2.4
		c0,0.8-0.1,1.6-0.1,2.6s0,1.8,0.1,2.6c0,0.8,0.1,1.6,0.3,2.4c0.1,0.8,0.3,1.6,0.5,2.2c0.2,0.6,0.5,1.2,0.9,1.7
		c0.4,0.5,0.8,0.9,1.4,1.1c0.6,0.3,1.2,0.4,1.9,0.4C272.2,628,272.7,627.8,273.3,627.6z"/>
	<path class="st9" d="M300,620.3l-8.3,7.3h10.8c0.5,0,1,0.2,1.3,0.6c0.3,0.4,0.4,0.9,0.4,1.5s-0.1,1.1-0.4,1.5s-0.7,0.6-1.3,0.6
		h-13.9c-0.9,0-1.5-0.3-2-0.8s-0.8-1.2-0.8-1.9c0-1,0.4-1.8,1.1-2.5l10.1-10.1c1.7-1.6,2.5-3.1,2.5-4.6c0-1.2-0.4-2.2-1.3-3
		c-0.9-0.8-1.9-1.2-3.2-1.2c-0.7,0-1.4,0.1-2.1,0.2c-0.7,0.2-1.1,0.3-1.4,0.4c-0.3,0.1-0.8,0.4-1.4,0.8c-0.7,0.4-1,0.6-1.1,0.6
		c-0.2,0.1-0.4,0.1-0.6,0.1c-0.5,0-1-0.3-1.5-0.8s-0.7-1.1-0.7-1.6c0-0.7,0.3-1.2,1-1.6c1.3-0.8,2.6-1.4,3.9-1.8
		c1.3-0.4,2.8-0.6,4.4-0.6c2.7,0,4.8,0.8,6.5,2.3s2.5,3.5,2.5,5.7C304.7,614.7,303.2,617.5,300,620.3z"/>
	<path class="st9" d="M315.8,631.5c-1.2-0.5-2.2-1.3-3-2.2s-1.4-2-2-3.3c-0.5-1.3-0.9-2.6-1.1-4s-0.3-2.9-0.3-4.5s0.1-3.1,0.3-4.4
		c0.2-1.4,0.6-2.7,1.1-4s1.2-2.4,1.9-3.2s1.8-1.6,3-2.1s2.6-0.8,4.2-0.8c1.5,0,2.9,0.3,4.2,0.8c1.2,0.5,2.2,1.2,3,2.1
		c0.8,0.9,1.4,2,2,3.2c0.5,1.3,0.9,2.6,1.1,4s0.3,2.9,0.3,4.5s-0.1,3.1-0.3,4.5c-0.2,1.4-0.6,2.7-1.1,4s-1.2,2.4-2,3.3
		c-0.8,0.9-1.8,1.6-3,2.2c-1.2,0.5-2.6,0.8-4.2,0.8C318.3,632.4,317,632,315.8,631.5z M321.9,627.6c0.5-0.3,1-0.6,1.4-1.1
		c0.4-0.5,0.7-1.1,0.9-1.7c0.2-0.6,0.4-1.3,0.6-2.2c0.1-0.8,0.2-1.6,0.3-2.4c0-0.8,0.1-1.6,0.1-2.6s0-1.8-0.1-2.6
		c0-0.8-0.1-1.6-0.3-2.4c-0.1-0.8-0.3-1.5-0.5-2.1s-0.5-1.1-0.9-1.6c-0.4-0.5-0.8-0.9-1.4-1.1c-0.6-0.3-1.2-0.4-1.9-0.4
		c-0.7,0-1.3,0.1-1.9,0.4c-0.6,0.3-1,0.6-1.4,1.1c-0.4,0.5-0.7,1-0.9,1.6c-0.2,0.6-0.4,1.3-0.5,2.1c-0.1,0.8-0.2,1.6-0.3,2.4
		c0,0.8-0.1,1.6-0.1,2.6s0,1.8,0.1,2.6c0,0.8,0.1,1.6,0.3,2.4c0.1,0.8,0.3,1.6,0.5,2.2c0.2,0.6,0.5,1.2,0.9,1.7
		c0.4,0.5,0.8,0.9,1.4,1.1c0.6,0.3,1.2,0.4,1.9,0.4C320.8,628,321.3,627.8,321.9,627.6z"/>
	<path class="st9" d="M336.2,631.1c-0.5-0.5-0.8-1.2-0.8-2c0-0.7,0.3-1.4,0.8-1.9s1.2-0.8,2-0.8s1.4,0.3,2,0.8
		c0.6,0.5,0.8,1.2,0.8,2s-0.3,1.4-0.8,1.9s-1.2,0.8-2,0.8C337.4,631.9,336.7,631.6,336.2,631.1z"/>
	<path class="st9" d="M352.3,631.5c-1.2-0.5-2.2-1.3-3-2.2s-1.4-2-2-3.3c-0.5-1.3-0.9-2.6-1.1-4s-0.3-2.9-0.3-4.5s0.1-3.1,0.3-4.4
		c0.2-1.4,0.6-2.7,1.1-4s1.2-2.4,1.9-3.2s1.8-1.6,3-2.1s2.6-0.8,4.2-0.8c1.5,0,2.9,0.3,4.2,0.8c1.2,0.5,2.2,1.2,3,2.1
		c0.8,0.9,1.4,2,2,3.2c0.5,1.3,0.9,2.6,1.1,4s0.3,2.9,0.3,4.5s-0.1,3.1-0.3,4.5c-0.2,1.4-0.6,2.7-1.1,4s-1.2,2.4-2,3.3
		c-0.8,0.9-1.8,1.6-3,2.2c-1.2,0.5-2.6,0.8-4.2,0.8C354.8,632.4,353.5,632,352.3,631.5z M358.3,627.6c0.5-0.3,1-0.6,1.4-1.1
		c0.4-0.5,0.7-1.1,0.9-1.7c0.2-0.6,0.4-1.3,0.6-2.2c0.1-0.8,0.2-1.6,0.3-2.4c0-0.8,0.1-1.6,0.1-2.6s0-1.8-0.1-2.6
		c0-0.8-0.1-1.6-0.3-2.4c-0.1-0.8-0.3-1.5-0.5-2.1s-0.5-1.1-0.9-1.6c-0.4-0.5-0.8-0.9-1.4-1.1c-0.6-0.3-1.2-0.4-1.9-0.4
		s-1.3,0.1-1.9,0.4c-0.6,0.3-1,0.6-1.4,1.1c-0.4,0.5-0.7,1-0.9,1.6c-0.2,0.6-0.4,1.3-0.5,2.1c-0.1,0.8-0.2,1.6-0.3,2.4
		c0,0.8-0.1,1.6-0.1,2.6s0,1.8,0.1,2.6c0,0.8,0.1,1.6,0.3,2.4c0.1,0.8,0.3,1.6,0.5,2.2c0.2,0.6,0.5,1.2,0.9,1.7
		c0.4,0.5,0.8,0.9,1.4,1.1c0.6,0.3,1.2,0.4,1.9,0.4C357.2,628,357.8,627.8,358.3,627.6z"/>
	<path class="st9" d="M383.5,631.2c-0.5-0.5-0.8-1.1-0.8-2V626h-10.5c-0.8,0-1.4-0.3-1.8-0.8c-0.5-0.5-0.7-1.1-0.7-1.8
		c0-0.4,0.1-0.9,0.3-1.3l9.6-15.9c1.1-1.8,2.6-2.7,4.5-2.7c1.2,0,2.1,0.3,2.8,0.9c0.7,0.6,1.1,1.7,1.1,3.1V622h2.2
		c0.6,0,1.1,0.2,1.5,0.5c0.4,0.3,0.5,0.8,0.5,1.4c0,0.6-0.2,1-0.5,1.4s-0.8,0.6-1.5,0.6h-2.3v3.2c0,0.8-0.3,1.5-0.8,2
		s-1.1,0.7-1.9,0.7C384.6,631.9,384,631.7,383.5,631.2z M382.7,622v-13.3L375,622H382.7z"/>
</g>
<g class="st8">
	<path class="st9" d="M424.1,613.6c0.5,0.1,0.8,0.3,1,0.6s0.3,0.7,0.2,1.3c-0.3,1.7-1,3.1-2,4.1s-2.3,1.5-3.8,1.5
		c-0.9,0-1.7-0.2-2.4-0.6c-0.7-0.4-1.3-0.8-1.8-1.3s-1.1-0.9-1.6-1.3s-1.1-0.6-1.7-0.6c-0.7,0-1.2,0.3-1.6,0.8
		c-0.4,0.6-0.7,1.3-0.9,2.2c-0.1,0.5-0.4,0.8-0.8,1c-0.4,0.2-0.8,0.2-1.2,0.1c-0.5-0.1-0.8-0.3-1-0.6s-0.3-0.7-0.2-1.3
		c0.1-0.7,0.4-1.4,0.7-2.1c0.3-0.7,0.7-1.3,1.2-1.8s1-1,1.7-1.3s1.4-0.5,2.2-0.5c1,0,1.8,0.2,2.5,0.6c0.7,0.4,1.3,0.9,1.8,1.3
		c0.5,0.5,1,0.9,1.5,1.3c0.5,0.4,1,0.6,1.6,0.6c1.4,0,2.2-1,2.6-3c0.1-0.5,0.4-0.9,0.8-1C423.3,613.5,423.7,613.5,424.1,613.6z"/>
</g>
<g class="st8">
	<path class="st9" d="M454.4,620.3l-8.3,7.3h10.8c0.5,0,1,0.2,1.3,0.6c0.3,0.4,0.4,0.9,0.4,1.5s-0.1,1.1-0.4,1.5s-0.7,0.6-1.3,0.6
		H443c-0.9,0-1.5-0.3-2-0.8s-0.8-1.2-0.8-1.9c0-1,0.4-1.8,1.1-2.5l10.1-10.1c1.7-1.6,2.5-3.1,2.5-4.6c0-1.2-0.4-2.2-1.3-3
		c-0.9-0.8-1.9-1.2-3.2-1.2c-0.7,0-1.4,0.1-2.1,0.2c-0.7,0.2-1.1,0.3-1.4,0.4c-0.3,0.1-0.8,0.4-1.4,0.8c-0.7,0.4-1,0.6-1.1,0.6
		c-0.2,0.1-0.4,0.1-0.6,0.1c-0.5,0-1-0.3-1.5-0.8s-0.7-1.1-0.7-1.6c0-0.7,0.3-1.2,1-1.6c1.3-0.8,2.6-1.4,3.9-1.8
		c1.3-0.4,2.8-0.6,4.4-0.6c2.7,0,4.8,0.8,6.5,2.3s2.5,3.5,2.5,5.7C459,614.7,457.5,617.5,454.4,620.3z"/>
	<path class="st9" d="M470.1,631.5c-1.2-0.5-2.2-1.3-3-2.2s-1.4-2-2-3.3c-0.5-1.3-0.9-2.6-1.1-4s-0.3-2.9-0.3-4.5s0.1-3.1,0.3-4.4
		c0.2-1.4,0.6-2.7,1.1-4s1.2-2.4,1.9-3.2c0.7-0.8,1.8-1.6,3-2.1s2.6-0.8,4.2-0.8c1.5,0,2.9,0.3,4.2,0.8c1.2,0.5,2.2,1.2,3,2.1
		c0.8,0.9,1.4,2,2,3.2c0.5,1.3,0.9,2.6,1.1,4s0.3,2.9,0.3,4.5s-0.1,3.1-0.3,4.5c-0.2,1.4-0.6,2.7-1.1,4s-1.2,2.4-2,3.3
		c-0.8,0.9-1.8,1.6-3,2.2c-1.2,0.5-2.6,0.8-4.2,0.8C472.6,632.4,471.4,632,470.1,631.5z M476.2,627.6c0.5-0.3,1-0.6,1.4-1.1
		c0.4-0.5,0.7-1.1,0.9-1.7c0.2-0.6,0.4-1.3,0.6-2.2c0.1-0.8,0.2-1.6,0.3-2.4c0-0.8,0.1-1.6,0.1-2.6s0-1.8-0.1-2.6
		c0-0.8-0.1-1.6-0.3-2.4c-0.1-0.8-0.3-1.5-0.5-2.1s-0.5-1.1-0.9-1.6c-0.4-0.5-0.8-0.9-1.4-1.1c-0.6-0.3-1.2-0.4-1.9-0.4
		s-1.3,0.1-1.9,0.4c-0.6,0.3-1,0.6-1.4,1.1c-0.4,0.5-0.7,1-0.9,1.6c-0.2,0.6-0.4,1.3-0.5,2.1c-0.1,0.8-0.2,1.6-0.3,2.4
		c0,0.8-0.1,1.6-0.1,2.6s0,1.8,0.1,2.6c0,0.8,0.1,1.6,0.3,2.4c0.1,0.8,0.3,1.6,0.5,2.2c0.2,0.6,0.5,1.2,0.9,1.7
		c0.4,0.5,0.8,0.9,1.4,1.1c0.6,0.3,1.2,0.4,1.9,0.4C475.1,628,475.6,627.8,476.2,627.6z"/>
	<path class="st9" d="M502.9,620.3l-8.3,7.3h10.8c0.5,0,1,0.2,1.3,0.6c0.3,0.4,0.4,0.9,0.4,1.5s-0.1,1.1-0.4,1.5s-0.7,0.6-1.3,0.6
		h-13.9c-0.9,0-1.5-0.3-2-0.8s-0.8-1.2-0.8-1.9c0-1,0.4-1.8,1.1-2.5l10.1-10.1c1.7-1.6,2.5-3.1,2.5-4.6c0-1.2-0.4-2.2-1.3-3
		c-0.9-0.8-1.9-1.2-3.2-1.2c-0.7,0-1.4,0.1-2.1,0.2c-0.7,0.2-1.1,0.3-1.4,0.4c-0.3,0.1-0.8,0.4-1.4,0.8c-0.7,0.4-1,0.6-1.1,0.6
		c-0.2,0.1-0.4,0.1-0.6,0.1c-0.5,0-1-0.3-1.5-0.8s-0.7-1.1-0.7-1.6c0-0.7,0.3-1.2,1-1.6c1.3-0.8,2.6-1.4,3.9-1.8
		c1.3-0.4,2.8-0.6,4.4-0.6c2.7,0,4.8,0.8,6.5,2.3s2.5,3.5,2.5,5.7C507.6,614.7,506.1,617.5,502.9,620.3z"/>
	<path class="st9" d="M518.7,631.5c-1.2-0.5-2.2-1.3-3-2.2s-1.4-2-2-3.3c-0.5-1.3-0.9-2.6-1.1-4c-0.2-1.4-0.3-2.9-0.3-4.5
		s0.1-3.1,0.3-4.4c0.2-1.4,0.6-2.7,1.1-4s1.2-2.4,1.9-3.2s1.8-1.6,3-2.1s2.6-0.8,4.2-0.8c1.5,0,2.9,0.3,4.2,0.8
		c1.2,0.5,2.2,1.2,3,2.1c0.8,0.9,1.4,2,2,3.2c0.5,1.3,0.9,2.6,1.1,4s0.3,2.9,0.3,4.5s-0.1,3.1-0.3,4.5s-0.6,2.7-1.1,4
		s-1.2,2.4-2,3.3c-0.8,0.9-1.8,1.6-3,2.2c-1.2,0.5-2.6,0.8-4.2,0.8S519.9,632,518.7,631.5z M524.8,627.6c0.5-0.3,1-0.6,1.4-1.1
		s0.7-1.1,0.9-1.7c0.2-0.6,0.4-1.3,0.6-2.2c0.1-0.8,0.2-1.6,0.3-2.4c0-0.8,0.1-1.6,0.1-2.6s0-1.8-0.1-2.6c0-0.8-0.1-1.6-0.3-2.4
		c-0.1-0.8-0.3-1.5-0.5-2.1s-0.5-1.1-0.9-1.6s-0.8-0.9-1.4-1.1c-0.6-0.3-1.2-0.4-1.9-0.4s-1.3,0.1-1.9,0.4c-0.6,0.3-1,0.6-1.4,1.1
		s-0.7,1-0.9,1.6s-0.4,1.3-0.5,2.1s-0.2,1.6-0.3,2.4c0,0.8-0.1,1.6-0.1,2.6s0,1.8,0.1,2.6c0,0.8,0.1,1.6,0.3,2.4
		c0.1,0.8,0.3,1.6,0.5,2.2c0.2,0.6,0.5,1.2,0.9,1.7s0.8,0.9,1.4,1.1c0.6,0.3,1.2,0.4,1.9,0.4S524.2,627.8,524.8,627.6z"/>
	<path class="st9" d="M539.1,631.1c-0.5-0.5-0.8-1.2-0.8-2c0-0.7,0.3-1.4,0.8-1.9s1.2-0.8,2-0.8s1.4,0.3,2,0.8s0.8,1.2,0.8,2
		s-0.3,1.4-0.8,1.9s-1.2,0.8-2,0.8C540.3,631.9,539.6,631.6,539.1,631.1z"/>
	<path class="st9" d="M555.2,631.5c-1.2-0.5-2.2-1.3-3-2.2s-1.4-2-2-3.3c-0.5-1.3-0.9-2.6-1.1-4c-0.2-1.4-0.3-2.9-0.3-4.5
		s0.1-3.1,0.3-4.4c0.2-1.4,0.6-2.7,1.1-4s1.2-2.4,1.9-3.2s1.8-1.6,3-2.1s2.6-0.8,4.2-0.8c1.5,0,2.9,0.3,4.2,0.8
		c1.2,0.5,2.2,1.2,3,2.1c0.8,0.9,1.4,2,2,3.2c0.5,1.3,0.9,2.6,1.1,4s0.3,2.9,0.3,4.5s-0.1,3.1-0.3,4.5s-0.6,2.7-1.1,4
		s-1.2,2.4-2,3.3c-0.8,0.9-1.8,1.6-3,2.2c-1.2,0.5-2.6,0.8-4.2,0.8S556.4,632,555.2,631.5z M561.2,627.6c0.5-0.3,1-0.6,1.4-1.1
		s0.7-1.1,0.9-1.7c0.2-0.6,0.4-1.3,0.6-2.2c0.1-0.8,0.2-1.6,0.3-2.4c0-0.8,0.1-1.6,0.1-2.6s0-1.8-0.1-2.6c0-0.8-0.1-1.6-0.3-2.4
		c-0.1-0.8-0.3-1.5-0.5-2.1s-0.5-1.1-0.9-1.6s-0.8-0.9-1.4-1.1c-0.6-0.3-1.2-0.4-1.9-0.4s-1.3,0.1-1.9,0.4c-0.6,0.3-1,0.6-1.4,1.1
		s-0.7,1-0.9,1.6s-0.4,1.3-0.5,2.1s-0.2,1.6-0.3,2.4c0,0.8-0.1,1.6-0.1,2.6s0,1.8,0.1,2.6c0,0.8,0.1,1.6,0.3,2.4
		c0.1,0.8,0.3,1.6,0.5,2.2c0.2,0.6,0.5,1.2,0.9,1.7s0.8,0.9,1.4,1.1c0.6,0.3,1.2,0.4,1.9,0.4S560.7,627.8,561.2,627.6z"/>
	<path class="st9" d="M575.1,629.3c-0.4-0.3-0.5-0.7-0.5-1.3s0.2-1.1,0.6-1.7c0.4-0.5,0.9-0.8,1.4-0.8c0.3,0,0.6,0.1,0.9,0.3
		c1.8,1.4,3.8,2,5.9,2c1.6,0,2.9-0.4,3.7-1.3s1.3-2.1,1.3-3.7c0-1.5-0.4-2.7-1.3-3.5c-0.9-0.8-2-1.3-3.4-1.3c-1.6,0-3.1,0.6-4.7,1.8
		c-0.2,0.1-0.5,0.2-0.8,0.2c-0.7,0-1.4-0.2-2.1-0.6c-0.7-0.4-1-1-1-1.7v-11.6c0-1,0.2-1.6,0.7-2s1.2-0.6,2.2-0.6h12.4
		c0.6,0,1,0.2,1.4,0.6c0.3,0.4,0.5,0.9,0.5,1.5s-0.2,1.1-0.5,1.5s-0.8,0.6-1.4,0.6h-10.8v7.7l0.2-0.2c0.1-0.1,0.4-0.2,0.7-0.4
		c0.3-0.1,0.7-0.3,1.1-0.4s0.9-0.3,1.6-0.4s1.3-0.2,2-0.2c2.6,0,4.7,0.8,6.3,2.4s2.4,3.8,2.4,6.5c0,1.9-0.5,3.5-1.4,4.9
		s-2.1,2.5-3.6,3.3s-3.2,1.1-5.1,1.1C580.3,632.2,577.5,631.3,575.1,629.3z"/>
</g>
<g class="st8">
	<path class="st9" d="M250.6,717l-7.2-17.5v18.9c0,0.7-0.2,1.2-0.7,1.5c-0.5,0.4-1.1,0.5-1.8,0.5s-1.3-0.2-1.8-0.5
		c-0.5-0.4-0.8-0.9-0.8-1.5V697c0-1.1,0.4-2,1.3-2.7c0.8-0.7,1.8-1,2.9-1c1,0,1.8,0.3,2.7,0.8s1.4,1.4,1.9,2.5l6.8,16.2v6.8
		C252.3,719.7,251.3,718.8,250.6,717z M253.8,712.9l6.8-16.2c0.4-1.1,1.1-1.9,1.9-2.5s1.7-0.8,2.7-0.8c1.1,0,2.1,0.3,2.9,1
		s1.3,1.6,1.3,2.7v21.4c0,0.7-0.3,1.2-0.8,1.5c-0.5,0.4-1.1,0.5-1.8,0.5c-0.7,0-1.3-0.2-1.8-0.5c-0.5-0.4-0.8-0.9-0.8-1.5v-18.9
		L257,717c-0.7,1.8-1.8,2.7-3.2,2.7V712.9z"/>
	<path class="st9" d="M277,719.8c-0.5-0.6-0.8-1.4-0.8-2.2v-21.7c0-1,0.3-1.8,0.8-2.4c0.5-0.6,1.2-0.9,2.1-0.9H293
		c0.6,0,1.1,0.2,1.5,0.7c0.4,0.4,0.6,1,0.6,1.5s-0.2,1.1-0.6,1.5c-0.4,0.4-0.9,0.7-1.5,0.7h-11.2v7.2h10.4c0.7,0,1.2,0.2,1.5,0.6
		c0.4,0.4,0.6,0.9,0.6,1.5s-0.2,1.1-0.6,1.5c-0.4,0.4-0.9,0.6-1.5,0.6h-10.4v7.8h11.7c0.6,0,1.1,0.2,1.5,0.7c0.4,0.5,0.6,1,0.6,1.5
		s-0.2,1.1-0.6,1.5c-0.4,0.4-0.9,0.7-1.5,0.7H279C278.2,720.8,277.5,720.5,277,719.8z"/>
	<path class="st9" d="M306.3,719.7c-2.1-1.1-3.8-2.8-5-5s-1.8-4.9-1.8-8.1c0-2.1,0.3-4,0.9-5.7c0.6-1.8,1.5-3.3,2.7-4.7
		s2.7-2.4,4.6-3.2c1.9-0.8,4-1.2,6.4-1.2c3.2,0,6,0.6,8.4,1.7c0.4,0.2,0.7,0.5,0.9,0.8c0.2,0.3,0.3,0.7,0.3,1.1
		c0,0.6-0.2,1.1-0.5,1.6c-0.4,0.5-0.8,0.7-1.4,0.7c-0.2,0-0.5-0.1-0.7-0.2c-2.7-0.8-5-1.3-6.8-1.3c-1.5,0-2.9,0.2-4,0.7
		c-1.1,0.5-2.1,1.2-2.8,2.1c-0.7,0.9-1.2,2-1.5,3.2s-0.5,2.6-0.5,4.2c0,6.8,2.9,10.3,8.6,10.3c1.7,0,3.4-0.2,5.1-0.6v-6.7h-4.1
		c-0.6,0-1-0.2-1.4-0.6c-0.3-0.4-0.5-0.9-0.5-1.4s0.2-1,0.5-1.4s0.8-0.6,1.3-0.6h7.6c1.4,0,2.1,0.9,2.1,2.6v8.2
		c0,1.2-0.2,2.1-0.6,2.6c-0.4,0.5-1.1,0.9-2.1,1.2c-3.5,0.8-6.2,1.2-8.2,1.2C310.9,721.3,308.4,720.8,306.3,719.7z"/>
	<path class="st9" d="M347.3,714.3h-12.5L333,719c-0.2,0.6-0.6,1.1-1,1.4c-0.5,0.3-1,0.5-1.5,0.5c-0.7,0-1.3-0.2-1.9-0.7
		c-0.6-0.5-0.8-1.1-0.8-1.8c0-0.3,0.1-0.7,0.2-1l8.6-21.5c0.5-1.4,1.2-2.4,1.9-2.9c0.7-0.5,1.6-0.7,2.6-0.7s1.9,0.2,2.6,0.7
		s1.3,1.5,1.9,2.9l8.6,21.5c0.1,0.3,0.2,0.7,0.2,1c0,0.7-0.3,1.3-0.8,1.8s-1.2,0.7-1.9,0.7c-0.6,0-1.1-0.2-1.5-0.5
		c-0.5-0.3-0.8-0.8-1-1.4L347.3,714.3z M341.1,697.7l-4.8,12.9h9.6L341.1,697.7z"/>
	<path class="st9" d="M359.4,720c-0.5-0.5-0.8-1.4-0.8-2.4v-22.1c0-0.8,0.3-1.5,0.8-2s1.3-0.8,2.1-0.8h7.9c6.7,0,10,2.3,10,7
		c0,1.7-0.4,3.2-1.3,4.3c-0.9,1.1-2.2,1.9-3.9,2.2v0.1c2,0.3,3.6,1,4.7,2.2c1.1,1.2,1.7,2.8,1.7,4.8c0,1-0.2,1.9-0.7,2.8
		c-0.4,0.9-1.1,1.7-1.9,2.4s-1.9,1.3-3.2,1.7c-1.3,0.4-2.8,0.6-4.4,0.6h-9C360.7,720.8,360,720.5,359.4,720z M368.5,704.5
		c2,0,3.5-0.3,4.3-0.9s1.3-1.7,1.3-3.3c0-0.6-0.1-1.1-0.2-1.6c-0.2-0.4-0.4-0.8-0.7-1c-0.3-0.2-0.6-0.5-1.1-0.6s-0.9-0.2-1.4-0.3
		s-1-0.1-1.7-0.1h-4.8v7.7L368.5,704.5L368.5,704.5z M369.2,716.7c1,0,1.9,0,2.5-0.1c0.7-0.1,1.2-0.3,1.8-0.6
		c0.5-0.3,0.9-0.7,1.2-1.3c0.2-0.6,0.4-1.3,0.4-2.1c0-0.7-0.1-1.3-0.3-1.9c-0.2-0.5-0.5-0.9-0.8-1.2c-0.4-0.3-0.8-0.5-1.5-0.7
		c-0.6-0.2-1.3-0.3-1.9-0.3c-0.6,0-1.5-0.1-2.5-0.1h-3.8v8.4h4.9L369.2,716.7L369.2,716.7z"/>
	<path class="st9" d="M388.1,717.4c-2.4-2.6-3.6-6.2-3.6-10.8s1.2-8.2,3.6-10.8c2.4-2.6,5.8-3.9,10.1-3.9c4.4,0,7.8,1.3,10.1,3.9
		c2.4,2.6,3.6,6.2,3.6,10.8s-1.2,8.2-3.6,10.8c-2.4,2.6-5.7,3.9-10.1,3.9C393.9,721.3,390.5,720,388.1,717.4z M404.1,714.2
		c1.3-1.8,1.9-4.3,1.9-7.6s-0.6-5.9-1.9-7.6c-1.3-1.8-3.2-2.7-5.9-2.7c-2.6,0-4.6,0.9-5.9,2.7s-1.9,4.3-1.9,7.6s0.6,5.9,1.9,7.6
		c1.3,1.8,3.2,2.7,5.9,2.7C400.9,716.9,402.8,716,404.1,714.2z"/>
	<path class="st9" d="M426.8,710.5l-7.1,9.1c-0.6,0.8-1.4,1.3-2.2,1.3c-0.6,0-1.2-0.2-1.7-0.7c-0.5-0.4-0.7-1-0.7-1.6
		s0.2-1.2,0.7-1.9l8.1-10l-7.6-10c-0.4-0.5-0.5-1-0.5-1.6c0-0.7,0.3-1.3,0.8-1.9c0.5-0.5,1.2-0.8,1.9-0.8c0.9,0,1.6,0.4,2.2,1.3
		l6.8,9l6.9-8.8c0.7-1,1.5-1.4,2.4-1.4c0.6,0,1.1,0.2,1.6,0.7c0.4,0.4,0.7,1,0.7,1.6c0,0.5-0.2,1-0.5,1.5l-8.1,10.4l7.8,10.3
		c0.4,0.5,0.6,1.1,0.6,1.6c0,0.7-0.3,1.3-0.8,1.8s-1.2,0.8-1.9,0.8c-0.9,0-1.6-0.4-2.2-1.3L426.8,710.5z"/>
</g>
<g class="st8">
	<path class="st9" d="M243.4,776.2c0.3,0.3,0.5,0.9,0.5,1.7v3.4c0,1,0,1.8-0.1,2.6c-0.1,0.7-0.2,1.4-0.5,2c-0.2,0.6-0.6,1.2-1,1.8
		s-1,1.2-1.7,1.8s-1.6,1.3-2.6,2.1s-2.3,1.6-3.7,2.7c-0.2,0.2-0.5,0.2-0.8,0.1c-0.3-0.1-0.5-0.2-0.7-0.5c-0.2-0.2-0.3-0.5-0.2-0.8
		c0-0.3,0.1-0.5,0.4-0.7c1.3-0.9,2.5-1.7,3.4-2.4s1.7-1.3,2.4-1.8c0.6-0.5,1.2-1,1.5-1.5c0.4-0.5,0.7-1,0.9-1.5s0.3-1.1,0.4-1.7
		c0.1-0.6,0.1-1.3,0.1-2.2v-2.8c0-0.4-0.2-0.6-0.6-0.6h-7.3c-0.3,0-0.5-0.1-0.6-0.3s-0.2-0.4-0.2-0.7s0.1-0.5,0.2-0.7
		c0.1-0.2,0.3-0.3,0.6-0.3h8C242.5,775.8,243,775.9,243.4,776.2z M255.5,773.3c0.3,0,0.6,0.1,0.8,0.2c0.2,0.1,0.3,0.4,0.3,0.7v25.5
		c0,0.3-0.1,0.6-0.3,0.7c-0.2,0.1-0.5,0.2-0.8,0.2s-0.5-0.1-0.8-0.2c-0.2-0.1-0.3-0.4-0.3-0.7v-14.4H250v13.1c0,0.3-0.1,0.6-0.3,0.7
		s-0.5,0.2-0.8,0.2s-0.5-0.1-0.8-0.2c-0.2-0.1-0.3-0.4-0.3-0.7v-23.9c0-0.3,0.1-0.6,0.3-0.7c0.2-0.1,0.5-0.2,0.8-0.2
		s0.6,0.1,0.8,0.2s0.3,0.4,0.3,0.7v8.8h4.4v-9.1c0-0.3,0.1-0.6,0.3-0.7S255.2,773.3,255.5,773.3z"/>
	<path class="st9" d="M269.6,774.8c1.2,0,2.3,0.2,3.2,0.6c0.9,0.4,1.7,0.9,2.3,1.6c0.6,0.7,1,1.4,1.3,2.3c0.3,0.9,0.4,1.8,0.4,2.8
		s-0.1,1.9-0.4,2.8c-0.3,0.9-0.7,1.7-1.3,2.3c-0.6,0.7-1.3,1.2-2.3,1.5c-0.9,0.4-2,0.6-3.2,0.6s-2.3-0.2-3.2-0.6
		c-0.9-0.4-1.7-0.9-2.3-1.5c-0.6-0.7-1-1.4-1.3-2.3c-0.3-0.9-0.4-1.8-0.4-2.8s0.1-2,0.4-2.8s0.7-1.6,1.3-2.3s1.3-1.2,2.3-1.6
		C267.3,774.9,268.4,774.8,269.6,774.8z M269.6,776.8c-0.9,0-1.7,0.1-2.3,0.4c-0.6,0.3-1.1,0.7-1.5,1.2c-0.4,0.5-0.7,1-0.9,1.7
		c-0.2,0.6-0.3,1.3-0.3,2s0.1,1.4,0.3,2c0.2,0.6,0.5,1.2,0.9,1.7c0.4,0.5,0.9,0.9,1.5,1.1c0.6,0.3,1.4,0.4,2.3,0.4
		c0.9,0,1.7-0.1,2.3-0.4c0.6-0.3,1.1-0.7,1.5-1.1c0.4-0.5,0.7-1,0.9-1.7c0.2-0.6,0.3-1.3,0.3-2s-0.1-1.4-0.3-2
		c-0.2-0.6-0.5-1.2-0.9-1.7c-0.4-0.5-0.9-0.9-1.5-1.2C271.2,776.9,270.5,776.8,269.6,776.8z M267.8,792.2c0.3,0,0.6,0.1,0.8,0.2
		c0.2,0.1,0.4,0.4,0.4,0.7v6.3c0,0.4,0.2,0.6,0.6,0.6h15.2c0.3,0,0.5,0.1,0.6,0.3c0.1,0.2,0.2,0.4,0.2,0.7s-0.1,0.5-0.2,0.7
		c-0.1,0.2-0.3,0.3-0.6,0.3h-15.9c-0.8,0-1.4-0.2-1.7-0.5c-0.3-0.3-0.5-0.9-0.5-1.7V793c0-0.3,0.1-0.6,0.4-0.7
		C267.3,792.3,267.5,792.2,267.8,792.2z M283.7,773.3c0.3,0,0.6,0.1,0.8,0.2c0.2,0.1,0.4,0.4,0.4,0.7v19.5c0,0.3-0.1,0.6-0.4,0.7
		c-0.2,0.1-0.5,0.2-0.8,0.2s-0.6-0.1-0.8-0.2c-0.2-0.1-0.4-0.4-0.4-0.7v-19.5c0-0.3,0.1-0.6,0.4-0.7
		C283.1,773.4,283.4,773.3,283.7,773.3z"/>
	<path class="st9" d="M304.7,795.7H316c0.3,0,0.5,0.1,0.6,0.3c0.1,0.2,0.2,0.4,0.2,0.7s-0.1,0.5-0.2,0.7c-0.1,0.2-0.3,0.3-0.6,0.3
		h-25c-0.3,0-0.5-0.1-0.6-0.3c-0.1-0.2-0.2-0.4-0.2-0.7s0.1-0.5,0.2-0.7c0.1-0.2,0.3-0.3,0.6-0.3h11.4v-7.8h2.3V795.7L304.7,795.7z
		 M313.1,775.3c0.3,0,0.4,0.1,0.6,0.3c0.1,0.2,0.2,0.4,0.2,0.7s-0.1,0.5-0.2,0.7c-0.1,0.2-0.3,0.3-0.6,0.3h-3.6v9.8h3.8
		c0.3,0,0.5,0.1,0.6,0.3c0.1,0.2,0.2,0.4,0.2,0.7s-0.1,0.5-0.2,0.7c-0.1,0.2-0.3,0.3-0.6,0.3h-19.5c-0.3,0-0.5-0.1-0.6-0.3
		c-0.1-0.2-0.2-0.4-0.2-0.7s0.1-0.5,0.2-0.7c0.1-0.2,0.3-0.3,0.6-0.3h3.8v-9.8H294c-0.3,0-0.4-0.1-0.6-0.3c-0.1-0.2-0.2-0.4-0.2-0.7
		s0.1-0.5,0.2-0.7c0.1-0.2,0.3-0.3,0.6-0.3H313.1z M307.2,787.1v-9.8h-7.4v9.8H307.2z"/>
	<path class="st9" d="M345.8,796c0.1,0.2,0.2,0.5,0.2,0.8s-0.1,0.5-0.2,0.7c-0.1,0.2-0.3,0.3-0.6,0.3h-25c-0.3,0-0.5-0.1-0.6-0.3
		c-0.1-0.2-0.2-0.4-0.2-0.7s0.1-0.5,0.2-0.8c0.1-0.2,0.3-0.3,0.6-0.3h25C345.5,795.7,345.7,795.8,345.8,796z M341.9,775.4
		c0.1,0.2,0.2,0.4,0.2,0.7s-0.1,0.5-0.2,0.7c-0.1,0.2-0.3,0.3-0.6,0.3H326c-0.4,0-0.6,0.2-0.6,0.6v4H341c0.3,0,0.5,0.1,0.6,0.3
		c0.1,0.2,0.2,0.4,0.2,0.7s-0.1,0.5-0.2,0.7c-0.1,0.2-0.3,0.3-0.6,0.3h-15.6v4c0,0.4,0.2,0.6,0.6,0.6h15.9c0.3,0,0.5,0.1,0.6,0.3
		c0.1,0.2,0.2,0.4,0.2,0.7s-0.1,0.5-0.2,0.7c-0.1,0.2-0.3,0.3-0.6,0.3h-16.6c-0.8,0-1.4-0.2-1.7-0.5c-0.3-0.3-0.5-0.9-0.5-1.7v-10.8
		c0-0.8,0.2-1.4,0.5-1.7s0.9-0.5,1.7-0.5h16C341.6,775.1,341.8,775.2,341.9,775.4z"/>
	<path class="st9" d="M362.9,786.8h11.4c0.3,0,0.4,0.1,0.6,0.3c0.1,0.2,0.2,0.4,0.2,0.7s-0.1,0.5-0.2,0.7c-0.1,0.2-0.3,0.3-0.6,0.3
		h-25.2c-0.3,0-0.4-0.1-0.6-0.3c-0.1-0.2-0.2-0.4-0.2-0.7s0.1-0.5,0.2-0.7c0.1-0.2,0.3-0.3,0.6-0.3h11.4v-4.4h2.3v4.4H362.9z
		 M371.3,774.2c0.2,0,0.4,0.1,0.5,0.3c0.1,0.2,0.2,0.4,0.2,0.7s-0.1,0.5-0.2,0.7c-0.1,0.2-0.3,0.3-0.5,0.3h-3.6v5.6h3.8
		c0.3,0,0.4,0.1,0.6,0.3c0.1,0.2,0.2,0.4,0.2,0.7c0,0.2-0.1,0.4-0.2,0.6c-0.1,0.2-0.3,0.3-0.6,0.3H352c-0.3,0-0.4-0.1-0.6-0.3
		s-0.2-0.4-0.2-0.6c0-0.3,0.1-0.5,0.2-0.7c0.1-0.2,0.3-0.3,0.6-0.3h3.8v-5.6h-3.6c-0.2,0-0.4-0.1-0.5-0.3c-0.1-0.2-0.2-0.4-0.2-0.7
		s0.1-0.5,0.2-0.7c0.1-0.2,0.3-0.3,0.5-0.3H371.3z M370.8,791.7c0.3,0.3,0.5,0.9,0.5,1.7v2.3c0,0.8-0.2,1.4-0.5,1.7
		s-0.9,0.5-1.7,0.5h-14c-0.4,0-0.5,0.2-0.5,0.5v1.9c0,0.3,0.2,0.5,0.5,0.5h16.3c0.3,0,0.4,0.1,0.6,0.3c0.1,0.2,0.2,0.4,0.2,0.6
		c0,0.3-0.1,0.5-0.2,0.7c-0.1,0.2-0.3,0.3-0.6,0.3h-16.9c-0.8,0-1.4-0.2-1.7-0.5c-0.3-0.3-0.5-0.9-0.5-1.7v-2.3
		c0-0.8,0.2-1.4,0.5-1.7s0.9-0.5,1.7-0.5h14.1c0.3,0,0.5-0.2,0.5-0.5v-1.9c0-0.3-0.2-0.5-0.5-0.5H353c-0.3,0-0.4-0.1-0.6-0.3
		c-0.1-0.2-0.2-0.4-0.2-0.7c0-0.2,0.1-0.4,0.2-0.6c0.1-0.2,0.3-0.3,0.6-0.3h16.1C369.9,791.3,370.5,791.4,370.8,791.7z M365.4,781.7
		v-5.6h-7.3v5.6H365.4z"/>
	<path class="st9" d="M391.8,775.8c0.3,0.3,0.5,0.9,0.5,1.7v5.9c0,0.8-0.2,1.4-0.5,1.7s-0.9,0.5-1.7,0.5h-7.7
		c-0.4,0-0.6,0.2-0.6,0.6v5.3c0,0.4,0.2,0.6,0.6,0.6c2.5,0,4.8-0.1,6.8-0.2s4-0.3,5.9-0.6c0.3,0,0.5,0,0.6,0.2
		c0.2,0.2,0.3,0.4,0.3,0.7s0,0.6-0.1,0.8c-0.1,0.2-0.3,0.4-0.6,0.4c-0.8,0.1-1.7,0.2-2.6,0.3c-0.9,0.1-1.9,0.2-3.1,0.2
		c-1.1,0.1-2.3,0.1-3.6,0.1c-1.3,0-2.8,0-4.4,0c-0.8,0-1.4-0.2-1.7-0.5c-0.3-0.3-0.5-0.9-0.5-1.7v-6.1c0-0.8,0.2-1.4,0.5-1.7
		s0.9-0.5,1.7-0.5h7.7c0.4,0,0.6-0.2,0.6-0.6v-5.1c0-0.4-0.2-0.6-0.6-0.6h-9.1c-0.3,0-0.5-0.1-0.6-0.3c-0.1-0.2-0.2-0.4-0.2-0.7
		s0.1-0.5,0.2-0.7c0.1-0.2,0.3-0.3,0.6-0.3h9.8C391,775.3,391.5,775.5,391.8,775.8z M400.1,773.3c0.3,0,0.6,0.1,0.8,0.2
		c0.2,0.1,0.4,0.4,0.4,0.7v25.5c0,0.3-0.1,0.6-0.4,0.7c-0.2,0.1-0.5,0.2-0.8,0.2s-0.6-0.1-0.8-0.2c-0.2-0.1-0.4-0.4-0.4-0.7v-25.5
		c0-0.3,0.1-0.6,0.4-0.7S399.8,773.3,400.1,773.3z"/>
	<path class="st9" d="M421.2,795.7h11.3c0.3,0,0.5,0.1,0.6,0.3c0.1,0.2,0.2,0.4,0.2,0.7s-0.1,0.5-0.2,0.7c-0.1,0.2-0.3,0.3-0.6,0.3
		h-25c-0.3,0-0.5-0.1-0.6-0.3c-0.1-0.2-0.2-0.4-0.2-0.7s0.1-0.5,0.2-0.7c0.1-0.2,0.3-0.3,0.6-0.3h11.4v-7.8h2.3V795.7L421.2,795.7z
		 M420,774.5c3.1,0,5.4,0.7,7.1,2c1.7,1.4,2.5,3.2,2.5,5.6s-0.8,4.2-2.5,5.6c-1.7,1.4-4,2-7.1,2c-3.1,0-5.4-0.7-7.1-2
		c-1.7-1.4-2.5-3.2-2.5-5.6s0.8-4.2,2.5-5.6C414.6,775.1,416.9,774.5,420,774.5z M420,776.5c-1.2,0-2.3,0.1-3.2,0.4
		c-0.9,0.3-1.7,0.7-2.3,1.2s-1,1.1-1.3,1.8s-0.4,1.4-0.4,2.2s0.1,1.6,0.4,2.2s0.7,1.3,1.3,1.8c0.6,0.5,1.3,0.9,2.3,1.2
		c0.9,0.3,2,0.4,3.2,0.4s2.3-0.1,3.2-0.4c0.9-0.3,1.7-0.7,2.3-1.2c0.6-0.5,1-1.1,1.3-1.8s0.4-1.4,0.4-2.2s-0.1-1.5-0.4-2.2
		s-0.7-1.3-1.3-1.8s-1.3-0.9-2.3-1.2C422.3,776.6,421.2,776.5,420,776.5z"/>
	<path class="st9" d="M460.2,775.3c0.1,0.2,0.2,0.4,0.2,0.7s-0.1,0.5-0.2,0.7c-0.1,0.2-0.3,0.3-0.6,0.3h-5.9v2.1
		c0,1.1,0.2,2,0.5,2.7s0.9,1.4,1.7,2.1c0.8,0.6,1.6,1.2,2.3,1.8c0.7,0.6,1.3,1,1.9,1.4c0.3,0.2,0.4,0.4,0.4,0.7s-0.1,0.5-0.2,0.8
		c-0.1,0.2-0.4,0.4-0.6,0.4s-0.5,0-0.8-0.2c-0.4-0.3-1-0.7-1.7-1.2s-1.4-1-2.1-1.6c-0.8-0.7-1.4-1.3-1.8-1.7
		c-0.4-0.4-0.6-0.9-0.7-1.2l0,0c-0.1,0.4-0.3,0.8-0.7,1.3c-0.4,0.5-1,1.1-1.9,1.7c-0.7,0.6-1.5,1.2-2.2,1.7s-1.4,1-2.1,1.5
		c-0.3,0.2-0.5,0.3-0.8,0.2s-0.5-0.2-0.6-0.4c-0.2-0.2-0.3-0.5-0.2-0.8s0.2-0.5,0.5-0.7c1.6-1.1,3.1-2.2,4.7-3.5
		c0.8-0.7,1.4-1.4,1.7-2.1c0.3-0.7,0.5-1.6,0.5-2.7V777h-6c-0.3,0-0.5-0.1-0.6-0.3c-0.1-0.2-0.2-0.4-0.2-0.7s0.1-0.5,0.2-0.7
		c0.1-0.2,0.3-0.3,0.6-0.3h14.3C459.9,775,460.1,775.1,460.2,775.3z M465.7,792.5c0.3,0.3,0.5,0.9,0.5,1.7v7.6
		c0,0.3-0.1,0.6-0.4,0.7s-0.5,0.2-0.8,0.2s-0.6-0.1-0.8-0.2c-0.2-0.1-0.4-0.4-0.4-0.7v-7.2c0-0.4-0.2-0.6-0.6-0.6h-14.7
		c-0.3,0-0.5-0.1-0.6-0.3c-0.1-0.2-0.2-0.4-0.2-0.7s0.1-0.5,0.2-0.7c0.1-0.2,0.3-0.3,0.6-0.3h15.4
		C464.8,792,465.4,792.2,465.7,792.5z M465,773.3c0.3,0,0.6,0.1,0.8,0.2c0.2,0.1,0.4,0.4,0.4,0.7v6.1h4.1c0.3,0,0.5,0.1,0.6,0.3
		c0.1,0.2,0.2,0.5,0.2,0.8s-0.1,0.5-0.2,0.7c-0.1,0.2-0.3,0.3-0.6,0.3h-4.1v7c0,0.3-0.1,0.6-0.4,0.7s-0.5,0.2-0.8,0.2
		s-0.6-0.1-0.8-0.2c-0.2-0.1-0.4-0.4-0.4-0.7v-15.2c0-0.3,0.1-0.6,0.4-0.7S464.7,773.3,465,773.3z"/>
	<path class="st9" d="M481.1,774.4c1.2,0,2.3,0.2,3.2,0.5c0.9,0.3,1.6,0.8,2.2,1.4c0.6,0.6,1,1.3,1.3,2.1s0.4,1.7,0.4,2.7
		c0,0.9-0.1,1.8-0.4,2.6s-0.7,1.5-1.3,2.1c-0.6,0.6-1.3,1.1-2.2,1.4c-0.9,0.3-1.9,0.5-3.2,0.5s-2.3-0.2-3.2-0.5s-1.6-0.8-2.2-1.4
		c-0.6-0.6-1-1.3-1.3-2.1s-0.4-1.7-0.4-2.6c0-1,0.1-1.9,0.4-2.7s0.7-1.5,1.3-2.1s1.3-1.1,2.2-1.4
		C478.9,774.6,479.9,774.4,481.1,774.4z M481.1,776.4c-0.9,0-1.6,0.1-2.2,0.4c-0.6,0.3-1.1,0.6-1.5,1c-0.4,0.4-0.7,0.9-0.8,1.5
		c-0.2,0.6-0.3,1.2-0.3,1.8s0.1,1.2,0.3,1.8c0.2,0.6,0.5,1.1,0.8,1.5s0.9,0.8,1.5,1c0.6,0.3,1.4,0.4,2.2,0.4c0.9,0,1.6-0.1,2.2-0.4
		c0.6-0.3,1.1-0.6,1.5-1c0.4-0.4,0.7-0.9,0.8-1.5c0.2-0.6,0.3-1.2,0.3-1.8s-0.1-1.2-0.3-1.8c-0.2-0.6-0.5-1.1-0.8-1.5
		c-0.4-0.4-0.9-0.8-1.5-1C482.7,776.6,482,776.4,481.1,776.4z M479.7,790.6c0.3,0,0.6,0.1,0.8,0.2c0.2,0.1,0.4,0.4,0.4,0.7v3.2h13.7
		v-3.2c0-0.3,0.1-0.6,0.4-0.7c0.2-0.1,0.5-0.2,0.8-0.2s0.6,0.1,0.8,0.2c0.2,0.1,0.4,0.4,0.4,0.7v8.7c0,0.8-0.2,1.4-0.5,1.7
		s-0.9,0.5-1.7,0.5h-13.9c-0.8,0-1.4-0.2-1.7-0.5c-0.3-0.3-0.5-0.9-0.5-1.7v-8.7c0-0.3,0.1-0.6,0.4-0.7
		C479.2,790.6,479.4,790.6,479.7,790.6z M480.9,799.8c0,0.4,0.2,0.6,0.6,0.6h12.4c0.4,0,0.6-0.2,0.6-0.6v-3.1h-13.7v3.1H480.9z
		 M495.7,773.3c0.3,0,0.6,0.1,0.8,0.2c0.2,0.1,0.4,0.4,0.4,0.7V788c0,0.3-0.1,0.6-0.4,0.7c-0.2,0.1-0.5,0.2-0.8,0.2
		s-0.6-0.1-0.8-0.2c-0.2-0.1-0.4-0.4-0.4-0.7v-5.8h-8v-2h8v-5.9c0-0.3,0.1-0.6,0.4-0.7C495.1,773.4,495.4,773.3,495.7,773.3z"/>
	<path class="st9" d="M528.5,796c0.1,0.2,0.2,0.5,0.2,0.8s-0.1,0.5-0.2,0.7c-0.1,0.2-0.3,0.3-0.6,0.3h-25c-0.3,0-0.5-0.1-0.6-0.3
		c-0.1-0.2-0.2-0.4-0.2-0.7s0.1-0.5,0.2-0.8c0.1-0.2,0.3-0.3,0.6-0.3h25C528.2,795.7,528.4,795.8,528.5,796z M515.4,774.6
		c3.1,0,5.4,0.7,7.1,2s2.5,3.2,2.5,5.6c0,2.4-0.8,4.3-2.5,5.6s-4,2-7.1,2s-5.4-0.7-7.1-2s-2.5-3.2-2.5-5.6c0-2.4,0.8-4.2,2.5-5.6
		S512.3,774.6,515.4,774.6z M515.4,776.6c-1.2,0-2.3,0.1-3.2,0.4c-0.9,0.3-1.7,0.7-2.3,1.2s-1,1.1-1.3,1.8s-0.4,1.4-0.4,2.2
		s0.1,1.6,0.4,2.2s0.7,1.3,1.3,1.8c0.6,0.5,1.3,0.9,2.3,1.2c0.9,0.3,2,0.4,3.2,0.4s2.3-0.1,3.2-0.4c0.9-0.3,1.7-0.7,2.3-1.2
		s1-1.1,1.3-1.8s0.4-1.4,0.4-2.2s-0.1-1.6-0.4-2.2s-0.7-1.3-1.3-1.8s-1.3-0.9-2.3-1.2C517.6,776.7,516.6,776.6,515.4,776.6z"/>
	<path class="st9" d="M545.7,795.7H557c0.3,0,0.5,0.1,0.6,0.3s0.2,0.4,0.2,0.7s-0.1,0.5-0.2,0.7c-0.1,0.2-0.3,0.3-0.6,0.3h-25
		c-0.3,0-0.5-0.1-0.6-0.3s-0.2-0.4-0.2-0.7s0.1-0.5,0.2-0.7s0.3-0.3,0.6-0.3h11.4v-6.8h2.3V795.7z M553.4,775.5
		c0.3,0.3,0.5,0.9,0.5,1.7v4.2c0,0.8-0.2,1.4-0.5,1.7s-0.9,0.5-1.7,0.5H538c-0.4,0-0.6,0.2-0.6,0.6v3.4c0,0.4,0.2,0.6,0.6,0.6h15.9
		c0.3,0,0.5,0.1,0.6,0.3s0.2,0.4,0.2,0.7s-0.1,0.5-0.2,0.7c-0.1,0.2-0.3,0.3-0.6,0.3h-16.6c-0.8,0-1.4-0.2-1.7-0.5s-0.5-0.9-0.5-1.7
		v-4.2c0-0.8,0.2-1.4,0.5-1.7s0.9-0.5,1.7-0.5H551c0.4,0,0.6-0.2,0.6-0.6v-3.3c0-0.4-0.2-0.6-0.6-0.6h-15.2c-0.3,0-0.5-0.1-0.6-0.3
		s-0.2-0.4-0.2-0.7s0.1-0.5,0.2-0.7s0.3-0.3,0.6-0.3h15.9C552.5,775,553.1,775.2,553.4,775.5z"/>
</g>
<g class="st8">
	<path class="st9" d="M247.5,819.8c0.1,0.2,0.2,0.4,0.2,0.7s-0.1,0.5-0.2,0.7c-0.1,0.2-0.3,0.3-0.6,0.3h-10c-0.4,0-0.6,0.2-0.6,0.6
		v12.6c0,0.4,0.2,0.6,0.6,0.6c1.3,0,2.4,0,3.6,0s2.2-0.1,3.2-0.1c1-0.1,2-0.1,3-0.2c1-0.1,1.9-0.2,2.9-0.3c0.3,0,0.5,0,0.6,0.2
		s0.3,0.4,0.3,0.7s0,0.6-0.1,0.8s-0.3,0.4-0.6,0.4c-0.8,0.1-1.7,0.2-2.6,0.3c-0.9,0.1-1.9,0.2-3.1,0.2c-1.1,0.1-2.3,0.1-3.6,0.1
		s-2.8,0-4.4,0c-0.8,0-1.4-0.2-1.7-0.5s-0.5-0.9-0.5-1.7v-13.6c0-0.8,0.2-1.4,0.5-1.7s0.9-0.5,1.7-0.5h10.7
		C247.1,819.5,247.3,819.6,247.5,819.8z M254.5,817.3c0.3,0,0.6,0.1,0.8,0.2s0.4,0.4,0.4,0.7v25.5c0,0.3-0.1,0.6-0.4,0.7
		c-0.2,0.1-0.5,0.2-0.8,0.2s-0.6-0.1-0.8-0.2c-0.2-0.1-0.4-0.4-0.4-0.7v-25.5c0-0.3,0.1-0.6,0.4-0.7
		C253.9,817.4,254.2,817.3,254.5,817.3z"/>
	<path class="st9" d="M277.5,819.9c0.1,0.2,0.2,0.4,0.2,0.7s-0.1,0.5-0.2,0.7c-0.1,0.2-0.3,0.3-0.6,0.3H271v3.6c0,0.7,0,1.3,0.1,1.9
		c0.1,0.6,0.2,1.1,0.4,1.6c0.2,0.5,0.5,1,0.8,1.4c0.3,0.5,0.8,1,1.3,1.5c0.7,0.7,1.4,1.4,2.1,2.1s1.3,1.3,1.9,1.7
		c0.2,0.2,0.3,0.5,0.3,0.8s-0.1,0.5-0.3,0.7c-0.2,0.2-0.5,0.3-0.7,0.4c-0.3,0.1-0.5,0-0.8-0.3c-0.5-0.4-1.1-1-1.7-1.6
		c-0.6-0.6-1.3-1.3-2-2c-0.5-0.5-0.9-0.9-1.2-1.3c-0.3-0.4-0.6-0.7-0.7-1c-0.2-0.3-0.3-0.5-0.4-0.7c-0.1-0.2-0.1-0.4-0.2-0.6l0,0
		c0,0.2-0.1,0.4-0.2,0.6c-0.1,0.2-0.2,0.4-0.4,0.7c-0.2,0.3-0.4,0.6-0.8,1c-0.3,0.4-0.7,0.8-1.2,1.3c-0.7,0.7-1.4,1.4-2.1,2
		s-1.4,1.3-2.1,1.9c-0.3,0.2-0.5,0.3-0.8,0.3c-0.3-0.1-0.5-0.2-0.7-0.4s-0.3-0.5-0.3-0.8s0.1-0.5,0.3-0.7c0.8-0.7,1.6-1.4,2.3-2.1
		c0.7-0.7,1.5-1.4,2.2-2.1c0.5-0.5,0.9-1,1.3-1.5c0.3-0.5,0.6-0.9,0.8-1.4c0.2-0.5,0.3-1,0.4-1.6c0.1-0.6,0.1-1.2,0.1-1.9v-3.6h-6
		c-0.3,0-0.5-0.1-0.6-0.3c-0.1-0.2-0.2-0.4-0.2-0.7s0.1-0.5,0.2-0.7c0.1-0.2,0.3-0.3,0.6-0.3H277
		C277.2,819.6,277.4,819.7,277.5,819.9z M282.2,817.3c0.3,0,0.6,0.1,0.8,0.2c0.2,0.1,0.4,0.4,0.4,0.7v8.9h4.1c0.3,0,0.5,0.1,0.6,0.3
		c0.1,0.2,0.2,0.4,0.2,0.7s-0.1,0.5-0.2,0.8c-0.1,0.2-0.3,0.3-0.6,0.3h-4.1v14.5c0,0.3-0.1,0.6-0.4,0.7c-0.2,0.1-0.5,0.2-0.8,0.2
		s-0.6-0.1-0.8-0.2c-0.2-0.1-0.4-0.4-0.4-0.7v-25.5c0-0.3,0.1-0.6,0.4-0.7C281.7,817.4,281.9,817.3,282.2,817.3z"/>
	<path class="st9" d="M298.7,818.8c1.2,0,2.3,0.2,3.2,0.6c0.9,0.4,1.7,0.9,2.3,1.6c0.6,0.7,1,1.4,1.3,2.3c0.3,0.9,0.4,1.8,0.4,2.8
		s-0.1,1.9-0.4,2.8c-0.3,0.9-0.7,1.7-1.3,2.3c-0.6,0.7-1.3,1.2-2.3,1.5c-0.9,0.4-2,0.6-3.2,0.6s-2.3-0.2-3.2-0.6
		c-0.9-0.4-1.7-0.9-2.3-1.5c-0.6-0.7-1-1.4-1.3-2.3c-0.3-0.9-0.4-1.8-0.4-2.8s0.1-2,0.4-2.8s0.7-1.6,1.3-2.3
		c0.6-0.7,1.3-1.2,2.3-1.6C296.4,818.9,297.5,818.8,298.7,818.8z M298.7,820.8c-0.9,0-1.7,0.1-2.3,0.4c-0.6,0.3-1.1,0.7-1.5,1.2
		c-0.4,0.5-0.7,1-0.9,1.7c-0.2,0.6-0.3,1.3-0.3,2s0.1,1.4,0.3,2c0.2,0.6,0.5,1.2,0.9,1.7c0.4,0.5,0.9,0.9,1.5,1.1
		c0.6,0.3,1.4,0.4,2.3,0.4c0.9,0,1.7-0.1,2.3-0.4c0.6-0.3,1.1-0.7,1.5-1.1c0.4-0.5,0.7-1,0.9-1.7c0.2-0.6,0.3-1.3,0.3-2
		s-0.1-1.4-0.3-2c-0.2-0.6-0.5-1.2-0.9-1.7c-0.4-0.5-0.9-0.9-1.5-1.2C300.3,820.9,299.6,820.8,298.7,820.8z M297,836.2
		c0.3,0,0.6,0.1,0.8,0.2c0.2,0.1,0.4,0.4,0.4,0.7v6.3c0,0.4,0.2,0.6,0.6,0.6H314c0.3,0,0.5,0.1,0.6,0.3c0.1,0.2,0.2,0.4,0.2,0.7
		s-0.1,0.5-0.2,0.7c-0.1,0.2-0.3,0.3-0.6,0.3h-16c-0.8,0-1.4-0.2-1.7-0.5c-0.3-0.3-0.5-0.9-0.5-1.7V837c0-0.3,0.1-0.6,0.4-0.7
		C296.4,836.3,296.7,836.2,297,836.2z M312.8,817.3c0.3,0,0.6,0.1,0.8,0.2c0.2,0.1,0.4,0.4,0.4,0.7v19.5c0,0.3-0.1,0.6-0.4,0.7
		c-0.2,0.1-0.5,0.2-0.8,0.2s-0.6-0.1-0.8-0.2c-0.2-0.1-0.4-0.4-0.4-0.7v-19.5c0-0.3,0.1-0.6,0.4-0.7
		C312.2,817.4,312.5,817.3,312.8,817.3z"/>
	<path class="st9" d="M338.7,828.6c0.3,0,0.6,0.1,0.8,0.2c0.2,0.1,0.4,0.4,0.4,0.7v10.1h13.3c0.3,0,0.5,0.1,0.6,0.3
		c0.1,0.2,0.2,0.4,0.2,0.7s-0.1,0.5-0.2,0.7c-0.1,0.2-0.3,0.3-0.6,0.3h-25c-0.3,0-0.5-0.1-0.6-0.3c-0.1-0.2-0.2-0.4-0.2-0.7
		s0.1-0.5,0.2-0.7c0.1-0.2,0.3-0.3,0.6-0.3h9.4v-10.1c0-0.3,0.1-0.6,0.4-0.7C338.1,828.7,338.4,828.6,338.7,828.6z M349.7,819.9
		c0.3,0.3,0.5,0.9,0.5,1.7v2.9c0,1,0,1.9-0.1,2.8c-0.1,0.9-0.1,1.7-0.2,2.5c-0.1,0.8-0.2,1.6-0.4,2.4c-0.1,0.8-0.3,1.6-0.5,2.4
		c-0.1,0.3-0.2,0.5-0.5,0.6s-0.6,0.2-0.9,0.1c-0.3-0.1-0.5-0.2-0.7-0.4s-0.2-0.4-0.2-0.7c0.3-1.6,0.6-3.2,0.8-4.8
		c0.2-1.6,0.3-3.3,0.3-5.1V822c0-0.4-0.2-0.6-0.6-0.6h-15.7c-0.3,0-0.5-0.1-0.6-0.3c-0.1-0.2-0.2-0.4-0.2-0.7s0.1-0.5,0.2-0.7
		c0.1-0.2,0.3-0.3,0.6-0.3H348C348.8,819.4,349.4,819.6,349.7,819.9z"/>
	<path class="st9" d="M371,839.7h11.3c0.3,0,0.5,0.1,0.6,0.3c0.1,0.2,0.2,0.4,0.2,0.7s-0.1,0.5-0.2,0.7c-0.1,0.2-0.3,0.3-0.6,0.3
		h-25c-0.3,0-0.5-0.1-0.6-0.3c-0.1-0.2-0.2-0.4-0.2-0.7s0.1-0.5,0.2-0.7c0.1-0.2,0.3-0.3,0.6-0.3h11.4v-7.8h2.3V839.7L371,839.7z
		 M379,819.4c0.1,0.2,0.2,0.4,0.2,0.7s-0.1,0.5-0.2,0.7c-0.1,0.2-0.3,0.3-0.6,0.3h-15.2c-0.4,0-0.6,0.2-0.6,0.6v8.4
		c0,0.4,0.2,0.6,0.6,0.6h15.6c0.3,0,0.5,0.1,0.6,0.3c0.1,0.2,0.2,0.4,0.2,0.7s-0.1,0.5-0.2,0.7c-0.1,0.2-0.3,0.3-0.6,0.3h-16.3
		c-0.8,0-1.4-0.2-1.7-0.5c-0.3-0.3-0.5-0.9-0.5-1.7v-9.3c0-0.8,0.2-1.4,0.5-1.7s0.9-0.5,1.7-0.5h16
		C378.7,819.1,378.9,819.2,379,819.4z"/>
	<path class="st9" d="M403.3,837.6c0.2,0,0.4,0,0.6,0.2c0.1,0.2,0.2,0.4,0.3,0.7c0,0.3,0,0.5-0.1,0.7c-0.1,0.2-0.3,0.3-0.6,0.3
		c-2.8,0.2-5.6,0.4-8.4,0.5s-5.7,0.1-8.7,0.1c-0.3,0-0.5-0.1-0.6-0.3c-0.1-0.2-0.2-0.4-0.2-0.7s0.1-0.5,0.2-0.7
		c0.1-0.2,0.3-0.3,0.6-0.3c1.2,0,2.4,0,3.6,0s2.4,0,3.6-0.1v-4.6h2.3v4.6C398.2,838,400.7,837.8,403.3,837.6z M394.7,817.4
		c0.3,0,0.6,0.1,0.8,0.2c0.2,0.1,0.4,0.4,0.4,0.7v2.4h6.5c0.3,0,0.5,0.1,0.6,0.3c0.1,0.2,0.2,0.4,0.2,0.7s-0.1,0.5-0.2,0.7
		c-0.1,0.2-0.3,0.3-0.6,0.3h-15.5c-0.3,0-0.5-0.1-0.6-0.3c-0.1-0.2-0.2-0.4-0.2-0.7s0.1-0.5,0.2-0.7c0.1-0.2,0.3-0.3,0.6-0.3h6.7
		v-2.4c0-0.3,0.1-0.6,0.4-0.7C394.1,817.5,394.4,817.4,394.7,817.4z M394.7,824.8c2.1,0,3.8,0.4,4.9,1.3c1.1,0.9,1.7,2.1,1.7,3.5
		c0,1.5-0.6,2.6-1.7,3.5c-1.1,0.9-2.8,1.3-4.9,1.3c-2.1,0-3.8-0.4-4.9-1.3c-1.1-0.9-1.7-2.1-1.7-3.5c0-1.5,0.6-2.6,1.7-3.5
		C390.9,825.2,392.6,824.8,394.7,824.8z M394.7,826.7c-1.5,0-2.6,0.3-3.4,0.8c-0.7,0.6-1.1,1.3-1.1,2.1c0,0.9,0.4,1.6,1.1,2.1
		c0.7,0.6,1.9,0.8,3.4,0.8s2.6-0.3,3.4-0.8c0.7-0.6,1.1-1.3,1.1-2.1c0-0.9-0.4-1.6-1.1-2.1C397.3,826.9,396.2,826.7,394.7,826.7z
		 M407.3,817.3c0.3,0,0.6,0.1,0.8,0.2c0.2,0.1,0.4,0.4,0.4,0.7v9.9h3.6c0.3,0,0.5,0.1,0.6,0.3c0.1,0.2,0.2,0.4,0.2,0.7
		s-0.1,0.5-0.2,0.8c-0.1,0.2-0.3,0.3-0.6,0.3h-3.6v13.5c0,0.3-0.1,0.6-0.4,0.7c-0.2,0.1-0.5,0.2-0.8,0.2s-0.6-0.1-0.8-0.2
		c-0.2-0.1-0.4-0.4-0.4-0.7v-25.5c0-0.3,0.1-0.6,0.4-0.7C406.7,817.4,407,817.3,407.3,817.3z"/>
	<path class="st9" d="M439.1,819.3c0.1,0.2,0.2,0.4,0.2,0.7s-0.1,0.5-0.2,0.7c-0.1,0.2-0.3,0.3-0.6,0.3h-5.9v2.1
		c0,1.1,0.2,2,0.5,2.7s0.9,1.4,1.7,2.1c0.8,0.6,1.6,1.2,2.3,1.8s1.3,1,1.9,1.4c0.3,0.2,0.4,0.4,0.4,0.7s-0.1,0.5-0.2,0.8
		c-0.1,0.2-0.4,0.4-0.6,0.4s-0.5,0-0.8-0.2c-0.4-0.3-1-0.7-1.7-1.2s-1.4-1-2.1-1.6c-0.8-0.7-1.4-1.3-1.8-1.7
		c-0.4-0.5-0.6-0.9-0.7-1.2l0,0c-0.1,0.4-0.3,0.8-0.7,1.3s-1,1.1-1.9,1.7c-0.7,0.6-1.5,1.2-2.2,1.7s-1.4,1-2.1,1.5
		c-0.3,0.2-0.5,0.3-0.8,0.2s-0.5-0.2-0.6-0.4c-0.2-0.2-0.3-0.5-0.2-0.8s0.2-0.5,0.5-0.7c1.6-1.1,3.1-2.2,4.7-3.5
		c0.8-0.7,1.4-1.4,1.7-2.1c0.3-0.7,0.5-1.6,0.5-2.7V821h-6c-0.3,0-0.5-0.1-0.6-0.3c-0.1-0.2-0.2-0.4-0.2-0.7s0.1-0.5,0.2-0.7
		c0.1-0.2,0.3-0.3,0.6-0.3h14.3C438.7,819,438.9,819.1,439.1,819.3z M444.6,836.5c0.3,0.3,0.5,0.9,0.5,1.7v7.6
		c0,0.3-0.1,0.6-0.4,0.7s-0.5,0.2-0.8,0.2s-0.6-0.1-0.8-0.2c-0.2-0.1-0.4-0.4-0.4-0.7v-7.2c0-0.4-0.2-0.6-0.6-0.6h-14.7
		c-0.3,0-0.5-0.1-0.6-0.3c-0.1-0.2-0.2-0.4-0.2-0.7s0.1-0.5,0.2-0.7c0.1-0.2,0.3-0.3,0.6-0.3h15.4
		C443.7,836,444.2,836.2,444.6,836.5z M443.8,817.3c0.3,0,0.6,0.1,0.8,0.2c0.2,0.1,0.4,0.4,0.4,0.7v6.1h4.1c0.3,0,0.5,0.1,0.6,0.3
		c0.1,0.2,0.2,0.5,0.2,0.8s-0.1,0.5-0.2,0.7c-0.1,0.2-0.3,0.3-0.6,0.3H445v7c0,0.3-0.1,0.6-0.4,0.7s-0.5,0.2-0.8,0.2
		s-0.6-0.1-0.8-0.2c-0.2-0.1-0.4-0.4-0.4-0.7v-15.2c0-0.3,0.1-0.6,0.4-0.7C443.3,817.4,443.5,817.3,443.8,817.3z"/>
	<path class="st9" d="M460,818.4c1.2,0,2.3,0.2,3.2,0.5s1.6,0.8,2.2,1.4c0.6,0.6,1,1.3,1.3,2.1s0.4,1.7,0.4,2.7
		c0,0.9-0.1,1.8-0.4,2.6s-0.7,1.5-1.3,2.1s-1.3,1.1-2.2,1.4c-0.9,0.3-1.9,0.5-3.2,0.5c-1.3,0-2.3-0.2-3.2-0.5
		c-0.9-0.3-1.6-0.8-2.2-1.4c-0.6-0.6-1-1.3-1.3-2.1s-0.4-1.7-0.4-2.6c0-1,0.1-1.9,0.4-2.7s0.7-1.5,1.3-2.1c0.6-0.6,1.3-1.1,2.2-1.4
		S458.8,818.4,460,818.4z M460,820.4c-0.9,0-1.6,0.1-2.2,0.4c-0.6,0.3-1.1,0.6-1.5,1c-0.4,0.4-0.7,0.9-0.8,1.5
		c-0.2,0.6-0.3,1.2-0.3,1.8s0.1,1.2,0.3,1.8c0.2,0.6,0.5,1.1,0.8,1.5c0.4,0.4,0.9,0.8,1.5,1c0.6,0.3,1.4,0.4,2.2,0.4
		s1.6-0.1,2.2-0.4c0.6-0.3,1.1-0.6,1.5-1c0.4-0.4,0.7-0.9,0.8-1.5c0.2-0.6,0.3-1.2,0.3-1.8s-0.1-1.2-0.3-1.8
		c-0.2-0.6-0.5-1.1-0.8-1.5c-0.4-0.4-0.9-0.8-1.5-1C461.6,820.6,460.9,820.4,460,820.4z M458.6,834.6c0.3,0,0.6,0.1,0.8,0.2
		c0.2,0.1,0.4,0.4,0.4,0.7v3.2h13.7v-3.2c0-0.3,0.1-0.6,0.4-0.7c0.2-0.1,0.5-0.2,0.8-0.2s0.6,0.1,0.8,0.2c0.2,0.1,0.4,0.4,0.4,0.7
		v8.7c0,0.8-0.2,1.4-0.5,1.7s-0.9,0.5-1.7,0.5h-13.9c-0.8,0-1.4-0.2-1.7-0.5c-0.3-0.3-0.5-0.9-0.5-1.7v-8.7c0-0.3,0.1-0.6,0.4-0.7
		S458.3,834.6,458.6,834.6z M459.7,843.8c0,0.4,0.2,0.6,0.6,0.6h12.4c0.4,0,0.6-0.2,0.6-0.6v-3.1h-13.7L459.7,843.8L459.7,843.8z
		 M474.6,817.3c0.3,0,0.6,0.1,0.8,0.2c0.2,0.1,0.4,0.4,0.4,0.7V832c0,0.3-0.1,0.6-0.4,0.7c-0.2,0.1-0.5,0.2-0.8,0.2
		s-0.6-0.1-0.8-0.2c-0.2-0.1-0.4-0.4-0.4-0.7v-5.8h-8v-2h8v-5.9c0-0.3,0.1-0.6,0.4-0.7C474,817.4,474.3,817.3,474.6,817.3z"/>
</g>
<g class="st8">
	<path class="st9" d="M242.4,864.3c0.3,0,0.6,0.1,0.8,0.2c0.2,0.1,0.4,0.4,0.4,0.7v2.5h6.2c0.3,0,0.5,0.1,0.6,0.3s0.2,0.4,0.2,0.7
		s-0.1,0.5-0.2,0.7s-0.3,0.3-0.6,0.3h-15.1c-0.3,0-0.5-0.1-0.6-0.3s-0.2-0.4-0.2-0.7s0.1-0.5,0.2-0.7c0.1-0.2,0.3-0.3,0.6-0.3h6.5
		v-2.5c0-0.3,0.1-0.6,0.4-0.7C241.9,864.4,242.1,864.3,242.4,864.3z M242.4,872.1c2.1,0,3.7,0.5,4.8,1.4s1.7,2.2,1.7,3.8
		s-0.6,2.8-1.7,3.8c-1.1,0.9-2.7,1.4-4.8,1.4s-3.7-0.5-4.8-1.4s-1.7-2.2-1.7-3.8s0.6-2.8,1.7-3.8
		C238.8,872.6,240.4,872.1,242.4,872.1z M242.4,874c-1.4,0-2.5,0.3-3.2,0.9c-0.7,0.6-1.1,1.4-1.1,2.4s0.4,1.8,1.1,2.4
		c0.7,0.6,1.8,0.9,3.2,0.9s2.5-0.3,3.2-0.9c0.7-0.6,1.1-1.4,1.1-2.4s-0.4-1.8-1.1-2.4C244.9,874.3,243.8,874,242.4,874z
		 M240.4,884.6c0.3,0,0.6,0.1,0.8,0.2c0.2,0.1,0.4,0.4,0.4,0.7v5.1c0,0.4,0.2,0.6,0.6,0.6h15.3c0.3,0,0.5,0.1,0.6,0.3
		c0.1,0.2,0.2,0.4,0.2,0.7s-0.1,0.5-0.2,0.7c-0.1,0.2-0.3,0.3-0.6,0.3h-16.1c-0.8,0-1.4-0.2-1.7-0.5s-0.5-0.9-0.5-1.7v-5.5
		c0-0.3,0.1-0.6,0.4-0.7C239.8,884.6,240.1,884.6,240.4,884.6z M256.3,864.4c0.3,0,0.6,0.1,0.8,0.2c0.2,0.1,0.3,0.4,0.3,0.7v19.9
		c0,0.3-0.1,0.6-0.3,0.7c-0.2,0.2-0.5,0.2-0.8,0.2s-0.6-0.1-0.8-0.2c-0.2-0.1-0.4-0.4-0.4-0.7V880h-4c-0.3,0-0.5-0.1-0.6-0.3
		s-0.2-0.4-0.2-0.7s0.1-0.5,0.2-0.7s0.3-0.3,0.6-0.3h4v-3.6H251c-0.3,0-0.5-0.1-0.6-0.3s-0.2-0.4-0.2-0.7s0.1-0.5,0.2-0.7
		s0.3-0.3,0.6-0.3h4.1v-7.1c0-0.3,0.1-0.6,0.4-0.7S256,864.4,256.3,864.4z"/>
	<path class="st9" d="M276.5,867.2c0.1,0.2,0.2,0.4,0.2,0.7s-0.1,0.5-0.2,0.7c-0.1,0.2-0.3,0.3-0.6,0.3h-4.7v3.6
		c0,0.7,0,1.3,0.1,1.8c0.1,0.5,0.2,1,0.3,1.5c0.2,0.5,0.4,0.9,0.6,1.3c0.3,0.4,0.6,0.9,1,1.3c0.6,0.7,1.2,1.4,1.8,2.1
		c0.6,0.6,1.1,1.2,1.6,1.7c0.2,0.2,0.3,0.5,0.3,0.7c0,0.3-0.1,0.5-0.4,0.7c-0.2,0.2-0.4,0.3-0.7,0.3s-0.5-0.1-0.8-0.3
		c-0.3-0.3-0.8-0.8-1.3-1.4s-1.1-1.2-1.6-1.9c-0.8-0.9-1.3-1.6-1.6-2.1c-0.3-0.5-0.5-0.9-0.5-1.3l0,0c-0.1,0.4-0.2,0.8-0.5,1.3
		s-0.8,1.2-1.6,2.1c-0.6,0.7-1.1,1.3-1.7,1.9c-0.6,0.6-1.2,1.2-1.7,1.8c-0.2,0.2-0.5,0.3-0.8,0.3s-0.5-0.1-0.7-0.3s-0.3-0.5-0.4-0.7
		c0-0.3,0.1-0.5,0.3-0.8c0.6-0.7,1.3-1.3,2-2s1.3-1.4,1.9-2.2c0.4-0.4,0.7-0.9,1-1.3c0.3-0.4,0.5-0.9,0.6-1.3c0.2-0.5,0.3-1,0.4-1.5
		c0.1-0.5,0.1-1.2,0.1-1.8v-3.6h-5c-0.3,0-0.5-0.1-0.6-0.3c-0.1-0.2-0.2-0.4-0.2-0.7s0.1-0.5,0.2-0.7c0.1-0.2,0.3-0.3,0.6-0.3h12
		C276.2,866.9,276.4,867,276.5,867.2z M286.2,864.4c0.3,0,0.6,0.1,0.8,0.2c0.2,0.1,0.3,0.4,0.3,0.7v25.5c0,0.3-0.1,0.6-0.3,0.7
		c-0.2,0.1-0.5,0.2-0.8,0.2s-0.5-0.1-0.8-0.2c-0.2-0.1-0.3-0.4-0.3-0.7v-14.4h-4.3v13.1c0,0.3-0.1,0.6-0.3,0.7
		c-0.2,0.1-0.5,0.2-0.8,0.2s-0.5-0.1-0.8-0.2c-0.2-0.1-0.3-0.4-0.3-0.7v-23.9c0-0.3,0.1-0.6,0.3-0.7c0.2-0.1,0.5-0.2,0.8-0.2
		s0.6,0.1,0.8,0.2c0.2,0.1,0.3,0.4,0.3,0.7v8.8h4.3v-9.1c0-0.3,0.1-0.6,0.3-0.7C285.6,864.5,285.9,864.4,286.2,864.4z"/>
	<path class="st9" d="M302.8,866.3c0.3,0,0.6,0.1,0.8,0.2c0.2,0.1,0.4,0.4,0.4,0.7v6.1h8.8v-6.1c0-0.3,0.1-0.6,0.3-0.7
		c0.2-0.1,0.5-0.2,0.8-0.2s0.6,0.1,0.8,0.2c0.2,0.1,0.4,0.4,0.4,0.7v15c0,0.8-0.2,1.4-0.5,1.7s-0.9,0.5-1.7,0.5h-9
		c-0.8,0-1.4-0.2-1.7-0.5c-0.3-0.3-0.5-0.9-0.5-1.7v-15c0-0.3,0.1-0.6,0.4-0.7C302.2,866.4,302.5,866.3,302.8,866.3z M303.9,881.8
		c0,0.2,0,0.4,0.1,0.5c0.1,0.1,0.2,0.1,0.5,0.1h7.6c0.2,0,0.4,0,0.5-0.1c0.1-0.1,0.1-0.2,0.1-0.5v-6.5h-8.8V881.8L303.9,881.8z
		 M322.3,864.4c0.3,0,0.6,0.1,0.8,0.2c0.2,0.1,0.4,0.4,0.4,0.7v25.5c0,0.3-0.1,0.6-0.4,0.7c-0.2,0.1-0.5,0.2-0.8,0.2
		s-0.6-0.1-0.8-0.2c-0.2-0.1-0.4-0.4-0.4-0.7v-25.5c0-0.3,0.1-0.6,0.4-0.7C321.7,864.5,322,864.4,322.3,864.4z"/>
	<path class="st9" d="M336.1,864.5c0.3,0,0.6,0.1,0.8,0.2c0.2,0.1,0.4,0.4,0.4,0.7v2.5h5.2c0.3,0,0.5,0.1,0.6,0.3
		c0.1,0.2,0.2,0.4,0.2,0.7s-0.1,0.5-0.2,0.7c-0.1,0.2-0.3,0.3-0.6,0.3h-13.2c-0.3,0-0.5-0.1-0.6-0.3c-0.1-0.2-0.2-0.4-0.2-0.7
		s0.1-0.5,0.2-0.7c0.1-0.2,0.3-0.3,0.6-0.3h5.6v-2.5c0-0.3,0.1-0.6,0.4-0.7C335.6,864.6,335.8,864.5,336.1,864.5z M336.1,872.3
		c1.9,0,3.4,0.5,4.4,1.4s1.5,2.2,1.5,3.8s-0.5,2.8-1.5,3.8s-2.5,1.4-4.4,1.4c-1.9,0-3.3-0.5-4.4-1.4c-1-1-1.5-2.2-1.5-3.8
		s0.5-2.8,1.5-3.8C332.8,872.8,334.2,872.3,336.1,872.3z M336.1,874.2c-1.2,0-2.1,0.3-2.8,0.9c-0.7,0.6-1,1.4-1,2.4s0.3,1.8,1,2.4
		c0.7,0.6,1.6,0.9,2.8,0.9s2.2-0.3,2.8-0.9c0.7-0.6,1-1.4,1-2.4s-0.3-1.8-1-2.4C338.3,874.5,337.3,874.2,336.1,874.2z M335.8,884.6
		c0.3,0,0.6,0.1,0.8,0.2c0.2,0.1,0.4,0.4,0.4,0.7v5.1c0,0.2,0,0.4,0.1,0.5c0.1,0.1,0.2,0.1,0.5,0.1h16c0.3,0,0.5,0.1,0.6,0.3
		c0.1,0.2,0.2,0.4,0.2,0.7s-0.1,0.5-0.2,0.7c-0.1,0.2-0.3,0.3-0.6,0.3h-16.7c-0.8,0-1.4-0.2-1.7-0.5c-0.3-0.3-0.5-0.9-0.5-1.7v-5.5
		c0-0.3,0.1-0.6,0.4-0.7C335.2,884.6,335.5,884.6,335.8,884.6z M346.8,864.6c0.3,0,0.5,0.1,0.8,0.2c0.2,0.1,0.3,0.4,0.3,0.7v18.4
		c0,0.3-0.1,0.6-0.3,0.7c-0.2,0.1-0.5,0.2-0.8,0.2s-0.6-0.1-0.8-0.2c-0.2-0.1-0.3-0.4-0.3-0.7v-7.3h-2.5c-0.3,0-0.5-0.1-0.6-0.3
		c-0.1-0.2-0.2-0.4-0.2-0.7s0.1-0.5,0.2-0.7c0.1-0.2,0.3-0.3,0.6-0.3h2.5v-9.1c0-0.3,0.1-0.6,0.3-0.7
		C346.2,864.7,346.5,864.6,346.8,864.6z M352.4,864.4c0.3,0,0.6,0.1,0.8,0.2c0.2,0.1,0.3,0.4,0.3,0.7v19.9c0,0.3-0.1,0.5-0.3,0.7
		c-0.2,0.1-0.5,0.2-0.8,0.2s-0.5-0.1-0.8-0.2s-0.3-0.4-0.3-0.7v-19.9c0-0.3,0.1-0.6,0.3-0.7C351.8,864.5,352.1,864.4,352.4,864.4z"
		/>
	<path class="st9" d="M384.5,887.1c0.1,0.2,0.2,0.5,0.2,0.8s-0.1,0.5-0.2,0.7c-0.1,0.2-0.3,0.3-0.6,0.3h-25c-0.3,0-0.5-0.1-0.6-0.3
		c-0.1-0.2-0.2-0.4-0.2-0.7s0.1-0.5,0.2-0.8c0.1-0.2,0.3-0.3,0.6-0.3h25C384.1,886.8,384.3,886.9,384.5,887.1z M371.3,865.7
		c0.3,0,0.6,0.1,0.8,0.2c0.2,0.2,0.4,0.4,0.4,0.8v2.1c0,0.7,0,1.4,0.1,2c0.1,0.6,0.3,1.1,0.5,1.6s0.6,0.9,1,1.3
		c0.4,0.4,1,0.8,1.6,1.2c1,0.6,2,1.2,3,1.9c1.1,0.6,2.2,1.3,3.4,1.9c0.2,0.1,0.4,0.3,0.4,0.6s0,0.6-0.2,0.8
		c-0.1,0.2-0.4,0.4-0.6,0.5c-0.3,0.1-0.5,0.1-0.7-0.1c-1-0.6-2-1.1-3.1-1.8c-1.1-0.6-2.1-1.2-3-1.8c-1.2-0.7-2-1.4-2.6-2
		c-0.5-0.6-0.8-1.1-1-1.5l0,0c-0.1,0.4-0.4,1-1,1.5c-0.5,0.6-1.4,1.2-2.6,2c-0.9,0.6-1.9,1.2-3,1.8c-1.1,0.6-2.1,1.2-3.1,1.8
		c-0.3,0.1-0.5,0.2-0.8,0.1s-0.5-0.3-0.6-0.5c-0.1-0.2-0.2-0.5-0.2-0.8s0.1-0.5,0.4-0.6c1.2-0.7,2.3-1.3,3.4-1.9
		c1.1-0.6,2.1-1.3,3-1.9c0.6-0.4,1.2-0.8,1.6-1.2c0.4-0.4,0.8-0.8,1-1.3s0.4-1,0.5-1.6c0.1-0.6,0.1-1.2,0.1-2v-2.1
		c0-0.3,0.1-0.6,0.4-0.8C370.8,865.8,371,865.7,371.3,865.7z"/>
	<path class="st9" d="M393.7,866.4c2.1,0,3.7,0.8,4.7,2.3s1.5,3.8,1.5,6.8s-0.5,5.3-1.5,6.8s-2.6,2.3-4.7,2.3
		c-2.1,0-3.7-0.8-4.7-2.3s-1.5-3.8-1.5-6.8s0.5-5.3,1.5-6.8C390,867.1,391.6,866.4,393.7,866.4z M393.7,868.4
		c-1.5,0-2.5,0.6-3.1,1.8c-0.6,1.2-0.9,2.9-0.9,5.2s0.3,4,0.9,5.2c0.6,1.2,1.6,1.8,3.1,1.8s2.5-0.6,3.1-1.8c0.6-1.2,0.9-2.9,0.9-5.2
		s-0.3-4-0.9-5.2C396.2,869,395.2,868.4,393.7,868.4z M405,864.7c0.3,0,0.5,0.1,0.8,0.2s0.3,0.4,0.3,0.7v23.9c0,0.3-0.1,0.6-0.3,0.7
		c-0.2,0.1-0.5,0.2-0.8,0.2s-0.6-0.1-0.8-0.2c-0.2-0.1-0.3-0.4-0.3-0.7v-13.1h-5.5v-2h5.5v-8.8c0-0.3,0.1-0.6,0.3-0.7
		C404.5,864.8,404.7,864.7,405,864.7z M410.7,864.4c0.3,0,0.6,0.1,0.8,0.2c0.2,0.1,0.3,0.4,0.3,0.7v25.5c0,0.3-0.1,0.6-0.3,0.7
		c-0.2,0.1-0.5,0.2-0.8,0.2s-0.5-0.1-0.8-0.2c-0.2-0.1-0.3-0.4-0.3-0.7v-25.5c0-0.3,0.1-0.6,0.3-0.7
		C410.1,864.5,410.4,864.4,410.7,864.4z"/>
	<path class="st9" d="M432.4,865.6c1.2,0,2.3,0.2,3.2,0.5c0.9,0.3,1.6,0.8,2.2,1.4c0.6,0.6,1,1.3,1.3,2.1s0.4,1.7,0.4,2.7
		c0,0.9-0.1,1.8-0.4,2.6s-0.7,1.5-1.3,2.1c-0.6,0.6-1.3,1.1-2.2,1.4c-0.9,0.3-1.9,0.5-3.2,0.5s-2.3-0.2-3.2-0.5s-1.6-0.8-2.2-1.4
		c-0.6-0.6-1-1.3-1.3-2.1s-0.4-1.7-0.4-2.6c0-1,0.1-1.9,0.4-2.7s0.7-1.5,1.3-2.1s1.3-1.1,2.2-1.4
		C430.2,865.7,431.2,865.6,432.4,865.6z M432.4,867.5c-0.9,0-1.6,0.1-2.2,0.4c-0.6,0.3-1.1,0.6-1.5,1c-0.4,0.4-0.7,0.9-0.8,1.5
		c-0.2,0.6-0.3,1.2-0.3,1.8s0.1,1.2,0.3,1.8c0.2,0.6,0.5,1.1,0.8,1.5s0.9,0.8,1.5,1c0.6,0.3,1.4,0.4,2.2,0.4c0.9,0,1.6-0.1,2.2-0.4
		c0.6-0.3,1.1-0.6,1.5-1c0.4-0.4,0.7-0.9,0.8-1.5c0.2-0.6,0.3-1.2,0.3-1.8s-0.1-1.2-0.3-1.8c-0.2-0.6-0.5-1.1-0.8-1.5
		c-0.4-0.4-0.9-0.8-1.5-1C434.1,867.7,433.3,867.5,432.4,867.5z M431,881.7c0.3,0,0.6,0.1,0.8,0.2c0.2,0.1,0.4,0.4,0.4,0.7v3.2h13.7
		v-3.2c0-0.3,0.1-0.6,0.4-0.7c0.2-0.1,0.5-0.2,0.8-0.2s0.6,0.1,0.8,0.2c0.2,0.1,0.4,0.4,0.4,0.7v8.7c0,0.8-0.2,1.4-0.5,1.7
		s-0.9,0.5-1.7,0.5h-13.9c-0.8,0-1.4-0.2-1.7-0.5c-0.3-0.3-0.5-0.9-0.5-1.7v-8.7c0-0.3,0.1-0.6,0.4-0.7
		C430.5,881.8,430.7,881.7,431,881.7z M432.2,890.9c0,0.4,0.2,0.6,0.6,0.6h12.4c0.4,0,0.6-0.2,0.6-0.6v-3.1h-13.7L432.2,890.9
		L432.2,890.9z M447,864.4c0.3,0,0.6,0.1,0.8,0.2c0.2,0.1,0.4,0.4,0.4,0.7V879c0,0.3-0.1,0.6-0.4,0.7c-0.2,0.1-0.5,0.2-0.8,0.2
		s-0.6-0.1-0.8-0.2c-0.2-0.1-0.4-0.4-0.4-0.7v-5.8h-8v-2h8v-5.9c0-0.3,0.1-0.6,0.4-0.7C446.4,864.5,446.7,864.4,447,864.4z"/>
	<path class="st9" d="M467.9,886.8h11.3c0.3,0,0.5,0.1,0.6,0.3c0.1,0.2,0.2,0.4,0.2,0.7s-0.1,0.5-0.2,0.7c-0.1,0.2-0.3,0.3-0.6,0.3
		h-25c-0.3,0-0.5-0.1-0.6-0.3c-0.1-0.2-0.2-0.4-0.2-0.7s0.1-0.5,0.2-0.7c0.1-0.2,0.3-0.3,0.6-0.3h11.4V880h2.3L467.9,886.8
		L467.9,886.8z M475.6,866.6c0.3,0.3,0.5,0.9,0.5,1.7v4.2c0,0.8-0.2,1.4-0.5,1.7s-0.9,0.5-1.7,0.5h-13.7c-0.4,0-0.6,0.2-0.6,0.6v3.4
		c0,0.4,0.2,0.6,0.6,0.6h15.9c0.3,0,0.5,0.1,0.6,0.3c0.1,0.2,0.2,0.4,0.2,0.7s-0.1,0.5-0.2,0.7c-0.1,0.2-0.3,0.3-0.6,0.3h-16.6
		c-0.8,0-1.4-0.2-1.7-0.5s-0.5-0.9-0.5-1.7v-4.2c0-0.8,0.2-1.4,0.5-1.7s0.9-0.5,1.7-0.5h13.8c0.4,0,0.6-0.2,0.6-0.6v-3.3
		c0-0.4-0.2-0.6-0.6-0.6h-15.2c-0.3,0-0.5-0.1-0.6-0.3c-0.1-0.2-0.2-0.4-0.2-0.7s0.1-0.5,0.2-0.7c0.1-0.2,0.3-0.3,0.6-0.3H474
		C474.7,866.1,475.3,866.3,475.6,866.6z"/>
	<path class="st9" d="M509,887.1c0.1,0.2,0.2,0.5,0.2,0.8s-0.1,0.5-0.2,0.7c-0.1,0.2-0.3,0.3-0.6,0.3h-25c-0.3,0-0.5-0.1-0.6-0.3
		c-0.1-0.2-0.2-0.4-0.2-0.7s0.1-0.5,0.2-0.8c0.1-0.3,0.3-0.3,0.6-0.3h25C508.6,886.8,508.8,886.9,509,887.1z M505.1,866.7
		c0.1,0.2,0.2,0.4,0.2,0.7s-0.1,0.5-0.2,0.7c-0.1,0.2-0.3,0.3-0.6,0.3h-15.2c-0.4,0-0.6,0.2-0.6,0.6v8.5c0,0.4,0.2,0.6,0.6,0.6h15.6
		c0.3,0,0.5,0.1,0.6,0.3c0.1,0.2,0.2,0.4,0.2,0.7s-0.1,0.5-0.2,0.7c-0.1,0.2-0.3,0.3-0.6,0.3h-16.3c-0.8,0-1.4-0.2-1.7-0.5
		s-0.5-0.9-0.5-1.7v-9.4c0-0.8,0.2-1.4,0.5-1.7s0.9-0.5,1.7-0.5h16C504.7,866.4,505,866.5,505.1,866.7z"/>
	<path class="st9" d="M537.2,879.7c0.2,0,0.4,0,0.6,0.2s0.3,0.4,0.3,0.7s0,0.5-0.1,0.7s-0.3,0.3-0.6,0.4c-2.8,0.2-5.6,0.4-8.4,0.5
		s-5.6,0.1-8.6,0.1c-0.3,0-0.5-0.1-0.6-0.3s-0.2-0.4-0.2-0.7s0.1-0.5,0.2-0.7c0.1-0.2,0.3-0.3,0.6-0.3c1.2,0,2.4,0,3.6,0
		c1.2,0,2.4,0,3.6,0v-5.2h2.3v5.1c1.2,0,2.4-0.1,3.6-0.2C534.7,879.9,536,879.8,537.2,879.7z M528.7,865.4c1.2,0,2.3,0.1,3.2,0.4
		c0.9,0.3,1.7,0.7,2.3,1.2s1,1.1,1.3,1.8s0.4,1.4,0.4,2.2s-0.1,1.6-0.4,2.2s-0.7,1.3-1.3,1.8s-1.3,0.9-2.3,1.2
		c-0.9,0.3-2,0.4-3.2,0.4s-2.3-0.1-3.2-0.4c-0.9-0.3-1.7-0.7-2.3-1.2s-1-1.1-1.3-1.8s-0.4-1.4-0.4-2.2s0.1-1.5,0.4-2.2
		s0.7-1.3,1.3-1.8s1.3-0.9,2.3-1.2C526.4,865.6,527.5,865.4,528.7,865.4z M528.7,867.4c-1.7,0-3,0.3-3.8,1s-1.2,1.6-1.2,2.6
		s0.4,1.9,1.2,2.6s2.1,1.1,3.8,1.1s3-0.4,3.8-1.1c0.8-0.7,1.2-1.6,1.2-2.6s-0.4-1.9-1.2-2.6C531.7,867.7,530.4,867.4,528.7,867.4z
		 M525.2,884.6c0.3,0,0.6,0.1,0.8,0.2s0.4,0.4,0.4,0.7v5.2c0,0.4,0.2,0.6,0.6,0.6h15.6c0.3,0,0.5,0.1,0.6,0.3s0.2,0.4,0.2,0.7
		s-0.1,0.5-0.2,0.7c-0.1,0.2-0.3,0.3-0.6,0.3h-16.3c-0.8,0-1.4-0.2-1.7-0.5s-0.5-0.9-0.5-1.7v-5.6c0-0.3,0.1-0.6,0.4-0.7
		C524.6,884.6,524.9,884.6,525.2,884.6z M541.3,864.4c0.3,0,0.6,0.1,0.8,0.2c0.2,0.1,0.4,0.4,0.4,0.7v8.4h3.6c0.3,0,0.5,0.1,0.6,0.3
		s0.2,0.4,0.2,0.7s-0.1,0.5-0.2,0.8c-0.1,0.2-0.3,0.3-0.6,0.3h-3.6v9.8c0,0.3-0.1,0.6-0.4,0.7c-0.2,0.1-0.5,0.2-0.8,0.2
		s-0.6-0.1-0.8-0.2c-0.2-0.1-0.4-0.4-0.4-0.7v-20.2c0-0.3,0.1-0.6,0.4-0.7S541,864.4,541.3,864.4z"/>
	<path class="st9" d="M558.9,886.8h6.3v-6.9h2.2v6.9h7.1c0.3,0,0.5,0.1,0.6,0.3s0.2,0.4,0.2,0.7s-0.1,0.5-0.2,0.7
		c-0.1,0.2-0.3,0.3-0.6,0.3h-25.1c-0.3,0-0.5-0.1-0.6-0.3s-0.2-0.4-0.2-0.7s0.1-0.5,0.2-0.7c0.1-0.2,0.3-0.3,0.6-0.3h7.2v-6.9h2.2
		L558.9,886.8L558.9,886.8z M571,866.6c0.3,0.3,0.5,0.9,0.5,1.7v4.1c0,0.8-0.2,1.4-0.5,1.7s-0.9,0.5-1.7,0.5h-13.7
		c-0.4,0-0.6,0.2-0.6,0.6v3.3c0,0.4,0.2,0.6,0.6,0.6h15.9c0.3,0,0.5,0.1,0.6,0.3s0.2,0.4,0.2,0.7s-0.1,0.5-0.2,0.7
		c-0.1,0.2-0.3,0.3-0.6,0.3h-16.6c-0.8,0-1.4-0.2-1.7-0.5s-0.5-0.9-0.5-1.7v-4.1c0-0.8,0.2-1.4,0.5-1.7s0.9-0.5,1.7-0.5h13.8
		c0.4,0,0.6-0.2,0.6-0.6v-3.3c0-0.4-0.2-0.6-0.6-0.6h-15.4c-0.3,0-0.5-0.1-0.6-0.3s-0.2-0.4-0.2-0.7s0.1-0.5,0.2-0.7
		s0.3-0.3,0.6-0.3h15.9C570.1,866.1,570.7,866.3,571,866.6z"/>
	<path class="st9" d="M589.3,870.5c0.5,0,1,0.2,1.3,0.5c0.3,0.4,0.5,0.8,0.5,1.3s-0.2,0.9-0.5,1.3c-0.3,0.4-0.8,0.5-1.3,0.5
		s-0.9-0.2-1.3-0.5c-0.4-0.4-0.5-0.8-0.5-1.3s0.2-0.9,0.5-1.3C588.3,870.7,588.8,870.5,589.3,870.5z M589.3,882.8
		c0.5,0,1,0.2,1.3,0.5c0.3,0.4,0.5,0.8,0.5,1.3s-0.2,0.9-0.5,1.3c-0.3,0.4-0.8,0.5-1.3,0.5s-0.9-0.2-1.3-0.5
		c-0.4-0.4-0.5-0.8-0.5-1.3s0.2-0.9,0.5-1.3S588.8,882.8,589.3,882.8z"/>
	<path class="st9" d="M596.3,863.7c0.5-0.3,0.9-0.2,1.3,0.3c1.5,1.8,2.6,4,3.3,6.4s1.1,5,1.1,7.7v0.7c0,2.7-0.4,5.3-1.1,7.7
		c-0.7,2.4-1.9,4.5-3.3,6.4c-0.4,0.5-0.8,0.6-1.3,0.3c-0.2-0.1-0.3-0.3-0.4-0.5c-0.1-0.2,0-0.4,0.1-0.7c1.2-1.9,2.1-3.9,2.7-6.1
		s0.9-4.5,0.9-6.9v-1c0-2.5-0.3-4.8-0.9-6.9s-1.5-4.2-2.7-6.1c-0.1-0.2-0.2-0.5-0.1-0.7C595.9,864,596.1,863.8,596.3,863.7z"/>
</g>
<path class="st9" d="M213.5,517.3c1.2-2.4,3-4.3,5.4-5.8s5.2-2.2,8.4-2.2c2.5,0,4.6,0.4,6.5,1.2c1.9,0.8,3.4,1.9,4.6,3.4
	c1.2,1.4,2,3.1,2.6,4.9c0.6,1.8,0.9,3.7,0.9,5.8c0,0.8-0.2,1.5-0.6,2s-1,0.8-1.7,0.8h-20.1c0.3,6,3.4,9,9.2,9c2.6,0,5.4-1.1,8.4-3.2
	c0.4-0.3,0.8-0.4,1.2-0.4c0.7,0,1.2,0.3,1.7,0.9c0.5,0.6,0.8,1.3,0.8,2c0,0.8-0.3,1.6-1,2.2c-3.3,2.8-7.2,4.2-11.7,4.2
	c-5,0-9-1.5-12-4.4s-4.5-7-4.5-12.2C211.7,522.4,212.3,519.7,213.5,517.3z M235.2,522.9c-0.2-2.4-0.9-4.4-2.1-6
	c-1.2-1.6-3.1-2.3-5.5-2.3s-4.2,0.8-5.6,2.4c-1.3,1.6-2.1,3.6-2.3,5.9L235.2,522.9L235.2,522.9z"/>
<path class="st9" d="M270.1,536.4c-1.8,3.4-5,5.1-9.5,5.1c-4.6,0-8.2-1.4-11-4.2s-4.1-6.7-4.1-11.5c0-4.9,1.3-8.9,4-11.9
	c2.7-3.1,6.3-4.6,10.9-4.6c2.6,0,4.6,0.4,6,1.3c1.4,0.9,2.7,2.2,3.8,3.9V513c0.1-1.1,0.5-1.9,1.2-2.5s1.5-0.9,2.5-0.9
	c1.1,0,2,0.4,2.7,1.2c0.7,0.8,1.1,1.9,1.1,3.3v26c0,5-1.5,8.8-4.4,11.5c-2.9,2.6-6.9,3.9-11.9,3.9c-2.3,0-4.4-0.2-6.5-0.7
	c-2.1-0.5-3.7-1.1-4.8-1.8c-1-0.6-1.5-1.4-1.5-2.4c0-0.7,0.2-1.4,0.7-1.9c0.5-0.6,1.1-0.8,1.8-0.8c0.3,0,0.7,0.1,1,0.2
	c0.2,0.1,0.8,0.3,1.7,0.6s1.7,0.6,2.1,0.7s1.1,0.3,2,0.4c0.9,0.1,1.7,0.2,2.6,0.2c3,0,5.3-0.7,6.9-2.2c1.6-1.5,2.5-3.7,2.5-6.7v-4.7
	H270.1z M267.9,533.6c1.5-1.7,2.2-4.4,2.2-8c0-7.3-2.7-11-8.1-11c-1.2,0-2.3,0.2-3.2,0.6s-1.7,0.9-2.4,1.6c-0.6,0.7-1.2,1.5-1.6,2.4
	c-0.4,0.9-0.7,1.9-0.9,3c-0.2,1-0.3,2.2-0.3,3.4c0,3.5,0.8,6.1,2.4,7.9c1.6,1.8,3.6,2.7,6,2.7C264.5,536.2,266.5,535.3,267.9,533.6z
	"/>
<path class="st9" d="M286.1,539.5c-2.1-1.6-3.1-3.8-3.1-6.7c0-1.3,0.1-2.4,0.4-3.3s0.6-1.8,1.1-2.5s1.1-1.3,2-1.8
	c0.9-0.5,1.8-0.9,2.8-1.2s2.2-0.5,3.7-0.7s3-0.3,4.5-0.3c1.5-0.1,3.4-0.1,5.5-0.1v-2.4c0-2-0.5-3.4-1.4-4.4
	c-0.9-0.9-2.3-1.4-4.2-1.4c-0.4,0-0.8,0-1.2,0s-0.8,0.1-1.3,0.2c-0.4,0.1-0.8,0.1-1.1,0.2c-0.3,0.1-0.7,0.1-1.1,0.3
	c-0.4,0.2-0.8,0.2-1,0.3s-0.6,0.2-1,0.3c-0.4,0.2-0.7,0.3-0.9,0.3c-0.1,0-0.4,0.2-0.9,0.3c-0.4,0.2-0.7,0.3-0.7,0.3
	c-0.2,0.1-0.5,0.2-0.9,0.2c-0.7,0-1.4-0.3-1.9-0.9c-0.5-0.6-0.8-1.3-0.8-2.1c0-1,0.5-1.8,1.4-2.2c3.5-1.7,7.4-2.5,11.7-2.5
	c1.9,0,3.7,0.2,5.2,0.7c1.5,0.4,2.9,1.1,4.1,2.1c1.2,0.9,2.1,2.2,2.7,3.8c0.6,1.6,1,3.5,1,5.6v16.1c0,1.3-0.4,2.3-1.1,3
	s-1.6,1-2.7,1c-1,0-1.9-0.3-2.7-1c-0.8-0.7-1.1-1.7-1.1-3v-1c-0.7,1.6-1.8,2.9-3.3,3.9s-3.5,1.5-6,1.5
	C290.8,541.9,288.1,541.1,286.1,539.5z M300.5,534.4c1.6-1.7,2.4-3.8,2.4-6.3v-0.9c-2.1,0-3.8,0-5,0.1s-2.4,0.2-3.5,0.4
	c-1.1,0.2-1.9,0.5-2.5,0.9c-0.5,0.4-0.9,0.9-1.2,1.5c-0.3,0.6-0.4,1.4-0.4,2.4c0,1.5,0.4,2.6,1.3,3.4c0.9,0.8,2,1.2,3.4,1.2
	C297.1,536.9,298.9,536,300.5,534.4z"/>
<path class="st9" d="M367.7,540.5c-2.2-0.9-3.9-2.1-5.2-3.7c-1.3-1.5-2.3-3.3-3-5.2s-1-3.9-1-6.1c0-1.7,0.2-3.3,0.6-4.9
	c0.4-1.6,1.1-3.1,2-4.5s2-2.6,3.3-3.7c1.3-1,2.8-1.9,4.7-2.5c1.9-0.6,3.9-0.9,6.1-0.9s4.2,0.3,6,0.9s3.4,1.4,4.7,2.4
	c1.3,1,2.4,2.2,3.3,3.6c0.9,1.4,1.6,2.9,2,4.5s0.7,3.3,0.7,5s-0.2,3.3-0.6,4.8s-1.1,3-1.9,4.4c-0.9,1.4-2,2.6-3.2,3.7
	s-2.9,1.8-4.7,2.5c-1.9,0.6-3.9,0.9-6.2,0.9C372.3,541.9,369.9,541.4,367.7,540.5z M381.5,533.6c1.5-1.9,2.3-4.6,2.3-8
	s-0.8-6.1-2.3-8.1c-1.5-1.9-3.7-2.9-6.4-2.9c-2.8,0-4.9,1-6.4,2.9s-2.3,4.6-2.3,8.1c0,3.4,0.8,6.1,2.3,8s3.6,2.9,6.4,2.9
	S380,535.5,381.5,533.6z"/>
<path class="st9" d="M417.7,539.6l-7.8-9.1l-7.7,9.4c-0.8,1.1-1.8,1.6-3,1.6c-0.9,0-1.7-0.3-2.3-1c-0.7-0.7-1-1.5-1-2.4
	c0-0.8,0.3-1.6,0.8-2.3l8.9-10.5l-8-9.3c-0.7-1-1-1.9-1-2.8c0-1,0.4-1.8,1.2-2.5c0.8-0.7,1.7-1.1,2.7-1.1c1.1,0,2.1,0.7,3.2,2l7,8.2
	l7.5-8.9c0.8-1,1.7-1.5,2.8-1.5c0.9,0,1.7,0.3,2.4,1c0.7,0.7,1,1.4,1,2.4c0,0.7-0.3,1.5-0.9,2.3l-8.3,9.9l8.8,10.3
	c0.7,0.9,1,1.8,1,2.7s-0.4,1.8-1.2,2.5s-1.7,1.1-2.7,1.1C419.8,541.6,418.7,540.9,417.7,539.6z"/>
<g id="XMLID_1076_">
	<path id="XMLID_1078_" class="st2" d="M177.5,682.7c-10.2,0-18.4,8-18.4,17.7c0,2.8,0.7,5.4,2,7.9v0.1l16.4,23.7l16.5-23.7
		c1.3-2.5,2-5.2,2-7.9C195.9,690.6,187.6,682.7,177.5,682.7z"/>
	<circle id="XMLID_1077_" class="st5" cx="177.5" cy="699.4" r="7.8"/>
</g>
<g id="XMLID_1068_">
	<path id="XMLID_11_" class="st0" d="M154.9,612.9V635c0,3.5,2.9,6.4,6.4,6.4h32.2c3.5,0,6.4-2.9,6.4-6.4v-22.2h-45L154.9,612.9
		L154.9,612.9z"/>
	<path id="XMLID_10_" class="st2" d="M200,605.2c0-3.5-2.9-6.4-6.4-6.4h-32.2c-3.5,0-6.4,2.9-6.4,6.4v7.7h45L200,605.2L200,605.2z"
		/>
	<line id="XMLID_9_" class="st6" x1="164.5" y1="594.3" x2="164.5" y2="603.1"/>
	<line id="XMLID_1072_" class="st6" x1="190.4" y1="594.3" x2="190.4" y2="603.1"/>
	<circle id="XMLID_1071_" class="st2" cx="191.4" cy="631.9" r="11"/>
	<line id="XMLID_1070_" class="st6" x1="191.4" y1="628.5" x2="191.4" y2="631.9"/>
	<line id="XMLID_1069_" class="st6" x1="194.9" y1="631.9" x2="191.4" y2="631.9"/>
</g>
<line id="XMLID_1067_" class="st1" x1="177.5" y1="792.8" x2="177.5" y2="916.8"/>
<circle id="XMLID_1066_" class="st2" cx="177.5" cy="784.7" r="9.9"/>
<circle id="XMLID_1065_" class="st2" cx="177.5" cy="849.7" r="9.9"/>
<circle id="XMLID_1064_" class="st2" cx="177.5" cy="914.7" r="9.9"/>
<g id="XMLID_527_">
	<polygon id="XMLID_528_" class="st7" points="162.8,982.5 172.4,988.1 162.4,1000.6 168.8,1005.8 178.9,993.3 186.5,1001.8 
		194.9,966.9 	"/>
</g>
<path id="XMLID_201_" class="st10" d="M531.6,1006.2H229.7c-5.5,0-9.9-4.4-9.9-9.9l0,0c0-5.5,4.4-9.9,9.9-9.9h301.9
	c5.5,0,9.9,4.4,9.9,9.9l0,0C541.5,1001.8,537.1,1006.2,531.6,1006.2z"/>
<g>
	<path class="st9" d="M235.6,972.5c-0.5,0-0.9-0.2-1.1-0.5c-0.2-0.3-0.4-0.7-0.4-1.2s0.1-0.9,0.4-1.2c0.2-0.3,0.6-0.5,1.1-0.5h7.6
		c1,0,1.7,0.2,2.1,0.6c0.4,0.4,0.6,1.1,0.6,2.1v3.4c0,1,0,1.8-0.1,2.6s-0.2,1.4-0.4,2s-0.5,1.2-0.9,1.8s-0.9,1.2-1.6,1.8
		s-1.5,1.3-2.5,2.1c-1,0.7-2.2,1.6-3.6,2.6c-0.4,0.3-0.9,0.4-1.4,0.2c-0.5-0.1-0.9-0.4-1.2-0.8c-0.1-0.2-0.2-0.4-0.3-0.6
		c-0.1-0.2-0.1-0.5-0.1-0.7s0-0.5,0.1-0.7s0.3-0.4,0.5-0.5c1.2-0.8,2.2-1.6,3.1-2.2c0.8-0.6,1.5-1.2,2.1-1.7s1-0.9,1.3-1.4
		c0.3-0.4,0.6-0.9,0.7-1.3c0.1-0.4,0.2-0.9,0.3-1.5c0-0.5,0-1.1,0-1.9v-1.7c0-0.5-0.2-0.7-0.7-0.7L235.6,972.5L235.6,972.5z
		 M244.2,976.2h5.1v-7.7c0-0.6,0.2-1,0.6-1.2c0.4-0.3,0.8-0.4,1.3-0.4s0.9,0.1,1.3,0.4c0.4,0.3,0.6,0.7,0.6,1.2v23.1
		c0,0.6-0.2,1-0.6,1.2c-0.4,0.3-0.8,0.4-1.3,0.4s-0.9-0.1-1.3-0.4c-0.4-0.3-0.6-0.7-0.6-1.2v-11.9h-5.1V976.2z M255.3,968.2
		c0-0.6,0.2-1,0.6-1.2c0.4-0.3,0.8-0.4,1.3-0.4s0.9,0.1,1.3,0.4c0.4,0.3,0.6,0.7,0.6,1.2V993c0,0.6-0.2,1-0.6,1.2
		c-0.4,0.3-0.8,0.4-1.3,0.4s-0.9-0.1-1.3-0.4c-0.4-0.3-0.6-0.7-0.6-1.2V968.2z"/>
	<path class="st9" d="M273.5,974.3c0,0.6,0,1.2,0.1,1.8c0.1,0.6,0.2,1,0.4,1.5c0.2,0.5,0.4,1,0.8,1.4c0.3,0.5,0.7,0.9,1.1,1.4
		c0.6,0.6,1.2,1.2,1.7,1.8c0.6,0.6,1.1,1.1,1.6,1.5c0.4,0.4,0.6,0.8,0.5,1.3c-0.1,0.5-0.3,0.9-0.6,1.3c-0.1,0.1-0.3,0.3-0.5,0.4
		c-0.2,0.1-0.4,0.2-0.7,0.2c-0.2,0-0.4,0-0.7,0c-0.2-0.1-0.4-0.2-0.6-0.4c-0.4-0.4-0.9-0.8-1.4-1.3s-1-1-1.5-1.6
		c-0.9-0.9-1.4-1.6-1.8-2c-0.3-0.5-0.5-0.8-0.6-1.2l0,0c0,0.2-0.1,0.4-0.2,0.6c-0.1,0.2-0.2,0.4-0.4,0.7c-0.2,0.2-0.4,0.5-0.7,0.9
		c-0.3,0.3-0.6,0.7-1.1,1.2c-0.5,0.6-1,1.1-1.6,1.6c-0.5,0.5-1.1,1.1-1.8,1.7c-0.4,0.4-0.9,0.5-1.4,0.3c-0.5-0.1-0.9-0.4-1.2-0.7
		c-0.3-0.4-0.5-0.8-0.5-1.3s0.2-0.9,0.5-1.3c1.3-1.2,2.6-2.5,3.7-3.7c0.4-0.5,0.8-1,1.1-1.4c0.3-0.5,0.6-0.9,0.8-1.4s0.3-1,0.4-1.5
		c0.1-0.5,0.1-1.1,0.1-1.8v-4.5c0-0.6,0.2-1.1,0.6-1.3c0.4-0.2,0.9-0.4,1.5-0.4c0.6,0,1,0.1,1.5,0.4s0.6,0.7,0.6,1.3v4.5H273.5z
		 M286.4,992.8c0,0.6-0.2,1-0.6,1.3c-0.4,0.3-0.9,0.4-1.5,0.4c-0.5,0-1-0.1-1.4-0.4c-0.4-0.3-0.6-0.7-0.6-1.3v-24.5
		c0-0.6,0.2-1,0.6-1.3c0.4-0.3,0.9-0.4,1.4-0.4c0.6,0,1,0.1,1.5,0.4s0.6,0.7,0.6,1.3V992.8z"/>
	<path class="st9" d="M305.8,982.2v3.8h-4v-3.8h-10.1c-0.5,0-0.8-0.2-1-0.5s-0.3-0.7-0.3-1.2c0-0.4,0.1-0.8,0.3-1.2
		c0.2-0.3,0.6-0.5,1-0.5H316c0.5,0,0.8,0.2,1,0.5s0.3,0.7,0.3,1.2s-0.1,0.9-0.3,1.2c-0.2,0.3-0.6,0.5-1,0.5H305.8z M311.1,984.2
		c1,0,1.7,0.2,2.1,0.6c0.4,0.4,0.6,1.1,0.6,2.1v2.3c0,1-0.2,1.7-0.6,2.1c-0.4,0.4-1.1,0.6-2.1,0.6h-13c-0.3,0-0.5,0.2-0.5,0.5v0.6
		c0,0.3,0.2,0.5,0.5,0.5h15c0.4,0,0.8,0.2,1,0.5s0.3,0.7,0.3,1.1c0,0.4-0.1,0.8-0.3,1.1c-0.2,0.3-0.5,0.5-1,0.5h-16.8
		c-1,0-1.7-0.2-2.1-0.6c-0.4-0.4-0.6-1.1-0.6-2.1v-2.4c0-1,0.2-1.7,0.6-2.1c0.4-0.4,1.1-0.6,2.1-0.6h13c0.3,0,0.5-0.2,0.5-0.5v-0.5
		c0-0.3-0.2-0.5-0.5-0.5h-14.5c-0.4,0-0.8-0.2-1-0.5s-0.3-0.7-0.3-1.1c0-0.4,0.1-0.8,0.3-1.1s0.5-0.5,1-0.5L311.1,984.2L311.1,984.2
		z M296.5,977.1c-1,0-1.7-0.2-2.1-0.6c-0.4-0.4-0.6-1.1-0.6-2.1v-4.6c0-1,0.2-1.7,0.6-2.1c0.4-0.4,1.1-0.6,2.1-0.6h14.6
		c1,0,1.7,0.2,2.1,0.6c0.4,0.4,0.6,1.1,0.6,2.1v4.6c0,1-0.2,1.7-0.6,2.1c-0.4,0.4-1.1,0.6-2.1,0.6H296.5z M309,973.9
		c0.5,0,0.7-0.2,0.7-0.7v-1.9c0-0.5-0.2-0.7-0.7-0.7h-10.4c-0.5,0-0.7,0.2-0.7,0.7v1.9c0,0.5,0.2,0.7,0.7,0.7H309z"/>
	<path class="st9" d="M336.6,974.2c0,0.6,0,1.2,0.1,1.8c0.1,0.5,0.2,1,0.4,1.5s0.4,1,0.8,1.4c0.3,0.5,0.7,0.9,1.1,1.4
		c0.6,0.6,1.2,1.2,1.7,1.8c0.6,0.6,1.1,1.1,1.6,1.5c0.4,0.4,0.6,0.8,0.5,1.3c-0.1,0.5-0.3,0.9-0.6,1.3c-0.1,0.1-0.3,0.3-0.5,0.4
		c-0.2,0.1-0.4,0.2-0.7,0.2c-0.2,0-0.4,0-0.7,0c-0.2-0.1-0.4-0.2-0.6-0.4c-0.4-0.4-0.9-0.8-1.4-1.3s-1-1-1.5-1.6
		c-0.9-0.9-1.4-1.6-1.7-2c-0.3-0.4-0.5-0.8-0.6-1.2l0,0c0,0.2-0.1,0.4-0.2,0.6c-0.1,0.2-0.2,0.4-0.4,0.7s-0.4,0.5-0.7,0.9
		c-0.3,0.3-0.6,0.7-1.1,1.2c-0.5,0.6-1,1.1-1.6,1.6c-0.6,0.5-1.1,1.1-1.8,1.7c-0.4,0.4-0.9,0.5-1.4,0.3c-0.5-0.1-0.9-0.4-1.2-0.7
		c-0.3-0.4-0.5-0.8-0.5-1.3s0.2-0.9,0.5-1.3c1.3-1.2,2.6-2.5,3.7-3.7c0.4-0.5,0.8-1,1.1-1.4c0.3-0.5,0.6-0.9,0.8-1.4
		c0.2-0.5,0.3-1,0.4-1.5c0.1-0.5,0.1-1.1,0.1-1.8v-4.4c0-0.6,0.2-1.1,0.6-1.3c0.4-0.2,0.9-0.4,1.5-0.4c0.6,0,1,0.1,1.5,0.4
		s0.6,0.7,0.6,1.3v4.4H336.6z M351.9,976c0.5,0,0.9,0.2,1.1,0.5s0.4,0.8,0.4,1.2c0,0.5-0.1,0.9-0.4,1.3c-0.2,0.4-0.6,0.5-1.1,0.5h-3
		v13.2c0,0.6-0.2,1-0.6,1.3c-0.4,0.3-0.9,0.4-1.4,0.4s-1-0.1-1.4-0.4c-0.4-0.3-0.6-0.7-0.6-1.3v-24.5c0-0.6,0.2-1,0.6-1.3
		c0.4-0.3,0.9-0.4,1.4-0.4s1,0.1,1.4,0.4c0.4,0.3,0.6,0.7,0.6,1.3v7.7L351.9,976L351.9,976z"/>
	<path class="st9" d="M355.1,977.9c0-3.2,0.6-5.6,1.9-7.2c1.3-1.7,3.2-2.5,5.8-2.5s4.5,0.8,5.8,2.5s1.9,4.1,1.9,7.2
		c0,3.2-0.6,5.6-1.9,7.2c-1.3,1.7-3.2,2.5-5.8,2.5s-4.5-0.8-5.8-2.5C355.7,983.5,355.1,981.1,355.1,977.9z M366.5,977.9
		c0-2-0.3-3.6-0.8-4.6s-1.5-1.6-2.9-1.6c-1.4,0-2.4,0.5-2.9,1.6c-0.6,1-0.8,2.6-0.8,4.6s0.3,3.6,0.8,4.6c0.6,1,1.5,1.6,2.9,1.6
		c1.4,0,2.4-0.5,2.9-1.6S366.5,980,366.5,977.9z M378.6,992.8c0,0.6-0.2,1-0.6,1.3c-0.4,0.3-0.9,0.4-1.5,0.4c-0.5,0-1-0.1-1.4-0.4
		c-0.4-0.3-0.6-0.7-0.6-1.3v-24.5c0-0.6,0.2-1,0.6-1.3c0.4-0.3,0.9-0.4,1.4-0.4c0.6,0,1,0.1,1.5,0.4s0.6,0.7,0.6,1.3V992.8z"/>
	<path class="st9" d="M383.9,991.9c-0.5,0-0.9-0.2-1.1-0.5s-0.4-0.7-0.4-1.2s0.1-0.9,0.4-1.2c0.2-0.3,0.6-0.5,1.1-0.5H408
		c0.5,0,0.9,0.2,1.1,0.5s0.4,0.8,0.4,1.2c0,0.5-0.1,0.9-0.4,1.2c-0.2,0.3-0.6,0.5-1.1,0.5H383.9z M389.9,974.7h14.3
		c0.5,0,0.9,0.2,1.1,0.5s0.4,0.7,0.4,1.2c0,0.4-0.1,0.8-0.4,1.2c-0.2,0.3-0.6,0.5-1.1,0.5h-14.3v2.2c0,0.5,0.2,0.7,0.7,0.7H405
		c0.5,0,0.9,0.2,1.1,0.5s0.4,0.7,0.4,1.2s-0.1,0.9-0.4,1.2c-0.2,0.3-0.6,0.5-1.1,0.5h-16.4c-1,0-1.7-0.2-2.1-0.6
		c-0.4-0.4-0.6-1.1-0.6-2.1V971c0-1,0.2-1.7,0.6-2.1c0.4-0.4,1.1-0.6,2.1-0.6h15.9c0.5,0,0.9,0.2,1.1,0.5s0.4,0.7,0.4,1.2
		s-0.1,0.9-0.4,1.2c-0.2,0.3-0.6,0.5-1.1,0.5h-13.9c-0.5,0-0.7,0.2-0.7,0.7V974.7z"/>
	<path class="st9" d="M422.9,975.1h6.1v-5c0-0.6,0.2-1,0.6-1.3c0.4-0.3,0.9-0.4,1.4-0.4s1,0.1,1.4,0.4c0.4,0.3,0.6,0.7,0.6,1.3v14.4
		c0,1-0.2,1.7-0.6,2.1c-0.4,0.4-1.1,0.6-2.1,0.6h-8.8c-1,0-1.7-0.2-2.1-0.6c-0.4-0.4-0.6-1.1-0.6-2.1v-14.4c0-0.6,0.2-1,0.6-1.3
		c0.4-0.3,0.9-0.4,1.4-0.4s1,0.1,1.4,0.4c0.4,0.3,0.6,0.7,0.6,1.3v5H422.9z M428.3,983.8c0.5,0,0.7-0.2,0.7-0.7v-4.5h-6.1v4.5
		c0,0.5,0.2,0.7,0.7,0.7H428.3z M444.1,976c0.5,0,0.9,0.2,1.1,0.5s0.4,0.8,0.4,1.2c0,0.5-0.1,0.9-0.4,1.3c-0.2,0.4-0.6,0.5-1.1,0.5
		h-3v13.2c0,0.6-0.2,1-0.6,1.3c-0.4,0.3-0.9,0.4-1.4,0.4s-1-0.1-1.4-0.4c-0.4-0.3-0.6-0.7-0.6-1.3v-24.5c0-0.6,0.2-1,0.6-1.3
		c0.4-0.3,0.9-0.4,1.4-0.4s1,0.1,1.4,0.4c0.4,0.3,0.6,0.7,0.6,1.3v7.7L444.1,976L444.1,976z"/>
	<path class="st9" d="M447.7,991.9c-0.5,0-0.9-0.2-1.1-0.5s-0.4-0.7-0.4-1.2s0.1-0.9,0.4-1.2c0.2-0.3,0.6-0.5,1.1-0.5h10v-6h4.1v6
		h10c0.5,0,0.9,0.2,1.1,0.5s0.4,0.7,0.4,1.2s-0.1,0.9-0.4,1.2c-0.2,0.3-0.6,0.5-1.1,0.5H447.7z M467,968.2c1,0,1.7,0.2,2.1,0.6
		c0.4,0.4,0.6,1.1,0.6,2.1v4.3c0,1-0.2,1.7-0.6,2.1c-0.4,0.4-1.1,0.6-2.1,0.6h-12.4c-0.5,0-0.7,0.2-0.7,0.7v1.4
		c0,0.5,0.2,0.7,0.7,0.7h14.3c0.5,0,0.9,0.2,1.1,0.5s0.4,0.7,0.4,1.2s-0.1,0.9-0.4,1.2c-0.2,0.3-0.6,0.5-1.1,0.5h-16.4
		c-1,0-1.7-0.2-2.1-0.6c-0.4-0.4-0.6-1.1-0.6-2.1v-4.3c0-1,0.2-1.7,0.6-2.1c0.4-0.4,1.1-0.6,2.1-0.6h12.4c0.5,0,0.7-0.2,0.7-0.7
		v-1.3c0-0.5-0.2-0.7-0.7-0.7h-13.8c-0.5,0-0.9-0.2-1.1-0.5s-0.4-0.7-0.4-1.2s0.1-0.9,0.4-1.2c0.2-0.3,0.6-0.5,1.1-0.5H467V968.2z"
		/>
	<path class="st9" d="M476.9,972.3c-0.5,0-0.9-0.2-1.1-0.5s-0.4-0.7-0.4-1.2s0.1-0.9,0.4-1.2c0.2-0.3,0.6-0.5,1.1-0.5h9.6
		c1,0,1.7,0.2,2.1,0.6c0.4,0.4,0.6,1.1,0.6,2.1v3.5c0,1.3-0.1,2.5-0.4,3.5s-0.8,2-1.6,2.9c-0.8,0.9-1.9,1.9-3.4,3s-3.4,2.3-5.8,3.8
		c-0.4,0.3-0.9,0.3-1.4,0.1s-0.8-0.5-1.1-0.8c-0.3-0.4-0.4-0.8-0.4-1.3s0.2-0.9,0.7-1.2c1.5-0.9,2.7-1.6,3.7-2.3s1.9-1.3,2.6-1.8
		s1.2-1,1.6-1.5c0.4-0.4,0.7-0.9,0.9-1.4s0.3-0.9,0.4-1.4c0.1-0.5,0.1-1.1,0.1-1.7v-2c0-0.5-0.2-0.7-0.7-0.7H476.9z M500.7,976
		c0.5,0,0.9,0.2,1.1,0.5s0.4,0.8,0.4,1.2c0,0.5-0.1,0.9-0.4,1.3c-0.2,0.4-0.6,0.5-1.1,0.5h-3v13.2c0,0.6-0.2,1-0.6,1.3
		c-0.4,0.3-0.9,0.4-1.4,0.4s-1-0.1-1.4-0.4c-0.4-0.3-0.6-0.7-0.6-1.3v-24.5c0-0.6,0.2-1,0.6-1.3c0.4-0.3,0.9-0.4,1.4-0.4
		s1,0.1,1.4,0.4c0.4,0.3,0.6,0.7,0.6,1.3v7.7L500.7,976L500.7,976z"/>
	<path class="st9" d="M505.9,972.2c-0.5,0-0.9-0.2-1.1-0.5s-0.4-0.7-0.4-1.2s0.1-0.9,0.4-1.2c0.2-0.3,0.6-0.5,1.1-0.5h9.6
		c1,0,1.7,0.2,2.1,0.6c0.4,0.4,0.6,1.1,0.6,2.1v3.6c0,0.9-0.1,1.7-0.2,2.4c-0.1,0.7-0.3,1.4-0.6,2.1s-0.7,1.3-1.2,1.9
		c-0.5,0.6-1.2,1.3-2,2s-1.8,1.4-3,2.2s-2.6,1.7-4.2,2.7c-0.4,0.3-0.9,0.3-1.4,0.1s-0.8-0.5-1.1-0.8c-0.3-0.3-0.4-0.8-0.4-1.3
		s0.2-0.9,0.7-1.2c1.5-0.9,2.7-1.6,3.7-2.3s1.9-1.3,2.6-1.8s1.2-1,1.6-1.5c0.4-0.4,0.7-0.9,0.9-1.4s0.3-0.9,0.4-1.4
		c0.1-0.5,0.1-1.1,0.1-1.7V973c0-0.5-0.2-0.7-0.7-0.7L505.9,972.2L505.9,972.2z M527.4,992.8c0,0.6-0.2,1-0.6,1.3s-0.9,0.4-1.5,0.4
		c-0.5,0-1-0.1-1.4-0.4s-0.6-0.7-0.6-1.3v-24.5c0-0.6,0.2-1,0.6-1.3s0.9-0.4,1.4-0.4c0.6,0,1,0.1,1.5,0.4s0.6,0.7,0.6,1.3V992.8z"/>
</g>
<path class="st9" d="M174.8,536l-11.8-28.5v30.8c0,1.1-0.4,1.9-1.2,2.5c-0.8,0.6-1.8,0.9-2.9,0.9c-1.1,0-2.1-0.3-2.9-0.9
	c-0.8-0.6-1.2-1.4-1.2-2.5l0-34.8c0-1.8,0.7-3.2,2-4.3c1.4-1.1,3-1.7,4.8-1.7c1.5,0,3,0.5,4.3,1.3c1.3,0.9,2.3,2.2,3,4l11,26.4v11.1
	C177.7,540.4,175.9,538.9,174.8,536z M180.1,529.3l11.1-26.4c0.7-1.8,1.7-3.1,3-4c1.3-0.9,2.8-1.3,4.3-1.3c1.8,0,3.4,0.6,4.8,1.7
	c1.4,1.1,2,2.6,2,4.3v34.8c0,1.1-0.4,1.9-1.2,2.5c-0.8,0.6-1.8,0.9-2.9,0.9c-1.1,0-2.1-0.3-2.9-0.9c-0.8-0.6-1.2-1.4-1.2-2.5v-30.8
	L185.3,536c-1.1,2.9-2.9,4.4-5.2,4.4V529.3z"/>
<path class="st9" d="M319.5,540.6c-0.9-0.9-1.3-2.2-1.3-4v-36c0-1.4,0.5-2.4,1.4-3.3c0.9-0.8,2-1.2,3.4-1.2h12.9
	c10.9,0,16.3,3.8,16.3,11.3c0,2.8-0.7,5.2-2.2,7c-1.4,1.9-3.6,3-6.3,3.6v0.1c3.3,0.5,5.8,1.7,7.7,3.6c1.9,1.9,2.8,4.5,2.8,7.8
	c0,1.6-0.4,3.1-1.1,4.6c-0.7,1.5-1.7,2.8-3.1,3.9c-1.3,1.2-3.1,2.1-5.2,2.8c-2.1,0.7-4.5,1-7.2,1H323
	C321.5,541.9,320.3,541.5,319.5,540.6z M334.3,515.4c3.3,0,5.6-0.5,7-1.5c1.4-1,2.1-2.8,2.1-5.3c0-1-0.1-1.8-0.4-2.5
	c-0.3-0.7-0.6-1.3-1.1-1.7c-0.4-0.4-1-0.7-1.8-1c-0.7-0.2-1.5-0.4-2.3-0.5s-1.7-0.1-2.8-0.1h-7.9v12.6H334.3z M335.3,535.2
	c1.7,0,3-0.1,4.1-0.2c1.1-0.2,2-0.5,2.9-1c0.9-0.5,1.5-1.2,1.9-2.1c0.4-0.9,0.6-2.1,0.6-3.5c0-1.2-0.2-2.2-0.5-3
	c-0.3-0.8-0.8-1.5-1.4-2s-1.4-0.9-2.4-1.2c-1-0.3-2-0.5-3.1-0.6c-1.1-0.1-2.4-0.1-4-0.1h-6.1v13.6H335.3z"/>
</svg>
