<?xml version="1.0" encoding="utf-8"?>
<!-- Generator: Adobe Illustrator 19.0.0, SVG Export Plug-In . SVG Version: 6.00 Build 0)  -->
<svg version="1.1" id="Layer_1" xmlns="http://www.w3.org/2000/svg" xmlns:xlink="http://www.w3.org/1999/xlink" x="0px" y="0px"
	 viewBox="-153.6 382.5 231 76.1" style="enable-background:new -153.6 382.5 231 76.1;" xml:space="preserve">
<style type="text/css">
	.st0{fill:#61BB87;}
	.st1{fill:none;stroke:#3E3A39;stroke-width:4;stroke-miterlimit:10;}
</style>
<g>
	<path id="XMLID_8_" class="st0" d="M48.1,457.9h-155.8c-15.6,0-28.3-12.8-28.3-28.3l0,0c0-18.2,14.9-33.2,33.2-33.2h151
		c15.6,0,28.3,12.8,28.3,28.3v4.8C76.4,445.1,63.7,457.9,48.1,457.9z"/>
	<path id="XMLID_7_" class="st1" d="M33.7,446.3H-122c-15.6,0-28.3-12.8-28.3-28.3l0,0c0-18.2,14.9-33.2,33.2-33.2h151
		c15.6,0,28.3,12.8,28.3,28.3v4.8C62,433.6,49.3,446.3,33.7,446.3z"/>
</g>
</svg>
