<?xml version="1.0" encoding="utf-8"?>
<!-- Generator: Adobe Illustrator 19.0.0, SVG Export Plug-In . SVG Version: 6.00 Build 0)  -->
<svg version="1.1" id="Layer_1" xmlns="http://www.w3.org/2000/svg" xmlns:xlink="http://www.w3.org/1999/xlink" x="0px" y="0px"
	 viewBox="-280 385.1 34 72.8" style="enable-background:new -280 385.1 34 72.8;" xml:space="preserve">
<style type="text/css">
	.st0{fill:#61B584;}
	.st1{fill:#3F3B3A;}
</style>
<g id="XMLID_511_">
	<g id="XMLID_513_">
		<ellipse id="XMLID_514_" class="st0" cx="-263" cy="445.9" rx="14" ry="9"/>
		<path id="XMLID_516_" class="st1" d="M-263,457.9c-9.5,0-17-5.3-17-12c0-6.7,7.5-12,17-12s17,5.3,17,12S-253.5,457.9-263,457.9z
			 M-263,440c-6.5,0-11,3.1-11,6c0,2.8,4.5,6,11,6s11-3.1,11-6S-256.5,440-263,440z"/>
	</g>
	<g id="XMLID_512_">
		<path id="XMLID_515_" class="st1" d="M-249,447.2c-1.7,0-3-1.3-3-3v-56c0-1.7,1.3-3,3-3s3,1.3,3,3v56
			C-246,445.8-247.4,447.2-249,447.2z"/>
	</g>
</g>
</svg>
