<?xml version="1.0" encoding="utf-8"?>
<!-- Generator: Adobe Illustrator 19.0.0, SVG Export Plug-In . SVG Version: 6.00 Build 0)  -->
<svg version="1.1" id="Layer_1" xmlns="http://www.w3.org/2000/svg" xmlns:xlink="http://www.w3.org/1999/xlink" x="0px" y="0px"
	 viewBox="-167 368.8 260.2 105.1" style="enable-background:new -167 368.8 260.2 105.1;" xml:space="preserve">
<style type="text/css">
	.st0{fill:#FFFFFF;}
	.st1{fill:#61BB87;}
	.st2{fill:none;stroke:#3E3A39;stroke-width:4;stroke-miterlimit:10;}
	.st3{fill:#3C3C3D;}
	.st4{fill:#FFFFFF;stroke:#3E3A39;stroke-width:4;stroke-linecap:round;stroke-linejoin:round;stroke-miterlimit:10;}
</style>
<rect x="-162.8" y="373.7" class="st0" width="254.2" height="94"/>
<g>
	<path id="XMLID_8_" class="st1" d="M58.2,450.5h-175.8c-15.6,0-28.3-12.8-28.3-28.3l0,0c0-18.2,14.9-33.2,33.2-33.2h171
		c15.6,0,28.3,12.8,28.3,28.3v4.8C86.5,437.7,73.8,450.5,58.2,450.5z"/>
	<path id="XMLID_7_" class="st2" d="M43.8,438.9H-132c-15.6,0-28.3-12.8-28.3-28.3l0,0c0-18.2,14.9-33.2,33.2-33.2h171
		c15.6,0,28.3,12.8,28.3,28.3v4.8C72.1,426.2,59.4,438.9,43.8,438.9z"/>
	<g>
		<g>
			<path class="st3" d="M-105.7,417.9c-0.5-0.6-0.8-1.3-0.8-2.1V402c0-0.6,0-1,0.1-1.4s0.1-0.8,0.3-1.2s0.3-0.7,0.6-1s0.6-0.5,1-0.6
				s0.9-0.2,1.6-0.2h5.7c1,0,1.8,0.1,2.6,0.2s1.5,0.3,2.2,0.6s1.3,0.7,1.8,1.2s0.9,1.1,1.1,1.9s0.4,1.7,0.4,2.7c0,2.2-0.7,3.9-2.1,5
				s-3.5,1.7-6.1,1.7h-3.8v5c0,0.8-0.3,1.5-0.8,2.1s-1.2,0.9-1.9,0.9S-105.2,418.5-105.7,417.9z M-98.2,407.5c0.7,0,1.2-0.1,1.7-0.2
				s0.8-0.3,1.2-0.5s0.6-0.6,0.7-1s0.2-1,0.2-1.6c0-1.2-0.3-2-0.8-2.4s-1.5-0.6-2.7-0.6h-3.2v6.4L-98.2,407.5L-98.2,407.5z"/>
			<path class="st3" d="M-85.5,418c-0.5-0.5-0.8-1.3-0.8-2.2v-15.4c0-0.9,0.3-1.6,0.9-2.1s1.4-0.7,2.4-0.7h5.9c0.9,0,1.8,0,2.5,0.1
				s1.5,0.2,2.2,0.5s1.4,0.5,1.8,0.9s0.9,0.9,1.2,1.5s0.5,1.4,0.5,2.3c0,2.8-1.6,4.5-4.7,5v0.1c0.8,0.1,1.4,0.2,1.9,0.4
				s0.9,0.5,1.2,0.9s0.6,0.8,0.7,1.4s0.3,1.2,0.4,2l0.3,1.9c0.2,1.5,0.1,2.6-0.3,3.3s-1.1,1-2.1,1c-0.9,0-1.5-0.3-2-0.8
				s-0.7-1.5-0.8-2.7l-0.2-1.9c-0.1-1.1-0.4-1.9-0.9-2.4s-1.3-0.7-2.5-0.7h-3v5.6c0,1-0.3,1.7-0.8,2.3s-1.2,0.8-1.9,0.8
				C-84.4,418.8-85,418.6-85.5,418z M-78.6,406.7c0.6,0,1.1,0,1.6-0.1s0.9-0.2,1.4-0.4s0.8-0.5,1.1-0.9s0.4-0.9,0.4-1.5
				c0-0.4,0-0.8-0.1-1.1s-0.2-0.6-0.4-0.8s-0.3-0.4-0.6-0.5s-0.5-0.3-0.7-0.3s-0.5-0.1-0.9-0.2s-0.7-0.1-0.9-0.1s-0.6,0-1,0H-81v5.8
				h2.4V406.7z"/>
			<path class="st3" d="M-63.1,416.6c-1.8-1.9-2.6-4.7-2.6-8.4c0-3.7,0.9-6.5,2.6-8.4s4.4-2.8,7.8-2.8c3.4,0,6.1,0.9,7.8,2.8
				s2.6,4.7,2.6,8.4c0,3.7-0.9,6.5-2.6,8.4s-4.4,2.8-7.8,2.8C-58.8,419.4-61.4,418.5-63.1,416.6z M-51.6,413.8
				c0.7-1.1,1.1-2.9,1.1-5.6s-0.4-4.5-1.1-5.6s-2-1.6-3.7-1.6c-1.2,0-2.1,0.2-2.8,0.7s-1.2,1.2-1.5,2.3s-0.5,2.5-0.5,4.3
				c0,2.6,0.4,4.5,1.1,5.6s2,1.6,3.7,1.6C-53.6,415.4-52.3,414.9-51.6,413.8z"/>
			<path class="st3" d="M-40.4,417.9c-0.5-0.6-0.8-1.3-0.8-2.1v-15.4c0-1,0.3-1.7,1-2.2s1.5-0.7,2.5-0.7h9.1c0.5,0,1,0.2,1.3,0.6
				s0.5,0.9,0.5,1.4s-0.2,1-0.5,1.4s-0.8,0.6-1.3,0.6h-7.1v4.5h6.7c0.5,0,1,0.2,1.3,0.6s0.5,0.9,0.5,1.4c0,0.6-0.2,1-0.5,1.4
				s-0.8,0.6-1.3,0.6h-6.7v5.9c0,0.8-0.3,1.5-0.8,2.1s-1.2,0.9-1.9,0.9C-39.2,418.8-39.8,418.5-40.4,417.9z"/>
			<path class="st3" d="M-23.1,417.9c-0.5-0.6-0.8-1.3-0.8-2.2v-15.2c0-0.8,0.3-1.6,0.8-2.2s1.2-0.9,1.9-0.9c0.7,0,1.4,0.3,1.9,0.9
				s0.8,1.3,0.8,2.2v15.2c0,0.8-0.3,1.6-0.8,2.2s-1.2,0.9-1.9,0.9C-22,418.8-22.6,418.5-23.1,417.9z"/>
			<path class="st3" d="M-12.9,418.2c-0.4-0.4-0.7-1-0.9-1.6s-0.2-1.3-0.2-2.1v-13.9c0-0.8,0.3-1.6,0.8-2.2s1.2-0.9,1.9-0.9
				c0.8,0,1.4,0.3,1.9,0.9s0.8,1.3,0.8,2.2v14.2h7.3c0.5,0,1,0.2,1.4,0.6s0.6,0.9,0.6,1.4s-0.2,1-0.6,1.4s-0.8,0.6-1.4,0.6h-10
				C-11.9,418.8-12.5,418.6-12.9,418.2z"/>
			<path class="st3" d="M4.8,418.5c-0.4-0.2-0.6-0.5-0.8-0.9c-0.2-0.4-0.3-0.8-0.4-1.2s-0.1-0.9-0.1-1.3v-13.3c0-0.6,0-1,0.1-1.4
				s0.1-0.8,0.3-1.1c0.2-0.3,0.3-0.7,0.6-0.9s0.6-0.4,1-0.6s0.9-0.2,1.5-0.2h9.4c0.6,0,1,0.2,1.4,0.6s0.6,0.9,0.6,1.4
				s-0.2,1-0.6,1.4s-0.9,0.6-1.4,0.6H8.7v4.6h6.9c0.6,0,1,0.2,1.4,0.6s0.6,0.9,0.6,1.4s-0.2,1-0.6,1.4s-0.9,0.6-1.4,0.6H8.7v4.9h7.9
				c0.5,0,1,0.2,1.3,0.6c0.4,0.4,0.5,0.8,0.5,1.4s-0.2,1-0.5,1.4c-0.4,0.4-0.8,0.6-1.3,0.6H6C5.6,418.8,5.2,418.7,4.8,418.5z"/>
		</g>
	</g>
	<g id="XMLID_3_">
		<polygon id="XMLID_4_" class="st4" points="52.2,426.4 60.6,461.2 68.2,452.8 78.2,465.2 84.6,460 74.6,447.6 84.2,442 		"/>
	</g>
</g>
</svg>
