<?xml version="1.0" encoding="utf-8"?>
<!-- Generator: Adobe Illustrator 19.0.0, SVG Export Plug-In . SVG Version: 6.00 Build 0)  -->
<svg version="1.1" id="Layer_1" xmlns="http://www.w3.org/2000/svg" xmlns:xlink="http://www.w3.org/1999/xlink" x="0px" y="0px"
	 viewBox="-62 292.5 469.3 256.4" style="enable-background:new -62 292.5 469.3 256.4;" xml:space="preserve">
<style type="text/css">
	.st0{opacity:0.53;}
	.st1{fill:#3F3B3A;}
	.st2{fill:#FFFFFF;}
	.st3{fill:#3E3A39;}
</style>
<g id="XMLID_1594_" class="st0">
	<path id="XMLID_25_" class="st1" d="M356.5,339.3h-368c-23.9,0-43.5,19.5-43.5,43.4v77.6c0,23.9,19.6,43.5,43.5,43.5h149.4
		l35.2,40.1l35.2-40.1h148.4c23.9,0,43.5-19.6,43.5-43.5v-77.6C400,358.8,380.4,339.3,356.5,339.3z"/>
</g>
<g id="XMLID_1439_">
	<path id="XMLID_70_" class="st2" d="M356.5,298.3h-368c-23.9,0-43.5,19.5-43.5,43.4v77.6c0,23.9,19.6,43.5,43.5,43.5h149.4
		l35.2,40.1l35.2-40.1h148.4c23.9,0,43.5-19.6,43.5-43.5v-77.6C400,317.8,380.5,298.3,356.5,298.3z"/>
</g>
<g id="XMLID_60_">
	<path id="XMLID_69_" class="st1" d="M356.5,300.3c22.9,0,41.5,18.6,41.5,41.5v77.6c0,22.9-18.6,41.5-41.5,41.5H208.2h-0.9l-0.6,0.7
		L173,499.8l-33.7-38.3l-0.6-0.7h-0.9H-11.5c-22.9,0-41.5-18.6-41.5-41.5v-77.6c0-22.8,18.6-41.4,41.5-41.4H356.5 M356.5,298.3h-368
		c-23.9,0-43.5,19.5-43.5,43.4v77.6c0,23.9,19.6,43.5,43.5,43.5h149.4l35.2,40.1l35.2-40.1h148.4c23.9,0,43.5-19.6,43.5-43.5v-77.6
		C400,317.8,380.4,298.3,356.5,298.3L356.5,298.3z"/>
</g>
<g>
	<path class="st3" d="M1.3,401.4c-1.3-1.5-2-3.3-2-5.4v-35.1c0-1.4,0.1-2.6,0.2-3.6c0.1-1,0.3-2,0.7-3c0.3-1,0.8-1.9,1.5-2.5
		s1.5-1.1,2.6-1.5c1.1-0.4,2.4-0.6,3.9-0.6h14.5c2.4,0,4.6,0.1,6.6,0.4c2,0.3,3.8,0.8,5.7,1.6c1.8,0.8,3.4,1.8,4.6,3
		c1.2,1.2,2.2,2.8,2.9,4.8c0.7,2,1.1,4.3,1.1,6.9c0,5.6-1.8,9.8-5.4,12.6c-3.6,2.8-8.7,4.3-15.4,4.3H13v12.7c0,2.1-0.7,3.9-2,5.4
		c-1.4,1.5-3,2.3-4.9,2.3C4.3,403.6,2.7,402.9,1.3,401.4z M20.4,374.8c1.7,0,3.1-0.2,4.2-0.4c1.1-0.2,2.1-0.7,3-1.3
		c0.9-0.6,1.5-1.5,1.9-2.6c0.4-1.1,0.6-2.5,0.6-4.2c0-3.1-0.7-5.1-2.1-6.2c-1.4-1.1-3.7-1.6-6.8-1.6h-8v16.3H20.4z"/>
	<path class="st3" d="M52.5,401.6c-1.3-1.4-1.9-3.3-1.9-5.7v-39.1c0-2.4,0.8-4.2,2.4-5.4s3.6-1.8,6-1.8h14.9c2.4,0,4.5,0.1,6.4,0.3
		c1.9,0.2,3.8,0.6,5.6,1.2c1.9,0.6,3.4,1.4,4.7,2.4c1.2,1,2.2,2.3,3,3.9c0.8,1.6,1.2,3.6,1.2,5.8c0,7.1-4,11.3-11.9,12.7v0.1
		c2,0.2,3.6,0.6,4.9,1.1s2.3,1.2,3.1,2.2c0.8,1,1.4,2.1,1.9,3.5c0.4,1.3,0.7,3,1,5.2l0.7,4.9c0.4,3.8,0.1,6.6-0.8,8.3
		c-1,1.7-2.8,2.6-5.4,2.6c-2.2,0-3.9-0.7-5-2.2c-1.1-1.4-1.8-3.7-2.1-6.9l-0.6-4.9c-0.3-2.8-1-4.9-2.3-6.1c-1.3-1.3-3.4-1.9-6.3-1.9
		h-7.6v14.3c0,2.5-0.6,4.4-1.9,5.7c-1.3,1.3-2.9,2-4.9,2C55.4,403.6,53.8,403,52.5,401.6z M70.1,372.8c1.5,0,2.9-0.1,4.1-0.3
		c1.2-0.2,2.4-0.5,3.5-1c1.2-0.5,2.1-1.2,2.7-2.2c0.6-1,1-2.3,1-3.8c0-1-0.1-1.9-0.4-2.7c-0.2-0.8-0.5-1.4-0.9-1.9
		c-0.4-0.5-0.9-1-1.5-1.3s-1.2-0.6-1.8-0.8c-0.6-0.2-1.3-0.3-2.2-0.4c-0.9-0.1-1.7-0.2-2.3-0.2c-0.6,0-1.5,0-2.5,0h-5.7v14.8H70.1z"
		/>
	<path class="st3" d="M109.2,398c-4.5-4.7-6.7-11.8-6.7-21.2c0-9.4,2.2-16.5,6.7-21.2c4.5-4.7,11.1-7.1,19.8-7.1
		c8.7,0,15.3,2.4,19.8,7.1c4.5,4.7,6.7,11.8,6.7,21.2c0,9.4-2.2,16.5-6.7,21.2c-4.5,4.7-11.1,7.1-19.8,7.1
		C120.3,405.1,113.7,402.7,109.2,398z M138.5,391c1.9-2.7,2.8-7.5,2.8-14.2c0-6.8-0.9-11.5-2.8-14.3c-1.9-2.7-5-4.1-9.4-4.1
		c-2.9,0-5.3,0.6-7,1.7c-1.7,1.2-3,3.1-3.9,5.8c-0.8,2.7-1.3,6.3-1.3,10.9c0,6.7,0.9,11.4,2.8,14.2c1.9,2.7,5,4.1,9.4,4.1
		C133.5,395.1,136.6,393.7,138.5,391z"/>
	<path class="st3" d="M170.3,403.6c-2.5-0.9-4.5-2.2-6.2-3.9c-1.2-1.2-1.9-2.4-2.1-3.8c0-0.5-0.1-0.9-0.1-1.1c0-1.6,0.5-3,1.5-4.2
		c1-1.2,2.3-1.8,3.8-1.8c1.2,0,2.5,0.5,3.7,1.6c2.1,1.6,4.1,2.3,6.1,2.3c2.5,0,4.3-0.6,5.4-1.8c1.1-1.2,1.7-3.3,1.7-6.3v-27.3
		c0-2.1,0.7-3.9,2-5.4c1.3-1.5,2.9-2.3,4.8-2.3c1.9,0,3.5,0.8,4.9,2.3s2,3.3,2,5.4l0,28.5c0,6.2-1.7,10.9-5.1,14.2
		c-3.4,3.3-8.1,4.9-14.3,4.9C175.5,404.9,172.8,404.5,170.3,403.6z"/>
	<path class="st3" d="M211.9,402.8c-0.9-0.6-1.6-1.3-2.1-2.3c-0.5-1-0.9-2-1.1-3c-0.2-1.1-0.4-2.2-0.4-3.4v-33.7
		c0-1.4,0-2.6,0.1-3.6c0.1-1,0.3-1.9,0.7-2.9c0.3-1,0.8-1.8,1.4-2.4c0.6-0.6,1.4-1.1,2.5-1.4c1.1-0.4,2.3-0.5,3.8-0.5h23.9
		c1.4,0,2.7,0.5,3.7,1.5c1,1,1.5,2.2,1.5,3.6s-0.5,2.6-1.5,3.5c-1,1-2.2,1.4-3.7,1.4h-19.1v11.5h17.5c1.4,0,2.7,0.5,3.7,1.5
		c1,1,1.5,2.2,1.5,3.6s-0.5,2.6-1.5,3.5c-1,1-2.2,1.4-3.7,1.4h-17.5v12.4h20.1c1.3,0,2.5,0.5,3.4,1.4s1.4,2.2,1.4,3.6
		s-0.5,2.6-1.4,3.5c-0.9,1-2.1,1.4-3.4,1.4H215C213.8,403.6,212.8,403.4,211.9,402.8z"/>
	<path class="st3" d="M269.2,403.2c-3.2-1.2-6-3-8.5-5.3c-2.4-2.3-4.3-5.2-5.7-8.8c-1.4-3.6-2.1-7.5-2.1-11.9
		c0-4.5,0.7-8.5,2.1-12.1c1.4-3.6,3.3-6.7,5.8-9.1c2.5-2.4,5.4-4.3,8.7-5.6c3.3-1.3,7-2,10.9-2c3.3,0,6.4,0.4,9.1,1.1
		c1.7,0.5,3.8,1.3,6.1,2.6c0.8,0.5,1.4,1.1,1.9,1.9c0.5,0.7,0.8,1.4,0.9,2.2c0.1,0.7,0.1,1.4,0,2.2c-0.1,0.7-0.4,1.4-0.8,1.9
		c-0.4,0.6-0.9,1-1.5,1.4c-0.6,0.4-1.3,0.6-2.1,0.6c-0.8,0-1.6-0.2-2.5-0.5c-3.8-1.6-7.2-2.4-10.2-2.4c-1.7,0-3.1,0.1-4.4,0.3
		c-1.3,0.2-2.5,0.7-3.8,1.4c-1.3,0.7-2.3,1.7-3.1,3c-0.8,1.3-1.5,3-2,5.1c-0.5,2.2-0.8,4.7-0.8,7.7c0,5.7,1.1,10,3.4,12.9
		c2.3,3,5.7,4.4,10.2,4.4c1.9,0,4-0.3,6.3-0.9c2.3-0.6,4.4-1.4,6.3-2.5c1.1-0.6,2.2-0.5,3.4,0.1c1.2,0.7,2,1.9,2.2,3.4
		c0.3,2.1-0.5,4-2.6,5.6c-4.4,3.4-10,5.1-16.7,5.1C275.9,405.1,272.5,404.4,269.2,403.2z"/>
	<path class="st3" d="M319,401.4c-1.3-1.5-2-3.3-2-5.4v-36.1h-10.2c-1.4,0-2.7-0.5-3.7-1.5c-1.1-1-1.6-2.2-1.6-3.6s0.5-2.6,1.6-3.6
		c1.1-1,2.3-1.5,3.7-1.5h33.9c1.4,0,2.7,0.5,3.7,1.5s1.6,2.2,1.6,3.7c0,1.4-0.5,2.6-1.6,3.6c-1,1-2.3,1.5-3.7,1.5h-10v36.1
		c0,2.1-0.7,3.9-2,5.4c-1.3,1.5-3,2.3-4.8,2.3C322,403.6,320.4,402.9,319,401.4z"/>
</g>
</svg>
