<?xml version="1.0" encoding="utf-8"?>
<!-- Generator: Adobe Illustrator 19.0.0, SVG Export Plug-In . SVG Version: 6.00 Build 0)  -->
<svg version="1.1" id="Layer_1" xmlns="http://www.w3.org/2000/svg" xmlns:xlink="http://www.w3.org/1999/xlink" x="0px" y="0px"
	 viewBox="0 0 539 238" style="enable-background:new 0 0 539 238;" xml:space="preserve">
<style type="text/css">
	.st0{fill:#3F3B3A;}
	.st1{fill:#62BC88;}
	.st2{fill:#FFFFFF;}
</style>
<g id="XMLID_1380_">
	<path id="XMLID_53_" class="st0" d="M517.7,175.2h-15.2c-1.7,0-3-1.3-3-3s1.3-3,3-3h15.2c1.7,0,3,1.3,3,3S519.4,175.2,517.7,175.2z
		"/>
</g>
<g id="XMLID_1379_">
	<path id="XMLID_52_" class="st0" d="M536,175.2h-8.8c-1.7,0-3-1.3-3-3s1.3-3,3-3h8.8c1.7,0,3,1.3,3,3S537.6,175.2,536,175.2z"/>
</g>
<g id="XMLID_1376_">
	<g id="XMLID_1378_">
		<path id="XMLID_51_" class="st0" d="M46.4,231.5c-5.9,0-9.8-1.5-10.2-1.7c-1.5-0.6-2.3-2.4-1.7-3.9c0.6-1.5,2.4-2.3,3.9-1.7
			c0.9,0.3,20.2,7.5,39.3-17.1c0.9-1.1,1.7-2.2,2.6-3.3c19.8-25.6,40.2-52.1,103.4-53.2c1.6,0,3,1.3,3,3c0,1.7-1.3,3-2.9,3
			c-60.2,1-78.9,25.2-98.7,50.8c-0.9,1.1-1.7,2.2-2.6,3.3C69.2,228,55.4,231.5,46.4,231.5z"/>
	</g>
	<g id="XMLID_1377_">
		<path id="XMLID_50_" class="st0" d="M24.8,230.1H4.3c-1.7,0-3-1.3-3-3s1.3-3,3-3h20.6c1.7,0,3,1.3,3,3S26.5,230.1,24.8,230.1z"/>
	</g>
</g>
<g id="XMLID_1373_">
	<path id="XMLID_41_" class="st1" d="M312,63.2c-2.8-5.2-6.2-10.1-10.2-14.6l1.2-8.2c0.7-4.9,3-12.2-1.2-14.9l-17.1-11
		c-4.1-2.7-9.9,2.5-14,5.2l-7,4.5c-5.7-1.7-11.5-2.7-17.5-3.2l-5-6.7c-2.9-3.9-6.5-10.8-11.4-9.7l-19.9,4.3c-4.8,1-5.2,8.8-6.3,13.5
		l-1.8,8.1c-5.2,2.8-10.1,6.2-14.6,10.2l-8.2-1.2c-4.9-0.7-12.2-3-14.9,1.2l-11,17.1c-2.7,4.1,2.5,9.9,5.2,14.1l4.5,7
		c-1.7,5.7-2.8,11.6-3.2,17.5l-6.7,4.9c-3.9,2.9-10.8,6.5-9.8,11.4l4.3,19.9c1,4.8,8.8,5.2,13.5,6.3l8.1,1.8
		c2.8,5.2,6.2,10.1,10.1,14.6l-1.2,8.2c-0.7,4.9-3,12.2,1.2,14.9l17.1,11c4.1,2.7,9.9-2.5,14.1-5.2l7-4.5c5.7,1.7,11.5,2.8,17.5,3.2
		l5,6.7c2.9,3.9,6.5,10.8,11.4,9.8l19.9-4.3c4.8-0.9,5.2-8.7,6.3-13.5l1.8-8.1c5.2-2.8,10.1-6.2,14.6-10.1l8.2,1.2
		c4.9,0.7,12.2,3,14.9-1.2l11-17.1c2.7-4.1-2.5-9.9-5.2-14l-4.5-7c1.7-5.7,2.7-11.5,3.2-17.4L312,63.2z M204.2,127.5
		c-13.6-19.6-8.2-46.8,12-60.9s47.7-9.6,61.3,9.9c13.6,19.6,8.2,46.8-12,60.9S217.8,147.1,204.2,127.5z"/>
	<path id="XMLID_44_" class="st0" d="M250.4,202.3c-5.1,0-8.6-5.2-11.3-9c-0.5-0.7-1-1.4-1.4-2.1l-4.2-5.6
		c-5.2-0.5-10.4-1.4-15.4-2.8l-5.8,3.8c-0.7,0.4-1.4,0.9-2.1,1.4c-4.2,3-10,7-15.2,3.7l-17.1-11c-5.1-3.3-3.9-10.3-2.9-15.4
		c0.2-0.9,0.3-1.7,0.4-2.5l1-6.8c-3.4-4-6.4-8.3-8.9-12.8l-6.8-1.5c-0.8-0.2-1.7-0.3-2.6-0.5c-5.1-0.9-12-2.2-13.3-8.1l-4.3-19.9
		c-1.3-6,4.5-10,8.8-13c0.7-0.5,1.4-1,2.1-1.4l5.6-4.1c0.5-5.2,1.4-10.4,2.8-15.4l-3.8-5.8c-0.4-0.7-0.9-1.4-1.4-2.1
		c-3-4.2-7-10.1-3.7-15.2l11-17.1c3.3-5.1,10.3-3.9,15.4-2.9c0.9,0.2,1.7,0.3,2.5,0.4l6.8,1c4-3.4,8.3-6.4,12.9-9l1.5-6.8
		c0.2-0.8,0.3-1.7,0.5-2.6c0.9-5.1,2.2-12,8.1-13.3l19.9-4.3c6-1.3,10,4.5,13,8.8c0.5,0.7,1,1.4,1.4,2.1l4.2,5.6
		c5.2,0.5,10.4,1.4,15.4,2.8l5.9-3.8c0.7-0.4,1.4-0.9,2.2-1.5c4.2-2.9,10-7,15.1-3.7l17.1,11c5.1,3.3,3.9,10.3,2.9,15.4
		c-0.2,0.9-0.3,1.7-0.4,2.4l-1,6.8c3.7,4.3,6.9,9.1,9.6,14.1l0.2,0.4l9.7,45.2l0,0.4c-0.4,5.7-1.4,11.3-2.9,16.7l3.8,5.9
		c0.4,0.7,0.9,1.4,1.4,2.1c3,4.2,7,10,3.7,15.2l-11,17.1c-3.3,5.1-10.3,3.9-15.4,2.9c-0.9-0.2-1.7-0.3-2.4-0.4l-6.8-1
		c-4,3.4-8.3,6.4-12.9,8.9l-1.5,6.8c-0.2,0.8-0.3,1.7-0.5,2.6c-0.9,5.1-2.2,12-8.1,13.2l-19.9,4.3
		C251.5,202.2,251,202.3,250.4,202.3z M217.2,176.3l1.3,0.4c5.5,1.6,11.1,2.7,16.8,3.1l1.4,0.1l5.8,7.8c0.5,0.7,1,1.4,1.6,2.2
		c1.9,2.7,4.7,6.8,6.7,6.4l19.9-4.3c2-0.4,2.8-5.2,3.4-8.4c0.2-1,0.4-2,0.5-2.8l2.1-9.5l1.2-0.7c5-2.7,9.7-6,14-9.8l1-0.9l9.6,1.4
		c0.8,0.1,1.7,0.3,2.7,0.5c3.4,0.6,8.1,1.5,9.3-0.3l11-17.1c1.1-1.7-1.7-5.8-3.6-8.5c-0.6-0.8-1.1-1.6-1.6-2.3l-5.3-8.2l0.4-1.3
		c1.6-5.3,2.6-10.8,3-16.4l-9.4-43.5c-2.7-4.9-5.9-9.5-9.6-13.7l-0.9-1l1.4-9.6c0.1-0.8,0.3-1.7,0.5-2.7c0.6-3.2,1.5-8.1-0.3-9.3
		l-17.1-11c-1.7-1.1-5.6,1.6-8.4,3.6c-0.8,0.6-1.6,1.1-2.4,1.6l-8.2,5.2l-1.3-0.4c-5.5-1.6-11.1-2.6-16.8-3l-1.4-0.1l-5.8-7.8
		c-0.5-0.7-1-1.4-1.6-2.2c-2-2.9-4.7-6.8-6.7-6.4l-19.9,4.3c-2,0.4-2.9,5.3-3.4,8.5c-0.2,1-0.4,1.9-0.5,2.8l-2.1,9.4l-1.2,0.7
		c-5,2.7-9.7,6-14,9.8l-1,0.9l-9.6-1.4c-0.8-0.1-1.7-0.3-2.7-0.5c-3.2-0.6-8.1-1.5-9.2,0.3l-11,17.1c-1.1,1.7,1.7,5.8,3.6,8.5
		c0.6,0.8,1.1,1.6,1.6,2.3l5.3,8.1l-0.4,1.3c-1.6,5.5-2.6,11.1-3,16.8l-0.1,1.4l-7.8,5.8c-0.7,0.5-1.4,1-2.2,1.6
		c-2.7,1.9-6.8,4.7-6.4,6.7l4.3,19.9c0.4,2,5.3,2.9,8.5,3.4c1,0.2,1.9,0.4,2.8,0.5l9.5,2.1l0.7,1.2c2.7,5,6,9.7,9.7,14l0.9,1
		l-1.4,9.6c-0.1,0.8-0.3,1.7-0.5,2.7c-0.6,3.4-1.5,8.1,0.3,9.2l17.1,11c1.7,1.1,5.6-1.6,8.5-3.6c0.8-0.6,1.6-1.1,2.3-1.6
		L217.2,176.3z M239.5,148.7c-2.5,0-5.1-0.2-7.7-0.6c-12.4-2-23.1-8.7-30.1-18.8c-7.1-10.1-9.6-22.5-7.2-34.8
		c2.4-12.3,9.5-23,19.9-30.3c21.6-15,50.9-10.2,65.4,10.7c7.1,10.1,9.6,22.5,7.2,34.8c-2.4,12.3-9.5,23-19.9,30.3
		C258.9,145.7,249.3,148.7,239.5,148.7z M242.2,61.4c-8.3,0-16.8,2.5-24.3,7.7c-9.1,6.4-15.3,15.8-17.5,26.5
		c-2.1,10.7,0.1,21.4,6.2,30.2c6.1,8.8,15.4,14.6,26.2,16.3c10.8,1.8,21.8-0.8,30.9-7.2s15.3-15.8,17.5-26.5
		c2.1-10.7-0.1-21.4-6.2-30.2C267.4,67.3,255,61.4,242.2,61.4z"/>
</g>
<g id="XMLID_1370_">
	<path id="XMLID_1_" class="st1" d="M410,131.7l-2.3-4.9c1.5-3.5,2.7-7.2,3.4-11l4.7-2.7c2.8-1.6,7.4-3.4,7.1-6.6l-1.2-13.1
		c-0.3-3.2-5.2-4.1-8.2-5.1l-5.1-1.8c-1.4-3.6-3.2-7-5.4-10.1l1.4-5.2c0.8-3.1,2.9-7.6,0.4-9.7l-10.2-8.4c-2.4-2-6.6,0.8-9.4,2.2
		l-4.8,2.3c-3.5-1.5-7.2-2.7-11-3.4l-2.7-4.7c-1.6-2.8-3.4-7.4-6.6-7.1L347,43.7c-3.2,0.3-4,5.3-5.1,8.2l-1.8,5.1
		c-3.6,1.4-7,3.2-10.2,5.4l-5.2-1.4c-3.1-0.8-7.6-2.9-9.7-0.4l-8.4,10.2c-2,2.4,0.9,6.6,2.2,9.4l2.3,4.8c-1.5,3.5-2.7,7.2-3.4,11
		l-4.7,2.7c-2.8,1.6-7.4,3.4-7.1,6.5l1.2,13.1c0.3,3.2,5.2,4.1,8.3,5.1l5.1,1.8c1.4,3.6,3.2,7,5.4,10.2l-1.4,5.2
		c-0.8,3.1-2.9,7.7-0.4,9.7l10.2,8.4c2.4,2,6.6-0.9,9.4-2.2l4.9-2.3c3.5,1.5,7.2,2.7,11,3.4l2.7,4.7c1.6,2.8,3.4,7.4,6.5,7.1
		l13.1-1.2c3.2-0.3,4.1-5.2,5.1-8.3l1.8-5.1c3.6-1.4,7-3.2,10.2-5.4l5.2,1.4c3.1,0.8,7.7,2.9,9.7,0.4l8.4-10.2
		C414.3,138.7,411.4,134.6,410,131.7z M351,133.6c-14.8-4.5-22.9-20.6-18.2-35.9c4.7-15.3,20.5-24,35.2-19.4s22.9,20.6,18.2,35.9
		C381.6,129.4,365.8,138.1,351,133.6z"/>
	<path id="XMLID_36_" class="st0" d="M358.4,172.3c-4.2,0-6.5-4.3-8.1-7.3c-0.3-0.5-0.5-1-0.8-1.4l-2-3.5c-3.1-0.7-6.1-1.6-9-2.8
		l-3.6,1.8c-0.5,0.2-1,0.5-1.5,0.8c-3,1.6-7.6,4-11.2,1.1l-10.2-8.4c-3.6-3-2-8-1-11.3c0.2-0.5,0.3-1.1,0.5-1.5l1.1-3.9
		c-1.7-2.6-3.2-5.4-4.4-8.3l-3.8-1.3c-0.5-0.2-1-0.3-1.5-0.5c-3.3-1-8.3-2.5-8.7-7.2l-1.2-13.1c-0.4-4.6,4.2-7.1,7.2-8.7
		c0.5-0.3,1-0.5,1.4-0.7l3.5-2c0.7-3.1,1.6-6.1,2.8-9l-1.8-3.6c-0.2-0.5-0.5-1-0.8-1.5c-1.6-3-4-7.6-1.1-11.2l8.4-10.2
		c3-3.6,8-2.1,11.3-1c0.5,0.2,1,0.3,1.5,0.5l3.9,1.1c2.6-1.7,5.4-3.2,8.3-4.4l1.3-3.8c0.2-0.5,0.3-1,0.5-1.6c1-3.3,2.5-8.2,7.1-8.7
		l13.1-1.2c4.6-0.4,7.1,4.2,8.7,7.2c0.3,0.5,0.5,1,0.7,1.4l2,3.5c3.1,0.7,6.1,1.6,9,2.8l3.6-1.8c0.5-0.2,1-0.5,1.5-0.8
		c3-1.6,7.6-4,11.2-1.1l10.2,8.4c3.6,3,2.1,8,1,11.3c-0.2,0.5-0.3,1-0.5,1.5l-1.1,3.9c1.7,2.6,3.1,5.4,4.4,8.3l3.8,1.3
		c0.5,0.2,1,0.3,1.5,0.5c3.3,1,8.3,2.5,8.7,7.2l1.2,13.1c0.4,4.6-4.2,7.1-7.2,8.7c-0.5,0.3-1,0.5-1.4,0.7l-3.5,2
		c-0.7,3.1-1.6,6.1-2.8,9l1.8,3.6c0.2,0.5,0.5,1,0.8,1.5c1.6,3,4,7.6,1,11.2l-8.4,10.1c-3,3.6-8,2-11.3,1c-0.5-0.2-1-0.3-1.5-0.5
		l-3.9-1.1c-2.6,1.7-5.4,3.1-8.3,4.4l-1.3,3.8c-0.2,0.5-0.3,1-0.5,1.5c-1,3.3-2.5,8.3-7.2,8.7l-13.1,1.2
		C358.8,172.3,358.6,172.3,358.4,172.3z M338.5,150.9l1.3,0.5c3.3,1.4,6.8,2.5,10.3,3.2l1.4,0.3l3.4,5.8c0.3,0.5,0.6,1,0.9,1.6
		c0.6,1.2,2,3.9,2.8,4l13.1-1.2c0.7-0.3,1.6-3.2,2-4.5c0.2-0.6,0.4-1.2,0.6-1.8l2.2-6.4l1.3-0.5c3.4-1.3,6.6-3,9.6-5.1l1.1-0.8
		l6.5,1.8c0.5,0.1,1.1,0.3,1.7,0.5c1.1,0.4,4.2,1.3,4.9,0.9l8.4-10.2c0.2-0.8-1.1-3.4-1.7-4.5c-0.3-0.6-0.6-1.2-0.9-1.7l-2.9-6.1
		l0.5-1.3c1.4-3.3,2.5-6.8,3.2-10.4l0.3-1.4l5.8-3.4c0.5-0.3,1-0.6,1.6-0.9c1.1-0.6,3.9-2,4.1-2.8l-1.2-13.1c-0.3-0.7-3.2-1.6-4.5-2
		c-0.6-0.2-1.2-0.4-1.8-0.6L406,89l-0.5-1.3c-1.3-3.4-3-6.6-5-9.6l-0.8-1.1l1.8-6.5c0.1-0.5,0.3-1.1,0.5-1.7
		c0.4-1.1,1.3-4.2,0.9-4.8l-10.2-8.4c-0.7-0.3-3.4,1.1-4.5,1.7c-0.6,0.3-1.2,0.6-1.7,0.9l-6.1,2.9l-1.3-0.5
		c-3.3-1.4-6.8-2.5-10.4-3.2l-1.4-0.3l-3.4-5.8c-0.3-0.5-0.6-1-0.8-1.6c-0.6-1.1-2-3.9-2.8-4.1l-13.1,1.2c-0.7,0.3-1.6,3.2-2,4.4
		c-0.2,0.6-0.4,1.3-0.6,1.8l-2.2,6.4l-1.3,0.5c-3.4,1.3-6.6,3-9.6,5.1l-1.1,0.8l-6.5-1.8c-0.5-0.1-1.1-0.3-1.7-0.5
		c-1.1-0.4-4.2-1.3-4.8-0.9l-8.4,10.2c-0.3,0.7,1.1,3.4,1.7,4.5c0.3,0.6,0.6,1.2,0.9,1.7l2.9,6.1l-0.5,1.3
		c-1.4,3.3-2.5,6.8-3.2,10.4l-0.3,1.4l-5.8,3.4c-0.5,0.3-1,0.6-1.6,0.9c-1.1,0.6-3.9,2-4,2.8l1.2,13.1c0.3,0.7,3.3,1.6,4.5,2
		c0.6,0.2,1.2,0.4,1.8,0.6l6.4,2.2l0.5,1.3c1.3,3.4,3,6.6,5.1,9.6l0.8,1.1l-1.8,6.5c-0.1,0.5-0.3,1.1-0.5,1.7
		c-0.4,1.1-1.3,4.2-0.9,4.8l10.2,8.4c0.7,0.3,3.4-1.1,4.5-1.7c0.6-0.3,1.2-0.6,1.7-0.9L338.5,150.9z M359.1,137.8
		c-3,0-6-0.4-8.9-1.3c-16.3-5-25.4-22.8-20.2-39.6c5.2-16.8,22.7-26.4,39-21.4c7.9,2.4,14.4,7.9,18.2,15.4c3.8,7.5,4.5,16.1,2,24.2
		c-2.5,8.1-7.9,14.8-15.3,18.9C369.2,136.5,364.2,137.8,359.1,137.8z M360.1,80.1c-10.8,0-20.9,7.3-24.4,18.5
		c-4.2,13.7,3.1,28.1,16.2,32.1l0,0c6.4,2,13.1,1.2,19.1-2c6-3.3,10.4-8.8,12.4-15.4c2-6.6,1.5-13.6-1.6-19.7
		c-3.1-6-8.3-10.4-14.6-12.4C364.8,80.4,362.4,80.1,360.1,80.1z"/>
</g>
<g id="XMLID_1341_">
	<g id="XMLID_1350_">
		<path id="XMLID_31_" class="st0" d="M169.8,146.1c-1,0-2-0.6-2.6-1.5c-0.2-0.4-0.4-0.8-0.7-1.1l-6.8-1.5c-0.8-0.2-1.7-0.3-2.6-0.5
			c-5.1-0.9-12-2.2-13.3-8.1l-1.3-6c-0.4-1.6,0.7-3.2,2.3-3.6l51.8-11.7c1.6-0.4,3.1,0.6,3.5,2.1c1.2,4.2,3,8.1,5.5,11.7
			c1.5,2.2,3.3,4.2,5.2,6.1c0.8,0.8,1.1,1.9,0.8,3c-0.3,1.1-1.2,1.9-2.2,2.1l-39.1,8.8C170.3,146.1,170,146.1,169.8,146.1z
			 M149.2,129.1l0.7,3.1c0,0,0,0,0,0c0.4,2,5.3,2.9,8.4,3.4c1,0.2,1.9,0.4,2.8,0.5l8.1,1.8c0.9,0.2,1.6,0.7,2,1.5
			c0,0.1,0.1,0.2,0.2,0.3l31.9-7.2c-0.8-1-1.6-2-2.3-3c-2.3-3.3-4.2-6.9-5.5-10.8L149.2,129.1z"/>
	</g>
	<g id="XMLID_1349_">
		<path id="XMLID_28_" class="st0" d="M177.5,166.8c-0.8,0-1.5-0.3-2-0.8c-0.7-0.7-1.1-1.7-0.9-2.7c0,0,0-0.1,0-0.1l1-6.9
			c-3.1-3.6-5.9-7.6-8.3-11.7c-0.5-0.8-0.5-1.8-0.2-2.7c0.4-0.9,1.2-1.5,2.1-1.7l39.1-8.8c1-0.2,2,0.1,2.7,0.7
			c9.6,9.1,23.3,12.8,36.6,9.8c1.6-0.4,3.2,0.7,3.6,2.3l0.7,2.9c0.2,0.8,0,1.6-0.4,2.3c-0.4,0.7-1.1,1.1-1.9,1.3l-71.5,16.1
			C177.9,166.8,177.7,166.8,177.5,166.8z M174.6,145.1c1.9,2.9,4,5.7,6.3,8.3c0.6,0.7,0.8,1.5,0.7,2.4l-0.6,4.1l51-11.5
			c-8.9-1.2-17.2-5-24-10.9L174.6,145.1z"/>
	</g>
	<g id="XMLID_1348_">
		<path id="XMLID_24_" class="st0" d="M249.6,202.5c-5.1,0-8.6-5.2-11.3-9c-0.5-0.7-1-1.4-1.4-2.1l-4.2-5.6
			c-5.2-0.5-10.4-1.4-15.4-2.8l-5.8,3.8c-0.7,0.4-1.4,0.9-2.1,1.4c-4.2,3-10,7-15.2,3.7c0,0,0,0,0,0l-9.3-6c-1-0.7-1.5-1.9-1.3-3
			c0.2-1.2,1.1-2.1,2.3-2.4l67.1-15.1c1.6-0.4,3.2,0.7,3.6,2.3l6.5,28.9c0.2,0.8,0,1.6-0.4,2.3s-1.1,1.1-1.9,1.3l-9.5,2.1
			C250.7,202.5,250.1,202.5,249.6,202.5z M223.2,178.3c3.7,0.8,7.5,1.4,11.3,1.6c0.9,0.1,1.7,0.5,2.2,1.2l5,6.7
			c0.5,0.7,1,1.4,1.6,2.2c1.9,2.7,4.7,6.8,6.7,6.4l6.6-1.4l-5.2-23L223.2,178.3z M197.4,187c1.7,1.1,5.7-1.6,8.5-3.6
			c0.8-0.6,1.6-1.1,2.3-1.6l0.2-0.1l-14.3,3.2L197.4,187z"/>
	</g>
	<g id="XMLID_1347_">
		<path id="XMLID_21_" class="st0" d="M186.5,186.5c-0.6,0-1.1-0.2-1.6-0.5l-7.8-5c-5.1-3.3-3.9-10.3-2.9-15.4
			c0.1-0.8,0.3-1.5,0.4-2.3c0.2-1.2,1.1-2.2,2.3-2.5l71.5-16.1c0.8-0.2,1.6,0,2.3,0.4c0.7,0.4,1.1,1.1,1.3,1.9l4.7,20.7
			c0.4,1.6-0.7,3.2-2.3,3.6l-67.1,15.1C186.9,186.5,186.7,186.5,186.5,186.5z M180.1,166.3c0,0.1,0,0.3-0.1,0.4
			c-0.6,3.4-1.5,8.1,0.3,9.2c0,0,0,0,0,0l6.8,4.4l63-14.2l-3.3-14.8L180.1,166.3z"/>
	</g>
	<g id="XMLID_1346_">
		<path id="XMLID_18_" class="st0" d="M145.6,129.8c-0.6,0-1.1-0.2-1.6-0.5c-0.7-0.4-1.1-1.1-1.3-1.9l-3-14c-1.3-6,4.6-10,8.1-12.5
			c0.3-0.2,0.7-0.4,1-0.5l47.8-10.8c1-0.2,2.1,0.1,2.8,0.8c0.7,0.8,1,1.8,0.8,2.8c-1.8,6.9-1.7,14.1,0.2,20.9
			c0.2,0.8,0.1,1.6-0.3,2.3c-0.4,0.7-1.1,1.2-1.9,1.4l-51.8,11.7C146,129.8,145.8,129.8,145.6,129.8z M150.7,106.3
			c-2.2,1.5-5.6,4-5.2,5.9c0,0,0,0,0,0l2.4,11l45.9-10.3c-1.1-5.3-1.2-10.8-0.4-16.2L150.7,106.3z"/>
	</g>
	<g id="XMLID_1345_">
		<path id="XMLID_15_" class="st0" d="M152.1,61.7c-0.9,0-1.7-0.4-2.3-1.1c-0.7-0.9-0.9-2.1-0.5-3.1c0.1-0.3,0.3-0.7,0.6-1.1
			l11-17.1c3.3-5.1,10.3-3.9,15.4-2.9c0.9,0.2,1.7,0.3,2.5,0.4l6.8,1c4-3.4,8.3-6.4,12.9-9l0.8-3.8c0.2-1.1,1.1-2,2.3-2.3l18.3-4.1
			c1.6-0.4,3.2,0.7,3.6,2.3l4.7,20.7c0.2,0.8,0,1.6-0.4,2.3s-1.1,1.1-1.9,1.3l-73.1,16.5C152.5,61.7,152.3,61.7,152.1,61.7z
			 M169.2,41.5c-1.5,0-2.7,0.3-3.2,1l-7.5,11.6L221.7,40l-3.3-14.8l-13.5,3l-0.7,3.2c-0.2,0.9-0.7,1.6-1.5,2c-5,2.7-9.7,6-14,9.8
			c-0.7,0.6-1.5,0.8-2.4,0.7l-8.2-1.2c-0.8-0.1-1.7-0.3-2.7-0.5C173.4,41.9,171.1,41.5,169.2,41.5z"/>
	</g>
	<g id="XMLID_1344_">
		<path id="XMLID_12_" class="st0" d="M149.4,106.5c-1.2,0-2.3-0.7-2.7-1.8c-0.6-1.3-0.1-2.9,1-3.7l0.7-0.5c0.7-0.5,1.5-1,2.1-1.5
			l5.6-4.1c0.5-5.4,1.5-10.8,3-16c0-0.4,0.1-0.8,0.2-1.2c0.4-0.9,1.2-1.6,2.1-1.8l53.1-12c1.4-0.3,2.8,0.4,3.4,1.7
			c0.6,1.3,0.2,2.8-1,3.7c-8.3,5.8-14.3,14.4-16.8,24.1c-0.3,1.1-1.1,1.9-2.2,2.2l-47.8,10.8C149.9,106.5,149.7,106.5,149.4,106.5z
			 M164.6,81.4c-1.4,5-2.3,10.2-2.6,15.3c0,0.3-0.1,0.6-0.2,0.9l33.1-7.4c2-6.6,5.4-12.6,9.9-17.8L164.6,81.4z"/>
	</g>
	<g id="XMLID_1343_">
		<path id="XMLID_9_" class="st0" d="M162.1,81.9c-1,0-2-0.5-2.5-1.4l-4.4-6.8c-0.4-0.7-0.9-1.4-1.4-2.1c-2.9-4.1-6.4-9.2-4.3-14.1
			c0.4-0.9,1.2-1.5,2.1-1.7l73.1-16.5c1.6-0.4,3.2,0.7,3.6,2.3l4.1,18c0.4,1.6-0.6,3.1-2.1,3.5c-4.6,1.3-9,3.4-13,6.1
			c0,0-0.1,0.1-0.1,0.1c-0.3,0.2-0.7,0.4-1.1,0.5l-53.1,12C162.5,81.9,162.3,81.9,162.1,81.9z M154.8,61.2c0.3,2,2.4,4.9,3.8,7
			c0.6,0.8,1.1,1.6,1.6,2.3l3.3,5.1l50.5-11.4c3.7-2.5,7.6-4.5,11.8-5.9L223,45.8L154.8,61.2z"/>
	</g>
	<g id="XMLID_1342_">
		<path id="XMLID_6_" class="st0" d="M202.3,28.7c-0.8,0-1.5-0.3-2.1-0.9c-0.7-0.7-1-1.8-0.8-2.8l0.7-3c0.2-0.8,0.3-1.7,0.5-2.6
			c0.9-5.1,2.2-12,8.1-13.3l8.2-1.8c1.6-0.4,3.2,0.7,3.6,2.3l3.2,14.2c0.2,0.8,0,1.6-0.4,2.3s-1.1,1.1-1.9,1.3l-18.3,4.1
			C202.7,28.7,202.5,28.7,202.3,28.7z M215.1,10.9l-5.3,1.2c-2,0.4-2.9,5.3-3.4,8.5c-0.1,0.4-0.1,0.8-0.2,1.2l10.8-2.4L215.1,10.9z"
			/>
	</g>
</g>
<g id="XMLID_923_">
	<path id="XMLID_49_" class="st2" d="M439.8,168.9c-32.6-9.2-26.6-40.2-71.6-39.6c-45,0.6-56.7,28.8-56.7,28.8
		c-20.9-15.5-39.3,0.6-39.3,0.6l-1.2,1.5c-52.3-1.6-76.6,22.4-98.6,49.2c-23.1,28.2-47.5,23.4-47.5,23.4l73.9,2.2L495,238l-3.9-64.3
		C491.1,173.7,472.4,178.1,439.8,168.9z"/>
</g>
<g id="XMLID_918_">
	<path id="XMLID_5_" class="st0" d="M130.1,235.1c-2.9,0-4.7-0.3-4.9-0.4c-1.6-0.3-2.7-1.9-2.4-3.5c0.3-1.6,1.9-2.7,3.5-2.4l0,0
		c0.9,0.2,23,3.9,44.6-22.4c23.7-28.9,49.9-54.4,109.3-49.9c51.4,3.9,78.2,33.9,84.9,42.5c7.4-3.8,30.4-13.8,52.5-2.6
		c10.5,5.3,16.6,11.3,22,16.6c7.8,7.6,13.9,13.7,30.5,15.1c1.7,0.1,2.9,1.6,2.7,3.2c-0.1,1.7-1.6,2.9-3.2,2.7
		c-18.7-1.6-26.2-9-34.2-16.8c-5.3-5.2-10.9-10.7-20.5-15.5c-23.3-11.8-48.8,3.5-49,3.7c-1.4,0.8-3.2,0.4-4.1-0.9
		c-0.3-0.4-26.3-37.8-82-42.1c-56.6-4.3-81.6,20.1-104.2,47.7C157.6,232.2,138.8,235.1,130.1,235.1z"/>
</g>
<g id="XMLID_917_">
	<path id="XMLID_4_" class="st0" d="M479.1,176.6c-9,0-22.2-1.2-39.2-6c-14.7-4.1-21.9-12.3-28.9-20.3c-8.7-9.9-17-19.2-40.6-19.2
		c-0.4,0-0.9,0-1.3,0c-42.5,0.6-53.9,26.7-54,27c-0.4,0.9-1.1,1.5-2,1.7c-0.9,0.2-1.8,0.1-2.6-0.5c-18.8-13.9-34.8-0.1-35.5,0.5
		c-1.2,1.1-3.1,1-4.2-0.3c-1.1-1.2-1-3.1,0.3-4.2c0.2-0.2,18.8-16.1,40.2-2.7c4.7-7.8,20-26.9,57.8-27.5c0.5,0,0.9,0,1.4,0
		c26.3,0,35.8,10.8,45.1,21.3c6.7,7.6,13.1,14.8,26,18.5c31.3,8.8,49.7,4.8,49.8,4.7c1.6-0.4,3.2,0.6,3.6,2.2
		c0.4,1.6-0.6,3.2-2.2,3.6C492.4,175.6,487.6,176.6,479.1,176.6z"/>
</g>
<g id="XMLID_916_">
	<path id="XMLID_3_" class="st0" d="M498.7,236.8h-15.2c-1.7,0-3-1.3-3-3s1.3-3,3-3h15.2c1.7,0,3,1.3,3,3S500.4,236.8,498.7,236.8z"
		/>
</g>
<g id="XMLID_915_">
	<path id="XMLID_2_" class="st0" d="M116.6,236.8h-15.2c-1.7,0-3-1.3-3-3s1.3-3,3-3h15.2c1.7,0,3,1.3,3,3S118.2,236.8,116.6,236.8z"
		/>
</g>
</svg>
