<?xml version="1.0" encoding="utf-8"?>
<!-- Generator: Adobe Illustrator 19.0.0, SVG Export Plug-In . SVG Version: 6.00 Build 0)  -->
<svg version="1.1" id="Layer_1" xmlns="http://www.w3.org/2000/svg" xmlns:xlink="http://www.w3.org/1999/xlink" x="0px" y="0px"
	 viewBox="0 0 1658.5 740.4" style="enable-background:new 0 0 1658.5 740.4;" xml:space="preserve">
<style type="text/css">
	.st0{opacity:0.53;fill:#3F3B3A;}
	.st1{fill:#FFFFFF;}
	.st2{fill:#3F3B3A;}
	.st3{fill:none;stroke:#3F3B3A;stroke-width:6;stroke-linecap:round;stroke-linejoin:round;stroke-miterlimit:10;}
</style>
<g id="XMLID_63_">
	<path id="XMLID_1593_" class="st0" d="M463.5,109.8c0-23.9-19.6-43.5-43.5-43.5H62.4c-23.9,0-43.5,19.6-43.5,43.5v351.1
		c0,23.9,19.6,43.5,43.5,43.5H420c23.9,0,43.5-19.6,43.5-43.5V109.8z"/>
	<path id="XMLID_1592_" class="st0" d="M1639.6,226.1c0-23.9-19.6-43.5-43.5-43.5h-437.6c-23.9,0-43.5,19.6-43.5,43.5v461.1
		c0,23.9,19.6,43.5,43.5,43.5h437.6c23.9,0,43.5-19.6,43.5-43.5V226.1z"/>
	<g id="XMLID_1579_">
		<path id="XMLID_109_" class="st1" d="M62.4,447.2c-23.7,0-43-19.3-43-43V53.2c0-23.7,19.3-43,43-43H420c23.7,0,43,19.3,43,43v72.6
			l39.8,34.9L463,195.7v208.6c0,23.7-19.3,43-43,43H62.4z"/>
		<path id="XMLID_106_" class="st2" d="M420,10.7c23.4,0,42.5,19,42.5,42.5v72.4v0.5l0.3,0.3l39.2,34.4l-39.2,34.4l-0.3,0.3v0.5
			v208.4c0,23.4-19,42.5-42.5,42.5H62.4c-23.4,0-42.5-19-42.5-42.5V53.2c0-23.4,19-42.5,42.5-42.5H420 M420,9.7H62.4
			C38.5,9.7,19,29.3,19,53.2v351.1c0,23.9,19.6,43.5,43.5,43.5H420c23.9,0,43.5-19.6,43.5-43.5V195.9l40.1-35.2l-40.1-35.2V53.2
			C463.5,29.3,443.9,9.7,420,9.7L420,9.7z"/>
	</g>
	<g id="XMLID_1573_">
		<path id="XMLID_113_" class="st1" d="M1158.5,674.7c-23.7,0-43-19.3-43-43V195.7l-39.8-34.9l39.8-34.9V53.2c0-23.7,19.3-43,43-43
			h437.6c23.7,0,43,19.3,43,43v578.6c0,23.7-19.3,43-43,43H1158.5z"/>
		<path id="XMLID_110_" class="st2" d="M1596.1,10.7c23.4,0,42.5,19,42.5,42.5v578.6c0,23.4-19,42.5-42.5,42.5h-437.6
			c-23.4,0-42.5-19-42.5-42.5V195.9v-0.5l-0.3-0.3l-39.2-34.4l39.2-34.4l0.3-0.3v-0.5V53.2c0-23.4,19-42.5,42.5-42.5H1596.1
			 M1596.1,9.7h-437.6c-23.9,0-43.5,19.6-43.5,43.5v72.4l-40.1,35.2l40.1,35.2v435.9c0,23.9,19.6,43.5,43.5,43.5h437.6
			c23.9,0,43.5-19.6,43.5-43.5V53.2C1639.6,29.3,1620,9.7,1596.1,9.7L1596.1,9.7z"/>
	</g>
	<line id="XMLID_1490_" class="st3" x1="1078.1" y1="160.4" x2="501.1" y2="160.4"/>
	<line id="XMLID_1446_" class="st3" x1="443.8" y1="246" x2="471.8" y2="246"/>
	<line id="XMLID_1445_" class="st3" x1="443.8" y1="231.3" x2="471.8" y2="231.3"/>
</g>
</svg>
