<?xml version="1.0" encoding="utf-8"?>
<!-- Generator: Adobe Illustrator 19.0.0, SVG Export Plug-In . SVG Version: 6.00 Build 0)  -->
<svg version="1.1" id="Layer_1" xmlns="http://www.w3.org/2000/svg" xmlns:xlink="http://www.w3.org/1999/xlink" x="0px" y="0px"
	 viewBox="519 53.6 1634.2 734.3" style="enable-background:new 519 53.6 1634.2 734.3;" xml:space="preserve">
<style type="text/css">
	.st0{opacity:0.53;fill:#3F3B3A;enable-background:new    ;}
	.st1{fill:#FFFFFF;stroke:#000000;stroke-width:0.5;stroke-miterlimit:10;}
	.st2{fill:#FFFFFF;stroke:#3F3B3A;stroke-width:0.5;stroke-miterlimit:10;}
	.st3{fill:none;stroke:#3F3B3A;stroke-width:6;stroke-linecap:round;stroke-linejoin:round;stroke-miterlimit:10;}
	.st4{fill:#61B584;}
	.st5{fill:#3F3B3A;}
	.st6{fill:none;stroke:#5FAE80;stroke-miterlimit:10;}
	.st7{fill:#FFFFFF;stroke:#3F3B3A;stroke-width:6;stroke-miterlimit:10;}
	.st8{fill:#61B584;stroke:#3F3B3A;stroke-width:6;stroke-miterlimit:10;}
	.st9{enable-background:new    ;}
	.st10{fill:#3D3D3D;}
	.st11{fill:#FFFFFF;stroke:#040000;stroke-width:6;stroke-miterlimit:10;}
	.st12{opacity:0.53;}
	.st13{fill:none;stroke:#3F3B3A;stroke-width:6;stroke-linecap:round;stroke-miterlimit:10;}
	.st14{fill:#FFFFFF;stroke:#3F3B3A;stroke-width:6;stroke-linecap:round;stroke-linejoin:round;stroke-miterlimit:10;}
	.st15{fill:#62BC88;}
	.st16{fill:#FFFFFF;}
	.st17{fill:#3E3A39;}
</style>
<g>
	<path id="XMLID_1593_" class="st0" d="M970.7,160.1c0-23.9-19.6-43.5-43.5-43.5H568.9c-23.9,0.1-43.5,19.6-43.5,43.5v351.1
		c0,23.9,19.6,43.5,43.5,43.5h358.3c23.9,0,43.5-19.6,43.5-43.5V160.1L970.7,160.1z"/>
	<path id="XMLID_1592_" class="st0" d="M2146.8,276.4c0-23.9-19.6-43.5-43.5-43.5h-437.6c-23.9,0-43.5,19.6-43.5,43.5v461.1
		c0,23.9,19.6,43.5,43.5,43.5h437.6c23.9,0,43.5-19.6,43.5-43.5V276.4z"/>
	<path id="XMLID_35_" class="st1" d="M569.7,497.5c-23.7,0-43-19.3-43-43V103.4c0-23.7,19.3-43,43-43h357.6c23.7,0,43,19.3,43,43
		V176l39.8,34.9l-39.8,34.9v208.6c0,23.7-19.3,43-43,43L569.7,497.5L569.7,497.5z"/>
	<path id="XMLID_104_" class="st2" d="M1665.7,725c-23.7,0-43-19.3-43-43V245.9l-39.8-34.9l39.8-34.9v-72.7c0-23.7,19.3-43,43-43
		h437.6c23.7,0,43,19.3,43,43V682c0,23.7-19.3,43-43,43H1665.7L1665.7,725z"/>
	<line id="XMLID_1490_" class="st3" x1="1296.8" y1="210.7" x2="1008.3" y2="210.7"/>
	<line id="XMLID_324_" class="st3" x1="1581.8" y1="210.7" x2="1293.3" y2="210.7"/>
	<line id="XMLID_1446_" class="st3" x1="951" y1="296.2" x2="979" y2="296.2"/>
	<line id="XMLID_1445_" class="st3" x1="951" y1="281.6" x2="979" y2="281.6"/>
	<path id="XMLID_1334_" class="st4" d="M631.3,143.2c-0.4,0-0.7-0.1-1-0.4c-0.6-0.6-0.6-1.5,0-2.1l4.4-4.4c0.6-0.6,1.5-0.6,2.1,0
		s0.6,1.5,0,2.1l-4.4,4.4C632.1,143.1,631.8,143.2,631.3,143.2z"/>
	<path id="XMLID_1333_" class="st4" d="M643.2,156.5H637c-0.9,0-1.5-0.6-1.5-1.5s0.6-1.5,1.5-1.5h6.2c0.9,0,1.5,0.6,1.5,1.5
		C644.6,155.9,643.9,156.5,643.2,156.5z"/>
	<path id="XMLID_1332_" class="st4" d="M635.8,174.3c-0.4,0-0.7-0.1-1-0.4l-4.4-4.4c-0.6-0.6-0.6-1.5,0-2.1s1.5-0.6,2.1,0l4.4,4.4
		c0.6,0.6,0.6,1.5,0,2.1C636.5,174.1,636.2,174.3,635.8,174.3z"/>
	<path id="XMLID_1331_" class="st4" d="M618,137.7c-0.9,0-1.5-0.6-1.5-1.5v-6.4c0-0.9,0.6-1.5,1.5-1.5s1.5,0.6,1.5,1.5v6.2
		C619.5,137,618.9,137.7,618,137.7z"/>
	<path id="XMLID_1330_" class="st4" d="M604.7,143.2c-0.4,0-0.7-0.1-1-0.4l-4.5-4.5c-0.6-0.6-0.6-1.5,0-2.1s1.5-0.6,2.1,0l4.4,4.4
		c0.6,0.6,0.6,1.5,0,2.1C605.4,143.1,605.1,143.2,604.7,143.2z"/>
	<path id="XMLID_1329_" class="st0" d="M627.9,164.9L619,156c-0.6-0.6-1.5-0.6-2.1,0l-10.4,10.4l-28.1,28.1c-0.6,0.6-0.6,1.5,0,2.1
		l8.9,8.9c0.3,0.3,0.7,0.4,1,0.4s0.7-0.1,1-0.4l28.3-28.2l10.4-10.4C628.5,166.4,628.5,165.5,627.9,164.9z"/>
	<path id="XMLID_1328_" class="st5" d="M879,203.9H675.9c-4.2,0-7.6-3.4-7.6-7.6l0,0c0-4.2,3.4-7.6,7.6-7.6H879
		c4.2,0,7.6,3.4,7.6,7.6l0,0C886.6,200.5,883.2,203.9,879,203.9z"/>
	<path id="XMLID_1_" class="st6" d="M675.9,196.3h185.9"/>
	<path id="XMLID_1322_" class="st5" d="M879,306.4H675.9c-4.2,0-7.6-3.4-7.6-7.6l0,0c0-4.2,3.4-7.6,7.6-7.6H879
		c4.2,0,7.6,3.4,7.6,7.6l0,0C886.6,303,883.2,306.4,879,306.4z"/>
	<path id="XMLID_1318_" class="st5" d="M879,404.9H675.9c-4.2,0-7.6-3.4-7.6-7.6l0,0c0-4.2,3.4-7.6,7.6-7.6H879
		c4.2,0,7.6,3.4,7.6,7.6l0,0C886.6,401.5,883.2,404.9,879,404.9z"/>
	<circle id="XMLID_1314_" class="st4" cx="588.9" cy="296.8" r="12.4"/>
	<path id="XMLID_1313_" class="st0" d="M643.9,271.4l-18.8-18.8c-0.4-0.4-1.1-0.4-1.5,0l-5,5c-0.4,0.4-0.4,1.1,0,1.5l1.6,1.6
		l-17.3,7.1c-0.3,0.1-0.7,0.4-0.7,0.9l-4.4,28.8c0,0,0,0,0,0.1c0,0.2,0,0.4,0.1,0.5s0.1,0.3,0.2,0.4c0.2,0.2,0.4,0.3,0.8,0.3
		c0,0,0.1,0,0.2,0l28.8-4.4c0.3-0.1,0.7-0.3,0.9-0.7l7.1-17.3l1.5,1.5c0.2,0.2,0.6,0.3,0.8,0.3s0.6-0.1,0.8-0.3l5-5
		C644.4,272.5,644.4,271.8,643.9,271.4z"/>
	<path id="XMLID_1303_" class="st7" d="M578.5,183.6c-0.6,0.6-0.6,1.5,0,2.1l8.9,8.9c0.3,0.3,0.7,0.4,1,0.4s0.7-0.1,1-0.4l28.1-28.1
		l-10.9-10.9L578.5,183.6z"/>
	<path id="XMLID_1302_" class="st8" d="M627.9,154l-8.9-8.9c-0.6-0.6-1.5-0.6-2.1,0l-10.4,10.4l10.9,10.9l10.4-10.4
		C628.5,155.5,628.5,154.6,627.9,154z"/>
	<g id="XMLID_1298_">
		<path id="XMLID_1301_" class="st7" d="M633.5,263.6l-13.3-13.3c-0.3-0.3-0.8-0.4-1.2-0.2l-18.8,7.7c-0.3,0.1-0.7,0.4-0.7,0.9
			l-4.4,28.8c0,0.3,0.1,0.7,0.3,1c0.2,0.2,0.4,0.3,0.8,0.3c0,0,0.1,0,0.2,0l28.8-4.4c0.3-0.1,0.7-0.3,0.9-0.7l7.7-18.8
			C634,264.4,633.8,263.9,633.5,263.6z"/>
		<path id="XMLID_1300_" class="st8" d="M641.3,261.4l-18.8-18.8c-0.4-0.4-1.1-0.4-1.5,0l-5,5c-0.4,0.4-0.4,1.1,0,1.5l18.8,18.8
			c0.2,0.2,0.6,0.3,0.8,0.3s0.6-0.1,0.8-0.3l5-5C641.7,262.5,641.7,261.8,641.3,261.4z"/>
		<path id="XMLID_1299_" class="st5" d="M614.8,269c-1.8-1.8-4.5-1.8-6.3,0c-1.4,1.4-1.7,3.7-0.7,5.3l-12.4,12.5
			c-0.4,0.4-0.4,1.1,0,1.5c0.2,0.2,0.6,0.3,0.8,0.3s0.6-0.1,0.8-0.3l12.5-12.5c1.7,1,3.9,0.8,5.4-0.7
			C616.6,273.6,616.6,270.7,614.8,269z"/>
	</g>
	<path id="XMLID_1312_" class="st0" d="M1781.1,164.5c-0.9-0.9-2.1-1.3-3.3-1.2l-29.9,3.7c-0.9,0.1-1.7,0.5-2.4,1.2l-10.7,10.7
		l-0.1,0.1l-19.4-1.3c-1.1,0-2,0.3-2.8,0.9l-23.9,20.1c-1.1,0.9-1.6,2.4-1.3,3.8c0.3,1.5,1.3,2.5,2.8,3l14,4.2l14.4-14.5l-8.1,8.1
		l0,0l-6.3,6.4l0,0l-0.4,0.4l-3.2,3.2c-0.8,0.8-1.2,1.7-1.2,2.8c0,0.8,0.3,1.6,0.7,2.2l-11.4,6.2c-1.1,0.7-1.9,1.7-2,2.9
		c-0.1,1.2,0.3,2.5,1.1,3.3l27.1,27.1c0.8,0.8,1.7,1.2,2.8,1.2c0.1,0,0.4,0,0.5,0c1.2-0.1,2.4-0.9,2.9-2l6.2-11.4
		c0.1,0.1,0.2,0.1,0.3,0.2c0.6,0.3,1.3,0.5,1.9,0.5c1.1,0,2-0.4,2.8-1.2l3.6-3.6l0,0l4.2,14c0.5,2,1.6,2.4,3,2.8
		c0.3,0,0.5,0.1,0.8,0.1c1.2,0,2.2-0.5,3-1.5l20.1-23.9c0.7-0.8,1.1-1.9,0.9-2.9l-1.5-19.3l11-11c0.7-0.7,1.1-1.5,1.2-2.4l3.6-30
		C1782.4,166.5,1782,165.3,1781.1,164.5z"/>
	<g class="st9">
		<path class="st10" d="M1836.5,195.7c1.2,0,2.2,0.1,3,0.4c0.8,0.3,1.5,0.7,2.1,1.2c0.6,0.5,1,1.1,1.3,1.8s0.4,1.4,0.4,2.1v0.3
			c0,1.2-0.2,2.2-0.7,3.2s-1.2,2-2.3,3.1l-7,7.4h9.9c0.4,0,0.6,0.1,0.8,0.4c0.2,0.3,0.3,0.6,0.3,0.9s-0.1,0.6-0.3,0.9
			c-0.2,0.3-0.4,0.4-0.8,0.4h-11.7c-0.8,0-1.4-0.1-1.7-0.4c-0.3-0.3-0.5-0.7-0.5-1.3c0-0.3,0.1-0.5,0.2-0.8c0.1-0.2,0.4-0.5,0.7-0.9
			l7.4-7.9c0.5-0.6,1-1.1,1.3-1.5s0.6-0.8,0.8-1.2c0.2-0.4,0.3-0.8,0.4-1.1c0.1-0.4,0.1-0.8,0.1-1.2v-0.2c0-0.9-0.3-1.6-0.9-2.1
			c-0.6-0.5-1.5-0.8-2.8-0.8c-1,0-1.9,0.2-2.6,0.6c-0.7,0.4-1.3,1-1.9,1.8c-0.2,0.3-0.5,0.5-0.8,0.5s-0.7,0-1-0.3
			c-0.3-0.2-0.5-0.5-0.6-0.9c-0.1-0.3,0-0.7,0.2-1c0.7-1,1.5-1.9,2.6-2.5C1833.6,196,1834.9,195.7,1836.5,195.7z"/>
		<path class="st10" d="M1855.2,195.7c2.7,0,4.7,0.9,6,2.7c1.2,1.8,1.8,4.4,1.8,7.7v1.5c0,3.4-0.6,6-1.8,7.7c-1.2,1.8-3.2,2.7-6,2.7
			c-2.7,0-4.7-0.9-6-2.7c-1.2-1.8-1.8-4.4-1.8-7.7v-1.5c0-3.4,0.6-6,1.8-7.7C1850.5,196.6,1852.5,195.7,1855.2,195.7z M1855.2,198.5
			c-0.9,0-1.6,0.2-2.3,0.5c-0.7,0.3-1.1,0.8-1.5,1.4c-0.4,0.6-0.6,1.4-0.8,2.4s-0.2,2.1-0.2,3.5v1c0,1.4,0.1,2.5,0.2,3.5
			c0.2,1,0.4,1.8,0.8,2.4c0.4,0.6,0.9,1.1,1.5,1.4c0.6,0.3,1.4,0.5,2.3,0.5c0.9,0,1.6-0.2,2.3-0.5c0.7-0.3,1.1-0.8,1.5-1.4
			c0.4-0.6,0.6-1.4,0.8-2.4c0.2-1,0.2-2.1,0.2-3.5v-1c0-1.4-0.1-2.5-0.2-3.5c-0.2-1-0.4-1.8-0.8-2.4c-0.4-0.6-0.9-1.1-1.5-1.4
			C1856.9,198.7,1856.1,198.5,1855.2,198.5z"/>
		<path class="st10" d="M1875.8,195.9c0.5,0,0.8,0.1,1.1,0.3c0.3,0.2,0.4,0.5,0.4,1v19.4c0,0.4-0.2,0.8-0.5,1s-0.7,0.3-1.1,0.3
			c-0.4,0-0.8-0.1-1.1-0.3c-0.3-0.2-0.5-0.5-0.5-1v-17.1l-4.6,2.8c-0.4,0.2-0.8,0.3-1.1,0.1c-0.3-0.1-0.6-0.4-0.8-0.7
			s-0.2-0.7-0.2-1s0.3-0.6,0.6-0.8l5.5-3.3c0.4-0.2,0.8-0.4,1.1-0.5C1875.2,195.9,1875.5,195.9,1875.8,195.9z"/>
		<path class="st10" d="M1894.4,195.9c0.5,0,0.8,0.1,1.1,0.3s0.4,0.5,0.4,1v19.4c0,0.4-0.2,0.8-0.5,1s-0.7,0.3-1.1,0.3
			c-0.4,0-0.8-0.1-1.1-0.3c-0.3-0.2-0.5-0.5-0.5-1v-17.1l-4.6,2.8c-0.4,0.2-0.8,0.3-1.1,0.1c-0.3-0.1-0.6-0.4-0.8-0.7
			c-0.2-0.3-0.2-0.7-0.2-1s0.3-0.6,0.6-0.8l5.5-3.3c0.4-0.2,0.8-0.4,1.1-0.5C1893.8,195.9,1894.1,195.9,1894.4,195.9z"/>
		<path class="st10" d="M1905.5,214.8c0.6,0,1.1,0.2,1.5,0.6c0.4,0.4,0.6,0.9,0.6,1.5s-0.2,1.1-0.6,1.5c-0.4,0.4-0.9,0.6-1.5,0.6
			c-0.6,0-1.1-0.2-1.5-0.6c-0.4-0.4-0.6-0.9-0.6-1.5s0.2-1.1,0.6-1.5C1904.4,215,1904.9,214.8,1905.5,214.8z"/>
		<path class="st10" d="M1920.6,195.9c0.5,0,0.8,0.1,1.1,0.3s0.4,0.5,0.4,1v19.4c0,0.4-0.2,0.8-0.5,1s-0.7,0.3-1.1,0.3
			c-0.4,0-0.8-0.1-1.1-0.3c-0.3-0.2-0.5-0.5-0.5-1v-17.1l-4.6,2.8c-0.4,0.2-0.8,0.3-1.1,0.1c-0.3-0.1-0.6-0.4-0.8-0.7
			c-0.2-0.3-0.2-0.7-0.2-1s0.3-0.6,0.6-0.8l5.5-3.3c0.4-0.2,0.8-0.4,1.1-0.5C1920,195.9,1920.3,195.9,1920.6,195.9z"/>
		<path class="st10" d="M1937.2,195.7c2.7,0,4.7,0.9,6,2.7c1.2,1.8,1.8,4.4,1.8,7.7v1.5c0,3.4-0.6,6-1.8,7.7c-1.2,1.8-3.2,2.7-6,2.7
			s-4.7-0.9-6-2.7c-1.2-1.8-1.8-4.4-1.8-7.7v-1.5c0-3.4,0.6-6,1.8-7.7C1932.4,196.6,1934.4,195.7,1937.2,195.7z M1937.2,198.5
			c-0.9,0-1.6,0.2-2.3,0.5c-0.7,0.3-1.1,0.8-1.5,1.4c-0.4,0.6-0.6,1.4-0.8,2.4s-0.2,2.1-0.2,3.5v1c0,1.4,0.1,2.5,0.2,3.5
			c0.2,1,0.4,1.8,0.8,2.4c0.4,0.6,0.9,1.1,1.5,1.4c0.6,0.3,1.4,0.5,2.3,0.5c0.9,0,1.6-0.2,2.3-0.5c0.7-0.3,1.1-0.8,1.5-1.4
			c0.4-0.6,0.6-1.4,0.8-2.4c0.2-1,0.2-2.1,0.2-3.5v-1c0-1.4-0.1-2.5-0.2-3.5c-0.2-1-0.4-1.8-0.8-2.4c-0.4-0.6-0.9-1.1-1.5-1.4
			C1938.9,198.7,1938,198.5,1937.2,198.5z"/>
		<path class="st10" d="M1969.6,203.9c0.3,0.1,0.6,0.2,0.8,0.5c0.2,0.2,0.2,0.6,0.2,1c-0.2,1.3-0.7,2.3-1.5,3.1s-1.7,1.2-2.9,1.2
			c-0.7,0-1.3-0.2-1.8-0.5s-1-0.6-1.4-1c-0.4-0.4-0.8-0.7-1.2-1s-0.8-0.5-1.3-0.5s-0.9,0.2-1.3,0.6c-0.4,0.4-0.5,1-0.7,1.7
			c-0.1,0.4-0.3,0.6-0.6,0.8c-0.3,0.1-0.6,0.1-0.9,0.1c-0.3-0.1-0.6-0.2-0.8-0.5c-0.2-0.3-0.2-0.6-0.2-1c0.1-0.5,0.3-1.1,0.5-1.6
			s0.5-1,0.9-1.4c0.4-0.4,0.8-0.7,1.3-1s1.1-0.4,1.7-0.4c0.7,0,1.4,0.2,1.9,0.5s1,0.7,1.4,1c0.4,0.4,0.8,0.7,1.2,1s0.8,0.5,1.3,0.5
			c1,0,1.7-0.8,2-2.3c0.1-0.4,0.3-0.7,0.6-0.8C1969.1,203.8,1969.2,203.8,1969.6,203.9z"/>
		<path class="st10" d="M1989.2,195.7c1.2,0,2.2,0.1,3,0.4c0.8,0.3,1.5,0.7,2.1,1.2c0.6,0.5,1,1.1,1.3,1.8s0.4,1.4,0.4,2.1v0.3
			c0,1.2-0.2,2.2-0.7,3.2s-1.3,2-2.3,3.1l-7,7.4h9.9c0.4,0,0.6,0.1,0.8,0.4c0.2,0.3,0.3,0.6,0.3,0.9s-0.1,0.6-0.3,0.9
			c-0.2,0.3-0.4,0.4-0.8,0.4h-11.7c-0.8,0-1.4-0.1-1.7-0.4c-0.3-0.3-0.5-0.7-0.5-1.3c0-0.3,0.1-0.5,0.2-0.8c0.1-0.2,0.4-0.5,0.7-0.9
			l7.4-7.9c0.5-0.6,1-1.1,1.3-1.5s0.6-0.8,0.8-1.2c0.2-0.4,0.3-0.8,0.4-1.1c0.1-0.4,0.1-0.8,0.1-1.2v-0.2c0-0.9-0.3-1.6-0.9-2.1
			c-0.6-0.5-1.5-0.8-2.8-0.8c-1,0-1.9,0.2-2.6,0.6c-0.7,0.4-1.3,1-1.9,1.8c-0.2,0.3-0.5,0.5-0.8,0.5c-0.3,0.1-0.7,0-1-0.3
			c-0.3-0.2-0.5-0.5-0.6-0.9c-0.1-0.3,0-0.7,0.2-1c0.6-1,1.5-1.9,2.6-2.5C1986.2,196,1987.6,195.7,1989.2,195.7z"/>
		<path class="st10" d="M2007.9,195.7c2.7,0,4.7,0.9,6,2.7c1.2,1.8,1.8,4.4,1.8,7.7v1.5c0,3.4-0.6,6-1.8,7.7c-1.2,1.8-3.2,2.7-6,2.7
			s-4.7-0.9-6-2.7c-1.2-1.8-1.8-4.4-1.8-7.7v-1.5c0-3.4,0.6-6,1.8-7.7C2003.2,196.6,2005.2,195.7,2007.9,195.7z M2007.9,198.5
			c-0.9,0-1.6,0.2-2.3,0.5c-0.7,0.3-1.1,0.8-1.5,1.4c-0.4,0.6-0.6,1.4-0.8,2.4c-0.2,1-0.2,2.1-0.2,3.5v1c0,1.4,0.1,2.5,0.2,3.5
			c0.2,1,0.4,1.8,0.8,2.4c0.4,0.6,0.9,1.1,1.5,1.4c0.6,0.3,1.4,0.5,2.3,0.5c0.9,0,1.6-0.2,2.3-0.5c0.7-0.3,1.1-0.8,1.5-1.4
			c0.4-0.6,0.6-1.4,0.8-2.4s0.2-2.1,0.2-3.5v-1c0-1.4-0.1-2.5-0.2-3.5c-0.2-1-0.4-1.8-0.8-2.4c-0.4-0.6-0.9-1.1-1.5-1.4
			C2009.6,198.7,2008.8,198.5,2007.9,198.5z"/>
		<path class="st10" d="M2028.5,195.9c0.5,0,0.8,0.1,1.1,0.3c0.3,0.2,0.4,0.5,0.4,1v19.4c0,0.4-0.2,0.8-0.5,1s-0.7,0.3-1.1,0.3
			c-0.4,0-0.8-0.1-1.1-0.3c-0.3-0.2-0.5-0.5-0.5-1v-17.1l-4.6,2.8c-0.4,0.2-0.8,0.3-1.1,0.1c-0.3-0.1-0.6-0.4-0.8-0.7
			s-0.2-0.7-0.2-1s0.3-0.6,0.6-0.8l5.5-3.3c0.4-0.2,0.8-0.4,1.1-0.5C2027.9,195.9,2028.2,195.9,2028.5,195.9z"/>
		<path class="st10" d="M2051.3,196.4c0.2,0.3,0.2,0.6,0.2,0.9c0,0.4-0.1,0.7-0.2,0.9s-0.4,0.4-0.8,0.4h-8.3l-0.4,6.7
			c0.5-0.4,1.1-0.7,1.9-1c0.7-0.3,1.6-0.4,2.5-0.4c1.1,0,2,0.2,2.8,0.5s1.5,0.8,2.1,1.4c0.6,0.6,1,1.3,1.3,2.1s0.4,1.7,0.4,2.6v0.3
			c0,0.9-0.1,1.7-0.4,2.5c-0.3,0.8-0.7,1.6-1.3,2.3s-1.4,1.2-2.4,1.6s-2.2,0.6-3.5,0.6c-1.4,0-2.6-0.2-3.7-0.5
			c-1.1-0.3-2-0.7-2.9-1.3c-0.4-0.2-0.6-0.5-0.6-0.9c-0.1-0.4,0-0.7,0.2-1.1c0.5-0.8,1.1-0.9,1.9-0.5c0.7,0.4,1.5,0.8,2.3,1.1
			s1.7,0.4,2.8,0.4c0.8,0,1.5-0.1,2.1-0.4c0.6-0.3,1.1-0.5,1.4-0.9c0.4-0.4,0.6-0.9,0.8-1.4s0.3-1.1,0.3-1.7v-0.2
			c0-1.4-0.4-2.5-1.2-3.2s-1.9-1.1-3.3-1.1c-0.8,0-1.5,0.1-2.2,0.4c-0.7,0.3-1.2,0.6-1.7,1c-0.3,0.2-0.5,0.4-0.7,0.5
			s-0.4,0.1-0.7,0.1c-0.4,0-0.7-0.1-0.9-0.3c-0.2-0.2-0.4-0.4-0.3-0.8l0.5-9.1c0-0.5,0.1-0.9,0.2-1.2c0.1-0.3,0.2-0.5,0.4-0.7
			c0.2-0.2,0.4-0.3,0.7-0.4c0.3-0.1,0.6-0.1,1.1-0.1h8.8C2050.9,196,2051.1,196.1,2051.3,196.4z"/>
		<path class="st10" d="M2058.2,214.8c0.6,0,1.1,0.2,1.5,0.6s0.6,0.9,0.6,1.5s-0.2,1.1-0.6,1.5c-0.4,0.4-0.9,0.6-1.5,0.6
			s-1.1-0.2-1.5-0.6c-0.4-0.4-0.6-0.9-0.6-1.5s0.2-1.1,0.6-1.5S2057.6,214.8,2058.2,214.8z"/>
		<path class="st10" d="M2071.3,195.7c2.7,0,4.7,0.9,6,2.7c1.2,1.8,1.8,4.4,1.8,7.7v1.5c0,3.4-0.6,6-1.8,7.7c-1.2,1.8-3.2,2.7-6,2.7
			c-2.7,0-4.7-0.9-6-2.7c-1.2-1.8-1.8-4.4-1.8-7.7v-1.5c0-3.4,0.6-6,1.8-7.7C2066.6,196.6,2068.5,195.7,2071.3,195.7z M2071.3,198.5
			c-0.9,0-1.6,0.2-2.3,0.5s-1.1,0.8-1.5,1.4c-0.4,0.6-0.6,1.4-0.8,2.4s-0.2,2.1-0.2,3.5v1c0,1.4,0.1,2.5,0.2,3.5
			c0.2,1,0.4,1.8,0.8,2.4c0.4,0.6,0.9,1.1,1.5,1.4s1.4,0.5,2.3,0.5c0.9,0,1.6-0.2,2.3-0.5s1.1-0.8,1.5-1.4c0.4-0.6,0.6-1.4,0.8-2.4
			s0.2-2.1,0.2-3.5v-1c0-1.4-0.1-2.5-0.2-3.5c-0.2-1-0.4-1.8-0.8-2.4c-0.4-0.6-0.9-1.1-1.5-1.4S2072.2,198.5,2071.3,198.5z"/>
		<path class="st10" d="M2091,195.7c1,0,1.9,0.1,2.7,0.3s1.5,0.5,2.1,0.8c0.3,0.2,0.6,0.5,0.7,0.8c0.1,0.3,0.1,0.6-0.1,1
			c-0.2,0.4-0.4,0.6-0.7,0.7c-0.3,0.1-0.7,0.1-1.1-0.1c-0.5-0.3-1.1-0.5-1.7-0.6s-1.3-0.2-2-0.2c-3.2,0-5,2.5-5.3,7.6
			c0.5-0.8,1.3-1.4,2.2-1.8c1-0.4,2-0.7,3.1-0.7s2,0.2,2.8,0.5s1.6,0.8,2.1,1.4c0.6,0.6,1,1.3,1.4,2.2c0.3,0.9,0.5,1.8,0.5,2.9v0.5
			c0,1.1-0.2,2-0.5,2.9c-0.4,0.9-0.9,1.6-1.5,2.2c-0.7,0.6-1.5,1.1-2.4,1.4c-0.9,0.3-1.9,0.5-3.1,0.5c-2.5,0-4.4-0.8-5.7-2.4
			c-1.3-1.6-2-3.9-2-6.9v-0.9c0-2.4,0.2-4.3,0.6-5.9c0.4-1.6,1-2.8,1.8-3.8s1.6-1.6,2.7-2C2088.7,195.9,2089.8,195.7,2091,195.7z
			 M2090.2,206.2c-0.8,0-1.4,0.1-2,0.3s-1,0.5-1.4,0.9s-0.7,0.8-0.9,1.4c-0.2,0.5-0.3,1.1-0.3,1.6v0.2c0,1.4,0.4,2.5,1.2,3.3
			s1.9,1.2,3.3,1.2c1.4,0,2.5-0.4,3.4-1.1c0.8-0.8,1.2-1.8,1.2-3.3v-0.2C2094.7,207.7,2093.2,206.2,2090.2,206.2z"/>
	</g>
	<g class="st9">
		<path class="st10" d="M1828.9,368c1.2,0,2.2,0.1,3,0.4s1.5,0.7,2.1,1.2c0.6,0.5,1,1.1,1.3,1.8c0.3,0.7,0.4,1.4,0.4,2.1v0.3
			c0,1.2-0.2,2.2-0.7,3.2s-1.3,2-2.3,3.1l-7,7.4h9.9c0.4,0,0.6,0.1,0.8,0.4c0.2,0.3,0.3,0.6,0.3,0.9s-0.1,0.6-0.3,0.9
			s-0.4,0.4-0.8,0.4h-11.7c-0.8,0-1.4-0.1-1.7-0.4c-0.3-0.3-0.5-0.7-0.5-1.3c0-0.3,0.1-0.5,0.2-0.8c0.1-0.2,0.4-0.5,0.7-0.9l7.4-7.9
			c0.5-0.6,1-1.1,1.3-1.5s0.6-0.8,0.8-1.2c0.2-0.4,0.3-0.8,0.4-1.1c0.1-0.3,0.1-0.8,0.1-1.2v-0.2c0-0.9-0.3-1.6-0.9-2.1
			c-0.6-0.5-1.5-0.8-2.8-0.8c-1,0-1.9,0.2-2.6,0.6s-1.3,1-1.9,1.8c-0.2,0.3-0.5,0.5-0.8,0.5c-0.3,0.1-0.7,0-1-0.3
			c-0.3-0.2-0.5-0.5-0.6-0.9c-0.1-0.3,0-0.7,0.2-1c0.6-1,1.5-1.9,2.6-2.5C1825.9,368.3,1827.3,368,1828.9,368z"/>
		<path class="st10" d="M1847.6,368c2.7,0,4.7,0.9,6,2.7c1.2,1.8,1.8,4.4,1.8,7.7v1.5c0,3.4-0.6,6-1.8,7.7c-1.2,1.8-3.2,2.7-6,2.7
			c-2.7,0-4.7-0.9-6-2.7c-1.2-1.8-1.8-4.4-1.8-7.7v-1.5c0-3.4,0.6-6,1.8-7.7C1842.9,368.9,1844.9,368,1847.6,368z M1847.6,370.9
			c-0.9,0-1.6,0.2-2.3,0.5c-0.7,0.3-1.1,0.8-1.5,1.4c-0.4,0.6-0.6,1.4-0.8,2.4c-0.2,1-0.2,2.1-0.2,3.5v1c0,1.4,0.1,2.5,0.2,3.5
			c0.2,1,0.4,1.8,0.8,2.4c0.4,0.6,0.9,1.1,1.5,1.4c0.6,0.3,1.4,0.5,2.3,0.5c0.9,0,1.6-0.2,2.3-0.5c0.7-0.3,1.1-0.8,1.5-1.4
			c0.4-0.6,0.6-1.4,0.8-2.4s0.2-2.1,0.2-3.5v-1c0-1.4-0.1-2.5-0.2-3.5c-0.2-1-0.4-1.8-0.8-2.4c-0.4-0.6-0.9-1.1-1.5-1.4
			C1849.3,371.1,1848.5,370.9,1847.6,370.9z"/>
		<path class="st10" d="M1868.2,368.2c0.5,0,0.8,0.1,1.1,0.3c0.3,0.2,0.4,0.5,0.4,1v19.4c0,0.4-0.2,0.8-0.5,1s-0.7,0.3-1.1,0.3
			c-0.4,0-0.8-0.1-1.1-0.3c-0.3-0.2-0.5-0.5-0.5-1v-17.1l-4.6,2.8c-0.4,0.2-0.8,0.3-1.1,0.1c-0.3-0.1-0.6-0.4-0.8-0.7
			c-0.2-0.3-0.2-0.7-0.2-1s0.3-0.6,0.6-0.8l5.5-3.3c0.4-0.2,0.8-0.4,1.1-0.5C1867.6,368.2,1867.9,368.2,1868.2,368.2z"/>
		<path class="st10" d="M1892,368.7c0.3,0.3,0.5,0.7,0.5,1.3c0,0.1,0,0.3,0,0.4s-0.1,0.3-0.1,0.5s-0.1,0.4-0.2,0.6
			c-0.1,0.2-0.2,0.6-0.4,0.9l-7.7,16.9c-0.2,0.4-0.5,0.7-0.8,0.7c-0.4,0.1-0.7,0-1.1-0.1c-0.3-0.2-0.6-0.4-0.8-0.7
			c-0.2-0.3-0.2-0.7,0-1.2l7.9-17.2h-11.1c-0.4,0-0.6-0.1-0.8-0.4c-0.2-0.3-0.3-0.6-0.3-0.9s0.1-0.6,0.3-0.9s0.4-0.4,0.8-0.4h12.2
			C1891.1,368.3,1891.6,368.5,1892,368.7z"/>
		<path class="st10" d="M1897.8,387.1c0.6,0,1.1,0.2,1.5,0.6c0.4,0.4,0.6,0.9,0.6,1.5s-0.2,1.1-0.6,1.5c-0.4,0.4-0.9,0.6-1.5,0.6
			c-0.6,0-1.1-0.2-1.5-0.6c-0.4-0.4-0.6-0.9-0.6-1.5s0.2-1.1,0.6-1.5C1896.8,387.3,1897.3,387.1,1897.8,387.1z"/>
		<path class="st10" d="M1913,368.2c0.5,0,0.8,0.1,1.1,0.3c0.3,0.2,0.4,0.5,0.4,1v19.4c0,0.4-0.2,0.8-0.5,1s-0.7,0.3-1.1,0.3
			c-0.4,0-0.8-0.1-1.1-0.3c-0.3-0.2-0.5-0.5-0.5-1v-17.1l-4.6,2.8c-0.4,0.2-0.8,0.3-1.1,0.1c-0.3-0.1-0.6-0.4-0.8-0.7
			c-0.2-0.3-0.2-0.7-0.2-1s0.3-0.6,0.6-0.8l5.5-3.3c0.4-0.2,0.8-0.4,1.1-0.5C1912.3,368.2,1912.7,368.2,1913,368.2z"/>
		<path class="st10" d="M1929.4,368c1.2,0,2.2,0.1,3,0.4s1.5,0.7,2.1,1.2c0.6,0.5,1,1.1,1.3,1.8c0.3,0.7,0.4,1.4,0.4,2.1v0.3
			c0,1.2-0.2,2.2-0.7,3.2s-1.2,2-2.3,3.1l-7,7.4h9.9c0.4,0,0.6,0.1,0.8,0.4c0.2,0.3,0.3,0.6,0.3,0.9s-0.1,0.6-0.3,0.9
			s-0.4,0.4-0.8,0.4h-11.7c-0.8,0-1.4-0.1-1.7-0.4c-0.3-0.3-0.5-0.7-0.5-1.3c0-0.3,0.1-0.5,0.2-0.8c0.1-0.2,0.4-0.5,0.7-0.9l7.4-7.9
			c0.5-0.6,1-1.1,1.3-1.5s0.6-0.8,0.8-1.2c0.2-0.4,0.3-0.8,0.4-1.1c0.1-0.4,0.1-0.8,0.1-1.2v-0.2c0-0.9-0.3-1.6-0.9-2.1
			c-0.6-0.5-1.5-0.8-2.8-0.8c-1,0-1.9,0.2-2.6,0.6s-1.3,1-1.9,1.8c-0.2,0.3-0.5,0.5-0.8,0.5s-0.7,0-1-0.3c-0.3-0.2-0.5-0.5-0.6-0.9
			c-0.1-0.3,0-0.7,0.2-1c0.7-1,1.5-1.9,2.6-2.5C1926.5,368.3,1927.8,368,1929.4,368z"/>
		<path class="st10" d="M1962,376.2c0.3,0.1,0.6,0.2,0.8,0.5c0.2,0.2,0.2,0.6,0.2,1c-0.2,1.3-0.7,2.3-1.5,3.1
			c-0.8,0.8-1.7,1.2-2.9,1.2c-0.7,0-1.3-0.2-1.8-0.5s-1-0.6-1.4-1c-0.4-0.4-0.8-0.7-1.2-1c-0.4-0.3-0.8-0.5-1.3-0.5
			s-0.9,0.2-1.2,0.6c-0.3,0.4-0.5,1-0.7,1.7c-0.1,0.4-0.3,0.6-0.6,0.8c-0.3,0.1-0.6,0.1-0.9,0.1c-0.3-0.1-0.6-0.2-0.8-0.5
			c-0.2-0.2-0.2-0.6-0.2-1c0.1-0.5,0.3-1.1,0.5-1.6s0.5-1,0.9-1.4c0.4-0.4,0.8-0.7,1.3-1s1.1-0.4,1.7-0.4c0.7,0,1.4,0.2,1.9,0.5
			s1,0.7,1.4,1c0.4,0.4,0.8,0.7,1.2,1c0.4,0.3,0.8,0.5,1.3,0.5c1,0,1.7-0.8,2-2.3c0.1-0.4,0.3-0.7,0.6-0.8
			C1961.6,376.1,1961.6,376.2,1962,376.2z"/>
		<path class="st10" d="M1981.6,368c1.2,0,2.2,0.1,3,0.4s1.5,0.7,2.1,1.2c0.6,0.5,1,1.1,1.3,1.8c0.3,0.7,0.4,1.4,0.4,2.1v0.3
			c0,1.2-0.2,2.2-0.7,3.2s-1.2,2-2.3,3.1l-7,7.4h9.9c0.4,0,0.6,0.1,0.8,0.4c0.2,0.3,0.3,0.6,0.3,0.9s-0.1,0.6-0.3,0.9
			c-0.2,0.3-0.4,0.4-0.8,0.4h-11.7c-0.8,0-1.4-0.1-1.7-0.4c-0.3-0.3-0.5-0.7-0.5-1.3c0-0.3,0.1-0.5,0.2-0.8c0.1-0.2,0.4-0.5,0.7-0.9
			l7.4-7.9c0.5-0.6,1-1.1,1.3-1.5s0.6-0.8,0.8-1.2c0.2-0.4,0.3-0.8,0.4-1.1c0.1-0.3,0.1-0.8,0.1-1.2v-0.2c0-0.9-0.3-1.6-0.9-2.1
			c-0.6-0.5-1.5-0.8-2.8-0.8c-1,0-1.9,0.2-2.6,0.6s-1.3,1-1.9,1.8c-0.2,0.3-0.5,0.5-0.8,0.5c-0.3,0.1-0.7,0-1-0.3s-0.5-0.5-0.6-0.9
			c-0.1-0.3,0-0.7,0.2-1c0.7-1,1.5-1.9,2.6-2.5C1978.6,368.3,1980,368,1981.6,368z"/>
		<path class="st10" d="M2000.3,368c2.7,0,4.7,0.9,6,2.7c1.2,1.8,1.8,4.4,1.8,7.7v1.5c0,3.4-0.6,6-1.8,7.7c-1.2,1.8-3.2,2.7-6,2.7
			s-4.7-0.9-6-2.7c-1.2-1.8-1.8-4.4-1.8-7.7v-1.5c0-3.4,0.6-6,1.8-7.7C1995.6,368.9,1997.6,368,2000.3,368z M2000.3,370.9
			c-0.9,0-1.6,0.2-2.3,0.5c-0.7,0.3-1.1,0.8-1.5,1.4c-0.4,0.6-0.6,1.4-0.8,2.4s-0.2,2.1-0.2,3.5v1c0,1.4,0.1,2.5,0.2,3.5
			c0.2,1,0.4,1.8,0.8,2.4c0.4,0.6,0.9,1.1,1.5,1.4c0.6,0.3,1.4,0.5,2.3,0.5c0.9,0,1.6-0.2,2.3-0.5c0.7-0.3,1.1-0.8,1.5-1.4
			c0.4-0.6,0.6-1.4,0.8-2.4c0.2-1,0.2-2.1,0.2-3.5v-1c0-1.4-0.1-2.5-0.2-3.5c-0.2-1-0.4-1.8-0.8-2.4c-0.4-0.6-0.9-1.1-1.5-1.4
			C2002,371.1,2001.2,370.9,2000.3,370.9z"/>
		<path class="st10" d="M2020.9,368.2c0.5,0,0.8,0.1,1.1,0.3c0.3,0.2,0.4,0.5,0.4,1v19.4c0,0.4-0.2,0.8-0.5,1s-0.7,0.3-1.1,0.3
			c-0.4,0-0.8-0.1-1.1-0.3c-0.3-0.2-0.5-0.5-0.5-1v-17.1l-4.6,2.8c-0.4,0.2-0.8,0.3-1.1,0.1c-0.3-0.1-0.6-0.4-0.8-0.7
			c-0.2-0.3-0.2-0.7-0.2-1s0.3-0.6,0.6-0.8l5.5-3.3c0.4-0.2,0.8-0.4,1.1-0.5C2020.3,368.2,2020.6,368.2,2020.9,368.2z"/>
		<path class="st10" d="M2037.5,368c1.1,0,2,0.2,2.9,0.5c0.8,0.3,1.6,0.7,2.1,1.3c0.6,0.5,1,1.1,1.3,1.8s0.5,1.4,0.5,2.2v0.3
			c0,0.9-0.3,1.8-0.8,2.7c-0.5,0.9-1.3,1.6-2.4,2.1c1.1,0.3,2,0.9,2.8,1.9c0.7,0.9,1.1,2,1.1,3.2v0.4c0,0.9-0.2,1.7-0.5,2.4
			c-0.3,0.7-0.8,1.4-1.4,1.9c-0.6,0.5-1.4,0.9-2.3,1.2c-0.9,0.3-1.9,0.5-3.1,0.5s-2.2-0.2-3.2-0.5c-0.9-0.3-1.7-0.7-2.3-1.2
			s-1.1-1.2-1.5-1.9c-0.3-0.7-0.5-1.5-0.5-2.4V384c0-0.6,0.1-1.2,0.3-1.7c0.2-0.5,0.5-1,0.8-1.5c0.3-0.4,0.8-0.8,1.2-1.1
			c0.5-0.3,1-0.6,1.5-0.7c-1.1-0.5-1.9-1.2-2.4-2.1c-0.6-0.9-0.8-1.8-0.8-2.7v-0.3c0-0.8,0.1-1.5,0.4-2.2s0.7-1.3,1.3-1.8
			s1.3-0.9,2.1-1.3C2035.4,368.2,2036.4,368,2037.5,368z M2037.5,380.3c-0.6,0-1.1,0.1-1.7,0.2c-0.5,0.2-1,0.4-1.4,0.7
			c-0.4,0.3-0.7,0.7-0.9,1.2s-0.4,1-0.4,1.6v0.2c0,1,0.4,1.9,1.2,2.5c0.8,0.7,1.8,1,3.2,1s2.4-0.3,3.1-1c0.8-0.6,1.1-1.5,1.1-2.5
			V384c0-0.6-0.1-1.1-0.3-1.6c-0.2-0.5-0.5-0.8-0.9-1.1c-0.4-0.3-0.8-0.5-1.3-0.7C2038.7,380.4,2038.1,380.3,2037.5,380.3z
			 M2037.5,370.7c-1.1,0-2,0.3-2.7,0.9s-1,1.4-1,2.4v0.2c0,0.5,0.1,1,0.3,1.4c0.2,0.4,0.5,0.8,0.8,1.1c0.3,0.3,0.7,0.5,1.2,0.7
			s0.9,0.2,1.4,0.2c1,0,1.9-0.3,2.6-0.9s1.1-1.4,1.1-2.5V374c0-1-0.3-1.8-1-2.4S2038.6,370.7,2037.5,370.7z"/>
		<path class="st10" d="M2050.6,387.1c0.6,0,1.1,0.2,1.5,0.6s0.6,0.9,0.6,1.5s-0.2,1.1-0.6,1.5c-0.4,0.4-0.9,0.6-1.5,0.6
			s-1.1-0.2-1.5-0.6s-0.6-0.9-0.6-1.5s0.2-1.1,0.6-1.5C2049.5,387.3,2050,387.1,2050.6,387.1z"/>
		<path class="st10" d="M2063.7,368c2.7,0,4.7,0.9,6,2.7c1.2,1.8,1.8,4.4,1.8,7.7v1.5c0,3.4-0.6,6-1.8,7.7c-1.2,1.8-3.2,2.7-6,2.7
			s-4.7-0.9-6-2.7c-1.2-1.8-1.8-4.4-1.8-7.7v-1.5c0-3.4,0.6-6,1.8-7.7C2058.9,368.9,2060.9,368,2063.7,368z M2063.7,370.9
			c-0.9,0-1.6,0.2-2.3,0.5s-1.1,0.8-1.5,1.4s-0.6,1.4-0.8,2.4s-0.2,2.1-0.2,3.5v1c0,1.4,0.1,2.5,0.2,3.5c0.2,1,0.4,1.8,0.8,2.4
			c0.4,0.6,0.9,1.1,1.5,1.4s1.4,0.5,2.3,0.5s1.6-0.2,2.3-0.5s1.1-0.8,1.5-1.4s0.6-1.4,0.8-2.4s0.2-2.1,0.2-3.5v-1
			c0-1.4-0.1-2.5-0.2-3.5c-0.2-1-0.4-1.8-0.8-2.4c-0.4-0.6-0.9-1.1-1.5-1.4S2064.6,370.9,2063.7,370.9z"/>
		<path class="st10" d="M2082.1,368c1.2,0,2.2,0.1,3,0.4s1.5,0.7,2.1,1.2s1,1.1,1.3,1.8c0.3,0.7,0.4,1.4,0.4,2.1v0.3
			c0,1.2-0.2,2.2-0.7,3.2s-1.3,2-2.3,3.1l-7,7.4h9.9c0.4,0,0.6,0.1,0.8,0.4s0.3,0.6,0.3,0.9s-0.1,0.6-0.3,0.9s-0.4,0.4-0.8,0.4
			h-11.7c-0.8,0-1.4-0.1-1.7-0.4s-0.5-0.7-0.5-1.3c0-0.3,0.1-0.5,0.2-0.8c0.1-0.2,0.4-0.5,0.7-0.9l7.4-7.9c0.5-0.6,1-1.1,1.3-1.5
			s0.6-0.8,0.8-1.2s0.3-0.8,0.4-1.1c0.1-0.4,0.1-0.8,0.1-1.2v-0.2c0-0.9-0.3-1.6-0.9-2.1c-0.6-0.5-1.5-0.8-2.8-0.8
			c-1,0-1.9,0.2-2.6,0.6c-0.7,0.4-1.3,1-1.9,1.8c-0.2,0.3-0.5,0.5-0.8,0.5c-0.3,0.1-0.7,0-1-0.3c-0.3-0.2-0.5-0.5-0.6-0.9
			c-0.1-0.3,0-0.7,0.2-1c0.6-1,1.5-1.9,2.6-2.5S2080.5,368,2082.1,368z"/>
	</g>
	<g class="st9">
		<path class="st10" d="M1828.9,601.1c1.2,0,2.2,0.1,3,0.4c0.8,0.3,1.5,0.7,2.1,1.2c0.6,0.5,1,1.1,1.3,1.8s0.4,1.4,0.4,2.1v0.3
			c0,1.2-0.2,2.2-0.7,3.2s-1.3,2-2.3,3.1l-7,7.4h9.9c0.4,0,0.6,0.1,0.8,0.4c0.2,0.3,0.3,0.6,0.3,0.9s-0.1,0.6-0.3,0.9
			c-0.2,0.3-0.4,0.4-0.8,0.4h-11.7c-0.8,0-1.4-0.1-1.7-0.4c-0.3-0.3-0.5-0.7-0.5-1.3c0-0.3,0.1-0.5,0.2-0.8c0.1-0.2,0.4-0.5,0.7-0.9
			l7.4-7.9c0.5-0.6,1-1.1,1.3-1.5s0.6-0.8,0.8-1.2s0.3-0.8,0.4-1.1c0.1-0.3,0.1-0.8,0.1-1.2v-0.2c0-0.9-0.3-1.6-0.9-2.1
			c-0.6-0.5-1.5-0.8-2.8-0.8c-1,0-1.9,0.2-2.6,0.6c-0.7,0.4-1.3,1-1.9,1.8c-0.2,0.3-0.5,0.5-0.8,0.5c-0.3,0.1-0.7,0-1-0.3
			c-0.3-0.2-0.5-0.5-0.6-0.9c-0.1-0.3,0-0.7,0.2-1c0.6-1,1.5-1.9,2.6-2.5C1825.9,601.5,1827.3,601.1,1828.9,601.1z"/>
		<path class="st10" d="M1847.6,601.1c2.7,0,4.7,0.9,6,2.7c1.2,1.8,1.8,4.4,1.8,7.7v1.5c0,3.4-0.6,6-1.8,7.7c-1.2,1.8-3.2,2.7-6,2.7
			c-2.7,0-4.7-0.9-6-2.7c-1.2-1.8-1.8-4.4-1.8-7.7v-1.5c0-3.4,0.6-6,1.8-7.7C1842.9,602,1844.9,601.1,1847.6,601.1z M1847.6,604
			c-0.9,0-1.6,0.2-2.3,0.5c-0.7,0.3-1.1,0.8-1.5,1.4c-0.4,0.6-0.6,1.4-0.8,2.4c-0.2,1-0.2,2.1-0.2,3.5v1c0,1.4,0.1,2.5,0.2,3.5
			c0.2,1,0.4,1.8,0.8,2.4c0.4,0.6,0.9,1.1,1.5,1.4c0.6,0.3,1.4,0.5,2.3,0.5c0.9,0,1.6-0.2,2.3-0.5c0.7-0.3,1.1-0.8,1.5-1.4
			c0.4-0.6,0.6-1.4,0.8-2.4s0.2-2.1,0.2-3.5v-1c0-1.4-0.1-2.5-0.2-3.5c-0.2-1-0.4-1.8-0.8-2.4c-0.4-0.6-0.9-1.1-1.5-1.4
			C1849.3,604.2,1848.5,604,1847.6,604z"/>
		<path class="st10" d="M1868.2,601.3c0.5,0,0.8,0.1,1.1,0.3c0.3,0.2,0.4,0.5,0.4,1V622c0,0.4-0.2,0.8-0.5,1s-0.7,0.3-1.1,0.3
			c-0.4,0-0.8-0.1-1.1-0.3c-0.3-0.2-0.5-0.5-0.5-1v-17.1l-4.6,2.8c-0.4,0.2-0.8,0.3-1.1,0.1c-0.3-0.1-0.6-0.4-0.8-0.7
			s-0.2-0.7-0.2-1s0.3-0.6,0.6-0.8l5.5-3.3c0.4-0.2,0.8-0.4,1.1-0.5C1867.6,601.4,1867.9,601.3,1868.2,601.3z"/>
		<path class="st10" d="M1884.6,601.1c2.5,0,4.4,0.8,5.7,2.4c1.3,1.6,1.9,3.9,1.9,6.8v0.9c0,2.4-0.2,4.4-0.6,6
			c-0.4,1.6-1,2.8-1.7,3.8c-0.7,0.9-1.6,1.6-2.7,1.9c-1,0.4-2.2,0.5-3.5,0.5c-1,0-1.9-0.1-2.7-0.3s-1.5-0.5-2.1-0.8
			c-0.4-0.2-0.6-0.5-0.7-0.8c-0.1-0.3,0-0.7,0.1-1c0.2-0.4,0.4-0.6,0.7-0.7c0.3-0.1,0.7-0.1,1.1,0.1c0.5,0.3,1.1,0.5,1.8,0.6
			c0.6,0.1,1.3,0.2,2,0.2c0.9,0,1.6-0.1,2.2-0.4c0.6-0.3,1.2-0.7,1.6-1.3c0.4-0.6,0.8-1.4,1-2.3c0.2-1,0.4-2.1,0.4-3.5
			c-0.5,0.8-1.2,1.4-2.2,1.8c-1,0.4-2,0.7-3.1,0.7c-1.1,0-2-0.2-2.8-0.5s-1.6-0.8-2.2-1.4c-0.6-0.6-1.1-1.3-1.4-2.2
			s-0.5-1.8-0.5-2.9v-0.5c0-1.1,0.2-2,0.5-2.9c0.4-0.9,0.9-1.6,1.5-2.2c0.6-0.6,1.4-1.1,2.4-1.5S1883.5,601.1,1884.6,601.1z
			 M1884.7,603.9c-1.4,0-2.5,0.4-3.4,1.1c-0.8,0.8-1.2,1.8-1.2,3.3v0.2c0,2.9,1.5,4.4,4.4,4.4c0.8,0,1.4-0.1,2-0.3
			c0.6-0.2,1-0.5,1.4-0.9c0.4-0.4,0.7-0.8,0.9-1.3c0.2-0.5,0.3-1.1,0.3-1.6v-0.2c0-1.4-0.4-2.6-1.2-3.4
			C1887.1,604.3,1886.1,603.9,1884.7,603.9z"/>
		<path class="st10" d="M1897.8,620.2c0.6,0,1.1,0.2,1.5,0.6c0.4,0.4,0.6,0.9,0.6,1.5s-0.2,1.1-0.6,1.5c-0.4,0.4-0.9,0.6-1.5,0.6
			c-0.6,0-1.1-0.2-1.5-0.6c-0.4-0.4-0.6-0.9-0.6-1.5s0.2-1.1,0.6-1.5C1896.8,620.4,1897.3,620.2,1897.8,620.2z"/>
		<path class="st10" d="M1910.9,601.1c2.7,0,4.7,0.9,6,2.7c1.2,1.8,1.8,4.4,1.8,7.7v1.5c0,3.4-0.6,6-1.8,7.7c-1.2,1.8-3.2,2.7-6,2.7
			c-2.7,0-4.7-0.9-6-2.7c-1.2-1.8-1.8-4.4-1.8-7.7v-1.5c0-3.4,0.6-6,1.8-7.7C1906.2,602,1908.2,601.1,1910.9,601.1z M1910.9,604
			c-0.9,0-1.6,0.2-2.3,0.5c-0.7,0.3-1.1,0.8-1.5,1.4c-0.4,0.6-0.6,1.4-0.8,2.4c-0.2,1-0.2,2.1-0.2,3.5v1c0,1.4,0.1,2.5,0.2,3.5
			c0.2,1,0.4,1.8,0.8,2.4c0.4,0.6,0.9,1.1,1.5,1.4c0.6,0.3,1.4,0.5,2.3,0.5c0.9,0,1.6-0.2,2.3-0.5c0.7-0.3,1.1-0.8,1.5-1.4
			c0.4-0.6,0.6-1.4,0.8-2.4s0.2-2.1,0.2-3.5v-1c0-1.4-0.1-2.5-0.2-3.5c-0.2-1-0.4-1.8-0.8-2.4c-0.4-0.6-0.9-1.1-1.5-1.4
			C1912.6,604.2,1911.8,604,1910.9,604z"/>
		<path class="st10" d="M1929.5,601.1c1.1,0,2,0.2,2.9,0.5c0.8,0.3,1.6,0.7,2.1,1.3c0.6,0.5,1,1.1,1.3,1.8s0.5,1.4,0.5,2.2v0.3
			c0,0.9-0.3,1.8-0.8,2.7s-1.3,1.6-2.4,2.1c1.1,0.3,2,0.9,2.8,1.9c0.7,0.9,1.1,2,1.1,3.2v0.4c0,0.9-0.2,1.7-0.5,2.4
			s-0.8,1.4-1.4,1.9c-0.6,0.5-1.4,0.9-2.3,1.2c-0.9,0.3-1.9,0.5-3.1,0.5s-2.2-0.2-3.2-0.5c-0.9-0.3-1.7-0.7-2.3-1.2
			s-1.1-1.2-1.5-1.9c-0.3-0.7-0.5-1.5-0.5-2.4v-0.4c0-0.6,0.1-1.2,0.3-1.7c0.2-0.5,0.5-1,0.8-1.5c0.3-0.4,0.8-0.8,1.2-1.1
			c0.5-0.3,1-0.6,1.5-0.7c-1.1-0.5-1.9-1.2-2.4-2.1c-0.6-0.9-0.8-1.8-0.8-2.7V607c0-0.8,0.1-1.5,0.4-2.2s0.7-1.3,1.3-1.8
			s1.3-0.9,2.1-1.3C1927.4,601.3,1928.4,601.1,1929.5,601.1z M1929.6,613.4c-0.6,0-1.1,0.1-1.7,0.2c-0.5,0.2-1,0.4-1.4,0.7
			c-0.4,0.3-0.7,0.7-0.9,1.2c-0.2,0.5-0.3,1-0.3,1.6v0.2c0,1,0.4,1.9,1.2,2.5c0.8,0.7,1.8,1,3.2,1s2.4-0.3,3.1-1
			c0.8-0.6,1.1-1.5,1.1-2.5v-0.2c0-0.6-0.1-1.1-0.3-1.6c-0.2-0.5-0.5-0.8-0.9-1.1c-0.4-0.3-0.8-0.5-1.3-0.7
			C1930.7,613.5,1930.2,613.4,1929.6,613.4z M1929.5,603.8c-1.1,0-2,0.3-2.7,0.9c-0.7,0.6-1,1.4-1,2.4v0.2c0,0.5,0.1,1,0.3,1.4
			c0.2,0.4,0.5,0.8,0.8,1.1s0.7,0.5,1.2,0.7s0.9,0.2,1.4,0.2c1,0,1.9-0.3,2.6-0.9c0.7-0.6,1.1-1.4,1.1-2.5v-0.2c0-1-0.3-1.8-1-2.4
			C1931.6,604.1,1930.7,603.8,1929.5,603.8z"/>
		<path class="st10" d="M1962,609.3c0.3,0.1,0.6,0.2,0.8,0.5c0.2,0.2,0.2,0.6,0.2,1c-0.2,1.3-0.7,2.3-1.5,3.1s-1.7,1.2-2.9,1.2
			c-0.7,0-1.3-0.2-1.8-0.5s-1-0.6-1.4-1c-0.4-0.4-0.8-0.7-1.2-1c-0.4-0.3-0.8-0.5-1.3-0.5s-0.9,0.2-1.2,0.6c-0.3,0.4-0.5,1-0.7,1.7
			c-0.1,0.4-0.3,0.6-0.6,0.8c-0.3,0.1-0.6,0.1-0.9,0.1c-0.3-0.1-0.6-0.2-0.8-0.5c-0.2-0.2-0.2-0.6-0.2-1c0.1-0.5,0.3-1.1,0.5-1.6
			s0.5-1,0.9-1.4c0.4-0.4,0.8-0.7,1.3-1s1.1-0.4,1.7-0.4c0.7,0,1.4,0.2,1.9,0.5s1,0.7,1.4,1c0.4,0.4,0.8,0.7,1.2,1
			c0.4,0.3,0.8,0.5,1.3,0.5c1,0,1.7-0.8,2-2.3c0.1-0.4,0.3-0.7,0.6-0.8C1961.6,609.2,1961.6,609.3,1962,609.3z"/>
		<path class="st10" d="M1981.6,601.1c1.2,0,2.2,0.1,3,0.4c0.8,0.3,1.5,0.7,2.1,1.2c0.6,0.5,1,1.1,1.3,1.8s0.4,1.4,0.4,2.1v0.3
			c0,1.2-0.2,2.2-0.7,3.2s-1.2,2-2.3,3.1l-7,7.4h9.9c0.4,0,0.6,0.1,0.8,0.4c0.2,0.3,0.3,0.6,0.3,0.9s-0.1,0.6-0.3,0.9
			c-0.2,0.3-0.4,0.4-0.8,0.4h-11.7c-0.8,0-1.4-0.1-1.7-0.4c-0.3-0.3-0.5-0.7-0.5-1.3c0-0.3,0.1-0.5,0.2-0.8c0.1-0.2,0.4-0.5,0.7-0.9
			l7.4-7.9c0.5-0.6,1-1.1,1.3-1.5s0.6-0.8,0.8-1.2s0.3-0.8,0.4-1.1c0.1-0.3,0.1-0.8,0.1-1.2v-0.2c0-0.9-0.3-1.6-0.9-2.1
			c-0.6-0.5-1.5-0.8-2.8-0.8c-1,0-1.9,0.2-2.6,0.6c-0.7,0.4-1.3,1-1.9,1.8c-0.2,0.3-0.5,0.5-0.8,0.5c-0.3,0.1-0.7,0-1-0.3
			s-0.5-0.5-0.6-0.9c-0.1-0.3,0-0.7,0.2-1c0.7-1,1.5-1.9,2.6-2.5C1978.6,601.4,1980,601.1,1981.6,601.1z"/>
		<path class="st10" d="M2000.3,601.1c2.7,0,4.7,0.9,6,2.7c1.2,1.8,1.8,4.4,1.8,7.7v1.5c0,3.4-0.6,6-1.8,7.7c-1.2,1.8-3.2,2.7-6,2.7
			s-4.7-0.9-6-2.7c-1.2-1.8-1.8-4.4-1.8-7.7v-1.5c0-3.4,0.6-6,1.8-7.7C1995.6,602,1997.6,601.1,2000.3,601.1z M2000.3,604
			c-0.9,0-1.6,0.2-2.3,0.5c-0.7,0.3-1.1,0.8-1.5,1.4c-0.4,0.6-0.6,1.4-0.8,2.4s-0.2,2.1-0.2,3.5v1c0,1.4,0.1,2.5,0.2,3.5
			c0.2,1,0.4,1.8,0.8,2.4c0.4,0.6,0.9,1.1,1.5,1.4c0.6,0.3,1.4,0.5,2.3,0.5c0.9,0,1.6-0.2,2.3-0.5c0.7-0.3,1.1-0.8,1.5-1.4
			c0.4-0.6,0.6-1.4,0.8-2.4c0.2-1,0.2-2.1,0.2-3.5v-1c0-1.4-0.1-2.5-0.2-3.5c-0.2-1-0.4-1.8-0.8-2.4c-0.4-0.6-0.9-1.1-1.5-1.4
			C2002,604.2,2001.2,604,2000.3,604z"/>
		<path class="st10" d="M2018.8,601.1c1.2,0,2.2,0.1,3,0.4c0.8,0.3,1.5,0.7,2.1,1.2c0.6,0.5,1,1.1,1.3,1.8s0.4,1.4,0.4,2.1v0.3
			c0,1.2-0.2,2.2-0.7,3.2s-1.3,2-2.3,3.1l-7,7.4h9.9c0.4,0,0.6,0.1,0.8,0.4c0.2,0.3,0.3,0.6,0.3,0.9s-0.1,0.6-0.3,0.9
			c-0.2,0.3-0.4,0.4-0.8,0.4h-11.7c-0.8,0-1.4-0.1-1.7-0.4c-0.3-0.3-0.5-0.7-0.5-1.3c0-0.3,0.1-0.5,0.2-0.8c0.1-0.2,0.4-0.5,0.7-0.9
			l7.4-7.9c0.5-0.6,1-1.1,1.3-1.5s0.6-0.8,0.8-1.2c0.2-0.4,0.3-0.8,0.4-1.1c0.1-0.4,0.1-0.8,0.1-1.2v-0.2c0-0.9-0.3-1.6-0.9-2.1
			c-0.6-0.5-1.5-0.8-2.8-0.8c-1,0-1.9,0.2-2.6,0.6c-0.7,0.4-1.3,1-1.9,1.8c-0.2,0.3-0.5,0.5-0.8,0.5c-0.3,0.1-0.7,0-1-0.3
			c-0.3-0.2-0.5-0.5-0.6-0.9c-0.1-0.3,0-0.7,0.2-1c0.6-1,1.5-1.9,2.6-2.5C2015.8,601.4,2017.2,601.1,2018.8,601.1z"/>
		<path class="st10" d="M2037.5,601.1c2.7,0,4.7,0.9,6,2.7c1.2,1.8,1.8,4.4,1.8,7.7v1.5c0,3.4-0.6,6-1.8,7.7c-1.2,1.8-3.2,2.7-6,2.7
			s-4.7-0.9-6-2.7c-1.2-1.8-1.8-4.4-1.8-7.7v-1.5c0-3.4,0.6-6,1.8-7.7C2032.8,602,2034.8,601.1,2037.5,601.1z M2037.5,604
			c-0.9,0-1.6,0.2-2.3,0.5c-0.7,0.3-1.1,0.8-1.5,1.4c-0.4,0.6-0.6,1.4-0.8,2.4s-0.2,2.1-0.2,3.5v1c0,1.4,0.1,2.5,0.2,3.5
			c0.2,1,0.4,1.8,0.8,2.4c0.4,0.6,0.9,1.1,1.5,1.4c0.6,0.3,1.4,0.5,2.3,0.5c0.9,0,1.6-0.2,2.3-0.5c0.7-0.3,1.1-0.8,1.5-1.4
			c0.4-0.6,0.6-1.4,0.8-2.4c0.2-1,0.2-2.1,0.2-3.5v-1c0-1.4-0.1-2.5-0.2-3.5c-0.2-1-0.4-1.8-0.8-2.4c-0.4-0.6-0.9-1.1-1.5-1.4
			C2039.2,604.2,2038.4,604,2037.5,604z"/>
		<path class="st10" d="M2050.6,620.2c0.6,0,1.1,0.2,1.5,0.6s0.6,0.9,0.6,1.5s-0.2,1.1-0.6,1.5c-0.4,0.4-0.9,0.6-1.5,0.6
			s-1.1-0.2-1.5-0.6c-0.4-0.4-0.6-0.9-0.6-1.5s0.2-1.1,0.6-1.5C2049.5,620.4,2050,620.2,2050.6,620.2z"/>
		<path class="st10" d="M2063.7,601.1c2.7,0,4.7,0.9,6,2.7c1.2,1.8,1.8,4.4,1.8,7.7v1.5c0,3.4-0.6,6-1.8,7.7c-1.2,1.8-3.2,2.7-6,2.7
			s-4.7-0.9-6-2.7c-1.2-1.8-1.8-4.4-1.8-7.7v-1.5c0-3.4,0.6-6,1.8-7.7C2058.9,602,2060.9,601.1,2063.7,601.1z M2063.7,604
			c-0.9,0-1.6,0.2-2.3,0.5s-1.1,0.8-1.5,1.4c-0.4,0.6-0.6,1.4-0.8,2.4s-0.2,2.1-0.2,3.5v1c0,1.4,0.1,2.5,0.2,3.5
			c0.2,1,0.4,1.8,0.8,2.4c0.4,0.6,0.9,1.1,1.5,1.4s1.4,0.5,2.3,0.5s1.6-0.2,2.3-0.5s1.1-0.8,1.5-1.4c0.4-0.6,0.6-1.4,0.8-2.4
			s0.2-2.1,0.2-3.5v-1c0-1.4-0.1-2.5-0.2-3.5c-0.2-1-0.4-1.8-0.8-2.4c-0.4-0.6-0.9-1.1-1.5-1.4S2064.6,604,2063.7,604z"/>
		<path class="st10" d="M2085.8,601.5c0.3,0.2,0.5,0.5,0.6,0.8s0,0.7-0.3,1.1l-8.6,12.5h7.4v-5.6c0-0.4,0.2-0.8,0.5-1s0.6-0.3,1-0.3
			s0.8,0.1,1.1,0.3s0.5,0.5,0.5,1v5.6h2.2c0.4,0,0.7,0.1,0.8,0.4c0.2,0.2,0.2,0.5,0.2,0.9s-0.1,0.6-0.2,0.9
			c-0.2,0.2-0.4,0.4-0.8,0.4h-2.2v3.5c0,0.4-0.2,0.8-0.5,1s-0.7,0.3-1.1,0.3c-0.4,0-0.7-0.1-1-0.3s-0.5-0.5-0.5-1v-3.5h-9
			c-0.7,0-1.2-0.1-1.5-0.4c-0.3-0.2-0.5-0.6-0.5-1.1c0-0.2,0-0.4,0.1-0.6c0.1-0.2,0.3-0.6,0.7-1.2l9.2-13.3c0.2-0.3,0.5-0.5,0.9-0.6
			C2085.1,601.3,2085.5,601.3,2085.8,601.5z"/>
	</g>
	<g id="XMLID_1289_">
		<path id="XMLID_1297_" class="st8" d="M1735.5,163.2L1735.5,163.2L1716,162c-1.1,0-2,0.3-2.8,0.9l-23.9,20.1
			c-1.1,0.9-1.6,2.4-1.3,3.8c0.3,1.5,1.3,2.5,2.8,3l14,4.2"/>
		<path id="XMLID_1296_" class="st11" d="M1728,170.7"/>
		<path id="XMLID_1295_" class="st8" d="M1736.4,225.9l4.2,14c0.5,2,1.6,2.4,3,2.8c0.3,0,0.5,0.1,0.8,0.1c1.2,0,2.2-0.5,3-1.5
			l20.1-23.9c0.7-0.8,1.1-1.9,0.9-2.9l-1.5-19.3"/>
		<path id="XMLID_1294_" class="st8" d="M1700.6,202.7l-11.4,6.2c-1.1,0.7-1.9,1.7-2,2.9c-0.1,1.2,0.3,2.5,1.1,3.3l27.1,27.1
			c0.8,0.8,1.7,1.2,2.8,1.2c0.1,0,0.4,0,0.5,0c1.2-0.1,2.4-0.9,2.9-2l6.2-11.4c0.1,0.1,0.2,0.1,0.3,0.2"/>
		<path id="XMLID_1292_" class="st7" d="M1781.8,148.7c-0.9-0.9-2.1-1.3-3.3-1.2l-29.9,3.7c-0.9,0.1-1.7,0.5-2.4,1.2l-10.7,10.7
			l-16.4,16.4l-8.1,8.1l0,0l-6.3,6.4l0,0l-0.4,0.4l-3.2,3.2c-0.8,0.8-1.2,1.7-1.2,2.8c0,0.8,0.3,1.6,0.7,2.2l6.2,6.2l15.3,15.3l6,6
			c0.6,0.3,1.3,0.5,1.9,0.5c1.1,0,2-0.4,2.8-1.2l3.6-3.6l0,0l6.6-6.3l16.9-16.9l7.1-7.4l11-11c0.7-0.7,1.1-1.5,1.2-2.4l3.6-30
			C1783.1,150.7,1782.7,149.5,1781.8,148.7z"/>
		<path id="XMLID_1290_" class="st8" d="M1750.3,196.7c-2.1,2.2-5.2,3.3-8.1,3.3c-3,0-5.9-1.2-8.2-3.3c-2.1-2.2-3.3-5-3.3-8.2
			s1.2-6.1,3.3-8.2c4.4-4.5,11.9-4.5,16.3,0.1C1754.7,184.8,1754.7,192.4,1750.3,196.7z"/>
	</g>
	<path id="XMLID_1288_" class="st0" d="M1766.6,433.5h-51c-10.5,0-19.1-8.6-19.1-19.1v-51c0-10.5,8.6-19.1,19.1-19.1h51
		c10.5,0,19.1,8.6,19.1,19.1v51C1785.7,424.9,1777.1,433.5,1766.6,433.5z"/>
	<path id="XMLID_1287_" class="st8" d="M1755,421.5h-47.8c-11.4,0-20.6-9.3-20.6-20.6v-47.8c0-11.4,9.3-20.6,20.6-20.6h47.8
		c11.4,0,20.6,9.3,20.6,20.6v47.8C1775.7,412.2,1766.4,421.5,1755,421.5z"/>
	<path id="XMLID_1286_" class="st7" d="M1746.9,411.8h-31.6c-10.5,0-19.1-8.6-19.1-19.1v-31.6c0-10.5,8.6-19.1,19.1-19.1h31.6
		c10.5,0,19.1,8.6,19.1,19.1v31.6C1766,403.3,1757.4,411.8,1746.9,411.8z"/>
	<g class="st9">
		<path class="st5" d="M1750.7,396.1c-0.7,0.7-1.4,1.3-2.3,1.7c-0.9,0.4-1.8,0.6-2.8,0.5s-2-0.2-2.9-0.6c-0.9-0.4-1.7-1-2.5-1.9
			s-1.3-2-1.7-3.3l-7.1-24.3l-7.2,24.3c-0.4,1.3-0.9,2.4-1.7,3.3c-0.8,0.9-1.6,1.5-2.5,1.9c-0.9,0.4-1.9,0.6-2.9,0.6
			s-1.9-0.2-2.8-0.5c-0.9-0.4-1.6-0.9-2.3-1.7c-0.7-0.7-1.1-1.6-1.3-2.5l-6.8-28.9c-0.4-1.9,0-3.4,1.2-4.7c1.2-1.2,2.6-1.6,4.2-1
			c1.6,0.5,2.6,2,3.1,4.3l5.4,24.6l6.3-20.5c0.3-1.3,0.7-2.4,1-3.3c0.4-0.9,0.8-1.7,1.3-2.5s1.2-1.4,2-1.8s1.7-0.6,2.8-0.6
			s2,0.2,2.8,0.6s1.5,1,2,1.8s1,1.6,1.3,2.5s0.7,2,1.1,3.3l6.3,20.5l5.4-24.6c0.5-2.4,1.5-3.8,3.1-4.3c1.6-0.5,3-0.2,4.2,1
			s1.6,2.8,1.2,4.7l-6.8,28.9C1751.8,394.5,1751.4,395.3,1750.7,396.1z"/>
	</g>
	<g id="XMLID_1281_" class="st12">
		<path id="XMLID_1283_" class="st5" d="M1758.2,569.6c3,0.2,5.9,0.4,8.8,0.2c3.5-0.2,8.5,0,10.7-1.9c2.3-2.1,3.4-5.3,2.5-8.3
			c-0.9-3-3.5-5.2-6.7-5.6c-1.2-4.8-6-7.7-10.8-6.5c-2.4,0.6-4.4,2.1-5.6,4.3c-4.9,0.6-8.4,5-7.9,9.9
			C1749.9,566.2,1753.7,569.4,1758.2,569.6z"/>
		<path id="XMLID_1282_" class="st5" d="M1793.7,635.3h-16v-15.4c2.6-0.5,5.1-1.8,6.9-3.7c2.2-2.2,3.5-5.2,3.5-8.2
			c0-2.6-1-5.2-2.7-7.3c1.1-3.4,0.2-7.1-2.5-9.8c0.5-1,0.8-2.1,0.8-3.3c0-4.5-4-8.1-8.9-8.1c-4.9,0-8.9,3.6-8.9,8.1
			c0,1.1,0.3,2.2,0.8,3.2c-2.7,2.6-3.7,6.3-2.5,9.8c-4.5,5.3-3.3,12.9,2.6,17c1.5,1,3.3,1.8,5.1,2.1v5.3l-3.3-2
			c-1.4-0.8-3.3-0.4-4.1,1c-0.8,1.4-0.4,3.3,1,4.1l6.4,3.8v3.1h-21.3v-3.9h-9.5v-73.6c0-6.5-5.3-11.8-11.8-11.8h-29.6
			c-6.5,0-11.8,5.3-11.8,11.8v73.6h-9.5v3.9h-3.9c-1.7,0-3,1.3-3,3s1.3,3,3,3h119.4c1.7,0,3-1.3,3-3S1795.3,635.3,1793.7,635.3z"/>
	</g>
	<g id="XMLID_1262_">
		<path id="XMLID_1279_" class="st7" d="M1750.4,564c3,0.2,5.9,0.4,8.8,0.2c3.5-0.2,8.5,0,10.7-1.9c2.3-2.1,3.4-5.3,2.5-8.3
			c-0.9-3-3.5-5.2-6.7-5.6c-1.2-4.8-6-7.7-10.8-6.5c-2.4,0.6-4.4,2.1-5.6,4.3c-4.9,0.6-8.4,5-7.9,9.9
			C1742,560.6,1745.8,563.7,1750.4,564z"/>
		<path id="XMLID_1278_" class="st8" d="M1769,614.4c2.9-0.5,5.7-1.8,7.7-3.8c2.2-2.2,3.5-5.2,3.5-8.2c0-2.6-1-5.2-2.7-7.3
			c1.1-3.4,0.2-7.1-2.5-9.8c0.5-1,0.8-2.1,0.8-3.3c0-4.5-4-8.1-8.9-8.1c-4.9,0-8.9,3.6-8.9,8.1c0,1.1,0.3,2.2,0.8,3.2
			c-2.7,2.6-3.7,6.3-2.5,9.8c-4.5,5.3-3.3,12.9,2.6,17c1.7,1.2,3.8,2,5.9,2.3C1766,614.6,1767.5,614.6,1769,614.4z"/>
		<line id="XMLID_1277_" class="st13" x1="1666.4" y1="632.7" x2="1785.8" y2="632.7"/>
		<line id="XMLID_1276_" class="st13" x1="1766.8" y1="609.3" x2="1766.8" y2="632.6"/>
		<line id="XMLID_1275_" class="st13" x1="1758.9" y1="620.2" x2="1765.8" y2="624.3"/>
		<path id="XMLID_1274_" class="st7" d="M1732.9,629.2h-53.2v-77c0-6.5,5.3-11.8,11.8-11.8h29.6c6.5,0,11.8,5.3,11.8,11.8
			L1732.9,629.2L1732.9,629.2z"/>
		<rect id="XMLID_1273_" x="1670.3" y="625.8" class="st8" width="72.2" height="6.9"/>
		<path id="XMLID_1271_" class="st8" d="M1691.7,582.7h8.9v8.9h-8.9V582.7z"/>
		<path id="XMLID_1269_" class="st8" d="M1712.1,582.7h8.9v8.9h-8.9V582.7z"/>
		<path id="XMLID_1267_" class="st8" d="M1691.7,561.4h8.9v8.9h-8.9V561.4z"/>
		<path id="XMLID_1265_" class="st8" d="M1712.1,561.4h8.9v8.9h-8.9V561.4z"/>
		<path id="XMLID_1263_" class="st8" d="M1699.7,605.8h13.2v20h-13.2V605.8z"/>
	</g>
	<path id="XMLID_457_" class="st0" d="M649.9,372.7l-17.2-17.2l0,0h-21c-4,0-7.2,3.2-7.2,7.2v41.4c0,4,3.2,7.2,7.2,7.2h31.1
		c4,0,7.2-3.2,7.2-7.2L649.9,372.7L649.9,372.7z"/>
	<g id="XMLID_367_">
		<path id="XMLID_371_" class="st14" d="M624.7,356.2v-10h-21.1c-4,0-7.2,3.2-7.2,7.2v41.4c0,4,3.2,7.2,7.2,7.2h31.1
			c4,0,7.2-3.2,7.2-7.2v-31.4l0,0h-10C627.9,363.4,624.7,360.2,624.7,356.2z"/>
		<path id="XMLID_368_" class="st14" d="M624.7,346.2v10c0,4,3.2,7.2,7.2,7.2h10L624.7,346.2L624.7,346.2z"/>
	</g>
	<g id="XMLID_362_">
		<path id="XMLID_364_" class="st15" d="M608,401.7l-0.7-1.4c0.4-1,0.8-2,1-3.1l1.3-0.8c0.8-0.4,2.1-1,2-1.8l-0.3-3.7
			c-0.1-0.9-1.5-1.1-2.3-1.4l-1.4-0.5c-0.4-1-0.9-2-1.5-2.9l0.4-1.5c0.2-0.9,0.8-2.2,0.1-2.7l-2.9-2.4c-0.7-0.6-1.9,0.2-2.7,0.6
			l-1.4,0.7c-1-0.4-2-0.8-3.1-1l-0.8-1.3c-0.4-0.8-1-2.1-1.8-2l-3.7,0.3c-0.9,0.1-1.1,1.5-1.4,2.3l-0.5,1.4c-1,0.4-2,0.9-2.9,1.5
			l-1.5-0.4c-0.9-0.2-2.2-0.8-2.7-0.1l-2.4,2.9c-0.6,0.7,0.2,1.8,0.6,2.6l0.7,1.4c-0.4,1-0.8,2-1,3.1l-1.3,0.8
			c-0.8,0.4-2.1,0.9-2,1.8l0.3,3.7c0.1,0.9,1.5,1.1,2.3,1.4l1.4,0.5c0.4,1,0.9,2,1.5,2.9l-0.4,1.5c-0.2,0.9-0.8,2.2-0.1,2.7l2.9,2.4
			c0.7,0.6,1.8-0.2,2.6-0.6l1.4-0.7c1,0.4,2,0.7,3.1,1l0.8,1.3c0.4,0.8,0.9,2.1,1.8,2l3.7-0.3c0.9-0.1,1.1-1.5,1.4-2.3l0.5-1.4
			c1-0.4,2-0.9,2.9-1.5l1.5,0.4c0.9,0.2,2.2,0.8,2.7,0.1l2.4-2.9C609.2,403.7,608.4,402.5,608,401.7z"/>
		<circle id="XMLID_363_" class="st16" cx="593.8" cy="394.4" r="5.9"/>
	</g>
	<path id="XMLID_2_" class="st6" d="M675.9,298.8h185.9"/>
	<path id="XMLID_3_" class="st6" d="M675.9,397.3H831"/>
	<g>
		<g>
			<path class="st17" d="M676.2,160.3c-0.6-0.7-0.9-1.5-0.9-2.5v-16.2c0-0.6,0-1.2,0.1-1.7c0.1-0.5,0.2-0.9,0.3-1.4
				c0.2-0.5,0.4-0.9,0.7-1.1c0.3-0.3,0.7-0.5,1.2-0.7c0.5-0.2,1.1-0.3,1.8-0.3h6.7c1.1,0,2.1,0.1,3,0.2c0.9,0.1,1.8,0.4,2.6,0.7
				c0.8,0.4,1.5,0.8,2.1,1.4c0.6,0.6,1,1.3,1.3,2.2c0.3,0.9,0.5,2,0.5,3.2c0,2.6-0.8,4.5-2.5,5.8c-1.7,1.3-4,2-7.1,2h-4.4v5.8
				c0,1-0.3,1.8-0.9,2.5c-0.6,0.7-1.4,1.1-2.2,1.1S676.8,161,676.2,160.3z M685,148.1c0.8,0,1.4-0.1,1.9-0.2c0.5-0.1,1-0.3,1.4-0.6
				c0.4-0.3,0.7-0.7,0.9-1.2c0.2-0.5,0.3-1.1,0.3-1.9c0-1.4-0.3-2.4-1-2.9c-0.7-0.5-1.7-0.7-3.2-0.7h-3.7v7.5H685z"/>
			<path class="st17" d="M699.8,160.4c-0.6-0.7-0.9-1.5-0.9-2.5v-17.8c0-1,0.3-1.8,0.9-2.5c0.6-0.7,1.4-1,2.2-1c0.9,0,1.6,0.3,2.2,1
				c0.6,0.7,0.9,1.5,0.9,2.5v5.9h8.9v-5.9c0-1,0.3-1.8,0.9-2.5c0.6-0.7,1.4-1.1,2.2-1.1c0.9,0,1.6,0.3,2.2,1
				c0.6,0.7,0.9,1.5,0.9,2.5v17.8c0,1-0.3,1.8-0.9,2.5c-0.6,0.7-1.4,1-2.2,1c-0.9,0-1.6-0.3-2.2-1c-0.6-0.7-0.9-1.5-0.9-2.5l0-6.7
				h-8.9v6.7c0,1-0.3,1.8-0.9,2.5c-0.6,0.7-1.4,1-2.2,1C701.2,161.4,700.5,161.1,699.8,160.4z"/>
			<path class="st17" d="M727.3,158.8c-2.1-2.2-3.1-5.4-3.1-9.8c0-4.3,1-7.6,3.1-9.8c2.1-2.2,5.1-3.3,9.1-3.3c4,0,7.1,1.1,9.1,3.3
				c2.1,2.2,3.1,5.4,3.1,9.8c0,4.3-1,7.6-3.1,9.8c-2.1,2.2-5.1,3.3-9.1,3.3C732.4,162,729.4,161,727.3,158.8z M740.8,155.6
				c0.9-1.3,1.3-3.4,1.3-6.5c0-3.1-0.4-5.3-1.3-6.6c-0.9-1.3-2.3-1.9-4.3-1.9c-1.4,0-2.4,0.3-3.2,0.8c-0.8,0.5-1.4,1.4-1.8,2.6
				c-0.4,1.2-0.6,2.9-0.6,5c0,3.1,0.4,5.3,1.3,6.5c0.9,1.3,2.3,1.9,4.3,1.9C738.5,157.5,739.9,156.8,740.8,155.6z"/>
			<path class="st17" d="M758.6,160.3c-0.6-0.7-0.9-1.5-0.9-2.5v-16.6H753c-0.7,0-1.2-0.2-1.7-0.7c-0.5-0.5-0.7-1-0.7-1.7
				s0.2-1.2,0.7-1.7c0.5-0.5,1.1-0.7,1.7-0.7h15.6c0.7,0,1.2,0.2,1.7,0.7c0.5,0.5,0.7,1,0.7,1.7c0,0.7-0.2,1.2-0.7,1.7
				c-0.5,0.5-1,0.7-1.7,0.7H764v16.6c0,1-0.3,1.8-0.9,2.5c-0.6,0.7-1.4,1.1-2.2,1.1C760,161.4,759.2,161,758.6,160.3z"/>
			<path class="st17" d="M776,158.8c-2.1-2.2-3.1-5.4-3.1-9.8c0-4.3,1-7.6,3.1-9.8c2.1-2.2,5.1-3.3,9.1-3.3c4,0,7.1,1.1,9.1,3.3
				c2.1,2.2,3.1,5.4,3.1,9.8c0,4.3-1,7.6-3.1,9.8c-2.1,2.2-5.1,3.3-9.1,3.3C781.1,162,778.1,161,776,158.8z M789.5,155.6
				c0.9-1.3,1.3-3.4,1.3-6.5c0-3.1-0.4-5.3-1.3-6.6c-0.9-1.3-2.3-1.9-4.3-1.9c-1.4,0-2.4,0.3-3.2,0.8c-0.8,0.5-1.4,1.4-1.8,2.6
				c-0.4,1.2-0.6,2.9-0.6,5c0,3.1,0.4,5.3,1.3,6.5c0.9,1.3,2.3,1.9,4.3,1.9C787.2,157.5,788.6,156.8,789.5,155.6z"/>
			<path class="st17" d="M802.3,160.2c-0.3-0.2-0.6-0.5-0.8-0.9c-0.2-0.4-0.2-0.7-0.2-1.1c0-0.4,0.1-0.7,0.3-1.1
				c0.2-0.4,0.4-0.6,0.7-0.8c0.3-0.2,0.7-0.3,1-0.4c0.4-0.1,0.8,0,1.3,0.3c1.9,0.8,3.8,1.2,5.8,1.2c1.3,0,2.3-0.2,3.1-0.7
				c0.8-0.4,1.2-1.1,1.2-2c0-1.2-0.9-2.1-2.6-2.7l-5.7-1.9c-2.1-0.8-3.6-1.7-4.5-2.6c-0.9-1-1.3-2.3-1.3-4c0-2.3,0.9-4.2,2.8-5.5
				c1.8-1.4,4.3-2.1,7.4-2.1c1.5,0,3,0.2,4.6,0.6c1.6,0.4,2.7,0.9,3.5,1.7c0.3,0.3,0.6,0.7,0.6,1.2c0.1,0.4,0.1,0.8-0.1,1.2
				c-0.1,0.4-0.3,0.7-0.6,1c-0.3,0.3-0.6,0.5-0.9,0.6c-0.4,0.1-0.7,0-1.1-0.1c-1-0.6-2-1-2.8-1.2c-0.8-0.2-1.9-0.3-3-0.3
				c-0.8,0-1.5,0.1-2.1,0.2c-0.6,0.2-1.2,0.4-1.6,0.8c-0.4,0.4-0.7,0.9-0.7,1.5c0,0.7,0.3,1.3,0.9,1.8c0.6,0.4,1.5,0.9,2.7,1.3
				c0.3,0.1,0.7,0.2,1.3,0.3c0.6,0.1,1,0.2,1.3,0.3c1,0.3,1.9,0.6,2.7,0.9c0.7,0.3,1.5,0.7,2.2,1.1c0.7,0.4,1.3,0.9,1.7,1.4
				c0.4,0.5,0.8,1.1,1,1.8c0.3,0.7,0.4,1.5,0.4,2.4c0,2.4-0.9,4.3-2.8,5.7c-1.8,1.4-4.3,2.1-7.5,2.1
				C807,162,804.3,161.4,802.3,160.2z"/>
			<path class="st17" d="M825.4,160.4c-0.6-0.7-0.9-1.5-0.9-2.5v-17.8c0-1,0.3-1.8,0.9-2.5c0.6-0.7,1.4-1,2.2-1c0.9,0,1.6,0.3,2.2,1
				c0.6,0.7,0.9,1.5,0.9,2.5v5.9h8.9v-5.9c0-1,0.3-1.8,0.9-2.5c0.6-0.7,1.4-1.1,2.2-1.1c0.9,0,1.6,0.3,2.2,1
				c0.6,0.7,0.9,1.5,0.9,2.5v17.8c0,1-0.3,1.8-0.9,2.5c-0.6,0.7-1.4,1-2.2,1c-0.9,0-1.6-0.3-2.2-1c-0.6-0.7-0.9-1.5-0.9-2.5l0-6.7
				h-8.9v6.7c0,1-0.3,1.8-0.9,2.5c-0.6,0.7-1.4,1-2.2,1C826.8,161.4,826,161.1,825.4,160.4z"/>
			<path class="st17" d="M852.9,158.8c-2.1-2.2-3.1-5.4-3.1-9.8c0-4.3,1-7.6,3.1-9.8c2.1-2.2,5.1-3.3,9.1-3.3c4,0,7.1,1.1,9.1,3.3
				c2.1,2.2,3.1,5.4,3.1,9.8c0,4.3-1,7.6-3.1,9.8C869,161,866,162,862,162C858,162,854.9,161,852.9,158.8z M866.3,155.6
				c0.9-1.3,1.3-3.4,1.3-6.5c0-3.1-0.4-5.3-1.3-6.6c-0.9-1.3-2.3-1.9-4.3-1.9c-1.4,0-2.4,0.3-3.2,0.8c-0.8,0.5-1.4,1.4-1.8,2.6
				c-0.4,1.2-0.6,2.9-0.6,5c0,3.1,0.4,5.3,1.3,6.5c0.9,1.3,2.3,1.9,4.3,1.9C864,157.5,865.5,156.8,866.3,155.6z"/>
			<path class="st17" d="M879.4,160.3c-0.6-0.7-0.9-1.5-0.9-2.5v-16.2c0-0.6,0-1.2,0.1-1.7c0.1-0.5,0.2-0.9,0.3-1.4
				c0.2-0.5,0.4-0.9,0.7-1.1c0.3-0.3,0.7-0.5,1.2-0.7c0.5-0.2,1.1-0.3,1.8-0.3h6.7c1.1,0,2.1,0.1,3,0.2c0.9,0.1,1.8,0.4,2.6,0.7
				c0.8,0.4,1.5,0.8,2.1,1.4c0.6,0.6,1,1.3,1.3,2.2c0.3,0.9,0.5,2,0.5,3.2c0,2.6-0.8,4.5-2.5,5.8c-1.7,1.3-4,2-7.1,2h-4.4v5.8
				c0,1-0.3,1.8-0.9,2.5c-0.6,0.7-1.4,1.1-2.2,1.1C880.8,161.4,880,161,879.4,160.3z M888.2,148.1c0.8,0,1.4-0.1,1.9-0.2
				c0.5-0.1,1-0.3,1.4-0.6c0.4-0.3,0.7-0.7,0.9-1.2c0.2-0.5,0.3-1.1,0.3-1.9c0-1.4-0.3-2.4-1-2.9c-0.7-0.5-1.7-0.7-3.2-0.7h-3.7v7.5
				H888.2z"/>
		</g>
	</g>
	<g>
		<g>
			<path class="st17" d="M676.4,262.9c-0.6-0.7-0.9-1.5-0.9-2.5v-17.8c0-1,0.3-1.8,0.9-2.5c0.6-0.7,1.4-1.1,2.2-1.1
				c0.9,0,1.6,0.4,2.2,1.1c0.6,0.7,0.9,1.5,0.9,2.5v17.8c0,1-0.3,1.8-0.9,2.5c-0.6,0.7-1.4,1-2.2,1
				C677.7,263.9,677,263.6,676.4,262.9z"/>
			<path class="st17" d="M688.3,263.1c-0.5-0.5-0.8-1.2-1-1.9c-0.2-0.7-0.3-1.6-0.3-2.5v-16.2c0-1,0.3-1.8,0.9-2.5
				c0.6-0.7,1.4-1,2.2-1c0.9,0,1.6,0.3,2.2,1c0.6,0.7,0.9,1.5,0.9,2.5l0,16.6h8.6c0.6,0,1.2,0.2,1.6,0.7c0.4,0.5,0.7,1,0.7,1.7
				c0,0.7-0.2,1.2-0.7,1.7c-0.4,0.5-1,0.7-1.6,0.7h-11.7C689.4,263.9,688.8,263.7,688.3,263.1z"/>
			<path class="st17" d="M708.6,263.1c-0.5-0.5-0.8-1.2-1-1.9c-0.2-0.7-0.3-1.6-0.3-2.5v-16.2c0-1,0.3-1.8,0.9-2.5
				c0.6-0.7,1.4-1,2.2-1c0.9,0,1.6,0.3,2.2,1c0.6,0.7,0.9,1.5,0.9,2.5l0,16.6h8.6c0.6,0,1.2,0.2,1.6,0.7c0.4,0.5,0.7,1,0.7,1.7
				c0,0.7-0.2,1.2-0.7,1.7c-0.4,0.5-1,0.7-1.6,0.7h-11.7C709.8,263.9,709.1,263.7,708.6,263.1z"/>
			<path class="st17" d="M733.9,264c-1.3-0.4-2.4-0.9-3.4-1.7c-1-0.7-1.7-1.7-2.2-2.8c-0.5-1.2-0.8-2.5-0.8-4v-12.9
				c0-1,0.3-1.8,0.9-2.5c0.6-0.7,1.4-1,2.2-1c0.9,0,1.6,0.3,2.2,1c0.6,0.7,0.9,1.5,0.9,2.5v12.8c0,1.5,0.4,2.6,1.3,3.4
				c0.9,0.8,1.9,1.2,3.1,1.2c1.2,0,2.2-0.4,3.1-1.2c0.9-0.8,1.3-1.9,1.3-3.4v-12.8c0-1,0.3-1.8,0.9-2.5c0.6-0.7,1.4-1,2.2-1
				c0.9,0,1.6,0.3,2.2,1c0.6,0.7,0.9,1.5,0.9,2.5v12.9c0,1.9-0.5,3.6-1.4,5c-0.9,1.4-2.2,2.4-3.8,3.1c-1.6,0.7-3.4,1-5.5,1
				C736.6,264.6,735.2,264.4,733.9,264z"/>
			<path class="st17" d="M754.4,262.7c-0.3-0.2-0.6-0.5-0.8-0.9c-0.2-0.4-0.2-0.7-0.2-1.1c0-0.4,0.1-0.7,0.3-1.1
				c0.2-0.4,0.4-0.6,0.7-0.8c0.3-0.2,0.7-0.3,1-0.4c0.4-0.1,0.8,0,1.3,0.3c1.9,0.8,3.8,1.2,5.8,1.2c1.3,0,2.3-0.2,3.1-0.7
				c0.8-0.4,1.2-1.1,1.2-2c0-1.2-0.9-2.1-2.6-2.7l-5.7-1.9c-2.1-0.8-3.6-1.7-4.5-2.6c-0.9-1-1.3-2.3-1.3-4c0-2.3,0.9-4.2,2.8-5.5
				c1.8-1.4,4.3-2.1,7.4-2.1c1.5,0,3,0.2,4.6,0.6c1.6,0.4,2.7,0.9,3.5,1.7c0.3,0.3,0.6,0.7,0.6,1.2c0.1,0.4,0.1,0.8-0.1,1.2
				c-0.1,0.4-0.3,0.7-0.6,1c-0.3,0.3-0.6,0.5-0.9,0.6c-0.4,0.1-0.7,0-1.1-0.1c-1-0.6-2-1-2.8-1.2c-0.8-0.2-1.9-0.3-3-0.3
				c-0.8,0-1.5,0.1-2.1,0.2c-0.6,0.2-1.2,0.4-1.6,0.8c-0.4,0.4-0.7,0.9-0.7,1.5c0,0.7,0.3,1.3,0.9,1.8c0.6,0.4,1.5,0.9,2.7,1.3
				c0.3,0.1,0.7,0.2,1.3,0.3c0.6,0.1,1,0.2,1.3,0.3c1,0.3,1.9,0.6,2.7,0.9c0.7,0.3,1.5,0.7,2.2,1.1c0.7,0.4,1.3,0.9,1.7,1.4
				c0.4,0.5,0.8,1.1,1,1.8c0.3,0.7,0.4,1.5,0.4,2.4c0,2.4-0.9,4.3-2.8,5.7c-1.8,1.4-4.3,2.1-7.5,2.1
				C759.2,264.6,756.4,264,754.4,262.7z"/>
			<path class="st17" d="M782.3,262.9c-0.6-0.7-0.9-1.5-0.9-2.5v-16.6h-4.7c-0.7,0-1.2-0.2-1.7-0.7c-0.5-0.5-0.7-1-0.7-1.7
				s0.2-1.2,0.7-1.7c0.5-0.5,1.1-0.7,1.7-0.7h15.6c0.7,0,1.2,0.2,1.7,0.7c0.5,0.5,0.7,1,0.7,1.7c0,0.7-0.2,1.2-0.7,1.7
				c-0.5,0.5-1,0.7-1.7,0.7h-4.6v16.6c0,1-0.3,1.8-0.9,2.5c-0.6,0.7-1.4,1.1-2.2,1.1C783.6,263.9,782.9,263.6,782.3,262.9z"/>
			<path class="st17" d="M798.3,263c-0.6-0.6-0.9-1.5-0.9-2.6v-18c0-1.1,0.4-1.9,1.1-2.5c0.7-0.6,1.7-0.8,2.8-0.8h6.9
				c1.1,0,2.1,0,2.9,0.1c0.9,0.1,1.7,0.3,2.6,0.6s1.6,0.6,2.1,1.1c0.6,0.5,1,1.1,1.4,1.8c0.4,0.8,0.5,1.6,0.5,2.6
				c0,3.3-1.8,5.2-5.5,5.8v0.1c0.9,0.1,1.7,0.3,2.3,0.5c0.6,0.2,1.1,0.6,1.4,1s0.7,1,0.9,1.6c0.2,0.6,0.3,1.4,0.5,2.4l0.3,2.3
				c0.2,1.8,0.1,3-0.4,3.8c-0.4,0.8-1.3,1.2-2.5,1.2c-1,0-1.8-0.3-2.3-1c-0.5-0.7-0.8-1.7-1-3.2l-0.3-2.2c-0.1-1.3-0.5-2.2-1.1-2.8
				c-0.6-0.6-1.6-0.9-2.9-0.9h-3.5v6.6c0,1.2-0.3,2-0.9,2.6c-0.6,0.6-1.3,0.9-2.3,0.9C799.7,263.9,798.9,263.6,798.3,263z
				 M806.4,249.7c0.7,0,1.3,0,1.9-0.1c0.5-0.1,1.1-0.2,1.6-0.5c0.5-0.2,1-0.6,1.3-1c0.3-0.5,0.4-1,0.4-1.7c0-0.5-0.1-0.9-0.2-1.2
				c-0.1-0.4-0.2-0.7-0.4-0.9s-0.4-0.4-0.7-0.6c-0.3-0.2-0.6-0.3-0.8-0.4c-0.3-0.1-0.6-0.2-1-0.2c-0.4,0-0.8-0.1-1.1-0.1
				c-0.3,0-0.7,0-1.2,0h-2.6v6.8H806.4z"/>
			<path class="st17" d="M837.4,258.3h-10l-1.1,3.2c-0.3,0.8-0.7,1.4-1.2,1.8c-0.6,0.4-1.1,0.6-1.7,0.6c-0.6,0-1.1-0.2-1.6-0.5
				s-0.8-0.8-1-1.5c-0.2-0.7-0.1-1.4,0.1-2.2l6.2-16.1c0.3-1,0.7-1.8,1.1-2.4c0.4-0.7,0.8-1.2,1.3-1.5c0.5-0.3,0.9-0.6,1.4-0.7
				c0.4-0.1,1-0.2,1.5-0.2c0.6,0,1.1,0.1,1.5,0.2c0.5,0.1,0.9,0.4,1.4,0.7c0.5,0.3,0.9,0.8,1.3,1.5c0.4,0.7,0.8,1.5,1.1,2.4
				l6.2,16.1c0.3,0.8,0.3,1.6,0.1,2.2c-0.2,0.7-0.5,1.2-1,1.5c-0.5,0.3-1,0.5-1.6,0.5c-0.6,0-1.1-0.2-1.7-0.6c-0.6-0.4-1-1-1.2-1.8
				L837.4,258.3z M832.3,244l-3.8,10.7h7.5L832.3,244z"/>
			<path class="st17" d="M853.3,262.9c-0.6-0.7-0.9-1.5-0.9-2.5v-16.6h-4.7c-0.7,0-1.2-0.2-1.7-0.7c-0.5-0.5-0.7-1-0.7-1.7
				s0.2-1.2,0.7-1.7c0.5-0.5,1.1-0.7,1.7-0.7h15.6c0.7,0,1.2,0.2,1.7,0.7c0.5,0.5,0.7,1,0.7,1.7c0,0.7-0.2,1.2-0.7,1.7
				c-0.5,0.5-1,0.7-1.7,0.7h-4.6v16.6c0,1-0.3,1.8-0.9,2.5c-0.6,0.7-1.4,1.1-2.2,1.1C854.6,263.9,853.9,263.6,853.3,262.9z"/>
			<path class="st17" d="M870.7,261.3c-2.1-2.2-3.1-5.4-3.1-9.8c0-4.3,1-7.6,3.1-9.8c2.1-2.2,5.1-3.3,9.1-3.3c4,0,7.1,1.1,9.1,3.3
				c2.1,2.2,3.1,5.4,3.1,9.8c0,4.3-1,7.6-3.1,9.8c-2.1,2.2-5.1,3.3-9.1,3.3C875.8,264.6,872.8,263.5,870.7,261.3z M884.2,258.1
				c0.9-1.3,1.3-3.4,1.3-6.5c0-3.1-0.4-5.3-1.3-6.6c-0.9-1.3-2.3-1.9-4.3-1.9c-1.4,0-2.4,0.3-3.2,0.8c-0.8,0.5-1.4,1.4-1.8,2.6
				c-0.4,1.2-0.6,2.9-0.6,5c0,3.1,0.4,5.3,1.3,6.5c0.9,1.3,2.3,1.9,4.3,1.9C881.9,260,883.3,259.3,884.2,258.1z"/>
			<path class="st17" d="M897.2,263c-0.6-0.6-0.9-1.5-0.9-2.6v-18c0-1.1,0.4-1.9,1.1-2.5c0.7-0.6,1.7-0.8,2.8-0.8h6.9
				c1.1,0,2.1,0,2.9,0.1c0.9,0.1,1.7,0.3,2.6,0.6s1.6,0.6,2.1,1.1c0.6,0.5,1,1.1,1.4,1.8c0.4,0.8,0.5,1.6,0.5,2.6
				c0,3.3-1.8,5.2-5.5,5.8v0.1c0.9,0.1,1.7,0.3,2.3,0.5c0.6,0.2,1.1,0.6,1.4,1s0.7,1,0.9,1.6c0.2,0.6,0.3,1.4,0.5,2.4l0.3,2.3
				c0.2,1.8,0.1,3-0.4,3.8c-0.5,0.8-1.3,1.2-2.5,1.2c-1,0-1.8-0.3-2.3-1c-0.5-0.7-0.8-1.7-1-3.2l-0.3-2.2c-0.1-1.3-0.5-2.2-1.1-2.8
				c-0.6-0.6-1.6-0.9-2.9-0.9h-3.5v6.6c0,1.2-0.3,2-0.9,2.6c-0.6,0.6-1.3,0.9-2.3,0.9C898.6,263.9,897.8,263.6,897.2,263z
				 M905.3,249.7c0.7,0,1.3,0,1.9-0.1c0.5-0.1,1.1-0.2,1.6-0.5c0.5-0.2,1-0.6,1.3-1c0.3-0.5,0.4-1,0.4-1.7c0-0.5-0.1-0.9-0.2-1.2
				c-0.1-0.4-0.2-0.7-0.4-0.9s-0.4-0.4-0.7-0.6c-0.3-0.2-0.6-0.3-0.8-0.4c-0.3-0.1-0.6-0.2-1-0.2c-0.4,0-0.8-0.1-1.1-0.1
				c-0.3,0-0.7,0-1.2,0h-2.6v6.8H905.3z"/>
		</g>
	</g>
	<g>
		<g>
			<path class="st17" d="M676.2,370.5c-0.6-0.7-0.9-1.5-0.9-2.5v-17.8c0-1,0.3-1.8,0.9-2.5c0.6-0.7,1.4-1,2.2-1c0.9,0,1.6,0.3,2.2,1
				c0.6,0.7,0.9,1.5,0.9,2.5v5.9h8.9v-5.9c0-1,0.3-1.8,0.9-2.5c0.6-0.7,1.4-1.1,2.2-1.1s1.6,0.3,2.2,1c0.6,0.7,0.9,1.5,0.9,2.5V368
				c0,1-0.3,1.8-0.9,2.5c-0.6,0.7-1.4,1-2.2,1s-1.6-0.3-2.2-1c-0.6-0.7-0.9-1.5-0.9-2.5l0-6.7h-8.9v6.7c0,1-0.3,1.8-0.9,2.5
				c-0.6,0.7-1.4,1-2.2,1C677.6,371.6,676.8,371.2,676.2,370.5z"/>
			<path class="st17" d="M706.5,370.5c-0.6-0.7-0.9-1.5-0.9-2.5v-16.6h-4.7c-0.7,0-1.2-0.2-1.7-0.7c-0.5-0.5-0.7-1-0.7-1.7
				s0.2-1.2,0.7-1.7c0.5-0.5,1.1-0.7,1.7-0.7h15.6c0.7,0,1.2,0.2,1.7,0.7c0.5,0.5,0.7,1,0.7,1.7c0,0.7-0.2,1.2-0.7,1.7
				c-0.5,0.5-1,0.7-1.7,0.7h-4.6V368c0,1-0.3,1.8-0.9,2.5c-0.6,0.7-1.4,1.1-2.2,1.1C707.8,371.6,707.1,371.2,706.5,370.5z"/>
			<path class="st17" d="M734,369.6c-0.5-0.5-1-1.5-1.5-2.7L727,353v16.4c0,0.5-0.1,0.9-0.3,1.3c-0.2,0.4-0.4,0.7-0.8,0.9
				s-0.7,0.3-1,0.4c-0.4,0.1-0.8,0.1-1.1,0c-0.4-0.1-0.7-0.2-1-0.4c-0.3-0.2-0.6-0.5-0.8-0.9c-0.2-0.4-0.3-0.8-0.3-1.3l0-18.3
				c0-0.6,0.1-1.3,0.4-1.8s0.6-1,1.1-1.4c0.5-0.4,1-0.7,1.5-0.9c0.6-0.2,1.2-0.3,1.8-0.2c0.6,0.1,1.2,0.2,1.8,0.5
				c0.6,0.3,1.1,0.7,1.7,1.3c0.5,0.6,1,1.4,1.3,2.3l5,12.3l5-12.3c0.3-0.9,0.8-1.7,1.3-2.3c0.5-0.6,1.1-1.1,1.7-1.3
				c0.6-0.3,1.2-0.4,1.8-0.5c0.6-0.1,1.2,0,1.8,0.2c0.6,0.2,1.1,0.5,1.5,0.9c0.5,0.4,0.8,0.8,1.1,1.4c0.3,0.6,0.4,1.2,0.4,1.8
				l0,18.3c0,0.6-0.1,1-0.4,1.5c-0.3,0.4-0.6,0.7-1,0.9c-0.4,0.2-0.8,0.3-1.3,0.3c-0.5,0-0.9-0.1-1.3-0.3c-0.4-0.2-0.7-0.5-1-0.9
				c-0.3-0.4-0.4-0.9-0.4-1.5l0-16.4l-5.6,13.9c-0.5,1.3-1,2.2-1.5,2.7c-0.5,0.5-1.2,0.8-2.2,0.8C735.3,370.4,734.5,370.1,734,369.6
				z"/>
			<path class="st17" d="M757.2,370.8c-0.5-0.5-0.8-1.2-1-1.9c-0.2-0.7-0.3-1.6-0.3-2.5v-16.2c0-1,0.3-1.8,0.9-2.5
				c0.6-0.7,1.4-1,2.2-1c0.9,0,1.6,0.3,2.2,1c0.6,0.7,0.9,1.5,0.9,2.5l0,16.6h8.6c0.6,0,1.2,0.2,1.6,0.7c0.4,0.5,0.7,1,0.7,1.7
				c0,0.7-0.2,1.2-0.7,1.7c-0.4,0.5-1,0.7-1.6,0.7h-11.7C758.3,371.6,757.7,371.3,757.2,370.8z"/>
			<path class="st17" d="M775.3,372.9c-0.4-0.3-0.6-0.7-0.6-1.2c0-0.3,0.1-0.9,0.4-1.9l7.3-21c0.5-1.6,1.1-2.4,1.9-2.4
				c0.5,0,0.9,0.2,1.2,0.5c0.3,0.3,0.5,0.7,0.5,1.3c0,0.4-0.1,1-0.4,1.7l-7.6,22.2c-0.3,0.8-0.8,1.2-1.6,1.2
				C776.1,373.3,775.7,373.2,775.3,372.9z"/>
			<path class="st17" d="M796.4,371.4c-1.5-0.6-2.8-1.4-3.9-2.4c-1.1-1.1-2-2.4-2.6-4c-0.6-1.6-1-3.5-1-5.5c0-2.1,0.3-3.9,1-5.6
				c0.6-1.7,1.5-3.1,2.7-4.2c1.1-1.1,2.5-2,4-2.6c1.5-0.6,3.2-0.9,5-0.9c1.5,0,2.9,0.2,4.2,0.5c0.8,0.2,1.7,0.6,2.8,1.2
				c0.4,0.2,0.7,0.5,0.9,0.9c0.2,0.3,0.3,0.7,0.4,1c0,0.3,0,0.7,0,1c-0.1,0.3-0.2,0.6-0.4,0.9c-0.2,0.3-0.4,0.5-0.7,0.6
				c-0.3,0.2-0.6,0.3-0.9,0.3c-0.4,0-0.8-0.1-1.2-0.2c-1.7-0.8-3.3-1.1-4.7-1.1c-0.8,0-1.4,0.1-2,0.2s-1.2,0.3-1.8,0.7
				c-0.6,0.3-1.1,0.8-1.4,1.4c-0.4,0.6-0.7,1.4-0.9,2.4c-0.2,1-0.4,2.2-0.4,3.5c0,2.6,0.5,4.6,1.6,6c1,1.4,2.6,2,4.7,2
				c0.9,0,1.8-0.1,2.9-0.4c1.1-0.3,2-0.7,2.9-1.1c0.5-0.3,1-0.3,1.6,0.1c0.6,0.3,0.9,0.9,1,1.6c0.2,1-0.2,1.8-1.2,2.6
				c-2,1.6-4.6,2.3-7.7,2.3C799.5,372.2,797.9,372,796.4,371.4z"/>
			<path class="st17" d="M814.3,370.4c-0.3-0.2-0.6-0.5-0.8-0.9c-0.2-0.4-0.2-0.7-0.2-1.1c0-0.4,0.1-0.7,0.3-1.1
				c0.2-0.4,0.4-0.6,0.7-0.8c0.3-0.2,0.7-0.3,1-0.4c0.4-0.1,0.8,0,1.3,0.3c1.9,0.8,3.8,1.2,5.8,1.2c1.3,0,2.3-0.2,3.1-0.7
				c0.8-0.4,1.2-1.1,1.2-2c0-1.2-0.9-2.1-2.6-2.7l-5.7-1.9c-2.1-0.8-3.6-1.7-4.5-2.6c-0.9-1-1.3-2.3-1.3-4c0-2.3,0.9-4.2,2.8-5.5
				c1.8-1.4,4.3-2.1,7.4-2.1c1.5,0,3,0.2,4.6,0.6c1.6,0.4,2.7,0.9,3.5,1.7c0.3,0.3,0.6,0.7,0.6,1.2c0.1,0.4,0.1,0.8-0.1,1.2
				c-0.1,0.4-0.3,0.7-0.6,1c-0.3,0.3-0.6,0.5-0.9,0.6c-0.4,0.1-0.7,0-1.1-0.1c-1-0.6-2-1-2.8-1.2c-0.8-0.2-1.9-0.3-3-0.3
				c-0.8,0-1.5,0.1-2.1,0.2c-0.6,0.2-1.2,0.4-1.6,0.8c-0.4,0.4-0.7,0.9-0.7,1.5c0,0.7,0.3,1.3,0.9,1.8c0.6,0.4,1.5,0.9,2.7,1.3
				c0.3,0.1,0.7,0.2,1.3,0.3c0.6,0.1,1,0.2,1.3,0.3c1,0.3,1.9,0.6,2.7,0.9c0.7,0.3,1.5,0.7,2.2,1.1c0.7,0.4,1.3,0.9,1.7,1.4
				c0.4,0.5,0.8,1.1,1,1.8c0.3,0.7,0.4,1.5,0.4,2.4c0,2.4-0.9,4.3-2.8,5.7c-1.8,1.4-4.3,2.1-7.5,2.1
				C819.1,372.2,816.3,371.6,814.3,370.4z"/>
			<path class="st17" d="M837.1,370.4c-0.3-0.2-0.6-0.5-0.8-0.9c-0.2-0.4-0.2-0.7-0.2-1.1c0-0.4,0.1-0.7,0.3-1.1
				c0.2-0.4,0.4-0.6,0.7-0.8c0.3-0.2,0.7-0.3,1-0.4c0.4-0.1,0.8,0,1.3,0.3c1.9,0.8,3.8,1.2,5.8,1.2c1.3,0,2.3-0.2,3.1-0.7
				c0.8-0.4,1.2-1.1,1.2-2c0-1.2-0.9-2.1-2.6-2.7l-5.7-1.9c-2.1-0.8-3.6-1.7-4.5-2.6c-0.9-1-1.3-2.3-1.3-4c0-2.3,0.9-4.2,2.8-5.5
				c1.8-1.4,4.3-2.1,7.4-2.1c1.5,0,3,0.2,4.6,0.6c1.6,0.4,2.7,0.9,3.5,1.7c0.3,0.3,0.6,0.7,0.6,1.2c0.1,0.4,0.1,0.8-0.1,1.2
				c-0.1,0.4-0.3,0.7-0.6,1c-0.3,0.3-0.6,0.5-0.9,0.6c-0.4,0.1-0.7,0-1.1-0.1c-1-0.6-2-1-2.8-1.2c-0.8-0.2-1.9-0.3-3-0.3
				c-0.8,0-1.5,0.1-2.1,0.2c-0.6,0.2-1.2,0.4-1.6,0.8c-0.4,0.4-0.7,0.9-0.7,1.5c0,0.7,0.3,1.3,0.9,1.8c0.6,0.4,1.5,0.9,2.7,1.3
				c0.3,0.1,0.7,0.2,1.3,0.3c0.6,0.1,1,0.2,1.3,0.3c1,0.3,1.9,0.6,2.7,0.9c0.7,0.3,1.5,0.7,2.2,1.1c0.7,0.4,1.3,0.9,1.7,1.4
				c0.4,0.5,0.8,1.1,1,1.8c0.3,0.7,0.4,1.5,0.4,2.4c0,2.4-0.9,4.3-2.8,5.7c-1.8,1.4-4.3,2.1-7.5,2.1
				C841.9,372.2,839.1,371.6,837.1,370.4z"/>
		</g>
	</g>
	<g>
		<g>
			<path class="st17" d="M1832.7,174.1c-1.5-0.6-2.8-1.4-3.9-2.4c-1.1-1.1-2-2.4-2.6-4c-0.6-1.6-1-3.5-1-5.5c0-2.1,0.3-3.9,1-5.6
				c0.6-1.7,1.5-3.1,2.7-4.2c1.1-1.1,2.5-2,4-2.6c1.5-0.6,3.2-0.9,5-0.9c1.5,0,2.9,0.2,4.2,0.5c0.8,0.2,1.7,0.6,2.8,1.2
				c0.4,0.2,0.7,0.5,0.9,0.9c0.2,0.3,0.3,0.7,0.4,1c0,0.3,0,0.7,0,1c-0.1,0.3-0.2,0.6-0.4,0.9c-0.2,0.3-0.4,0.5-0.7,0.6
				c-0.3,0.2-0.6,0.3-0.9,0.3c-0.4,0-0.8-0.1-1.2-0.2c-1.7-0.8-3.3-1.1-4.7-1.1c-0.8,0-1.4,0.1-2,0.2c-0.6,0.1-1.2,0.3-1.8,0.7
				s-1.1,0.8-1.4,1.4c-0.4,0.6-0.7,1.4-0.9,2.4c-0.2,1-0.4,2.2-0.4,3.5c0,2.6,0.5,4.6,1.6,6c1,1.4,2.6,2,4.7,2
				c0.9,0,1.8-0.1,2.9-0.4c1.1-0.3,2-0.7,2.9-1.1c0.5-0.3,1-0.3,1.6,0.1c0.6,0.3,0.9,0.9,1,1.6c0.2,1-0.2,1.8-1.2,2.6
				c-2,1.6-4.6,2.3-7.7,2.3C1835.8,174.9,1834.2,174.6,1832.7,174.1z"/>
			<path class="st17" d="M1852.2,171.6c-2.1-2.2-3.1-5.4-3.1-9.8c0-4.3,1-7.6,3.1-9.8c2.1-2.2,5.1-3.3,9.1-3.3c4,0,7.1,1.1,9.1,3.3
				c2.1,2.2,3.1,5.4,3.1,9.8c0,4.3-1,7.6-3.1,9.8c-2.1,2.2-5.1,3.3-9.1,3.3C1857.3,174.9,1854.3,173.8,1852.2,171.6z M1865.7,168.4
				c0.9-1.3,1.3-3.4,1.3-6.5c0-3.1-0.4-5.3-1.3-6.6s-2.3-1.9-4.3-1.9c-1.4,0-2.4,0.3-3.2,0.8c-0.8,0.5-1.4,1.4-1.8,2.6
				c-0.4,1.2-0.6,2.9-0.6,5c0,3.1,0.4,5.3,1.3,6.5c0.9,1.3,2.3,1.9,4.3,1.9C1863.4,170.3,1864.8,169.7,1865.7,168.4z"/>
			<path class="st17" d="M1884.1,174.3c-1.3-0.4-2.4-0.9-3.4-1.7c-1-0.7-1.7-1.7-2.2-2.8s-0.8-2.5-0.8-4V153c0-1,0.3-1.8,0.9-2.5
				c0.6-0.7,1.4-1,2.2-1c0.9,0,1.6,0.3,2.2,1c0.6,0.7,0.9,1.5,0.9,2.5v12.8c0,1.5,0.4,2.6,1.3,3.4c0.9,0.8,1.9,1.2,3.1,1.2
				c1.2,0,2.2-0.4,3.1-1.2c0.9-0.8,1.3-1.9,1.3-3.4V153c0-1,0.3-1.8,0.9-2.5c0.6-0.7,1.4-1,2.2-1c0.9,0,1.6,0.3,2.2,1
				c0.6,0.7,0.9,1.5,0.9,2.5v12.9c0,1.9-0.5,3.6-1.4,5c-0.9,1.4-2.2,2.4-3.8,3.1s-3.4,1-5.5,1
				C1886.8,174.9,1885.4,174.7,1884.1,174.3z"/>
			<path class="st17" d="M1904.9,173.2c-0.6-0.7-0.9-1.5-0.9-2.5v-16.2c0-0.6,0-1.2,0.1-1.7c0.1-0.5,0.2-0.9,0.3-1.4
				c0.2-0.5,0.4-0.9,0.7-1.1c0.3-0.3,0.7-0.5,1.2-0.7c0.5-0.2,1.1-0.3,1.8-0.3h6.7c1.1,0,2.1,0.1,3,0.2c0.9,0.1,1.8,0.4,2.6,0.7
				c0.8,0.4,1.5,0.8,2.1,1.4c0.6,0.6,1,1.3,1.3,2.2c0.3,0.9,0.5,2,0.5,3.2c0,2.6-0.8,4.5-2.5,5.8c-1.7,1.3-4,2-7.1,2h-4.4v5.8
				c0,1-0.3,1.8-0.9,2.5c-0.6,0.7-1.4,1.1-2.2,1.1S1905.5,173.9,1904.9,173.2z M1913.7,161c0.8,0,1.4-0.1,1.9-0.2
				c0.5-0.1,1-0.3,1.4-0.6c0.4-0.3,0.7-0.7,0.9-1.2c0.2-0.5,0.3-1.1,0.3-1.9c0-1.4-0.3-2.4-1-2.9c-0.7-0.5-1.7-0.7-3.2-0.7h-3.7v7.5
				H1913.7z"/>
			<path class="st17" d="M1942.8,168.6h-10l-1.1,3.2c-0.3,0.8-0.7,1.4-1.2,1.8c-0.6,0.4-1.1,0.6-1.7,0.6s-1.1-0.2-1.6-0.5
				c-0.5-0.3-0.8-0.8-1-1.5c-0.2-0.7-0.1-1.4,0.1-2.2l6.2-16.1c0.3-1,0.7-1.8,1.1-2.4c0.4-0.7,0.8-1.2,1.3-1.5s0.9-0.6,1.4-0.7
				c0.4-0.1,1-0.2,1.5-0.2c0.6,0,1.1,0.1,1.5,0.2c0.4,0.1,0.9,0.4,1.4,0.7c0.5,0.3,0.9,0.8,1.3,1.5c0.4,0.7,0.8,1.5,1.1,2.4
				l6.2,16.1c0.3,0.8,0.3,1.6,0.1,2.2c-0.2,0.7-0.5,1.2-1,1.5c-0.5,0.3-1,0.5-1.6,0.5c-0.6,0-1.1-0.2-1.7-0.6c-0.6-0.4-1-1-1.2-1.8
				L1942.8,168.6z M1937.7,154.3L1934,165h7.5L1937.7,154.3z"/>
			<path class="st17" d="M1953.8,173.4c-0.5-0.6-0.8-1.2-0.8-2V153c0-1.1,0.3-2,0.9-2.7c0.6-0.7,1.3-1,2.2-1c1.2,0,2.5,1,3.8,2.9
				l10.1,13.1v-13.2c0-0.8,0.3-1.4,0.8-2c0.5-0.6,1.1-0.8,1.9-0.8s1.4,0.3,1.9,0.8c0.5,0.6,0.8,1.2,0.8,2v16.9c0,0.8,0,1.4-0.1,2
				s-0.2,1.1-0.4,1.6s-0.5,0.9-0.9,1.2c-0.4,0.3-0.9,0.4-1.6,0.4c-0.7,0-1.3-0.3-1.9-0.8c-0.6-0.5-1.2-1.2-1.9-2.1l-10.2-13.4v13.5
				c0,0.8-0.3,1.4-0.8,2c-0.5,0.6-1.2,0.8-1.9,0.8C1954.9,174.2,1954.3,174,1953.8,173.4z"/>
			<path class="st17" d="M1983.1,171.7c-2.3-2.1-3.4-5.4-3.4-9.8c0-1.8,0.3-3.5,0.8-5.1c0.5-1.5,1.3-2.9,2.3-4.1
				c1-1.2,2.4-2.1,4.1-2.8c1.7-0.7,3.6-1,5.8-1c1.5,0,2.9,0.2,4.4,0.6c1.5,0.4,2.7,0.9,3.6,1.6c0.4,0.3,0.7,0.6,0.8,0.9
				c0.2,0.4,0.3,0.7,0.3,1.1c0,0.6-0.2,1.1-0.6,1.6c-0.4,0.5-0.9,0.7-1.5,0.7c-0.3,0-0.7-0.1-1.1-0.4c-0.7-0.4-1.5-0.7-2.6-1
				s-2.1-0.4-3-0.4c-2.3,0-4,0.7-5.1,2.2s-1.7,3.6-1.7,6.4c0,1.5,0.2,2.8,0.5,3.8c0.3,1,0.8,1.9,1.5,2.4c0.6,0.6,1.3,1,2.1,1.2
				c0.8,0.3,1.7,0.4,2.7,0.4c1.1,0,2.3-0.2,3.7-0.5v-5.1h-2.3c-0.8,0-1.4-0.1-1.8-0.4c-0.4-0.3-0.6-0.7-0.6-1.4
				c0-1.2,0.7-1.8,2.1-1.8c0.7,0,1.8,0,3.2,0c1.4,0,2.5,0,3.2,0c0.8,0,1.4,0.2,1.7,0.7c0.3,0.5,0.4,1.3,0.4,2.4v4.5
				c0,0.9,0,1.5-0.1,2.1c-0.1,0.5-0.2,1-0.3,1.5c-0.2,0.5-0.4,0.8-0.7,1.1s-0.7,0.5-1.2,0.7c-0.5,0.2-1.1,0.4-1.9,0.5
				c-2.8,0.3-4.6,0.5-5.6,0.5C1988.6,174.9,1985.4,173.8,1983.1,171.7z"/>
		</g>
	</g>
	<g>
		<g>
			<path class="st17" d="M1844.9,345.4c-0.4,0.5-0.9,0.8-1.5,1.1c-0.6,0.2-1.2,0.4-1.8,0.4c-0.6,0-1.3-0.1-1.8-0.4
				c-0.6-0.2-1.1-0.7-1.6-1.2c-0.5-0.6-0.8-1.3-1.1-2.1l-4.6-15.6l-4.6,15.6c-0.2,0.8-0.6,1.6-1.1,2.1c-0.5,0.6-1,1-1.6,1.2
				c-0.6,0.2-1.2,0.4-1.8,0.4c-0.6,0-1.2-0.1-1.8-0.4c-0.6-0.2-1-0.6-1.5-1.1c-0.4-0.5-0.7-1-0.8-1.6l-4.4-18.6
				c-0.3-1.2,0-2.2,0.8-3c0.8-0.8,1.7-1,2.7-0.7s1.7,1.3,2,2.8l3.5,15.8l4-13.2c0.2-0.9,0.4-1.6,0.7-2.1c0.2-0.6,0.5-1.1,0.9-1.6
				s0.8-0.9,1.3-1.1c0.5-0.2,1.1-0.4,1.8-0.4s1.3,0.1,1.8,0.4c0.5,0.2,0.9,0.6,1.3,1.1c0.3,0.5,0.6,1.1,0.9,1.6
				c0.2,0.6,0.4,1.3,0.7,2.1l4,13.2l3.5-15.8c0.3-1.5,1-2.4,2-2.8c1-0.3,1.9-0.1,2.7,0.7c0.8,0.8,1,1.8,0.8,3l-4.4,18.6
				C1845.6,344.4,1845.3,345,1844.9,345.4z"/>
			<path class="st17" d="M1855.4,346.2c-0.4-0.3-0.7-0.6-1-1c-0.2-0.4-0.4-0.9-0.5-1.4c-0.1-0.5-0.2-1-0.2-1.6v-15.5
				c0-0.6,0-1.2,0.1-1.6s0.1-0.9,0.3-1.3c0.2-0.4,0.4-0.8,0.7-1.1c0.3-0.3,0.7-0.5,1.1-0.7c0.5-0.2,1.1-0.2,1.8-0.2h11
				c0.7,0,1.2,0.2,1.7,0.7c0.5,0.5,0.7,1,0.7,1.6c0,0.6-0.2,1.2-0.7,1.6c-0.5,0.4-1,0.7-1.7,0.7h-8.8v5.3h8c0.7,0,1.2,0.2,1.7,0.7
				c0.5,0.5,0.7,1,0.7,1.6s-0.2,1.2-0.7,1.6c-0.5,0.4-1,0.7-1.7,0.7h-8v5.7h9.2c0.6,0,1.1,0.2,1.6,0.7s0.6,1,0.6,1.6
				s-0.2,1.2-0.6,1.6c-0.4,0.4-0.9,0.7-1.6,0.7h-12.3C1856.3,346.6,1855.8,346.4,1855.4,346.2z"/>
			<path class="st17" d="M1887.5,344.5c-0.5-0.5-1-1.5-1.5-2.7l-5.6-13.9v16.4c0,0.5-0.1,0.9-0.3,1.3c-0.2,0.4-0.4,0.7-0.8,0.9
				c-0.3,0.2-0.7,0.3-1,0.4c-0.4,0.1-0.8,0.1-1.1,0c-0.4-0.1-0.7-0.2-1-0.4s-0.6-0.5-0.8-0.9c-0.2-0.4-0.3-0.8-0.3-1.3l0-18.3
				c0-0.6,0.1-1.3,0.4-1.8s0.6-1,1.1-1.4c0.5-0.4,1-0.7,1.5-0.9c0.6-0.2,1.2-0.3,1.8-0.2c0.6,0.1,1.2,0.2,1.8,0.5
				c0.6,0.3,1.1,0.7,1.7,1.3c0.5,0.6,1,1.4,1.3,2.3l5,12.3l5-12.3c0.3-0.9,0.8-1.7,1.3-2.3c0.5-0.6,1.1-1.1,1.7-1.3
				c0.6-0.3,1.2-0.4,1.8-0.5c0.6-0.1,1.2,0,1.8,0.2c0.6,0.2,1.1,0.5,1.5,0.9c0.5,0.4,0.8,0.8,1.1,1.4s0.4,1.2,0.4,1.8l0,18.3
				c0,0.6-0.1,1-0.4,1.5c-0.3,0.4-0.6,0.7-1,0.9c-0.4,0.2-0.8,0.3-1.3,0.3s-0.9-0.1-1.3-0.3c-0.4-0.2-0.7-0.5-1-0.9
				c-0.3-0.4-0.4-0.9-0.4-1.5l0-16.4l-5.6,13.9c-0.5,1.3-1,2.2-1.5,2.7c-0.5,0.5-1.2,0.8-2.2,0.8
				C1888.8,345.4,1888,345.1,1887.5,344.5z"/>
			<path class="st17" d="M1924.6,340.9h-10l-1.1,3.2c-0.3,0.8-0.7,1.4-1.2,1.8c-0.6,0.4-1.1,0.6-1.7,0.6c-0.6,0-1.1-0.2-1.6-0.5
				c-0.5-0.3-0.8-0.8-1-1.5c-0.2-0.7-0.1-1.4,0.1-2.2l6.2-16.1c0.3-1,0.7-1.8,1.1-2.4s0.8-1.2,1.3-1.5c0.5-0.3,0.9-0.6,1.4-0.7
				c0.4-0.1,1-0.2,1.5-0.2s1.1,0.1,1.5,0.2c0.5,0.1,0.9,0.4,1.4,0.7s0.9,0.8,1.3,1.5s0.8,1.5,1.1,2.4l6.2,16.1
				c0.3,0.8,0.3,1.6,0.1,2.2c-0.2,0.7-0.5,1.2-1,1.5s-1,0.5-1.6,0.5s-1.1-0.2-1.7-0.6c-0.6-0.4-1-1-1.2-1.8L1924.6,340.9z
				 M1919.6,326.7l-3.8,10.7h7.5L1919.6,326.7z"/>
			<path class="st17" d="M1935.8,345.5c-0.6-0.7-0.9-1.5-0.9-2.5v-17.7c0-1,0.3-1.8,0.9-2.5c0.6-0.7,1.3-1.1,2.2-1.1
				c0.9,0,1.6,0.4,2.2,1.1c0.6,0.7,0.9,1.5,0.9,2.5l0,7.7l7.8-8.8c0.4-0.5,0.6-0.8,0.8-1c0.2-0.2,0.4-0.4,0.7-0.7s0.5-0.5,0.8-0.6
				s0.5-0.2,0.8-0.2c0.7,0,1.4,0.3,1.9,0.8c0.6,0.5,0.8,1.2,0.8,2c0,0.7-0.5,1.8-1.6,3.2l-5.5,5.9l5.9,6.8c1.1,1.5,1.6,2.7,1.6,3.5
				c0,0.8-0.3,1.4-0.9,1.9c-0.6,0.5-1.3,0.8-2,0.8c-0.2,0-0.4,0-0.7-0.1s-0.4-0.2-0.6-0.3c-0.2-0.2-0.4-0.3-0.5-0.4
				c-0.2-0.1-0.3-0.3-0.5-0.6c-0.2-0.3-0.4-0.5-0.5-0.6c-0.1-0.1-0.3-0.4-0.5-0.7c-0.2-0.3-0.4-0.5-0.4-0.6l-7.5-8.9l0,8.6
				c0,1-0.3,1.8-0.9,2.5c-0.6,0.7-1.4,1.1-2.2,1.1C1937.1,346.6,1936.4,346.2,1935.8,345.5z"/>
			<path class="st17" d="M1960.7,346.2c-0.4-0.3-0.7-0.6-1-1c-0.2-0.4-0.4-0.9-0.5-1.4c-0.1-0.5-0.2-1-0.2-1.6v-15.5
				c0-0.6,0-1.2,0.1-1.6s0.1-0.9,0.3-1.3c0.2-0.4,0.4-0.8,0.7-1.1c0.3-0.3,0.7-0.5,1.1-0.7c0.5-0.2,1.1-0.2,1.8-0.2h11
				c0.7,0,1.2,0.2,1.7,0.7c0.5,0.5,0.7,1,0.7,1.6c0,0.6-0.2,1.2-0.7,1.6c-0.5,0.4-1,0.7-1.7,0.7h-8.8v5.3h8c0.7,0,1.2,0.2,1.7,0.7
				c0.5,0.5,0.7,1,0.7,1.6s-0.2,1.2-0.7,1.6c-0.5,0.4-1,0.7-1.7,0.7h-8v5.7h9.2c0.6,0,1.1,0.2,1.6,0.7s0.6,1,0.6,1.6
				s-0.2,1.2-0.6,1.6c-0.4,0.4-0.9,0.7-1.6,0.7h-12.3C1961.6,346.6,1961.1,346.4,1960.7,346.2z"/>
			<path class="st17" d="M1981.4,345.5c-0.6-0.7-0.9-1.5-0.9-2.5v-16.2c0-0.6,0-1.2,0.1-1.7c0.1-0.5,0.2-0.9,0.3-1.4
				s0.4-0.9,0.7-1.1c0.3-0.3,0.7-0.5,1.2-0.7c0.5-0.2,1.1-0.3,1.8-0.3h6.7c1.1,0,2.1,0.1,3,0.2c0.9,0.1,1.8,0.4,2.6,0.7
				c0.8,0.4,1.5,0.8,2.1,1.4c0.6,0.6,1,1.3,1.3,2.2c0.3,0.9,0.5,2,0.5,3.2c0,2.6-0.8,4.5-2.5,5.8c-1.7,1.3-4,2-7.1,2h-4.4v5.8
				c0,1-0.3,1.8-0.9,2.5c-0.6,0.7-1.4,1.1-2.2,1.1C1982.7,346.6,1982,346.2,1981.4,345.5z M1990.2,333.3c0.8,0,1.4-0.1,1.9-0.2
				c0.5-0.1,1-0.3,1.4-0.6c0.4-0.3,0.7-0.7,0.9-1.2c0.2-0.5,0.3-1.1,0.3-1.9c0-1.4-0.3-2.4-1-2.9c-0.7-0.5-1.7-0.7-3.2-0.7h-3.7v7.5
				H1990.2z"/>
			<path class="st17" d="M2005,345.6c-0.6-0.6-0.9-1.5-0.9-2.6v-18c0-1.1,0.4-1.9,1.1-2.5c0.7-0.6,1.7-0.8,2.8-0.8h6.9
				c1.1,0,2.1,0,2.9,0.1c0.9,0.1,1.7,0.3,2.6,0.6c0.9,0.3,1.6,0.6,2.1,1.1c0.6,0.5,1,1.1,1.4,1.8s0.5,1.6,0.5,2.6
				c0,3.3-1.8,5.2-5.5,5.8v0.1c0.9,0.1,1.7,0.3,2.3,0.5c0.6,0.2,1.1,0.6,1.4,1c0.4,0.5,0.7,1,0.9,1.6c0.2,0.6,0.3,1.4,0.5,2.4
				l0.3,2.3c0.2,1.8,0.1,3-0.4,3.8c-0.4,0.8-1.3,1.2-2.5,1.2c-1,0-1.8-0.3-2.3-1c-0.5-0.7-0.8-1.7-1-3.2l-0.3-2.2
				c-0.1-1.3-0.5-2.2-1.1-2.8c-0.6-0.6-1.6-0.9-2.9-0.9h-3.5v6.6c0,1.2-0.3,2-0.9,2.6s-1.3,0.9-2.3,0.9
				C2006.3,346.6,2005.6,346.3,2005,345.6z M2013,332.4c0.7,0,1.3,0,1.9-0.1c0.5-0.1,1.1-0.2,1.6-0.5c0.5-0.2,1-0.6,1.3-1
				c0.3-0.5,0.4-1,0.4-1.7c0-0.5-0.1-0.9-0.2-1.2c-0.1-0.4-0.2-0.7-0.4-0.9c-0.2-0.2-0.4-0.4-0.7-0.6s-0.6-0.3-0.8-0.4
				c-0.3-0.1-0.6-0.2-1-0.2c-0.4,0-0.8-0.1-1.1-0.1c-0.3,0-0.7,0-1.2,0h-2.6v6.8H2013z"/>
			<path class="st17" d="M2029.9,345.5c-0.6-0.7-0.9-1.5-0.9-2.5v-17.8c0-1,0.3-1.8,0.9-2.5c0.6-0.7,1.4-1.1,2.2-1.1
				c0.9,0,1.6,0.4,2.2,1.1c0.6,0.7,0.9,1.5,0.9,2.5V343c0,1-0.3,1.8-0.9,2.5c-0.6,0.7-1.4,1-2.2,1
				C2031.3,346.6,2030.5,346.2,2029.9,345.5z"/>
			<path class="st17" d="M2047.3,346.4c-1.5-0.6-2.8-1.4-3.9-2.4c-1.1-1.1-2-2.4-2.6-4c-0.6-1.6-1-3.5-1-5.5c0-2.1,0.3-3.9,1-5.6
				c0.6-1.7,1.5-3.1,2.7-4.2c1.1-1.1,2.5-2,4-2.6c1.5-0.6,3.2-0.9,5-0.9c1.5,0,2.9,0.2,4.2,0.5c0.8,0.2,1.7,0.6,2.8,1.2
				c0.4,0.2,0.7,0.5,0.9,0.9c0.2,0.3,0.3,0.7,0.4,1c0,0.3,0,0.7,0,1c-0.1,0.3-0.2,0.6-0.4,0.9c-0.2,0.3-0.4,0.5-0.7,0.6
				c-0.3,0.2-0.6,0.3-0.9,0.3c-0.4,0-0.8-0.1-1.2-0.2c-1.7-0.8-3.3-1.1-4.7-1.1c-0.8,0-1.4,0.1-2,0.2c-0.6,0.1-1.2,0.3-1.8,0.7
				s-1.1,0.8-1.4,1.4c-0.4,0.6-0.7,1.4-0.9,2.4c-0.2,1-0.4,2.2-0.4,3.5c0,2.6,0.5,4.6,1.6,6c1,1.4,2.6,2,4.7,2
				c0.9,0,1.8-0.1,2.9-0.4c1.1-0.3,2-0.7,2.9-1.1c0.5-0.3,1-0.3,1.6,0.1c0.6,0.3,0.9,0.9,1,1.6c0.2,1-0.2,1.8-1.2,2.6
				c-2,1.6-4.6,2.3-7.7,2.3C2050.3,347.2,2048.7,346.9,2047.3,346.4z"/>
			<path class="st17" d="M2066.1,346.2c-0.4-0.3-0.7-0.6-1-1c-0.2-0.4-0.4-0.9-0.5-1.4c-0.1-0.5-0.2-1-0.2-1.6v-15.5
				c0-0.6,0-1.2,0.1-1.6s0.1-0.9,0.3-1.3c0.2-0.4,0.4-0.8,0.7-1.1c0.3-0.3,0.7-0.5,1.1-0.7c0.5-0.2,1.1-0.2,1.8-0.2h11
				c0.7,0,1.2,0.2,1.7,0.7c0.5,0.5,0.7,1,0.7,1.6c0,0.6-0.2,1.2-0.7,1.6c-0.5,0.4-1,0.7-1.7,0.7h-8.8v5.3h8c0.7,0,1.2,0.2,1.7,0.7
				c0.5,0.5,0.7,1,0.7,1.6s-0.2,1.2-0.7,1.6c-0.5,0.4-1,0.7-1.7,0.7h-8v5.7h9.2c0.6,0,1.1,0.2,1.6,0.7s0.6,1,0.6,1.6
				s-0.2,1.2-0.6,1.6c-0.4,0.4-0.9,0.7-1.6,0.7h-12.3C2067,346.6,2066.6,346.4,2066.1,346.2z"/>
		</g>
	</g>
	<g>
		<g>
			<path class="st17" d="M1818.6,529.6c-2.1-2.2-3.1-5.4-3.1-9.8c0-4.3,1-7.6,3.1-9.8c2.1-2.2,5.1-3.3,9.1-3.3c4,0,7.1,1.1,9.1,3.3
				c2.1,2.2,3.1,5.4,3.1,9.8c0,4.3-1,7.6-3.1,9.8c-2.1,2.2-5.1,3.3-9.1,3.3C1823.7,532.8,1820.7,531.8,1818.6,529.6z M1832.1,526.3
				c0.9-1.3,1.3-3.4,1.3-6.5c0-3.1-0.4-5.3-1.3-6.6c-0.9-1.3-2.3-1.9-4.3-1.9c-1.4,0-2.4,0.3-3.2,0.8c-0.8,0.5-1.4,1.4-1.8,2.6
				s-0.6,2.9-0.6,5c0,3.1,0.4,5.3,1.3,6.5s2.3,1.9,4.3,1.9C1829.8,528.2,1831.2,527.6,1832.1,526.3z"/>
			<path class="st17" d="M1844.5,531.6c-0.5-0.4-0.7-0.9-0.9-1.5c-0.1-0.6-0.1-1.2,0.1-1.8c0.2-0.6,0.5-1.2,0.9-1.6l8.8-8.6
				c1.2-1,1.7-2.1,1.7-3.2c0-0.8-0.3-1.5-1-2c-0.7-0.5-1.5-0.8-2.4-0.8c-0.4,0-0.8,0-1.2,0.1c-0.4,0.1-0.8,0.2-1.1,0.3
				c-0.4,0.1-0.7,0.3-0.9,0.4c-0.2,0.1-0.5,0.3-0.9,0.5s-0.7,0.4-0.9,0.5c-0.3,0.1-0.7,0.1-1.1,0c-0.4-0.1-0.7-0.4-1-0.7
				c-0.3-0.4-0.5-0.8-0.7-1.2c-0.2-0.4-0.2-0.9,0-1.3c0.1-0.5,0.5-0.8,1-1.1c2.6-1.5,5.2-2.2,7.8-2.1c2.4,0.1,4.3,0.8,5.7,2.2
				c1.5,1.4,2.2,3.1,2.2,5.1c0,1.3-0.3,2.6-1,3.9c-0.7,1.3-1.7,2.5-3.1,3.7l-6.7,5.3h8.8c0.5,0,0.9,0.2,1.2,0.7s0.4,1,0.4,1.6
				c0,0.6-0.1,1.2-0.4,1.7s-0.7,0.7-1.2,0.7h-12.5C1845.5,532.2,1845,532,1844.5,531.6z"/>
			<path class="st17" d="M1872.7,532.3c-1.3-0.4-2.4-0.9-3.4-1.7c-1-0.7-1.7-1.7-2.2-2.8s-0.8-2.5-0.8-4v-12.9c0-1,0.3-1.8,0.9-2.5
				c0.6-0.7,1.4-1,2.2-1c0.9,0,1.6,0.3,2.2,1c0.6,0.7,0.9,1.5,0.9,2.5v12.8c0,1.5,0.4,2.6,1.3,3.4c0.9,0.8,1.9,1.2,3.1,1.2
				c1.2,0,2.2-0.4,3.1-1.2c0.9-0.8,1.3-1.9,1.3-3.4v-12.8c0-1,0.3-1.8,0.9-2.5c0.6-0.7,1.4-1,2.2-1c0.9,0,1.6,0.3,2.2,1
				c0.6,0.7,0.9,1.5,0.9,2.5v12.9c0,1.9-0.5,3.6-1.4,5c-0.9,1.4-2.2,2.4-3.8,3.1s-3.4,1-5.5,1C1875.4,532.8,1874,532.7,1872.7,532.3
				z"/>
			<path class="st17" d="M1901.5,523.9l-5.2,6.7c-0.3,0.4-0.5,0.6-0.8,0.9c-0.8,0.6-1.7,0.8-2.6,0.5c-0.7-0.3-1.2-0.8-1.5-1.5
				c-0.4-1.1-0.1-2.2,0.8-3.4l6.1-7.2l-5.8-7.5c-0.5-0.7-0.7-1.4-0.7-2.1c0-0.7,0.2-1.3,0.5-1.7c0.4-0.4,0.8-0.8,1.3-1
				c0.5-0.2,1.1-0.2,1.8,0.1c0.7,0.3,1.2,0.7,1.7,1.4l5,6.6l4.7-6.2c0.3-0.4,0.6-0.8,0.9-1c0.9-0.8,1.8-1,2.7-0.6
				c0.7,0.3,1.2,0.8,1.4,1.6c0.3,0.9,0.2,1.7-0.4,2.5l-6.3,7.7l6.3,8.3c0.2,0.3,0.4,0.6,0.5,0.9c0.3,0.9,0.2,1.8-0.4,2.6
				c-0.5,0.7-1.2,1.1-2,1.1c-1.1,0.1-2.1-0.5-2.9-1.7L1901.5,523.9z"/>
			<path class="st17" d="M1817.6,573.5c-0.5-0.5-0.8-1.1-1-1.7c-0.2-0.7-0.2-1.4-0.2-2.3v-15.3c0-1.7,0.3-3,1-3.7
				c0.6-0.7,1.8-1.1,3.3-1.1h3.7c4.6,0,8.1,1.1,10.5,3.2c2.4,2.1,3.6,5.3,3.6,9.4c0,4-1.1,7.1-3.4,9.2c-2.3,2.1-5.7,3.1-10.1,3.1
				h-5.4C1818.7,574.2,1818.1,573.9,1817.6,573.5z M1824.5,569.9c1.8,0,3.2-0.3,4.2-0.8c1-0.5,1.8-1.3,2.3-2.5
				c0.5-1.2,0.8-2.8,0.8-4.8c0-3-0.5-5.1-1.6-6.3c-1.1-1.2-2.9-1.8-5.5-1.8h-2.1v16.3H1824.5z"/>
			<path class="st17" d="M1844.4,573.8c-0.4-0.3-0.7-0.6-1-1c-0.2-0.4-0.4-0.9-0.5-1.4c-0.1-0.5-0.2-1-0.2-1.6v-15.5
				c0-0.6,0-1.2,0.1-1.6s0.1-0.9,0.3-1.3c0.2-0.4,0.4-0.8,0.7-1.1c0.3-0.3,0.7-0.5,1.1-0.7c0.5-0.2,1.1-0.2,1.8-0.2h11
				c0.7,0,1.2,0.2,1.7,0.7c0.5,0.5,0.7,1,0.7,1.6c0,0.6-0.2,1.2-0.7,1.6c-0.5,0.4-1,0.7-1.7,0.7h-8.8v5.3h8c0.7,0,1.2,0.2,1.7,0.7
				c0.5,0.5,0.7,1,0.7,1.6s-0.2,1.2-0.7,1.6c-0.5,0.4-1,0.7-1.7,0.7h-8v5.7h9.2c0.6,0,1.1,0.2,1.6,0.7s0.6,1,0.6,1.6
				s-0.2,1.2-0.6,1.6c-0.4,0.4-0.9,0.7-1.6,0.7h-12.3C1845.3,574.2,1844.8,574.1,1844.4,573.8z"/>
			<path class="st17" d="M1864.7,573c-0.3-0.2-0.6-0.5-0.8-0.9c-0.2-0.4-0.2-0.7-0.2-1.1c0-0.4,0.1-0.7,0.3-1.1
				c0.2-0.4,0.4-0.6,0.7-0.8c0.3-0.2,0.7-0.3,1-0.4c0.4-0.1,0.8,0,1.3,0.3c1.9,0.8,3.8,1.2,5.8,1.2c1.3,0,2.3-0.2,3.1-0.7
				c0.8-0.4,1.2-1.1,1.2-2c0-1.2-0.9-2.1-2.6-2.7l-5.7-1.9c-2.1-0.8-3.6-1.7-4.5-2.6c-0.9-1-1.3-2.3-1.3-4c0-2.3,0.9-4.2,2.8-5.5
				c1.8-1.4,4.3-2.1,7.4-2.1c1.5,0,3,0.2,4.6,0.6s2.7,0.9,3.5,1.7c0.3,0.3,0.6,0.7,0.6,1.2s0.1,0.8-0.1,1.2c-0.1,0.4-0.3,0.7-0.6,1
				s-0.6,0.5-0.9,0.6c-0.4,0.1-0.7,0-1.1-0.1c-1-0.6-2-1-2.8-1.2c-0.8-0.2-1.9-0.3-3-0.3c-0.8,0-1.5,0.1-2.1,0.2
				c-0.7,0.2-1.2,0.4-1.6,0.8c-0.4,0.4-0.7,0.9-0.7,1.5c0,0.7,0.3,1.3,0.9,1.8c0.6,0.4,1.5,0.9,2.7,1.3c0.3,0.1,0.7,0.2,1.3,0.3
				s1,0.2,1.3,0.3c1,0.3,1.9,0.6,2.7,0.9c0.7,0.3,1.5,0.7,2.2,1.1c0.7,0.4,1.3,0.9,1.7,1.4c0.4,0.5,0.8,1.1,1,1.8
				c0.3,0.7,0.4,1.5,0.4,2.4c0,2.4-0.9,4.3-2.8,5.7c-1.8,1.4-4.3,2.1-7.5,2.1C1869.4,574.8,1866.7,574.2,1864.7,573z"/>
			<path class="st17" d="M1888,573.2c-0.6-0.7-0.9-1.5-0.9-2.5v-17.8c0-1,0.3-1.8,0.9-2.5c0.6-0.7,1.4-1.1,2.2-1.1
				c0.9,0,1.6,0.4,2.2,1.1c0.6,0.7,0.9,1.5,0.9,2.5v17.8c0,1-0.3,1.8-0.9,2.5c-0.6,0.7-1.4,1-2.2,1
				C1889.3,574.2,1888.6,573.8,1888,573.2z"/>
			<path class="st17" d="M1901.3,571.6c-2.3-2.1-3.4-5.4-3.4-9.8c0-1.8,0.3-3.5,0.8-5.1c0.5-1.5,1.3-2.9,2.3-4.1
				c1-1.2,2.4-2.1,4.1-2.8s3.6-1,5.8-1c1.5,0,2.9,0.2,4.4,0.6c1.5,0.4,2.7,0.9,3.6,1.6c0.4,0.3,0.7,0.6,0.8,0.9
				c0.2,0.4,0.3,0.7,0.3,1.1c0,0.6-0.2,1.1-0.6,1.6c-0.4,0.5-0.9,0.7-1.5,0.7c-0.3,0-0.7-0.1-1.1-0.4c-0.7-0.4-1.5-0.7-2.6-1
				c-1.1-0.2-2.1-0.4-3-0.4c-2.3,0-4,0.7-5.1,2.2c-1.2,1.5-1.7,3.6-1.7,6.4c0,1.5,0.2,2.8,0.5,3.8c0.3,1,0.8,1.9,1.5,2.4
				s1.3,1,2.1,1.2c0.8,0.3,1.7,0.4,2.7,0.4c1.1,0,2.3-0.2,3.7-0.5v-5.1h-2.3c-0.8,0-1.4-0.1-1.8-0.4c-0.4-0.3-0.6-0.7-0.6-1.4
				c0-1.2,0.7-1.8,2.1-1.8c0.7,0,1.8,0,3.2,0c1.4,0,2.5,0,3.2,0c0.8,0,1.4,0.2,1.7,0.7c0.3,0.5,0.4,1.3,0.4,2.4v4.5
				c0,0.9,0,1.5-0.1,2.1c-0.1,0.5-0.2,1-0.3,1.5c-0.2,0.5-0.4,0.8-0.7,1.1c-0.3,0.3-0.7,0.5-1.2,0.7s-1.1,0.4-1.9,0.5
				c-2.8,0.3-4.6,0.5-5.6,0.5C1906.8,574.8,1903.5,573.8,1901.3,571.6z"/>
			<path class="st17" d="M1925.5,573.4c-0.5-0.6-0.8-1.2-0.8-2V553c0-1.1,0.3-2,0.9-2.7c0.6-0.7,1.3-1,2.2-1c1.2,0,2.5,1,3.8,2.9
				l10.1,13.1v-13.2c0-0.8,0.3-1.4,0.8-2c0.5-0.6,1.1-0.8,1.9-0.8s1.4,0.3,1.9,0.8c0.5,0.6,0.8,1.2,0.8,2V569c0,0.8,0,1.4-0.1,2
				s-0.2,1.1-0.4,1.6s-0.5,0.9-0.9,1.2c-0.4,0.3-0.9,0.4-1.6,0.4c-0.7,0-1.3-0.3-1.9-0.8c-0.6-0.5-1.2-1.2-1.9-2.1l-10.2-13.4v13.5
				c0,0.8-0.3,1.4-0.8,2c-0.5,0.6-1.2,0.8-1.9,0.8C1926.7,574.2,1926.1,573.9,1925.5,573.4z"/>
			<path class="st17" d="M1977.1,568.5h-10l-1.1,3.2c-0.3,0.8-0.7,1.4-1.2,1.8c-0.6,0.4-1.1,0.6-1.7,0.6s-1.1-0.2-1.6-0.5
				c-0.5-0.3-0.8-0.8-1-1.5c-0.2-0.7-0.1-1.4,0.1-2.2l6.2-16.1c0.3-1,0.7-1.8,1.1-2.4c0.4-0.7,0.8-1.2,1.3-1.5s0.9-0.6,1.4-0.7
				c0.4-0.1,1-0.2,1.5-0.2c0.6,0,1.1,0.1,1.5,0.2c0.4,0.1,0.9,0.4,1.4,0.7c0.5,0.3,0.9,0.8,1.3,1.5c0.4,0.7,0.8,1.5,1.1,2.4
				l6.2,16.1c0.3,0.8,0.3,1.6,0.1,2.2c-0.2,0.7-0.5,1.2-1,1.5c-0.5,0.3-1,0.5-1.6,0.5c-0.6,0-1.1-0.2-1.7-0.6c-0.6-0.4-1-1-1.2-1.8
				L1977.1,568.5z M1972,554.3l-3.8,10.7h7.5L1972,554.3z"/>
			<path class="st17" d="M1989.9,571.6c-2.3-2.1-3.4-5.4-3.4-9.8c0-1.8,0.3-3.5,0.8-5.1c0.5-1.5,1.3-2.9,2.3-4.1
				c1-1.2,2.4-2.1,4.1-2.8s3.6-1,5.8-1c1.5,0,2.9,0.2,4.4,0.6c1.5,0.4,2.7,0.9,3.6,1.6c0.4,0.3,0.7,0.6,0.8,0.9
				c0.2,0.4,0.3,0.7,0.3,1.1c0,0.6-0.2,1.1-0.6,1.6c-0.4,0.5-0.9,0.7-1.5,0.7c-0.3,0-0.7-0.1-1.1-0.4c-0.7-0.4-1.5-0.7-2.6-1
				c-1.1-0.2-2.1-0.4-3-0.4c-2.3,0-4,0.7-5.1,2.2c-1.2,1.5-1.7,3.6-1.7,6.4c0,1.5,0.2,2.8,0.5,3.8c0.3,1,0.8,1.9,1.5,2.4
				s1.3,1,2.1,1.2c0.8,0.3,1.7,0.4,2.7,0.4c1.1,0,2.3-0.2,3.7-0.5v-5.1h-2.3c-0.8,0-1.4-0.1-1.8-0.4c-0.4-0.3-0.6-0.7-0.6-1.4
				c0-1.2,0.7-1.8,2.1-1.8c0.7,0,1.8,0,3.2,0c1.4,0,2.5,0,3.2,0c0.8,0,1.4,0.2,1.7,0.7c0.3,0.5,0.4,1.3,0.4,2.4v4.5
				c0,0.9,0,1.5-0.1,2.1c-0.1,0.5-0.2,1-0.3,1.5c-0.2,0.5-0.4,0.8-0.7,1.1c-0.3,0.3-0.7,0.5-1.2,0.7s-1.1,0.4-1.9,0.5
				c-2.8,0.3-4.6,0.5-5.6,0.5C1995.4,574.8,1992.2,573.8,1989.9,571.6z"/>
			<path class="st17" d="M2015.1,573.8c-0.4-0.3-0.7-0.6-1-1c-0.2-0.4-0.4-0.9-0.5-1.4c-0.1-0.5-0.2-1-0.2-1.6v-15.5
				c0-0.6,0-1.2,0.1-1.6s0.1-0.9,0.3-1.3c0.2-0.4,0.4-0.8,0.7-1.1c0.3-0.3,0.7-0.5,1.1-0.7c0.5-0.2,1.1-0.2,1.8-0.2h11
				c0.7,0,1.2,0.2,1.7,0.7c0.5,0.5,0.7,1,0.7,1.6c0,0.6-0.2,1.2-0.7,1.6c-0.5,0.4-1,0.7-1.7,0.7h-8.8v5.3h8c0.7,0,1.2,0.2,1.7,0.7
				c0.5,0.5,0.7,1,0.7,1.6s-0.2,1.2-0.7,1.6c-0.5,0.4-1,0.7-1.7,0.7h-8v5.7h9.2c0.6,0,1.1,0.2,1.6,0.7s0.6,1,0.6,1.6
				s-0.2,1.2-0.6,1.6c-0.4,0.4-0.9,0.7-1.6,0.7h-12.3C2015.9,574.2,2015.5,574.1,2015.1,573.8z"/>
			<path class="st17" d="M2035.6,573.4c-0.5-0.6-0.8-1.2-0.8-2V553c0-1.1,0.3-2,0.9-2.7c0.6-0.7,1.3-1,2.2-1c1.2,0,2.5,1,3.8,2.9
				l10.1,13.1v-13.2c0-0.8,0.3-1.4,0.8-2c0.5-0.6,1.1-0.8,1.9-0.8s1.4,0.3,1.9,0.8c0.5,0.6,0.8,1.2,0.8,2V569c0,0.8,0,1.4-0.1,2
				s-0.2,1.1-0.4,1.6s-0.5,0.9-0.9,1.2c-0.4,0.3-0.9,0.4-1.6,0.4c-0.7,0-1.3-0.3-1.9-0.8c-0.6-0.5-1.2-1.2-1.9-2.1l-10.2-13.4v13.5
				c0,0.8-0.3,1.4-0.8,2c-0.5,0.6-1.2,0.8-1.9,0.8C2036.7,574.2,2036.1,573.9,2035.6,573.4z"/>
			<path class="st17" d="M2069,574c-1.5-0.6-2.8-1.4-3.9-2.4s-2-2.4-2.6-4s-1-3.5-1-5.5c0-2.1,0.3-3.9,1-5.6
				c0.6-1.7,1.5-3.1,2.7-4.2c1.1-1.1,2.5-2,4-2.6c1.5-0.6,3.2-0.9,5-0.9c1.5,0,2.9,0.2,4.2,0.5c0.8,0.2,1.7,0.6,2.8,1.2
				c0.4,0.2,0.7,0.5,0.9,0.9c0.2,0.3,0.3,0.7,0.4,1c0,0.3,0,0.7,0,1s-0.2,0.6-0.4,0.9c-0.2,0.3-0.4,0.5-0.7,0.6
				c-0.3,0.2-0.6,0.3-0.9,0.3s-0.8-0.1-1.2-0.2c-1.7-0.8-3.3-1.1-4.7-1.1c-0.8,0-1.4,0.1-2,0.2c-0.6,0.1-1.2,0.3-1.8,0.7
				c-0.6,0.3-1.1,0.8-1.4,1.4s-0.7,1.4-0.9,2.4c-0.2,1-0.4,2.2-0.4,3.5c0,2.6,0.5,4.6,1.6,6s2.6,2,4.7,2c0.9,0,1.8-0.1,2.9-0.4
				c1.1-0.3,2-0.7,2.9-1.1c0.5-0.3,1-0.3,1.6,0.1c0.6,0.3,0.9,0.9,1,1.6c0.2,1-0.2,1.8-1.2,2.6c-2,1.6-4.6,2.3-7.7,2.3
				C2072,574.8,2070.4,574.6,2069,574z"/>
			<path class="st17" d="M2091.8,564.8l-6.3-10.3c-0.4-0.8-0.6-1.6-0.6-2.4c0-0.8,0.3-1.4,0.7-1.8c0.5-0.4,1-0.7,1.5-0.9
				c0.6-0.2,1.2,0,1.9,0.4c0.7,0.4,1.2,1,1.7,1.9l4.6,7.9l4.8-8.1c0.4-0.7,0.9-1.3,1.5-1.6c0.6-0.3,1.1-0.4,1.6-0.3
				c0.5,0.1,1,0.4,1.4,0.8s0.6,0.9,0.7,1.5c0,0.6-0.1,1.3-0.5,2l-6.6,10.7v6.2c0,0.5-0.1,1-0.3,1.5c-0.2,0.4-0.4,0.8-0.7,1.1
				c-0.3,0.3-0.6,0.5-1,0.6c-0.4,0.1-0.8,0.2-1.2,0.2c-0.4,0-0.8-0.1-1.2-0.2c-0.4-0.1-0.7-0.4-1-0.6c-0.3-0.3-0.5-0.6-0.7-1.1
				c-0.2-0.4-0.3-0.9-0.3-1.5V564.8z"/>
		</g>
	</g>
</g>
</svg>
