<?xml version="1.0" encoding="utf-8"?>
<!-- Generator: Adobe Illustrator 19.0.0, SVG Export Plug-In . SVG Version: 6.00 Build 0)  -->
<svg version="1.1" id="Layer_1" xmlns="http://www.w3.org/2000/svg" xmlns:xlink="http://www.w3.org/1999/xlink" x="0px" y="0px"
	 viewBox="121.8 175.6 876.2 490.4" style="enable-background:new 121.8 175.6 876.2 490.4;" xml:space="preserve">
<style type="text/css">
	.st0{opacity:0.53;fill:#3E3A39;enable-background:new    ;}
	.st1{fill:#FFFFFF;}
	.st2{fill:none;stroke:#3E3A39;stroke-miterlimit:10;}
	.st3{fill:#60B383;stroke:#3E3A39;stroke-width:6;stroke-miterlimit:10;}
	.st4{fill:none;stroke:#3E3A39;stroke-width:6;stroke-linecap:round;stroke-linejoin:round;stroke-miterlimit:10;}
	.st5{fill:#3E3A39;}
	.st6{fill:#3C3C3D;}
</style>
<g>
	<path id="XMLID_1591_" class="st0" d="M918.4,233.3H216.7c-23.7,0-43.2,19.6-43.2,43.5v287.6c0,23.9,19.4,43.5,43.2,43.5h315.9
		l34.9,40.1l34.9-40.1h315.9c23.7,0,43.2-19.6,43.2-43.5V276.7C961.5,252.8,942.1,233.3,918.4,233.3z"/>
	<path class="st1" d="M533.8,565H214c-22.3,0-40.5-18.1-40.5-40.5V237c0-22.3,18.1-40.5,40.5-40.5h707.1c22.3,0,40.5,18.1,40.5,40.5
		v287.6c0,22.3-18.1,40.5-40.5,40.5H601.4l-33.8,38.5L533.8,565z"/>
	<path class="st2" d="M921.1,193.5H214c-23.9,0-43.5,19.6-43.5,43.5v287.6c0,23.9,19.6,43.5,43.5,43.5h318.4l35.2,40.1l35.2-40.1
		h318.4c23.9,0,43.5-19.6,43.5-43.5V237C964.6,213.1,945,193.5,921.1,193.5L921.1,193.5z"/>
	<circle id="XMLID_1542_" class="st3" cx="913.8" cy="244" r="13.6"/>
	<circle id="XMLID_1541_" class="st3" cx="222" cy="244" r="13.6"/>
	<line id="XMLID_1452_" class="st4" x1="947.7" y1="300.5" x2="981.7" y2="300.5"/>
	<line id="XMLID_1451_" class="st4" x1="934.7" y1="466.7" x2="984.7" y2="466.7"/>
	<line id="XMLID_1450_" class="st4" x1="912.7" y1="488" x2="984.7" y2="488"/>
	<line id="XMLID_1449_" class="st4" x1="221.7" y1="527.7" x2="300.7" y2="527.7"/>
	<line id="XMLID_1448_" class="st4" x1="135.1" y1="358.7" x2="203.1" y2="358.7"/>
	<line id="XMLID_1447_" class="st4" x1="145.1" y1="383.7" x2="193.1" y2="383.7"/>
</g>
<g>
	<path class="st5" d="M461.3,313.7c-0.7-0.5-1.3-1.1-1.6-1.9c-0.3-0.8-0.5-1.6-0.4-2.4c0.1-0.8,0.3-1.6,0.7-2.3
		c0.4-0.8,0.9-1.4,1.6-1.8c0.7-0.5,1.4-0.7,2.3-0.9c0.8-0.1,1.8,0.1,2.8,0.6c4.2,1.8,8.3,2.7,12.5,2.7c2.7,0,5-0.5,6.7-1.4
		s2.6-2.4,2.6-4.4c0-2.6-1.9-4.5-5.7-5.8l-12.3-4.1c-4.6-1.7-7.9-3.6-9.8-5.7c-1.9-2.1-2.9-5-2.9-8.6c0-5,2-9,6-12
		c4-3,9.4-4.5,16.1-4.5c3.2,0,6.5,0.4,9.9,1.2c3.4,0.8,5.9,2.1,7.7,3.7c0.7,0.7,1.2,1.6,1.4,2.5c0.2,1,0.1,1.8-0.1,2.6
		c-0.3,0.8-0.7,1.5-1.3,2.2s-1.2,1.1-2,1.2c-0.8,0.2-1.5,0.1-2.3-0.2c-2.3-1.3-4.3-2.1-6.2-2.6c-1.8-0.5-4-0.7-6.6-0.7
		c-1.7,0-3.2,0.2-4.6,0.5c-1.4,0.4-2.6,1-3.6,1.8c-1,0.9-1.4,1.9-1.4,3.2c0,1.6,0.7,2.9,2,3.8c1.3,1,3.3,1.9,5.8,2.7
		c0.6,0.2,1.5,0.4,2.8,0.6s2.3,0.3,2.9,0.6c2.3,0.7,4.2,1.4,5.8,2c1.6,0.6,3.2,1.4,4.7,2.4c1.5,0.9,2.8,1.9,3.7,3
		c0.9,1.1,1.7,2.4,2.2,3.9s0.8,3.2,0.8,5.1c0,5.2-2,9.4-6,12.5c-4,3.1-9.4,4.6-16.2,4.6C471.7,317.7,465.7,316.4,461.3,313.7z"/>
	<path class="st5" d="M513.1,315.4c-0.9-0.6-1.6-1.3-2.1-2.3c-0.5-1-0.9-2-1.1-3c-0.2-1.1-0.4-2.2-0.4-3.4v-33.7
		c0-1.4,0-2.6,0.1-3.6c0.1-1,0.3-1.9,0.7-2.9c0.3-1,0.8-1.8,1.4-2.4c0.6-0.6,1.4-1.1,2.5-1.4c1.1-0.4,2.3-0.5,3.8-0.5H542
		c1.4,0,2.7,0.5,3.7,1.5c1,1,1.5,2.2,1.5,3.6s-0.5,2.6-1.5,3.5c-1,1-2.2,1.4-3.7,1.4h-19.1v11.5h17.5c1.4,0,2.7,0.5,3.7,1.5
		c1,1,1.5,2.2,1.5,3.6s-0.5,2.6-1.5,3.5c-1,1-2.2,1.4-3.7,1.4h-17.5v12.4h20.1c1.3,0,2.5,0.5,3.4,1.4s1.4,2.2,1.4,3.6
		s-0.5,2.6-1.4,3.5c-0.9,1-2.1,1.4-3.4,1.4h-26.7C515,316.3,514,316,513.1,315.4z"/>
	<path class="st5" d="M557.6,314.5c-1.1-1.2-1.7-2.7-1.7-4.3v-40c0-2.4,0.6-4.4,1.9-5.8c1.3-1.4,2.9-2.1,4.8-2.1
		c2.7,0,5.5,2.2,8.3,6.4l22,28.5v-28.7c0-1.7,0.6-3.1,1.7-4.3c1.1-1.2,2.5-1.8,4.1-1.8c1.6,0,3,0.6,4.1,1.8c1.1,1.2,1.7,2.7,1.7,4.3
		v36.7c0,1.6-0.1,3-0.2,4.2c-0.2,1.2-0.5,2.4-0.9,3.5c-0.4,1.1-1.1,2-2,2.6c-0.9,0.6-2.1,0.9-3.4,0.9c-1.4,0-2.8-0.5-4.1-1.7
		c-1.3-1.1-2.7-2.7-4.1-4.7l-22.2-29.1v29.2c0,1.7-0.6,3.1-1.7,4.3c-1.2,1.2-2.5,1.8-4.1,1.8C560.1,316.3,558.7,315.7,557.6,314.5z"
		/>
	<path class="st5" d="M648.6,304h-21.8l-2.4,7c-0.6,1.7-1.5,3-2.7,3.9c-1.2,0.9-2.4,1.3-3.6,1.2c-1.2-0.1-2.4-0.5-3.5-1.1
		c-1.1-0.7-1.8-1.7-2.2-3.2c-0.3-1.4-0.2-3.1,0.3-4.8l13.5-35c0.7-2.1,1.5-3.9,2.4-5.3c0.9-1.4,1.8-2.5,2.8-3.2c1-0.7,2-1.3,3-1.5
		c1-0.3,2.1-0.4,3.3-0.4c1.2,0,2.3,0.1,3.3,0.4c1,0.3,2,0.8,3,1.5c1,0.7,1.9,1.8,2.8,3.2c0.9,1.4,1.7,3.2,2.4,5.3l13.5,35
		c0.5,1.8,0.6,3.4,0.3,4.8c-0.3,1.4-1.1,2.5-2.2,3.2c-1.1,0.7-2.3,1-3.5,1.1c-1.2,0.1-2.4-0.3-3.6-1.2c-1.2-0.9-2.1-2.2-2.7-3.9
		L648.6,304z M637.7,273l-8.2,23.2h16.3L637.7,273z"/>
</g>
<g>
	<path class="st5" d="M345,402.6c-1.3-1.5-2-3.3-2-5.4v-35.1c0-1.4,0.1-2.6,0.2-3.6c0.1-1,0.3-2,0.7-3c0.3-1,0.8-1.9,1.5-2.5
		s1.5-1.1,2.6-1.5c1.1-0.4,2.4-0.6,3.9-0.6h14.5c2.4,0,4.6,0.1,6.6,0.4c2,0.3,3.8,0.8,5.7,1.6c1.8,0.8,3.4,1.8,4.6,3
		c1.2,1.2,2.2,2.8,2.9,4.8c0.7,2,1.1,4.3,1.1,6.9c0,5.6-1.8,9.8-5.4,12.6c-3.6,2.8-8.7,4.3-15.4,4.3h-9.6v12.7c0,2.1-0.7,3.9-2,5.4
		c-1.4,1.5-3,2.3-4.9,2.3C347.9,404.8,346.3,404.1,345,402.6z M364.1,376c1.7,0,3.1-0.2,4.2-0.4c1.1-0.2,2.1-0.7,3-1.3
		c0.9-0.6,1.5-1.5,1.9-2.6c0.4-1.1,0.6-2.5,0.6-4.2c0-3.1-0.7-5.1-2.1-6.2c-1.4-1.1-3.7-1.6-6.8-1.6h-8V376H364.1z"/>
	<path class="st5" d="M399.2,399.2c-4.5-4.7-6.7-11.8-6.7-21.2c0-9.4,2.2-16.5,6.7-21.2c4.5-4.7,11.1-7.1,19.8-7.1
		c8.7,0,15.3,2.4,19.8,7.1c4.5,4.7,6.7,11.8,6.7,21.2c0,9.4-2.2,16.5-6.7,21.2c-4.5,4.7-11.1,7.1-19.8,7.1
		C410.3,406.3,403.6,403.9,399.2,399.2z M428.4,392.2c1.9-2.7,2.8-7.5,2.8-14.2c0-6.8-0.9-11.5-2.8-14.3c-1.9-2.7-5-4.1-9.4-4.1
		c-2.9,0-5.3,0.6-7,1.7c-1.7,1.2-3,3.1-3.9,5.8c-0.8,2.7-1.3,6.3-1.3,10.9c0,6.7,0.9,11.4,2.8,14.2c1.9,2.7,5,4.1,9.4,4.1
		C423.4,396.3,426.6,394.9,428.4,392.2z"/>
	<path class="st5" d="M456.8,402.8c-1.3-1.4-1.9-3.3-1.9-5.7V358c0-2.4,0.8-4.2,2.4-5.4s3.6-1.8,6-1.8h14.9c2.4,0,4.5,0.1,6.4,0.3
		c1.9,0.2,3.8,0.6,5.6,1.2c1.9,0.6,3.4,1.4,4.7,2.4c1.2,1,2.2,2.3,3,3.9c0.8,1.6,1.2,3.6,1.2,5.8c0,7.1-4,11.3-11.9,12.7v0.1
		c2,0.2,3.6,0.6,4.9,1.1s2.3,1.2,3.1,2.2c0.8,1,1.4,2.1,1.9,3.5c0.4,1.3,0.7,3,1,5.2l0.7,4.9c0.4,3.8,0.1,6.6-0.8,8.3
		c-1,1.7-2.8,2.6-5.4,2.6c-2.2,0-3.9-0.7-5-2.2c-1.1-1.4-1.8-3.7-2.1-6.9l-0.6-4.9c-0.3-2.8-1-4.9-2.3-6.1c-1.3-1.3-3.4-1.9-6.3-1.9
		h-7.6v14.3c0,2.5-0.6,4.4-1.9,5.7c-1.3,1.3-2.9,2-4.9,2C459.7,404.8,458.1,404.2,456.8,402.8z M474.3,374c1.5,0,2.9-0.1,4.1-0.3
		c1.2-0.2,2.4-0.5,3.5-1c1.2-0.5,2.1-1.2,2.7-2.2c0.6-1,1-2.3,1-3.8c0-1-0.1-1.9-0.4-2.7c-0.2-0.8-0.5-1.4-0.9-1.9
		c-0.4-0.5-0.9-1-1.5-1.3s-1.2-0.6-1.8-0.8c-0.6-0.2-1.3-0.3-2.2-0.4c-0.9-0.1-1.7-0.2-2.3-0.2c-0.6,0-1.5,0-2.5,0h-5.7V374H474.3z"
		/>
	<path class="st5" d="M520.9,402.6c-1.3-1.5-2-3.3-2-5.4v-36.1h-10.2c-1.4,0-2.7-0.5-3.7-1.5c-1.1-1-1.6-2.2-1.6-3.6
		s0.5-2.6,1.6-3.6c1.1-1,2.3-1.5,3.7-1.5h33.9c1.4,0,2.7,0.5,3.7,1.5s1.6,2.2,1.6,3.7c0,1.4-0.5,2.6-1.6,3.6c-1,1-2.3,1.5-3.7,1.5
		h-10v36.1c0,2.1-0.7,3.9-2,5.4c-1.3,1.5-3,2.3-4.8,2.3C523.8,404.8,522.2,404.1,520.9,402.6z"/>
	<path class="st5" d="M555.8,402.6c-1.3-1.5-2-3.3-2-5.4v-39c0-2.4,0.8-4.2,2.4-5.5c1.6-1.2,3.7-1.8,6.2-1.8h23.1
		c1.3,0,2.5,0.5,3.4,1.5c0.9,1,1.4,2.2,1.4,3.6s-0.5,2.6-1.4,3.5c-0.9,1-2.1,1.4-3.4,1.4h-18v11.4h16.8c1.3,0,2.5,0.5,3.4,1.4
		s1.4,2.2,1.4,3.6c0,1.4-0.5,2.6-1.4,3.5c-0.9,1-2.1,1.4-3.4,1.4h-16.8l0,14.8c0,2.1-0.7,3.9-2,5.4s-3,2.3-4.9,2.3
		C558.8,404.8,557.2,404.1,555.8,402.6z"/>
	<path class="st5" d="M602,399.2c-4.5-4.7-6.7-11.8-6.7-21.2c0-9.4,2.2-16.5,6.7-21.2c4.5-4.7,11.1-7.1,19.8-7.1
		c8.7,0,15.3,2.4,19.8,7.1c4.5,4.7,6.7,11.8,6.7,21.2c0,9.4-2.2,16.5-6.7,21.2c-4.5,4.7-11.1,7.1-19.8,7.1
		C613.1,406.3,606.5,403.9,602,399.2z M631.3,392.2c1.9-2.7,2.8-7.5,2.8-14.2c0-6.8-0.9-11.5-2.8-14.3c-1.9-2.7-5-4.1-9.4-4.1
		c-2.9,0-5.3,0.6-7,1.7c-1.7,1.2-3,3.1-3.9,5.8c-0.8,2.7-1.3,6.3-1.3,10.9c0,6.7,0.9,11.4,2.8,14.2c1.9,2.7,5,4.1,9.4,4.1
		C626.3,396.3,629.4,394.9,631.3,392.2z"/>
	<path class="st5" d="M660.4,403.1c-1.1-1.1-1.8-2.5-2.2-4.1c-0.4-1.6-0.6-3.4-0.6-5.4v-35.1c0-2.1,0.7-3.9,2-5.5
		c1.3-1.5,2.9-2.3,4.8-2.3c1.9,0,3.5,0.8,4.9,2.3c1.3,1.5,2,3.3,2,5.5l0,36H690c1.4,0,2.5,0.5,3.5,1.5c1,1,1.4,2.2,1.4,3.6
		c0,1.4-0.5,2.7-1.4,3.7c-1,1-2.1,1.5-3.5,1.5h-25.5C662.9,404.8,661.5,404.3,660.4,403.1z"/>
	<path class="st5" d="M704.2,402.6c-1.3-1.5-2-3.3-2-5.5v-38.6c0-2.1,0.7-4,2-5.5c1.3-1.5,2.9-2.3,4.8-2.3c1.9,0,3.5,0.8,4.8,2.3
		s2,3.3,2,5.5v38.6c0,2.1-0.7,3.9-2,5.5c-1.3,1.5-3,2.3-4.9,2.3C707.1,404.8,705.5,404.1,704.2,402.6z"/>
	<path class="st5" d="M732.3,399.2c-4.5-4.7-6.7-11.8-6.7-21.2c0-9.4,2.2-16.5,6.7-21.2c4.5-4.7,11.1-7.1,19.8-7.1
		c8.7,0,15.3,2.4,19.8,7.1c4.5,4.7,6.7,11.8,6.7,21.2c0,9.4-2.2,16.5-6.7,21.2c-4.5,4.7-11.1,7.1-19.8,7.1
		C743.4,406.3,736.7,403.9,732.3,399.2z M761.5,392.2c1.9-2.7,2.8-7.5,2.8-14.2c0-6.8-0.9-11.5-2.8-14.3c-1.9-2.7-5-4.1-9.4-4.1
		c-2.9,0-5.3,0.6-7,1.7c-1.7,1.2-3,3.1-3.9,5.8c-0.8,2.7-1.3,6.3-1.3,10.9c0,6.7,0.9,11.4,2.8,14.2c1.9,2.7,5,4.1,9.4,4.1
		C756.5,396.3,759.6,394.9,761.5,392.2z"/>
</g>
<g>
	<path class="st6" d="M399.4,465.5h12.7c0.3,0,0.6,0.1,0.7,0.3c0.1,0.2,0.2,0.5,0.2,0.8c0,0.3-0.1,0.6-0.2,0.8
		c-0.1,0.2-0.4,0.3-0.7,0.3H384c-0.3,0-0.6-0.1-0.7-0.3s-0.2-0.5-0.2-0.8c0-0.3,0.1-0.6,0.2-0.8s0.4-0.3,0.7-0.3h12.8v-8.8h2.6
		V465.5z M388.6,441.9c0.3,0,0.6,0.1,0.9,0.3s0.4,0.4,0.4,0.8v5h16.3v-5c0-0.4,0.1-0.7,0.4-0.8c0.3-0.2,0.6-0.3,0.9-0.3
		s0.6,0.1,0.9,0.3c0.3,0.2,0.4,0.4,0.4,0.8v12.9c0,0.9-0.2,1.5-0.5,1.9c-0.4,0.3-1,0.5-1.9,0.5h-16.5c-0.9,0-1.6-0.2-1.9-0.5
		c-0.4-0.3-0.5-1-0.5-1.9V443c0-0.4,0.1-0.7,0.4-0.8C388,442,388.3,441.9,388.6,441.9z M389.9,455.4c0,0.4,0.2,0.6,0.7,0.6h14.9
		c0.5,0,0.7-0.2,0.7-0.6v-5.1h-16.3V455.4z"/>
	<path class="st6" d="M425,442.2c2.6,0,4.6,0.9,6,2.7s2,4.4,2,7.8c0,3.4-0.7,6-2,7.8c-1.3,1.8-3.3,2.7-6,2.7c-2.6,0-4.6-0.9-6-2.7
		c-1.3-1.8-2-4.4-2-7.8c0-3.4,0.7-6,2-7.8C420.4,443.1,422.4,442.2,425,442.2z M425,444.6c-1.9,0-3.3,0.7-4.1,2.1
		c-0.9,1.4-1.3,3.4-1.3,6c0,2.6,0.4,4.6,1.3,6c0.9,1.4,2.2,2.1,4.1,2.1c1.9,0,3.3-0.7,4.1-2.1c0.9-1.4,1.3-3.4,1.3-6
		c0-2.6-0.4-4.6-1.3-6C428.3,445.3,426.9,444.6,425,444.6z M441.4,440.3c0.3,0,0.6,0.1,0.9,0.3c0.3,0.2,0.4,0.4,0.4,0.8V470
		c0,0.4-0.1,0.7-0.4,0.8c-0.3,0.2-0.6,0.3-0.9,0.3s-0.6-0.1-0.9-0.3c-0.3-0.2-0.4-0.4-0.4-0.8v-12.2h-5c-0.3,0-0.6-0.1-0.7-0.3
		c-0.1-0.2-0.2-0.5-0.2-0.8c0-0.3,0.1-0.6,0.2-0.8c0.1-0.2,0.4-0.3,0.7-0.3h5V450h-5c-0.3,0-0.6-0.1-0.7-0.3
		c-0.1-0.2-0.2-0.5-0.2-0.8c0-0.3,0.1-0.6,0.2-0.8c0.1-0.2,0.4-0.3,0.7-0.3h5v-6.3c0-0.4,0.1-0.7,0.4-0.8
		C440.8,440.4,441.1,440.3,441.4,440.3z"/>
	<path class="st6" d="M478.4,454.8c0.1,0.2,0.2,0.5,0.2,0.7c0,0.3-0.1,0.6-0.2,0.8c-0.1,0.2-0.4,0.3-0.6,0.3h-12.9v4.8h-2.6v-4.8
		h-12.9c-0.3,0-0.5-0.1-0.6-0.3s-0.2-0.5-0.2-0.8c0-0.3,0.1-0.5,0.2-0.7c0.1-0.2,0.4-0.3,0.6-0.3h28.3
		C478,454.5,478.2,454.6,478.4,454.8z M474.5,441.6c0.1,0.2,0.2,0.5,0.2,0.8s-0.1,0.6-0.2,0.8c-0.1,0.2-0.4,0.3-0.6,0.3h-9v0.8
		c0,0.4,0.1,0.8,0.2,1.1s0.3,0.6,0.5,0.9c0.3,0.3,0.6,0.5,1,0.8c0.4,0.2,1,0.5,1.7,0.8c2.5,0.9,4.7,1.8,6.8,2.5
		c0.3,0.1,0.6,0.3,0.6,0.6c0.1,0.3,0.1,0.6,0,0.8s-0.3,0.5-0.5,0.6c-0.2,0.1-0.5,0.2-0.9,0c-1-0.3-2.1-0.7-3.1-1.1
		c-1.1-0.4-2.2-0.8-3.5-1.3c-0.7-0.3-1.3-0.5-1.8-0.8c-0.5-0.2-0.9-0.5-1.2-0.7c-0.3-0.2-0.6-0.5-0.7-0.7c-0.2-0.2-0.3-0.4-0.4-0.7
		h0c-0.1,0.5-0.5,0.9-1,1.4c-0.6,0.5-1.6,0.9-3.1,1.5c-1.2,0.5-2.4,0.9-3.5,1.3c-1.1,0.4-2.1,0.8-3.1,1.1c-0.4,0.1-0.7,0.1-0.9,0
		c-0.3-0.1-0.4-0.4-0.6-0.6c-0.1-0.3-0.1-0.6,0-0.9c0.1-0.3,0.3-0.5,0.6-0.6c2-0.7,4.3-1.5,6.8-2.5c0.7-0.3,1.2-0.5,1.7-0.8
		c0.4-0.2,0.8-0.5,1-0.8c0.3-0.3,0.4-0.6,0.5-0.9c0.1-0.3,0.2-0.7,0.2-1.1v-0.8h-9c-0.3,0-0.5-0.1-0.6-0.3c-0.1-0.2-0.2-0.5-0.2-0.8
		s0.1-0.6,0.2-0.8c0.1-0.2,0.4-0.3,0.6-0.3h20.7C474.2,441.3,474.4,441.4,474.5,441.6z M473.7,460.8c0.4,0.3,0.5,1,0.5,1.9v2.7
		c0,0.9-0.2,1.5-0.5,1.9c-0.4,0.3-1,0.5-1.9,0.5H456c-0.4,0-0.6,0.2-0.6,0.6v2.2c0,0.4,0.2,0.5,0.6,0.5h18.3c0.3,0,0.5,0.1,0.6,0.3
		c0.1,0.2,0.2,0.5,0.2,0.7c0,0.3-0.1,0.5-0.2,0.8c-0.1,0.2-0.3,0.3-0.6,0.3h-19c-0.9,0-1.6-0.2-1.9-0.5c-0.4-0.3-0.5-1-0.5-1.9v-2.7
		c0-0.9,0.2-1.5,0.5-1.9c0.4-0.3,1-0.5,1.9-0.5h15.8c0.4,0,0.6-0.2,0.6-0.5V463c0-0.4-0.2-0.6-0.6-0.6h-17.5c-0.3,0-0.5-0.1-0.6-0.3
		c-0.1-0.2-0.2-0.5-0.2-0.7c0-0.3,0.1-0.5,0.2-0.7c0.1-0.2,0.4-0.3,0.6-0.3h18.1C472.7,460.3,473.4,460.5,473.7,460.8z"/>
	<path class="st6" d="M494.2,443.6c0.4,0.3,0.5,1,0.5,1.9v3.8c0,1.1,0,2.1-0.1,2.9c-0.1,0.8-0.3,1.6-0.5,2.3c-0.3,0.7-0.6,1.3-1.1,2
		c-0.5,0.6-1.1,1.3-1.9,2c-0.8,0.7-1.8,1.5-3,2.3c-1.2,0.9-2.6,1.9-4.2,3c-0.3,0.2-0.6,0.2-0.9,0.2c-0.3-0.1-0.6-0.3-0.8-0.5
		c-0.2-0.3-0.3-0.6-0.3-0.9c0-0.3,0.1-0.6,0.4-0.8c1.5-1,2.8-1.9,3.8-2.7c1.1-0.8,2-1.5,2.7-2.1c0.7-0.6,1.3-1.2,1.7-1.7
		c0.4-0.5,0.8-1.1,1-1.7c0.2-0.6,0.4-1.2,0.4-1.9c0.1-0.7,0.1-1.5,0.1-2.4V446c0-0.4-0.2-0.6-0.7-0.6h-8.2c-0.3,0-0.6-0.1-0.7-0.3
		c-0.1-0.2-0.2-0.5-0.2-0.8s0.1-0.6,0.2-0.8c0.1-0.2,0.4-0.3,0.7-0.3h9C493.2,443.1,493.8,443.3,494.2,443.6z M501.3,440.7
		c0.3,0,0.6,0.1,0.8,0.3c0.3,0.2,0.4,0.4,0.4,0.8v26.9c0,0.4-0.1,0.6-0.4,0.8c-0.3,0.2-0.5,0.3-0.8,0.3c-0.3,0-0.6-0.1-0.9-0.3
		c-0.3-0.2-0.4-0.4-0.4-0.8v-14.7h-6.7v-2.3h6.7v-9.9c0-0.4,0.1-0.6,0.4-0.8C500.6,440.7,500.9,440.7,501.3,440.7z M507.8,440.3
		c0.3,0,0.6,0.1,0.9,0.3s0.4,0.4,0.4,0.8v28.7c0,0.4-0.1,0.6-0.4,0.8s-0.5,0.3-0.9,0.3c-0.3,0-0.6-0.1-0.8-0.3s-0.4-0.4-0.4-0.8
		v-28.7c0-0.4,0.1-0.6,0.4-0.8S507.5,440.3,507.8,440.3z"/>
	<path class="st6" d="M523.4,459.2c0.4,0,0.7,0.1,0.9,0.3c0.3,0.2,0.4,0.4,0.4,0.8v5.3h8.8v-5.3c0-0.4,0.1-0.7,0.4-0.8
		c0.3-0.2,0.6-0.3,0.9-0.3c0.3,0,0.6,0.1,0.9,0.3c0.3,0.2,0.4,0.4,0.4,0.8v5.3h7.1c0.3,0,0.5,0.1,0.7,0.3c0.1,0.2,0.2,0.5,0.2,0.8
		c0,0.3-0.1,0.6-0.2,0.8c-0.1,0.2-0.4,0.3-0.7,0.3H515c-0.3,0-0.5-0.1-0.7-0.3s-0.2-0.5-0.2-0.8c0-0.3,0.1-0.6,0.2-0.8
		s0.4-0.3,0.7-0.3h7.1v-5.3c0-0.4,0.1-0.7,0.4-0.8C522.7,459.3,523,459.2,523.4,459.2z M529.1,441.6c3.5,0,6.1,0.7,8,2.2
		c1.9,1.5,2.8,3.5,2.8,6.1c0,2.6-0.9,4.7-2.8,6.1c-1.9,1.5-4.5,2.2-8,2.2s-6.1-0.7-8-2.2c-1.9-1.5-2.8-3.5-2.8-6.1
		c0-2.6,0.9-4.7,2.8-6.1C523,442.4,525.6,441.6,529.1,441.6z M529.1,443.9c-1.4,0-2.6,0.2-3.6,0.5c-1,0.3-1.9,0.7-2.5,1.3
		s-1.2,1.2-1.5,1.9c-0.3,0.7-0.5,1.6-0.5,2.4c0,0.9,0.2,1.7,0.5,2.4s0.8,1.4,1.5,1.9s1.5,1,2.5,1.3c1,0.3,2.2,0.5,3.6,0.5
		s2.6-0.2,3.6-0.5c1-0.3,1.9-0.7,2.5-1.3s1.2-1.2,1.5-1.9s0.5-1.5,0.5-2.4c0-0.9-0.2-1.7-0.5-2.4c-0.3-0.7-0.8-1.4-1.5-1.9
		s-1.5-1-2.5-1.3C531.6,444,530.5,443.9,529.1,443.9z"/>
	<path class="st6" d="M550.1,465.1c0.5,0.1,0.8,0.3,1,0.6c0.2,0.3,0.2,0.7,0.1,1.2l-1.8,5.9c-0.1,0.4-0.3,0.6-0.5,0.7
		c-0.2,0.1-0.5,0.2-0.8,0.1c-0.7-0.1-0.9-0.5-0.8-1.2l1-6.1c0.1-0.5,0.3-0.9,0.6-1C549.2,465.1,549.7,465,550.1,465.1z"/>
	<path class="st6" d="M567.1,442.5c0.3,0,0.6,0.1,0.9,0.3c0.3,0.2,0.4,0.4,0.4,0.8v16.1c0,0.5,0.2,0.7,0.7,0.7c2.6,0,5-0.1,7.2-0.2
		c2.2-0.1,4.4-0.4,6.5-0.6c0.3,0,0.5,0,0.7,0.2c0.2,0.2,0.3,0.4,0.4,0.8c0,0.3,0,0.6-0.1,0.9s-0.3,0.4-0.6,0.5
		c-0.9,0.1-1.9,0.2-3,0.3c-1,0.1-2.2,0.2-3.4,0.3c-1.2,0.1-2.5,0.1-3.9,0.2s-3,0.1-4.6,0.1c-0.9,0-1.6-0.2-1.9-0.5
		c-0.4-0.3-0.5-1-0.5-1.9v-16.7c0-0.4,0.1-0.7,0.4-0.8C566.4,442.6,566.7,442.5,567.1,442.5z M588,440.3c0.3,0,0.6,0.1,0.9,0.3
		c0.3,0.2,0.4,0.4,0.4,0.8v10h4.6c0.3,0,0.6,0.1,0.7,0.3c0.1,0.2,0.2,0.5,0.2,0.8c0,0.3-0.1,0.6-0.2,0.8c-0.1,0.2-0.4,0.3-0.7,0.3
		h-4.6V470c0,0.4-0.1,0.7-0.4,0.8c-0.3,0.2-0.6,0.3-0.9,0.3c-0.3,0-0.6-0.1-0.9-0.3c-0.3-0.2-0.4-0.4-0.4-0.8v-28.7
		c0-0.4,0.1-0.7,0.4-0.8C587.3,440.4,587.6,440.3,588,440.3z"/>
	<path class="st6" d="M618.3,462.3c0.3,0,0.5,0,0.7,0.2s0.3,0.4,0.3,0.8c0,0.3,0,0.6-0.2,0.9c-0.1,0.2-0.3,0.4-0.6,0.4
		c-1.7,0.1-3.3,0.3-5,0.4c-1.6,0.1-3.3,0.2-4.9,0.3c-1.7,0.1-3.3,0.1-5,0.1c-1.7,0-3.5,0-5.3,0c-0.3,0-0.6-0.1-0.7-0.3
		c-0.1-0.2-0.2-0.5-0.2-0.8c0-0.3,0.1-0.6,0.2-0.8c0.1-0.2,0.4-0.3,0.7-0.3c1.7,0,3.3,0,4.9,0c1.6,0,3.2,0,4.9-0.1
		c1.6,0,3.3-0.1,5-0.2C614.7,462.6,616.5,462.5,618.3,462.3z M607.9,442.2c1.4,0,2.7,0.2,3.7,0.6c1.1,0.4,1.9,0.9,2.6,1.6
		c0.7,0.7,1.2,1.5,1.6,2.4c0.4,0.9,0.5,1.9,0.5,3s-0.2,2.1-0.5,3c-0.4,0.9-0.9,1.7-1.6,2.4c-0.7,0.7-1.6,1.2-2.6,1.6
		c-1.1,0.4-2.3,0.6-3.7,0.6s-2.7-0.2-3.7-0.6c-1.1-0.4-1.9-0.9-2.6-1.6c-0.7-0.7-1.2-1.5-1.6-2.4c-0.4-0.9-0.5-1.9-0.5-3
		s0.2-2.1,0.5-3c0.4-0.9,0.9-1.7,1.6-2.4c0.7-0.7,1.6-1.2,2.6-1.6C605.3,442.4,606.5,442.2,607.9,442.2z M607.9,444.5
		c-1,0-1.9,0.1-2.6,0.4s-1.4,0.7-1.9,1.2c-0.5,0.5-0.9,1-1.1,1.7s-0.4,1.4-0.4,2.1c0,0.7,0.1,1.4,0.4,2.1s0.6,1.2,1.1,1.7
		c0.5,0.5,1.1,0.9,1.9,1.2c0.7,0.3,1.6,0.4,2.6,0.4s1.9-0.1,2.6-0.4c0.7-0.3,1.4-0.7,1.9-1.2c0.5-0.5,0.9-1,1.1-1.7s0.4-1.4,0.4-2.1
		c0-0.7-0.1-1.4-0.4-2.1s-0.6-1.2-1.1-1.7c-0.5-0.5-1.1-0.9-1.9-1.2S608.9,444.5,607.9,444.5z M623,440.3c0.3,0,0.6,0.1,0.9,0.3
		c0.3,0.2,0.4,0.4,0.4,0.8V470c0,0.4-0.1,0.7-0.4,0.8c-0.3,0.2-0.6,0.3-0.9,0.3s-0.6-0.1-0.9-0.3c-0.3-0.2-0.4-0.4-0.4-0.8v-28.7
		c0-0.4,0.1-0.7,0.4-0.8C622.3,440.4,622.6,440.3,623,440.3z"/>
	<path class="st6" d="M654.7,443.3c0.4,0.3,0.5,1,0.5,1.9v4.1c0,1-0.1,1.9-0.2,2.7s-0.4,1.5-0.7,2.3c-0.3,0.7-0.8,1.4-1.4,2.1
		c-0.6,0.7-1.4,1.4-2.4,2.1c-1,0.8-2.1,1.6-3.5,2.5s-3,1.9-4.8,3.1c-0.3,0.2-0.5,0.2-0.8,0.1c-0.3-0.1-0.5-0.3-0.7-0.5
		s-0.3-0.6-0.3-0.9c0-0.3,0.2-0.6,0.5-0.8c2.6-1.6,4.7-2.9,6.3-4c1.6-1.1,2.7-2,3.6-2.9c0.8-0.9,1.3-1.8,1.6-2.6
		c0.2-0.9,0.4-1.9,0.4-3.2v-3.4c0-0.4-0.2-0.6-0.7-0.6h-10.3c-0.3,0-0.6-0.1-0.7-0.3c-0.1-0.2-0.2-0.5-0.2-0.8s0.1-0.6,0.2-0.8
		c0.1-0.2,0.4-0.3,0.7-0.3h11.1C653.7,442.8,654.3,443,654.7,443.3z M664,440.3c0.3,0,0.6,0.1,0.9,0.3c0.3,0.2,0.4,0.4,0.4,0.8V470
		c0,0.4-0.1,0.7-0.4,0.8c-0.3,0.2-0.6,0.3-0.9,0.3s-0.6-0.1-0.9-0.3s-0.4-0.4-0.4-0.8v-28.7c0-0.4,0.1-0.7,0.4-0.8
		S663.7,440.3,664,440.3z"/>
	<path class="st6" d="M687.7,458.4h12.8c0.3,0,0.5,0.1,0.7,0.3c0.1,0.2,0.2,0.5,0.2,0.8c0,0.3-0.1,0.6-0.2,0.8
		c-0.1,0.2-0.4,0.3-0.7,0.3h-28.2c-0.3,0-0.5-0.1-0.7-0.3s-0.2-0.5-0.2-0.8c0-0.3,0.1-0.5,0.2-0.8s0.4-0.3,0.7-0.3h12.8v-4.6h2.6
		V458.4z M696.6,464c0.4,0.3,0.5,1,0.5,1.9v6.6c0,0.4-0.1,0.7-0.4,0.8c-0.3,0.2-0.6,0.3-0.9,0.3s-0.6-0.1-0.9-0.3
		c-0.3-0.2-0.4-0.4-0.4-0.8v-6.2c0-0.5-0.2-0.7-0.7-0.7h-17.7c-0.3,0-0.5-0.1-0.6-0.3c-0.1-0.2-0.2-0.5-0.2-0.8
		c0-0.3,0.1-0.5,0.2-0.8c0.1-0.2,0.4-0.3,0.6-0.3h18.5C695.6,463.5,696.3,463.7,696.6,464z M696.4,441.9c0.4,0.3,0.5,1,0.5,1.9v2.9
		c0,0.9-0.2,1.5-0.5,1.9c-0.4,0.3-1,0.5-1.9,0.5H679c-0.4,0-0.6,0.2-0.6,0.5v2.4c0,0.4,0.2,0.6,0.6,0.6H697c0.3,0,0.5,0.1,0.6,0.3
		c0.1,0.2,0.2,0.5,0.2,0.7c0,0.3-0.1,0.6-0.2,0.8c-0.1,0.2-0.4,0.3-0.6,0.3h-18.6c-0.9,0-1.6-0.2-1.9-0.5c-0.4-0.3-0.5-1-0.5-1.9v-3
		c0-0.9,0.2-1.5,0.5-1.9s1-0.5,1.9-0.5h15.4c0.4,0,0.6-0.2,0.6-0.5V444c0-0.4-0.2-0.6-0.6-0.6h-17.1c-0.3,0-0.5-0.1-0.6-0.3
		c-0.1-0.2-0.2-0.5-0.2-0.8s0.1-0.5,0.2-0.7c0.1-0.2,0.4-0.3,0.6-0.3h17.8C695.4,441.3,696.1,441.5,696.4,441.9z"/>
	<path class="st6" d="M734,455c0.1,0.2,0.2,0.5,0.2,0.8c0,0.3-0.1,0.6-0.2,0.8c-0.1,0.2-0.4,0.3-0.7,0.3h-28.2
		c-0.3,0-0.5-0.1-0.7-0.3s-0.2-0.5-0.2-0.8c0-0.3,0.1-0.6,0.2-0.8s0.4-0.3,0.7-0.3h28.2C733.6,454.7,733.9,454.8,734,455z
		 M729.4,460.8c0.4,0.3,0.5,1,0.5,1.9v2.7c0,0.9-0.2,1.5-0.5,1.9c-0.4,0.3-1,0.5-1.9,0.5h-15.8c-0.4,0-0.6,0.2-0.6,0.6v2.2
		c0,0.4,0.2,0.5,0.6,0.5h18.3c0.3,0,0.5,0.1,0.6,0.3c0.1,0.2,0.2,0.5,0.2,0.7c0,0.3-0.1,0.5-0.2,0.8c-0.1,0.2-0.3,0.3-0.6,0.3h-19
		c-0.9,0-1.6-0.2-1.9-0.5c-0.4-0.3-0.5-1-0.5-1.9v-2.7c0-0.9,0.2-1.5,0.5-1.9c0.4-0.3,1-0.5,1.9-0.5h15.8c0.4,0,0.6-0.2,0.6-0.5V463
		c0-0.4-0.2-0.6-0.6-0.6h-17.5c-0.3,0-0.5-0.1-0.6-0.3c-0.1-0.2-0.2-0.5-0.2-0.7c0-0.3,0.1-0.5,0.2-0.7c0.1-0.2,0.4-0.3,0.6-0.3
		h18.1C728.3,460.3,729,460.5,729.4,460.8z M729.6,441.4c0.1,0.2,0.2,0.5,0.2,0.8c0,0.3-0.1,0.6-0.2,0.8c-0.1,0.2-0.4,0.3-0.7,0.3
		h-17c-0.3,0-0.4,0-0.5,0.1c-0.1,0.1-0.1,0.3-0.1,0.5v4.6c0,0.3,0,0.4,0.1,0.5c0.1,0.1,0.3,0.1,0.5,0.1h17.4c0.3,0,0.5,0.1,0.7,0.3
		c0.1,0.2,0.2,0.5,0.2,0.8s-0.1,0.6-0.2,0.8c-0.1,0.2-0.4,0.3-0.7,0.3H711c-0.9,0-1.6-0.2-1.9-0.5c-0.4-0.3-0.5-1-0.5-1.9v-5.4
		c0-0.9,0.2-1.5,0.5-1.9c0.4-0.3,1-0.5,1.9-0.5h17.9C729.2,441.1,729.4,441.2,729.6,441.4z"/>
	<path class="st6" d="M740.7,465.1c0.6,0,1,0.2,1.4,0.6c0.4,0.4,0.6,0.9,0.6,1.4c0,0.6-0.2,1-0.6,1.4c-0.4,0.4-0.9,0.6-1.4,0.6
		c-0.6,0-1.1-0.2-1.4-0.6s-0.6-0.9-0.6-1.4c0-0.6,0.2-1,0.6-1.4C739.7,465.3,740.2,465.1,740.7,465.1z M740.7,441.7
		c0.4,0,0.8,0.1,1,0.3c0.3,0.2,0.4,0.5,0.4,1l-0.3,17.5c0,0.4-0.1,0.7-0.3,0.9c-0.2,0.2-0.5,0.3-0.8,0.3c-0.3,0-0.6-0.1-0.8-0.3
		c-0.2-0.2-0.3-0.5-0.3-0.9l-0.3-17.5c0-0.4,0.1-0.7,0.4-1C739.9,441.8,740.3,441.7,740.7,441.7z"/>
</g>
</svg>
