<?xml version="1.0" encoding="utf-8"?>
<!-- Generator: Adobe Illustrator 19.0.0, SVG Export Plug-In . SVG Version: 6.00 Build 0)  -->
<svg version="1.1" id="Layer_1" xmlns="http://www.w3.org/2000/svg" xmlns:xlink="http://www.w3.org/1999/xlink" x="0px" y="0px"
	 viewBox="154 -393.1 904.7 1627" style="enable-background:new 154 -393.1 904.7 1627;" xml:space="preserve">
<style type="text/css">
	.st0{enable-background:new    ;}
	.st1{fill:#3E3A39;}
	.st2{fill:#60B383;stroke:#3E3A39;stroke-width:6;stroke-miterlimit:10;}
	.st3{fill:none;stroke:#3E3A39;stroke-width:6;stroke-linecap:round;stroke-linejoin:round;stroke-miterlimit:10;}
	.st4{fill:none;stroke:#3E3A39;stroke-width:6;stroke-linecap:round;stroke-miterlimit:10;}
	.st5{fill:none;stroke:#3E3A39;stroke-width:6;stroke-miterlimit:10;}
	.st6{fill:#FFFFFF;stroke:#3E3A39;stroke-width:6;stroke-miterlimit:10;}
	.st7{fill:#FFFFFF;stroke:#3E3A39;stroke-width:6;stroke-linecap:round;stroke-linejoin:round;stroke-miterlimit:10;}
	.st8{fill:#60B383;stroke:#3E3A39;stroke-width:6;stroke-linecap:round;stroke-linejoin:round;stroke-miterlimit:10;}
	.st9{fill:#FFFDFF;stroke:#3E3A39;stroke-width:6;stroke-linecap:round;stroke-linejoin:round;stroke-miterlimit:10;}
	.st10{fill:#E0E0DF;stroke:#3E3A39;stroke-width:6;stroke-linecap:round;stroke-linejoin:round;stroke-miterlimit:10;}
</style>
<g>
	<g class="st0">
		<path class="st1" d="M484.2,609.3c-1.3-0.6-2.4-1.3-3.2-2.3s-1.4-2-1.8-3.2c-0.4-1.2-0.6-2.4-0.6-3.7c0-1,0.1-2,0.4-3
			s0.7-1.9,1.2-2.7s1.2-1.6,2-2.2c0.8-0.6,1.8-1.1,2.9-1.5c1.1-0.4,2.4-0.6,3.8-0.6c1.3,0,2.6,0.2,3.7,0.5c1.1,0.4,2.1,0.8,2.9,1.5
			c0.8,0.6,1.5,1.4,2,2.2c0.6,0.9,1,1.8,1.2,2.8c0.3,1,0.4,2,0.4,3.1c0,1-0.1,2-0.4,3s-0.7,1.9-1.2,2.7c-0.5,0.9-1.2,1.6-2,2.2
			c-0.8,0.6-1.8,1.1-2.9,1.5c-1.1,0.4-2.4,0.6-3.8,0.6C487.1,610.1,485.5,609.8,484.2,609.3z M492.7,605c0.9-1.2,1.4-2.8,1.4-4.9
			c0-2.1-0.5-3.8-1.4-5s-2.3-1.8-3.9-1.8c-1.7,0-3,0.6-3.9,1.8c-0.9,1.2-1.4,2.8-1.4,5c0,2.1,0.5,3.8,1.4,4.9s2.2,1.8,3.9,1.8
			C490.5,606.8,491.8,606.2,492.7,605z"/>
		<path class="st1" d="M517.1,598.3l-8.3,7.3h10.8c0.5,0,1,0.2,1.3,0.6c0.3,0.4,0.4,0.9,0.4,1.5s-0.1,1.1-0.4,1.5
			c-0.3,0.4-0.7,0.6-1.3,0.6h-13.9c-0.9,0-1.5-0.3-2-0.8c-0.5-0.5-0.8-1.2-0.8-1.9c0-1,0.4-1.8,1.1-2.5l10.1-10.1
			c1.7-1.6,2.5-3.1,2.5-4.6c0-1.2-0.4-2.2-1.3-3c-0.9-0.8-1.9-1.2-3.2-1.2c-0.7,0-1.4,0.1-2.1,0.2c-0.7,0.2-1.1,0.3-1.4,0.4
			c-0.3,0.1-0.8,0.4-1.4,0.8c-0.7,0.4-1,0.6-1.1,0.6c-0.2,0.1-0.4,0.1-0.6,0.1c-0.5,0-1-0.3-1.5-0.8s-0.7-1.1-0.7-1.6
			c0-0.7,0.3-1.2,1-1.6c1.3-0.8,2.6-1.4,3.9-1.8c1.3-0.4,2.8-0.6,4.4-0.6c2.7,0,4.8,0.8,6.5,2.3s2.5,3.5,2.5,5.7
			C521.7,592.7,520.2,595.6,517.1,598.3z"/>
		<path class="st1" d="M531.7,609.7c-0.8-0.3-1.6-0.8-2.2-1.3s-1.2-1.4-1.6-2.4c-0.4-1-0.6-2.1-0.6-3.3V593c0-0.9,0.2-1.5,0.7-2
			s1.1-0.7,1.8-0.7c0.7,0,1.3,0.2,1.7,0.7c0.5,0.5,0.7,1.1,0.7,2v9.6c0,1.3,0.3,2.4,1,3.1c0.7,0.7,1.6,1.1,2.6,1.1
			c1.3,0,2.5-0.5,3.4-1.5s1.4-2.4,1.4-4V593c0-0.9,0.2-1.5,0.7-2c0.5-0.5,1.1-0.7,1.8-0.7c0.7,0,1.3,0.2,1.8,0.7
			c0.5,0.5,0.7,1.1,0.7,2v14.4c0,0.8-0.2,1.4-0.7,1.8s-1.1,0.6-1.8,0.6c-0.7,0-1.3-0.2-1.7-0.6c-0.5-0.4-0.7-1-0.7-1.8v-0.7
			c-1.2,2.2-3.3,3.4-6.4,3.4C533.4,610.1,532.5,610,531.7,609.7z"/>
		<path class="st1" d="M563.2,608.7l-4.8-5.6l-4.8,5.8c-0.5,0.7-1.1,1-1.8,1c-0.5,0-1-0.2-1.4-0.6c-0.4-0.4-0.6-0.9-0.6-1.5
			c0-0.5,0.2-1,0.5-1.4l5.4-6.4l-4.9-5.7c-0.4-0.6-0.6-1.2-0.6-1.7c0-0.6,0.3-1.1,0.8-1.6c0.5-0.4,1.1-0.7,1.7-0.7
			c0.7,0,1.3,0.4,2,1.3l4.3,5.1l4.6-5.5c0.5-0.6,1.1-0.9,1.7-0.9c0.6,0,1.1,0.2,1.5,0.6c0.4,0.4,0.6,0.9,0.6,1.5
			c0,0.5-0.2,0.9-0.5,1.4l-5.1,6.1l5.4,6.3c0.4,0.5,0.6,1.1,0.6,1.6c0,0.6-0.2,1.1-0.7,1.5s-1,0.7-1.7,0.7
			C564.5,609.9,563.8,609.5,563.2,608.7z"/>
	</g>
	<g class="st0">
		<path class="st1" d="M484.1,672.8c0.8,0,1.4,0.2,1.7,0.5c0.3,0.3,0.5,0.9,0.5,1.7V688c0,0.8-0.2,1.4-0.5,1.7
			c-0.3,0.3-0.9,0.5-1.7,0.5h-7c-0.8,0-1.4-0.2-1.7-0.5c-0.3-0.3-0.5-0.9-0.5-1.7v-13.1c0-0.8,0.2-1.4,0.5-1.7
			c0.3-0.3,0.9-0.5,1.7-0.5H484.1z M477.6,674.8c-0.4,0-0.6,0.2-0.6,0.6v12.2c0,0.4,0.2,0.6,0.6,0.6h5.8c0.4,0,0.6-0.2,0.6-0.6
			v-12.2c0-0.4-0.2-0.6-0.6-0.6H477.6z M491.8,670.7c0.3,0,0.5,0.1,0.8,0.2c0.2,0.1,0.3,0.4,0.3,0.7v23.9c0,0.3-0.1,0.6-0.3,0.7
			c-0.2,0.1-0.5,0.2-0.8,0.2c-0.3,0-0.6-0.1-0.8-0.2s-0.3-0.4-0.3-0.7v-13.1h-5.5v-2h5.5v-8.8c0-0.3,0.1-0.6,0.3-0.7
			S491.6,670.7,491.8,670.7z M497.5,670.4c0.3,0,0.6,0.1,0.8,0.2c0.2,0.1,0.3,0.4,0.3,0.7v25.5c0,0.3-0.1,0.6-0.3,0.7
			c-0.2,0.1-0.5,0.2-0.8,0.2c-0.3,0-0.5-0.1-0.8-0.2c-0.2-0.1-0.3-0.4-0.3-0.7v-25.5c0-0.3,0.1-0.6,0.3-0.7S497.2,670.4,497.5,670.4
			z"/>
		<path class="st1" d="M517.9,672.7c0.1,0.2,0.2,0.4,0.2,0.7c0,0.3-0.1,0.5-0.2,0.7c-0.1,0.2-0.3,0.3-0.6,0.3h-9.9
			c-0.4,0-0.6,0.2-0.6,0.6v5.4h10.2c0.3,0,0.5,0.1,0.6,0.3c0.1,0.2,0.2,0.4,0.2,0.7s-0.1,0.5-0.2,0.7c-0.1,0.2-0.3,0.3-0.6,0.3
			h-10.2v5.6c0,0.4,0.2,0.6,0.6,0.6c2.4,0,4.5-0.1,6.5-0.2c2-0.1,3.9-0.3,5.8-0.6c0.3,0,0.5,0,0.6,0.2c0.2,0.2,0.3,0.4,0.3,0.7
			c0,0.3,0,0.6-0.1,0.8s-0.3,0.4-0.6,0.4c-0.8,0.1-1.7,0.2-2.6,0.3c-0.9,0.1-1.9,0.2-3,0.2c-1.1,0.1-2.3,0.1-3.5,0.1
			c-1.3,0-2.7,0-4.2,0c-0.8,0-1.4-0.2-1.7-0.5c-0.3-0.3-0.5-0.9-0.5-1.7v-13.9c0-0.8,0.2-1.4,0.5-1.7s0.9-0.5,1.7-0.5h10.6
			C517.5,672.4,517.7,672.5,517.9,672.7z M524.2,670.4c0.3,0,0.6,0.1,0.8,0.2s0.4,0.4,0.4,0.7v8.9h4.1c0.3,0,0.5,0.1,0.6,0.3
			c0.1,0.2,0.2,0.4,0.2,0.7c0,0.3-0.1,0.5-0.2,0.8c-0.1,0.2-0.3,0.3-0.6,0.3h-4.1v14.5c0,0.3-0.1,0.6-0.4,0.7
			c-0.2,0.1-0.5,0.2-0.8,0.2s-0.6-0.1-0.8-0.2c-0.2-0.1-0.4-0.4-0.4-0.7v-25.5c0-0.3,0.1-0.6,0.4-0.7
			C523.7,670.4,523.9,670.4,524.2,670.4z"/>
		<path class="st1" d="M558.7,687.7c0.1,0.2,0.2,0.4,0.2,0.7c0,0.3-0.1,0.5-0.2,0.7c-0.1,0.2-0.3,0.3-0.6,0.3h-11.3v9.6
			c0,0.3-0.1,0.6-0.4,0.7c-0.2,0.1-0.5,0.2-0.8,0.2c-0.3,0-0.6-0.1-0.8-0.2s-0.4-0.4-0.4-0.7v-9.6H533c-0.3,0-0.5-0.1-0.6-0.3
			c-0.1-0.2-0.2-0.4-0.2-0.7c0-0.3,0.1-0.5,0.2-0.7c0.1-0.2,0.3-0.3,0.6-0.3h25C558.3,687.4,558.5,687.5,558.7,687.7z M545.5,671.1
			c0.3,0,0.6,0.1,0.8,0.2c0.2,0.2,0.4,0.4,0.4,0.8v2c0,1.2,0.3,2.1,0.8,2.9c0.5,0.8,1.4,1.4,2.4,2c1.2,0.6,2.3,1.2,3.3,1.7
			s1.9,1,2.9,1.4c0.3,0.1,0.5,0.3,0.5,0.6c0,0.3,0,0.5-0.1,0.8c-0.1,0.3-0.3,0.4-0.5,0.6s-0.5,0.1-0.8,0c-2-1-4.1-2-6.1-3
			c-1.2-0.6-2.1-1.2-2.6-1.8s-0.9-1-1-1.5h0c-0.1,0.4-0.4,0.9-1,1.5c-0.5,0.6-1.4,1.2-2.6,1.8c-1,0.6-2,1.1-3,1.6c-1,0.5-2,1-3,1.5
			c-0.3,0.1-0.6,0.2-0.8,0c-0.3-0.1-0.4-0.3-0.5-0.6s-0.1-0.5-0.1-0.8c0-0.3,0.2-0.5,0.5-0.6c0.9-0.4,1.9-0.9,2.9-1.4
			c1-0.5,2.1-1.1,3.3-1.7c1.1-0.6,1.9-1.2,2.4-2c0.5-0.8,0.8-1.7,0.8-2.9v-2c0-0.3,0.1-0.6,0.4-0.8
			C544.9,671.2,545.2,671.1,545.5,671.1z"/>
		<path class="st1" d="M570,670c0.3,0,0.6,0.1,0.8,0.2c0.2,0.1,0.4,0.4,0.4,0.7v2.5h6.4c0.3,0,0.5,0.1,0.6,0.3
			c0.1,0.2,0.2,0.4,0.2,0.7c0,0.3-0.1,0.5-0.2,0.7s-0.3,0.3-0.6,0.3h-15.4c-0.3,0-0.5-0.1-0.6-0.3s-0.2-0.4-0.2-0.7
			c0-0.3,0.1-0.5,0.2-0.7c0.1-0.2,0.3-0.3,0.6-0.3h6.7V671c0-0.3,0.1-0.6,0.4-0.7C569.4,670.1,569.7,670,570,670z M570,677.6
			c2.1,0,3.7,0.5,4.9,1.4c1.2,0.9,1.7,2.1,1.7,3.6s-0.6,2.7-1.7,3.6c-1.2,0.9-2.8,1.4-4.9,1.4s-3.7-0.5-4.9-1.4
			c-1.2-0.9-1.7-2.1-1.7-3.6s0.6-2.7,1.7-3.6C566.2,678.1,567.9,677.6,570,677.6z M583.2,690.8c0.3,0.3,0.5,0.9,0.5,1.7v6.5
			c0,0.3-0.1,0.6-0.4,0.7s-0.5,0.2-0.8,0.2s-0.6-0.1-0.8-0.2c-0.2-0.1-0.4-0.4-0.4-0.7v-6c0-0.4-0.2-0.6-0.6-0.6h-14.7
			c-0.3,0-0.5-0.1-0.6-0.3c-0.1-0.2-0.2-0.4-0.2-0.7c0-0.3,0.1-0.5,0.2-0.7s0.3-0.3,0.6-0.3h15.4
			C582.3,690.3,582.9,690.4,583.2,690.8z M570,679.5c-1.5,0-2.6,0.3-3.3,0.8c-0.8,0.6-1.2,1.3-1.2,2.3s0.4,1.7,1.2,2.3
			c0.8,0.6,1.9,0.8,3.3,0.8c1.5,0,2.6-0.3,3.3-0.8s1.2-1.3,1.2-2.3s-0.4-1.7-1.2-2.3S571.4,679.5,570,679.5z M582.5,670.4
			c0.3,0,0.6,0.1,0.8,0.2s0.4,0.4,0.4,0.7v6.8h4.1c0.3,0,0.5,0.1,0.6,0.3c0.1,0.2,0.2,0.5,0.2,0.8c0,0.3-0.1,0.5-0.2,0.7
			c-0.1,0.2-0.3,0.3-0.6,0.3h-4.1v7.6c0,0.3-0.1,0.6-0.4,0.7c-0.2,0.1-0.5,0.2-0.8,0.2s-0.6-0.1-0.8-0.2c-0.2-0.1-0.4-0.4-0.4-0.7
			v-16.4c0-0.3,0.1-0.6,0.4-0.7C581.9,670.4,582.2,670.4,582.5,670.4z"/>
		<path class="st1" d="M613.3,681c0.3,0,0.5,0,0.6,0.2s0.2,0.4,0.3,0.7c0,0.3,0,0.5-0.2,0.7c-0.1,0.2-0.3,0.3-0.5,0.3
			c-0.9,0.1-1.9,0.2-3,0.3c-1.1,0.1-2.2,0.1-3.3,0.2v4.4c0,0.3-0.1,0.6-0.4,0.7c-0.2,0.1-0.5,0.2-0.8,0.2s-0.6-0.1-0.8-0.2
			c-0.2-0.1-0.4-0.4-0.4-0.7v-4.4c-1,0-2,0.1-3,0.1s-2,0-3,0c-0.3,0-0.5-0.1-0.6-0.3s-0.2-0.4-0.2-0.7s0.1-0.5,0.2-0.7
			c0.1-0.2,0.3-0.3,0.6-0.3c1.1,0,2.3,0,3.5,0c1.2,0,2.5,0,3.7-0.1c1.2,0,2.5-0.1,3.7-0.2C611,681.2,612.2,681.1,613.3,681z
			 M606.2,671.2c2.2,0,3.8,0.4,4.8,1.2c1,0.8,1.5,1.8,1.5,3c0,1.2-0.5,2.2-1.5,3c-1,0.8-2.6,1.2-4.8,1.2s-3.8-0.4-4.8-1.2
			c-1-0.8-1.5-1.8-1.5-3c0-1.2,0.5-2.2,1.5-3C602.4,671.5,604,671.2,606.2,671.2z M606.2,673c-1.5,0-2.6,0.2-3.2,0.7
			c-0.6,0.5-1,1-1,1.7c0,0.7,0.3,1.2,1,1.7c0.6,0.5,1.7,0.7,3.2,0.7c1.5,0,2.6-0.2,3.2-0.7c0.6-0.5,1-1,1-1.7c0-0.7-0.3-1.2-1-1.7
			C608.8,673.2,607.7,673,606.2,673z M604.9,690c0.3,0,0.6,0.1,0.8,0.2c0.2,0.2,0.4,0.4,0.4,0.7v2h15.1v-2c0-0.3,0.1-0.6,0.3-0.7
			c0.2-0.1,0.5-0.2,0.8-0.2s0.6,0.1,0.8,0.2c0.2,0.2,0.4,0.4,0.4,0.7v6.4c0,0.8-0.2,1.4-0.5,1.7c-0.3,0.3-0.9,0.5-1.7,0.5H606
			c-0.8,0-1.4-0.2-1.7-0.5c-0.3-0.3-0.5-0.9-0.5-1.7v-6.4c0-0.3,0.1-0.6,0.4-0.7C604.3,690.1,604.6,690,604.9,690z M606.1,697.1
			c0,0.3,0.2,0.5,0.5,0.5h14.1c0.3,0,0.5-0.2,0.5-0.5v-2.2h-15.1V697.1z M617,670.5c0.3,0,0.5,0.1,0.8,0.2c0.2,0.1,0.3,0.4,0.3,0.7
			v16c0,0.3-0.1,0.5-0.3,0.7c-0.2,0.1-0.5,0.2-0.8,0.2s-0.6-0.1-0.8-0.2c-0.2-0.1-0.3-0.4-0.3-0.7v-0.6h-4.5c-0.3,0-0.4-0.1-0.6-0.3
			c-0.1-0.2-0.2-0.4-0.2-0.7c0-0.3,0.1-0.5,0.2-0.7s0.3-0.3,0.6-0.3h4.5v-13.6c0-0.3,0.1-0.6,0.3-0.7
			C616.5,670.6,616.7,670.5,617,670.5z M622.3,670.4c0.3,0,0.6,0.1,0.8,0.2c0.2,0.1,0.3,0.4,0.3,0.7v16.4c0,0.3-0.1,0.5-0.3,0.7
			c-0.2,0.1-0.5,0.2-0.8,0.2s-0.6-0.1-0.8-0.2c-0.2-0.1-0.3-0.4-0.3-0.7v-16.4c0-0.3,0.1-0.6,0.3-0.7
			C621.8,670.4,622.1,670.4,622.3,670.4z"/>
		<path class="st1" d="M636.2,671.9c0.3,0,0.6,0.1,0.8,0.2s0.4,0.4,0.4,0.8v5.1c0,0.7,0,1.3,0.1,1.9s0.2,1.1,0.4,1.6
			c0.2,0.5,0.5,1,0.8,1.5c0.3,0.5,0.8,1,1.3,1.5c1.4,1.5,2.8,2.8,4.1,4c0.2,0.2,0.3,0.4,0.3,0.7s-0.2,0.5-0.4,0.8
			c-0.2,0.2-0.4,0.3-0.7,0.3c-0.3,0.1-0.5,0-0.8-0.3c-0.6-0.5-1.2-1.1-1.8-1.6c-0.6-0.6-1.2-1.2-2-2c-0.5-0.5-0.9-1-1.2-1.3
			c-0.3-0.4-0.6-0.7-0.8-1c-0.2-0.3-0.3-0.5-0.4-0.8c-0.1-0.2-0.2-0.4-0.2-0.6h0c0,0.2-0.1,0.4-0.2,0.6c-0.1,0.2-0.2,0.5-0.4,0.8
			c-0.2,0.3-0.5,0.6-0.8,1c-0.3,0.4-0.7,0.8-1.2,1.3c-0.7,0.7-1.3,1.4-2,2c-0.7,0.6-1.3,1.3-2.1,2c-0.3,0.2-0.5,0.3-0.8,0.3
			c-0.3-0.1-0.5-0.2-0.7-0.4c-0.2-0.2-0.3-0.5-0.3-0.8c0-0.3,0.1-0.5,0.3-0.7c1.6-1.4,3-2.9,4.4-4.3c0.5-0.5,0.9-1,1.3-1.5
			c0.3-0.5,0.6-1,0.8-1.5c0.2-0.5,0.4-1,0.4-1.6s0.1-1.2,0.1-1.9v-5.1c0-0.4,0.1-0.6,0.4-0.8S635.9,671.9,636.2,671.9z M648.7,670.4
			c0.3,0,0.6,0.1,0.8,0.2s0.4,0.4,0.4,0.7v8.9h4.1c0.3,0,0.5,0.1,0.6,0.3c0.1,0.2,0.2,0.4,0.2,0.7c0,0.3-0.1,0.5-0.2,0.8
			c-0.1,0.2-0.3,0.3-0.6,0.3h-4.1v14.5c0,0.3-0.1,0.6-0.4,0.7c-0.2,0.1-0.5,0.2-0.8,0.2s-0.6-0.1-0.8-0.2c-0.2-0.1-0.4-0.4-0.4-0.7
			v-25.5c0-0.3,0.1-0.6,0.4-0.7S648.4,670.4,648.7,670.4z"/>
		<path class="st1" d="M665.2,672c2.4,0,4.2,0.8,5.4,2.4c1.2,1.6,1.8,3.9,1.8,7c0,3.1-0.6,5.4-1.8,7c-1.2,1.6-3,2.4-5.4,2.4
			s-4.2-0.8-5.5-2.4c-1.2-1.6-1.8-3.9-1.8-7c0-3,0.6-5.4,1.8-7C661,672.8,662.8,672,665.2,672z M665.2,674.1c-1.7,0-3,0.6-3.8,1.9
			c-0.8,1.3-1.2,3.1-1.2,5.4c0,2.3,0.4,4.1,1.2,5.4c0.8,1.3,2.1,1.9,3.8,1.9s3-0.6,3.8-1.9c0.8-1.3,1.2-3.1,1.2-5.4
			c0-2.3-0.4-4.1-1.2-5.4C668.2,674.8,667,674.1,665.2,674.1z M679.2,670.4c0.3,0,0.6,0.1,0.8,0.2s0.4,0.4,0.4,0.7v25.5
			c0,0.3-0.1,0.6-0.4,0.7c-0.2,0.1-0.5,0.2-0.8,0.2s-0.6-0.1-0.8-0.2c-0.2-0.1-0.4-0.4-0.4-0.7v-25.5c0-0.3,0.1-0.6,0.4-0.7
			C678.6,670.4,678.9,670.4,679.2,670.4z"/>
		<path class="st1" d="M712.3,693c0.1,0.2,0.2,0.5,0.2,0.8c0,0.3-0.1,0.5-0.2,0.7c-0.1,0.2-0.3,0.3-0.6,0.3h-25
			c-0.3,0-0.5-0.1-0.6-0.3c-0.1-0.2-0.2-0.4-0.2-0.7c0-0.3,0.1-0.5,0.2-0.8c0.1-0.2,0.3-0.3,0.6-0.3h25
			C711.9,692.7,712.1,692.8,712.3,693z M708.4,672.5c0.1,0.2,0.2,0.4,0.2,0.7s-0.1,0.5-0.2,0.7c-0.1,0.2-0.3,0.3-0.6,0.3h-15.3
			c-0.4,0-0.6,0.2-0.6,0.6v4h15.6c0.3,0,0.5,0.1,0.6,0.3c0.1,0.2,0.2,0.4,0.2,0.7c0,0.3-0.1,0.5-0.2,0.7c-0.1,0.2-0.3,0.3-0.6,0.3
			h-15.6v4c0,0.4,0.2,0.6,0.6,0.6h15.9c0.3,0,0.5,0.1,0.6,0.3c0.1,0.2,0.2,0.4,0.2,0.7s-0.1,0.5-0.2,0.7c-0.1,0.2-0.3,0.3-0.6,0.3
			h-16.6c-0.8,0-1.4-0.2-1.7-0.5c-0.3-0.3-0.5-0.9-0.5-1.7v-10.8c0-0.8,0.2-1.4,0.5-1.7c0.3-0.3,0.9-0.5,1.7-0.5h16
			C708.1,672.2,708.3,672.3,708.4,672.5z"/>
		<path class="st1" d="M717.8,692.4c0.4,0.1,0.7,0.2,0.9,0.5c0.2,0.3,0.2,0.6,0.1,1.1l-1.6,5.2c-0.1,0.3-0.3,0.5-0.5,0.7
			c-0.2,0.1-0.5,0.2-0.7,0.1c-0.6-0.1-0.8-0.4-0.7-1.1l0.9-5.4c0.1-0.4,0.3-0.8,0.6-0.9C717,692.4,717.4,692.3,717.8,692.4z"/>
		<path class="st1" d="M744.8,692.8h11.3c0.3,0,0.5,0.1,0.6,0.3s0.2,0.4,0.2,0.7c0,0.3-0.1,0.5-0.2,0.7c-0.1,0.2-0.3,0.3-0.6,0.3
			h-25c-0.3,0-0.5-0.1-0.6-0.3c-0.1-0.2-0.2-0.4-0.2-0.7c0-0.3,0.1-0.5,0.2-0.7s0.3-0.3,0.6-0.3h11.4v-7.8h2.3V692.8z M751,672.2
			c0.8,0,1.4,0.2,1.7,0.5c0.3,0.3,0.5,0.9,0.5,1.7v9.5c0,0.8-0.2,1.4-0.5,1.7c-0.3,0.3-0.9,0.5-1.7,0.5h-14.7
			c-0.8,0-1.4-0.2-1.7-0.5c-0.3-0.3-0.5-0.9-0.5-1.7v-9.5c0-0.8,0.2-1.4,0.5-1.7c0.3-0.3,0.9-0.5,1.7-0.5H751z M737,674.2
			c-0.4,0-0.6,0.2-0.6,0.6v8.6c0,0.4,0.2,0.6,0.6,0.6h13.2c0.4,0,0.6-0.2,0.6-0.6v-8.6c0-0.4-0.2-0.6-0.6-0.6H737z"/>
		<path class="st1" d="M761.8,672.3c0.3,0,0.6,0.1,0.8,0.2c0.2,0.1,0.4,0.4,0.4,0.7v6.1h8.7v-6.1c0-0.3,0.1-0.6,0.3-0.7
			s0.5-0.2,0.8-0.2s0.6,0.1,0.8,0.2c0.2,0.1,0.4,0.4,0.4,0.7v15c0,0.8-0.2,1.4-0.5,1.7c-0.3,0.3-0.9,0.5-1.7,0.5h-8.9
			c-0.8,0-1.4-0.2-1.7-0.5c-0.3-0.3-0.5-0.9-0.5-1.7v-15c0-0.3,0.1-0.6,0.4-0.7S761.5,672.3,761.8,672.3z M762.9,687.8
			c0,0.2,0,0.4,0.1,0.5c0.1,0.1,0.2,0.1,0.5,0.1h7.5c0.2,0,0.4,0,0.5-0.1c0.1-0.1,0.1-0.2,0.1-0.5v-6.4h-8.7V687.8z M780.6,670.4
			c0.3,0,0.6,0.1,0.8,0.2c0.2,0.1,0.4,0.4,0.4,0.7v8.9h4.1c0.3,0,0.5,0.1,0.6,0.3c0.1,0.2,0.2,0.4,0.2,0.7c0,0.3-0.1,0.5-0.2,0.8
			c-0.1,0.2-0.3,0.3-0.6,0.3h-4.1v14.5c0,0.3-0.1,0.6-0.4,0.7c-0.2,0.1-0.5,0.2-0.8,0.2c-0.3,0-0.6-0.1-0.8-0.2
			c-0.2-0.1-0.4-0.4-0.4-0.7v-25.5c0-0.3,0.1-0.6,0.4-0.7S780.3,670.4,780.6,670.4z"/>
		<path class="st1" d="M797,671.2c1.2,0,2.3,0.2,3.2,0.5c0.9,0.3,1.6,0.8,2.3,1.4c0.6,0.6,1.1,1.3,1.4,2c0.3,0.8,0.4,1.6,0.4,2.5
			c0,0.9-0.1,1.7-0.4,2.5c-0.3,0.8-0.8,1.5-1.4,2c-0.6,0.6-1.4,1-2.3,1.3c-0.9,0.3-2,0.5-3.2,0.5c-1.2,0-2.3-0.2-3.2-0.5
			c-0.9-0.3-1.6-0.8-2.3-1.3c-0.6-0.6-1.1-1.2-1.4-2c-0.3-0.8-0.4-1.6-0.4-2.5c0-0.9,0.1-1.7,0.4-2.5c0.3-0.8,0.8-1.5,1.4-2
			c0.6-0.6,1.4-1,2.3-1.4C794.8,671.4,795.8,671.2,797,671.2z M797,673.2c-0.9,0-1.6,0.1-2.2,0.4c-0.6,0.2-1.1,0.6-1.5,1
			c-0.4,0.4-0.7,0.9-0.9,1.4c-0.2,0.5-0.3,1.1-0.3,1.7s0.1,1.2,0.3,1.7c0.2,0.5,0.5,1,0.9,1.4s0.9,0.7,1.5,1
			c0.6,0.2,1.4,0.4,2.2,0.4c0.9,0,1.6-0.1,2.2-0.4c0.6-0.2,1.1-0.6,1.6-1s0.7-0.9,0.9-1.4c0.2-0.5,0.3-1.1,0.3-1.7s-0.1-1.2-0.3-1.7
			c-0.2-0.5-0.5-1-0.9-1.4c-0.4-0.4-0.9-0.7-1.6-1C798.6,673.3,797.9,673.2,797,673.2z M811.8,687.4c0.3,0.3,0.5,0.9,0.5,1.7v2.9
			c0,0.8-0.2,1.4-0.5,1.7c-0.3,0.3-0.9,0.5-1.7,0.5h-13c-0.2,0-0.4,0-0.5,0.1c-0.1,0.1-0.1,0.2-0.1,0.5v2.3c0,0.4,0.2,0.6,0.6,0.6
			h15.2c0.3,0,0.4,0.1,0.6,0.3c0.1,0.2,0.2,0.4,0.2,0.7s-0.1,0.5-0.2,0.7s-0.3,0.3-0.6,0.3h-15.9c-0.8,0-1.4-0.2-1.7-0.5
			c-0.3-0.3-0.5-0.9-0.5-1.7v-3c0-0.8,0.2-1.4,0.5-1.7c0.3-0.3,0.9-0.5,1.7-0.5h13c0.2,0,0.4,0,0.5-0.1c0.1-0.1,0.1-0.2,0.1-0.5
			v-2.3c0-0.4-0.2-0.6-0.6-0.6h-14.5c-0.3,0-0.4-0.1-0.6-0.3c-0.1-0.2-0.2-0.4-0.2-0.7c0-0.3,0.1-0.5,0.2-0.7
			c0.1-0.2,0.3-0.3,0.6-0.3h15.2C810.9,686.9,811.5,687.1,811.8,687.4z M811.1,670.4c0.3,0,0.6,0.1,0.8,0.2s0.4,0.4,0.4,0.7v13.1
			c0,0.3-0.1,0.6-0.4,0.7s-0.5,0.2-0.8,0.2c-0.3,0-0.6-0.1-0.8-0.2c-0.2-0.1-0.4-0.4-0.4-0.7v-13.1c0-0.3,0.1-0.6,0.4-0.7
			C810.5,670.4,810.8,670.4,811.1,670.4z"/>
		<path class="st1" d="M852.1,685.4c0.1,0.2,0.2,0.4,0.2,0.7c0,0.3-0.1,0.5-0.2,0.7c-0.1,0.2-0.3,0.3-0.6,0.3h-11.3V699
			c0,0.3-0.1,0.6-0.4,0.7s-0.5,0.2-0.8,0.2s-0.6-0.1-0.8-0.2s-0.4-0.4-0.4-0.7v-11.9h-11.4c-0.3,0-0.5-0.1-0.6-0.3
			c-0.1-0.2-0.2-0.4-0.2-0.7c0-0.3,0.1-0.5,0.2-0.7c0.1-0.2,0.3-0.3,0.6-0.3h25C851.8,685.1,852,685.2,852.1,685.4z M847.7,672.4
			c0.3,0.3,0.5,0.9,0.5,1.7v1.9c0,1.9-0.1,3.7-0.3,5.4c-0.2,1.7-0.5,3.3-1,4.8l-2.2-0.4c0.4-1.6,0.7-3.2,0.9-4.7
			c0.2-1.6,0.3-3.2,0.3-4.9v-1.5c0-0.2,0-0.4-0.1-0.5c-0.1-0.1-0.2-0.1-0.5-0.1H830c-0.3,0-0.5-0.1-0.6-0.3
			c-0.1-0.2-0.2-0.4-0.2-0.7c0-0.3,0.1-0.5,0.2-0.7c0.1-0.2,0.3-0.3,0.6-0.3H846C846.9,671.9,847.4,672.1,847.7,672.4z"/>
		<path class="st1" d="M881.3,685.2c0.1,0.2,0.2,0.4,0.2,0.7s-0.1,0.5-0.2,0.7c-0.1,0.2-0.3,0.3-0.6,0.3h-11.4v4.8h-2.3v-4.8h-11.4
			c-0.3,0-0.5-0.1-0.6-0.3c-0.1-0.2-0.2-0.4-0.2-0.7s0.1-0.5,0.2-0.7s0.3-0.3,0.6-0.3h25.1C880.9,684.9,881.1,685,881.3,685.2z
			 M868.1,669.8c0.3,0,0.6,0.1,0.8,0.2c0.2,0.2,0.4,0.4,0.4,0.8v2.2h8.3c0.3,0,0.4,0.1,0.6,0.3c0.1,0.2,0.2,0.4,0.2,0.7
			c0,0.3-0.1,0.5-0.2,0.7c-0.1,0.2-0.3,0.3-0.6,0.3h-8.3v0.6c0,0.8,0.2,1.4,0.7,1.9c0.4,0.5,1.2,1,2.3,1.4c1.1,0.4,2.2,0.8,3.2,1.2
			c1,0.4,2,0.7,2.9,1c0.3,0.1,0.5,0.3,0.6,0.5c0.1,0.3,0.1,0.5,0,0.8c-0.1,0.3-0.3,0.4-0.5,0.6c-0.2,0.1-0.5,0.1-0.8,0
			c-0.9-0.3-1.7-0.6-2.6-0.9c-0.8-0.3-1.8-0.6-2.9-1.1c-1.4-0.5-2.4-1-3-1.5s-0.9-0.9-1-1.3h0c-0.1,0.4-0.5,0.9-1,1.3
			c-0.6,0.5-1.6,1-3,1.5c-1.1,0.4-2.1,0.8-2.9,1.1c-0.9,0.3-1.7,0.6-2.6,0.9c-0.3,0.1-0.6,0.1-0.8,0s-0.4-0.3-0.5-0.6
			c-0.1-0.3-0.1-0.5,0-0.8c0.1-0.3,0.3-0.4,0.6-0.5c0.9-0.3,1.9-0.6,2.9-1c1-0.4,2.1-0.8,3.2-1.2c1.1-0.4,1.9-0.9,2.3-1.4
			c0.4-0.5,0.7-1.2,0.7-1.9V675h-8.3c-0.3,0-0.4-0.1-0.6-0.3c-0.1-0.2-0.2-0.4-0.2-0.7c0-0.3,0.1-0.5,0.2-0.7
			c0.1-0.2,0.3-0.3,0.6-0.3h8.3v-2.2c0-0.3,0.1-0.6,0.4-0.8C867.5,669.9,867.8,669.8,868.1,669.8z M877.2,691
			c0.3,0.3,0.5,0.9,0.5,1.7v6.4c0,0.3-0.1,0.6-0.4,0.7c-0.2,0.1-0.5,0.2-0.8,0.2c-0.3,0-0.6-0.1-0.8-0.2c-0.2-0.1-0.4-0.4-0.4-0.7
			v-5.9c0-0.4-0.2-0.6-0.6-0.6h-15.8c-0.3,0-0.4-0.1-0.6-0.3c-0.1-0.2-0.2-0.4-0.2-0.7c0-0.3,0.1-0.5,0.2-0.7
			c0.1-0.2,0.3-0.3,0.6-0.3h16.5C876.3,690.5,876.8,690.7,877.2,691z"/>
		<path class="st1" d="M907.4,672.8c0.1,0.2,0.2,0.4,0.2,0.7c0,0.3-0.1,0.5-0.2,0.7c-0.1,0.2-0.3,0.3-0.6,0.3h-10
			c-0.4,0-0.6,0.2-0.6,0.6v12.6c0,0.4,0.2,0.6,0.6,0.6c1.3,0,2.4,0,3.6,0s2.2-0.1,3.2-0.1c1-0.1,2-0.1,3-0.2c1-0.1,1.9-0.2,2.9-0.3
			c0.3,0,0.5,0,0.6,0.2s0.3,0.4,0.3,0.7c0,0.3,0,0.6-0.1,0.8s-0.3,0.4-0.6,0.4c-0.8,0.1-1.7,0.2-2.6,0.3c-0.9,0.1-1.9,0.2-3.1,0.2
			c-1.1,0.1-2.3,0.1-3.6,0.1s-2.8,0-4.4,0c-0.8,0-1.4-0.2-1.7-0.5c-0.3-0.3-0.5-0.9-0.5-1.7v-13.6c0-0.8,0.2-1.4,0.5-1.7
			c0.3-0.3,0.9-0.5,1.7-0.5h10.7C907.1,672.5,907.3,672.6,907.4,672.8z M914.4,670.4c0.3,0,0.6,0.1,0.8,0.2s0.4,0.4,0.4,0.7v25.5
			c0,0.3-0.1,0.6-0.4,0.7c-0.2,0.1-0.5,0.2-0.8,0.2c-0.3,0-0.6-0.1-0.8-0.2c-0.2-0.1-0.4-0.4-0.4-0.7v-25.5c0-0.3,0.1-0.6,0.4-0.7
			C913.9,670.4,914.1,670.4,914.4,670.4z"/>
		<path class="st1" d="M937.5,672.9c0.1,0.2,0.2,0.4,0.2,0.7c0,0.3-0.1,0.5-0.2,0.7s-0.3,0.3-0.6,0.3h-5.9v3.6c0,0.7,0,1.3,0.1,1.9
			c0.1,0.6,0.2,1.1,0.4,1.6c0.2,0.5,0.5,1,0.8,1.4c0.3,0.5,0.8,1,1.3,1.5c0.7,0.7,1.4,1.4,2.1,2.1s1.3,1.3,1.9,1.7
			c0.2,0.2,0.3,0.5,0.3,0.8c0,0.3-0.1,0.5-0.3,0.7c-0.2,0.2-0.5,0.3-0.7,0.4c-0.3,0.1-0.5,0-0.8-0.3c-0.5-0.4-1.1-1-1.7-1.6
			s-1.3-1.3-2-2c-0.5-0.5-0.9-0.9-1.2-1.3c-0.3-0.4-0.6-0.7-0.7-1c-0.2-0.3-0.3-0.5-0.4-0.7c-0.1-0.2-0.1-0.4-0.2-0.6h0
			c0,0.2-0.1,0.4-0.2,0.6c-0.1,0.2-0.2,0.4-0.4,0.7c-0.2,0.3-0.4,0.6-0.8,1c-0.3,0.4-0.7,0.8-1.2,1.3c-0.7,0.7-1.4,1.4-2.1,2
			s-1.4,1.3-2.1,1.9c-0.3,0.2-0.5,0.3-0.8,0.3c-0.3-0.1-0.5-0.2-0.7-0.4c-0.2-0.2-0.3-0.5-0.3-0.8c0-0.3,0.1-0.5,0.3-0.7
			c0.8-0.7,1.6-1.4,2.3-2.1c0.7-0.7,1.5-1.4,2.2-2.1c0.5-0.5,0.9-1,1.3-1.5c0.3-0.5,0.6-0.9,0.8-1.4c0.2-0.5,0.3-1,0.4-1.6
			c0.1-0.6,0.1-1.2,0.1-1.9v-3.6h-6c-0.3,0-0.5-0.1-0.6-0.3c-0.1-0.2-0.2-0.4-0.2-0.7c0-0.3,0.1-0.5,0.2-0.7
			c0.1-0.2,0.3-0.3,0.6-0.3h14.3C937.1,672.7,937.3,672.8,937.5,672.9z M942.2,670.4c0.3,0,0.6,0.1,0.8,0.2s0.4,0.4,0.4,0.7v8.9h4.1
			c0.3,0,0.5,0.1,0.6,0.3c0.1,0.2,0.2,0.4,0.2,0.7c0,0.3-0.1,0.5-0.2,0.8c-0.1,0.2-0.3,0.3-0.6,0.3h-4.1v14.5c0,0.3-0.1,0.6-0.4,0.7
			c-0.2,0.1-0.5,0.2-0.8,0.2c-0.3,0-0.6-0.1-0.8-0.2c-0.2-0.1-0.4-0.4-0.4-0.7v-25.5c0-0.3,0.1-0.6,0.4-0.7
			C941.6,670.4,941.9,670.4,942.2,670.4z"/>
		<path class="st1" d="M958.6,671.8c1.2,0,2.3,0.2,3.2,0.6c0.9,0.4,1.7,0.9,2.3,1.6c0.6,0.7,1,1.4,1.3,2.3s0.4,1.8,0.4,2.8
			c0,1-0.1,1.9-0.4,2.8c-0.3,0.9-0.7,1.7-1.3,2.3c-0.6,0.7-1.3,1.2-2.3,1.5c-0.9,0.4-2,0.6-3.2,0.6c-1.2,0-2.3-0.2-3.2-0.6
			c-0.9-0.4-1.7-0.9-2.3-1.5c-0.6-0.7-1-1.4-1.3-2.3c-0.3-0.9-0.4-1.8-0.4-2.8c0-1,0.1-2,0.4-2.8c0.3-0.9,0.7-1.6,1.3-2.3
			c0.6-0.7,1.3-1.2,2.3-1.6C956.3,672,957.4,671.8,958.6,671.8z M958.6,673.8c-0.9,0-1.7,0.1-2.3,0.4c-0.6,0.3-1.1,0.7-1.5,1.2
			c-0.4,0.5-0.7,1-0.9,1.7c-0.2,0.6-0.3,1.3-0.3,2s0.1,1.4,0.3,2c0.2,0.6,0.5,1.2,0.9,1.7c0.4,0.5,0.9,0.9,1.5,1.1
			c0.6,0.3,1.4,0.4,2.3,0.4c0.9,0,1.7-0.1,2.3-0.4c0.6-0.3,1.1-0.7,1.5-1.1c0.4-0.5,0.7-1,0.9-1.7c0.2-0.6,0.3-1.3,0.3-2
			s-0.1-1.4-0.3-2c-0.2-0.6-0.5-1.2-0.9-1.7c-0.4-0.5-0.9-0.9-1.5-1.2C960.3,674,959.5,673.8,958.6,673.8z M956.9,689.3
			c0.3,0,0.6,0.1,0.8,0.2c0.2,0.1,0.4,0.4,0.4,0.7v6.3c0,0.4,0.2,0.6,0.6,0.6h15.2c0.3,0,0.5,0.1,0.6,0.3c0.1,0.2,0.2,0.4,0.2,0.7
			s-0.1,0.5-0.2,0.7c-0.1,0.2-0.3,0.3-0.6,0.3h-15.9c-0.8,0-1.4-0.2-1.7-0.5c-0.3-0.3-0.5-0.9-0.5-1.7v-6.8c0-0.3,0.1-0.6,0.4-0.7
			S956.6,689.3,956.9,689.3z M972.7,670.4c0.3,0,0.6,0.1,0.8,0.2c0.2,0.1,0.4,0.4,0.4,0.7v19.5c0,0.3-0.1,0.6-0.4,0.7
			c-0.2,0.1-0.5,0.2-0.8,0.2s-0.6-0.1-0.8-0.2c-0.2-0.1-0.4-0.4-0.4-0.7v-19.5c0-0.3,0.1-0.6,0.4-0.7
			C972.1,670.4,972.4,670.4,972.7,670.4z"/>
	</g>
	<g class="st0">
		<path class="st1" d="M500.4,726.7c0.1,0.2,0.2,0.4,0.2,0.7s-0.1,0.5-0.2,0.7s-0.3,0.3-0.6,0.3h-11.4v6.5h-2.3v-6.5h-11.4
			c-0.3,0-0.5-0.1-0.6-0.3c-0.1-0.2-0.2-0.4-0.2-0.7s0.1-0.5,0.2-0.7c0.1-0.2,0.3-0.3,0.6-0.3h25.1
			C500.1,726.4,500.3,726.5,500.4,726.7z M496.3,734.3c0.3,0.3,0.5,0.9,0.5,1.7v7c0,0.3-0.1,0.6-0.4,0.7c-0.2,0.1-0.5,0.2-0.8,0.2
			s-0.6-0.1-0.8-0.2c-0.2-0.1-0.4-0.4-0.4-0.7v-6.6c0-0.4-0.2-0.6-0.6-0.6h-15.7c-0.3,0-0.5-0.1-0.6-0.3c-0.1-0.2-0.2-0.4-0.2-0.7
			c0-0.3,0.1-0.5,0.2-0.7c0.1-0.2,0.3-0.3,0.6-0.3h16.4C495.4,733.8,496,734,496.3,734.3z M496,716.1c0.3,0.3,0.5,0.9,0.5,1.7v1.8
			c0,1.5-0.1,3-0.4,4.4c-0.2,1.4-0.5,2.7-0.9,3.7l-2.1-0.5c0.7-2.4,1.1-4.9,1.1-7.5v-1.5c0-0.4-0.2-0.6-0.6-0.6h-15.3
			c-0.3,0-0.5-0.1-0.6-0.3s-0.2-0.4-0.2-0.7c0-0.3,0.1-0.5,0.2-0.7c0.1-0.2,0.3-0.3,0.6-0.3h16C495.1,715.6,495.7,715.8,496,716.1z"
			/>
		<path class="st1" d="M516,716.2c0.8,0,1.4,0.2,1.7,0.5c0.3,0.3,0.5,0.9,0.5,1.7v9.4c0,0.8-0.2,1.4-0.5,1.7
			c-0.3,0.3-0.9,0.5-1.7,0.5h-8.9c-0.8,0-1.4-0.2-1.7-0.5c-0.3-0.3-0.5-0.9-0.5-1.7v-9.4c0-0.8,0.2-1.4,0.5-1.7
			c0.3-0.3,0.9-0.5,1.7-0.5H516z M507.8,718.3c-0.2,0-0.4,0-0.5,0.1c-0.1,0.1-0.1,0.2-0.1,0.5v8.5c0,0.4,0.2,0.6,0.6,0.6h7.5
			c0.4,0,0.6-0.2,0.6-0.6v-8.5c0-0.2,0-0.4-0.1-0.5c-0.1-0.1-0.2-0.1-0.5-0.1H507.8z M509.8,733.3c0.3,0,0.6,0.1,0.8,0.2
			c0.2,0.1,0.4,0.4,0.4,0.7v6.3c0,0.4,0.2,0.6,0.6,0.6h15.2c0.3,0,0.5,0.1,0.6,0.3c0.1,0.2,0.2,0.4,0.2,0.7s-0.1,0.5-0.2,0.7
			c-0.1,0.2-0.3,0.3-0.6,0.3h-15.9c-0.8,0-1.4-0.2-1.7-0.5c-0.3-0.3-0.5-0.9-0.5-1.7v-6.8c0-0.3,0.1-0.6,0.4-0.7
			C509.3,733.4,509.5,733.3,509.8,733.3z M525.6,714.4c0.3,0,0.6,0.1,0.8,0.2c0.2,0.1,0.4,0.4,0.4,0.7v19.5c0,0.3-0.1,0.6-0.4,0.7
			c-0.2,0.1-0.5,0.2-0.8,0.2c-0.3,0-0.6-0.1-0.8-0.2c-0.2-0.1-0.4-0.4-0.4-0.7v-19.5c0-0.3,0.1-0.6,0.4-0.7
			C525.1,714.4,525.3,714.4,525.6,714.4z"/>
		<path class="st1" d="M558.7,730c0.1,0.2,0.2,0.4,0.2,0.7c0,0.3-0.1,0.5-0.2,0.7c-0.1,0.2-0.3,0.3-0.6,0.3h-25
			c-0.3,0-0.5-0.1-0.6-0.3c-0.1-0.2-0.2-0.4-0.2-0.7c0-0.3,0.1-0.5,0.2-0.7c0.1-0.2,0.3-0.3,0.6-0.3h25
			C558.3,729.7,558.5,729.8,558.7,730z M537.2,734.5c0.3,0,0.6,0.1,0.8,0.2s0.4,0.4,0.4,0.7v5.2c0,0.4,0.2,0.6,0.6,0.6h15.9
			c0.3,0,0.5,0.1,0.6,0.3c0.1,0.2,0.2,0.4,0.2,0.7s-0.1,0.5-0.2,0.7s-0.3,0.3-0.6,0.3h-16.6c-0.8,0-1.4-0.2-1.7-0.5
			c-0.3-0.3-0.5-0.9-0.5-1.7v-5.7c0-0.3,0.1-0.6,0.4-0.7C536.6,734.6,536.8,734.5,537.2,734.5z M545.5,715.1c3.1,0,5.4,0.5,7,1.4
			c1.6,1,2.4,2.4,2.4,4.3c0,1.9-0.8,3.3-2.4,4.3c-1.6,1-4,1.4-7,1.4c-3.1,0-5.4-0.5-7-1.4c-1.6-0.9-2.4-2.4-2.4-4.3
			c0-1.9,0.8-3.3,2.4-4.3C540.1,715.6,542.5,715.1,545.5,715.1z M545.5,717c-2.5,0-4.3,0.3-5.4,1c-1.2,0.7-1.7,1.6-1.7,2.8
			c0,1.2,0.6,2.1,1.7,2.8c1.2,0.7,3,1,5.4,1c2.5,0,4.3-0.3,5.4-1c1.2-0.7,1.7-1.6,1.7-2.8c0-1.2-0.6-2.1-1.7-2.8
			C549.8,717.4,548,717,545.5,717z"/>
		<path class="st1" d="M568.6,714.2c0.3,0,0.6,0.1,0.8,0.2c0.2,0.1,0.4,0.4,0.4,0.7v2.5h5.2c0.3,0,0.5,0.1,0.6,0.3
			c0.1,0.2,0.2,0.4,0.2,0.7s-0.1,0.5-0.2,0.7c-0.1,0.2-0.3,0.3-0.6,0.3h-13.2c-0.3,0-0.5-0.1-0.6-0.3c-0.1-0.2-0.2-0.4-0.2-0.7
			s0.1-0.5,0.2-0.7c0.1-0.2,0.3-0.3,0.6-0.3h5.6v-2.5c0-0.3,0.1-0.6,0.4-0.7C568,714.3,568.3,714.2,568.6,714.2z M568.6,721.8
			c1.9,0,3.4,0.5,4.4,1.4s1.5,2.1,1.5,3.6c0,1.5-0.5,2.7-1.5,3.6c-1,0.9-2.5,1.4-4.4,1.4c-1.9,0-3.3-0.5-4.4-1.4
			c-1-0.9-1.5-2.1-1.5-3.6c0-1.5,0.5-2.7,1.5-3.6C565.2,722.3,566.7,721.8,568.6,721.8z M568.6,723.7c-1.2,0-2.1,0.3-2.8,0.8
			c-0.7,0.6-1,1.3-1,2.3s0.3,1.7,1,2.3c0.7,0.6,1.6,0.8,2.8,0.8s2.2-0.3,2.8-0.8c0.7-0.6,1-1.3,1-2.3s-0.3-1.7-1-2.3
			C570.7,723.9,569.8,723.7,568.6,723.7z M576.6,733.5c3,0,5.3,0.4,6.9,1.3s2.4,2.2,2.4,3.9c0,1.8-0.8,3.1-2.4,4s-3.9,1.3-6.9,1.3
			s-5.3-0.4-6.9-1.3c-1.6-0.9-2.4-2.2-2.4-4c0-1.7,0.8-3.1,2.4-3.9C571.2,733.9,573.5,733.5,576.6,733.5z M576.6,735.4
			c-2.4,0-4.2,0.3-5.3,0.9c-1.1,0.6-1.7,1.4-1.7,2.4c0,1.1,0.6,1.9,1.7,2.5c1.1,0.6,2.9,0.9,5.3,0.9s4.2-0.3,5.3-0.9
			c1.1-0.6,1.7-1.4,1.7-2.5c0-1-0.6-1.9-1.7-2.4C580.7,735.7,579,735.4,576.6,735.4z M584.8,714.4c0.3,0,0.6,0.1,0.8,0.2
			s0.3,0.4,0.3,0.7v17c0,0.3-0.1,0.5-0.3,0.7s-0.5,0.2-0.8,0.2c-0.3,0-0.5-0.1-0.8-0.2c-0.2-0.1-0.3-0.4-0.3-0.7v-8h-4.2v6.7
			c0,0.3-0.1,0.5-0.3,0.7c-0.2,0.1-0.5,0.2-0.8,0.2c-0.3,0-0.5-0.1-0.8-0.2c-0.2-0.1-0.3-0.4-0.3-0.7v-15.5c0-0.3,0.1-0.6,0.3-0.7
			c0.2-0.1,0.5-0.2,0.8-0.2c0.3,0,0.6,0.1,0.8,0.2c0.2,0.1,0.3,0.4,0.3,0.7v6.8h4.2v-7c0-0.3,0.1-0.6,0.3-0.7
			C584.3,714.4,584.6,714.4,584.8,714.4z"/>
		<path class="st1" d="M605.1,715.7c1.1,0,2,0.2,2.8,0.5c0.8,0.3,1.4,0.8,2,1.4c0.5,0.6,0.9,1.3,1.1,2.1c0.2,0.8,0.4,1.7,0.4,2.7
			c0,0.9-0.1,1.8-0.4,2.6c-0.2,0.8-0.6,1.5-1.1,2.1c-0.5,0.6-1.2,1.1-2,1.4c-0.8,0.3-1.7,0.5-2.8,0.5s-2-0.2-2.8-0.5
			c-0.8-0.3-1.4-0.8-2-1.4c-0.5-0.6-0.9-1.3-1.1-2.1c-0.2-0.8-0.4-1.7-0.4-2.6c0-1,0.1-1.8,0.4-2.7c0.2-0.8,0.6-1.5,1.1-2.1
			c0.5-0.6,1.2-1.1,2-1.4C603,715.9,604,715.7,605.1,715.7z M605.1,717.7c-0.7,0-1.4,0.1-1.9,0.4c-0.5,0.3-0.9,0.6-1.2,1
			s-0.6,0.9-0.7,1.5s-0.2,1.2-0.2,1.8s0.1,1.2,0.2,1.8c0.1,0.6,0.4,1.1,0.7,1.5c0.3,0.4,0.7,0.8,1.2,1s1.1,0.4,1.9,0.4
			s1.4-0.1,1.9-0.4c0.5-0.2,0.9-0.6,1.2-1c0.3-0.4,0.6-0.9,0.7-1.5c0.1-0.6,0.2-1.2,0.2-1.8s-0.1-1.2-0.2-1.8s-0.4-1.1-0.7-1.5
			c-0.3-0.4-0.7-0.8-1.2-1C606.4,717.8,605.8,717.7,605.1,717.7z M605.3,731.6c0.3,0,0.6,0.1,0.8,0.2c0.2,0.1,0.4,0.4,0.4,0.7v3.2
			h14.3v-3.2c0-0.3,0.1-0.6,0.4-0.7c0.2-0.1,0.5-0.2,0.8-0.2s0.6,0.1,0.8,0.2c0.2,0.1,0.4,0.4,0.4,0.7v8.7c0,0.8-0.2,1.4-0.5,1.7
			c-0.3,0.3-0.9,0.5-1.7,0.5h-14.5c-0.8,0-1.4-0.2-1.7-0.5c-0.3-0.3-0.5-0.9-0.5-1.7v-8.7c0-0.3,0.1-0.6,0.4-0.7
			S605,731.6,605.3,731.6z M606.4,740.8c0,0.4,0.2,0.6,0.6,0.6h13.1c0.4,0,0.6-0.2,0.6-0.6v-3.1h-14.3V740.8z M622,714.4
			c0.3,0,0.6,0.1,0.8,0.2c0.2,0.1,0.3,0.4,0.3,0.7v13.8c0,0.3-0.1,0.5-0.3,0.7c-0.2,0.1-0.5,0.2-0.8,0.2c-0.3,0-0.5-0.1-0.8-0.2
			c-0.2-0.1-0.3-0.4-0.3-0.7v-5.7h-4.3v5.5c0,0.3-0.1,0.5-0.3,0.7c-0.2,0.1-0.5,0.2-0.8,0.2c-0.3,0-0.5-0.1-0.8-0.2
			c-0.2-0.1-0.3-0.4-0.3-0.7v-13.5c0-0.3,0.1-0.6,0.3-0.7c0.2-0.1,0.5-0.2,0.8-0.2c0.3,0,0.6,0.1,0.8,0.2c0.2,0.1,0.3,0.4,0.3,0.7v6
			h4.3v-6.1c0-0.3,0.1-0.6,0.3-0.7C621.4,714.4,621.7,714.4,622,714.4z"/>
		<path class="st1" d="M662,729.4c0.1,0.2,0.2,0.4,0.2,0.7c0,0.3-0.1,0.5-0.2,0.7c-0.1,0.2-0.3,0.3-0.6,0.3h-11.3V743
			c0,0.3-0.1,0.6-0.4,0.7c-0.2,0.1-0.5,0.2-0.8,0.2s-0.6-0.1-0.8-0.2c-0.2-0.1-0.4-0.4-0.4-0.7v-11.9h-11.4c-0.3,0-0.5-0.1-0.6-0.3
			c-0.1-0.2-0.2-0.4-0.2-0.7c0-0.3,0.1-0.5,0.2-0.7c0.1-0.2,0.3-0.3,0.6-0.3h25C661.7,729.1,661.9,729.2,662,729.4z M657.6,716.4
			c0.3,0.3,0.5,0.9,0.5,1.7v1.9c0,1.9-0.1,3.7-0.3,5.4c-0.2,1.7-0.5,3.3-1,4.8l-2.2-0.4c0.4-1.6,0.7-3.2,0.9-4.7s0.3-3.2,0.3-4.9
			v-1.5c0-0.2,0-0.4-0.1-0.5c-0.1-0.1-0.2-0.1-0.5-0.1h-15.4c-0.3,0-0.5-0.1-0.6-0.3c-0.1-0.2-0.2-0.4-0.2-0.7
			c0-0.3,0.1-0.5,0.2-0.7c0.1-0.2,0.3-0.3,0.6-0.3h16.1C656.7,715.9,657.3,716.1,657.6,716.4z"/>
		<path class="st1" d="M691.1,729.2c0.1,0.2,0.2,0.4,0.2,0.7s-0.1,0.5-0.2,0.7c-0.1,0.2-0.3,0.3-0.6,0.3h-11.4v4.8h-2.3v-4.8h-11.4
			c-0.3,0-0.5-0.1-0.6-0.3c-0.1-0.2-0.2-0.4-0.2-0.7s0.1-0.5,0.2-0.7s0.3-0.3,0.6-0.3h25.1C690.8,728.9,691,729,691.1,729.2z
			 M678,713.8c0.3,0,0.6,0.1,0.8,0.2c0.2,0.2,0.4,0.4,0.4,0.8v2.2h8.3c0.3,0,0.4,0.1,0.6,0.3c0.1,0.2,0.2,0.4,0.2,0.7
			c0,0.3-0.1,0.5-0.2,0.7c-0.1,0.2-0.3,0.3-0.6,0.3h-8.3v0.6c0,0.8,0.2,1.4,0.7,1.9c0.4,0.5,1.2,1,2.3,1.4c1.1,0.4,2.2,0.8,3.2,1.2
			c1,0.4,2,0.7,2.9,1c0.3,0.1,0.5,0.3,0.6,0.5s0.1,0.5,0,0.8c-0.1,0.3-0.3,0.4-0.5,0.6c-0.2,0.1-0.5,0.1-0.8,0
			c-0.9-0.3-1.7-0.6-2.6-0.9s-1.8-0.6-2.9-1.1c-1.4-0.5-2.4-1-3-1.5s-0.9-0.9-1-1.3h0c-0.1,0.4-0.5,0.9-1,1.3c-0.6,0.5-1.6,1-3,1.5
			c-1.1,0.4-2.1,0.8-2.9,1.1c-0.9,0.3-1.7,0.6-2.6,0.9c-0.3,0.1-0.6,0.1-0.8,0c-0.2-0.1-0.4-0.3-0.5-0.6c-0.1-0.3-0.1-0.5,0-0.8
			s0.3-0.4,0.6-0.5c0.9-0.3,1.9-0.6,2.9-1c1-0.4,2.1-0.8,3.2-1.2c1.1-0.4,1.9-0.9,2.3-1.4c0.4-0.5,0.7-1.2,0.7-1.9V719h-8.3
			c-0.3,0-0.4-0.1-0.6-0.3c-0.1-0.2-0.2-0.4-0.2-0.7c0-0.3,0.1-0.5,0.2-0.7c0.1-0.2,0.3-0.3,0.6-0.3h8.3v-2.2c0-0.3,0.1-0.6,0.4-0.8
			C677.4,713.9,677.7,713.8,678,713.8z M687,735c0.3,0.3,0.5,0.9,0.5,1.7v6.4c0,0.3-0.1,0.6-0.4,0.7c-0.2,0.1-0.5,0.2-0.8,0.2
			s-0.6-0.1-0.8-0.2c-0.2-0.1-0.4-0.4-0.4-0.7v-5.9c0-0.4-0.2-0.6-0.6-0.6h-15.8c-0.3,0-0.4-0.1-0.6-0.3c-0.1-0.2-0.2-0.4-0.2-0.7
			c0-0.3,0.1-0.5,0.2-0.7c0.1-0.2,0.3-0.3,0.6-0.3h16.5C686.2,734.5,686.7,734.7,687,735z"/>
		<path class="st1" d="M717.3,716.8c0.1,0.2,0.2,0.4,0.2,0.7c0,0.3-0.1,0.5-0.2,0.7c-0.1,0.2-0.3,0.3-0.6,0.3h-10
			c-0.4,0-0.6,0.2-0.6,0.6v12.6c0,0.4,0.2,0.6,0.6,0.6c1.3,0,2.4,0,3.6,0s2.2-0.1,3.2-0.1c1-0.1,2-0.1,3-0.2c1-0.1,1.9-0.2,2.9-0.3
			c0.3,0,0.5,0,0.6,0.2s0.3,0.4,0.3,0.7c0,0.3,0,0.6-0.1,0.8s-0.3,0.4-0.6,0.4c-0.8,0.1-1.7,0.2-2.6,0.3s-1.9,0.2-3.1,0.2
			c-1.1,0.1-2.3,0.1-3.6,0.1c-1.3,0-2.8,0-4.4,0c-0.8,0-1.4-0.2-1.7-0.5c-0.3-0.3-0.5-0.9-0.5-1.7v-13.6c0-0.8,0.2-1.4,0.5-1.7
			c0.3-0.3,0.9-0.5,1.7-0.5h10.7C716.9,716.5,717.2,716.6,717.3,716.8z M724.3,714.4c0.3,0,0.6,0.1,0.8,0.2s0.4,0.4,0.4,0.7v25.5
			c0,0.3-0.1,0.6-0.4,0.7c-0.2,0.1-0.5,0.2-0.8,0.2s-0.6-0.1-0.8-0.2c-0.2-0.1-0.4-0.4-0.4-0.7v-25.5c0-0.3,0.1-0.6,0.4-0.7
			S724,714.4,724.3,714.4z"/>
		<path class="st1" d="M747.4,716.9c0.1,0.2,0.2,0.4,0.2,0.7c0,0.3-0.1,0.5-0.2,0.7s-0.3,0.3-0.6,0.3h-5.9v3.6c0,0.7,0,1.3,0.1,1.9
			c0.1,0.6,0.2,1.1,0.4,1.6c0.2,0.5,0.5,1,0.8,1.4c0.3,0.5,0.8,1,1.3,1.5c0.7,0.7,1.4,1.4,2.1,2.1s1.3,1.3,1.9,1.7
			c0.2,0.2,0.3,0.5,0.3,0.8c0,0.3-0.1,0.5-0.3,0.7c-0.2,0.2-0.5,0.3-0.7,0.4c-0.3,0.1-0.5,0-0.8-0.3c-0.5-0.4-1.1-1-1.7-1.6
			c-0.6-0.6-1.3-1.3-2-2c-0.5-0.5-0.9-0.9-1.2-1.3c-0.3-0.4-0.6-0.7-0.7-1c-0.2-0.3-0.3-0.5-0.4-0.7c-0.1-0.2-0.1-0.4-0.2-0.6h0
			c0,0.2-0.1,0.4-0.2,0.6c-0.1,0.2-0.2,0.4-0.4,0.7c-0.2,0.3-0.4,0.6-0.8,1c-0.3,0.4-0.7,0.8-1.2,1.3c-0.7,0.7-1.4,1.4-2.1,2
			c-0.7,0.6-1.4,1.3-2.1,1.9c-0.3,0.2-0.5,0.3-0.8,0.3c-0.3-0.1-0.5-0.2-0.7-0.4c-0.2-0.2-0.3-0.5-0.3-0.8c0-0.3,0.1-0.5,0.3-0.7
			c0.8-0.7,1.6-1.4,2.3-2.1c0.7-0.7,1.5-1.4,2.2-2.1c0.5-0.5,0.9-1,1.3-1.5c0.3-0.5,0.6-0.9,0.8-1.4c0.2-0.5,0.3-1,0.4-1.6
			c0.1-0.6,0.1-1.2,0.1-1.9v-3.6h-6c-0.3,0-0.5-0.1-0.6-0.3s-0.2-0.4-0.2-0.7c0-0.3,0.1-0.5,0.2-0.7c0.1-0.2,0.3-0.3,0.6-0.3h14.3
			C747,716.7,747.2,716.8,747.4,716.9z M752.1,714.4c0.3,0,0.6,0.1,0.8,0.2s0.4,0.4,0.4,0.7v8.9h4.1c0.3,0,0.5,0.1,0.6,0.3
			c0.1,0.2,0.2,0.4,0.2,0.7c0,0.3-0.1,0.5-0.2,0.8c-0.1,0.2-0.3,0.3-0.6,0.3h-4.1v14.5c0,0.3-0.1,0.6-0.4,0.7
			c-0.2,0.1-0.5,0.2-0.8,0.2s-0.6-0.1-0.8-0.2c-0.2-0.1-0.4-0.4-0.4-0.7v-25.5c0-0.3,0.1-0.6,0.4-0.7
			C751.5,714.4,751.8,714.4,752.1,714.4z"/>
		<path class="st1" d="M768.5,715.8c1.2,0,2.3,0.2,3.2,0.6c0.9,0.4,1.7,0.9,2.3,1.6s1,1.4,1.3,2.3s0.4,1.8,0.4,2.8
			c0,1-0.2,1.9-0.4,2.8c-0.3,0.9-0.7,1.7-1.3,2.3c-0.6,0.7-1.3,1.2-2.3,1.5c-0.9,0.4-2,0.6-3.2,0.6s-2.3-0.2-3.2-0.6
			c-0.9-0.4-1.7-0.9-2.3-1.5c-0.6-0.7-1-1.4-1.3-2.3c-0.3-0.9-0.4-1.8-0.4-2.8c0-1,0.1-2,0.4-2.8s0.7-1.6,1.3-2.3
			c0.6-0.7,1.3-1.2,2.3-1.6C766.2,716,767.3,715.8,768.5,715.8z M768.5,717.8c-0.9,0-1.7,0.1-2.3,0.4c-0.6,0.3-1.1,0.7-1.5,1.2
			c-0.4,0.5-0.7,1-0.9,1.7c-0.2,0.6-0.3,1.3-0.3,2s0.1,1.4,0.3,2c0.2,0.6,0.5,1.2,0.9,1.7c0.4,0.5,0.9,0.9,1.5,1.1
			c0.6,0.3,1.4,0.4,2.3,0.4c0.9,0,1.7-0.1,2.3-0.4c0.6-0.3,1.1-0.7,1.5-1.1c0.4-0.5,0.7-1,0.9-1.7c0.2-0.6,0.3-1.3,0.3-2
			s-0.1-1.4-0.3-2c-0.2-0.6-0.5-1.2-0.9-1.7c-0.4-0.5-0.9-0.9-1.5-1.2C770.2,718,769.4,717.8,768.5,717.8z M766.8,733.3
			c0.3,0,0.6,0.1,0.8,0.2s0.4,0.4,0.4,0.7v6.3c0,0.4,0.2,0.6,0.6,0.6h15.2c0.3,0,0.5,0.1,0.6,0.3c0.1,0.2,0.2,0.4,0.2,0.7
			s-0.1,0.5-0.2,0.7c-0.1,0.2-0.3,0.3-0.6,0.3h-15.9c-0.8,0-1.4-0.2-1.7-0.5c-0.3-0.3-0.5-0.9-0.5-1.7v-6.8c0-0.3,0.1-0.6,0.4-0.7
			S766.5,733.3,766.8,733.3z M782.6,714.4c0.3,0,0.6,0.1,0.8,0.2c0.2,0.1,0.4,0.4,0.4,0.7v19.5c0,0.3-0.1,0.6-0.4,0.7
			c-0.2,0.1-0.5,0.2-0.8,0.2s-0.6-0.1-0.8-0.2s-0.4-0.4-0.4-0.7v-19.5c0-0.3,0.1-0.6,0.4-0.7S782.3,714.4,782.6,714.4z"/>
	</g>
	<g class="st0">
		<path class="st1" d="M500.4,509.7c0.1,0.2,0.2,0.4,0.2,0.7s-0.1,0.5-0.2,0.7s-0.3,0.3-0.6,0.3h-11.1v5.2c0,0.3-0.1,0.5-0.3,0.7
			c-0.2,0.1-0.5,0.2-0.8,0.2c-0.3,0-0.6-0.1-0.8-0.2c-0.2-0.1-0.4-0.4-0.4-0.7v-5.2h-11.7c-0.3,0-0.5-0.1-0.6-0.3
			c-0.1-0.2-0.2-0.4-0.2-0.7s0.1-0.5,0.2-0.7c0.1-0.2,0.3-0.3,0.6-0.3h25.1C500.1,509.4,500.3,509.5,500.4,509.7z M497,496
			c0.1,0.2,0.2,0.4,0.2,0.7s-0.1,0.5-0.2,0.7c-0.1,0.2-0.3,0.3-0.6,0.3h-8v0.8c0,0.8,0.2,1.6,0.7,2.2c0.5,0.6,1.3,1.2,2.4,1.7
			c1.1,0.5,2.1,0.9,3.1,1.3c1,0.4,2,0.8,2.9,1.2c0.3,0.1,0.4,0.3,0.5,0.6s0,0.5-0.1,0.8c-0.1,0.3-0.3,0.4-0.5,0.6s-0.5,0.1-0.8,0
			c-0.9-0.4-1.8-0.7-2.8-1.1c-0.9-0.4-1.9-0.8-3-1.3c-0.7-0.3-1.2-0.5-1.6-0.8c-0.4-0.3-0.8-0.5-1.1-0.8s-0.5-0.5-0.6-0.7
			c-0.1-0.2-0.2-0.4-0.3-0.7h0c-0.1,0.4-0.4,0.9-0.9,1.4c-0.5,0.5-1.4,1-2.7,1.6c-1.1,0.5-2.1,0.9-3,1.3c-0.9,0.4-1.9,0.8-2.8,1.1
			c-0.3,0.1-0.6,0.1-0.8,0s-0.4-0.3-0.5-0.6c-0.1-0.2-0.1-0.5-0.1-0.8s0.2-0.5,0.5-0.6c1-0.4,1.9-0.8,2.9-1.2c1-0.4,2-0.9,3.1-1.3
			c1.2-0.5,2-1.1,2.4-1.7c0.5-0.6,0.7-1.3,0.7-2.2v-0.8h-8c-0.3,0-0.5-0.1-0.6-0.3c-0.1-0.2-0.2-0.4-0.2-0.7s0.1-0.5,0.2-0.7
			c0.1-0.2,0.3-0.3,0.6-0.3h18.3C496.7,495.7,496.9,495.8,497,496z M478.9,514.5c0.3,0,0.6,0.1,0.8,0.2s0.4,0.4,0.4,0.7v5.2
			c0,0.4,0.2,0.6,0.6,0.6h15.9c0.3,0,0.5,0.1,0.6,0.3c0.1,0.2,0.2,0.4,0.2,0.7s-0.1,0.5-0.2,0.7c-0.1,0.2-0.3,0.3-0.6,0.3h-16.6
			c-0.8,0-1.4-0.2-1.7-0.5c-0.3-0.3-0.5-0.9-0.5-1.7v-5.7c0-0.3,0.1-0.6,0.4-0.7C478.3,514.6,478.6,514.5,478.9,514.5z"/>
		<path class="st1" d="M506.1,496.3c0.3,0,0.6,0.1,0.8,0.2c0.2,0.1,0.4,0.4,0.4,0.7v6.1h8.8v-6.1c0-0.3,0.1-0.6,0.3-0.7
			s0.5-0.2,0.8-0.2c0.3,0,0.6,0.1,0.8,0.2c0.2,0.1,0.4,0.4,0.4,0.7v15c0,0.8-0.2,1.4-0.5,1.7c-0.3,0.3-0.9,0.5-1.7,0.5h-9
			c-0.8,0-1.4-0.2-1.7-0.5c-0.3-0.3-0.5-0.9-0.5-1.7v-15c0-0.3,0.1-0.6,0.4-0.7C505.5,496.4,505.8,496.3,506.1,496.3z M507.2,511.8
			c0,0.2,0,0.4,0.1,0.5c0.1,0.1,0.2,0.1,0.5,0.1h7.6c0.2,0,0.4,0,0.5-0.1c0.1-0.1,0.1-0.2,0.1-0.5v-6.5h-8.8V511.8z M525.6,494.4
			c0.3,0,0.6,0.1,0.8,0.2s0.4,0.4,0.4,0.7v25.5c0,0.3-0.1,0.6-0.4,0.7c-0.2,0.1-0.5,0.2-0.8,0.2s-0.6-0.1-0.8-0.2
			c-0.2-0.1-0.4-0.4-0.4-0.7v-25.5c0-0.3,0.1-0.6,0.4-0.7C525,494.4,525.3,494.4,525.6,494.4z"/>
		<path class="st1" d="M558.7,508.5c0.1,0.2,0.2,0.4,0.2,0.7s-0.1,0.5-0.2,0.7c-0.1,0.2-0.3,0.3-0.6,0.3h-11.4v4.5h-2.3v-4.5H533
			c-0.3,0-0.5-0.1-0.6-0.3c-0.1-0.2-0.2-0.4-0.2-0.7s0.1-0.5,0.2-0.7c0.1-0.2,0.3-0.3,0.6-0.3h25.1
			C558.3,508.3,558.5,508.3,558.7,508.5z M555.3,495.8c0.1,0.2,0.2,0.4,0.2,0.7s-0.1,0.5-0.2,0.7c-0.1,0.2-0.3,0.3-0.6,0.3h-8v0.7
			c0,0.8,0.2,1.4,0.7,2c0.4,0.6,1.3,1.1,2.4,1.6c1.2,0.5,2.2,0.9,3.2,1.3s1.9,0.7,2.8,1.1c0.3,0.1,0.5,0.3,0.6,0.6
			c0.1,0.3,0.1,0.5,0,0.8c-0.1,0.3-0.3,0.4-0.5,0.6c-0.2,0.1-0.5,0.1-0.8,0c-0.9-0.3-1.8-0.7-2.8-1c-0.9-0.4-2-0.8-3-1.2
			c-0.7-0.3-1.2-0.5-1.6-0.8c-0.4-0.3-0.8-0.5-1.1-0.7c-0.3-0.2-0.5-0.4-0.7-0.7c-0.1-0.2-0.3-0.4-0.3-0.6h0c-0.1,0.4-0.4,0.9-1,1.3
			c-0.5,0.5-1.5,1-2.8,1.5c-1.1,0.4-2.1,0.9-3,1.2c-0.9,0.4-1.9,0.7-2.8,1c-0.3,0.1-0.6,0.1-0.8,0c-0.2-0.1-0.4-0.3-0.5-0.6
			c-0.1-0.2-0.1-0.5,0-0.8c0.1-0.3,0.3-0.5,0.6-0.6c0.9-0.3,1.9-0.7,2.8-1.1s2-0.8,3.2-1.3c1.2-0.5,2-1,2.4-1.6
			c0.4-0.6,0.7-1.2,0.7-2v-0.7h-8c-0.3,0-0.4-0.1-0.6-0.3c-0.1-0.2-0.2-0.4-0.2-0.7s0.1-0.5,0.2-0.7c0.1-0.2,0.3-0.3,0.6-0.3h18.4
			C555,495.5,555.1,495.6,555.3,495.8z M545.5,513.5c3.1,0,5.4,0.4,7.1,1.3s2.5,2.2,2.5,4c0,1.8-0.8,3.2-2.5,4s-4,1.3-7.1,1.3
			c-3.1,0-5.4-0.4-7.1-1.3s-2.5-2.2-2.5-4c0-1.8,0.8-3.2,2.5-4S542.5,513.5,545.5,513.5z M545.5,515.4c-2.5,0-4.3,0.3-5.4,0.9
			c-1.2,0.6-1.8,1.4-1.8,2.5c0,1.1,0.6,2,1.8,2.5c1.2,0.6,3,0.9,5.4,0.9c2.5,0,4.3-0.3,5.4-0.9c1.2-0.6,1.8-1.4,1.8-2.5
			c0-1.1-0.6-2-1.8-2.5C549.8,515.6,548,515.4,545.5,515.4z"/>
		<path class="st1" d="M569.8,495.5c1.2,0,2.3,0.2,3.2,0.5c0.9,0.3,1.7,0.8,2.3,1.4c0.6,0.6,1,1.3,1.3,2.1s0.4,1.7,0.4,2.7
			c0,0.9-0.1,1.8-0.4,2.6s-0.7,1.5-1.3,2.1c-0.6,0.6-1.3,1.1-2.3,1.4c-0.9,0.3-2,0.5-3.2,0.5s-2.3-0.2-3.2-0.5
			c-0.9-0.3-1.7-0.8-2.3-1.4c-0.6-0.6-1-1.3-1.3-2.1s-0.4-1.7-0.4-2.6c0-1,0.1-1.9,0.4-2.7s0.7-1.5,1.3-2.1c0.6-0.6,1.3-1.1,2.3-1.4
			C567.5,495.7,568.6,495.5,569.8,495.5z M569.8,497.5c-0.9,0-1.7,0.1-2.3,0.4c-0.6,0.3-1.1,0.6-1.5,1c-0.4,0.4-0.7,0.9-0.9,1.5
			c-0.2,0.6-0.3,1.2-0.3,1.8c0,0.6,0.1,1.2,0.3,1.8c0.2,0.6,0.5,1.1,0.9,1.5s0.9,0.8,1.5,1c0.6,0.3,1.4,0.4,2.3,0.4
			c0.9,0,1.7-0.1,2.3-0.4c0.6-0.3,1.1-0.6,1.5-1c0.4-0.4,0.7-0.9,0.9-1.5c0.2-0.6,0.3-1.2,0.3-1.8c0-0.6-0.1-1.2-0.3-1.8
			c-0.2-0.6-0.5-1.1-0.9-1.5c-0.4-0.4-0.9-0.8-1.5-1C571.5,497.6,570.7,497.5,569.8,497.5z M568,511.6c0.3,0,0.6,0.1,0.8,0.2
			s0.4,0.4,0.4,0.7v3.2h13.5v-3.2c0-0.3,0.1-0.6,0.4-0.7c0.2-0.1,0.5-0.2,0.8-0.2s0.6,0.1,0.8,0.2s0.4,0.4,0.4,0.7v8.7
			c0,0.8-0.2,1.4-0.5,1.7c-0.3,0.3-0.9,0.5-1.7,0.5h-13.7c-0.8,0-1.4-0.2-1.7-0.5c-0.3-0.3-0.5-0.9-0.5-1.7v-8.7
			c0-0.3,0.1-0.6,0.4-0.7C567.5,511.7,567.7,511.6,568,511.6z M569.2,520.8c0,0.4,0.2,0.6,0.6,0.6h12.3c0.4,0,0.6-0.2,0.6-0.6v-3.1
			h-13.5V520.8z M583.9,494.4c0.3,0,0.6,0.1,0.8,0.2s0.4,0.4,0.4,0.7v13.7c0,0.3-0.1,0.6-0.4,0.7s-0.5,0.2-0.8,0.2s-0.6-0.1-0.8-0.2
			c-0.2-0.1-0.4-0.4-0.4-0.7v-13.7c0-0.3,0.1-0.6,0.4-0.7C583.3,494.4,583.6,494.4,583.9,494.4z"/>
		<path class="st1" d="M593.6,496.3c0.3,0,0.6,0.1,0.8,0.2c0.2,0.1,0.4,0.4,0.4,0.7v14.4c0,0.4,0.2,0.6,0.6,0.6
			c2.5,0,4.7-0.1,6.7-0.2c2-0.1,4-0.3,5.9-0.6c0.3,0,0.5,0,0.6,0.2s0.3,0.4,0.3,0.7c0,0.3,0,0.6-0.1,0.8s-0.3,0.4-0.6,0.4
			c-0.8,0.1-1.7,0.2-2.6,0.3c-0.9,0.1-1.9,0.2-3,0.2c-1.1,0.1-2.3,0.1-3.6,0.1s-2.7,0-4.3,0c-0.8,0-1.4-0.2-1.7-0.5
			c-0.3-0.3-0.5-0.9-0.5-1.7v-14.9c0-0.3,0.1-0.6,0.4-0.7C593.1,496.4,593.3,496.3,593.6,496.3z M613,494.4c0.3,0,0.6,0.1,0.8,0.2
			s0.4,0.4,0.4,0.7v25.5c0,0.3-0.1,0.6-0.4,0.7c-0.2,0.1-0.5,0.2-0.8,0.2s-0.6-0.1-0.8-0.2c-0.2-0.1-0.4-0.4-0.4-0.7v-25.5
			c0-0.3,0.1-0.6,0.4-0.7C612.4,494.4,612.7,494.4,613,494.4z"/>
		<path class="st1" d="M634.3,496.9c0.1,0.2,0.2,0.4,0.2,0.7c0,0.3-0.1,0.5-0.2,0.7c-0.1,0.2-0.3,0.3-0.6,0.3h-9.9
			c-0.4,0-0.6,0.2-0.6,0.6v12.5c0,0.4,0.2,0.6,0.6,0.6c2.4,0,4.5-0.1,6.5-0.2c2-0.1,3.9-0.3,5.8-0.6c0.3,0,0.5,0,0.6,0.2
			c0.2,0.2,0.3,0.4,0.3,0.7c0,0.3,0,0.6-0.1,0.8c-0.1,0.2-0.3,0.4-0.6,0.4c-0.8,0.1-1.7,0.2-2.6,0.3c-0.9,0.1-1.9,0.2-3,0.2
			c-1.1,0.1-2.3,0.1-3.5,0.1c-1.3,0-2.7,0-4.2,0c-0.8,0-1.4-0.2-1.7-0.5c-0.3-0.3-0.5-0.9-0.5-1.7v-13.5c0-0.8,0.2-1.4,0.5-1.7
			c0.3-0.3,0.9-0.5,1.7-0.5h10.6C634,496.6,634.2,496.7,634.3,496.9z M640.7,494.4c0.3,0,0.6,0.1,0.8,0.2s0.4,0.4,0.4,0.7v8.9h4.1
			c0.3,0,0.5,0.1,0.6,0.3c0.1,0.2,0.2,0.4,0.2,0.7c0,0.3-0.1,0.5-0.2,0.8c-0.1,0.2-0.3,0.3-0.6,0.3h-4.1v14.5c0,0.3-0.1,0.6-0.4,0.7
			c-0.2,0.1-0.5,0.2-0.8,0.2s-0.6-0.1-0.8-0.2c-0.2-0.1-0.4-0.4-0.4-0.7v-25.5c0-0.3,0.1-0.6,0.4-0.7S640.4,494.4,640.7,494.4z"/>
		<path class="st1" d="M660.1,500.5c0.5,0,1,0.2,1.3,0.5c0.3,0.4,0.5,0.8,0.5,1.3c0,0.5-0.2,0.9-0.5,1.3c-0.3,0.4-0.8,0.5-1.3,0.5
			c-0.5,0-0.9-0.2-1.3-0.5c-0.4-0.4-0.5-0.8-0.5-1.3c0-0.5,0.2-0.9,0.5-1.3C659.2,500.7,659.6,500.5,660.1,500.5z M660.1,512.7
			c0.5,0,1,0.2,1.3,0.5c0.3,0.4,0.5,0.8,0.5,1.3c0,0.5-0.2,0.9-0.5,1.3c-0.3,0.4-0.8,0.5-1.3,0.5c-0.5,0-0.9-0.2-1.3-0.5
			c-0.4-0.4-0.5-0.8-0.5-1.3c0-0.5,0.2-0.9,0.5-1.3C659.2,512.9,659.6,512.7,660.1,512.7z"/>
		<path class="st1" d="M667.1,493.7c0.5-0.3,0.9-0.2,1.3,0.3c1.5,1.8,2.6,4,3.3,6.4c0.7,2.4,1.1,5,1.1,7.7v0.7
			c0,2.7-0.4,5.3-1.1,7.7c-0.7,2.4-1.9,4.5-3.3,6.4c-0.4,0.5-0.8,0.6-1.3,0.3c-0.2-0.1-0.3-0.3-0.4-0.5c-0.1-0.2,0-0.4,0.1-0.7
			c1.2-1.9,2.1-3.9,2.7-6.1s0.9-4.5,0.9-6.9v-1c0-2.5-0.3-4.8-0.9-6.9s-1.5-4.2-2.7-6.1c-0.1-0.2-0.2-0.5-0.1-0.7
			C666.8,494,666.9,493.8,667.1,493.7z"/>
	</g>
	<path id="XMLID_307_" class="st2" d="M829.3-217c-8.7,0-15.8-7.1-15.8-15.8c0-6.8,10.2-28,15.8-38.9c5.6,10.8,15.8,32,15.8,38.9
		C845.2-224,838.1-217,829.3-217z"/>
	<path id="XMLID_309_" class="st2" d="M1012.3,119c-8.7,0-15.8-7.1-15.8-15.8c0-6.8,10.2-28,15.8-38.9c5.6,10.8,15.8,32,15.8,38.9
		C1028.2,111.9,1021.1,119,1012.3,119z"/>
	<g id="XMLID_273_">
		<line id="XMLID_275_" class="st3" x1="595.8" y1="165.6" x2="595.8" y2="151.3"/>
		<line id="XMLID_274_" class="st3" x1="579.2" y1="165.6" x2="579.2" y2="151.3"/>
	</g>
	<g id="XMLID_276_">
		<line id="XMLID_278_" class="st3" x1="952.8" y1="134.5" x2="952.8" y2="120.2"/>
		<line id="XMLID_277_" class="st3" x1="936.3" y1="134.5" x2="936.3" y2="120.2"/>
	</g>
	<g id="XMLID_272_">
		<ellipse id="XMLID_316_" class="st2" cx="594.8" cy="-290.4" rx="14" ry="9"/>
		<line id="XMLID_311_" class="st4" x1="608.8" y1="-292.2" x2="608.8" y2="-348.2"/>
	</g>
	<g id="XMLID_317_">
		<ellipse id="XMLID_319_" class="st2" cx="690.3" cy="-49" rx="14" ry="9"/>
		<line id="XMLID_318_" class="st4" x1="704.3" y1="-50.7" x2="704.3" y2="-106.7"/>
	</g>
	<circle id="XMLID_205_" class="st2" cx="561.5" cy="-124" r="9.9"/>
	<circle id="XMLID_291_" class="st2" cx="389" cy="127" r="9.9"/>
	<circle id="XMLID_297_" class="st2" cx="954.3" cy="-44.5" r="9.9"/>
	<line id="XMLID_305_" class="st3" x1="1036.8" y1="196" x2="1036.8" y2="163.1"/>
	<line id="XMLID_306_" class="st3" x1="321.4" y1="127" x2="321.4" y2="77.6"/>
	<line id="XMLID_303_" class="st3" x1="501.4" y1="-186.7" x2="501.4" y2="-245.4"/>
	<line id="XMLID_302_" class="st3" x1="501.4" y1="-156" x2="501.4" y2="-171.4"/>
	<g class="st0">
		<path class="st1" d="M397.6,423.6c-2.3-0.7-4.2-1.7-6-3c-1.7-1.3-3.1-3.1-4.1-5.2c-1-2.1-1.5-4.6-1.5-7.3v-25.4
			c0-1.4,0.4-2.6,1.3-3.4c0.9-0.9,2-1.3,3.2-1.3c1.2,0,2.3,0.4,3.2,1.3c0.9,0.9,1.3,2,1.3,3.4v25.2c0,1.7,0.3,3.1,0.8,4.4
			c0.6,1.3,1.3,2.3,2.2,3c0.9,0.7,2,1.3,3.1,1.7c1.1,0.4,2.3,0.6,3.6,0.6s2.5-0.2,3.6-0.6s2.2-0.9,3.1-1.7c1-0.7,1.7-1.8,2.3-3
			c0.6-1.3,0.8-2.7,0.8-4.4v-25.2c0-1.4,0.4-2.6,1.3-3.4c0.9-0.9,2-1.3,3.2-1.3c1.2,0,2.3,0.4,3.2,1.3c0.9,0.9,1.3,2,1.3,3.4V408
			c0,2.7-0.5,5.2-1.5,7.3c-1,2.1-2.3,3.9-4.1,5.2c-1.7,1.3-3.7,2.4-6,3.1c-2.3,0.7-4.7,1-7.4,1S399.9,424.2,397.6,423.6z"/>
		<path class="st1" d="M434.4,434.6c-0.7-0.8-1.1-1.8-1.1-3.2v-35c0-1.4,0.4-2.5,1.2-3.3c0.8-0.8,1.7-1.2,2.9-1.2
			c1.2,0,2.1,0.3,2.8,1c0.7,0.7,1.1,1.7,1.1,3v1.1c2-3.7,5.5-5.5,10.5-5.5c2.8,0,5.3,0.7,7.4,2.2c2.1,1.5,3.7,3.4,4.8,5.9
			c1.1,2.5,1.6,5.3,1.6,8.4c0,5-1.3,8.9-3.9,11.8c-2.6,2.9-6,4.3-10.3,4.3c-4.6,0-8-1.7-10-5.1v12.4c0,1.4-0.4,2.4-1.1,3.2
			c-0.8,0.8-1.7,1.1-2.9,1.1C436.1,435.8,435.1,435.4,434.4,434.6z M452.7,418.1c0.9-0.4,1.7-1,2.3-1.6c0.6-0.7,1.1-1.5,1.5-2.4
			c0.4-0.9,0.7-1.9,0.8-2.9c0.2-1,0.3-2.1,0.3-3.2c0-1-0.1-2-0.2-3c-0.1-1-0.4-2-0.8-3c-0.4-1-0.9-1.9-1.4-2.6
			c-0.6-0.7-1.3-1.3-2.3-1.8c-0.9-0.5-2-0.7-3.2-0.7c-3,0-5.2,0.9-6.5,2.8c-1.3,1.8-1.9,4.6-1.9,8.2c0,2.1,0.3,3.9,0.8,5.4
			c0.5,1.6,1.4,2.9,2.7,3.9c1.3,1,2.9,1.5,4.8,1.5C450.7,418.7,451.8,418.5,452.7,418.1z"/>
		<path class="st1" d="M476.9,422c-2.1-1.5-3.7-3.4-4.8-5.9c-1.1-2.5-1.6-5.3-1.6-8.4c0-5,1.3-8.9,3.9-11.8c2.6-2.9,6-4.3,10.3-4.3
			c4.6,0,8,1.7,10,5.1v-14.4c0-1.4,0.4-2.4,1.1-3.2c0.8-0.8,1.7-1.1,2.9-1.1c1.2,0,2.1,0.4,2.8,1.1c0.7,0.8,1.1,1.8,1.1,3.2v37
			c0,1.4-0.4,2.5-1.2,3.3c-0.8,0.8-1.7,1.2-2.9,1.2c-1.2,0-2.2-0.3-2.9-1c-0.7-0.7-1-1.6-1-2.9v-1.1c-2,3.7-5.5,5.5-10.5,5.5
			C481.5,424.2,479,423.5,476.9,422z M492.8,416.1c1.3-1.9,1.9-4.6,1.9-8.3c0-2.1-0.3-3.9-0.8-5.4c-0.5-1.6-1.4-2.9-2.7-3.9
			s-2.9-1.5-4.8-1.5c-1.4,0-2.7,0.3-3.8,0.9c-1.1,0.6-1.9,1.4-2.5,2.5c-0.6,1-1,2.2-1.3,3.4c-0.3,1.2-0.4,2.5-0.4,4
			c0,1.3,0.1,2.6,0.4,3.8s0.7,2.4,1.3,3.5s1.4,2.1,2.5,2.7s2.3,1,3.8,1C489.4,418.9,491.5,417.9,492.8,416.1z"/>
		<path class="st1" d="M512.2,421.7c-2.1-1.6-3.1-3.8-3.1-6.7c0-1.3,0.1-2.4,0.4-3.3s0.6-1.8,1.1-2.5c0.5-0.7,1.1-1.3,2-1.8
			c0.9-0.5,1.8-0.9,2.8-1.2c1-0.3,2.2-0.5,3.7-0.7c1.5-0.2,3-0.3,4.5-0.3c1.5-0.1,3.4-0.1,5.5-0.1v-2.4c0-2-0.5-3.4-1.4-4.4
			c-0.9-0.9-2.3-1.4-4.2-1.4c-0.4,0-0.8,0-1.2,0c-0.4,0-0.8,0.1-1.3,0.2c-0.4,0.1-0.8,0.1-1.1,0.2c-0.3,0.1-0.7,0.1-1.1,0.3
			s-0.8,0.2-1,0.3c-0.2,0.1-0.6,0.2-1,0.3c-0.4,0.2-0.7,0.3-0.9,0.3c-0.1,0-0.4,0.2-0.9,0.3c-0.4,0.2-0.7,0.3-0.7,0.3
			c-0.2,0.1-0.5,0.2-0.9,0.2c-0.7,0-1.4-0.3-1.9-0.9c-0.5-0.6-0.8-1.3-0.8-2.1c0-1,0.5-1.8,1.4-2.2c3.5-1.7,7.4-2.5,11.7-2.5
			c1.9,0,3.7,0.2,5.2,0.7c1.5,0.4,2.9,1.1,4.1,2.1c1.2,0.9,2.1,2.2,2.7,3.8c0.6,1.6,1,3.5,1,5.6v16.1c0,1.3-0.4,2.3-1.1,3
			c-0.7,0.7-1.6,1-2.7,1c-1,0-1.9-0.3-2.7-1c-0.8-0.7-1.1-1.7-1.1-3v-1c-0.7,1.6-1.8,2.9-3.3,3.9c-1.5,1-3.5,1.5-6,1.5
			C516.9,424.1,514.3,423.3,512.2,421.7z M526.7,416.6c1.6-1.7,2.4-3.8,2.4-6.3v-0.9c-2.1,0-3.8,0-5,0.1c-1.2,0.1-2.4,0.2-3.5,0.4
			c-1.1,0.2-1.9,0.5-2.5,0.9c-0.5,0.4-0.9,0.9-1.2,1.5c-0.3,0.6-0.4,1.4-0.4,2.4c0,1.5,0.4,2.6,1.3,3.4c0.9,0.8,2,1.2,3.4,1.2
			C523.2,419.1,525,418.3,526.7,416.6z"/>
		<path class="st1" d="M550.2,421.4c-1.6-1.7-2.4-4.3-2.4-7.5v-16.4h-3.1c-0.9,0-1.6-0.2-2.1-0.7c-0.5-0.5-0.7-1.2-0.7-2
			c0-0.8,0.2-1.4,0.7-1.9c0.5-0.5,1.2-0.7,2.1-0.7h3.3l1-7.9c0.1-1.1,0.5-2.1,1.2-2.8c0.7-0.7,1.6-1.1,2.7-1.1
			c0.9,0,1.7,0.3,2.2,0.9c0.5,0.6,0.8,1.5,0.8,2.8v8.1h5.1c0.9,0,1.6,0.2,2,0.7c0.5,0.5,0.7,1.2,0.7,2c0,0.8-0.2,1.4-0.7,1.9
			c-0.5,0.5-1.2,0.7-2.1,0.7h-5.1v14.4c0,2,0.3,3.5,0.8,4.5c0.5,1,1.4,1.5,2.7,1.5h0.3l2.3-0.1h0.2c0.9,0,1.6,0.3,2.1,0.9
			c0.5,0.6,0.8,1.3,0.8,2.1c0,0.5-0.1,1-0.3,1.3c-0.2,0.4-0.4,0.7-0.8,0.9c-0.4,0.2-0.7,0.4-1.1,0.6c-0.4,0.1-0.9,0.2-1.5,0.3
			s-1.2,0.1-1.7,0.1c-0.5,0-1.1,0-1.8,0h-0.7C554,424,551.8,423.1,550.2,421.4z"/>
		<path class="st1" d="M570.4,399.6c1.2-2.4,3-4.3,5.4-5.8c2.4-1.5,5.2-2.2,8.4-2.2c2.5,0,4.6,0.4,6.5,1.2c1.9,0.8,3.4,1.9,4.6,3.4
			c1.2,1.4,2,3.1,2.6,4.9c0.6,1.8,0.9,3.7,0.9,5.8c0,0.8-0.2,1.5-0.6,2s-1,0.8-1.7,0.8h-20.1c0.3,6,3.4,9,9.2,9
			c2.6,0,5.4-1.1,8.4-3.2c0.4-0.3,0.8-0.4,1.2-0.4c0.7,0,1.2,0.3,1.7,0.9c0.5,0.6,0.8,1.3,0.8,2c0,0.8-0.3,1.6-1,2.2
			c-3.3,2.8-7.2,4.2-11.7,4.2c-5,0-9-1.5-12-4.4c-3-2.9-4.5-7-4.5-12.2C568.6,404.6,569.2,402,570.4,399.6z M592.1,405.1
			c-0.2-2.4-0.9-4.4-2.1-6c-1.2-1.6-3.1-2.3-5.5-2.3c-2.4,0-4.2,0.8-5.6,2.4c-1.3,1.6-2.1,3.6-2.3,5.9H592.1z"/>
		<path class="st1" d="M626.3,417.7l-11.8-28.5V420c0,1.1-0.4,1.9-1.2,2.5c-0.8,0.6-1.8,0.9-2.9,0.9c-1.1,0-2.1-0.3-2.9-0.9
			c-0.8-0.6-1.2-1.4-1.2-2.5l0-34.8c0-1.8,0.7-3.2,2-4.3c1.4-1.1,3-1.7,4.8-1.7c1.5,0,3,0.5,4.3,1.3c1.3,0.9,2.3,2.2,3,4l11,26.4
			V422C629.1,422,627.4,420.6,626.3,417.7z M631.5,411l11.1-26.4c0.7-1.8,1.7-3.1,3-4c1.3-0.9,2.8-1.3,4.3-1.3
			c1.8,0,3.4,0.6,4.8,1.7c1.4,1.1,2,2.6,2,4.3V420c0,1.1-0.4,1.9-1.2,2.5c-0.8,0.6-1.8,0.9-2.9,0.9c-1.1,0-2.1-0.3-2.9-0.9
			c-0.8-0.6-1.2-1.4-1.2-2.5v-30.8l-11.7,28.5c-1.1,2.9-2.9,4.4-5.2,4.4V411z"/>
		<path class="st1" d="M674.3,422.8c-2.2-0.9-3.9-2.1-5.2-3.7c-1.3-1.5-2.3-3.3-3-5.2c-0.7-1.9-1-3.9-1-6.1c0-1.7,0.2-3.3,0.6-4.9
			c0.4-1.6,1.1-3.1,2-4.5s2-2.6,3.3-3.7c1.3-1,2.8-1.9,4.7-2.5c1.9-0.6,3.9-0.9,6.1-0.9c2.2,0,4.2,0.3,6,0.9
			c1.8,0.6,3.4,1.4,4.7,2.4c1.3,1,2.4,2.2,3.3,3.6c0.9,1.4,1.6,2.9,2,4.5c0.4,1.6,0.7,3.3,0.7,5c0,1.7-0.2,3.3-0.6,4.8
			c-0.4,1.5-1.1,3-1.9,4.4c-0.9,1.4-2,2.6-3.2,3.7s-2.9,1.8-4.7,2.5c-1.9,0.6-3.9,0.9-6.2,0.9C678.9,424.1,676.5,423.7,674.3,422.8z
			 M688.1,415.9c1.5-1.9,2.3-4.6,2.3-8c0-3.4-0.8-6.1-2.3-8.1c-1.5-1.9-3.7-2.9-6.4-2.9c-2.8,0-4.9,1-6.4,2.9
			c-1.5,1.9-2.3,4.6-2.3,8.1c0,3.4,0.8,6.1,2.3,8s3.7,2.9,6.4,2.9C684.5,418.7,686.6,417.8,688.1,415.9z"/>
		<path class="st1" d="M706.3,422.6c-0.8-0.8-1.1-1.8-1.1-3.2v-23.7c0-1.2,0.4-2.1,1.2-2.8c0.8-0.7,1.7-1,2.8-1c1.1,0,2,0.3,2.8,1
			c0.8,0.6,1.2,1.5,1.2,2.7l-0.1,3.3c0.6-1.9,1.7-3.5,3.3-4.9c1.6-1.4,3.4-2,5.4-2c1,0,1.7,0.3,2.3,1c0.5,0.7,0.8,1.4,0.8,2.4
			c0,0.9-0.2,1.7-0.7,2.3c-0.5,0.7-1.1,1-2,1c-1.2,0-2.4,0.1-3.3,0.3c-1,0.2-1.9,0.6-2.8,1.1s-1.6,1.3-2.1,2.3
			c-0.5,1-0.7,2.3-0.7,3.8v13.4c0,1.4-0.4,2.4-1.1,3.2c-0.8,0.7-1.7,1.1-2.9,1.1C708,423.8,707,423.4,706.3,422.6z"/>
		<path class="st1" d="M729.9,399.6c1.2-2.4,3-4.3,5.4-5.8c2.4-1.5,5.2-2.2,8.4-2.2c2.5,0,4.6,0.4,6.5,1.2c1.9,0.8,3.4,1.9,4.6,3.4
			c1.2,1.4,2,3.1,2.6,4.9c0.6,1.8,0.9,3.7,0.9,5.8c0,0.8-0.2,1.5-0.6,2s-1,0.8-1.7,0.8H736c0.3,6,3.4,9,9.2,9c2.6,0,5.4-1.1,8.4-3.2
			c0.4-0.3,0.8-0.4,1.2-0.4c0.7,0,1.2,0.3,1.7,0.9c0.5,0.6,0.8,1.3,0.8,2c0,0.8-0.3,1.6-1,2.2c-3.3,2.8-7.2,4.2-11.7,4.2
			c-5,0-9-1.5-12-4.4c-3-2.9-4.5-7-4.5-12.2C728.1,404.6,728.7,402,729.9,399.6z M751.6,405.1c-0.2-2.4-0.9-4.4-2.1-6
			c-1.2-1.6-3.1-2.3-5.5-2.3c-2.4,0-4.2,0.8-5.6,2.4c-1.3,1.6-2.1,3.6-2.3,5.9H751.6z"/>
		<path class="st1" d="M767,422.6c-0.9-0.9-1.3-1.9-1.3-3.2c0-1.2,0.4-2.2,1.3-3.1c0.9-0.9,2-1.3,3.3-1.3c1.3,0,2.3,0.4,3.2,1.3
			c0.9,0.8,1.3,1.9,1.3,3.2c0,1.2-0.4,2.3-1.3,3.2c-0.9,0.9-2,1.3-3.3,1.3C769,423.9,767.9,423.5,767,422.6z"/>
		<path class="st1" d="M786.8,422.6c-0.9-0.9-1.3-1.9-1.3-3.2c0-1.2,0.4-2.2,1.3-3.1c0.9-0.9,2-1.3,3.3-1.3c1.3,0,2.3,0.4,3.2,1.3
			c0.9,0.8,1.3,1.9,1.3,3.2c0,1.2-0.4,2.3-1.3,3.2c-0.9,0.9-2,1.3-3.3,1.3C788.7,423.9,787.6,423.5,786.8,422.6z"/>
		<path class="st1" d="M806.5,422.6c-0.9-0.9-1.3-1.9-1.3-3.2c0-1.2,0.4-2.2,1.3-3.1c0.9-0.9,2-1.3,3.3-1.3c1.3,0,2.3,0.4,3.2,1.3
			c0.9,0.8,1.3,1.9,1.3,3.2c0,1.2-0.4,2.3-1.3,3.2c-0.9,0.9-2,1.3-3.3,1.3C808.5,423.9,807.4,423.5,806.5,422.6z"/>
	</g>
	<path id="XMLID_103_" class="st5" d="M924.7,314.4H344.9c-23.9,0-43.5,19.6-43.5,43.5v497.3v290.2c0,23.9-19.6,43.5-43.5,43.5h-82"
		/>
	<g id="XMLID_100_">
		<path id="XMLID_102_" class="st2" d="M406.3,574.6c-10.2,0-18.4,8-18.4,17.7c0,2.8,0.7,5.4,2,7.9v0.1l16.4,23.7l16.5-23.7
			c1.3-2.5,2-5.2,2-7.9C424.8,582.5,416.5,574.6,406.3,574.6z"/>
		<circle id="XMLID_101_" class="st6" cx="406.3" cy="591.2" r="7.8"/>
	</g>
	<g id="XMLID_92_">
		<path id="XMLID_99_" class="st7" d="M383.8,504.7v22.2c0,3.5,2.9,6.4,6.4,6.4h32.2c3.5,0,6.4-2.9,6.4-6.4v-22.2H383.8z"/>
		<path id="XMLID_98_" class="st2" d="M428.9,497.1c0-3.5-2.9-6.4-6.4-6.4h-32.2c-3.5,0-6.4,2.9-6.4,6.4v7.7H429v-7.7H428.9z"/>
		<line id="XMLID_97_" class="st4" x1="393.3" y1="486.2" x2="393.3" y2="495"/>
		<line id="XMLID_96_" class="st4" x1="419.3" y1="486.2" x2="419.3" y2="495"/>
		<circle id="XMLID_95_" class="st2" cx="420.1" cy="523.8" r="11"/>
		<line id="XMLID_94_" class="st4" x1="420.1" y1="520.4" x2="420.1" y2="523.8"/>
		<line id="XMLID_93_" class="st4" x1="423.8" y1="523.8" x2="420.1" y2="523.8"/>
	</g>
	<line id="XMLID_91_" class="st3" x1="406.3" y1="684.7" x2="406.3" y2="808.7"/>
	<circle id="XMLID_90_" class="st2" cx="406.3" cy="676.6" r="9.9"/>
	<circle id="XMLID_89_" class="st2" cx="406.3" cy="741.6" r="9.9"/>
	<circle id="XMLID_88_" class="st2" cx="406.3" cy="806.6" r="9.9"/>
	<g id="XMLID_86_">
		<polygon id="XMLID_87_" class="st8" points="391.3,883.3 401,888.9 390.9,901.4 397.4,906.6 407.4,894.1 415,902.6 423.4,867.7 		
			"/>
	</g>
	<g id="XMLID_284_">
		<line id="XMLID_286_" class="st3" x1="515" y1="311.7" x2="515" y2="299.2"/>
		<circle id="XMLID_285_" class="st2" cx="515" cy="289" r="11.7"/>
	</g>
	<g id="XMLID_287_">
		<line id="XMLID_289_" class="st3" x1="476.6" y1="311.7" x2="476.6" y2="299.2"/>
		<circle id="XMLID_288_" class="st2" cx="476.6" cy="289" r="11.7"/>
	</g>
	<path id="XMLID_260_" class="st9" d="M647.8-206h1.1c0-15,12.2-27.2,27.2-27.2s27.2,12.2,27.2,27.2h8.9c12.9,0,23.4,10.5,23.4,23.4
		s-10.5,23.4-23.4,23.4H648c-12.9,0-23.4-10.5-23.4-23.4C624.4-195.5,635.1-206,647.8-206z"/>
	<path id="XMLID_271_" class="st10" d="M621.9-112h0.6c0-8.9,7.2-16.1,16.1-16.1c8.9,0,16.1,7.2,16.1,16.1h5.3
		c7.6,0,13.9,6.3,13.9,13.9s-6.3,13.9-13.9,13.9h-38.2c-7.6,0-13.9-6.3-13.9-13.9S614.3-112,621.9-112z"/>
	<g id="XMLID_210_">
		<polygon id="XMLID_209_" class="st8" points="889.9,153.8 780.9,153.8 671.9,153.8 560.5,243.3 780.9,243.3 1001.4,243.3 		"/>
		<rect id="XMLID_211_" x="714.4" y="243.3" class="st7" width="133" height="71.3"/>
		<rect id="XMLID_214_" x="696.6" y="243.3" class="st7" width="17.9" height="71.3"/>
		<rect id="XMLID_217_" x="589.2" y="243.3" class="st10" width="107.5" height="71.3"/>
		<rect id="XMLID_231_" x="865.4" y="243.3" class="st10" width="107.4" height="71.3"/>
		<rect id="XMLID_235_" x="847.4" y="243.3" class="st7" width="17.9" height="71.3"/>
		<polygon id="XMLID_225_" class="st7" points="641.8,217.5 664.8,184.9 687.9,217.5 		"/>
		<polygon id="XMLID_227_" class="st7" points="873.1,217.5 896.1,184.9 919.2,217.5 		"/>
		<polygon id="XMLID_215_" class="st8" points="823.9,184.6 737.9,184.6 720.9,208.7 840.9,208.7 		"/>
		<polygon id="XMLID_237_" class="st7" points="780.9,123.6 737.9,184.6 823.9,184.6 		"/>
		<polygon id="XMLID_238_" class="st10" points="840.9,208.7 720.9,208.7 696.6,243.3 865.3,243.3 		"/>
		<line id="XMLID_216_" class="st3" x1="780.9" y1="124.7" x2="780.9" y2="184.5"/>
		<rect id="XMLID_219_" x="846.8" y="121.7" class="st7" width="21.7" height="32.2"/>
		<g id="XMLID_229_">
			<rect id="XMLID_228_" x="615.3" y="266.5" class="st7" width="19.9" height="24.8"/>
			<rect id="XMLID_230_" x="649.8" y="266.5" class="st7" width="19.9" height="24.8"/>
		</g>
		<g id="XMLID_232_">
			<rect id="XMLID_234_" x="891.9" y="266.5" class="st7" width="19.9" height="24.8"/>
			<rect id="XMLID_233_" x="926.6" y="266.5" class="st7" width="19.9" height="24.8"/>
		</g>
		<line id="XMLID_218_" class="st3" x1="727.4" y1="224.3" x2="834.4" y2="224.3"/>
		<g id="XMLID_207_">
			<line id="XMLID_206_" class="st3" x1="818.6" y1="297.6" x2="818.6" y2="314.1"/>
			<line id="XMLID_208_" class="st3" x1="833.3" y1="297.6" x2="833.3" y2="314.1"/>
		</g>
		<g id="XMLID_212_">
			<line id="XMLID_236_" class="st3" x1="727.7" y1="297.6" x2="727.7" y2="314.1"/>
			<line id="XMLID_213_" class="st3" x1="742.3" y1="297.6" x2="742.3" y2="314.1"/>
		</g>
	</g>
	<g id="XMLID_243_">
		<rect id="XMLID_246_" x="788.7" y="-93.2" class="st2" width="103.5" height="168.5"/>
		<polygon id="XMLID_247_" class="st7" points="840.3,-148.2 892.2,-93.2 788.7,-93.2 		"/>
		<rect id="XMLID_248_" x="801.8" y="-146.4" class="st7" width="18" height="41.3"/>
		<circle id="XMLID_249_" class="st10" cx="840.3" cy="23.3" r="36"/>
		<circle id="XMLID_250_" class="st7" cx="840.3" cy="23.3" r="15.3"/>
		<circle id="XMLID_252_" class="st10" cx="840.3" cy="-51" r="20.7"/>
		<circle id="XMLID_251_" class="st7" cx="840.3" cy="-51" r="9.7"/>
	</g>
	<path id="XMLID_56_" class="st7" d="M486.6-59.5c1.1-11.6-0.1-23.1-3.1-34l15.4-8.1l-18.7-35.6l-15.4,8.1
		c-7.2-8.7-16.1-16.1-26.2-21.9l5.2-16.6l-38.4-12l-5.2,16.6c-11.6-1.1-23.1,0.1-34,3.1l-8.1-15.4l-35.7,18.6l8.1,15.4
		c-8.7,7.2-16.1,16.1-21.9,26.2l-16.7-5.2l-12,38.4l16.7,5.2c-1.1,11.6,0.1,23.1,3.1,34l-15.5,8.2l18.7,35.7l15.5-8.1
		c7.2,8.7,16.1,16.1,26.2,21.9l-5.2,16.7l38.4,12L383,27c11.6,1.1,23.1-0.1,34-3.1l8.1,15.5l35.6-18.7l-8.1-15.5
		c8.7-7.2,16.1-16.1,21.9-26.2l16.7,5.2l12-38.4L486.6-59.5z M377.6-23.4C353-31.1,339.3-57.3,347-82c7.7-24.6,33.9-38.4,58.6-30.7
		c24.6,7.7,38.4,33.9,30.7,58.6C428.5-29.4,402.3-15.7,377.6-23.4z"/>
	<line id="XMLID_53_" class="st3" x1="843.8" y1="75.2" x2="581.8" y2="75.2"/>
	<g id="XMLID_295_">
		<circle id="XMLID_298_" class="st7" cx="636.6" cy="53" r="29.3"/>
		<line id="XMLID_296_" class="st3" x1="636.6" y1="66.5" x2="636.6" y2="106.4"/>
	</g>
	<g id="XMLID_259_">
		<path id="XMLID_292_" class="st10" d="M777.8,25.7c0-22.8-19.3-41.1-42.4-39.5c-19.8,1.4-35.8,17.7-36.7,37.5
			c-0.6,12.3,4.4,23.3,12.7,31c-2.3,4.6-3.5,9.9-3.2,15.4c0.9,15.1,13.2,27.4,28.3,28.3c17.5,1,32-12.8,32-30.1
			c0-4.9-1.2-9.5-3.3-13.6C772.8,47.6,777.8,37.2,777.8,25.7z"/>
		<line id="XMLID_290_" class="st3" x1="736.7" y1="122.1" x2="736.7" y2="60.4"/>
	</g>
	<g id="XMLID_257_">
		<path id="XMLID_256_" class="st2" d="M392,259.6c0,19,16,34.2,35.3,32.9c16.5-1.1,29.8-14.7,30.6-31.2
			c0.5-10.2-3.7-19.4-10.5-25.8c1.9-3.8,2.9-8.2,2.7-12.8c-0.7-12.6-11-22.8-23.5-23.6c-14.6-0.9-26.6,10.7-26.6,25.1
			c0,4.1,1,7.9,2.7,11.4C396.1,241.4,392,250,392,259.6z"/>
		<line id="XMLID_255_" class="st3" x1="423.6" y1="312.1" x2="423.6" y2="260.8"/>
	</g>
	<path id="XMLID_258_" class="st6" d="M927.8,40.3c-6,0-11.5,1.7-16,4.7c-6-9.7-17.3-16.3-30.3-16.3c-19.2,0-34.8,14.3-34.8,31.9
		c0,5.3,1.4,10.3,3.9,14.7h102.8c1.3-3,2.1-6.2,2.1-9.7C955.4,51.6,943.1,40.3,927.8,40.3z"/>
	<path id="XMLID_35_" class="st2" d="M576.8,62.1c-1.4-6.7-4.1-13-7.7-18.6l7.3-7.3l-16.8-16.8l-7.3,7.3c-5.6-3.6-11.9-6.3-18.6-7.7
		V8.6H510v10.3c-6.7,1.4-13,4.1-18.6,7.7l-7.3-7.3l-16.8,16.8l7.3,7.3c-3.6,5.6-6.3,11.9-7.7,18.6h-10.3v23.8h10.3
		c1.4,6.7,4.1,13,7.7,18.6l-7.3,7.3l16.8,16.8l7.3-7.3c5.6,3.6,11.9,6.3,18.6,7.7v10.4h23.8v-10.4c6.7-1.4,13-4.1,18.6-7.7l7.3,7.3
		l16.8-16.8l-7.3-7.3c3.6-5.6,6.3-11.9,7.7-18.6h10.3V62.1H576.8z M521.8,101.6c-15.2,0-27.6-12.4-27.6-27.6s12.4-27.6,27.6-27.6
		c15.2,0,27.6,12.4,27.6,27.6S537.1,101.6,521.8,101.6z"/>
</g>
</svg>
