<?xml version="1.0" encoding="utf-8"?>
<!-- Generator: Adobe Illustrator 19.0.0, SVG Export Plug-In . SVG Version: 6.00 Build 0)  -->
<svg version="1.1" xmlns="http://www.w3.org/2000/svg" xmlns:xlink="http://www.w3.org/1999/xlink" x="0px" y="0px"
	 viewBox="137 -393.1 869.7 1627" style="enable-background:new 137 -393.1 869.7 1627;" xml:space="preserve">
<style type="text/css">
	.st0{fill:#FFFFFF;stroke:#3E3A39;stroke-width:6;stroke-linecap:round;stroke-linejoin:round;stroke-miterlimit:10;}
	.st1{fill:none;stroke:#3E3A39;stroke-width:6;stroke-linecap:round;stroke-linejoin:round;stroke-miterlimit:10;}
	.st2{fill:#E0E0DF;stroke:#3E3A39;stroke-width:6;stroke-linecap:round;stroke-linejoin:round;stroke-miterlimit:10;}
	.st3{fill:#60B383;stroke:#3E3A39;stroke-width:6;stroke-miterlimit:10;}
	.st4{fill:none;stroke:#3E3A39;stroke-width:6;stroke-linecap:round;stroke-miterlimit:10;}
	.st5{fill:none;stroke:#3E3A39;stroke-width:6;stroke-miterlimit:10;}
	.st6{fill:#FFFFFF;stroke:#3E3A39;stroke-width:6;stroke-miterlimit:10;}
	.st7{fill:#60B383;stroke:#3E3A39;stroke-width:6;stroke-linecap:round;stroke-linejoin:round;stroke-miterlimit:10;}
	.st8{fill:#3E3A39;}
	.st9{enable-background:new    ;}
	.st10{fill:#60B383;}
</style>
<g id="Layer_2">
</g>
<g id="Layer_1">
	<g id="XMLID_1612_">
		<circle id="XMLID_1614_" class="st0" cx="442.5" cy="46.4" r="31.5"/>
		<line id="XMLID_1613_" class="st1" x1="442.5" y1="60.9" x2="442.5" y2="103.8"/>
	</g>
	<g id="XMLID_42_">
		<g id="XMLID_1610_">
			<polygon id="XMLID_1611_" class="st2" points="370.2,152.2 403.8,94 462.3,94 495.9,152.2 			"/>
		</g>
		<polygon id="XMLID_1609_" class="st2" points="437.4,152.2 403.8,94 370.2,152.2 		"/>
		<line id="XMLID_1608_" class="st1" x1="403.8" y1="130.1" x2="403.8" y2="151.7"/>
	</g>
	<path id="XMLID_1607_" class="st0" d="M888.6,309.5c0,0,17-21.6,4.4-53.2s-25.3-40.3-55-39.8s-96.3,0-96.3,0s-21.9,0.6-25.3-29.2
		c-3.4-29.8-16.5-35.1-22.9-35.1c-6.3,0-322.4,0-322.4,0s-39.2,8.8-38.4,55c1,54,40.9,53.2,40.9,53.2h152.7c0,0,28.8,4.8,29.9,35.3
		c1.3,37.2-27,43.7-27,43.7h348.6L888.6,309.5z"/>
	<polyline id="XMLID_1606_" class="st0" points="461.3,232.3 453.3,223.6 445,232.3 437,223.6 428.7,232.3 420.7,223.6 412.3,232.3 
			"/>
	<line id="XMLID_1506_" class="st1" x1="914.7" y1="80.8" x2="914.7" y2="40.3"/>
	<line id="XMLID_1505_" class="st1" x1="339.2" y1="-33.1" x2="339.2" y2="-91.7"/>
	<line id="XMLID_1504_" class="st1" x1="854.6" y1="-236.5" x2="854.6" y2="-258.8"/>
	<line id="XMLID_1501_" class="st1" x1="895.3" y1="-125.4" x2="895.3" y2="-137.6"/>
	<line id="XMLID_1500_" class="st1" x1="914.7" y1="23.5" x2="914.7" y2="13"/>
	<g id="XMLID_1403_">
		<ellipse id="XMLID_1405_" class="st3" cx="438.9" cy="-223.9" rx="14" ry="9"/>
		<line id="XMLID_1404_" class="st4" x1="452.9" y1="-225.6" x2="452.9" y2="-281.6"/>
	</g>
	<g id="XMLID_1400_">
		<ellipse id="XMLID_1402_" class="st3" cx="784.8" cy="-289.5" rx="14" ry="9"/>
		<line id="XMLID_1401_" class="st4" x1="798.7" y1="-291.2" x2="798.7" y2="-347.2"/>
	</g>
	<path id="XMLID_1337_" class="st5" d="M916.8,339.3H337.1c-23.9,0-43.4,19.5-43.4,43.5v497.3v290.2c0,23.9-19.6,43.4-43.4,43.4
		h-91.7"/>
	<path id="XMLID_1232_" class="st6" d="M635.8-304.7h-0.7c0-9.5-7.7-17.3-17.3-17.3s-17.3,7.7-17.3,17.3h-12
		c-8.2,0-14.9,6.7-14.9,14.9s6.7,14.9,14.9,14.9h47.2c8.2,0,14.9-6.7,14.9-14.9S643.8-304.7,635.8-304.7z"/>
	<path id="XMLID_1207_" class="st3" d="M376,45.5c-6.4,0-11.5-5.2-11.5-11.5c0-5,7.4-20.5,11.5-28.4c4.1,7.9,11.5,23.4,11.5,28.4
		C387.5,40.4,382.3,45.5,376,45.5z"/>
	<path id="XMLID_1205_" class="st3" d="M551.1-333c-6.4,0-11.5-5.2-11.5-11.5c0-5,7.4-20.5,11.5-28.4c4.1,7.9,11.5,23.4,11.5,28.4
		C562.6-338.1,557.5-333,551.1-333z"/>
	<path id="XMLID_1203_" class="st3" d="M969.8,176.5c-8.4,0-15.3-6.8-15.3-15.3c0-6.6,9.9-27.2,15.3-37.7
		c5.4,10.5,15.3,31,15.3,37.7C985.1,169.7,978.2,176.5,969.8,176.5z"/>
	<polyline id="XMLID_1196_" class="st0" points="552.4,220 544.4,211.3 536,220 528,211.3 519.7,220 511.7,211.3 503.4,220 	"/>
	<polyline id="XMLID_1195_" class="st0" points="627.6,251.1 619.6,242.5 611.2,251.1 603.2,242.5 594.8,251.1 	"/>
	<line id="XMLID_1194_" class="st1" x1="512.7" y1="285.7" x2="512.7" y2="273.1"/>
	<line id="XMLID_1193_" class="st1" x1="465" y1="285.7" x2="465" y2="273.1"/>
	<circle id="XMLID_1192_" class="st3" cx="512.7" cy="263" r="11.7"/>
	<circle id="XMLID_1191_" class="st3" cx="465" cy="263" r="11.7"/>
	<g id="XMLID_1188_">
		<line id="XMLID_1190_" class="st1" x1="622.7" y1="174.7" x2="622.7" y2="154.8"/>
		<line id="XMLID_1189_" class="st1" x1="606" y1="174.7" x2="606" y2="154.8"/>
	</g>
	<g id="XMLID_1185_">
		<line id="XMLID_1187_" class="st1" x1="507.3" y1="315.2" x2="507.3" y2="306"/>
		<line id="XMLID_1186_" class="st1" x1="490.6" y1="315.2" x2="490.6" y2="306"/>
	</g>
	<g id="XMLID_1182_">
		<line id="XMLID_1184_" class="st1" x1="421.9" y1="327.2" x2="421.9" y2="318"/>
		<line id="XMLID_1183_" class="st1" x1="405.2" y1="327.2" x2="405.2" y2="318"/>
	</g>
	<g id="XMLID_1179_">
		<line id="XMLID_1181_" class="st1" x1="448.1" y1="296.6" x2="448.1" y2="287.4"/>
		<line id="XMLID_1180_" class="st1" x1="431.4" y1="296.6" x2="431.4" y2="287.4"/>
	</g>
	<line id="XMLID_1178_" class="st1" x1="430.2" y1="174.7" x2="430.2" y2="154.8"/>
	<path id="XMLID_1177_" class="st2" d="M694,296.4c-7.3,0-14,2.1-19.5,5.7c-7.3-11.9-21.1-19.9-37-19.9c-23.5,0-42.5,17.5-42.5,39.1
		c0,6.5,1.7,12.6,4.8,18h125.5c1.6-3.6,2.5-7.6,2.5-11.8C727.8,310.3,712.7,296.4,694,296.4z"/>
	<g id="XMLID_1166_">
		<path id="XMLID_1176_" class="st3" d="M793-66.8h-22c-28.3,0-51.3-22.9-51.3-51.3h22C770.1-118,793-95.1,793-66.8z"/>
		<path id="XMLID_1175_" class="st3" d="M844.3-74.1h22c0,28.3-22.9,51.3-51.3,51.3h-22C793-51.2,816-74.1,844.3-74.1z"/>
		<path id="XMLID_1174_" class="st0" d="M798.8,50.3h-11.6V-88.8c0-4,2.6-7.3,5.8-7.3s5.8,3.3,5.8,7.3V50.3z"/>
		<path id="XMLID_1173_" class="st3" d="M793,6.4h-22c-28.3,0-51.3-22.9-51.3-51.3h22C770.1-44.8,793-21.9,793,6.4z"/>
		<path id="XMLID_1172_" class="st3" d="M861.3-118c-8.4,17.9-26.5,29.3-46.3,29.3h-22c0-28.3,22.9-51.3,51.3-51.3h22
			C866.3-132.4,864.6-124.9,861.3-118z"/>
		<g id="XMLID_1167_">
			<path id="XMLID_1171_" class="st0" d="M901.8,290.8c-6.2-2.9-10-9.2-9.9-16v-87c0-37.2-30.2-67.3-67.3-67.3h-67.3
				c-37.2,0-67.3,30.1-67.3,67.3v87c0.2,6.8-3.7,13.1-9.8,16c-10,4.2-16.1,14.3-15.3,25.1c1.5,13.5,13,23.7,26.6,23.4h200.6
				c14,0,25.3-11.3,25.3-25.2C917.2,303.9,911.2,294.7,901.8,290.8L901.8,290.8z"/>
			<path id="XMLID_1170_" class="st3" d="M790.8,198c8.9,0,14.6,4.3,14.6,7.3c0,4,3.3,7.3,7.3,7.3s7.3-3.3,7.3-7.3
				c0-10.4-9.2-18.8-21.9-21.2v-8c0-4-3.3-7.3-7.3-7.3s-7.3,3.3-7.3,7.3v8c-12.7,2.4-21.9,10.8-21.9,21.2
				c0,12.3,12.8,21.9,29.2,21.9c8.9,0,14.6,4.3,14.6,7.3s-5.7,7.3-14.6,7.3s-14.6-4.3-14.6-7.3c0-4-3.3-7.3-7.3-7.3
				s-7.3,3.3-7.3,7.3c0,10.4,9.2,18.8,21.9,21.2v8c0,4,3.3,7.3,7.3,7.3s7.3-3.3,7.3-7.3v-8c12.7-2.4,21.9-10.8,21.9-21.2
				c0-12.3-12.8-21.9-29.2-21.9c-8.9,0-14.6-4.3-14.6-7.3C776.3,202.3,782,198,790.8,198z"/>
			<path id="XMLID_1169_" class="st3" d="M768.8,120.4c-6.7,0-12.1-5.4-12.1-12.1s5.5-12.1,12.1-12.1h48.5c6.7,0,12.1,5.4,12.1,12.1
				s-5.5,12.1-12.1,12.1H768.8z"/>
			<path id="XMLID_1168_" class="st0" d="M853.7,35.4l-36.4,60.7h-48.6l-36.4-60.7c15.2,0,15.2-12.1,30.3-12.1s15.2,12.1,30.4,12.1
				s15.2-12.1,30.3-12.1S838.6,35.4,853.7,35.4z"/>
		</g>
	</g>
	<path id="XMLID_1165_" class="st3" d="M797.8,272.2c11.4,0,22,3.3,30.6,9c11.4-18.6,33.1-31.1,58-31.1c36.8,0,66.6,27.4,66.6,61.1
		c0,10.2-2.7,19.7-7.5,28.1H748.8c-2.6-5.7-4-12-4-18.5C745,293.9,768.7,272.2,797.8,272.2z"/>
	<g id="XMLID_1160_">
		<g id="XMLID_1163_">
			<polygon id="XMLID_1164_" class="st7" points="614.1,152.2 570.6,76.8 494.9,76.8 451.4,152.2 			"/>
		</g>
		<polygon id="XMLID_1162_" class="st7" points="527.1,152.2 570.6,76.8 614.1,152.2 		"/>
		<line id="XMLID_1161_" class="st1" x1="570.6" y1="123.6" x2="570.6" y2="151.5"/>
	</g>
	<circle id="XMLID_1124_" class="st3" cx="955.6" cy="-180.7" r="9.9"/>
	<circle id="XMLID_1123_" class="st3" cx="948.1" cy="211.3" r="9.9"/>
	<circle id="XMLID_1122_" class="st3" cx="291.2" cy="94" r="9.9"/>
	<circle id="XMLID_1121_" class="st3" cx="660.8" cy="69.2" r="9.9"/>
	<circle id="XMLID_1120_" class="st3" cx="320.4" cy="-270.6" r="9.9"/>
	<path id="XMLID_1119_" class="st2" d="M712.3-240.4h-1c0-15-12.2-27.2-27.1-27.2S657-255.4,657-240.4h-8.9
		c-12.9,0-23.4,10.5-23.4,23.4s10.5,23.4,23.4,23.4h64.2c12.9,0,23.4-10.5,23.4-23.4S725.3-240.4,712.3-240.4z"/>
	<path id="XMLID_924_" class="st0" d="M539.9-142.8c-7,0.8-14.5,1.9-22.4,3.5c0,0-11.9-5.3-26.6-7.4s-20.3,0.7-18.9,5.3
		s7,24.9,7,24.9s-13.3,16.1-18.2,21.4c-4.9,5.3-20.3,14.7-25.6,16.1c-5.3,1.4-0.7,37.5,2.8,38.2s27,4.2,72.5,51.5h12.3l9.7-16.5
		c12,2.5,31.7,4.9,53.4-0.4l10.8,16.8l13.6,0.4c0,0,28.7-38.2,37.1-74.6c3.5-15,0.7-31.4-6.1-45.1c-7.8-15.4-20.8-24.6-37-29.7"/>
	<g id="XMLID_909_">
		<circle id="XMLID_911_" class="st0" cx="373.1" cy="263.7" r="40.3"/>
		<line id="XMLID_910_" class="st1" x1="373.1" y1="282.3" x2="373.1" y2="337.1"/>
	</g>
	<path id="XMLID_908_" class="st0" d="M649.8-79.4c5.2,2.5,12.4,2.9,17-1c3.6-3,6.3-10.5,4.4-15.1c-2.5-6.1-15.4-5.6-15.4,1.8"/>
	<path id="XMLID_907_" class="st0" d="M520.6-9c0,0,35.9,13.6,75.3,0"/>
	<path id="XMLID_906_" class="st0" d="M537-117.8c0,0,30-9.9,61.9,3"/>
	<path id="XMLID_905_" class="st8" d="M484.6-67.3h-1.3c-2.2,0-4-1.8-4-4v-10.4c0-2.2,1.8-4,4-4h1.3c2.2,0,4,1.8,4,4v10.4
		C488.6-69.1,486.8-67.3,484.6-67.3z"/>
	<g id="XMLID_902_">
		<circle id="XMLID_904_" class="st0" cx="572.9" cy="-164.2" r="22.7"/>
		<path id="XMLID_903_" class="st8" d="M572.9-170.5c2.6,0,4.2,1.3,4.2,2.1c0,1.2,1,2.1,2.1,2.1s2.1-0.9,2.1-2.1
			c0-3-2.7-5.4-6.4-6.1v-2.3c0-1.2-1-2.1-2.1-2.1s-2.1,0.9-2.1,2.1v2.3c-3.7,0.7-6.4,3.1-6.4,6.1c0,3.6,3.7,6.4,8.5,6.4
			c2.6,0,4.2,1.3,4.2,2.1c0,0.9-1.6,2.1-4.2,2.1s-4.2-1.3-4.2-2.1c0-1.2-1-2.1-2.1-2.1s-2.1,0.9-2.1,2.1c0,3,2.7,5.4,6.4,6.1v2.3
			c0,1.2,1,2.1,2.1,2.1s2.1-0.9,2.1-2.1v-2.3c3.7-0.7,6.4-3.1,6.4-6.1c0-3.6-3.7-6.4-8.5-6.4c-2.6,0-4.2-1.3-4.2-2.1
			S570.3-170.5,572.9-170.5z"/>
	</g>
	<g id="XMLID_899_">
		<circle id="XMLID_901_" class="st0" cx="907.6" cy="-57.8" r="22.7"/>
		<path id="XMLID_900_" class="st8" d="M907.6-64.2c2.6,0,4.2,1.3,4.2,2.1c0,1.2,1,2.1,2.1,2.1s2.1-1,2.1-2.1c0-3-2.7-5.5-6.4-6.1
			v-2.3c0-1.2-1-2.1-2.1-2.1s-2.1,1-2.1,2.1v2.3c-3.7,0.7-6.4,3.1-6.4,6.1c0,3.6,3.7,6.4,8.5,6.4c2.6,0,4.2,1.3,4.2,2.1
			s-1.7,2.1-4.2,2.1c-2.6,0-4.2-1.3-4.2-2.1c0-1.2-1-2.1-2.1-2.1s-2.1,1-2.1,2.1c0,3,2.7,5.5,6.4,6.1v2.3c0,1.2,1,2.1,2.1,2.1
			s2.1-1,2.1-2.1v-2.2c3.7-0.7,6.4-3.1,6.4-6.1c0-3.6-3.7-6.4-8.5-6.4c-2.6,0-4.2-1.3-4.2-2.1C903.3-62.8,905.1-64.2,907.6-64.2z"/>
	</g>
	<g id="XMLID_896_">
		<circle id="XMLID_898_" class="st0" cx="330.4" cy="-186.9" r="22.7"/>
		<path id="XMLID_897_" class="st8" d="M330.4-193.3c2.6,0,4.2,1.3,4.2,2.1c0,1.2,0.9,2.1,2.1,2.1s2.1-0.9,2.1-2.1
			c0-3-2.7-5.4-6.4-6.1v-2.3c0-1.2-0.9-2.1-2.1-2.1s-2.1,0.9-2.1,2.1v2.3c-3.7,0.7-6.4,3.1-6.4,6.1c0,3.6,3.7,6.4,8.5,6.4
			c2.6,0,4.2,1.3,4.2,2.1c0,0.9-1.6,2.1-4.2,2.1s-4.2-1.3-4.2-2.1c0-1.2-0.9-2.1-2.1-2.1s-2.1,0.9-2.1,2.1c0,3,2.7,5.4,6.4,6.1v2.3
			c0,1.2,0.9,2.1,2.1,2.1s2.1-0.9,2.1-2.1v-2.3c3.7-0.7,6.4-3.1,6.4-6.1c0-3.6-3.7-6.4-8.5-6.4c-2.6,0-4.2-1.3-4.2-2.1
			C326.1-192,327.8-193.3,330.4-193.3z"/>
	</g>
	<g id="XMLID_893_">
		<line id="XMLID_895_" class="st1" x1="923.1" y1="337.1" x2="923.1" y2="321.3"/>
		<line id="XMLID_894_" class="st1" x1="906.3" y1="337.1" x2="906.3" y2="321.3"/>
	</g>
	<g class="st9">
		<path class="st8" d="M485.7,536.4l-8.3,7.3h10.8c0.5,0,1,0.2,1.3,0.6c0.3,0.4,0.4,0.9,0.4,1.5s-0.1,1.1-0.4,1.5s-0.7,0.6-1.3,0.6
			h-13.9c-0.9,0-1.5-0.3-2-0.8s-0.8-1.2-0.8-1.9c0-1,0.4-1.8,1.1-2.5l10.1-10.1c1.7-1.6,2.5-3.1,2.5-4.6c0-1.2-0.4-2.2-1.3-3
			s-1.9-1.2-3.2-1.2c-0.7,0-1.4,0.1-2.1,0.2c-0.7,0.2-1.1,0.3-1.4,0.4c-0.3,0.1-0.8,0.4-1.4,0.8c-0.7,0.4-1,0.6-1.1,0.6
			c-0.2,0.1-0.4,0.1-0.6,0.1c-0.5,0-1-0.3-1.5-0.8s-0.7-1.1-0.7-1.6c0-0.7,0.3-1.2,1-1.6c1.3-0.8,2.6-1.4,3.9-1.8
			c1.3-0.4,2.8-0.6,4.4-0.6c2.7,0,4.8,0.8,6.5,2.3s2.5,3.5,2.5,5.7C490.3,530.8,488.8,533.7,485.7,536.4z"/>
		<path class="st8" d="M501.4,547.7c-1.2-0.5-2.2-1.3-3-2.2s-1.4-2-2-3.3c-0.5-1.3-0.9-2.6-1.1-4s-0.3-2.9-0.3-4.5s0.1-3.1,0.3-4.4
			c0.2-1.4,0.6-2.7,1.1-4s1.2-2.4,1.9-3.2s1.8-1.6,3-2.1s2.6-0.8,4.2-0.8c1.5,0,2.9,0.3,4.2,0.8c1.2,0.5,2.2,1.2,3,2.1
			c0.8,0.9,1.4,2,2,3.2c0.5,1.3,0.9,2.6,1.1,4s0.3,2.9,0.3,4.5s-0.1,3.1-0.3,4.5s-0.6,2.7-1.1,4s-1.2,2.4-2,3.3
			c-0.8,0.9-1.8,1.6-3,2.2c-1.2,0.5-2.6,0.8-4.2,0.8S502.6,548.2,501.4,547.7z M507.5,543.7c0.5-0.3,1-0.6,1.4-1.1s0.7-1.1,0.9-1.7
			c0.2-0.6,0.4-1.3,0.6-2.2c0.1-0.8,0.2-1.6,0.3-2.4c0-0.8,0.1-1.6,0.1-2.6s0-1.8-0.1-2.6c0-0.8-0.1-1.6-0.3-2.4
			c-0.1-0.8-0.3-1.5-0.5-2.1s-0.5-1.1-0.9-1.6s-0.8-0.9-1.4-1.1c-0.6-0.3-1.2-0.4-1.9-0.4s-1.3,0.1-1.9,0.4c-0.6,0.3-1,0.6-1.4,1.1
			s-0.7,1-0.9,1.6c-0.2,0.6-0.4,1.3-0.5,2.1s-0.2,1.6-0.3,2.4c0,0.8-0.1,1.6-0.1,2.6s0,1.8,0.1,2.6c0,0.8,0.1,1.6,0.3,2.4
			c0.1,0.8,0.3,1.6,0.5,2.2c0.2,0.6,0.5,1.2,0.9,1.7s0.8,0.9,1.4,1.1c0.6,0.3,1.2,0.4,1.9,0.4S506.9,544,507.5,543.7z"/>
		<path class="st8" d="M529.2,547.1c-0.5-0.6-0.8-1.4-0.8-2.4v-19.2l-3.8,2.3c-0.3,0.2-0.6,0.3-1,0.3c-0.5,0-1-0.2-1.3-0.6
			c-0.4-0.4-0.5-0.9-0.5-1.4c0-0.7,0.3-1.3,1-1.7l6.9-4.1c0.5-0.3,1.1-0.5,1.6-0.5c0.8,0,1.4,0.3,1.9,0.8s0.7,1.4,0.7,2.4v21.8
			c0,1-0.3,1.7-0.8,2.3s-1.2,0.9-2,0.9C530.4,548,529.7,547.7,529.2,547.1z"/>
		<path class="st8" d="M545.9,547.1c-0.7-0.3-1-0.8-1-1.7c0-0.6,0.2-1.2,0.5-1.7c0.4-0.5,0.8-0.8,1.3-0.8c0.1,0,0.3,0,0.5,0.1
			c1.9,0.7,3.5,1,4.9,1c1.1,0,2-0.2,2.8-0.5s1.4-0.7,1.9-1.3c0.5-0.5,0.9-1.2,1.2-2s0.5-1.7,0.6-2.6c0.1-0.9,0.2-1.9,0.2-3.1
			c-0.4,0.8-1.1,1.4-2.3,2c-1.1,0.5-2.5,0.8-4,0.8c-2.7,0-4.9-0.8-6.6-2.5c-1.8-1.6-2.6-3.8-2.6-6.5c0-2.8,0.9-5.1,2.8-6.8
			c1.8-1.8,4.3-2.6,7.4-2.6c1.6,0,3,0.2,4.2,0.7s2.3,1.1,3.1,1.8c0.8,0.8,1.5,1.7,2.1,2.8s1,2.3,1.2,3.6s0.4,2.7,0.4,4.2
			c0,1.3-0.1,2.5-0.2,3.7c-0.1,1.1-0.3,2.3-0.6,3.4c-0.3,1.1-0.6,2.1-1,3s-1,1.8-1.6,2.5s-1.4,1.4-2.2,2s-1.8,0.9-3,1.2
			s-2.4,0.4-3.8,0.4C549.9,548.5,547.8,548,545.9,547.1z M557.1,532.3c0.9-1,1.4-2.3,1.4-4c0-1.5-0.4-2.8-1.3-3.6
			c-0.9-0.8-2.1-1.3-3.6-1.3c-1.6,0-2.9,0.4-3.8,1.3c-0.9,0.9-1.3,2.1-1.3,3.8s0.4,3,1.2,3.9c0.8,1,2,1.4,3.6,1.4
			C554.9,533.7,556.2,533.2,557.1,532.3z"/>
		<path class="st8" d="M569.9,547.3c-0.5-0.5-0.8-1.2-0.8-2c0-0.7,0.3-1.4,0.8-1.9s1.2-0.8,2-0.8s1.4,0.3,2,0.8s0.8,1.2,0.8,2
			s-0.3,1.4-0.8,1.9s-1.2,0.8-2,0.8C571.1,548.1,570.4,547.8,569.9,547.3z"/>
		<path class="st8" d="M589.5,547.1c-0.5-0.6-0.8-1.4-0.8-2.4v-19.2l-3.8,2.3c-0.3,0.2-0.6,0.3-1,0.3c-0.5,0-1-0.2-1.3-0.6
			c-0.4-0.4-0.5-0.9-0.5-1.4c0-0.7,0.3-1.3,1-1.7l6.9-4.1c0.5-0.3,1.1-0.5,1.6-0.5c0.8,0,1.4,0.3,1.9,0.8s0.7,1.4,0.7,2.4v21.8
			c0,1-0.3,1.7-0.8,2.3s-1.2,0.9-2,0.9C590.6,548,590,547.7,589.5,547.1z"/>
		<path class="st8" d="M610,547.7c-1.2-0.5-2.2-1.3-3-2.2s-1.4-2-2-3.3c-0.5-1.3-0.9-2.6-1.1-4c-0.2-1.4-0.3-2.9-0.3-4.5
			s0.1-3.1,0.3-4.4c0.2-1.4,0.6-2.7,1.1-4s1.2-2.4,1.9-3.2s1.8-1.6,3-2.1s2.6-0.8,4.2-0.8c1.5,0,2.9,0.3,4.2,0.8
			c1.2,0.5,2.2,1.2,3,2.1c0.8,0.9,1.4,2,2,3.2c0.5,1.3,0.9,2.6,1.1,4s0.3,2.9,0.3,4.5s-0.1,3.1-0.3,4.5s-0.6,2.7-1.1,4
			s-1.2,2.4-2,3.3c-0.8,0.9-1.8,1.6-3,2.2c-1.2,0.5-2.6,0.8-4.2,0.8S611.2,548.2,610,547.7z M616.1,543.7c0.5-0.3,1-0.6,1.4-1.1
			s0.7-1.1,0.9-1.7c0.2-0.6,0.4-1.3,0.6-2.2c0.1-0.8,0.2-1.6,0.3-2.4c0-0.8,0.1-1.6,0.1-2.6s0-1.8-0.1-2.6c0-0.8-0.1-1.6-0.3-2.4
			c-0.1-0.8-0.3-1.5-0.5-2.1s-0.5-1.1-0.9-1.6s-0.8-0.9-1.4-1.1c-0.6-0.3-1.2-0.4-1.9-0.4s-1.3,0.1-1.9,0.4c-0.6,0.3-1,0.6-1.4,1.1
			s-0.7,1-0.9,1.6s-0.4,1.3-0.5,2.1s-0.2,1.6-0.3,2.4c0,0.8-0.1,1.6-0.1,2.6s0,1.8,0.1,2.6c0,0.8,0.1,1.6,0.3,2.4
			c0.1,0.8,0.3,1.6,0.5,2.2c0.2,0.6,0.5,1.2,0.9,1.7s0.8,0.9,1.4,1.1c0.6,0.3,1.2,0.4,1.9,0.4S615.5,544,616.1,543.7z"/>
	</g>
	<g class="st9">
		<path class="st8" d="M657.8,529.7c0.5,0.1,0.8,0.3,1,0.6s0.3,0.7,0.2,1.3c-0.3,1.7-1,3.1-2,4.1s-2.3,1.5-3.8,1.5
			c-0.9,0-1.7-0.2-2.4-0.6c-0.7-0.4-1.3-0.8-1.8-1.3s-1.1-0.9-1.6-1.3s-1.1-0.6-1.7-0.6c-0.7,0-1.2,0.3-1.6,0.8
			c-0.4,0.6-0.7,1.3-0.9,2.2c-0.1,0.5-0.4,0.8-0.8,1c-0.4,0.2-0.8,0.2-1.2,0.1c-0.5-0.1-0.8-0.3-1-0.6s-0.3-0.7-0.2-1.3
			c0.1-0.7,0.4-1.4,0.7-2.1c0.3-0.7,0.7-1.3,1.2-1.8s1-1,1.7-1.3s1.4-0.5,2.2-0.5c1,0,1.8,0.2,2.5,0.6c0.7,0.4,1.3,0.9,1.8,1.3
			c0.5,0.5,1,0.9,1.5,1.3c0.5,0.4,1,0.6,1.6,0.6c1.4,0,2.2-1,2.6-3c0.1-0.5,0.4-0.9,0.8-1C657,529.7,657.4,529.7,657.8,529.7z"/>
	</g>
	<g class="st9">
		<path class="st8" d="M688.2,536.4l-8.3,7.3h10.8c0.5,0,1,0.2,1.3,0.6c0.3,0.4,0.4,0.9,0.4,1.5s-0.2,1.1-0.4,1.5
			c-0.3,0.4-0.7,0.6-1.3,0.6h-13.9c-0.9,0-1.5-0.3-2-0.8s-0.8-1.2-0.8-1.9c0-1,0.4-1.8,1.1-2.5l10.1-10.1c1.7-1.6,2.5-3.1,2.5-4.6
			c0-1.2-0.4-2.2-1.3-3c-0.9-0.8-1.9-1.2-3.2-1.2c-0.7,0-1.4,0.1-2.1,0.2c-0.7,0.2-1.1,0.3-1.4,0.4c-0.3,0.1-0.8,0.4-1.4,0.8
			c-0.7,0.4-1,0.6-1.1,0.6c-0.2,0.1-0.4,0.1-0.6,0.1c-0.5,0-1-0.3-1.5-0.8s-0.7-1.1-0.7-1.6c0-0.7,0.3-1.2,1-1.6
			c1.3-0.8,2.6-1.4,3.9-1.8c1.3-0.4,2.8-0.6,4.4-0.6c2.7,0,4.8,0.8,6.5,2.3s2.5,3.5,2.5,5.7C692.8,530.8,691.3,533.7,688.2,536.4z"
			/>
		<path class="st8" d="M703.9,547.7c-1.2-0.5-2.2-1.3-3-2.2s-1.4-2-2-3.3c-0.5-1.3-0.9-2.6-1.1-4c-0.2-1.4-0.3-2.9-0.3-4.5
			s0.1-3.1,0.3-4.4c0.2-1.4,0.6-2.7,1.1-4s1.2-2.4,1.9-3.2s1.8-1.6,3-2.1s2.6-0.8,4.2-0.8c1.5,0,2.9,0.3,4.2,0.8
			c1.2,0.5,2.2,1.2,3,2.1c0.8,0.9,1.4,2,2,3.2c0.5,1.3,0.9,2.6,1.1,4s0.3,2.9,0.3,4.5s-0.1,3.1-0.3,4.5s-0.6,2.7-1.1,4
			s-1.2,2.4-2,3.3c-0.8,0.9-1.8,1.6-3,2.2c-1.2,0.5-2.6,0.8-4.2,0.8S705.1,548.2,703.9,547.7z M710,543.7c0.5-0.3,1-0.6,1.4-1.1
			s0.7-1.1,0.9-1.7c0.2-0.6,0.4-1.3,0.6-2.2c0.1-0.8,0.2-1.6,0.3-2.4c0-0.8,0.1-1.6,0.1-2.6s0-1.8-0.1-2.6c0-0.8-0.1-1.6-0.3-2.4
			c-0.1-0.8-0.3-1.5-0.5-2.1s-0.5-1.1-0.9-1.6s-0.8-0.9-1.4-1.1c-0.6-0.3-1.2-0.4-1.9-0.4s-1.3,0.1-1.9,0.4c-0.6,0.3-1,0.6-1.4,1.1
			s-0.7,1-0.9,1.6s-0.4,1.3-0.5,2.1s-0.2,1.6-0.3,2.4c0,0.8-0.1,1.6-0.1,2.6s0,1.8,0.1,2.6c0,0.8,0.1,1.6,0.3,2.4
			c0.1,0.8,0.3,1.6,0.5,2.2c0.2,0.6,0.5,1.2,0.9,1.7s0.8,0.9,1.4,1.1c0.6,0.3,1.2,0.4,1.9,0.4S709.4,544,710,543.7z"/>
		<path class="st8" d="M731.7,547.1c-0.5-0.6-0.8-1.4-0.8-2.4v-19.2l-3.8,2.3c-0.3,0.2-0.6,0.3-1,0.3c-0.5,0-1-0.2-1.3-0.6
			c-0.4-0.4-0.5-0.9-0.5-1.4c0-0.7,0.3-1.3,1-1.7l6.9-4.1c0.5-0.3,1.1-0.5,1.6-0.5c0.8,0,1.4,0.3,1.9,0.8s0.7,1.4,0.7,2.4v21.8
			c0,1-0.3,1.7-0.8,2.3s-1.2,0.9-2,0.9C732.9,548,732.2,547.7,731.7,547.1z"/>
		<path class="st8" d="M748.4,547.1c-0.7-0.3-1-0.8-1-1.7c0-0.6,0.2-1.2,0.5-1.7c0.4-0.5,0.8-0.8,1.3-0.8c0.1,0,0.3,0,0.5,0.1
			c1.9,0.7,3.5,1,4.9,1c1.1,0,2-0.2,2.8-0.5s1.4-0.7,1.9-1.3c0.5-0.5,0.9-1.2,1.2-2s0.5-1.7,0.6-2.6c0.1-0.9,0.2-1.9,0.2-3.1
			c-0.4,0.8-1.1,1.4-2.3,2c-1.1,0.5-2.5,0.8-4,0.8c-2.7,0-4.9-0.8-6.6-2.5c-1.8-1.6-2.6-3.8-2.6-6.5c0-2.8,0.9-5.1,2.8-6.8
			c1.8-1.8,4.3-2.6,7.4-2.6c1.6,0,3,0.2,4.2,0.7s2.3,1.1,3.1,1.8c0.8,0.8,1.5,1.7,2.1,2.8s1,2.3,1.2,3.6s0.4,2.7,0.4,4.2
			c0,1.3-0.1,2.5-0.2,3.7c-0.1,1.1-0.3,2.3-0.6,3.4c-0.3,1.1-0.6,2.1-1,3s-1,1.8-1.6,2.5s-1.4,1.4-2.2,2s-1.8,0.9-3,1.2
			s-2.4,0.4-3.8,0.4C752.4,548.5,750.3,548,748.4,547.1z M759.6,532.3c0.9-1,1.4-2.3,1.4-4c0-1.5-0.4-2.8-1.3-3.6s-2.1-1.3-3.6-1.3
			c-1.6,0-2.9,0.4-3.8,1.3c-0.9,0.9-1.3,2.1-1.3,3.8s0.4,3,1.2,3.9c0.8,1,2,1.4,3.6,1.4C757.4,533.7,758.7,533.2,759.6,532.3z"/>
		<path class="st8" d="M772.4,547.3c-0.5-0.5-0.8-1.2-0.8-2c0-0.7,0.3-1.4,0.8-1.9s1.2-0.8,2-0.8s1.4,0.3,2,0.8s0.8,1.2,0.8,2
			s-0.3,1.4-0.8,1.9s-1.2,0.8-2,0.8S772.9,547.8,772.4,547.3z"/>
		<path class="st8" d="M792,547.1c-0.5-0.6-0.8-1.4-0.8-2.4v-19.2l-3.8,2.3c-0.3,0.2-0.6,0.3-1,0.3c-0.5,0-1-0.2-1.3-0.6
			c-0.4-0.4-0.5-0.9-0.5-1.4c0-0.7,0.3-1.3,1-1.7l6.9-4.1c0.5-0.3,1.1-0.5,1.6-0.5c0.8,0,1.4,0.3,1.9,0.8s0.7,1.4,0.7,2.4v21.8
			c0,1-0.3,1.7-0.8,2.3s-1.2,0.9-2,0.9C793.1,548,792.5,547.7,792,547.1z"/>
		<path class="st8" d="M821,536.4l-8.3,7.3h10.8c0.5,0,1,0.2,1.3,0.6c0.3,0.4,0.4,0.9,0.4,1.5s-0.2,1.1-0.4,1.5
			c-0.3,0.4-0.7,0.6-1.3,0.6h-13.9c-0.9,0-1.5-0.3-2-0.8s-0.8-1.2-0.8-1.9c0-1,0.4-1.8,1.1-2.5l10.1-10.1c1.7-1.6,2.5-3.1,2.5-4.6
			c0-1.2-0.4-2.2-1.3-3c-0.9-0.8-1.9-1.2-3.2-1.2c-0.7,0-1.4,0.1-2.1,0.2c-0.7,0.2-1.1,0.3-1.4,0.4c-0.3,0.1-0.8,0.4-1.4,0.8
			c-0.7,0.4-1,0.6-1.1,0.6c-0.2,0.1-0.4,0.1-0.6,0.1c-0.5,0-1-0.3-1.5-0.8s-0.7-1.1-0.7-1.6c0-0.7,0.3-1.2,1-1.6
			c1.3-0.8,2.6-1.4,3.9-1.8c1.3-0.4,2.8-0.6,4.4-0.6c2.7,0,4.8,0.8,6.5,2.3s2.5,3.5,2.5,5.7C825.7,530.8,824.1,533.7,821,536.4z"/>
	</g>
	<g class="st9">
		<path class="st8" d="M501.8,636.3c-0.7,0.5-1.6,0.8-2.5,0.8s-1.8-0.3-2.5-0.8c-0.8-0.5-1.3-1.3-1.6-2.3l-5.7-19.1l-5.7,19.1
			c-0.3,1-0.8,1.8-1.6,2.3c-0.8,0.5-1.6,0.8-2.5,0.8s-1.7-0.3-2.5-0.8c-0.7-0.5-1.2-1.3-1.5-2.2l-5.8-22c-0.1-0.3-0.1-0.5-0.1-0.7
			c0-0.7,0.3-1.4,0.8-1.8s1.2-0.7,1.9-0.7c0.6,0,1.1,0.2,1.6,0.5c0.5,0.4,0.8,0.9,0.9,1.6l5,20.4l5.8-19.3c0.3-1.1,0.8-1.9,1.4-2.4
			s1.4-0.8,2.3-0.8s1.7,0.3,2.3,0.8c0.6,0.5,1,1.3,1.4,2.4l5.8,19.3l5-20.4c0.2-0.7,0.5-1.2,0.9-1.6c0.5-0.4,1-0.5,1.6-0.5
			c0.7,0,1.3,0.2,1.9,0.7s0.8,1.1,0.8,1.8c0,0.2,0,0.4-0.1,0.7l-5.8,22C503.1,635,502.6,635.7,501.8,636.3z"/>
		<path class="st8" d="M517.3,636.4c-1.3-0.6-2.4-1.3-3.2-2.3s-1.4-2-1.8-3.2c-0.4-1.2-0.6-2.4-0.6-3.7c0-1,0.1-2,0.4-3
			s0.7-1.9,1.2-2.7s1.2-1.6,2-2.2c0.8-0.6,1.8-1.1,2.9-1.5c1.1-0.4,2.4-0.6,3.8-0.6c1.3,0,2.6,0.2,3.7,0.5c1.1,0.4,2.1,0.8,2.9,1.5
			c0.8,0.6,1.5,1.4,2,2.2c0.6,0.9,1,1.8,1.2,2.8c0.3,1,0.4,2,0.4,3.1c0,1-0.1,2-0.4,3s-0.7,1.9-1.2,2.7c-0.5,0.9-1.2,1.6-2,2.2
			c-0.8,0.6-1.8,1.1-2.9,1.5c-1.1,0.4-2.4,0.6-3.8,0.6C520.2,637.2,518.6,636.9,517.3,636.4z M525.8,632.1c0.9-1.2,1.4-2.8,1.4-4.9
			c0-2.1-0.5-3.8-1.4-5s-2.3-1.8-3.9-1.8c-1.7,0-3,0.6-3.9,1.8s-1.4,2.8-1.4,5c0,2.1,0.5,3.8,1.4,4.9c0.9,1.1,2.2,1.8,3.9,1.8
			C523.6,633.9,524.9,633.3,525.8,632.1z"/>
		<path class="st8" d="M540.9,636.4c-1.3-0.6-2.4-1.3-3.2-2.3s-1.4-2-1.8-3.2c-0.4-1.2-0.6-2.4-0.6-3.7c0-1,0.1-2,0.4-3
			s0.7-1.9,1.2-2.7s1.2-1.6,2-2.2c0.8-0.6,1.8-1.1,2.9-1.5c1.1-0.4,2.4-0.6,3.8-0.6c1.3,0,2.6,0.2,3.7,0.5c1.1,0.4,2.1,0.8,2.9,1.5
			c0.8,0.6,1.5,1.4,2,2.2c0.6,0.9,1,1.8,1.2,2.8c0.3,1,0.4,2,0.4,3.1c0,1-0.1,2-0.4,3s-0.7,1.9-1.2,2.7c-0.5,0.9-1.2,1.6-2,2.2
			c-0.8,0.6-1.8,1.1-2.9,1.5c-1.1,0.4-2.4,0.6-3.8,0.6C543.8,637.2,542.3,636.9,540.9,636.4z M549.4,632.1c0.9-1.2,1.4-2.8,1.4-4.9
			c0-2.1-0.5-3.8-1.4-5s-2.3-1.8-3.9-1.8c-1.7,0-3,0.6-3.9,1.8s-1.4,2.8-1.4,5c0,2.1,0.5,3.8,1.4,4.9c0.9,1.1,2.2,1.8,3.9,1.8
			C547.2,633.9,548.5,633.3,549.4,632.1z"/>
		<path class="st8" d="M560.6,636.3c-0.5-0.5-0.7-1.1-0.7-2v-14.6c0-0.7,0.2-1.3,0.7-1.7s1.1-0.6,1.7-0.6c0.7,0,1.2,0.2,1.7,0.6
			s0.7,0.9,0.7,1.6l-0.1,2c0.4-1.2,1-2.2,2-3s2.1-1.3,3.3-1.3c0.6,0,1.1,0.2,1.4,0.6c0.3,0.4,0.5,0.9,0.5,1.5c0,0.5-0.2,1-0.4,1.4
			c-0.3,0.4-0.7,0.6-1.2,0.6c-0.8,0-1.4,0.1-2,0.2c-0.6,0.1-1.2,0.3-1.7,0.7s-1,0.8-1.3,1.4c-0.3,0.6-0.4,1.4-0.4,2.3v8.2
			c0,0.8-0.2,1.5-0.7,2s-1.1,0.7-1.8,0.7C561.6,637,561.1,636.8,560.6,636.3z"/>
		<path class="st8" d="M575.5,612.7c-0.5-0.5-0.8-1.2-0.8-2s0.3-1.5,0.8-2s1.2-0.7,2.1-0.7c0.8,0,1.5,0.2,2.1,0.7
			c0.5,0.5,0.8,1.1,0.8,2s-0.3,1.5-0.8,2s-1.2,0.8-2.1,0.8S576,613.2,575.5,612.7z M575.8,636.3c-0.5-0.5-0.7-1.1-0.7-2v-14.1
			c0-0.9,0.2-1.5,0.7-2s1-0.7,1.8-0.7c0.7,0,1.3,0.2,1.8,0.7s0.7,1.2,0.7,2v14.1c0,0.9-0.2,1.5-0.7,2s-1.1,0.7-1.8,0.7
			S576.3,636.7,575.8,636.3z"/>
		<path class="st8" d="M586.5,636.2c-0.5-0.5-0.8-1.4-0.8-2.4v-22.1c0-0.8,0.3-1.5,0.8-2s1.3-0.8,2.1-0.8h7.9c6.7,0,10,2.3,10,7
			c0,1.7-0.4,3.2-1.3,4.3c-0.9,1.1-2.2,1.9-3.9,2.2v0.1c2,0.3,3.6,1,4.7,2.2c1.1,1.2,1.7,2.8,1.7,4.8c0,1-0.2,1.9-0.7,2.8
			c-0.4,0.9-1.1,1.7-1.9,2.4s-1.9,1.3-3.2,1.7s-2.8,0.6-4.4,0.6h-9C587.7,637,587,636.7,586.5,636.2z M595.6,620.7
			c2,0,3.5-0.3,4.3-0.9s1.3-1.7,1.3-3.3c0-0.6-0.1-1.1-0.2-1.6c-0.2-0.4-0.4-0.8-0.7-1s-0.6-0.5-1.1-0.6s-0.9-0.2-1.4-0.3
			s-1-0.1-1.7-0.1h-4.8v7.7L595.6,620.7L595.6,620.7z M596.2,632.9c1,0,1.9,0,2.5-0.1c0.7-0.1,1.2-0.3,1.8-0.6
			c0.5-0.3,0.9-0.7,1.2-1.3c0.2-0.6,0.4-1.3,0.4-2.1c0-0.7-0.1-1.3-0.3-1.9c-0.2-0.5-0.5-0.9-0.8-1.2c-0.4-0.3-0.8-0.5-1.5-0.7
			c-0.6-0.2-1.3-0.3-1.9-0.3s-1.5-0.1-2.5-0.1h-3.8v8.4h4.9L596.2,632.9L596.2,632.9z"/>
		<path class="st8" d="M612.8,635.7c-1.3-1-1.9-2.4-1.9-4.1c0-0.8,0.1-1.5,0.2-2.1c0.2-0.6,0.4-1.1,0.7-1.5s0.7-0.8,1.2-1.1
			s1.1-0.5,1.7-0.7c0.6-0.2,1.4-0.3,2.3-0.4s1.8-0.2,2.8-0.2s2.1,0,3.4,0V624c0-1.2-0.3-2.1-0.9-2.7c-0.6-0.6-1.4-0.8-2.6-0.8
			c-0.2,0-0.5,0-0.8,0s-0.5,0.1-0.8,0.1s-0.5,0.1-0.7,0.1s-0.4,0.1-0.7,0.2s-0.5,0.1-0.6,0.2c-0.1,0-0.4,0.1-0.6,0.2
			s-0.4,0.2-0.5,0.2s-0.3,0.1-0.5,0.2s-0.4,0.2-0.4,0.2c-0.1,0.1-0.3,0.1-0.5,0.1c-0.5,0-0.8-0.2-1.2-0.6c-0.3-0.4-0.5-0.8-0.5-1.3
			c0-0.6,0.3-1.1,0.9-1.4c2.2-1,4.6-1.5,7.2-1.5c1.2,0,2.3,0.1,3.2,0.4c1,0.3,1.8,0.7,2.5,1.3s1.3,1.3,1.7,2.3s0.6,2.1,0.6,3.5v9.9
			c0,0.8-0.2,1.4-0.7,1.8c-0.5,0.4-1,0.6-1.6,0.6s-1.2-0.2-1.7-0.6c-0.5-0.4-0.7-1-0.7-1.8V634c-0.4,1-1.1,1.8-2,2.4
			c-0.9,0.6-2.2,0.9-3.7,0.9C615.7,637.2,614.1,636.7,612.8,635.7z M621.7,632.6c1-1,1.5-2.3,1.5-3.9v-0.6c-1.3,0-2.3,0-3.1,0.1
			s-1.5,0.1-2.2,0.2s-1.2,0.3-1.5,0.5s-0.6,0.6-0.8,0.9c-0.2,0.4-0.3,0.9-0.3,1.5c0,0.9,0.3,1.6,0.8,2.1s1.2,0.7,2.1,0.7
			C619.6,634.1,620.7,633.6,621.7,632.6z"/>
		<path class="st8" d="M633.9,636.3c-0.5-0.5-0.7-1.1-0.7-2v-14.4c0-0.8,0.2-1.4,0.7-1.8s1.1-0.6,1.8-0.6s1.3,0.2,1.7,0.6
			c0.5,0.4,0.7,1,0.7,1.8v0.7c0.6-1.1,1.4-1.9,2.5-2.5s2.4-0.9,3.9-0.9c0.9,0,1.8,0.2,2.6,0.5s1.6,0.8,2.2,1.3
			c0.7,0.6,1.2,1.4,1.5,2.4c0.4,1,0.6,2.1,0.6,3.3v9.7c0,0.8-0.2,1.5-0.7,2s-1.1,0.7-1.8,0.7s-1.3-0.2-1.7-0.7
			c-0.5-0.5-0.7-1.1-0.7-2v-9.7c0-1.3-0.3-2.4-1-3.1c-0.7-0.7-1.6-1.1-2.7-1.1c-1.3,0-2.4,0.5-3.4,1.5s-1.4,2.4-1.4,4v8.3
			c0,0.8-0.2,1.5-0.7,2s-1.1,0.7-1.8,0.7C634.9,637,634.3,636.7,633.9,636.3z"/>
		<path class="st8" d="M657.2,636.3c-0.4-0.5-0.7-1.2-0.7-2v-22.7c0-0.9,0.2-1.5,0.7-2s1-0.7,1.8-0.7c0.7,0,1.3,0.2,1.8,0.7
			s0.7,1.2,0.7,2v14.3l8.1-8c0.4-0.5,0.9-0.7,1.4-0.7s1,0.2,1.5,0.7s0.6,1,0.6,1.6c0,0.5-0.2,1-0.5,1.3l-5.9,5.7l6.7,7
			c0.4,0.4,0.6,0.9,0.6,1.4c0,0.6-0.2,1.1-0.7,1.5s-1,0.7-1.6,0.7c-0.7,0-1.2-0.3-1.7-0.8l-8.5-9.1v7.1c0,0.9-0.2,1.5-0.7,2
			s-1.1,0.7-1.8,0.7C658.3,637,657.7,636.7,657.2,636.3z"/>
	</g>
	<g class="st9">
		<path class="st8" d="M492.6,706.8c0.1,0.2,0.2,0.4,0.2,0.7s-0.1,0.5-0.2,0.7s-0.3,0.3-0.6,0.3h-11.3v9.6c0,0.3-0.1,0.6-0.4,0.7
			c-0.2,0.1-0.5,0.2-0.8,0.2s-0.6-0.1-0.8-0.2s-0.4-0.4-0.4-0.7v-9.6h-11.4c-0.3,0-0.5-0.1-0.6-0.3s-0.2-0.4-0.2-0.7
			s0.1-0.5,0.2-0.7s0.3-0.3,0.6-0.3h25C492.3,706.5,492.5,706.6,492.6,706.8z M479.5,690.3c3.1,0,5.4,0.5,7.1,1.6s2.5,2.7,2.5,4.7
			s-0.8,3.6-2.5,4.7c-1.7,1.1-4,1.6-7.1,1.6s-5.4-0.5-7.1-1.6s-2.5-2.7-2.5-4.7s0.8-3.6,2.5-4.7
			C474.1,690.9,476.4,690.3,479.5,690.3z M479.5,692.4c-2.5,0-4.3,0.4-5.4,1.2c-1.2,0.8-1.8,1.8-1.8,3.2s0.6,2.4,1.8,3.2
			c1.2,0.8,3,1.2,5.4,1.2c2.5,0,4.3-0.4,5.4-1.2c1.2-0.8,1.8-1.8,1.8-3.2s-0.6-2.4-1.8-3.2C483.7,692.7,481.9,692.4,479.5,692.4z"/>
		<path class="st8" d="M509.6,692c0.3,0.3,0.5,0.9,0.5,1.7v5.9c0,0.8-0.2,1.4-0.5,1.7s-0.9,0.5-1.7,0.5h-7.7c-0.4,0-0.6,0.2-0.6,0.6
			v5.3c0,0.4,0.2,0.6,0.6,0.6c2.5,0,4.8-0.1,6.8-0.2c2-0.1,4-0.3,5.9-0.6c0.3,0,0.5,0,0.6,0.2c0.2,0.2,0.3,0.4,0.3,0.7
			s0,0.6-0.1,0.8s-0.3,0.4-0.6,0.4c-0.8,0.1-1.7,0.2-2.6,0.3s-1.9,0.2-3.1,0.2c-1.1,0.1-2.3,0.1-3.6,0.1c-1.3,0-2.8,0-4.4,0
			c-0.8,0-1.4-0.2-1.7-0.5c-0.3-0.3-0.5-0.9-0.5-1.7v-6.1c0-0.8,0.2-1.4,0.5-1.7s0.9-0.5,1.7-0.5h7.7c0.4,0,0.6-0.2,0.6-0.6V694
			c0-0.4-0.2-0.6-0.6-0.6H498c-0.3,0-0.5-0.1-0.6-0.3s-0.2-0.4-0.2-0.7s0.1-0.5,0.2-0.7s0.3-0.3,0.6-0.3h9.8
			C508.7,691.5,509.2,691.6,509.6,692z M517.8,689.5c0.3,0,0.6,0.1,0.8,0.2c0.2,0.1,0.4,0.4,0.4,0.7v25.5c0,0.3-0.1,0.6-0.4,0.7
			c-0.2,0.1-0.5,0.2-0.8,0.2s-0.6-0.1-0.8-0.2c-0.2-0.1-0.4-0.4-0.4-0.7v-25.5c0-0.3,0.1-0.6,0.4-0.7S517.5,689.5,517.8,689.5z"/>
		<path class="st8" d="M550.9,705.2c0.1,0.2,0.2,0.4,0.2,0.7s-0.1,0.5-0.2,0.7c-0.1,0.2-0.3,0.3-0.6,0.3h-25c-0.3,0-0.5-0.1-0.6-0.3
			s-0.2-0.4-0.2-0.7s0.1-0.5,0.2-0.7c0.1-0.2,0.3-0.3,0.6-0.3h25C550.5,704.9,550.7,705,550.9,705.2z M529.4,709.6
			c0.3,0,0.6,0.1,0.8,0.2c0.2,0.1,0.4,0.4,0.4,0.7v5.2c0,0.4,0.2,0.6,0.6,0.6h15.9c0.3,0,0.5,0.1,0.6,0.3s0.2,0.4,0.2,0.7
			s-0.1,0.5-0.2,0.7c-0.1,0.2-0.3,0.3-0.6,0.3h-16.6c-0.8,0-1.4-0.2-1.7-0.5s-0.5-0.9-0.5-1.7v-5.7c0-0.3,0.1-0.6,0.4-0.7
			S529,709.6,529.4,709.6z M537.7,690.2c3,0,5.4,0.5,7,1.4c1.6,1,2.4,2.4,2.4,4.3c0,1.9-0.8,3.3-2.4,4.3c-1.6,1-4,1.4-7,1.4
			c-3.1,0-5.4-0.5-7-1.4s-2.4-2.4-2.4-4.3c0-1.9,0.8-3.3,2.4-4.3C532.3,690.7,534.7,690.2,537.7,690.2z M537.7,692.2
			c-2.5,0-4.3,0.3-5.4,1c-1.1,0.7-1.7,1.6-1.7,2.8s0.6,2.1,1.7,2.8c1.1,0.7,3,1,5.4,1c2.5,0,4.3-0.3,5.4-1c1.2-0.7,1.7-1.6,1.7-2.8
			s-0.6-2.1-1.7-2.8S540.2,692.2,537.7,692.2z"/>
		<path class="st8" d="M560.8,689.3c0.3,0,0.6,0.1,0.8,0.2c0.2,0.1,0.4,0.4,0.4,0.7v2.5h5.2c0.3,0,0.5,0.1,0.6,0.3s0.2,0.4,0.2,0.7
			s-0.1,0.5-0.2,0.7c-0.1,0.2-0.3,0.3-0.6,0.3H554c-0.3,0-0.5-0.1-0.6-0.3s-0.2-0.4-0.2-0.7s0.1-0.5,0.2-0.7
			c0.1-0.2,0.3-0.3,0.6-0.3h5.6v-2.5c0-0.3,0.1-0.6,0.4-0.7C560.2,689.4,560.5,689.3,560.8,689.3z M560.8,696.9
			c1.9,0,3.4,0.5,4.4,1.4s1.5,2.1,1.5,3.6s-0.5,2.7-1.5,3.6c-1,0.9-2.5,1.4-4.4,1.4s-3.3-0.5-4.4-1.4c-1-0.9-1.5-2.1-1.5-3.6
			s0.5-2.7,1.5-3.6C557.4,697.4,558.9,696.9,560.8,696.9z M560.8,698.8c-1.2,0-2.1,0.3-2.8,0.8c-0.7,0.6-1,1.3-1,2.3s0.3,1.7,1,2.3
			s1.6,0.8,2.8,0.8s2.2-0.3,2.8-0.8c0.7-0.6,1-1.3,1-2.3s-0.3-1.7-1-2.3C562.9,699.1,562,698.8,560.8,698.8z M568.8,708.6
			c3,0,5.3,0.4,6.9,1.3s2.4,2.2,2.4,3.9c0,1.8-0.8,3.1-2.4,4s-3.9,1.3-6.9,1.3s-5.3-0.4-6.9-1.3c-1.6-0.9-2.4-2.2-2.4-4
			c0-1.7,0.8-3.1,2.4-3.9C563.4,709,565.7,708.6,568.8,708.6z M568.8,710.5c-2.4,0-4.2,0.3-5.3,0.9c-1.1,0.6-1.7,1.4-1.7,2.4
			c0,1.1,0.6,1.9,1.7,2.5c1.1,0.6,2.9,0.9,5.3,0.9c2.4,0,4.2-0.3,5.3-0.9c1.1-0.6,1.7-1.4,1.7-2.5c0-1-0.6-1.9-1.7-2.4
			C572.9,710.8,571.2,710.5,568.8,710.5z M577,689.5c0.3,0,0.6,0.1,0.8,0.2s0.3,0.4,0.3,0.7v17c0,0.3-0.1,0.5-0.3,0.7
			s-0.5,0.2-0.8,0.2s-0.5-0.1-0.8-0.2c-0.2-0.1-0.3-0.4-0.3-0.7v-8h-4.2v6.7c0,0.3-0.1,0.5-0.3,0.7c-0.2,0.1-0.5,0.2-0.8,0.2
			s-0.5-0.1-0.8-0.2c-0.2-0.1-0.3-0.4-0.3-0.7v-15.5c0-0.3,0.1-0.6,0.3-0.7c0.2-0.1,0.5-0.2,0.8-0.2s0.6,0.1,0.8,0.2
			c0.2,0.1,0.3,0.4,0.3,0.7v6.8h4.2v-7c0-0.3,0.1-0.6,0.3-0.7C576.5,689.5,576.8,689.5,577,689.5z"/>
		<path class="st8" d="M604.5,692.3c0.1,0.2,0.2,0.4,0.2,0.7s-0.1,0.5-0.2,0.7c-0.1,0.2-0.3,0.3-0.6,0.3h-4.7v3.8
			c0,0.7,0,1.3,0.1,1.8s0.2,1,0.3,1.5s0.4,0.9,0.6,1.3c0.3,0.4,0.6,0.9,1,1.3c0.6,0.7,1.2,1.4,1.8,2.1c0.6,0.6,1.1,1.2,1.6,1.7
			c0.2,0.2,0.3,0.5,0.3,0.7c0,0.3-0.1,0.5-0.4,0.7c-0.2,0.2-0.4,0.3-0.7,0.3s-0.5-0.1-0.8-0.3c-0.3-0.3-0.8-0.8-1.3-1.4
			s-1.1-1.2-1.6-1.9c-0.8-0.9-1.3-1.6-1.6-2.1s-0.5-0.9-0.5-1.3l0,0c-0.1,0.4-0.2,0.8-0.5,1.3s-0.8,1.2-1.6,2.1
			c-0.6,0.7-1.1,1.3-1.7,1.9c-0.6,0.6-1.2,1.2-1.7,1.8c-0.2,0.2-0.5,0.3-0.8,0.3s-0.5-0.1-0.7-0.3s-0.3-0.5-0.4-0.7s0.1-0.5,0.3-0.8
			c0.6-0.7,1.3-1.3,2-2s1.3-1.4,1.9-2.2c0.4-0.4,0.7-0.9,1-1.3c0.3-0.4,0.5-0.9,0.6-1.3s0.3-1,0.4-1.5c0.1-0.5,0.1-1.2,0.1-1.8V694
			h-5c-0.3,0-0.5-0.1-0.6-0.3s-0.2-0.4-0.2-0.7s0.1-0.5,0.2-0.7c0.1-0.2,0.3-0.3,0.6-0.3h12C604.2,692,604.4,692.1,604.5,692.3z
			 M608.5,689.8c0.3,0,0.5,0.1,0.8,0.2c0.2,0.1,0.3,0.4,0.3,0.7v23.9c0,0.3-0.1,0.6-0.3,0.7c-0.2,0.1-0.5,0.2-0.8,0.2
			s-0.6-0.1-0.8-0.2c-0.2-0.1-0.3-0.4-0.3-0.7v-13.5h-3.9c-0.3,0-0.5-0.1-0.6-0.3s-0.2-0.5-0.2-0.8s0.1-0.5,0.2-0.7
			c0.1-0.2,0.3-0.3,0.6-0.3h3.9v-8.3c0-0.3,0.1-0.6,0.3-0.7C608,689.9,608.2,689.8,608.5,689.8z M614.2,689.5c0.3,0,0.6,0.1,0.8,0.2
			c0.2,0.1,0.3,0.4,0.3,0.7v25.5c0,0.3-0.1,0.6-0.3,0.7c-0.2,0.1-0.5,0.2-0.8,0.2s-0.5-0.1-0.8-0.2c-0.2-0.1-0.3-0.4-0.3-0.7v-25.5
			c0-0.3,0.1-0.6,0.3-0.7C613.6,689.5,613.9,689.5,614.2,689.5z"/>
		<path class="st8" d="M634.3,711.9h11.3c0.3,0,0.5,0.1,0.6,0.3s0.2,0.4,0.2,0.7s-0.1,0.5-0.2,0.7c-0.1,0.2-0.3,0.3-0.6,0.3h-25
			c-0.3,0-0.5-0.1-0.6-0.3s-0.2-0.4-0.2-0.7s0.1-0.5,0.2-0.7c0.1-0.2,0.3-0.3,0.6-0.3H632v-6.8h2.3V711.9z M642,691.7
			c0.3,0.3,0.5,0.9,0.5,1.7v4.2c0,0.8-0.2,1.4-0.5,1.7s-0.9,0.5-1.7,0.5h-13.7c-0.4,0-0.6,0.2-0.6,0.6v3.4c0,0.4,0.2,0.6,0.6,0.6
			h15.9c0.3,0,0.5,0.1,0.6,0.3s0.2,0.4,0.2,0.7s-0.1,0.5-0.2,0.7c-0.1,0.2-0.3,0.3-0.6,0.3h-16.6c-0.8,0-1.4-0.2-1.7-0.5
			s-0.5-0.9-0.5-1.7V700c0-0.8,0.2-1.4,0.5-1.7s0.9-0.5,1.7-0.5h13.8c0.4,0,0.6-0.2,0.6-0.6v-3.3c0-0.4-0.2-0.6-0.6-0.6h-15.2
			c-0.3,0-0.5-0.1-0.6-0.3s-0.2-0.4-0.2-0.7s0.1-0.5,0.2-0.7s0.3-0.3,0.6-0.3h15.8C641.1,691.2,641.7,691.4,642,691.7z"/>
		<path class="st8" d="M662.3,692.1c0.3,0,0.5,0.1,0.6,0.3s0.2,0.4,0.2,0.7s-0.1,0.5-0.2,0.7c-0.1,0.2-0.3,0.3-0.6,0.3h-2v13.2
			c0.9-0.1,1.7-0.2,2.5-0.3c0.2,0,0.4,0,0.6,0.2c0.2,0.2,0.3,0.4,0.3,0.7s0,0.6-0.1,0.8s-0.3,0.3-0.5,0.4c-0.9,0.1-1.8,0.2-2.8,0.3
			s-2,0.1-3.1,0.2c-1.1,0-2.2,0.1-3.5,0.1s-2.6,0-4.1,0c-0.3,0-0.5-0.1-0.6-0.3s-0.2-0.4-0.2-0.7s0.1-0.5,0.2-0.7
			c0.1-0.2,0.3-0.3,0.6-0.3h2.1V694h-1.9c-0.3,0-0.5-0.1-0.6-0.3s-0.2-0.4-0.2-0.7s0.1-0.5,0.2-0.7c0.1-0.2,0.3-0.3,0.6-0.3
			L662.3,692.1L662.3,692.1z M653.9,707.5c0.7,0,1.5,0,2.2-0.1c0.7,0,1.4-0.1,2.1-0.1V694h-4.3V707.5z M667,689.7
			c0.3,0,0.5,0.1,0.8,0.2c0.2,0.1,0.3,0.4,0.3,0.7v24c0,0.3-0.1,0.6-0.3,0.7c-0.2,0.1-0.5,0.2-0.8,0.2s-0.5-0.1-0.8-0.2
			c-0.2-0.1-0.3-0.4-0.3-0.7v-13.2H663c-0.3,0-0.5-0.1-0.6-0.3s-0.2-0.4-0.2-0.7s0.1-0.5,0.2-0.7c0.1-0.2,0.3-0.3,0.6-0.3h2.9v-8.7
			c0-0.3,0.1-0.6,0.3-0.7C666.5,689.8,666.7,689.7,667,689.7z M672.4,689.5c0.3,0,0.6,0.1,0.8,0.2c0.2,0.1,0.3,0.4,0.3,0.7v25.5
			c0,0.3-0.1,0.6-0.3,0.7c-0.2,0.1-0.5,0.2-0.8,0.2s-0.5-0.1-0.8-0.2c-0.2-0.1-0.3-0.4-0.3-0.7v-25.5c0-0.3,0.1-0.6,0.3-0.7
			C671.9,689.5,672.1,689.5,672.4,689.5z"/>
		<path class="st8" d="M686.5,691.2c2.4,0,4.2,0.8,5.4,2.4c1.2,1.6,1.8,3.9,1.8,7s-0.6,5.4-1.8,7s-3,2.4-5.4,2.4s-4.2-0.8-5.5-2.4
			c-1.2-1.6-1.8-3.9-1.8-7c0-3,0.6-5.4,1.8-7C682.3,692,684.1,691.2,686.5,691.2z M686.5,693.2c-1.8,0-3,0.6-3.8,1.9
			s-1.2,3.1-1.2,5.4c0,2.3,0.4,4.1,1.2,5.4s2.1,1.9,3.8,1.9s3-0.6,3.8-1.9s1.2-3.1,1.2-5.4c0-2.3-0.4-4.1-1.2-5.4
			S688.3,693.2,686.5,693.2z M700.5,689.5c0.3,0,0.6,0.1,0.8,0.2s0.4,0.4,0.4,0.7v25.5c0,0.3-0.1,0.6-0.4,0.7
			c-0.2,0.1-0.5,0.2-0.8,0.2s-0.6-0.1-0.8-0.2c-0.2-0.1-0.4-0.4-0.4-0.7v-25.5c0-0.3,0.1-0.6,0.4-0.7S700.2,689.5,700.5,689.5z"/>
	</g>
	<g class="st9">
		<path class="st8" d="M481.7,735.9c0.1,0.2,0.2,0.4,0.2,0.7s-0.1,0.5-0.2,0.7s-0.3,0.3-0.6,0.3h-10c-0.4,0-0.6,0.2-0.6,0.6v12.6
			c0,0.4,0.2,0.6,0.6,0.6c1.3,0,2.4,0,3.6,0s2.2-0.1,3.2-0.1c1-0.1,2-0.1,3-0.2c1-0.1,1.9-0.2,2.9-0.3c0.3,0,0.5,0,0.6,0.2
			s0.3,0.4,0.3,0.7s0,0.6-0.1,0.8s-0.3,0.4-0.6,0.4c-0.8,0.1-1.7,0.2-2.6,0.3s-1.9,0.2-3.1,0.2c-1.1,0.1-2.3,0.1-3.6,0.1
			s-2.8,0-4.4,0c-0.8,0-1.4-0.2-1.7-0.5c-0.3-0.3-0.5-0.9-0.5-1.7v-13.6c0-0.8,0.2-1.4,0.5-1.7s0.9-0.5,1.7-0.5H481
			C481.3,735.6,481.5,735.7,481.7,735.9z M488.7,733.5c0.3,0,0.6,0.1,0.8,0.2s0.4,0.4,0.4,0.7v25.5c0,0.3-0.1,0.6-0.4,0.7
			c-0.2,0.1-0.5,0.2-0.8,0.2s-0.6-0.1-0.8-0.2c-0.2-0.1-0.4-0.4-0.4-0.7v-25.5c0-0.3,0.1-0.6,0.4-0.7
			C488.1,733.5,488.4,733.5,488.7,733.5z"/>
		<path class="st8" d="M511.7,736.1c0.1,0.2,0.2,0.4,0.2,0.7s-0.1,0.5-0.2,0.7s-0.3,0.3-0.6,0.3h-5.9v3.6c0,0.7,0,1.3,0.1,1.9
			c0.1,0.6,0.2,1.1,0.4,1.6c0.2,0.5,0.5,1,0.8,1.4c0.3,0.5,0.8,1,1.3,1.5c0.7,0.7,1.4,1.4,2.1,2.1s1.3,1.3,1.9,1.7
			c0.2,0.2,0.3,0.5,0.3,0.8s-0.1,0.5-0.3,0.7c-0.2,0.2-0.5,0.3-0.7,0.4c-0.3,0.1-0.5,0-0.8-0.3c-0.5-0.4-1.1-1-1.7-1.6s-1.3-1.3-2-2
			c-0.5-0.5-0.9-0.9-1.2-1.3c-0.3-0.4-0.6-0.7-0.7-1s-0.3-0.5-0.4-0.7s-0.1-0.4-0.2-0.6l0,0c0,0.2-0.1,0.4-0.2,0.6
			c-0.1,0.2-0.2,0.4-0.4,0.7c-0.2,0.3-0.4,0.6-0.8,1c-0.3,0.4-0.7,0.8-1.2,1.3c-0.7,0.7-1.4,1.4-2.1,2s-1.4,1.3-2.1,1.9
			c-0.3,0.2-0.5,0.3-0.8,0.3c-0.3-0.1-0.5-0.2-0.7-0.4s-0.3-0.5-0.3-0.8s0.1-0.5,0.3-0.7c0.8-0.7,1.6-1.4,2.3-2.1s1.5-1.4,2.2-2.1
			c0.5-0.5,0.9-1,1.3-1.5c0.3-0.5,0.6-0.9,0.8-1.4c0.2-0.5,0.3-1,0.4-1.6s0.1-1.2,0.1-1.9v-3.6h-6c-0.3,0-0.5-0.1-0.6-0.3
			s-0.2-0.4-0.2-0.7s0.1-0.5,0.2-0.7s0.3-0.3,0.6-0.3h14.3C511.4,735.8,511.6,735.9,511.7,736.1z M516.4,733.5
			c0.3,0,0.6,0.1,0.8,0.2c0.2,0.1,0.4,0.4,0.4,0.7v8.9h4.1c0.3,0,0.5,0.1,0.6,0.3s0.2,0.4,0.2,0.7s-0.1,0.5-0.2,0.8
			c-0.1,0.2-0.3,0.3-0.6,0.3h-4.1v14.5c0,0.3-0.1,0.6-0.4,0.7c-0.2,0.1-0.5,0.2-0.8,0.2s-0.6-0.1-0.8-0.2c-0.2-0.1-0.4-0.4-0.4-0.7
			v-25.5c0-0.3,0.1-0.6,0.4-0.7S516.1,733.5,516.4,733.5z"/>
		<path class="st8" d="M532.9,734.9c1.2,0,2.3,0.2,3.2,0.6c0.9,0.4,1.7,0.9,2.3,1.6s1,1.4,1.3,2.3c0.3,0.9,0.4,1.8,0.4,2.8
			s-0.1,1.9-0.4,2.8c-0.3,0.9-0.7,1.7-1.3,2.3c-0.6,0.7-1.3,1.2-2.3,1.5c-0.9,0.4-2,0.6-3.2,0.6s-2.3-0.2-3.2-0.6
			c-0.9-0.4-1.7-0.9-2.3-1.5c-0.6-0.7-1-1.4-1.3-2.3c-0.3-0.9-0.4-1.8-0.4-2.8s0.1-2,0.4-2.8s0.7-1.6,1.3-2.3s1.3-1.2,2.3-1.6
			C530.6,735.1,531.7,734.9,532.9,734.9z M532.9,737c-0.9,0-1.7,0.1-2.3,0.4s-1.1,0.7-1.5,1.2s-0.7,1-0.9,1.7
			c-0.2,0.6-0.3,1.3-0.3,2s0.1,1.4,0.3,2s0.5,1.2,0.9,1.7s0.9,0.9,1.5,1.1c0.6,0.3,1.4,0.4,2.3,0.4c0.9,0,1.7-0.1,2.3-0.4
			c0.6-0.3,1.1-0.7,1.5-1.1c0.4-0.5,0.7-1,0.9-1.7c0.2-0.6,0.3-1.3,0.3-2s-0.1-1.4-0.3-2s-0.5-1.2-0.9-1.7s-0.9-0.9-1.5-1.2
			C534.6,737.1,533.8,737,532.9,737z M531.2,752.4c0.3,0,0.6,0.1,0.8,0.2c0.2,0.1,0.4,0.4,0.4,0.7v6.3c0,0.4,0.2,0.6,0.6,0.6h15.2
			c0.3,0,0.5,0.1,0.6,0.3s0.2,0.4,0.2,0.7s-0.1,0.5-0.2,0.7c-0.1,0.2-0.3,0.3-0.6,0.3h-15.9c-0.8,0-1.4-0.2-1.7-0.5
			s-0.5-0.9-0.5-1.7v-6.8c0-0.3,0.1-0.6,0.4-0.7C530.6,752.5,530.9,752.4,531.2,752.4z M547,733.5c0.3,0,0.6,0.1,0.8,0.2
			c0.2,0.1,0.4,0.4,0.4,0.7V754c0,0.3-0.1,0.6-0.4,0.7c-0.2,0.1-0.5,0.2-0.8,0.2s-0.6-0.1-0.8-0.2c-0.2-0.1-0.4-0.4-0.4-0.7v-19.5
			c0-0.3,0.1-0.6,0.4-0.7S546.7,733.5,547,733.5z"/>
		<path class="st8" d="M574.5,735c0.8,0,1.4,0.2,1.7,0.5s0.5,0.9,0.5,1.7v8.4c0,0.8-0.2,1.4-0.5,1.7s-0.9,0.5-1.7,0.5h-8.9
			c-0.8,0-1.4-0.2-1.7-0.5s-0.5-0.9-0.5-1.7v-8.4c0-0.8,0.2-1.4,0.5-1.7s0.9-0.5,1.7-0.5H574.5z M566.3,737c-0.4,0-0.6,0.2-0.6,0.6
			v7.5c0,0.4,0.2,0.6,0.6,0.6h7.5c0.4,0,0.6-0.2,0.6-0.6v-7.5c0-0.4-0.2-0.6-0.6-0.6H566.3z M576.1,749.4c0.3,0,0.6,0.1,0.8,0.2
			c0.2,0.1,0.4,0.4,0.4,0.7v2.3h8c0.3,0,0.4,0.1,0.6,0.3s0.2,0.4,0.2,0.6c0,0.3-0.1,0.5-0.2,0.7c-0.1,0.2-0.3,0.3-0.6,0.3h-8v0.6
			c0,0.4,0,0.7,0.1,1.1c0.1,0.3,0.3,0.6,0.5,0.9c0.2,0.3,0.5,0.5,0.9,0.8s0.9,0.5,1.5,0.8c0.9,0.4,1.8,0.7,2.7,1s1.8,0.7,2.8,1
			c0.3,0.1,0.4,0.3,0.5,0.5s0.1,0.4,0,0.7c-0.1,0.2-0.2,0.4-0.4,0.6c-0.2,0.1-0.4,0.2-0.7,0c-0.9-0.3-1.8-0.6-2.7-0.9
			s-1.7-0.7-2.5-1c-1.2-0.4-2.1-0.9-2.7-1.4c-0.7-0.5-1.1-0.9-1.2-1.4l0,0c-0.3,1-1.7,1.9-3.9,2.8c-0.8,0.3-1.6,0.7-2.5,1
			s-1.7,0.6-2.7,0.9c-0.3,0.1-0.5,0.1-0.7,0s-0.3-0.3-0.4-0.6c-0.1-0.3-0.1-0.5,0-0.7s0.3-0.4,0.5-0.5c1-0.3,1.9-0.6,2.8-1
			c0.9-0.3,1.8-0.7,2.6-1c0.6-0.3,1.1-0.5,1.5-0.8s0.7-0.5,1-0.8c0.2-0.3,0.4-0.6,0.5-0.9c0.1-0.3,0.1-0.7,0.1-1.1v-0.6h-8.2
			c-0.3,0-0.4-0.1-0.6-0.3c-0.1-0.2-0.2-0.4-0.2-0.7c0-0.2,0.1-0.4,0.2-0.6c0.1-0.2,0.3-0.3,0.6-0.3h8.2v-2.3c0-0.3,0.1-0.6,0.4-0.7
			C575.6,749.5,575.8,749.4,576.1,749.4z M584.1,733.5c0.3,0,0.6,0.1,0.8,0.2s0.4,0.4,0.4,0.7V749c0,0.3-0.1,0.6-0.4,0.7
			s-0.5,0.2-0.8,0.2s-0.6-0.1-0.8-0.2c-0.2-0.1-0.4-0.4-0.4-0.7v-14.6c0-0.3,0.1-0.6,0.4-0.7C583.5,733.5,583.8,733.5,584.1,733.5z"
			/>
		<path class="st8" d="M612.8,736.2c0.3,0.3,0.5,0.9,0.5,1.7v3.6c0,0.9-0.1,1.7-0.2,2.4c-0.1,0.7-0.3,1.4-0.6,2s-0.7,1.2-1.3,1.8
			c-0.5,0.6-1.2,1.2-2.1,1.9c-0.9,0.7-1.9,1.4-3.1,2.2c-1.2,0.8-2.6,1.7-4.3,2.7c-0.2,0.1-0.5,0.2-0.8,0.1c-0.3-0.1-0.5-0.2-0.7-0.5
			c-0.2-0.2-0.2-0.5-0.2-0.8s0.2-0.5,0.4-0.7c2.3-1.4,4.2-2.6,5.6-3.5c1.4-0.9,2.4-1.8,3.2-2.6c0.7-0.8,1.2-1.6,1.4-2.3
			c0.2-0.8,0.3-1.7,0.3-2.8v-3c0-0.4-0.2-0.6-0.6-0.6h-9c-0.3,0-0.5-0.1-0.6-0.3s-0.2-0.4-0.2-0.7s0.1-0.5,0.2-0.7
			c0.1-0.2,0.3-0.3,0.6-0.3h9.8C612,735.7,612.5,735.9,612.8,736.2z M621.2,733.5c0.3,0,0.6,0.1,0.8,0.2s0.4,0.4,0.4,0.7v25.5
			c0,0.3-0.1,0.6-0.4,0.7c-0.2,0.1-0.5,0.2-0.8,0.2s-0.6-0.1-0.8-0.2c-0.2-0.1-0.4-0.4-0.4-0.7v-25.5c0-0.3,0.1-0.6,0.4-0.7
			C620.6,733.5,620.9,733.5,621.2,733.5z"/>
		<path class="st8" d="M639,750.5c1.3,0,2.5-0.1,3.8-0.2c1.3-0.1,2.6-0.2,4-0.3c0.3,0,0.5,0,0.6,0.2s0.2,0.4,0.3,0.7
			c0,0.3,0,0.5-0.1,0.7s-0.3,0.3-0.5,0.4c-2.9,0.2-5.8,0.4-8.8,0.5c-2.9,0.1-6,0.2-9.3,0.2c-0.3,0-0.5-0.1-0.6-0.3s-0.2-0.4-0.2-0.7
			s0.1-0.5,0.2-0.7c0.1-0.2,0.3-0.3,0.6-0.3c1.3,0,2.7,0,3.9,0s2.5,0,3.8-0.1V747h2.3V750.5z M637.8,732.9c0.3,0,0.6,0.1,0.8,0.2
			c0.2,0.1,0.4,0.4,0.4,0.7v2.1h6.6c0.3,0,0.5,0.1,0.6,0.3s0.2,0.4,0.2,0.7s-0.1,0.5-0.2,0.7c-0.1,0.2-0.3,0.3-0.6,0.3h-15.7
			c-0.3,0-0.5-0.1-0.6-0.3s-0.2-0.4-0.2-0.7s0.1-0.5,0.2-0.7c0.1-0.2,0.3-0.3,0.6-0.3h6.8v-2.1c0-0.3,0.1-0.6,0.4-0.7
			S637.5,732.9,637.8,732.9z M637.8,739.7c2.1,0,3.8,0.4,4.9,1.1c1.2,0.7,1.7,1.7,1.7,3s-0.6,2.3-1.7,3c-1.2,0.7-2.8,1.1-4.9,1.1
			c-2.1,0-3.8-0.4-4.9-1.1c-1.2-0.7-1.7-1.7-1.7-3s0.6-2.3,1.7-3C634.1,740.1,635.7,739.7,637.8,739.7z M651.6,755.5
			c0.3,0.3,0.5,0.9,0.5,1.7v4.9c0,0.3-0.1,0.6-0.4,0.7c-0.2,0.1-0.5,0.2-0.8,0.2s-0.6-0.1-0.8-0.2c-0.2-0.1-0.4-0.4-0.4-0.7v-4.5
			c0-0.4-0.2-0.6-0.6-0.6h-15.7c-0.3,0-0.4-0.1-0.6-0.3c-0.1-0.2-0.2-0.4-0.2-0.7s0.1-0.5,0.2-0.7c0.1-0.2,0.3-0.3,0.6-0.3h16.4
			C650.7,755,651.2,755.2,651.6,755.5z M637.8,741.5c-1.5,0-2.7,0.2-3.4,0.6c-0.7,0.4-1.1,1-1.1,1.7s0.4,1.2,1.1,1.7
			c0.7,0.4,1.9,0.6,3.4,0.6s2.7-0.2,3.4-0.6c0.7-0.4,1.1-1,1.1-1.7s-0.4-1.2-1.1-1.7C640.5,741.7,639.4,741.5,637.8,741.5z
			 M650.9,733.5c0.3,0,0.6,0.1,0.8,0.2s0.4,0.4,0.4,0.7v18c0,0.3-0.1,0.6-0.4,0.7s-0.5,0.2-0.8,0.2s-0.6-0.1-0.8-0.2
			c-0.2-0.1-0.4-0.4-0.4-0.7v-18c0-0.3,0.1-0.6,0.4-0.7C650.3,733.5,650.6,733.5,650.9,733.5z"/>
		<path class="st8" d="M659.8,755.5c0.4,0.1,0.7,0.2,0.9,0.5s0.2,0.6,0.1,1.1l-1.6,5.2c-0.1,0.3-0.3,0.5-0.5,0.7
			c-0.2,0.1-0.5,0.2-0.7,0.1c-0.6-0.1-0.8-0.4-0.7-1.1l0.9-5.4c0.1-0.4,0.3-0.8,0.6-0.9C659,755.5,659.4,755.4,659.8,755.5z"/>
		<path class="st8" d="M686.4,735.8c0.3,0.3,0.5,0.9,0.5,1.7v3.8c0,1.2-0.1,2.1-0.4,2.9c-0.3,0.8-0.8,1.5-1.6,2.2s-2,1.4-3.5,2.2
			s-3.5,1.7-6,2.7c-0.3,0.1-0.5,0.1-0.8,0s-0.5-0.3-0.6-0.5s-0.2-0.5-0.1-0.8s0.2-0.5,0.5-0.6c1.9-0.8,3.5-1.5,4.8-2.1
			c1.2-0.6,2.3-1.1,3-1.6c0.8-0.5,1.3-0.9,1.6-1.3c0.3-0.4,0.5-0.9,0.7-1.4l-10.1,0.5c-0.3,0-0.5-0.1-0.7-0.3
			c-0.1-0.2-0.2-0.4-0.2-0.7s0-0.5,0.2-0.7c0.1-0.2,0.3-0.3,0.6-0.3l10.4-0.4V738c0-0.4-0.2-0.6-0.6-0.6h-8.9
			c-0.3,0-0.5-0.1-0.6-0.3s-0.2-0.4-0.2-0.7s0.1-0.5,0.2-0.7c0.1-0.2,0.3-0.3,0.6-0.3h9.6C685.5,735.4,686.1,735.5,686.4,735.8z
			 M679.1,752.6c0.3,0,0.6,0.1,0.8,0.2c0.2,0.1,0.4,0.4,0.4,0.7v6.1c0,0.4,0.2,0.6,0.6,0.6h15.3c0.3,0,0.5,0.1,0.6,0.3
			s0.2,0.4,0.2,0.7s-0.1,0.5-0.2,0.7c-0.1,0.2-0.3,0.3-0.6,0.3h-16.1c-0.8,0-1.4-0.2-1.7-0.5s-0.5-0.9-0.5-1.7v-6.6
			c0-0.3,0.1-0.6,0.4-0.7C678.5,752.7,678.8,752.6,679.1,752.6z M695,733.5c0.3,0,0.6,0.1,0.8,0.2c0.2,0.1,0.4,0.4,0.4,0.7V754
			c0,0.3-0.1,0.6-0.4,0.7c-0.2,0.1-0.5,0.2-0.8,0.2s-0.6-0.1-0.8-0.2c-0.2-0.1-0.4-0.4-0.4-0.7v-10.7h-7.9v-2h7.9v-6.8
			c0-0.3,0.1-0.6,0.4-0.7C694.5,733.5,694.7,733.5,695,733.5z"/>
		<path class="st8" d="M713.8,735.7c0.1,0.2,0.2,0.4,0.2,0.7s-0.1,0.5-0.2,0.7c-0.1,0.2-0.3,0.3-0.6,0.3h-7.9c-0.2,0-0.4,0-0.5,0.1
			s-0.1,0.2-0.1,0.5v3.8h7c0.3,0,0.5,0.1,0.6,0.3s0.2,0.4,0.2,0.7s-0.1,0.5-0.2,0.7c-0.1,0.2-0.3,0.3-0.6,0.3h-7v3.9
			c0,0.2,0,0.4,0.1,0.5s0.3,0.1,0.5,0.1c0.8,0,1.6,0,2.4,0s1.7-0.1,2.5-0.1c0.8-0.1,1.6-0.1,2.3-0.2c0.7-0.1,1.4-0.1,2-0.3
			c0.2,0,0.4,0,0.6,0.2s0.3,0.4,0.3,0.7s0,0.5-0.1,0.8c-0.1,0.2-0.3,0.4-0.6,0.4c-1,0.2-2.3,0.3-4.1,0.4c-1.8,0.1-3.8,0.2-6,0.2
			c-0.8,0-1.4-0.2-1.7-0.5s-0.5-0.9-0.5-1.7v-10.5c0-0.8,0.2-1.4,0.5-1.7s0.9-0.5,1.7-0.5h8.6C713.4,735.4,713.6,735.5,713.8,735.7z
			 M708.3,753.1c0.3,0,0.6,0.1,0.8,0.2s0.4,0.4,0.4,0.7v5.6c0,0.4,0.2,0.6,0.6,0.6h16c0.3,0,0.5,0.1,0.6,0.3s0.2,0.4,0.2,0.7
			s-0.1,0.5-0.2,0.7c-0.1,0.2-0.3,0.3-0.6,0.3h-16.8c-0.8,0-1.4-0.2-1.7-0.5s-0.5-0.9-0.5-1.7v-6c0-0.3,0.1-0.6,0.4-0.7
			S708,753.1,708.3,753.1z M719.3,733.6c0.3,0,0.5,0.1,0.8,0.2s0.3,0.4,0.3,0.7v18.1c0,0.3-0.1,0.6-0.3,0.7
			c-0.2,0.1-0.5,0.2-0.8,0.2s-0.6-0.1-0.8-0.2c-0.2-0.1-0.3-0.4-0.3-0.7v-9.2h-3.4c-0.3,0-0.5-0.1-0.6-0.3s-0.2-0.5-0.2-0.8
			s0.1-0.5,0.2-0.7c0.1-0.2,0.3-0.3,0.6-0.3h3.4v-6.8c0-0.3,0.1-0.6,0.3-0.7C718.7,733.7,719,733.6,719.3,733.6z M724.9,733.5
			c0.3,0,0.6,0.1,0.8,0.2s0.3,0.4,0.3,0.7V754c0,0.3-0.1,0.5-0.3,0.7s-0.5,0.2-0.8,0.2s-0.5-0.1-0.8-0.2c-0.2-0.1-0.3-0.4-0.3-0.7
			v-19.6c0-0.3,0.1-0.6,0.3-0.7C724.4,733.5,724.6,733.5,724.9,733.5z"/>
		<path class="st8" d="M757,756.1c0.1,0.2,0.2,0.5,0.2,0.8s-0.1,0.5-0.2,0.7c-0.1,0.2-0.3,0.3-0.6,0.3h-25c-0.3,0-0.5-0.1-0.6-0.3
			s-0.2-0.4-0.2-0.7s0.1-0.5,0.2-0.8s0.3-0.3,0.6-0.3h25C756.6,755.8,756.8,755.9,757,756.1z M743.8,733.4c0.3,0,0.6,0.1,0.8,0.2
			s0.4,0.4,0.4,0.8v2.9h8.3c0.3,0,0.5,0.1,0.6,0.3s0.2,0.4,0.2,0.7s-0.1,0.5-0.2,0.7c-0.1,0.2-0.3,0.3-0.6,0.3H745v1
			c0,0.7,0,1.3,0.1,1.8s0.3,0.9,0.5,1.3c0.2,0.4,0.6,0.8,1,1.1s0.9,0.7,1.5,1.1c1,0.6,2,1.1,2.9,1.6s2,1.1,3.2,1.7
			c0.2,0.1,0.4,0.3,0.4,0.6s0,0.5-0.2,0.8c-0.1,0.3-0.3,0.4-0.6,0.5c-0.2,0.1-0.5,0.1-0.7,0c-2-1-4-2.1-5.9-3.2
			c-1.2-0.7-2.1-1.3-2.6-1.8s-0.8-1-0.9-1.4l0,0c-0.1,0.4-0.4,0.9-0.9,1.4s-1.4,1.1-2.6,1.8c-1.9,1.1-3.9,2.2-5.9,3.2
			c-0.3,0.1-0.5,0.1-0.8,0c-0.2-0.1-0.4-0.3-0.6-0.6c-0.1-0.2-0.2-0.5-0.2-0.8s0.2-0.5,0.4-0.6c1.2-0.6,2.3-1.2,3.2-1.7
			s1.9-1.1,2.9-1.6c0.6-0.4,1.1-0.7,1.5-1.1c0.4-0.3,0.7-0.7,1-1.1c0.2-0.4,0.4-0.8,0.5-1.3s0.1-1.1,0.1-1.8v-1H734
			c-0.3,0-0.5-0.1-0.6-0.3s-0.2-0.4-0.2-0.7s0.1-0.5,0.2-0.7c0.1-0.2,0.3-0.3,0.6-0.3h8.3v-2.9c0-0.3,0.1-0.6,0.4-0.8
			S743.5,733.4,743.8,733.4z"/>
		<path class="st8" d="M762.5,755.5c0.4,0.1,0.7,0.2,0.9,0.5s0.2,0.6,0.1,1.1l-1.6,5.2c-0.1,0.3-0.3,0.5-0.5,0.7
			c-0.2,0.1-0.5,0.2-0.7,0.1c-0.6-0.1-0.8-0.4-0.7-1.1l0.9-5.4c0.1-0.4,0.3-0.8,0.6-0.9C761.7,755.5,762.1,755.4,762.5,755.5z"/>
	</g>
	<g class="st9">
		<path class="st8" d="M477.6,780.4c0.3,0.3,0.5,0.9,0.5,1.7v3.4c0,1,0,1.8-0.1,2.6c-0.1,0.7-0.2,1.4-0.5,2c-0.2,0.6-0.6,1.2-1,1.8
			s-1,1.2-1.7,1.8s-1.6,1.3-2.6,2.1s-2.3,1.6-3.7,2.7c-0.2,0.2-0.5,0.2-0.8,0.1c-0.3-0.1-0.5-0.2-0.7-0.5c-0.2-0.2-0.3-0.5-0.2-0.8
			c0-0.3,0.1-0.5,0.4-0.7c1.3-0.9,2.5-1.7,3.4-2.4s1.7-1.3,2.4-1.8c0.6-0.5,1.2-1,1.5-1.5c0.4-0.5,0.7-1,0.9-1.5
			c0.2-0.5,0.3-1.1,0.4-1.7c0.1-0.6,0.1-1.3,0.1-2.2v-2.8c0-0.4-0.2-0.6-0.6-0.6H468c-0.3,0-0.5-0.1-0.6-0.3s-0.2-0.4-0.2-0.7
			s0.1-0.5,0.2-0.7s0.3-0.3,0.6-0.3h8C476.7,779.9,477.2,780.1,477.6,780.4z M489.7,777.5c0.3,0,0.6,0.1,0.8,0.2
			c0.2,0.1,0.3,0.4,0.3,0.7v25.5c0,0.3-0.1,0.6-0.3,0.7c-0.2,0.1-0.5,0.2-0.8,0.2s-0.5-0.1-0.8-0.2c-0.2-0.1-0.3-0.4-0.3-0.7v-14.4
			h-4.4v13.1c0,0.3-0.1,0.6-0.3,0.7s-0.5,0.2-0.8,0.2s-0.5-0.1-0.8-0.2c-0.2-0.1-0.3-0.4-0.3-0.7v-23.9c0-0.3,0.1-0.6,0.3-0.7
			c0.2-0.1,0.5-0.2,0.8-0.2s0.6,0.1,0.8,0.2s0.3,0.4,0.3,0.7v8.8h4.4v-9.1c0-0.3,0.1-0.6,0.3-0.7S489.4,777.5,489.7,777.5z"/>
		<path class="st8" d="M497.7,778.5c0.3,0,0.6,0.1,0.8,0.2c0.2,0.1,0.4,0.4,0.4,0.7v3.6h8.6v-3.6c0-0.3,0.1-0.6,0.4-0.7
			c0.2-0.1,0.5-0.2,0.8-0.2s0.6,0.1,0.8,0.2c0.2,0.1,0.4,0.4,0.4,0.7v9.5c0,0.8-0.2,1.4-0.5,1.7s-0.9,0.5-1.7,0.5h-8.8
			c-0.8,0-1.4-0.2-1.7-0.5c-0.3-0.3-0.5-0.9-0.5-1.7v-9.5c0-0.3,0.1-0.6,0.4-0.7C497.1,778.6,497.4,778.5,497.7,778.5z M498.8,788.6
			c0,0.2,0,0.4,0.1,0.5s0.2,0.1,0.5,0.1h7.4c0.2,0,0.4,0,0.5-0.1s0.1-0.2,0.1-0.5V785h-8.6V788.6z M517.1,794.7
			c0.3,0.3,0.5,0.9,0.5,1.7v2.8c0,0.8-0.2,1.4-0.5,1.7s-0.9,0.5-1.7,0.5h-12.7c-0.2,0-0.4,0-0.5,0.1s-0.1,0.2-0.1,0.5v2.2
			c0,0.4,0.2,0.6,0.6,0.6h14.9c0.3,0,0.4,0.1,0.6,0.3c0.1,0.2,0.2,0.4,0.2,0.7s-0.1,0.5-0.2,0.7c-0.1,0.2-0.3,0.3-0.6,0.3H502
			c-0.8,0-1.4-0.2-1.7-0.5c-0.3-0.3-0.5-0.9-0.5-1.7v-2.9c0-0.8,0.2-1.4,0.5-1.7s0.9-0.5,1.7-0.5h12.7c0.2,0,0.4,0,0.5-0.1
			s0.1-0.2,0.1-0.5v-2.2c0-0.4-0.2-0.6-0.6-0.6h-14.2c-0.3,0-0.4-0.1-0.6-0.3c-0.1-0.2-0.2-0.4-0.2-0.7s0.1-0.5,0.2-0.7
			s0.3-0.3,0.6-0.3h14.8C516.2,794.2,516.8,794.4,517.1,794.7z M516.4,777.5c0.3,0,0.6,0.1,0.8,0.2c0.2,0.1,0.4,0.4,0.4,0.7v5.4h4.1
			c0.3,0,0.5,0.1,0.6,0.3s0.2,0.5,0.2,0.8s-0.1,0.5-0.2,0.7c-0.1,0.2-0.3,0.3-0.6,0.3h-4.1v5.8c0,0.3-0.1,0.6-0.4,0.7
			c-0.2,0.1-0.5,0.2-0.8,0.2s-0.6-0.1-0.8-0.2c-0.2-0.1-0.4-0.4-0.4-0.7v-13.2c0-0.3,0.1-0.6,0.4-0.7S516.1,777.5,516.4,777.5z"/>
		<path class="st8" d="M549.6,780c0.1,0.2,0.2,0.4,0.2,0.7s-0.1,0.5-0.2,0.7c-0.1,0.2-0.3,0.3-0.6,0.3h-6v3.7c0,0.7,0,1.3,0.1,1.9
			c0.1,0.6,0.2,1.1,0.4,1.6s0.5,1,0.8,1.4c0.3,0.5,0.8,1,1.3,1.5c0.7,0.7,1.4,1.4,2.1,2.1s1.3,1.3,1.9,1.7c0.2,0.2,0.3,0.5,0.3,0.8
			s-0.1,0.5-0.3,0.7s-0.5,0.3-0.7,0.4c-0.3,0.1-0.5,0-0.8-0.3c-0.5-0.4-1.1-1-1.7-1.6c-0.6-0.6-1.3-1.3-2-2
			c-0.5-0.5-0.9-0.9-1.2-1.3c-0.3-0.4-0.6-0.7-0.8-1s-0.3-0.5-0.4-0.7c-0.1-0.2-0.1-0.4-0.2-0.6l0,0c0,0.2-0.1,0.4-0.2,0.6
			c-0.1,0.2-0.2,0.4-0.4,0.7s-0.4,0.6-0.8,1c-0.3,0.4-0.7,0.8-1.2,1.3c-0.7,0.7-1.4,1.4-2.1,2s-1.4,1.3-2.1,1.9
			c-0.3,0.2-0.5,0.3-0.8,0.3c-0.3-0.1-0.5-0.2-0.7-0.4s-0.3-0.5-0.3-0.8s0.1-0.5,0.3-0.7c0.8-0.7,1.6-1.4,2.3-2.1
			c0.7-0.7,1.5-1.4,2.2-2.1c0.5-0.5,0.9-1,1.3-1.5c0.3-0.5,0.6-0.9,0.8-1.4s0.3-1,0.4-1.6c0.1-0.6,0.1-1.2,0.1-1.9v-3.7h-6.1
			c-0.3,0-0.5-0.1-0.6-0.3s-0.2-0.4-0.2-0.7s0.1-0.5,0.2-0.7c0.1-0.2,0.3-0.3,0.6-0.3h14.4C549.2,779.7,549.4,779.8,549.6,780z
			 M554.9,777.5c0.3,0,0.6,0.1,0.8,0.2c0.2,0.1,0.4,0.4,0.4,0.7v25.5c0,0.3-0.1,0.6-0.4,0.7c-0.2,0.1-0.5,0.2-0.8,0.2
			s-0.6-0.1-0.8-0.2c-0.2-0.1-0.4-0.4-0.4-0.7v-25.5c0-0.3,0.1-0.6,0.4-0.7C554.4,777.5,554.6,777.5,554.9,777.5z"/>
		<path class="st8" d="M580.5,790.2c0.3,0,0.5,0,0.6,0.2s0.3,0.4,0.3,0.7s0,0.5-0.1,0.7s-0.3,0.3-0.6,0.4c-1.3,0.2-2.6,0.3-4,0.4
			c-1.4,0.1-2.9,0.2-4.4,0.2v4.4c0,0.3-0.1,0.5-0.4,0.7c-0.2,0.1-0.5,0.2-0.8,0.2s-0.6-0.1-0.8-0.2c-0.2-0.1-0.4-0.4-0.4-0.7v-4.4
			c-1.2,0-2.4,0.1-3.7,0.1s-2.4,0-3.6,0c-0.3,0-0.5-0.1-0.6-0.3s-0.2-0.4-0.2-0.7s0.1-0.5,0.2-0.7c0.1-0.2,0.3-0.3,0.6-0.3
			c2.8,0,5.7,0,8.7-0.1C574.5,790.8,577.5,790.6,580.5,790.2z M571.5,778.1c1.2,0,2.3,0.1,3.2,0.4c0.9,0.3,1.7,0.6,2.3,1.1
			s1.1,1,1.4,1.6c0.3,0.6,0.5,1.3,0.5,2.1s-0.2,1.4-0.5,2.1c-0.3,0.6-0.8,1.2-1.4,1.6c-0.6,0.5-1.4,0.8-2.3,1.1s-2,0.4-3.2,0.4
			s-2.3-0.1-3.2-0.4c-0.9-0.3-1.7-0.6-2.3-1.1s-1.1-1-1.4-1.6s-0.4-1.3-0.4-2.1s0.1-1.4,0.4-2.1c0.3-0.6,0.8-1.2,1.4-1.6
			c0.6-0.5,1.4-0.8,2.3-1.1C569.2,778.2,570.2,778.1,571.5,778.1z M571.5,780c-1.8,0-3.1,0.3-3.9,0.9c-0.8,0.6-1.2,1.4-1.2,2.3
			c0,0.9,0.4,1.7,1.2,2.3s2.1,0.9,3.9,0.9s3.1-0.3,3.9-0.9c0.8-0.6,1.2-1.4,1.2-2.3s-0.4-1.7-1.2-2.3
			C574.5,780.3,573.2,780,571.5,780z M567.9,798.8c0.3,0,0.6,0.1,0.8,0.2c0.2,0.2,0.4,0.4,0.4,0.7v4c0,0.4,0.2,0.6,0.6,0.6h16.1
			c0.3,0,0.5,0.1,0.6,0.3s0.2,0.4,0.2,0.7s-0.1,0.5-0.2,0.7c-0.1,0.2-0.3,0.3-0.6,0.3h-16.9c-0.8,0-1.4-0.2-1.7-0.5
			s-0.5-0.9-0.5-1.7v-4.4c0-0.3,0.1-0.6,0.4-0.7C567.4,798.9,567.6,798.8,567.9,798.8z M584.7,777.5c0.3,0,0.6,0.1,0.8,0.2
			s0.4,0.4,0.4,0.7v20.5c0,0.3-0.1,0.6-0.4,0.7s-0.5,0.2-0.8,0.2s-0.6-0.1-0.8-0.2c-0.2-0.1-0.4-0.4-0.4-0.7v-2.2h-5.9
			c-0.3,0-0.4-0.1-0.6-0.3c-0.1-0.2-0.2-0.4-0.2-0.7s0.1-0.5,0.2-0.7c0.1-0.2,0.3-0.3,0.6-0.3h5.9v-16.3c0-0.3,0.1-0.6,0.4-0.7
			C584.1,777.5,584.4,777.5,584.7,777.5z"/>
		<path class="st8" d="M617.1,800.1c0.1,0.2,0.2,0.5,0.2,0.8s-0.1,0.5-0.2,0.7c-0.1,0.2-0.3,0.3-0.6,0.3h-25c-0.3,0-0.5-0.1-0.6-0.3
			s-0.2-0.4-0.2-0.7s0.1-0.5,0.2-0.8s0.3-0.3,0.6-0.3h25C616.8,799.8,617,799.9,617.1,800.1z M604,778.8c3.1,0,5.4,0.7,7.1,2
			c1.7,1.4,2.5,3.2,2.5,5.6c0,2.4-0.8,4.3-2.5,5.6c-1.7,1.4-4,2-7.1,2s-5.4-0.7-7.1-2c-1.7-1.4-2.5-3.2-2.5-5.6
			c0-2.4,0.8-4.2,2.5-5.6C598.5,779.5,600.9,778.8,604,778.8z M604,780.8c-1.2,0-2.3,0.1-3.2,0.4c-0.9,0.3-1.7,0.7-2.3,1.2
			s-1,1.1-1.3,1.8s-0.4,1.4-0.4,2.2s0.1,1.6,0.4,2.2s0.7,1.3,1.3,1.8s1.3,0.9,2.3,1.2c0.9,0.3,2,0.4,3.2,0.4s2.3-0.1,3.2-0.4
			c0.9-0.3,1.7-0.7,2.3-1.2s1-1.1,1.3-1.8s0.4-1.4,0.4-2.2s-0.1-1.6-0.4-2.2c-0.3-0.7-0.7-1.3-1.3-1.8s-1.3-0.9-2.3-1.2
			S605.2,780.8,604,780.8z"/>
		<path class="st8" d="M634.3,799.9h11.3c0.3,0,0.5,0.1,0.6,0.3s0.2,0.4,0.2,0.7s-0.1,0.5-0.2,0.7c-0.1,0.2-0.3,0.3-0.6,0.3h-25
			c-0.3,0-0.5-0.1-0.6-0.3s-0.2-0.4-0.2-0.7s0.1-0.5,0.2-0.7c0.1-0.2,0.3-0.3,0.6-0.3H632v-6.8h2.3V799.9z M642,779.7
			c0.3,0.3,0.5,0.9,0.5,1.7v4.2c0,0.8-0.2,1.4-0.5,1.7s-0.9,0.5-1.7,0.5h-13.7c-0.4,0-0.6,0.2-0.6,0.6v3.4c0,0.4,0.2,0.6,0.6,0.6
			h15.9c0.3,0,0.5,0.1,0.6,0.3s0.2,0.4,0.2,0.7s-0.1,0.5-0.2,0.7c-0.1,0.2-0.3,0.3-0.6,0.3h-16.6c-0.8,0-1.4-0.2-1.7-0.5
			s-0.5-0.9-0.5-1.7V788c0-0.8,0.2-1.4,0.5-1.7s0.9-0.5,1.7-0.5h13.8c0.4,0,0.6-0.2,0.6-0.6v-3.3c0-0.4-0.2-0.6-0.6-0.6h-15.2
			c-0.3,0-0.5-0.1-0.6-0.3s-0.2-0.4-0.2-0.7s0.1-0.5,0.2-0.7s0.3-0.3,0.6-0.3h15.8C641.1,779.2,641.7,779.4,642,779.7z"/>
		<path class="st8" d="M683.3,792.5c0.1,0.2,0.2,0.4,0.2,0.7s-0.1,0.5-0.2,0.7c-0.1,0.2-0.3,0.3-0.6,0.3h-11.3v11.9
			c0,0.3-0.1,0.6-0.4,0.7s-0.5,0.2-0.8,0.2s-0.6-0.1-0.8-0.2c-0.2-0.1-0.4-0.4-0.4-0.7v-11.9h-11.4c-0.3,0-0.5-0.1-0.6-0.3
			s-0.2-0.4-0.2-0.7s0.1-0.5,0.2-0.7c0.1-0.2,0.3-0.3,0.6-0.3h25C683,792.3,683.2,792.4,683.3,792.5z M679,779.5
			c0.3,0.3,0.5,0.9,0.5,1.7v1.9c0,1.9-0.1,3.7-0.3,5.4s-0.5,3.3-1,4.8l-2.2-0.4c0.4-1.6,0.7-3.2,0.9-4.7c0.2-1.6,0.3-3.2,0.3-4.9
			v-1.5c0-0.2,0-0.4-0.1-0.5s-0.2-0.1-0.5-0.1h-15.4c-0.3,0-0.5-0.1-0.6-0.3s-0.2-0.4-0.2-0.7s0.1-0.5,0.2-0.7
			c0.1-0.2,0.3-0.3,0.6-0.3h16.1C678.1,779,678.6,779.2,679,779.5z"/>
		<path class="st8" d="M712.5,792.3c0.1,0.2,0.2,0.4,0.2,0.7s-0.1,0.5-0.2,0.7c-0.1,0.2-0.3,0.3-0.6,0.3h-11.4v4.8h-2.3V794h-11.4
			c-0.3,0-0.5-0.1-0.6-0.3s-0.2-0.4-0.2-0.7s0.1-0.5,0.2-0.7c0.1-0.2,0.3-0.3,0.6-0.3h25.1C712.1,792,712.3,792.1,712.5,792.3z
			 M699.3,776.9c0.3,0,0.6,0.1,0.8,0.2c0.2,0.2,0.4,0.4,0.4,0.8v2.2h8.3c0.3,0,0.4,0.1,0.6,0.3c0.1,0.2,0.2,0.4,0.2,0.7
			s-0.1,0.5-0.2,0.7c-0.1,0.2-0.3,0.3-0.6,0.3h-8.3v0.6c0,0.8,0.2,1.4,0.7,1.9c0.4,0.5,1.2,1,2.3,1.4s2.2,0.8,3.2,1.2s2,0.7,2.9,1
			c0.3,0.1,0.5,0.3,0.6,0.5c0.1,0.3,0.1,0.5,0,0.8s-0.3,0.4-0.5,0.6c-0.2,0.1-0.5,0.1-0.8,0c-0.9-0.3-1.7-0.6-2.6-0.9
			s-1.8-0.6-2.9-1.1c-1.4-0.5-2.4-1-3-1.5s-0.9-0.9-1-1.3l0,0c-0.1,0.4-0.5,0.9-1,1.3c-0.6,0.5-1.6,1-3,1.5
			c-1.1,0.4-2.1,0.8-2.9,1.1s-1.7,0.6-2.6,0.9c-0.3,0.1-0.6,0.1-0.8,0s-0.4-0.3-0.5-0.6s-0.1-0.5,0-0.8s0.3-0.4,0.6-0.5
			c0.9-0.3,1.9-0.6,2.9-1s2.1-0.8,3.2-1.2c1.1-0.4,1.9-0.9,2.3-1.4c0.4-0.5,0.7-1.2,0.7-1.9v-0.6H690c-0.3,0-0.4-0.1-0.6-0.3
			c-0.1-0.2-0.2-0.4-0.2-0.7s0.1-0.5,0.2-0.7c0.1-0.2,0.3-0.3,0.6-0.3h8.3v-2.2c0-0.3,0.1-0.6,0.4-0.8
			C698.7,777,699,776.9,699.3,776.9z M708.4,798.1c0.3,0.3,0.5,0.9,0.5,1.7v6.4c0,0.3-0.1,0.6-0.4,0.7c-0.2,0.1-0.5,0.2-0.8,0.2
			s-0.6-0.1-0.8-0.2s-0.4-0.4-0.4-0.7v-5.9c0-0.4-0.2-0.6-0.6-0.6h-15.8c-0.3,0-0.4-0.1-0.6-0.3c-0.1-0.2-0.2-0.4-0.2-0.7
			s0.1-0.5,0.2-0.7c0.1-0.2,0.3-0.3,0.6-0.3h16.5C707.5,797.6,708,797.8,708.4,798.1z"/>
		<path class="st8" d="M740.2,779.7c0.1,0.2,0.2,0.4,0.2,0.7s-0.1,0.5-0.2,0.7c-0.1,0.2-0.3,0.3-0.6,0.3h-5.9v2.3
			c0,1.2,0.2,2.1,0.6,2.9c0.4,0.8,1,1.6,1.8,2.3c0.7,0.6,1.5,1.2,2.2,1.8s1.3,1,1.9,1.4c0.3,0.2,0.4,0.4,0.4,0.7s-0.1,0.5-0.2,0.8
			c-0.2,0.2-0.4,0.4-0.7,0.4c-0.3,0.1-0.5,0-0.8-0.2c-1-0.7-2.3-1.7-3.7-2.9c-0.9-0.7-1.5-1.3-1.9-1.8s-0.6-0.9-0.7-1.3l0,0
			c-0.1,0.4-0.3,0.8-0.7,1.3s-1,1.1-1.9,1.8c-0.7,0.6-1.5,1.2-2.2,1.8s-1.4,1.1-2.1,1.5c-0.3,0.2-0.5,0.3-0.8,0.2s-0.5-0.2-0.6-0.4
			c-0.2-0.2-0.3-0.5-0.3-0.8s0.1-0.5,0.4-0.7c0.7-0.5,1.5-1.1,2.3-1.7c0.8-0.6,1.6-1.2,2.3-1.9c0.8-0.7,1.4-1.5,1.8-2.3
			c0.4-0.8,0.6-1.8,0.6-2.9v-2.3h-6.1c-0.3,0-0.5-0.1-0.6-0.3s-0.2-0.4-0.2-0.7s0.1-0.5,0.2-0.7s0.3-0.3,0.6-0.3h14.3
			C739.9,779.5,740.1,779.6,740.2,779.7z M729.9,796.4c0.3,0,0.6,0.1,0.8,0.2c0.2,0.1,0.4,0.4,0.4,0.7v6.3c0,0.4,0.2,0.6,0.6,0.6
			h15.2c0.3,0,0.5,0.1,0.6,0.3s0.2,0.4,0.2,0.7s-0.1,0.5-0.2,0.7c-0.1,0.2-0.3,0.3-0.6,0.3H731c-0.8,0-1.4-0.2-1.7-0.5
			s-0.5-0.9-0.5-1.7v-6.8c0-0.3,0.1-0.6,0.4-0.7C729.3,796.5,729.6,796.4,729.9,796.4z M745.7,777.5c0.3,0,0.6,0.1,0.8,0.2
			c0.2,0.1,0.4,0.4,0.4,0.7V798c0,0.3-0.1,0.6-0.4,0.7c-0.2,0.1-0.5,0.2-0.8,0.2s-0.6-0.1-0.8-0.2s-0.4-0.4-0.4-0.7v-19.5
			c0-0.3,0.1-0.6,0.4-0.7S745.4,777.5,745.7,777.5z"/>
		<path class="st8" d="M759.5,777.3c0.3,0,0.6,0.1,0.8,0.2c0.2,0.1,0.4,0.4,0.4,0.7v2.5h5.2c0.3,0,0.5,0.1,0.6,0.3s0.2,0.4,0.2,0.7
			s-0.1,0.5-0.2,0.7c-0.1,0.2-0.3,0.3-0.6,0.3h-13.2c-0.3,0-0.5-0.1-0.6-0.3s-0.2-0.4-0.2-0.7s0.1-0.5,0.2-0.7
			c0.1-0.2,0.3-0.3,0.6-0.3h5.6v-2.5c0-0.3,0.1-0.6,0.4-0.7C758.9,777.4,759.2,777.3,759.5,777.3z M759.5,784.9
			c1.9,0,3.4,0.5,4.4,1.4s1.5,2.1,1.5,3.6s-0.5,2.7-1.5,3.6c-1,0.9-2.5,1.4-4.4,1.4s-3.3-0.5-4.4-1.4c-1-0.9-1.5-2.1-1.5-3.6
			s0.5-2.7,1.5-3.6C756.1,785.4,757.6,784.9,759.5,784.9z M759.5,786.8c-1.2,0-2.1,0.3-2.8,0.8c-0.7,0.6-1,1.3-1,2.3s0.3,1.7,1,2.3
			s1.6,0.8,2.8,0.8s2.2-0.3,2.8-0.8c0.7-0.6,1-1.3,1-2.3s-0.3-1.7-1-2.3C761.6,787.1,760.7,786.8,759.5,786.8z M767.5,796.6
			c3,0,5.3,0.4,6.9,1.3s2.4,2.2,2.4,3.9c0,1.8-0.8,3.1-2.4,4s-3.9,1.3-6.9,1.3s-5.3-0.4-6.9-1.3c-1.6-0.9-2.4-2.2-2.4-4
			c0-1.7,0.8-3.1,2.4-3.9C762.1,797,764.5,796.6,767.5,796.6z M767.5,798.5c-2.4,0-4.2,0.3-5.3,0.9c-1.1,0.6-1.7,1.4-1.7,2.4
			c0,1.1,0.6,1.9,1.7,2.5c1.1,0.6,2.9,0.9,5.3,0.9s4.2-0.3,5.3-0.9c1.1-0.6,1.7-1.4,1.7-2.5c0-1-0.6-1.9-1.7-2.4
			C771.7,798.8,769.9,798.5,767.5,798.5z M775.8,777.5c0.3,0,0.6,0.1,0.8,0.2s0.3,0.4,0.3,0.7v17c0,0.3-0.1,0.5-0.3,0.7
			s-0.5,0.2-0.8,0.2s-0.5-0.1-0.8-0.2c-0.2-0.1-0.3-0.4-0.3-0.7v-8h-4.2v6.7c0,0.3-0.1,0.5-0.3,0.7s-0.5,0.2-0.8,0.2
			s-0.5-0.1-0.8-0.2c-0.2-0.1-0.3-0.4-0.3-0.7v-15.5c0-0.3,0.1-0.6,0.3-0.7c0.2-0.1,0.5-0.2,0.8-0.2s0.6,0.1,0.8,0.2
			s0.3,0.4,0.3,0.7v6.8h4.2v-7c0-0.3,0.1-0.6,0.3-0.7C775.2,777.5,775.5,777.5,775.8,777.5z"/>
	</g>
	<g class="st9">
		<path class="st8" d="M426.3,447.4c-1.2,0.8-2.5,1.3-4,1.3s-2.9-0.4-4.1-1.3s-2.1-2.1-2.5-3.7l-9.2-31l-9.2,31
			c-0.4,1.6-1.3,2.9-2.5,3.7c-1.2,0.9-2.6,1.3-4.1,1.3s-2.8-0.4-4-1.3c-1.2-0.8-2-2-2.4-3.6l-9.4-35.8c-0.1-0.5-0.2-0.9-0.2-1.2
			c0-1.2,0.4-2.2,1.3-3s1.9-1.2,3.1-1.2c1,0,1.8,0.3,2.6,0.9c0.8,0.6,1.3,1.4,1.5,2.6l8.1,33.2l9.4-31.4c0.5-1.8,1.2-3.1,2.2-4
			c1-0.8,2.2-1.2,3.7-1.2s2.8,0.4,3.7,1.2s1.7,2.1,2.2,4l9.4,31.4l8.1-33.2c0.3-1.1,0.8-2,1.5-2.6c0.8-0.6,1.6-0.9,2.6-0.9
			c1.2,0,2.2,0.4,3.1,1.2s1.3,1.8,1.3,3c0,0.3-0.1,0.7-0.2,1.2l-9.4,35.8C428.3,445.4,427.5,446.6,426.3,447.4z"/>
		<path class="st8" d="M450.4,447.6c-2.2-0.9-3.9-2.1-5.2-3.7c-1.3-1.5-2.3-3.3-3-5.2c-0.7-1.9-1-3.9-1-6.1c0-1.7,0.2-3.3,0.6-4.9
			s1.1-3.1,2-4.5s2-2.6,3.3-3.7c1.3-1,2.8-1.9,4.7-2.5c1.9-0.6,3.9-0.9,6.1-0.9s4.2,0.3,6,0.9s3.4,1.4,4.7,2.4
			c1.3,1,2.4,2.2,3.3,3.6s1.6,2.9,2,4.5s0.7,3.3,0.7,5s-0.2,3.3-0.6,4.8s-1.1,3-1.9,4.4c-0.9,1.4-2,2.6-3.2,3.7s-2.9,1.8-4.7,2.5
			c-1.9,0.6-3.9,0.9-6.2,0.9C455.1,449,452.6,448.5,450.4,447.6z M464.2,440.7c1.5-1.9,2.3-4.6,2.3-8s-0.8-6.1-2.3-8.1
			c-1.5-1.9-3.7-2.9-6.4-2.9c-2.8,0-4.9,1-6.4,2.9s-2.3,4.6-2.3,8.1c0,3.4,0.8,6.1,2.3,8s3.6,2.9,6.4,2.9
			C460.6,443.5,462.7,442.6,464.2,440.7z"/>
		<path class="st8" d="M487.8,447.6c-2.2-0.9-3.9-2.1-5.2-3.7c-1.3-1.5-2.3-3.3-3-5.2c-0.7-1.9-1-3.9-1-6.1c0-1.7,0.2-3.3,0.6-4.9
			s1.1-3.1,2-4.5s2-2.6,3.3-3.7c1.3-1,2.8-1.9,4.7-2.5c1.9-0.6,3.9-0.9,6.1-0.9s4.2,0.3,6,0.9s3.4,1.4,4.7,2.4
			c1.3,1,2.4,2.2,3.3,3.6s1.6,2.9,2,4.5s0.7,3.3,0.7,5s-0.2,3.3-0.6,4.8s-1.1,3-1.9,4.4c-0.9,1.4-2,2.6-3.2,3.7s-2.9,1.8-4.7,2.5
			c-1.9,0.6-3.9,0.9-6.2,0.9C492.4,449,490,448.5,487.8,447.6z M501.6,440.7c1.5-1.9,2.3-4.6,2.3-8s-0.8-6.1-2.3-8.1
			c-1.5-1.9-3.7-2.9-6.4-2.9s-4.9,1-6.4,2.9s-2.3,4.6-2.3,8.1c0,3.4,0.8,6.1,2.3,8s3.6,2.9,6.4,2.9
			C498,443.5,500.1,442.6,501.6,440.7z"/>
		<path class="st8" d="M518.8,447.4c-0.8-0.8-1.1-1.8-1.1-3.2v-23.7c0-1.2,0.4-2.1,1.2-2.8c0.8-0.7,1.7-1,2.8-1s2,0.3,2.8,1
			c0.8,0.6,1.2,1.5,1.2,2.7l-0.1,3.3c0.6-1.9,1.7-3.5,3.3-4.9s3.4-2,5.4-2c1,0,1.7,0.3,2.3,1c0.5,0.7,0.8,1.4,0.8,2.4
			c0,0.9-0.2,1.7-0.7,2.3c-0.5,0.7-1.1,1-2,1c-1.2,0-2.4,0.1-3.3,0.3c-1,0.2-1.9,0.6-2.8,1.1c-0.9,0.5-1.6,1.3-2.1,2.3
			s-0.7,2.3-0.7,3.8v13.4c0,1.4-0.4,2.4-1.1,3.2c-0.8,0.7-1.7,1.1-2.9,1.1C520.5,448.6,519.5,448.2,518.8,447.4z"/>
		<path class="st8" d="M542.1,409.2c-0.9-0.8-1.3-1.9-1.3-3.2c0-1.3,0.4-2.4,1.3-3.2c0.9-0.8,2-1.2,3.4-1.2s2.5,0.4,3.3,1.2
			c0.8,0.8,1.3,1.9,1.3,3.2c0,1.3-0.4,2.4-1.3,3.2c-0.9,0.8-2,1.2-3.3,1.2S542.9,410,542.1,409.2z M542.6,447.4
			c-0.7-0.8-1.1-1.9-1.1-3.3v-22.9c0-1.4,0.4-2.5,1.1-3.3s1.7-1.2,2.9-1.2s2.1,0.4,2.9,1.2c0.8,0.8,1.1,1.9,1.1,3.3v22.9
			c0,1.4-0.4,2.5-1.1,3.3c-0.8,0.8-1.7,1.2-2.9,1.2S543.3,448.2,542.6,447.4z"/>
		<path class="st8" d="M558.9,447.3c-0.9-0.9-1.3-2.2-1.3-4v-36c0-1.4,0.5-2.4,1.4-3.3c0.9-0.8,2-1.2,3.4-1.2h12.9
			c10.9,0,16.3,3.8,16.3,11.3c0,2.8-0.7,5.2-2.2,7c-1.4,1.9-3.6,3-6.3,3.6v0.1c3.3,0.5,5.8,1.7,7.7,3.6s2.8,4.5,2.8,7.8
			c0,1.6-0.4,3.1-1.1,4.6c-0.7,1.5-1.7,2.8-3.1,3.9c-1.3,1.2-3.1,2.1-5.2,2.8c-2.1,0.7-4.5,1-7.2,1h-14.6
			C560.9,448.6,559.8,448.1,558.9,447.3z M573.7,422c3.3,0,5.6-0.5,7-1.5s2.1-2.8,2.1-5.3c0-1-0.1-1.8-0.4-2.5
			c-0.3-0.7-0.6-1.3-1.1-1.7c-0.4-0.4-1-0.7-1.8-1c-0.7-0.2-1.5-0.4-2.3-0.5s-1.7-0.1-2.8-0.1h-7.9V422H573.7z M574.7,441.9
			c1.7,0,3-0.1,4.1-0.2c1.1-0.2,2-0.5,2.9-1s1.5-1.2,1.9-2.1s0.6-2.1,0.6-3.5c0-1.2-0.2-2.2-0.5-3s-0.8-1.5-1.4-2s-1.4-0.9-2.4-1.2
			c-1-0.3-2-0.5-3.1-0.6s-2.4-0.1-4-0.1h-6.1v13.6h8V441.9z"/>
		<path class="st8" d="M600.8,446.5c-2.1-1.6-3.1-3.8-3.1-6.7c0-1.3,0.1-2.4,0.4-3.3s0.6-1.8,1.1-2.5s1.1-1.3,2-1.8s1.8-0.9,2.8-1.2
			s2.2-0.5,3.7-0.7s3-0.3,4.5-0.3c1.5-0.1,3.4-0.1,5.5-0.1v-2.4c0-2-0.5-3.4-1.4-4.4c-0.9-0.9-2.3-1.4-4.2-1.4c-0.4,0-0.8,0-1.2,0
			s-0.8,0.1-1.3,0.2c-0.4,0.1-0.8,0.1-1.1,0.2s-0.7,0.1-1.1,0.3s-0.8,0.2-1,0.3c-0.2,0.1-0.6,0.2-1,0.3c-0.4,0.2-0.7,0.3-0.9,0.3
			c-0.1,0-0.4,0.2-0.9,0.3c-0.4,0.2-0.7,0.3-0.7,0.3c-0.2,0.1-0.5,0.2-0.9,0.2c-0.7,0-1.4-0.3-1.9-0.9s-0.8-1.3-0.8-2.1
			c0-1,0.5-1.8,1.4-2.2c3.5-1.7,7.4-2.5,11.7-2.5c1.9,0,3.7,0.2,5.2,0.7c1.5,0.4,2.9,1.1,4.1,2.1c1.2,0.9,2.1,2.2,2.7,3.8
			c0.6,1.6,1,3.5,1,5.6v16.1c0,1.3-0.4,2.3-1.1,3c-0.7,0.7-1.6,1-2.7,1s-1.9-0.3-2.7-1s-1.1-1.7-1.1-3v-1c-0.7,1.6-1.8,2.9-3.3,3.9
			s-3.5,1.5-6,1.5C605.5,448.9,602.8,448.1,600.8,446.5z M615.2,441.4c1.6-1.7,2.4-3.8,2.4-6.3v-0.9c-2.1,0-3.8,0-5,0.1
			s-2.4,0.2-3.5,0.4c-1.1,0.2-1.9,0.5-2.5,0.9c-0.5,0.4-0.9,0.9-1.2,1.5s-0.4,1.4-0.4,2.4c0,1.5,0.4,2.6,1.3,3.4
			c0.9,0.8,2,1.2,3.4,1.2C611.7,443.9,613.6,443.1,615.2,441.4z"/>
		<path class="st8" d="M634,447.4c-0.7-0.8-1.1-1.8-1.1-3.2v-23.5c0-1.3,0.4-2.3,1.1-3s1.7-1,2.9-1c1.1,0,2.1,0.3,2.8,1
			s1.1,1.7,1.1,2.9v1.1c0.9-1.8,2.3-3.2,4.1-4.1s3.9-1.4,6.4-1.4c1.5,0,3,0.2,4.3,0.7s2.5,1.2,3.6,2.2s1.9,2.2,2.5,3.8
			s0.9,3.4,0.9,5.4V444c0,1.4-0.4,2.4-1.1,3.2s-1.7,1.2-2.9,1.2c-1.1,0-2.1-0.4-2.8-1.2c-0.7-0.8-1.1-1.8-1.1-3.2v-15.7
			c0-2.2-0.6-3.8-1.7-5c-1.1-1.2-2.6-1.7-4.3-1.7c-2.1,0-3.9,0.8-5.5,2.5c-1.5,1.7-2.3,3.9-2.3,6.5V444c0,1.4-0.4,2.4-1.1,3.2
			c-0.8,0.8-1.7,1.2-2.9,1.2S634.7,448.2,634,447.4z"/>
		<path class="st8" d="M671,447.4c-0.7-0.8-1.1-1.9-1.1-3.3v-36.8c0-1.4,0.4-2.5,1.1-3.3c0.7-0.8,1.7-1.2,2.9-1.2s2.1,0.4,2.9,1.2
			c0.8,0.8,1.1,1.9,1.1,3.3v23.2l13.1-13.1c0.7-0.7,1.4-1.1,2.3-1.1c0.9,0,1.7,0.4,2.4,1.1c0.7,0.8,1,1.6,1,2.6
			c0,0.8-0.3,1.6-0.9,2.2l-9.6,9.2l11,11.4c0.6,0.7,1,1.5,1,2.3c0,1-0.4,1.8-1.1,2.5c-0.8,0.7-1.6,1.1-2.6,1.1c-1.1,0-2-0.4-2.8-1.3
			l-13.8-14.7v11.5c0,1.4-0.4,2.5-1.1,3.3c-0.8,0.8-1.7,1.2-2.9,1.2C672.6,448.6,671.7,448.2,671,447.4z"/>
		<path class="st8" d="M718.9,447.5c-0.7-0.7-1.1-1.5-1.1-2.6s0.3-2.1,1-3.2l22.1-31.8h-19.4c-1,0-1.8-0.4-2.4-1.1
			c-0.6-0.7-0.9-1.6-0.9-2.5c0-1,0.3-1.8,0.9-2.5c0.6-0.7,1.4-1.1,2.4-1.1h26.4c1.2,0,2.2,0.3,2.9,1c0.7,0.6,1.1,1.5,1.1,2.6
			s-0.4,2.1-1.1,3.2l-22.2,31.9h19.8c1,0,1.9,0.3,2.4,1c0.6,0.7,0.9,1.5,0.9,2.5s-0.3,1.8-0.9,2.5c-0.6,0.7-1.4,1.1-2.4,1.1h-26.5
			C720.7,448.6,719.7,448.2,718.9,447.5z"/>
		<path class="st8" d="M756.9,424.4c1.2-2.4,3-4.3,5.4-5.8s5.2-2.2,8.4-2.2c2.5,0,4.6,0.4,6.5,1.2c1.9,0.8,3.4,1.9,4.6,3.4
			c1.2,1.4,2,3.1,2.6,4.9s0.9,3.7,0.9,5.8c0,0.8-0.2,1.5-0.6,2s-1,0.8-1.7,0.8h-20.1c0.3,6,3.4,9,9.2,9c2.6,0,5.4-1.1,8.4-3.2
			c0.4-0.3,0.8-0.4,1.2-0.4c0.7,0,1.2,0.3,1.7,0.9s0.8,1.3,0.8,2c0,0.8-0.3,1.6-1,2.2c-3.3,2.8-7.2,4.2-11.7,4.2c-5,0-9-1.5-12-4.4
			s-4.5-7-4.5-12.2C755.1,429.4,755.7,426.8,756.9,424.4z M778.6,429.9c-0.2-2.4-0.9-4.4-2.1-6c-1.2-1.6-3.1-2.3-5.5-2.3
			s-4.2,0.8-5.6,2.4c-1.3,1.6-2.1,3.6-2.3,5.9H778.6z"/>
		<path class="st8" d="M791.8,447.4c-0.8-0.8-1.1-1.8-1.1-3.2v-23.7c0-1.2,0.4-2.1,1.2-2.8c0.8-0.7,1.7-1,2.8-1s2,0.3,2.8,1
			c0.8,0.6,1.2,1.5,1.2,2.7l-0.1,3.3c0.6-1.9,1.7-3.5,3.3-4.9s3.4-2,5.4-2c1,0,1.7,0.3,2.3,1c0.5,0.7,0.8,1.4,0.8,2.4
			c0,0.9-0.2,1.7-0.7,2.3c-0.5,0.7-1.1,1-2,1c-1.2,0-2.4,0.1-3.3,0.3c-1,0.2-1.9,0.6-2.8,1.1s-1.6,1.3-2.1,2.3s-0.7,2.3-0.7,3.8
			v13.4c0,1.4-0.4,2.4-1.1,3.2c-0.8,0.7-1.7,1.1-2.9,1.1C793.5,448.6,792.6,448.2,791.8,447.4z"/>
		<path class="st8" d="M821.8,447.6c-2.2-0.9-3.9-2.1-5.2-3.7c-1.3-1.5-2.3-3.3-3-5.2c-0.7-1.9-1-3.9-1-6.1c0-1.7,0.2-3.3,0.6-4.9
			c0.4-1.6,1.1-3.1,2-4.5s2-2.6,3.3-3.7c1.3-1,2.8-1.9,4.7-2.5s3.9-0.9,6.1-0.9c2.2,0,4.2,0.3,6,0.9s3.4,1.4,4.7,2.4
			s2.4,2.2,3.3,3.6c0.9,1.4,1.6,2.9,2,4.5s0.7,3.3,0.7,5s-0.2,3.3-0.6,4.8c-0.4,1.5-1.1,3-1.9,4.4c-0.9,1.4-2,2.6-3.2,3.7
			s-2.9,1.8-4.7,2.5c-1.9,0.6-3.9,0.9-6.2,0.9C826.5,449,824,448.5,821.8,447.6z M835.7,440.7c1.5-1.9,2.3-4.6,2.3-8
			s-0.8-6.1-2.3-8.1c-1.5-1.9-3.7-2.9-6.4-2.9c-2.8,0-4.9,1-6.4,2.9s-2.3,4.6-2.3,8.1c0,3.4,0.8,6.1,2.3,8s3.6,2.9,6.4,2.9
			C832,443.5,834.2,442.6,835.7,440.7z"/>
		<path class="st8" d="M854.2,447.3c-0.9-0.9-1.4-2-1.4-3.4v-35.5c0-1.6,0.4-2.9,1.3-4c0.9-1.1,2.1-1.6,3.7-1.6h13.6
			c2.6,0,4.9,0.2,6.9,0.7s3.7,1.2,5.2,2.3c1.5,1,2.7,2.5,3.4,4.3c0.8,1.8,1.2,4,1.2,6.5c0,9.2-5.8,13.8-17.4,13.8h-8.9v13.5
			c0,1.4-0.5,2.6-1.3,3.4c-0.9,0.9-2,1.3-3.2,1.3C856.2,448.6,855.1,448.2,854.2,447.3z M870.2,423.8c1.5,0,2.8-0.1,3.9-0.3
			c1-0.2,1.9-0.6,2.8-1.1c0.8-0.5,1.4-1.3,1.8-2.2c0.4-1,0.6-2.2,0.6-3.6s-0.2-2.6-0.6-3.5c-0.4-0.9-1-1.6-1.8-2.1s-1.7-0.8-2.7-1
			s-2.2-0.3-3.7-0.3H862v14.1H870.2z"/>
		<path class="st8" d="M893.7,446.5c-2.1-1.6-3.1-3.8-3.1-6.7c0-1.3,0.1-2.4,0.4-3.3s0.6-1.8,1.1-2.5s1.1-1.3,2-1.8s1.8-0.9,2.8-1.2
			c1-0.3,2.2-0.5,3.7-0.7s3-0.3,4.5-0.3c1.5-0.1,3.4-0.1,5.5-0.1v-2.4c0-2-0.5-3.4-1.4-4.4c-0.9-0.9-2.3-1.4-4.2-1.4
			c-0.4,0-0.8,0-1.2,0s-0.8,0.1-1.3,0.2c-0.4,0.1-0.8,0.1-1.1,0.2s-0.7,0.1-1.1,0.3c-0.4,0.1-0.8,0.2-1,0.3c-0.2,0.1-0.6,0.2-1,0.3
			c-0.4,0.2-0.7,0.3-0.9,0.3c-0.1,0-0.4,0.2-0.9,0.3c-0.4,0.2-0.7,0.3-0.7,0.3c-0.2,0.1-0.5,0.2-0.9,0.2c-0.7,0-1.4-0.3-1.9-0.9
			s-0.8-1.3-0.8-2.1c0-1,0.5-1.8,1.4-2.2c3.5-1.7,7.4-2.5,11.7-2.5c1.9,0,3.7,0.2,5.2,0.7c1.5,0.4,2.9,1.1,4.1,2.1
			c1.2,0.9,2.1,2.2,2.7,3.8c0.6,1.6,1,3.5,1,5.6v16.1c0,1.3-0.4,2.3-1.1,3c-0.7,0.7-1.6,1-2.7,1c-1,0-1.9-0.3-2.7-1s-1.1-1.7-1.1-3
			v-1c-0.7,1.6-1.8,2.9-3.3,3.9s-3.5,1.5-6,1.5C898.4,448.9,895.7,448.1,893.7,446.5z M908.1,441.4c1.6-1.7,2.4-3.8,2.4-6.3v-0.9
			c-2.1,0-3.8,0-5,0.1s-2.4,0.2-3.5,0.4c-1.1,0.2-1.9,0.5-2.5,0.9c-0.5,0.4-0.9,0.9-1.2,1.5s-0.4,1.4-0.4,2.4c0,1.5,0.4,2.6,1.3,3.4
			c0.9,0.8,2,1.2,3.4,1.2C904.6,443.9,906.5,443.1,908.1,441.4z"/>
		<path class="st8" d="M932.4,462c-1,0-1.9-0.4-2.7-1.1s-1.2-1.6-1.2-2.7c0-0.6,0.1-1.2,0.4-1.7l6.3-12.7l-11.3-21.5
			c-0.3-0.6-0.4-1.2-0.4-1.8c0-1,0.4-1.8,1.2-2.5s1.7-1,2.7-1c1.5,0,2.6,0.8,3.4,2.3l8.4,16.6l8.5-16.9c0.8-1.7,2-2.5,3.5-2.5
			c1,0,1.8,0.3,2.6,1c0.7,0.7,1.1,1.5,1.1,2.5c0,0.6-0.1,1.2-0.4,1.8l-18.9,37.9C934.9,461.3,933.8,462,932.4,462z"/>
	</g>
	<g id="XMLID_1137_">
		<path id="XMLID_1139_" class="st3" d="M398.5,599.5c-10.2,0-18.4,8-18.4,17.7c0,2.8,0.7,5.4,2,7.9v0.1l16.4,23.7l16.5-23.7
			c1.3-2.5,2-5.2,2-7.9C417,607.4,408.7,599.5,398.5,599.5z"/>
		<circle id="XMLID_1138_" class="st6" cx="398.5" cy="616.2" r="7.8"/>
	</g>
	<g id="XMLID_1_">
		<path id="XMLID_8_" class="st0" d="M376,529.6v22.2c0,3.5,2.9,6.4,6.4,6.4h32.2c3.5,0,6.4-2.9,6.4-6.4v-22.2H376z"/>
		<path id="XMLID_7_" class="st3" d="M421.1,522c0-3.5-2.9-6.4-6.4-6.4h-32.2c-3.5,0-6.4,2.9-6.4,6.4v7.7h45.1V522H421.1z"/>
		<line id="XMLID_6_" class="st4" x1="385.5" y1="511.1" x2="385.5" y2="519.9"/>
		<line id="XMLID_5_" class="st4" x1="411.5" y1="511.1" x2="411.5" y2="519.9"/>
		<circle id="XMLID_4_" class="st3" cx="412.4" cy="548.7" r="11"/>
		<line id="XMLID_3_" class="st4" x1="412.4" y1="545.3" x2="412.4" y2="548.7"/>
		<line id="XMLID_2_" class="st4" x1="416" y1="548.7" x2="412.4" y2="548.7"/>
	</g>
	<line id="XMLID_1128_" class="st1" x1="398.5" y1="709.6" x2="398.5" y2="833.6"/>
	<circle id="XMLID_1127_" class="st3" cx="398.5" cy="701.5" r="9.9"/>
	<circle id="XMLID_1126_" class="st3" cx="398.5" cy="766.5" r="9.9"/>
	<circle id="XMLID_1125_" class="st3" cx="398.5" cy="831.5" r="9.9"/>
	<g id="XMLID_14_">
		<polygon id="XMLID_15_" class="st7" points="323.8,901.7 333.5,907.3 323.4,919.8 329.8,925 339.9,912.6 347.5,921 355.9,886.1 		
			"/>
	</g>
	<g>
		<path id="XMLID_201_" class="st10" d="M710.9,925.4H409c-5.5,0-9.9-4.4-9.9-9.9l0,0c0-5.5,4.4-9.9,9.9-9.9h301.9
			c5.5,0,9.9,4.4,9.9,9.9l0,0C720.9,920.9,716.4,925.4,710.9,925.4z"/>
		<g>
			<path class="st8" d="M415,891.6c-0.5,0-0.9-0.2-1.1-0.5s-0.4-0.7-0.4-1.2s0.1-0.9,0.4-1.2c0.2-0.3,0.6-0.5,1.1-0.5h7.6
				c1,0,1.7,0.2,2.1,0.6c0.4,0.4,0.6,1.1,0.6,2.1v3.4c0,1,0,1.8-0.1,2.6s-0.2,1.4-0.4,2c-0.2,0.6-0.5,1.2-0.9,1.8s-0.9,1.2-1.6,1.8
				s-1.5,1.3-2.5,2.1c-1,0.7-2.2,1.6-3.6,2.6c-0.4,0.3-0.9,0.4-1.4,0.2c-0.5-0.1-0.9-0.4-1.2-0.8c-0.1-0.2-0.2-0.4-0.3-0.6
				c-0.1-0.2-0.1-0.5-0.1-0.7s0-0.5,0.1-0.7s0.3-0.4,0.5-0.5c1.2-0.8,2.2-1.6,3.1-2.2c0.8-0.6,1.5-1.2,2.1-1.7s1-0.9,1.3-1.4
				c0.3-0.4,0.6-0.9,0.7-1.3c0.1-0.4,0.2-0.9,0.3-1.5c0-0.5,0-1.1,0-1.9v-1.7c0-0.5-0.2-0.7-0.7-0.7L415,891.6L415,891.6z
				 M423.5,895.3h5.1v-7.7c0-0.6,0.2-1,0.6-1.2c0.4-0.3,0.8-0.4,1.3-0.4s0.9,0.1,1.3,0.4c0.4,0.3,0.6,0.7,0.6,1.2v23.1
				c0,0.6-0.2,1-0.6,1.2c-0.4,0.3-0.8,0.4-1.3,0.4s-0.9-0.1-1.3-0.4c-0.4-0.3-0.6-0.7-0.6-1.2v-11.9h-5.1V895.3z M434.6,887.3
				c0-0.6,0.2-1,0.6-1.2c0.4-0.3,0.8-0.4,1.3-0.4s0.9,0.1,1.3,0.4c0.4,0.3,0.6,0.7,0.6,1.2v24.8c0,0.6-0.2,1-0.6,1.2
				c-0.4,0.3-0.8,0.4-1.3,0.4s-0.9-0.1-1.3-0.4c-0.4-0.3-0.6-0.7-0.6-1.2V887.3z"/>
			<path class="st8" d="M452.8,893.4c0,0.6,0,1.2,0.1,1.8s0.2,1,0.4,1.5c0.2,0.5,0.4,1,0.8,1.4c0.3,0.5,0.7,0.9,1.1,1.4
				c0.6,0.6,1.2,1.2,1.7,1.8c0.6,0.6,1.1,1.1,1.6,1.5c0.4,0.4,0.6,0.8,0.5,1.3s-0.3,0.9-0.6,1.3c-0.1,0.1-0.3,0.3-0.5,0.4
				c-0.2,0.1-0.4,0.2-0.7,0.2c-0.2,0-0.4,0-0.7,0c-0.2-0.1-0.4-0.2-0.6-0.4c-0.4-0.4-0.9-0.8-1.4-1.3s-1-1-1.5-1.6
				c-0.9-0.9-1.4-1.6-1.8-2c-0.3-0.5-0.5-0.8-0.6-1.2l0,0c0,0.2-0.1,0.4-0.2,0.6c-0.1,0.2-0.2,0.4-0.4,0.7c-0.2,0.2-0.4,0.5-0.7,0.9
				c-0.3,0.3-0.6,0.7-1.1,1.2c-0.5,0.6-1,1.1-1.6,1.6c-0.5,0.5-1.1,1.1-1.8,1.7c-0.4,0.4-0.9,0.5-1.4,0.3c-0.5-0.1-0.9-0.4-1.2-0.7
				c-0.3-0.4-0.5-0.8-0.5-1.3s0.2-0.9,0.5-1.3c1.3-1.2,2.6-2.5,3.7-3.7c0.4-0.5,0.8-1,1.1-1.4c0.3-0.5,0.6-0.9,0.8-1.4
				c0.2-0.5,0.3-1,0.4-1.5s0.1-1.1,0.1-1.8v-4.5c0-0.6,0.2-1.1,0.6-1.3s0.9-0.4,1.5-0.4s1,0.1,1.5,0.4s0.6,0.7,0.6,1.3v4.5H452.8z
				 M465.8,912c0,0.6-0.2,1-0.6,1.3s-0.9,0.4-1.5,0.4c-0.5,0-1-0.1-1.4-0.4s-0.6-0.7-0.6-1.3v-24.5c0-0.6,0.2-1,0.6-1.3
				s0.9-0.4,1.4-0.4c0.6,0,1,0.1,1.5,0.4s0.6,0.7,0.6,1.3V912z"/>
			<path class="st8" d="M485.1,901.3v3.8h-4v-3.8H471c-0.5,0-0.8-0.2-1-0.5s-0.3-0.7-0.3-1.2c0-0.4,0.1-0.8,0.3-1.2
				c0.2-0.3,0.6-0.5,1-0.5h24.3c0.5,0,0.8,0.2,1,0.5s0.3,0.7,0.3,1.2s-0.1,0.9-0.3,1.2s-0.6,0.5-1,0.5H485.1z M490.4,903.4
				c1,0,1.7,0.2,2.1,0.6c0.4,0.4,0.6,1.1,0.6,2.1v2.3c0,1-0.2,1.7-0.6,2.1c-0.4,0.4-1.1,0.6-2.1,0.6h-13c-0.3,0-0.5,0.2-0.5,0.5v0.6
				c0,0.3,0.2,0.5,0.5,0.5h15c0.4,0,0.8,0.2,1,0.5s0.3,0.7,0.3,1.1c0,0.4-0.1,0.8-0.3,1.1s-0.5,0.5-1,0.5h-16.7
				c-1,0-1.7-0.2-2.1-0.6c-0.4-0.4-0.6-1.1-0.6-2.1v-2.4c0-1,0.2-1.7,0.6-2.1c0.4-0.4,1.1-0.6,2.1-0.6h13c0.3,0,0.5-0.2,0.5-0.5V907
				c0-0.3-0.2-0.5-0.5-0.5h-14.5c-0.4,0-0.8-0.2-1-0.5s-0.3-0.7-0.3-1.1c0-0.4,0.1-0.8,0.3-1.1s0.5-0.5,1-0.5L490.4,903.4
				L490.4,903.4z M475.8,896.3c-1,0-1.7-0.2-2.1-0.6c-0.4-0.4-0.6-1.1-0.6-2.1V889c0-1,0.2-1.7,0.6-2.1c0.4-0.4,1.1-0.6,2.1-0.6
				h14.6c1,0,1.7,0.2,2.1,0.6c0.4,0.4,0.6,1.1,0.6,2.1v4.6c0,1-0.2,1.7-0.6,2.1c-0.4,0.4-1.1,0.6-2.1,0.6L475.8,896.3L475.8,896.3z
				 M488.3,893c0.5,0,0.7-0.2,0.7-0.7v-1.9c0-0.5-0.2-0.7-0.7-0.7h-10.4c-0.5,0-0.7,0.2-0.7,0.7v1.9c0,0.5,0.2,0.7,0.7,0.7H488.3z"
				/>
			<path class="st8" d="M515.9,893.4c0,0.6,0,1.2,0.1,1.8c0.1,0.5,0.2,1,0.4,1.5s0.4,1,0.8,1.4c0.3,0.5,0.7,0.9,1.1,1.4
				c0.6,0.6,1.2,1.2,1.7,1.8c0.6,0.6,1.1,1.1,1.6,1.5c0.4,0.4,0.6,0.8,0.5,1.3s-0.3,0.9-0.6,1.3c-0.1,0.1-0.3,0.3-0.5,0.4
				c-0.2,0.1-0.4,0.2-0.7,0.2c-0.2,0-0.4,0-0.7,0c-0.2-0.1-0.4-0.2-0.6-0.4c-0.4-0.4-0.9-0.8-1.4-1.3s-1-1-1.5-1.6
				c-0.9-0.9-1.4-1.6-1.7-2s-0.5-0.8-0.6-1.2l0,0c0,0.2-0.1,0.4-0.2,0.6c-0.1,0.2-0.2,0.4-0.4,0.7s-0.4,0.5-0.7,0.9
				c-0.3,0.3-0.6,0.7-1.1,1.2c-0.5,0.6-1,1.1-1.6,1.6s-1.1,1.1-1.8,1.7c-0.4,0.4-0.9,0.5-1.4,0.3c-0.5-0.1-0.9-0.4-1.2-0.7
				c-0.3-0.4-0.5-0.8-0.5-1.3s0.2-0.9,0.5-1.3c1.3-1.2,2.6-2.5,3.7-3.7c0.4-0.5,0.8-1,1.1-1.4c0.3-0.5,0.6-0.9,0.8-1.4
				s0.3-1,0.4-1.5s0.1-1.1,0.1-1.8V889c0-0.6,0.2-1.1,0.6-1.3c0.4-0.2,0.9-0.4,1.5-0.4s1,0.1,1.5,0.4s0.6,0.7,0.6,1.3v4.4H515.9z
				 M531.2,895.2c0.5,0,0.9,0.2,1.1,0.5c0.2,0.3,0.4,0.8,0.4,1.2c0,0.5-0.1,0.9-0.4,1.3c-0.2,0.4-0.6,0.5-1.1,0.5h-3V912
				c0,0.6-0.2,1-0.6,1.3s-0.9,0.4-1.4,0.4s-1-0.1-1.4-0.4s-0.6-0.7-0.6-1.3v-24.5c0-0.6,0.2-1,0.6-1.3s0.9-0.4,1.4-0.4
				s1,0.1,1.4,0.4s0.6,0.7,0.6,1.3v7.7H531.2z"/>
			<path class="st8" d="M534.4,897.1c0-3.2,0.6-5.6,1.9-7.2c1.3-1.7,3.2-2.5,5.8-2.5s4.5,0.8,5.8,2.5s1.9,4.1,1.9,7.2
				c0,3.2-0.6,5.6-1.9,7.2c-1.3,1.7-3.2,2.5-5.8,2.5s-4.5-0.8-5.8-2.5C535,902.7,534.4,900.3,534.4,897.1z M545.9,897.1
				c0-2-0.3-3.6-0.8-4.6c-0.6-1-1.5-1.6-2.9-1.6s-2.4,0.5-2.9,1.6c-0.6,1-0.8,2.6-0.8,4.6s0.3,3.6,0.8,4.6c0.6,1,1.5,1.6,2.9,1.6
				s2.4-0.5,2.9-1.6S545.9,899.1,545.9,897.1z M557.9,912c0,0.6-0.2,1-0.6,1.3s-0.9,0.4-1.5,0.4c-0.5,0-1-0.1-1.4-0.4
				s-0.6-0.7-0.6-1.3v-24.5c0-0.6,0.2-1,0.6-1.3s0.9-0.4,1.4-0.4c0.6,0,1,0.1,1.5,0.4s0.6,0.7,0.6,1.3V912z"/>
			<path class="st8" d="M563.2,911.1c-0.5,0-0.9-0.2-1.1-0.5c-0.2-0.3-0.4-0.7-0.4-1.2s0.1-0.9,0.4-1.2c0.2-0.3,0.6-0.5,1.1-0.5
				h24.2c0.5,0,0.9,0.2,1.1,0.5c0.2,0.3,0.4,0.8,0.4,1.2c0,0.5-0.1,0.9-0.4,1.2c-0.2,0.3-0.6,0.5-1.1,0.5H563.2z M569.2,893.9h14.3
				c0.5,0,0.9,0.2,1.1,0.5c0.2,0.3,0.4,0.7,0.4,1.2c0,0.4-0.1,0.8-0.4,1.2c-0.2,0.3-0.6,0.5-1.1,0.5h-14.3v2.2
				c0,0.5,0.2,0.7,0.7,0.7h14.4c0.5,0,0.9,0.2,1.1,0.5c0.2,0.3,0.4,0.7,0.4,1.2s-0.1,0.9-0.4,1.2c-0.2,0.3-0.6,0.5-1.1,0.5h-16.4
				c-1,0-1.7-0.2-2.1-0.6c-0.4-0.4-0.6-1.1-0.6-2.1v-10.8c0-1,0.2-1.7,0.6-2.1c0.4-0.4,1.1-0.6,2.1-0.6h15.9c0.5,0,0.9,0.2,1.1,0.5
				c0.2,0.3,0.4,0.7,0.4,1.2s-0.1,0.9-0.4,1.2c-0.2,0.3-0.6,0.5-1.1,0.5h-13.9c-0.5,0-0.7,0.2-0.7,0.7V893.9z"/>
			<path class="st8" d="M602.2,894.3h6.1v-5c0-0.6,0.2-1,0.6-1.3s0.9-0.4,1.4-0.4s1,0.1,1.4,0.4s0.6,0.7,0.6,1.3v14.4
				c0,1-0.2,1.7-0.6,2.1c-0.4,0.4-1.1,0.6-2.1,0.6h-8.8c-1,0-1.7-0.2-2.1-0.6s-0.6-1.1-0.6-2.1v-14.4c0-0.6,0.2-1,0.6-1.3
				s0.9-0.4,1.4-0.4s1,0.1,1.4,0.4s0.6,0.7,0.6,1.3L602.2,894.3L602.2,894.3z M607.6,902.9c0.5,0,0.7-0.2,0.7-0.7v-4.5h-6.1v4.5
				c0,0.5,0.2,0.7,0.7,0.7H607.6z M623.4,895.2c0.5,0,0.9,0.2,1.1,0.5c0.2,0.3,0.4,0.8,0.4,1.2c0,0.5-0.1,0.9-0.4,1.3
				c-0.2,0.4-0.6,0.5-1.1,0.5h-3V912c0,0.6-0.2,1-0.6,1.3s-0.9,0.4-1.4,0.4s-1-0.1-1.4-0.4s-0.6-0.7-0.6-1.3v-24.5
				c0-0.6,0.2-1,0.6-1.3s0.9-0.4,1.4-0.4s1,0.1,1.4,0.4s0.6,0.7,0.6,1.3v7.7H623.4z"/>
			<path class="st8" d="M627,911.1c-0.5,0-0.9-0.2-1.1-0.5c-0.2-0.3-0.4-0.7-0.4-1.2s0.1-0.9,0.4-1.2c0.2-0.3,0.6-0.5,1.1-0.5h10v-6
				h4.1v6h10c0.5,0,0.9,0.2,1.1,0.5c0.2,0.3,0.4,0.7,0.4,1.2s-0.1,0.9-0.4,1.2c-0.2,0.3-0.6,0.5-1.1,0.5H627z M646.3,887.4
				c1,0,1.7,0.2,2.1,0.6c0.4,0.4,0.6,1.1,0.6,2.1v4.3c0,1-0.2,1.7-0.6,2.1c-0.4,0.4-1.1,0.6-2.1,0.6h-12.4c-0.5,0-0.7,0.2-0.7,0.7
				v1.4c0,0.5,0.2,0.7,0.7,0.7h14.3c0.5,0,0.9,0.2,1.1,0.5c0.2,0.3,0.4,0.7,0.4,1.2s-0.1,0.9-0.4,1.2c-0.2,0.3-0.6,0.5-1.1,0.5
				h-16.4c-1,0-1.7-0.2-2.1-0.6c-0.4-0.4-0.6-1.1-0.6-2.1v-4.3c0-1,0.2-1.7,0.6-2.1s1.1-0.6,2.1-0.6h12.4c0.5,0,0.7-0.2,0.7-0.7
				v-1.3c0-0.5-0.2-0.7-0.7-0.7h-13.8c-0.5,0-0.9-0.2-1.1-0.5c-0.2-0.3-0.4-0.7-0.4-1.2s0.1-0.9,0.4-1.2c0.2-0.3,0.6-0.5,1.1-0.5
				h15.9V887.4z"/>
			<path class="st8" d="M656.2,891.4c-0.5,0-0.9-0.2-1.1-0.5c-0.2-0.3-0.4-0.7-0.4-1.2s0.1-0.9,0.4-1.2c0.2-0.3,0.6-0.5,1.1-0.5h9.6
				c1,0,1.7,0.2,2.1,0.6c0.4,0.4,0.6,1.1,0.6,2.1v3.5c0,1.3-0.1,2.5-0.4,3.5s-0.8,2-1.6,2.9s-1.9,1.9-3.4,3s-3.4,2.3-5.8,3.8
				c-0.4,0.3-0.9,0.3-1.4,0.1s-0.8-0.5-1.1-0.8c-0.3-0.4-0.4-0.8-0.4-1.3s0.2-0.9,0.7-1.2c1.5-0.9,2.7-1.6,3.7-2.3s1.9-1.3,2.6-1.8
				s1.2-1,1.6-1.5c0.4-0.4,0.7-0.9,0.9-1.4s0.3-0.9,0.4-1.4c0.1-0.5,0.1-1.1,0.1-1.7v-1.8c0-0.5-0.2-0.7-0.7-0.7h-7.5L656.2,891.4
				L656.2,891.4z M680,895.2c0.5,0,0.9,0.2,1.1,0.5c0.2,0.3,0.4,0.8,0.4,1.2c0,0.5-0.1,0.9-0.4,1.3c-0.2,0.4-0.6,0.5-1.1,0.5h-3V912
				c0,0.6-0.2,1-0.6,1.3s-0.9,0.4-1.4,0.4s-1-0.1-1.4-0.4s-0.6-0.7-0.6-1.3v-24.5c0-0.6,0.2-1,0.6-1.3s0.9-0.4,1.4-0.4
				s1,0.1,1.4,0.4s0.6,0.7,0.6,1.3v7.7H680z"/>
			<path class="st8" d="M685.2,891.4c-0.5,0-0.9-0.2-1.1-0.5c-0.2-0.3-0.4-0.7-0.4-1.2s0.1-0.9,0.4-1.2c0.2-0.3,0.6-0.5,1.1-0.5h9.6
				c1,0,1.7,0.2,2.1,0.6c0.4,0.4,0.6,1.1,0.6,2.1v3.6c0,0.9-0.1,1.7-0.2,2.4c-0.1,0.7-0.3,1.4-0.6,2.1s-0.7,1.3-1.2,1.9
				c-0.5,0.6-1.2,1.3-2,2s-1.8,1.4-3,2.2s-2.6,1.7-4.2,2.7c-0.4,0.3-0.9,0.3-1.4,0.1s-0.8-0.5-1.1-0.8s-0.4-0.8-0.4-1.3
				s0.2-0.9,0.7-1.2c1.5-0.9,2.7-1.6,3.7-2.3s1.9-1.3,2.6-1.8s1.2-1,1.6-1.5c0.4-0.4,0.7-0.9,0.9-1.4s0.3-0.9,0.4-1.4
				c0.1-0.5,0.1-1.1,0.1-1.7v-1.9c0-0.5-0.2-0.7-0.7-0.7h-7.5L685.2,891.4L685.2,891.4z M706.7,912c0,0.6-0.2,1-0.6,1.3
				s-0.9,0.4-1.5,0.4c-0.5,0-1-0.1-1.4-0.4s-0.6-0.7-0.6-1.3v-24.5c0-0.6,0.2-1,0.6-1.3s0.9-0.4,1.4-0.4c0.6,0,1,0.1,1.5,0.4
				s0.6,0.7,0.6,1.3V912z"/>
		</g>
	</g>
	<g id="XMLID_10_">
		<polygon id="XMLID_11_" class="st7" points="316.9,984 326.6,989.6 316.5,1002.1 322.9,1007.3 333,994.9 340.6,1003.3 349,968.4 
					"/>
	</g>
	<path id="XMLID_9_" class="st10" d="M568.9,1007.7H409c-5.5,0-9.9-4.4-9.9-9.9l0,0c0-5.5,4.4-9.9,9.9-9.9h159.9
		c5.5,0,9.9,4.4,9.9,9.9l0,0C578.9,1003.2,574.4,1007.7,568.9,1007.7z"/>
	<g>
		<path class="st8" d="M419.9,984.1c-1.1,0-2.1-0.2-3-0.5s-1.5-0.8-2.1-1.5s-0.9-1.4-1.2-2.2s-0.4-1.8-0.4-2.8s0.1-2,0.4-2.8
			c0.3-0.9,0.7-1.6,1.2-2.2c0.5-0.6,1.2-1.1,2.1-1.5s1.8-0.5,3-0.5s2.1,0.2,3,0.5s1.5,0.8,2.1,1.5c0.5,0.6,0.9,1.4,1.2,2.2
			c0.3,0.9,0.4,1.8,0.4,2.8s-0.1,2-0.4,2.8s-0.7,1.6-1.2,2.2s-1.2,1.1-2.1,1.5S421,984.1,419.9,984.1z M419.9,973.3
			c-0.5,0-1,0.1-1.4,0.3s-0.7,0.5-0.9,0.8s-0.4,0.7-0.5,1.2c-0.1,0.4-0.2,0.9-0.2,1.4s0.1,1,0.2,1.4s0.3,0.8,0.5,1.2
			s0.6,0.6,0.9,0.8c0.4,0.2,0.8,0.3,1.4,0.3c1,0,1.8-0.4,2.3-1.1c0.5-0.7,0.7-1.6,0.7-2.6s-0.2-1.9-0.7-2.6
			C421.7,973.6,420.9,973.3,419.9,973.3z M438.6,995.6c0,1-0.2,1.7-0.6,2.1c-0.4,0.4-1.1,0.6-2.1,0.6h-14.6c-1,0-1.7-0.2-2.1-0.6
			c-0.4-0.4-0.6-1.1-0.6-2.1v-8.1c0-0.6,0.2-1,0.6-1.2s0.9-0.4,1.4-0.4s1,0.1,1.4,0.4s0.6,0.7,0.6,1.2v2.1h12.1v-2.1
			c0-0.6,0.2-1,0.6-1.2s0.9-0.4,1.4-0.4s1,0.1,1.4,0.4s0.6,0.7,0.6,1.2L438.6,995.6L438.6,995.6z M433.8,994.9
			c0.5,0,0.7-0.2,0.7-0.7v-1.4h-12.1v1.4c0,0.5,0.2,0.7,0.7,0.7H433.8z M432.2,975.3h2.6v-5.1c0-0.6,0.2-1,0.6-1.2
			c0.4-0.3,0.8-0.4,1.3-0.4s0.9,0.1,1.3,0.4c0.4,0.3,0.6,0.7,0.6,1.2V983c0,0.6-0.2,1-0.6,1.2c-0.4,0.3-0.8,0.4-1.3,0.4
			s-0.9-0.1-1.3-0.4c-0.4-0.3-0.6-0.7-0.6-1.2v-4.3h-2.6v4.2c0,0.6-0.2,1-0.6,1.2c-0.4,0.3-0.8,0.4-1.3,0.4s-0.9-0.1-1.3-0.4
			c-0.4-0.3-0.6-0.7-0.6-1.2v-12.5c0-0.6,0.2-1,0.6-1.2c0.4-0.3,0.8-0.4,1.3-0.4s0.9,0.1,1.3,0.4c0.4,0.3,0.6,0.7,0.6,1.2V975.3z"/>
		<path class="st8" d="M454.5,974.2c-0.5,0-0.7,0.2-0.7,0.7v10c0,0.5,0.2,0.7,0.7,0.7c1.8,0,3.5,0,5.2-0.1s3.3-0.3,4.8-0.5
			c0.5-0.1,0.9,0.1,1.2,0.4s0.5,0.7,0.5,1.2s0,0.9-0.2,1.3s-0.5,0.6-1,0.7c-0.7,0.1-1.4,0.2-2.2,0.2c-0.8,0.1-1.7,0.1-2.7,0.2
			c-1,0.1-2.2,0.1-3.4,0.1c-1.3,0-2.7,0-4.3,0c-1,0-1.7-0.2-2.1-0.6c-0.4-0.4-0.6-1.1-0.6-2.1v-13.2c0-1,0.2-1.7,0.6-2.1
			c0.4-0.4,1.1-0.6,2.1-0.6h10.1c0.5,0,0.9,0.2,1.1,0.5s0.4,0.8,0.4,1.2c0,0.5-0.1,0.9-0.4,1.2c-0.2,0.3-0.6,0.5-1.1,0.5h-8V974.2z
			 M474.8,978c0.5,0,0.9,0.2,1.1,0.5s0.4,0.8,0.4,1.2s-0.1,0.9-0.4,1.3s-0.6,0.5-1.1,0.5h-3v13.2c0,0.6-0.2,1-0.6,1.3
			s-0.9,0.4-1.4,0.4s-1-0.1-1.4-0.4s-0.6-0.7-0.6-1.3v-24.5c0-0.6,0.2-1,0.6-1.3s0.9-0.4,1.4-0.4s1,0.1,1.4,0.4s0.6,0.7,0.6,1.3v7.7
			L474.8,978L474.8,978z"/>
		<path class="st8" d="M478.4,986.7c-0.5,0-0.9-0.2-1.1-0.5s-0.4-0.7-0.4-1.2s0.1-0.9,0.4-1.2c0.2-0.3,0.6-0.5,1.1-0.5h24.2
			c0.5,0,0.9,0.2,1.1,0.5s0.4,0.7,0.4,1.2c0,0.4-0.1,0.8-0.4,1.2c-0.2,0.3-0.6,0.5-1.1,0.5H493v3.8c0,0.6-0.2,1-0.6,1.2
			s-0.9,0.4-1.5,0.4s-1-0.1-1.4-0.4c-0.4-0.2-0.6-0.6-0.6-1.2v-3.8H478.4z M499.7,994.7c0.5,0,0.9,0.2,1.1,0.5s0.4,0.7,0.4,1.2
			s-0.1,0.9-0.4,1.2c-0.2,0.3-0.6,0.5-1.1,0.5h-16.5c-1,0-1.7-0.2-2.1-0.6c-0.4-0.4-0.6-1.1-0.6-2.1v-5c0-0.6,0.2-1,0.6-1.3
			s0.9-0.4,1.5-0.4c0.5,0,1,0.1,1.4,0.4s0.6,0.7,0.6,1.3v3.4c0,0.5,0.2,0.7,0.7,0.7h14.4V994.7z M480.5,975.3c0-1,0.2-1.9,0.7-2.7
			c0.5-0.7,1.1-1.4,2-1.9s1.9-0.9,3.2-1.1c1.2-0.2,2.6-0.4,4.2-0.4s3,0.1,4.2,0.4c1.2,0.2,2.3,0.6,3.2,1.1c0.9,0.5,1.5,1.1,2,1.9
			c0.5,0.7,0.7,1.6,0.7,2.7c0,1-0.2,1.9-0.7,2.7c-0.5,0.7-1.1,1.4-2,1.9s-1.9,0.9-3.2,1.1c-1.2,0.2-2.6,0.4-4.2,0.4s-3-0.1-4.2-0.4
			c-1.2-0.2-2.3-0.6-3.2-1.1c-0.9-0.5-1.5-1.1-2-1.9C480.7,977.2,480.5,976.3,480.5,975.3z M496.5,975.3c0-0.8-0.5-1.4-1.4-1.9
			s-2.4-0.7-4.6-0.7c-2.1,0-3.7,0.2-4.6,0.7s-1.4,1.1-1.4,1.9s0.5,1.5,1.4,1.9c0.9,0.5,2.4,0.7,4.6,0.7c2.1,0,3.7-0.2,4.6-0.7
			C496,976.8,496.5,976.1,496.5,975.3z"/>
		<path class="st8" d="M506.7,993.9c-0.5,0-0.9-0.2-1.1-0.5s-0.4-0.7-0.4-1.2s0.1-0.9,0.4-1.2c0.2-0.3,0.6-0.5,1.1-0.5h10v-6h4.1v6
			h10c0.5,0,0.9,0.2,1.1,0.5c0.2,0.3,0.4,0.7,0.4,1.2s-0.1,0.9-0.4,1.2c-0.2,0.3-0.6,0.5-1.1,0.5H506.7z M526,970.2
			c1,0,1.7,0.2,2.1,0.6c0.4,0.4,0.6,1.1,0.6,2.1v4.3c0,1-0.2,1.7-0.6,2.1c-0.4,0.4-1.1,0.6-2.1,0.6h-12.4c-0.5,0-0.7,0.2-0.7,0.7
			v1.4c0,0.5,0.2,0.7,0.7,0.7H528c0.5,0,0.9,0.2,1.1,0.5s0.4,0.7,0.4,1.2s-0.1,0.9-0.4,1.2c-0.2,0.3-0.6,0.5-1.1,0.5h-16.4
			c-1,0-1.7-0.2-2.1-0.6c-0.4-0.4-0.6-1.1-0.6-2.1v-4.3c0-1,0.2-1.7,0.6-2.1c0.4-0.4,1.1-0.6,2.1-0.6H524c0.5,0,0.7-0.2,0.7-0.7
			v-1.3c0-0.5-0.2-0.7-0.7-0.7h-13.8c-0.5,0-0.9-0.2-1.1-0.5s-0.4-0.7-0.4-1.2s0.1-0.9,0.4-1.2c0.2-0.3,0.6-0.5,1.1-0.5H526V970.2z"
			/>
		<path class="st8" d="M535.1,993.9c-0.5,0-0.9-0.2-1.1-0.5c-0.2-0.3-0.4-0.7-0.4-1.2s0.1-0.9,0.4-1.2s0.6-0.5,1.1-0.5h24.2
			c0.5,0,0.9,0.2,1.1,0.5c0.2,0.3,0.4,0.8,0.4,1.2c0,0.5-0.1,0.9-0.4,1.2c-0.2,0.3-0.6,0.5-1.1,0.5H535.1z M541.9,974
			c-0.5,0-0.7,0.2-0.7,0.7v6.2c0,0.5,0.2,0.7,0.7,0.7h14c0.5,0,0.9,0.2,1.1,0.5c0.2,0.3,0.4,0.7,0.4,1.2s-0.1,0.9-0.4,1.2
			c-0.2,0.3-0.6,0.5-1.1,0.5h-16.2c-1,0-1.7-0.2-2.1-0.6c-0.4-0.4-0.6-1.1-0.6-2.1v-9.2c0-1,0.2-1.7,0.6-2.1
			c0.4-0.4,1.1-0.6,2.1-0.6h15.9c0.5,0,0.9,0.2,1.1,0.5c0.2,0.3,0.4,0.7,0.4,1.2s-0.1,0.9-0.4,1.2c-0.2,0.3-0.6,0.5-1.1,0.5h-13.7
			V974z"/>
	</g>
</g>
</svg>
