<?xml version="1.0" encoding="utf-8"?>
<!-- Generator: Adobe Illustrator 16.0.0, SVG Export Plug-In . SVG Version: 6.00 Build 0)  -->
<!DOCTYPE svg PUBLIC "-//W3C//DTD SVG 1.1//EN" "http://www.w3.org/Graphics/SVG/1.1/DTD/svg11.dtd">
<svg version="1.1" id="Layer_1" xmlns="http://www.w3.org/2000/svg" xmlns:xlink="http://www.w3.org/1999/xlink" x="0px" y="0px"
	 width="30px" height="30px" viewBox="0 0 340 200" enable-background="new 0 0 340 200" xml:space="preserve">
<path fill="none" d="M338.031,101.991c0,50.178-74.963,90.863-167.431,90.863c-92.471,0-167.434-40.686-167.434-90.863
	c0-50.184,74.963-90.869,167.434-90.869C263.068,11.122,338.031,51.808,338.031,101.991z"/>
<ellipse fill="none" cx="171.299" cy="101.993" rx="161.066" ry="84.674"/>
<path fill="#FFFFFF" stroke="#FFFFFF" stroke-miterlimit="10" d="M171.299,34.906l-10.082,0.802c0,0-4.292-9.333-5-10.333
	s-1.458-2.625-2-0.375s-2.292,26.063-2.292,26.063S151.175,59.75,146.55,66s-8.438,8.75-10.688,9.25s-15.813,2.375-26.438-5.313
	s-8.438-16.375-7.813-20.5s7.375-14.75,13.063-19.563c0,0-30.313,7.625-44.5,14.813s-25.75,13.063-38.313,26
	S17.425,98.313,18.175,104s1.813,13.813,9.938,24.688s25,23.125,25,23.125S89.488,170.75,93.8,169.188
	c0,0-12.813-12.625-16.563-23.313s-2.5-21.75,5-25.813s23.188,0.625,31.25,7.063s11.625,9.25,11.625,9.25s6.375-8.063,7.313-8.688
	s5.688-4.438,10.438-0.625s9.313,8.625,14.25,17.125s14.186,25.875,14.186,25.875V34.906z"/>
<path fill="#FFFFFF" stroke="#FFFFFF" stroke-miterlimit="10" d="M170.2,34.906l10.087,0.802c0,0,4.293-9.333,5-10.333
	c0.709-1,1.459-2.625,2-0.375c0.542,2.25,2.292,26.063,2.292,26.063s0.75,8.688,5.375,14.938s8.438,8.75,10.688,9.25
	s15.813,2.375,26.438-5.313s8.438-16.375,7.813-20.5s-7.375-14.75-13.063-19.563c0,0,30.313,7.625,44.5,14.813
	s25.75,13.063,38.313,26S324.079,98.313,323.329,104s-1.813,13.813-9.938,24.688s-25,23.125-25,23.125s-36.375,18.938-40.688,17.375
	c0,0,12.813-12.625,16.563-23.313s2.5-21.75-5-25.813s-23.188,0.625-31.25,7.063s-11.625,9.25-11.625,9.25s-6.375-8.063-7.313-8.688
	s-5.688-4.438-10.438-0.625s-9.313,8.625-14.25,17.125S170.2,170.063,170.2,170.063V34.906z"/>
</svg>
