<?xml version="1.0" encoding="utf-8"?>
<!-- Generator: Adobe Illustrator 24.1.1, SVG Export Plug-In . SVG Version: 6.00 Build 0)  -->
<svg version="1.1" id="Layer_1" xmlns="http://www.w3.org/2000/svg" xmlns:xlink="http://www.w3.org/1999/xlink" x="0px" y="0px"
	 viewBox="0 0 1918 110" style="enable-background:new 0 0 1918 110;" xml:space="preserve">
<style type="text/css">
	.st0{fill:#5E62D1;}
</style>
<path class="st0" d="M-13,102c0,0,12.5-10.5,42.5-0.5c0,0,4,5,21-6c0,0,2-7,25-8s28-6,28-6s7-4,14-3s16-4,16-4s4,1,13-4c0,0,2-2,8-2
	c0,0,12,1,13-7s46-8,50-4s11,2,11,2s5-3,10-1s6-3,10-2s9,1,17-2s17,0,17,0s13,4,26-3c0,0,20,2,20-3s19,0,19,0s8,2,12-4s21,1,24,1
	s17,5,25-5s20-2,26-4s16,3,25-4c0,0,7-3,16-3c0,0,6,1,12-5s21,0,39,0c0,0,41-5,45,1c0,0,7,3,17,0s8,1,17,2s57-5,63,2c0,0,2,4,17-1
	s18,3,18,3s12,3,22,0s11,5,11,5s11,4,17-3s16,6,31,5s17-3,30,9c0,0,17,3,29,10c0,0,13,4,32,1c0,0,14-1,18,4c0,0,12-4,21-3s26-4,38,4
	c0,0,11,3,16,2c0,0,8-1,21,3s18-1,18-1s11-1,19,2s24,3,25-7s20,5,30,0s9,0,9,0s3,3,18-2s29,0,40-9s12,1,30-5s36,6,42,2c0,0,7,3,18-3
	c0,0,3-3,10,2c0,0,6,2,19-4c0,0,6-5,34,2c0,0,5,5,25-5c0,0,14-5,26-3s27-3,27-3s6-2,9,0s4-2,11-1s13,6,19,4s18,0,25,1s4,8,30,4
	s21,3,37,1s7-6,35,2s12-1,35,2s34,10,34,10s11,6,32,6c0,0,3-1,12,3c0,0,7.41,0,18.67,2.68c0.44,0.1,0.88,0.21,1.33,0.32
	c12,3,6-7,20,4c0,0,8,5,32,3c0,0,7,7,25,6s22,10,26,9s16,3,24-3s30-13,36-9s33,6,40,3s16,4,16,6s22,11,33-2v-86h-1944L-13,102z"/>
</svg>
