<?xml version="1.0" encoding="utf-8"?>
<!-- Generator: Adobe Illustrator 16.0.0, SVG Export Plug-In . SVG Version: 6.00 Build 0)  -->
<!DOCTYPE svg PUBLIC "-//W3C//DTD SVG 1.1//EN" "http://www.w3.org/Graphics/SVG/1.1/DTD/svg11.dtd">
<svg version="1.1" id="Capa_1" xmlns="http://www.w3.org/2000/svg" xmlns:xlink="http://www.w3.org/1999/xlink" x="0px" y="0px"
	 width="283.46px" height="226.77px" viewBox="0 0 283.46 226.77" enable-background="new 0 0 283.46 226.77" xml:space="preserve">
<g>
	<g>
		<path fill="#3F51A7" d="M160.627,11.338h-37.795c-2.086,0-3.779,1.693-3.779,3.779c0,2.087,1.693,3.78,3.779,3.78h37.795
			c2.087,0,3.779-1.693,3.779-3.78C164.407,13.031,162.714,11.338,160.627,11.338z"/>
	</g>
</g>
<g>
	<g>
		<path fill="#3F51A7" d="M187.083,11.338h-3.779c-2.086,0-3.779,1.693-3.779,3.779c0,2.087,1.693,3.78,3.779,3.78h3.779
			c2.086,0,3.779-1.693,3.779-3.78C190.863,13.031,189.169,11.338,187.083,11.338z"/>
	</g>
</g>
<g>
	<g>
		<path fill="#3F51A7" d="M146.423,192.754h-9.384c-5.749,0-10.427,4.68-10.427,10.428v1.826c0,5.748,4.679,10.424,10.424,10.424
			h9.384c5.749,0,10.427-4.676,10.427-10.424v-1.826C156.847,197.434,152.169,192.754,146.423,192.754z M149.289,205.008
			c0,1.579-1.284,2.864-2.864,2.864h-9.385c-1.583,0-2.869-1.285-2.869-2.864v-1.826c0-1.583,1.285-2.869,2.869-2.869h9.381
			c1.584,0,2.868,1.285,2.868,2.869V205.008z"/>
	</g>
</g>
<g>
	<g>
		<path fill="#3F51A7" d="M192.322,0H91.141c-7.532,0-13.663,6.13-13.663,13.663v199.443c0,7.533,6.13,13.663,13.663,13.663h101.177
			c7.533,0,13.663-6.13,13.663-13.658V13.663C205.982,6.13,199.851,0,192.322,0z M198.422,213.107c0,3.364-2.736,6.104-6.101,6.104
			H91.141c-3.367,0-6.104-2.74-6.104-6.101V13.663c0-3.364,2.736-6.104,6.104-6.104h101.177c3.367,0,6.104,2.74,6.104,6.104
			L198.422,213.107L198.422,213.107z"/>
	</g>
</g>
<g>
	<g>
		<path fill="#3F51A7" d="M202.202,22.677H81.258c-2.086,0-3.779,1.693-3.779,3.779v158.739c0,2.086,1.693,3.779,3.779,3.779
			h120.944c2.086,0,3.779-1.693,3.779-3.779V26.456C205.982,24.37,204.289,22.677,202.202,22.677z M198.422,181.416H85.038V30.237
			h113.385V181.416z"/>
	</g>
</g>
</svg>
