<?xml version="1.0" encoding="utf-8"?>
<!-- Generator: Adobe Illustrator 16.0.0, SVG Export Plug-In . SVG Version: 6.00 Build 0)  -->
<!DOCTYPE svg PUBLIC "-//W3C//DTD SVG 1.1//EN" "http://www.w3.org/Graphics/SVG/1.1/DTD/svg11.dtd">
<svg version="1.1" id="Layer_1" xmlns="http://www.w3.org/2000/svg" xmlns:xlink="http://www.w3.org/1999/xlink" x="0px" y="0px"
	 width="283.46px" height="226.77px" viewBox="0 0 283.46 226.77" enable-background="new 0 0 283.46 226.77" xml:space="preserve">
<g>
	<path fill="#B23F4C" d="M144.292,2.563L141.73,0l-2.563,2.563c-43.56,32.029-66.622,70.465-66.622,111.463
		c0,39.717,23.062,78.152,66.622,111.463l2.563,2.563l2.563-2.563c43.561-33.311,66.621-71.746,66.621-111.463
		C210.914,73.028,187.853,34.592,144.292,2.563 M81.514,114.026c0-30.748,15.375-61.497,43.561-88.402
		c-26.905,55.092-26.905,120.432,1.281,176.804C96.889,175.523,81.514,144.774,81.514,114.026 M141.73,15.374
		c37.154,60.216,37.154,137.087,0,197.303C104.576,152.461,104.576,75.59,141.73,15.374 M158.385,202.427
		c26.905-55.091,28.187-121.712,0-176.804c29.468,26.905,43.561,57.654,43.561,88.402S186.572,175.523,158.385,202.427"/>
</g>
</svg>
