<?xml version="1.0" encoding="utf-8"?>
<!-- Generator: Adobe Illustrator 16.0.0, SVG Export Plug-In . SVG Version: 6.00 Build 0)  -->
<!DOCTYPE svg PUBLIC "-//W3C//DTD SVG 1.1//EN" "http://www.w3.org/Graphics/SVG/1.1/DTD/svg11.dtd">
<svg version="1.1" id="Layer_1" xmlns="http://www.w3.org/2000/svg" xmlns:xlink="http://www.w3.org/1999/xlink" x="0px" y="0px"
	 width="1000px" height="1000px" viewBox="-244 -244 1000 1000" enable-background="new -244 -244 1000 1000" xml:space="preserve">
<g>
	<polygon fill="#B23F4C" points="412.828,111.896 412.828,175.852 460.787,143.874 	"/>
	<path fill="#B23F4C" d="M698.828,6.874h-512v272h512V6.874z M382.828,55.852l132.041,88.022l-132.041,88.022V55.852z
		 M502.828,240.084l-21.211-21.211l21.211-21.211l21.211,21.211L502.828,240.084z M562.828,240.084l-21.211-21.211l21.211-21.211
		l21.211,21.211L562.828,240.084z M622.828,240.084l-21.211-21.211l21.211-21.211l21.212,21.211L622.828,240.084z"/>
	<path fill="#B23F4C" d="M337.828,413.873c0-24.852-20.146-45-45-45h-61c-24.853,0-45,20.148-45,45v105h151V413.873z"/>
	<path fill="#B23F4C" d="M517.828,413.873c0-24.852-20.146-45-45-45h-60c-24.853,0-45,20.148-45,45v105h150V413.873z"/>
	<path fill="#B23F4C" d="M698.828,413.873c0-24.852-21.146-45-46-45h-60c-24.853,0-45,20.148-45,45v105h151V413.873z"/>
	<path fill="#B23F4C" d="M532.828,369.336c13.683-18.377,35.38-30.463,60-30.463h12.246c-6.198-17.438-22.681-30-42.246-30h-60
		c-19.564,0-36.048,12.563-42.246,30h12.246C497.448,338.873,519.146,350.959,532.828,369.336z"/>
	<path fill="#B23F4C" d="M425.074,338.873c-6.198-17.438-22.681-30-42.246-30h-60c-19.564,0-36.048,12.563-42.246,30h12.246
		c24.62,0,46.318,12.086,60,30.463c13.683-18.377,35.38-30.463,60-30.463H425.074z"/>
</g>
<line stroke="#B23F4C" stroke-width="11" stroke-miterlimit="10" x1="-207.829" y1="227.462" x2="171.171" y2="-30.131"/>
<line stroke="#B23F4C" stroke-width="11" stroke-miterlimit="10" x1="-206.014" y1="293.297" x2="163.64" y2="569.869"/>
<path fill="#B23F4C" d="M101.623,523.125"/>
<path fill="#B23F4C" d="M-212.377,264.125"/>
</svg>
