<svg xmlns="http://www.w3.org/2000/svg" width="132" height="131.97" viewBox="0 0 132 131.97">
  <defs>
    <style>
      .cls-1 {
        fill: #3f51a7;
        fill-rule: evenodd;
      }
    </style>
  </defs>
  <path id="Forme_5" data-name="Forme 5" class="cls-1" d="M4876.84,4559.18h0a2.31,2.31,0,1,0,0,4.62h0A2.31,2.31,0,1,0,4876.84,4559.18Zm0,21.41h0a2.315,2.315,0,1,0,0,4.63h0A2.315,2.315,0,0,0,4876.84,4580.59Zm-16.07-53.53a2.311,2.311,0,0,0-2.31,2.31h0a2.315,2.315,0,0,0,4.63,0h0A2.313,2.313,0,0,0,4860.77,4527.06Zm-5.35-10.71h0a2.315,2.315,0,0,0,0,4.63h0A2.315,2.315,0,0,0,4855.42,4516.35Zm16.06,32.12a2.317,2.317,0,0,0-2.31,2.31h0a2.315,2.315,0,1,0,4.63,0h-0.01A2.311,2.311,0,0,0,4871.48,4548.47Zm-10.71,0a2.317,2.317,0,0,0-2.31,2.31h0a2.315,2.315,0,1,0,4.63,0h0A2.32,2.32,0,0,0,4860.77,4548.47Zm5.36-10.71a2.315,2.315,0,1,0,2.31,2.32A2.313,2.313,0,0,0,4866.13,4537.76Zm-10.71,0h0a2.315,2.315,0,0,0,0,4.63h0A2.315,2.315,0,0,0,4855.42,4537.76Zm16.06,32.13a2.311,2.311,0,0,0-2.31,2.31h0a2.315,2.315,0,0,0,4.63,0h-0.01A2.3,2.3,0,0,0,4871.48,4569.89Zm-10.71,0a2.311,2.311,0,0,0-2.31,2.31h0a2.315,2.315,0,0,0,4.63,0h0A2.313,2.313,0,0,0,4860.77,4569.89Zm5.36-10.71a2.31,2.31,0,1,0,2.31,2.31A2.3,2.3,0,0,0,4866.13,4559.18Zm-10.71,0h0a2.31,2.31,0,1,0,0,4.62h0A2.31,2.31,0,1,0,4855.42,4559.18Zm16.06,32.12a2.311,2.311,0,0,0-2.31,2.31h0a2.315,2.315,0,1,0,4.63,0h-0.01A2.3,2.3,0,0,0,4871.48,4591.3Zm-10.71,0a2.311,2.311,0,0,0-2.31,2.31h0a2.315,2.315,0,1,0,4.63,0h0A2.313,2.313,0,0,0,4860.77,4591.3Zm5.36-10.71a2.315,2.315,0,1,0,2.31,2.32A2.313,2.313,0,0,0,4866.13,4580.59Zm-10.71,0h0a2.315,2.315,0,0,0,0,4.63h0A2.315,2.315,0,0,0,4855.42,4580.59Zm10.71,21.42a2.31,2.31,0,1,0,2.31,2.31A2.3,2.3,0,0,0,4866.13,4602.01Zm-10.71,0h0a2.31,2.31,0,1,0,0,4.62h0A2.31,2.31,0,1,0,4855.42,4602.01Zm-16.06-96.37a2.311,2.311,0,0,0-2.31,2.31h0a2.31,2.31,0,1,0,4.62,0h0A2.311,2.311,0,0,0,4839.36,4505.64Zm10.71,21.42a2.3,2.3,0,0,0-2.31,2.31h-0.01a2.315,2.315,0,0,0,4.63,0h0A2.311,2.311,0,0,0,4850.07,4527.06Zm-10.71,0a2.3,2.3,0,0,0-2.31,2.31h0a2.31,2.31,0,0,0,4.62,0h0A2.3,2.3,0,0,0,4839.36,4527.06Zm5.35-10.71a2.315,2.315,0,1,0,2.32,2.31A2.311,2.311,0,0,0,4844.71,4516.35Zm-10.7,0h0a2.315,2.315,0,1,0,0,4.63h0A2.315,2.315,0,0,0,4834.01,4516.35Zm16.06,32.12a2.311,2.311,0,0,0-2.31,2.31h-0.01a2.315,2.315,0,1,0,4.63,0h0A2.317,2.317,0,0,0,4850.07,4548.47Zm-10.71,0a2.311,2.311,0,0,0-2.31,2.31h0a2.31,2.31,0,1,0,4.62,0h0A2.311,2.311,0,0,0,4839.36,4548.47Zm5.35-10.71a2.315,2.315,0,1,0,2.32,2.32A2.32,2.32,0,0,0,4844.71,4537.76Zm-10.7,0h0a2.315,2.315,0,1,0,0,4.63h0A2.315,2.315,0,0,0,4834.01,4537.76Zm16.06,32.13a2.3,2.3,0,0,0-2.31,2.31h-0.01a2.315,2.315,0,0,0,4.63,0h0A2.311,2.311,0,0,0,4850.07,4569.89Zm-10.71,0a2.3,2.3,0,0,0-2.31,2.31h0a2.31,2.31,0,0,0,4.62,0h0A2.3,2.3,0,0,0,4839.36,4569.89Zm5.35-10.71a2.31,2.31,0,1,0,2.32,2.31A2.311,2.311,0,0,0,4844.71,4559.18Zm-10.7,0h0a2.31,2.31,0,1,0,0,4.62h0A2.31,2.31,0,1,0,4834.01,4559.18Zm16.06,32.12a2.3,2.3,0,0,0-2.31,2.31h-0.01a2.315,2.315,0,1,0,4.63,0h0A2.311,2.311,0,0,0,4850.07,4591.3Zm-10.71,0a2.3,2.3,0,0,0-2.31,2.31h0a2.31,2.31,0,1,0,4.62,0h0A2.3,2.3,0,0,0,4839.36,4591.3Zm5.35-10.71a2.315,2.315,0,1,0,2.32,2.32A2.32,2.32,0,0,0,4844.71,4580.59Zm-10.7,0h0a2.315,2.315,0,1,0,0,4.63h0A2.315,2.315,0,0,0,4834.01,4580.59Zm16.06,32.12a2.313,2.313,0,0,0-2.31,2.32h-0.01a2.315,2.315,0,0,0,4.63,0h0A2.32,2.32,0,0,0,4850.07,4612.71Zm-10.71,0a2.313,2.313,0,0,0-2.31,2.32h0a2.31,2.31,0,0,0,4.62,0h0A2.313,2.313,0,0,0,4839.36,4612.71Zm5.35-10.7a2.31,2.31,0,1,0,2.32,2.31A2.311,2.311,0,0,0,4844.71,4602.01Zm-10.7,0h0a2.31,2.31,0,1,0,0,4.62h0A2.31,2.31,0,1,0,4834.01,4602.01Zm-5.36-96.37a2.317,2.317,0,0,0-2.31,2.31h0a2.315,2.315,0,1,0,4.63,0h0A2.326,2.326,0,0,0,4828.65,4505.64Zm-10.7,0a2.32,2.32,0,0,0-2.32,2.31h0a2.315,2.315,0,1,0,4.63,0h0A2.317,2.317,0,0,0,4817.95,4505.64Zm10.7,21.42a2.311,2.311,0,0,0-2.31,2.31h0a2.315,2.315,0,0,0,4.63,0h0A2.32,2.32,0,0,0,4828.65,4527.06Zm-10.7,0a2.313,2.313,0,0,0-2.32,2.31h0a2.315,2.315,0,0,0,4.63,0h0A2.311,2.311,0,0,0,4817.95,4527.06Zm5.35-10.71a2.315,2.315,0,1,0,2.31,2.31A2.3,2.3,0,0,0,4823.3,4516.35Zm-10.71,0h0a2.315,2.315,0,0,0,0,4.63h0A2.315,2.315,0,1,0,4812.59,4516.35Zm16.06,32.12a2.317,2.317,0,0,0-2.31,2.31h0a2.315,2.315,0,1,0,4.63,0h0A2.326,2.326,0,0,0,4828.65,4548.47Zm-10.7,0a2.32,2.32,0,0,0-2.32,2.31h0a2.315,2.315,0,1,0,4.63,0h0A2.317,2.317,0,0,0,4817.95,4548.47Zm5.35-10.71a2.315,2.315,0,1,0,2.31,2.32A2.313,2.313,0,0,0,4823.3,4537.76Zm-10.71,0h0a2.315,2.315,0,0,0,0,4.63h0A2.315,2.315,0,1,0,4812.59,4537.76Zm16.06,32.13a2.311,2.311,0,0,0-2.31,2.31h0a2.315,2.315,0,0,0,4.63,0h0A2.32,2.32,0,0,0,4828.65,4569.89Zm-10.7,0a2.313,2.313,0,0,0-2.32,2.31h0a2.315,2.315,0,0,0,4.63,0h0A2.311,2.311,0,0,0,4817.95,4569.89Zm5.35-10.71a2.31,2.31,0,1,0,2.31,2.31A2.3,2.3,0,0,0,4823.3,4559.18Zm-10.71,0h0a2.31,2.31,0,1,0,0,4.62h0A2.31,2.31,0,1,0,4812.59,4559.18Zm16.06,32.12a2.311,2.311,0,0,0-2.31,2.31h0a2.315,2.315,0,1,0,4.63,0h0A2.32,2.32,0,0,0,4828.65,4591.3Zm-10.7,0a2.313,2.313,0,0,0-2.32,2.31h0a2.315,2.315,0,1,0,4.63,0h0A2.311,2.311,0,0,0,4817.95,4591.3Zm5.35-10.71a2.315,2.315,0,1,0,2.31,2.32A2.313,2.313,0,0,0,4823.3,4580.59Zm-10.71,0h0a2.315,2.315,0,0,0,0,4.63h0A2.315,2.315,0,1,0,4812.59,4580.59Zm16.06,32.12a2.32,2.32,0,0,0-2.31,2.32h0a2.315,2.315,0,0,0,4.63,0h0A2.328,2.328,0,0,0,4828.65,4612.71Zm-10.7,0a2.322,2.322,0,0,0-2.32,2.32h0a2.315,2.315,0,0,0,4.63,0h0A2.32,2.32,0,0,0,4817.95,4612.71Zm5.35-10.7a2.31,2.31,0,1,0,2.31,2.31A2.3,2.3,0,0,0,4823.3,4602.01Zm-10.71,0h0a2.31,2.31,0,1,0,0,4.62h0A2.31,2.31,0,1,0,4812.59,4602.01Zm-5.35-96.37a2.311,2.311,0,0,0-2.31,2.31h0a2.31,2.31,0,1,0,4.62,0h0A2.311,2.311,0,0,0,4807.24,4505.64Zm0,21.42a2.3,2.3,0,0,0-2.31,2.31h0a2.31,2.31,0,0,0,4.62,0h0A2.3,2.3,0,0,0,4807.24,4527.06Zm-10.71,0a2.3,2.3,0,0,0-2.31,2.31h0a2.315,2.315,0,0,0,4.63,0h0A2.32,2.32,0,0,0,4796.53,4527.06Zm5.36-10.71a2.315,2.315,0,1,0,2.31,2.31A2.313,2.313,0,0,0,4801.89,4516.35Zm-10.71,0h0a2.315,2.315,0,1,0,0,4.63h0A2.315,2.315,0,0,0,4791.18,4516.35Zm16.06,32.12a2.311,2.311,0,0,0-2.31,2.31h0a2.31,2.31,0,1,0,4.62,0h0A2.311,2.311,0,0,0,4807.24,4548.47Zm-10.71,0a2.311,2.311,0,0,0-2.31,2.31h0a2.315,2.315,0,1,0,4.63,0h0A2.326,2.326,0,0,0,4796.53,4548.47Zm5.36-10.71a2.315,2.315,0,1,0,2.31,2.32A2.322,2.322,0,0,0,4801.89,4537.76Zm-10.71,0h0a2.315,2.315,0,1,0,0,4.63h0A2.315,2.315,0,0,0,4791.18,4537.76Zm16.06,32.13a2.3,2.3,0,0,0-2.31,2.31h0a2.31,2.31,0,0,0,4.62,0h0A2.3,2.3,0,0,0,4807.24,4569.89Zm-10.71,0a2.3,2.3,0,0,0-2.31,2.31h0a2.315,2.315,0,0,0,4.63,0h0A2.32,2.32,0,0,0,4796.53,4569.89Zm5.36-10.71a2.31,2.31,0,1,0,2.31,2.31A2.313,2.313,0,0,0,4801.89,4559.18Zm-10.71,0h0a2.31,2.31,0,1,0,0,4.62h0A2.31,2.31,0,1,0,4791.18,4559.18Zm16.06,32.12a2.3,2.3,0,0,0-2.31,2.31h0a2.31,2.31,0,1,0,4.62,0h0A2.3,2.3,0,0,0,4807.24,4591.3Zm-10.71,0a2.3,2.3,0,0,0-2.31,2.31h0a2.315,2.315,0,1,0,4.63,0h0A2.32,2.32,0,0,0,4796.53,4591.3Zm5.36-10.71a2.315,2.315,0,1,0,2.31,2.32A2.322,2.322,0,0,0,4801.89,4580.59Zm-10.71,0h0a2.315,2.315,0,1,0,0,4.63h0A2.315,2.315,0,0,0,4791.18,4580.59Zm16.06,32.12a2.313,2.313,0,0,0-2.31,2.32h0a2.31,2.31,0,0,0,4.62,0h0A2.313,2.313,0,0,0,4807.24,4612.71Zm-10.71,0a2.313,2.313,0,0,0-2.31,2.32h0a2.315,2.315,0,0,0,4.63,0h0A2.328,2.328,0,0,0,4796.53,4612.71Zm5.36-10.7a2.31,2.31,0,1,0,2.31,2.31A2.313,2.313,0,0,0,4801.89,4602.01Zm-10.71,0h0a2.31,2.31,0,1,0,0,4.62h0A2.31,2.31,0,1,0,4791.18,4602.01Zm-5.36-74.95a2.311,2.311,0,0,0-2.31,2.31h0a2.315,2.315,0,0,0,4.63,0h0A2.313,2.313,0,0,0,4785.82,4527.06Zm-10.7,0a2.32,2.32,0,0,0-2.32,2.31h0a2.315,2.315,0,0,0,4.63,0h0A2.311,2.311,0,0,0,4775.12,4527.06Zm10.7,21.41a2.317,2.317,0,0,0-2.31,2.31h0a2.315,2.315,0,1,0,4.63,0h0A2.32,2.32,0,0,0,4785.82,4548.47Zm-10.7,0a2.326,2.326,0,0,0-2.32,2.31h0a2.315,2.315,0,1,0,4.63,0h0A2.317,2.317,0,0,0,4775.12,4548.47Zm5.35-10.71a2.315,2.315,0,1,0,2.31,2.32A2.313,2.313,0,0,0,4780.47,4537.76Zm-10.71,0h0a2.315,2.315,0,0,0,0,4.63h0A2.315,2.315,0,1,0,4769.76,4537.76Zm16.06,32.13a2.311,2.311,0,0,0-2.31,2.31h0a2.315,2.315,0,0,0,4.63,0h0A2.313,2.313,0,0,0,4785.82,4569.89Zm-10.7,0a2.32,2.32,0,0,0-2.32,2.31h0a2.315,2.315,0,0,0,4.63,0h0A2.311,2.311,0,0,0,4775.12,4569.89Zm5.35-10.71a2.31,2.31,0,1,0,2.31,2.31A2.3,2.3,0,0,0,4780.47,4559.18Zm-10.71,0h0a2.31,2.31,0,1,0,0,4.62h0A2.31,2.31,0,1,0,4769.76,4559.18Zm16.06,32.12a2.311,2.311,0,0,0-2.31,2.31h0a2.315,2.315,0,1,0,4.63,0h0A2.313,2.313,0,0,0,4785.82,4591.3Zm-10.7,0a2.32,2.32,0,0,0-2.32,2.31h0a2.315,2.315,0,1,0,4.63,0h0A2.311,2.311,0,0,0,4775.12,4591.3Zm5.35-10.71a2.315,2.315,0,1,0,2.31,2.32A2.313,2.313,0,0,0,4780.47,4580.59Zm-10.71,0h0a2.315,2.315,0,0,0,0,4.63h0A2.315,2.315,0,1,0,4769.76,4580.59Zm10.71,21.42a2.31,2.31,0,1,0,2.31,2.31A2.3,2.3,0,0,0,4780.47,4602.01Zm-16.06-53.54a2.311,2.311,0,0,0-2.31,2.31h0a2.31,2.31,0,1,0,4.62,0h0A2.311,2.311,0,0,0,4764.41,4548.47Zm0,21.42a2.3,2.3,0,0,0-2.31,2.31h0a2.31,2.31,0,0,0,4.62,0h0A2.3,2.3,0,0,0,4764.41,4569.89Zm56.58-70.89a65.99,65.99,0,1,0,66,65.99A66.061,66.061,0,0,0,4820.99,4499Zm61.2,75.51a2,2,0,0,0,.54-0.11,62.508,62.508,0,0,1-21.53,38.4,1.928,1.928,0,0,0-.43-0.09,2.3,2.3,0,0,0-2.28,2.19,62.262,62.262,0,0,1-22.21,10.64,2.289,2.289,0,0,0-2.27-2.12h0a2.322,2.322,0,0,0-2.32,2.32,2.151,2.151,0,0,0,.16.76,62.24,62.24,0,0,1-6.87.81,2.267,2.267,0,0,0,.63-1.57,2.31,2.31,0,1,0-4.62,0,2.276,2.276,0,0,0,.82,1.73c-0.28,0-.54.04-0.82,0.04a62.755,62.755,0,0,1-6.61-.36,2.269,2.269,0,0,0,.53-1.41,2.322,2.322,0,0,0-2.32-2.32h0a2.313,2.313,0,0,0-2.31,2.32,2.432,2.432,0,0,0,.16.81,61.816,61.816,0,0,1-6.37-1.43,2.228,2.228,0,0,0-3.63-1.15,62.271,62.271,0,0,1-13.79-6.79,2.33,2.33,0,0,0,1.49-2.15h0a2.306,2.306,0,0,0-4.61-.1,63.275,63.275,0,0,1-11.59-11.3c-0.31-.38-0.59-0.78-0.88-1.18a61.176,61.176,0,0,1-4.87-7.42,2.219,2.219,0,0,0,.53-1.42h0a2.3,2.3,0,0,0-2.31-2.31c-0.02,0-.03.01-0.05,0.01a61.272,61.272,0,0,1-3.1-7.85,2.681,2.681,0,0,0,.11-0.55,2.323,2.323,0,0,0-.67-1.63,62.128,62.128,0,0,1-2.23-16.29c0-.44.06-0.86,0.07-1.29a2.178,2.178,0,0,0,.52.1,2.31,2.31,0,1,0,0-4.62,1.45,1.45,0,0,0-.3.06,62.343,62.343,0,0,1,19.55-39.81,2.3,2.3,0,1,0,3.16-2.84,62.82,62.82,0,0,1,12.86-8.07,2.28,2.28,0,0,0,2.2,1.75,2.322,2.322,0,0,0,2.32-2.32h0a2.327,2.327,0,0,0-.4-1.21,61.68,61.68,0,0,1,49.44,1.9,2.238,2.238,0,0,0,3.01,1.46,62.759,62.759,0,0,1,13.38,9.88c0.24,0.23.5,0.44,0.74,0.68a61.281,61.281,0,0,1,5.68,6.56,2.283,2.283,0,0,0-1.53,2.15h0a2.289,2.289,0,0,0,4.1,1.42,64.7,64.7,0,0,1,3.96,7.05,3.006,3.006,0,0,0-.39-0.08h0a2.315,2.315,0,1,0,0,4.63h0a2.3,2.3,0,0,0,1.96-1.16,62.245,62.245,0,0,1,2.48,7.43,2.32,2.32,0,0,0-1.4,2.12h0a2.313,2.313,0,0,0,2.31,2.32c0.05,0,.1-0.03.15-0.03a62.41,62.41,0,0,1,1.17,11.92c0,1.75-.12,3.47-0.26,5.19a2.24,2.24,0,0,0-1.06-.29,2.3,2.3,0,0,0-2.31,2.31h0A2.3,2.3,0,0,0,4882.19,4574.51Z" transform="translate(-4755 -4499)"/>
</svg>
