<?xml version="1.0" encoding="utf-8"?>
<!-- Generator: Adobe Illustrator 16.0.0, SVG Export Plug-In . SVG Version: 6.00 Build 0)  -->
<!DOCTYPE svg PUBLIC "-//W3C//DTD SVG 1.1//EN" "http://www.w3.org/Graphics/SVG/1.1/DTD/svg11.dtd">
<svg version="1.1" id="Layer_1" xmlns="http://www.w3.org/2000/svg" xmlns:xlink="http://www.w3.org/1999/xlink" x="0px" y="0px"
	 width="132px" height="131.971px" viewBox="0 0 132 131.971" enable-background="new 0 0 132 131.971" xml:space="preserve">
<path id="Forme_5" fill="#B23F4C" d="M121.84,60.18L121.84,60.18c-1.275,0-2.311,1.034-2.311,2.31c0,1.276,1.035,2.311,2.311,2.311
	l0,0c1.275,0,2.311-1.034,2.311-2.311C124.15,61.215,123.115,60.18,121.84,60.18z M121.84,81.591L121.84,81.591
	c-1.278-0.01-2.322,1.02-2.332,2.298c-0.008,1.279,1.021,2.322,2.299,2.332c0.012,0,0.022,0,0.033,0l0,0
	c1.279,0,2.315-1.037,2.315-2.315S123.119,81.59,121.84,81.591L121.84,81.591z M105.77,28.06c-1.275,0.001-2.309,1.035-2.31,2.311
	l0,0c0.009,1.278,1.053,2.308,2.331,2.298c1.266-0.009,2.29-1.032,2.299-2.298l0,0c-0.002-1.277-1.038-2.313-2.315-2.311
	C105.773,28.06,105.771,28.06,105.77,28.06L105.77,28.06z M100.42,17.35L100.42,17.35c-1.278,0.01-2.308,1.053-2.299,2.332
	c0.01,1.266,1.033,2.289,2.299,2.298l0,0c1.279,0,2.314-1.036,2.314-2.315C102.734,18.386,101.699,17.35,100.42,17.35L100.42,17.35z
	 M116.48,49.47c-1.275,0.004-2.307,1.036-2.311,2.311l0,0c-0.01,1.278,1.02,2.322,2.299,2.331c1.278,0.009,2.322-1.02,2.331-2.299
	c0-0.011,0-0.021,0-0.032h-0.01C118.789,50.505,117.756,49.47,116.48,49.47L116.48,49.47z M105.77,49.47
	c-1.273,0.004-2.306,1.036-2.31,2.311l0,0c-0.009,1.278,1.021,2.322,2.298,2.331c1.279,0.009,2.322-1.02,2.332-2.299
	c0-0.011,0-0.021,0-0.032l0,0C108.084,50.504,107.047,49.47,105.77,49.47L105.77,49.47z M111.13,38.76
	c-1.278-0.003-2.317,1.032-2.319,2.311c-0.004,1.278,1.031,2.317,2.31,2.319c1.278,0.003,2.317-1.031,2.319-2.31l0,0
	c0.005-1.277-1.027-2.316-2.305-2.321C111.133,38.76,111.131,38.76,111.13,38.76L111.13,38.76z M100.42,38.76L100.42,38.76
	c-1.278,0.01-2.308,1.053-2.299,2.332c0.01,1.266,1.033,2.289,2.299,2.298l0,0c1.279,0,2.315-1.036,2.315-2.315
	C102.735,39.797,101.699,38.76,100.42,38.76L100.42,38.76z M116.48,70.89c-1.275,0.001-2.311,1.035-2.311,2.311l0,0
	c0.01,1.278,1.053,2.308,2.332,2.298c1.266-0.009,2.289-1.032,2.298-2.298h-0.01c0.006-1.271-1.019-2.305-2.29-2.311
	C116.494,70.89,116.486,70.89,116.48,70.89L116.48,70.89z M105.77,70.89c-1.275,0.001-2.309,1.035-2.31,2.311l0,0
	c0.009,1.278,1.053,2.308,2.331,2.298c1.266-0.009,2.29-1.032,2.299-2.298l0,0c-0.002-1.277-1.038-2.313-2.315-2.311
	C105.773,70.89,105.771,70.89,105.77,70.89L105.77,70.89z M111.13,60.18c-1.276,0-2.31,1.034-2.31,2.311
	c0,1.275,1.033,2.31,2.31,2.31s2.31-1.034,2.31-2.31c0.006-1.271-1.019-2.305-2.289-2.311C111.144,60.18,111.137,60.18,111.13,60.18
	L111.13,60.18z M100.42,60.18L100.42,60.18c-1.275,0-2.311,1.034-2.311,2.311c0,1.275,1.035,2.31,2.311,2.31l0,0
	c1.275,0,2.311-1.034,2.311-2.311C102.73,61.215,101.695,60.18,100.42,60.18L100.42,60.18L100.42,60.18z M116.48,92.301
	c-1.275,0.001-2.311,1.035-2.311,2.311l0,0c-0.01,1.278,1.02,2.322,2.299,2.331c1.278,0.009,2.322-1.02,2.331-2.299
	c0-0.011,0-0.021,0-0.032h-0.01c0.007-1.271-1.019-2.305-2.289-2.312C116.494,92.3,116.486,92.3,116.48,92.301L116.48,92.301z
	 M105.77,92.301c-1.275,0.001-2.309,1.035-2.31,2.311l0,0c-0.009,1.278,1.021,2.322,2.298,2.331c1.279,0.009,2.322-1.02,2.332-2.299
	c0-0.011,0-0.021,0-0.032l0,0c-0.001-1.277-1.037-2.313-2.314-2.312C105.773,92.3,105.771,92.3,105.77,92.301L105.77,92.301z
	 M111.13,81.591c-1.278-0.003-2.317,1.032-2.319,2.311c-0.004,1.278,1.031,2.317,2.31,2.319c1.278,0.003,2.317-1.031,2.319-2.31l0,0
	c0.005-1.277-1.027-2.316-2.305-2.321C111.133,81.59,111.131,81.59,111.13,81.591L111.13,81.591z M100.42,81.591L100.42,81.591
	c-1.278,0.01-2.308,1.053-2.299,2.332c0.01,1.266,1.033,2.289,2.299,2.298l0,0c1.279,0,2.315-1.036,2.315-2.315
	C102.735,82.627,101.699,81.59,100.42,81.591L100.42,81.591z M111.13,103.01c-1.276,0-2.31,1.034-2.31,2.311
	c0,1.275,1.033,2.31,2.31,2.31s2.31-1.034,2.31-2.31c0.007-1.271-1.018-2.305-2.289-2.312
	C111.145,103.01,111.137,103.01,111.13,103.01L111.13,103.01z M100.42,103.01L100.42,103.01c-1.275,0-2.311,1.034-2.311,2.311
	c0,1.275,1.035,2.31,2.311,2.31l0,0c1.275,0,2.311-1.034,2.311-2.311C102.73,104.045,101.695,103.01,100.42,103.01L100.42,103.01z
	 M84.359,6.64c-1.275,0.001-2.309,1.035-2.31,2.311l0,0c0,1.275,1.034,2.31,2.31,2.31c1.276,0,2.311-1.034,2.311-2.31l0,0
	C86.67,7.675,85.636,6.64,84.359,6.64L84.359,6.64z M95.07,28.06c-1.271-0.005-2.305,1.02-2.311,2.29c0,0.007,0,0.014,0,0.021h-0.01
	c0.01,1.278,1.053,2.308,2.332,2.298c1.266-0.009,2.289-1.032,2.298-2.298l0,0C97.379,29.094,96.346,28.06,95.07,28.06L95.07,28.06z
	 M84.359,28.06c-1.27-0.005-2.305,1.02-2.31,2.29c0,0.007,0,0.014,0,0.021l0,0c0,1.275,1.034,2.31,2.31,2.31
	c1.276,0,2.311-1.034,2.311-2.31l0,0c0.006-1.271-1.02-2.305-2.289-2.311C84.373,28.06,84.367,28.06,84.359,28.06L84.359,28.06z
	 M89.71,17.35c-1.278,0.003-2.313,1.042-2.31,2.32c0.002,1.278,1.041,2.313,2.319,2.31c1.278-0.002,2.313-1.041,2.31-2.319l0,0
	c0-1.276-1.035-2.312-2.311-2.311C89.715,17.35,89.713,17.35,89.71,17.35L89.71,17.35z M79.01,17.35L79.01,17.35
	c-1.278-0.009-2.322,1.021-2.332,2.299c-0.008,1.278,1.021,2.322,2.299,2.331c0.012,0,0.022,0,0.033,0l0,0
	c1.279,0,2.315-1.036,2.315-2.315C81.325,18.386,80.289,17.35,79.01,17.35L79.01,17.35z M95.07,49.47
	c-1.275,0.001-2.311,1.035-2.311,2.311h-0.01c-0.01,1.278,1.02,2.322,2.299,2.331c1.278,0.009,2.322-1.02,2.331-2.299
	c0-0.011,0-0.021,0-0.032l0,0C97.377,50.507,96.344,49.474,95.07,49.47L95.07,49.47z M84.359,49.47
	c-1.275,0.001-2.309,1.035-2.31,2.311l0,0c0,1.275,1.034,2.31,2.31,2.31c1.276,0,2.311-1.034,2.311-2.31l0,0
	C86.67,50.505,85.636,49.47,84.359,49.47L84.359,49.47z M89.71,38.76c-1.278,0.003-2.313,1.042-2.31,2.32
	c0.002,1.278,1.041,2.313,2.319,2.31c1.274-0.002,2.308-1.035,2.31-2.31C92.03,39.8,90.992,38.76,89.71,38.76L89.71,38.76
	L89.71,38.76z M79.01,38.76L79.01,38.76c-1.278-0.009-2.322,1.021-2.332,2.299c-0.008,1.278,1.021,2.322,2.299,2.331
	c0.012,0,0.022,0,0.033,0l0,0c1.279,0,2.315-1.036,2.315-2.315C81.325,39.797,80.289,38.76,79.01,38.76L79.01,38.76z M95.07,70.89
	c-1.271-0.005-2.305,1.02-2.311,2.29c0,0.007,0,0.014,0,0.021h-0.01c0.01,1.278,1.053,2.308,2.332,2.298
	c1.266-0.009,2.289-1.032,2.298-2.298l0,0C97.379,71.925,96.346,70.89,95.07,70.89L95.07,70.89z M84.359,70.89
	c-1.27-0.005-2.305,1.02-2.31,2.29c0,0.007,0,0.014,0,0.021l0,0c0,1.275,1.034,2.31,2.31,2.31c1.276,0,2.311-1.034,2.311-2.31l0,0
	c0.006-1.271-1.02-2.305-2.289-2.311C84.373,70.89,84.367,70.89,84.359,70.89L84.359,70.89z M89.71,60.18
	c-1.276,0.006-2.306,1.044-2.3,2.32c0.005,1.275,1.043,2.306,2.319,2.3c1.272-0.005,2.3-1.038,2.3-2.31
	c0-1.276-1.035-2.312-2.311-2.311C89.715,60.18,89.713,60.18,89.71,60.18L89.71,60.18z M79.01,60.18L79.01,60.18
	c-1.275,0-2.311,1.034-2.311,2.311c0,1.275,1.035,2.31,2.311,2.31l0,0l0,0c1.275,0,2.311-1.034,2.311-2.311
	C81.32,61.215,80.285,60.18,79.01,60.18L79.01,60.18z M95.07,92.301c-1.271-0.005-2.305,1.02-2.311,2.29c0,0.007,0,0.014,0,0.021
	h-0.01c-0.01,1.278,1.02,2.322,2.299,2.331c1.278,0.009,2.322-1.02,2.331-2.299c0-0.011,0-0.021,0-0.032l0,0
	C97.38,93.335,96.346,92.301,95.07,92.301L95.07,92.301z M84.359,92.301c-1.27-0.005-2.305,1.02-2.31,2.29c0,0.007,0,0.014,0,0.021
	l0,0c0,1.275,1.034,2.31,2.31,2.31c1.276,0,2.311-1.034,2.311-2.31l0,0c0.006-1.271-1.019-2.305-2.289-2.312
	C84.374,92.3,84.367,92.3,84.359,92.301L84.359,92.301z M89.71,81.591c-1.278,0.003-2.313,1.042-2.31,2.32
	c0.002,1.278,1.041,2.313,2.319,2.31c1.274-0.002,2.308-1.035,2.31-2.31C92.03,82.63,90.992,81.591,89.71,81.591L89.71,81.591
	L89.71,81.591z M79.01,81.591L79.01,81.591c-1.278-0.009-2.322,1.021-2.332,2.299c-0.008,1.278,1.021,2.322,2.299,2.331
	c0.012,0,0.022,0,0.033,0l0,0c1.279,0,2.315-1.036,2.315-2.315C81.325,82.627,80.289,81.59,79.01,81.591L79.01,81.591z
	 M95.07,113.711c-1.277,0.002-2.313,1.039-2.311,2.316c0,0.001,0,0.002,0,0.004h-0.01c0.01,1.278,1.053,2.308,2.332,2.298
	c1.266-0.009,2.289-1.032,2.298-2.298l0,0C97.381,114.753,96.348,113.716,95.07,113.711L95.07,113.711z M84.359,113.711
	c-1.277,0.002-2.311,1.039-2.31,2.316c0,0.001,0,0.002,0,0.004l0,0c0,1.275,1.034,2.31,2.31,2.31c1.276,0,2.311-1.034,2.311-2.31
	l0,0c0.004-1.277-1.027-2.316-2.305-2.321C84.363,113.71,84.361,113.71,84.359,113.711L84.359,113.711z M89.71,103.01
	c-1.276,0.006-2.306,1.044-2.3,2.32c0.005,1.275,1.043,2.306,2.319,2.3c1.272-0.005,2.3-1.038,2.3-2.31
	c0-1.276-1.034-2.312-2.311-2.312C89.716,103.01,89.713,103.01,89.71,103.01L89.71,103.01z M79.01,103.01L79.01,103.01
	c-1.275,0-2.311,1.034-2.311,2.311c0,1.275,1.035,2.31,2.311,2.31l0,0l0,0c1.275,0,2.311-1.034,2.311-2.311
	C81.32,104.045,80.285,103.01,79.01,103.01L79.01,103.01z M73.65,6.64c-1.275,0.004-2.307,1.036-2.311,2.311l0,0
	c-0.01,1.278,1.02,2.322,2.299,2.331c1.278,0.009,2.322-1.02,2.331-2.299c0-0.011,0-0.021,0-0.032l0,0
	C75.961,7.675,74.926,6.643,73.65,6.64L73.65,6.64z M62.95,6.64c-1.277,0-2.314,1.033-2.32,2.311l0,0
	c-0.009,1.278,1.02,2.322,2.298,2.331c1.279,0.009,2.322-1.02,2.332-2.299c0-0.011,0-0.021,0-0.032l0,0
	C65.256,7.677,64.225,6.644,62.95,6.64L62.95,6.64z M73.65,28.06c-1.275,0.001-2.311,1.035-2.311,2.311l0,0
	c0.01,1.278,1.053,2.308,2.332,2.298c1.266-0.009,2.289-1.032,2.298-2.298l0,0C75.965,29.094,74.928,28.06,73.65,28.06L73.65,28.06z
	 M62.95,28.06c-1.277-0.004-2.316,1.029-2.32,2.307c0,0.001,0,0.002,0,0.004l0,0c0.009,1.278,1.053,2.308,2.332,2.298
	c1.266-0.009,2.29-1.032,2.298-2.298l0,0C65.259,29.095,64.226,28.061,62.95,28.06L62.95,28.06z M68.3,17.35
	c-1.278-0.003-2.317,1.032-2.32,2.311c-0.003,1.278,1.032,2.317,2.31,2.319c1.278,0.003,2.317-1.031,2.319-2.31
	c0-0.004,0-0.007,0-0.01c0.006-1.271-1.019-2.305-2.289-2.311C68.313,17.35,68.307,17.35,68.3,17.35L68.3,17.35z M57.59,17.35
	L57.59,17.35c-1.278,0.01-2.308,1.053-2.298,2.332c0.009,1.266,1.033,2.289,2.298,2.298l0,0c1.279,0,2.315-1.036,2.315-2.315
	C59.905,18.386,58.869,17.35,57.59,17.35L57.59,17.35z M73.65,49.47c-1.275,0.004-2.307,1.036-2.311,2.311l0,0
	c-0.01,1.278,1.02,2.322,2.299,2.331c1.278,0.009,2.322-1.02,2.331-2.299c0-0.011,0-0.021,0-0.032l0,0
	C75.961,50.505,74.926,49.473,73.65,49.47L73.65,49.47z M62.95,49.47c-1.277,0-2.314,1.033-2.32,2.311l0,0
	c-0.009,1.278,1.02,2.322,2.298,2.331c1.279,0.009,2.322-1.02,2.332-2.299c0-0.011,0-0.021,0-0.032l0,0
	C65.256,50.507,64.225,49.474,62.95,49.47L62.95,49.47z M68.3,38.76c-1.278-0.003-2.317,1.032-2.32,2.311
	c-0.003,1.278,1.032,2.317,2.31,2.319c1.278,0.003,2.317-1.031,2.319-2.31l0,0c0.005-1.277-1.027-2.316-2.305-2.321
	C68.303,38.76,68.301,38.76,68.3,38.76L68.3,38.76z M57.59,38.76L57.59,38.76c-1.278,0.01-2.308,1.053-2.298,2.332
	c0.009,1.266,1.033,2.289,2.298,2.298l0,0c1.279,0,2.315-1.036,2.315-2.315C59.905,39.797,58.869,38.76,57.59,38.76L57.59,38.76z
	 M73.65,70.89c-1.275,0.001-2.311,1.035-2.311,2.311l0,0c0.01,1.278,1.053,2.308,2.332,2.298c1.266-0.009,2.289-1.032,2.298-2.298
	l0,0C75.965,71.924,74.928,70.89,73.65,70.89L73.65,70.89z M62.95,70.89c-1.277-0.004-2.316,1.029-2.32,2.307
	c0,0.001,0,0.002,0,0.004l0,0c0.009,1.278,1.053,2.308,2.332,2.298c1.266-0.009,2.29-1.032,2.298-2.298l0,0
	C65.259,71.926,64.226,70.891,62.95,70.89L62.95,70.89z M68.3,60.18c-1.276,0-2.31,1.034-2.31,2.311c0,1.275,1.034,2.31,2.31,2.31
	s2.31-1.034,2.31-2.31c0.006-1.271-1.019-2.305-2.289-2.311C68.313,60.18,68.307,60.18,68.3,60.18L68.3,60.18z M57.59,60.18
	L57.59,60.18c-1.276,0-2.31,1.034-2.31,2.311c0,1.275,1.034,2.31,2.31,2.31l0,0c1.276,0,2.311-1.034,2.311-2.311
	C59.9,61.215,58.866,60.18,57.59,60.18L57.59,60.18z M73.65,92.301c-1.275,0.001-2.311,1.035-2.311,2.311l0,0
	c-0.01,1.278,1.02,2.322,2.299,2.331c1.278,0.009,2.322-1.02,2.331-2.299c0-0.011,0-0.021,0-0.032l0,0
	C75.965,93.333,74.928,92.3,73.65,92.301L73.65,92.301z M62.95,92.301c-1.277-0.004-2.316,1.029-2.32,2.307c0,0.001,0,0.002,0,0.004
	l0,0c-0.009,1.278,1.02,2.322,2.298,2.331c1.279,0.009,2.322-1.02,2.332-2.299c0-0.011,0-0.021,0-0.032l0,0
	C65.26,93.335,64.226,92.301,62.95,92.301L62.95,92.301z M68.3,81.591c-1.278-0.003-2.317,1.032-2.32,2.311
	c-0.003,1.278,1.032,2.317,2.31,2.319c1.278,0.003,2.317-1.031,2.319-2.31l0,0c0.005-1.277-1.027-2.316-2.305-2.321
	C68.303,81.59,68.301,81.59,68.3,81.591L68.3,81.591z M57.59,81.591L57.59,81.591c-1.278,0.01-2.308,1.053-2.298,2.332
	c0.009,1.266,1.033,2.289,2.298,2.298l0,0c1.279,0,2.315-1.036,2.315-2.315C59.905,82.627,58.869,81.59,57.59,81.591L57.59,81.591z
	 M73.65,113.711c-1.277,0.006-2.311,1.043-2.311,2.32l0,0c0.01,1.278,1.053,2.308,2.332,2.298c1.266-0.009,2.289-1.032,2.298-2.298
	l0,0C75.966,114.751,74.93,113.715,73.65,113.711L73.65,113.711z M62.95,113.711c-1.281,0.001-2.319,1.039-2.32,2.32l0,0
	c0.009,1.278,1.053,2.308,2.332,2.298c1.266-0.009,2.29-1.032,2.298-2.298l0,0C65.26,114.754,64.228,113.716,62.95,113.711
	L62.95,113.711z M68.3,103.01c-1.276,0-2.31,1.034-2.31,2.311c0,1.275,1.034,2.31,2.31,2.31s2.31-1.034,2.31-2.31
	c0.007-1.271-1.018-2.305-2.289-2.312C68.314,103.01,68.307,103.01,68.3,103.01L68.3,103.01z M57.59,103.01L57.59,103.01
	c-1.276,0-2.31,1.034-2.31,2.311c0,1.275,1.034,2.31,2.31,2.31l0,0c1.276,0,2.311-1.034,2.311-2.311
	C59.9,104.045,58.866,103.01,57.59,103.01L57.59,103.01z M52.24,6.64c-1.275,0.001-2.31,1.035-2.31,2.311l0,0
	c0,1.275,1.034,2.31,2.31,2.31s2.31-1.034,2.31-2.31l0,0C54.549,7.676,53.516,6.641,52.24,6.64L52.24,6.64z M52.24,28.06
	c-1.27-0.005-2.305,1.02-2.31,2.29c0,0.007,0,0.014,0,0.021l0,0c0,1.275,1.034,2.31,2.31,2.31s2.31-1.034,2.31-2.31l0,0
	c0.006-1.271-1.019-2.305-2.29-2.311C52.254,28.06,52.247,28.06,52.24,28.06L52.24,28.06z M41.53,28.06
	c-1.27-0.005-2.305,1.02-2.31,2.29c0,0.007,0,0.014,0,0.021l0,0c0.009,1.278,1.053,2.308,2.332,2.298
	c1.266-0.009,2.29-1.032,2.298-2.298l0,0C43.844,29.094,42.807,28.06,41.53,28.06L41.53,28.06z M46.89,17.35
	c-1.278-0.003-2.317,1.032-2.32,2.311c-0.003,1.278,1.031,2.317,2.31,2.319c1.278,0.003,2.317-1.031,2.32-2.31
	c0-0.004,0-0.007,0-0.01C49.198,18.385,48.165,17.352,46.89,17.35L46.89,17.35z M36.18,17.35L36.18,17.35
	c-1.278-0.009-2.322,1.021-2.332,2.299c-0.009,1.278,1.02,2.322,2.299,2.331c0.011,0,0.022,0,0.033,0l0,0
	c1.278,0,2.315-1.036,2.315-2.314C38.495,18.387,37.458,17.35,36.18,17.35L36.18,17.35z M52.24,49.47
	c-1.275,0.001-2.31,1.035-2.31,2.311l0,0c0,1.275,1.034,2.31,2.31,2.31s2.31-1.034,2.31-2.31l0,0
	C54.549,50.506,53.516,49.471,52.24,49.47L52.24,49.47z M41.53,49.47c-1.275,0.001-2.31,1.035-2.31,2.311l0,0
	c-0.009,1.278,1.02,2.322,2.298,2.331c1.279,0.009,2.322-1.02,2.332-2.299c0-0.011,0-0.021,0-0.032l0,0
	C43.841,50.505,42.806,49.473,41.53,49.47L41.53,49.47z M46.89,38.76c-1.278-0.003-2.317,1.032-2.32,2.311
	c-0.003,1.278,1.031,2.317,2.31,2.319c1.278,0.003,2.317-1.031,2.32-2.31l0,0C49.199,39.803,48.167,38.766,46.89,38.76L46.89,38.76z
	 M36.18,38.76L36.18,38.76c-1.278-0.009-2.322,1.021-2.332,2.299c-0.009,1.278,1.02,2.322,2.299,2.331c0.011,0,0.022,0,0.033,0l0,0
	c1.302,0,2.357-1.013,2.357-2.314C38.538,39.773,37.482,38.718,36.18,38.76L36.18,38.76z M52.24,70.89
	c-1.27-0.005-2.305,1.02-2.31,2.29c0,0.007,0,0.014,0,0.021l0,0c0,1.275,1.034,2.31,2.31,2.31s2.31-1.034,2.31-2.31l0,0
	c0.006-1.271-1.019-2.305-2.29-2.311C52.254,70.89,52.247,70.89,52.24,70.89L52.24,70.89z M41.53,70.89
	c-1.27-0.005-2.305,1.02-2.31,2.29c0,0.007,0,0.014,0,0.021l0,0c0.009,1.278,1.053,2.308,2.332,2.298
	c1.266-0.009,2.29-1.032,2.298-2.298l0,0C43.844,71.924,42.807,70.89,41.53,70.89L41.53,70.89z M46.89,60.18
	c-1.276,0-2.31,1.034-2.31,2.311c0,1.275,1.034,2.31,2.31,2.31s2.31-1.034,2.31-2.31C49.198,61.216,48.165,60.182,46.89,60.18
	L46.89,60.18z M36.18,60.18L36.18,60.18c-1.276,0-2.31,1.034-2.31,2.311c0,1.275,1.034,2.31,2.31,2.31l0,0
	c1.289,0,2.333-1.021,2.333-2.31C38.513,61.202,37.469,60.158,36.18,60.18L36.18,60.18z M52.24,92.301
	c-1.27-0.005-2.305,1.02-2.31,2.29c0,0.007,0,0.014,0,0.021l0,0c0,1.275,1.034,2.31,2.31,2.31s2.31-1.034,2.31-2.31l0,0
	c0.006-1.271-1.019-2.305-2.289-2.312C52.254,92.3,52.247,92.3,52.24,92.301L52.24,92.301z M41.53,92.301
	c-1.27-0.005-2.305,1.02-2.31,2.29c0,0.007,0,0.014,0,0.021l0,0c-0.009,1.278,1.02,2.322,2.298,2.331
	c1.279,0.009,2.322-1.02,2.332-2.299c0-0.011,0-0.021,0-0.032l0,0C43.845,93.333,42.808,92.3,41.53,92.301L41.53,92.301z
	 M46.89,81.591c-1.278-0.003-2.317,1.032-2.32,2.311c-0.003,1.278,1.031,2.317,2.31,2.319c1.278,0.003,2.317-1.031,2.32-2.31l0,0
	C49.199,82.634,48.167,81.596,46.89,81.591L46.89,81.591z M36.18,81.591L36.18,81.591c-1.278-0.009-2.322,1.021-2.332,2.299
	c-0.009,1.278,1.02,2.322,2.299,2.331c0.011,0,0.022,0,0.033,0l0,0c1.274,0,2.308-1.04,2.308-2.315
	C38.488,82.631,37.455,81.597,36.18,81.591L36.18,81.591z M52.24,113.711c-1.277,0.002-2.312,1.039-2.31,2.316
	c0,0.001,0,0.002,0,0.004l0,0c0,1.275,1.034,2.31,2.31,2.31s2.31-1.034,2.31-2.31l0,0c0.004-1.277-1.028-2.316-2.305-2.321
	C52.243,113.71,52.242,113.71,52.24,113.711L52.24,113.711z M41.53,113.711c-1.277,0.002-2.312,1.039-2.31,2.316
	c0,0.001,0,0.002,0,0.004l0,0c0.009,1.278,1.053,2.308,2.332,2.298c1.266-0.009,2.29-1.032,2.298-2.298l0,0
	C43.846,114.751,42.81,113.715,41.53,113.711L41.53,113.711z M46.89,103.01c-1.276,0-2.31,1.034-2.31,2.311
	c0,1.275,1.034,2.31,2.31,2.31s2.31-1.034,2.31-2.31C49.199,104.046,48.166,103.011,46.89,103.01L46.89,103.01z M36.18,103.01
	L36.18,103.01c-1.276,0-2.31,1.034-2.31,2.311c0,1.275,1.034,2.31,2.31,2.31l0,0c1.223,0.364,2.538-0.428,2.902-1.651
	c0.364-1.223-0.332-2.509-1.554-2.873C37.097,102.978,36.639,102.978,36.18,103.01L36.18,103.01z M30.82,28.06
	c-1.275,0.001-2.31,1.035-2.31,2.311l0,0c0.009,1.278,1.053,2.308,2.332,2.298c1.266-0.009,2.29-1.032,2.298-2.298l0,0
	c-0.001-1.277-1.038-2.313-2.315-2.311C30.823,28.06,30.821,28.06,30.82,28.06L30.82,28.06z M20.12,28.06
	c-1.277,0-2.314,1.033-2.32,2.311l0,0c0.009,1.278,1.053,2.308,2.332,2.298c1.266-0.009,2.29-1.032,2.298-2.298l0,0
	C22.429,29.095,21.396,28.061,20.12,28.06L20.12,28.06z M30.82,49.47c-1.274,0.004-2.306,1.036-2.31,2.311l0,0
	c-0.009,1.278,1.02,2.322,2.298,2.331c1.279,0.009,2.322-1.02,2.332-2.299c0-0.011,0-0.021,0-0.032l0,0
	C33.134,50.504,32.097,49.47,30.82,49.47L30.82,49.47z M20.12,49.47c-1.276,0.004-2.311,1.034-2.32,2.311l0,0
	c-0.009,1.278,1.02,2.322,2.298,2.331c1.279,0.009,2.322-1.02,2.332-2.299c0-0.011,0-0.021,0-0.032l0,0
	C22.426,50.507,21.395,49.474,20.12,49.47L20.12,49.47z M25.47,38.76c-1.278-0.003-2.317,1.032-2.32,2.311
	c-0.003,1.278,1.031,2.317,2.31,2.319c1.278,0.003,2.317-1.031,2.32-2.31l0,0c0.004-1.277-1.028-2.316-2.305-2.321
	C25.473,38.76,25.472,38.76,25.47,38.76L25.47,38.76z M14.76,38.76L14.76,38.76c-1.278,0.01-2.308,1.053-2.298,2.332
	c0.009,1.266,1.033,2.289,2.298,2.298l0,0c1.279,0,2.315-1.036,2.315-2.315C17.075,39.797,16.039,38.76,14.76,38.76L14.76,38.76z
	 M30.82,70.89c-1.275,0.001-2.31,1.035-2.31,2.311l0,0c0.009,1.278,1.053,2.308,2.332,2.298c1.266-0.009,2.29-1.032,2.298-2.298l0,0
	c-0.001-1.277-1.038-2.313-2.315-2.311C30.823,70.89,30.821,70.89,30.82,70.89L30.82,70.89z M20.12,70.89
	c-1.277,0-2.314,1.033-2.32,2.311l0,0c0.009,1.278,1.053,2.308,2.332,2.298c1.266-0.009,2.29-1.032,2.298-2.298l0,0
	C22.429,71.926,21.396,70.891,20.12,70.89L20.12,70.89z M25.47,60.18c-1.276,0-2.31,1.034-2.31,2.311c0,1.275,1.034,2.31,2.31,2.31
	s2.31-1.034,2.31-2.31c0.006-1.271-1.019-2.305-2.29-2.311C25.484,60.18,25.477,60.18,25.47,60.18L25.47,60.18z M14.76,60.18
	L14.76,60.18c-1.276,0-2.31,1.034-2.31,2.311c0,1.275,1.034,2.31,2.31,2.31l0,0c1.276,0,2.311-1.034,2.311-2.311
	C17.07,61.215,16.036,60.18,14.76,60.18L14.76,60.18z M30.82,92.301c-1.275,0.001-2.31,1.035-2.31,2.311l0,0
	c-0.009,1.278,1.02,2.322,2.298,2.331c1.279,0.009,2.322-1.02,2.332-2.299c0-0.011,0-0.021,0-0.032l0,0
	c-0.001-1.277-1.038-2.313-2.315-2.312C30.823,92.3,30.821,92.3,30.82,92.301L30.82,92.301z M20.12,92.301
	c-1.277,0-2.314,1.033-2.32,2.311l0,0c-0.009,1.278,1.02,2.322,2.298,2.331c1.279,0.009,2.322-1.02,2.332-2.299
	c0-0.011,0-0.021,0-0.032l0,0C22.43,93.335,21.396,92.301,20.12,92.301L20.12,92.301z M25.47,81.591
	c-1.278-0.003-2.317,1.032-2.32,2.311c-0.003,1.278,1.031,2.317,2.31,2.319c1.278,0.003,2.317-1.031,2.32-2.31l0,0
	c0.004-1.277-1.028-2.316-2.305-2.321C25.473,81.59,25.472,81.59,25.47,81.591L25.47,81.591z M14.76,81.591L14.76,81.591
	c-1.278,0.01-2.308,1.053-2.298,2.332c0.009,1.266,1.033,2.289,2.298,2.298l0,0c1.279,0,2.315-1.036,2.315-2.315
	C17.075,82.627,16.039,81.59,14.76,81.591L14.76,81.591z M25.47,103.01c-1.276,0-2.31,1.034-2.31,2.311
	c0,1.275,1.034,2.31,2.31,2.31s2.31-1.034,2.31-2.31c0.006-1.271-1.019-2.305-2.289-2.312C25.484,103.01,25.477,103.01,25.47,103.01
	L25.47,103.01z M9.41,49.47c-1.275,0.001-2.31,1.035-2.31,2.311l0,0c0,1.275,1.034,2.31,2.31,2.31s2.31-1.034,2.31-2.31l0,0
	C11.719,50.506,10.686,49.471,9.41,49.47L9.41,49.47z M9.41,70.89c-1.27-0.005-2.305,1.02-2.31,2.29c0,0.007,0,0.014,0,0.021l0,0
	c0,1.275,1.034,2.31,2.31,2.31s2.31-1.034,2.31-2.31l0,0c0.006-1.271-1.019-2.305-2.29-2.311C9.424,70.89,9.417,70.89,9.41,70.89
	L9.41,70.89z M65.99,0.001c-36.445,0.005-65.985,29.555-65.98,66s29.555,65.985,66,65.979c36.441-0.005,65.98-29.548,65.98-65.989
	C131.951,29.557,102.424,0.034,65.99,0.001L65.99,0.001z M127.189,75.51c0.185-0.012,0.366-0.049,0.541-0.11
	c-2.283,14.987-9.935,28.635-21.53,38.4c-0.14-0.047-0.284-0.076-0.431-0.09c-1.221,0.009-2.221,0.971-2.279,2.189
	c-6.621,4.99-14.172,8.607-22.21,10.641c-0.088-1.19-1.076-2.113-2.271-2.12l0,0c-1.28,0.001-2.318,1.039-2.319,2.319
	c0.007,0.261,0.062,0.519,0.16,0.76c-2.273,0.397-4.567,0.668-6.87,0.811c0.404-0.423,0.631-0.985,0.63-1.57
	c0-1.275-1.034-2.31-2.31-2.31c-1.276,0-2.311,1.034-2.311,2.31l0,0c0.006,0.669,0.306,1.302,0.82,1.73
	c-0.28,0-0.541,0.04-0.82,0.04c-2.208-0.004-4.415-0.124-6.61-0.36c0.332-0.396,0.519-0.894,0.53-1.41
	c-0.001-1.28-1.039-2.318-2.32-2.319l0,0c-1.277,0.001-2.312,1.038-2.31,2.315c0,0.002,0,0.003,0,0.004
	c0.007,0.277,0.061,0.552,0.16,0.811c-2.147-0.364-4.273-0.842-6.37-1.431c-0.292-1.195-1.498-1.928-2.693-1.636
	c-0.347,0.085-0.668,0.251-0.937,0.486c-4.859-1.686-9.491-3.966-13.79-6.79c0.89-0.344,1.48-1.196,1.49-2.15l0,0
	c0-1.273-1.032-2.306-2.305-2.307c-1.235,0-2.251,0.973-2.305,2.207c-4.331-3.255-8.226-7.053-11.59-11.3
	c-0.31-0.38-0.59-0.78-0.88-1.181c-1.801-2.352-3.429-4.832-4.87-7.42c0.338-0.396,0.525-0.898,0.53-1.42l0,0
	c0.005-1.27-1.02-2.305-2.29-2.31c-0.006,0-0.013,0-0.02,0c-0.02,0-0.03,0.01-0.05,0.01c-1.212-2.543-2.249-5.165-3.1-7.851
	c0.056-0.179,0.093-0.363,0.11-0.55c0-0.61-0.241-1.195-0.67-1.63c-1.462-5.307-2.211-10.785-2.23-16.29
	c0-0.439,0.06-0.859,0.07-1.29c0.168,0.055,0.343,0.088,0.52,0.101c1.276,0,2.31-1.034,2.31-2.311c0-1.275-1.034-2.31-2.31-2.31
	c-0.102,0.009-0.202,0.029-0.3,0.06c1.417-15.218,8.374-29.385,19.55-39.81c0.422,1.198,1.735,1.827,2.934,1.405
	c1.198-0.423,1.827-1.736,1.405-2.934c-0.203-0.577-0.627-1.049-1.179-1.312c3.945-3.2,8.263-5.91,12.86-8.07
	c0.244,1.021,1.152,1.742,2.2,1.75c1.281-0.001,2.319-1.039,2.32-2.319l0,0c-0.018-0.433-0.157-0.852-0.4-1.21
	c16.023-6.294,33.948-5.605,49.44,1.899c0.336,1.189,1.572,1.882,2.762,1.546c0.084-0.023,0.167-0.052,0.248-0.086
	c4.879,2.686,9.378,6.008,13.38,9.88c0.24,0.23,0.5,0.44,0.74,0.681c2.046,2.05,3.944,4.241,5.681,6.56
	c-0.915,0.319-1.527,1.182-1.53,2.15l0,0c-0.011,1.264,1.005,2.298,2.269,2.309c0.717,0.007,1.394-0.322,1.832-0.889
	c1.465,2.265,2.787,4.619,3.959,7.05c-0.127-0.035-0.258-0.063-0.39-0.08l0,0c-1.278-0.01-2.322,1.02-2.331,2.298
	c-0.01,1.279,1.02,2.322,2.299,2.332c0.01,0,0.021,0,0.032,0l0,0c0.813-0.014,1.558-0.455,1.96-1.16
	c0.982,2.422,1.811,4.903,2.48,7.43c-0.848,0.366-1.396,1.198-1.4,2.12l0,0c-0.004,1.277,1.029,2.316,2.307,2.32
	c0.001,0,0.002,0,0.004,0c0.049,0,0.1-0.03,0.149-0.03c0.771,3.927,1.163,7.919,1.17,11.92c0,1.75-0.12,3.471-0.26,5.19
	c-0.323-0.184-0.688-0.283-1.06-0.29c-1.271-0.006-2.305,1.02-2.311,2.29c0,0.006,0,0.013,0,0.02l0,0
	c-0.006,1.271,1.02,2.305,2.291,2.31C127.178,75.51,127.184,75.51,127.189,75.51L127.189,75.51z"/>
</svg>
