<svg xmlns="http://www.w3.org/2000/svg" width="151.94" height="150.97" viewBox="0 0 151.94 150.97">
  <defs>
    <style>
      .cls-1 {
        fill: #b23f4c;
        fill-rule: evenodd;
      }
    </style>
  </defs>
  <path id="Forme_6" data-name="Forme 6" class="cls-1" d="M3803.37,5972.29h0.01a1.98,1.98,0,1,0,0-3.96h-0.01A1.98,1.98,0,1,0,3803.37,5972.29Zm-18.45,0h0a1.98,1.98,0,1,0,0-3.96h0A1.98,1.98,0,1,0,3784.92,5972.29Zm0-9.17h0a1.98,1.98,0,1,0,0-3.96h0A1.98,1.98,0,1,0,3784.92,5963.12Zm9.23,13.76a1.98,1.98,0,1,0-2-1.98A1.987,1.987,0,0,0,3794.15,5976.88Zm0-9.17a1.98,1.98,0,1,0-2-1.98A1.987,1.987,0,0,0,3794.15,5967.71Zm-27.68,4.58h0a1.98,1.98,0,1,0,0-3.96h0A1.98,1.98,0,1,0,3766.47,5972.29Zm0-9.17h0a1.98,1.98,0,1,0,0-3.96h0A1.98,1.98,0,1,0,3766.47,5963.12Zm9.22,13.76a1.98,1.98,0,1,0-1.99-1.98A2,2,0,0,0,3775.69,5976.88Zm0-9.17a1.98,1.98,0,1,0-1.99-1.98A2,2,0,0,0,3775.69,5967.71Zm-27.68,4.58h0a1.98,1.98,0,1,0,0-3.96h0A1.98,1.98,0,1,0,3748.01,5972.29Zm0-9.17h0a1.98,1.98,0,1,0,0-3.96h0A1.98,1.98,0,1,0,3748.01,5963.12Zm9.23,13.76a1.98,1.98,0,1,0-1.99-1.98A1.987,1.987,0,0,0,3757.24,5976.88Zm0-9.17a1.98,1.98,0,1,0-1.99-1.98A1.987,1.987,0,0,0,3757.24,5967.71Zm-18.46,5.21a1.98,1.98,0,1,0,2,1.98A1.98,1.98,0,0,0,3738.78,5972.92Zm46.14-18.96v-0.01a1.98,1.98,0,1,0,0-3.96h0A1.985,1.985,0,1,0,3784.92,5953.96Zm-18.45,0v-0.01a1.98,1.98,0,1,0,0-3.96h0A1.985,1.985,0,1,0,3766.47,5953.96Zm0-9.17h0a1.98,1.98,0,1,0,0-3.96h0A1.98,1.98,0,1,0,3766.47,5944.79Zm9.22,13.75a1.98,1.98,0,1,0-1.99-1.98A2,2,0,0,0,3775.69,5958.54Zm0-9.17a1.98,1.98,0,1,0-1.99-1.98A2,2,0,0,0,3775.69,5949.37Zm-27.68,4.59v-0.01a1.98,1.98,0,1,0,0-3.96h0A1.985,1.985,0,1,0,3748.01,5953.96Zm0-9.17h0a1.98,1.98,0,1,0,0-3.96h0A1.98,1.98,0,1,0,3748.01,5944.79Zm9.23,13.75a1.98,1.98,0,1,0-1.99-1.98A1.987,1.987,0,0,0,3757.24,5958.54Zm0-9.17a1.98,1.98,0,1,0-1.99-1.98A1.987,1.987,0,0,0,3757.24,5949.37Zm9.23-13.75h0a1.98,1.98,0,1,0,0-3.96h0A1.98,1.98,0,1,0,3766.47,5935.62Zm-9.23,4.58a1.98,1.98,0,1,0-1.99-1.98A1.98,1.98,0,0,0,3757.24,5940.2Zm0-9.17a1.98,1.98,0,1,0-1.99-1.98A1.98,1.98,0,0,0,3757.24,5931.03Zm92.27,115.23a1.98,1.98,0,1,0,1.99,1.98A1.987,1.987,0,0,0,3849.51,6046.26Zm-18.46,9.17a1.98,1.98,0,1,0,2,1.98A1.987,1.987,0,0,0,3831.05,6055.43Zm9.23-4.58a1.98,1.98,0,1,0,2,1.98A1.98,1.98,0,0,0,3840.28,6050.85Zm18.46-18.34a1.98,1.98,0,1,0,1.99,1.98A1.989,1.989,0,0,0,3858.74,6032.51Zm9.22,4.58a1.98,1.98,0,1,0,2,1.98A1.987,1.987,0,0,0,3867.96,6037.09Zm-27.68,4.59a1.98,1.98,0,1,0,2,1.98A1.98,1.98,0,0,0,3840.28,6041.68Zm0-9.17a1.98,1.98,0,1,0,2,1.98A1.987,1.987,0,0,0,3840.28,6032.51Zm9.23,4.58a1.98,1.98,0,1,0,1.99,1.98A1.987,1.987,0,0,0,3849.51,6037.09Zm9.23,4.59a1.98,1.98,0,1,0,1.99,1.98A1.983,1.983,0,0,0,3858.74,6041.68Zm-27.69,4.58a1.98,1.98,0,1,0,2,1.98A1.987,1.987,0,0,0,3831.05,6046.26Zm0-9.17a1.98,1.98,0,1,0,2,1.98A1.987,1.987,0,0,0,3831.05,6037.09Zm27.69-13.75a1.98,1.98,0,1,0,1.99,1.98A1.989,1.989,0,0,0,3858.74,6023.34Zm-9.23,4.58a1.985,1.985,0,1,0,1.99,1.99A1.989,1.989,0,0,0,3849.51,6027.92Zm0-9.16a1.98,1.98,0,1,0,1.99,1.98A1.98,1.98,0,0,0,3849.51,6018.76Zm-18.46,9.16a1.985,1.985,0,1,0,2,1.99A1.989,1.989,0,0,0,3831.05,6027.92Zm0-9.16a1.98,1.98,0,1,0,2,1.98A1.98,1.98,0,0,0,3831.05,6018.76Zm0-9.17a1.98,1.98,0,1,0,2,1.98A1.987,1.987,0,0,0,3831.05,6009.59Zm9.23,13.75a1.98,1.98,0,1,0,2,1.98A1.987,1.987,0,0,0,3840.28,6023.34Zm0-9.17a1.98,1.98,0,1,0,2,1.98A1.987,1.987,0,0,0,3840.28,6014.17Zm-9.23-13.75a1.98,1.98,0,1,0,2,1.98A1.987,1.987,0,0,0,3831.05,6000.42Zm9.23,4.58a1.985,1.985,0,1,0,2,1.99A1.989,1.989,0,0,0,3840.28,6005Zm-73.81,18.34h0a1.98,1.98,0,1,0,0,3.96h0A1.98,1.98,0,1,0,3766.47,6023.34Zm0-9.17h0a1.98,1.98,0,1,0,0,3.96h0A1.98,1.98,0,1,0,3766.47,6014.17Zm7.23,6.57a1.909,1.909,0,0,0,.82,1.55l2.74-2.72A1.968,1.968,0,0,0,3773.7,6020.74Zm-25.69-6.57h0a1.98,1.98,0,1,0,0,3.96h0A1.98,1.98,0,1,0,3748.01,6014.17Zm9.23,13.75a1.985,1.985,0,1,0,1.99,1.99A1.989,1.989,0,0,0,3757.24,6027.92Zm0-9.16a1.98,1.98,0,1,0,1.99,1.98A1.98,1.98,0,0,0,3757.24,6018.76Zm27.68-13.76h0a1.985,1.985,0,1,0,0,3.97h0A1.985,1.985,0,1,0,3784.92,6005Zm0-9.16h0a1.98,1.98,0,1,0,0,3.96h0A1.98,1.98,0,1,0,3784.92,5995.84Zm-18.45,9.16h0a1.985,1.985,0,1,0,0,3.97h0A1.985,1.985,0,1,0,3766.47,6005Zm0-9.16h0a1.98,1.98,0,1,0,0,3.96h0A1.98,1.98,0,1,0,3766.47,5995.84Zm9.22,13.75a1.98,1.98,0,1,0,2,1.98A1.987,1.987,0,0,0,3775.69,6009.59Zm0-9.17a1.98,1.98,0,1,0,2,1.98A1.987,1.987,0,0,0,3775.69,6000.42Zm-27.68,4.58h0a1.985,1.985,0,1,0,0,3.97h0A1.985,1.985,0,1,0,3748.01,6005Zm0-9.16h0a1.98,1.98,0,1,0,0,3.96h0A1.98,1.98,0,1,0,3748.01,5995.84Zm9.23,13.75a1.98,1.98,0,1,0,1.99,1.98A1.987,1.987,0,0,0,3757.24,6009.59Zm0-9.17a1.98,1.98,0,1,0,1.99,1.98A1.987,1.987,0,0,0,3757.24,6000.42Zm46.13-9.79h0.01a1.98,1.98,0,1,0,0-3.96h-0.01A1.98,1.98,0,1,0,3803.37,5990.63Zm-18.45-3.96h0a1.98,1.98,0,1,0,0,3.96h0A1.98,1.98,0,1,0,3784.92,5986.67Zm9.23,8.54a1.98,1.98,0,1,0-2-1.98A1.98,1.98,0,0,0,3794.15,5995.21Zm-27.68-8.54h0a1.98,1.98,0,1,0,0,3.96h0A1.98,1.98,0,1,0,3766.47,5986.67Zm9.22,4.58a1.98,1.98,0,1,0,2,1.98A1.987,1.987,0,0,0,3775.69,5991.25Zm-27.68-4.58h0a1.98,1.98,0,1,0,0,3.96h0A1.98,1.98,0,1,0,3748.01,5986.67Zm9.23,4.58a1.98,1.98,0,1,0,1.99,1.98A1.987,1.987,0,0,0,3757.24,5991.25Zm55.36,68.14a1.98,1.98,0,1,0-1.99-1.98A1.987,1.987,0,0,0,3812.6,6059.39Zm-18.45-13.13a1.98,1.98,0,1,0,1.99,1.98A2,2,0,0,0,3794.15,6046.26Zm9.22,4.59a1.98,1.98,0,1,0,2,1.98A1.98,1.98,0,0,0,3803.37,6050.85Zm-27.68-4.59a1.98,1.98,0,1,0,2,1.98A1.987,1.987,0,0,0,3775.69,6046.26Zm9.23,4.59a1.98,1.98,0,1,0,1.99,1.98A1.98,1.98,0,0,0,3784.92,6050.85Zm18.45-9.17a1.98,1.98,0,1,0,2,1.98A1.98,1.98,0,0,0,3803.37,6041.68Zm0-9.17a1.98,1.98,0,1,0,2,1.98A1.987,1.987,0,0,0,3803.37,6032.51Zm9.23,17.71a1.98,1.98,0,1,0-1.99-1.98A1.98,1.98,0,0,0,3812.6,6050.22Zm0-9.17a1.98,1.98,0,1,0-1.99-1.98A1.98,1.98,0,0,0,3812.6,6041.05Zm-27.68.63a1.98,1.98,0,1,0,1.99,1.98A1.98,1.98,0,0,0,3784.92,6041.68Zm0-9.17a1.98,1.98,0,1,0,1.99,1.98A1.987,1.987,0,0,0,3784.92,6032.51Zm9.23,4.58a1.98,1.98,0,1,0,1.99,1.98A2,2,0,0,0,3794.15,6037.09Zm0-9.17a1.985,1.985,0,1,0,1.99,1.99A2,2,0,0,0,3794.15,6027.92Zm-18.46,9.17a1.98,1.98,0,1,0,2,1.98A1.987,1.987,0,0,0,3775.69,6037.09Zm0-9.17a1.985,1.985,0,1,0,2,1.99A1.989,1.989,0,0,0,3775.69,6027.92Zm27.68-13.75a1.98,1.98,0,1,0,2,1.98A1.987,1.987,0,0,0,3803.37,6014.17Zm9.23,17.72a1.985,1.985,0,1,0-1.99-1.98A1.987,1.987,0,0,0,3812.6,6031.89Zm0-9.17a1.98,1.98,0,1,0-1.99-1.98A1.987,1.987,0,0,0,3812.6,6022.72Zm0-9.17a1.98,1.98,0,1,0-1.99-1.98A1.987,1.987,0,0,0,3812.6,6013.55Zm-18.45,5.21a1.98,1.98,0,1,0,1.99,1.98A1.989,1.989,0,0,0,3794.15,6018.76Zm9.22,4.58a1.98,1.98,0,1,0,2,1.98A1.987,1.987,0,0,0,3803.37,6023.34Zm-18.45,0a1.98,1.98,0,1,0,1.99,1.98A1.987,1.987,0,0,0,3784.92,6023.34Zm27.68-18.96a1.98,1.98,0,1,0-1.99-1.98A1.987,1.987,0,0,0,3812.6,6004.38Zm-18.45,5.21a1.98,1.98,0,1,0,1.99,1.98A2,2,0,0,0,3794.15,6009.59Zm9.22-4.59a1.985,1.985,0,1,0,2,1.99A1.989,1.989,0,0,0,3803.37,6005Zm9.23-9.79a1.98,1.98,0,1,0-1.99-1.98A1.98,1.98,0,0,0,3812.6,5995.21Zm-53.45-79.15-1.29,1.27a88.008,88.008,0,0,0,124.86,124.06l1.28-1.27Zm-22.28,50.05a1.961,1.961,0,0,0,1.91,1.6,1.98,1.98,0,1,0,0-3.96,1.947,1.947,0,0,0-1.71,1.03c0.37-2.12.88-4.21,1.41-6.3a1.594,1.594,0,0,0,.3.06,1.989,1.989,0,0,0,2-1.98,1.95,1.95,0,0,0-1.28-1.81,83.292,83.292,0,0,1,8.64-19.16,1.971,1.971,0,0,0,1.87-1.95,1.916,1.916,0,0,0-.18-0.8,83.457,83.457,0,0,1,9.33-11.67l15.5,15.4a1.929,1.929,0,0,0-.96,1.65,1.973,1.973,0,0,0,3.66,1.03l17.42,17.31-1.67-1.65a1.951,1.951,0,0,0-.96,1.65,2,2,0,0,0,2,1.98,1.958,1.958,0,0,0,1.66-.95l15.76,15.65a1.946,1.946,0,0,0-.96,1.66,1.963,1.963,0,0,0,3.65,1.02l2.58,2.56h-11.78a1.985,1.985,0,0,0-1.68-.98h-0.01a1.985,1.985,0,0,0-1.68.98H3786.6a1.972,1.972,0,0,0-1.68-.98h0a1.959,1.959,0,0,0-1.68.98h-15.09a1.985,1.985,0,0,0-1.68-.98h0a1.988,1.988,0,0,0-1.69.98h-15.09a1.959,1.959,0,0,0-1.68-.98h0a1.972,1.972,0,0,0-1.68.98h-10.59A85.667,85.667,0,0,1,3736.87,5966.11Zm13.02,59.78a1.812,1.812,0,0,0,.12-0.57,1.965,1.965,0,0,0-1.69-1.92,82.47,82.47,0,0,1-8.71-19.24,1.945,1.945,0,0,0,1.17-1.76,1.989,1.989,0,0,0-2-1.98,2.381,2.381,0,0,0-.26.05c-0.52-2.02-.94-4.06-1.31-6.11a1.933,1.933,0,0,0,1.57.85,1.98,1.98,0,1,0-1.88-2.5,82.409,82.409,0,0,1-1.11-10.62h2.98a2,2,0,1,0,.03,0h18.42a2,2,0,1,0,.03,0h18.43a2,2,0,1,0,.03,0h18.42a2,2,0,1,0,.03,0h18.43a1.978,1.978,0,0,0-1.98,1.98,1.941,1.941,0,0,0,.81,1.55l2.75-2.73a1.964,1.964,0,0,0-1.56-.8h2.37l-19.27,19.14a1.945,1.945,0,0,0-1.56-.81,2,2,0,0,0-2,1.98,1.954,1.954,0,0,0,.82,1.56l0.91-.91-34.67,34.45A83.624,83.624,0,0,1,3749.89,6025.89Zm67.66,37.44a86.263,86.263,0,0,1-12.19-1.35,1.977,1.977,0,0,0-3.79-.78c-2.4-.53-4.8-1.11-7.15-1.86a1.963,1.963,0,0,0-.27-3.91,2,2,0,0,0-2,1.98,1.887,1.887,0,0,0,.51,1.28,83.661,83.661,0,0,1-24.96-13.51,1.953,1.953,0,0,0,.76-1.52,1.98,1.98,0,0,0-1.99-1.98,1.938,1.938,0,0,0-1.68.98c-1.01-.87-2.04-1.68-3.01-2.61l5.14-5.11-1.32,1.32a2.066,2.066,0,0,0,.87.21,1.987,1.987,0,0,0,1.99-1.98,1.924,1.924,0,0,0-.22-0.86l17.14-17.02-1.33,1.31a1.974,1.974,0,0,0,2.86-1.77,1.949,1.949,0,0,0-.21-0.86l17.13-17.02-1.32,1.31a1.924,1.924,0,0,0,.86.22,2,2,0,0,0,2-1.98,1.924,1.924,0,0,0-.22-0.86l12.4-12.32v78.69Zm59.43-21.61a1.909,1.909,0,0,0-1.6,1.32c-1.82,1.55-3.66,3.06-5.58,4.44a1.993,1.993,0,0,0-3.83.76,1.9,1.9,0,0,0,.63,1.4c-1.95,1.27-3.92,2.49-5.95,3.58a1.8,1.8,0,0,0,.08-0.39,2,2,0,1,0-2.8,1.81c-2.1,1.03-4.26,1.9-6.43,2.74a1.99,1.99,0,0,0-3.98.03,1.94,1.94,0,0,0,.47,1.24c-2.09.7-4.17,1.4-6.3,1.95a2,2,0,0,0-1.41-.59,1.948,1.948,0,0,0-1.81,1.3,85.953,85.953,0,0,1-15.13,1.94,1.922,1.922,0,0,0,.48-1.25,1.941,1.941,0,0,0-2.64-1.86v-5.46a1.973,1.973,0,1,0,.65-3.83,1.752,1.752,0,0,0-.65.13v-5.47a1.981,1.981,0,1,0,0-3.7v-5.47a1.981,1.981,0,1,0,0-3.7v-5.47a1.981,1.981,0,1,0,0-3.7V6018a1.752,1.752,0,0,0,.65.13,1.981,1.981,0,1,0-.65-3.83v-5.46a1.977,1.977,0,1,0,.65-3.84,1.759,1.759,0,0,0-.65.14v-5.47a1.981,1.981,0,1,0,0-3.7v-5.47a1.981,1.981,0,1,0,0-3.7v-4.01l10.64,10.58-1.8-1.79a1.951,1.951,0,0,0-.96,1.65,1.973,1.973,0,0,0,3.66,1.03l15.75,15.66a1.942,1.942,0,0,0-.95,1.65,1.987,1.987,0,0,0,1.99,1.98,1.958,1.958,0,0,0,1.66-.95l17.11,16.99-1.35-1.34a1.961,1.961,0,1,0,2.7,2.68l9.22,9.17C3878.25,6040.68,3877.6,6041.17,3876.98,6041.72Z" transform="translate(-3732.06 -5916.06)"/>
</svg>
