<?xml version="1.0" encoding="utf-8"?>
<!-- Generator: Adobe Illustrator 16.0.0, SVG Export Plug-In . SVG Version: 6.00 Build 0)  -->
<!DOCTYPE svg PUBLIC "-//W3C//DTD SVG 1.1//EN" "http://www.w3.org/Graphics/SVG/1.1/DTD/svg11.dtd">
<svg version="1.1" id="Capa_1" xmlns="http://www.w3.org/2000/svg" xmlns:xlink="http://www.w3.org/1999/xlink" x="0px" y="0px"
	 width="512px" height="512px" viewBox="0 0 512 512" enable-background="new 0 0 512 512" xml:space="preserve">
<g>
	<path fill="#3F51A7" d="M504.485,417.137H393.354c42.586-43.234,66.027-100.381,66.027-161.137
		c0-75.283-36.977-145.881-98.913-188.849c-3.409-2.367-8.092-1.518-10.457,1.891c-2.366,3.41-1.519,8.092,1.892,10.457
		C409.79,119.66,444.351,185.642,444.351,256c0,57.338-22.328,111.244-62.872,151.788c-40.545,40.544-94.451,62.873-151.789,62.873
		c-34.225,0-66.932-7.813-97.212-23.22c-28.89-14.7-54.522-36.176-74.127-62.106c-2.502-3.31-7.216-3.965-10.526-1.462
		s-3.965,7.216-1.462,10.525c20.97,27.736,48.392,50.71,79.299,66.437c32.412,16.492,67.412,24.855,104.028,24.855h168.076
		c4.15,0,7.516-3.365,7.516-7.516c0-4.149-3.365-7.515-7.516-7.515h-86.031c23.603-9.011,45.651-21.959,65.348-38.495H496.97v38.495
		h-69.145c-4.15,0-7.515,3.364-7.515,7.515c0,4.151,3.363,7.516,7.515,7.516h76.66c4.149,0,7.515-3.365,7.515-7.516v-53.523
		C512,420.501,508.635,417.137,504.485,417.137L504.485,417.137z"/>
	<path fill="#3F51A7" d="M15.029,256c0-57.338,22.329-111.244,62.873-151.788s94.45-62.873,151.788-62.873
		c34.253,0,66.985,7.825,97.285,23.257c3.696,1.882,8.223,0.412,10.107-3.286c1.884-3.698,0.412-8.223-3.286-10.107
		C301.363,34.685,266.337,26.31,229.69,26.31c-61.352,0-119.033,23.892-162.415,67.274C23.892,136.967,0,194.647,0,256
		c0,39.395,10.144,78.262,29.336,112.4c2.165,3.852,7.347,4.998,10.94,2.418c3.069-2.202,4.01-6.491,2.161-9.782
		C24.507,329.141,15.029,292.82,15.029,256z"/>
	<path fill="#3F51A7" d="M111.453,395.359c10.535,8.977,23.455,13.365,36.317,13.365c15.86,0,31.627-6.678,42.691-19.662
		c1.429-1.67,2.763-3.435,3.965-5.244c15.801-23.62,11.391-55.336-10.262-73.781c-21.79-18.574-53.926-17.797-74.786,1.842
		c-1.571,1.497-2.959,2.961-4.232,4.463C85.1,339.866,87.929,375.313,111.453,395.359L111.453,395.359z M174.417,321.475
		c14.358,12.232,18.358,32.43,10.387,48.969c-25.371-9.924-46.563-27.877-60.589-51.325c7.043-4.972,15.298-7.476,23.572-7.476
		C157.237,311.643,166.711,314.906,174.417,321.475z M113.46,330.292c14.987,23.478,36.531,41.728,62.099,52.604
		c-15.029,13.83-38.426,14.601-54.357,1.023C105.338,370.4,102.346,347.316,113.46,330.292z"/>
	<path fill="#3F51A7" d="M402.286,197.929c-9.956-29.254-41.854-44.967-71.129-35.018c-1.746,0.598-3.438,1.267-5.006,1.979
		c-26.451,11.897-39.35,41.611-30.003,69.117c7.876,23.187,29.406,38.044,52.914,38.044c4.12,0,8.307-0.457,12.486-1.406
		c1.928-0.433,3.854-0.975,5.724-1.613C396.522,259.078,412.23,227.185,402.286,197.929L402.286,197.929z M310.377,229.173
		c-6.214-18.289,1.003-37.906,16.9-47.876c16.359,21.359,25.311,47.653,25.311,74.702c0,0.28-0.01,0.569-0.012,0.853
		c-1.164,0.099-2.325,0.164-3.479,0.164C331.895,257.014,316.14,246.139,310.377,229.173L310.377,229.173z M367.574,252.643
		c-0.676-27.721-9.715-54.589-25.791-77.007c2.469-0.456,4.94-0.686,7.392-0.686c17.086,0,33.079,10.767,38.882,27.818
		C394.727,222.39,385.621,243.625,367.574,252.643z"/>
	<path fill="#3F51A7" d="M268.908,389.055c11.074,12.988,26.844,19.665,42.708,19.665c12.858,0,25.78-4.389,36.309-13.36
		c23.523-20.047,26.354-55.494,6.318-79.004c-1.286-1.517-2.674-2.98-4.278-4.51c-20.825-19.604-52.957-20.382-74.74-1.813
		c-21.675,18.455-26.084,50.188-10.274,73.783C266.152,385.627,267.486,387.393,268.908,389.055z M338.176,383.92
		c-15.924,13.57-39.313,12.801-54.354-1.025c25.566-10.875,47.11-29.127,62.097-52.604
		C357.033,347.305,354.044,370.396,338.176,383.92z M284.973,321.475c7.707-6.572,17.184-9.834,26.635-9.834
		c8.272,0,16.525,2.504,23.558,7.473c-14.026,23.451-35.22,41.406-60.593,51.33C266.598,353.906,270.604,333.709,284.973,321.475
		L284.973,321.475z"/>
	<path fill="#3F51A7" d="M191.803,171.666c10.36,9.509,23.815,14.746,37.886,14.746c14.072,0,27.527-5.237,37.886-14.746
		c10.293-9.448,16.657-22.286,17.92-36.124c0.162-1.704,0.244-3.447,0.244-5.18c0-30.906-25.144-56.05-56.05-56.05
		c-30.906,0-56.05,25.144-56.05,56.05c0,1.732,0.082,3.475,0.242,5.152C175.145,149.38,181.511,162.219,191.803,171.666
		L191.803,171.666z M229.689,171.383c-19.421,0-35.702-13.251-39.942-31.648c12.815-4.405,26.223-6.637,39.942-6.637
		c13.72,0,27.127,2.232,39.944,6.637C265.402,158.122,249.117,171.383,229.689,171.383z M229.689,89.342
		c20.502,0,37.54,15.119,40.547,34.794c-13.082-4.024-26.674-6.067-40.547-6.067s-27.465,2.043-40.549,6.067
		C192.149,104.462,209.186,89.342,229.689,89.342z"/>
	<path fill="#3F51A7" d="M110.314,272.051c23.504,0,45.032-14.857,52.916-38.043c9.346-27.506-3.552-57.221-29.979-69.107
		c-1.592-0.723-3.284-1.392-5.047-1.996c-29.262-9.946-61.158,5.768-71.104,35.026c-4.818,14.175-3.829,29.377,2.786,42.806
		c6.615,13.429,18.065,23.478,32.217,28.289c1.858,0.639,3.785,1.184,5.704,1.615C101.996,271.592,106.185,272.051,110.314,272.051
		L110.314,272.051z M149.001,229.171c-6.157,18.104-23.673,29.271-42.2,27.692c-0.002-0.285-0.012-0.58-0.012-0.864
		c0-27.049,8.952-53.344,25.313-74.703C147.991,191.255,155.216,210.878,149.001,229.171L149.001,229.171z M73.369,234.096
		c-4.841-9.828-5.565-20.954-2.039-31.328c6.63-19.505,26.588-30.777,46.267-27.135c-16.078,22.42-25.118,49.29-25.794,77.014
		C83.818,248.669,77.378,242.235,73.369,234.096z"/>
	<path fill="#3F51A7" d="M266.402,256c0-20.243-16.469-36.712-36.712-36.712S192.978,235.757,192.978,256
		s16.469,36.712,36.712,36.712C249.934,292.712,266.402,276.243,266.402,256z M208.008,256c0-11.956,9.727-21.682,21.683-21.682
		s21.682,9.727,21.682,21.682s-9.727,21.682-21.682,21.682C217.734,277.682,208.008,267.956,208.008,256z"/>
</g>
</svg>
