<?xml version="1.0" encoding="utf-8"?>
<!-- Generator: Adobe Illustrator 16.0.0, SVG Export Plug-In . SVG Version: 6.00 Build 0)  -->
<!DOCTYPE svg PUBLIC "-//W3C//DTD SVG 1.1//EN" "http://www.w3.org/Graphics/SVG/1.1/DTD/svg11.dtd">
<svg version="1.1" id="Layer_1" xmlns="http://www.w3.org/2000/svg" xmlns:xlink="http://www.w3.org/1999/xlink" x="0px" y="0px"
	 width="662px" height="1280px" viewBox="0 0 662 1280" enable-background="new 0 0 662 1280" xml:space="preserve">
<g transform="translate(0.000000,1280.000000) scale(0.100000,-0.100000)">
	<path fill="#B23F4C" d="M3976.003,12784.999c-459.004-75-837.002-357.002-1030-766.001
		c-49.004-102.998-91.006-226.997-101.006-292.998c-3.994-23.003-10-48.003-13.994-53.999c-5-8.003-140-42.002-167.002-42.002
		c-1.006,0-21.006,30-46.006,67.998c-160.996,239.004-425.996,411.001-721.992,467.002c-94.004,17.998-282.002,21.001-377.002,6.001
		c-389.004-63.003-727.998-330-870-686.001c-179.004-448.999-67.998-945,282.998-1262.998c120.996-110,275-199.004,420.996-243.003
		l67.002-21.001v-63.999v-63.999H1307c-62.002,0-117.002,3.999-122.998,8.999c-5,5-65,30-132.998,55
		c-121.006,45-128.008,47.002-221.006,43.999l-95.996-2.998l142.998-300c80-165,147.002-302.998,150.996-307.002
		c4.004-3.994,30-2.002,57.002,5c44.004,11.006,54.004,19.004,85,65l34.004,52.002H1312h107.998v-705v-705h180
		c142.002,0,180-2.998,180-12.998c0-19.004-38.994-300-42.002-302.998c-1.992-1.006-195-38.008-430-83.008l-427.998-80.996l-90,45
		c-48.994,25-97.002,45-107.002,45c-28.994,0-666.992-122.002-675-129.004c-3.994-3.994,1.006-78.994,12.002-165.996
		c29.004-230,27.002-224.003,50-217.998c10,2.998,165,32.998,345,67.001l326.006,62.998l81.992,80.996l82.002,81.006l210,45
		c524.004,112.998,717.998,155.996,722.998,160.996c4.004,4.004,56.006,295,72.002,402.998c0,1.006,774.004,2.002,1720,2.002h1720
		v1170v1170h-150c-81.992,0-150,2.002-150,3.999c0,2.002,34.004,37.002,76.006,77.002
		c192.002,186.001,327.998,433.999,385.996,701.997c31.006,145,31.006,398.003,0,544.004
		c-57.998,270.996-192.998,513.999-390.996,705.996c-186.006,180-395,293.003-651.006,353.003
		C4334.001,12797.997,4107.995,12807.001,3976.003,12784.999z M3026.999,10702.997c54.004-85,132.002-180,207.002-251.997
		c37.002-35,65-65,62.998-67.002c-2.002-2.998-160-2.998-350-1.997l-347.002,2.998l31.006,45
		c41.992,62.002,103.994,186.001,120,238.999c6.992,23.003,18.994,45,26.992,48.003c14.004,5.996,177.002,40,200,41.997
		C2984.997,10758.998,3006.999,10733.998,3026.999,10702.997z M5009.001,8495.995c40.996-21.992,60.996-58.994,60.996-111.992
		c0-39.004-5-51.006-33.994-80c-29.004-29.004-41.006-34.004-80-34.004c-52.998,0-90,20-112.002,60.996
		C4789.001,8437.997,4901.999,8550.995,5009.001,8495.995z"/>
	<path fill="#B23F4C" d="M6274.997,10317.997l-340-206.997h-271.992l-273.008-1.001v-525v-525h271.006h272.002l338.994-205.996
		c187.002-113.008,341.006-204.004,344.004-202.002c2.002,2.998,2.998,425,2.002,938.994l-3.008,935.005L6274.997,10317.997z"/>
	<path fill="#B23F4C" d="M2459.997,7714.999v-235h61.006c52.998,0,60-2.002,55-17.002c-5-15.996-73.008-355-435-2152.998
		l-107.002-535l-57.002-2.998l-57.002-2.998V4625v-145h25c14.004,0,25-4.004,25-7.998c0-5-65-332.002-143.994-727.998
		c-262.002-1301.006-646.006-3209.003-651.006-3230c-3.994-18.008,5-22.002,81.006-41.006c60-15,86.992-17.002,88.994-8.994
		c2.002,5.996,200,735.996,440,1620.996c626.006,2307.002,645,2377.002,651.006,2385.996c2.998,5,31.992,9.004,65,9.004h58.994v145
		c0,137.998-0.996,145-20,145c-25.996,0-25,7.002,9.004,130.996c15.996,57.002,120,439.004,230.996,849.004
		c111.006,410,217.002,799.004,235,865l32.998,120l6.006-75c3.994-40.996,23.994-365,45.996-720s62.002-1009.004,90-1455
		c27.998-445,66.006-1062.002,85-1370c60-972.002,164.004-2652.998,175-2835c6.006-95.996,12.998-199.004,16.006-227.002l5-52.998
		h105h103.994v32.998c0,19.004,16.006,337.002,35,707.998c32.002,613.008,52.998,1032.002,145,2819.003
		c17.002,322.002,35,655,41.006,740c5.996,85,12.998,210.996,15,280c3.994,122.998,25,537.002,83.994,1680
		c16.006,315.996,30,602.998,30,637.998c0,34.004,4.004,62.002,10,62.002c6.006,0,10-5.996,10-14.004
		c0-7.998,34.004-140,76.006-292.998c40.996-152.998,173.994-642.002,295-1085.996l218.994-809.004v-138.994V4480h35
		c28.008,0,37.002-5,44.004-22.998c5-12.998,214.004-779.004,465-1702.002c655-2415.996,645-2377.002,650-2382.998
		c7.998-7.002,165.996,28.994,165.996,37.998c0,4.004-107.998,545-240.996,1200.996c-132.002,657.002-302.998,1505-379.004,1884.004
		c-75.996,380-151.992,754.004-167.998,832.002c-15.996,77.998-27.002,145-23.994,147.998c2.998,2.998,25,5,48.994,5h42.998v145v145
		h-78.994h-77.998l-71.006,352.998c-38.994,192.998-160.996,800-270.996,1347.002c-111.006,547.002-201.006,999.003-201.006,1005
		s20,9.004,50,7.002l50-4.004v236.006v235.996h-1110h-1110V7714.999z M3011.003,7362.997c1.992-82.998-4.004-107.998-94.004-437.998
		c-52.002-192.002-164.004-602.002-247.002-910c-83.994-307.998-193.994-712.998-243.994-900l-93.008-340l-61.992-2.998
		l-62.002-2.998l7.002,27.998c3.994,15,126.992,623.994,273.994,1352.998l266.006,1325l120,5
		C3016.003,7485.995,3007.995,7492.997,3011.003,7362.997z M3849.997,7447.997c0-17.998-12.998-288.994-30-602.998
		c-15.996-312.998-45-889.004-65-1280c-18.994-390-37.998-734.004-40.996-762.002l-5-52.998h-162.998h-162.002l-12.002,187.998
		c-7.002,102.998-35,552.002-62.002,997.002c-27.002,445.996-58.994,950.996-70,1124.004
		c-17.998,287.998-18.994,316.992-3.994,366.992l15,54.004h300h298.994V7447.997z M4399.997,7477.001
		c0-2.002,122.002-607.998,270-1346.005c149.004-738.994,270-1346.992,270-1351.992c0-6.006-26.992-9.004-61.992-7.002
		l-61.006,2.998l-172.002,635c-95,349.004-256.992,945.996-358.994,1325c-103.008,380-191.006,702.001-196.006,717.998
		l-8.994,27.002h160C4328.005,7479.999,4399.997,7477.997,4399.997,7477.001z M2249.997,4474.003
		c0-3.008-65.996-247.002-145.996-542.002c-80-295-160-590-176.006-655c-16.992-64.004-32.998-116.006-35-114.004
		c-3.994,5,254.004,1295,262.002,1307.998C2161.999,4480.996,2249.997,4484.003,2249.997,4474.003z M5146.003,3765
		c127.998-635,160.996-815,125-667.998c-7.002,25.996-92.998,345.996-192.002,708.994c-97.998,364.004-179.004,665-179.004,669.004
		c0,2.998,23.008,5,52.002,2.998l52.002-2.998L5146.003,3765z M3694.001,4387.998c-2.002-35-14.004-237.998-24.004-452.998
		c-10.996-214.004-37.998-740-60-1167.998c-22.002-427.002-40-797.998-40-824.004c0-90.996-10-33.994-20,112.998
		c-10,152.002-57.002,916.006-110,1784.004c-15.996,267.002-32.002,512.998-35,547.998l-5.996,62.002h150h150L3694.001,4387.998z"/>
</g>
</svg>
