<?xml version="1.0" encoding="utf-8"?>
<!-- Generator: Adobe Illustrator 16.0.0, SVG Export Plug-In . SVG Version: 6.00 Build 0)  -->
<!DOCTYPE svg PUBLIC "-//W3C//DTD SVG 1.1//EN" "http://www.w3.org/Graphics/SVG/1.1/DTD/svg11.dtd">
<svg version="1.1" id="Layer_1" xmlns="http://www.w3.org/2000/svg" xmlns:xlink="http://www.w3.org/1999/xlink" x="0px" y="0px"
	 width="512px" height="512px" viewBox="0 0 512 512" enable-background="new 0 0 512 512" xml:space="preserve">
<path fill="#B23F4C" d="M206,60c5.52,0,10-4.48,10-10s-4.48-10-10-10s-10,4.48-10,10S200.48,60,206,60z"/>
<path fill="#B23F4C" d="M492,116c0,23.988-9.371,46.582-26.395,63.609c-3.902,3.906-3.902,10.238,0.004,14.145
	c3.906,3.902,10.238,3.902,14.145-0.004C500.547,172.941,512,145.332,512,116s-11.453-56.941-32.246-77.75
	c-3.906-3.906-10.238-3.906-14.145-0.004c-3.906,3.906-3.906,10.238-0.004,14.145C482.629,69.418,492,92.012,492,116z"/>
<path fill="#B23F4C" d="M437.344,165.484c3.902,3.902,10.234,3.902,14.141-0.008C464.715,152.234,472,134.664,472,116
	s-7.285-36.234-20.516-49.477c-3.902-3.906-10.234-3.91-14.141-0.008c-3.91,3.902-3.91,10.234-0.008,14.141
	C446.793,90.121,452,102.676,452,116s-5.207,25.879-14.664,35.344C433.433,155.25,433.437,161.582,437.344,165.484z"/>
<path fill="#B23F4C" d="M46.39,193.754c3.906-3.906,3.906-10.238,0.004-14.145C29.371,162.582,20,139.988,20,116
	s9.371-46.582,26.395-63.609c3.902-3.906,3.902-10.238-0.004-14.145c-3.906-3.902-10.238-3.902-14.145,0.004
	C11.453,59.059,0,86.668,0,116s11.453,56.941,32.246,77.75C36.148,197.652,42.48,197.66,46.39,193.754z"/>
<path fill="#B23F4C" d="M60.515,165.477c3.902,3.906,10.234,3.914,14.141,0.008c3.91-3.902,3.91-10.234,0.008-14.141
	C65.207,141.879,60,129.324,60,116s5.207-25.879,14.664-35.344c3.902-3.906,3.898-10.238-0.008-14.141s-10.238-3.902-14.141,0.008
	C47.285,79.766,40,97.336,40,116S47.285,152.234,60.515,165.477z"/>
<path fill="#B23F4C" d="M406,30c0-16.543-13.457-30-30-30H136c-16.543,0-30,13.457-30,30v452c0,16.543,13.457,30,30,30h240
	c16.543,0,30-13.457,30-30V30z M126,100h260v312H126V100z M136,20h240c5.516,0,10,4.484,10,10v50H126V30
	C126,24.484,130.484,20,136,20z M376,492H136c-5.516,0-10-4.484-10-10v-50h260v50C386,487.516,381.515,492,376,492z"/>
<path fill="#B23F4C" d="M286,452h-60c-5.523,0-10,4.477-10,10s4.477,10,10,10h60c5.523,0,10-4.477,10-10S291.523,452,286,452z"/>
<path fill="#B23F4C" d="M246,60h60c5.523,0,10-4.477,10-10s-4.477-10-10-10h-60c-5.523,0-10,4.477-10,10S240.476,60,246,60z"/>
<path fill="#B23F4C" d="M326,207.008V196c0-38.598-31.402-70-70-70s-70,31.402-70,70v11.008c-22.797,4.645-40,24.844-40,48.992
	c0,27.57,22.43,50,50,50c5.523,0,10-4.477,10-10c0-11.266,0-90.035,0-100c0-27.57,22.43-50,50-50s50,22.43,50,50v100
	c0,5.523,4.477,10,10,10c27.57,0,50-22.43,50-50C366,231.855,348.797,211.652,326,207.008z M186,284.285
	c-11.641-4.125-20-15.246-20-28.285s8.359-24.16,20-28.285V284.285z M326,284.285v-56.57c11.641,4.125,20,15.25,20,28.285
	C346,269.039,337.64,280.16,326,284.285z"/>
<path fill="#B23F4C" d="M196,346c-5.523,0-10,4.477-10,10v20c0,5.523,4.477,10,10,10s10-4.477,10-10v-20
	C206,350.477,201.523,346,196,346z"/>
<path fill="#B23F4C" d="M236,326c-5.523,0-10,4.477-10,10v40c0,5.523,4.477,10,10,10s10-4.477,10-10v-40
	C246,330.477,241.523,326,236,326z"/>
<path fill="#B23F4C" d="M276,346c-5.523,0-10,4.477-10,10v20c0,5.523,4.477,10,10,10s10-4.477,10-10v-20
	C286,350.477,281.523,346,276,346z"/>
<path fill="#B23F4C" d="M316,326c-5.523,0-10,4.477-10,10v40c0,5.523,4.477,10,10,10s10-4.477,10-10v-40
	C326,330.477,321.523,326,316,326z"/>
</svg>
