<?xml version="1.0" encoding="utf-8"?>
<!-- Generator: Adobe Illustrator 16.0.0, SVG Export Plug-In . SVG Version: 6.00 Build 0)  -->
<!DOCTYPE svg PUBLIC "-//W3C//DTD SVG 1.1//EN" "http://www.w3.org/Graphics/SVG/1.1/DTD/svg11.dtd">
<svg version="1.1" id="Layer_1" xmlns="http://www.w3.org/2000/svg" xmlns:xlink="http://www.w3.org/1999/xlink" x="0px" y="0px"
	 width="283.46px" height="226.77px" viewBox="0 0 283.46 226.77" enable-background="new 0 0 283.46 226.77" xml:space="preserve">
<g>
	<g>
		<path fill="#B23F4C" d="M251.322,158.74V18.906c-0.033-1.169-0.605-2.258-1.551-2.947c-0.217-0.296-0.457-0.574-0.717-0.832
			C238.568,5.242,224.65-0.178,210.24,0.01c-15.032-0.288-29.525,5.599-40.098,16.289c-9.123,9.176-21.606,14.216-34.543,13.945
			c-8.852,0.064-17.562-2.218-25.246-6.613c-2.007-1.177-4.493-1.177-6.5,0c-2.331,1.381-3.744,3.905-3.704,6.613v136.055
			c-12.524-16.698-36.212-20.082-52.911-7.559c-16.698,12.523-20.082,36.212-7.558,52.91s36.212,20.082,52.91,7.559
			c9.516-7.138,15.117-18.338,15.117-30.234V64.825c8.555,4.655,18.152,7.062,27.891,6.991c15.046,0.305,29.557-5.585,40.137-16.288
			c9.115-9.163,21.582-14.201,34.504-13.946c10.904-0.15,21.547,3.348,30.234,9.94c0.945,0.762,2.084,1.246,3.289,1.397v86.924
			c-12.524-16.698-36.213-20.082-52.911-7.559s-20.082,36.212-7.559,52.91s36.212,20.083,52.91,7.559
			c9.517-7.137,15.117-18.338,15.117-30.234c0-1.021,0-2.003,0-3.023C251.347,159.245,251.347,158.991,251.322,158.74z
			 M69.915,219.209c-16.698,0-30.234-13.536-30.234-30.234s13.536-30.234,30.234-30.234s30.234,13.536,30.234,30.234
			S86.613,219.209,69.915,219.209z M213.528,192.754c-16.698,0-30.234-13.536-30.234-30.234s13.536-30.234,30.234-30.234
			s30.235,13.536,30.235,30.234S230.226,192.754,213.528,192.754z M243.763,44.531c-9.78-6.964-21.519-10.643-33.523-10.507
			c-15.032-0.289-29.525,5.599-40.098,16.289c-9.123,9.176-21.607,14.216-34.543,13.945c-9.953,0.119-19.698-2.852-27.891-8.503
			V30.849c8.565,4.625,18.157,7.017,27.891,6.954c15.046,0.304,29.557-5.585,40.136-16.289c9.116-9.163,21.582-14.201,34.505-13.945
			c12.471-0.249,24.53,4.469,33.522,13.114L243.763,44.531L243.763,44.531z"/>
	</g>
</g>
</svg>
