<?xml version="1.0" encoding="utf-8"?>
<!-- Generator: Adobe Illustrator 16.0.0, SVG Export Plug-In . SVG Version: 6.00 Build 0)  -->
<!DOCTYPE svg PUBLIC "-//W3C//DTD SVG 1.1//EN" "http://www.w3.org/Graphics/SVG/1.1/DTD/svg11.dtd">
<svg version="1.1" id="Layer_1" xmlns="http://www.w3.org/2000/svg" xmlns:xlink="http://www.w3.org/1999/xlink" x="0px" y="0px"
	 width="283.46px" height="226.77px" viewBox="0 0 283.46 226.77" enable-background="new 0 0 283.46 226.77" xml:space="preserve">
<path id="Nota" fill="#B23F4C" d="M201.679,0.424c-1.149-0.612-2.537-0.557-3.627,0.152l-52.935,34.686
	c-1,0.657-1.603,1.771-1.603,2.965v141.302c-6.452-7.194-16.698-11.878-28.252-11.878c-19.485,0-35.339,13.26-35.339,29.561
	c0,16.298,15.854,29.558,35.339,29.558c19.484,0,35.339-13.26,35.339-29.558c0-0.751,0-110.236,0-110.236l51.356-34.235
	c0.986-0.657,1.578-1.765,1.578-2.948V3.542C203.537,2.24,202.824,1.043,201.679,0.424z M115.263,219.682
	c-15.578,0-28.253-10.079-28.253-22.471s12.675-22.475,28.253-22.475s28.252,10.083,28.252,22.475S130.841,219.682,115.263,219.682z
	 M196.451,47.895l-45.849,30.564V40.141l45.849-30.042V47.895z"/>
</svg>
