<?xml version="1.0" encoding="utf-8"?>
<!-- Generator: Adobe Illustrator 16.0.0, SVG Export Plug-In . SVG Version: 6.00 Build 0)  -->
<!DOCTYPE svg PUBLIC "-//W3C//DTD SVG 1.1//EN" "http://www.w3.org/Graphics/SVG/1.1/DTD/svg11.dtd">
<svg version="1.1" id="Capa_1" xmlns="http://www.w3.org/2000/svg" xmlns:xlink="http://www.w3.org/1999/xlink" x="0px" y="0px"
	 width="283.46px" height="226.77px" viewBox="0 0 283.46 226.77" enable-background="new 0 0 283.46 226.77" xml:space="preserve">
<path fill="none" stroke="#B23F4C" stroke-width="7" stroke-miterlimit="10" d="M207.548,144.218
	c7.048-11.793,11.724-26.709,12.631-41.468c0.575-9.473-1.535-19.416-6.105-28.767c-7.171-14.689-19.487-22.941-31.385-30.914
	c-8.88-5.948-17.271-11.565-23.203-19.591l-1.063-1.431c-3.507-4.71-7.467-10.049-8.095-14.532
	c-0.628-4.535-4.745-7.763-9.246-7.501c-4.571,0.313-8.112,4.1-8.112,8.688v155.438c-7.31-4.431-16.312-7.152-26.168-7.152
	c-24.04,0-43.613,15.648-43.613,34.891s19.574,34.891,43.613,34.891c24.04,0,43.613-15.648,43.613-34.891V90.207
	c13.102,5.007,34.542,17.76,40.438,47.539c-1.099,1.622-2.146,3.367-3.367,4.763c-3.191,3.611-2.844,9.124,0.785,12.299
	c3.594,3.21,9.107,2.826,12.299-0.785c2.338-2.651,4.414-5.757,6.402-9.002C207.182,144.777,207.375,144.515,207.548,144.218z"/>
</svg>
