<?xml version="1.0" encoding="utf-8"?>
<!-- Generator: Adobe Illustrator 16.0.0, SVG Export Plug-In . SVG Version: 6.00 Build 0)  -->
<!DOCTYPE svg PUBLIC "-//W3C//DTD SVG 1.1//EN" "http://www.w3.org/Graphics/SVG/1.1/DTD/svg11.dtd">
<svg version="1.1" id="Layer_1" xmlns="http://www.w3.org/2000/svg" xmlns:xlink="http://www.w3.org/1999/xlink" x="0px" y="0px"
	 width="512px" height="512px" viewBox="0 0 512 512" enable-background="new 0 0 512 512" xml:space="preserve">
<path fill="#3F51A7" d="M240,40h32v16h-32V40z"/>
<path fill="#3F51A7" d="M288,40h16v16h-16V40z"/>
<path fill="#3F51A7" d="M208,40h16v16h-16V40z"/>
<path fill="#3F51A7" d="M488,96h-88V40c0-13.255-10.745-24-24-24H136c-13.255,0-24,10.745-24,24v56H24c-4.418,0-8,3.582-8,8v320
	c0,4.418,3.582,8,8,8h88v40c0,13.255,10.745,24,24,24h240c13.255,0,24-10.745,24-24v-40h88c4.419,0,8-3.582,8-8V104
	C496,99.582,492.419,96,488,96z M128,40c0-4.418,3.582-8,8-8h240c4.419,0,8,3.582,8,8v56h-16V72c0-4.418-3.581-8-8-8H152
	c-4.418,0-8,3.582-8,8v24h-16V40z M352,96H160V80h192V96z M384,472c0,4.418-3.581,8-8,8H136c-4.418,0-8-3.582-8-8v-40h16v24
	c0,4.418,3.582,8,8,8h208c4.419,0,8-3.582,8-8v-24h16V472z M160,432h192v16H160V432z M480,416H32V112h448V416z"/>
<path fill="#3F51A7" d="M56,400h400c4.419,0,8-3.582,8-8V136c0-4.418-3.581-8-8-8H56c-4.418,0-8,3.582-8,8v256
	C48,396.418,51.582,400,56,400z M64,384V208h384v176H64z M448,144v48H64v-48H448z"/>
<path fill="#3F51A7" d="M232,224H88c-4.418,0-8,3.582-8,8v128c0,4.418,3.582,8,8,8h144c4.419,0,8-3.582,8-8V232
	C240,227.582,236.419,224,232,224z M224,240v55.352l-27-21.6c-3.399-2.723-8.354-2.225-11.144,1.12l-19.2,23.017l-32.504-39.009
	c-2.825-3.396-7.87-3.859-11.267-1.034c-0.761,0.633-1.397,1.401-1.878,2.266L96,305.128V240H224z M96,338.072l33.328-60L190.92,352
	H96V338.072z M211.752,352l-34.68-41.6l16.056-19.24L224,315.848V352H211.752z"/>
<path fill="#3F51A7" d="M272,224h16v16h-16V224z"/>
<path fill="#3F51A7" d="M304,224h128v16H304V224z"/>
<path fill="#3F51A7" d="M272,256h16v16h-16V256z"/>
<path fill="#3F51A7" d="M304,256h128v16H304V256z"/>
<path fill="#3F51A7" d="M272,288h16v16h-16V288z"/>
<path fill="#3F51A7" d="M304,288h128v16H304V288z"/>
<path fill="#3F51A7" d="M272,320h16v16h-16V320z"/>
<path fill="#3F51A7" d="M304,320h128v16H304V320z"/>
<path fill="#3F51A7" d="M272,352h16v16h-16V352z"/>
<path fill="#3F51A7" d="M304,352h128v16H304V352z"/>
<path fill="#3F51A7" d="M80,160h16v16H80V160z"/>
<path fill="#3F51A7" d="M112,160h16v16h-16V160z"/>
<path fill="#3F51A7" d="M144,160h16v16h-16V160z"/>
</svg>
