<?xml version="1.0" encoding="utf-8"?>
<!-- Generator: Adobe Illustrator 16.0.0, SVG Export Plug-In . SVG Version: 6.00 Build 0)  -->
<!DOCTYPE svg PUBLIC "-//W3C//DTD SVG 1.1//EN" "http://www.w3.org/Graphics/SVG/1.1/DTD/svg11.dtd">
<svg version="1.1" id="Layer_1" xmlns="http://www.w3.org/2000/svg" xmlns:xlink="http://www.w3.org/1999/xlink" x="0px" y="0px"
	 width="512px" height="512px" viewBox="0 0 512 512" enable-background="new 0 0 512 512" xml:space="preserve">
<path fill="#3F51A7" d="M48,376c0,17.674,14.327,32,32,32h84.904l-13.32,40H136c-13.255,0-24,10.745-24,24s10.745,24,24,24h72v-16
	h-72c-4.418,0-8-3.582-8-8s3.582-8,8-8h72v-16h-39.544l13.312-40H224v-16H80c-8.836,0-16-7.164-16-16V152h384v88h16V104
	c0-17.673-14.327-32-32-32H80c-17.673,0-32,14.327-32,32V376z M80,88h352c8.837,0,16,7.164,16,16v32H64v-32
	C64,95.164,71.164,88,80,88z"/>
<path fill="#3F51A7" d="M80,104h16v16H80V104z"/>
<path fill="#3F51A7" d="M112,104h16v16h-16V104z"/>
<path fill="#3F51A7" d="M144,104h16v16h-16V104z"/>
<path fill="#3F51A7" d="M424,232v-48c0-4.418-3.582-8-8-8H96c-4.418,0-8,3.582-8,8v48c0,4.418,3.582,8,8,8h320
	C420.418,240,424,236.418,424,232z M408,224H104v-32h304V224z"/>
<path fill="#3F51A7" d="M88,256h16v16H88V256z"/>
<path fill="#3F51A7" d="M120,256h104v16H120V256z"/>
<path fill="#3F51A7" d="M88,288h136v16H88V288z"/>
<path fill="#3F51A7" d="M88,320h136v16H88V320z"/>
<path fill="#3F51A7" d="M88,352h136v16H88V352z"/>
<path fill="#3F51A7" d="M496,472c-0.042-10.134-6.445-19.15-16-22.528V288c0-17.674-14.327-32-32-32H272c-17.673,0-32,14.326-32,32
	v161.472c-12.473,4.394-19.022,18.066-14.629,30.539C228.75,489.606,237.826,496.02,248,496h224C485.255,496,496,485.255,496,472z
	 M256,448V336h208v112H256z M272,272h176c8.837,0,16,7.164,16,16v32H256v-32C256,279.164,263.164,272,272,272z M240,472
	c0-4.418,3.582-8,8-8h224c4.418,0,8,3.582,8,8s-3.582,8-8,8H248C243.582,480,240,476.418,240,472z"/>
<path fill="#3F51A7" d="M272,288h16v16h-16V288z"/>
<path fill="#3F51A7" d="M304,288h16v16h-16V288z"/>
<path fill="#3F51A7" d="M336,288h16v16h-16V288z"/>
<path fill="#3F51A7" d="M440,352H280c-4.418,0-8,3.582-8,8v32c0,4.418,3.582,8,8,8h160c4.418,0,8-3.582,8-8v-32
	C448,355.582,444.418,352,440,352z M432,384H288v-16h144V384z"/>
<path fill="#3F51A7" d="M272,416h16v16h-16V416z"/>
<path fill="#3F51A7" d="M304,416h144v16H304V416z"/>
<path fill="#3F51A7" d="M104,40h272v16H104V40z"/>
<path fill="#3F51A7" d="M392,40h16v16h-16V40z"/>
</svg>
