<?xml version="1.0" encoding="utf-8"?>
<!-- Generator: Adobe Illustrator 16.0.0, SVG Export Plug-In . SVG Version: 6.00 Build 0)  -->
<!DOCTYPE svg PUBLIC "-//W3C//DTD SVG 1.1//EN" "http://www.w3.org/Graphics/SVG/1.1/DTD/svg11.dtd">
<svg version="1.1" id="regular" xmlns="http://www.w3.org/2000/svg" xmlns:xlink="http://www.w3.org/1999/xlink" x="0px" y="0px"
	 width="512px" height="512px" viewBox="0 0 512 512" enable-background="new 0 0 512 512" xml:space="preserve">
<circle fill="#fff" cx="859" cy="350" r="256"/>
<path fill="#fff" d="M408.083,202.6c-0.536-3.211-0.974-5.716-4.378-7.795c-139.242-82.592-137.271-88.746-146.311-83.286
	c-105.528,65.602-134.899,80.232-139.12,85.341c-3.832,3.929-2.08,9.949-2.08,100.92c-0.255,10.351,94.17,66.429,140.094,102.21
	c4.05,2.882,9.145,2.42,12.197-0.354c136.509-96.76,139.826-92.868,139.597-101.855C408.083,297.779,407.938,201.372,408.083,202.6
	L408.083,202.6z M389.84,281.543l-47.139-28.688l47.139-32.803V281.543z M325.661,242.479l-54.399-33.105v-73.823l110.989,67.561
	L325.661,242.479z M262.141,286.664L215,253.862l47.141-28.689l47.139,28.689L262.141,286.664z M253.018,135.539v73.872
	c-21.15,13.123-39.028,24.081-54.133,33.251l-56.857-39.55L253.018,135.539z M181.785,253
	c-22.791,13.707-37.677,22.415-47.346,28.216v-61.164L181.785,253z M197.961,264.238l55.057,38.298v72.958l-110.991-77.216
	L197.961,264.238z M271.262,375.507v-72.961l55.057-38.297l55.934,34.042L271.262,375.507z"/>
</svg>
