<svg id="Capa_1" enable-background="new 0 0 512 512" height="512" viewBox="0 0 512 512" width="512" xmlns="http://www.w3.org/2000/svg"><g><g><g clip-rule="evenodd" fill-rule="evenodd"><g><path d="m7.5 107.041v197c0 8.284 6.716 15 15 15h90.251l42 44 42-44h65.746 24.505c8.284 0 15-6.716 15-15v-98.5-98.5c0-8.284-6.716-15-15-15h-264.502c-8.284-.001-15 6.715-15 15zm147.251 171.271-60.009-60.009c-45.321-45.321 12.887-100.377 60.009-46.759 47.122-53.618 105.331 1.438 60.009 46.759z" fill="#f2c0d7"/><path d="m154.751 171.544c-47.122-53.618-105.331 1.438-60.009 46.759l60.009 60.009 60.009-60.009c45.322-45.321-12.887-100.377-60.009-46.759z" fill="#ed6e8c"/><path d="m262.497 319.041v46.001c0 8.284 6.716 15 15 15h71.501l34.5 36.5 34.5-36.5h71.502c8.284 0 15-6.716 15-15v-144.501c0-8.284-6.716-15-15-15h-187.498v98.5c0 8.284-6.716 15-15 15zm121.002 26.763-42.381-42.381c-32.007-32.007 9.102-70.89 42.381-33.023 33.279-37.867 74.388 1.015 42.381 33.023z" fill="#f2c0d7"/><path d="m383.499 270.4c-33.279-37.867-74.388 1.015-42.381 33.023l42.381 42.381 42.381-42.381c32.007-32.007-9.102-70.89-42.381-33.023z" fill="#ed6e8c"/><path d="m7.5 107.041v197c0 8.284 6.716 15 15 15h22.5c-8.284 0-15-6.716-15-15v-197c0-8.284 6.716-15 15-15h-22.5c-8.284-.001-15 6.715-15 15z" fill="#f2a7cb"/><g fill="#db4b6d"><path d="m124.768 151.09c-36.963-10.536-65.864 31.374-30.026 67.213l60.009 60.009 11.25-11.25-48.759-48.76c-28-27.999-16.478-59.702 7.526-67.212z"/><path d="m365.814 257.159c-27.703-11.275-51.126 19.835-24.697 46.264l42.381 42.381 11.25-11.25-31.131-31.131c-18.519-18.52-12.56-39.34 2.197-46.264z"/></g></g><path d="m262.497 319.041v46.001c0 8.284 6.716 15 15 15h15c-8.284 0-15-6.716-15-15v-31.002h9.505c16.563 0 30-13.436 30-30v-98.5h-15v98.5c0 8.284-6.716 15-15 15h-24.505z" fill="#f2a7cb"/></g><g><path d="m284.997 342.542h15v15h-15z" fill="#fff"/></g><g><path d="m467 228.04h15v15h-15z" fill="#fff"/></g><g><path d="m264.503 114.54h15v15h-15z" fill="#fff"/></g><g><path d="m234.503 114.54h15v15h-15z" fill="#fff"/></g><g><path d="m59.999 281.541h15v15h-15z" fill="#fff"/></g><g><path d="m30 281.541h15v15h-15z" fill="#fff"/></g><g><path d="m189.568 175.355h15v15h-15z" fill="#fff"/></g></g><g><path d="m309.502 304.04v-38.5h-15v38.5c0 4.136-3.364 7.5-7.5 7.5h-93.46l-38.791 40.639-38.79-40.639h-93.461c-4.136 0-7.5-3.364-7.5-7.5v-197c0-4.136 3.364-7.5 7.5-7.5h37.5v-15h-37.5c-12.406 0-22.5 10.094-22.5 22.5v197c0 12.406 10.094 22.5 22.5 22.5h87.042l45.209 47.363 45.209-47.363h87.042c12.406 0 22.5-10.094 22.5-22.5z"/><path d="m294.502 107.04v143.5h15v-143.5c0-12.406-10.094-22.5-22.5-22.5h-212.002v15h212.002c4.136 0 7.5 3.364 7.5 7.5z"/><path d="m489.5 198.04h-164.998v15h164.998c4.136 0 7.5 3.364 7.5 7.5v92.002h15v-92.002c0-12.406-10.094-22.5-22.5-22.5z"/><path d="m497 365.041c0 4.136-3.364 7.5-7.5 7.5h-74.733l-31.268 33.083-31.269-33.083h-74.733c-4.136 0-7.5-3.364-7.5-7.5v-23.501h-15v23.501c0 12.406 10.094 22.5 22.5 22.5h68.271l37.731 39.919 37.73-39.919h68.271c12.406 0 22.5-10.094 22.5-22.5v-37.499h-15z"/><path d="m104.442 238.609 10.606-10.605-15.003-15.005c-11.748-11.747-16.521-25.235-13.094-37.007 2.719-9.343 10.139-16.21 19.846-18.369 13.683-3.038 29.106 3.835 42.32 18.872l5.633 6.41 5.633-6.41c13.215-15.036 28.64-21.911 42.321-18.872 9.707 2.16 17.126 9.026 19.846 18.369 3.427 11.771-1.346 25.26-13.094 37.008l-54.706 54.706-29.096-29.096-10.606 10.605 39.702 39.703 65.313-65.313c15.736-15.736 21.893-34.619 16.89-51.807-4.209-14.46-16.084-25.502-30.991-28.818-17.106-3.806-35.434 2.625-51.211 17.724-15.778-15.099-34.104-21.529-51.21-17.724-14.907 3.315-26.782 14.358-30.991 28.818-5.003 17.188 1.153 36.07 16.89 51.806z"/><path d="m347.632 320.544 10.607-10.605-11.818-11.819c-7.71-7.71-10.878-16.443-8.689-23.961 1.692-5.814 6.32-10.091 12.379-11.438 8.851-1.964 18.97 2.635 27.755 12.632l5.634 6.41 5.634-6.41c8.785-9.997 18.897-14.601 27.754-12.632 6.059 1.348 10.687 5.624 12.379 11.438 2.188 7.518-.979 16.251-8.69 23.962l-37.076 37.077-14.654-14.653-10.605 10.607 25.26 25.259 47.683-47.684c11.7-11.699 16.251-25.827 12.486-38.761-3.198-10.984-12.212-19.372-23.524-21.888-12.267-2.731-25.305 1.495-36.645 11.664-11.339-10.168-24.375-14.392-36.646-11.664-11.313 2.517-20.327 10.903-23.524 21.888-3.765 12.934.786 27.062 12.485 38.76z"/></g></g></svg>