<?xml version="1.0" encoding="utf-8"?>
<!-- Generator: Adobe Illustrator 24.1.3, SVG Export Plug-In . SVG Version: 6.00 Build 0)  -->
<svg version="1.1" id="Capa_1" xmlns="http://www.w3.org/2000/svg" xmlns:xlink="http://www.w3.org/1999/xlink" x="0px" y="0px"
	 viewBox="0 0 512 512" style="enable-background:new 0 0 512 512;" xml:space="preserve">
<style type="text/css">
	.st0{fill-rule:evenodd;clip-rule:evenodd;fill:#ED6E8C;}
	.st1{fill-rule:evenodd;clip-rule:evenodd;fill:#AFD1F2;}
	.st2{fill-rule:evenodd;clip-rule:evenodd;fill:#FEDBAD;}
	.st3{fill-rule:evenodd;clip-rule:evenodd;fill:#99C5F2;}
	.st4{fill-rule:evenodd;clip-rule:evenodd;fill:#FAB684;}
	.st5{fill-rule:evenodd;clip-rule:evenodd;fill:#DB4B6D;}
	.st6{fill:#FFFFFF;}
</style>
<g>
	<g>
		<g>
			<path class="st0" d="M255.6,7.5C118.6,7.7,7.5,118.9,7.5,256c0,137.2,111.3,248.5,248.5,248.5c41.4,0,80.4-10.1,114.7-28h102.8
				V376.3c19.7-35.5,30.9-76.4,31-119.9V256v-0.4C504.3,118.7,393.3,7.7,256.4,7.5H255.6z M328.5,380.7v-15h-49.7l-29.3,20.4h-92.8
				c-12.5,0-22.7-10.2-22.7-22.7c0-12.5,10.2-22.7,22.7-22.7c-15.3,0-31.6-2.9-31.6-22.7c0-12.5,10.2-22.7,22.7-22.7
				c-14.1,0-25.9-8-25.9-23.1c0-12.7,10.4-23.1,23.1-23.1c-14.4,0-26.7-7.9-26.7-23.6c0-13,10.6-23.6,23.6-23.6h67.5v-78.1
				c0-13,10.6-23.6,23.6-23.6h23.6v54.4l39.4,64.7h32.4v-15h75v176.6L328.5,380.7z"/>
			<path class="st1" d="M328.5,204c0,58.9,0,117.8,0,176.6h75V204L328.5,204z"/>
			<path class="st2" d="M296.1,219l-39.4-64.7V99.9h-23.6c-13,0-23.6,10.6-23.6,23.6v78.1H142c-13,0-23.6,10.6-23.6,23.6
				c0,15.7,12.3,23.6,26.7,23.6c-12.7,0-23.1,10.4-23.1,23.1c0,15.2,11.9,23.1,25.9,23.1c-12.5,0-22.7,10.2-22.7,22.7
				c0,19.8,16.3,22.7,31.6,22.7c-12.5,0-22.7,10.2-22.7,22.7c0,12.5,10.2,22.7,22.7,22.7h92.8l29.3-20.4h49.7V219L296.1,219z"/>
			<path class="st3" d="M403.5,380.7H381V204h22.5V380.7z"/>
			<path class="st4" d="M296.1,219l-39.4-64.7V99.9h-22.5v54.4l53.1,87.2H306v124.1h22.5V219L296.1,219z"/>
			<path class="st5" d="M504.5,255.6C504.3,113.8,385.9,1.5,244.8,7.8C433.9,16.2,537.3,220.5,451,376.3v100.2h22.5V376.3
				C494,339.2,504.5,298,504.5,255.6L504.5,255.6z"/>
		</g>
		<g>
			<path class="st6" d="M30,256c0-54.8,19.9-107.7,56-148.9c35.8-40.8,84.9-67.4,138.4-74.9l2.1,14.9C123,61.6,45,151.4,45,256H30
				L30,256z M239.8,30.6c5.4-0.4,10.9-0.6,16.3-0.6v15c-5,0-10.1,0.2-15.2,0.5L239.8,30.6z"/>
		</g>
		<g>
			<path class="st6" d="M351,256.5h15v45h-15V256.5z M351,226.5h15v15h-15V226.5z"/>
		</g>
		<g>
			<path class="st6" d="M406,439h15v15h-15V439z M436,439h15v15h-15V439z"/>
		</g>
	</g>
	<g>
		<path d="M256,497c-61.7,0-120.3-23.3-165.2-65.5l-10.3,10.9c47.7,44.9,110,69.6,175.5,69.6c40.5,0,80.7-9.7,116.5-28H481V378.2
			c20.3-37.3,31-79.5,31-122.2c0-67.7-26.2-131.6-73.8-179.8l-10.7,10.5C472.3,132.2,497,192.3,497,256c0,40.8-10.4,81.1-30.1,116.6
			l-0.9,1.7V469h-97.2l-1.6,0.8C333.1,487.6,294.7,497,256,497L256,497z"/>
		<path d="M75,75C26.6,123.3,0,187.6,0,256c0,65.5,24.7,127.8,69.6,175.5l10.9-10.3C38.3,376.3,15,317.6,15,256
			C15,123.1,123.1,15,256,15c59.6,0,116.8,21.9,161,61.7l10-11.2C380,23.3,319.3,0,256,0C187.6,0,123.3,26.6,75,75L75,75z"/>
		<path d="M110.9,225.3c0,10.7,4.8,19.4,12.7,24.9c-5.6,5.6-9.1,13.3-9.1,21.8c0,10.4,4.6,19,12.2,24.4c-5.5,5.5-9,13.1-9,21.5
			c0,14.8,7.6,22,14,25.4c0.6,0.3,1.1,0.6,1.7,0.9c-4.3,5.2-6.9,11.9-6.9,19.2c0,16.7,13.6,30.2,30.2,30.2h38.9v-15h-38.9
			c-8.4,0-15.2-6.8-15.2-15.2s6.8-15.2,15.2-15.2h12v-15h-12c-20.1,0-24.1-5.8-24.1-15.2c0-8.4,6.8-15.2,15.2-15.2h20.9v-15h-20.9
			c-8.9,0-18.4-4.1-18.4-15.6c0-8.6,7-15.6,15.6-15.6h23.7l0-15h-23.7c-4.5,0-19.2-1.2-19.2-16.1c0-8.9,7.2-16.1,16.1-16.1h91.1v-15
			H142C124.8,194.2,110.9,208.1,110.9,225.3L110.9,225.3z"/>
		<path d="M411,335.7h-15v37.5h-60v-73.3h-15v58.3h-44.5l-29.3,20.4h-36.6v15h41.3l29.3-20.4H321v15h90L411,335.7z"/>
		<path d="M321,196.5v15h-20.7l-36.1-59.3V92.4h-31.1c-17.1,0-31.1,13.9-31.1,31.1v55.6h15v-55.6c0-8.9,7.2-16.1,16.1-16.1h16.1v49
			l42.7,70.1H321v58.3h15v-73.3h60v109.1h15V196.5L321,196.5z"/>
	</g>
</g>
</svg>
