<?xml version="1.0" encoding="utf-8"?>
<!-- Generator: Adobe Illustrator 22.1.0, SVG Export Plug-In . SVG Version: 6.00 Build 0)  -->
<svg version="1.1" id="Layer_1" xmlns="http://www.w3.org/2000/svg" xmlns:xlink="http://www.w3.org/1999/xlink" x="0px" y="0px"
	 viewBox="0 0 33 33" style="enable-background:new 0 0 33 33;" xml:space="preserve">
<style type="text/css">
	.st0{fill:#FFFFFF;}
</style>
<g>
	<path class="st0" d="M32.9,9.6c0,1.4,0.1,3.7,0.1,6.9s0,5.5-0.1,6.9c-0.1,1.4-0.3,2.6-0.6,3.6c-0.4,1.2-1.1,2.3-2,3.2
		c-0.9,0.9-2,1.6-3.2,2c-1,0.3-2.2,0.6-3.6,0.6C22,33,19.7,33,16.5,33s-5.5,0-6.9-0.1C8.2,32.8,7,32.6,6,32.2c-1.2-0.4-2.3-1-3.2-2
		c-0.9-0.9-1.6-2-2-3.2c-0.3-1-0.6-2.2-0.6-3.6C0,22,0,19.7,0,16.5S0,11,0.1,9.6S0.4,7,0.7,6c0.4-1.2,1.1-2.3,2-3.2s2-1.6,3.2-2
		c1-0.3,2.2-0.6,3.6-0.6S13.3,0,16.5,0s5.5,0,6.9,0.1C24.8,0.2,26,0.4,27,0.7c1.2,0.4,2.3,1.1,3.2,2c0.9,0.9,1.6,2,2,3.2
		C32.6,7,32.8,8.2,32.9,9.6z M29.4,26.2c0.3-0.8,0.5-2.2,0.6-4c0-1.1,0.1-2.6,0.1-4.6v-2.4c0-2,0-3.5-0.1-4.6
		c-0.1-1.9-0.3-3.2-0.6-4c-0.6-1.5-1.6-2.6-3.2-3.2c-0.8-0.3-2.1-0.5-4-0.6c-1.1,0-2.6-0.1-4.6-0.1h-2.4c-2,0-3.5,0-4.6,0.1
		c-1.8,0.1-3.1,0.3-4,0.6C5.3,4.2,4.2,5.3,3.6,6.8c-0.3,0.8-0.5,2.1-0.6,4c0,1.1-0.1,2.6-0.1,4.6v2.4c0,2,0,3.5,0.1,4.6
		c0.1,1.8,0.3,3.1,0.6,4c0.6,1.5,1.7,2.6,3.2,3.2c0.8,0.3,2.2,0.5,4,0.6c1.1,0,2.6,0.1,4.6,0.1h2.4c2,0,3.5,0,4.6-0.1
		c1.9-0.1,3.2-0.3,4-0.6C27.7,28.8,28.8,27.7,29.4,26.2z M16.5,8c1.5,0,2.9,0.4,4.2,1.1c1.3,0.8,2.3,1.8,3.1,3.1
		c0.8,1.3,1.1,2.7,1.1,4.2s-0.4,2.9-1.1,4.2c-0.8,1.3-1.8,2.3-3.1,3.1C19.4,24.6,18,25,16.5,25s-2.9-0.4-4.2-1.1
		C11,23.1,9.9,22,9.2,20.7C8.4,19.4,8,18,8,16.5s0.4-2.9,1.1-4.2s1.8-2.3,3.1-3.1S15,8,16.5,8z M16.5,22c1.5,0,2.8-0.5,3.9-1.6
		c1.1-1.1,1.6-2.4,1.6-3.9s-0.5-2.8-1.6-3.9C19.3,11.5,18,11,16.5,11s-2.8,0.5-3.9,1.6S11,15,11,16.5s0.5,2.8,1.6,3.9
		C13.7,21.5,15,22,16.5,22z M27.3,7.7c0-0.5-0.2-1-0.6-1.4c-0.4-0.4-0.9-0.6-1.4-0.6c-0.5,0-1,0.2-1.4,0.6c-0.4,0.4-0.6,0.9-0.6,1.4
		s0.2,1,0.6,1.4c0.4,0.4,0.9,0.6,1.4,0.6c0.5,0,1-0.2,1.4-0.6C27.1,8.7,27.3,8.2,27.3,7.7z"/>
</g>
</svg>
