<?xml version="1.0" encoding="utf-8"?>
<!-- Generator: Adobe Illustrator 22.0.1, SVG Export Plug-In . SVG Version: 6.00 Build 0)  -->
<svg version="1.1" id="Layer_1" xmlns="http://www.w3.org/2000/svg" xmlns:xlink="http://www.w3.org/1999/xlink" x="0px" y="0px"
	 viewBox="0 0 150 150" style="enable-background:new 0 0 150 150;" xml:space="preserve">
<style type="text/css">
	.st0{fill:#3D2303;}
	.st1{fill:#EA9F48;}
	.st2{fill:#F1A74B;}
	.st3{fill:#FFFFFF;}
</style>
<g>
	<g>
		<g>
			<path class="st0" d="M106.5,111.1h-63c-2.5,0-4.6-2.1-4.6-4.6v-63c0-2.5,2.1-4.6,4.6-4.6h63c2.5,0,4.6,2.1,4.6,4.6v63
				C111.1,109,109,111.1,106.5,111.1z"/>
			<path d="M106.5,115.1h-63c-4.7,0-8.6-3.9-8.6-8.6v-63c0-4.7,3.9-8.6,8.6-8.6h63c4.7,0,8.6,3.9,8.6,8.6v63
				C115.1,111.2,111.3,115.1,106.5,115.1z M43.5,43c-0.3,0-0.6,0.3-0.6,0.6v63c0,0.3,0.3,0.6,0.6,0.6h63c0.3,0,0.6-0.3,0.6-0.6v-63
				c0-0.3-0.3-0.6-0.6-0.6H43.5z"/>
		</g>
		<g>
			<path class="st0" d="M106.5,111.1h-63c-2.5,0-4.6-2.1-4.6-4.6v-63c0-2.5,2.1-4.6,4.6-4.6h63c2.5,0,4.6,2.1,4.6,4.6v63
				C111.1,109,109,111.1,106.5,111.1z"/>
			<path class="st1" d="M106.5,111.9h-63c-3,0-5.4-2.4-5.4-5.4v-63c0-3,2.4-5.4,5.4-5.4h63c3,0,5.4,2.4,5.4,5.4v63
				C111.9,109.5,109.5,111.9,106.5,111.9z M43.5,39.7c-2.1,0-3.8,1.7-3.8,3.8v63c0,2.1,1.7,3.8,3.8,3.8h63c2.1,0,3.8-1.7,3.8-3.8
				v-63c0-2.1-1.7-3.8-3.8-3.8C106.5,39.7,43.5,39.7,43.5,39.7z"/>
		</g>
	</g>
	<g>
		<g>
			<path class="st2" d="M75.4,81.6l-11.5,0.1l-2.3,7l-4.8-0.4l10.9-32.1l4.7-0.4l11.3,32.3l-5.3-0.2L75.4,81.6z M73.6,76.5L68.9,63
				h1.4l-6.1,14L73.6,76.5z"/>
		</g>
		<g>
			<path class="st2" d="M85.9,55.6l5.7-0.1v5.7l-4.5-1.1L85.9,55.6z M85.7,65.2h6.1l-0.1,23.1L87.2,88L85.7,65.2z"/>
		</g>
	</g>
</g>
<rect x="-150" y="10" class="st3" width="130" height="130"/>
<g>
	<g>
		<g>
			<path class="st0" d="M-53.5,111.1h-63c-2.5,0-4.6-2.1-4.6-4.6v-63c0-2.5,2.1-4.6,4.6-4.6h63c2.5,0,4.6,2.1,4.6,4.6v63
				C-48.9,109-51,111.1-53.5,111.1z"/>
			<path d="M-53.5,115.1h-63c-4.7,0-8.6-3.9-8.6-8.6v-63c0-4.7,3.9-8.6,8.6-8.6h63c4.7,0,8.6,3.9,8.6,8.6v63
				C-44.9,111.2-48.7,115.1-53.5,115.1z M-116.5,43c-0.3,0-0.6,0.3-0.6,0.6v63c0,0.3,0.3,0.6,0.6,0.6h63c0.3,0,0.6-0.3,0.6-0.6v-63
				c0-0.3-0.3-0.6-0.6-0.6H-116.5z"/>
		</g>
		<g>
			<path class="st0" d="M-53.5,111.1h-63c-2.5,0-4.6-2.1-4.6-4.6v-63c0-2.5,2.1-4.6,4.6-4.6h63c2.5,0,4.6,2.1,4.6,4.6v63
				C-48.9,109-51,111.1-53.5,111.1z"/>
			<path class="st1" d="M-53.5,111.9h-63c-3,0-5.4-2.4-5.4-5.4v-63c0-3,2.4-5.4,5.4-5.4h63c3,0,5.4,2.4,5.4,5.4v63
				C-48.1,109.5-50.5,111.9-53.5,111.9z M-116.5,39.7c-2.1,0-3.8,1.7-3.8,3.8v63c0,2.1,1.7,3.8,3.8,3.8h63c2.1,0,3.8-1.7,3.8-3.8
				v-63c0-2.1-1.7-3.8-3.8-3.8C-53.5,39.7-116.5,39.7-116.5,39.7z"/>
		</g>
	</g>
	<g>
		<g>
			<path class="st2" d="M-84.6,81.6l-11.5,0.1l-2.3,7l-4.8-0.4l10.9-32.1l4.7-0.4l11.3,32.3l-5.3-0.2L-84.6,81.6z M-86.4,76.5
				L-91.1,63h1.4l-6.1,14L-86.4,76.5z"/>
		</g>
		<g>
			<path class="st2" d="M-74.1,55.6l5.7-0.1v5.7l-4.5-1.1L-74.1,55.6z M-74.3,65.2h6.1l-0.1,23.1l-4.5-0.3L-74.3,65.2z"/>
		</g>
	</g>
</g>
</svg>
