<?xml version="1.0" encoding="utf-8"?>
<!-- Generator: Adobe Illustrator 22.0.1, SVG Export Plug-In . SVG Version: 6.00 Build 0)  -->
<svg version="1.1" id="Layer_1" xmlns="http://www.w3.org/2000/svg" xmlns:xlink="http://www.w3.org/1999/xlink" x="0px" y="0px"
	 viewBox="0 0 150 150" style="enable-background:new 0 0 150 150;" xml:space="preserve">
<style type="text/css">
	.st0{fill:#0057FF;}
	.st1{fill:#FFFFFF;}
</style>
<g>
	<g>
		<g>
			<circle class="st0" cx="75" cy="75" r="37.2"/>
		</g>
		<g>
			<path d="M75,113.5c-21.2,0-38.5-17.3-38.5-38.5S53.7,36.5,75,36.5s38.5,17.3,38.5,38.5S96.2,113.5,75,113.5z M75,39
				c-19.9,0-36,16.1-36,36s16.2,36,36,36s36-16.2,36-36S94.8,39,75,39z"/>
		</g>
	</g>
	<g>
		<g>
			<g>
				<path class="st1" d="M59.7,51.7c6.1-4.6,10.2-5.8,17.6-5.3c4.8,0.4,8,3.3,10.2,6.6c2.1,3.5,3.1,7,3.1,10.8
					c0,1.9-0.4,3.6-1.3,5.4c-0.4,0.8-1.1,1.6-1.9,2.4c-0.9,0.8-1.9,1.6-3.3,2.3V74c2.5,0.8,4.3,2.3,5.4,4.3c1.1,2,1.6,4.1,1.6,6.5
					c0,4-1.1,7.8-3.4,11.3c-2.3,3.6-5.3,6.4-9,6.9c-8,1-12.5,0-19.2-5C59.7,82.6,59.7,67.1,59.7,51.7z M66.2,55.3
					c0,6.1,0,9.2,0,15.3c4-0.3,6.1-0.3,10.3-0.3c2.6,0,4.5-0.8,5.8-2.3c1.1-1.4,1.9-3.1,1.9-5.3c0-2.1-0.6-4.1-1.9-5.9
					c-1.1-1.6-3.1-2.8-5.8-2.9C72.4,54.1,70.1,54.2,66.2,55.3z M66.2,77.9c0,6.4,0,9.7,0,16.1c4.3,1.1,6.5,1.4,11,1.1
					c2.6-0.1,4.6-1.4,5.8-3.3c1.3-1.9,1.8-3.8,1.8-6c0-2.3-0.6-4-1.8-5.5c-1.3-1.5-3.1-2.3-5.8-2.4C72.7,78.1,70.5,78.1,66.2,77.9z"
					/>
				<path d="M74,104.7c-5.6,0-9.8-1.6-15-5.6l-0.5-0.4V51l0.5-0.4c6.1-4.8,10.5-6,18.4-5.5c4.5,0.4,8.5,2.9,11.2,7.3
					c2.1,3.5,3.3,7.3,3.3,11.4c0,2.1-0.4,4.1-1.4,6c-0.5,0.9-1.3,1.8-2.1,2.8c-0.5,0.5-1,0.9-1.5,1.3c1.6,0.9,3,2.3,3.9,3.9
					c1.1,2.1,1.8,4.5,1.8,7.1c0,4.3-1.3,8.3-3.5,12c-2.8,4.5-6.1,7-9.9,7.5C77.3,104.6,75.6,104.7,74,104.7z M61,97.4
					c5.9,4.5,10,5.4,17.8,4.4c3-0.4,5.8-2.5,8.2-6.3C89,92.2,90,88.7,90,84.9c0-2.3-0.5-4.1-1.4-5.9c-1-1.8-2.5-3-4.6-3.6l-0.9-0.3
					v-1.8l0.6-0.4c1.1-0.6,2.1-1.4,3-2.1c0.8-0.8,1.4-1.4,1.6-2c0.8-1.5,1.1-3,1-4.8c0-3.8-1-7-2.9-10.2c-1.6-2.5-4.5-5.6-9.3-6
					c-7.1-0.5-10.8,0.5-16.2,4.6v44.9H61z M74.6,96.4c-3.1,0-5.4-0.4-8.8-1.3L65,94.9V76.6h1.3c4.1,0.1,6.4,0.3,10.9,0.1
					c3.1,0,5.4,1,6.8,2.8s2,3.8,2,6.3c0,2.4-0.6,4.6-2,6.6c-1.5,2.3-3.9,3.6-6.8,3.8C76.4,96.4,75.5,96.4,74.6,96.4z M67.5,93.1
					c3.5,0.9,5.6,1.1,9.7,0.9c2.1-0.1,3.8-1,4.9-2.6c1-1.6,1.6-3.4,1.6-5.3c0-1.9-0.5-3.5-1.5-4.8s-2.6-1.9-4.9-1.9
					c-4,0-6.3,0-9.8-0.1V93.1z M65,72V54.4l0.9-0.3c4-1.1,6.3-1.4,10.7-1.3c2.9,0.1,5.3,1.4,6.8,3.4c1.4,1.9,2.1,4.1,2.1,6.6
					c0,2.4-0.8,4.4-2.1,6.1c-1.5,1.8-3.9,2.6-6.8,2.6c-4.3,0-6.3,0-10.3,0.3H65z M67.5,56.3v13c3.1-0.1,5.3-0.3,9-0.3
					c2.1,0,3.8-0.6,4.8-1.8c1-1.3,1.5-2.6,1.5-4.5c0-2-0.5-3.6-1.6-5.1c-1-1.4-2.8-2.3-4.9-2.4C72.7,55.3,70.7,55.4,67.5,56.3z"/>
			</g>
		</g>
	</g>
</g>
<rect x="-152" y="10" class="st1" width="130" height="130"/>
<g>
	<g>
		<g>
			<circle class="st0" cx="-87" cy="75" r="37.2"/>
		</g>
		<g>
			<path d="M-87,113.5c-21.2,0-38.5-17.3-38.5-38.5s17.2-38.5,38.5-38.5S-48.5,53.8-48.5,75S-65.8,113.5-87,113.5z M-87,39
				c-19.9,0-36,16.1-36,36s16.2,36,36,36s36-16.2,36-36S-67.2,39-87,39z"/>
		</g>
	</g>
	<g>
		<g>
			<g>
				<path class="st1" d="M-102.3,51.7c6.1-4.6,10.2-5.8,17.6-5.3c4.8,0.4,8,3.3,10.2,6.6c2.1,3.5,3.1,7,3.1,10.8
					c0,1.9-0.4,3.6-1.3,5.4c-0.4,0.8-1.1,1.6-1.9,2.4c-0.9,0.8-1.9,1.6-3.3,2.3V74c2.5,0.8,4.3,2.3,5.4,4.3c1.1,2,1.6,4.1,1.6,6.5
					c0,4-1.1,7.8-3.4,11.3c-2.3,3.6-5.3,6.4-9,6.9c-8,1-12.5,0-19.2-5C-102.3,82.6-102.3,67.1-102.3,51.7z M-95.8,55.3
					c0,6.1,0,9.2,0,15.3c4-0.3,6.1-0.3,10.3-0.3c2.6,0,4.5-0.8,5.8-2.3c1.1-1.4,1.9-3.1,1.9-5.3c0-2.1-0.6-4.1-1.9-5.9
					c-1.1-1.6-3.1-2.8-5.8-2.9C-89.6,54.1-91.9,54.2-95.8,55.3z M-95.8,77.9c0,6.4,0,9.7,0,16.1c4.3,1.1,6.5,1.4,11,1.1
					c2.6-0.1,4.6-1.4,5.8-3.3c1.3-1.9,1.8-3.8,1.8-6c0-2.3-0.6-4-1.8-5.5c-1.3-1.5-3.1-2.3-5.8-2.4C-89.3,78.1-91.5,78.1-95.8,77.9z
					"/>
				<path d="M-88,104.7c-5.6,0-9.8-1.6-15-5.6l-0.5-0.4V51l0.5-0.4c6.1-4.8,10.5-6,18.4-5.5c4.5,0.4,8.5,2.9,11.2,7.3
					c2.1,3.5,3.3,7.3,3.3,11.4c0,2.1-0.4,4.1-1.4,6c-0.5,0.9-1.3,1.8-2.1,2.8c-0.5,0.5-1,0.9-1.5,1.3c1.6,0.9,3,2.3,3.9,3.9
					c1.1,2.1,1.8,4.5,1.8,7.1c0,4.3-1.3,8.3-3.5,12c-2.8,4.5-6.1,7-9.9,7.5C-84.7,104.6-86.4,104.7-88,104.7z M-101,97.4
					c5.9,4.5,10,5.4,17.8,4.4c3-0.4,5.8-2.5,8.2-6.3c2.1-3.4,3.1-6.9,3.1-10.7c0-2.3-0.5-4.1-1.4-5.9c-1-1.8-2.5-3-4.6-3.6l-0.9-0.3
					v-1.8l0.6-0.4c1.1-0.6,2.1-1.4,3-2.1c0.8-0.8,1.4-1.4,1.6-2c0.8-1.5,1.1-3,1-4.8c0-3.8-1-7-2.9-10.2c-1.6-2.5-4.5-5.6-9.3-6
					c-7.1-0.5-10.8,0.5-16.2,4.6v44.9H-101z M-87.4,96.4c-3.1,0-5.4-0.4-8.8-1.3l-0.9-0.3V76.6h1.3c4.1,0.1,6.4,0.3,10.9,0.1
					c3.1,0,5.4,1,6.8,2.8s2,3.8,2,6.3c0,2.4-0.6,4.6-2,6.6c-1.5,2.3-3.9,3.6-6.8,3.8C-85.6,96.4-86.5,96.4-87.4,96.4z M-94.5,93.1
					c3.5,0.9,5.6,1.1,9.7,0.9c2.1-0.1,3.8-1,4.9-2.6c1-1.6,1.6-3.4,1.6-5.3c0-1.9-0.5-3.5-1.5-4.8s-2.6-1.9-4.9-1.9
					c-4,0-6.3,0-9.8-0.1V93.1z M-97,72V54.4l0.9-0.3c4-1.1,6.3-1.4,10.7-1.3c2.9,0.1,5.3,1.4,6.8,3.4c1.4,1.9,2.1,4.1,2.1,6.6
					c0,2.4-0.8,4.4-2.1,6.1c-1.5,1.8-3.9,2.6-6.8,2.6c-4.3,0-6.3,0-10.3,0.3H-97z M-94.5,56.3v13c3.1-0.1,5.3-0.3,9-0.3
					c2.1,0,3.8-0.6,4.8-1.8c1-1.3,1.5-2.6,1.5-4.5c0-2-0.5-3.6-1.6-5.1c-1-1.4-2.8-2.3-4.9-2.4C-89.3,55.3-91.3,55.4-94.5,56.3z"/>
			</g>
		</g>
	</g>
</g>
</svg>
