<?xml version="1.0" encoding="utf-8"?>
<!-- Generator: Adobe Illustrator 22.0.1, SVG Export Plug-In . SVG Version: 6.00 Build 0)  -->
<svg version="1.1" id="Layer_1" xmlns="http://www.w3.org/2000/svg" xmlns:xlink="http://www.w3.org/1999/xlink" x="0px" y="0px"
	 viewBox="0 0 752.6 580.6" style="enable-background:new 0 0 752.6 580.6;" xml:space="preserve">
<style type="text/css">
	.st0{fill:#FFAF78;}
	.st1{fill:#848484;}
	.st2{fill:#FC3535;}
	.st3{fill:#382612;}
	.st4{fill:#FFE7BD;}
	.st5{opacity:0.4;}
	.st6{fill:#C4B7A1;}
	.st7{fill:#FFFFFF;}
	.st8{fill:#4F4F4F;}
	.st9{fill:#F38475;}
	.st10{fill:#F2CC67;}
	.st11{fill:#60D36D;}
	.st12{fill:none;stroke:#000000;stroke-width:2;stroke-miterlimit:10;}
	.st13{fill:#FC3535;stroke:#000000;stroke-width:2;stroke-miterlimit:10;}
	.st14{fill:#FFE7BD;stroke:#000000;stroke-width:2;stroke-miterlimit:10;}
	.st15{opacity:0.4;fill:#C4B7A1;}
	.st16{fill:none;stroke:#000000;stroke-width:2;stroke-linecap:round;stroke-linejoin:round;stroke-miterlimit:10;}
	.st17{fill:#FFE7BD;stroke:#000000;stroke-width:2;stroke-linecap:round;stroke-linejoin:round;stroke-miterlimit:10;}
	.st18{fill:#F38475;stroke:#000000;stroke-width:2;stroke-miterlimit:10;}
	.st19{fill:#F2CC67;stroke:#000000;stroke-width:2;stroke-miterlimit:10;}
	.st20{fill:#60D36D;stroke:#000000;stroke-width:2;stroke-miterlimit:10;}
</style>
<g id="XMLID_9_">
	<g>
		<g>
			<path class="st0" d="M743.1,45.1v510.1c0,8.8-7.1,15.9-15.9,15.9H22c-8.8,0-15.9-7.1-15.9-15.9V45.1h1H743.1z"/>
		</g>
		<g>
			<path class="st1" d="M743.1,24v21.1H7.1h-1V24c0-8.8,7.1-15.9,15.9-15.9h705.3C736,8.1,743.1,15.2,743.1,24z"/>
		</g>
	</g>
	<g>
		<g>
			<path d="M727.3,572.1H22c-9.3,0-16.9-7.6-16.9-16.9V24c0-9.3,7.6-16.9,16.9-16.9h705.3c9.3,0,16.9,7.6,16.9,16.9v531.3
				C744.1,564.6,736.6,572.1,727.3,572.1z M22,9.1C13.8,9.1,7.1,15.8,7.1,24v531.3c0,8.2,6.7,14.9,14.9,14.9h705.3
				c8.2,0,14.9-6.7,14.9-14.9V24c0-8.2-6.7-14.9-14.9-14.9H22z"/>
		</g>
		<g>
			<rect x="7.1" y="44.1" width="736" height="2"/>
		</g>
	</g>
</g>
<g>
	<g>
		<path class="st2" d="M288.9,570.6H105.4c-4.8,0-8.7-3.9-8.7-8.7v-24.5c0-4.8,3.9-8.7,8.7-8.7h183.5c4.8,0,8.7,3.9,8.7,8.7v24.5
			C297.6,566.7,293.7,570.6,288.9,570.6z"/>
	</g>
	<g>
		<path d="M288.9,571.6H105.4c-5.4,0-9.7-4.4-9.7-9.7v-24.5c0-5.4,4.4-9.7,9.7-9.7h183.5c5.4,0,9.7,4.4,9.7,9.7v24.5
			C298.6,567.2,294.2,571.6,288.9,571.6z M105.4,529.6c-4.3,0-7.7,3.5-7.7,7.7v24.5c0,4.3,3.5,7.7,7.7,7.7h183.5
			c4.3,0,7.7-3.5,7.7-7.7v-24.5c0-4.3-3.5-7.7-7.7-7.7H105.4z"/>
	</g>
</g>
<g>
	<g>
		<path class="st2" d="M254.6,534.6H140.4c-27.2,0-49.4,16.2-49.4-8.1V366c0-24.2,22.2-44.1,49.4-44.1h114.3
			c27.2,0,36.9,26.2,36.9,50.4l12.5,154.1C304.1,550.8,281.8,534.6,254.6,534.6z"/>
	</g>
	<g>
		<path d="M293.2,540.9c-4,0-8.9-1-14.5-2.1c-7.2-1.5-15.4-3.1-24.1-3.1H140.4c-8.7,0-16.9,1.7-24.1,3.1c-9.9,2-17.7,3.6-22.3-0.1
			c-2.7-2.2-4-6.2-4-12.1V366c0-24.8,22.6-45.1,50.4-45.1h114.3c12.7,0,22.9,5.7,29.5,16.6c5.4,8.9,8.4,21.3,8.4,34.8l12.5,154.1
			c0,6-1.3,9.9-4,12.2C299,540.3,296.4,540.9,293.2,540.9z M140.4,533.6h114.3c8.9,0,17.2,1.7,24.5,3.2c9.4,1.9,16.8,3.4,20.6,0.3
			c2.2-1.8,3.3-5.3,3.3-10.5l-12.5-154.1c0-24-9.4-49.5-35.9-49.5H140.4c-26.7,0-48.4,19.3-48.4,43.1v160.5c0,5.3,1.1,8.7,3.3,10.5
			c3.9,3.2,11.3,1.6,20.6-0.3C123.2,535.3,131.4,533.6,140.4,533.6z"/>
	</g>
</g>
<g>
	<g>
		<path class="st3" d="M201.1,83.9c0,0-100.8,20.4-115.8,142.8c-0.5,3.8-2,7.3-4.4,10.2c-11.1,13.8-16.3,64.8,50.4,75.8
			c2.3,0.4,22.3,2.2,24.6,1.8c4-0.8,9-3.1,9.3-9.9C165.2,304.6,133.7,83.6,201.1,83.9z"/>
	</g>
</g>
<g>
	<g>
		<path class="st4" d="M311.7,230.7c-8.2,79.4-59.6,105.8-119,99.7S88.2,287.9,96.4,208.5s63-138.8,122.4-132.7
			C278.2,81.9,319.8,151.2,311.7,230.7z"/>
	</g>
	<g>
		<path d="M208.6,332.2c-5.2,0-10.6-0.3-16-0.8c-31.7-3.3-57.3-14.9-74.1-33.8c-19.2-21.4-26.9-51.5-23-89.2
			c8.2-79.8,63.6-139.8,123.5-133.6c29.1,3,54.8,20.9,72.5,50.4c17.7,29.4,25.2,66.9,21.2,105.5l-1-0.1l1,0.1
			c-3.9,37.7-17.6,65.5-40.7,82.6C255.2,325.8,233.5,332.2,208.6,332.2z M210.4,76.4c-55.6,0-105.3,57.2-113,132.3
			c-3.8,37.1,3.8,66.6,22.5,87.6c16.5,18.5,41.7,29.9,72.8,33.1c31.2,3.2,58.2-2.9,78.1-17.6c22.6-16.8,36.1-44.1,39.9-81.2
			c3.9-38.2-3.5-75.2-20.9-104.3c-17.4-29-42.6-46.5-71-49.5C215.9,76.5,213.1,76.4,210.4,76.4z"/>
	</g>
</g>
<g class="st5">
	<g>
		<path class="st6" d="M217.2,77.4c-2.1-0.2-4.1-0.3-6.2-0.4c55.8,10,94.2,76.1,86.4,151.5c-7.7,75.3-55.6,102.1-112.1,98.4
			c2,0.3,4.1,0.5,6.1,0.7c59.1,6.1,110.2-19.8,118.3-97.9S276.4,83.5,217.2,77.4z"/>
	</g>
</g>
<g>
	<g>
		<g>
			<ellipse transform="matrix(0.1023 -0.9948 0.9948 0.1023 -59.1322 310.765)" cx="142.6" cy="188.1" rx="9.9" ry="8.9"/>
		</g>
	</g>
	<g>
		<g>
			<path d="M140.6,186.3c0,0-0.1,0-0.1,0c-8.1-0.8-10.2-11.9-10.3-12.4c-0.1-0.5,0.3-1.1,0.8-1.2c0.5-0.1,1.1,0.3,1.2,0.8
				c0,0.1,1.9,10,8.5,10.7c0.5,0.1,0.9,0.5,0.9,1.1C141.5,185.9,141.1,186.3,140.6,186.3z"/>
		</g>
	</g>
</g>
<g>
	<g>
		<path class="st3" d="M188.3,75.3L188.3,75.3c12.3-8.8,37.3,0,37.5,0c0,0,0,0,0,0c97.1,9.3,106.2,112,106.2,112
			c4.1,24.2,8.3,107.1-4.2,124.2c-16.2,22.2-87.7,17.2-83.6-22.1s33.6-11.8,36.7-67.6s-45.6-58.3-45.6-58.3
			c-38.4-4-37.6-26.1-37.6-27c0,0,0,0,0,0c-16,12.4-6.3,21.9-5.6,22.5c0,0,0,0,0,0c-24-2.5-9.5-24.5-8.6-25.9c0,0,0,0,0,0
			c-20.2,13.1-4.2,23.8-2.8,24.7c0,0,0,0.1,0,0.1c-30.4-3.2-19.3-33.9-6.8-56.3c-15.6,8.4-40.6,20.7-44.7,39.7
			c-4.7,21.4-19.2,28.7-26.1,31.1c-1.8,0.6-3.5-0.9-3.2-2.7C99.7,169.6,106.8,76.5,188.3,75.3z"/>
	</g>
</g>
<g>
	<g>
		<g>
			<ellipse transform="matrix(0.1023 -0.9948 0.9948 0.1023 -16.384 373.99)" cx="199" cy="196.1" rx="9.9" ry="8.9"/>
		</g>
	</g>
	<g>
		<g>
			<path d="M197,194.2c0,0-0.1,0-0.1,0c-8.1-0.8-10.2-11.9-10.3-12.4c-0.1-0.5,0.3-1.1,0.8-1.2c0.5-0.1,1.1,0.3,1.2,0.8
				c0,0.1,1.9,10,8.5,10.7c0.5,0.1,0.9,0.5,0.9,1.1C197.9,193.8,197.5,194.2,197,194.2z"/>
		</g>
	</g>
</g>
<g>
	<g>
		<path class="st7" d="M115,180.6c-2.1,6.8,1.2,8.6-2,11.1c-2.1,1.7-7.4-5.1-5.3-11.9c2.1-6.8,9.9-11.4,12.5-10.6
			C122.8,169.9,117,173.9,115,180.6z"/>
	</g>
</g>
<g>
	<g>
		<g>
			<path class="st4" d="M160.1,199.2c0,0-4.1,23.3-13.5,16.1c-11.5-8.9-5.9,12.6,4,16.2"/>
		</g>
		<g>
			<path d="M150.6,232.5c-0.1,0-0.2,0-0.3-0.1c-6.2-2.2-10.7-10.8-11-15.8c-0.2-2.7,0.8-3.7,1.6-4.2c1.5-0.8,3.6-0.1,6.4,2
				c1.5,1.1,2.8,1.5,4,1c4.4-1.7,7.1-12.4,7.8-16.4c0.1-0.5,0.6-0.9,1.2-0.8c0.5,0.1,0.9,0.6,0.8,1.2c-0.3,1.6-2.9,15.6-9.1,18
				c-1.9,0.7-3.9,0.3-6-1.3c-2.3-1.8-3.7-2.1-4.2-1.9c-0.4,0.2-0.6,1.1-0.5,2.3c0.3,4.3,4.3,12.1,9.7,14c0.5,0.2,0.8,0.8,0.6,1.3
				C151.4,232.2,151,232.5,150.6,232.5z"/>
		</g>
	</g>
	<g class="st5">
		<g>
			<path class="st6" d="M146,220.8c1.3,2.2,2.5,1.8,2.4,3.3c-0.1,1-3.2,0.6-4.4-1.6c-1.3-2.2-0.5-5.4,0.3-5.9
				C145.2,216.1,144.8,218.6,146,220.8z"/>
		</g>
	</g>
</g>
<g>
	<g>
		<circle class="st8" cx="157.4" cy="222" r="1.3"/>
	</g>
</g>
<g>
	<g>
		<path class="st4" d="M154.9,306.1c-2.3,34.1-12.9,31.4-26.1,30.5c-13.2-0.9-24.1,0.3-21.8-33.8s14.9-61,28.2-60.1
			C148.3,243.7,157.2,272,154.9,306.1z"/>
	</g>
	<g>
		<path d="M136.4,338.1c-1.9,0-3.8-0.1-5.8-0.3c-0.7,0-1.3-0.1-2-0.1c-0.7,0-1.3-0.1-2-0.1c-6.2-0.4-12-0.7-15.9-5.2
			c-4.3-4.9-5.8-14.3-4.8-29.5c1.1-16.6,4.7-32,10.1-43.5c5.5-11.7,12.3-18,19.1-17.5c14,1,23.1,29.2,20.7,64.4
			c-1,15.2-3.8,24.3-8.7,28.6C144,337.4,140.4,338.1,136.4,338.1z M134.5,243.7c-5.7,0-11.7,5.9-16.6,16.4
			c-5.3,11.2-8.8,26.4-9.9,42.8c-1,14.7,0.4,23.6,4.3,28.1c3.4,3.9,8.6,4.2,14.5,4.5c0.7,0,1.3,0.1,2,0.1c0.7,0,1.3,0.1,2,0.1
			c6,0.5,11.1,0.8,15-2.5c4.5-3.9,7.1-12.5,8.1-27.2l1,0.1l-1-0.1c2.3-33.5-6.2-61.4-18.8-62.3C134.9,243.8,134.7,243.7,134.5,243.7
			z"/>
	</g>
</g>
<g>
	<g>
		<path class="st2" d="M112.3,306.2l14.9,1c10.6,0.7,18.6,10,17.9,20.5l-9.9,144.9c-0.8,11.5-10.8,20.3-22.3,19.5l0,0
			c-17.4-1.2-30.6-16.4-29.4-33.7l9.2-135.1C93.4,313.2,102.2,305.5,112.3,306.2z"/>
	</g>
	<g>
		<path d="M114.3,493.2c-0.5,0-1,0-1.5-0.1c-8.7-0.6-16.6-4.5-22.4-11.1c-5.8-6.6-8.6-15-8-23.7l9.2-135.1c0.4-5.2,2.7-9.9,6.6-13.3
			c3.9-3.4,8.9-5.1,14.1-4.8l14.9,1c5.4,0.4,10.3,2.8,13.9,6.9c3.6,4.1,5.3,9.3,5,14.7l-9.9,144.9
			C135.5,484.3,125.8,493.2,114.3,493.2z M111,307.1c-4.2,0-8.2,1.5-11.4,4.3c-3.5,3.1-5.6,7.3-5.9,11.9l-9.2,135.1
			c-0.6,8.1,2.1,16,7.5,22.2s12.9,9.9,21,10.5c11,0.8,20.5-7.6,21.3-18.6l9.9-144.9c0.3-4.8-1.3-9.5-4.5-13.2
			c-3.2-3.7-7.7-5.9-12.5-6.2l-14.9-1C111.8,307.1,111.4,307.1,111,307.1z"/>
	</g>
</g>
<g>
	<g>
		<path class="st4" d="M182.5,311c-2.3,34.1-12.9,31.4-26.1,30.5c-13.2-0.9-24.1,0.3-21.8-33.8s14.9-61,28.2-60.1
			C176,248.5,184.9,276.9,182.5,311z"/>
	</g>
	<g>
		<path d="M164.1,342.9c-1.9,0-3.8-0.1-5.8-0.3c-0.7,0-1.3-0.1-2-0.1c-0.7,0-1.3-0.1-2-0.1c-6.2-0.4-12-0.7-15.9-5.2
			c-4.3-4.9-5.8-14.3-4.8-29.5c1.1-16.6,4.7-32,10.1-43.5c5.5-11.7,12.3-18,19.1-17.5c14,1,23.1,29.2,20.7,64.4l-1-0.1l1,0.1
			c-1,15.2-3.8,24.3-8.7,28.6C171.7,342.3,168.1,342.9,164.1,342.9z M162.2,248.6c-5.7,0-11.7,5.9-16.6,16.4
			c-5.3,11.2-8.8,26.4-9.9,42.8c-1,14.7,0.4,23.6,4.3,28.1c3.4,3.9,8.6,4.2,14.5,4.5c0.7,0,1.3,0.1,2,0.1c0.7,0,1.3,0.1,2,0.1
			c6,0.5,11.1,0.8,15-2.5c4.5-3.9,7.1-12.5,8.1-27.2l0,0c2.3-33.5-6.2-61.4-18.8-62.3C162.5,248.6,162.4,248.6,162.2,248.6z"/>
	</g>
</g>
<g>
	<g>
		<g>
			<path class="st2" d="M134.3,482.5l-10.4-8.5c-5.6-4.6-6.5-13-1.8-18.6l92.1-112.2c15.8-19.3,43-27.7,62.3-11.9l3.9,4.6
				c8.6,13.2,8.5,23.1,0.7,32.6l-88.9,108.4C177.8,494.3,151.8,496.8,134.3,482.5z"/>
		</g>
		<g>
			<path d="M160.3,492.8c-9.7,0-19-3.3-26.6-9.5l-10.4-8.5c-6.1-5-7-14-2-20l92.1-112.2c8-9.8,19.1-16.9,30.4-19.5
				c12.3-2.8,24.1-0.2,33.3,7.4l0.1,0.1l4,4.7c8.7,13.3,8.9,23.8,0.6,33.8l-88.9,108.4c-7.1,8.7-17.2,14-28.4,15.1
				C163.1,492.7,161.7,492.8,160.3,492.8z M253.2,323.9c-2.9,0-6,0.3-9,1c-10.9,2.5-21.5,9.3-29.3,18.8L122.9,456
				c-4.3,5.2-3.5,12.9,1.7,17.2l10.4,8.5c8.2,6.8,18.7,9.9,29.4,8.9c10.7-1.1,20.3-6.2,27.1-14.4l88.9-108.4
				c7.7-9.4,7.5-18.8-0.7-31.4l-3.8-4.5C269.3,326.7,261.5,323.9,253.2,323.9z"/>
		</g>
	</g>
	<g>
		<g>
			<path class="st2" d="M145.2,308.4l33.3,2.3c9.4,0.6,16.6,8.9,16,18.3l-9.1,132.9c-1.3,19.3-18.1,33.9-37.4,32.6h0
				c-17.9-1.2-31.6-16.9-30.4-34.8l9.2-135.3C127.5,315,135.8,307.8,145.2,308.4z"/>
		</g>
		<g>
			<path d="M150.5,495.6c-0.8,0-1.6,0-2.5-0.1c-8.9-0.6-17.1-4.7-23.1-11.5c-5.9-6.8-8.9-15.5-8.2-24.4l9.2-135.3
				c0.7-10,9.4-17.6,19.4-16.9l33.3,2.3c4.8,0.3,9.3,2.5,12.5,6.2c3.2,3.7,4.8,8.4,4.5,13.2L186.4,462
				C185.1,481,169.2,495.6,150.5,495.6z M144.1,309.4c-8.4,0-15.6,6.6-16.2,15.1l-9.2,135.3c-1.2,17.4,12,32.6,29.4,33.8
				c18.7,1.3,35-12.9,36.3-31.7l9.1-132.9c0.3-4.3-1.1-8.5-4-11.7c-2.9-3.3-6.8-5.2-11.1-5.5l-33.3-2.3
				C144.8,309.4,144.4,309.4,144.1,309.4z"/>
		</g>
	</g>
</g>
<g>
	<g>
		
			<ellipse transform="matrix(0.1023 -0.9948 0.9948 0.1023 -103.7305 291.0624)" class="st0" cx="109.4" cy="203" rx="9" ry="17.6"/>
	</g>
</g>
<g>
	<g>
		
			<ellipse transform="matrix(0.1023 -0.9948 0.9948 0.1023 -12.7494 415.5576)" class="st0" cx="223.9" cy="214.8" rx="9" ry="17.6"/>
	</g>
</g>
<g>
	<g>
		<ellipse transform="matrix(0.1586 -0.9873 0.9873 0.1586 2.7842 56.6234)" class="st9" cx="34.6" cy="26.7" rx="7" ry="7"/>
	</g>
	<g>
		<path d="M34.6,34.7c-4.4,0-8-3.6-8-8s3.6-8,8-8s8,3.6,8,8S39,34.7,34.6,34.7z M34.6,20.7c-3.3,0-6,2.7-6,6s2.7,6,6,6s6-2.7,6-6
			S37.9,20.7,34.6,20.7z"/>
	</g>
</g>
<g>
	<g>
		<ellipse transform="matrix(0.1586 -0.9873 0.9873 0.1586 26.7634 84.7626)" class="st10" cx="63.1" cy="26.7" rx="7" ry="7"/>
	</g>
	<g>
		<path d="M63.1,34.7c-4.4,0-8-3.6-8-8s3.6-8,8-8s8,3.6,8,8S67.5,34.7,63.1,34.7z M63.1,20.7c-3.3,0-6,2.7-6,6s2.7,6,6,6s6-2.7,6-6
			S66.4,20.7,63.1,20.7z"/>
	</g>
</g>
<g>
	<g>
		<ellipse transform="matrix(0.1586 -0.9873 0.9873 0.1586 50.7426 112.9017)" class="st11" cx="91.6" cy="26.7" rx="7" ry="7"/>
	</g>
	<g>
		<path d="M91.6,34.7c-4.4,0-8-3.6-8-8s3.6-8,8-8s8,3.6,8,8S96,34.7,91.6,34.7z M91.6,20.7c-3.3,0-6,2.7-6,6s2.7,6,6,6s6-2.7,6-6
			S94.9,20.7,91.6,20.7z"/>
	</g>
</g>
<g class="st5">
	<g>
		<path class="st6" d="M168.7,263.6c2.7,12,5.8,30.1,2.9,40.8c-0.7,2.6,2.6,4.4,4.4,2.3c2.3-2.7,3.8-6.6,2.7-12.2
			c-1.7-8.5-4.2-23.1-7.9-31.6C170.2,261.8,168.4,262.4,168.7,263.6z"/>
	</g>
</g>
<g id="XMLID_1_">
	<g>
		<path class="st0" d="M814.1,1006.1v510.1c0,8.8-7.1,15.9-15.9,15.9H93c-8.8,0-15.9-7.1-15.9-15.9v-510.1h1H814.1z"/>
		<path class="st1" d="M814.1,985v21.1h-736h-1V985c0-8.8,7.1-15.9,15.9-15.9h705.3C807,969.1,814.1,976.2,814.1,985z"/>
	</g>
	<g>
		<path class="st12" d="M814.1,1006.1v510.1c0,8.8-7.1,15.9-15.9,15.9H93c-8.8,0-15.9-7.1-15.9-15.9v-510.1V985
			c0-8.8,7.1-15.9,15.9-15.9h705.3c8.8,0,15.9,7.1,15.9,15.9V1006.1z"/>
		<line class="st12" x1="78.1" y1="1006.1" x2="814.1" y2="1006.1"/>
	</g>
</g>
<path class="st13" d="M359.9,1531.6H176.4c-4.8,0-8.7-3.9-8.7-8.7v-24.5c0-4.8,3.9-8.7,8.7-8.7h183.5c4.8,0,8.7,3.9,8.7,8.7v24.5
	C368.6,1527.7,364.7,1531.6,359.9,1531.6z"/>
<path class="st13" d="M325.6,1495.6H211.4c-27.2,0-49.4,16.2-49.4-8.1V1327c0-24.2,22.2-44.1,49.4-44.1h114.3
	c27.2,0,36.9,26.2,36.9,50.4l12.5,154.1C375.1,1511.8,352.8,1495.6,325.6,1495.6z"/>
<path class="st3" d="M272.1,1044.9c0,0-100.8,20.4-115.8,142.8c-0.5,3.8-2,7.3-4.4,10.2c-11.1,13.8-16.3,64.8,50.4,75.8
	c2.3,0.4,22.3,2.2,24.6,1.8c4-0.8,9-3.1,9.3-9.9C236.2,1265.6,204.7,1044.6,272.1,1044.9z"/>
<path class="st14" d="M382.7,1191.7c-8.2,79.4-59.6,105.8-119,99.7c-59.5-6.1-104.4-42.4-96.3-121.8c8.2-79.4,63-138.8,122.4-132.7
	C349.2,1042.9,390.8,1112.2,382.7,1191.7z"/>
<path class="st15" d="M288.2,1038.4c-2.1-0.2-4.1-0.3-6.2-0.4c55.8,10,94.2,76.1,86.4,151.5c-7.7,75.3-55.6,102.1-112.1,98.4
	c2,0.3,4.1,0.5,6.1,0.7c59.1,6.1,110.2-19.8,118.3-97.9S347.4,1044.5,288.2,1038.4z"/>
<g>
	<ellipse transform="matrix(0.1023 -0.9948 0.9948 0.1023 -951.3549 1244.125)" cx="213.6" cy="1149.1" rx="9.9" ry="8.9"/>
	<path class="st16" d="M202.2,1134.7c0,0,1.9,10.8,9.4,11.5"/>
</g>
<path class="st3" d="M259.3,1036.3L259.3,1036.3c12.3-8.8,37.3,0,37.5,0c0,0,0,0,0,0c97.1,9.3,106.2,112,106.2,112
	c4.1,24.2,8.3,107.1-4.2,124.2c-16.2,22.2-87.7,17.2-83.6-22.1s33.6-11.8,36.7-67.6s-45.6-58.3-45.6-58.3c-38.4-4-37.6-26.1-37.6-27
	c0,0,0,0,0,0c-16,12.4-6.3,21.9-5.6,22.5c0,0,0,0,0,0c-24-2.5-9.5-24.5-8.6-25.9c0,0,0,0,0,0c-20.2,13.1-4.2,23.8-2.8,24.7
	c0,0,0,0.1,0,0.1c-30.4-3.2-19.3-33.9-6.8-56.3c-15.6,8.4-40.6,20.7-44.7,39.7c-4.7,21.4-19.2,28.7-26.1,31.1
	c-1.8,0.6-3.5-0.9-3.2-2.7C170.7,1130.6,177.8,1037.5,259.3,1036.3z"/>
<g>
	<ellipse transform="matrix(0.1023 -0.9948 0.9948 0.1023 -908.6067 1307.3501)" cx="270" cy="1157.1" rx="9.9" ry="8.9"/>
	<path class="st16" d="M258.6,1142.7c0,0,1.9,10.8,9.4,11.5"/>
</g>
<path class="st7" d="M186,1141.6c-2.1,6.8,1.2,8.6-2,11.1c-2.1,1.7-7.4-5.1-5.3-11.9s9.9-11.4,12.5-10.6S188,1134.9,186,1141.6z"/>
<g>
	<path class="st17" d="M231.1,1160.2c0,0-4.1,23.3-13.5,16.1c-11.5-8.9-5.9,12.6,4,16.2"/>
	<path class="st15" d="M217,1181.8c1.3,2.2,2.5,1.8,2.4,3.3c-0.1,1-3.2,0.6-4.4-1.6c-1.3-2.2-0.5-5.4,0.3-5.9
		C216.2,1177.1,215.8,1179.6,217,1181.8z"/>
</g>
<circle class="st8" cx="228.4" cy="1183" r="1.3"/>
<path class="st14" d="M225.9,1267.1c-2.3,34.1-12.9,31.4-26.1,30.5c-13.2-0.9-24.1,0.3-21.8-33.8c2.3-34.1,14.9-61,28.2-60.1
	C219.3,1204.7,228.2,1233,225.9,1267.1z"/>
<path class="st13" d="M183.3,1267.2l14.9,1c10.6,0.7,18.6,10,17.9,20.5l-9.9,144.9c-0.8,11.5-10.8,20.3-22.3,19.5h0
	c-17.4-1.2-30.6-16.4-29.4-33.7l9.2-135.1C164.4,1274.2,173.2,1266.5,183.3,1267.2z"/>
<path class="st14" d="M253.5,1272c-2.3,34.1-12.9,31.4-26.1,30.5c-13.2-0.9-24.1,0.3-21.8-33.8c2.3-34.1,14.9-61,28.2-60.1
	C247,1209.5,255.9,1237.9,253.5,1272z"/>
<g>
	<path class="st13" d="M205.3,1443.5l-10.4-8.5c-5.6-4.6-6.5-13-1.8-18.6l92.1-112.2c15.8-19.3,43-27.7,62.3-11.9l3.9,4.6
		c8.6,13.2,8.5,23.1,0.7,32.6l-88.9,108.4C248.8,1455.3,222.8,1457.8,205.3,1443.5z"/>
	<path class="st13" d="M216.2,1269.4l33.3,2.3c9.4,0.6,16.6,8.9,16,18.3l-9.1,132.9c-1.3,19.3-18.1,33.9-37.4,32.6h0
		c-17.9-1.2-31.6-16.9-30.4-34.8l9.2-135.3C198.5,1276,206.8,1268.8,216.2,1269.4z"/>
</g>
<ellipse transform="matrix(0.1023 -0.9948 0.9948 0.1023 -995.9532 1224.4225)" class="st0" cx="180.4" cy="1164" rx="9" ry="17.6"/>
<ellipse transform="matrix(0.1023 -0.9948 0.9948 0.1023 -904.9722 1348.9177)" class="st0" cx="294.9" cy="1175.8" rx="9" ry="17.6"/>
<ellipse transform="matrix(0.1586 -0.9873 0.9873 0.1586 -886.3109 935.2861)" class="st18" cx="105.6" cy="987.7" rx="7" ry="7"/>
<ellipse transform="matrix(0.1586 -0.9873 0.9873 0.1586 -862.3317 963.4252)" class="st19" cx="134.1" cy="987.7" rx="7" ry="7"/>
<ellipse transform="matrix(0.1586 -0.9873 0.9873 0.1586 -838.3525 991.5644)" class="st20" cx="162.6" cy="987.7" rx="7" ry="7"/>
<path class="st15" d="M239.7,1224.6c2.7,12,5.8,30.1,2.9,40.8c-0.7,2.6,2.6,4.4,4.4,2.3c2.3-2.7,3.8-6.6,2.7-12.2
	c-1.7-8.5-4.2-23.1-7.9-31.6C241.2,1222.8,239.4,1223.4,239.7,1224.6z"/>
<g>
	<path class="st7" d="M671.1,948.6c-129.5,0-234.5,64.5-234.5,144c0,43.5,31.4,82.5,81.1,108.9c-0.7,3.1-1.1,6.3-1.1,9.6
		c0,23.5,19,42.5,42.5,42.5c16.9,0,31.6-9.9,38.4-24.2c23.2,4.7,47.9,7.2,73.6,7.2c129.5,0,234.5-64.5,234.5-144
		C905.6,1013.1,800.6,948.6,671.1,948.6z"/>
	<circle class="st7" cx="507.1" cy="1292.1" r="28.5"/>
	<circle class="st7" cx="447.1" cy="1326.1" r="17.5"/>
	<circle class="st7" cx="396.1" cy="1326.1" r="12.5"/>
	<text transform="matrix(1 0 0 1 499.6154 1115.6156)" style="font-family:'DINAlternate-Bold'; font-size:48px;">...Who are you...?</text>
</g>
</svg>
