<?xml version="1.0" encoding="utf-8"?>
<!-- Generator: Adobe Illustrator 22.0.1, SVG Export Plug-In . SVG Version: 6.00 Build 0)  -->
<svg version="1.1" id="Layer_1" xmlns="http://www.w3.org/2000/svg" xmlns:xlink="http://www.w3.org/1999/xlink" x="0px" y="0px"
	 viewBox="0 0 528.9 402.2" style="enable-background:new 0 0 528.9 402.2;" xml:space="preserve">
<style type="text/css">
	.st0{fill:#FFAF78;}
	.st1{fill:#848484;}
	.st2{fill:none;stroke:#000000;stroke-width:2;stroke-miterlimit:10;}
	.st3{fill:#FC3535;stroke:#000000;stroke-width:2;stroke-miterlimit:10;}
	.st4{fill:#382612;}
	.st5{fill:#FFE7BD;stroke:#000000;stroke-width:2;stroke-miterlimit:10;}
	.st6{opacity:0.4;fill:#C4B7A1;}
	.st7{fill:none;stroke:#000000;stroke-width:2;stroke-linecap:round;stroke-linejoin:round;stroke-miterlimit:10;}
	.st8{fill:#FFFFFF;}
	.st9{fill:#FFE7BD;stroke:#000000;stroke-width:2;stroke-linecap:round;stroke-linejoin:round;stroke-miterlimit:10;}
	.st10{fill:#4F4F4F;}
	.st11{fill:#F38475;stroke:#000000;stroke-width:2;stroke-miterlimit:10;}
	.st12{fill:#F2CC67;stroke:#000000;stroke-width:2;stroke-miterlimit:10;}
	.st13{fill:#60D36D;stroke:#000000;stroke-width:2;stroke-miterlimit:10;}
	.st14{fill:#FFFFFF;stroke:#000000;stroke-width:2;stroke-miterlimit:10;}
	.st15{stroke:#000000;stroke-width:2;stroke-miterlimit:10;}
	.st16{font-family:'DINAlternate-Bold';}
	.st17{font-size:48px;}
</style>
<g id="XMLID_1_">
	<g>
		<path class="st0" d="M696.8,918.4v510.1c0,8.8-7.1,15.9-15.9,15.9H-24.4c-8.8,0-15.9-7.1-15.9-15.9V918.4h1H696.8z"/>
		<path class="st1" d="M696.8,897.3v21.1h-736h-1v-21.1c0-8.8,7.1-15.9,15.9-15.9h705.3C689.7,881.4,696.8,888.5,696.8,897.3z"/>
	</g>
	<g>
		<path class="st2" d="M696.8,918.4v510.1c0,8.8-7.1,15.9-15.9,15.9H-24.4c-8.8,0-15.9-7.1-15.9-15.9V918.4v-21.1
			c0-8.8,7.1-15.9,15.9-15.9h705.3c8.8,0,15.9,7.1,15.9,15.9V918.4z"/>
		<line class="st2" x1="-39.2" y1="918.4" x2="696.8" y2="918.4"/>
	</g>
</g>
<path class="st3" d="M242.5,1443.9H59c-4.8,0-8.7-3.9-8.7-8.7v-24.5c0-4.8,3.9-8.7,8.7-8.7h183.5c4.8,0,8.7,3.9,8.7,8.7v24.5
	C251.3,1440,247.3,1443.9,242.5,1443.9z"/>
<path class="st3" d="M208.3,1407.9H94c-27.2,0-49.4,16.2-49.4-8.1v-160.5c0-24.2,22.2-44.1,49.4-44.1h114.3
	c27.2,0,36.9,26.2,36.9,50.4l12.5,154.1C257.7,1424.1,235.5,1407.9,208.3,1407.9z"/>
<path class="st4" d="M154.8,957.2c0,0-100.8,20.4-115.8,142.8c-0.5,3.8-2,7.3-4.4,10.2c-11.1,13.8-16.3,64.8,50.4,75.8
	c2.3,0.4,22.3,2.2,24.6,1.8c4-0.8,9-3.1,9.3-9.9C118.9,1178,87.3,956.9,154.8,957.2z"/>
<path class="st5" d="M265.3,1104c-8.2,79.4-59.6,105.8-119,99.7c-59.5-6.1-104.4-42.4-96.3-121.8S113,943,172.5,949.1
	S273.5,1024.6,265.3,1104z"/>
<path class="st6" d="M170.9,950.7c-2.1-0.2-4.1-0.3-6.2-0.4c55.8,10,94.2,76.1,86.4,151.5c-7.7,75.3-55.6,102.1-112.1,98.4
	c2,0.3,4.1,0.5,6.1,0.7c59.1,6.1,110.2-19.8,118.3-97.9C271.5,1025,230,956.8,170.9,950.7z"/>
<g>
	<ellipse transform="matrix(0.1023 -0.9948 0.9948 0.1023 -969.4831 1048.7045)" cx="96.3" cy="1061.5" rx="9.9" ry="8.9"/>
	<path class="st7" d="M84.9,1047.1c0,0,1.9,10.8,9.4,11.5"/>
</g>
<path class="st4" d="M142,948.6L142,948.6c12.3-8.8,37.3,0,37.5,0c0,0,0,0,0,0c97.1,9.3,106.2,112,106.2,112
	c4.1,24.2,8.3,107.1-4.2,124.2c-16.2,22.2-87.7,17.2-83.6-22.1c4-39.3,33.6-11.8,36.7-67.6c3.1-55.9-45.6-58.3-45.6-58.3
	c-38.4-4-37.6-26.1-37.6-27c0,0,0,0,0,0c-16,12.4-6.3,21.9-5.6,22.5c0,0,0,0,0,0c-24-2.5-9.5-24.5-8.6-25.9c0,0,0,0,0,0
	c-20.2,13.1-4.2,23.8-2.8,24.7c0,0,0,0.1,0,0.1c-30.4-3.2-19.3-33.9-6.8-56.3c-15.6,8.4-40.6,20.7-44.7,39.7
	c-4.7,21.4-19.2,28.7-26.1,31.1c-1.8,0.6-3.5-0.9-3.2-2.7C53.4,1043,60.5,949.8,142,948.6z"/>
<g>
	<ellipse transform="matrix(0.1023 -0.9948 0.9948 0.1023 -926.7349 1111.9296)" cx="152.7" cy="1069.4" rx="9.9" ry="8.9"/>
	<path class="st7" d="M141.3,1055c0,0,1.9,10.8,9.4,11.5"/>
</g>
<path class="st8" d="M68.6,1054c-2.1,6.8,1.2,8.6-2,11.1c-2.1,1.7-7.4-5.1-5.3-11.9s9.9-11.4,12.5-10.6
	C76.5,1043.3,70.7,1047.2,68.6,1054z"/>
<g>
	<path class="st9" d="M113.7,1072.6c0,0-4.1,23.3-13.5,16.1c-11.5-8.9-5.9,12.6,4,16.2"/>
	<path class="st6" d="M99.7,1094.2c1.3,2.2,2.5,1.8,2.4,3.3c-0.1,1-3.2,0.6-4.4-1.6c-1.3-2.2-0.5-5.4,0.3-5.9
		C98.8,1089.5,98.4,1091.9,99.7,1094.2z"/>
</g>
<circle class="st10" cx="111" cy="1095.3" r="1.3"/>
<path class="st5" d="M108.5,1179.4c-2.3,34.1-12.9,31.4-26.1,30.5c-13.2-0.9-24.1,0.3-21.8-33.8c2.3-34.1,14.9-61,28.2-60.1
	C102,1117,110.8,1145.4,108.5,1179.4z"/>
<path class="st3" d="M66,1179.5l14.9,1c10.6,0.7,18.6,10,17.9,20.5L88.9,1346c-0.8,11.5-10.8,20.3-22.3,19.5h0
	c-17.4-1.2-30.6-16.4-29.4-33.7l9.2-135.1C47,1186.5,55.9,1178.8,66,1179.5z"/>
<path class="st5" d="M136.2,1184.3c-2.3,34.1-12.9,31.4-26.1,30.5c-13.2-0.9-24.1,0.3-21.8-33.8c2.3-34.1,14.9-61,28.2-60.1
	C129.7,1121.9,138.5,1150.2,136.2,1184.3z"/>
<g>
	<path class="st3" d="M88,1355.8l-10.4-8.5c-5.6-4.6-6.5-13-1.8-18.6l92.1-112.2c15.8-19.3,43-27.7,62.3-11.9l3.9,4.6
		c8.6,13.2,8.5,23.1,0.7,32.6l-88.9,108.4C131.5,1367.6,105.5,1370.2,88,1355.8z"/>
	<path class="st3" d="M98.9,1181.7l33.3,2.3c9.4,0.6,16.6,8.9,16,18.3l-9.1,132.9c-1.3,19.3-18.1,33.9-37.4,32.6h0
		c-17.9-1.2-31.6-16.9-30.4-34.8l9.2-135.3C81.2,1188.3,89.5,1181.1,98.9,1181.7z"/>
</g>
<ellipse transform="matrix(0.1023 -0.9948 0.9948 0.1023 -1014.0815 1029.002)" class="st0" cx="63.1" cy="1076.3" rx="9" ry="17.6"/>
<ellipse transform="matrix(0.1023 -0.9948 0.9948 0.1023 -923.1004 1153.4972)" class="st0" cx="177.5" cy="1088.2" rx="9" ry="17.6"/>
<ellipse transform="matrix(0.1586 -0.9873 0.9873 0.1586 -898.4755 745.6777)" class="st11" cx="-11.7" cy="900" rx="7" ry="7"/>
<ellipse transform="matrix(0.1586 -0.9873 0.9873 0.1586 -874.4963 773.8169)" class="st12" cx="16.8" cy="900" rx="7" ry="7"/>
<ellipse transform="matrix(0.1586 -0.9873 0.9873 0.1586 -850.5171 801.9561)" class="st13" cx="45.3" cy="900" rx="7" ry="7"/>
<path class="st6" d="M122.3,1137c2.7,12,5.8,30.1,2.9,40.8c-0.7,2.6,2.6,4.4,4.4,2.3c2.3-2.7,3.8-6.6,2.7-12.2
	c-1.7-8.5-4.2-23.1-7.9-31.6C123.9,1135.1,122.1,1135.7,122.3,1137z"/>
<g>
	<path class="st8" d="M553.8,860.9c-129.5,0-234.5,64.5-234.5,144c0,43.5,31.4,82.5,81.1,108.9c-0.7,3.1-1.1,6.3-1.1,9.6
		c0,23.5,19,42.5,42.5,42.5c16.9,0,31.6-9.9,38.4-24.2c23.2,4.7,47.9,7.2,73.6,7.2c129.5,0,234.5-64.5,234.5-144
		S683.3,860.9,553.8,860.9z"/>
	<circle class="st8" cx="389.8" cy="1204.4" r="28.5"/>
	<circle class="st8" cx="329.8" cy="1238.4" r="17.5"/>
	<circle class="st8" cx="278.8" cy="1238.4" r="12.5"/>
	<text transform="matrix(1 0 0 1 382.2821 1027.9489)" class="st16 st17">...Who are you...?</text>
</g>
<g>
	<path class="st14" d="M290.8,4.9c-129.5,0-234.5,64.5-234.5,144c0,43.5,31.4,82.5,81.1,108.9c-0.7,3.1-1.1,6.3-1.1,9.6
		c0,23.5,19,42.5,42.5,42.5c16.9,0,31.6-9.9,38.4-24.2c23.2,4.7,47.9,7.2,73.6,7.2c129.5,0,234.5-64.5,234.5-144
		S420.3,4.9,290.8,4.9z"/>
	<circle class="st14" cx="126.8" cy="348.4" r="28.5"/>
	<circle class="st14" cx="66.8" cy="382.4" r="17.5"/>
	<circle class="st14" cx="15.8" cy="382.4" r="12.5"/>
	<text transform="matrix(1 0 0 1 119.2821 171.9489)" class="st15 st16 st17">...Who are you...?</text>
</g>
</svg>
