<?xml version="1.0" encoding="utf-8"?>
<!-- Generator: Adobe Illustrator 22.0.1, SVG Export Plug-In . SVG Version: 6.00 Build 0)  -->
<svg version="1.1" id="Layer_1" xmlns="http://www.w3.org/2000/svg" xmlns:xlink="http://www.w3.org/1999/xlink" x="0px" y="0px"
	 viewBox="0 0 150 150" style="enable-background:new 0 0 150 150;" xml:space="preserve">
<style type="text/css">
	.st0{fill:#7C5151;}
	.st1{fill:#916363;}
	.st2{fill:#FFFFFF;}
	.st3{fill:#382612;}
	.st4{fill:#FFE7BD;}
	.st5{opacity:0.2;}
	.st6{fill:#494747;}
	.st7{opacity:0.4;}
	.st8{fill:#C4B7A1;}
	.st9{fill:#4F4F4F;}
	.st10{fill:#FFAF78;}
</style>
<g>
	<g>
		<g>
			<g>
				<path class="st0" d="M98.2,117.6L42.1,106c-1.1-0.2-1.8-1.3-1.6-2.4l15.2-73.5c0.2-1.1,1.3-1.8,2.4-1.6l56.2,11.7
					c1.1,0.2,1.8,1.3,1.6,2.4L100.7,116C100.4,117.1,99.3,117.8,98.2,117.6z"/>
			</g>
			<g>
				<path d="M98.2,117.7l-56.1-11.6c-1.1-0.2-1.9-1.4-1.6-2.5l15.2-73.5c0.2-1.1,1.4-1.9,2.5-1.6l56.1,11.6c1.1,0.2,1.9,1.4,1.6,2.5
					L100.7,116c-0.1,0.6-0.4,1-0.9,1.4C99.3,117.7,98.8,117.8,98.2,117.7z M58.2,28.6c-1-0.2-2,0.5-2.3,1.5l-15.2,73.5
					c-0.2,1,0.5,2,1.5,2.3l56.1,11.6c0.5,0.1,1,0,1.5-0.3c0.4-0.3,0.7-0.7,0.8-1.2l15.2-73.4c0.2-1-0.5-2-1.5-2.3L58.2,28.6z"/>
			</g>
		</g>
		<g>
			<g>
				<path class="st0" d="M98.2,117.8l-56.1-11.6c-1.2-0.2-2-1.4-1.7-2.6l15.2-73.5c0.2-1.2,1.4-2,2.6-1.7l56.1,11.5
					c1.2,0.2,2,1.4,1.7,2.6l-15.2,73.4C100.6,117.2,99.4,118,98.2,117.8z M58.1,28.7c-1-0.2-1.9,0.4-2.1,1.4l-15.2,73.5
					c-0.2,1,0.4,1.9,1.4,2.1l56.1,11.6c1,0.2,1.9-0.4,2.1-1.4l15.2-73.4c0.2-1-0.4-1.9-1.4-2.1C114.2,40.4,58.1,28.7,58.1,28.7z"/>
			</g>
			<g>
				<path d="M98.1,117.9L42,106.3c-1.3-0.3-2.1-1.5-1.8-2.8L55.4,30c0.3-1.3,1.5-2.1,2.8-1.8l56.1,11.6c1.3,0.3,2.1,1.5,1.8,2.8
					L100.9,116c-0.1,0.6-0.5,1.1-1,1.5S98.8,118,98.1,117.9z M58.2,28.4c-1.1-0.2-2.3,0.5-2.5,1.6l-15.2,73.5
					c-0.2,1.1,0.5,2.3,1.6,2.5l56.1,11.6c0.6,0.1,1.1,0,1.6-0.3s0.8-0.8,0.9-1.3l15.2-73.4c0.2-1.1-0.5-2.3-1.6-2.5L58.2,28.4z
					 M98.2,117.4l-56.1-11.6c-1-0.2-1.7-1.2-1.5-2.3l15.2-73.4c0.2-1,1.2-1.7,2.3-1.5l56.1,11.6c1,0.2,1.7,1.2,1.5,2.3l-15.2,73.4
					C100.3,117,99.3,117.7,98.2,117.4z M58.1,28.8c-0.9-0.2-1.8,0.4-2,1.3l-15.2,73.5c-0.2,0.9,0.4,1.8,1.3,2l56.1,11.6
					c0.9,0.2,1.8-0.4,2-1.3l15.2-73.4c0.2-0.9-0.4-1.8-1.3-2L58.1,28.8z"/>
			</g>
		</g>
	</g>
	<g>
		<g>
			<g>
				<path class="st1" d="M94.5,119.7l-56.1-11.6c-1.1-0.2-1.8-1.3-1.6-2.4L52,32.2c0.2-1.1,1.3-1.8,2.4-1.6l56.1,11.6
					c1.1,0.2,1.8,1.3,1.6,2.4L96.9,118C96.7,119.2,95.6,119.9,94.5,119.7z"/>
			</g>
			<g>
				<path d="M94.5,119.8l-56.1-11.6c-1.1-0.2-1.9-1.4-1.6-2.5L52,32.2c0.2-1.1,1.4-1.9,2.5-1.6l56.1,11.6c1.1,0.2,1.9,1.4,1.6,2.5
					L97,118.1c-0.1,0.6-0.4,1-0.9,1.4C95.6,119.8,95,119.9,94.5,119.8z M54.4,30.7c-1-0.2-2,0.5-2.3,1.5l-15.2,73.5
					c-0.2,1,0.5,2,1.5,2.3l56.1,11.6c0.5,0.1,1,0,1.5-0.3c0.4-0.3,0.7-0.7,0.8-1.2L112,44.6c0.2-1-0.5-2-1.5-2.3L54.4,30.7z"/>
			</g>
		</g>
		<g>
			<g>
				<path class="st1" d="M94.4,119.9l-56.1-11.6c-1.2-0.2-2-1.4-1.7-2.6l15.2-73.5c0.2-1.2,1.4-2,2.6-1.7l56.1,11.6
					c1.2,0.2,2,1.4,1.7,2.6L97,118.1C96.9,119.3,95.6,120.1,94.4,119.9z M54.4,30.8c-1-0.2-1.9,0.4-2.1,1.4l-15.2,73.4
					c-0.2,1,0.4,1.9,1.4,2.1l56.1,11.6c1,0.2,1.9-0.4,2.1-1.4l15.2-73.3c0.2-1-0.4-1.9-1.4-2.1C110.5,42.5,54.4,30.8,54.4,30.8z"/>
			</g>
			<g>
				<path d="M94.4,120l-56.1-11.6c-1.3-0.3-2.1-1.5-1.8-2.8l15.2-73.5c0.3-1.3,1.5-2.1,2.8-1.8l56.1,11.6c1.3,0.3,2.1,1.5,1.8,2.8
					l-15.2,73.4c-0.1,0.6-0.5,1.1-1,1.5C95.7,120,95,120.1,94.4,120z M54.5,30.5c-1.1-0.2-2.3,0.5-2.5,1.6l-15.2,73.5
					c-0.2,1.1,0.5,2.3,1.6,2.5l56.1,11.6c0.6,0.1,1.1,0,1.6-0.3s0.8-0.8,0.9-1.3l15.2-73.4c0.2-1.1-0.5-2.3-1.6-2.5L54.5,30.5z
					 M94.5,119.5l-56.1-11.6c-1-0.2-1.7-1.2-1.5-2.3l15.2-73.4c0.2-1,1.2-1.7,2.3-1.5l56.1,11.6c1,0.2,1.7,1.2,1.5,2.3L96.8,118
					C96.6,119.1,95.5,119.7,94.5,119.5z M54.4,30.9c-0.9-0.2-1.8,0.4-2,1.3l-15.2,73.4c-0.2,0.9,0.4,1.8,1.3,2l56.1,11.6
					c0.9,0.2,1.8-0.4,2-1.3l15.2-73.3c0.2-0.9-0.4-1.8-1.3-2L54.4,30.9z"/>
			</g>
		</g>
	</g>
	<g>
		<g>
			<g>
				<path class="st2" d="M91.9,121.4l-56.1-11.6c-1.1-0.2-1.8-1.3-1.6-2.4l15.2-73.5c0.2-1.1,1.3-1.8,2.4-1.6l56.1,11.6
					c1.1,0.2,1.8,1.3,1.6,2.4l-15.2,73.5C94.1,120.9,93,121.6,91.9,121.4z"/>
				<path d="M91.9,121.6L35.8,110c-1.2-0.3-2-1.5-1.8-2.7l15.3-73.5c0.3-1.2,1.5-2,2.7-1.8l56.1,11.6c1.2,0.3,2,1.5,1.8,2.7
					l-15.2,73.4c-0.1,0.6-0.4,1.1-1,1.4C93.1,121.6,92.5,121.7,91.9,121.6z M51.8,32.6c-0.9-0.2-1.9,0.4-2.1,1.4l-15.2,73.5
					c-0.2,0.9,0.4,1.9,1.4,2.1L92,121.2c0.5,0.1,1,0,1.4-0.3s0.7-0.7,0.7-1.1l15.2-73.5c0.2-0.9-0.4-1.9-1.4-2.1L51.8,32.6z"/>
			</g>
		</g>
		<g>
			<g>
				<path d="M91.9,121.6L35.8,110c-1.2-0.2-2-1.4-1.7-2.6l15.2-73.6c0.2-1.2,1.4-2,2.6-1.7L108,43.7c1.2,0.2,2,1.4,1.7,2.6
					l-15.2,73.4C94.3,121,93.1,121.8,91.9,121.6z M51.8,32.5c-1-0.2-1.9,0.4-2.1,1.4l-15.2,73.4c-0.2,1,0.4,1.9,1.4,2.1L92,121
					c1,0.2,1.9-0.4,2.1-1.4l15.2-73.3c0.2-1-0.4-1.9-1.4-2.1C107.9,44.1,51.8,32.5,51.8,32.5z"/>
				<path d="M91.8,121.8l-56.1-11.6c-1.3-0.3-2.2-1.6-1.9-2.9L49,33.8c0.3-1.3,1.6-2.2,2.9-1.9L108,43.5c1.3,0.3,2.2,1.6,1.9,2.9
					l-15.2,73.4c-0.1,0.6-0.5,1.2-1,1.6C93.1,121.8,92.5,121.9,91.8,121.8z M51.8,32.8C51,32.6,50.1,33.2,50,34l-15.2,73.4
					c-0.2,0.8,0.4,1.7,1.2,1.8l56.1,11.6c0.8,0.2,1.7-0.4,1.8-1.2l15.2-73.4c0.2-0.8-0.4-1.7-1.2-1.8L51.8,32.8z"/>
			</g>
		</g>
	</g>
	<g>
		<g>
			<g>
				<path class="st2" d="M90.4,118l-51.9-10.8c-1-0.2-1.7-1.2-1.5-2.2l14.1-68c0.2-1,1.2-1.7,2.2-1.5l52,10.9c1,0.2,1.7,1.2,1.5,2.2
					l-14.1,68C92.4,117.6,91.4,118.2,90.4,118z"/>
			</g>
		</g>
		<g>
			<g>
				<path d="M90.4,118.2l-51.9-10.8c-1.1-0.2-1.8-1.3-1.6-2.5l14.1-68c0.2-1.1,1.3-1.8,2.5-1.6l51.8,10.9c1.1,0.2,1.8,1.3,1.6,2.5
					l-14.1,68C92.6,117.7,91.5,118.4,90.4,118.2z M53.4,35.8c-0.9-0.2-1.8,0.4-2,1.3l-14.1,68c-0.2,0.9,0.4,1.8,1.3,2l51.9,10.8
					c0.9,0.2,1.8-0.4,2-1.3l14.1-68c0.2-0.9-0.4-1.8-1.3-2C105.2,46.6,53.4,35.8,53.4,35.8z"/>
			</g>
		</g>
	</g>
	<g>
		<g>
			<g>
				<g>
					<g>
						<g>
							<g>
								<g>
									<g>
										<path class="st3" d="M73.3,68.9c0,0-7.2,0-10,8.2c-0.1,0.3-0.2,0.5-0.4,0.6c-1,0.8-2.1,4.2,2.4,6c0.2,0.1,1.5,0.5,1.7,0.5
											c0.3,0,0.7-0.1,0.8-0.6C67.6,83.6,68.6,67.9,73.3,68.9z"/>
									</g>
								</g>
							</g>
						</g>
						<g>
							<g>
								<g>
									<g>
										<path d="M66.8,84.2c-0.4-0.1-1.5-0.4-1.6-0.5c-2.4-0.9-3.1-2.3-3.2-3.3c-0.1-0.7,0-1.3,0.2-1.7c0.2-0.5,0.4-0.8,0.7-1.1
											c0.2-0.2,0.4-0.4,0.4-0.6c0.6-1.9,1.6-3.5,2.8-4.8c1-1,2.1-1.8,3.3-2.4c1.1-0.5,2.1-0.8,2.8-0.9c0.4-0.2,0.8-0.2,1.2-0.1
											l0,0l0.4,0.1h-0.4c0,0-0.5,0-1.2,0.1c-0.1,0.1-0.3,0.2-0.4,0.3c-0.7,0.5-1.4,1.6-1.9,3.1c-0.5,1.2-0.9,2.8-1.2,4.6
											c-0.5,2.8-0.8,5.6-0.9,6.6v0.1l0,0C67.6,84,67.3,84.2,66.8,84.2L66.8,84.2z M71.8,69.1c-0.6,0.1-1.5,0.4-2.5,0.8
											c-1.2,0.6-2.4,1.4-3.3,2.4c-1.2,1.3-2.1,2.9-2.7,4.7c-0.1,0.3-0.3,0.5-0.5,0.7c-0.3,0.2-0.5,0.6-0.7,1
											c-0.1,0.4-0.3,0.9-0.2,1.6c0.2,1,0.8,2.3,3.2,3.2c0.2,0.1,1.5,0.5,1.7,0.5c0.4,0,0.7-0.2,0.7-0.5c0,0,0,0,0-0.1
											c0.1-2,1-12.1,4-14.3C71.7,69.2,71.7,69.1,71.8,69.1z"/>
									</g>
								</g>
							</g>
						</g>
					</g>
				</g>
			</g>
		</g>
		<g>
			<g>
				<g>
					<g>
						<g>
							<g>
								<g>
									<g>
										<path class="st4" d="M76.8,80.4c-1.4,4.3-4.5,5.2-7.7,4.1s-5.3-3.5-3.9-7.8c1.4-4.3,5.1-7,8.3-5.9
											C76.6,71.8,78.1,76.1,76.8,80.4z"/>
									</g>
								</g>
							</g>
						</g>
					</g>
				</g>
			</g>
			<g>
				<g>
					<g>
						<g>
							<g>
								<g>
									<g>
										<path d="M69.9,84.8c-0.3-0.1-0.6-0.1-0.9-0.2c-1.7-0.5-3-1.5-3.7-2.7c-0.8-1.4-0.9-3.2-0.2-5.2c1.4-4.3,5.1-7,8.4-6
											c1.6,0.5,2.8,1.8,3.4,3.6c0.6,1.8,0.6,4,0,6.1c-0.6,2-1.7,3.4-3.2,4.1C72.6,85,71.3,85.1,69.9,84.8z M72.9,70.7
											c-3.1-0.6-6.5,2-7.8,6c-0.6,2-0.6,3.7,0.2,5.1c0.7,1.2,2,2.1,3.6,2.7c1.7,0.5,3.3,0.5,4.5-0.1c1.4-0.7,2.5-2,3.1-4
											c0.7-2.1,0.7-4.2,0-6c-0.6-1.8-1.8-3.1-3.4-3.6C73.2,70.8,73.1,70.7,72.9,70.7z"/>
									</g>
								</g>
							</g>
						</g>
					</g>
				</g>
			</g>
		</g>
		<g>
			<g>
				<g>
					<g>
						<g>
							<g>
								<g>
									<g>
										<g>
											<ellipse transform="matrix(0.1985 -0.9801 0.9801 0.1985 -18.7477 128.3023)" cx="69.1" cy="75.6" rx="0.6" ry="0.6"/>
										</g>
									</g>
								</g>
							</g>
						</g>
					</g>
				</g>
			</g>
			<g>
				<g>
					<g>
						<g>
							<g>
								<g>
									<g>
										<g>
											<path d="M68.9,75.5L68.9,75.5c-0.6-0.1-0.6-0.9-0.6-0.9s0-0.1,0.1-0.1c0,0,0.1,0,0.1,0.1c0,0,0.1,0.7,0.5,0.7
												C68.9,75.3,68.9,75.4,68.9,75.5L68.9,75.5z"/>
										</g>
									</g>
								</g>
							</g>
						</g>
					</g>
				</g>
			</g>
		</g>
		<g>
			<g>
				<g>
					<g>
						<g>
							<g>
								<g>
									<g>
										<g>
											<ellipse transform="matrix(0.1985 -0.9801 0.9801 0.1985 -16.6968 132.5343)" cx="72.7" cy="76.5" rx="0.6" ry="0.6"/>
										</g>
									</g>
								</g>
							</g>
						</g>
					</g>
				</g>
			</g>
			<g>
				<g>
					<g>
						<g>
							<g>
								<g>
									<g>
										<g>
											<path d="M72.5,76.3L72.5,76.3c-0.5-0.1-0.6-0.8-0.6-0.9c0,0,0-0.1,0.1-0.1c0,0,0.1,0,0.1,0.1c0,0,0.1,0.7,0.5,0.7
												C72.5,76.2,72.5,76.2,72.5,76.3L72.5,76.3z"/>
										</g>
									</g>
								</g>
							</g>
						</g>
					</g>
				</g>
			</g>
		</g>
		<g>
			<g>
				<g>
					<g>
						<g>
							<g>
								<g>
									<g>
										<path class="st2" d="M67.5,73.8c-0.2,0.4,0,0.6-0.2,0.7c-0.1,0.1-0.4-0.4-0.3-0.8c0.2-0.4,0.7-0.7,0.9-0.6
											C68.1,73.2,67.7,73.4,67.5,73.8z"/>
									</g>
								</g>
							</g>
						</g>
					</g>
				</g>
			</g>
		</g>
		<g class="st5">
			<g>
				<g>
					<g>
						<g>
							<path class="st6" d="M77,75.9c0,0,0.4,7.2-5.9,8.8c0,0,4.3,0.2,5.6-3.2C78,78.3,78.1,77.2,77,75.9z"/>
						</g>
					</g>
				</g>
			</g>
		</g>
		<g>
			<g>
				<g>
					<g>
						<g>
							<g>
								<g>
									<g>
										<g>
											<path class="st4" d="M70,76.4c0,0-0.4,1.5-1,1c-0.7-0.6-0.5,0.8,0.2,1.1"/>
										</g>
									</g>
								</g>
							</g>
						</g>
					</g>
				</g>
				<g>
					<g>
						<g>
							<g>
								<g>
									<g>
										<g>
											<path d="M69.2,78.5L69.2,78.5c-0.4-0.2-0.6-0.8-0.6-1.1c0-0.2,0.1-0.2,0.1-0.3c0.1,0,0.2,0,0.4,0.2
												c0.1,0.1,0.2,0.1,0.3,0.1c0.3-0.1,0.5-0.8,0.6-1c0,0,0-0.1,0.1,0c0,0,0.1,0,0,0.1c0,0.1-0.3,1-0.7,1.1
												c-0.1,0-0.3,0-0.4-0.1c-0.1-0.1-0.2-0.2-0.3-0.1v0.1C68.7,77.8,68.9,78.3,69.2,78.5C69.3,78.4,69.3,78.4,69.2,78.5
												C69.3,78.5,69.2,78.5,69.2,78.5z"/>
										</g>
									</g>
								</g>
							</g>
						</g>
					</g>
				</g>
			</g>
			<g class="st7">
				<g>
					<g>
						<g>
							<g>
								<g>
									<g>
										<g>
											<path class="st8" d="M69,77.7c0.1,0.2,0.1,0.1,0.1,0.2s-0.2,0-0.3-0.1c-0.1-0.2,0-0.4,0.1-0.4C69,77.4,68.9,77.6,69,77.7
												z"/>
										</g>
									</g>
								</g>
							</g>
						</g>
					</g>
				</g>
			</g>
		</g>
		<g>
			<g>
				<g>
					<g>
						<g>
							<g>
								<g>
									<g>
										<circle class="st9" cx="69.7" cy="77.9" r="0.1"/>
									</g>
								</g>
							</g>
						</g>
					</g>
				</g>
			</g>
		</g>
		<g>
			<g>
				<g>
					<g>
						<g>
							<g>
								<g>
									<g>
										
											<ellipse transform="matrix(0.1985 -0.9801 0.9801 0.1985 -21.3195 126.7867)" class="st10" cx="66.9" cy="76.4" rx="0.6" ry="1.1"/>
									</g>
								</g>
							</g>
						</g>
					</g>
				</g>
			</g>
		</g>
		<g>
			<g>
				<g>
					<g>
						<g>
							<g>
								<g>
									<g>
										
											<ellipse transform="matrix(0.1985 -0.9801 0.9801 0.1985 -16.8676 135.0037)" class="st10" cx="74.1" cy="77.8" rx="0.6" ry="1.1"/>
									</g>
								</g>
							</g>
						</g>
					</g>
				</g>
			</g>
		</g>
		<g>
			<g>
				<g>
					<g>
						<g>
							<g>
								<g>
									<g>
										<path class="st3" d="M72.5,68.1L72.5,68.1c1-0.4,2.6,0.5,2.6,0.5l0,0c6.6,2,5.7,9.2,5.7,9.2c-0.1,1.7-1,7.5-2.1,8.5
											c-1.4,1.3-6.3-0.1-5.5-2.7c0.8-2.7,2.5-0.3,3.5-4.1c1-3.8-2.3-4.7-2.3-4.7c-2.6-0.8-2.2-2.3-2.2-2.4l0,0
											c-1.3,0.6-0.7,1.4-0.7,1.5l0,0c-1.6-0.5-0.3-1.8-0.2-1.9l0,0c-1.6,0.6-0.6,1.6-0.5,1.7l0,0c-2.1-0.7-0.8-2.6,0.3-4
											c-1.2,0.4-3.1,0.8-3.7,2.1c-0.6,1.4-1.7,1.7-2.2,1.8c-0.1,0-0.2-0.1-0.2-0.2C65,73.3,66.9,67,72.5,68.1z"/>
									</g>
								</g>
							</g>
						</g>
						<g>
							<g>
								<g>
									<g>
										<path d="M76.1,86.8c-0.6-0.1-1.2-0.4-1.7-0.7c-0.5-0.3-0.8-0.7-1-1.1s-0.3-0.9-0.1-1.4c0.4-1.2,0.9-1.4,1.5-1.6
											c0.7-0.2,1.4-0.5,2-2.5c0.3-1.2,0.2-2.2-0.2-3.1c-0.7-1.2-2-1.6-2-1.6l0,0c-0.6-0.2-1.1-0.4-1.4-0.7
											c-0.3-0.2-0.5-0.5-0.7-0.8c-0.2-0.4-0.2-0.7-0.2-0.9c-0.4,0.2-0.7,0.5-0.7,0.8c-0.1,0.3,0.1,0.6,0.1,0.6l0.1,0.1h-0.1
											c-0.5-0.1-0.7-0.4-0.8-0.7c-0.1-0.4,0.2-0.9,0.4-1.2c-0.4,0.2-0.6,0.4-0.7,0.7c-0.1,0.4,0.3,0.8,0.3,0.8l0,0v0.1l0,0
											c-0.6-0.2-1-0.5-1.1-0.9s0-0.9,0.3-1.5c0.2-0.4,0.6-0.9,1-1.5H71c-0.6,0.2-1.3,0.4-2,0.7c-0.7,0.4-1.2,0.8-1.4,1.3
											c-0.6,1.4-1.7,1.7-2.3,1.8c-0.1,0-0.2,0-0.2-0.1s-0.1-0.1,0-0.2c0-0.2,1.9-6.3,7.5-5.3c0.4-0.2,0.9-0.1,1.6,0.1
											c0.2,0.1,0.6,0.2,1,0.5l0,0c1.5,0.5,2.7,1.2,3.7,2.3c0.8,0.9,1.3,1.9,1.7,3.1c0.6,2,0.4,3.8,0.4,3.9
											c0,0.8-0.3,2.7-0.6,4.5c-0.6,2.8-1.1,3.7-1.4,4c-0.4,0.4-1.2,0.6-2,0.5C76.5,86.9,76.3,86.9,76.1,86.8z M74.5,74.8
											c0,0,0.4,0.1,0.8,0.3c0.4,0.2,0.9,0.6,1.3,1.3c0.5,0.8,0.6,1.9,0.3,3.1c-0.2,0.9-0.6,1.6-1,2c-0.3,0.4-0.7,0.5-1.1,0.6
											c-0.6,0.2-1.1,0.4-1.5,1.5c-0.2,0.5-0.3,1.5,1.1,2.4c0.7,0.4,1.5,0.7,2.3,0.8c0.9,0.1,1.6-0.1,2-0.5
											c0.6-0.6,1.2-2.7,1.4-4c0.4-1.8,0.6-3.7,0.6-4.5l0,0c0,0,0.2-1.8-0.4-3.8c-0.4-1.2-0.9-2.2-1.7-3.1
											c-0.9-1.1-2.2-1.8-3.6-2.3l0,0c-0.4-0.2-0.8-0.4-1-0.5c-0.6-0.2-1.1-0.2-1.5-0.1l0,0l0,0c-1.3-0.2-2.4-0.1-3.5,0.3
											c-0.8,0.4-1.6,1-2.3,1.8c-1.1,1.4-1.6,2.9-1.6,3l0,0l0,0v0.1c0,0,0.1,0.1,0.1,0c0.6-0.1,1.6-0.4,2.2-1.7
											c0.2-0.5,0.7-1,1.5-1.3c0.6-0.3,1.4-0.5,2-0.7c0.1,0,0.1,0,0.2-0.1h0.1l-0.1,0.1c-1.4,1.6-1.5,2.5-1.4,3
											c0.1,0.4,0.4,0.7,0.9,0.8c-0.1-0.2-0.3-0.5-0.3-0.8c0.1-0.3,0.4-0.6,0.9-0.8l0.2-0.1l-0.1,0.1c-0.2,0.2-0.7,0.7-0.5,1.2
											c0.1,0.2,0.3,0.4,0.6,0.6c-0.1-0.1-0.1-0.3-0.1-0.6c0.1-0.3,0.4-0.6,0.9-0.9h0.1v0.1c0,0.1-0.1,0.5,0.1,0.9
											c0.1,0.3,0.3,0.5,0.6,0.7C73.4,74.4,73.9,74.6,74.5,74.8z"/>
									</g>
								</g>
							</g>
						</g>
					</g>
				</g>
			</g>
		</g>
		<g>
			<g>
				<g>
					<g>
						<g>
							<path class="st4" d="M67.7,79.5c0,0,2.4,1.1,4.1,0.5"/>
						</g>
					</g>
				</g>
			</g>
			<g>
				<g>
					<g>
						<g>
							<path d="M69.3,80.1c-0.1,0-0.2,0-0.3-0.1c-0.8-0.2-1.4-0.5-1.4-0.5v-0.1h0.1c0,0,0.6,0.3,1.4,0.5c0.7,0.2,1.8,0.3,2.7,0h0.1
								V80C71,80.3,70,80.3,69.3,80.1z"/>
						</g>
					</g>
				</g>
			</g>
		</g>
		<g>
			<g>
				<g>
					<g>
						<g>
							<path class="st4" d="M69.6,80.8c0,0,0.3,0.1,0.5,0"/>
						</g>
					</g>
				</g>
			</g>
			<g>
				<g>
					<g>
						<g>
							<path d="M69.7,80.9C69.6,80.9,69.6,80.9,69.7,80.9C69.6,80.9,69.6,80.8,69.7,80.9C69.6,80.8,69.6,80.8,69.7,80.9L69.7,80.9
								c0-0.1,0.3,0,0.5-0.1h0.1v0.1C70,80.9,69.8,80.9,69.7,80.9z"/>
						</g>
					</g>
				</g>
			</g>
		</g>
		<g>
			<g>
				<g>
					<g>
						<g>
							<path class="st3" d="M65,73.7c0.1-0.3,0.4-1,0.5-1.1c0.1-0.2,0.1,0.2,0.2,0.1c0.2-0.2,4.1-3.3,4.9-3.3c0.7,0.1,1,0,0.8,0.2
								c-0.2,0.1,1.2,0.9,0.8,0.8c-0.4,0-0.6,0.9-1.7,0.5c-0.4-0.2-3,1.1-3.3,1.7s-2.3,3.4-2.3,2.7C64.9,74.6,64.9,73.9,65,73.7z"/>
						</g>
					</g>
				</g>
			</g>
		</g>
	</g>
	<g>
		<g>
			<g>
				<path d="M54.9,43.1c0.6,0.1,0.9,0,1-0.4c0.1-0.3-0.1-0.6-0.4-0.7c-0.2-0.1-0.4-0.1-0.6-0.2c-0.4-0.1-0.6-0.3-0.8-0.6
					s-0.2-0.6-0.1-0.9c0.1-0.4,0.3-0.7,0.6-0.8c0.3-0.2,0.7-0.2,1.1-0.1c0.5,0.1,1,0.4,1.3,0.7l-0.5,0.5c-0.3-0.3-0.6-0.5-1-0.6
					c-0.2,0-0.4,0-0.5,0c-0.2,0.1-0.3,0.2-0.3,0.4c0,0.1,0,0.2,0.1,0.4c0.1,0.1,0.2,0.2,0.4,0.3c0.1,0,0.3,0.1,0.5,0.2
					c0.4,0.1,0.7,0.3,0.8,0.6s0.2,0.6,0.1,0.9c-0.2,0.8-0.8,1.1-1.8,0.9c-0.6-0.1-1.2-0.4-1.5-0.9l0.5-0.4
					C54,42.8,54.4,43,54.9,43.1z"/>
			</g>
		</g>
	</g>
	<g>
		<g>
			<g>
				<path d="M88.9,110.6c-0.6-0.1-0.9,0-1,0.4c-0.1,0.3,0.1,0.6,0.4,0.7c0.2,0.1,0.4,0.1,0.6,0.2c0.4,0.1,0.6,0.3,0.8,0.6
					c0.2,0.3,0.2,0.6,0.1,0.9c-0.1,0.4-0.3,0.7-0.6,0.8c-0.3,0.2-0.7,0.2-1.1,0.1c-0.5-0.1-1-0.4-1.3-0.7l0.5-0.5
					c0.3,0.3,0.6,0.5,1,0.6c0.2,0,0.4,0,0.5,0c0.2-0.1,0.3-0.2,0.3-0.4c0-0.1,0-0.2-0.1-0.4c-0.1-0.1-0.2-0.2-0.4-0.3
					c-0.1,0-0.3-0.1-0.5-0.2c-0.4-0.1-0.7-0.3-0.8-0.6c-0.1-0.3-0.2-0.6-0.1-0.9c0.2-0.8,0.8-1.1,1.8-0.9c0.6,0.1,1.2,0.4,1.5,0.9
					l-0.5,0.4C89.8,110.9,89.4,110.7,88.9,110.6z"/>
			</g>
		</g>
	</g>
	<g>
		<g>
			<g>
				<path d="M53.7,48.5c0-0.2,0-0.4-0.2-0.4c-0.1,0-0.2,0-0.3,0.2c0,0.1-0.1,0.1-0.1,0.2c-0.1,0.1-0.1,0.2-0.2,0.3
					c-0.1,0.1-0.2,0.1-0.3,0.1c-0.2,0-0.3-0.1-0.3-0.2c-0.1-0.1-0.1-0.3-0.1-0.4c0-0.2,0.1-0.4,0.3-0.5l0.2,0.2
					c-0.1,0.1-0.2,0.2-0.2,0.4c0,0.1,0,0.2,0,0.2c0,0.1,0.1,0.1,0.2,0.1c0.1,0,0.1,0,0.1,0s0.1-0.1,0.1-0.2c0,0,0-0.1,0.1-0.2
					c0.1-0.2,0.1-0.3,0.3-0.3c0.1-0.1,0.2-0.1,0.3,0c0.3,0.1,0.5,0.3,0.4,0.7c-0.1,0.3-0.2,0.5-0.4,0.6l-0.2-0.2
					C53.6,48.9,53.7,48.7,53.7,48.5z"/>
			</g>
		</g>
		<g>
			<g>
				<path d="M52.4,47.3l0.1-0.2l1.1,0.2l0,0l-0.5-0.6l0.1-0.3l0.4,0.5l0.9-0.3l-0.1,0.3l-0.6,0.2l0.2,0.2l0.4,0.1l-0.1,0.2
					L52.4,47.3z"/>
			</g>
		</g>
		<g>
			<g>
				<path d="M52.7,46.1l0.1-0.2L53,46l-0.1,0.2L52.7,46.1z M53.2,46.2l0.1-0.2l1.2,0.3l-0.1,0.2L53.2,46.2z"/>
			</g>
		</g>
		<g>
			<g>
				<path d="M52.8,45.5l0.1-0.2l1.4,0.3c0.1,0,0.1,0,0.1-0.1v-0.1h0.2v0.1c0,0.1-0.1,0.2-0.1,0.2c-0.1,0.1-0.1,0.1-0.3,0L52.8,45.5z
					"/>
			</g>
		</g>
		<g>
			<g>
				<path d="M52.9,44.9l0.1-0.2l1.4,0.3c0.1,0,0.1,0,0.1-0.1v-0.1h0.2v0.1c0,0.1-0.1,0.2-0.1,0.2c-0.1,0.1-0.1,0.1-0.3,0L52.9,44.9z
					"/>
			</g>
		</g>
	</g>
	<g>
		<g>
			<g>
				<path d="M90.1,105.2c0,0.2,0,0.4,0.2,0.4c0.1,0,0.2,0,0.3-0.2c0-0.1,0.1-0.1,0.1-0.2c0.1-0.1,0.1-0.2,0.2-0.3
					c0.1-0.1,0.2-0.1,0.3-0.1c0.2,0,0.3,0.1,0.3,0.2c0.1,0.1,0.1,0.3,0.1,0.4c0,0.2-0.1,0.4-0.3,0.5l-0.2-0.2
					c0.1-0.1,0.2-0.2,0.2-0.4c0-0.1,0-0.2,0-0.2c0-0.1-0.1-0.1-0.2-0.1c-0.1,0-0.1,0-0.1,0s-0.1,0.1-0.1,0.2c0,0,0,0.1-0.1,0.2
					c-0.1,0.2-0.1,0.3-0.3,0.3c-0.1,0.1-0.2,0.1-0.3,0c-0.3-0.1-0.5-0.3-0.4-0.7c0.1-0.3,0.2-0.5,0.4-0.6l0.2,0.2
					C90.2,104.8,90.1,105,90.1,105.2z"/>
			</g>
		</g>
		<g>
			<g>
				<path d="M91.4,106.3l-0.1,0.2l-1.1-0.2l0,0l0.5,0.6l-0.1,0.3l-0.4-0.5l-0.9,0.3l0.1-0.3l0.6-0.2l-0.2-0.2l-0.4-0.1l0.1-0.2
					L91.4,106.3z"/>
			</g>
		</g>
		<g>
			<g>
				<path d="M91.1,107.6l-0.1,0.2l-0.2-0.1l0.1-0.2L91.1,107.6z M90.6,107.5l-0.1,0.2l-1.2-0.3l0.1-0.2L90.6,107.5z"/>
			</g>
		</g>
		<g>
			<g>
				<path d="M91,108.2l-0.1,0.2l-1.4-0.3c-0.1,0-0.1,0-0.1,0.1v0.1h-0.2v-0.1c0-0.1,0.1-0.2,0.1-0.2c0.1-0.1,0.1-0.1,0.3,0L91,108.2
					z"/>
			</g>
		</g>
		<g>
			<g>
				<path d="M90.9,108.8l-0.1,0.2l-1.4-0.3c-0.1,0-0.1,0-0.1,0.1v0.1h-0.2v-0.1c0-0.1,0.1-0.2,0.1-0.2c0.1-0.1,0.1-0.1,0.3,0
					L90.9,108.8z"/>
			</g>
		</g>
	</g>
</g>
<rect x="-149.5" y="-149.5" class="st2" width="130" height="130"/>
<g>
	<g>
		<g>
			<g>
				<path class="st0" d="M-61.3-41.9l-56.1-11.6c-1.1-0.2-1.8-1.3-1.6-2.4l15.2-73.5c0.2-1.1,1.3-1.8,2.4-1.6l56.2,11.7
					c1.1,0.2,1.8,1.3,1.6,2.4l-15.2,73.4C-59.1-42.4-60.2-41.7-61.3-41.9z"/>
			</g>
			<g>
				<path d="M-61.3-41.8l-56.1-11.6c-1.1-0.2-1.9-1.4-1.6-2.5l15.2-73.5c0.2-1.1,1.4-1.9,2.5-1.6l56.1,11.6c1.1,0.2,1.9,1.4,1.6,2.5
					l-15.2,73.4c-0.1,0.6-0.4,1-0.9,1.4C-60.2-41.8-60.7-41.7-61.3-41.8z M-101.3-130.9c-1-0.2-2,0.5-2.3,1.5l-15.2,73.5
					c-0.2,1,0.5,2,1.5,2.3L-61.2-42c0.5,0.1,1,0,1.5-0.3c0.4-0.3,0.7-0.7,0.8-1.2l15.2-73.4c0.2-1-0.5-2-1.5-2.3L-101.3-130.9z"/>
			</g>
		</g>
		<g>
			<g>
				<path class="st0" d="M-61.3-41.7l-56.1-11.6c-1.2-0.2-2-1.4-1.7-2.6l15.2-73.5c0.2-1.2,1.4-2,2.6-1.7l56.1,11.5
					c1.2,0.2,2,1.4,1.7,2.6l-15.2,73.4C-58.9-42.3-60.1-41.5-61.3-41.7z M-101.4-130.8c-1-0.2-1.9,0.4-2.1,1.4l-15.2,73.5
					c-0.2,1,0.4,1.9,1.4,2.1l56.1,11.6c1,0.2,1.9-0.4,2.1-1.4l15.2-73.4c0.2-1-0.4-1.9-1.4-2.1C-45.3-119.1-101.4-130.8-101.4-130.8
					z"/>
			</g>
			<g>
				<path d="M-61.4-41.6l-56.1-11.6c-1.3-0.3-2.1-1.5-1.8-2.8l15.2-73.5c0.3-1.3,1.5-2.1,2.8-1.8l56.1,11.6c1.3,0.3,2.1,1.5,1.8,2.8
					l-15.2,73.4c-0.1,0.6-0.5,1.1-1,1.5S-60.7-41.5-61.4-41.6z M-101.3-131.1c-1.1-0.2-2.3,0.5-2.5,1.6L-119-56
					c-0.2,1.1,0.5,2.3,1.6,2.5l56.1,11.6c0.6,0.1,1.1,0,1.6-0.3s0.8-0.8,0.9-1.3l15.2-73.4c0.2-1.1-0.5-2.3-1.6-2.5L-101.3-131.1z
					 M-61.3-42.1l-56.1-11.6c-1-0.2-1.7-1.2-1.5-2.3l15.2-73.4c0.2-1,1.2-1.7,2.3-1.5l56.1,11.6c1,0.2,1.7,1.2,1.5,2.3L-59-43.6
					C-59.2-42.5-60.2-41.8-61.3-42.1z M-101.4-130.7c-0.9-0.2-1.8,0.4-2,1.3l-15.2,73.5c-0.2,0.9,0.4,1.8,1.3,2l56.1,11.6
					c0.9,0.2,1.8-0.4,2-1.3L-44-117c0.2-0.9-0.4-1.8-1.3-2L-101.4-130.7z"/>
			</g>
		</g>
	</g>
	<g>
		<g>
			<g>
				<path class="st1" d="M-65-39.8l-56.1-11.6c-1.1-0.2-1.8-1.3-1.6-2.4l15.2-73.5c0.2-1.1,1.3-1.8,2.4-1.6l56.1,11.6
					c1.1,0.2,1.8,1.3,1.6,2.4l-15.2,73.4C-62.8-40.3-63.9-39.6-65-39.8z"/>
			</g>
			<g>
				<path d="M-65-39.7l-56.1-11.6c-1.1-0.2-1.9-1.4-1.6-2.5l15.2-73.5c0.2-1.1,1.4-1.9,2.5-1.6l56.1,11.6c1.1,0.2,1.9,1.4,1.6,2.5
					l-15.2,73.4c-0.1,0.6-0.4,1-0.9,1.4C-63.9-39.7-64.5-39.6-65-39.7z M-105.1-128.8c-1-0.2-2,0.5-2.3,1.5l-15.2,73.5
					c-0.2,1,0.5,2,1.5,2.3L-65-39.9c0.5,0.1,1,0,1.5-0.3c0.4-0.3,0.7-0.7,0.8-1.2l15.2-73.5c0.2-1-0.5-2-1.5-2.3L-105.1-128.8z"/>
			</g>
		</g>
		<g>
			<g>
				<path class="st1" d="M-65.1-39.6l-56.1-11.6c-1.2-0.2-2-1.4-1.7-2.6l15.2-73.5c0.2-1.2,1.4-2,2.6-1.7l56.1,11.6
					c1.2,0.2,2,1.4,1.7,2.6l-15.2,73.4C-62.6-40.2-63.9-39.4-65.1-39.6z M-105.1-128.7c-1-0.2-1.9,0.4-2.1,1.4l-15.2,73.4
					c-0.2,1,0.4,1.9,1.4,2.1l56.1,11.6c1,0.2,1.9-0.4,2.1-1.4l15.2-73.3c0.2-1-0.4-1.9-1.4-2.1C-49-117-105.1-128.7-105.1-128.7z"/>
			</g>
			<g>
				<path d="M-65.1-39.5l-56.1-11.6c-1.3-0.3-2.1-1.5-1.8-2.8l15.2-73.5c0.3-1.3,1.5-2.1,2.8-1.8l56.1,11.6c1.3,0.3,2.1,1.5,1.8,2.8
					l-15.2,73.4c-0.1,0.6-0.5,1.1-1,1.5C-63.8-39.5-64.5-39.4-65.1-39.5z M-105-129c-1.1-0.2-2.3,0.5-2.5,1.6l-15.2,73.5
					c-0.2,1.1,0.5,2.3,1.6,2.5L-65-39.8c0.6,0.1,1.1,0,1.6-0.3s0.8-0.8,0.9-1.3l15.2-73.4c0.2-1.1-0.5-2.3-1.6-2.5L-105-129z
					 M-65-40l-56.1-11.6c-1-0.2-1.7-1.2-1.5-2.3l15.2-73.4c0.2-1,1.2-1.7,2.3-1.5l56.1,11.6c1,0.2,1.7,1.2,1.5,2.3l-15.2,73.4
					C-62.9-40.4-64-39.8-65-40z M-105.1-128.6c-0.9-0.2-1.8,0.4-2,1.3l-15.2,73.4c-0.2,0.9,0.4,1.8,1.3,2l56.1,11.6
					c0.9,0.2,1.8-0.4,2-1.3l15.2-73.3c0.2-0.9-0.4-1.8-1.3-2L-105.1-128.6z"/>
			</g>
		</g>
	</g>
	<g>
		<g>
			<g>
				<path class="st2" d="M-67.6-38.1l-56.1-11.6c-1.1-0.2-1.8-1.3-1.6-2.4l15.2-73.5c0.2-1.1,1.3-1.8,2.4-1.6l56.1,11.6
					c1.1,0.2,1.8,1.3,1.6,2.4l-15.2,73.5C-65.4-38.6-66.5-37.9-67.6-38.1z"/>
				<path d="M-67.6-37.9l-56.1-11.6c-1.2-0.3-2-1.5-1.8-2.7l15.3-73.5c0.3-1.2,1.5-2,2.7-1.8l56.1,11.6c1.2,0.3,2,1.5,1.8,2.7
					l-15.2,73.4c-0.1,0.6-0.4,1.1-1,1.4C-66.4-37.9-67-37.8-67.6-37.9z M-107.7-126.9c-0.9-0.2-1.9,0.4-2.1,1.4L-125-52
					c-0.2,0.9,0.4,1.9,1.4,2.1l56.1,11.6c0.5,0.1,1,0,1.4-0.3s0.7-0.7,0.7-1.1l15.2-73.5c0.2-0.9-0.4-1.9-1.4-2.1L-107.7-126.9z"/>
			</g>
		</g>
		<g>
			<g>
				<path d="M-67.6-37.9l-56.1-11.6c-1.2-0.2-2-1.4-1.7-2.6l15.2-73.6c0.2-1.2,1.4-2,2.6-1.7l56.1,11.6c1.2,0.2,2,1.4,1.7,2.6
					L-65-39.8C-65.2-38.5-66.4-37.7-67.6-37.9z M-107.7-127c-1-0.2-1.9,0.4-2.1,1.4L-125-52.2c-0.2,1,0.4,1.9,1.4,2.1l56.1,11.6
					c1,0.2,1.9-0.4,2.1-1.4l15.2-73.3c0.2-1-0.4-1.9-1.4-2.1C-51.6-115.4-107.7-127-107.7-127z"/>
				<path d="M-67.7-37.7l-56.1-11.6c-1.3-0.3-2.2-1.6-1.9-2.9l15.2-73.5c0.3-1.3,1.6-2.2,2.9-1.9l56.1,11.6c1.3,0.3,2.2,1.6,1.9,2.9
					l-15.2,73.4c-0.1,0.6-0.5,1.2-1,1.6C-66.4-37.7-67-37.6-67.7-37.7z M-107.7-126.7c-0.8-0.2-1.7,0.4-1.8,1.2l-15.2,73.4
					c-0.2,0.8,0.4,1.7,1.2,1.8l56.1,11.6c0.8,0.2,1.7-0.4,1.8-1.2l15.2-73.4c0.2-0.8-0.4-1.7-1.2-1.8L-107.7-126.7z"/>
			</g>
		</g>
	</g>
	<g>
		<g>
			<g>
				<path class="st2" d="M-69.1-41.5L-121-52.3c-1-0.2-1.7-1.2-1.5-2.2l14.1-68c0.2-1,1.2-1.7,2.2-1.5l52,10.9
					c1,0.2,1.7,1.2,1.5,2.2l-14.1,68C-67.1-41.9-68.1-41.3-69.1-41.5z"/>
			</g>
		</g>
		<g>
			<g>
				<path d="M-69.1-41.3L-121-52.1c-1.1-0.2-1.8-1.3-1.6-2.5l14.1-68c0.2-1.1,1.3-1.8,2.5-1.6l51.8,10.9c1.1,0.2,1.8,1.3,1.6,2.5
					l-14.1,68C-66.9-41.8-68-41.1-69.1-41.3z M-106.1-123.7c-0.9-0.2-1.8,0.4-2,1.3l-14.1,68c-0.2,0.9,0.4,1.8,1.3,2L-69-41.6
					c0.9,0.2,1.8-0.4,2-1.3l14.1-68c0.2-0.9-0.4-1.8-1.3-2C-54.3-112.9-106.1-123.7-106.1-123.7z"/>
			</g>
		</g>
	</g>
	<g>
		<g>
			<g>
				<g>
					<g>
						<g>
							<g>
								<g>
									<g>
										<path class="st3" d="M-86.2-90.6c0,0-7.2,0-10,8.2c-0.1,0.3-0.2,0.5-0.4,0.6c-1,0.8-2.1,4.2,2.4,6
											c0.2,0.1,1.5,0.5,1.7,0.5c0.3,0,0.7-0.1,0.8-0.6C-91.9-75.9-90.9-91.6-86.2-90.6z"/>
									</g>
								</g>
							</g>
						</g>
						<g>
							<g>
								<g>
									<g>
										<path d="M-92.7-75.3c-0.4-0.1-1.5-0.4-1.6-0.5c-2.4-0.9-3.1-2.3-3.2-3.3c-0.1-0.7,0-1.3,0.2-1.7c0.2-0.5,0.4-0.8,0.7-1.1
											c0.2-0.2,0.4-0.4,0.4-0.6c0.6-1.9,1.6-3.5,2.8-4.8c1-1,2.1-1.8,3.3-2.4c1.1-0.5,2.1-0.8,2.8-0.9c0.4-0.2,0.8-0.2,1.2-0.1
											l0,0l0.4,0.1h-0.4c0,0-0.5,0-1.2,0.1c-0.1,0.1-0.3,0.2-0.4,0.3c-0.7,0.5-1.4,1.6-1.9,3.1c-0.5,1.2-0.9,2.8-1.2,4.6
											c-0.5,2.8-0.8,5.6-0.9,6.6v0.1l0,0C-91.9-75.5-92.2-75.3-92.7-75.3L-92.7-75.3z M-87.7-90.4c-0.6,0.1-1.5,0.4-2.5,0.8
											c-1.2,0.6-2.4,1.4-3.3,2.4c-1.2,1.3-2.1,2.9-2.7,4.7c-0.1,0.3-0.3,0.5-0.5,0.7c-0.3,0.2-0.5,0.6-0.7,1
											c-0.1,0.4-0.3,0.9-0.2,1.6c0.2,1,0.8,2.3,3.2,3.2c0.2,0.1,1.5,0.5,1.7,0.5c0.4,0,0.7-0.2,0.7-0.5c0,0,0,0,0-0.1
											c0.1-2,1-12.1,4-14.3C-87.8-90.3-87.8-90.4-87.7-90.4z"/>
									</g>
								</g>
							</g>
						</g>
					</g>
				</g>
			</g>
		</g>
		<g>
			<g>
				<g>
					<g>
						<g>
							<g>
								<g>
									<g>
										<path class="st4" d="M-82.7-79.1c-1.4,4.3-4.5,5.2-7.7,4.1s-5.3-3.5-3.9-7.8c1.4-4.3,5.1-7,8.3-5.9
											C-82.9-87.7-81.4-83.4-82.7-79.1z"/>
									</g>
								</g>
							</g>
						</g>
					</g>
				</g>
			</g>
			<g>
				<g>
					<g>
						<g>
							<g>
								<g>
									<g>
										<path d="M-89.6-74.7c-0.3-0.1-0.6-0.1-0.9-0.2c-1.7-0.5-3-1.5-3.7-2.7c-0.8-1.4-0.9-3.2-0.2-5.2c1.4-4.3,5.1-7,8.4-6
											c1.6,0.5,2.8,1.8,3.4,3.6c0.6,1.8,0.6,4,0,6.1c-0.6,2-1.7,3.4-3.2,4.1C-86.9-74.5-88.2-74.4-89.6-74.7z M-86.6-88.8
											c-3.1-0.6-6.5,2-7.8,6c-0.6,2-0.6,3.7,0.2,5.1c0.7,1.2,2,2.1,3.6,2.7c1.7,0.5,3.3,0.5,4.5-0.1c1.4-0.7,2.5-2,3.1-4
											c0.7-2.1,0.7-4.2,0-6c-0.6-1.8-1.8-3.1-3.4-3.6C-86.3-88.7-86.4-88.8-86.6-88.8z"/>
									</g>
								</g>
							</g>
						</g>
					</g>
				</g>
			</g>
		</g>
		<g>
			<g>
				<g>
					<g>
						<g>
							<g>
								<g>
									<g>
										<g>
											<ellipse transform="matrix(0.1985 -0.9801 0.9801 0.1985 9.7392 -155.863)" cx="-90.4" cy="-83.9" rx="0.6" ry="0.6"/>
										</g>
									</g>
								</g>
							</g>
						</g>
					</g>
				</g>
			</g>
			<g>
				<g>
					<g>
						<g>
							<g>
								<g>
									<g>
										<g>
											<path d="M-90.6-84L-90.6-84c-0.6-0.1-0.6-0.9-0.6-0.9s0-0.1,0.1-0.1c0,0,0.1,0,0.1,0.1c0,0,0.1,0.7,0.5,0.7
												C-90.6-84.2-90.6-84.1-90.6-84L-90.6-84z"/>
										</g>
									</g>
								</g>
							</g>
						</g>
					</g>
				</g>
			</g>
		</g>
		<g>
			<g>
				<g>
					<g>
						<g>
							<g>
								<g>
									<g>
										<g>
											<ellipse transform="matrix(0.1985 -0.9801 0.9801 0.1985 11.7901 -151.631)" cx="-86.8" cy="-83" rx="0.6" ry="0.6"/>
										</g>
									</g>
								</g>
							</g>
						</g>
					</g>
				</g>
			</g>
			<g>
				<g>
					<g>
						<g>
							<g>
								<g>
									<g>
										<g>
											<path d="M-87-83.2L-87-83.2c-0.5-0.1-0.6-0.8-0.6-0.9c0,0,0-0.1,0.1-0.1c0,0,0.1,0,0.1,0.1c0,0,0.1,0.7,0.5,0.7
												C-87-83.3-87-83.3-87-83.2L-87-83.2z"/>
										</g>
									</g>
								</g>
							</g>
						</g>
					</g>
				</g>
			</g>
		</g>
		<g>
			<g>
				<g>
					<g>
						<g>
							<g>
								<g>
									<g>
										<path class="st2" d="M-92-85.7c-0.2,0.4,0,0.6-0.2,0.7c-0.1,0.1-0.4-0.4-0.3-0.8c0.2-0.4,0.7-0.7,0.9-0.6
											C-91.4-86.3-91.8-86.1-92-85.7z"/>
									</g>
								</g>
							</g>
						</g>
					</g>
				</g>
			</g>
		</g>
		<g class="st5">
			<g>
				<g>
					<g>
						<g>
							<path class="st6" d="M-82.5-83.6c0,0,0.4,7.2-5.9,8.8c0,0,4.3,0.2,5.6-3.2C-81.5-81.2-81.4-82.3-82.5-83.6z"/>
						</g>
					</g>
				</g>
			</g>
		</g>
		<g>
			<g>
				<g>
					<g>
						<g>
							<g>
								<g>
									<g>
										<g>
											<path class="st4" d="M-89.5-83.1c0,0-0.4,1.5-1,1c-0.7-0.6-0.5,0.8,0.2,1.1"/>
										</g>
									</g>
								</g>
							</g>
						</g>
					</g>
				</g>
				<g>
					<g>
						<g>
							<g>
								<g>
									<g>
										<g>
											<path d="M-90.3-81L-90.3-81c-0.4-0.2-0.6-0.8-0.6-1.1c0-0.2,0.1-0.2,0.1-0.3c0.1,0,0.2,0,0.4,0.2
												c0.1,0.1,0.2,0.1,0.3,0.1c0.3-0.1,0.5-0.8,0.6-1c0,0,0-0.1,0.1,0c0,0,0.1,0,0,0.1c0,0.1-0.3,1-0.7,1.1
												c-0.1,0-0.3,0-0.4-0.1c-0.1-0.1-0.2-0.2-0.3-0.1v0.1C-90.8-81.7-90.6-81.2-90.3-81C-90.2-81.1-90.2-81.1-90.3-81
												C-90.2-81-90.3-81-90.3-81z"/>
										</g>
									</g>
								</g>
							</g>
						</g>
					</g>
				</g>
			</g>
			<g class="st7">
				<g>
					<g>
						<g>
							<g>
								<g>
									<g>
										<g>
											<path class="st8" d="M-90.5-81.8c0.1,0.2,0.1,0.1,0.1,0.2s-0.2,0-0.3-0.1c-0.1-0.2,0-0.4,0.1-0.4
												C-90.5-82.1-90.6-81.9-90.5-81.8z"/>
										</g>
									</g>
								</g>
							</g>
						</g>
					</g>
				</g>
			</g>
		</g>
		<g>
			<g>
				<g>
					<g>
						<g>
							<g>
								<g>
									<g>
										<circle class="st9" cx="-89.8" cy="-81.6" r="0.1"/>
									</g>
								</g>
							</g>
						</g>
					</g>
				</g>
			</g>
		</g>
		<g>
			<g>
				<g>
					<g>
						<g>
							<g>
								<g>
									<g>
										
											<ellipse transform="matrix(0.1985 -0.9801 0.9801 0.1985 7.1674 -157.3786)" class="st10" cx="-92.6" cy="-83.1" rx="0.6" ry="1.1"/>
									</g>
								</g>
							</g>
						</g>
					</g>
				</g>
			</g>
		</g>
		<g>
			<g>
				<g>
					<g>
						<g>
							<g>
								<g>
									<g>
										
											<ellipse transform="matrix(0.1985 -0.9801 0.9801 0.1985 11.6192 -149.1616)" class="st10" cx="-85.4" cy="-81.7" rx="0.6" ry="1.1"/>
									</g>
								</g>
							</g>
						</g>
					</g>
				</g>
			</g>
		</g>
		<g>
			<g>
				<g>
					<g>
						<g>
							<g>
								<g>
									<g>
										<path class="st3" d="M-87-91.4L-87-91.4c1-0.4,2.6,0.5,2.6,0.5l0,0c6.6,2,5.7,9.2,5.7,9.2c-0.1,1.7-1,7.5-2.1,8.5
											c-1.4,1.3-6.3-0.1-5.5-2.7c0.8-2.7,2.5-0.3,3.5-4.1c1-3.8-2.3-4.7-2.3-4.7c-2.6-0.8-2.2-2.3-2.2-2.4l0,0
											c-1.3,0.6-0.7,1.4-0.7,1.5l0,0c-1.6-0.5-0.3-1.8-0.2-1.9l0,0c-1.6,0.6-0.6,1.6-0.5,1.7l0,0c-2.1-0.7-0.8-2.6,0.3-4
											c-1.2,0.4-3.1,0.8-3.7,2.1c-0.6,1.4-1.7,1.7-2.2,1.8c-0.1,0-0.2-0.1-0.2-0.2C-94.5-86.2-92.6-92.5-87-91.4z"/>
									</g>
								</g>
							</g>
						</g>
						<g>
							<g>
								<g>
									<g>
										<path d="M-83.4-72.7c-0.6-0.1-1.2-0.4-1.7-0.7c-0.5-0.3-0.8-0.7-1-1.1s-0.3-0.9-0.1-1.4c0.4-1.2,0.9-1.4,1.5-1.6
											c0.7-0.2,1.4-0.5,2-2.5c0.3-1.2,0.2-2.2-0.2-3.1c-0.7-1.2-2-1.6-2-1.6l0,0c-0.6-0.2-1.1-0.4-1.4-0.7
											c-0.3-0.2-0.5-0.5-0.7-0.8c-0.2-0.4-0.2-0.7-0.2-0.9c-0.4,0.2-0.7,0.5-0.7,0.8c-0.1,0.3,0.1,0.6,0.1,0.6l0.1,0.1h-0.1
											c-0.5-0.1-0.7-0.4-0.8-0.7c-0.1-0.4,0.2-0.9,0.4-1.2c-0.4,0.2-0.6,0.4-0.7,0.7c-0.1,0.4,0.3,0.8,0.3,0.8l0,0v0.1l0,0
											c-0.6-0.2-1-0.5-1.1-0.9s0-0.9,0.3-1.5c0.2-0.4,0.6-0.9,1-1.5h-0.1c-0.6,0.2-1.3,0.4-2,0.7c-0.7,0.4-1.2,0.8-1.4,1.3
											c-0.6,1.4-1.7,1.7-2.3,1.8c-0.1,0-0.2,0-0.2-0.1s-0.1-0.1,0-0.2c0-0.2,1.9-6.3,7.5-5.3c0.4-0.2,0.9-0.1,1.6,0.1
											c0.2,0.1,0.6,0.2,1,0.5l0,0c1.5,0.5,2.7,1.2,3.7,2.3c0.8,0.9,1.3,1.9,1.7,3.1c0.6,2,0.4,3.8,0.4,3.9
											c0,0.8-0.3,2.7-0.6,4.5c-0.6,2.8-1.1,3.7-1.4,4c-0.4,0.4-1.2,0.6-2,0.5C-83-72.6-83.2-72.6-83.4-72.7z M-85-84.7
											c0,0,0.4,0.1,0.8,0.3c0.4,0.2,0.9,0.6,1.3,1.3c0.5,0.8,0.6,1.9,0.3,3.1c-0.2,0.9-0.6,1.6-1,2c-0.3,0.4-0.7,0.5-1.1,0.6
											c-0.6,0.2-1.1,0.4-1.5,1.5c-0.2,0.5-0.3,1.5,1.1,2.4c0.7,0.4,1.5,0.7,2.3,0.8c0.9,0.1,1.6-0.1,2-0.5
											c0.6-0.6,1.2-2.7,1.4-4c0.4-1.8,0.6-3.7,0.6-4.5l0,0c0,0,0.2-1.8-0.4-3.8c-0.4-1.2-0.9-2.2-1.7-3.1
											c-0.9-1.1-2.2-1.8-3.6-2.3l0,0c-0.4-0.2-0.8-0.4-1-0.5c-0.6-0.2-1.1-0.2-1.5-0.1l0,0l0,0c-1.3-0.2-2.4-0.1-3.5,0.3
											c-0.8,0.4-1.6,1-2.3,1.8c-1.1,1.4-1.6,2.9-1.6,3l0,0l0,0v0.1c0,0,0.1,0.1,0.1,0c0.6-0.1,1.6-0.4,2.2-1.7
											c0.2-0.5,0.7-1,1.5-1.3c0.6-0.3,1.4-0.5,2-0.7c0.1,0,0.1,0,0.2-0.1h0.1l-0.1,0.1c-1.4,1.6-1.5,2.5-1.4,3
											c0.1,0.4,0.4,0.7,0.9,0.8c-0.1-0.2-0.3-0.5-0.3-0.8c0.1-0.3,0.4-0.6,0.9-0.8l0.2-0.1l-0.1,0.1c-0.2,0.2-0.7,0.7-0.5,1.2
											c0.1,0.2,0.3,0.4,0.6,0.6c-0.1-0.1-0.1-0.3-0.1-0.6c0.1-0.3,0.4-0.6,0.9-0.9h0.1v0.1c0,0.1-0.1,0.5,0.1,0.9
											c0.1,0.3,0.3,0.5,0.6,0.7C-86.1-85.1-85.6-84.9-85-84.7z"/>
									</g>
								</g>
							</g>
						</g>
					</g>
				</g>
			</g>
		</g>
		<g>
			<g>
				<g>
					<g>
						<g>
							<path class="st4" d="M-91.8-80c0,0,2.4,1.1,4.1,0.5"/>
						</g>
					</g>
				</g>
			</g>
			<g>
				<g>
					<g>
						<g>
							<path d="M-90.2-79.4c-0.1,0-0.2,0-0.3-0.1c-0.8-0.2-1.4-0.5-1.4-0.5v-0.1h0.1c0,0,0.6,0.3,1.4,0.5c0.7,0.2,1.8,0.3,2.7,0h0.1
								v0.1C-88.5-79.2-89.5-79.2-90.2-79.4z"/>
						</g>
					</g>
				</g>
			</g>
		</g>
		<g>
			<g>
				<g>
					<g>
						<g>
							<path class="st4" d="M-89.9-78.7c0,0,0.3,0.1,0.5,0"/>
						</g>
					</g>
				</g>
			</g>
			<g>
				<g>
					<g>
						<g>
							<path d="M-89.8-78.6C-89.9-78.6-89.9-78.6-89.8-78.6C-89.9-78.6-89.9-78.7-89.8-78.6C-89.9-78.7-89.9-78.7-89.8-78.6
								L-89.8-78.6c0-0.1,0.3,0,0.5-0.1h0.1v0.1C-89.5-78.6-89.7-78.6-89.8-78.6z"/>
						</g>
					</g>
				</g>
			</g>
		</g>
		<g>
			<g>
				<g>
					<g>
						<g>
							<path class="st3" d="M-94.5-85.8c0.1-0.3,0.4-1,0.5-1.1c0.1-0.2,0.1,0.2,0.2,0.1c0.2-0.2,4.1-3.3,4.9-3.3
								c0.7,0.1,1,0,0.8,0.2c-0.2,0.1,1.2,0.9,0.8,0.8c-0.4,0-0.6,0.9-1.7,0.5c-0.4-0.2-3,1.1-3.3,1.7s-2.3,3.4-2.3,2.7
								C-94.6-84.9-94.6-85.6-94.5-85.8z"/>
						</g>
					</g>
				</g>
			</g>
		</g>
	</g>
	<g>
		<g>
			<g>
				<path d="M-104.6-116.4c0.6,0.1,0.9,0,1-0.4c0.1-0.3-0.1-0.6-0.4-0.7c-0.2-0.1-0.4-0.1-0.6-0.2c-0.4-0.1-0.6-0.3-0.8-0.6
					c-0.2-0.3-0.2-0.6-0.1-0.9c0.1-0.4,0.3-0.7,0.6-0.8c0.3-0.2,0.7-0.2,1.1-0.1c0.5,0.1,1,0.4,1.3,0.7l-0.5,0.5
					c-0.3-0.3-0.6-0.5-1-0.6c-0.2,0-0.4,0-0.5,0c-0.2,0.1-0.3,0.2-0.3,0.4c0,0.1,0,0.2,0.1,0.4c0.1,0.1,0.2,0.2,0.4,0.3
					c0.1,0,0.3,0.1,0.5,0.2c0.4,0.1,0.7,0.3,0.8,0.6c0.1,0.3,0.2,0.6,0.1,0.9c-0.2,0.8-0.8,1.1-1.8,0.9c-0.6-0.1-1.2-0.4-1.5-0.9
					l0.5-0.4C-105.5-116.7-105.1-116.5-104.6-116.4z"/>
			</g>
		</g>
	</g>
	<g>
		<g>
			<g>
				<path d="M-70.6-48.9c-0.6-0.1-0.9,0-1,0.4c-0.1,0.3,0.1,0.6,0.4,0.7c0.2,0.1,0.4,0.1,0.6,0.2c0.4,0.1,0.6,0.3,0.8,0.6
					c0.2,0.3,0.2,0.6,0.1,0.9c-0.1,0.4-0.3,0.7-0.6,0.8c-0.3,0.2-0.7,0.2-1.1,0.1c-0.5-0.1-1-0.4-1.3-0.7l0.5-0.5
					c0.3,0.3,0.6,0.5,1,0.6c0.2,0,0.4,0,0.5,0c0.2-0.1,0.3-0.2,0.3-0.4c0-0.1,0-0.2-0.1-0.4c-0.1-0.1-0.2-0.2-0.4-0.3
					c-0.1,0-0.3-0.1-0.5-0.2c-0.4-0.1-0.7-0.3-0.8-0.6c-0.1-0.3-0.2-0.6-0.1-0.9c0.2-0.8,0.8-1.1,1.8-0.9c0.6,0.1,1.2,0.4,1.5,0.9
					l-0.5,0.4C-69.7-48.6-70.1-48.8-70.6-48.9z"/>
			</g>
		</g>
	</g>
	<g>
		<g>
			<g>
				<path d="M-105.8-111c0-0.2,0-0.4-0.2-0.4c-0.1,0-0.2,0-0.3,0.2c0,0.1-0.1,0.1-0.1,0.2c-0.1,0.1-0.1,0.2-0.2,0.3
					c-0.1,0.1-0.2,0.1-0.3,0.1c-0.2,0-0.3-0.1-0.3-0.2c-0.1-0.1-0.1-0.3-0.1-0.4c0-0.2,0.1-0.4,0.3-0.5l0.2,0.2
					c-0.1,0.1-0.2,0.2-0.2,0.4c0,0.1,0,0.2,0,0.2c0,0.1,0.1,0.1,0.2,0.1c0.1,0,0.1,0,0.1,0s0.1-0.1,0.1-0.2c0,0,0-0.1,0.1-0.2
					c0.1-0.2,0.1-0.3,0.3-0.3c0.1-0.1,0.2-0.1,0.3,0c0.3,0.1,0.5,0.3,0.4,0.7c-0.1,0.3-0.2,0.5-0.4,0.6l-0.2-0.2
					C-105.9-110.6-105.8-110.8-105.8-111z"/>
			</g>
		</g>
		<g>
			<g>
				<path d="M-107.1-112.2l0.1-0.2l1.1,0.2l0,0l-0.5-0.6l0.1-0.3l0.4,0.5l0.9-0.3l-0.1,0.3l-0.6,0.2l0.2,0.2l0.4,0.1l-0.1,0.2
					L-107.1-112.2z"/>
			</g>
		</g>
		<g>
			<g>
				<path d="M-106.8-113.4l0.1-0.2l0.2,0.1l-0.1,0.2L-106.8-113.4z M-106.3-113.3l0.1-0.2l1.2,0.3l-0.1,0.2L-106.3-113.3z"/>
			</g>
		</g>
		<g>
			<g>
				<path d="M-106.7-114l0.1-0.2l1.4,0.3c0.1,0,0.1,0,0.1-0.1v-0.1h0.2v0.1c0,0.1-0.1,0.2-0.1,0.2c-0.1,0.1-0.1,0.1-0.3,0
					L-106.7-114z"/>
			</g>
		</g>
		<g>
			<g>
				<path d="M-106.6-114.6l0.1-0.2l1.4,0.3c0.1,0,0.1,0,0.1-0.1v-0.1h0.2v0.1c0,0.1-0.1,0.2-0.1,0.2c-0.1,0.1-0.1,0.1-0.3,0
					L-106.6-114.6z"/>
			</g>
		</g>
	</g>
	<g>
		<g>
			<g>
				<path d="M-69.4-54.3c0,0.2,0,0.4,0.2,0.4c0.1,0,0.2,0,0.3-0.2c0-0.1,0.1-0.1,0.1-0.2c0.1-0.1,0.1-0.2,0.2-0.3
					c0.1-0.1,0.2-0.1,0.3-0.1c0.2,0,0.3,0.1,0.3,0.2c0.1,0.1,0.1,0.3,0.1,0.4c0,0.2-0.1,0.4-0.3,0.5l-0.2-0.2
					c0.1-0.1,0.2-0.2,0.2-0.4c0-0.1,0-0.2,0-0.2c0-0.1-0.1-0.1-0.2-0.1c-0.1,0-0.1,0-0.1,0s-0.1,0.1-0.1,0.2c0,0,0,0.1-0.1,0.2
					c-0.1,0.2-0.1,0.3-0.3,0.3c-0.1,0.1-0.2,0.1-0.3,0c-0.3-0.1-0.5-0.3-0.4-0.7c0.1-0.3,0.2-0.5,0.4-0.6l0.2,0.2
					C-69.3-54.7-69.4-54.5-69.4-54.3z"/>
			</g>
		</g>
		<g>
			<g>
				<path d="M-68.1-53.2l-0.1,0.2l-1.1-0.2l0,0l0.5,0.6l-0.1,0.3l-0.4-0.5l-0.9,0.3l0.1-0.3l0.6-0.2l-0.2-0.2l-0.4-0.1l0.1-0.2
					L-68.1-53.2z"/>
			</g>
		</g>
		<g>
			<g>
				<path d="M-68.4-51.9l-0.1,0.2l-0.2-0.1l0.1-0.2L-68.4-51.9z M-68.9-52l-0.1,0.2l-1.2-0.3l0.1-0.2L-68.9-52z"/>
			</g>
		</g>
		<g>
			<g>
				<path d="M-68.5-51.3l-0.1,0.2l-1.4-0.3c-0.1,0-0.1,0-0.1,0.1v0.1h-0.2v-0.1c0-0.1,0.1-0.2,0.1-0.2c0.1-0.1,0.1-0.1,0.3,0
					L-68.5-51.3z"/>
			</g>
		</g>
		<g>
			<g>
				<path d="M-68.6-50.7l-0.1,0.2l-1.4-0.3c-0.1,0-0.1,0-0.1,0.1v0.1h-0.2v-0.1c0-0.1,0.1-0.2,0.1-0.2c0.1-0.1,0.1-0.1,0.3,0
					L-68.6-50.7z"/>
			</g>
		</g>
	</g>
</g>
</svg>
