<?xml version="1.0" encoding="utf-8"?>
<!-- Generator: Adobe Illustrator 22.0.1, SVG Export Plug-In . SVG Version: 6.00 Build 0)  -->
<svg version="1.1" id="Layer_1" xmlns="http://www.w3.org/2000/svg" xmlns:xlink="http://www.w3.org/1999/xlink" x="0px" y="0px"
	 viewBox="0 0 150 150" style="enable-background:new 0 0 150 150;" xml:space="preserve">
<style type="text/css">
	.st0{fill:#71C5F6;}
	.st1{fill:#FF8095;}
	.st2{fill:#D87261;}
	.st3{fill:#F2D373;}
	.st4{fill:#AE5E4F;}
	.st5{fill:#4DAC78;}
	.st6{fill:#418D5F;}
	.st7{fill:#D1B669;}
	.st8{fill:#FFFFFF;}
</style>
<g>
	<g>
		<circle class="st0" cx="75" cy="75" r="39.1"/>
		<path d="M75,115.6c-22.4,0-40.6-18.2-40.6-40.6S52.6,34.4,75,34.4s40.6,18.2,40.6,40.6S97.3,115.6,75,115.6z M75,37.4
			c-20.7,0-37.6,16.9-37.6,37.6s16.9,37.6,37.6,37.6s37.6-16.9,37.6-37.6S95.7,37.4,75,37.4z"/>
	</g>
	<g>
		<polygon class="st1" points="58.6,83.8 60.2,86.7 86.3,84.9 89.7,78.6 74.1,56.2 70.4,56.2 		"/>
		<path d="M59.7,87.7l-2.2-3.8l12.3-28.7h4.9l16.2,23.3L87,85.9L59.7,87.7z M59.7,83.8l1.1,1.9L85.7,84l2.8-5.3L73.6,57.2H71
			L59.7,83.8z"/>
	</g>
	<g>
		<path class="st2" d="M70.4,56.2h3.8l-0.7-1h34.7c-6.7-11.3-19.1-18.8-33.1-18.8C61,36.4,48.7,43.9,42,55.2l16.7,28.7L70.4,56.2z"
			/>
	</g>
	<g>
		<path class="st3" d="M89.7,78.6l-3.3,6.3l3.3-0.2l-16.3,28.9c0.5,0,1,0,1.5,0c21.3,0,38.6-17.3,38.6-38.6c0-6.8-1.8-13.2-4.9-18.8
			H74.1L89.7,78.6z"/>
	</g>
	<g>
		<path class="st4" d="M73.4,55.2l0.7,1h34.5c-0.2-0.3-0.4-0.7-0.6-1H73.4z"/>
	</g>
	<g>
		<path class="st5" d="M60.2,86.7l-1.7-2.9l-0.4,0.8l-17-28.3C38,61.8,36.3,68.2,36.3,75c0,20.1,15.3,36.6,34.9,38.4l15.1-28.5
			L60.2,86.7z"/>
	</g>
	<g>
		<path class="st6" d="M58.6,83.8L41.9,55.1c-0.2,0.4-0.4,0.8-0.7,1.1l17,28.3L58.6,83.8z"/>
	</g>
	<g>
		<path class="st7" d="M86.3,84.9l-15.1,28.5c0.7,0.1,1.4,0.1,2.1,0.1l16.3-28.9L86.3,84.9z"/>
	</g>
	<g>
		<circle class="st0" cx="75" cy="75" r="19.8"/>
		<path class="st8" d="M75,96.8C63,96.8,53.2,87,53.2,75S63,53.2,75,53.2S96.8,63,96.8,75S87,96.8,75,96.8z M75,57.2
			c-9.8,0-17.8,8-17.8,17.8s8,17.8,17.8,17.8s17.8-8,17.8-17.8S84.8,57.2,75,57.2z"/>
	</g>
</g>
<rect x="-148" y="10" class="st8" width="130" height="130"/>
<g>
	<g>
		<circle class="st0" cx="-83" cy="75" r="39.1"/>
		<path d="M-83,115.6c-22.4,0-40.6-18.2-40.6-40.6s18.2-40.6,40.6-40.6S-42.4,52.6-42.4,75S-60.7,115.6-83,115.6z M-83,37.4
			c-20.7,0-37.6,16.9-37.6,37.6s16.9,37.6,37.6,37.6S-45.4,95.7-45.4,75S-62.3,37.4-83,37.4z"/>
	</g>
	<g>
		<polygon class="st1" points="-99.4,83.8 -97.8,86.7 -71.7,84.9 -68.3,78.6 -83.9,56.2 -87.6,56.2 		"/>
		<path d="M-98.3,87.7l-2.2-3.8l12.3-28.7h4.9l16.2,23.3l-3.9,7.4L-98.3,87.7z M-98.3,83.8l1.1,1.9l24.9-1.7l2.8-5.3l-14.9-21.5H-87
			L-98.3,83.8z"/>
	</g>
	<g>
		<path class="st2" d="M-87.6,56.2h3.8l-0.7-1h34.7c-6.7-11.3-19.1-18.8-33.1-18.8c-14.1,0-26.4,7.5-33.1,18.8l16.7,28.7L-87.6,56.2
			z"/>
	</g>
	<g>
		<path class="st3" d="M-68.3,78.6l-3.3,6.3l3.3-0.2l-16.3,28.9c0.5,0,1,0,1.5,0c21.3,0,38.6-17.3,38.6-38.6
			c0-6.8-1.8-13.2-4.9-18.8h-34.5L-68.3,78.6z"/>
	</g>
	<g>
		<path class="st4" d="M-84.6,55.2l0.7,1h34.5c-0.2-0.3-0.4-0.7-0.6-1H-84.6z"/>
	</g>
	<g>
		<path class="st5" d="M-97.8,86.7l-1.7-2.9l-0.4,0.8l-17-28.3c-3.1,5.5-4.8,11.9-4.8,18.7c0,20.1,15.3,36.6,34.9,38.4l15.1-28.5
			L-97.8,86.7z"/>
	</g>
	<g>
		<path class="st6" d="M-99.4,83.8l-16.7-28.7c-0.2,0.4-0.4,0.8-0.7,1.1l17,28.3L-99.4,83.8z"/>
	</g>
	<g>
		<path class="st7" d="M-71.7,84.9l-15.1,28.5c0.7,0.1,1.4,0.1,2.1,0.1l16.3-28.9L-71.7,84.9z"/>
	</g>
	<g>
		<circle class="st0" cx="-83" cy="75" r="19.8"/>
		<path class="st8" d="M-83,96.8c-12,0-21.8-9.8-21.8-21.8S-95,53.2-83,53.2S-61.2,63-61.2,75S-71,96.8-83,96.8z M-83,57.2
			c-9.8,0-17.8,8-17.8,17.8s8,17.8,17.8,17.8s17.8-8,17.8-17.8S-73.2,57.2-83,57.2z"/>
	</g>
</g>
</svg>
