<?xml version="1.0" encoding="utf-8"?>
<!-- Generator: Adobe Illustrator 22.0.1, SVG Export Plug-In . SVG Version: 6.00 Build 0)  -->
<svg version="1.1" id="Layer_1" xmlns="http://www.w3.org/2000/svg" xmlns:xlink="http://www.w3.org/1999/xlink" x="0px" y="0px"
	 viewBox="0 0 94.8 24" style="enable-background:new 0 0 94.8 24;" xml:space="preserve">
<g>
	<path d="M45.4,16.4c0-2.1,0.9-3.7,2.5-4.8c-0.6-0.6-1.1-1.2-1.5-1.9C46,9,45.8,8.2,45.8,7.3c0-1.8,0.6-3.2,1.8-4.4
		c1.1-1.2,2.5-1.7,4.3-1.8c1.8,0,3.2,0.6,4.4,1.8C57.4,4.1,58,5.5,58,7.3c0,0.9-0.2,1.7-0.6,2.4c-0.4,0.7-0.9,1.4-1.6,1.9
		c1.7,1.1,2.5,2.7,2.5,4.8c0,1.9-0.6,3.5-1.9,4.6c-1.3,1.2-2.8,1.8-4.6,1.8c-1.8,0-3.3-0.6-4.6-1.8C46,19.9,45.4,18.3,45.4,16.4z
		 M48.4,16.4c0,1,0.4,1.8,1.1,2.4c0.7,0.7,1.5,1,2.4,1c1,0,1.8-0.3,2.4-1c0.7-0.6,1-1.4,1-2.4c0-1-0.4-1.8-1-2.4
		c-0.7-0.6-1.5-0.9-2.4-1c-0.9,0-1.7,0.3-2.4,1C48.8,14.6,48.4,15.4,48.4,16.4z M48.8,7.2c0,1,0.3,1.7,1,2.3
		c0.6,0.5,1.3,0.8,2.1,0.8c0.8,0,1.5-0.3,2.1-0.8c0.6-0.5,0.9-1.3,0.9-2.3c0-1-0.3-1.8-0.9-2.3c-0.6-0.5-1.3-0.7-2.1-0.7
		c-0.8,0-1.5,0.2-2.1,0.7C49.2,5.5,48.8,6.2,48.8,7.2z"/>
	<path d="M61.1,12.8h3.1v3.1h-3.1V12.8z M61.1,19.6h3.1v3.1h-3.1V19.6z"/>
	<path d="M67.4,7.3c0-2,0.6-3.5,1.9-4.6c1.2-1.1,2.5-1.6,4.2-1.6c1.7,0,3.1,0.5,4.2,1.6c1.2,1.1,1.8,2.6,1.8,4.6v9.4
		c0,2-0.6,3.5-1.8,4.5c-1.2,1.1-2.6,1.6-4.2,1.6c-1.6,0-3-0.6-4.2-1.6c-1.2-1.1-1.9-2.6-1.9-4.5V7.3z M76.5,7.5
		c-0.1-2.1-1.1-3.2-3-3.3c-2,0-2.9,1.1-3,3.3v9.1c0,2.2,1,3.2,3,3.3c1.9,0,2.9-1.1,3-3.3V7.5z"/>
	<path d="M81.8,7.3c0-2,0.6-3.5,1.9-4.6c1.2-1.1,2.5-1.6,4.2-1.6c1.7,0,3.1,0.5,4.2,1.6c1.2,1.1,1.8,2.6,1.8,4.6v9.4
		c0,2-0.6,3.5-1.8,4.5c-1.2,1.1-2.6,1.6-4.2,1.6c-1.6,0-3-0.6-4.2-1.6c-1.2-1.1-1.9-2.6-1.9-4.5V7.3z M90.9,7.5
		c-0.1-2.1-1.1-3.2-3-3.3c-2,0-2.9,1.1-3,3.3v9.1c0,2.2,1,3.2,3,3.3c1.9,0,2.9-1.1,3-3.3V7.5z"/>
</g>
<g>
	<path d="M0.9,1h7.7c0.8,0,1.7,0.1,2.4,0.2c0.8,0.2,1.6,0.6,2.4,1.3c0.7,0.5,1.2,1.2,1.6,2.1c0.4,0.9,0.7,1.9,0.7,3
		c0,1.6-0.6,3-1.7,4.3c-1.1,1.4-2.8,2.1-5,2.1H4.1v8.3H0.9V1z M4.1,10.9h4.8c1.2,0,2.1-0.4,2.7-1.1c0.6-0.7,0.9-1.5,0.9-2.3
		c0-0.7-0.1-1.3-0.4-1.8c-0.2-0.4-0.6-0.8-1-1C10.4,4.2,9.7,4,8.8,4H4.1V10.9z"/>
	<path d="M18.7,1h3l6.1,13.9l6-13.9h3.1v21.4h-3.2V9h-0.1l-4.5,10.3h-2.7L22,9h-0.1v13.3h-3.2V1z"/>
</g>
</svg>
