<?xml version="1.0" encoding="utf-8"?>
<!-- Generator: Adobe Illustrator 22.0.1, SVG Export Plug-In . SVG Version: 6.00 Build 0)  -->
<svg version="1.1" id="Layer_1" xmlns="http://www.w3.org/2000/svg" xmlns:xlink="http://www.w3.org/1999/xlink" x="0px" y="0px"
	 viewBox="0 0 150 150" style="enable-background:new 0 0 150 150;" xml:space="preserve">
<style type="text/css">
	.st0{fill:#3D6E9E;}
	.st1{fill:#FFFFFF;}
	.st2{fill:#65B5E1;}
	.st3{fill:#555555;}
</style>
<g>
	<g>
		<g>
			<path class="st0" d="M101.6,103.4H48.4c-6.1,0-11-7.4-11-16.5v11c0,9.1,5,16.5,11,16.5h53.2c6.1,0,11-7.4,11-16.5v-11
				C112.6,96,107.7,103.4,101.6,103.4z"/>
			<path d="M101.6,115.3H48.4c-6.6,0-11.9-7.8-11.9-17.4v-11h1.8c0,8.6,4.5,15.6,10.1,15.6h53.2c5.6,0,10.1-7,10.1-15.6h1.8v11
				C113.5,107.5,108.2,115.3,101.6,115.3z M38.3,96.1v1.8c0,8.6,4.5,15.6,10.1,15.6h53.2c5.6,0,10.1-7,10.1-15.6v-1.8
				c-2.1,4.9-5.8,8.2-10.1,8.2H48.4C44.1,104.3,40.4,101,38.3,96.1z"/>
		</g>
		<g>
			<path class="st1" d="M97.9,98.9H53c-6.1,0-11-5-11-11V53c0-6.1,5-11,11-11h44.9c6.1,0,11,5,11,11v34.9
				C108.9,93.9,104,98.9,97.9,98.9z"/>
			<path d="M97.9,99.8H53c-6.6,0-11.9-5.3-11.9-11.9V53c0-6.6,5.3-11.9,11.9-11.9h44.9c6.6,0,11.9,5.3,11.9,11.9v34.9
				C109.8,94.4,104.5,99.8,97.9,99.8z M53,42.9c-5.6,0-10.1,4.5-10.1,10.1v34.9C42.9,93.5,47.4,98,53,98h44.9
				c5.6,0,10.1-4.5,10.1-10.1V53c0-5.6-4.5-10.1-10.1-10.1C97.9,42.9,53,42.9,53,42.9z"/>
		</g>
		<g>
			<path class="st2" d="M101.6,35.6H48.4c-6.1,0-11,4.5-11,9.9v48c0,5.5,5,9.9,11,9.9h53.2c6.1,0,11-4.5,11-9.9v-48
				C112.6,40,107.7,35.6,101.6,35.6z M105.3,88.8c0,4.4-4,8-8.9,8H53.6c-4.9,0-8.9-3.6-8.9-8V50.2c0-4.4,4-8,8.9-8h42.8
				c4.9,0,8.9,3.6,8.9,8V88.8z"/>
			<path d="M101.6,104.3H48.4c-6.6,0-11.9-4.9-11.9-10.8v-48c0-6,5.3-10.8,11.9-10.8h53.2c6.6,0,11.9,4.9,11.9,10.8v48
				C113.5,99.5,108.2,104.3,101.6,104.3z M48.4,36.5c-5.6,0-10.1,4.1-10.1,9v48c0,5,4.5,9,10.1,9h53.2c5.6,0,10.1-4.1,10.1-9v-48
				c0-5-4.5-9-10.1-9H48.4z M96.4,97.7H53.6c-5.4,0-9.8-4-9.8-8.9V50.2c0-4.9,4.4-8.9,9.8-8.9h42.8c5.4,0,9.8,4,9.8,8.9v38.6
				C106.2,93.7,101.8,97.7,96.4,97.7z M53.6,43.1c-4.4,0-8,3.2-8,7.1v38.6c0,3.9,3.6,7.1,8,7.1h42.8c4.4,0,8-3.2,8-7.1V50.2
				c0-3.9-3.6-7.1-8-7.1H53.6z"/>
		</g>
	</g>
	<g>
		<polygon class="st3" points="60.6,82 60.6,57.1 73,57.1 73,48.4 51.9,48.4 51.9,90.6 73,90.6 73,82 		"/>
		<path d="M73.9,91.5H51v-44h22.9v10.4H61.5V81h12.4V91.5z M52.8,89.7h19.3v-6.9H59.7V56.2h12.4v-6.9H52.8V89.7z"/>
	</g>
	<g>
		<polygon class="st3" points="98.4,48.4 77.3,48.4 77.3,57.1 89.7,57.1 89.7,82 77.3,82 77.3,90.6 98.4,90.6 		"/>
		<path d="M99.3,91.5H76.4V81.1h12.4V58H76.4V47.5h22.9V91.5z M78.2,89.7h19.3V49.3H78.2v6.9h12.4v26.7H78.2V89.7z"/>
	</g>
</g>
<rect x="-155" y="10" class="st1" width="130" height="130"/>
<g>
	<g>
		<g>
			<path class="st0" d="M-63.4,103.4h-53.2c-6.1,0-11-7.4-11-16.5v11c0,9.1,5,16.5,11,16.5h53.2c6.1,0,11-7.4,11-16.5v-11
				C-52.4,96-57.3,103.4-63.4,103.4z"/>
			<path d="M-63.4,115.3h-53.2c-6.6,0-11.9-7.8-11.9-17.4v-11h1.8c0,8.6,4.5,15.6,10.1,15.6h53.2c5.6,0,10.1-7,10.1-15.6h1.8v11
				C-51.5,107.5-56.8,115.3-63.4,115.3z M-126.7,96.1v1.8c0,8.6,4.5,15.6,10.1,15.6h53.2c5.6,0,10.1-7,10.1-15.6v-1.8
				c-2.1,4.9-5.8,8.2-10.1,8.2h-53.2C-120.9,104.3-124.6,101-126.7,96.1z"/>
		</g>
		<g>
			<path class="st1" d="M-67.1,98.9H-112c-6.1,0-11-5-11-11V53c0-6.1,5-11,11-11h44.9c6.1,0,11,5,11,11v34.9
				C-56.1,93.9-61,98.9-67.1,98.9z"/>
			<path d="M-67.1,99.8H-112c-6.6,0-11.9-5.3-11.9-11.9V53c0-6.6,5.3-11.9,11.9-11.9h44.9c6.6,0,11.9,5.3,11.9,11.9v34.9
				C-55.2,94.4-60.5,99.8-67.1,99.8z M-112,42.9c-5.6,0-10.1,4.5-10.1,10.1v34.9c0,5.6,4.5,10.1,10.1,10.1h44.9
				c5.6,0,10.1-4.5,10.1-10.1V53c0-5.6-4.5-10.1-10.1-10.1C-67.1,42.9-112,42.9-112,42.9z"/>
		</g>
		<g>
			<path class="st2" d="M-63.4,35.6h-53.2c-6.1,0-11,4.5-11,9.9v48c0,5.5,5,9.9,11,9.9h53.2c6.1,0,11-4.5,11-9.9v-48
				C-52.4,40-57.3,35.6-63.4,35.6z M-59.7,88.8c0,4.4-4,8-8.9,8h-42.8c-4.9,0-8.9-3.6-8.9-8V50.2c0-4.4,4-8,8.9-8h42.8
				c4.9,0,8.9,3.6,8.9,8V88.8z"/>
			<path d="M-63.4,104.3h-53.2c-6.6,0-11.9-4.9-11.9-10.8v-48c0-6,5.3-10.8,11.9-10.8h53.2c6.6,0,11.9,4.9,11.9,10.8v48
				C-51.5,99.5-56.8,104.3-63.4,104.3z M-116.6,36.5c-5.6,0-10.1,4.1-10.1,9v48c0,5,4.5,9,10.1,9h53.2c5.6,0,10.1-4.1,10.1-9v-48
				c0-5-4.5-9-10.1-9H-116.6z M-68.6,97.7h-42.8c-5.4,0-9.8-4-9.8-8.9V50.2c0-4.9,4.4-8.9,9.8-8.9h42.8c5.4,0,9.8,4,9.8,8.9v38.6
				C-58.8,93.7-63.2,97.7-68.6,97.7z M-111.4,43.1c-4.4,0-8,3.2-8,7.1v38.6c0,3.9,3.6,7.1,8,7.1h42.8c4.4,0,8-3.2,8-7.1V50.2
				c0-3.9-3.6-7.1-8-7.1H-111.4z"/>
		</g>
	</g>
	<g>
		<polygon class="st3" points="-104.4,82 -104.4,57.1 -92,57.1 -92,48.4 -113.1,48.4 -113.1,90.6 -92,90.6 -92,82 		"/>
		<path d="M-91.1,91.5H-114v-44h22.9v10.4h-12.4V81h12.4V91.5z M-112.2,89.7h19.3v-6.9h-12.4V56.2h12.4v-6.9h-19.3V89.7z"/>
	</g>
	<g>
		<polygon class="st3" points="-66.6,48.4 -87.7,48.4 -87.7,57.1 -75.3,57.1 -75.3,82 -87.7,82 -87.7,90.6 -66.6,90.6 		"/>
		<path d="M-65.7,91.5h-22.9V81.1h12.4V58h-12.4V47.5h22.9V91.5z M-86.8,89.7h19.3V49.3h-19.3v6.9h12.4v26.7h-12.4V89.7z"/>
	</g>
</g>
</svg>
