<?xml version="1.0" encoding="utf-8"?>
<!-- Generator: Adobe Illustrator 22.0.1, SVG Export Plug-In . SVG Version: 6.00 Build 0)  -->
<svg version="1.1" id="Layer_1" xmlns="http://www.w3.org/2000/svg" xmlns:xlink="http://www.w3.org/1999/xlink" x="0px" y="0px"
	 viewBox="0 0 150 150" style="enable-background:new 0 0 150 150;" xml:space="preserve">
<style type="text/css">
	.st0{fill:#EA4C89;stroke:#000000;stroke-width:2;stroke-linecap:round;stroke-linejoin:round;stroke-miterlimit:10;}
	.st1{fill:#FFFFFF;stroke:#000000;stroke-width:2;stroke-miterlimit:10;}
	.st2{fill:#FFFFFF;}
</style>
<g>
	<circle class="st0" cx="75" cy="75" r="38.5"/>
	<g>
		<g>
			<path class="st1" d="M58.5,51c5.7-4.4,9.3-5.4,16.3-5.6c6.7,0,11.5,5.7,14.5,12.6c1,2.3,1.7,4.5,1.9,6.6
				c0.3,2.1,0.3,5.4,0.3,10.4c0,5.2-0.1,8.8-0.5,10.9c-0.1,1-0.4,2.1-0.6,3.1c-0.3,0.9-0.8,1.9-1.2,3.1c-1.3,3-3.1,5.8-5.6,8.3
				c-2.5,2.5-5.6,4.3-9.3,4.1c-6.7-0.1-10.2-1.3-15.8-5.6C58.5,82.9,58.5,67,58.5,51z M65.1,94.7c3.4,0.9,5.2,1.2,8.8,1.3
				c4.3,0.1,7.3-2.2,9.1-5.8c0.8-1.3,1.3-3,1.6-4.8c0.3-1.8,0.3-5.2,0.3-10.1c0-4.8-0.1-8.3-0.3-10.4c-0.3-2.1-0.9-3.9-1.8-5.4
				c-2.1-3.6-4.9-5.8-8.8-5.6c-3.6,0.1-5.4,0.4-8.8,1.3C65.1,68.4,65.1,81.5,65.1,94.7z"/>
		</g>
	</g>
</g>
<rect x="-191" y="10" class="st2" width="130" height="130"/>
<g>
	<circle class="st0" cx="-126" cy="75" r="38.5"/>
	<g>
		<g>
			<path class="st1" d="M-142.5,51c5.7-4.4,9.3-5.4,16.3-5.6c6.7,0,11.5,5.7,14.5,12.6c1,2.3,1.7,4.5,1.9,6.6
				c0.3,2.1,0.3,5.4,0.3,10.4c0,5.2-0.1,8.8-0.5,10.9c-0.1,1-0.4,2.1-0.6,3.1c-0.3,0.9-0.8,1.9-1.2,3.1c-1.3,3-3.1,5.8-5.6,8.3
				c-2.5,2.5-5.6,4.3-9.3,4.1c-6.7-0.1-10.2-1.3-15.8-5.6C-142.5,82.9-142.5,67-142.5,51z M-135.9,94.7c3.4,0.9,5.2,1.2,8.8,1.3
				c4.3,0.1,7.3-2.2,9.1-5.8c0.8-1.3,1.3-3,1.6-4.8c0.3-1.8,0.3-5.2,0.3-10.1c0-4.8-0.1-8.3-0.3-10.4c-0.3-2.1-0.9-3.9-1.8-5.4
				c-2.1-3.6-4.9-5.8-8.8-5.6c-3.6,0.1-5.4,0.4-8.8,1.3C-135.9,68.4-135.9,81.5-135.9,94.7z"/>
		</g>
	</g>
</g>
</svg>
