<?xml version="1.0" encoding="utf-8"?>
<!-- Generator: Adobe Illustrator 22.0.1, SVG Export Plug-In . SVG Version: 6.00 Build 0)  -->
<svg version="1.1" id="Layer_1" xmlns="http://www.w3.org/2000/svg" xmlns:xlink="http://www.w3.org/1999/xlink" x="0px" y="0px"
	 viewBox="0 0 150 150" style="enable-background:new 0 0 150 150;" xml:space="preserve">
<style type="text/css">
	.st0{fill:#FFFFFF;}
	.st1{fill:#FF7916;}
	.st2{fill:#FF3030;}
	.st3{fill:#59D8A7;}
	.st4{fill:#EFEFEF;}
	.st5{fill:#F9FFCA;}
	.st6{fill:#FF9A29;}
	.st7{fill:#FFF7EE;}
	.st8{fill:#C64F3C;}
</style>
<g>
	<g>
		<polygon class="st0" points="66.1,270.4 42.7,276.7 40.9,252.5 62.5,248.8 		"/>
		<path d="M42.7,277.4c-0.1,0-0.3,0-0.4-0.1c-0.2-0.1-0.3-0.3-0.3-0.5l-1.8-24.2c0-0.3,0.2-0.7,0.6-0.7l21.6-3.7
			c0.2,0,0.4,0,0.5,0.1c0.1,0.1,0.2,0.3,0.3,0.4l3.7,21.6c0.1,0.3-0.2,0.7-0.5,0.8l-23.5,6.3C42.8,277.4,42.7,277.4,42.7,277.4z
			 M41.6,253.1l1.7,22.8l22.1-6l-3.5-20.3L41.6,253.1z"/>
	</g>
	<g>
		<polygon class="st1" points="62.5,248.8 40.9,252.5 42.7,276.7 43.1,276.6 62.5,249.2 		"/>
		<path d="M42.7,277.4c-0.1,0-0.2,0-0.4-0.1c-0.2-0.1-0.3-0.3-0.3-0.5l-1.8-24.2c0-0.3,0.2-0.7,0.6-0.7l21.6-3.7
			c0.2,0,0.4,0,0.5,0.1c0.1,0.1,0.2,0.3,0.3,0.4l0.1,0.3c0,0.2,0,0.4-0.1,0.5l-19.4,27.4c-0.1,0.1-0.2,0.2-0.3,0.2l-0.4,0.2
			C42.8,277.4,42.8,277.4,42.7,277.4z M41.6,253.1l1.6,22.1l18.1-25.5L41.6,253.1z"/>
	</g>
	<g>
		<polygon class="st2" points="62.5,249.2 43.1,276.6 66.1,270.4 		"/>
		<path d="M43.1,277.3c-0.2,0-0.4-0.1-0.5-0.3c-0.2-0.2-0.2-0.5,0-0.8L62,248.8c0.2-0.2,0.4-0.3,0.7-0.3c0.3,0.1,0.5,0.3,0.5,0.5
			l3.6,21.2c0.1,0.3-0.2,0.7-0.5,0.8l-23.1,6.2C43.2,277.3,43.1,277.3,43.1,277.3z M62.1,250.9l-17.4,24.6l20.7-5.5L62.1,250.9z"/>
	</g>
	<g>
		<polygon class="st2" points="38.4,259.3 38.4,259.3 32.9,260.2 33.4,266.3 33.5,266.3 39.4,264.7 		"/>
		<path d="M33.4,267c-0.1,0-0.2,0-0.4-0.1c-0.2-0.1-0.3-0.3-0.3-0.5l-0.5-6.2c0-0.3,0.2-0.7,0.6-0.7l5.5-0.9
			c0.4-0.1,0.7,0.2,0.8,0.5v0.1l0,0l0.9,5.4c0.1,0.3-0.2,0.7-0.5,0.8l-5.9,1.6C33.6,267,33.5,267,33.4,267z M33.7,260.7l0.3,4.7
			l4.6-1.2l-0.7-4.2L33.7,260.7z"/>
	</g>
	<g>
		<polygon class="st1" points="62.1,275.1 62.1,275 57.4,275.9 57.8,281.2 57.9,281.1 62.9,279.8 		"/>
		<path d="M57.8,281.8c-0.1,0-0.2,0-0.4-0.1c-0.2-0.1-0.3-0.3-0.3-0.5l-0.4-5.3c0-0.3,0.2-0.7,0.6-0.7l4.7-0.8c0.2,0,0.4,0,0.5,0.1
			s0.2,0.3,0.3,0.4l0.8,4.7c0.1,0.3-0.2,0.7-0.5,0.8l-5.1,1.4C57.9,281.8,57.9,281.8,57.8,281.8z M58.1,276.4l0.3,3.9l3.8-1
			l-0.6-3.5L58.1,276.4z"/>
	</g>
	<g>
		<polygon class="st3" points="69.5,265 45.3,247.8 44.3,239.6 77.6,263.3 		"/>
		<path d="M69.4,265.7l-24.7-17.5l-1.2-10l35.8,25.4L69.4,265.7z M45.9,247.5l23.7,16.8l6.3-1.4L45,241L45.9,247.5z"/>
	</g>
	<g>
		<polygon class="st0" points="79.4,206.2 97.7,199.9 97.8,219.3 97.8,238.7 79.6,264.4 43,238.4 61.2,212.7 		"/>
		<path d="M79.6,265c-0.1,0-0.3,0-0.4-0.1l-36.6-26c-0.1-0.1-0.2-0.3-0.3-0.4c0-0.2,0-0.4,0.1-0.5l18.2-25.6
			c0.1-0.1,0.2-0.2,0.3-0.2l18.2-6.5l0,0l18.4-6.4c0.2-0.1,0.4,0,0.6,0.1c0.2,0.1,0.3,0.3,0.3,0.5l0.1,38.9c0,0.1,0,0.3-0.1,0.4
			l-18.2,25.6C80,264.9,79.8,265,79.6,265z M43.9,238.2l35.6,25.2l17.7-24.9l-0.1-37.7l-17.5,6.1l-18,6.4L43.9,238.2z"/>
	</g>
	<g>
		<polygon class="st3" points="89.8,268.1 83.2,259.7 97.4,239.7 104,248.1 		"/>
		<path d="M89.8,269.3l-7.4-9.5l15-21.1l7.4,9.5L89.8,269.3z M84.1,259.7l5.7,7.3l13.4-18.9l-5.7-7.3L84.1,259.7z"/>
	</g>
	<g>
		<polygon class="st3" points="36.1,230 46.2,233.4 60.3,213.5 50.2,210.1 		"/>
		<path d="M46.4,234.2L35,230.3l15-21.1l11.4,3.9L46.4,234.2z M37.1,229.7l8.8,3l13.4-18.9l-8.8-3L37.1,229.7z"/>
	</g>
	<g>
		<polygon class="st4" points="97.8,238.7 97.8,219.3 97.7,200.5 61.5,251.5 79.6,264.4 		"/>
		<path d="M79.6,265c-0.1,0-0.3,0-0.4-0.1l-18.1-12.8c-0.1-0.1-0.2-0.3-0.3-0.4c0-0.2,0-0.4,0.1-0.5l36.2-51.1
			c0.2-0.2,0.5-0.3,0.7-0.3c0.3,0.1,0.5,0.3,0.5,0.6l0.1,38.3c0,0.1,0,0.3-0.1,0.4l-18.2,25.6C80,264.9,79.8,265,79.6,265z
			 M62.4,251.4l17,12.1l17.7-24.9l-0.1-36L62.4,251.4z"/>
	</g>
	<g>
		<circle class="st3" cx="77.4" cy="228.3" r="13.3"/>
		<path d="M77.4,242.2c-2.8,0-5.6-0.8-8-2.6c-6.3-4.4-7.8-13.2-3.3-19.4c2.2-3,5.4-5.1,9-5.7c3.7-0.6,7.4,0.2,10.4,2.4
			s5.1,5.4,5.7,9c0.6,3.7-0.2,7.4-2.4,10.4l0,0C86,240.2,81.7,242.2,77.4,242.2z M77.4,215.7c-0.7,0-1.4,0.1-2.1,0.2
			c-3.3,0.6-6.2,2.4-8.2,5.1c-4,5.7-2.7,13.6,3,17.6s13.6,2.7,17.6-3c1.9-2.7,2.7-6.1,2.1-9.4s-2.4-6.2-5.1-8.2
			C82.5,216.5,80,215.7,77.4,215.7z"/>
	</g>
	<g>
		<circle class="st5" cx="77.1" cy="228" r="9.5"/>
		<path d="M77.1,238.2c-2,0-4.1-0.6-5.8-1.9c-4.6-3.2-5.6-9.6-2.4-14.1c3.2-4.6,9.6-5.6,14.1-2.4c4.6,3.2,5.6,9.6,2.4,14.1l0,0
			C83.4,236.7,80.3,238.2,77.1,238.2z M77.1,219.3c-2.8,0-5.5,1.3-7.2,3.7c-2.8,4-1.9,9.5,2.1,12.3s9.5,1.9,12.3-2.1l0,0
			c2.8-4,1.9-9.5-2.1-12.3C80.7,219.8,78.9,219.3,77.1,219.3z"/>
	</g>
</g>
<g>
	<g>
		<g>
			<path class="st6" d="M70,75H52.5V34.6l0,0c9.7,0,17.5,7.8,17.5,17.5V75z"/>
			<path d="M70.6,75.6H51.9V34h0.6c10,0,18.1,8.1,18.1,18.1V75.6z M53.1,74.4h16.3V52.1c0-9.1-7.2-16.5-16.3-16.9V74.4z"/>
		</g>
		<g>
			<path class="st6" d="M89.8,45.6c-3.3-1.2-6.9-1.8-10.8-1.8l0,0c-15,0-27.3,10.1-27.3,22.5v44.1c0,2.7,2.7,5,6.1,5h42.4
				c3.3,0,6.1-2.2,6.1-5V69.3v-3.1V36C98.7,36,92.2,40,89.8,45.6z"/>
			<path d="M100.2,116H57.8c-3.7,0-6.7-2.5-6.7-5.6V66.2c0-12.7,12.5-23.1,27.9-23.1c3.6,0,7.1,0.6,10.4,1.7
				c2.7-5.7,9.4-9.5,16.8-9.5h0.6v75C106.9,113.5,103.9,116,100.2,116z M79,44.4c-14.7,0-26.6,9.8-26.6,21.9v44.1
				c0,2.4,2.4,4.4,5.4,4.4h42.4c3,0,5.4-2,5.4-4.4V36.6c-6.9,0.2-13,3.9-15.3,9.2l-0.2,0.5l-0.5-0.2C86.2,45,82.7,44.4,79,44.4z"/>
		</g>
		<g>
			<path d="M61.9,68.9c-1.1,0-2.1,0.9-2.1,2.1h4.1C64,69.8,63.1,68.9,61.9,68.9z"/>
			<path d="M64.6,71.6h-5.4V71c0-1.5,1.2-2.7,2.7-2.7s2.7,1.2,2.7,2.7L64.6,71.6L64.6,71.6z M60.6,70.4h2.6
				c-0.2-0.5-0.7-0.8-1.3-0.8C61.4,69.5,60.9,69.9,60.6,70.4z"/>
		</g>
		<g>
			<path d="M83.4,68.9c-1.1,0-2.1,0.9-2.1,2.1h4.1C85.4,69.8,84.5,68.9,83.4,68.9z"/>
			<path d="M86.1,71.6h-5.4V71c0-1.5,1.2-2.7,2.7-2.7s2.7,1.2,2.7,2.7L86.1,71.6L86.1,71.6z M82.1,70.4h2.6
				c-0.2-0.5-0.7-0.8-1.3-0.8C82.8,69.5,82.3,69.9,82.1,70.4z"/>
		</g>
		<g>
			<path class="st7" d="M64.8,100c9.9,0,18.1-7.5,20.1-17.5c0.5-2.4-1.3-4.7-3.6-4.7H48.2c-2.3,0-4.1,2.3-3.6,4.7
				C46.7,92.5,55,100,64.8,100z"/>
			<path d="M64.8,100.6c-9.9,0-18.6-7.6-20.7-18c-0.3-1.4,0.1-2.8,1-3.9c0.8-1,2-1.6,3.2-1.6h33.1c1.2,0,2.4,0.6,3.2,1.6
				c0.9,1.1,1.2,2.5,1,3.9C83.5,93,74.7,100.6,64.8,100.6z M48.3,78.3c-0.9,0-1.7,0.4-2.3,1.1c-0.7,0.8-0.9,1.8-0.7,2.9
				c2,9.9,10.2,17,19.5,17s17.5-7.2,19.5-17c0.2-1,0-2.1-0.7-2.9c-0.6-0.7-1.4-1.1-2.3-1.1H48.3z"/>
		</g>
		<g>
			<rect x="51.8" y="108.7" class="st8" width="54.5" height="6.7"/>
			<path d="M106.9,116H51.2v-8H107v8H106.9z M52.4,114.8h53.3v-5.5H52.4V114.8z"/>
		</g>
	</g>
	<g>
		<path d="M48.1,83.8c2.1,0,3.9-2,4.3-4.8c0.1-0.7-0.3-1.3-0.8-1.3h-7.1c-0.5,0-0.9,0.6-0.8,1.3C44.2,81.7,45.9,83.8,48.1,83.8z"/>
		<path d="M48.1,84.4c-2.4,0-4.5-2.2-5-5.3c-0.1-0.6,0.1-1.1,0.4-1.5c0.3-0.3,0.6-0.5,1-0.5h7.1c0.4,0,0.7,0.2,1,0.5
			c0.3,0.4,0.5,1,0.4,1.5C52.5,82.2,50.5,84.4,48.1,84.4z M51.6,78.3h-7.1c0,0-0.2,0.2-0.2,0.6c0.4,2.5,2,4.2,3.7,4.2
			s3.3-1.8,3.7-4.2C51.8,78.6,51.7,78.3,51.6,78.3z"/>
	</g>
</g>
<rect x="-155.5" y="175.5" class="st0" width="130" height="130"/>
<g>
	<g>
		<g>
			<path class="st6" d="M-95.5,240.5H-113v-40.4l0,0c9.7,0,17.5,7.8,17.5,17.5V240.5z"/>
			<path d="M-94.9,241.1h-18.7v-41.6h0.6c10,0,18.1,8.1,18.1,18.1V241.1z M-112.4,239.9h16.3v-22.3c0-9.1-7.2-16.5-16.3-16.9V239.9z
				"/>
		</g>
		<g>
			<path class="st6" d="M-75.7,211.1c-3.3-1.2-6.9-1.8-10.8-1.8l0,0c-15,0-27.3,10.1-27.3,22.5v44.1c0,2.7,2.7,5,6.1,5h42.4
				c3.3,0,6.1-2.2,6.1-5v-41.1v-3.1v-30.2C-66.8,201.5-73.3,205.5-75.7,211.1z"/>
			<path d="M-65.3,281.5h-42.4c-3.7,0-6.7-2.5-6.7-5.6v-44.2c0-12.7,12.5-23.1,27.9-23.1c3.6,0,7.1,0.6,10.4,1.7
				c2.7-5.7,9.4-9.5,16.8-9.5h0.6v75C-58.6,279-61.6,281.5-65.3,281.5z M-86.5,209.9c-14.7,0-26.6,9.8-26.6,21.9v44.1
				c0,2.4,2.4,4.4,5.4,4.4h42.4c3,0,5.4-2,5.4-4.4v-73.8c-6.9,0.2-13,3.9-15.3,9.2l-0.2,0.5l-0.5-0.2
				C-79.3,210.5-82.8,209.9-86.5,209.9z"/>
		</g>
		<g>
			<path d="M-103.6,234.4c-1.1,0-2.1,0.9-2.1,2.1h4.1C-101.5,235.3-102.4,234.4-103.6,234.4z"/>
			<path d="M-100.9,237.1h-5.4v-0.6c0-1.5,1.2-2.7,2.7-2.7s2.7,1.2,2.7,2.7L-100.9,237.1L-100.9,237.1z M-104.9,235.9h2.6
				c-0.2-0.5-0.7-0.8-1.3-0.8C-104.1,235-104.6,235.4-104.9,235.9z"/>
		</g>
		<g>
			<path d="M-82.1,234.4c-1.1,0-2.1,0.9-2.1,2.1h4.1C-80.1,235.3-81,234.4-82.1,234.4z"/>
			<path d="M-79.4,237.1h-5.4v-0.6c0-1.5,1.2-2.7,2.7-2.7s2.7,1.2,2.7,2.7L-79.4,237.1L-79.4,237.1z M-83.4,235.9h2.6
				c-0.2-0.5-0.7-0.8-1.3-0.8C-82.7,235-83.2,235.4-83.4,235.9z"/>
		</g>
		<g>
			<path class="st7" d="M-100.7,265.5c9.9,0,18.1-7.5,20.1-17.5c0.5-2.4-1.3-4.7-3.6-4.7h-33.1c-2.3,0-4.1,2.3-3.6,4.7
				C-118.8,258-110.5,265.5-100.7,265.5z"/>
			<path d="M-100.7,266.1c-9.9,0-18.6-7.6-20.7-18c-0.3-1.4,0.1-2.8,1-3.9c0.8-1,2-1.6,3.2-1.6h33.1c1.2,0,2.4,0.6,3.2,1.6
				c0.9,1.1,1.2,2.5,1,3.9C-82,258.5-90.8,266.1-100.7,266.1z M-117.2,243.8c-0.9,0-1.7,0.4-2.3,1.1c-0.7,0.8-0.9,1.8-0.7,2.9
				c2,9.9,10.2,17,19.5,17s17.5-7.2,19.5-17c0.2-1,0-2.1-0.7-2.9c-0.6-0.7-1.4-1.1-2.3-1.1H-117.2z"/>
		</g>
		<g>
			<rect x="-113.7" y="274.2" class="st8" width="54.5" height="6.7"/>
			<path d="M-58.6,281.5h-55.7v-8h55.8v8H-58.6z M-113.1,280.3h53.3v-5.5h-53.3V280.3z"/>
		</g>
	</g>
	<g>
		<path d="M-117.4,249.3c2.1,0,3.9-2,4.3-4.8c0.1-0.7-0.3-1.3-0.8-1.3h-7.1c-0.5,0-0.9,0.6-0.8,1.3
			C-121.3,247.2-119.6,249.3-117.4,249.3z"/>
		<path d="M-117.4,249.9c-2.4,0-4.5-2.2-5-5.3c-0.1-0.6,0.1-1.1,0.4-1.5c0.3-0.3,0.6-0.5,1-0.5h7.1c0.4,0,0.7,0.2,1,0.5
			c0.3,0.4,0.5,1,0.4,1.5C-113,247.7-115,249.9-117.4,249.9z M-113.9,243.8h-7.1c0,0-0.2,0.2-0.2,0.6c0.4,2.5,2,4.2,3.7,4.2
			s3.3-1.8,3.7-4.2C-113.7,244.1-113.8,243.8-113.9,243.8z"/>
	</g>
</g>
</svg>
