<?xml version="1.0" encoding="utf-8"?>
<!-- Generator: Adobe Illustrator 22.0.1, SVG Export Plug-In . SVG Version: 6.00 Build 0)  -->
<svg version="1.1" id="Layer_1" xmlns="http://www.w3.org/2000/svg" xmlns:xlink="http://www.w3.org/1999/xlink" x="0px" y="0px"
	 viewBox="0 0 150 150" style="enable-background:new 0 0 150 150;" xml:space="preserve">
<style type="text/css">
	.st0{clip-path:url(#SVGID_2_);fill:#29ABE2;}
	.st1{clip-path:url(#SVGID_4_);fill:#29ABE2;}
	.st2{clip-path:url(#SVGID_6_);fill:#28AAE1;}
	.st3{clip-path:url(#SVGID_8_);fill:#28A9E1;}
	.st4{clip-path:url(#SVGID_10_);fill:#27A8E0;}
	.st5{clip-path:url(#SVGID_12_);fill:#26A7DF;}
	.st6{clip-path:url(#SVGID_14_);fill:#25A6DF;}
	.st7{clip-path:url(#SVGID_16_);fill:#25A5DE;}
	.st8{clip-path:url(#SVGID_18_);fill:#24A4DD;}
	.st9{clip-path:url(#SVGID_20_);fill:#23A3DD;}
	.st10{clip-path:url(#SVGID_22_);fill:#23A2DC;}
	.st11{clip-path:url(#SVGID_24_);fill:#22A1DB;}
	.st12{clip-path:url(#SVGID_26_);fill:#21A0DB;}
	.st13{clip-path:url(#SVGID_28_);fill:#209FDA;}
	.st14{clip-path:url(#SVGID_30_);fill:#209ED9;}
	.st15{clip-path:url(#SVGID_32_);fill:#1F9DD9;}
	.st16{clip-path:url(#SVGID_34_);fill:#1E9CD8;}
	.st17{clip-path:url(#SVGID_36_);fill:#1D9BD7;}
	.st18{clip-path:url(#SVGID_38_);fill:#1D9AD7;}
	.st19{clip-path:url(#SVGID_40_);fill:#1C99D6;}
	.st20{clip-path:url(#SVGID_42_);fill:#1B98D5;}
	.st21{clip-path:url(#SVGID_44_);fill:#1B97D5;}
	.st22{clip-path:url(#SVGID_46_);fill:#1A96D4;}
	.st23{clip-path:url(#SVGID_48_);fill:#1995D3;}
	.st24{clip-path:url(#SVGID_50_);fill:#1894D3;}
	.st25{clip-path:url(#SVGID_52_);fill:#1893D2;}
	.st26{clip-path:url(#SVGID_54_);fill:#1792D1;}
	.st27{clip-path:url(#SVGID_56_);fill:#1691D1;}
	.st28{clip-path:url(#SVGID_58_);fill:#1690D0;}
	.st29{clip-path:url(#SVGID_60_);fill:#158FCF;}
	.st30{clip-path:url(#SVGID_62_);fill:#148DCF;}
	.st31{clip-path:url(#SVGID_64_);fill:#138CCE;}
	.st32{clip-path:url(#SVGID_66_);fill:#138BCD;}
	.st33{clip-path:url(#SVGID_68_);fill:#128ACD;}
	.st34{clip-path:url(#SVGID_70_);fill:#1189CC;}
	.st35{clip-path:url(#SVGID_72_);fill:#1188CB;}
	.st36{clip-path:url(#SVGID_74_);fill:#1087CB;}
	.st37{clip-path:url(#SVGID_76_);fill:#0F86CA;}
	.st38{clip-path:url(#SVGID_78_);fill:#0E85C9;}
	.st39{clip-path:url(#SVGID_80_);fill:#0E84C9;}
	.st40{clip-path:url(#SVGID_82_);fill:#0D83C8;}
	.st41{clip-path:url(#SVGID_84_);fill:#0C82C7;}
	.st42{clip-path:url(#SVGID_86_);fill:#0C81C7;}
	.st43{clip-path:url(#SVGID_88_);fill:#0B80C6;}
	.st44{clip-path:url(#SVGID_90_);fill:#0A7FC5;}
	.st45{clip-path:url(#SVGID_92_);fill:#097EC5;}
	.st46{clip-path:url(#SVGID_94_);fill:#097DC4;}
	.st47{clip-path:url(#SVGID_96_);fill:#087CC3;}
	.st48{clip-path:url(#SVGID_98_);fill:#077BC3;}
	.st49{clip-path:url(#SVGID_100_);fill:#067AC2;}
	.st50{clip-path:url(#SVGID_102_);fill:#0679C1;}
	.st51{clip-path:url(#SVGID_104_);fill:#0578C1;}
	.st52{clip-path:url(#SVGID_106_);fill:#0477C0;}
	.st53{clip-path:url(#SVGID_108_);fill:#0476BF;}
	.st54{clip-path:url(#SVGID_110_);fill:#0375BF;}
	.st55{clip-path:url(#SVGID_112_);fill:#0274BE;}
	.st56{clip-path:url(#SVGID_114_);fill:#0173BD;}
	.st57{clip-path:url(#SVGID_116_);fill:#0172BD;}
	.st58{clip-path:url(#SVGID_118_);fill:#0071BC;}
	.st59{clip-path:url(#SVGID_120_);fill:#0071BC;}
	.st60{fill:#EBF0F6;}
	.st61{fill:#FFFFFF;}
	.st62{clip-path:url(#SVGID_122_);fill:#29ABE2;}
	.st63{clip-path:url(#SVGID_124_);fill:#29ABE2;}
	.st64{clip-path:url(#SVGID_126_);fill:#28AAE1;}
	.st65{clip-path:url(#SVGID_128_);fill:#28A9E1;}
	.st66{clip-path:url(#SVGID_130_);fill:#27A8E0;}
	.st67{clip-path:url(#SVGID_132_);fill:#26A7DF;}
	.st68{clip-path:url(#SVGID_134_);fill:#25A6DF;}
	.st69{clip-path:url(#SVGID_136_);fill:#25A5DE;}
	.st70{clip-path:url(#SVGID_138_);fill:#24A4DD;}
	.st71{clip-path:url(#SVGID_140_);fill:#23A3DD;}
	.st72{clip-path:url(#SVGID_142_);fill:#23A2DC;}
	.st73{clip-path:url(#SVGID_144_);fill:#22A1DB;}
	.st74{clip-path:url(#SVGID_146_);fill:#21A0DB;}
	.st75{clip-path:url(#SVGID_148_);fill:#209FDA;}
	.st76{clip-path:url(#SVGID_150_);fill:#209ED9;}
	.st77{clip-path:url(#SVGID_152_);fill:#1F9DD9;}
	.st78{clip-path:url(#SVGID_154_);fill:#1E9CD8;}
	.st79{clip-path:url(#SVGID_156_);fill:#1D9BD7;}
	.st80{clip-path:url(#SVGID_158_);fill:#1D9AD7;}
	.st81{clip-path:url(#SVGID_160_);fill:#1C99D6;}
	.st82{clip-path:url(#SVGID_162_);fill:#1B98D5;}
	.st83{clip-path:url(#SVGID_164_);fill:#1B97D5;}
	.st84{clip-path:url(#SVGID_166_);fill:#1A96D4;}
	.st85{clip-path:url(#SVGID_168_);fill:#1995D3;}
	.st86{clip-path:url(#SVGID_170_);fill:#1894D3;}
	.st87{clip-path:url(#SVGID_172_);fill:#1893D2;}
	.st88{clip-path:url(#SVGID_174_);fill:#1792D1;}
	.st89{clip-path:url(#SVGID_176_);fill:#1691D1;}
	.st90{clip-path:url(#SVGID_178_);fill:#1690D0;}
	.st91{clip-path:url(#SVGID_180_);fill:#158FCF;}
	.st92{clip-path:url(#SVGID_182_);fill:#148DCF;}
	.st93{clip-path:url(#SVGID_184_);fill:#138CCE;}
	.st94{clip-path:url(#SVGID_186_);fill:#138BCD;}
	.st95{clip-path:url(#SVGID_188_);fill:#128ACD;}
	.st96{clip-path:url(#SVGID_190_);fill:#1189CC;}
	.st97{clip-path:url(#SVGID_192_);fill:#1188CB;}
	.st98{clip-path:url(#SVGID_194_);fill:#1087CB;}
	.st99{clip-path:url(#SVGID_196_);fill:#0F86CA;}
	.st100{clip-path:url(#SVGID_198_);fill:#0E85C9;}
	.st101{clip-path:url(#SVGID_200_);fill:#0E84C9;}
	.st102{clip-path:url(#SVGID_202_);fill:#0D83C8;}
	.st103{clip-path:url(#SVGID_204_);fill:#0C82C7;}
	.st104{clip-path:url(#SVGID_206_);fill:#0C81C7;}
	.st105{clip-path:url(#SVGID_208_);fill:#0B80C6;}
	.st106{clip-path:url(#SVGID_210_);fill:#0A7FC5;}
	.st107{clip-path:url(#SVGID_212_);fill:#097EC5;}
	.st108{clip-path:url(#SVGID_214_);fill:#097DC4;}
	.st109{clip-path:url(#SVGID_216_);fill:#087CC3;}
	.st110{clip-path:url(#SVGID_218_);fill:#077BC3;}
	.st111{clip-path:url(#SVGID_220_);fill:#067AC2;}
	.st112{clip-path:url(#SVGID_222_);fill:#0679C1;}
	.st113{clip-path:url(#SVGID_224_);fill:#0578C1;}
	.st114{clip-path:url(#SVGID_226_);fill:#0477C0;}
	.st115{clip-path:url(#SVGID_228_);fill:#0476BF;}
	.st116{clip-path:url(#SVGID_230_);fill:#0375BF;}
	.st117{clip-path:url(#SVGID_232_);fill:#0274BE;}
	.st118{clip-path:url(#SVGID_234_);fill:#0173BD;}
	.st119{clip-path:url(#SVGID_236_);fill:#0172BD;}
	.st120{clip-path:url(#SVGID_238_);fill:#0071BC;}
	.st121{clip-path:url(#SVGID_240_);fill:#0071BC;}
</style>
<g>
	<g>
		<g>
			<g>
				<defs>
					<path id="SVGID_1_" d="M65.3,80.7c0.6-3.7,6.9-23.6,12.6-41.3h-35c-3.8,0-7,2.9-7,6.4v58.6c0,3.5,3.1,6.4,7,6.4h28
						c0.1-11.7,5.4-24.2,5.4-24.2C68.2,86.6,64.2,87.6,65.3,80.7z"/>
				</defs>
				<clipPath id="SVGID_2_">
					<use xlink:href="#SVGID_1_"  style="overflow:visible;"/>
				</clipPath>
				<path class="st0" d="M77.9,39.4h-42H77.9z"/>
			</g>
			<g>
				<defs>
					<path id="SVGID_3_" d="M65.3,80.7c0.6-3.7,6.9-23.6,12.6-41.3h-35c-3.8,0-7,2.9-7,6.4v58.6c0,3.5,3.1,6.4,7,6.4h28
						c0.1-11.7,5.4-24.2,5.4-24.2C68.2,86.6,64.2,87.6,65.3,80.7z"/>
				</defs>
				<clipPath id="SVGID_4_">
					<use xlink:href="#SVGID_3_"  style="overflow:visible;"/>
				</clipPath>
				<rect x="35.9" y="39.4" class="st1" width="42" height="1.2"/>
			</g>
			<g>
				<defs>
					<path id="SVGID_5_" d="M65.3,80.7c0.6-3.7,6.9-23.6,12.6-41.3h-35c-3.8,0-7,2.9-7,6.4v58.6c0,3.5,3.1,6.4,7,6.4h28
						c0.1-11.7,5.4-24.2,5.4-24.2C68.2,86.6,64.2,87.6,65.3,80.7z"/>
				</defs>
				<clipPath id="SVGID_6_">
					<use xlink:href="#SVGID_5_"  style="overflow:visible;"/>
				</clipPath>
				<rect x="35.9" y="40.6" class="st2" width="42" height="1.2"/>
			</g>
			<g>
				<defs>
					<path id="SVGID_7_" d="M65.3,80.7c0.6-3.7,6.9-23.6,12.6-41.3h-35c-3.8,0-7,2.9-7,6.4v58.6c0,3.5,3.1,6.4,7,6.4h28
						c0.1-11.7,5.4-24.2,5.4-24.2C68.2,86.6,64.2,87.6,65.3,80.7z"/>
				</defs>
				<clipPath id="SVGID_8_">
					<use xlink:href="#SVGID_7_"  style="overflow:visible;"/>
				</clipPath>
				<rect x="35.9" y="41.9" class="st3" width="42" height="1.2"/>
			</g>
			<g>
				<defs>
					<path id="SVGID_9_" d="M65.3,80.7c0.6-3.7,6.9-23.6,12.6-41.3h-35c-3.8,0-7,2.9-7,6.4v58.6c0,3.5,3.1,6.4,7,6.4h28
						c0.1-11.7,5.4-24.2,5.4-24.2C68.2,86.6,64.2,87.6,65.3,80.7z"/>
				</defs>
				<clipPath id="SVGID_10_">
					<use xlink:href="#SVGID_9_"  style="overflow:visible;"/>
				</clipPath>
				<rect x="35.9" y="43.1" class="st4" width="42" height="1.2"/>
			</g>
			<g>
				<defs>
					<path id="SVGID_11_" d="M65.3,80.7c0.6-3.7,6.9-23.6,12.6-41.3h-35c-3.8,0-7,2.9-7,6.4v58.6c0,3.5,3.1,6.4,7,6.4h28
						c0.1-11.7,5.4-24.2,5.4-24.2C68.2,86.6,64.2,87.6,65.3,80.7z"/>
				</defs>
				<clipPath id="SVGID_12_">
					<use xlink:href="#SVGID_11_"  style="overflow:visible;"/>
				</clipPath>
				<rect x="35.9" y="44.2" class="st5" width="42" height="1.2"/>
			</g>
			<g>
				<defs>
					<path id="SVGID_13_" d="M65.3,80.7c0.6-3.7,6.9-23.6,12.6-41.3h-35c-3.8,0-7,2.9-7,6.4v58.6c0,3.5,3.1,6.4,7,6.4h28
						c0.1-11.7,5.4-24.2,5.4-24.2C68.2,86.6,64.2,87.6,65.3,80.7z"/>
				</defs>
				<clipPath id="SVGID_14_">
					<use xlink:href="#SVGID_13_"  style="overflow:visible;"/>
				</clipPath>
				<rect x="35.9" y="45.6" class="st6" width="42" height="1.2"/>
			</g>
			<g>
				<defs>
					<path id="SVGID_15_" d="M65.3,80.7c0.6-3.7,6.9-23.6,12.6-41.3h-35c-3.8,0-7,2.9-7,6.4v58.6c0,3.5,3.1,6.4,7,6.4h28
						c0.1-11.7,5.4-24.2,5.4-24.2C68.2,86.6,64.2,87.6,65.3,80.7z"/>
				</defs>
				<clipPath id="SVGID_16_">
					<use xlink:href="#SVGID_15_"  style="overflow:visible;"/>
				</clipPath>
				<rect x="35.9" y="46.8" class="st7" width="42" height="1.2"/>
			</g>
			<g>
				<defs>
					<path id="SVGID_17_" d="M65.3,80.7c0.6-3.7,6.9-23.6,12.6-41.3h-35c-3.8,0-7,2.9-7,6.4v58.6c0,3.5,3.1,6.4,7,6.4h28
						c0.1-11.7,5.4-24.2,5.4-24.2C68.2,86.6,64.2,87.6,65.3,80.7z"/>
				</defs>
				<clipPath id="SVGID_18_">
					<use xlink:href="#SVGID_17_"  style="overflow:visible;"/>
				</clipPath>
				<rect x="35.9" y="48" class="st8" width="42" height="1.2"/>
			</g>
			<g>
				<defs>
					<path id="SVGID_19_" d="M65.3,80.7c0.6-3.7,6.9-23.6,12.6-41.3h-35c-3.8,0-7,2.9-7,6.4v58.6c0,3.5,3.1,6.4,7,6.4h28
						c0.1-11.7,5.4-24.2,5.4-24.2C68.2,86.6,64.2,87.6,65.3,80.7z"/>
				</defs>
				<clipPath id="SVGID_20_">
					<use xlink:href="#SVGID_19_"  style="overflow:visible;"/>
				</clipPath>
				<rect x="35.9" y="49.2" class="st9" width="42" height="1.2"/>
			</g>
			<g>
				<defs>
					<path id="SVGID_21_" d="M65.3,80.7c0.6-3.7,6.9-23.6,12.6-41.3h-35c-3.8,0-7,2.9-7,6.4v58.6c0,3.5,3.1,6.4,7,6.4h28
						c0.1-11.7,5.4-24.2,5.4-24.2C68.2,86.6,64.2,87.6,65.3,80.7z"/>
				</defs>
				<clipPath id="SVGID_22_">
					<use xlink:href="#SVGID_21_"  style="overflow:visible;"/>
				</clipPath>
				<rect x="35.9" y="50.5" class="st10" width="42" height="1.2"/>
			</g>
			<g>
				<defs>
					<path id="SVGID_23_" d="M65.3,80.7c0.6-3.7,6.9-23.6,12.6-41.3h-35c-3.8,0-7,2.9-7,6.4v58.6c0,3.5,3.1,6.4,7,6.4h28
						c0.1-11.7,5.4-24.2,5.4-24.2C68.2,86.6,64.2,87.6,65.3,80.7z"/>
				</defs>
				<clipPath id="SVGID_24_">
					<use xlink:href="#SVGID_23_"  style="overflow:visible;"/>
				</clipPath>
				<rect x="35.9" y="51.7" class="st11" width="42" height="1.2"/>
			</g>
			<g>
				<defs>
					<path id="SVGID_25_" d="M65.3,80.7c0.6-3.7,6.9-23.6,12.6-41.3h-35c-3.8,0-7,2.9-7,6.4v58.6c0,3.5,3.1,6.4,7,6.4h28
						c0.1-11.7,5.4-24.2,5.4-24.2C68.2,86.6,64.2,87.6,65.3,80.7z"/>
				</defs>
				<clipPath id="SVGID_26_">
					<use xlink:href="#SVGID_25_"  style="overflow:visible;"/>
				</clipPath>
				<rect x="35.9" y="53" class="st12" width="42" height="1.2"/>
			</g>
			<g>
				<defs>
					<path id="SVGID_27_" d="M65.3,80.7c0.6-3.7,6.9-23.6,12.6-41.3h-35c-3.8,0-7,2.9-7,6.4v58.6c0,3.5,3.1,6.4,7,6.4h28
						c0.1-11.7,5.4-24.2,5.4-24.2C68.2,86.6,64.2,87.6,65.3,80.7z"/>
				</defs>
				<clipPath id="SVGID_28_">
					<use xlink:href="#SVGID_27_"  style="overflow:visible;"/>
				</clipPath>
				<rect x="35.9" y="54.2" class="st13" width="42" height="1.2"/>
			</g>
			<g>
				<defs>
					<path id="SVGID_29_" d="M65.3,80.7c0.6-3.7,6.9-23.6,12.6-41.3h-35c-3.8,0-7,2.9-7,6.4v58.6c0,3.5,3.1,6.4,7,6.4h28
						c0.1-11.7,5.4-24.2,5.4-24.2C68.2,86.6,64.2,87.6,65.3,80.7z"/>
				</defs>
				<clipPath id="SVGID_30_">
					<use xlink:href="#SVGID_29_"  style="overflow:visible;"/>
				</clipPath>
				<rect x="35.9" y="55.4" class="st14" width="42" height="1.2"/>
			</g>
			<g>
				<defs>
					<path id="SVGID_31_" d="M65.3,80.7c0.6-3.7,6.9-23.6,12.6-41.3h-35c-3.8,0-7,2.9-7,6.4v58.6c0,3.5,3.1,6.4,7,6.4h28
						c0.1-11.7,5.4-24.2,5.4-24.2C68.2,86.6,64.2,87.6,65.3,80.7z"/>
				</defs>
				<clipPath id="SVGID_32_">
					<use xlink:href="#SVGID_31_"  style="overflow:visible;"/>
				</clipPath>
				<rect x="35.9" y="56.6" class="st15" width="42" height="1.2"/>
			</g>
			<g>
				<defs>
					<path id="SVGID_33_" d="M65.3,80.7c0.6-3.7,6.9-23.6,12.6-41.3h-35c-3.8,0-7,2.9-7,6.4v58.6c0,3.5,3.1,6.4,7,6.4h28
						c0.1-11.7,5.4-24.2,5.4-24.2C68.2,86.6,64.2,87.6,65.3,80.7z"/>
				</defs>
				<clipPath id="SVGID_34_">
					<use xlink:href="#SVGID_33_"  style="overflow:visible;"/>
				</clipPath>
				<rect x="35.9" y="57.9" class="st16" width="42" height="1.2"/>
			</g>
			<g>
				<defs>
					<path id="SVGID_35_" d="M65.3,80.7c0.6-3.7,6.9-23.6,12.6-41.3h-35c-3.8,0-7,2.9-7,6.4v58.6c0,3.5,3.1,6.4,7,6.4h28
						c0.1-11.7,5.4-24.2,5.4-24.2C68.2,86.6,64.2,87.6,65.3,80.7z"/>
				</defs>
				<clipPath id="SVGID_36_">
					<use xlink:href="#SVGID_35_"  style="overflow:visible;"/>
				</clipPath>
				<rect x="35.9" y="59.1" class="st17" width="42" height="1.2"/>
			</g>
			<g>
				<defs>
					<path id="SVGID_37_" d="M65.3,80.7c0.6-3.7,6.9-23.6,12.6-41.3h-35c-3.8,0-7,2.9-7,6.4v58.6c0,3.5,3.1,6.4,7,6.4h28
						c0.1-11.7,5.4-24.2,5.4-24.2C68.2,86.6,64.2,87.6,65.3,80.7z"/>
				</defs>
				<clipPath id="SVGID_38_">
					<use xlink:href="#SVGID_37_"  style="overflow:visible;"/>
				</clipPath>
				<rect x="35.9" y="60.2" class="st18" width="42" height="1.2"/>
			</g>
			<g>
				<defs>
					<path id="SVGID_39_" d="M65.3,80.7c0.6-3.7,6.9-23.6,12.6-41.3h-35c-3.8,0-7,2.9-7,6.4v58.6c0,3.5,3.1,6.4,7,6.4h28
						c0.1-11.7,5.4-24.2,5.4-24.2C68.2,86.6,64.2,87.6,65.3,80.7z"/>
				</defs>
				<clipPath id="SVGID_40_">
					<use xlink:href="#SVGID_39_"  style="overflow:visible;"/>
				</clipPath>
				<rect x="35.9" y="61.6" class="st19" width="42" height="1.2"/>
			</g>
			<g>
				<defs>
					<path id="SVGID_41_" d="M65.3,80.7c0.6-3.7,6.9-23.6,12.6-41.3h-35c-3.8,0-7,2.9-7,6.4v58.6c0,3.5,3.1,6.4,7,6.4h28
						c0.1-11.7,5.4-24.2,5.4-24.2C68.2,86.6,64.2,87.6,65.3,80.7z"/>
				</defs>
				<clipPath id="SVGID_42_">
					<use xlink:href="#SVGID_41_"  style="overflow:visible;"/>
				</clipPath>
				<rect x="35.9" y="62.8" class="st20" width="42" height="1.2"/>
			</g>
			<g>
				<defs>
					<path id="SVGID_43_" d="M65.3,80.7c0.6-3.7,6.9-23.6,12.6-41.3h-35c-3.8,0-7,2.9-7,6.4v58.6c0,3.5,3.1,6.4,7,6.4h28
						c0.1-11.7,5.4-24.2,5.4-24.2C68.2,86.6,64.2,87.6,65.3,80.7z"/>
				</defs>
				<clipPath id="SVGID_44_">
					<use xlink:href="#SVGID_43_"  style="overflow:visible;"/>
				</clipPath>
				<rect x="35.9" y="64" class="st21" width="42" height="1.2"/>
			</g>
			<g>
				<defs>
					<path id="SVGID_45_" d="M65.3,80.7c0.6-3.7,6.9-23.6,12.6-41.3h-35c-3.8,0-7,2.9-7,6.4v58.6c0,3.5,3.1,6.4,7,6.4h28
						c0.1-11.7,5.4-24.2,5.4-24.2C68.2,86.6,64.2,87.6,65.3,80.7z"/>
				</defs>
				<clipPath id="SVGID_46_">
					<use xlink:href="#SVGID_45_"  style="overflow:visible;"/>
				</clipPath>
				<rect x="35.9" y="65.2" class="st22" width="42" height="1.2"/>
			</g>
			<g>
				<defs>
					<path id="SVGID_47_" d="M65.3,80.7c0.6-3.7,6.9-23.6,12.6-41.3h-35c-3.8,0-7,2.9-7,6.4v58.6c0,3.5,3.1,6.4,7,6.4h28
						c0.1-11.7,5.4-24.2,5.4-24.2C68.2,86.6,64.2,87.6,65.3,80.7z"/>
				</defs>
				<clipPath id="SVGID_48_">
					<use xlink:href="#SVGID_47_"  style="overflow:visible;"/>
				</clipPath>
				<rect x="35.9" y="66.5" class="st23" width="42" height="1.2"/>
			</g>
			<g>
				<defs>
					<path id="SVGID_49_" d="M65.3,80.7c0.6-3.7,6.9-23.6,12.6-41.3h-35c-3.8,0-7,2.9-7,6.4v58.6c0,3.5,3.1,6.4,7,6.4h28
						c0.1-11.7,5.4-24.2,5.4-24.2C68.2,86.6,64.2,87.6,65.3,80.7z"/>
				</defs>
				<clipPath id="SVGID_50_">
					<use xlink:href="#SVGID_49_"  style="overflow:visible;"/>
				</clipPath>
				<rect x="35.9" y="67.7" class="st24" width="42" height="1.2"/>
			</g>
			<g>
				<defs>
					<path id="SVGID_51_" d="M65.3,80.7c0.6-3.7,6.9-23.6,12.6-41.3h-35c-3.8,0-7,2.9-7,6.4v58.6c0,3.5,3.1,6.4,7,6.4h28
						c0.1-11.7,5.4-24.2,5.4-24.2C68.2,86.6,64.2,87.6,65.3,80.7z"/>
				</defs>
				<clipPath id="SVGID_52_">
					<use xlink:href="#SVGID_51_"  style="overflow:visible;"/>
				</clipPath>
				<rect x="35.9" y="69" class="st25" width="42" height="1.2"/>
			</g>
			<g>
				<defs>
					<path id="SVGID_53_" d="M65.3,80.7c0.6-3.7,6.9-23.6,12.6-41.3h-35c-3.8,0-7,2.9-7,6.4v58.6c0,3.5,3.1,6.4,7,6.4h28
						c0.1-11.7,5.4-24.2,5.4-24.2C68.2,86.6,64.2,87.6,65.3,80.7z"/>
				</defs>
				<clipPath id="SVGID_54_">
					<use xlink:href="#SVGID_53_"  style="overflow:visible;"/>
				</clipPath>
				<rect x="35.9" y="70.2" class="st26" width="42" height="1.2"/>
			</g>
			<g>
				<defs>
					<path id="SVGID_55_" d="M65.3,80.7c0.6-3.7,6.9-23.6,12.6-41.3h-35c-3.8,0-7,2.9-7,6.4v58.6c0,3.5,3.1,6.4,7,6.4h28
						c0.1-11.7,5.4-24.2,5.4-24.2C68.2,86.6,64.2,87.6,65.3,80.7z"/>
				</defs>
				<clipPath id="SVGID_56_">
					<use xlink:href="#SVGID_55_"  style="overflow:visible;"/>
				</clipPath>
				<rect x="35.9" y="71.3" class="st27" width="42" height="1.2"/>
			</g>
			<g>
				<defs>
					<path id="SVGID_57_" d="M65.3,80.7c0.6-3.7,6.9-23.6,12.6-41.3h-35c-3.8,0-7,2.9-7,6.4v58.6c0,3.5,3.1,6.4,7,6.4h28
						c0.1-11.7,5.4-24.2,5.4-24.2C68.2,86.6,64.2,87.6,65.3,80.7z"/>
				</defs>
				<clipPath id="SVGID_58_">
					<use xlink:href="#SVGID_57_"  style="overflow:visible;"/>
				</clipPath>
				<rect x="35.9" y="72.7" class="st28" width="42" height="1.2"/>
			</g>
			<g>
				<defs>
					<path id="SVGID_59_" d="M65.3,80.7c0.6-3.7,6.9-23.6,12.6-41.3h-35c-3.8,0-7,2.9-7,6.4v58.6c0,3.5,3.1,6.4,7,6.4h28
						c0.1-11.7,5.4-24.2,5.4-24.2C68.2,86.6,64.2,87.6,65.3,80.7z"/>
				</defs>
				<clipPath id="SVGID_60_">
					<use xlink:href="#SVGID_59_"  style="overflow:visible;"/>
				</clipPath>
				<rect x="35.9" y="73.8" class="st29" width="42" height="1.2"/>
			</g>
			<g>
				<defs>
					<path id="SVGID_61_" d="M65.3,80.7c0.6-3.7,6.9-23.6,12.6-41.3h-35c-3.8,0-7,2.9-7,6.4v58.6c0,3.5,3.1,6.4,7,6.4h28
						c0.1-11.7,5.4-24.2,5.4-24.2C68.2,86.6,64.2,87.6,65.3,80.7z"/>
				</defs>
				<clipPath id="SVGID_62_">
					<use xlink:href="#SVGID_61_"  style="overflow:visible;"/>
				</clipPath>
				<rect x="35.9" y="75.1" class="st30" width="42" height="1.2"/>
			</g>
			<g>
				<defs>
					<path id="SVGID_63_" d="M65.3,80.7c0.6-3.7,6.9-23.6,12.6-41.3h-35c-3.8,0-7,2.9-7,6.4v58.6c0,3.5,3.1,6.4,7,6.4h28
						c0.1-11.7,5.4-24.2,5.4-24.2C68.2,86.6,64.2,87.6,65.3,80.7z"/>
				</defs>
				<clipPath id="SVGID_64_">
					<use xlink:href="#SVGID_63_"  style="overflow:visible;"/>
				</clipPath>
				<rect x="35.9" y="76.2" class="st31" width="42" height="1.2"/>
			</g>
			<g>
				<defs>
					<path id="SVGID_65_" d="M65.3,80.7c0.6-3.7,6.9-23.6,12.6-41.3h-35c-3.8,0-7,2.9-7,6.4v58.6c0,3.5,3.1,6.4,7,6.4h28
						c0.1-11.7,5.4-24.2,5.4-24.2C68.2,86.6,64.2,87.6,65.3,80.7z"/>
				</defs>
				<clipPath id="SVGID_66_">
					<use xlink:href="#SVGID_65_"  style="overflow:visible;"/>
				</clipPath>
				<rect x="35.9" y="77.6" class="st32" width="42" height="1.2"/>
			</g>
			<g>
				<defs>
					<path id="SVGID_67_" d="M65.3,80.7c0.6-3.7,6.9-23.6,12.6-41.3h-35c-3.8,0-7,2.9-7,6.4v58.6c0,3.5,3.1,6.4,7,6.4h28
						c0.1-11.7,5.4-24.2,5.4-24.2C68.2,86.6,64.2,87.6,65.3,80.7z"/>
				</defs>
				<clipPath id="SVGID_68_">
					<use xlink:href="#SVGID_67_"  style="overflow:visible;"/>
				</clipPath>
				<rect x="35.9" y="78.8" class="st33" width="42" height="1.2"/>
			</g>
			<g>
				<defs>
					<path id="SVGID_69_" d="M65.3,80.7c0.6-3.7,6.9-23.6,12.6-41.3h-35c-3.8,0-7,2.9-7,6.4v58.6c0,3.5,3.1,6.4,7,6.4h28
						c0.1-11.7,5.4-24.2,5.4-24.2C68.2,86.6,64.2,87.6,65.3,80.7z"/>
				</defs>
				<clipPath id="SVGID_70_">
					<use xlink:href="#SVGID_69_"  style="overflow:visible;"/>
				</clipPath>
				<rect x="35.9" y="80" class="st34" width="42" height="1.2"/>
			</g>
			<g>
				<defs>
					<path id="SVGID_71_" d="M65.3,80.7c0.6-3.7,6.9-23.6,12.6-41.3h-35c-3.8,0-7,2.9-7,6.4v58.6c0,3.5,3.1,6.4,7,6.4h28
						c0.1-11.7,5.4-24.2,5.4-24.2C68.2,86.6,64.2,87.6,65.3,80.7z"/>
				</defs>
				<clipPath id="SVGID_72_">
					<use xlink:href="#SVGID_71_"  style="overflow:visible;"/>
				</clipPath>
				<rect x="35.9" y="81.2" class="st35" width="42" height="1.2"/>
			</g>
			<g>
				<defs>
					<path id="SVGID_73_" d="M65.3,80.7c0.6-3.7,6.9-23.6,12.6-41.3h-35c-3.8,0-7,2.9-7,6.4v58.6c0,3.5,3.1,6.4,7,6.4h28
						c0.1-11.7,5.4-24.2,5.4-24.2C68.2,86.6,64.2,87.6,65.3,80.7z"/>
				</defs>
				<clipPath id="SVGID_74_">
					<use xlink:href="#SVGID_73_"  style="overflow:visible;"/>
				</clipPath>
				<rect x="35.9" y="82.5" class="st36" width="42" height="1.2"/>
			</g>
			<g>
				<defs>
					<path id="SVGID_75_" d="M65.3,80.7c0.6-3.7,6.9-23.6,12.6-41.3h-35c-3.8,0-7,2.9-7,6.4v58.6c0,3.5,3.1,6.4,7,6.4h28
						c0.1-11.7,5.4-24.2,5.4-24.2C68.2,86.6,64.2,87.6,65.3,80.7z"/>
				</defs>
				<clipPath id="SVGID_76_">
					<use xlink:href="#SVGID_75_"  style="overflow:visible;"/>
				</clipPath>
				<rect x="35.9" y="83.7" class="st37" width="42" height="1.2"/>
			</g>
			<g>
				<defs>
					<path id="SVGID_77_" d="M65.3,80.7c0.6-3.7,6.9-23.6,12.6-41.3h-35c-3.8,0-7,2.9-7,6.4v58.6c0,3.5,3.1,6.4,7,6.4h28
						c0.1-11.7,5.4-24.2,5.4-24.2C68.2,86.6,64.2,87.6,65.3,80.7z"/>
				</defs>
				<clipPath id="SVGID_78_">
					<use xlink:href="#SVGID_77_"  style="overflow:visible;"/>
				</clipPath>
				<rect x="35.9" y="85" class="st38" width="42" height="1.2"/>
			</g>
			<g>
				<defs>
					<path id="SVGID_79_" d="M65.3,80.7c0.6-3.7,6.9-23.6,12.6-41.3h-35c-3.8,0-7,2.9-7,6.4v58.6c0,3.5,3.1,6.4,7,6.4h28
						c0.1-11.7,5.4-24.2,5.4-24.2C68.2,86.6,64.2,87.6,65.3,80.7z"/>
				</defs>
				<clipPath id="SVGID_80_">
					<use xlink:href="#SVGID_79_"  style="overflow:visible;"/>
				</clipPath>
				<rect x="35.9" y="86.2" class="st39" width="42" height="1.2"/>
			</g>
			<g>
				<defs>
					<path id="SVGID_81_" d="M65.3,80.7c0.6-3.7,6.9-23.6,12.6-41.3h-35c-3.8,0-7,2.9-7,6.4v58.6c0,3.5,3.1,6.4,7,6.4h28
						c0.1-11.7,5.4-24.2,5.4-24.2C68.2,86.6,64.2,87.6,65.3,80.7z"/>
				</defs>
				<clipPath id="SVGID_82_">
					<use xlink:href="#SVGID_81_"  style="overflow:visible;"/>
				</clipPath>
				<rect x="35.9" y="87.3" class="st40" width="42" height="1.2"/>
			</g>
			<g>
				<defs>
					<path id="SVGID_83_" d="M65.3,80.7c0.6-3.7,6.9-23.6,12.6-41.3h-35c-3.8,0-7,2.9-7,6.4v58.6c0,3.5,3.1,6.4,7,6.4h28
						c0.1-11.7,5.4-24.2,5.4-24.2C68.2,86.6,64.2,87.6,65.3,80.7z"/>
				</defs>
				<clipPath id="SVGID_84_">
					<use xlink:href="#SVGID_83_"  style="overflow:visible;"/>
				</clipPath>
				<rect x="35.9" y="88.7" class="st41" width="42" height="1.2"/>
			</g>
			<g>
				<defs>
					<path id="SVGID_85_" d="M65.3,80.7c0.6-3.7,6.9-23.6,12.6-41.3h-35c-3.8,0-7,2.9-7,6.4v58.6c0,3.5,3.1,6.4,7,6.4h28
						c0.1-11.7,5.4-24.2,5.4-24.2C68.2,86.6,64.2,87.6,65.3,80.7z"/>
				</defs>
				<clipPath id="SVGID_86_">
					<use xlink:href="#SVGID_85_"  style="overflow:visible;"/>
				</clipPath>
				<rect x="35.9" y="89.8" class="st42" width="42" height="1.2"/>
			</g>
			<g>
				<defs>
					<path id="SVGID_87_" d="M65.3,80.7c0.6-3.7,6.9-23.6,12.6-41.3h-35c-3.8,0-7,2.9-7,6.4v58.6c0,3.5,3.1,6.4,7,6.4h28
						c0.1-11.7,5.4-24.2,5.4-24.2C68.2,86.6,64.2,87.6,65.3,80.7z"/>
				</defs>
				<clipPath id="SVGID_88_">
					<use xlink:href="#SVGID_87_"  style="overflow:visible;"/>
				</clipPath>
				<rect x="35.9" y="91.1" class="st43" width="42" height="1.2"/>
			</g>
			<g>
				<defs>
					<path id="SVGID_89_" d="M65.3,80.7c0.6-3.7,6.9-23.6,12.6-41.3h-35c-3.8,0-7,2.9-7,6.4v58.6c0,3.5,3.1,6.4,7,6.4h28
						c0.1-11.7,5.4-24.2,5.4-24.2C68.2,86.6,64.2,87.6,65.3,80.7z"/>
				</defs>
				<clipPath id="SVGID_90_">
					<use xlink:href="#SVGID_89_"  style="overflow:visible;"/>
				</clipPath>
				<rect x="35.9" y="92.2" class="st44" width="42" height="1.2"/>
			</g>
			<g>
				<defs>
					<path id="SVGID_91_" d="M65.3,80.7c0.6-3.7,6.9-23.6,12.6-41.3h-35c-3.8,0-7,2.9-7,6.4v58.6c0,3.5,3.1,6.4,7,6.4h28
						c0.1-11.7,5.4-24.2,5.4-24.2C68.2,86.6,64.2,87.6,65.3,80.7z"/>
				</defs>
				<clipPath id="SVGID_92_">
					<use xlink:href="#SVGID_91_"  style="overflow:visible;"/>
				</clipPath>
				<rect x="35.9" y="93.6" class="st45" width="42" height="1.2"/>
			</g>
			<g>
				<defs>
					<path id="SVGID_93_" d="M65.3,80.7c0.6-3.7,6.9-23.6,12.6-41.3h-35c-3.8,0-7,2.9-7,6.4v58.6c0,3.5,3.1,6.4,7,6.4h28
						c0.1-11.7,5.4-24.2,5.4-24.2C68.2,86.6,64.2,87.6,65.3,80.7z"/>
				</defs>
				<clipPath id="SVGID_94_">
					<use xlink:href="#SVGID_93_"  style="overflow:visible;"/>
				</clipPath>
				<rect x="35.9" y="94.8" class="st46" width="42" height="1.2"/>
			</g>
			<g>
				<defs>
					<path id="SVGID_95_" d="M65.3,80.7c0.6-3.7,6.9-23.6,12.6-41.3h-35c-3.8,0-7,2.9-7,6.4v58.6c0,3.5,3.1,6.4,7,6.4h28
						c0.1-11.7,5.4-24.2,5.4-24.2C68.2,86.6,64.2,87.6,65.3,80.7z"/>
				</defs>
				<clipPath id="SVGID_96_">
					<use xlink:href="#SVGID_95_"  style="overflow:visible;"/>
				</clipPath>
				<rect x="35.9" y="96" class="st47" width="42" height="1.2"/>
			</g>
			<g>
				<defs>
					<path id="SVGID_97_" d="M65.3,80.7c0.6-3.7,6.9-23.6,12.6-41.3h-35c-3.8,0-7,2.9-7,6.4v58.6c0,3.5,3.1,6.4,7,6.4h28
						c0.1-11.7,5.4-24.2,5.4-24.2C68.2,86.6,64.2,87.6,65.3,80.7z"/>
				</defs>
				<clipPath id="SVGID_98_">
					<use xlink:href="#SVGID_97_"  style="overflow:visible;"/>
				</clipPath>
				<rect x="35.9" y="97.2" class="st48" width="42" height="1.2"/>
			</g>
			<g>
				<defs>
					<path id="SVGID_99_" d="M65.3,80.7c0.6-3.7,6.9-23.6,12.6-41.3h-35c-3.8,0-7,2.9-7,6.4v58.6c0,3.5,3.1,6.4,7,6.4h28
						c0.1-11.7,5.4-24.2,5.4-24.2C68.2,86.6,64.2,87.6,65.3,80.7z"/>
				</defs>
				<clipPath id="SVGID_100_">
					<use xlink:href="#SVGID_99_"  style="overflow:visible;"/>
				</clipPath>
				<rect x="35.9" y="98.5" class="st49" width="42" height="1.2"/>
			</g>
			<g>
				<defs>
					<path id="SVGID_101_" d="M65.3,80.7c0.6-3.7,6.9-23.6,12.6-41.3h-35c-3.8,0-7,2.9-7,6.4v58.6c0,3.5,3.1,6.4,7,6.4h28
						c0.1-11.7,5.4-24.2,5.4-24.2C68.2,86.6,64.2,87.6,65.3,80.7z"/>
				</defs>
				<clipPath id="SVGID_102_">
					<use xlink:href="#SVGID_101_"  style="overflow:visible;"/>
				</clipPath>
				<rect x="35.9" y="99.7" class="st50" width="42" height="1.2"/>
			</g>
			<g>
				<defs>
					<path id="SVGID_103_" d="M65.3,80.7c0.6-3.7,6.9-23.6,12.6-41.3h-35c-3.8,0-7,2.9-7,6.4v58.6c0,3.5,3.1,6.4,7,6.4h28
						c0.1-11.7,5.4-24.2,5.4-24.2C68.2,86.6,64.2,87.6,65.3,80.7z"/>
				</defs>
				<clipPath id="SVGID_104_">
					<use xlink:href="#SVGID_103_"  style="overflow:visible;"/>
				</clipPath>
				<rect x="35.9" y="101" class="st51" width="42" height="1.2"/>
			</g>
			<g>
				<defs>
					<path id="SVGID_105_" d="M65.3,80.7c0.6-3.7,6.9-23.6,12.6-41.3h-35c-3.8,0-7,2.9-7,6.4v58.6c0,3.5,3.1,6.4,7,6.4h28
						c0.1-11.7,5.4-24.2,5.4-24.2C68.2,86.6,64.2,87.6,65.3,80.7z"/>
				</defs>
				<clipPath id="SVGID_106_">
					<use xlink:href="#SVGID_105_"  style="overflow:visible;"/>
				</clipPath>
				<rect x="35.9" y="102.2" class="st52" width="42" height="1.2"/>
			</g>
			<g>
				<defs>
					<path id="SVGID_107_" d="M65.3,80.7c0.6-3.7,6.9-23.6,12.6-41.3h-35c-3.8,0-7,2.9-7,6.4v58.6c0,3.5,3.1,6.4,7,6.4h28
						c0.1-11.7,5.4-24.2,5.4-24.2C68.2,86.6,64.2,87.6,65.3,80.7z"/>
				</defs>
				<clipPath id="SVGID_108_">
					<use xlink:href="#SVGID_107_"  style="overflow:visible;"/>
				</clipPath>
				<rect x="35.9" y="103.3" class="st53" width="42" height="1.2"/>
			</g>
			<g>
				<defs>
					<path id="SVGID_109_" d="M65.3,80.7c0.6-3.7,6.9-23.6,12.6-41.3h-35c-3.8,0-7,2.9-7,6.4v58.6c0,3.5,3.1,6.4,7,6.4h28
						c0.1-11.7,5.4-24.2,5.4-24.2C68.2,86.6,64.2,87.6,65.3,80.7z"/>
				</defs>
				<clipPath id="SVGID_110_">
					<use xlink:href="#SVGID_109_"  style="overflow:visible;"/>
				</clipPath>
				<rect x="35.9" y="104.7" class="st54" width="42" height="1.2"/>
			</g>
			<g>
				<defs>
					<path id="SVGID_111_" d="M65.3,80.7c0.6-3.7,6.9-23.6,12.6-41.3h-35c-3.8,0-7,2.9-7,6.4v58.6c0,3.5,3.1,6.4,7,6.4h28
						c0.1-11.7,5.4-24.2,5.4-24.2C68.2,86.6,64.2,87.6,65.3,80.7z"/>
				</defs>
				<clipPath id="SVGID_112_">
					<use xlink:href="#SVGID_111_"  style="overflow:visible;"/>
				</clipPath>
				<rect x="35.9" y="105.8" class="st55" width="42" height="1.2"/>
			</g>
			<g>
				<defs>
					<path id="SVGID_113_" d="M65.3,80.7c0.6-3.7,6.9-23.6,12.6-41.3h-35c-3.8,0-7,2.9-7,6.4v58.6c0,3.5,3.1,6.4,7,6.4h28
						c0.1-11.7,5.4-24.2,5.4-24.2C68.2,86.6,64.2,87.6,65.3,80.7z"/>
				</defs>
				<clipPath id="SVGID_114_">
					<use xlink:href="#SVGID_113_"  style="overflow:visible;"/>
				</clipPath>
				<rect x="35.9" y="107.1" class="st56" width="42" height="1.2"/>
			</g>
			<g>
				<defs>
					<path id="SVGID_115_" d="M65.3,80.7c0.6-3.7,6.9-23.6,12.6-41.3h-35c-3.8,0-7,2.9-7,6.4v58.6c0,3.5,3.1,6.4,7,6.4h28
						c0.1-11.7,5.4-24.2,5.4-24.2C68.2,86.6,64.2,87.6,65.3,80.7z"/>
				</defs>
				<clipPath id="SVGID_116_">
					<use xlink:href="#SVGID_115_"  style="overflow:visible;"/>
				</clipPath>
				<rect x="35.9" y="108.3" class="st57" width="42" height="1.2"/>
			</g>
			<g>
				<defs>
					<path id="SVGID_117_" d="M65.3,80.7c0.6-3.7,6.9-23.6,12.6-41.3h-35c-3.8,0-7,2.9-7,6.4v58.6c0,3.5,3.1,6.4,7,6.4h28
						c0.1-11.7,5.4-24.2,5.4-24.2C68.2,86.6,64.2,87.6,65.3,80.7z"/>
				</defs>
				<clipPath id="SVGID_118_">
					<use xlink:href="#SVGID_117_"  style="overflow:visible;"/>
				</clipPath>
				<rect x="35.9" y="109.6" class="st58" width="42" height="1.2"/>
			</g>
			<g>
				<defs>
					<path id="SVGID_119_" d="M65.3,80.7c0.6-3.7,6.9-23.6,12.6-41.3h-35c-3.8,0-7,2.9-7,6.4v58.6c0,3.5,3.1,6.4,7,6.4h28
						c0.1-11.7,5.4-24.2,5.4-24.2C68.2,86.6,64.2,87.6,65.3,80.7z"/>
				</defs>
				<clipPath id="SVGID_120_">
					<use xlink:href="#SVGID_119_"  style="overflow:visible;"/>
				</clipPath>
				<path class="st59" d="M35.9,110.8h42H35.9z"/>
			</g>
		</g>
		<path d="M71.8,111.6H42.9c-4.3,0-7.8-3.2-7.8-7.2V45.8c0-4,3.5-7.2,7.8-7.2h36.2l-0.4,1.1c-7.8,24-12.1,38.2-12.6,41.2
			c-0.3,2-0.2,3.3,0.4,3.9c0.9,1.1,3.5,1.1,7,1c0.9,0,1.9,0,2.9,0h1.3l-0.5,1.2c-0.1,0.1-5.3,12.5-5.4,23.9L71.8,111.6z M42.9,40.2
			c-3.4,0-6.2,2.5-6.2,5.6v58.6c0,3.1,2.8,5.6,6.2,5.6h27.2c0.3-9.6,3.7-19.3,5-22.6c-0.6,0-1.1,0-1.6,0c-4.1,0.1-6.8,0.1-8.3-1.6
			c-0.9-1.1-1.2-2.7-0.7-5.3l0,0c0.5-3,4.7-16.6,12.3-40.3C76.9,40.1,42.9,40.1,42.9,40.2z"/>
	</g>
	<g>
		<path class="st60" d="M114,104.3V45.8c0-3.5-3.1-6.4-7-6.4H78C72.3,57,66,76.9,65.4,80.7c-1.2,6.9,2.9,5.9,11.1,5.9
			c0,0-5.3,12.5-5.4,24.2h36C110.8,110.8,114,107.8,114,104.3z"/>
		<path d="M106.9,111.6H70.2v-0.8c0.1-9.8,3.7-20,5-23.4c-0.6,0-1.1,0-1.6,0c-4.1,0.1-6.8,0.1-8.3-1.6c-0.9-1.1-1.2-2.7-0.7-5.3
			c0.5-3.1,4.8-17,12.7-41.4l0.2-0.6H107c4.3,0,7.8,3.2,7.8,7.2v58.6C114.7,108.3,111.2,111.6,106.9,111.6z M71.8,110h35.1
			c3.4,0,6.2-2.5,6.2-5.6V45.8c0-3.1-2.8-5.6-6.2-5.6H78.5c-7.6,23.6-11.9,37.7-12.4,40.6c-0.3,2-0.2,3.3,0.4,3.9
			c0.9,1.1,3.5,1.1,7,1c0.9,0,1.9,0,2.9,0h1.3l-0.5,1.2C77.2,87,72.2,98.8,71.8,110z"/>
	</g>
	<g>
		<path d="M73.8,100.3c-5.2,0-10.4-1.8-14.5-5.5c-0.3-0.3-0.4-0.8-0.1-1.2c0.3-0.3,0.8-0.4,1.2-0.1c7.6,6.7,19.2,6.7,26.8,0
			c0.3-0.3,0.9-0.3,1.2,0.1c0.3,0.3,0.3,0.9-0.1,1.2C84.2,98.6,78.9,100.3,73.8,100.3z"/>
	</g>
	<g>
		<path d="M54.7,72.3h-0.2c-1.2,0-2.2-1-2.2-2.2v-2.5c0-1.2,1-2.2,2.2-2.2h0.2c1.2,0,2.2,1,2.2,2.2v2.5
			C56.9,71.3,55.9,72.3,54.7,72.3z"/>
	</g>
	<g>
		<path d="M89.7,72.3h-0.2c-1.2,0-2.2-1-2.2-2.2v-2.5c0-1.2,1-2.2,2.2-2.2h0.2c1.2,0,2.2,1,2.2,2.2v2.5
			C91.8,71.3,90.8,72.3,89.7,72.3z"/>
	</g>
</g>
<rect x="-302" y="13" class="st61" width="130" height="130"/>
<g>
	<g>
		<g>
			<g>
				<defs>
					<path id="SVGID_121_" d="M-246.6,83.7c0.6-3.7,6.9-23.6,12.6-41.3h-35c-3.8,0-7,2.9-7,6.4v58.6c0,3.5,3.1,6.4,7,6.4h28
						c0.1-11.7,5.4-24.2,5.4-24.2C-243.8,89.6-247.8,90.6-246.6,83.7z"/>
				</defs>
				<clipPath id="SVGID_122_">
					<use xlink:href="#SVGID_121_"  style="overflow:visible;"/>
				</clipPath>
				<path class="st62" d="M-234.1,42.4h-42H-234.1z"/>
			</g>
			<g>
				<defs>
					<path id="SVGID_123_" d="M-246.6,83.7c0.6-3.7,6.9-23.6,12.6-41.3h-35c-3.8,0-7,2.9-7,6.4v58.6c0,3.5,3.1,6.4,7,6.4h28
						c0.1-11.7,5.4-24.2,5.4-24.2C-243.8,89.6-247.8,90.6-246.6,83.7z"/>
				</defs>
				<clipPath id="SVGID_124_">
					<use xlink:href="#SVGID_123_"  style="overflow:visible;"/>
				</clipPath>
				<rect x="-276" y="42.4" class="st63" width="42" height="1.2"/>
			</g>
			<g>
				<defs>
					<path id="SVGID_125_" d="M-246.6,83.7c0.6-3.7,6.9-23.6,12.6-41.3h-35c-3.8,0-7,2.9-7,6.4v58.6c0,3.5,3.1,6.4,7,6.4h28
						c0.1-11.7,5.4-24.2,5.4-24.2C-243.8,89.6-247.8,90.6-246.6,83.7z"/>
				</defs>
				<clipPath id="SVGID_126_">
					<use xlink:href="#SVGID_125_"  style="overflow:visible;"/>
				</clipPath>
				<rect x="-276" y="43.6" class="st64" width="42" height="1.2"/>
			</g>
			<g>
				<defs>
					<path id="SVGID_127_" d="M-246.6,83.7c0.6-3.7,6.9-23.6,12.6-41.3h-35c-3.8,0-7,2.9-7,6.4v58.6c0,3.5,3.1,6.4,7,6.4h28
						c0.1-11.7,5.4-24.2,5.4-24.2C-243.8,89.6-247.8,90.6-246.6,83.7z"/>
				</defs>
				<clipPath id="SVGID_128_">
					<use xlink:href="#SVGID_127_"  style="overflow:visible;"/>
				</clipPath>
				<rect x="-276" y="44.9" class="st65" width="42" height="1.2"/>
			</g>
			<g>
				<defs>
					<path id="SVGID_129_" d="M-246.6,83.7c0.6-3.7,6.9-23.6,12.6-41.3h-35c-3.8,0-7,2.9-7,6.4v58.6c0,3.5,3.1,6.4,7,6.4h28
						c0.1-11.7,5.4-24.2,5.4-24.2C-243.8,89.6-247.8,90.6-246.6,83.7z"/>
				</defs>
				<clipPath id="SVGID_130_">
					<use xlink:href="#SVGID_129_"  style="overflow:visible;"/>
				</clipPath>
				<rect x="-276" y="46.1" class="st66" width="42" height="1.2"/>
			</g>
			<g>
				<defs>
					<path id="SVGID_131_" d="M-246.6,83.7c0.6-3.7,6.9-23.6,12.6-41.3h-35c-3.8,0-7,2.9-7,6.4v58.6c0,3.5,3.1,6.4,7,6.4h28
						c0.1-11.7,5.4-24.2,5.4-24.2C-243.8,89.6-247.8,90.6-246.6,83.7z"/>
				</defs>
				<clipPath id="SVGID_132_">
					<use xlink:href="#SVGID_131_"  style="overflow:visible;"/>
				</clipPath>
				<rect x="-276" y="47.2" class="st67" width="42" height="1.2"/>
			</g>
			<g>
				<defs>
					<path id="SVGID_133_" d="M-246.6,83.7c0.6-3.7,6.9-23.6,12.6-41.3h-35c-3.8,0-7,2.9-7,6.4v58.6c0,3.5,3.1,6.4,7,6.4h28
						c0.1-11.7,5.4-24.2,5.4-24.2C-243.8,89.6-247.8,90.6-246.6,83.7z"/>
				</defs>
				<clipPath id="SVGID_134_">
					<use xlink:href="#SVGID_133_"  style="overflow:visible;"/>
				</clipPath>
				<rect x="-276" y="48.6" class="st68" width="42" height="1.2"/>
			</g>
			<g>
				<defs>
					<path id="SVGID_135_" d="M-246.6,83.7c0.6-3.7,6.9-23.6,12.6-41.3h-35c-3.8,0-7,2.9-7,6.4v58.6c0,3.5,3.1,6.4,7,6.4h28
						c0.1-11.7,5.4-24.2,5.4-24.2C-243.8,89.6-247.8,90.6-246.6,83.7z"/>
				</defs>
				<clipPath id="SVGID_136_">
					<use xlink:href="#SVGID_135_"  style="overflow:visible;"/>
				</clipPath>
				<rect x="-276" y="49.8" class="st69" width="42" height="1.2"/>
			</g>
			<g>
				<defs>
					<path id="SVGID_137_" d="M-246.6,83.7c0.6-3.7,6.9-23.6,12.6-41.3h-35c-3.8,0-7,2.9-7,6.4v58.6c0,3.5,3.1,6.4,7,6.4h28
						c0.1-11.7,5.4-24.2,5.4-24.2C-243.8,89.6-247.8,90.6-246.6,83.7z"/>
				</defs>
				<clipPath id="SVGID_138_">
					<use xlink:href="#SVGID_137_"  style="overflow:visible;"/>
				</clipPath>
				<rect x="-276" y="51" class="st70" width="42" height="1.2"/>
			</g>
			<g>
				<defs>
					<path id="SVGID_139_" d="M-246.6,83.7c0.6-3.7,6.9-23.6,12.6-41.3h-35c-3.8,0-7,2.9-7,6.4v58.6c0,3.5,3.1,6.4,7,6.4h28
						c0.1-11.7,5.4-24.2,5.4-24.2C-243.8,89.6-247.8,90.6-246.6,83.7z"/>
				</defs>
				<clipPath id="SVGID_140_">
					<use xlink:href="#SVGID_139_"  style="overflow:visible;"/>
				</clipPath>
				<rect x="-276" y="52.2" class="st71" width="42" height="1.2"/>
			</g>
			<g>
				<defs>
					<path id="SVGID_141_" d="M-246.6,83.7c0.6-3.7,6.9-23.6,12.6-41.3h-35c-3.8,0-7,2.9-7,6.4v58.6c0,3.5,3.1,6.4,7,6.4h28
						c0.1-11.7,5.4-24.2,5.4-24.2C-243.8,89.6-247.8,90.6-246.6,83.7z"/>
				</defs>
				<clipPath id="SVGID_142_">
					<use xlink:href="#SVGID_141_"  style="overflow:visible;"/>
				</clipPath>
				<rect x="-276" y="53.5" class="st72" width="42" height="1.2"/>
			</g>
			<g>
				<defs>
					<path id="SVGID_143_" d="M-246.6,83.7c0.6-3.7,6.9-23.6,12.6-41.3h-35c-3.8,0-7,2.9-7,6.4v58.6c0,3.5,3.1,6.4,7,6.4h28
						c0.1-11.7,5.4-24.2,5.4-24.2C-243.8,89.6-247.8,90.6-246.6,83.7z"/>
				</defs>
				<clipPath id="SVGID_144_">
					<use xlink:href="#SVGID_143_"  style="overflow:visible;"/>
				</clipPath>
				<rect x="-276" y="54.7" class="st73" width="42" height="1.2"/>
			</g>
			<g>
				<defs>
					<path id="SVGID_145_" d="M-246.6,83.7c0.6-3.7,6.9-23.6,12.6-41.3h-35c-3.8,0-7,2.9-7,6.4v58.6c0,3.5,3.1,6.4,7,6.4h28
						c0.1-11.7,5.4-24.2,5.4-24.2C-243.8,89.6-247.8,90.6-246.6,83.7z"/>
				</defs>
				<clipPath id="SVGID_146_">
					<use xlink:href="#SVGID_145_"  style="overflow:visible;"/>
				</clipPath>
				<rect x="-276" y="56" class="st74" width="42" height="1.2"/>
			</g>
			<g>
				<defs>
					<path id="SVGID_147_" d="M-246.6,83.7c0.6-3.7,6.9-23.6,12.6-41.3h-35c-3.8,0-7,2.9-7,6.4v58.6c0,3.5,3.1,6.4,7,6.4h28
						c0.1-11.7,5.4-24.2,5.4-24.2C-243.8,89.6-247.8,90.6-246.6,83.7z"/>
				</defs>
				<clipPath id="SVGID_148_">
					<use xlink:href="#SVGID_147_"  style="overflow:visible;"/>
				</clipPath>
				<rect x="-276" y="57.2" class="st75" width="42" height="1.2"/>
			</g>
			<g>
				<defs>
					<path id="SVGID_149_" d="M-246.6,83.7c0.6-3.7,6.9-23.6,12.6-41.3h-35c-3.8,0-7,2.9-7,6.4v58.6c0,3.5,3.1,6.4,7,6.4h28
						c0.1-11.7,5.4-24.2,5.4-24.2C-243.8,89.6-247.8,90.6-246.6,83.7z"/>
				</defs>
				<clipPath id="SVGID_150_">
					<use xlink:href="#SVGID_149_"  style="overflow:visible;"/>
				</clipPath>
				<rect x="-276" y="58.4" class="st76" width="42" height="1.2"/>
			</g>
			<g>
				<defs>
					<path id="SVGID_151_" d="M-246.6,83.7c0.6-3.7,6.9-23.6,12.6-41.3h-35c-3.8,0-7,2.9-7,6.4v58.6c0,3.5,3.1,6.4,7,6.4h28
						c0.1-11.7,5.4-24.2,5.4-24.2C-243.8,89.6-247.8,90.6-246.6,83.7z"/>
				</defs>
				<clipPath id="SVGID_152_">
					<use xlink:href="#SVGID_151_"  style="overflow:visible;"/>
				</clipPath>
				<rect x="-276" y="59.6" class="st77" width="42" height="1.2"/>
			</g>
			<g>
				<defs>
					<path id="SVGID_153_" d="M-246.6,83.7c0.6-3.7,6.9-23.6,12.6-41.3h-35c-3.8,0-7,2.9-7,6.4v58.6c0,3.5,3.1,6.4,7,6.4h28
						c0.1-11.7,5.4-24.2,5.4-24.2C-243.8,89.6-247.8,90.6-246.6,83.7z"/>
				</defs>
				<clipPath id="SVGID_154_">
					<use xlink:href="#SVGID_153_"  style="overflow:visible;"/>
				</clipPath>
				<rect x="-276" y="60.9" class="st78" width="42" height="1.2"/>
			</g>
			<g>
				<defs>
					<path id="SVGID_155_" d="M-246.6,83.7c0.6-3.7,6.9-23.6,12.6-41.3h-35c-3.8,0-7,2.9-7,6.4v58.6c0,3.5,3.1,6.4,7,6.4h28
						c0.1-11.7,5.4-24.2,5.4-24.2C-243.8,89.6-247.8,90.6-246.6,83.7z"/>
				</defs>
				<clipPath id="SVGID_156_">
					<use xlink:href="#SVGID_155_"  style="overflow:visible;"/>
				</clipPath>
				<rect x="-276" y="62.1" class="st79" width="42" height="1.2"/>
			</g>
			<g>
				<defs>
					<path id="SVGID_157_" d="M-246.6,83.7c0.6-3.7,6.9-23.6,12.6-41.3h-35c-3.8,0-7,2.9-7,6.4v58.6c0,3.5,3.1,6.4,7,6.4h28
						c0.1-11.7,5.4-24.2,5.4-24.2C-243.8,89.6-247.8,90.6-246.6,83.7z"/>
				</defs>
				<clipPath id="SVGID_158_">
					<use xlink:href="#SVGID_157_"  style="overflow:visible;"/>
				</clipPath>
				<rect x="-276" y="63.2" class="st80" width="42" height="1.2"/>
			</g>
			<g>
				<defs>
					<path id="SVGID_159_" d="M-246.6,83.7c0.6-3.7,6.9-23.6,12.6-41.3h-35c-3.8,0-7,2.9-7,6.4v58.6c0,3.5,3.1,6.4,7,6.4h28
						c0.1-11.7,5.4-24.2,5.4-24.2C-243.8,89.6-247.8,90.6-246.6,83.7z"/>
				</defs>
				<clipPath id="SVGID_160_">
					<use xlink:href="#SVGID_159_"  style="overflow:visible;"/>
				</clipPath>
				<rect x="-276" y="64.6" class="st81" width="42" height="1.2"/>
			</g>
			<g>
				<defs>
					<path id="SVGID_161_" d="M-246.6,83.7c0.6-3.7,6.9-23.6,12.6-41.3h-35c-3.8,0-7,2.9-7,6.4v58.6c0,3.5,3.1,6.4,7,6.4h28
						c0.1-11.7,5.4-24.2,5.4-24.2C-243.8,89.6-247.8,90.6-246.6,83.7z"/>
				</defs>
				<clipPath id="SVGID_162_">
					<use xlink:href="#SVGID_161_"  style="overflow:visible;"/>
				</clipPath>
				<rect x="-276" y="65.8" class="st82" width="42" height="1.2"/>
			</g>
			<g>
				<defs>
					<path id="SVGID_163_" d="M-246.6,83.7c0.6-3.7,6.9-23.6,12.6-41.3h-35c-3.8,0-7,2.9-7,6.4v58.6c0,3.5,3.1,6.4,7,6.4h28
						c0.1-11.7,5.4-24.2,5.4-24.2C-243.8,89.6-247.8,90.6-246.6,83.7z"/>
				</defs>
				<clipPath id="SVGID_164_">
					<use xlink:href="#SVGID_163_"  style="overflow:visible;"/>
				</clipPath>
				<rect x="-276" y="67" class="st83" width="42" height="1.2"/>
			</g>
			<g>
				<defs>
					<path id="SVGID_165_" d="M-246.6,83.7c0.6-3.7,6.9-23.6,12.6-41.3h-35c-3.8,0-7,2.9-7,6.4v58.6c0,3.5,3.1,6.4,7,6.4h28
						c0.1-11.7,5.4-24.2,5.4-24.2C-243.8,89.6-247.8,90.6-246.6,83.7z"/>
				</defs>
				<clipPath id="SVGID_166_">
					<use xlink:href="#SVGID_165_"  style="overflow:visible;"/>
				</clipPath>
				<rect x="-276" y="68.2" class="st84" width="42" height="1.2"/>
			</g>
			<g>
				<defs>
					<path id="SVGID_167_" d="M-246.6,83.7c0.6-3.7,6.9-23.6,12.6-41.3h-35c-3.8,0-7,2.9-7,6.4v58.6c0,3.5,3.1,6.4,7,6.4h28
						c0.1-11.7,5.4-24.2,5.4-24.2C-243.8,89.6-247.8,90.6-246.6,83.7z"/>
				</defs>
				<clipPath id="SVGID_168_">
					<use xlink:href="#SVGID_167_"  style="overflow:visible;"/>
				</clipPath>
				<rect x="-276" y="69.5" class="st85" width="42" height="1.2"/>
			</g>
			<g>
				<defs>
					<path id="SVGID_169_" d="M-246.6,83.7c0.6-3.7,6.9-23.6,12.6-41.3h-35c-3.8,0-7,2.9-7,6.4v58.6c0,3.5,3.1,6.4,7,6.4h28
						c0.1-11.7,5.4-24.2,5.4-24.2C-243.8,89.6-247.8,90.6-246.6,83.7z"/>
				</defs>
				<clipPath id="SVGID_170_">
					<use xlink:href="#SVGID_169_"  style="overflow:visible;"/>
				</clipPath>
				<rect x="-276" y="70.7" class="st86" width="42" height="1.2"/>
			</g>
			<g>
				<defs>
					<path id="SVGID_171_" d="M-246.6,83.7c0.6-3.7,6.9-23.6,12.6-41.3h-35c-3.8,0-7,2.9-7,6.4v58.6c0,3.5,3.1,6.4,7,6.4h28
						c0.1-11.7,5.4-24.2,5.4-24.2C-243.8,89.6-247.8,90.6-246.6,83.7z"/>
				</defs>
				<clipPath id="SVGID_172_">
					<use xlink:href="#SVGID_171_"  style="overflow:visible;"/>
				</clipPath>
				<rect x="-276" y="72" class="st87" width="42" height="1.2"/>
			</g>
			<g>
				<defs>
					<path id="SVGID_173_" d="M-246.6,83.7c0.6-3.7,6.9-23.6,12.6-41.3h-35c-3.8,0-7,2.9-7,6.4v58.6c0,3.5,3.1,6.4,7,6.4h28
						c0.1-11.7,5.4-24.2,5.4-24.2C-243.8,89.6-247.8,90.6-246.6,83.7z"/>
				</defs>
				<clipPath id="SVGID_174_">
					<use xlink:href="#SVGID_173_"  style="overflow:visible;"/>
				</clipPath>
				<rect x="-276" y="73.2" class="st88" width="42" height="1.2"/>
			</g>
			<g>
				<defs>
					<path id="SVGID_175_" d="M-246.6,83.7c0.6-3.7,6.9-23.6,12.6-41.3h-35c-3.8,0-7,2.9-7,6.4v58.6c0,3.5,3.1,6.4,7,6.4h28
						c0.1-11.7,5.4-24.2,5.4-24.2C-243.8,89.6-247.8,90.6-246.6,83.7z"/>
				</defs>
				<clipPath id="SVGID_176_">
					<use xlink:href="#SVGID_175_"  style="overflow:visible;"/>
				</clipPath>
				<rect x="-276" y="74.3" class="st89" width="42" height="1.2"/>
			</g>
			<g>
				<defs>
					<path id="SVGID_177_" d="M-246.6,83.7c0.6-3.7,6.9-23.6,12.6-41.3h-35c-3.8,0-7,2.9-7,6.4v58.6c0,3.5,3.1,6.4,7,6.4h28
						c0.1-11.7,5.4-24.2,5.4-24.2C-243.8,89.6-247.8,90.6-246.6,83.7z"/>
				</defs>
				<clipPath id="SVGID_178_">
					<use xlink:href="#SVGID_177_"  style="overflow:visible;"/>
				</clipPath>
				<rect x="-276" y="75.7" class="st90" width="42" height="1.2"/>
			</g>
			<g>
				<defs>
					<path id="SVGID_179_" d="M-246.6,83.7c0.6-3.7,6.9-23.6,12.6-41.3h-35c-3.8,0-7,2.9-7,6.4v58.6c0,3.5,3.1,6.4,7,6.4h28
						c0.1-11.7,5.4-24.2,5.4-24.2C-243.8,89.6-247.8,90.6-246.6,83.7z"/>
				</defs>
				<clipPath id="SVGID_180_">
					<use xlink:href="#SVGID_179_"  style="overflow:visible;"/>
				</clipPath>
				<rect x="-276" y="76.8" class="st91" width="42" height="1.2"/>
			</g>
			<g>
				<defs>
					<path id="SVGID_181_" d="M-246.6,83.7c0.6-3.7,6.9-23.6,12.6-41.3h-35c-3.8,0-7,2.9-7,6.4v58.6c0,3.5,3.1,6.4,7,6.4h28
						c0.1-11.7,5.4-24.2,5.4-24.2C-243.8,89.6-247.8,90.6-246.6,83.7z"/>
				</defs>
				<clipPath id="SVGID_182_">
					<use xlink:href="#SVGID_181_"  style="overflow:visible;"/>
				</clipPath>
				<rect x="-276" y="78.1" class="st92" width="42" height="1.2"/>
			</g>
			<g>
				<defs>
					<path id="SVGID_183_" d="M-246.6,83.7c0.6-3.7,6.9-23.6,12.6-41.3h-35c-3.8,0-7,2.9-7,6.4v58.6c0,3.5,3.1,6.4,7,6.4h28
						c0.1-11.7,5.4-24.2,5.4-24.2C-243.8,89.6-247.8,90.6-246.6,83.7z"/>
				</defs>
				<clipPath id="SVGID_184_">
					<use xlink:href="#SVGID_183_"  style="overflow:visible;"/>
				</clipPath>
				<rect x="-276" y="79.2" class="st93" width="42" height="1.2"/>
			</g>
			<g>
				<defs>
					<path id="SVGID_185_" d="M-246.6,83.7c0.6-3.7,6.9-23.6,12.6-41.3h-35c-3.8,0-7,2.9-7,6.4v58.6c0,3.5,3.1,6.4,7,6.4h28
						c0.1-11.7,5.4-24.2,5.4-24.2C-243.8,89.6-247.8,90.6-246.6,83.7z"/>
				</defs>
				<clipPath id="SVGID_186_">
					<use xlink:href="#SVGID_185_"  style="overflow:visible;"/>
				</clipPath>
				<rect x="-276" y="80.6" class="st94" width="42" height="1.2"/>
			</g>
			<g>
				<defs>
					<path id="SVGID_187_" d="M-246.6,83.7c0.6-3.7,6.9-23.6,12.6-41.3h-35c-3.8,0-7,2.9-7,6.4v58.6c0,3.5,3.1,6.4,7,6.4h28
						c0.1-11.7,5.4-24.2,5.4-24.2C-243.8,89.6-247.8,90.6-246.6,83.7z"/>
				</defs>
				<clipPath id="SVGID_188_">
					<use xlink:href="#SVGID_187_"  style="overflow:visible;"/>
				</clipPath>
				<rect x="-276" y="81.8" class="st95" width="42" height="1.2"/>
			</g>
			<g>
				<defs>
					<path id="SVGID_189_" d="M-246.6,83.7c0.6-3.7,6.9-23.6,12.6-41.3h-35c-3.8,0-7,2.9-7,6.4v58.6c0,3.5,3.1,6.4,7,6.4h28
						c0.1-11.7,5.4-24.2,5.4-24.2C-243.8,89.6-247.8,90.6-246.6,83.7z"/>
				</defs>
				<clipPath id="SVGID_190_">
					<use xlink:href="#SVGID_189_"  style="overflow:visible;"/>
				</clipPath>
				<rect x="-276" y="83" class="st96" width="42" height="1.2"/>
			</g>
			<g>
				<defs>
					<path id="SVGID_191_" d="M-246.6,83.7c0.6-3.7,6.9-23.6,12.6-41.3h-35c-3.8,0-7,2.9-7,6.4v58.6c0,3.5,3.1,6.4,7,6.4h28
						c0.1-11.7,5.4-24.2,5.4-24.2C-243.8,89.6-247.8,90.6-246.6,83.7z"/>
				</defs>
				<clipPath id="SVGID_192_">
					<use xlink:href="#SVGID_191_"  style="overflow:visible;"/>
				</clipPath>
				<rect x="-276" y="84.2" class="st97" width="42" height="1.2"/>
			</g>
			<g>
				<defs>
					<path id="SVGID_193_" d="M-246.6,83.7c0.6-3.7,6.9-23.6,12.6-41.3h-35c-3.8,0-7,2.9-7,6.4v58.6c0,3.5,3.1,6.4,7,6.4h28
						c0.1-11.7,5.4-24.2,5.4-24.2C-243.8,89.6-247.8,90.6-246.6,83.7z"/>
				</defs>
				<clipPath id="SVGID_194_">
					<use xlink:href="#SVGID_193_"  style="overflow:visible;"/>
				</clipPath>
				<rect x="-276" y="85.5" class="st98" width="42" height="1.2"/>
			</g>
			<g>
				<defs>
					<path id="SVGID_195_" d="M-246.6,83.7c0.6-3.7,6.9-23.6,12.6-41.3h-35c-3.8,0-7,2.9-7,6.4v58.6c0,3.5,3.1,6.4,7,6.4h28
						c0.1-11.7,5.4-24.2,5.4-24.2C-243.8,89.6-247.8,90.6-246.6,83.7z"/>
				</defs>
				<clipPath id="SVGID_196_">
					<use xlink:href="#SVGID_195_"  style="overflow:visible;"/>
				</clipPath>
				<rect x="-276" y="86.7" class="st99" width="42" height="1.2"/>
			</g>
			<g>
				<defs>
					<path id="SVGID_197_" d="M-246.6,83.7c0.6-3.7,6.9-23.6,12.6-41.3h-35c-3.8,0-7,2.9-7,6.4v58.6c0,3.5,3.1,6.4,7,6.4h28
						c0.1-11.7,5.4-24.2,5.4-24.2C-243.8,89.6-247.8,90.6-246.6,83.7z"/>
				</defs>
				<clipPath id="SVGID_198_">
					<use xlink:href="#SVGID_197_"  style="overflow:visible;"/>
				</clipPath>
				<rect x="-276" y="88" class="st100" width="42" height="1.2"/>
			</g>
			<g>
				<defs>
					<path id="SVGID_199_" d="M-246.6,83.7c0.6-3.7,6.9-23.6,12.6-41.3h-35c-3.8,0-7,2.9-7,6.4v58.6c0,3.5,3.1,6.4,7,6.4h28
						c0.1-11.7,5.4-24.2,5.4-24.2C-243.8,89.6-247.8,90.6-246.6,83.7z"/>
				</defs>
				<clipPath id="SVGID_200_">
					<use xlink:href="#SVGID_199_"  style="overflow:visible;"/>
				</clipPath>
				<rect x="-276" y="89.2" class="st101" width="42" height="1.2"/>
			</g>
			<g>
				<defs>
					<path id="SVGID_201_" d="M-246.6,83.7c0.6-3.7,6.9-23.6,12.6-41.3h-35c-3.8,0-7,2.9-7,6.4v58.6c0,3.5,3.1,6.4,7,6.4h28
						c0.1-11.7,5.4-24.2,5.4-24.2C-243.8,89.6-247.8,90.6-246.6,83.7z"/>
				</defs>
				<clipPath id="SVGID_202_">
					<use xlink:href="#SVGID_201_"  style="overflow:visible;"/>
				</clipPath>
				<rect x="-276" y="90.3" class="st102" width="42" height="1.2"/>
			</g>
			<g>
				<defs>
					<path id="SVGID_203_" d="M-246.6,83.7c0.6-3.7,6.9-23.6,12.6-41.3h-35c-3.8,0-7,2.9-7,6.4v58.6c0,3.5,3.1,6.4,7,6.4h28
						c0.1-11.7,5.4-24.2,5.4-24.2C-243.8,89.6-247.8,90.6-246.6,83.7z"/>
				</defs>
				<clipPath id="SVGID_204_">
					<use xlink:href="#SVGID_203_"  style="overflow:visible;"/>
				</clipPath>
				<rect x="-276" y="91.7" class="st103" width="42" height="1.2"/>
			</g>
			<g>
				<defs>
					<path id="SVGID_205_" d="M-246.6,83.7c0.6-3.7,6.9-23.6,12.6-41.3h-35c-3.8,0-7,2.9-7,6.4v58.6c0,3.5,3.1,6.4,7,6.4h28
						c0.1-11.7,5.4-24.2,5.4-24.2C-243.8,89.6-247.8,90.6-246.6,83.7z"/>
				</defs>
				<clipPath id="SVGID_206_">
					<use xlink:href="#SVGID_205_"  style="overflow:visible;"/>
				</clipPath>
				<rect x="-276" y="92.8" class="st104" width="42" height="1.2"/>
			</g>
			<g>
				<defs>
					<path id="SVGID_207_" d="M-246.6,83.7c0.6-3.7,6.9-23.6,12.6-41.3h-35c-3.8,0-7,2.9-7,6.4v58.6c0,3.5,3.1,6.4,7,6.4h28
						c0.1-11.7,5.4-24.2,5.4-24.2C-243.8,89.6-247.8,90.6-246.6,83.7z"/>
				</defs>
				<clipPath id="SVGID_208_">
					<use xlink:href="#SVGID_207_"  style="overflow:visible;"/>
				</clipPath>
				<rect x="-276" y="94.1" class="st105" width="42" height="1.2"/>
			</g>
			<g>
				<defs>
					<path id="SVGID_209_" d="M-246.6,83.7c0.6-3.7,6.9-23.6,12.6-41.3h-35c-3.8,0-7,2.9-7,6.4v58.6c0,3.5,3.1,6.4,7,6.4h28
						c0.1-11.7,5.4-24.2,5.4-24.2C-243.8,89.6-247.8,90.6-246.6,83.7z"/>
				</defs>
				<clipPath id="SVGID_210_">
					<use xlink:href="#SVGID_209_"  style="overflow:visible;"/>
				</clipPath>
				<rect x="-276" y="95.2" class="st106" width="42" height="1.2"/>
			</g>
			<g>
				<defs>
					<path id="SVGID_211_" d="M-246.6,83.7c0.6-3.7,6.9-23.6,12.6-41.3h-35c-3.8,0-7,2.9-7,6.4v58.6c0,3.5,3.1,6.4,7,6.4h28
						c0.1-11.7,5.4-24.2,5.4-24.2C-243.8,89.6-247.8,90.6-246.6,83.7z"/>
				</defs>
				<clipPath id="SVGID_212_">
					<use xlink:href="#SVGID_211_"  style="overflow:visible;"/>
				</clipPath>
				<rect x="-276" y="96.6" class="st107" width="42" height="1.2"/>
			</g>
			<g>
				<defs>
					<path id="SVGID_213_" d="M-246.6,83.7c0.6-3.7,6.9-23.6,12.6-41.3h-35c-3.8,0-7,2.9-7,6.4v58.6c0,3.5,3.1,6.4,7,6.4h28
						c0.1-11.7,5.4-24.2,5.4-24.2C-243.8,89.6-247.8,90.6-246.6,83.7z"/>
				</defs>
				<clipPath id="SVGID_214_">
					<use xlink:href="#SVGID_213_"  style="overflow:visible;"/>
				</clipPath>
				<rect x="-276" y="97.8" class="st108" width="42" height="1.2"/>
			</g>
			<g>
				<defs>
					<path id="SVGID_215_" d="M-246.6,83.7c0.6-3.7,6.9-23.6,12.6-41.3h-35c-3.8,0-7,2.9-7,6.4v58.6c0,3.5,3.1,6.4,7,6.4h28
						c0.1-11.7,5.4-24.2,5.4-24.2C-243.8,89.6-247.8,90.6-246.6,83.7z"/>
				</defs>
				<clipPath id="SVGID_216_">
					<use xlink:href="#SVGID_215_"  style="overflow:visible;"/>
				</clipPath>
				<rect x="-276" y="99" class="st109" width="42" height="1.2"/>
			</g>
			<g>
				<defs>
					<path id="SVGID_217_" d="M-246.6,83.7c0.6-3.7,6.9-23.6,12.6-41.3h-35c-3.8,0-7,2.9-7,6.4v58.6c0,3.5,3.1,6.4,7,6.4h28
						c0.1-11.7,5.4-24.2,5.4-24.2C-243.8,89.6-247.8,90.6-246.6,83.7z"/>
				</defs>
				<clipPath id="SVGID_218_">
					<use xlink:href="#SVGID_217_"  style="overflow:visible;"/>
				</clipPath>
				<rect x="-276" y="100.2" class="st110" width="42" height="1.2"/>
			</g>
			<g>
				<defs>
					<path id="SVGID_219_" d="M-246.6,83.7c0.6-3.7,6.9-23.6,12.6-41.3h-35c-3.8,0-7,2.9-7,6.4v58.6c0,3.5,3.1,6.4,7,6.4h28
						c0.1-11.7,5.4-24.2,5.4-24.2C-243.8,89.6-247.8,90.6-246.6,83.7z"/>
				</defs>
				<clipPath id="SVGID_220_">
					<use xlink:href="#SVGID_219_"  style="overflow:visible;"/>
				</clipPath>
				<rect x="-276" y="101.5" class="st111" width="42" height="1.2"/>
			</g>
			<g>
				<defs>
					<path id="SVGID_221_" d="M-246.6,83.7c0.6-3.7,6.9-23.6,12.6-41.3h-35c-3.8,0-7,2.9-7,6.4v58.6c0,3.5,3.1,6.4,7,6.4h28
						c0.1-11.7,5.4-24.2,5.4-24.2C-243.8,89.6-247.8,90.6-246.6,83.7z"/>
				</defs>
				<clipPath id="SVGID_222_">
					<use xlink:href="#SVGID_221_"  style="overflow:visible;"/>
				</clipPath>
				<rect x="-276" y="102.7" class="st112" width="42" height="1.2"/>
			</g>
			<g>
				<defs>
					<path id="SVGID_223_" d="M-246.6,83.7c0.6-3.7,6.9-23.6,12.6-41.3h-35c-3.8,0-7,2.9-7,6.4v58.6c0,3.5,3.1,6.4,7,6.4h28
						c0.1-11.7,5.4-24.2,5.4-24.2C-243.8,89.6-247.8,90.6-246.6,83.7z"/>
				</defs>
				<clipPath id="SVGID_224_">
					<use xlink:href="#SVGID_223_"  style="overflow:visible;"/>
				</clipPath>
				<rect x="-276" y="104" class="st113" width="42" height="1.2"/>
			</g>
			<g>
				<defs>
					<path id="SVGID_225_" d="M-246.6,83.7c0.6-3.7,6.9-23.6,12.6-41.3h-35c-3.8,0-7,2.9-7,6.4v58.6c0,3.5,3.1,6.4,7,6.4h28
						c0.1-11.7,5.4-24.2,5.4-24.2C-243.8,89.6-247.8,90.6-246.6,83.7z"/>
				</defs>
				<clipPath id="SVGID_226_">
					<use xlink:href="#SVGID_225_"  style="overflow:visible;"/>
				</clipPath>
				<rect x="-276" y="105.2" class="st114" width="42" height="1.2"/>
			</g>
			<g>
				<defs>
					<path id="SVGID_227_" d="M-246.6,83.7c0.6-3.7,6.9-23.6,12.6-41.3h-35c-3.8,0-7,2.9-7,6.4v58.6c0,3.5,3.1,6.4,7,6.4h28
						c0.1-11.7,5.4-24.2,5.4-24.2C-243.8,89.6-247.8,90.6-246.6,83.7z"/>
				</defs>
				<clipPath id="SVGID_228_">
					<use xlink:href="#SVGID_227_"  style="overflow:visible;"/>
				</clipPath>
				<rect x="-276" y="106.3" class="st115" width="42" height="1.2"/>
			</g>
			<g>
				<defs>
					<path id="SVGID_229_" d="M-246.6,83.7c0.6-3.7,6.9-23.6,12.6-41.3h-35c-3.8,0-7,2.9-7,6.4v58.6c0,3.5,3.1,6.4,7,6.4h28
						c0.1-11.7,5.4-24.2,5.4-24.2C-243.8,89.6-247.8,90.6-246.6,83.7z"/>
				</defs>
				<clipPath id="SVGID_230_">
					<use xlink:href="#SVGID_229_"  style="overflow:visible;"/>
				</clipPath>
				<rect x="-276" y="107.7" class="st116" width="42" height="1.2"/>
			</g>
			<g>
				<defs>
					<path id="SVGID_231_" d="M-246.6,83.7c0.6-3.7,6.9-23.6,12.6-41.3h-35c-3.8,0-7,2.9-7,6.4v58.6c0,3.5,3.1,6.4,7,6.4h28
						c0.1-11.7,5.4-24.2,5.4-24.2C-243.8,89.6-247.8,90.6-246.6,83.7z"/>
				</defs>
				<clipPath id="SVGID_232_">
					<use xlink:href="#SVGID_231_"  style="overflow:visible;"/>
				</clipPath>
				<rect x="-276" y="108.8" class="st117" width="42" height="1.2"/>
			</g>
			<g>
				<defs>
					<path id="SVGID_233_" d="M-246.6,83.7c0.6-3.7,6.9-23.6,12.6-41.3h-35c-3.8,0-7,2.9-7,6.4v58.6c0,3.5,3.1,6.4,7,6.4h28
						c0.1-11.7,5.4-24.2,5.4-24.2C-243.8,89.6-247.8,90.6-246.6,83.7z"/>
				</defs>
				<clipPath id="SVGID_234_">
					<use xlink:href="#SVGID_233_"  style="overflow:visible;"/>
				</clipPath>
				<rect x="-276" y="110.1" class="st118" width="42" height="1.2"/>
			</g>
			<g>
				<defs>
					<path id="SVGID_235_" d="M-246.6,83.7c0.6-3.7,6.9-23.6,12.6-41.3h-35c-3.8,0-7,2.9-7,6.4v58.6c0,3.5,3.1,6.4,7,6.4h28
						c0.1-11.7,5.4-24.2,5.4-24.2C-243.8,89.6-247.8,90.6-246.6,83.7z"/>
				</defs>
				<clipPath id="SVGID_236_">
					<use xlink:href="#SVGID_235_"  style="overflow:visible;"/>
				</clipPath>
				<rect x="-276" y="111.3" class="st119" width="42" height="1.2"/>
			</g>
			<g>
				<defs>
					<path id="SVGID_237_" d="M-246.6,83.7c0.6-3.7,6.9-23.6,12.6-41.3h-35c-3.8,0-7,2.9-7,6.4v58.6c0,3.5,3.1,6.4,7,6.4h28
						c0.1-11.7,5.4-24.2,5.4-24.2C-243.8,89.6-247.8,90.6-246.6,83.7z"/>
				</defs>
				<clipPath id="SVGID_238_">
					<use xlink:href="#SVGID_237_"  style="overflow:visible;"/>
				</clipPath>
				<rect x="-276" y="112.6" class="st120" width="42" height="1.2"/>
			</g>
			<g>
				<defs>
					<path id="SVGID_239_" d="M-246.6,83.7c0.6-3.7,6.9-23.6,12.6-41.3h-35c-3.8,0-7,2.9-7,6.4v58.6c0,3.5,3.1,6.4,7,6.4h28
						c0.1-11.7,5.4-24.2,5.4-24.2C-243.8,89.6-247.8,90.6-246.6,83.7z"/>
				</defs>
				<clipPath id="SVGID_240_">
					<use xlink:href="#SVGID_239_"  style="overflow:visible;"/>
				</clipPath>
				<path class="st121" d="M-276,113.8h42H-276z"/>
			</g>
		</g>
		<path d="M-240.1,114.6H-269c-4.3,0-7.8-3.2-7.8-7.2V48.8c0-4,3.5-7.2,7.8-7.2h36.2l-0.4,1.1c-7.8,24-12.1,38.2-12.6,41.2
			c-0.3,2-0.2,3.3,0.4,3.9c0.9,1.1,3.5,1.1,7,1c0.9,0,1.9,0,2.9,0h1.3l-0.5,1.2c-0.1,0.1-5.3,12.5-5.4,23.9V114.6z M-269,43.2
			c-3.4,0-6.2,2.5-6.2,5.6v58.6c0,3.1,2.8,5.6,6.2,5.6h27.2c0.3-9.6,3.7-19.3,5-22.6c-0.6,0-1.1,0-1.6,0c-4.1,0.1-6.8,0.1-8.3-1.6
			c-0.9-1.1-1.2-2.7-0.7-5.3l0,0c0.5-3,4.7-16.6,12.3-40.3C-235.1,43.1-269,43.1-269,43.2z"/>
	</g>
	<g>
		<path class="st60" d="M-198,107.3V48.8c0-3.5-3.1-6.4-7-6.4h-29c-5.7,17.7-12,37.6-12.6,41.3c-1.2,6.9,2.9,5.9,11.1,5.9
			c0,0-5.3,12.5-5.4,24.2h36C-201.1,113.8-198,110.8-198,107.3z"/>
		<path d="M-205.1,114.6h-36.8v-0.8c0.1-9.8,3.7-20,5-23.4c-0.6,0-1.1,0-1.6,0c-4.1,0.1-6.8,0.1-8.3-1.6c-0.9-1.1-1.2-2.7-0.7-5.3
			c0.5-3.1,4.8-17,12.7-41.4l0.2-0.6h29.6c4.3,0,7.8,3.2,7.8,7.2v58.6C-197.2,111.3-200.8,114.6-205.1,114.6z M-240.1,113h35.1
			c3.4,0,6.2-2.5,6.2-5.6V48.8c0-3.1-2.8-5.6-6.2-5.6h-28.4c-7.6,23.6-11.9,37.7-12.4,40.6c-0.3,2-0.2,3.3,0.4,3.9
			c0.9,1.1,3.5,1.1,7,1c0.9,0,1.9,0,2.9,0h1.3l-0.5,1.2C-234.8,90-239.8,101.8-240.1,113z"/>
	</g>
	<g>
		<path d="M-238.2,103.3c-5.2,0-10.4-1.8-14.5-5.5c-0.3-0.3-0.4-0.8-0.1-1.2c0.3-0.3,0.8-0.4,1.2-0.1c7.6,6.7,19.2,6.7,26.8,0
			c0.3-0.3,0.9-0.3,1.2,0.1c0.3,0.3,0.3,0.9-0.1,1.2C-227.8,101.6-233.1,103.3-238.2,103.3z"/>
	</g>
	<g>
		<path d="M-257.4,75.3h-0.2c-1.2,0-2.2-1-2.2-2.2v-2.5c0-1.2,1-2.2,2.2-2.2h0.2c1.2,0,2.2,1,2.2,2.2v2.5
			C-255.1,74.3-256,75.3-257.4,75.3z"/>
	</g>
	<g>
		<path d="M-222.3,75.3h-0.2c-1.2,0-2.2-1-2.2-2.2v-2.5c0-1.2,1-2.2,2.2-2.2h0.2c1.2,0,2.2,1,2.2,2.2v2.5
			C-220.1,74.3-221.1,75.3-222.3,75.3z"/>
	</g>
</g>
</svg>
