<?xml version="1.0" encoding="utf-8"?>
<!-- Generator: Adobe Illustrator 22.0.1, SVG Export Plug-In . SVG Version: 6.00 Build 0)  -->
<svg version="1.1" id="Layer_1" xmlns="http://www.w3.org/2000/svg" xmlns:xlink="http://www.w3.org/1999/xlink" x="0px" y="0px"
	 viewBox="0 0 145.3 154.8" style="enable-background:new 0 0 145.3 154.8;" xml:space="preserve">
<style type="text/css">
	.st0{fill:#382612;}
	.st1{fill:#FFE7BD;}
	.st2{fill:#EF7070;}
	.st3{fill:#F2A5A5;}
	.st4{fill:#91C7E2;}
</style>
<g>
	<g>
		<path class="st0" d="M68.6,12.1c0,0-50.5,10.2-58.1,71.6c-0.2,1.9-1,3.7-2.2,5.1c-5.6,6.9-8.2,32.5,25.3,38
			c1.2,0.2,11.2,1.1,12.3,0.9c2-0.4,4.5-1.6,4.7-5C50.6,122.8,34.8,11.9,68.6,12.1z"/>
		<path d="M45.3,128.8c-2.9,0-11.2-0.8-11.9-0.9c-18.3-3-25.2-11.8-27.9-18.6c-3.1-8.2-1.3-16.9,2-21c1.1-1.4,1.8-2.9,2-4.6
			c3.9-32.1,19.7-50.1,32.3-59.5c6.8-5.1,13.4-8.4,18.3-10.3c2.5-1.8,5.4-2.7,8.5-2.7c0,0,0.1,0,0.1,0l9.7,0l-9.5,1.9
			c-0.1,0-3.2,0.7-7.9,2.5c-0.9,0.6-1.7,1.4-2.5,2.3c-18.5,21.3-7,103.9-6.9,104.7l0,0.1l0,0.1c-0.1,3.1-2.1,5.2-5.5,5.9
			C46,128.7,45.7,128.8,45.3,128.8z M56.1,17.8c-3.9,1.9-8.5,4.5-13.1,8C30.7,35,15.4,52.5,11.5,83.8c-0.3,2-1.1,4-2.4,5.6
			c-2.5,3.1-4.7,11.1-1.7,19c2.4,6.3,9,14.5,26.3,17.3c1.4,0.2,11,1.1,12,0.9c2.4-0.5,3.7-1.8,3.8-3.9c-0.2-1.6-3-22-3.6-44.6
			C45.3,47.8,48.6,27.5,56.1,17.8z"/>
	</g>
	<g>
		<path class="st1" d="M128.7,73.7c0,30.9-25.1,56-56,56s-52-25.1-52-56s21.1-56,52-56S128.7,42.7,128.7,73.7z"/>
		<path d="M72.7,130.7c-30.2,0-53-24.5-53-57s22.8-57,53-57c31.4,0,57,25.6,57,57S104.1,130.7,72.7,130.7z M72.7,18.7
			c-14.4,0-27.5,5.7-36.9,16.1c-9.1,10.1-14.1,23.9-14.1,38.9s5,28.8,14.1,38.9c9.3,10.4,22.4,16.1,36.9,16.1c30.3,0,55-24.7,55-55
			S103,18.7,72.7,18.7z"/>
	</g>
	<g>
		<g>
			<ellipse transform="matrix(0.1023 -0.9948 0.9948 0.1023 -11.1395 108.8889)" cx="54.8" cy="60.6" rx="4.8" ry="4.3"/>
		</g>
		<g>
			<path d="M53.8,60.2c0,0-0.1,0-0.1,0c-4.4-0.4-5.4-6.2-5.5-6.5c-0.1-0.5,0.3-1.1,0.8-1.2c0.5-0.1,1.1,0.3,1.2,0.8
				c0,0,0.9,4.5,3.7,4.8c0.5,0.1,0.9,0.5,0.9,1.1C54.7,59.8,54.3,60.2,53.8,60.2z"/>
		</g>
	</g>
	<g>
		<g>
			<ellipse transform="matrix(0.1023 -0.9948 0.9948 0.1023 15.0509 144.6784)" cx="87.7" cy="64" rx="4.8" ry="4.3"/>
		</g>
		<g>
			<path d="M86.7,63.6c0,0-0.1,0-0.1,0c-4.4-0.4-5.4-6.2-5.5-6.5c-0.1-0.5,0.3-1.1,0.8-1.2c0.5-0.1,1.1,0.3,1.2,0.8
				c0,0,0.9,4.5,3.7,4.8c0.5,0.1,0.9,0.5,0.9,1.1C87.6,63.2,87.2,63.6,86.7,63.6z"/>
		</g>
	</g>
	<g>
		<ellipse transform="matrix(0.1023 -0.9948 0.9948 0.1023 -37.2191 107.6357)" class="st2" cx="41" cy="74.4" rx="4.4" ry="8.6"/>
	</g>
	<g>
		<ellipse transform="matrix(0.1023 -0.9948 0.9948 0.1023 7.43 168.732)" class="st2" cx="97.2" cy="80.2" rx="4.4" ry="8.6"/>
	</g>
	<g>
		<path class="st1" d="M61.8,114.7H47c-1.4-0.8-3-1.3-4.8-1.6c-1.1-0.2-2-0.6-3-1.1c-0.1-0.1-0.3-0.1-0.4-0.2c0,0,0,0,0,0l-0.1-7.3
			c0-2.5-2.8-4.2-4.9-2.9c-0.5,0.3-0.8,0.7-1,1.2L28,114.2c-4.3,1.8-7.3,5.5-7.3,12.4c0,11.1,7.9,12.1,15.9,15.1
			c3.4,1.3,6.8,0.8,9.5-1h4c1,0,1.8-1.2,1.8-2.7v-0.1c0-1.2-0.6-2.2-1.3-2.5c0,0,0-0.1,0.1-0.1h2c1.2,0,2.1-1.4,2.1-3.1v-0.1
			c0-1.7-0.9-3.1-2.1-3.1H54c1.1,0,2-1.4,2-3.1v-0.1c0-1.7-0.9-3.1-2-3.1h-1.7c-0.1-0.3-0.1-0.7-0.2-1h12.4c1.1,0,2.1-0.9,2.2-2
			C66.7,116.9,64.5,114.7,61.8,114.7z"/>
		<path d="M40.5,143.4c-1.4,0-2.8-0.3-4.2-0.8c-1.1-0.4-2.1-0.8-3.2-1.1c-6.9-2.4-13.4-4.6-13.4-14.9c0-6.5,2.5-10.9,7.5-13.1
			l4.5-11.1c0.3-0.7,0.8-1.3,1.4-1.7c1.3-0.8,2.8-0.8,4.1-0.1c1.4,0.8,2.3,2.2,2.3,3.8l0.1,6.7c1,0.5,1.8,0.8,2.6,1
			c1.9,0.3,3.5,0.9,4.9,1.6h14.6c1.6,0,3.1,0.6,4.2,1.8s1.7,2.6,1.6,4.2c0,1.7-1.5,3-3.2,3H56c0.6,0.7,1,1.8,1,3.1v0.1
			c0,1.7-0.7,3.1-1.7,3.7c0.4,0.7,0.6,1.5,0.6,2.5v0.1c0,2.3-1.4,4.1-3.1,4.1h0c0.2,0.5,0.3,1.1,0.3,1.7c0,2.1-1.2,3.7-2.8,3.7h-3.7
			C44.7,142.8,42.6,143.4,40.5,143.4z M35.3,102.1c-0.4,0-0.7,0.1-1.1,0.3c-0.3,0.2-0.5,0.4-0.6,0.7l-4.7,11.5
			c-0.1,0.2-0.3,0.4-0.5,0.5c-4.5,1.9-6.7,5.6-6.7,11.5c0,8.9,5.3,10.7,12.1,13c1.1,0.4,2.1,0.7,3.2,1.1c3,1.1,6.1,0.8,8.6-0.9
			c0.2-0.1,0.4-0.2,0.6-0.2h4c0.3,0,0.8-0.7,0.8-1.7c0-0.9-0.4-1.6-0.7-1.7c-0.3-0.1-0.5-0.3-0.6-0.6c-0.1-0.3-0.1-0.5,0-0.8
			c0.2-0.3,0.6-0.7,1-0.7h2c0.5,0,1.1-0.9,1.1-2.1v-0.1c0-1.2-0.6-2.1-1.1-2.1c-0.6,0-1-0.4-1-1s0.4-1,1-1H54c0.4,0,1-0.8,1-2.1
			v-0.1c0-1.3-0.6-2.1-1-2.1h-1.7c-0.5,0-0.9-0.3-1-0.8c-0.1-0.3-0.1-0.6-0.2-0.9c-0.1-0.3,0-0.6,0.2-0.9c0.2-0.2,0.5-0.4,0.8-0.4
			h12.4c0.6,0,1.1-0.5,1.2-1.1c0-1-0.4-2-1.1-2.8c-0.7-0.8-1.7-1.2-2.8-1.2H47c-0.2,0-0.3,0-0.5-0.1c-1.2-0.7-2.7-1.2-4.5-1.5
			c-1.1-0.2-2.1-0.6-3.3-1.2c-0.1-0.1-0.2-0.1-0.3-0.2c-0.2-0.1-0.4-0.2-0.5-0.4c-0.1-0.2-0.2-0.4-0.2-0.5l-0.1-7.3
			c0-0.9-0.5-1.7-1.3-2.1C36,102.2,35.7,102.1,35.3,102.1z"/>
	</g>
	<g>
		<path class="st0" d="M65.2,5.8L65.2,5.8c6.2-4.4,18.7,0,18.8,0c0,0,0,0,0,0c48.7,4.7,53.3,56.2,53.3,56.2
			c2.1,12.2,4.1,53.7-2.1,62.3c-8.1,11.1-44,8.6-41.9-11.1s16.9-5.9,18.4-33.9S88.8,50,88.8,50c-19.3-2-18.9-13.1-18.8-13.5
			c0,0,0,0,0,0c-8,6.2-3.1,11-2.8,11.3c0,0,0,0,0,0c-12-1.3-4.8-12.3-4.3-13c0,0,0,0,0,0c-10.1,6.5-2.1,11.9-1.4,12.4c0,0,0,0,0,0
			c-15.3-1.6-9.7-17-3.4-28.2c-7.8,4.2-20.3,10.4-22.4,19.9c-2.3,10.7-9.6,14.4-13.1,15.6c-0.9,0.3-1.8-0.5-1.6-1.4
			C20.8,53.1,24.4,6.4,65.2,5.8z"/>
		<path d="M116.9,131.9c-4.2,0-8.7-0.7-12.9-2.3c-8.4-3.2-12.5-9.1-11.8-16.5c1-9.4,4.9-11.7,8.7-13.9c4.4-2.5,8.9-5.2,9.7-20
			c0.5-8.7-1.5-15.5-5.9-20.5c-6.4-7.1-15.9-7.7-16-7.7c-15.4-1.6-18.8-8.9-19.6-12.5c-1.8,1.7-2.7,3.4-2.8,5
			c-0.1,2.1,1.4,3.5,1.4,3.6l0.5,0.5l-0.6,1.3L67,48.8c-1.9-0.2-3.4-0.6-4.6-1.3L62,48.3l-0.8-0.1c-4.7-0.5-7.9-2.3-9.5-5.4
			c-2.4-4.6-1.1-11.8,3.8-21.4c-7.4,4-17.3,9.7-19,17.7C34,50.5,26,54.3,22.7,55.4c-0.7,0.3-1.6,0.1-2.2-0.4
			c-0.6-0.5-0.9-1.3-0.8-2.1c0-0.4,4.1-47.3,45.1-48.2c5.9-3.9,16.2-1,19.3,0c25.5,2.5,38.9,17.9,45.6,30.4
			c7.2,13.5,8.4,26.2,8.5,26.7c2,11.6,4.4,53.8-2.3,62.9C132.9,129,125.4,131.9,116.9,131.9z M69.8,35.3l1.1,0.6l0,0.6
			c0,0.4-0.4,10.6,17.9,12.5c0.4,0,10.3,0.6,17.3,8.3c4.8,5.3,7,12.7,6.5,21.9c-0.9,15.9-6.1,18.9-10.7,21.6
			c-3.7,2.1-6.8,4-7.7,12.4c-0.9,8.7,6.2,12.8,10.5,14.4c10.7,4.1,25.1,2.2,29.6-4c6-8.2,4-49.6,1.9-61.5c0-0.2-1.2-13-8.3-26.1
			c-9.4-17.5-24.3-27.4-44.1-29.3l-0.3-0.1C81.6,6,71,2.9,65.8,6.6l-0.3,0.2l-0.3,0C25.7,7.3,21.8,52.7,21.8,53.2
			c0,0.2,0,0.3,0.1,0.3c0,0,0.1,0.1,0.2,0c3.7-1.2,10.3-4.8,12.4-14.9c2.1-9.5,13.8-15.8,21.6-19.9l4.3-2.3l-1.7,3
			c-5.7,10.3-7.6,18-5.3,22.4c0.9,1.7,2.4,2.9,4.6,3.6c-0.8-1-1.4-2.4-1.4-4c0-2.7,1.9-5.2,5.5-7.6l0.7-0.5l1.1,1.2l-0.5,0.7
			c-0.1,0.2-3.5,5.3-2,8.6c0.5,1.1,1.7,2,3.4,2.4c-0.4-0.8-0.6-1.8-0.6-3c0.1-2.6,1.8-5.2,5-7.7L69.8,35.3z M59.8,38.7
			c-0.7,1-1.1,1.9-1.1,2.9c0,0.9,0.3,1.6,0.7,2.3C58.9,42.1,59.2,40.3,59.8,38.7z"/>
	</g>
	<g>
		<g>
			<path class="st1" d="M117.8,113.7H103c-2.6-1.5-6-2-9.8-2c-8.8,0-16.5,2.8-16.5,13.9c0,11.1,7.9,12.1,15.9,15.1
				c8.3,3.1,16-4,16-15.1c0-1.9-0.2-3.5-0.6-4.9h12.4c1.2,0,2.2-1,2.2-2.2C122.7,115.8,120.5,113.7,117.8,113.7z"/>
			<path d="M96.6,142.4c-1.4,0-2.8-0.3-4.2-0.8c-1.1-0.4-2.1-0.8-3.2-1.1c-6.9-2.4-13.4-4.6-13.4-14.9c0-9.9,5.9-14.9,17.5-14.9
				c4.2,0,7.5,0.7,10.1,2h14.6c3.2,0,5.8,2.6,5.8,5.8c0,1.7-1.4,3.2-3.2,3.2h-11.2c0.2,1.2,0.3,2.5,0.3,3.9c0,6.4-2.5,11.9-6.7,14.8
				C101,141.7,98.8,142.4,96.6,142.4z M93.2,112.7c-10.6,0-15.5,4.1-15.5,12.9c0,8.9,5.3,10.7,12.1,13c1.1,0.4,2.1,0.7,3.2,1.1
				c3.1,1.2,6.2,0.8,8.8-1c3.6-2.5,5.8-7.4,5.8-13.1c0-1.7-0.2-3.2-0.5-4.7c-0.1-0.3,0-0.6,0.2-0.9c0.2-0.2,0.5-0.4,0.8-0.4h12.4
				c0.6,0,1.2-0.5,1.2-1.2c0-2.1-1.7-3.8-3.8-3.8H103c-0.2,0-0.3,0-0.5-0.1C100.3,113.3,97.2,112.7,93.2,112.7z"/>
		</g>
		<g>
			<path class="st1" d="M98.4,121.7h9.6c1.1,0,2,1.4,2,3.1v0.1c0,1.7-0.9,3.1-2,3.1h-9.5c-0.7,0-1.4-0.6-1.7-1.6l0-0.1
				C96,124.2,96.9,121.7,98.4,121.7z"/>
			<path d="M108,129h-9.5c-1.1,0-2.2-0.8-2.7-2.2l0-0.1c-0.6-1.6-0.4-3.5,0.5-4.7c0.6-0.8,1.3-1.2,2.1-1.2h9.6c1.7,0,3,1.8,3,4.1
				v0.1C111,127.2,109.7,129,108,129z M98.4,122.7c-0.2,0-0.4,0.2-0.5,0.4c-0.4,0.6-0.7,1.8-0.3,2.9l0,0.1c0.2,0.6,0.6,0.9,0.8,0.9
				h9.5c0.4,0,1-0.8,1-2.1v-0.1c0-1.3-0.6-2.1-1-2.1H98.4z"/>
		</g>
		<g>
			<path class="st1" d="M80.4,117.1l6.3-15.3c0.2-0.5,0.6-0.9,1-1.2c2.1-1.3,4.9,0.4,4.9,2.9l0.1,7.3c0,0,0,0,0,0c2.9,1.2,3.3,5,1,7
				l-3,2.4"/>
			<path d="M90.8,121.2c-0.3,0-0.6-0.1-0.8-0.4c-0.3-0.4-0.3-1.1,0.1-1.4l3-2.4c0.9-0.7,1.3-1.8,1.1-2.9c-0.2-1.1-0.8-1.9-1.8-2.3
				c-0.2-0.1-0.3-0.2-0.4-0.3c-0.1-0.2-0.2-0.4-0.2-0.6l-0.1-7.3c0-0.9-0.5-1.7-1.3-2.1c-0.7-0.4-1.5-0.4-2.1,0
				c-0.3,0.2-0.5,0.4-0.6,0.7l-6.3,15.3c-0.2,0.5-0.8,0.8-1.3,0.5c-0.5-0.2-0.8-0.8-0.5-1.3l6.3-15.3c0.3-0.7,0.8-1.3,1.4-1.7
				c1.3-0.8,2.8-0.8,4.1-0.1c1.4,0.8,2.3,2.2,2.3,3.8l0.1,6.7c1.3,0.7,2.2,2.1,2.5,3.6c0.3,1.8-0.4,3.6-1.8,4.8l-3,2.4
				C91.2,121.1,91,121.2,90.8,121.2z"/>
		</g>
		<g>
			<path class="st1" d="M96.6,128h10.2c1.2,0,2.1,1.4,2.1,3.1v0.1c0,1.7-0.9,3.1-2.1,3.1H96.6c-0.8,0-1.5-0.6-1.8-1.6l0-0.1
				C93.9,130.5,95,128,96.6,128z"/>
			<path d="M106.8,135.3H96.6c-1.2,0-2.2-0.8-2.8-2.2l0-0.1c-0.6-1.5-0.4-3.4,0.5-4.7c0.6-0.9,1.4-1.3,2.3-1.3h10.2
				c1.7,0,3.1,1.8,3.1,4.1v0.1C109.9,133.5,108.5,135.3,106.8,135.3z M96.6,129c-0.3,0-0.5,0.3-0.7,0.5c-0.4,0.6-0.6,1.8-0.2,2.8
				l0,0.1c0.2,0.6,0.6,0.9,0.9,0.9h10.1c0.5,0,1.1-0.9,1.1-2.1v-0.1c0-1.2-0.6-2.1-1.1-2.1H96.6z"/>
		</g>
		<g>
			<path class="st1" d="M95.3,134.3h8.9c1,0,1.8,1.2,1.8,2.7v0.1c0,1.5-0.8,2.7-1.8,2.7h-8.9c-0.7,0-1.3-0.5-1.6-1.3l0-0.1
				C93,136.5,93.9,134.3,95.3,134.3z"/>
			<path d="M104.2,140.7h-8.9c-1.1,0-2-0.8-2.5-2l0-0.1c-0.5-1.4-0.4-3,0.4-4.1c0.5-0.8,1.3-1.2,2.1-1.2h8.9c1.6,0,2.8,1.6,2.8,3.7
				C107.1,139.1,105.8,140.7,104.2,140.7z M95.3,135.3c-0.2,0-0.4,0.2-0.5,0.4c-0.3,0.5-0.5,1.4-0.2,2.2l0,0.1
				c0.2,0.5,0.5,0.7,0.7,0.7h8.9c0.3,0,0.8-0.7,0.8-1.7c0-1.1-0.5-1.7-0.8-1.7H95.3z"/>
		</g>
	</g>
	<g>
		<ellipse class="st3" cx="66.2" cy="94.7" rx="8.5" ry="12"/>
		<path d="M66.2,107.7c-5.2,0-9.5-5.8-9.5-13s4.3-13,9.5-13s9.5,5.8,9.5,13S71.4,107.7,66.2,107.7z M66.2,83.7
			c-4.1,0-7.5,4.9-7.5,11s3.4,11,7.5,11s7.5-4.9,7.5-11S70.3,83.7,66.2,83.7z"/>
	</g>
</g>
<g>
	<g>
		<path class="st0" d="M214,12.4c0,0-50.5,10.2-58.1,71.6c-0.2,1.9-1,3.7-2.2,5.1c-5.6,6.9-8.2,32.5,25.3,38
			c1.2,0.2,11.2,1.1,12.3,0.9c2-0.4,4.5-1.6,4.7-5C196,123.1,180.2,12.3,214,12.4z"/>
		<path d="M190.7,129.1c-2.9,0-11.2-0.8-11.9-0.9c-18.3-3-25.2-11.8-27.9-18.6c-3.1-8.2-1.3-16.9,2-21c1.1-1.4,1.8-2.9,2-4.6
			c3.9-32.1,19.7-50.1,32.3-59.5c6.8-5.1,13.4-8.4,18.3-10.3c2.5-1.8,5.4-2.7,8.5-2.7c0,0,0.1,0,0.1,0l9.7,0l-9.5,1.9
			c-0.1,0-3.2,0.7-7.9,2.5c-0.9,0.6-1.7,1.4-2.5,2.3c-18.5,21.3-7,103.9-6.9,104.7l0,0.1l0,0.1c-0.1,3.1-2.1,5.2-5.5,5.9
			C191.3,129.1,191,129.1,190.7,129.1z M201.4,18.1c-3.9,1.9-8.5,4.5-13.1,8c-12.2,9.2-27.6,26.8-31.4,58.1c-0.3,2-1.1,4-2.4,5.6
			c-2.5,3.1-4.7,11.1-1.7,19c2.4,6.3,9,14.5,26.3,17.3c1.4,0.2,11,1.1,12,0.9c2.4-0.5,3.7-1.8,3.8-3.9c-0.2-1.6-3-22-3.6-44.6
			C190.6,48.2,194,27.8,201.4,18.1z"/>
	</g>
	<g>
		<path class="st1" d="M274,74c0,30.9-25.1,56-56,56s-52-25.1-52-56s21.1-56,52-56S274,43.1,274,74z"/>
		<path d="M218,131c-30.2,0-53-24.5-53-57s22.8-57,53-57c31.4,0,57,25.6,57,57S249.4,131,218,131z M218,19
			c-14.4,0-27.5,5.7-36.9,16.1C172,45.2,167,59,167,74s5,28.8,14.1,38.9c9.3,10.4,22.4,16.1,36.9,16.1c30.3,0,55-24.7,55-55
			S248.3,19,218,19z"/>
	</g>
	<g>
		
			<ellipse transform="matrix(0.1023 -0.9948 0.9948 0.1023 92.9215 252.5064)" class="st2" cx="186.4" cy="74.8" rx="4.4" ry="8.6"/>
	</g>
	<g>
		
			<ellipse transform="matrix(0.1023 -0.9948 0.9948 0.1023 137.5706 313.6027)" class="st2" cx="242.5" cy="80.6" rx="4.4" ry="8.6"/>
	</g>
	<g>
		<g>
			<g>
				<path d="M232.9,70.4c-0.3,0-0.5-0.1-0.7-0.3l-7.2-8.1c-0.4-0.4-0.3-1,0.1-1.4c0.4-0.4,1-0.3,1.4,0.1l7.2,8.1
					c0.4,0.4,0.3,1-0.1,1.4C233.3,70.3,233.1,70.4,232.9,70.4z"/>
			</g>
			<g>
				<path d="M225.2,70c-0.3,0-0.5-0.1-0.7-0.3c-0.4-0.4-0.3-1,0.1-1.4l8.1-7.2c0.4-0.4,1-0.3,1.4,0.1c0.4,0.4,0.3,1-0.1,1.4
					l-8.1,7.2C225.7,69.9,225.5,70,225.2,70z"/>
			</g>
		</g>
		<g>
			<g>
				<path d="M202.3,68.7c-0.3,0-0.5-0.1-0.7-0.3l-7.2-8.1c-0.4-0.4-0.3-1,0.1-1.4c0.4-0.4,1-0.3,1.4,0.1l7.2,8.1
					c0.4,0.4,0.3,1-0.1,1.4C202.8,68.6,202.6,68.7,202.3,68.7z"/>
			</g>
			<g>
				<path d="M194.7,68.2c-0.3,0-0.5-0.1-0.7-0.3c-0.4-0.4-0.3-1,0.1-1.4l8.1-7.2c0.4-0.4,1-0.3,1.4,0.1c0.4,0.4,0.3,1-0.1,1.4
					l-8.1,7.2C195.2,68.1,194.9,68.2,194.7,68.2z"/>
			</g>
		</g>
	</g>
	<g>
		<path class="st0" d="M210.5,6.1L210.5,6.1c6.2-4.4,18.7,0,18.8,0c0,0,0,0,0,0c48.7,4.7,53.3,56.2,53.3,56.2
			c2.1,12.2,4.1,53.7-2.1,62.3c-8.1,11.1-44,8.6-41.9-11.1s16.9-5.9,18.4-33.9s-22.9-29.2-22.9-29.2c-19.3-2-18.9-13.1-18.8-13.5
			c0,0,0,0,0,0c-8,6.2-3.1,11-2.8,11.3c0,0,0,0,0,0c-12-1.3-4.8-12.3-4.3-13c0,0,0,0,0,0C198,41.6,206,47,206.7,47.5c0,0,0,0,0,0
			c-15.3-1.6-9.7-17-3.4-28.2c-7.8,4.2-20.3,10.4-22.4,19.9c-2.3,10.7-9.6,14.4-13.1,15.6c-0.9,0.3-1.8-0.5-1.6-1.4
			C166.1,53.4,169.7,6.7,210.5,6.1z"/>
		<path d="M262.2,132.2c-4.2,0-8.7-0.7-12.9-2.3c-8.4-3.2-12.5-9.1-11.8-16.5c1-9.4,4.9-11.7,8.7-13.9c4.4-2.5,8.9-5.2,9.7-20
			c0.5-8.7-1.5-15.6-6-20.5c-6.4-7.1-15.9-7.7-16-7.7c-15.4-1.6-18.8-8.9-19.6-12.5c-1.8,1.7-2.7,3.4-2.8,5
			c-0.1,2.1,1.4,3.5,1.4,3.6l0.5,0.5l-0.6,1.3l-0.8-0.1c-1.9-0.2-3.4-0.6-4.6-1.3l-0.3,0.8l-0.8-0.1c-4.7-0.5-7.9-2.3-9.5-5.4
			c-2.4-4.6-1.1-11.8,3.8-21.4c-7.4,4-17.3,9.7-19,17.7c-2.5,11.4-10.5,15.2-13.8,16.3c-0.7,0.3-1.6,0.1-2.2-0.4
			c-0.6-0.5-0.9-1.3-0.8-2.1c0-0.4,4.1-47.3,45.1-48.2c5.9-3.9,16.2-1,19.3,0c25.5,2.5,38.9,17.9,45.6,30.4
			c7.2,13.5,8.4,26.2,8.5,26.7c2,11.6,4.4,53.8-2.3,62.9C278.2,129.3,270.7,132.2,262.2,132.2z M215.2,35.6l1.1,0.6l0,0.6
			c0,0.4-0.4,10.6,17.9,12.5c0.4,0,10.3,0.6,17.3,8.3c4.8,5.3,7,12.7,6.5,21.9c-0.9,15.9-6.1,18.9-10.7,21.6
			c-3.7,2.1-6.8,4-7.7,12.4c-0.9,8.7,6.2,12.8,10.5,14.4c10.7,4.1,25.1,2.2,29.6-4c6-8.2,4-49.6,1.9-61.5c0-0.2-1.2-13-8.3-26.1
			C263.9,18.8,249.1,9,229.3,7.1L228.9,7c-2.1-0.7-12.6-3.8-17.8-0.1l-0.3,0.2l-0.3,0c-39.5,0.6-43.4,45.9-43.4,46.4
			c0,0.2,0,0.3,0.1,0.3c0,0,0.1,0.1,0.2,0c3.7-1.2,10.3-4.8,12.4-14.9c2.1-9.5,13.8-15.8,21.6-19.9l4.3-2.3l-1.7,3
			c-5.7,10.3-7.6,18-5.3,22.4c0.9,1.7,2.4,2.9,4.6,3.6c-0.8-1-1.4-2.4-1.4-4c0-2.7,1.9-5.2,5.5-7.6l0.7-0.5l1.1,1.2l-0.5,0.7
			c-0.1,0.2-3.5,5.3-2,8.6c0.5,1.1,1.7,2,3.4,2.4c-0.4-0.8-0.6-1.8-0.6-3c0.1-2.6,1.8-5.2,5-7.7L215.2,35.6z M205.1,39
			c-0.7,1-1.1,1.9-1.1,2.9c0,0.9,0.3,1.6,0.7,2.3C204.3,42.5,204.6,40.6,205.1,39z"/>
	</g>
	<g>
		<path class="st3" d="M220,95c0,6.6-3.3,2-8,2s-9,4.6-9-2s3.8-12,8.5-12S220,88.4,220,95z"/>
		<path d="M218.4,99.6c-0.8,0-1.7-0.3-2.6-0.7c-1.2-0.4-2.5-0.9-3.9-0.9c-1.4,0-2.8,0.5-4,0.9c-1.7,0.6-3.4,1.1-4.6,0.2
			c-0.9-0.7-1.4-2-1.4-4.1c0-7.2,4.3-13,9.5-13s9.5,5.8,9.5,13c0,2.3-0.4,3.6-1.3,4.2C219.3,99.5,218.9,99.6,218.4,99.6z M212,96
			c1.8,0,3.3,0.6,4.6,1c0.7,0.2,1.8,0.7,2,0.5c0,0,0.4-0.3,0.4-2.5c0-6.1-3.4-11-7.5-11s-7.5,4.9-7.5,11c0,1.9,0.4,2.4,0.5,2.5
			c0.4,0.3,1.7-0.1,2.8-0.5C208.7,96.5,210.3,96,212,96z"/>
	</g>
	<g>
		<path class="st4" d="M192.4,69.1c0.3-0.9,1.5-0.7,1.6,0.2c0.8,9.6,2.9,32.6,3.6,39.2c0.6,5,3,21.4-9,15.6
			C178.7,119.2,188.9,81.1,192.4,69.1z"/>
		<path d="M193,126.2c-1.4,0-3-0.4-4.9-1.3c-10.4-5-1.2-40.9,3.2-56.1l0,0c0.2-0.9,1-1.4,1.9-1.3c0.9,0.1,1.6,0.8,1.6,1.7
			c0.8,9.6,2.9,32.6,3.6,39.1l0.1,0.6c0.5,4.4,1.6,13.5-2.5,16.4C195.3,125.9,194.2,126.2,193,126.2z M193.1,70.3
			c-6.5,22.4-11.3,49.3-4,52.8c2.7,1.3,4.7,1.5,5.9,0.6c3.2-2.3,2.1-11.2,1.7-14.6l-0.1-0.6C195.9,102.2,193.9,80.4,193.1,70.3z"/>
	</g>
	<g>
		<path class="st4" d="M232.2,72.1c-0.3-0.9-1.5-0.7-1.6,0.2c-0.8,9.6-2.9,32.6-3.6,39.2c-0.6,5-3,21.4,9,15.6
			C245.9,122.2,235.7,84.1,232.2,72.1z"/>
		<path d="M231.6,129.2c-1.2,0-2.2-0.3-3.1-0.9c-4.2-3-3.1-12.1-2.5-16.4l0.1-0.6c0.8-6.5,2.8-29.5,3.6-39.1
			c0.1-0.9,0.7-1.6,1.6-1.7c0.9-0.1,1.7,0.4,1.9,1.3v0c4.4,15.2,13.6,51.1,3.2,56.1C234.6,128.8,233,129.2,231.6,129.2z M231.5,73.3
			c-0.9,10.1-2.8,31.9-3.6,38.2l-0.1,0.6c-0.4,3.4-1.5,12.3,1.7,14.6c1.3,0.9,3.3,0.7,5.9-0.6C242.9,122.6,238,95.7,231.5,73.3z
			 M231.3,72.4L231.3,72.4C231.3,72.4,231.3,72.4,231.3,72.4L231.3,72.4z"/>
	</g>
	<g>
		<path class="st1" d="M213.8,122.8c-0.6-0.7-1.2-1.4-1.9-2l8.9-7.2c2.1-1.7,2.4-4.7,0.7-6.7c-1.7-2.1-4.7-2.4-6.7-0.7l-13.6,10.9
			c0,0,0,0-0.1,0.1c-3.5,0.4-6.9,2.1-10,4.6c-7.1,5.7-9.6,13.6-3,21.7c6.6,8.2,15.4,8.1,22.5,2.4
			C217.7,140.2,220.4,130.9,213.8,122.8z"/>
		<path d="M200.2,150.9c-4.7,0-9.3-2.3-12.9-6.8c-3.3-4.1-4.6-8.4-3.8-12.6c0.7-3.8,3.1-7.4,7-10.5c3.3-2.7,6.8-4.3,10.2-4.8
			l13.4-10.8c2.5-2,6.1-1.6,8.1,0.9s1.6,6.1-0.9,8.1l-8,6.5c0.4,0.4,0.8,0.8,1.1,1.3l0,0c5.3,6.6,6.3,16.7-3.3,24.5
			C207.7,149.5,203.9,150.9,200.2,150.9z M201.9,117.9C201.9,117.9,201.9,117.9,201.9,117.9c-0.2,0.2-0.4,0.3-0.6,0.3
			c-3.1,0.4-6.4,1.9-9.5,4.4c-3.5,2.8-5.7,6.1-6.3,9.4c-0.7,3.6,0.5,7.3,3.4,11c5.8,7.2,13.9,8.1,21.1,2.3c6.2-5,9.5-13.7,3-21.7
			l0,0c-0.5-0.6-1.1-1.2-1.8-1.9c-0.2-0.2-0.3-0.5-0.3-0.8c0-0.3,0.1-0.6,0.4-0.7l8.9-7.2c1.6-1.3,1.9-3.7,0.6-5.3
			c-1.3-1.6-3.7-1.9-5.3-0.6L201.9,117.9z"/>
	</g>
	<g>
		<path class="st1" d="M206.3,123.1c0.7-0.7,1.4-1.2,2.1-1.8l-8.1-8.1c-1.9-1.9-1.9-4.9,0-6.8c1.9-1.9,4.9-1.9,6.8,0l12.3,12.3
			c0,0,0,0,0.1,0.1c3.4,0.8,6.7,2.8,9.5,5.6c6.4,6.4,8.1,14.5,0.7,21.9c-7.4,7.4-16.2,6.4-22.6,0C200.6,140,198.9,130.6,206.3,123.1
			z"/>
		<path d="M218.4,152.7c-4.2,0-8.4-1.8-12-5.5c-3.5-3.5-5.5-7.7-5.8-11.9c-0.3-4.7,1.4-9.1,5.1-12.8c0.4-0.4,0.8-0.8,1.3-1.1
			l-7.3-7.3c-2.3-2.3-2.3-5.9,0-8.2c2.3-2.3,5.9-2.3,8.2,0L220,118c3.3,0.8,6.7,2.9,9.7,5.8c7.6,7.6,7.9,16.1,0.7,23.3
			C226.7,150.8,222.6,152.7,218.4,152.7z M203.7,106.1c-1,0-1.9,0.4-2.7,1.1c-1.5,1.5-1.5,3.9,0,5.4l8.1,8.1
			c0.2,0.2,0.3,0.5,0.3,0.8c0,0.3-0.2,0.6-0.4,0.7c-0.8,0.6-1.4,1.1-2,1.7c-3.3,3.3-4.9,7.2-4.6,11.3c0.3,3.8,2.1,7.5,5.3,10.7
			c6.5,6.5,14.7,6.5,21.2,0c8.6-8.6,3.3-16.5-0.7-20.5c-2.8-2.8-5.9-4.7-9-5.4c-0.2,0-0.4-0.1-0.5-0.3c0,0,0-0.1-0.1-0.1l-12.3-12.3
			C205.7,106.5,204.7,106.1,203.7,106.1z"/>
	</g>
</g>
</svg>
