<?xml version="1.0" encoding="utf-8"?>
<!-- Generator: Adobe Illustrator 22.0.1, SVG Export Plug-In . SVG Version: 6.00 Build 0)  -->
<svg version="1.1" id="Layer_1" xmlns="http://www.w3.org/2000/svg" xmlns:xlink="http://www.w3.org/1999/xlink" x="0px" y="0px"
	 viewBox="0 0 249 25.2" style="enable-background:new 0 0 249 25.2;" xml:space="preserve">
<g>
	<g>
		<path d="M1.9,1.7h8.3c2.1,0,3.7,0.5,4.7,1.6c1.1,1,1.6,2.4,1.6,4.1c0,0.9-0.2,1.7-0.6,2.5c-0.2,0.4-0.5,0.7-1,1.1
			c-0.4,0.4-0.9,0.7-1.6,1v0.1c1.2,0.3,2,0.9,2.6,1.8c0.6,0.9,0.8,2,0.8,3.1c0,1.8-0.6,3.3-1.7,4.4C14,22.5,12.6,23,10.9,23h-9V1.7z
			 M5.1,4.6v6.1h4.7c1.2,0,2.1-0.3,2.6-0.9c0.6-0.6,0.8-1.3,0.8-2.1S13,6,12.4,5.4C11.8,4.9,11,4.6,9.8,4.6H5.1z M5.1,13.6V20h5
			c1.2,0,2.1-0.3,2.6-1c0.6-0.6,0.8-1.4,0.8-2.2c0-0.9-0.3-1.6-0.8-2.3c-0.6-0.6-1.4-0.9-2.6-1H5.1z"/>
		<path d="M10.9,23.5H1.4V1.2h8.8c2.2,0,3.9,0.6,5.1,1.7C16.4,4,17,5.6,17,7.4c0,1-0.2,1.9-0.7,2.8c-0.3,0.4-0.6,0.9-1.1,1.2
			c-0.2,0.2-0.5,0.4-0.7,0.5c0.8,0.4,1.4,0.9,1.9,1.7c0.6,1,0.9,2.2,0.9,3.4c0,2-0.7,3.6-1.9,4.7C14.2,22.9,12.7,23.5,10.9,23.5z
			 M2.4,22.5h8.5c1.6,0,2.8-0.5,3.9-1.5c1-1,1.6-2.3,1.6-4c0-1-0.3-2-0.8-2.8c-0.5-0.8-1.3-1.3-2.3-1.6l-0.4-0.1v-0.7l0.3-0.2
			c0.6-0.3,1.1-0.6,1.4-0.9c0.4-0.3,0.7-0.6,0.9-1C15.8,9,16,8.2,16,7.4c0-1.6-0.5-2.8-1.4-3.8c-1-0.9-2.4-1.4-4.4-1.4H2.4V22.5z
			 M5.1,20.5H4.6v-7.4h5.5c1.3,0,2.4,0.4,3,1.1c0.6,0.7,1,1.6,1,2.6c0,1-0.3,1.8-1,2.6c-0.6,0.7-1.7,1.1-3,1.1H5.1z M5.6,19.5h4.5
			c1,0,1.8-0.3,2.3-0.8c0.5-0.5,0.7-1.2,0.7-1.9c0-0.8-0.2-1.4-0.7-1.9c-0.5-0.5-1.2-0.8-2.3-0.8H5.6V19.5z M9.8,11.2H4.6V4.1h5.2
			c1.3,0,2.3,0.4,3,1c0.7,0.7,1,1.5,1,2.5c0,1-0.3,1.8-1,2.5C12.1,10.8,11.1,11.2,9.8,11.2z M5.6,10.2h4.2c1,0,1.8-0.3,2.2-0.8
			c0.5-0.5,0.7-1.1,0.7-1.8c0-0.7-0.2-1.3-0.7-1.8c-0.5-0.5-1.2-0.7-2.3-0.7H5.6V10.2z"/>
	</g>
	<g>
		<path d="M20.2,1.7h3.2V23h-3.2V1.7z"/>
		<path d="M23.9,23.5h-4.2V1.2h4.2V23.5z M20.7,22.5h2.2V2.2h-2.2V22.5z"/>
	</g>
	<g>
		<path d="M27.9,1.7h8.3c2.1,0,3.7,0.5,4.7,1.6c1.1,1,1.6,2.4,1.6,4.1c0,0.9-0.2,1.7-0.6,2.5c-0.2,0.4-0.5,0.7-1,1.1
			c-0.4,0.4-0.9,0.7-1.6,1v0.1c1.2,0.3,2,0.9,2.6,1.8c0.6,0.9,0.8,2,0.8,3.1c0,1.8-0.6,3.3-1.7,4.4C40,22.5,38.6,23,36.9,23h-9V1.7z
			 M31.1,4.6v6.1h4.7c1.2,0,2.1-0.3,2.6-0.9c0.6-0.6,0.8-1.3,0.8-2.1S39,6,38.4,5.4c-0.6-0.6-1.4-0.8-2.6-0.9H31.1z M31.1,13.6V20h5
			c1.2,0,2.1-0.3,2.6-1c0.6-0.6,0.8-1.4,0.8-2.2c0-0.9-0.3-1.6-0.8-2.3c-0.6-0.6-1.4-0.9-2.6-1H31.1z"/>
		<path d="M36.9,23.5h-9.5V1.2h8.8c2.2,0,3.9,0.6,5.1,1.7C42.4,4,43,5.6,43,7.4c0,1-0.2,1.9-0.7,2.8c-0.3,0.4-0.6,0.9-1.1,1.2
			c-0.2,0.2-0.5,0.4-0.7,0.5c0.8,0.4,1.4,0.9,1.9,1.7c0.6,1,0.9,2.2,0.9,3.4c0,2-0.7,3.6-1.9,4.7C40.2,22.9,38.7,23.5,36.9,23.5z
			 M28.4,22.5h8.5c1.6,0,2.8-0.5,3.9-1.5c1-1,1.6-2.3,1.6-4c0-1-0.3-2-0.8-2.8c-0.5-0.8-1.3-1.3-2.3-1.6l-0.4-0.1v-0.7l0.3-0.2
			c0.6-0.3,1.1-0.6,1.4-0.9c0.4-0.3,0.7-0.6,0.9-1C41.8,9,42,8.2,42,7.4c0-1.6-0.5-2.8-1.4-3.8c-1-0.9-2.4-1.4-4.4-1.4h-7.8V22.5z
			 M31.1,20.5h-0.5v-7.4h5.5c1.3,0,2.4,0.4,3,1.1c0.6,0.7,1,1.6,1,2.6c0,1-0.3,1.8-1,2.6c-0.6,0.7-1.7,1.1-3,1.1H31.1z M31.6,19.5
			h4.5c1,0,1.8-0.3,2.3-0.8c0.5-0.5,0.7-1.2,0.7-1.9c0-0.8-0.2-1.4-0.7-1.9c-0.5-0.5-1.2-0.8-2.3-0.8h-4.5V19.5z M35.8,11.2h-5.2
			V4.1h5.2c1.3,0,2.3,0.4,3,1c0.7,0.7,1,1.5,1,2.5c0,1-0.3,1.8-1,2.5C38.1,10.8,37.1,11.2,35.8,11.2z M31.6,10.2h4.2
			c1,0,1.8-0.3,2.2-0.8c0.5-0.5,0.7-1.1,0.7-1.8c0-0.7-0.2-1.3-0.7-1.8c-0.5-0.5-1.2-0.7-2.3-0.7h-4.2V10.2z"/>
	</g>
	<g>
		<path d="M46.2,1.7h3.2V23h-3.2V1.7z"/>
		<path d="M49.9,23.5h-4.2V1.2h4.2V23.5z M46.7,22.5h2.2V2.2h-2.2V22.5z"/>
	</g>
	<g>
		<path d="M53.9,1.7h8.3c2.1,0,3.7,0.5,4.7,1.6c1.1,1,1.6,2.4,1.6,4.1c0,0.9-0.2,1.7-0.6,2.5c-0.2,0.4-0.5,0.7-1,1.1
			c-0.4,0.4-0.9,0.7-1.6,1v0.1c1.2,0.3,2,0.9,2.6,1.8c0.6,0.9,0.8,2,0.8,3.1c0,1.8-0.6,3.3-1.7,4.4C66,22.5,64.6,23,62.9,23h-9V1.7z
			 M57.2,4.6v6.1h4.7c1.2,0,2.1-0.3,2.6-0.9c0.6-0.6,0.8-1.3,0.8-2.1S65,6,64.5,5.4c-0.6-0.6-1.4-0.8-2.6-0.9H57.2z M57.2,13.6V20h5
			c1.2,0,2.1-0.3,2.6-1c0.6-0.6,0.8-1.4,0.8-2.2c0-0.9-0.3-1.6-0.8-2.3c-0.6-0.6-1.4-0.9-2.6-1H57.2z"/>
		<path d="M62.9,23.5h-9.5V1.2h8.8c2.2,0,3.9,0.6,5.1,1.7C68.5,4,69,5.6,69,7.4c0,1-0.2,1.9-0.7,2.8c-0.3,0.4-0.6,0.9-1.1,1.2
			c-0.2,0.2-0.5,0.4-0.7,0.5c0.8,0.4,1.4,0.9,1.9,1.7c0.6,1,0.9,2.2,0.9,3.4c0,2-0.7,3.6-1.9,4.7C66.3,22.9,64.7,23.5,62.9,23.5z
			 M54.4,22.5h8.5c1.6,0,2.8-0.5,3.9-1.5c1-1,1.6-2.3,1.6-4c0-1-0.3-2-0.8-2.8c-0.5-0.8-1.3-1.3-2.3-1.6l-0.4-0.1v-0.7l0.3-0.2
			c0.6-0.3,1.1-0.6,1.4-0.9c0.4-0.3,0.7-0.6,0.9-1C67.9,9,68.1,8.2,68,7.4c0-1.6-0.5-2.8-1.4-3.8c-1-0.9-2.4-1.4-4.4-1.4h-7.8V22.5z
			 M57.2,20.5h-0.5v-7.4h5.5c1.3,0,2.4,0.4,3,1.1c0.6,0.7,1,1.6,1,2.6c0,1-0.3,1.8-1,2.6c-0.6,0.7-1.7,1.1-3,1.1H57.2z M57.7,19.5
			h4.5c1,0,1.8-0.3,2.3-0.8c0.5-0.5,0.7-1.2,0.7-1.9c0-0.8-0.2-1.4-0.7-1.9c-0.5-0.5-1.2-0.8-2.3-0.8h-4.5V19.5z M61.9,11.2h-5.2
			V4.1h5.2c1.3,0,2.3,0.4,3,1c0.7,0.7,1,1.5,1,2.5c0,1-0.3,1.8-1,2.5C64.2,10.8,63.2,11.2,61.9,11.2z M57.7,10.2h4.2
			c1,0,1.8-0.3,2.2-0.8c0.5-0.5,0.7-1.1,0.7-1.8c0-0.7-0.2-1.3-0.7-1.8c-0.5-0.5-1.2-0.7-2.3-0.7h-4.2V10.2z"/>
	</g>
	<g>
		<path d="M72.2,1.7h3.2V23h-3.2V1.7z"/>
		<path d="M76,23.5h-4.2V1.2H76V23.5z M72.7,22.5H75V2.2h-2.2V22.5z"/>
	</g>
	<g>
		<path d="M86.9,11.3h7.6v4.4c0,2.1-0.8,3.9-2.2,5.4c-1.4,1.4-3.2,2.2-5.4,2.2c-1.7,0-3.1-0.4-4.2-1.2c-1.1-0.8-2-1.6-2.5-2.6
			c-0.2-0.3-0.3-0.6-0.4-0.9c-0.1-0.3-0.2-0.7-0.3-1.1c-0.1-0.9-0.2-2.5-0.2-5c0-2.5,0.1-4.1,0.2-5c0.2-0.8,0.4-1.5,0.7-2
			c0.5-1,1.3-1.9,2.5-2.6c1.1-0.8,2.5-1.2,4.2-1.2c2.1,0,3.7,0.6,5,1.8C93.2,4.5,94,6,94.4,7.8h-3.4c-0.3-0.9-0.7-1.6-1.4-2.2
			c-0.7-0.6-1.6-0.9-2.6-0.9c-0.8,0-1.4,0.2-2,0.5c-0.6,0.3-1,0.7-1.3,1.1c-0.4,0.5-0.7,1-0.8,1.8c-0.2,0.8-0.2,2.2-0.2,4.3
			s0.1,3.5,0.2,4.3c0.1,0.7,0.4,1.3,0.8,1.8c0.3,0.4,0.8,0.8,1.3,1.1c0.5,0.3,1.2,0.5,2,0.5c1.3,0,2.3-0.4,3.1-1.3
			c0.8-0.8,1.2-1.9,1.3-3.2v-1.1h-4.4V11.3z"/>
		<path d="M86.9,23.7c-1.8,0-3.3-0.5-4.5-1.3c-1.2-0.8-2.1-1.7-2.6-2.8c-0.2-0.3-0.3-0.7-0.4-1c-0.1-0.4-0.2-0.8-0.3-1.3
			c-0.2-0.9-0.2-2.5-0.2-5c0-2.5,0.1-4.2,0.2-5.1c0.2-0.9,0.4-1.6,0.8-2.2c0.5-1,1.4-2,2.6-2.8C83.6,1.5,85.1,1,86.9,1
			c2.2,0,4,0.7,5.4,2c1.4,1.3,2.3,2.9,2.6,4.8L95,8.3h-4.4L90.5,8c-0.2-0.8-0.7-1.4-1.3-2c-0.6-0.5-1.4-0.8-2.3-0.8
			c-0.7,0-1.2,0.2-1.7,0.4c-0.5,0.3-0.9,0.6-1.2,1c-0.4,0.4-0.6,0.9-0.7,1.6c-0.2,0.7-0.2,2.1-0.2,4.2c0,2.1,0.1,3.5,0.2,4.2
			c0.1,0.7,0.4,1.2,0.7,1.6c0.3,0.4,0.7,0.7,1.2,1c0.5,0.3,1.1,0.4,1.7,0.4c1.1,0,2-0.4,2.8-1.1c0.7-0.7,1.1-1.7,1.1-2.9v-0.6h-4.4
			v-4.1H95v4.9c0,2.3-0.8,4.2-2.3,5.7C91.1,22.9,89.2,23.7,86.9,23.7z M86.9,2C85.3,2,84,2.4,83,3.1c-1.1,0.7-1.9,1.6-2.3,2.5
			c-0.3,0.5-0.5,1.1-0.7,1.9c-0.1,0.8-0.2,2.4-0.2,4.9c0,2.4,0.1,4,0.2,4.9c0.1,0.4,0.2,0.8,0.3,1c0.1,0.3,0.3,0.6,0.4,0.9
			c0.5,0.9,1.2,1.7,2.3,2.4c1,0.7,2.4,1.1,3.9,1.1c2,0,3.7-0.7,5.1-2.1c1.3-1.4,2-3,2.1-5v-3.8h-6.6v2.1h4.4v1.6
			c0,1.5-0.5,2.7-1.4,3.6c-0.9,1-2.1,1.4-3.5,1.4c-0.8,0-1.6-0.2-2.2-0.6c-0.6-0.3-1.1-0.7-1.5-1.2c-0.5-0.5-0.8-1.2-0.9-2
			c-0.2-0.8-0.2-2.2-0.2-4.4c0-2.2,0.1-3.6,0.2-4.4c0.2-0.8,0.5-1.5,1-2c0.4-0.5,0.9-0.9,1.5-1.2c0.6-0.3,1.3-0.5,2.2-0.5
			c1.2,0,2.2,0.4,3,1c0.7,0.6,1.2,1.3,1.5,2.1h2.4c-0.4-1.4-1.1-2.6-2.2-3.6C90.4,2.6,88.8,2,86.9,2z"/>
	</g>
	<g>
		<path d="M105.5,1.7h7.7c0.8,0,1.7,0.1,2.4,0.2c0.8,0.2,1.6,0.6,2.4,1.3c0.7,0.5,1.2,1.2,1.6,2.1c0.4,0.9,0.7,1.9,0.7,3
			c0,1.6-0.6,3-1.7,4.3c-1.1,1.4-2.8,2.1-5,2.1h-4.9V23h-3.2V1.7z M108.7,11.6h4.8c1.2,0,2.1-0.4,2.7-1.1c0.6-0.7,0.9-1.5,0.9-2.3
			c0-0.7-0.1-1.3-0.4-1.8c-0.2-0.4-0.6-0.8-1-1c-0.7-0.4-1.4-0.6-2.3-0.6h-4.7V11.6z"/>
		<path d="M109.2,23.5H105V1.2h8.2c0.9,0,1.7,0.1,2.5,0.2c0.9,0.2,1.7,0.7,2.6,1.4c0.7,0.5,1.3,1.3,1.8,2.2c0.5,0.9,0.7,2,0.7,3.3
			c0,1.7-0.6,3.3-1.8,4.6c-1.2,1.5-3,2.2-5.4,2.3h-4.4V23.5z M106,22.5h2.2v-8.3h5.4c2.1,0,3.6-0.7,4.6-1.9c1-1.2,1.6-2.5,1.6-4
			c0-1.1-0.2-2-0.6-2.8c-0.4-0.8-0.9-1.4-1.5-1.9c-0.8-0.6-1.5-1-2.2-1.2c-0.7-0.1-1.5-0.2-2.3-0.2H106V22.5z M108.7,12.1h-0.5V4.2
			h5.2c1,0,1.8,0.2,2.6,0.7c0.5,0.3,0.9,0.7,1.2,1.2c0.3,0.6,0.4,1.3,0.4,2c0,1-0.3,1.9-1,2.7c-0.7,0.8-1.7,1.3-3.1,1.3H108.7z
			 M109.2,11.1h4.3c1.1,0,1.8-0.3,2.3-0.9c0.5-0.6,0.7-1.3,0.7-2c0-0.6-0.1-1.2-0.3-1.6c-0.2-0.3-0.5-0.6-0.8-0.8
			c-0.6-0.4-1.3-0.6-2.1-0.5h-4.2V11.1z"/>
	</g>
	<g>
		<path d="M122.5,12.4c0-2.5,0.1-4.1,0.2-5c0.2-0.8,0.4-1.5,0.7-2c0.5-1,1.3-1.9,2.5-2.6c1.1-0.8,2.5-1.2,4.2-1.2
			c1.7,0,3.1,0.4,4.2,1.2c1.1,0.8,1.9,1.7,2.4,2.6c0.4,0.5,0.6,1.2,0.7,2c0.1,0.8,0.2,2.5,0.2,5c0,2.4-0.1,4.1-0.2,5
			c-0.1,0.9-0.4,1.5-0.7,2.1c-0.5,1-1.3,1.9-2.4,2.6c-1.1,0.8-2.5,1.2-4.2,1.2c-1.7,0-3.1-0.4-4.2-1.2c-1.1-0.8-2-1.6-2.5-2.6
			c-0.2-0.3-0.3-0.6-0.4-0.9c-0.1-0.3-0.2-0.7-0.3-1.1C122.6,16.5,122.5,14.8,122.5,12.4z M125.8,12.4c0,2.1,0.1,3.5,0.2,4.3
			c0.1,0.7,0.4,1.3,0.8,1.8c0.3,0.4,0.8,0.8,1.3,1.1c0.5,0.3,1.2,0.5,2,0.5c0.8,0,1.4-0.2,2-0.5c0.5-0.3,1-0.6,1.3-1.1
			c0.4-0.5,0.7-1.1,0.9-1.8c0.1-0.7,0.2-2.2,0.2-4.3s-0.1-3.5-0.2-4.3c-0.2-0.7-0.4-1.3-0.9-1.8c-0.3-0.4-0.8-0.8-1.3-1.1
			c-0.6-0.3-1.2-0.4-2-0.5c-0.8,0-1.4,0.2-2,0.5c-0.6,0.3-1,0.7-1.3,1.1c-0.4,0.5-0.7,1-0.8,1.8C125.8,8.8,125.8,10.3,125.8,12.4z"
			/>
		<path d="M130.2,23.7c-1.8,0-3.3-0.5-4.5-1.3c-1.2-0.8-2.1-1.7-2.6-2.8c-0.2-0.3-0.3-0.7-0.4-1c-0.1-0.4-0.2-0.8-0.3-1.3
			c-0.2-0.9-0.2-2.5-0.2-5c0-2.5,0.1-4.2,0.2-5.1c0.2-0.9,0.4-1.6,0.8-2.2c0.5-1,1.4-2,2.6-2.8c1.2-0.8,2.7-1.3,4.5-1.3
			c1.8,0,3.3,0.5,4.5,1.3c1.2,0.8,2.1,1.8,2.6,2.8c0.4,0.5,0.6,1.3,0.8,2.2c0.1,0.9,0.2,2.5,0.2,5.1c0,2.5-0.1,4.1-0.2,5
			c-0.1,0.9-0.4,1.7-0.8,2.3c-0.5,1-1.4,1.9-2.6,2.7C133.5,23.2,131.9,23.7,130.2,23.7z M130.1,2c-1.6,0-2.9,0.4-3.9,1.1
			c-1.1,0.7-1.9,1.6-2.3,2.5c-0.3,0.5-0.5,1.1-0.7,1.9c-0.1,0.8-0.2,2.4-0.2,4.9c0,2.4,0.1,4,0.2,4.9c0.1,0.4,0.2,0.8,0.3,1
			c0.1,0.3,0.3,0.6,0.4,0.9c0.5,0.9,1.2,1.7,2.3,2.4c1,0.7,2.4,1.1,3.9,1.1c1.6,0,2.9-0.4,4-1.1c1.1-0.7,1.8-1.5,2.3-2.4
			c0.4-0.5,0.6-1.1,0.7-1.9c0.1-0.8,0.2-2.5,0.2-4.9c0-2.4-0.1-4.1-0.2-4.9c-0.1-0.8-0.3-1.4-0.7-1.8c-0.5-1-1.3-1.8-2.3-2.5
			C133.1,2.4,131.7,2,130.1,2z M130.1,20.5c-0.8,0-1.6-0.2-2.2-0.6c-0.6-0.3-1.1-0.7-1.5-1.2c-0.5-0.5-0.8-1.2-0.9-2
			c-0.2-0.8-0.2-2.2-0.2-4.4c0-2.2,0.1-3.6,0.2-4.4c0.2-0.8,0.5-1.5,1-2c0.4-0.5,0.9-0.9,1.5-1.2c0.6-0.3,1.3-0.5,2.2-0.5
			c0.9,0,1.6,0.2,2.2,0.5c0.6,0.3,1.1,0.8,1.5,1.2c0.4,0.5,0.8,1.2,0.9,2c0.2,0.8,0.2,2.2,0.2,4.4c0,2.2-0.1,3.6-0.2,4.4
			c-0.2,0.8-0.5,1.5-1,2c-0.3,0.5-0.8,0.9-1.4,1.2C131.8,20.3,131,20.5,130.1,20.5z M130.1,5.2c-0.7,0-1.2,0.2-1.7,0.4
			c-0.5,0.3-0.9,0.6-1.2,1c-0.4,0.4-0.6,0.9-0.7,1.6c-0.2,0.7-0.2,2.1-0.2,4.2c0,2.1,0.1,3.5,0.2,4.2c0.1,0.7,0.4,1.2,0.7,1.6
			c0.3,0.4,0.7,0.7,1.2,1c0.5,0.3,1.1,0.4,1.7,0.4c0.7,0,1.3-0.1,1.8-0.4c0.5-0.2,0.9-0.6,1.1-0.9c0.4-0.4,0.6-1,0.8-1.6
			c0.1-0.7,0.2-2.1,0.2-4.2c0-2.1-0.1-3.5-0.2-4.2c-0.1-0.6-0.4-1.1-0.7-1.5c-0.3-0.4-0.7-0.7-1.2-1C131.4,5.4,130.8,5.3,130.1,5.2z
			"/>
	</g>
	<g>
		<path d="M141.5,1.7h8.3c1.8,0,3.2,0.5,4.4,1.4c1.4,1.1,2.1,2.6,2.1,4.6c0,2.9-1.4,4.9-4.1,5.9l5,9.5h-3.9l-4.4-9.1h-4.1V23h-3.2
			V1.7z M144.8,11h4.9c1.2,0,2.1-0.4,2.7-1.1c0.6-0.6,0.9-1.4,0.9-2.3c0-1.1-0.4-1.9-1.1-2.4c-0.5-0.4-1.3-0.7-2.4-0.7h-5.1V11z"/>
		<path d="M158,23.5h-5l-4.4-9.1h-3.3v9.1H141V1.2h8.8c1.9,0,3.5,0.5,4.7,1.5c1.5,1.1,2.2,2.8,2.3,4.9c0,2.9-1.4,5-3.9,6.2L158,23.5
			z M153.6,22.5h2.7l-4.8-9.2l0.5-0.2c2.5-1,3.8-2.8,3.8-5.5c-0.1-1.8-0.7-3.2-1.9-4.2c-1-0.9-2.4-1.3-4-1.3H142v20.4h2.2v-9.1h4.9
			L153.6,22.5z M144.8,11.5h-0.5V4.1h5.6c1.1,0,2.1,0.3,2.7,0.8c0.8,0.6,1.2,1.5,1.3,2.8c0,1.1-0.3,2-1,2.7
			c-0.7,0.8-1.7,1.2-3.1,1.2H144.8z M145.3,10.5h4.4c1.1,0,1.8-0.3,2.4-0.9c0.5-0.6,0.8-1.2,0.8-2c0-0.9-0.3-1.6-0.9-2
			c-0.5-0.4-1.2-0.6-2.1-0.6h-4.6V10.5z"/>
	</g>
	<g>
		<path d="M162.9,4.6h-5.8V1.7H172v2.9h-5.8V23h-3.3V4.6z"/>
		<path d="M166.7,23.5h-4.3V5.1h-5.8V1.2h15.9v3.9h-5.8V23.5z M163.4,22.5h2.3V4.1h5.8V2.2h-13.9v1.9h5.8V22.5z"/>
	</g>
	<g>
		<path d="M174.3,1.7h13.6v3.1h-10.4V11h8.9v2.9h-8.9V23h-3.2V1.7z"/>
		<path d="M178,23.5h-4.2V1.2h14.6v4.1H178v5.3h8.9v3.9H178V23.5z M174.8,22.5h2.2v-9.1h8.9v-1.9H177V4.2h10.4V2.2h-12.6V22.5z"/>
	</g>
	<g>
		<path d="M189.7,12.4c0-2.5,0.1-4.1,0.2-5c0.2-0.8,0.4-1.5,0.7-2c0.5-1,1.3-1.9,2.5-2.6c1.1-0.8,2.5-1.2,4.2-1.2
			c1.7,0,3.1,0.4,4.2,1.2c1.1,0.8,1.9,1.7,2.4,2.6c0.4,0.5,0.6,1.2,0.7,2c0.1,0.8,0.2,2.5,0.2,5c0,2.4-0.1,4.1-0.2,5
			c-0.1,0.9-0.4,1.5-0.7,2.1c-0.5,1-1.3,1.9-2.4,2.6c-1.1,0.8-2.5,1.2-4.2,1.2c-1.7,0-3.1-0.4-4.2-1.2c-1.1-0.8-2-1.6-2.5-2.6
			c-0.2-0.3-0.3-0.6-0.4-0.9c-0.1-0.3-0.2-0.7-0.3-1.1C189.7,16.5,189.7,14.8,189.7,12.4z M192.9,12.4c0,2.1,0.1,3.5,0.2,4.3
			c0.1,0.7,0.4,1.3,0.8,1.8c0.3,0.4,0.8,0.8,1.3,1.1c0.5,0.3,1.2,0.5,2,0.5c0.8,0,1.4-0.2,2-0.5c0.5-0.3,1-0.6,1.3-1.1
			c0.4-0.5,0.7-1.1,0.9-1.8c0.1-0.7,0.2-2.2,0.2-4.3s-0.1-3.5-0.2-4.3c-0.2-0.7-0.4-1.3-0.9-1.8c-0.3-0.4-0.8-0.8-1.3-1.1
			c-0.6-0.3-1.2-0.4-2-0.5c-0.8,0-1.4,0.2-2,0.5c-0.6,0.3-1,0.7-1.3,1.1c-0.4,0.5-0.7,1-0.8,1.8C193,8.8,192.9,10.3,192.9,12.4z"/>
		<path d="M197.3,23.7c-1.8,0-3.3-0.5-4.5-1.3c-1.2-0.8-2.1-1.7-2.6-2.8c-0.2-0.3-0.3-0.7-0.4-1c-0.1-0.4-0.2-0.8-0.3-1.3
			c-0.2-0.9-0.2-2.5-0.2-5c0-2.5,0.1-4.2,0.2-5.1c0.2-0.9,0.4-1.6,0.8-2.2c0.5-1,1.4-2,2.6-2.8c1.2-0.8,2.7-1.3,4.5-1.3
			c1.8,0,3.3,0.5,4.5,1.3c1.2,0.8,2.1,1.8,2.6,2.8c0.4,0.5,0.6,1.3,0.8,2.2c0.1,0.9,0.2,2.5,0.2,5.1c0,2.5-0.1,4.1-0.2,5
			c-0.1,0.9-0.4,1.7-0.8,2.3c-0.5,1-1.4,1.9-2.6,2.7C200.6,23.2,199.1,23.7,197.3,23.7z M197.3,2c-1.6,0-2.9,0.4-3.9,1.1
			c-1.1,0.7-1.9,1.6-2.3,2.5c-0.3,0.5-0.5,1.1-0.7,1.9c-0.1,0.8-0.2,2.4-0.2,4.9c0,2.4,0.1,4,0.2,4.9c0.1,0.4,0.2,0.8,0.3,1
			c0.1,0.3,0.3,0.6,0.4,0.9c0.5,0.9,1.2,1.7,2.3,2.4c1,0.7,2.4,1.1,3.9,1.1c1.6,0,2.9-0.4,4-1.1c1.1-0.7,1.8-1.5,2.3-2.4
			c0.4-0.5,0.6-1.1,0.7-1.9c0.1-0.8,0.2-2.5,0.2-4.9c0-2.4-0.1-4.1-0.2-4.9c-0.1-0.8-0.3-1.4-0.7-1.8c-0.5-1-1.3-1.8-2.3-2.5
			C200.2,2.4,198.9,2,197.3,2z M197.3,20.5c-0.8,0-1.6-0.2-2.2-0.6c-0.6-0.3-1.1-0.7-1.5-1.2c-0.5-0.5-0.8-1.2-0.9-2
			c-0.2-0.8-0.2-2.2-0.2-4.4c0-2.2,0.1-3.6,0.2-4.4c0.2-0.8,0.5-1.5,1-2c0.4-0.5,0.9-0.9,1.5-1.2c0.6-0.3,1.3-0.5,2.2-0.5
			c0.9,0,1.6,0.2,2.2,0.5c0.6,0.3,1.1,0.8,1.5,1.2c0.4,0.5,0.8,1.2,0.9,2c0.2,0.8,0.2,2.2,0.2,4.4c0,2.2-0.1,3.6-0.2,4.4
			c-0.2,0.8-0.5,1.5-1,2c-0.3,0.5-0.8,0.9-1.4,1.2C198.9,20.3,198.2,20.5,197.3,20.5z M197.3,5.2c-0.7,0-1.2,0.2-1.7,0.4
			c-0.5,0.3-0.9,0.6-1.2,1c-0.4,0.4-0.6,0.9-0.7,1.6c-0.2,0.7-0.2,2.1-0.2,4.2c0,2.1,0.1,3.5,0.2,4.2c0.1,0.7,0.4,1.2,0.7,1.6
			c0.3,0.4,0.7,0.7,1.2,1c0.5,0.3,1.1,0.4,1.7,0.4c0.7,0,1.3-0.1,1.8-0.4c0.5-0.2,0.9-0.6,1.1-0.9c0.4-0.4,0.6-1,0.8-1.6
			c0.1-0.7,0.2-2.1,0.2-4.2c0-2.1-0.1-3.5-0.2-4.2c-0.1-0.6-0.4-1.1-0.7-1.5c-0.3-0.4-0.7-0.7-1.2-1C198.6,5.4,198,5.3,197.3,5.2z"
			/>
	</g>
	<g>
		<path d="M208.7,1.7h3.2V20h10.4V23h-13.6V1.7z"/>
		<path d="M222.8,23.5h-14.6V1.2h4.2v18.3h10.4V23.5z M209.2,22.5h12.6v-2.1h-10.4V2.2h-2.2V22.5z"/>
	</g>
	<g>
		<path d="M225.4,1.7h3.2V23h-3.2V1.7z"/>
		<path d="M229.1,23.5h-4.2V1.2h4.2V23.5z M225.9,22.5h2.2V2.2h-2.2V22.5z"/>
	</g>
	<g>
		<path d="M232.4,12.4c0-2.5,0.1-4.1,0.2-5c0.2-0.8,0.4-1.5,0.7-2c0.5-1,1.3-1.9,2.5-2.6c1.1-0.8,2.5-1.2,4.2-1.2
			c1.7,0,3.1,0.4,4.2,1.2c1.1,0.8,1.9,1.7,2.4,2.6c0.4,0.5,0.6,1.2,0.7,2c0.1,0.8,0.2,2.5,0.2,5c0,2.4-0.1,4.1-0.2,5
			c-0.1,0.9-0.4,1.5-0.7,2.1c-0.5,1-1.3,1.9-2.4,2.6c-1.1,0.8-2.5,1.2-4.2,1.2c-1.7,0-3.1-0.4-4.2-1.2c-1.1-0.8-2-1.6-2.5-2.6
			c-0.2-0.3-0.3-0.6-0.4-0.9c-0.1-0.3-0.2-0.7-0.3-1.1C232.5,16.5,232.4,14.8,232.4,12.4z M235.6,12.4c0,2.1,0.1,3.5,0.2,4.3
			c0.1,0.7,0.4,1.3,0.8,1.8c0.3,0.4,0.8,0.8,1.3,1.1c0.5,0.3,1.2,0.5,2,0.5c0.8,0,1.4-0.2,2-0.5c0.5-0.3,1-0.6,1.3-1.1
			c0.4-0.5,0.7-1.1,0.9-1.8c0.1-0.7,0.2-2.2,0.2-4.3s-0.1-3.5-0.2-4.3c-0.2-0.7-0.4-1.3-0.9-1.8c-0.3-0.4-0.8-0.8-1.3-1.1
			c-0.6-0.3-1.2-0.4-2-0.5c-0.8,0-1.4,0.2-2,0.5c-0.6,0.3-1,0.7-1.3,1.1c-0.4,0.5-0.7,1-0.8,1.8C235.7,8.8,235.6,10.3,235.6,12.4z"
			/>
		<path d="M240,23.7c-1.8,0-3.3-0.5-4.5-1.3c-1.2-0.8-2.1-1.7-2.6-2.8c-0.2-0.3-0.3-0.7-0.4-1c-0.1-0.4-0.2-0.8-0.3-1.3
			c-0.2-0.9-0.2-2.5-0.2-5c0-2.5,0.1-4.2,0.2-5.1c0.2-0.9,0.4-1.6,0.8-2.2c0.5-1,1.4-2,2.6-2.8c1.2-0.8,2.7-1.3,4.5-1.3
			c1.8,0,3.3,0.5,4.5,1.3c1.2,0.8,2.1,1.8,2.6,2.8c0.4,0.5,0.6,1.3,0.8,2.2c0.1,0.9,0.2,2.5,0.2,5.1c0,2.5-0.1,4.1-0.2,5
			c-0.1,0.9-0.4,1.7-0.8,2.3c-0.5,1-1.4,1.9-2.6,2.7C243.3,23.2,241.8,23.7,240,23.7z M240,2c-1.6,0-2.9,0.4-3.9,1.1
			c-1.1,0.7-1.9,1.6-2.3,2.5c-0.3,0.5-0.5,1.1-0.7,1.9c-0.1,0.8-0.2,2.4-0.2,4.9c0,2.4,0.1,4,0.2,4.9c0.1,0.4,0.2,0.8,0.3,1
			c0.1,0.3,0.3,0.6,0.4,0.9c0.5,0.9,1.2,1.7,2.3,2.4c1,0.7,2.4,1.1,3.9,1.1c1.6,0,2.9-0.4,4-1.1c1.1-0.7,1.8-1.5,2.3-2.4
			c0.4-0.5,0.6-1.1,0.7-1.9c0.1-0.8,0.2-2.5,0.2-4.9c0-2.4-0.1-4.1-0.2-4.9c-0.1-0.8-0.3-1.4-0.7-1.8c-0.5-1-1.3-1.8-2.3-2.5
			C242.9,2.4,241.6,2,240,2z M240,20.5c-0.8,0-1.6-0.2-2.2-0.6c-0.6-0.3-1.1-0.7-1.5-1.2c-0.5-0.5-0.8-1.2-0.9-2
			c-0.2-0.8-0.2-2.2-0.2-4.4c0-2.2,0.1-3.6,0.2-4.4c0.2-0.8,0.5-1.5,1-2c0.4-0.5,0.9-0.9,1.5-1.2c0.6-0.3,1.3-0.5,2.2-0.5
			c0.9,0,1.6,0.2,2.2,0.5c0.6,0.3,1.1,0.8,1.5,1.2c0.4,0.5,0.8,1.2,0.9,2c0.2,0.8,0.2,2.2,0.2,4.4c0,2.2-0.1,3.6-0.2,4.4
			c-0.2,0.8-0.5,1.5-1,2c-0.3,0.5-0.8,0.9-1.4,1.2C241.6,20.3,240.9,20.5,240,20.5z M240,5.2c-0.7,0-1.2,0.2-1.7,0.4
			c-0.5,0.3-0.9,0.6-1.2,1c-0.4,0.4-0.6,0.9-0.7,1.6c-0.2,0.7-0.2,2.1-0.2,4.2c0,2.1,0.1,3.5,0.2,4.2c0.1,0.7,0.4,1.2,0.7,1.6
			c0.3,0.4,0.7,0.7,1.2,1c0.5,0.3,1.1,0.4,1.7,0.4c0.7,0,1.3-0.1,1.8-0.4c0.5-0.2,0.9-0.6,1.1-0.9c0.4-0.4,0.6-1,0.8-1.6
			c0.1-0.7,0.2-2.1,0.2-4.2c0-2.1-0.1-3.5-0.2-4.2c-0.1-0.6-0.4-1.1-0.7-1.5c-0.3-0.4-0.7-0.7-1.2-1C241.3,5.4,240.7,5.3,240,5.2z"
			/>
	</g>
</g>
</svg>
