<?xml version="1.0" encoding="utf-8"?>
<!-- Generator: Adobe Illustrator 22.0.1, SVG Export Plug-In . SVG Version: 6.00 Build 0)  -->
<svg version="1.1" id="Layer_1" xmlns="http://www.w3.org/2000/svg" xmlns:xlink="http://www.w3.org/1999/xlink" x="0px" y="0px"
	 viewBox="0 0 156.3 157.2" style="enable-background:new 0 0 156.3 157.2;" xml:space="preserve">
<style type="text/css">
	.st0{clip-path:url(#SVGID_2_);fill:#B2B2B2;}
	.st1{clip-path:url(#SVGID_2_);fill:none;stroke:#000000;stroke-width:1.0799;stroke-miterlimit:10;}
	.st2{clip-path:url(#SVGID_2_);}
	.st3{fill:#B3A1A1;}
	.st4{fill:#FFE7D7;}
	.st5{fill:#312826;}
	.st6{fill:none;stroke:#000000;stroke-width:0.397;stroke-linecap:round;stroke-linejoin:round;stroke-miterlimit:10;}
	.st7{fill:#FF7A6C;}
	.st8{fill:#FFFFFE;}
	.st9{fill:#191817;}
	.st10{fill:none;stroke:#000000;stroke-width:0.9824;stroke-miterlimit:10;}
	.st11{fill:#FFFFFF;stroke:#000000;stroke-width:0.6234;stroke-miterlimit:10;}
</style>
<g>
	<path d="M154.9,155.3H1.4V1.9h153.5V155.3z M3.4,153.3h149.5V3.9H3.4V153.3z"/>
	<g>
		<defs>
			<rect id="SVGID_1_" x="3.4" y="3.9" width="149.5" height="149.4"/>
		</defs>
		<clipPath id="SVGID_2_">
			<use xlink:href="#SVGID_1_"  style="overflow:visible;"/>
		</clipPath>
		<rect x="3.4" y="3.9" class="st0" width="149.5" height="149.4"/>
		<path class="st1" d="M116.4,136.5H34.6c-9,0-16.3-7.3-16.3-16.3V66.4c0-9,7.3-16.3,16.3-16.3h81.8c9,0,16.3,7.3,16.3,16.3v53.7
			C132.7,129.1,125.4,136.5,116.4,136.5z"/>
		<g class="st2">
			<g>
				
					<rect x="108.8" y="96.9" transform="matrix(0.4129 -0.9108 0.9108 0.4129 -25.8868 181.1718)" class="st3" width="37.5" height="27.5"/>
				<g>
					<path class="st4" d="M122,103.6c0,0-0.4-1.9-1.4,0.2c-0.9,2.1,0.1,2.6,0.1,2.6l0.7,0.3l0.8-2.6L122,103.6z"/>
					<path class="st4" d="M136.3,110c0,0,1.7-0.9,0.7,1.2c-0.9,2.1-2,1.6-2,1.6l-0.7-0.3l1.4-2.3L136.3,110z"/>
					<path class="st4" d="M136.8,109.8c-3.2,5.3-7.1,7.3-11.3,5.4s-5.5-6.3-3.7-12.2c1.8-5.6,7.8-8.2,11.9-6.4
						C137.9,98.6,139.9,104.8,136.8,109.8z"/>
					<path class="st5" d="M135.8,98.2c0,0,0.4,1.8-2.1,2.7c0,0-9.3-0.8-12.4,4.1c0,0-0.6-3.2,3-7.5
						C125.7,95.9,133.4,92.6,135.8,98.2z"/>
					<path class="st5" d="M135.8,98.1c0,0,3.8,0,2.9,5.5c-0.8,5.5-2,6.2-2,6.2s-0.8-8.4-3.1-9C133.7,100.9,134.6,97.9,135.8,98.1z"
						/>
					<ellipse transform="matrix(0.4162 -0.9093 0.9093 0.4162 -21.3181 183.5363)" cx="132.3" cy="108.4" rx="0.6" ry="0.6"/>
					<line class="st6" x1="131.8" y1="105.9" x2="134.4" y2="107.1"/>
					<ellipse transform="matrix(0.4162 -0.9093 0.9093 0.4162 -22.3944 176.1716)" cx="126" cy="105.5" rx="0.6" ry="0.6"/>
					<line class="st6" x1="125.5" y1="103.1" x2="128.2" y2="104.2"/>
					<g>
						<ellipse transform="matrix(0.4127 -0.9109 0.9109 0.4127 -25.1271 180.1199)" cx="127.1" cy="109.5" rx="0.1" ry="0.2"/>
						<ellipse transform="matrix(0.4127 -0.9109 0.9109 0.4127 -24.9903 181.043)" cx="127.9" cy="109.9" rx="0.1" ry="0.2"/>
					</g>
					<path class="st7" d="M124.5,110.1c0,0,1.3,3.5,5.2,2.4L124.5,110.1z"/>
					<path class="st4" d="M126.7,118.3l1.6-3.5l-4.2-1.9l-1.6,3.5c0,0-3.1,0.3-5.3-0.3l3.6,9.6l9.6-3.6
						C128.5,120.8,126.7,118.3,126.7,118.3z"/>
					<polygon class="st8" points="118.6,119.9 126.6,123.5 122.6,132.4 114.4,128.7 					"/>
					<path class="st9" d="M121,116.4l-4.4,13.2l-6.4-2.9c0,0,4.9-11.7,6.1-11.5C117.5,115.4,121,116.4,121,116.4z"/>
					<path class="st9" d="M127.7,119.4l-7,12l6.4,2.9c0,0,5.6-11.3,4.7-12.2C130.8,121.4,127.7,119.4,127.7,119.4z"/>
				</g>
				
					<rect x="109" y="96.5" transform="matrix(0.4129 -0.9108 0.9108 0.4129 -25.3603 181.0942)" class="st10" width="37.5" height="27.5"/>
				<path class="st11" d="M122.2,83.4l-18.3,40.2l29.5,13.4l18.3-40.2L122.2,83.4z M132.6,133l-25.1-11.4L123,87.5l25.1,11.4
					L132.6,133z"/>
			</g>
			<g>
				<rect x="46.7" y="70.1" class="st3" width="27.5" height="37.5"/>
				<g>
					<path class="st4" d="M52.5,84.6c0,0-1.1-1.5-1.1,0.8s1.1,2.3,1.1,2.3h0.8L53,85L52.5,84.6z"/>
					<path class="st4" d="M68.2,84.6c0,0,1.1-1.5,1.1,0.8s-1.1,2.3-1.1,2.3h-0.8l0.3-2.7L68.2,84.6z"/>
					<path class="st4" d="M68.5,84.2c-0.8,6.1-4.9,9.4-8,9.6c-3.1,0.1-7.7-3.4-8.4-9.6c-0.7-5.9,3.7-10.7,8.2-10.7
						C64.9,73.5,69.3,78.4,68.5,84.2z"/>
					<path class="st5" d="M57.6,74c0,0-1.1,1.4,0.8,3.3c0,0,8.7,3.1,9.4,8.8c0,0,1.9-2.7,0.4-8C67.6,76.1,62.1,69.9,57.6,74z"/>
					<path class="st5" d="M57.6,73.9c0,0-3.4-1.5-4.9,3.8s-0.3,7.5-0.3,7.5s0.6-7.5,6-7.8C58.4,77.4,58.7,74.3,57.6,73.9z"/>
					<ellipse cx="63.8" cy="84.8" rx="0.6" ry="0.6"/>
					<line class="st6" x1="62.4" y1="82.7" x2="65.2" y2="82.7"/>
					<ellipse cx="56.9" cy="84.8" rx="0.6" ry="0.6"/>
					<line class="st6" x1="55.5" y1="82.7" x2="58.4" y2="82.7"/>
					<g>
						<ellipse cx="59.6" cy="88" rx="0.2" ry="0.1"/>
						<ellipse cx="60.5" cy="88" rx="0.2" ry="0.1"/>
					</g>
					<path class="st7" d="M57.4,89.6c0,0,2.7,2.7,5.7,0H57.4z"/>
					<path class="st4" d="M62.8,96.1v-3.8h-4.6v3.8c0,0-2.7,1.5-5,1.9l7.3,7.3l7.3-7.3C65.5,97.6,62.8,96.1,62.8,96.1z"/>
					<polygon class="st8" points="56.1,100.9 64.9,100.9 64.9,110.6 55.9,110.6 					"/>
					<path class="st9" d="M56.9,96.8l1.4,13.9h-7c0,0-0.4-12.6,0.8-13C53.2,97.2,56.9,96.8,56.9,96.8z"/>
					<path class="st9" d="M64.2,96.8l-1.4,13.9h7c0,0,0.4-12.6-0.8-13C67.9,97.2,64.2,96.8,64.2,96.8z"/>
				</g>
				<rect x="46.7" y="69.6" class="st10" width="27.5" height="37.5"/>
				<path class="st11" d="M44.3,66.2v44.2h32.4V66.2H44.3z M74.2,107.1H46.7V69.6h27.5V107.1z"/>
			</g>
			<g>
				
					<rect x="15.8" y="90.2" transform="matrix(0.8773 -0.48 0.48 0.8773 -48.6743 27.5649)" class="st3" width="27.5" height="37.5"/>
				<path class="st5" d="M35.5,103c-5-7.9-12.2-5.4-12.2-5.4s-6,4.7-2,13.2c0,0,1.3,5,3.6,6.6l7.1-3.9l7.1-3.9
					C39,106.8,35.5,103,35.5,103z"/>
				<g>
					<path class="st4" d="M20.5,109.1c0,0-1.7-0.8-0.6,1.2c1.1,2,2.1,1.5,2.1,1.5l0.7-0.4l-1.5-2.2L20.5,109.1z"/>
					<path class="st4" d="M34.3,101.6c0,0,0.3-1.9,1.4,0.1c1.1,2,0.1,2.6,0.1,2.6l-0.7,0.4l-1-2.5L34.3,101.6z"/>
					<path class="st4" d="M34.4,101.1c2.3,5.7,1.5,10.1-2.5,12.2c-4,2.2-8.4,0.7-12-4.3c-3.5-4.8-1.9-11.2,2.1-13.3
						C26.1,93.5,32.3,95.6,34.4,101.1z"/>
					<ellipse transform="matrix(0.8753 -0.4836 0.4836 0.8753 -46.4053 27.7229)" cx="30.5" cy="103.8" rx="0.6" ry="0.6"/>
					<line class="st6" x1="28.3" y1="102.7" x2="30.8" y2="101.3"/>
					<ellipse transform="matrix(0.8753 -0.4836 0.4836 0.8753 -48.7578 25.213)" cx="24.5" cy="107.1" rx="0.6" ry="0.6"/>
					<line class="st6" x1="22.3" y1="106" x2="24.8" y2="104.6"/>
					<g>
						<ellipse transform="matrix(0.8774 -0.4798 0.4798 0.8774 -48.6576 26.9505)" cx="28.4" cy="108.7" rx="0.2" ry="0.1"/>
						<ellipse transform="matrix(0.8774 -0.4798 0.4798 0.8774 -48.3667 27.2622)" cx="29.1" cy="108.2" rx="0.2" ry="0.1"/>
					</g>
					<path class="st4" d="M35.1,114.3l-1.8-3.4l-4,2.2l1.8,3.4c0,0-1.6,2.6-3.4,4.1l9.9,2.9l2.9-9.9
						C38.2,114.3,35.1,114.3,35.1,114.3z"/>
					<polygon class="st8" points="31.5,121.7 39.3,117.4 43.9,126 36.1,130.3 					"/>
					<path class="st9" d="M30.3,117.7l7.9,11.5l-6.2,3.4c0,0-6.4-10.9-5.6-11.8C27.3,119.9,30.3,117.7,30.3,117.7z"/>
					<path class="st9" d="M36.6,114.2L42,127l6.2-3.4c0,0-5.7-11.3-6.9-11S36.6,114.2,36.6,114.2z"/>
				</g>
				
					<rect x="15.6" y="89.8" transform="matrix(0.8773 -0.48 0.48 0.8773 -48.4966 27.3988)" class="st10" width="27.5" height="37.5"/>
				<path class="st11" d="M4.5,96.9l21.2,38.8l28.4-15.6L32.9,81.4L4.5,96.9z M50.4,118.4l-24.1,13.2l-18-32.9l24.1-13.2L50.4,118.4
					z"/>
				<path class="st5" d="M26.1,97.5c0,0,1.1,2.8,1.9,3.9c0.2,0.3,0.1,0.7-0.2,0.8l-0.9,0.5c-0.3,0.2-0.7,0.1-0.9-0.2
					c-0.6-0.8-1.1-2.3-1.4-2.8c0,0,0.2,2,0.8,3.1c0.2,0.3,0.1,0.7-0.2,0.8l-2.7,1.5c-0.3,0.1-0.4,0.4-0.4,0.7c0,0.9-0.3,2.7-2.2,3.1
					c0,0-9.8-11.2,4.9-14.3L26.1,97.5z"/>
				<path class="st5" d="M26.4,98c0,0,2,3.9,3.2,3.2c1.1-0.6,4.3,0.9,4.7-0.5c0.5-1.7-4-9.9-9.7-6.1L26.4,98z"/>
				<path class="st7" d="M27.7,110.8l4.4-2.4l-0.8,0.7c-0.7,0.7-1.6,1.2-2.6,1.4L27.7,110.8z"/>
			</g>
			<g>
				
					<rect x="81.1" y="69.7" transform="matrix(0.9999 1.351707e-02 -1.351707e-02 0.9999 1.2041 -1.2745)" class="st3" width="27.5" height="37.5"/>
				<path class="st5" d="M87.7,75.5c0,0-3.4,5.3-1.9,10.4c1.5,5.1,3.3,10.1,2,13.2c-1.3,3.1-3.2,5.6-1.3,5.6c1.9,0,3.3,1.3,3.8,0.1
					c0.6-1.2,2.5-5,2.5-8.7s-0.6-4.4-0.6-4.4L87.7,75.5z"/>
				<path class="st5" d="M100.6,80c0.5-1.4,1.3-3.9,1.9-2.6c1.2,2.5,1.4,6.5,0.7,8.7c-1.7,5-3.6,10-2.4,13.1s3,5.7,1.2,5.6
					c-1.9,0-3.3,1.2-3.8-0.1c-0.5-1.3-2.3-5-2.3-8.8s0.7-4.4,0.7-4.4L100.6,80z"/>
				<g>
					<path class="st4" d="M86.9,84.2c0,0-1.1-1.5-1.2,0.7c0,2.3,1.1,2.3,1.1,2.3l0.8,0l-0.3-2.7L86.9,84.2z"/>
					<path class="st4" d="M103,84c-0.8,6.1-3.6,9.5-8.2,9.5s-7.6-3.5-8.3-9.7c-0.7-5.9,3.8-10.7,8.4-10.6
						C99.5,73.2,103.8,78.1,103,84z"/>
					<path class="st5" d="M92,73.6c0,0-1.1,1.4,0.8,3.3c0,0,9,2.8,9.7,8.6c0,0,1.7-2.3,0.3-7.7C102.1,75.9,96.6,69.6,92,73.6z"/>
					<path class="st5" d="M92,73.5c0,0-3.4-1.6-5,3.8c-1.6,5.3,3.5-0.7,5.7-0.3C92.7,77,93.2,73.9,92,73.5z"/>
					
						<ellipse transform="matrix(1.364965e-02 -0.9999 0.9999 1.364965e-02 12.4756 181.5573)" cx="98.3" cy="84.5" rx="0.6" ry="0.6"/>
					<line class="st6" x1="96.9" y1="82.4" x2="99.7" y2="82.4"/>
					
						<ellipse transform="matrix(1.364965e-02 -0.9999 0.9999 1.364965e-02 5.7743 174.5777)" cx="91.4" cy="84.4" rx="0.6" ry="0.6"/>
					<line class="st6" x1="90" y1="82.3" x2="92.8" y2="82.3"/>
					<g>
						
							<ellipse transform="matrix(1.351105e-02 -0.9999 0.9999 1.351105e-02 5.1516 180.4166)" cx="94" cy="87.6" rx="0.1" ry="0.2"/>
						
							<ellipse transform="matrix(1.351105e-02 -0.9999 0.9999 1.351105e-02 5.9894 181.289)" cx="94.9" cy="87.6" rx="0.1" ry="0.2"/>
					</g>
					<path class="st7" d="M91.8,89.2c0,0,2.6,2.7,5.7,0.1L91.8,89.2z"/>
					<path class="st4" d="M97.1,95.8l0.1-3.8l-4.6-0.1l-0.1,3.8c0,0-2.7,1.5-5,1.8l7.2,7.4l7.4-7.2C99.8,97.3,97.1,95.8,97.1,95.8z"
						/>
					<polygon class="st8" points="90.3,100.5 99.1,100.6 99,110.3 90,110.2 					"/>
					<path class="st9" d="M91.2,96.3l1.2,13.9l-7-0.1c0,0-0.2-12.6,0.9-13S91.2,96.3,91.2,96.3z"/>
					<path class="st9" d="M98.5,96.4l-1.6,13.9l7,0.1c0,0,0.6-12.6-0.6-13C102.1,97,98.5,96.4,98.5,96.4z"/>
				</g>
				
					<rect x="81.1" y="69.2" transform="matrix(0.9999 1.351707e-02 -1.351707e-02 0.9999 1.1974 -1.2746)" class="st10" width="27.5" height="37.5"/>
				<path class="st11" d="M79,65.6l-0.6,44.2l32.4,0.4l0.6-44.2L79,65.6z M108.4,106.9l-27.5-0.4L81.4,69l27.5,0.4L108.4,106.9z"/>
				<path class="st5" d="M92.5,76.7c0,0-3.8,3.1-4.4,5.5c-0.7,2.5-0.1,4.4-0.1,4.4s-1.2-1.9-1.8-3.1c-0.6-1.3,1.3-5.6,1.3-5.6
					L92.5,76.7z"/>
				<path class="st5" d="M99.4,80.6c0,0,3,3.7,1,10.5c-2,6.8-4.5,13-2.1,13.7c2.5,0.7,3.7,0.1,3.7,0.1s2.6-22.5,0.7-26.5
					C101.3,74.9,99.4,80.6,99.4,80.6z"/>
			</g>
		</g>
		<path class="st2" d="M111.4,43.9H37.6c-3.5,0-6.3-2.8-6.3-6.3v-4.3c0-3.5,2.8-6.3,6.3-6.3h73.9c3.5,0,6.3,2.8,6.3,6.3v4.3
			C117.7,41.1,114.9,43.9,111.4,43.9z"/>
		<path class="st2" d="M26,43.9H10.7c-1.7,0-3.1-1.4-3.1-3.1V30.2c0-1.7,1.4-3.1,3.1-3.1H26c1.7,0,3.1,1.4,3.1,3.1v10.6
			C29.1,42.5,27.7,43.9,26,43.9z"/>
		<path class="st2" d="M24.2,22.8H12.5c-1.5,0-2.8-1.3-2.8-2.8V8.8c0-1.5,1.3-2.8,2.8-2.8h11.7C25.7,6,27,7.2,27,8.8V20
			C27,21.6,25.7,22.8,24.2,22.8z"/>
		<path class="st2" d="M3.6,22.8H-8c-1.5,0-2.8-1.3-2.8-2.8V8.8C-10.8,7.2-9.6,6-8,6H3.6c1.5,0,2.8,1.3,2.8,2.8V20
			C6.5,21.6,5.2,22.8,3.6,22.8z"/>
		<path class="st2" d="M64.1,22.8H52.5c-1.5,0-2.8-1.3-2.8-2.8V8.8c0-1.5,1.3-2.8,2.8-2.8h11.7c1.5,0,2.8,1.3,2.8,2.8V20
			C66.9,21.6,65.7,22.8,64.1,22.8z"/>
		<path class="st2" d="M43.6,22.8H31.9c-1.5,0-2.8-1.3-2.8-2.8V8.8c0-1.5,1.3-2.8,2.8-2.8h11.7c1.5,0,2.8,1.3,2.8,2.8V20
			C46.4,21.6,45.2,22.8,43.6,22.8z"/>
		<path class="st2" d="M104.1,22.8H92.4c-1.5,0-2.8-1.3-2.8-2.8V8.8c0-1.5,1.3-2.8,2.8-2.8h11.7c1.5,0,2.8,1.3,2.8,2.8V20
			C106.9,21.6,105.7,22.8,104.1,22.8z"/>
		<path class="st2" d="M83.6,22.8H71.9c-1.5,0-2.8-1.3-2.8-2.8V8.8c0-1.5,1.3-2.8,2.8-2.8h11.7c1.5,0,2.8,1.3,2.8,2.8V20
			C86.4,21.6,85.1,22.8,83.6,22.8z"/>
		<path class="st2" d="M144.1,22.8h-11.7c-1.5,0-2.8-1.3-2.8-2.8V8.8c0-1.5,1.3-2.8,2.8-2.8h11.7c1.5,0,2.8,1.3,2.8,2.8V20
			C146.9,21.6,145.6,22.8,144.1,22.8z"/>
		<path class="st2" d="M163.5,22.8h-11.7c-1.5,0-2.8-1.3-2.8-2.8V8.8c0-1.5,1.3-2.8,2.8-2.8h11.7c1.5,0,2.8,1.3,2.8,2.8V20
			C166.3,21.6,165.1,22.8,163.5,22.8z"/>
		<path class="st2" d="M123.6,22.8h-11.7c-1.5,0-2.8-1.3-2.8-2.8V8.8c0-1.5,1.3-2.8,2.8-2.8h11.7c1.5,0,2.8,1.3,2.8,2.8V20
			C126.4,21.6,125.1,22.8,123.6,22.8z"/>
		<path class="st2" d="M2.2,43.9h-15.3c-1.7,0-3.1-1.4-3.1-3.1V30.2c0-1.7,1.4-3.1,3.1-3.1H2.2c1.7,0,3.1,1.4,3.1,3.1v10.6
			C5.4,42.5,4,43.9,2.2,43.9z"/>
		<path class="st2" d="M138.3,43.9H123c-1.7,0-3.1-1.4-3.1-3.1V30.2c0-1.7,1.4-3.1,3.1-3.1h15.3c1.7,0,3.1,1.4,3.1,3.1v10.6
			C141.5,42.5,140.1,43.9,138.3,43.9z"/>
		<path class="st2" d="M162.1,43.9h-15.3c-1.7,0-3.1-1.4-3.1-3.1V30.2c0-1.7,1.4-3.1,3.1-3.1h15.3c1.7,0,3.1,1.4,3.1,3.1v10.6
			C165.2,42.5,163.8,43.9,162.1,43.9z"/>
	</g>
</g>
</svg>
