<?xml version="1.0" encoding="utf-8"?>
<!-- Generator: Adobe Illustrator 22.0.1, SVG Export Plug-In . SVG Version: 6.00 Build 0)  -->
<svg version="1.1" id="Layer_1" xmlns="http://www.w3.org/2000/svg" xmlns:xlink="http://www.w3.org/1999/xlink" x="0px" y="0px"
	 viewBox="0 0 150 150" style="enable-background:new 0 0 150 150;" xml:space="preserve">
<style type="text/css">
	.st0{fill:url(#SVGID_1_);stroke:#000000;stroke-width:2;stroke-miterlimit:10;}
	.st1{fill:none;stroke:#FFFFFF;stroke-width:4;stroke-miterlimit:10;}
	.st2{fill:#FFFFFF;}
	.st3{fill:url(#SVGID_2_);stroke:#000000;stroke-width:2;stroke-miterlimit:10;}
</style>
<g>
	
		<linearGradient id="SVGID_1_" gradientUnits="userSpaceOnUse" x1="75" y1="38.7" x2="75" y2="115.3" gradientTransform="matrix(1 0 0 -1 0 152)">
		<stop  offset="6.941105e-02" style="stop-color:#662D91"/>
		<stop  offset="0.1952" style="stop-color:#9E005D"/>
		<stop  offset="0.3781" style="stop-color:#D4145A"/>
		<stop  offset="0.5019" style="stop-color:#E53D7B"/>
		<stop  offset="0.6377" style="stop-color:#F7679D"/>
		<stop  offset="0.8564" style="stop-color:#F98D6B"/>
		<stop  offset="1" style="stop-color:#FAA24E"/>
	</linearGradient>
	<path class="st0" d="M104.6,113.3H45.4c-5.2,0-9.5-4.3-9.5-9.5V46.2c0-5.2,4.3-9.5,9.5-9.5h59.3c5.2,0,9.5,4.3,9.5,9.5v57.7
		C114.1,109.1,109.9,113.3,104.6,113.3z"/>
	<circle class="st1" cx="75.1" cy="75" r="9.8"/>
	<circle class="st2" cx="89.4" cy="60.3" r="2.6"/>
	<path class="st1" d="M83.9,98.8H66.4c-8.9,0-16.2-7.3-16.2-16.2V65.2c0-8.9,7.3-16.2,16.2-16.2h17.4c8.9,0,16.2,7.3,16.2,16.2v17.4
		C100.1,91.5,92.7,98.8,83.9,98.8z"/>
</g>
<rect x="-156" y="10" class="st2" width="130" height="130"/>
<g>
	
		<linearGradient id="SVGID_2_" gradientUnits="userSpaceOnUse" x1="-91" y1="38.7" x2="-91" y2="115.3" gradientTransform="matrix(1 0 0 -1 0 152)">
		<stop  offset="6.941105e-02" style="stop-color:#662D91"/>
		<stop  offset="0.1952" style="stop-color:#9E005D"/>
		<stop  offset="0.3781" style="stop-color:#D4145A"/>
		<stop  offset="0.5019" style="stop-color:#E53D7B"/>
		<stop  offset="0.6377" style="stop-color:#F7679D"/>
		<stop  offset="0.8564" style="stop-color:#F98D6B"/>
		<stop  offset="1" style="stop-color:#FAA24E"/>
	</linearGradient>
	<path class="st3" d="M-61.4,113.3h-59.3c-5.2,0-9.5-4.3-9.5-9.5V46.2c0-5.2,4.3-9.5,9.5-9.5h59.3c5.2,0,9.5,4.3,9.5,9.5v57.7
		C-51.9,109.1-56.1,113.3-61.4,113.3z"/>
	<circle class="st1" cx="-90.9" cy="75" r="9.8"/>
	<circle class="st2" cx="-76.6" cy="60.3" r="2.6"/>
	<path class="st1" d="M-82.1,98.8h-17.4c-8.9,0-16.2-7.3-16.2-16.2V65.2c0-8.9,7.3-16.2,16.2-16.2h17.4c8.9,0,16.2,7.3,16.2,16.2
		v17.4C-65.9,91.5-73.3,98.8-82.1,98.8z"/>
</g>
</svg>
