<?xml version="1.0" encoding="utf-8"?>
<!-- Generator: Adobe Illustrator 22.0.1, SVG Export Plug-In . SVG Version: 6.00 Build 0)  -->
<svg version="1.1" id="Layer_1" xmlns="http://www.w3.org/2000/svg" xmlns:xlink="http://www.w3.org/1999/xlink" x="0px" y="0px"
	 viewBox="0 0 156.3 157.2" style="enable-background:new 0 0 156.3 157.2;" xml:space="preserve">
<style type="text/css">
	.st0{fill:#BF5555;}
	.st1{clip-path:url(#SVGID_2_);}
	.st2{fill:#D6AF94;}
	.st3{fill:#2D2D2D;}
	.st4{fill:#151516;}
	.st5{fill:#FFFFFF;}
	.st6{fill:#F4D0B8;}
	.st7{opacity:0.5;clip-path:url(#SVGID_2_);}
	.st8{fill:#C19284;}
	.st9{fill:#434344;}
	.st10{fill:#545454;}
	.st11{fill:#E06E6E;}
	.st12{opacity:0.53;clip-path:url(#SVGID_2_);}
	.st13{fill:#DB4545;}
	.st14{fill:#E2E2E2;}
	.st15{opacity:0.33;clip-path:url(#SVGID_2_);}
	.st16{opacity:0.4;clip-path:url(#SVGID_2_);}
	.st17{fill:#1E1E1E;}
	.st18{opacity:0.11;clip-path:url(#SVGID_2_);}
	.st19{fill:#6D6C6D;}
	.st20{opacity:0.35;clip-path:url(#SVGID_2_);}
</style>
<g>
	<rect x="2.1" y="2.9" class="st0" width="151.5" height="151.5"/>
	<path d="M154.7,155.3H1.1V1.9h153.5V155.3z M3.1,153.3h149.5V3.9H3.1V153.3z"/>
</g>
<g>
	<g>
		<defs>
			<rect id="SVGID_1_" x="3.1" y="7.2" width="147.6" height="146.1"/>
		</defs>
		<clipPath id="SVGID_2_">
			<use xlink:href="#SVGID_1_"  style="overflow:visible;"/>
		</clipPath>
		<g class="st1">
			<path class="st2" d="M-21.4,122.4c0.7,0.1,4,1.5,5.9,2.7c1.9,1.1,5.1,2.3,6.4,0.6s-4-6.7-4.9-7.8c-0.9-1-3.5-2.4-4.9-2.8
				c-0.5-0.1-2.9,0-3.9-0.1c-1-0.1-2.5,2.8-3.4,5s0.7,4.7,1,5.9c0.3,1.1,8.4,12.6,8.4,12.6l22.5-8.6c0,0,1.2-1.7,0.8-4.4
				s-1.4-8.6-1.9-9.9c-0.5-1.3-6.1-6-7.8-7.4c-1.7-1.4-1.4-2.7-4.8-1.2c-3.4,1.5-10.6,3.7-10.8,4.8c-0.2,1.4-0.8,3,4.2,3.2
				s8.7-0.5,8.6-0.8c-0.1-0.3-0.4,3.6,0.4,4s3.6,3.5,4.9,3.4"/>
		</g>
		<g class="st1">
			<polyline class="st0" points="220.4,155.4 -48.3,155.4 -48.3,5.8 220.4,5.8 			"/>
		</g>
		<g class="st1">
			<path class="st3" d="M41.5,106.8c0,0-13.7,6.1-19.2,10.7s-11.1,10.1-11.1,10.1l6.7,28H57L41.5,106.8z"/>
		</g>
		<g class="st1">
			<path class="st4" d="M58.7,90.6c0,0-3.8,15.3-5.5,16.6c-1,0.8-1.9-5,0.3-7.7S58.7,90.6,58.7,90.6z"/>
		</g>
		<g class="st1">
			<path class="st3" d="M100.9,94.2c0,0,30.6,5.6,35.3,9.9c4.6,4.3,5,49.7,3.8,51.5H82.9l11.3-62L100.9,94.2z"/>
		</g>
		<g class="st1">
			<path class="st5" d="M53.2,106.8c0,0,22.2-3.4,25.8-7.1s1.6,2.4,1.6,2.4l-2.3,53.5H65L53.2,106.8z"/>
		</g>
		<g class="st1">
			<path class="st3" d="M57.7,94.2c0,0-7.9,7-4.5,12.6c3.4,5.6,6.6,21.3,8.8,26c2.2,4.7,6,15.3,6.6,17.4c0.6,2.2,1.5,5.3,1.5,5.3
				H49.3c0,0-17-31.1-18.5-32.4c0,0,1.9-2.9,8.1-6.1c0,0,1.2-0.5,2.8-0.8c1.1-0.2-5.5-0.3-6.6,0c-1.3,0.3,5.3-8.8,6.4-9.5
				c1-0.7,5.3-3.4,6.7-6c1.4-2.5,5.4-9.2,8.9-8.6S57.7,94.2,57.7,94.2z"/>
		</g>
		<g class="st1">
			<path class="st6" d="M83.9,88.8c0,0-4.5,8-4.8,11.7c0,0-21.6,7.3-24.4,7c-2.8-0.3-1-2.9,0.6-5.6c1.6-2.8,4.3-12.7,2.4-18.1
				c-1.9-5.4-1.2-5.9-1.2-5.9L83.9,88.8z"/>
		</g>
		<g class="st7">
			<path class="st8" d="M75,96.1c2.4-0.5,4.5-1.4,8.9-7.3c0,0-17.4-5.1-25.4-7.1c0,0,0.5,14.3,11.2,14.4
				C70.7,96.2,73.9,96.3,75,96.1z"/>
		</g>
		<g class="st1">
			<path class="st3" d="M83.9,88.8c0,0-5.1,5.9-6.5,20S75,155.6,75,155.6H93c0,0,15-46.5,15.3-47.2c0.3-0.7-11.7-3.6-11.7-3.6
				s6.1-1,6.8-1.5c0.7-0.5-3.7-7.8-9.2-9.6S83.9,88.8,83.9,88.8z"/>
		</g>
		<g class="st1">
			<path d="M57.1,29.1c-3.6,2.5-8.6,8.5-9,9.1c-2.9,4.7-3.3,5.8-5.2,14.7c-1.9,9.1-4.9,26.9-2,32c2.9,5,6.4,6.6,12.4,7.7
				s16,2.3,17.2,1.4c1.2-0.9-2.7-3.3-2.7-3.3s-8.7-6.5-9.3-13.3c-0.5-5.7-0.2-18.2,1.4-24.4c0.4-1.6,2-2.5,3.6-2.1
				c1.5,0.4,3.2,0.7,3.6,0.2c0.7-0.7,18.7,3.1,25.5,4.6c1.4,0.3,2.4,1.7,2.3,3.1c-0.6,5.5-2.2,18.3-5.1,21.4c-3.7,4-7.4,6.6-6,8.6
				c1.4,2,5.1,8.7,9.6,7.8c4.5-0.9,13.3-2.2,11.8-14.4c-1.5-11.9-1.1-31.9-4.1-38c-0.2-0.3-0.3-0.7-0.5-1.1
				c-0.7-1.9-3.6-8.1-6.8-10.5c-3.7-2.9-10.8-8.7-19-8.5C66.7,24.2,59.2,27.6,57.1,29.1z"/>
		</g>
		<g class="st1">
			<path class="st6" d="M95.2,57.9c0,0-1.3,14.2-1.8,16c-0.5,1.9-3.2,9.1-7.5,13c0,0-4.7,4.3-7.9,6.1c-2.7,1.6-6.8,2.1-11.4-2.2
				c-4.6-4.4-9.5-9.4-9.6-12.9c-0.1-3.5,0.3-9.2,0.4-12.4c0.1-2.6,1.5-10.5,2.8-14c0.3-0.9,1.2-1.6,2.2-1.7c1.2-0.1,3-0.3,4,0
				c0.3,0.1,0.5-0.1,0.6-0.4c0.7-2.2,3.1-10.3,4.6-11.3c0,0-4.5,12.4-2.1,12.4c0,0,1.2-0.2,3.1-0.2c0.3,0,0.6-0.2,0.6-0.5
				c0.2-2.3,1-10.8,1.6-11.7c0,0-0.1,9.2,0,11.6c0,0.3,0.3,0.6,0.6,0.6c1.8,0.2,7.8,0.7,11.6,1.4c0.3,0.1,0.6-0.1,0.7-0.4
				c0.7-1.4,2.5-6.2,0.8-13.3c0,0,2.3,9.5,2.3,12.4c0,1.5,0,2.2,0.3,2.4C92.2,53.9,95,54.9,95.2,57.9z"/>
		</g>
		<g class="st1">
			<path class="st5" d="M82.9,62.4c0,0,3.4-6.3,9.9,0C92.8,62.4,87.8,67.2,82.9,62.4z"/>
			<path class="st9" d="M87.6,64.7c-1.5,0-3.1-0.5-4.8-2.2l-0.1-0.1l0.1-0.1c0.1-0.1,1.4-2.5,3.9-2.9c1.9-0.3,4,0.7,6.2,2.8l0.1,0.1
				l-0.1,0.1c-0.1,0-1.3,1.2-3.2,1.8C89.1,64.6,88.4,64.7,87.6,64.7z M83.1,62.4c1.9,1.9,4.1,2.4,6.5,1.7c1.5-0.5,2.6-1.4,3-1.7
				c-2.1-2-4-2.9-5.8-2.6C84.6,60.1,83.4,62,83.1,62.4z"/>
		</g>
		<g class="st1">
			<ellipse cx="87.4" cy="62" rx="2.5" ry="2.3"/>
		</g>
		<g class="st1">
			<ellipse class="st5" cx="88.4" cy="61" rx="0.7" ry="0.7"/>
		</g>
		<g class="st1">
			<path class="st10" d="M88.2,62.4c-0.2,0.3-0.7,0.4-1,0.2c-0.3-0.2-0.4-0.7-0.2-1s0.4,0,0.7,0.2C88,62,88.4,62.1,88.2,62.4z"/>
		</g>
		<g class="st1">
			<path d="M92.8,62.4C92.8,62.4,92.9,62.4,92.8,62.4c-6.3-6.9-9.9-0.2-9.9-0.2c0,0,0,0,0.1,0.1C83.5,61.6,86.9,56.7,92.8,62.4z"/>
		</g>
		<g class="st1">
			<path class="st5" d="M72.2,61.5c0,0-2.4-6.8-9.7-1.5C62.4,60,66.6,65.4,72.2,61.5z"/>
			<path class="st9" d="M68.1,63.1c-1.1,0-2.1-0.3-2.9-0.7c-1.8-0.9-2.8-2.2-2.9-2.3l-0.1-0.1l0.1-0.1c2.5-1.8,4.7-2.4,6.5-1.8
				c2.5,0.8,3.4,3.3,3.4,3.4l0,0.1l-0.1,0.1C70.7,62.7,69.3,63.1,68.1,63.1z M62.6,60c0.3,0.3,1.3,1.4,2.7,2.1
				c2.2,1.1,4.5,0.9,6.7-0.7c-0.2-0.5-1.1-2.5-3.2-3.1C67,57.7,65,58.3,62.6,60z"/>
		</g>
		<g class="st1">
			<ellipse transform="matrix(0.1267 -0.9919 0.9919 0.1267 -0.6017 119.8829)" cx="67.8" cy="60.3" rx="2.3" ry="2.5"/>
		</g>
		<g class="st1">
			<path d="M62.4,60C62.4,59.9,62.3,59.9,62.4,60c7.3-5.9,9.8,1.3,9.8,1.3c0,0,0,0-0.1,0.1C71.8,60.5,69.1,55.2,62.4,60z"/>
		</g>
		<g class="st1">
			<path d="M62.4,58.9C62.3,58.9,62.3,58.8,62.4,58.9c7.6-4.9,9.6,2,9.6,2c0,0,0,0-0.1,0C71.6,60.2,69.3,55,62.4,58.9z"/>
		</g>
		<g class="st1">
			<path d="M92.7,60.9C92.7,60.8,92.8,60.8,92.7,60.9c-7.3-5.4-9.8,1.3-9.8,1.3c0,0,0,0,0.1,0C83.4,61.5,86.1,56.5,92.7,60.9z"/>
		</g>
		<g class="st1">
			<path d="M83.4,54.7c-0.7,0.2-1.2,0.7-1.3,1.4c0,0.3,0,0.5,0.2,0.6c0.5,0.3,8.2-1.6,11.7-0.5l2.1,0.9l-2.4-2.4
				c-0.2-0.2-0.5-0.3-0.7-0.4C91.8,54,88.4,53.5,83.4,54.7z"/>
		</g>
		<g class="st1">
			<path d="M73.7,53.8c0.7,0.2,1.1,0.8,1.2,1.5c0,0.3,0,0.5-0.2,0.6c-0.5,0.2-8-2.3-11.6-1.4l-2.2,0.7l2.6-2.2
				c0.2-0.2,0.5-0.3,0.8-0.3C65.4,52.4,68.8,52.1,73.7,53.8z"/>
		</g>
		<g class="st1">
			<ellipse class="st5" cx="68.8" cy="59.5" rx="0.7" ry="0.7"/>
		</g>
		<g class="st1">
			<path class="st10" d="M68.7,60.9c-0.2,0.3-0.7,0.4-1,0.2c-0.3-0.2-0.4-0.7-0.2-1c0.2-0.3,0.4,0,0.7,0.2
				C68.5,60.5,68.9,60.6,68.7,60.9z"/>
		</g>
		<g class="st1">
			<path d="M74,74c0.4-0.3,1.2-0.6,1.9,0.4c0.1,0.1,0,0.3-0.2,0.3c-0.4,0-1.1,0-1.7-0.2C73.9,74.4,73.8,74.1,74,74z"/>
		</g>
		<g class="st1">
			<path class="st11" d="M68.3,79.4c0,0,1.2,2,1.6,2.6c0.4,0.6,2.4,2.4,4.2,2.8s4.8,0.2,5.9-0.6c1.1-0.8,3.1-2.9,3.1-2.9L68.3,79.4z
				"/>
		</g>
		<g class="st1">
			<path d="M81,74.5c-0.4-0.3-1.2-0.6-1.9,0.4c-0.1,0.1,0,0.3,0.2,0.3c0.4,0,1.1,0,1.7-0.2C81.2,74.9,81.2,74.6,81,74.5z"/>
		</g>
		<g class="st12">
			<path class="st8" d="M71.6,71.6c0,0-2,2.4,0.8,3.4C72.4,75,70.5,73.9,71.6,71.6z"/>
		</g>
		<g class="st12">
			<path class="st8" d="M82.1,72.7c0,0,1.9,2.3-0.8,3.2C81.3,75.9,83.1,74.9,82.1,72.7z"/>
		</g>
		<g class="st12">
			<path class="st8" d="M81.3,57.6c0,0-2.4,1.7-2,4.8C79.3,62.4,80.4,58.6,81.3,57.6z"/>
		</g>
		<g class="st1">
			<path class="st13" d="M75.6,78.8l0.9,0.5c0.3,0.2,0.6,0.2,0.9,0.1l1.3-0.4c0.3-0.1,0.7-0.1,1,0.1l2,1.2c0.6,0.4,1.3,0.5,2,0.3
				c0.1,0,0.2,0.1,0.1,0.2l0,0L83.6,81c-0.1,0.1-0.2,0.1-0.3,0.2l-0.1,0.1c-0.1,0-0.2,0.1-0.2,0.1c-0.5,0.3-1,0.4-1.6,0.3l-2.4-0.4
				c-0.3-0.1-0.6,0-0.8,0l-1.3,0.3c-0.3,0.1-0.6,0-0.8-0.1L75,81.1c-0.3-0.1-0.6-0.2-0.9-0.1l-1.2,0.1c-0.3,0-0.6,0-0.8,0
				c-0.3,0-0.7-0.1-1.1-0.2c-0.3-0.1-0.6-0.2-0.8-0.3c-0.5-0.3-1.3-0.8-1.6-1l-0.2-0.2c-0.2-0.1-0.1-0.5,0.2-0.4l1.8,0.6
				c0.2,0.1,0.5,0.1,0.8,0.1c0.4,0,0.9-0.1,1.3-0.2l2.5-0.8C75.1,78.6,75.4,78.6,75.6,78.8z"/>
		</g>
		<g class="st1">
			<ellipse class="st14" cx="73.7" cy="71" rx="0.4" ry="0.4"/>
		</g>
		<g class="st1">
			<path class="st3" d="M-21,133c0,0-6.8,4.8-5,7.4c1.7,2.6,12.2,14.4,12.3,15.2c0.2,0.8,38.9,0.4,38.9,0.4s-9.6-26.9-9.7-28.9
				c-0.2-2-6.4-5.8-9.2-5.8S-21,133-21,133z"/>
		</g>
		<g class="st1">
			<path class="st4" d="M5.9,122.7c0,0,7.2,1.4,7,2.8c-0.3,1.5-12.1,6.5-16,7.5c-3.9,0.9-17.4,7.4-19.4,6.9c-2-0.5-2.6-2.1-1.1-3.5
				c1.2-1.2,2.8-2.3,3.3-2.7c0.1-0.1,0.2-0.1,0.3-0.2L5.9,122.7z"/>
		</g>
		<g class="st1">
			<path class="st2" d="M-18.9,111.7c0.4,1.3-0.9,3,4.1,3.3c0.8,0,1.6,0.1,2.3,0.1l12.8-3.7c0,0,0,0,0,0c-1.5-1.3-3-2.6-3.8-3.2
				c-1.7-1.4-2.2-2.2-5.6-0.7C-12.4,108.9-19.4,110.4-18.9,111.7z"/>
		</g>
		<g class="st1">
			<path class="st2" d="M-21.5,115.5C-21.5,115.5-21.4,115.5-21.5,115.5C-21.4,115.5-21.5,115.5-21.5,115.5z"/>
		</g>
		<g class="st1">
			<path class="st2" d="M-7.4,121.9l-3.2,0.1c-1-1.1-3.5-2-4.1-2.8c-0.9-1-3.6-2.1-4-2.3c-0.3-0.2-1.5-0.8-2.6-1.3
				c1.9,1,9.2,8.5,11,9C-8.5,125.1-7.7,123.3-7.4,121.9z"/>
		</g>
		<g class="st1">
			<path class="st6" d="M6.3,125.4c-0.4-2.7-1.4-8.6-1.9-9.9c-0.3-0.7-2.1-2.5-4-4.2h0c0,0-1.7-4.9-2.3-7.3s-0.4-6.5-0.5-7
				c-0.1-0.5-0.4-5.5-0.4-6.4c0-0.9-0.4-10-2.7-10.6c-2.5-0.6-3.7,0.3-3.4,5.4c0.3,5.1-0.2,17.1-0.5,18.3c-0.3,1-0.7,1-2.4,0.7
				c-0.3,0-3-1.7-3.8-2.6c-0.8-1-10.4-13.4-11.6-14.4c-1.1-1-3.8-4.8-6.8-2.1c0,0-1.7,1,0.4,3.5c2.2,2.5,4.6,5.2,5.7,7.2
				c1,2,4.6,6.1,5.8,7.7c1.2,1.6,2.3,3,2.3,3c-4.5-0.9-3.8,1.9-4.6,3.8s2.8,4.8,3.1,4.9c0.1,0,0.1,0,0.2,0.1
				c-0.7-0.3-1.3-0.5-1.7-0.6c-1-0.1-2.5,2.8-3.4,5c-0.9,2.2,0.7,4.7,1,5.9c0.3,1.1,8.4,12.6,8.4,12.6l13.9-3.7
				c0.7-0.2,1.5-0.5,2.1-0.9l6.5-3.9C5.5,129.8,6.7,128.1,6.3,125.4z"/>
		</g>
		<g class="st15">
			<path class="st5" d="M71.7,82.4c0,0,0.8,1.2,1.8,1.1s0.8-0.4,0-0.6C72.6,82.8,71.5,81.7,71.7,82.4z"/>
		</g>
		<g class="st12">
			<path class="st8" d="M71.3,63.1c0,0-2.1,1.2-6.3,0C65,63.1,68.4,65,71.3,63.1z"/>
		</g>
		<g class="st12">
			<path class="st8" d="M83.4,63.7c0,0,1.7,1.7,6.1,1.6C89.5,65.3,85.8,66.3,83.4,63.7z"/>
		</g>
		<g class="st12">
			<path class="st8" d="M79.6,73.7c0,0,1.4-0.7,0.7-2.6C80.3,71,80.5,73.3,79.6,73.7z"/>
		</g>
		<g class="st16">
			<path class="st17" d="M30.7,123.2c0,0,18.3,30.2,18.6,32.4H47C47,155.6,32.3,125.4,30.7,123.2z"/>
		</g>
		<g class="st16">
			<path class="st17" d="M108.3,108.3c0,0-15,44.2-15.3,47.2l2.1,0.1C95.2,155.6,106.8,112.3,108.3,108.3z"/>
		</g>
		<g class="st16">
			<path class="st17" d="M35.1,116.1c0,0,5-0.7,6.6,0C41.7,116.1,36.5,115.8,35.1,116.1z"/>
		</g>
		<g class="st16">
			<path class="st17" d="M103.4,103.2c0,0-5.5,0.7-6.7,1.5C96.7,104.7,100.8,104.2,103.4,103.2z"/>
		</g>
		<g class="st16">
			<path class="st17" d="M30.7,123.2c0,0,4.8-3.7,10.9-6.9C41.7,116.3,33.1,120.3,30.7,123.2z"/>
		</g>
		<g class="st16">
			<path class="st17" d="M97.6,104.9c0,0,10.7,1.7,10.7,2.5C108.3,107.5,101,105.4,97.6,104.9z"/>
		</g>
		<g class="st16">
			<polygon class="st17" points="25.2,156.1 15.4,127 28.3,155.3 			"/>
		</g>
		<g class="st18">
			<path class="st19" d="M76,106.2c0,0-11.2,4.6-15.3,4.6C60.8,110.8,71.4,110.4,76,106.2z"/>
		</g>
		<g class="st1">
			<path class="st6" d="M-19.9,106.9c0,0,2.7,2.1,5,4c0.6,0.5,6,6.2,6,10.4c0,3.2-2.1,3.2-4.7,1.5c-2.7-1.8-1.6-3.3-3.7-5.5
				c-2.1-2.2-4.3-1.8-4.3-1.8s-2.6-2.1-2.9-3.4c0-0.2-0.1-0.3-0.1-0.5c-0.2-0.5-0.4-1.5,0.1-2.8C-23.8,106.9-22.4,105.5-19.9,106.9z
				"/>
		</g>
		<g class="st1">
			<path class="st6" d="M-16.9,138.4c0,0-7.6-8.7-9-13.2c-1.3-4.4-1.1-3.3,0.1-6.4c0.1-0.3,0.2-0.6,0.2-0.9c0.1-0.9,0.5-2.9,2.6-2.8
				c2.8,0.1,3.8,0.3,6,2.2c2.2,1.9,7,4.6,6.7,7.4c-0.2,1.7-1.1,2.4-2.1,2.5c-1,0.1-1.9-0.3-2.5-1c-1-1.1-2.9-3.4-3.5-3.4
				c-0.8,0-3.4-0.6-4.1-1.4C-23.1,120.5-19.2,137.4-16.9,138.4z"/>
		</g>
		<g class="st1">
			<path class="st6" d="M5.3,129.8c0,0,1.3-2.5,1.1-4c-0.2-1.6-0.9-6.8-1.2-8.1c-0.3-1.3,0-2.6-2-4.2c-2.1-1.7-6.1-5.8-7.4-6.3
				s-0.4-1-6,0.9s-7.8,2-7.8,3.4c0,1.4-0.4,2.6,3.6,2.7c0,0,8-0.1,8.6-1.7c0,0-1.1,3.2,0,4.9c1.1,1.7,1.7,5.8,5.5,7
				c2.8,0.9,3.8,3.5,4.6,4.7C4.6,129.6,4.9,129.8,5.3,129.8z"/>
		</g>
		<g class="st20">
			<path class="st8" d="M-17.5,110.5c0,0-1,1.7-1,2.6c0,1.1,4.2,2.1,8.5,1.9c4.3-0.1,3.5-1.9,4.2-2.6c0,0-10.2,3.3-11.6,1.1
				C-18.5,111.8-17.5,111.5-17.5,110.5z"/>
		</g>
		<g class="st20">
			<path class="st8" d="M-6.3,113c0,0-1.5,1.2-0.1,4.3c1.7,3.7,3.1,5,3.1,5C-2.8,122.2-7.4,116.9-6.3,113z"/>
		</g>
	</g>
</g>
</svg>
