<?xml version="1.0" encoding="utf-8"?>
<!-- Generator: Adobe Illustrator 22.0.1, SVG Export Plug-In . SVG Version: 6.00 Build 0)  -->
<svg version="1.1" id="Layer_1" xmlns="http://www.w3.org/2000/svg" xmlns:xlink="http://www.w3.org/1999/xlink" x="0px" y="0px"
	 viewBox="0 0 291.9 504.9" style="enable-background:new 0 0 291.9 504.9;" xml:space="preserve">
<style type="text/css">
	.st0{fill:#FFFFFF;}
	.st1{fill:#F9FAF9;}
	.st2{fill:#CDD9E2;}
	.st3{fill:#FBFBFB;}
	.st4{fill:none;stroke:#000000;stroke-width:2;stroke-miterlimit:10;}
	.st5{fill:#F38475;}
	.st6{fill:#F2CC67;}
	.st7{fill:#60D36D;}
	.st8{fill:#FAFAFA;}
</style>
<g id="XMLID_11_">
	<g>
		<path class="st0" d="M284.3,392.4V478c0,10.2-8.3,18.5-18.5,18.5H26.3c-10.2,0-18.5-8.3-18.5-18.5v-85.5h0.1h276H284.3z"/>
		<polygon class="st1" points="284.3,365.4 284.3,392.4 283.9,392.4 7.9,392.4 7.8,392.4 7.8,365.4 7.9,365.4 283.9,365.4 		"/>
		<polygon class="st2" points="284.3,81.4 284.3,365.4 283.9,365.4 7.9,365.4 7.8,365.4 7.8,81.4 7.9,81.4 283.9,81.4 		"/>
		<path class="st3" d="M284.3,28.2v53.3h-0.4H7.9H7.8V28.2C7.8,18,16.1,9.7,26.3,9.7h239.5C276,9.7,284.3,18,284.3,28.2z"/>
	</g>
	<g>
		<path class="st4" d="M284.3,392.4V478c0,10.2-8.3,18.5-18.5,18.5H26.3c-10.2,0-18.5-8.3-18.5-18.5v-85.5v-27v-284V28.2
			C7.8,18,16.1,9.7,26.3,9.7h239.5c10.2,0,18.5,8.3,18.5,18.5v53.3v284V392.4z"/>
		<line class="st4" x1="7.9" y1="81.4" x2="283.9" y2="81.4"/>
		<line class="st4" x1="7.9" y1="365.4" x2="283.9" y2="365.4"/>
		<line class="st4" x1="7.9" y1="392.4" x2="283.9" y2="392.4"/>
	</g>
</g>
<g>
	<g>
		<circle class="st5" cx="24.6" cy="24.4" r="4.6"/>
		<path d="M24.6,30c-3.1,0-5.6-2.5-5.6-5.6s2.5-5.6,5.6-5.6s5.6,2.5,5.6,5.6S27.7,30,24.6,30z M24.6,20.8c-2,0-3.6,1.6-3.6,3.6
			s1.6,3.6,3.6,3.6s3.6-1.6,3.6-3.6S26.6,20.8,24.6,20.8z"/>
	</g>
	<g>
		<circle class="st6" cx="43.4" cy="24.4" r="4.6"/>
		<path d="M43.4,30c-3.1,0-5.6-2.5-5.6-5.6s2.5-5.6,5.6-5.6s5.6,2.5,5.6,5.6S46.5,30,43.4,30z M43.4,20.8c-2,0-3.6,1.6-3.6,3.6
			s1.6,3.6,3.6,3.6s3.6-1.6,3.6-3.6S45.4,20.8,43.4,20.8z"/>
	</g>
	<g>
		<circle class="st7" cx="62.3" cy="24.3" r="4.6"/>
		<path d="M62.3,29.9c-3.1,0-5.6-2.5-5.6-5.6s2.5-5.6,5.6-5.6c3.1,0,5.6,2.5,5.6,5.6S65.4,29.9,62.3,29.9z M62.3,20.7
			c-2,0-3.6,1.6-3.6,3.6s1.6,3.6,3.6,3.6c2,0,3.6-1.6,3.6-3.6S64.3,20.7,62.3,20.7z"/>
	</g>
</g>
<g>
	<path class="st8" d="M253.2,473.4h-25.5c-7.6,0-13.8-6.2-13.8-13.8v-25.5c0-7.6,6.2-13.8,13.8-13.8h25.5c7.6,0,13.8,6.2,13.8,13.8
		v25.5C266.9,467.2,260.7,473.4,253.2,473.4z"/>
	<path d="M253.2,474.4h-25.5c-8.1,0-14.8-6.6-14.8-14.8v-25.5c0-8.1,6.6-14.8,14.8-14.8h25.5c8.1,0,14.8,6.6,14.8,14.8v25.5
		C267.9,467.8,261.3,474.4,253.2,474.4z M227.7,421.4c-7,0-12.8,5.7-12.8,12.8v25.5c0,7,5.7,12.8,12.8,12.8h25.5
		c7,0,12.8-5.7,12.8-12.8v-25.5c0-7-5.7-12.8-12.8-12.8H227.7z"/>
</g>
<g>
	<path d="M35.6,388.4c-5,0-9-4-9-9s4-9,9-9s9,4,9,9S40.5,388.4,35.6,388.4z M35.6,371.4c-4.4,0-8,3.6-8,8s3.6,8,8,8s8-3.6,8-8
		S40,371.4,35.6,371.4z"/>
</g>
<g>
	<ellipse cx="32.8" cy="377.4" rx="0.9" ry="1"/>
</g>
<g>
	<ellipse cx="38.1" cy="377.4" rx="0.9" ry="1"/>
</g>
<g>
	<path d="M35.6,383.2c-1.3,0-2.6-0.4-3.6-1.3c-0.2-0.2-0.2-0.5,0-0.7c0.2-0.2,0.5-0.2,0.7,0c1.7,1.5,4.2,1.5,5.8,0
		c0.2-0.2,0.5-0.2,0.7,0c0.2,0.2,0.2,0.5,0,0.7C38.1,382.7,36.8,383.2,35.6,383.2z"/>
</g>
</svg>
