<?xml version="1.0" encoding="utf-8"?>
<!-- Generator: Adobe Illustrator 22.0.1, SVG Export Plug-In . SVG Version: 6.00 Build 0)  -->
<svg version="1.1" id="Layer_1" xmlns="http://www.w3.org/2000/svg" xmlns:xlink="http://www.w3.org/1999/xlink" x="0px" y="0px"
	 viewBox="0 0 35.5 33.8" style="enable-background:new 0 0 35.5 33.8;" xml:space="preserve">
<style type="text/css">
	.st0{fill:#333333;}
	.st1{fill:#F2F2F2;}
</style>
<g>
	<g>
		<path class="st0" d="M26,32H9.5c-3.8,0-7-3.1-7-7V8.5c0-3.8,3.1-7,7-7H26c3.8,0,7,3.1,7,7V25C33,28.9,29.9,32,26,32z"/>
		<path d="M26,32.8H9.5c-4.3,0-7.7-3.5-7.7-7.7V8.5c0-4.3,3.5-7.7,7.7-7.7H26c4.3,0,7.7,3.5,7.7,7.7V25C33.8,29.3,30.3,32.8,26,32.8
			z M9.5,2.3C6,2.3,3.3,5,3.3,8.5V25c0,3.4,2.8,6.2,6.2,6.2H26c3.4,0,6.2-2.8,6.2-6.2V8.5c0-3.4-2.8-6.2-6.2-6.2H9.5z"/>
	</g>
	<g>
		<path class="st1" d="M20.9,20.7h-6.2l-1.3,3.7h-2.6l6-16.4h2.1l6,16.4h-2.6L20.9,20.7z M20.1,18.5l-2.4-7.2h0l-2.4,7.2H20.1z"/>
	</g>
</g>
</svg>
