<?xml version="1.0" encoding="utf-8"?>
<!-- Generator: Adobe Illustrator 22.0.1, SVG Export Plug-In . SVG Version: 6.00 Build 0)  -->
<svg version="1.1" id="Layer_1" xmlns="http://www.w3.org/2000/svg" xmlns:xlink="http://www.w3.org/1999/xlink" x="0px" y="0px"
	 viewBox="0 0 130.8 258" style="enable-background:new 0 0 130.8 258;" xml:space="preserve">
<style type="text/css">
	.st0{fill:#FCE4E3;stroke:#000000;stroke-width:2;stroke-miterlimit:10;}
	.st1{fill:#FC3535;stroke:#000000;stroke-width:2;stroke-miterlimit:10;}
	.st2{fill:#FFFFFF;stroke:#000000;stroke-width:2;stroke-miterlimit:10;}
	.st3{fill:#382612;stroke:#000000;stroke-width:2;stroke-miterlimit:10;}
	.st4{stroke:#000000;stroke-width:2;stroke-miterlimit:10;}
	.st5{fill:#FFE7BD;}
	.st6{fill:#FFFFFF;}
	.st7{fill:#FC3535;}
	.st8{fill:#F2A39D;}
	.st9{fill:#382612;}
	.st10{fill:#FFAF78;}
</style>
<rect x="-292.8" y="134.1" class="st0" width="12" height="30"/>
<path class="st0" d="M-270.2,178.7L-270.2,178.7c-2.3,2.3-6.1,2.3-8.5,0l-12.7-12.7c-2.3-2.3-2.3-6.1,0-8.5v0c2.3-2.3,6.1-2.3,8.5,0
	l12.7,12.7C-267.8,172.6-267.8,176.4-270.2,178.7z"/>
<path class="st0" d="M-238.4,178.7L-238.4,178.7c2.3,2.3,6.1,2.3,8.5,0l12.7-12.7c2.3-2.3,2.3-6.1,0-8.5v0c-2.3-2.3-6.1-2.3-8.5,0
	l-12.7,12.7C-240.7,172.6-240.7,176.4-238.4,178.7z"/>
<rect x="-227.8" y="134.1" class="st0" width="12" height="30"/>
<path class="st1" d="M-284,143.1h-5.5c-5.6,0-10.2-4.6-10.2-10.2v-5.5c0-5.6,4.6-7.2,10.2-7.2h5.5c5.6,0,10.2,1.6,10.2,7.2v5.5
	C-273.8,138.5-278.4,143.1-284,143.1z"/>
<path class="st1" d="M-219,143.1h-5.5c-5.6,0-10.2-4.6-10.2-10.2v-5.5c0-5.6,4.6-7.2,10.2-7.2h5.5c5.6,0,10.2,1.6,10.2,7.2v5.5
	C-208.8,138.5-213.4,143.1-219,143.1z"/>
<circle class="st0" cx="-272.8" cy="177.1" r="8"/>
<circle class="st0" cx="-236.8" cy="177.1" r="8"/>
<rect x="-273" y="200.1" class="st0" width="11" height="44"/>
<rect x="-246" y="200.1" class="st0" width="11" height="44"/>
<rect x="-273" y="222.1" class="st2" width="11" height="22"/>
<rect x="-246" y="222.1" class="st2" width="11" height="22"/>
<path class="st1" d="M-229.4,211.1h-49.7c-9.4,0-16.4-8.6-14.6-17.8l12.1-61.2c1.4-7,7.5-12,14.6-12h28.8c7.4,0,13.7,5.5,14.7,12.8
	l8.7,61.2C-213.4,203.1-220.4,211.1-229.4,211.1z"/>
<path class="st3" d="M-207.4,28.1c0,0-3.3-33.9-64.2-19.1c-14.2,3.5-29.5,15.9-35.2,32.1c-6.9,19.4-8.6,43.3-6.1,60.4
	c2.1,14.6,15.2,20.2,22.1,21.6c5,1,11.4,0.1,12-1c0.1-0.3,0.2-0.5,0.2-0.8c7.7,3.8,16.5,5.8,25.8,5.8c11.4,0,21.9-3,30.5-8.6
	c-0.6,0.5-1.2,0.9-1.8,1.3c-1.1,0.7,5.4,1.4,6.7,1.5c8.1,0.7,12.6-0.3,18.7-6.3C-189.7,106.3-181,44.1-207.4,28.1z"/>
<path class="st4" d="M-262.5,253.1h-10c-1.6,0-3-1.4-3-3v-12c0-1.6,1.4-3,3-3h10c1.7,0,3,1.4,3,3v12
	C-259.5,251.8-260.9,253.1-262.5,253.1z"/>
<path class="st4" d="M-235.5,253.1h-10c-1.7,0-3-1.4-3-3v-12c0-1.6,1.3-3,3-3h10c1.6,0,3,1.4,3,3v12
	C-232.5,251.8-233.9,253.1-235.5,253.1z"/>
<g>
	<g>
		<rect x="44.3" y="199.9" class="st5" width="11" height="44"/>
		<path d="M56.3,244.9h-13v-46h13V244.9z M45.3,242.9h9v-42h-9V242.9z"/>
	</g>
	<g>
		<rect x="71.3" y="199.9" class="st5" width="11" height="44"/>
		<path d="M83.3,244.9h-13v-46h13V244.9z M72.3,242.9h9v-42h-9V242.9z"/>
	</g>
	<g>
		<rect x="44.3" y="221.9" class="st6" width="11" height="22"/>
		<path d="M56.3,244.9h-13v-24h13V244.9z M45.3,242.9h9v-20h-9V242.9z"/>
	</g>
	<g>
		<rect x="71.3" y="221.9" class="st6" width="11" height="22"/>
		<path d="M83.3,244.9h-13v-24h13V244.9z M72.3,242.9h9v-20h-9V242.9z"/>
	</g>
	<g>
		<path class="st7" d="M87.9,210.9H38.2c-9.4,0-16.4-8.6-14.6-17.8l12.1-61.2c1.4-7,7.5-12,14.6-12h28.8c7.4,0,13.7,5.5,14.7,12.8
			l8.7,61.2C103.9,202.9,96.9,210.9,87.9,210.9z"/>
		<path d="M87.9,211.9H38.2c-4.8,0-9.3-2.1-12.3-5.8s-4.2-8.5-3.3-13.2l12.1-61.2c1.5-7.4,8-12.8,15.6-12.8h28.8
			c7.9,0,14.6,5.9,15.7,13.6l8.7,61.2c0.7,4.6-0.7,9.2-3.7,12.7C96.8,209.9,92.5,211.9,87.9,211.9z M50.3,120.9
			c-6.6,0-12.3,4.7-13.6,11.2l-12.1,61.2c-0.8,4.1,0.2,8.3,2.9,11.5s6.6,5.1,10.7,5.1h49.7c4,0,7.9-1.7,10.5-4.8s3.8-7.1,3.3-11.1
			l-8.7-61.2c-1-6.8-6.9-11.9-13.8-11.9H50.3z"/>
	</g>
	<g>
		<path class="st5" d="M117.5,73c0,33.9-23.5,53.9-53,53.9s-54-20-54-53.9s24-50.1,53.5-50.1S117.5,39.1,117.5,73z"/>
		<path d="M64.5,127.9c-32.4,0-55-22.6-55-54.9c0-31.5,20.9-51.1,54.5-51.1s54.5,19.6,54.5,51.1c0,16.5-5.4,30.4-15.7,40.4
			C93.1,122.8,79.5,127.9,64.5,127.9z M64,23.9c-25.4,0-52.5,12.9-52.5,49.1c0,31.2,21.8,52.9,53,52.9c14.5,0,27.6-5,36.9-14
			c9.9-9.6,15.1-23,15.1-39C116.5,36.8,89.4,23.9,64,23.9z"/>
	</g>
	<g>
		<path class="st8" d="M64.3,110.8h-0.6c-5,0-12.2-4-12.2-9v-3.9h25v3.9C76.5,106.7,69.3,110.8,64.3,110.8z"/>
		<path d="M64.3,111.8h-0.6c-5.3,0-13.2-4.2-13.2-10v-4.9h27v4.9C77.5,107.5,69.6,111.8,64.3,111.8z M52.5,98.8v2.9
			c0,4.4,6.8,8,11.2,8h0.6c4.4,0,11.2-3.6,11.2-8v-2.9H52.5z"/>
	</g>
	<g>
		<path class="st9" d="M56.4,40.9c0,0-9.1,18,0,18h7.9c1.8,0,2.8-2.2,1.7-3.8c-1.1-1.6-1.3-3.5,1.1-5.2c0,0-0.8,7,5.8,9h10.4
			c2.3,0,4.6,0.6,6.6,1.8c0.5,0.3,1.4,1.3,2.5,2.7c9.3,12.1,12.5,27.8,9,42.7c-0.9,3.6-1.9,6.8-3.2,8.9c-0.5,0.7-2,2.4-2.6,2.9
			c-0.7,0.6-1.5,1.2-2.4,1.8c-1.1,0.7,5.4,1.4,6.7,1.5c8.1,0.7,12.6-0.3,18.7-6.3c9.1-8.9,17.7-71-8.6-87c0,0-3.3-33.9-64.2-19.1
			c-14.2,3.5-29.5,15.9-35.2,32.1c-6.9,19.4-8.6,43.3-6.1,60.4c2.1,14.6,15.2,20.2,22.1,21.6c5,1,11.4,0.1,12-1c1-2-2.2-3.6-4-4.6
			c-3.4-1.9-9-5.4-11.9-12.4c-2.4-5.8-3.1-21.5,3.9-37C32.3,55,47.1,40.9,56.4,40.9z"/>
		<path d="M31.4,124.3c-1.8,0-3.6-0.2-5.1-0.4C17,122,5.4,115,3.4,101.5C0.7,82.6,3.1,58.7,9.6,40.6c5.5-15.4,20.3-28.9,35.9-32.7
			c24.7-6,43.1-4.9,54.6,3.3c8.6,6.1,10.4,14,10.7,16.1c11.6,7.4,15.7,22.9,17,34.8c2.1,18.3-1.5,46.6-8.6,53.6
			c-6.7,6.5-11.6,7.3-19.5,6.5c-7.4-0.7-7.5-1.4-7.7-2.1c-0.1-0.4,0-0.9,0.6-1.3c0.9-0.6,1.7-1.1,2.3-1.7c0.6-0.6,2.1-2.1,2.5-2.7
			c1.1-1.8,2.2-4.7,3.1-8.6c3.5-14.7,0.3-30-8.8-41.8c-1.5-2-2.1-2.4-2.2-2.4c-1.9-1.1-4-1.7-6.1-1.7l-10.7,0
			c-2.6-0.8-4.3-2.4-5.2-4.1c0.2,0.8,0.1,1.7-0.3,2.5c-0.6,1.1-1.6,1.7-2.7,1.7h-7.9c-2.4,0-3.6-1.1-4.2-2.1
			c-2.4-3.9,0.9-12.2,2.5-15.8c-8.7,1.5-21.9,14-27.3,26.3c-6.6,14.9-6.2,30.4-3.8,36.2c2.8,7,8.6,10.3,11.4,11.9l0.5,0.3
			c2,1.1,5.3,3,3.9,5.6C38.7,123.7,35,124.3,31.4,124.3z M73.2,6.1c-8,0-17.1,1.2-27.2,3.7c-15,3.7-29.2,16.6-34.5,31.4
			c-6.3,17.8-8.7,41.4-6,59.9c1.8,12.5,12.6,19,21.3,20.7c4.6,0.9,10.1,0.1,10.9-0.5c0.3-1-1.8-2.2-3.1-2.9l-0.5-0.3
			c-4.5-2.6-9.5-6.2-12.3-12.9c-2.6-6.3-3.1-22.2,3.9-37.8C31.2,55,46.1,39.9,56.4,39.9H58l-0.7,1.4c-1.6,3.2-5.3,12.2-3.4,15.4
			c0.5,0.8,1.3,1.1,2.5,1.1h7.9c0.6,0,0.8-0.4,1-0.6c0.2-0.4,0.3-1-0.1-1.6c-1.7-2.4-1.2-4.8,1.4-6.6l1.8-1.3L68.1,50
			c0,0.2-0.6,6.1,4.9,7.9h10.3c2.5,0,4.9,0.7,7.1,1.9c0.4,0.2,1.1,0.8,2.8,2.9c9.5,12.3,12.8,28.2,9.2,43.5c-1,4.1-2.1,7.2-3.3,9.2
			c-0.5,0.9-2.2,2.6-2.8,3.1c-0.3,0.3-0.7,0.6-1.1,1c1.2,0.2,3,0.5,4.8,0.6c7.6,0.7,11.8,0,17.9-6c4.9-4.8,10.6-29.2,8-51.9
			c-1.3-11.5-5.2-26.7-16.5-33.5l-0.4-0.3l0-0.5c0-0.1-1-8.9-10-15.2C92.7,8.4,83.9,6.1,73.2,6.1z M66.2,52.6
			c-0.1,0.6,0.1,1.2,0.5,1.9C66.5,53.8,66.3,53.2,66.2,52.6z"/>
	</g>
	<g>
		<path d="M54.8,252.9h-10c-1.7,0-3-1.4-3-3v-12c0-1.7,1.3-3,3-3h10c1.6,0,3,1.3,3,3v12C57.8,251.6,56.4,252.9,54.8,252.9z"/>
		<path d="M54.8,253.9h-10c-2.2,0-4-1.8-4-4v-12c0-2.2,1.8-4,4-4h10c2.2,0,4,1.8,4,4v12C58.8,252.1,57,253.9,54.8,253.9z
			 M44.8,235.9c-1.1,0-2,0.9-2,2v12c0,1.1,0.9,2,2,2h10c1.1,0,2-0.9,2-2v-12c0-1.1-0.9-2-2-2H44.8z"/>
	</g>
	<g>
		<rect x="24.5" y="133.9" class="st5" width="12" height="30"/>
		<path d="M37.5,164.9h-14v-32h14V164.9z M25.5,162.9h10v-28h-10V162.9z"/>
	</g>
	<g>
		<path class="st5" d="M47.1,178.5L47.1,178.5c-2.3,2.3-6.1,2.3-8.5,0l-12.7-12.7c-2.3-2.3-2.3-6.1,0-8.5l0,0c2.3-2.3,6.1-2.3,8.5,0
			L47.1,170C49.5,172.4,49.5,176.2,47.1,178.5z"/>
		<path d="M42.9,181.3c-1.8,0-3.6-0.7-4.9-2l-12.7-12.7c-2.7-2.7-2.7-7.2,0-9.9c1.3-1.3,3.1-2.1,4.9-2.1c1.9,0,3.6,0.7,4.9,2.1
			l12.7,12.7c1.3,1.3,2.1,3.1,2.1,4.9s-0.7,3.6-2.1,5l0,0C46.5,180.6,44.7,181.3,42.9,181.3z M30.1,156.6c-1.3,0-2.6,0.5-3.5,1.5
			c-1.9,1.9-1.9,5.1,0,7.1l12.7,12.7c1.9,2,5.1,1.9,7.1,0c0.9-0.9,1.5-2.2,1.5-3.5c0-1.3-0.5-2.6-1.5-3.5L33.7,158
			C32.7,157.1,31.5,156.6,30.1,156.6z"/>
	</g>
	<g>
		<rect x="89.5" y="133.9" class="st5" width="12" height="30"/>
		<path d="M102.5,164.9h-14v-32h14V164.9z M90.5,162.9h10v-28h-10V162.9z"/>
	</g>
	<g>
		<path d="M81.8,252.9h-10c-1.6,0-3-1.4-3-3v-12c0-1.7,1.4-3,3-3h10c1.7,0,3,1.3,3,3v12C84.8,251.6,83.4,252.9,81.8,252.9z"/>
		<path d="M81.8,253.9h-10c-2.2,0-4-1.8-4-4v-12c0-2.2,1.8-4,4-4h10c2.2,0,4,1.8,4,4v12C85.8,252.1,84,253.9,81.8,253.9z
			 M71.8,235.9c-1.1,0-2,0.9-2,2v12c0,1.1,0.9,2,2,2h10c1.1,0,2-0.9,2-2v-12c0-1.1-0.9-2-2-2H71.8z"/>
	</g>
	<g>
		<path class="st7" d="M33.3,142.9h-5.5c-5.6,0-10.2-4.6-10.2-10.2v-5.5c0-5.6,4.6-7.2,10.2-7.2h5.5c5.6,0,10.2,1.6,10.2,7.2v5.5
			C43.5,138.3,38.9,142.9,33.3,142.9z"/>
		<path d="M33.3,143.9h-5.5c-6.2,0-11.2-5-11.2-11.2v-5.5c0-3.8,1.9-8.2,11.2-8.2h5.5c5.1,0,11.2,1.4,11.2,8.2v5.5
			C44.5,138.9,39.5,143.9,33.3,143.9z M27.7,120.9c-8.3,0-9.2,3.6-9.2,6.2v5.5c0,5.1,4.1,9.2,9.2,9.2h5.5c5.1,0,9.2-4.1,9.2-9.2
			v-5.5c0-2.7-1-6.2-9.2-6.2H27.7z"/>
	</g>
	<g>
		<path class="st7" d="M98.3,142.9h-5.5c-5.6,0-10.2-4.6-10.2-10.2v-5.5c0-5.6,4.6-7.2,10.2-7.2h5.5c5.6,0,10.2,1.6,10.2,7.2v5.5
			C108.5,138.3,103.9,142.9,98.3,142.9z"/>
		<path d="M98.3,143.9h-5.5c-6.2,0-11.2-5-11.2-11.2v-5.5c0-3.8,1.9-8.2,11.2-8.2h5.5c5.1,0,11.2,1.4,11.2,8.2v5.5
			C109.5,138.9,104.5,143.9,98.3,143.9z M92.7,120.9c-8.3,0-9.2,3.6-9.2,6.2v5.5c0,5.1,4.1,9.2,9.2,9.2h5.5c5.1,0,9.2-4.1,9.2-9.2
			v-5.5c0-2.7-1-6.2-9.2-6.2H92.7z"/>
	</g>
	<g>
		<circle class="st5" cx="44.5" cy="176.9" r="8"/>
		<path d="M44.5,185.9c-5,0-9-4-9-9s4-9,9-9s9,4,9,9S49.5,185.9,44.5,185.9z M44.5,169.9c-3.9,0-7,3.1-7,7s3.1,7,7,7s7-3.1,7-7
			S48.4,169.9,44.5,169.9z"/>
	</g>
	<g>
		<path class="st5" d="M78.9,178.5L78.9,178.5c2.3,2.3,6.1,2.3,8.5,0l12.7-12.7c2.3-2.3,2.3-6.1,0-8.5l0,0c-2.3-2.3-6.1-2.3-8.5,0
			L78.9,170C76.6,172.4,76.6,176.2,78.9,178.5z"/>
		<path d="M83.1,181.3c-1.8,0-3.6-0.7-5-2l0,0c-2.7-2.7-2.7-7.2,0-9.9l12.7-12.7c1.3-1.3,3.1-2.1,4.9-2.1s3.6,0.7,4.9,2.1
			c1.3,1.3,2.1,3.1,2.1,4.9s-0.7,3.6-2.1,4.9l-12.7,12.7C86.7,180.6,84.9,181.3,83.1,181.3z M79.6,177.8c1.9,1.9,5.1,1.9,7.1,0
			l12.7-12.7c0.9-0.9,1.5-2.2,1.5-3.5s-0.5-2.6-1.5-3.5s-2.2-1.5-3.5-1.5s-2.6,0.5-3.5,1.5l-12.7,12.7
			C77.7,172.7,77.7,175.9,79.6,177.8L79.6,177.8z"/>
	</g>
	<g>
		<circle class="st5" cx="80.5" cy="176.9" r="8"/>
		<path d="M80.5,185.9c-5,0-9-4-9-9s4-9,9-9s9,4,9,9S85.5,185.9,80.5,185.9z M80.5,169.9c-3.9,0-7,3.1-7,7s3.1,7,7,7s7-3.1,7-7
			S84.4,169.9,80.5,169.9z"/>
	</g>
	<g>
		<g>
			<ellipse transform="matrix(0.1023 -0.9948 0.9948 0.1023 -38.3624 113.2908)" cx="43.6" cy="77.9" rx="4.9" ry="4.4"/>
		</g>
		<g>
			<path d="M42.6,77.5c0,0-0.1,0-0.1,0C38.1,77,37,71.2,37,71c-0.1-0.5,0.3-1.1,0.8-1.2c0.5-0.1,1.1,0.3,1.2,0.8
				c0,0,0.9,4.6,3.8,4.9c0.5,0.1,0.9,0.5,0.9,1.1C43.5,77.1,43.1,77.5,42.6,77.5z"/>
		</g>
	</g>
	<g>
		<g>
			<ellipse transform="matrix(0.1023 -0.9948 0.9948 0.1023 -2.4526 153.0811)" cx="83.6" cy="77.9" rx="4.9" ry="4.4"/>
		</g>
		<g>
			<path d="M82.6,77.5c0,0-0.1,0-0.1,0C78.1,77,77,71.2,77,71c-0.1-0.5,0.3-1.1,0.8-1.2c0.5-0.1,1.1,0.3,1.2,0.8
				c0,0,0.9,4.6,3.8,4.9c0.5,0.1,0.9,0.5,0.9,1.1C83.5,77.1,83.1,77.5,82.6,77.5z"/>
		</g>
	</g>
	<g>
		<ellipse class="st10" cx="33" cy="86.8" rx="7.5" ry="2.5"/>
	</g>
	<g>
		<ellipse class="st10" cx="93" cy="86.8" rx="7.5" ry="2.5"/>
	</g>
</g>
</svg>
