<?xml version="1.0" encoding="utf-8"?>
<!-- Generator: Adobe Illustrator 22.0.1, SVG Export Plug-In . SVG Version: 6.00 Build 0)  -->
<svg version="1.1" id="Layer_1" xmlns="http://www.w3.org/2000/svg" xmlns:xlink="http://www.w3.org/1999/xlink" x="0px" y="0px"
	 viewBox="0 0 39.8 38.5" style="enable-background:new 0 0 39.8 38.5;" xml:space="preserve">
<style type="text/css">
	.st0{fill:#FFE7BD;stroke:#000000;stroke-width:0.75;stroke-miterlimit:10;}
	.st1{fill:#F2A39D;stroke:#000000;stroke-width:0.75;stroke-miterlimit:10;}
	.st2{fill:#382612;stroke:#000000;stroke-width:0.75;stroke-miterlimit:10;}
	.st3{fill:none;stroke:#000000;stroke-width:0.75;stroke-linecap:round;stroke-linejoin:round;stroke-miterlimit:10;}
	.st4{fill:#FFAF78;}
</style>
<path class="st0" d="M35.7,21.5c0,10.3-7.1,16.3-16.1,16.3S3.3,31.7,3.3,21.5S10.6,6.3,19.5,6.3S35.7,11.2,35.7,21.5z"/>
<path class="st1" d="M19.6,32.9h-0.2c-1.5,0-3.7-1.2-3.7-2.7V29h7.6v1.2C23.3,31.7,21.1,32.9,19.6,32.9z"/>
<path class="st2" d="M17.2,11.7c0,0-2.7,5.5,0,5.5h2.4c0.5,0,0.8-0.7,0.5-1.1c-0.3-0.5-0.4-1.1,0.3-1.6c0,0-0.2,2.1,1.7,2.7h3.2
	c0.7,0,1.4,0.2,2,0.5c0.2,0.1,0.4,0.4,0.7,0.8c2.8,3.7,3.8,8.4,2.7,12.9c-0.3,1.1-0.6,2.1-1,2.7c-0.1,0.2-0.6,0.7-0.8,0.9
	c-0.2,0.2-0.5,0.4-0.7,0.5c-0.3,0.2,1.6,0.4,2,0.5c2.5,0.2,3.8-0.1,5.7-1.9c2.8-2.7,5.4-21.5-2.6-26.4c0,0-1-10.3-19.4-5.8
	c-4.3,1-8.9,4.8-10.7,9.7C1.2,17.6,0.7,24.8,1.5,30c0.6,4.4,4.6,6.1,6.7,6.5c1.5,0.3,3.5,0,3.6-0.3c0.3-0.6-0.7-1.1-1.2-1.4
	c-1-0.6-2.7-1.6-3.6-3.8c-0.7-1.7-0.9-6.5,1.2-11.2C9.9,16,14.4,11.7,17.2,11.7z"/>
<g>
	<ellipse transform="matrix(0.1023 -0.9948 0.9948 0.1023 -10.8427 33.8618)" cx="13.3" cy="22.9" rx="1.5" ry="1.3"/>
	<path class="st3" d="M11.6,20.8c0,0,0.3,1.6,1.4,1.7"/>
</g>
<g>
	<ellipse transform="matrix(0.1023 -0.9948 0.9948 0.1023 3.939826e-02 45.9199)" cx="25.5" cy="22.9" rx="1.5" ry="1.3"/>
	<path class="st3" d="M23.8,20.8c0,0,0.3,1.6,1.4,1.7"/>
</g>
<ellipse class="st4" cx="10.1" cy="25.6" rx="2.3" ry="0.8"/>
<ellipse class="st4" cx="28.3" cy="25.6" rx="2.3" ry="0.8"/>
</svg>
