<?xml version="1.0" encoding="utf-8"?>
<!-- Generator: Adobe Illustrator 22.0.1, SVG Export Plug-In . SVG Version: 6.00 Build 0)  -->
<svg version="1.1" id="Layer_1" xmlns="http://www.w3.org/2000/svg" xmlns:xlink="http://www.w3.org/1999/xlink" x="0px" y="0px"
	 viewBox="0 0 300.5 384.6" style="enable-background:new 0 0 300.5 384.6;" xml:space="preserve">
<style type="text/css">
	.st0{fill:#FFFFFF;}
	.st1{fill:#FFE7BD;}
	.st2{fill:#FCF9F7;}
	.st3{fill:#EDC789;}
	.st4{opacity:0.4;}
	.st5{fill:#C4B7A1;}
	.st6{fill:#4F4F4F;}
	.st7{fill:#EF7070;}
	.st8{fill:#ABC5E8;}
</style>
<g>
	<g>
		<path class="st0" d="M288,382.5H12.5c-5.3,0-9.7-4.4-9.7-9.7V11.8c0-5.3,4.4-9.7,9.7-9.7H288c5.3,0,9.7,4.4,9.7,9.7v360.9
			C297.8,378.1,293.4,382.5,288,382.5z"/>
		<path d="M288,383.5H12.5c-5.9,0-10.7-4.8-10.7-10.7V11.8c0-5.9,4.8-10.7,10.7-10.7H288c5.9,0,10.7,4.8,10.7,10.7v360.9
			C298.8,378.6,293.9,383.5,288,383.5z M12.5,3.1c-4.8,0-8.7,3.9-8.7,8.7v360.9c0,4.8,3.9,8.7,8.7,8.7H288c4.8,0,8.7-3.9,8.7-8.7
			V11.8c0-4.8-3.9-8.7-8.7-8.7H12.5z"/>
	</g>
	<g>
		<path class="st0" d="M277.8,368.1h-255c-5,0-9-4-9-9v-334c0-4.9,4-9,9-9h255c5,0,9,4.1,9,9v334
			C286.8,364.1,282.7,368.1,277.8,368.1z"/>
		<path d="M277.8,369.1h-255c-5.5,0-10-4.5-10-10v-334c0-5.5,4.5-10,10-10h255c5.5,0,10,4.5,10,10v334
			C287.8,364.6,283.3,369.1,277.8,369.1z M22.8,17.1c-4.4,0-8,3.6-8,8v334c0,4.4,3.6,8,8,8h255c4.4,0,8-3.6,8-8v-334
			c0-4.4-3.6-8-8-8H22.8z"/>
	</g>
	<g>
		<g>
			<path class="st1" d="M134.1,200.8c0,0,2.5-0.1,4,11.9c1.5,12,28.8-11.4,28.8-11.4s-0.4-3,2.2-10.2
				C171.8,183.9,134.1,200.8,134.1,200.8z"/>
			<path d="M141.8,217.2c-0.7,0-1.3-0.1-1.9-0.3c-1.1-0.4-2.4-1.4-2.7-4c-1.2-9.5-3-10.9-3.2-11.1c-0.4-0.1-0.7-0.4-0.8-0.8
				c-0.1-0.5,0.1-0.9,0.6-1.1c7.5-3.4,32.4-14.2,36-10.9c0.4,0.3,0.9,1.1,0.4,2.4c-2.5,6.8-2.2,9.7-2.1,9.7c0,0.3-0.1,0.7-0.3,0.9
				C165.7,203.8,149.8,217.2,141.8,217.2z M136,201.1c1.1,1.5,2.3,4.8,3.1,11.5c0.2,1.7,0.9,2.1,1.5,2.3c4.9,1.9,19.6-9.2,25.3-14.1
				c0-1.2,0.2-4.4,2.3-10.1c0.1-0.2,0.1-0.3,0.1-0.3C167.2,189.5,156.1,192.2,136,201.1z M134.1,201.8L134.1,201.8L134.1,201.8z
				 M134.1,201.8C134.1,201.8,134.1,201.8,134.1,201.8C134.1,201.8,134.1,201.8,134.1,201.8z M134.2,201.8
				C134.1,201.8,134.1,201.8,134.2,201.8C134.1,201.8,134.1,201.8,134.2,201.8z"/>
		</g>
		<g>
			<path class="st2" d="M121.1,227.1c0,0,13.7-19.1,18.5-20.3c4.8-1.2,27.3-5.4,27.3-5.4s12.3,5.6,20.1,19
				C194.9,233.8,121.1,227.1,121.1,227.1z"/>
			<path d="M156.6,229.8c-15.9,0-32.3-1.4-35.6-1.7c-0.4,0-0.7-0.3-0.8-0.6c-0.1-0.3-0.1-0.7,0.1-1c1.4-2,14.1-19.4,19.1-20.7
				c4.8-1.2,26.5-5.2,27.4-5.4c0.2,0,0.4,0,0.6,0.1c0.5,0.2,12.7,5.9,20.6,19.4c1.1,2,0.7,3.4,0.1,4.3
				C185.3,228.6,171.2,229.8,156.6,229.8z M123,226.2c4.4,0.4,16.6,1.3,29.1,1.5c27,0.5,33.1-2.7,34.3-4.6c0.3-0.4,0.5-1.1-0.2-2.3
				c-6.9-11.9-17.5-17.5-19.4-18.5c-2.8,0.5-22.5,4.2-26.9,5.3C136.8,208.5,128.3,218.9,123,226.2z"/>
		</g>
		<g>
			<path class="st3" d="M163,210.1c0,0-39.6,3.6-42.6,19.2c-1.7,8.8-10.7,19.1-18.3,26.4c-3.6,3.5-1.1,9.6,3.9,9.6h81.8
				c7.6,0,13.4-6.9,12-14.4C196.8,234.1,188,208.8,163,210.1z"/>
			<path d="M187.8,266.3h-81.8c-2.7,0-5.1-1.6-6.1-4.1c-1-2.5-0.4-5.3,1.5-7.2c7.3-7.1,16.3-17.3,18-25.9
				c3.1-16.2,41.9-19.9,43.5-20c0,0,0,0,0,0c26-1.2,34.9,25.5,37.8,41.6c0.7,3.9-0.3,7.8-2.8,10.8
				C195.5,264.6,191.8,266.3,187.8,266.3z M163.1,211.1c-1.1,0.1-38.9,3.8-41.7,18.4c-1.8,9.1-11,19.7-18.5,27
				c-1.6,1.6-1.6,3.6-1.1,5c0.6,1.4,2,2.9,4.2,2.9h81.8c3.3,0,6.5-1.5,8.6-4c2.1-2.6,3-5.9,2.4-9.2
				C196,235.6,187.6,209.9,163.1,211.1z"/>
		</g>
		<g>
			<path class="st2" d="M169.7,241l-0.6,13.2h13.2l1.9-3.5c0.5-0.8,1.7-0.5,1.7,0.4v3H197v-9.6L169.7,241z"/>
			<path d="M197,255.2h-11.1c-0.6,0-1-0.4-1-1v-2.7l-1.7,3.2c-0.2,0.3-0.5,0.5-0.9,0.5h-13.2c-0.3,0-0.5-0.1-0.7-0.3
				c-0.2-0.2-0.3-0.5-0.3-0.7l0.6-13.2c0-0.3,0.1-0.5,0.4-0.7s0.5-0.3,0.8-0.2l27.3,3.6c0.5,0.1,0.9,0.5,0.9,1v9.6
				C198,254.7,197.5,255.2,197,255.2z M186.9,253.2h9.1v-7.7l-25.4-3.3l-0.5,11.1h11.6l1.6-2.9c0.4-0.8,1.3-1.2,2.2-0.9
				c0.9,0.2,1.4,1,1.4,1.9V253.2z"/>
		</g>
		<g>
			<path class="st3" d="M179.5,134.1c0,0,13.8,40.2,17.1,81c0.3,3.2,0.4,6.4,0.4,9.6v19.8h-27l-0.9-105L179.5,134.1z"/>
			<path d="M197,245.6h-27c-0.5,0-1-0.4-1-1l-0.9-105c0-0.4,0.2-0.7,0.5-0.9l10.5-5.5c0.3-0.1,0.6-0.2,0.8,0
				c0.3,0.1,0.5,0.3,0.6,0.6c0.1,0.4,13.9,40.8,17.1,81.3c0.3,3.1,0.4,6.4,0.4,9.7v19.8C198,245.1,197.5,245.6,197,245.6z
				 M170.9,243.6h25v-18.8c0-3.3-0.1-6.5-0.4-9.6c-2.9-36.5-14.4-72.9-16.7-79.7l-8.9,4.6L170.9,243.6z"/>
		</g>
		<g>
			<path class="st3" d="M176.1,134.1c0,0,9.3,40.2,11.6,81c0.2,3.2,0.3,6.4,0.3,9.6v19.8h-18.3l-0.6-105L176.1,134.1z"/>
			<path d="M188,245.6h-18.3c-0.5,0-1-0.4-1-1l-0.6-105c0-0.3,0.1-0.6,0.4-0.8l7.1-5.5c0.3-0.2,0.6-0.3,0.9-0.1
				c0.3,0.1,0.6,0.4,0.6,0.7c0.1,0.4,9.4,40.8,11.6,81.2c0.2,3.1,0.3,6.4,0.3,9.7v19.8C189,245.1,188.5,245.6,188,245.6z
				 M170.7,243.6H187v-18.8c0-3.3-0.1-6.5-0.3-9.6c-2-35.8-9.5-71.6-11.2-79.3l-5.5,4.2L170.7,243.6z"/>
		</g>
		<g>
			<path class="st3" d="M180.8,139.5c0,9.1-13.3,5.4-21.6,6.1c-4.5,0.4-8.7-2.3-10.4-6.5c-5.9-14.6,2.9-20.9,13.4-19.7
				C170,120.3,180.8,131.3,180.8,139.5z"/>
			<path d="M170.7,146.8c-1.5,0-3-0.1-4.6-0.1c-2.5-0.1-4.8-0.2-6.8,0c-4.9,0.4-9.6-2.5-11.4-7.2c-3.5-8.6-1.7-13.6,0.3-16.3
				c2.8-3.7,8-5.4,14.1-4.7c9.4,1.1,19.5,13.3,19.5,21.1c0,2.1-0.6,3.7-1.9,4.9C177.8,146.4,174.4,146.8,170.7,146.8z M161.7,144.5
				c1.5,0,3,0.1,4.5,0.1c5,0.2,10.1,0.4,12.3-1.7c0.8-0.8,1.2-1.9,1.2-3.4c0-7.9-10.7-18.3-17.7-19.1c-5.4-0.6-9.9,0.8-12.3,3.9
				c-2.5,3.3-2.5,8.3-0.1,14.4c1.6,3.9,5.3,6.2,9.4,5.9C159.9,144.6,160.8,144.5,161.7,144.5z"/>
		</g>
		<g>
			<path class="st1" d="M117.9,144.1c-3.4,6.1-5.8,13.3-6.6,21.2c-2.4,23.8,11,34.7,28.9,36.6c17.8,1.8,33.3-6.1,35.7-29.9
				c0.5-4.6,0.4-9.1-0.2-13.3C157.2,144.7,132.3,143.4,117.9,144.1z"/>
			<path d="M145,203.1c-1.6,0-3.2-0.1-4.9-0.3c-21.2-2.2-32-15.9-29.8-37.7c0.8-7.7,3.1-15.2,6.7-21.6c0.2-0.3,0.5-0.5,0.8-0.5
				c13.7-0.7,39.4,0.4,58.5,14.7c0.2,0.2,0.4,0.4,0.4,0.7c0.6,4.4,0.6,9,0.2,13.5c-1.2,11.5-5.4,20-12.5,25.3
				C159.3,201.2,152.7,203.1,145,203.1z M118.5,145.1c-3.3,6-5.4,13-6.2,20.3c-2.1,20.5,8.1,33.4,28,35.5c9.2,0.9,17.1-0.8,22.9-5.1
				c6.6-4.9,10.6-12.9,11.7-23.9c0.4-4.3,0.4-8.5-0.1-12.6C156.6,145.6,132,144.5,118.5,145.1z"/>
		</g>
		<g class="st4">
			<path class="st5" d="M147.6,126c-0.6-0.1-1.2-0.1-1.9-0.1c16.8,3,28.3,22.9,25.9,45.5c-2.3,22.6-16.7,30.6-33.6,29.5
				c0.6,0.1,1.2,0.2,1.8,0.2c17.7,1.8,33.1-5.9,35.5-29.4C177.8,148.2,165.4,127.8,147.6,126z"/>
		</g>
		<g>
			<g>
				<ellipse transform="matrix(7.910157e-02 -0.9969 0.9969 7.910157e-02 -36.3998 288.6806)" cx="138" cy="164" rx="3" ry="2.7"/>
			</g>
			<g>
				<path d="M139,164.3c-0.1,0-0.2,0-0.3,0c-0.6,0-1-0.5-0.9-1.1c0-0.6,0.5-1,1.1-0.9c1.4,0.1,2.4-2.2,2.4-2.3
					c0.2-0.5,0.8-0.8,1.3-0.6c0.5,0.2,0.8,0.8,0.6,1.3C143.1,160.9,141.8,164.3,139,164.3z"/>
			</g>
		</g>
		<g>
			<g>
				
					<ellipse transform="matrix(7.910157e-02 -0.9969 0.9969 7.910157e-02 -46.9903 268.1577)" cx="121.6" cy="159.5" rx="3" ry="2.7"/>
			</g>
			<g>
				<path d="M122.6,159.8c-0.1,0-0.2,0-0.3,0c-0.6,0-1-0.5-0.9-1.1c0-0.5,0.5-1,1.1-0.9c1.5,0.1,2.4-2.2,2.4-2.3
					c0.2-0.5,0.8-0.8,1.3-0.6c0.5,0.2,0.8,0.8,0.6,1.3C126.7,156.4,125.4,159.8,122.6,159.8z"/>
			</g>
		</g>
		<g>
			<path class="st0" d="M116.9,156.9c-0.6,2,0.4,2.6-0.6,3.3c-0.6,0.5-2.2-1.5-1.6-3.6c0.6-2,3-3.4,3.8-3.2
				C119.3,153.7,117.6,154.9,116.9,156.9z"/>
		</g>
		<g>
			<g>
				<path class="st1" d="M128.1,160.4c0,0-0.5,4.5-4,4.8c-4.2,0.4-1.8,3.8,1.2,4.9"/>
				<path d="M125.2,171.1c-0.1,0-0.2,0-0.3-0.1c-2.1-0.8-4.3-2.7-4.1-4.6c0.1-0.7,0.6-2,3.1-2.2c2.7-0.3,3.1-3.9,3.1-3.9
					c0.1-0.5,0.6-0.9,1.1-0.9c0.5,0.1,0.9,0.6,0.9,1.1c-0.2,1.8-1.5,5.4-4.9,5.7c-1,0.1-1.3,0.4-1.3,0.5c-0.1,0.5,1,1.8,2.8,2.5
					c0.5,0.2,0.8,0.8,0.6,1.3C126,170.8,125.6,171.1,125.2,171.1z"/>
			</g>
			<g class="st4">
				<path class="st5" d="M123.9,166.9c0.4,0.7,0.8,0.5,0.7,1c0,0.3-1,0.2-1.3-0.5c-0.4-0.7-0.2-1.6,0.1-1.8
					C123.6,165.5,123.5,166.2,123.9,166.9z"/>
			</g>
		</g>
		<g>
			<circle class="st6" cx="126.7" cy="167.5" r="0.4"/>
		</g>
		<g>
			
				<ellipse transform="matrix(0.1023 -0.9948 0.9948 0.1023 -60.454 261.5176)" class="st7" cx="114.7" cy="164.3" rx="2.7" ry="5.3"/>
		</g>
		<g>
			
				<ellipse transform="matrix(0.1023 -0.9948 0.9948 0.1023 -41.8792 297.0107)" class="st7" cx="143.6" cy="171.7" rx="2.7" ry="5.3"/>
		</g>
		<g>
			<path class="st8" d="M125.5,134.2c-2.9,2.8-5.4,6.1-7.6,9.9c14.4-0.7,39.3,0.5,57.9,14.5c-0.8-6-2.6-11.6-5.1-16.4
				C155.3,134.7,137.9,133.7,125.5,134.2z"/>
			<path d="M175.8,159.7c-0.2,0-0.4-0.1-0.6-0.2c-18.6-14-43.8-15-57.2-14.3c-0.4,0-0.7-0.2-0.9-0.5c-0.2-0.3-0.2-0.7,0-1
				c2.2-3.9,4.8-7.3,7.8-10.2c0.2-0.2,0.4-0.3,0.7-0.3c12.2-0.5,29.9,0.5,45.6,8.2c0.2,0.1,0.3,0.2,0.4,0.4c2.7,5,4.4,10.6,5.2,16.7
				c0.1,0.4-0.1,0.8-0.5,1C176.1,159.6,176,159.7,175.8,159.7z M124,143c13.8,0,34.2,2.3,50.5,13.5c-0.9-4.8-2.4-9.3-4.5-13.4
				c-15.1-7.3-32.2-8.4-44-7.9c-2.3,2.3-4.4,4.9-6.2,7.9C121.1,143,122.5,143,124,143z"/>
		</g>
		<g>
			<path class="st3" d="M148.1,125.5c-6.5-0.7-12.8,1.3-18.3,5.2c19.8,2,32.3,6,39.3,9C164.1,131.7,156.7,126.4,148.1,125.5z"/>
			<path d="M169.1,140.6c-0.1,0-0.3,0-0.4-0.1c-6.9-2.9-19.3-6.9-39-8.9c-0.4,0-0.8-0.3-0.9-0.7c-0.1-0.4,0.1-0.8,0.4-1.1
				c5.9-4.2,12.5-6,19-5.3l0,0c8.6,0.9,16.3,6.1,21.8,14.6c0.2,0.4,0.2,0.8-0.1,1.2C169.7,140.5,169.4,140.6,169.1,140.6z
				 M132.7,129.9c15.8,1.8,26.7,4.9,33.7,7.5c-4.9-6.4-11.3-10.2-18.4-11l0,0C142.8,125.9,137.6,127.1,132.7,129.9z"/>
		</g>
		<g>
			<path class="st8" d="M170.7,142.3c-0.5-0.9-1-1.8-1.6-2.7c-7-3-19.5-6.9-39.3-9c-1.5,1-2.9,2.2-4.3,3.5
				C137.9,133.7,155.3,134.7,170.7,142.3z"/>
			<path d="M170.7,143.3c-0.1,0-0.3,0-0.4-0.1c-15.3-7.5-32.8-8.5-44.7-8c-0.4,0-0.8-0.2-1-0.6c-0.2-0.4-0.1-0.8,0.2-1.1
				c1.4-1.3,2.9-2.6,4.4-3.6c0.2-0.1,0.4-0.2,0.7-0.2c20,2.1,32.6,6,39.6,9c0.2,0.1,0.3,0.2,0.5,0.4c0.6,0.9,1.1,1.8,1.6,2.8
				c0.2,0.4,0.1,0.9-0.2,1.2C171.2,143.2,170.9,143.3,170.7,143.3z M130.6,133.1c5.2,0,11,0.3,17.1,1.3c-5.1-1-10.9-1.9-17.7-2.7
				c-0.6,0.4-1.2,0.9-1.8,1.4C129,133.1,129.8,133.1,130.6,133.1z"/>
		</g>
		<g>
			<path class="st1" d="M167,179.1c0,0,9.3,3.9,9.3-11.7c0-10.5-6.3-5.1-7.2-3.6"/>
			<path d="M169.4,180.6c-1.6,0-2.7-0.5-2.8-0.5c-0.5-0.2-0.7-0.8-0.5-1.3c0.2-0.5,0.8-0.7,1.3-0.5c0.1,0,2.5,1,4.6-0.4
				c2.2-1.4,3.3-5,3.3-10.4c0-3.1-0.6-5-1.6-5.3c-1.2-0.3-3.3,1.5-3.8,2.2c-0.3,0.5-0.9,0.6-1.4,0.3c-0.5-0.3-0.6-0.9-0.3-1.4
				c0.7-1.2,3.5-3.8,6-3.1c2,0.6,3,3,3,7.2c0,6.2-1.4,10.2-4.2,12.1C171.8,180.3,170.5,180.6,169.4,180.6z"/>
		</g>
		<g>
			<path class="st8" d="M116.3,147.3c0,0,50.1,3.5,60,20.1c0,0,0.3-5-0.6-8.6c0,0-23.7-20.1-57.6-14.7
				C118,144,117,145.7,116.3,147.3z"/>
			<path d="M176.3,168.4c-0.3,0-0.7-0.2-0.9-0.5c-9.5-15.9-58.7-19.6-59.2-19.6c-0.3,0-0.6-0.2-0.8-0.5c-0.2-0.3-0.2-0.6-0.1-0.9
				c0.7-1.6,1.8-3.3,1.8-3.4c0.2-0.2,0.4-0.4,0.7-0.5c34-5.4,58.2,14.7,58.4,14.9c0.2,0.1,0.3,0.3,0.3,0.5c0.9,3.7,0.6,8.7,0.6,8.9
				c0,0.4-0.3,0.8-0.8,0.9C176.4,168.4,176.3,168.4,176.3,168.4z M117.8,146.4c3.7,0.3,14,1.4,24.9,3.7c16.3,3.5,27.2,8.3,32.5,14.2
				c0-1.5-0.2-3.4-0.5-5.1c-2.6-2.1-25.1-19.1-56.1-14.4C118.4,145.3,118.1,145.8,117.8,146.4z"/>
		</g>
		<g>
			<circle class="st2" cx="171.8" cy="179.1" r="4.8"/>
			<path d="M171.8,184.9c-3.2,0-5.8-2.6-5.8-5.8s2.6-5.8,5.8-5.8s5.8,2.6,5.8,5.8S175,184.9,171.8,184.9z M171.8,175.3
				c-2.1,0-3.8,1.7-3.8,3.8c0,2.1,1.7,3.8,3.8,3.8s3.8-1.7,3.8-3.8C175.6,177,173.8,175.3,171.8,175.3z"/>
		</g>
	</g>
	<g>
		<path d="M30.1,31.8h7.7c0.8,0,1.7,0.1,2.4,0.2c0.8,0.2,1.6,0.6,2.4,1.3c0.7,0.5,1.2,1.2,1.6,2.1c0.4,0.9,0.7,1.9,0.7,3
			c0,1.6-0.6,3-1.7,4.3c-1.1,1.4-2.8,2.1-5,2.1h-4.9v8.3h-3.2V31.8z M33.3,41.7h4.8c1.2,0,2.1-0.4,2.7-1.1c0.6-0.7,0.9-1.5,0.9-2.3
			c0-0.7-0.1-1.3-0.4-1.8c-0.2-0.4-0.6-0.8-1-1c-0.7-0.4-1.4-0.6-2.3-0.6h-4.7V41.7z"/>
	</g>
	<g>
		<path d="M31.3,109.2v-2.6c0-0.3,0-0.6,0.1-0.8c0.1-0.3,0.2-0.5,0.4-0.8c0.2-0.2,0.4-0.4,0.7-0.5c0.3-0.1,0.6-0.2,1-0.2
			c0.5,0,1,0.2,1.4,0.6c0.5,0.4,0.7,0.9,0.7,1.7v1.6h2.8v1.1H31.3z M34.7,108.1v-1.6c0-0.4-0.1-0.7-0.4-0.9
			c-0.2-0.2-0.5-0.3-0.8-0.3c-0.2,0-0.4,0-0.6,0.1c-0.1,0.1-0.3,0.2-0.3,0.3c-0.1,0.2-0.2,0.5-0.2,0.8v1.6H34.7z"/>
		<path d="M35.4,99.4v2.8h3.1v1.1h-7.1v-1.1h3.1v-2.8h-3.1v-1.1h7.1v1.1H35.4z"/>
		<path d="M34.9,97c-0.8,0-1.4,0-1.7-0.1c-0.3-0.1-0.5-0.1-0.7-0.2c-0.3-0.2-0.6-0.4-0.9-0.8c-0.3-0.4-0.4-0.8-0.4-1.4
			c0-0.6,0.1-1,0.4-1.4c0.3-0.4,0.5-0.6,0.9-0.8c0.2-0.1,0.4-0.2,0.7-0.2c0.3,0,0.8-0.1,1.7-0.1c0.8,0,1.4,0,1.7,0.1
			c0.3,0,0.5,0.1,0.7,0.2c0.3,0.2,0.6,0.4,0.9,0.8c0.3,0.4,0.4,0.8,0.4,1.4c0,0.6-0.2,1-0.4,1.4c-0.3,0.4-0.5,0.7-0.9,0.8
			c-0.1,0.1-0.2,0.1-0.3,0.1c-0.1,0-0.2,0.1-0.4,0.1C36.3,97,35.7,97,34.9,97z M34.9,95.9c0.7,0,1.2,0,1.4-0.1
			c0.2,0,0.4-0.1,0.6-0.3c0.1-0.1,0.3-0.3,0.4-0.4c0.1-0.2,0.2-0.4,0.2-0.7c0-0.3-0.1-0.5-0.2-0.7c-0.1-0.2-0.2-0.3-0.4-0.4
			c-0.2-0.1-0.4-0.2-0.6-0.3c-0.2,0-0.7-0.1-1.4-0.1c-0.7,0-1.2,0-1.4,0.1c-0.2,0.1-0.4,0.1-0.6,0.3c-0.1,0.1-0.3,0.3-0.4,0.4
			c-0.1,0.2-0.1,0.4-0.2,0.7c0,0.3,0.1,0.5,0.2,0.7c0.1,0.2,0.2,0.3,0.4,0.4c0.2,0.1,0.3,0.2,0.6,0.3C33.7,95.9,34.2,95.9,34.9,95.9
			z"/>
		<path d="M32.3,89.7v1.9h-1v-5h1v1.9h6.2v1.1H32.3z"/>
		<path d="M34.9,86.3c-0.8,0-1.4,0-1.7-0.1c-0.3-0.1-0.5-0.1-0.7-0.2c-0.3-0.2-0.6-0.4-0.9-0.8c-0.3-0.4-0.4-0.8-0.4-1.4
			c0-0.6,0.1-1,0.4-1.4c0.3-0.4,0.5-0.6,0.9-0.8c0.2-0.1,0.4-0.2,0.7-0.2c0.3,0,0.8-0.1,1.7-0.1c0.8,0,1.4,0,1.7,0.1
			c0.3,0,0.5,0.1,0.7,0.2c0.3,0.2,0.6,0.4,0.9,0.8c0.3,0.4,0.4,0.8,0.4,1.4c0,0.6-0.2,1-0.4,1.4c-0.3,0.4-0.5,0.7-0.9,0.8
			c-0.1,0.1-0.2,0.1-0.3,0.1c-0.1,0-0.2,0.1-0.4,0.1C36.3,86.3,35.7,86.3,34.9,86.3z M34.9,85.2c0.7,0,1.2,0,1.4-0.1
			c0.2,0,0.4-0.1,0.6-0.3c0.1-0.1,0.3-0.3,0.4-0.4c0.1-0.2,0.2-0.4,0.2-0.7c0-0.3-0.1-0.5-0.2-0.7c-0.1-0.2-0.2-0.3-0.4-0.4
			c-0.2-0.1-0.4-0.2-0.6-0.3c-0.2,0-0.7-0.1-1.4-0.1c-0.7,0-1.2,0-1.4,0.1c-0.2,0.1-0.4,0.1-0.6,0.3c-0.1,0.1-0.3,0.3-0.4,0.4
			c-0.1,0.2-0.1,0.4-0.2,0.7c0,0.3,0.1,0.5,0.2,0.7c0.1,0.2,0.2,0.3,0.4,0.4c0.2,0.1,0.3,0.2,0.6,0.3C33.7,85.2,34.2,85.2,34.9,85.2
			z"/>
		<path d="M37.4,77.8c0-0.9-0.3-1.4-1-1.4c-0.5,0-0.8,0.3-1,0.9c0,0.3-0.1,0.6-0.1,0.9c-0.1,0.6-0.3,1.1-0.7,1.4
			c-0.4,0.3-0.8,0.5-1.3,0.5c-0.6,0-1.1-0.2-1.5-0.6c-0.4-0.4-0.6-1-0.6-1.7c0-0.9,0.3-1.7,0.7-2.3l0.9,0.6
			c-0.4,0.5-0.5,1.1-0.5,1.8c0,0.3,0.1,0.6,0.2,0.8c0.2,0.2,0.4,0.4,0.8,0.4c0.2,0,0.4-0.1,0.6-0.2c0.2-0.2,0.3-0.4,0.4-0.8
			c0-0.2,0.1-0.5,0.1-0.8c0.1-0.7,0.3-1.2,0.7-1.5c0.4-0.3,0.8-0.5,1.3-0.5c1.4,0,2.1,0.9,2.1,2.5c0,1.1-0.3,2-1,2.7l-0.8-0.7
			C37.2,79.3,37.4,78.6,37.4,77.8z"/>
		<path d="M35.4,70.3v2.8h3.1v1.1h-7.1v-1.1h3.1v-2.8h-3.1v-1.1h7.1v1.1H35.4z"/>
		<path d="M34.9,68c-0.8,0-1.4,0-1.7-0.1c-0.3-0.1-0.5-0.1-0.7-0.2c-0.3-0.2-0.6-0.4-0.9-0.8c-0.3-0.4-0.4-0.8-0.4-1.4
			c0-0.6,0.1-1,0.4-1.4c0.3-0.4,0.5-0.6,0.9-0.8c0.2-0.1,0.4-0.2,0.7-0.2c0.3,0,0.8-0.1,1.7-0.1c0.8,0,1.4,0,1.7,0.1
			c0.3,0,0.5,0.1,0.7,0.2c0.3,0.2,0.6,0.4,0.9,0.8c0.3,0.4,0.4,0.8,0.4,1.4c0,0.6-0.2,1-0.4,1.4c-0.3,0.4-0.5,0.7-0.9,0.8
			c-0.1,0.1-0.2,0.1-0.3,0.1c-0.1,0-0.2,0.1-0.4,0.1C36.3,68,35.7,68,34.9,68z M34.9,66.9c0.7,0,1.2,0,1.4-0.1
			c0.2,0,0.4-0.1,0.6-0.3c0.1-0.1,0.3-0.3,0.4-0.4c0.1-0.2,0.2-0.4,0.2-0.7c0-0.3-0.1-0.5-0.2-0.7c-0.1-0.2-0.2-0.3-0.4-0.4
			c-0.2-0.1-0.4-0.2-0.6-0.3c-0.2,0-0.7-0.1-1.4-0.1c-0.7,0-1.2,0-1.4,0.1c-0.2,0.1-0.4,0.1-0.6,0.3c-0.1,0.1-0.3,0.3-0.4,0.4
			c-0.1,0.2-0.1,0.4-0.2,0.7c0,0.3,0.1,0.5,0.2,0.7c0.1,0.2,0.2,0.3,0.4,0.4c0.2,0.1,0.3,0.2,0.6,0.3C33.7,66.9,34.2,66.9,34.9,66.9
			z"/>
		<path d="M31.3,61.6v-2.6c0-0.3,0-0.6,0.1-0.8c0.1-0.3,0.2-0.5,0.4-0.8c0.2-0.2,0.4-0.4,0.7-0.5c0.3-0.1,0.6-0.2,1-0.2
			c0.5,0,1,0.2,1.4,0.6c0.5,0.4,0.7,0.9,0.7,1.7v1.6h2.8v1.1H31.3z M34.7,60.6V59c0-0.4-0.1-0.7-0.4-0.9c-0.2-0.2-0.5-0.3-0.8-0.3
			c-0.2,0-0.4,0-0.6,0.1c-0.1,0.1-0.3,0.2-0.3,0.3c-0.1,0.2-0.2,0.5-0.2,0.8v1.6H34.7z"/>
	</g>
	<g>
		<path d="M270.5,352.5h-7.7c-0.8,0-1.7-0.1-2.4-0.2c-0.8-0.2-1.6-0.6-2.4-1.3c-0.7-0.5-1.2-1.2-1.6-2.1c-0.4-0.9-0.7-1.9-0.7-3
			c0-1.6,0.6-3,1.7-4.3c1.1-1.4,2.8-2.1,5-2.1h4.9v-8.3h3.2V352.5z M267.3,342.5h-4.8c-1.2,0-2.1,0.4-2.7,1.1
			c-0.6,0.7-0.9,1.5-0.9,2.3c0,0.7,0.1,1.3,0.4,1.8c0.2,0.4,0.6,0.8,1,1c0.7,0.4,1.4,0.6,2.3,0.6h4.7V342.5z"/>
	</g>
	<g>
		<path d="M269.3,275.1v2.6c0,0.3,0,0.6-0.1,0.8c-0.1,0.3-0.2,0.5-0.4,0.8c-0.2,0.2-0.4,0.4-0.7,0.5c-0.3,0.1-0.6,0.2-1,0.2
			c-0.5,0-1-0.2-1.4-0.6c-0.5-0.4-0.7-0.9-0.7-1.7v-1.6h-2.8v-1.1H269.3z M265.9,276.1v1.6c0,0.4,0.1,0.7,0.4,0.9
			c0.2,0.2,0.5,0.3,0.8,0.3c0.2,0,0.4,0,0.6-0.1c0.1-0.1,0.3-0.2,0.3-0.3c0.1-0.2,0.2-0.5,0.2-0.8v-1.6H265.9z"/>
		<path d="M265.2,284.9v-2.8h-3.1V281h7.1v1.1h-3.1v2.8h3.1v1.1h-7.1v-1.1H265.2z"/>
		<path d="M265.7,287.2c0.8,0,1.4,0,1.7,0.1c0.3,0.1,0.5,0.1,0.7,0.2c0.3,0.2,0.6,0.4,0.9,0.8c0.3,0.4,0.4,0.8,0.4,1.4
			c0,0.6-0.1,1-0.4,1.4c-0.3,0.4-0.5,0.6-0.9,0.8c-0.2,0.1-0.4,0.2-0.7,0.2c-0.3,0-0.8,0.1-1.7,0.1c-0.8,0-1.4,0-1.7-0.1
			c-0.3,0-0.5-0.1-0.7-0.2c-0.3-0.2-0.6-0.4-0.9-0.8c-0.3-0.4-0.4-0.8-0.4-1.4c0-0.6,0.1-1,0.4-1.4c0.3-0.4,0.5-0.7,0.9-0.8
			c0.1-0.1,0.2-0.1,0.3-0.1c0.1,0,0.2-0.1,0.4-0.1C264.3,287.2,264.9,287.2,265.7,287.2z M265.7,288.3c-0.7,0-1.2,0-1.4,0.1
			c-0.2,0-0.4,0.1-0.6,0.3c-0.1,0.1-0.3,0.3-0.4,0.4c-0.1,0.2-0.2,0.4-0.2,0.7c0,0.3,0.1,0.5,0.2,0.7c0.1,0.2,0.2,0.3,0.4,0.4
			c0.2,0.1,0.4,0.2,0.6,0.3c0.2,0,0.7,0.1,1.4,0.1s1.2,0,1.4-0.1c0.2-0.1,0.4-0.1,0.6-0.3c0.1-0.1,0.3-0.3,0.4-0.4
			c0.1-0.2,0.1-0.4,0.2-0.7c0-0.3-0.1-0.5-0.2-0.7c-0.1-0.2-0.2-0.3-0.4-0.4c-0.2-0.1-0.3-0.2-0.6-0.3
			C266.9,288.3,266.4,288.3,265.7,288.3z"/>
		<path d="M268.3,294.6v-1.9h1v5h-1v-1.9h-6.2v-1.1H268.3z"/>
		<path d="M265.7,298c0.8,0,1.4,0,1.7,0.1c0.3,0.1,0.5,0.1,0.7,0.2c0.3,0.2,0.6,0.4,0.9,0.8c0.3,0.4,0.4,0.8,0.4,1.4
			c0,0.6-0.1,1-0.4,1.4c-0.3,0.4-0.5,0.6-0.9,0.8c-0.2,0.1-0.4,0.2-0.7,0.2c-0.3,0-0.8,0.1-1.7,0.1c-0.8,0-1.4,0-1.7-0.1
			c-0.3,0-0.5-0.1-0.7-0.2c-0.3-0.2-0.6-0.4-0.9-0.8c-0.3-0.4-0.4-0.8-0.4-1.4c0-0.6,0.1-1,0.4-1.4c0.3-0.4,0.5-0.7,0.9-0.8
			c0.1-0.1,0.2-0.1,0.3-0.1c0.1,0,0.2-0.1,0.4-0.1C264.3,298,264.9,298,265.7,298z M265.7,299c-0.7,0-1.2,0-1.4,0.1
			c-0.2,0-0.4,0.1-0.6,0.3c-0.1,0.1-0.3,0.3-0.4,0.4c-0.1,0.2-0.2,0.4-0.2,0.7c0,0.3,0.1,0.5,0.2,0.7c0.1,0.2,0.2,0.3,0.4,0.4
			c0.2,0.1,0.4,0.2,0.6,0.3c0.2,0,0.7,0.1,1.4,0.1s1.2,0,1.4-0.1c0.2-0.1,0.4-0.1,0.6-0.3c0.1-0.1,0.3-0.2,0.4-0.4
			c0.1-0.2,0.1-0.4,0.2-0.7c0-0.3-0.1-0.5-0.2-0.7c-0.1-0.2-0.2-0.3-0.4-0.4c-0.2-0.1-0.3-0.2-0.6-0.3
			C266.9,299.1,266.4,299,265.7,299z"/>
		<path d="M263.2,306.4c0,0.9,0.3,1.4,1,1.4c0.5,0,0.8-0.3,1-0.9c0-0.3,0.1-0.6,0.1-0.9c0.1-0.6,0.3-1.1,0.7-1.4
			c0.4-0.3,0.8-0.5,1.3-0.5c0.6,0,1.1,0.2,1.5,0.6c0.4,0.4,0.6,1,0.6,1.7c0,0.9-0.3,1.7-0.7,2.3l-0.9-0.6c0.4-0.5,0.5-1.1,0.5-1.8
			c0-0.3-0.1-0.6-0.2-0.8c-0.2-0.2-0.4-0.3-0.8-0.4c-0.2,0-0.4,0.1-0.6,0.2c-0.2,0.2-0.3,0.4-0.4,0.8c0,0.2-0.1,0.5-0.1,0.8
			c-0.1,0.7-0.3,1.2-0.7,1.5c-0.4,0.3-0.8,0.5-1.3,0.5c-1.4,0-2.1-0.9-2.1-2.5c0-1.1,0.3-2,1-2.7l0.8,0.7
			C263.4,305,263.2,305.6,263.2,306.4z"/>
		<path d="M265.2,313.9v-2.8h-3.1V310h7.1v1.1h-3.1v2.8h3.1v1.1h-7.1v-1.1H265.2z"/>
		<path d="M265.7,316.3c0.8,0,1.4,0,1.7,0.1c0.3,0.1,0.5,0.1,0.7,0.2c0.3,0.2,0.6,0.4,0.9,0.8c0.3,0.4,0.4,0.8,0.4,1.4
			c0,0.6-0.1,1-0.4,1.4c-0.3,0.4-0.5,0.6-0.9,0.8c-0.2,0.1-0.4,0.2-0.7,0.2c-0.3,0-0.8,0.1-1.7,0.1c-0.8,0-1.4,0-1.7-0.1
			c-0.3,0-0.5-0.1-0.7-0.2c-0.3-0.2-0.6-0.4-0.9-0.8c-0.3-0.4-0.4-0.8-0.4-1.4c0-0.6,0.1-1,0.4-1.4c0.3-0.4,0.5-0.7,0.9-0.8
			c0.1-0.1,0.2-0.1,0.3-0.1c0.1,0,0.2-0.1,0.4-0.1C264.3,316.3,264.9,316.3,265.7,316.3z M265.7,317.4c-0.7,0-1.2,0-1.4,0.1
			c-0.2,0-0.4,0.1-0.6,0.3c-0.1,0.1-0.3,0.3-0.4,0.4c-0.1,0.2-0.2,0.4-0.2,0.7c0,0.3,0.1,0.5,0.2,0.7c0.1,0.2,0.2,0.3,0.4,0.4
			c0.2,0.1,0.4,0.2,0.6,0.3c0.2,0,0.7,0.1,1.4,0.1s1.2,0,1.4-0.1c0.2-0.1,0.4-0.1,0.6-0.3c0.1-0.1,0.3-0.3,0.4-0.4
			c0.1-0.2,0.1-0.4,0.2-0.7c0-0.3-0.1-0.5-0.2-0.7c-0.1-0.2-0.2-0.3-0.4-0.4c-0.2-0.1-0.3-0.2-0.6-0.3
			C266.9,317.4,266.4,317.4,265.7,317.4z"/>
		<path d="M269.3,322.6v2.6c0,0.3,0,0.6-0.1,0.8c-0.1,0.3-0.2,0.5-0.4,0.8c-0.2,0.2-0.4,0.4-0.7,0.5c-0.3,0.1-0.6,0.2-1,0.2
			c-0.5,0-1-0.2-1.4-0.6c-0.5-0.4-0.7-0.9-0.7-1.7v-1.6h-2.8v-1.1H269.3z M265.9,323.7v1.6c0,0.4,0.1,0.7,0.4,0.9
			c0.2,0.2,0.5,0.3,0.8,0.3c0.2,0,0.4,0,0.6-0.1c0.1-0.1,0.3-0.2,0.3-0.3c0.1-0.2,0.2-0.5,0.2-0.8v-1.6H265.9z"/>
	</g>
</g>
</svg>
