<?xml version="1.0" encoding="utf-8"?>
<!-- Generator: Adobe Illustrator 22.0.1, SVG Export Plug-In . SVG Version: 6.00 Build 0)  -->
<svg version="1.1" id="Layer_1" xmlns="http://www.w3.org/2000/svg" xmlns:xlink="http://www.w3.org/1999/xlink" x="0px" y="0px"
	 viewBox="0 0 1120.8 712" style="enable-background:new 0 0 1120.8 712;" xml:space="preserve">
<style type="text/css">
	.st0{fill:#FFFFFF;}
	.st1{fill:#E9E9E9;}
	.st2{fill:#ECF0F3;}
	.st3{fill:none;stroke:#000000;stroke-width:2;stroke-miterlimit:10;}
	.st4{fill:#F38475;}
	.st5{fill:#F2CC67;}
	.st6{fill:#60D36D;}
	.st7{fill:#7797EE;}
	.st8{fill:#E26852;}
	.st9{fill:#F0CA5A;}
	.st10{fill:#5CB371;}
	.st11{fill:#F4F5F6;}
	.st12{fill:#225C52;}
	.st13{fill:#C2D1D0;}
	.st14{clip-path:url(#SVGID_2_);fill:#FBD13B;}
	.st15{clip-path:url(#SVGID_2_);fill:#FBCE3A;}
	.st16{clip-path:url(#SVGID_2_);fill:#FACC3A;}
	.st17{clip-path:url(#SVGID_2_);fill:#FAC939;}
	.st18{clip-path:url(#SVGID_2_);fill:#FAC639;}
	.st19{clip-path:url(#SVGID_2_);fill:#F9C438;}
	.st20{clip-path:url(#SVGID_2_);fill:#F9C138;}
	.st21{clip-path:url(#SVGID_2_);fill:#F9BF37;}
	.st22{clip-path:url(#SVGID_2_);fill:#F8BC37;}
	.st23{clip-path:url(#SVGID_2_);fill:#F8BA36;}
	.st24{clip-path:url(#SVGID_2_);fill:#F8B836;}
	.st25{clip-path:url(#SVGID_2_);fill:#F8B535;}
	.st26{clip-path:url(#SVGID_2_);fill:#F7B335;}
	.st27{clip-path:url(#SVGID_2_);fill:#F7B134;}
	.st28{clip-path:url(#SVGID_2_);fill:#F7AE34;}
	.st29{clip-path:url(#SVGID_2_);fill:#F6AC34;}
	.st30{clip-path:url(#SVGID_2_);fill:#F6AA33;}
	.st31{clip-path:url(#SVGID_2_);fill:#F6A833;}
	.st32{clip-path:url(#SVGID_2_);fill:#F6A632;}
	.st33{clip-path:url(#SVGID_2_);fill:#F5A432;}
	.st34{clip-path:url(#SVGID_2_);fill:#F5A231;}
	.st35{clip-path:url(#SVGID_2_);fill:#F5A031;}
	.st36{clip-path:url(#SVGID_2_);fill:#F59E31;}
	.st37{clip-path:url(#SVGID_2_);fill:#F49C30;}
	.st38{clip-path:url(#SVGID_2_);fill:#F49A30;}
	.st39{clip-path:url(#SVGID_2_);fill:#F49930;}
	.st40{clip-path:url(#SVGID_2_);fill:#F4972F;}
	.st41{clip-path:url(#SVGID_2_);fill:#F4952F;}
	.st42{clip-path:url(#SVGID_2_);fill:#F3932E;}
	.st43{clip-path:url(#SVGID_2_);fill:#F3922E;}
	.st44{clip-path:url(#SVGID_2_);fill:#F3902E;}
	.st45{clip-path:url(#SVGID_2_);fill:#F38F2D;}
	.st46{clip-path:url(#SVGID_2_);fill:#F38D2D;}
	.st47{clip-path:url(#SVGID_2_);fill:#F28C2D;}
	.st48{clip-path:url(#SVGID_2_);fill:#F28A2D;}
	.st49{clip-path:url(#SVGID_2_);fill:#F2892C;}
	.st50{clip-path:url(#SVGID_2_);fill:#F2872C;}
	.st51{clip-path:url(#SVGID_2_);fill:#F2862C;}
	.st52{clip-path:url(#SVGID_2_);fill:#F2842B;}
	.st53{clip-path:url(#SVGID_2_);fill:#F1832B;}
	.st54{clip-path:url(#SVGID_2_);fill:#F1822B;}
	.st55{clip-path:url(#SVGID_2_);fill:#F1802B;}
	.st56{clip-path:url(#SVGID_2_);fill:#F17F2A;}
	.st57{clip-path:url(#SVGID_2_);fill:#F17E2A;}
	.st58{clip-path:url(#SVGID_2_);fill:#F17D2A;}
	.st59{clip-path:url(#SVGID_2_);fill:#F07C2A;}
	.st60{clip-path:url(#SVGID_2_);fill:#F07B29;}
	.st61{clip-path:url(#SVGID_2_);fill:#F07A29;}
	.st62{clip-path:url(#SVGID_2_);fill:#F07829;}
	.st63{clip-path:url(#SVGID_2_);fill:#F07729;}
	.st64{clip-path:url(#SVGID_2_);fill:#F07629;}
	.st65{clip-path:url(#SVGID_2_);fill:#F07528;}
	.st66{clip-path:url(#SVGID_2_);fill:#EF7428;}
	.st67{clip-path:url(#SVGID_2_);fill:#EF7328;}
	.st68{clip-path:url(#SVGID_2_);fill:#EF7228;}
	.st69{clip-path:url(#SVGID_2_);fill:#EF7127;}
	.st70{clip-path:url(#SVGID_2_);fill:#EF7027;}
	.st71{clip-path:url(#SVGID_2_);fill:#EF6F27;}
	.st72{clip-path:url(#SVGID_2_);fill:#EF6E27;}
	.st73{clip-path:url(#SVGID_2_);fill:#EF6D27;}
	.st74{clip-path:url(#SVGID_2_);fill:#EF6C27;}
	.st75{clip-path:url(#SVGID_2_);fill:#EE6C26;}
	.st76{clip-path:url(#SVGID_2_);fill:#EE6B26;}
	.st77{clip-path:url(#SVGID_2_);fill:#EE6A26;}
	.st78{clip-path:url(#SVGID_2_);fill:#EE6926;}
	.st79{clip-path:url(#SVGID_2_);fill:#EE6826;}
	.st80{clip-path:url(#SVGID_2_);fill:#EE6725;}
	.st81{clip-path:url(#SVGID_2_);fill:#EE6625;}
	.st82{clip-path:url(#SVGID_2_);fill:#EE6525;}
	.st83{clip-path:url(#SVGID_2_);fill:#EE6425;}
	.st84{clip-path:url(#SVGID_2_);fill:#ED6425;}
	.st85{clip-path:url(#SVGID_2_);fill:#ED6325;}
	.st86{clip-path:url(#SVGID_2_);fill:#ED6224;}
	.st87{clip-path:url(#SVGID_2_);fill:#ED6124;}
	.st88{clip-path:url(#SVGID_2_);fill:#ED6024;}
	.st89{fill:#F0F0F0;}
</style>
<g>
	<g id="XMLID_14_">
		<g>
			<path class="st0" d="M1112.2,108.6V695c0,4.4-3.6,7.9-7.9,7.9H16.1c-4.4,0-7.9-3.6-7.9-7.9V108.6h0.5H1112.2z"/>
			<polygon class="st1" points="1112.2,46.6 1112.2,108.6 8.6,108.6 8.2,108.6 8.2,46.6 8.6,46.6 			"/>
			<path class="st2" d="M1112.2,17v29.6H8.6H8.2V17c0-4.4,3.6-7.9,7.9-7.9h1088.1C1108.6,9.1,1112.2,12.7,1112.2,17z"/>
		</g>
		<g>
			<path class="st3" d="M1112.2,108.6V695c0,4.4-3.6,7.9-7.9,7.9H16.1c-4.4,0-7.9-3.6-7.9-7.9V108.6v-62V17c0-4.4,3.6-7.9,7.9-7.9
				h1088.1c4.4,0,7.9,3.6,7.9,7.9v29.6V108.6z"/>
			<polyline class="st3" points="8.6,46.6 1112.2,46.6 1112.6,46.6 			"/>
			<polyline class="st3" points="8.6,108.6 1112.2,108.6 1112.6,108.6 			"/>
		</g>
	</g>
	<g>
		<circle class="st4" cx="38.2" cy="28.2" r="7"/>
		<path d="M38.1,36.2c-4.4,0-8-3.6-8-8s3.6-8,8-8s8,3.6,8,8S42.6,36.2,38.1,36.2z M38.1,22.2c-3.3,0-6,2.7-6,6s2.7,6,6,6s6-2.7,6-6
			S41.5,22.2,38.1,22.2z"/>
	</g>
	<g>
		<circle class="st5" cx="66.7" cy="28.2" r="7"/>
		<path d="M66.6,36.2c-4.4,0-8-3.6-8-8s3.6-8,8-8s8,3.6,8,8S71.1,36.2,66.6,36.2z M66.6,22.2c-3.3,0-6,2.7-6,6s2.7,6,6,6s6-2.7,6-6
			S70,22.2,66.6,22.2z"/>
	</g>
	<g>
		<circle class="st6" cx="95.2" cy="28.2" r="7"/>
		<path d="M95.1,36.2c-4.4,0-8-3.6-8-8s3.6-8,8-8s8,3.6,8,8S99.6,36.2,95.1,36.2z M95.1,22.2c-3.3,0-6,2.7-6,6s2.7,6,6,6s6-2.7,6-6
			S98.5,22.2,95.1,22.2z"/>
	</g>
	<g>
		<g>
			<g>
				<g>
					<path class="st7" d="M432.5,193.9c4.5-11.5,13.3-0.4,25.7-0.4c6.3,0.1,11.5,1.8,14.7,4.9c3.2,3.1,3.4,7.8,3.4,12.9
						c0.1,2.6,1.3,5.7,0,8.1c-0.7,1.1-3.1,1.2-4.3,2.2c-1.3,1.1-2.7,1.9-4.6,2.8c-0.1,0,0.2,1,0.3,1.1c3.5,0.9,6.5,2.2,8.3,5
						c1.7,2.8,2.5,6.1,2.5,9.4c-0.1,5.5-1.3,10.7-4.7,13.9c-3.4,3.4-8.4,5.3-13.4,5.3c-13.4,0-16.7,7.7-26.8-1.2
						C408.9,236.5,421,223.6,432.5,193.9z M444,203.5c-5.5,7.2-5.8,9.9-0.2,17.1c4.2,5.5,6.4-0.3,13.3-0.3c3.5,0,6.7,0.4,8.4-1.4
						c1.7-1.7,0.8-4.4,0.8-6.9s0.8-5.2-0.9-6.9c-1.7-1.7-4.4-2.7-8-2.8C450.7,199.6,448.2,198,444,203.5z M444,230.4
						c-5.9,7.6-6.1,10.5-0.2,18c4.6,5.9,6.8-0.3,14.3-0.3c3.6-0.1,6.8,0.3,8.5-1.6c1.7-1.9,0.7-4.6,0.7-7.2c0-2.6,0.8-5.3-0.8-7.1
						c-1.7-1.8-4.5-3-8.1-3.1C451.2,226.2,448.5,224.5,444,230.4z"/>
				</g>
				<g>
					<path d="M442.7,263.2c-2.9,0-5.9-1.1-9.9-4.5c-21.2-18.5-15.7-31.1-6.7-52c1.8-4.1,3.6-8.4,5.5-13.2c3.2-8.2,8.8-6.1,14.7-3.9
						c3.5,1.3,7.5,2.8,11.9,2.8c6.6,0.1,12,1.9,15.4,5.2c3.4,3.4,3.7,8.4,3.7,13.7c0,0.7,0.1,1.5,0.3,2.4c0.3,2,0.6,4.3-0.4,6.2
						c-0.6,1-1.7,1.3-2.8,1.7c-0.7,0.2-1.4,0.4-1.8,0.8c-1,0.8-2.1,1.6-3.7,2.4c2.8,0.8,5.9,2.2,7.8,5.1c1.7,3,2.7,6.4,2.7,10
						c-0.1,6.7-1.7,11.6-5,14.6c-3.5,3.5-8.8,5.6-14.1,5.6c-4.7,0-8.2,1-11.2,1.8C446.9,262.6,444.9,263.2,442.7,263.2z
						 M438.6,189.7c-2.3,0-3.8,1.2-5.1,4.6l0,0c-1.9,4.8-3.8,9.3-5.5,13.3c-8.9,20.7-13.8,32.2,6.2,49.7c6,5.3,9.2,4.4,14.4,2.9
						c3-0.9,6.7-1.9,11.7-1.9c4.8,0,9.5-1.9,12.7-5c2.8-2.7,4.3-7.1,4.4-13.2c0-3.2-0.8-6.3-2.4-8.9c-1.4-2.1-3.7-3.5-7.7-4.5
						c-0.2-0.1-0.8-0.3-1-1.8c-0.1-0.7,0.3-1,0.5-1.1c2.1-1,3.4-1.8,4.4-2.7c0.7-0.6,1.7-0.9,2.5-1.2c0.7-0.2,1.5-0.5,1.6-0.8
						c0.7-1.3,0.5-3.1,0.2-4.9c-0.1-0.9-0.3-1.8-0.3-2.7c0-5-0.2-9.4-3.1-12.3c-2.9-2.9-8-4.6-14-4.6c-4.8,0-8.9-1.6-12.6-2.9
						C442.7,190.5,440.4,189.7,438.6,189.7z M447.7,251.9c-1.5,0-3-0.7-4.7-2.9c-6.1-7.8-6-11.2,0.2-19.3l0,0c4.7-6,8-4.7,13.9-2.2
						c0.4,0.2,0.9,0.4,1.4,0.6c3.7,0.1,6.7,1.3,8.6,3.4c1.5,1.7,1.4,3.9,1.2,5.9c0,0.6-0.1,1.3-0.1,1.9c0,0.6,0.1,1.3,0.1,2
						c0.2,1.9,0.4,4.1-1.1,5.8c-1.7,1.9-4.6,2-7.6,1.9c-0.5,0-1.1,0-1.6,0c-2.7,0-4.7,0.9-6.4,1.7
						C450.3,251.4,449,251.9,447.7,251.9z M444.8,231c-5.7,7.3-5.7,9.7-0.2,16.8c2.3,2.9,3.5,2.4,6.2,1.2c1.8-0.8,4.1-1.9,7.2-1.9
						c0.5,0,1.1,0,1.6,0c2.7,0,5,0,6.1-1.3c0.9-1,0.8-2.6,0.6-4.3c-0.1-0.7-0.1-1.5-0.1-2.2c0-0.7,0.1-1.4,0.1-2.1
						c0.1-1.8,0.3-3.3-0.7-4.4c-1.5-1.7-4.2-2.7-7.3-2.7l-0.2,0l-0.2-0.1c-0.5-0.2-1-0.4-1.5-0.6C450.5,227,448.5,226.1,444.8,231
						L444.8,231z M447.4,224c-1.4,0-2.8-0.7-4.4-2.8c-5.8-7.5-5.7-10.6,0.2-18.4l0,0c4.4-5.7,7.5-4.5,13.1-2.2l1.3,0.5
						c3.6,0.1,6.6,1.2,8.5,3.1c1.6,1.7,1.4,3.8,1.3,5.8c0,0.6-0.1,1.2-0.1,1.8c0,0.6,0.1,1.3,0.1,2c0.2,2,0.4,4.1-1.2,5.7
						c-1.7,1.8-4.4,1.8-7.4,1.7c-0.5,0-1.1,0-1.7,0c-2.5,0-4.4,0.8-6,1.6C449.8,223.5,448.6,224,447.4,224z M444.8,204.1
						c-5.4,7-5.4,9.1-0.2,15.9c2.1,2.7,3.2,2.2,5.7,1.1c1.7-0.8,3.9-1.8,6.8-1.8c0.6,0,1.1,0,1.7,0c2.6,0.1,4.8,0.1,5.9-1.1
						c0.9-0.9,0.8-2.4,0.6-4.1c-0.1-0.7-0.1-1.4-0.1-2.1c0-0.7,0-1.3,0.1-2c0.1-1.8,0.2-3.3-0.7-4.3c-1.5-1.5-4.1-2.4-7.3-2.5
						l-0.2,0l-1.6-0.7C449.9,200.3,448.2,199.6,444.8,204.1L444.8,204.1z"/>
				</g>
			</g>
		</g>
		<g>
			<g>
				<g>
					<path class="st8" d="M493.7,247.7c0,3.3,0.7,5.5,2.5,7.2c1.7,1.7,4.3,2.8,7.1,2.8c3.3,0,6.1-1.2,8.7-3.8
						c3.7,1.1,4.6,0.8,5.3,4.6c-4.1,4.4-8.2,5.7-13.8,5.7c-2.1,0-4.3,0.8-6.4,0.2c-1-0.3-2.1-0.7-3.1-1.3c-1-0.5-1.4-1.9-2.3-2.6
						c-1.7-1.5-2.8-3.5-3.8-6.2c-1.2-2.6-2.4-5.7-2.4-9.9c0-4,0.1-7.5,1.1-10.2c1-2.7,2.6-4.8,4.2-6.4c1.6-1.6,3.8-1.9,5.8-2.6
						c2-0.7,3.7-1,5.6-1c4.6,0.1,8.1,1.3,11.3,4.3c3.3,3,6,6.7,6,12c0,3.4,2.2,4.6-0.9,6C507,251.6,506.2,246.1,493.7,247.7z
						 M510.6,240.1c-0.1-3.2-0.6-5.3-2.2-6.9c-1.6-1.5-3.8-2.5-6.2-2.5c-2.4,0-4.9,0.8-6.4,2.3c-1.5,1.6-2.3,5.1-2.5,8.3
						C500.9,245,502.2,241.6,510.6,240.1z"/>
				</g>
				<g>
					<path d="M498.8,265.5c-0.7,0-1.4-0.1-2.1-0.3c-1.1-0.4-2.3-0.8-3.3-1.4c-0.7-0.4-1.2-1.1-1.7-1.7c-0.3-0.4-0.5-0.8-0.8-1
						c-1.9-1.7-3-3.9-4.1-6.6c-1.2-2.7-2.5-5.9-2.5-10.2c0-4.1,0.1-7.7,1.2-10.5c0.9-2.5,2.4-4.8,4.4-6.7c1.4-1.4,3.1-1.9,4.7-2.3
						c0.5-0.1,1-0.3,1.5-0.5c2-0.7,3.9-1,5.9-1c4.9,0.1,8.6,1.5,11.9,4.6c2.9,2.7,6.3,6.6,6.3,12.8c0,1,0.2,1.8,0.4,2.5
						c0.4,1.5,0.9,3.1-1.9,4.4c-6.9,3.1-10.3,2.4-14.1,1.7c-2.6-0.5-5.5-1-10.1-0.5c0.1,2.6,0.8,4.3,2.2,5.5
						c1.6,1.6,3.9,2.5,6.4,2.5c3.1,0,5.6-1.1,8-3.5l0.4-0.4l0.6,0.2c0.4,0.1,0.8,0.2,1.2,0.3c3,0.8,4.1,1.3,4.8,5.1l0.1,0.5
						l-0.3,0.4c-4,4.3-8.3,6-14.6,6c-0.7,0-1.4,0.1-2.2,0.2C500.5,265.4,499.7,265.5,498.8,265.5z M502.1,225.2
						c-1.8,0-3.4,0.3-5.2,0.9c-0.5,0.2-1,0.3-1.6,0.5c-1.5,0.4-2.9,0.8-3.9,1.9c-1.8,1.8-3.1,3.8-4,6c-1,2.5-1,5.9-1,9.8
						c0,3.9,1.2,6.8,2.3,9.5c1,2.5,2,4.5,3.6,5.9c0.5,0.4,0.8,0.9,1.1,1.4c0.3,0.5,0.6,0.9,0.9,1.1c0.9,0.5,1.9,0.9,2.9,1.2
						c1.1,0.4,2.4,0.2,3.7,0c0.9-0.1,1.8-0.2,2.7-0.2c5.4,0,9-1.4,12.5-5c-0.5-2.3-0.8-2.4-3.3-3c-0.2-0.1-0.4-0.1-0.6-0.2
						c-2.6,2.5-5.5,3.7-9,3.7c-3,0-5.8-1.1-7.8-3c-2-1.8-2.8-4.1-2.8-7.9v-0.9l0.9-0.1c5.5-0.7,8.8-0.1,11.6,0.4
						c3.7,0.7,6.6,1.2,13-1.6c1.2-0.5,1.2-0.6,0.8-2c-0.2-0.8-0.5-1.8-0.5-3.1c-0.1-5.4-3.1-8.9-5.7-11.3
						C509.7,226.4,506.6,225.2,502.1,225.2z M499.3,244c-1.8,0-3.8-0.5-6.5-1.8l-0.6-0.3l0-0.7c0.1-1.5,0.5-6.5,2.7-8.9
						c1.7-1.7,4.3-2.6,7.2-2.6c2.6,0,5.1,1,6.9,2.8c1.7,1.7,2.4,3.9,2.5,7.6l0,0.9l-0.8,0.2c-2.6,0.5-4.5,1.1-6.1,1.7
						C502.8,243.4,501.2,244,499.3,244z M494.3,240.6c4.4,2.1,6.4,1.4,9.7,0.2c1.5-0.5,3.2-1.1,5.5-1.6c-0.2-2.6-0.7-4.2-1.9-5.4
						c-1.4-1.4-3.4-2.2-5.5-2.2c-2.3,0-4.4,0.7-5.7,2C495.4,234.8,494.5,237.5,494.3,240.6z"/>
				</g>
			</g>
		</g>
		<g>
			<g>
				<g>
					<path class="st9" d="M537.2,247.5c0,3.3,0.3,5.8,2.2,7.5c1.7,1.7,4.6,2.4,7.4,2.4c3.3,0,6.4-2.1,9-4.7c3.7,1.1,5.3,1.6,6,5.4
						c-4.1,4.4-9.2,6.1-14.8,6.1c-2.1,0-4.5,1-6.5,0.4c-1-0.3-1.7-1.8-2.6-2.3c-1-0.5-2.2-0.7-3.1-1.5c-1.7-1.5-3.2-3.7-4.3-6.4
						c-1.2-2.6-1.6-6.1-1.6-10.3c0-4,1.2-7.1,2.2-9.8c1-2.7,1.9-4.9,3.5-6.5c1.6-1.6,3-3.6,5-4.3c2-0.7,4.2-1.2,6.1-1.2
						c4.6,0.1,8.4,2.5,11.6,5.5c3.3,3,5.3,7.1,5.4,12.5c0,3.4,2.5,4.8-0.6,6.2C550.6,251.6,549.7,245.9,537.2,247.5z M554.2,239.9
						c-0.1-3.2-0.3-5.6-1.9-7.2c-1.6-1.5-4.1-2.1-6.6-2.1c-2.4,0-4.1,1.4-5.7,3c-1.5,1.6-2.6,3.5-2.8,6.7
						C544.9,244,545.8,241.4,554.2,239.9z"/>
				</g>
				<g>
					<path d="M542,265.7c-0.6,0-1.2-0.1-1.8-0.3c-0.8-0.3-1.4-0.9-1.9-1.5c-0.3-0.4-0.6-0.7-0.9-0.9c-0.3-0.1-0.6-0.2-0.9-0.4
						c-0.7-0.3-1.6-0.6-2.3-1.2c-1.9-1.7-3.5-4-4.6-6.8c-1.1-2.5-1.6-5.9-1.6-10.6c0-4.2,1.3-7.5,2.3-10.1c1.1-2.9,2-5.2,3.7-6.8
						c0.4-0.4,0.7-0.8,1.1-1.2c1.2-1.3,2.5-2.7,4.3-3.3c1.6-0.6,4.1-1.3,6.4-1.3c4.2,0,8.2,1.9,12.3,5.8c3.7,3.5,5.6,7.9,5.7,13.2
						c0,1.1,0.3,1.9,0.6,2.7c0.5,1.4,1.1,3.2-1.7,4.4c-6.9,3-10.3,2.4-14.1,1.6c-2.6-0.5-5.5-1.1-10.2-0.6c0.1,2.7,0.5,4.6,1.9,5.9
						c1.4,1.4,3.8,2.1,6.7,2.1c2.6,0,5.4-1.5,8.3-4.4l0.4-0.4l0.6,0.2c3.9,1.1,5.9,1.8,6.7,6.2l0.1,0.5l-0.3,0.4
						c-4.1,4.4-9.2,6.5-15.5,6.4c-0.7,0-1.5,0.1-2.3,0.3C543.8,265.6,542.9,265.7,542,265.7z M545.7,223.4c-1.6,0-3.7,0.4-5.8,1.1
						c-1.3,0.5-2.4,1.6-3.5,2.8c-0.4,0.4-0.8,0.8-1.2,1.2c-1.4,1.4-2.2,3.4-3.2,6.1c-1,2.6-2.1,5.6-2.1,9.4c0,4.5,0.5,7.6,1.5,9.9
						c1,2.5,2.4,4.6,4,6.1c0.4,0.3,1,0.6,1.7,0.8c0.4,0.2,0.8,0.3,1.2,0.5c0.6,0.4,1.1,0.9,1.5,1.3c0.4,0.4,0.7,0.8,1,0.9
						c1,0.3,2.2,0.1,3.5-0.1c0.9-0.2,1.9-0.3,2.9-0.3c5.5,0,9.9-1.8,13.5-5.4c-0.6-2.6-1.6-3.1-4.6-4c-3.2,3.1-6.3,4.6-9.3,4.6
						c-3.5,0-6.4-0.9-8.1-2.7c-2.1-1.9-2.5-4.6-2.5-8.2v-0.9l0.9-0.1c5.5-0.7,8.8-0.1,11.7,0.5c3.7,0.7,6.6,1.3,13-1.5
						c1.1-0.5,1.1-0.5,0.6-2c-0.3-0.9-0.7-1.9-0.7-3.3c0-4.7-1.8-8.6-5.1-11.7C552.9,225.1,549.4,223.4,545.7,223.4z M543.9,243.2
						c-1.9,0-4-0.5-7.1-2.1l-0.6-0.3l0-0.7c0.1-3,1.1-5.3,3-7.3c1.6-1.6,3.6-3.3,6.4-3.3c1.8,0,5.1,0.3,7.3,2.4
						c1.9,1.9,2.1,4.6,2.2,7.9l0,0.9l-0.8,0.2c-2.3,0.4-4,0.9-5.5,1.3C547,242.7,545.6,243.2,543.9,243.2z M538.3,239.6
						c4.7,2.3,6.4,1.8,10,0.7c1.3-0.4,2.8-0.8,4.8-1.2c-0.1-2.6-0.4-4.5-1.6-5.7c-1.2-1.2-3.3-1.8-5.9-1.8c-2.1,0-3.6,1.3-5,2.7
						C539.7,235.3,538.6,236.8,538.3,239.6z"/>
				</g>
			</g>
		</g>
		<g>
			<g>
				<g>
					<path class="st7" d="M597.4,261.4c-2.7,3-5.7,3.9-10,4c-2.6-0.1-5-0.6-6.7-1.7c-1.8-1-3.1-2.4-4-3.6c-1.1-1.3-2.3-2.9-2.8-4.8
						c-0.5-1.9-0.1-5.6-0.1-11c0-5.4,0.6-9,1.1-10.9c0.5-1.9,0.5-3.8,1.6-5.1c1-1.3,2.3-2.7,4.1-3.7c1.7-1,4.2-0.4,6.8-0.5
						c4,0,7.4,0.5,10.3,3.7c2-0.7-1.6-2.7,0.3-3.7c3.6-1.9,8-4.4,8.8-0.4c4,19.4,0.1,19.9,0.1,39.7c-0.1,6.1-2.3,11-5.7,13.9
						c-3.4,2.9-8,4.9-12.7,4.9c-5.5-0.1-10.8-3.5-14.6-7.9c1-3.9,3.3-3.1,6.8-5c1,1,2.7,1.2,4,1.9c1.4,0.8,2.4,2.6,3.9,2.6
						c2.8,0,4.8-1.7,6.5-3.2c1.7-1.6,3-3.4,3.1-6.2C598.7,262.9,599.3,262.2,597.4,261.4z M582.8,244.4c0,3.1-0.7,5.2-0.5,6.4
						c0.2,1.2,0.6,2.1,1.2,2.9c0.5,0.7,1.1,1.6,2.2,2.2c1.1,0.7,2.4,0.6,4,0.6c1.6,0,3,0.3,4.1-0.4c1.1-0.6,2.2-1.1,2.7-1.8
						c0.7-0.8,0.5-2.2,0.7-3.4c0.2-1.2,0-3.3,0-6.4c0-3.2,1-5.4,0.9-6.7c-0.2-1.2-1.7-1.8-2.4-2.6c-0.5-0.7-0.9-1.9-2-2.6
						c-1.1-0.6-2.5,0.1-4.1,0c-1.6,0.1-2.5,0.3-3.6,0.9c-1.1,0.7-1.9,1.1-2.5,1.8c-0.7,0.8-0.6,1.5-0.8,2.7
						C582.8,239.2,582.8,241.2,582.8,244.4z"/>
				</g>
				<g>
					<path d="M588.4,283.5c-5.3-0.1-10.9-3.1-15.4-8.3l-0.3-0.4l0.1-0.5c0.8-3.2,2.5-3.8,4.5-4.5c0.8-0.3,1.8-0.6,2.8-1.2l0.6-0.4
						l0.5,0.5c0.5,0.5,1.3,0.8,2.2,1.1c0.5,0.2,1.1,0.4,1.6,0.7c0.7,0.4,1.2,0.9,1.7,1.4c0.6,0.6,1.2,1.2,1.8,1.2
						c2.3,0,4.2-1.5,5.8-3c1.9-1.8,2.7-3.4,2.7-5.5l0-0.3c0.1-0.3,0.2-0.6,0.3-0.8c0.1-0.3,0.3-0.7,0.2-0.9c0,0,0,0-0.1,0
						c-2.5,2.6-5.6,3.7-10.2,3.8c-2.9-0.1-5.4-0.7-7.3-1.9c-1.9-1.1-3.2-2.5-4.3-3.8c-1.1-1.4-2.4-3-3-5.2c-0.3-1.3-0.3-3.3-0.2-6.1
						c0-1.5,0.1-3.2,0.1-5.1c0-6,0.7-9.6,1.1-11.2c0.1-0.5,0.2-1,0.3-1.4c0.3-1.4,0.5-2.9,1.5-4c1.3-1.7,2.8-3,4.4-3.9
						c1.5-0.8,3.2-0.7,5.1-0.7c0.7,0,1.4,0.1,2.2,0.1c0,0,0,0,0,0c3.5,0,6.5,0.4,9.1,2.3c-0.1-0.3-0.1-0.6,0-0.9
						c0.1-0.5,0.5-0.9,1-1.2l0.3-0.2c2.9-1.5,5.9-3.1,8.1-2.1c1,0.4,1.6,1.3,1.8,2.6c2.5,12.2,1.9,17.1,1.1,23.8
						c-0.5,4.1-1,8.7-1.1,16.1c-0.1,6.2-2.3,11.5-6.1,14.7C597.9,281.6,593.1,283.5,588.4,283.5z M574.8,274.3
						c4.1,4.5,9,7.1,13.5,7.2c4.2,0,8.5-1.7,12.1-4.7c3.3-2.8,5.3-7.6,5.4-13.1c0-7.5,0.6-12.2,1.1-16.3c0.8-6.5,1.3-11.3-1.1-23.2
						c-0.2-1-0.6-1.2-0.7-1.2c-1.2-0.6-4.2,1-6.3,2.1l-0.3,0.2c0.1,0.2,0.2,0.4,0.3,0.5c0.3,0.6,0.8,1.3,0.5,2.1
						c-0.2,0.5-0.6,0.9-1.2,1.1l-0.6,0.2l-0.5-0.5c-2.6-2.8-5.5-3.4-9.6-3.4c-0.8,0-1.5,0-2.3-0.1c-1.6-0.1-3-0.1-4,0.4
						c-1.4,0.8-2.7,1.9-3.8,3.4c-0.6,0.8-0.9,1.9-1.1,3.2c-0.1,0.5-0.2,1-0.3,1.6c-0.4,1.5-1,4.9-1,10.7c0,1.9-0.1,3.7-0.1,5.2
						c-0.1,2.5-0.2,4.5,0.1,5.5c0.4,1.7,1.6,3.2,2.6,4.4c0.9,1.1,2.1,2.4,3.7,3.3c1.6,1,3.8,1.5,6.3,1.6c4.4-0.1,7-1.1,9.3-3.7
						l0.5-0.5l0.7,0.3c2.5,1,2,2.5,1.5,3.7c-0.1,0.2-0.1,0.4-0.2,0.6c-0.1,3.3-1.9,5.3-3.4,6.8c-1.9,1.7-4.1,3.5-7.2,3.5
						c-1.3,0-2.3-0.9-3.1-1.7c-0.5-0.4-0.9-0.8-1.3-1c-0.4-0.2-0.9-0.4-1.4-0.6c-0.8-0.3-1.6-0.6-2.3-1c-1,0.5-1.8,0.8-2.5,1
						C576.2,272.3,575.4,272.6,574.8,274.3z M591.9,257.5c-0.3,0-0.7,0-1,0c-0.3,0-0.7,0-1.1,0l-0.5,0c-1.4,0-2.8,0-3.9-0.8
						c-1.2-0.7-1.9-1.6-2.4-2.3l-0.1-0.2c-0.8-0.9-1.2-2-1.4-3.3c-0.1-0.7,0-1.5,0.1-2.6c0.1-1,0.3-2.3,0.3-3.9l0-1.1
						c0-2.6,0-4.3,0.2-5.5c0-0.2,0.1-0.5,0.1-0.7c0.1-0.9,0.2-1.7,0.9-2.6c0.5-0.7,1.2-1.1,2.1-1.6c0.2-0.1,0.4-0.2,0.6-0.4
						c1.3-0.7,2.4-1,4.1-1.1c0.6,0,1.1-0.1,1.6-0.1c1-0.1,2-0.3,3,0.2c1,0.7,1.5,1.5,1.9,2.2c0.1,0.3,0.3,0.5,0.4,0.7
						c0.1,0.1,0.4,0.3,0.6,0.5c0.7,0.6,1.7,1.3,1.9,2.5c0.1,0.8-0.1,1.6-0.3,2.6c-0.2,1.1-0.6,2.6-0.6,4.2c0,1.1,0,2.1,0,3
						c0,1.6,0.1,2.7-0.1,3.5c-0.1,0.4-0.1,0.8-0.1,1.2c-0.1,0.9-0.1,2-0.8,2.8c-0.5,0.7-1.4,1.2-2.4,1.7c-0.2,0.1-0.4,0.2-0.6,0.3
						C593.7,257.4,592.8,257.5,591.9,257.5z M589.8,255.4c0.4,0,0.8,0,1.1,0c1,0,1.8,0.1,2.4-0.3c0.3-0.2,0.5-0.3,0.7-0.4
						c0.7-0.4,1.5-0.8,1.8-1.2c0.3-0.3,0.3-1,0.4-1.7c0-0.4,0.1-0.9,0.2-1.3c0.1-0.6,0.1-1.7,0-3.2c0-0.9,0-1.9,0-3
						c0-1.9,0.3-3.4,0.6-4.7c0.2-0.8,0.3-1.5,0.3-1.9c-0.1-0.4-0.6-0.8-1.1-1.2c-0.3-0.3-0.7-0.5-1-0.8c-0.3-0.4-0.4-0.7-0.6-1
						c-0.3-0.6-0.6-1.1-1.1-1.5c-0.3-0.2-1-0.1-1.7,0c-0.6,0.1-1.2,0.2-1.9,0.1c-1.3,0-2.1,0.2-3,0.8c-0.2,0.1-0.4,0.2-0.6,0.4
						c-0.7,0.4-1.2,0.7-1.6,1.2c-0.4,0.4-0.4,0.7-0.5,1.5c0,0.2-0.1,0.5-0.1,0.8c-0.2,1-0.2,2.8-0.2,5.2l0,1.1c0,1.7-0.2,3-0.3,4.1
						c-0.1,0.9-0.2,1.6-0.1,2c0.2,1,0.4,1.7,1,2.4l0.2,0.2c0.5,0.7,1,1.3,1.8,1.7l0.1,0.1c0.7,0.5,1.6,0.5,2.8,0.4L589.8,255.4z"/>
				</g>
			</g>
		</g>
		<g>
			<g>
				<g>
					<path class="st10" d="M617.8,204.1c0.7-4,6.5-3.9,7.2,0.2c4,22.9,0.4,23.1,0.4,46.3c0,1.8,1.6,2.8,3.6,2.8c1.4,0,2.2-1.3,2.7,0
						c1.3,3.6,1,3.8-0.7,7.3c-0.8,1.6-1-0.7-2.8-0.7c-3,0-5.4,0.4-7.3-1.1c-2-1.5-2.2-4.2-2.2-7.7
						C615.1,227.7,613.7,227.3,617.8,204.1z"/>
				</g>
				<g>
					<path d="M630.4,262.2c-0.6,0-1-0.4-1.3-0.7c-0.4-0.4-0.6-0.6-1-0.6c-0.5,0-1,0-1.4,0c-2.4,0-4.7,0.1-6.5-1.4
						c-2.4-1.8-2.6-4.9-2.6-8.5c-0.5-3.4-1-6.4-1.4-9c-2.3-15.2-2.8-18.3,0.6-38.2l0,0c0.5-2.6,2.6-3.8,4.5-3.8c0,0,0,0,0,0
						c2.3,0,4.3,1.6,4.7,3.9c2.6,14.5,2,20.2,1.3,27.9c-0.4,4.7-0.9,10-0.9,18.6c0,1.6,1.8,1.8,2.6,1.8c0.3,0,0.7-0.1,1-0.3
						c0.5-0.2,1.1-0.5,1.7-0.2c0.6,0.3,0.9,0.9,1,1.1c1.3,3.6,1.1,4.3-0.3,7.3l-0.4,0.8c-0.1,0.3-0.5,1-1.2,1.1
						C630.6,262.2,630.5,262.2,630.4,262.2z M628.1,258.9c1,0,1.7,0.5,2.1,0.9l0.2-0.4c1.2-2.6,1.3-2.8,0.3-5.5c0,0,0,0-0.1,0
						c-0.4,0.2-1,0.4-1.8,0.4c-2.7,0-4.6-1.5-4.6-3.8c0-8.6,0.5-14,0.9-18.7c0.7-7.9,1.2-13.1-1.3-27.4c-0.3-1.6-1.6-2.3-2.7-2.3
						c0,0,0,0,0,0c-1,0-2.2,0.6-2.5,2.1c-3.4,19.6-2.9,22.7-0.6,37.6c0.4,2.6,0.9,5.6,1.4,9.1l0,0.1c0,3.7,0.3,5.8,1.8,6.9
						c1.3,1,3.1,1,5.3,1C627.1,259,627.6,258.9,628.1,258.9z M630.6,253.6L630.6,253.6L630.6,253.6z"/>
				</g>
			</g>
		</g>
		<g>
			<g>
				<g>
					<path class="st8" d="M649.6,245.7c1,3.1,2.6,4,4.9,5.1c2.2,1.1,4.1,1.3,6.8,0.5c3.2-1,5.8-1.8,7.5-5c3.9-0.1,5.2-1,7,2.4
						c-2.7,5.4-6.4,9.6-11.8,11.2c-2,0.6-4.3,0.7-6.4,0.7c-1.1,0-2.1-0.9-3.2-1.2c-1.1-0.2-2.2-0.2-3.3-0.7
						c-2.1-0.9-4.6-2.1-6.4-4.3c-1.9-2.1-2.5-5.7-3.7-9.7c-1.2-3.8-2.9-7.1-2.7-9.9c0.2-2.9,1.9-5.1,3-7.1c1.1-2,2-4,3.7-5.2
						c1.7-1.3,3.7-1.6,5.5-2.2c4.4-1.3,8.6-1.4,12.5,0.5c4,2,7.1,5.4,8.7,10.5c1,3.2,4.5,4.7,1.9,6.9
						C664.3,246.4,661.1,240.5,649.6,245.7z M663.4,233.1c-1-3-2.6-3.8-4.6-4.9c-1.9-1-3.6-1.2-5.9-0.4c-2.3,0.7-4.8,1.1-5.9,3
						c-1,2-0.5,4.9,0.3,8C655.8,240.1,655.8,237.1,663.4,233.1z"/>
				</g>
				<g>
					<path d="M657.8,261.4c0,0-0.1,0-0.1,0c-0.9,0-1.6-0.4-2.3-0.7c-0.4-0.2-0.8-0.4-1.1-0.5c-0.2,0-0.4-0.1-0.7-0.1
						c-0.9-0.1-1.8-0.2-2.8-0.6c-2.2-1-4.8-2.2-6.8-4.6c-1.6-1.8-2.3-4.4-3.2-7.5c-0.2-0.8-0.5-1.7-0.7-2.6
						c-0.3-1.1-0.7-2.2-1.1-3.3c-0.9-2.5-1.8-4.8-1.6-7c0.2-2.5,1.3-4.5,2.4-6.2c0.3-0.4,0.5-0.8,0.7-1.2l0.3-0.5c1-1.8,2-3.7,3.7-5
						c1.5-1.1,3.1-1.6,4.7-2c0.4-0.1,0.8-0.2,1.1-0.3c5.2-1.5,9.4-1.3,13.2,0.6c4.4,2.2,7.6,6,9.2,11.1c0.3,1,0.9,1.8,1.5,2.6
						c1,1.4,2.4,3.3,0.1,5.3c-5.6,4.9-9.2,5.1-13.3,5.3c-2.8,0.1-5.9,0.3-10.3,2.1c0.8,2,2.1,2.7,4.1,3.6c2,1,3.7,1.2,6.1,0.4
						c3.2-1,5.4-1.7,6.9-4.6l0.3-0.5l0.6,0c0.7,0,1.3-0.1,1.9-0.1c2.5-0.2,4.3-0.3,6,3.1l0.2,0.4l-0.2,0.5
						c-3,6.2-7.2,10.1-12.4,11.7C662.2,261.4,659.8,261.4,657.8,261.4z M656.7,220.2c-1.8,0-3.7,0.3-5.8,0.9
						c-0.4,0.1-0.8,0.2-1.2,0.3c-1.5,0.4-2.9,0.8-4.1,1.7c-1.4,1-2.2,2.6-3.2,4.4l-0.3,0.5c-0.2,0.4-0.5,0.9-0.8,1.3
						c-1,1.6-2,3.3-2.1,5.3c-0.1,1.8,0.6,3.8,1.5,6.2c0.4,1.1,0.8,2.2,1.2,3.4c0.3,0.9,0.5,1.8,0.8,2.6c0.8,2.8,1.5,5.3,2.8,6.8
						c1.7,2.1,4,3.2,6,4.1c0.7,0.3,1.4,0.4,2.2,0.5c0.3,0,0.5,0.1,0.8,0.1c0.7,0.2,1.2,0.4,1.6,0.7c0.5,0.3,1,0.5,1.4,0.5
						c1.9,0,4.2,0,6.1-0.6c4.5-1.3,8.2-4.8,11-10.2c-1-1.8-1.7-1.7-3.9-1.5c-0.4,0-0.9,0.1-1.4,0.1c-1.9,3.2-4.8,4.1-7.8,5
						c-3,0.9-5.2,0.8-7.6-0.5c-2.5-1.2-4.4-2.3-5.4-5.7l-0.3-0.8l0.8-0.4c5.2-2.3,8.7-2.5,11.9-2.6c3.9-0.2,7-0.3,12.1-4.8
						c0.8-0.7,0.8-1-0.4-2.6c-0.6-0.8-1.4-1.9-1.8-3.2c-1.4-4.6-4.3-8-8.2-9.9C660.8,220.6,658.8,220.2,656.7,220.2z M650.9,240.1
						c-1.1,0-2.3-0.1-3.7-0.3l-0.7-0.1l-0.2-0.6c-0.8-3.1-1.4-6.3-0.2-8.7c1.1-2,3.3-2.6,5.4-3.2c0.4-0.1,0.8-0.2,1.1-0.3
						c2.6-0.8,4.4-0.6,6.7,0.5c2,1.1,3.9,2.1,5,5.5l0.3,0.8l-0.8,0.4c-2.2,1.1-3.7,2.2-5,3.1C656.3,238.9,654.5,240.1,650.9,240.1z
						 M648.1,237.9c5,0.7,6.6-0.4,9.6-2.4c1.2-0.8,2.6-1.8,4.5-2.8c-0.9-2-2.1-2.6-3.8-3.6c-1.7-0.9-3.1-1-5.1-0.4
						c-0.4,0.1-0.8,0.2-1.2,0.3c-1.9,0.5-3.5,1-4.1,2.2C647.2,232.8,647.5,235.3,648.1,237.9z"/>
				</g>
			</g>
		</g>
	</g>
	<g>
		<path class="st11" d="M767.2,369.2h-464c-12.1,0-22-9.9-22-22v0c0-12.1,9.9-22,22-22h464c12.1,0,22,9.9,22,22v0
			C789.2,359.3,779.3,369.2,767.2,369.2z"/>
		<path d="M767.2,370.2h-464c-12.7,0-23-10.3-23-23c0-12.7,10.3-23,23-23h464c12.7,0,23,10.3,23,23
			C790.2,359.9,779.8,370.2,767.2,370.2z M303.1,326.2c-11.6,0-21,9.4-21,21c0,11.6,9.4,21,21,21h464c11.6,0,21-9.4,21-21
			c0-11.6-9.4-21-21-21H303.1z"/>
	</g>
	<g>
		<path d="M875.6,132.4h4.1c1,0,1.8,0.3,2.4,0.8c0.5,0.5,0.8,1.2,0.8,2.1c0,0.4-0.1,0.9-0.3,1.3c-0.1,0.2-0.3,0.4-0.5,0.5
			c-0.2,0.2-0.5,0.3-0.8,0.5v0c0.6,0.2,1,0.5,1.3,0.9c0.3,0.5,0.4,1,0.4,1.5c0,0.9-0.3,1.7-0.9,2.2c-0.6,0.6-1.3,0.8-2.1,0.8h-4.5
			V132.4z M877.2,133.9v3.1h2.3c0.6,0,1-0.2,1.3-0.5c0.3-0.3,0.4-0.6,0.4-1.1c0-0.4-0.1-0.8-0.4-1.1c-0.3-0.3-0.7-0.4-1.3-0.4H877.2
			z M877.2,138.4v3.2h2.5c0.6,0,1-0.2,1.3-0.5c0.3-0.3,0.4-0.7,0.4-1.1c0-0.4-0.1-0.8-0.4-1.1c-0.3-0.3-0.7-0.5-1.3-0.5H877.2z"/>
		<path d="M884.7,135.5h1.5v0.8h0c0.5-0.6,1.2-0.9,2-0.9c0.5,0,1,0.1,1.3,0.3c0.3,0.2,0.6,0.4,0.9,0.7c0.6-0.7,1.4-1,2.4-1
			c0.6,0,1.2,0.2,1.7,0.7c0.5,0.4,0.8,1.1,0.8,2v5.1h-1.5v-4.5c0-0.5-0.1-0.9-0.4-1.2c-0.3-0.3-0.6-0.4-1.1-0.4s-0.8,0.1-1.1,0.4
			c-0.3,0.3-0.4,0.7-0.4,1.2v4.5h-1.5v-4.5c0-0.5-0.1-0.9-0.4-1.2c-0.3-0.3-0.6-0.4-1.1-0.4s-0.8,0.1-1.1,0.4
			c-0.3,0.3-0.4,0.7-0.4,1.2v4.5h-1.5V135.5z"/>
		<path d="M901.4,142.4L901.4,142.4c-0.2,0.3-0.4,0.4-0.7,0.6c-0.3,0.1-0.7,0.2-1.2,0.2c-0.8,0-1.5-0.2-2-0.7
			c-0.5-0.4-0.7-1-0.7-1.6c0-0.6,0.2-1.2,0.6-1.6c0.4-0.4,1-0.6,1.8-0.7h2.1v-0.8c0-0.7-0.5-1-1.6-1c-0.4,0-0.7,0-0.9,0.1
			c-0.2,0.1-0.4,0.2-0.5,0.5l-1.2-0.9c0.6-0.8,1.4-1.1,2.6-1.1c1,0,1.7,0.2,2.3,0.5c0.6,0.4,0.9,1,0.9,2v5.2h-1.5V142.4z
			 M901.4,139.9h-1.8c-0.9,0-1.3,0.3-1.3,0.9c0,0.3,0.1,0.5,0.3,0.7c0.2,0.2,0.6,0.3,1.1,0.3c0.6,0,1.1-0.1,1.4-0.2
			c0.2-0.2,0.4-0.5,0.4-1.1V139.9z"/>
		<path d="M904.9,132.4h1.5v1.5h-1.5V132.4z M904.9,135.5h1.5v7.6h-1.5V135.5z"/>
		<path d="M908.5,132.4h1.5v8.7c0,0.3,0.2,0.5,0.6,0.5h0.5v1.4h-0.7c-0.6,0-1-0.1-1.4-0.4c-0.4-0.3-0.6-0.8-0.6-1.4V132.4z"/>
	</g>
	<g>
		<path d="M932.6,132.4h1.6v10.7h-1.6V132.4z"/>
		<path d="M936.4,135.5h1.5v0.8h0c0.5-0.6,1.2-0.9,2-0.9c0.5,0,1,0.1,1.3,0.3c0.3,0.2,0.6,0.4,0.9,0.7c0.6-0.7,1.4-1,2.4-1
			c0.6,0,1.2,0.2,1.7,0.7c0.5,0.4,0.8,1.1,0.8,2v5.1h-1.5v-4.5c0-0.5-0.1-0.9-0.4-1.2c-0.3-0.3-0.6-0.4-1.1-0.4s-0.8,0.1-1.1,0.4
			c-0.3,0.3-0.4,0.7-0.4,1.2v4.5H941v-4.5c0-0.5-0.1-0.9-0.4-1.2c-0.3-0.3-0.6-0.4-1.1-0.4s-0.8,0.1-1.1,0.4
			c-0.3,0.3-0.4,0.7-0.4,1.2v4.5h-1.5V135.5z"/>
		<path d="M953.1,142.4L953.1,142.4c-0.2,0.3-0.4,0.4-0.7,0.6c-0.3,0.1-0.7,0.2-1.2,0.2c-0.8,0-1.5-0.2-2-0.7
			c-0.5-0.4-0.7-1-0.7-1.6c0-0.6,0.2-1.2,0.6-1.6c0.4-0.4,1-0.6,1.8-0.7h2.1v-0.8c0-0.7-0.5-1-1.6-1c-0.4,0-0.7,0-0.9,0.1
			c-0.2,0.1-0.4,0.2-0.5,0.5l-1.2-0.9c0.6-0.8,1.4-1.1,2.6-1.1c1,0,1.7,0.2,2.3,0.5c0.6,0.4,0.9,1,0.9,2v5.2h-1.5V142.4z
			 M953.1,139.9h-1.8c-0.9,0-1.3,0.3-1.3,0.9c0,0.3,0.1,0.5,0.3,0.7c0.2,0.2,0.6,0.3,1.1,0.3c0.6,0,1.1-0.1,1.4-0.2
			c0.2-0.2,0.4-0.5,0.4-1.1V139.9z"/>
		<path d="M960.9,142.3c-0.5,0.6-1.2,0.9-2,0.9c-0.5,0-0.9-0.1-1.2-0.3c-0.3-0.2-0.6-0.4-0.8-0.6c-0.2-0.2-0.3-0.6-0.4-0.9
			c-0.1-0.4-0.1-1-0.1-2c0-1,0-1.7,0.1-2.1c0.1-0.4,0.2-0.7,0.4-0.9c0.2-0.2,0.4-0.5,0.8-0.6c0.3-0.2,0.7-0.3,1.2-0.3
			c0.8,0,1.4,0.3,2,0.9v-0.8h1.5v7.4c0,1.1-0.3,2-1,2.5c-0.6,0.6-1.4,0.8-2.3,0.8c-1,0-1.9-0.4-2.6-1.3l1.2-0.9
			c0.2,0.2,0.4,0.3,0.7,0.5c0.3,0.1,0.5,0.2,0.8,0.2c0.5,0,0.9-0.1,1.3-0.4c0.3-0.3,0.5-0.7,0.5-1.2V142.3z M957.9,139.3
			c0,0.6,0,1,0.1,1.2c0,0.2,0.1,0.4,0.2,0.6c0.1,0.1,0.3,0.3,0.5,0.4c0.2,0.1,0.4,0.2,0.7,0.2s0.5-0.1,0.7-0.2
			c0.2-0.1,0.4-0.2,0.5-0.4c0.1-0.2,0.2-0.3,0.3-0.6c0-0.2,0-0.6,0-1.2c0-0.6,0-1,0-1.2c0-0.2-0.1-0.4-0.3-0.6
			c-0.1-0.1-0.3-0.3-0.5-0.4c-0.2-0.1-0.4-0.2-0.7-0.2c-0.3,0-0.5,0.1-0.7,0.2c-0.2,0.1-0.4,0.3-0.5,0.4c-0.1,0.1-0.2,0.3-0.2,0.6
			C957.9,138.3,957.9,138.7,957.9,139.3z"/>
		<path d="M965.6,139.9c0,0.6,0.2,1.1,0.5,1.4c0.3,0.3,0.8,0.5,1.3,0.5c0.6,0,1.2-0.2,1.7-0.7l1.1,0.9c-0.8,0.8-1.7,1.2-2.7,1.2
			c-0.4,0-0.8-0.1-1.2-0.2c-0.2-0.1-0.4-0.1-0.6-0.3c-0.2-0.1-0.4-0.2-0.5-0.3c-0.3-0.3-0.6-0.7-0.8-1.2c-0.2-0.5-0.3-1.1-0.3-1.9
			c0-0.8,0.1-1.4,0.3-1.9c0.2-0.5,0.4-0.9,0.7-1.2c0.3-0.3,0.6-0.5,1-0.6c0.4-0.1,0.7-0.2,1.1-0.2c0.9,0,1.6,0.3,2.2,0.9
			c0.6,0.6,0.9,1.4,0.9,2.4v1.3H965.6z M968.8,138.6c0-0.6-0.2-1-0.5-1.3c-0.3-0.3-0.7-0.4-1.1-0.4s-0.8,0.1-1.1,0.4
			c-0.3,0.3-0.4,0.7-0.5,1.3H968.8z"/>
	</g>
	<g>
		<g>
			<rect x="993.7" y="132.7" width="4.2" height="4.2"/>
		</g>
		<g>
			<rect x="999.6" y="132.7" width="4.2" height="4.2"/>
		</g>
		<g>
			<rect x="1005.4" y="132.7" width="4.2" height="4.2"/>
		</g>
		<g>
			<rect x="993.7" y="138.8" width="4.2" height="4.2"/>
		</g>
		<g>
			<rect x="999.6" y="138.8" width="4.2" height="4.2"/>
		</g>
		<g>
			<rect x="1005.4" y="138.8" width="4.2" height="4.2"/>
		</g>
		<g>
			<rect x="993.7" y="144.9" width="4.2" height="4.2"/>
		</g>
		<g>
			<rect x="999.6" y="144.9" width="4.2" height="4.2"/>
		</g>
		<g>
			<rect x="1005.4" y="144.9" width="4.2" height="4.2"/>
		</g>
	</g>
	<g>
		<path class="st12" d="M1045.3,151.2l-0.2-3.5c-0.1-0.9,0.8-1.7,1.9-1.8l4.6-0.3c1.1-0.1,2.1,0.6,2.1,1.6l0.2,3.3
			c7.4,0.3,13,3.2,13.4,7.1c3.1-3.8,4.9-8.7,4.9-14c0-12.4-10.1-22.5-22.5-22.5c-12.4,0-22.5,10.1-22.5,22.5
			c0,6.7,2.9,12.8,7.6,16.9c-0.1-0.2-0.1-0.5-0.1-0.7C1034.4,156.1,1038.9,152.7,1045.3,151.2z"/>
		<path d="M1036.4,163.3l-2.4-2.1c-5.1-4.5-8-10.9-8-17.6c0-13,10.6-23.5,23.5-23.5s23.5,10.6,23.5,23.5c0,5.4-1.8,10.4-5.1,14.6
			l-1.6,2l-0.2-2.5c-0.3-3.2-5.6-5.9-12.4-6.2l-0.9,0l-0.3-4.2c0-0.2-0.2-0.3-0.3-0.4c-0.2-0.2-0.5-0.2-0.8-0.2l-4.6,0.3
			c-0.6,0-1,0.4-1,0.8l0.3,4.4l-0.8,0.2c-6,1.4-10.1,4.5-9.9,7.5c0,0.2,0,0.4,0.1,0.5L1036.4,163.3z M1049.6,122.1
			c-11.9,0-21.5,9.7-21.5,21.5c0,5.4,2,10.6,5.7,14.6c0.9-3.3,4.8-6.2,10.4-7.7l-0.2-2.7c-0.1-1.5,1.2-2.8,2.9-2.9l4.6-0.3
			c0.8-0.1,1.5,0.2,2.1,0.6c0.6,0.5,1,1.2,1.1,1.9l0.2,2.4c6.3,0.5,11.1,2.7,12.8,5.9c2.3-3.5,3.5-7.5,3.5-11.8
			C1071.2,131.7,1061.5,122.1,1049.6,122.1z"/>
	</g>
	<g>
		<path class="st13" d="M1067.3,157.6c-0.3-3.9-6-6.8-13.4-7.1l-0.2-3.3c-0.1-0.9-1-1.6-2.1-1.6l-4.6,0.3c-1.1,0.1-2,0.9-1.9,1.8
			l0.2,3.5c-6.4,1.5-10.9,4.9-10.7,8.5c0,0.2,0.1,0.5,0.1,0.7c4,3.5,9.2,5.6,14.9,5.6C1056.8,166.1,1063.1,162.8,1067.3,157.6z"/>
		<path d="M1049.6,167.1c-5.7,0-11.3-2.1-15.6-5.9l-0.2-0.2l-0.1-0.3c-0.1-0.3-0.1-0.6-0.1-0.9c-0.3-3.9,4-7.6,10.6-9.4l-0.2-2.7
			c-0.1-1.5,1.2-2.8,2.9-2.9l4.6-0.3c0.8-0.1,1.5,0.2,2.1,0.6c0.6,0.5,1,1.2,1.1,1.9l0.2,2.4c7.6,0.6,13.1,3.8,13.4,8l0,0.4
			l-0.2,0.3C1063.6,163.9,1056.8,167.1,1049.6,167.1z M1035.6,160c3.9,3.3,8.8,5.2,14,5.2c6.5,0,12.5-2.8,16.6-7.8
			c-0.6-3.1-5.8-5.6-12.4-5.9l-0.9,0l-0.3-4.2c0-0.2-0.2-0.3-0.3-0.4c-0.2-0.2-0.5-0.2-0.8-0.2l-4.6,0.3c-0.6,0-1,0.4-1,0.8l0.3,4.4
			l-0.8,0.2c-6,1.4-10.1,4.5-9.9,7.5C1035.6,159.8,1035.6,159.9,1035.6,160z"/>
	</g>
	<g>
		<circle class="st13" cx="1047.5" cy="137.1" r="12.1"/>
		<path d="M1047.5,150.2c-7.2,0-13.1-5.9-13.1-13.1c0-7.2,5.9-13.1,13.1-13.1s13.1,5.9,13.1,13.1
			C1060.5,144.3,1054.7,150.2,1047.5,150.2z M1047.5,126c-6.1,0-11.1,5-11.1,11.1s5,11.1,11.1,11.1s11.1-5,11.1-11.1
			S1053.6,126,1047.5,126z"/>
	</g>
	<g>
		<g>
			<path class="st7" d="M751.5,349.8L751.5,349.8c-2,0-3.6-1.6-3.6-3.6v-8.3c0-2,1.6-3.6,3.6-3.6l0,0c2,0,3.6,1.6,3.6,3.6v8.3
				C755.1,348.2,753.5,349.8,751.5,349.8z"/>
			<path d="M751.5,350.3c-2.3,0-4.1-1.8-4.1-4.1v-8.3c0-2.3,1.8-4.1,4.1-4.1s4.1,1.8,4.1,4.1v8.3
				C755.6,348.4,753.8,350.3,751.5,350.3z M751.5,334.8c-1.7,0-3.1,1.4-3.1,3.1v8.3c0,1.7,1.4,3.1,3.1,3.1s3.1-1.4,3.1-3.1v-8.3
				C754.6,336.2,753.2,334.8,751.5,334.8z"/>
		</g>
		<g>
			<rect x="750.1" y="352.8" class="st10" width="2.9" height="7.2"/>
			<path d="M753,360.5h-2.9c-0.3,0-0.5-0.2-0.5-0.5v-7.2c0-0.3,0.2-0.5,0.5-0.5h2.9c0.3,0,0.5,0.2,0.5,0.5v7.2
				C753.5,360.3,753.2,360.5,753,360.5z M750.6,359.5h1.9v-6.2h-1.9V359.5z"/>
		</g>
		<g>
			<g>
				<defs>
					<path id="SVGID_1_" d="M759.8,346.3c-1.1,3.6-4.4,6.1-8.3,6.1c-3.9,0-7.2-2.6-8.3-6.1H741c1.1,4.8,5.4,8.3,10.5,8.3
						c5.1,0,9.4-3.5,10.5-8.3H759.8z"/>
				</defs>
				<clipPath id="SVGID_2_">
					<use xlink:href="#SVGID_1_"  style="overflow:visible;"/>
				</clipPath>
				<path class="st14" d="M741,346.3v8.3V346.3z"/>
				<rect x="741" y="346.3" class="st14" width="0.2" height="8.3"/>
				<rect x="741.2" y="346.3" class="st15" width="0.2" height="8.3"/>
				<rect x="741.4" y="346.3" class="st16" width="0.2" height="8.3"/>
				<rect x="741.6" y="346.3" class="st17" width="0.2" height="8.3"/>
				<rect x="741.7" y="346.3" class="st18" width="0.2" height="8.3"/>
				<rect x="741.9" y="346.3" class="st19" width="0.2" height="8.3"/>
				<rect x="742.1" y="346.3" class="st20" width="0.2" height="8.3"/>
				<rect x="742.3" y="346.3" class="st21" width="0.2" height="8.3"/>
				<rect x="742.5" y="346.3" class="st22" width="0.2" height="8.3"/>
				<rect x="742.7" y="346.3" class="st23" width="0.2" height="8.3"/>
				<rect x="742.9" y="346.3" class="st24" width="0.2" height="8.3"/>
				<rect x="743" y="346.3" class="st25" width="0.2" height="8.3"/>
				<rect x="743.2" y="346.3" class="st26" width="0.2" height="8.3"/>
				<rect x="743.4" y="346.3" class="st27" width="0.2" height="8.3"/>
				<rect x="743.6" y="346.3" class="st28" width="0.2" height="8.3"/>
				<rect x="743.8" y="346.3" class="st29" width="0.2" height="8.3"/>
				<rect x="744" y="346.3" class="st30" width="0.2" height="8.3"/>
				<rect x="744.2" y="346.3" class="st31" width="0.2" height="8.3"/>
				<rect x="744.3" y="346.3" class="st32" width="0.2" height="8.3"/>
				<rect x="744.5" y="346.3" class="st33" width="0.2" height="8.3"/>
				<rect x="744.7" y="346.3" class="st34" width="0.2" height="8.3"/>
				<rect x="744.9" y="346.3" class="st35" width="0.2" height="8.3"/>
				<rect x="745.1" y="346.3" class="st36" width="0.2" height="8.3"/>
				<rect x="745.3" y="346.3" class="st37" width="0.2" height="8.3"/>
				<rect x="745.5" y="346.3" class="st38" width="0.2" height="8.3"/>
				<rect x="745.7" y="346.3" class="st39" width="0.2" height="8.3"/>
				<rect x="745.8" y="346.3" class="st40" width="0.2" height="8.3"/>
				<rect x="746" y="346.3" class="st41" width="0.2" height="8.3"/>
				<rect x="746.2" y="346.3" class="st42" width="0.2" height="8.3"/>
				<rect x="746.4" y="346.3" class="st43" width="0.2" height="8.3"/>
				<rect x="746.6" y="346.3" class="st44" width="0.2" height="8.3"/>
				<rect x="746.8" y="346.3" class="st45" width="0.2" height="8.3"/>
				<rect x="747" y="346.3" class="st46" width="0.2" height="8.3"/>
				<rect x="747.1" y="346.3" class="st47" width="0.2" height="8.3"/>
				<rect x="747.3" y="346.3" class="st48" width="0.2" height="8.3"/>
				<rect x="747.5" y="346.3" class="st49" width="0.2" height="8.3"/>
				<rect x="747.7" y="346.3" class="st50" width="0.2" height="8.3"/>
				<rect x="747.9" y="346.3" class="st51" width="0.2" height="8.3"/>
				<rect x="748.1" y="346.3" class="st52" width="0.2" height="8.3"/>
				<rect x="748.3" y="346.3" class="st53" width="0.2" height="8.3"/>
				<rect x="748.4" y="346.3" class="st54" width="0.2" height="8.3"/>
				<rect x="748.6" y="346.3" class="st55" width="0.2" height="8.3"/>
				<rect x="748.8" y="346.3" class="st56" width="0.2" height="8.3"/>
				<rect x="749" y="346.3" class="st57" width="0.2" height="8.3"/>
				<rect x="749.2" y="346.3" class="st58" width="0.2" height="8.3"/>
				<rect x="749.4" y="346.3" class="st59" width="0.2" height="8.3"/>
				<rect x="749.6" y="346.3" class="st60" width="0.2" height="8.3"/>
				<rect x="749.8" y="346.3" class="st61" width="0.2" height="8.3"/>
				<rect x="749.9" y="346.3" class="st62" width="0.2" height="8.3"/>
				<rect x="750.1" y="346.3" class="st63" width="0.2" height="8.3"/>
				<rect x="750.3" y="346.3" class="st64" width="0.2" height="8.3"/>
				<rect x="750.5" y="346.3" class="st65" width="0.2" height="8.3"/>
				<rect x="750.7" y="346.3" class="st65" width="0.2" height="8.3"/>
				<rect x="750.9" y="346.3" class="st66" width="0.2" height="8.3"/>
				<rect x="751.1" y="346.3" class="st67" width="0.2" height="8.3"/>
				<rect x="751.2" y="346.3" class="st68" width="0.2" height="8.3"/>
				<rect x="751.4" y="346.3" class="st69" width="0.2" height="8.3"/>
				<rect x="751.6" y="346.3" class="st70" width="0.2" height="8.3"/>
				<rect x="751.8" y="346.3" class="st71" width="0.2" height="8.3"/>
				<rect x="752" y="346.3" class="st71" width="0.2" height="8.3"/>
				<rect x="752.2" y="346.3" class="st72" width="0.2" height="8.3"/>
				<rect x="752.4" y="346.3" class="st73" width="0.2" height="8.3"/>
				<rect x="752.5" y="346.3" class="st74" width="0.2" height="8.3"/>
				<rect x="752.7" y="346.3" class="st75" width="0.2" height="8.3"/>
				<rect x="752.9" y="346.3" class="st76" width="0.2" height="8.3"/>
				<rect x="753.1" y="346.3" class="st76" width="0.2" height="8.3"/>
				<rect x="753.3" y="346.3" class="st77" width="0.2" height="8.3"/>
				<rect x="753.5" y="346.3" class="st78" width="0.2" height="8.3"/>
				<rect x="753.7" y="346.3" class="st78" width="0.2" height="8.3"/>
				<rect x="753.8" y="346.3" class="st79" width="0.2" height="8.3"/>
				<rect x="754" y="346.3" class="st79" width="0.2" height="8.3"/>
				<rect x="754.2" y="346.3" class="st80" width="0.2" height="8.3"/>
				<rect x="754.4" y="346.3" class="st80" width="0.2" height="8.3"/>
				<rect x="754.6" y="346.3" class="st81" width="0.2" height="8.3"/>
				<rect x="754.8" y="346.3" class="st81" width="0.2" height="8.3"/>
				<rect x="755" y="346.3" class="st82" width="0.2" height="8.3"/>
				<rect x="755.2" y="346.3" class="st82" width="0.2" height="8.3"/>
				<rect x="755.3" y="346.3" class="st82" width="0.2" height="8.3"/>
				<rect x="755.5" y="346.3" class="st83" width="0.2" height="8.3"/>
				<rect x="755.7" y="346.3" class="st84" width="0.2" height="8.3"/>
				<rect x="755.9" y="346.3" class="st84" width="0.2" height="8.3"/>
				<rect x="756.1" y="346.3" class="st85" width="0.2" height="8.3"/>
				<rect x="756.3" y="346.3" class="st85" width="0.2" height="8.3"/>
				<rect x="756.5" y="346.3" class="st85" width="0.2" height="8.3"/>
				<rect x="756.6" y="346.3" class="st85" width="0.2" height="8.3"/>
				<rect x="756.8" y="346.3" class="st86" width="0.2" height="8.3"/>
				<rect x="757" y="346.3" class="st86" width="0.2" height="8.3"/>
				<rect x="757.2" y="346.3" class="st86" width="0.2" height="8.3"/>
				<rect x="757.4" y="346.3" class="st86" width="0.2" height="8.3"/>
				<rect x="757.6" y="346.3" class="st87" width="0.2" height="8.3"/>
				<rect x="757.8" y="346.3" class="st87" width="0.2" height="8.3"/>
				<rect x="757.9" y="346.3" class="st87" width="0.2" height="8.3"/>
				<rect x="758.1" y="346.3" class="st87" width="0.2" height="8.3"/>
				<rect x="758.3" y="346.3" class="st87" width="0.2" height="8.3"/>
				<rect x="758.5" y="346.3" class="st87" width="0.2" height="8.3"/>
				<rect x="758.7" y="346.3" class="st87" width="0.2" height="8.3"/>
				<rect x="758.9" y="346.3" class="st87" width="0.2" height="8.3"/>
				<rect x="759.1" y="346.3" class="st88" width="0.2" height="8.3"/>
				<rect x="759.3" y="346.3" class="st88" width="0.2" height="8.3"/>
				<rect x="759.4" y="346.3" class="st88" width="0.2" height="8.3"/>
				<rect x="759.6" y="346.3" class="st88" width="0.2" height="8.3"/>
				<rect x="759.8" y="346.3" class="st88" width="0.2" height="8.3"/>
				<rect x="760" y="346.3" class="st88" width="0.2" height="8.3"/>
				<rect x="760.2" y="346.3" class="st88" width="0.2" height="8.3"/>
				<rect x="760.4" y="346.3" class="st88" width="0.2" height="8.3"/>
				<rect x="760.6" y="346.3" class="st88" width="0.2" height="8.3"/>
				<rect x="760.7" y="346.3" class="st88" width="0.2" height="8.3"/>
				<rect x="760.9" y="346.3" class="st88" width="0.2" height="8.3"/>
				<rect x="761.1" y="346.3" class="st88" width="0.2" height="8.3"/>
				<rect x="761.3" y="346.3" class="st88" width="0.2" height="8.3"/>
				<rect x="761.5" y="346.3" class="st88" width="0.2" height="8.3"/>
				<rect x="761.7" y="346.3" class="st88" width="0.2" height="8.3"/>
				<rect x="761.9" y="346.3" class="st88" width="0.2" height="8.3"/>
				<path class="st88" d="M762,354.6v-8.3V354.6z"/>
			</g>
			<path d="M751.5,355.1c-5.3,0-9.8-3.6-11-8.7c0-0.1,0-0.3,0.1-0.4s0.2-0.2,0.4-0.2h2.2c0.2,0,0.4,0.1,0.5,0.4
				c1.1,3.5,4.2,5.8,7.8,5.8s6.8-2.3,7.8-5.8c0.1-0.2,0.3-0.4,0.5-0.4h2.2c0.2,0,0.3,0.1,0.4,0.2s0.1,0.3,0.1,0.4
				C761.3,351.5,756.8,355.1,751.5,355.1z M741.6,346.8c1.3,4.3,5.3,7.3,9.9,7.3s8.6-3,9.9-7.3h-1.2c-1.3,3.7-4.7,6.1-8.7,6.1
				s-7.4-2.5-8.7-6.1H741.6z"/>
		</g>
	</g>
	<g>
		<g>
			<circle class="st89" cx="381.5" cy="437.6" r="29.7"/>
			<path d="M381.5,468.3c-16.9,0-30.7-13.8-30.7-30.7s13.8-30.7,30.7-30.7s30.7,13.8,30.7,30.7S398.4,468.3,381.5,468.3z
				 M381.5,408.9c-15.8,0-28.7,12.9-28.7,28.7s12.9,28.7,28.7,28.7s28.7-12.9,28.7-28.7S397.3,408.9,381.5,408.9z"/>
		</g>
		<g>
			<path d="M355.4,474.2h4.1c1,0,1.8,0.3,2.4,0.8c0.5,0.5,0.8,1.2,0.8,2.1c0,0.4-0.1,0.9-0.3,1.3c-0.1,0.2-0.3,0.4-0.5,0.5
				c-0.2,0.2-0.5,0.3-0.8,0.5v0c0.6,0.2,1,0.5,1.3,0.9c0.3,0.5,0.4,1,0.4,1.5c0,0.9-0.3,1.7-0.9,2.2c-0.6,0.6-1.3,0.8-2.1,0.8h-4.5
				V474.2z M357,475.6v3.1h2.3c0.6,0,1-0.2,1.3-0.5c0.3-0.3,0.4-0.6,0.4-1.1c0-0.4-0.1-0.8-0.4-1.1c-0.3-0.3-0.7-0.4-1.3-0.4H357z
				 M357,480.1v3.2h2.5c0.6,0,1-0.2,1.3-0.5c0.3-0.3,0.4-0.7,0.4-1.1c0-0.4-0.1-0.8-0.4-1.1c-0.3-0.3-0.7-0.5-1.3-0.5H357z"/>
			<path d="M365.6,481.6c0,0.6,0.2,1.1,0.5,1.4c0.3,0.3,0.8,0.5,1.3,0.5c0.6,0,1.2-0.2,1.7-0.7l1.1,0.9c-0.8,0.8-1.7,1.2-2.7,1.2
				c-0.4,0-0.8-0.1-1.2-0.2c-0.2-0.1-0.4-0.1-0.6-0.3c-0.2-0.1-0.4-0.2-0.5-0.3c-0.3-0.3-0.6-0.7-0.8-1.2c-0.2-0.5-0.3-1.1-0.3-1.9
				c0-0.8,0.1-1.4,0.3-1.9c0.2-0.5,0.4-0.9,0.7-1.2c0.3-0.3,0.6-0.5,1-0.6c0.4-0.1,0.7-0.2,1.1-0.2c0.9,0,1.6,0.3,2.2,0.9
				c0.6,0.6,0.9,1.4,0.9,2.4v1.3H365.6z M368.8,480.4c0-0.6-0.2-1-0.5-1.3c-0.3-0.3-0.7-0.4-1.1-0.4s-0.8,0.1-1.1,0.4
				c-0.3,0.3-0.4,0.7-0.5,1.3H368.8z"/>
			<path d="M371.9,474.2h1.5v3.9h0c0.5-0.6,1.2-0.9,2-0.9c0.6,0,1.2,0.2,1.7,0.7c0.5,0.4,0.8,1.1,0.8,2v5.1h-1.5v-4.5
				c0-0.5-0.1-0.9-0.4-1.2c-0.3-0.3-0.6-0.4-1.1-0.4s-0.8,0.1-1.1,0.4c-0.3,0.3-0.4,0.7-0.4,1.2v4.5h-1.5V474.2z"/>
			<path d="M384,484.2L384,484.2c-0.2,0.3-0.4,0.4-0.7,0.6c-0.3,0.1-0.7,0.2-1.2,0.2c-0.8,0-1.5-0.2-2-0.7c-0.5-0.4-0.7-1-0.7-1.6
				c0-0.6,0.2-1.2,0.6-1.6c0.4-0.4,1-0.6,1.8-0.7h2.1v-0.8c0-0.7-0.5-1-1.6-1c-0.4,0-0.7,0-0.9,0.1c-0.2,0.1-0.4,0.2-0.5,0.5
				l-1.2-0.9c0.6-0.8,1.4-1.1,2.6-1.1c1,0,1.7,0.2,2.3,0.5c0.6,0.4,0.9,1,0.9,2v5.2H384V484.2z M384,481.6h-1.8
				c-0.9,0-1.3,0.3-1.3,0.9c0,0.3,0.1,0.5,0.3,0.7c0.2,0.2,0.6,0.3,1.1,0.3c0.6,0,1.1-0.1,1.4-0.2c0.2-0.2,0.4-0.5,0.4-1.1V481.6z"
				/>
			<path d="M387.5,477.2h1.5v0.8h0c0.5-0.6,1.2-0.9,2-0.9c0.6,0,1.2,0.2,1.7,0.7c0.5,0.4,0.8,1.1,0.8,2v5.1H392v-4.5
				c0-0.5-0.1-0.9-0.4-1.2c-0.3-0.3-0.6-0.4-1.1-0.4s-0.8,0.1-1.1,0.4c-0.3,0.3-0.4,0.7-0.4,1.2v4.5h-1.5V477.2z"/>
			<path d="M401.1,483.6c-0.3,0.4-0.7,0.7-1.2,0.9c-0.4,0.2-1,0.4-1.6,0.4c-0.9,0-1.7-0.3-2.4-0.9c-0.7-0.6-1.1-1.6-1.1-3
				c0-1.4,0.4-2.4,1.1-3c0.7-0.6,1.5-0.9,2.4-0.9c0.6,0,1.1,0.1,1.6,0.4c0.4,0.2,0.8,0.6,1.2,1l-1.1,1c-0.4-0.5-0.9-0.8-1.5-0.8
				c-1.3,0-2,0.8-2,2.4c0,1.6,0.7,2.4,2,2.4c0.6,0,1.2-0.3,1.5-0.8L401.1,483.6z"/>
			<path d="M403.4,481.6c0,0.6,0.2,1.1,0.5,1.4c0.3,0.3,0.8,0.5,1.3,0.5c0.6,0,1.2-0.2,1.7-0.7l1.1,0.9c-0.8,0.8-1.7,1.2-2.7,1.2
				c-0.4,0-0.8-0.1-1.2-0.2c-0.2-0.1-0.4-0.1-0.6-0.3c-0.2-0.1-0.4-0.2-0.5-0.3c-0.3-0.3-0.6-0.7-0.8-1.2c-0.2-0.5-0.3-1.1-0.3-1.9
				c0-0.8,0.1-1.4,0.3-1.9c0.2-0.5,0.4-0.9,0.7-1.2c0.3-0.3,0.6-0.5,1-0.6c0.4-0.1,0.7-0.2,1.1-0.2c0.9,0,1.6,0.3,2.2,0.9
				c0.6,0.6,0.9,1.4,0.9,2.4v1.3H403.4z M406.6,480.4c0-0.6-0.2-1-0.5-1.3c-0.3-0.3-0.7-0.4-1.1-0.4s-0.8,0.1-1.1,0.4
				c-0.3,0.3-0.4,0.7-0.5,1.3H406.6z"/>
		</g>
	</g>
	<g>
		<g>
			<circle class="st89" cx="535" cy="437.6" r="29.7"/>
			<path d="M535,468.3c-16.9,0-30.7-13.8-30.7-30.7s13.8-30.7,30.7-30.7s30.7,13.8,30.7,30.7S551.9,468.3,535,468.3z M535,408.9
				c-15.8,0-28.7,12.9-28.7,28.7s12.9,28.7,28.7,28.7s28.7-12.9,28.7-28.7S550.8,408.9,535,408.9z"/>
		</g>
		<g>
			<path d="M513.2,474.2h3.7c1.4,0,2.5,0.6,3.3,1.8c0.3,0.4,0.4,0.8,0.5,1.3c0.1,0.4,0.1,1.2,0.1,2.3c0,1.1,0,1.9-0.1,2.4
				c0,0.2-0.1,0.4-0.2,0.6c-0.1,0.2-0.2,0.4-0.3,0.5c-0.3,0.5-0.7,0.9-1.3,1.2c-0.6,0.4-1.2,0.5-2,0.5h-3.6V474.2z M514.8,483.3h1.9
				c0.9,0,1.6-0.3,2-0.9c0.2-0.2,0.3-0.5,0.3-0.9c0-0.3,0.1-1,0.1-1.9c0-0.9,0-1.6-0.1-2c-0.1-0.4-0.2-0.7-0.4-1
				c-0.4-0.6-1.1-0.9-1.9-0.9h-1.9V483.3z"/>
			<path d="M522.5,477.2h1.5v0.8h0c0.5-0.6,1.2-0.9,2-0.9c0.6,0,1.1,0.2,1.6,0.6l-1.1,1.3c-0.3-0.3-0.7-0.4-1-0.4
				c-0.4,0-0.7,0.1-1,0.4c-0.3,0.2-0.5,0.7-0.5,1.2v4.6h-1.5V477.2z"/>
			<path d="M528.4,474.2h1.5v1.5h-1.5V474.2z M528.4,477.2h1.5v7.6h-1.5V477.2z"/>
			<path d="M532,474.2h1.5v3.9c0.3-0.3,0.6-0.5,0.9-0.7c0.3-0.2,0.7-0.2,1-0.2c0.9,0,1.6,0.4,2,1c0.2,0.2,0.4,0.6,0.4,0.9
				c0.1,0.4,0.1,1,0.1,1.9c0,0.9,0,1.5-0.1,1.9c-0.1,0.4-0.2,0.7-0.4,1c-0.2,0.3-0.5,0.5-0.8,0.7c-0.3,0.2-0.7,0.3-1.2,0.3
				c-0.8,0-1.5-0.3-2-0.9v0.8H532V474.2z M535,478.7c-0.3,0-0.6,0.1-0.8,0.2c-0.2,0.1-0.4,0.3-0.5,0.6c-0.1,0.2-0.2,0.5-0.2,0.7
				s0,0.5,0,0.8c0,0.3,0,0.5,0,0.8c0,0.3,0.1,0.5,0.2,0.8c0.1,0.2,0.3,0.4,0.5,0.6c0.2,0.1,0.5,0.2,0.8,0.2c0.4,0,0.6-0.1,0.9-0.2
				c0.2-0.1,0.4-0.3,0.4-0.5c0.1-0.2,0.2-0.5,0.2-0.8c0-0.3,0-0.6,0-0.8c0-0.3,0-0.6,0-0.9c0-0.3-0.1-0.5-0.2-0.7
				c-0.1-0.2-0.2-0.4-0.4-0.5C535.6,478.7,535.3,478.7,535,478.7z"/>
			<path d="M539.7,474.2h1.5v3.9c0.3-0.3,0.6-0.5,0.9-0.7c0.3-0.2,0.7-0.2,1-0.2c0.9,0,1.6,0.4,2,1c0.2,0.2,0.4,0.6,0.4,0.9
				c0.1,0.4,0.1,1,0.1,1.9c0,0.9,0,1.5-0.1,1.9c-0.1,0.4-0.2,0.7-0.4,1c-0.2,0.3-0.5,0.5-0.8,0.7c-0.3,0.2-0.7,0.3-1.2,0.3
				c-0.8,0-1.5-0.3-2-0.9v0.8h-1.5V474.2z M542.8,478.7c-0.3,0-0.6,0.1-0.8,0.2c-0.2,0.1-0.4,0.3-0.5,0.6c-0.1,0.2-0.2,0.5-0.2,0.7
				s0,0.5,0,0.8c0,0.3,0,0.5,0,0.8c0,0.3,0.1,0.5,0.2,0.8c0.1,0.2,0.3,0.4,0.5,0.6c0.2,0.1,0.5,0.2,0.8,0.2c0.4,0,0.6-0.1,0.9-0.2
				c0.2-0.1,0.4-0.3,0.4-0.5c0.1-0.2,0.2-0.5,0.2-0.8c0-0.3,0-0.6,0-0.8c0-0.3,0-0.6,0-0.9c0-0.3-0.1-0.5-0.2-0.7
				c-0.1-0.2-0.2-0.4-0.4-0.5C543.4,478.7,543.1,478.7,542.8,478.7z"/>
			<path d="M547.5,474.2h1.5v8.7c0,0.3,0.2,0.5,0.6,0.5h0.5v1.4h-0.7c-0.6,0-1-0.1-1.4-0.4c-0.4-0.3-0.6-0.8-0.6-1.4V474.2z"/>
			<path d="M552.5,481.6c0,0.6,0.2,1.1,0.5,1.4c0.3,0.3,0.8,0.5,1.3,0.5c0.6,0,1.2-0.2,1.7-0.7l1.1,0.9c-0.8,0.8-1.7,1.2-2.7,1.2
				c-0.4,0-0.8-0.1-1.2-0.2c-0.2-0.1-0.4-0.1-0.6-0.3c-0.2-0.1-0.4-0.2-0.5-0.3c-0.3-0.3-0.6-0.7-0.8-1.2c-0.2-0.5-0.3-1.1-0.3-1.9
				c0-0.8,0.1-1.4,0.3-1.9c0.2-0.5,0.4-0.9,0.7-1.2c0.3-0.3,0.6-0.5,1-0.6c0.4-0.1,0.7-0.2,1.1-0.2c0.9,0,1.6,0.3,2.2,0.9
				c0.6,0.6,0.9,1.4,0.9,2.4v1.3H552.5z M555.8,480.4c0-0.6-0.2-1-0.5-1.3c-0.3-0.3-0.7-0.4-1.1-0.4s-0.8,0.1-1.1,0.4
				c-0.3,0.3-0.4,0.7-0.5,1.3H555.8z"/>
		</g>
	</g>
	<g>
		<g>
			<circle class="st89" cx="688.5" cy="437.6" r="29.7"/>
			<path d="M688.5,468.3c-16.9,0-30.7-13.8-30.7-30.7s13.8-30.7,30.7-30.7s30.7,13.8,30.7,30.7S705.4,468.3,688.5,468.3z
				 M688.5,408.9c-15.8,0-28.7,12.9-28.7,28.7s12.9,28.7,28.7,28.7s28.7-12.9,28.7-28.7S704.3,408.9,688.5,408.9z"/>
		</g>
		<g>
			<path d="M670.3,475.6h-2.9v-1.4h7.5v1.4h-2.9v9.2h-1.6V475.6z"/>
			<path d="M675.6,474.2h1.5v1.5h-1.5V474.2z M675.6,477.2h1.5v7.6h-1.5V477.2z"/>
			<path d="M681.8,483.5c0.4,0,0.8-0.1,1.1-0.3s0.4-0.4,0.4-0.7c0-0.3-0.1-0.5-0.2-0.6c-0.2-0.1-0.4-0.2-0.7-0.2l-1.3-0.1
				c-0.6-0.1-1.2-0.3-1.6-0.6c-0.4-0.4-0.6-0.9-0.6-1.5c0-0.8,0.3-1.4,0.8-1.8c0.5-0.4,1.2-0.6,2-0.6c0.4,0,0.7,0,0.9,0.1
				c0.3,0,0.5,0.1,0.8,0.2c0.5,0.2,0.9,0.4,1.3,0.8l-0.9,1.1c-0.3-0.2-0.6-0.4-0.9-0.5c-0.3-0.1-0.7-0.2-1.1-0.2
				c-0.5,0-0.8,0.1-1,0.3c-0.2,0.2-0.3,0.4-0.3,0.7c0,0.2,0.1,0.3,0.2,0.4c0.1,0.1,0.4,0.2,0.8,0.3l1.3,0.1c0.8,0.1,1.4,0.3,1.7,0.7
				c0.3,0.4,0.5,0.9,0.5,1.6c0,0.7-0.3,1.3-0.9,1.7c-0.6,0.4-1.3,0.6-2.2,0.6c-1.2,0-2.4-0.5-3.3-1.4l1.1-1
				C680,483.2,680.8,483.5,681.8,483.5z"/>
			<path d="M686.4,474.9h1.5v2.3h1.1v1.2H688v4.4c0,0.4,0.2,0.6,0.5,0.6h0.6v1.4h-0.8c-0.5,0-1-0.2-1.3-0.5
				c-0.4-0.3-0.5-0.8-0.5-1.4v-4.6h-0.8v-1.2h0.8V474.9z"/>
			<path d="M690.1,481c0-0.8,0.1-1.4,0.2-1.8c0.1-0.4,0.3-0.8,0.6-1.1c0.2-0.3,0.5-0.5,0.9-0.7c0.4-0.2,0.8-0.3,1.4-0.3
				c0.6,0,1.1,0.1,1.5,0.3c0.4,0.2,0.6,0.4,0.8,0.7c0.3,0.3,0.5,0.6,0.6,1.1c0.1,0.4,0.2,1,0.2,1.8s-0.1,1.4-0.2,1.8
				c-0.1,0.4-0.3,0.8-0.6,1.1c-0.1,0.1-0.2,0.2-0.4,0.3c-0.1,0.1-0.3,0.2-0.5,0.3c-0.4,0.2-0.9,0.3-1.5,0.3c-0.6,0-1.1-0.1-1.4-0.3
				c-0.4-0.2-0.7-0.4-0.9-0.6c-0.3-0.3-0.5-0.7-0.6-1.1C690.2,482.5,690.1,481.8,690.1,481z M694.9,481.1c0-0.5,0-0.9-0.1-1.2
				c0-0.2-0.1-0.4-0.3-0.6c-0.1-0.2-0.3-0.3-0.5-0.4c-0.2-0.1-0.5-0.2-0.7-0.2c-0.3,0-0.5,0.1-0.7,0.2c-0.2,0.1-0.4,0.2-0.5,0.4
				c-0.1,0.2-0.2,0.4-0.3,0.6c-0.1,0.2-0.1,0.6-0.1,1.2c0,0.5,0,0.9,0.1,1.2c0.1,0.2,0.2,0.5,0.3,0.7c0.1,0.1,0.3,0.3,0.5,0.4
				c0.2,0.1,0.5,0.2,0.7,0.2c0.3,0,0.5-0.1,0.7-0.2c0.2-0.1,0.4-0.2,0.5-0.4c0.2-0.2,0.3-0.4,0.3-0.7
				C694.8,482,694.9,481.6,694.9,481.1z"/>
			<path d="M698,477.2h1.5v0.8h0c0.5-0.6,1.2-0.9,2-0.9c0.6,0,1.1,0.2,1.6,0.6l-1.1,1.3c-0.3-0.3-0.7-0.4-1-0.4
				c-0.4,0-0.7,0.1-1,0.4c-0.3,0.2-0.5,0.7-0.5,1.2v4.6H698V477.2z"/>
			<path d="M702.8,477.2h1.6l1.8,5.3h0l1.8-5.3h1.6l-3.3,9.2c-0.2,0.6-0.5,1-0.9,1.2c-0.4,0.2-0.8,0.3-1.3,0.3h-0.5v-1.4h0.4
				c0.2,0,0.4-0.1,0.6-0.2c0.2-0.1,0.3-0.3,0.4-0.5l0.4-1.3L702.8,477.2z"/>
		</g>
	</g>
</g>
</svg>
