<?xml version="1.0" encoding="utf-8"?>
<!-- Generator: Adobe Illustrator 22.0.1, SVG Export Plug-In . SVG Version: 6.00 Build 0)  -->
<svg version="1.1" id="Layer_1" xmlns="http://www.w3.org/2000/svg" xmlns:xlink="http://www.w3.org/1999/xlink" x="0px" y="0px"
	 viewBox="0 0 300.5 384.6" style="enable-background:new 0 0 300.5 384.6;" xml:space="preserve">
<style type="text/css">
	.st0{fill:#FFFFFF;}
</style>
<g>
	<g>
		<path class="st0" d="M288,382.5H12.5c-5.3,0-9.7-4.4-9.7-9.7V11.8c0-5.3,4.4-9.7,9.7-9.7H288c5.3,0,9.7,4.4,9.7,9.7v360.9
			C297.8,378.1,293.4,382.5,288,382.5z"/>
		<path d="M288,383.5H12.5c-5.9,0-10.7-4.8-10.7-10.7V11.8c0-5.9,4.8-10.7,10.7-10.7H288c5.9,0,10.7,4.8,10.7,10.7v360.9
			C298.8,378.6,293.9,383.5,288,383.5z M12.5,3.1c-4.8,0-8.7,3.9-8.7,8.7v360.9c0,4.8,3.9,8.7,8.7,8.7H288c4.8,0,8.7-3.9,8.7-8.7
			V11.8c0-4.8-3.9-8.7-8.7-8.7H12.5z"/>
	</g>
	<g>
		<path d="M30.1,31.8h7.7c0.8,0,1.7,0.1,2.4,0.2c0.8,0.2,1.6,0.6,2.4,1.3c0.7,0.5,1.2,1.2,1.6,2.1c0.4,0.9,0.7,1.9,0.7,3
			c0,1.6-0.6,3-1.7,4.3c-1.1,1.4-2.8,2.1-5,2.1h-4.9v8.3h-3.2V31.8z M33.3,41.7h4.8c1.2,0,2.1-0.4,2.7-1.1c0.6-0.7,0.9-1.5,0.9-2.3
			c0-0.7-0.1-1.3-0.4-1.8c-0.2-0.4-0.6-0.8-1-1c-0.7-0.4-1.4-0.6-2.3-0.6h-4.7V41.7z"/>
	</g>
	<g>
		<path d="M31.3,109.2v-2.6c0-0.3,0-0.6,0.1-0.8c0.1-0.3,0.2-0.5,0.4-0.8c0.2-0.2,0.4-0.4,0.7-0.5c0.3-0.1,0.6-0.2,1-0.2
			c0.5,0,1,0.2,1.4,0.6c0.5,0.4,0.7,0.9,0.7,1.7v1.6h2.8v1.1H31.3z M34.7,108.1v-1.6c0-0.4-0.1-0.7-0.4-0.9
			c-0.2-0.2-0.5-0.3-0.8-0.3c-0.2,0-0.4,0-0.6,0.1c-0.1,0.1-0.3,0.2-0.3,0.3c-0.1,0.2-0.2,0.5-0.2,0.8v1.6H34.7z"/>
		<path d="M35.4,99.4v2.8h3.1v1.1h-7.1v-1.1h3.1v-2.8h-3.1v-1.1h7.1v1.1H35.4z"/>
		<path d="M34.9,97c-0.8,0-1.4,0-1.7-0.1c-0.3-0.1-0.5-0.1-0.7-0.2c-0.3-0.2-0.6-0.4-0.9-0.8c-0.3-0.4-0.4-0.8-0.4-1.4
			c0-0.6,0.1-1,0.4-1.4c0.3-0.4,0.5-0.6,0.9-0.8c0.2-0.1,0.4-0.2,0.7-0.2c0.3,0,0.8-0.1,1.7-0.1c0.8,0,1.4,0,1.7,0.1
			c0.3,0,0.5,0.1,0.7,0.2c0.3,0.2,0.6,0.4,0.9,0.8c0.3,0.4,0.4,0.8,0.4,1.4c0,0.6-0.2,1-0.4,1.4c-0.3,0.4-0.5,0.7-0.9,0.8
			c-0.1,0.1-0.2,0.1-0.3,0.1c-0.1,0-0.2,0.1-0.4,0.1C36.3,97,35.7,97,34.9,97z M34.9,95.9c0.7,0,1.2,0,1.4-0.1
			c0.2,0,0.4-0.1,0.6-0.3c0.1-0.1,0.3-0.3,0.4-0.4c0.1-0.2,0.2-0.4,0.2-0.7c0-0.3-0.1-0.5-0.2-0.7c-0.1-0.2-0.2-0.3-0.4-0.4
			c-0.2-0.1-0.4-0.2-0.6-0.3c-0.2,0-0.7-0.1-1.4-0.1c-0.7,0-1.2,0-1.4,0.1c-0.2,0.1-0.4,0.1-0.6,0.3c-0.1,0.1-0.3,0.3-0.4,0.4
			c-0.1,0.2-0.1,0.4-0.2,0.7c0,0.3,0.1,0.5,0.2,0.7c0.1,0.2,0.2,0.3,0.4,0.4c0.2,0.1,0.3,0.2,0.6,0.3C33.7,95.9,34.2,95.9,34.9,95.9
			z"/>
		<path d="M32.3,89.7v1.9h-1v-5h1v1.9h6.2v1.1H32.3z"/>
		<path d="M34.9,86.3c-0.8,0-1.4,0-1.7-0.1c-0.3-0.1-0.5-0.1-0.7-0.2c-0.3-0.2-0.6-0.4-0.9-0.8c-0.3-0.4-0.4-0.8-0.4-1.4
			c0-0.6,0.1-1,0.4-1.4c0.3-0.4,0.5-0.6,0.9-0.8c0.2-0.1,0.4-0.2,0.7-0.2c0.3,0,0.8-0.1,1.7-0.1c0.8,0,1.4,0,1.7,0.1
			c0.3,0,0.5,0.1,0.7,0.2c0.3,0.2,0.6,0.4,0.9,0.8c0.3,0.4,0.4,0.8,0.4,1.4c0,0.6-0.2,1-0.4,1.4c-0.3,0.4-0.5,0.7-0.9,0.8
			c-0.1,0.1-0.2,0.1-0.3,0.1c-0.1,0-0.2,0.1-0.4,0.1C36.3,86.3,35.7,86.3,34.9,86.3z M34.9,85.2c0.7,0,1.2,0,1.4-0.1
			c0.2,0,0.4-0.1,0.6-0.3c0.1-0.1,0.3-0.3,0.4-0.4c0.1-0.2,0.2-0.4,0.2-0.7c0-0.3-0.1-0.5-0.2-0.7c-0.1-0.2-0.2-0.3-0.4-0.4
			c-0.2-0.1-0.4-0.2-0.6-0.3c-0.2,0-0.7-0.1-1.4-0.1c-0.7,0-1.2,0-1.4,0.1c-0.2,0.1-0.4,0.1-0.6,0.3c-0.1,0.1-0.3,0.3-0.4,0.4
			c-0.1,0.2-0.1,0.4-0.2,0.7c0,0.3,0.1,0.5,0.2,0.7c0.1,0.2,0.2,0.3,0.4,0.4c0.2,0.1,0.3,0.2,0.6,0.3C33.7,85.2,34.2,85.2,34.9,85.2
			z"/>
		<path d="M37.4,77.8c0-0.9-0.3-1.4-1-1.4c-0.5,0-0.8,0.3-1,0.9c0,0.3-0.1,0.6-0.1,0.9c-0.1,0.6-0.3,1.1-0.7,1.4
			c-0.4,0.3-0.8,0.5-1.3,0.5c-0.6,0-1.1-0.2-1.5-0.6c-0.4-0.4-0.6-1-0.6-1.7c0-0.9,0.3-1.7,0.7-2.3l0.9,0.6
			c-0.4,0.5-0.5,1.1-0.5,1.8c0,0.3,0.1,0.6,0.2,0.8c0.2,0.2,0.4,0.4,0.8,0.4c0.2,0,0.4-0.1,0.6-0.2c0.2-0.2,0.3-0.4,0.4-0.8
			c0-0.2,0.1-0.5,0.1-0.8c0.1-0.7,0.3-1.2,0.7-1.5c0.4-0.3,0.8-0.5,1.3-0.5c1.4,0,2.1,0.9,2.1,2.5c0,1.1-0.3,2-1,2.7l-0.8-0.7
			C37.2,79.3,37.4,78.6,37.4,77.8z"/>
		<path d="M35.4,70.3v2.8h3.1v1.1h-7.1v-1.1h3.1v-2.8h-3.1v-1.1h7.1v1.1H35.4z"/>
		<path d="M34.9,68c-0.8,0-1.4,0-1.7-0.1c-0.3-0.1-0.5-0.1-0.7-0.2c-0.3-0.2-0.6-0.4-0.9-0.8c-0.3-0.4-0.4-0.8-0.4-1.4
			c0-0.6,0.1-1,0.4-1.4c0.3-0.4,0.5-0.6,0.9-0.8c0.2-0.1,0.4-0.2,0.7-0.2c0.3,0,0.8-0.1,1.7-0.1c0.8,0,1.4,0,1.7,0.1
			c0.3,0,0.5,0.1,0.7,0.2c0.3,0.2,0.6,0.4,0.9,0.8c0.3,0.4,0.4,0.8,0.4,1.4c0,0.6-0.2,1-0.4,1.4c-0.3,0.4-0.5,0.7-0.9,0.8
			c-0.1,0.1-0.2,0.1-0.3,0.1c-0.1,0-0.2,0.1-0.4,0.1C36.3,68,35.7,68,34.9,68z M34.9,66.9c0.7,0,1.2,0,1.4-0.1
			c0.2,0,0.4-0.1,0.6-0.3c0.1-0.1,0.3-0.3,0.4-0.4c0.1-0.2,0.2-0.4,0.2-0.7c0-0.3-0.1-0.5-0.2-0.7c-0.1-0.2-0.2-0.3-0.4-0.4
			c-0.2-0.1-0.4-0.2-0.6-0.3c-0.2,0-0.7-0.1-1.4-0.1c-0.7,0-1.2,0-1.4,0.1c-0.2,0.1-0.4,0.1-0.6,0.3c-0.1,0.1-0.3,0.3-0.4,0.4
			c-0.1,0.2-0.1,0.4-0.2,0.7c0,0.3,0.1,0.5,0.2,0.7c0.1,0.2,0.2,0.3,0.4,0.4c0.2,0.1,0.3,0.2,0.6,0.3C33.7,66.9,34.2,66.9,34.9,66.9
			z"/>
		<path d="M31.3,61.6v-2.6c0-0.3,0-0.6,0.1-0.8c0.1-0.3,0.2-0.5,0.4-0.8c0.2-0.2,0.4-0.4,0.7-0.5c0.3-0.1,0.6-0.2,1-0.2
			c0.5,0,1,0.2,1.4,0.6c0.5,0.4,0.7,0.9,0.7,1.7v1.6h2.8v1.1H31.3z M34.7,60.6V59c0-0.4-0.1-0.7-0.4-0.9c-0.2-0.2-0.5-0.3-0.8-0.3
			c-0.2,0-0.4,0-0.6,0.1c-0.1,0.1-0.3,0.2-0.3,0.3c-0.1,0.2-0.2,0.5-0.2,0.8v1.6H34.7z"/>
	</g>
	<g>
		<path d="M270.5,352.5h-7.7c-0.8,0-1.7-0.1-2.4-0.2c-0.8-0.2-1.6-0.6-2.4-1.3c-0.7-0.5-1.2-1.2-1.6-2.1c-0.4-0.9-0.7-1.9-0.7-3
			c0-1.6,0.6-3,1.7-4.3c1.1-1.4,2.8-2.1,5-2.1h4.9v-8.3h3.2V352.5z M267.3,342.5h-4.8c-1.2,0-2.1,0.4-2.7,1.1
			c-0.6,0.7-0.9,1.5-0.9,2.3c0,0.7,0.1,1.3,0.4,1.8c0.2,0.4,0.6,0.8,1,1c0.7,0.4,1.4,0.6,2.3,0.6h4.7V342.5z"/>
	</g>
	<g>
		<path d="M269.3,275.1v2.6c0,0.3,0,0.6-0.1,0.8c-0.1,0.3-0.2,0.5-0.4,0.8c-0.2,0.2-0.4,0.4-0.7,0.5c-0.3,0.1-0.6,0.2-1,0.2
			c-0.5,0-1-0.2-1.4-0.6c-0.5-0.4-0.7-0.9-0.7-1.7v-1.6h-2.8v-1.1H269.3z M265.9,276.1v1.6c0,0.4,0.1,0.7,0.4,0.9
			c0.2,0.2,0.5,0.3,0.8,0.3c0.2,0,0.4,0,0.6-0.1c0.1-0.1,0.3-0.2,0.3-0.3c0.1-0.2,0.2-0.5,0.2-0.8v-1.6H265.9z"/>
		<path d="M265.2,284.9v-2.8h-3.1V281h7.1v1.1h-3.1v2.8h3.1v1.1h-7.1v-1.1H265.2z"/>
		<path d="M265.7,287.2c0.8,0,1.4,0,1.7,0.1c0.3,0.1,0.5,0.1,0.7,0.2c0.3,0.2,0.6,0.4,0.9,0.8c0.3,0.4,0.4,0.8,0.4,1.4
			c0,0.6-0.1,1-0.4,1.4c-0.3,0.4-0.5,0.6-0.9,0.8c-0.2,0.1-0.4,0.2-0.7,0.2c-0.3,0-0.8,0.1-1.7,0.1c-0.8,0-1.4,0-1.7-0.1
			c-0.3,0-0.5-0.1-0.7-0.2c-0.3-0.2-0.6-0.4-0.9-0.8c-0.3-0.4-0.4-0.8-0.4-1.4c0-0.6,0.1-1,0.4-1.4c0.3-0.4,0.5-0.7,0.9-0.8
			c0.1-0.1,0.2-0.1,0.3-0.1c0.1,0,0.2-0.1,0.4-0.1C264.3,287.2,264.9,287.2,265.7,287.2z M265.7,288.3c-0.7,0-1.2,0-1.4,0.1
			c-0.2,0-0.4,0.1-0.6,0.3c-0.1,0.1-0.3,0.3-0.4,0.4c-0.1,0.2-0.2,0.4-0.2,0.7c0,0.3,0.1,0.5,0.2,0.7c0.1,0.2,0.2,0.3,0.4,0.4
			c0.2,0.1,0.4,0.2,0.6,0.3c0.2,0,0.7,0.1,1.4,0.1s1.2,0,1.4-0.1c0.2-0.1,0.4-0.1,0.6-0.3c0.1-0.1,0.3-0.2,0.4-0.4
			c0.1-0.2,0.1-0.4,0.2-0.7c0-0.3-0.1-0.5-0.2-0.7c-0.1-0.2-0.2-0.3-0.4-0.4c-0.2-0.1-0.3-0.2-0.6-0.3
			C266.9,288.3,266.4,288.3,265.7,288.3z"/>
		<path d="M268.3,294.6v-1.9h1v5h-1v-1.9h-6.2v-1.1H268.3z"/>
		<path d="M265.7,298c0.8,0,1.4,0,1.7,0.1c0.3,0.1,0.5,0.1,0.7,0.2c0.3,0.2,0.6,0.4,0.9,0.8c0.3,0.4,0.4,0.8,0.4,1.4
			c0,0.6-0.1,1-0.4,1.4c-0.3,0.4-0.5,0.6-0.9,0.8c-0.2,0.1-0.4,0.2-0.7,0.2c-0.3,0-0.8,0.1-1.7,0.1c-0.8,0-1.4,0-1.7-0.1
			c-0.3,0-0.5-0.1-0.7-0.2c-0.3-0.2-0.6-0.4-0.9-0.8c-0.3-0.4-0.4-0.8-0.4-1.4c0-0.6,0.1-1,0.4-1.4c0.3-0.4,0.5-0.7,0.9-0.8
			c0.1-0.1,0.2-0.1,0.3-0.1c0.1,0,0.2-0.1,0.4-0.1C264.3,298,264.9,298,265.7,298z M265.7,299c-0.7,0-1.2,0-1.4,0.1
			c-0.2,0-0.4,0.1-0.6,0.3c-0.1,0.1-0.3,0.3-0.4,0.4c-0.1,0.2-0.2,0.4-0.2,0.7c0,0.3,0.1,0.5,0.2,0.7c0.1,0.2,0.2,0.3,0.4,0.4
			c0.2,0.1,0.4,0.2,0.6,0.3c0.2,0,0.7,0.1,1.4,0.1s1.2,0,1.4-0.1c0.2-0.1,0.4-0.1,0.6-0.3c0.1-0.1,0.3-0.2,0.4-0.4
			c0.1-0.2,0.1-0.4,0.2-0.7c0-0.3-0.1-0.5-0.2-0.7c-0.1-0.2-0.2-0.3-0.4-0.4c-0.2-0.1-0.3-0.2-0.6-0.3
			C266.9,299.1,266.4,299,265.7,299z"/>
		<path d="M263.2,306.4c0,0.9,0.3,1.4,1,1.4c0.5,0,0.8-0.3,1-0.9c0-0.3,0.1-0.6,0.1-0.9c0.1-0.6,0.3-1.1,0.7-1.4
			c0.4-0.3,0.8-0.5,1.3-0.5c0.6,0,1.1,0.2,1.5,0.6c0.4,0.4,0.6,1,0.6,1.7c0,0.9-0.3,1.7-0.7,2.3l-0.9-0.6c0.4-0.5,0.5-1.1,0.5-1.8
			c0-0.3-0.1-0.6-0.2-0.8c-0.2-0.2-0.4-0.3-0.8-0.4c-0.2,0-0.4,0.1-0.6,0.2c-0.2,0.2-0.3,0.4-0.4,0.8c0,0.2-0.1,0.5-0.1,0.8
			c-0.1,0.7-0.3,1.2-0.7,1.5c-0.4,0.3-0.8,0.5-1.3,0.5c-1.4,0-2.1-0.9-2.1-2.5c0-1.1,0.3-2,1-2.7l0.8,0.7
			C263.4,305,263.2,305.6,263.2,306.4z"/>
		<path d="M265.2,313.9v-2.8h-3.1V310h7.1v1.1h-3.1v2.8h3.1v1.1h-7.1v-1.1H265.2z"/>
		<path d="M265.7,316.3c0.8,0,1.4,0,1.7,0.1c0.3,0.1,0.5,0.1,0.7,0.2c0.3,0.2,0.6,0.4,0.9,0.8c0.3,0.4,0.4,0.8,0.4,1.4
			c0,0.6-0.1,1-0.4,1.4c-0.3,0.4-0.5,0.6-0.9,0.8c-0.2,0.1-0.4,0.2-0.7,0.2c-0.3,0-0.8,0.1-1.7,0.1c-0.8,0-1.4,0-1.7-0.1
			c-0.3,0-0.5-0.1-0.7-0.2c-0.3-0.2-0.6-0.4-0.9-0.8c-0.3-0.4-0.4-0.8-0.4-1.4c0-0.6,0.1-1,0.4-1.4c0.3-0.4,0.5-0.7,0.9-0.8
			c0.1-0.1,0.2-0.1,0.3-0.1c0.1,0,0.2-0.1,0.4-0.1C264.3,316.3,264.9,316.3,265.7,316.3z M265.7,317.4c-0.7,0-1.2,0-1.4,0.1
			c-0.2,0-0.4,0.1-0.6,0.3c-0.1,0.1-0.3,0.3-0.4,0.4c-0.1,0.2-0.2,0.4-0.2,0.7c0,0.3,0.1,0.5,0.2,0.7c0.1,0.2,0.2,0.3,0.4,0.4
			c0.2,0.1,0.4,0.2,0.6,0.3c0.2,0,0.7,0.1,1.4,0.1s1.2,0,1.4-0.1c0.2-0.1,0.4-0.1,0.6-0.3c0.1-0.1,0.3-0.2,0.4-0.4
			c0.1-0.2,0.1-0.4,0.2-0.7c0-0.3-0.1-0.5-0.2-0.7c-0.1-0.2-0.2-0.3-0.4-0.4c-0.2-0.1-0.3-0.2-0.6-0.3
			C266.9,317.4,266.4,317.4,265.7,317.4z"/>
		<path d="M269.3,322.6v2.6c0,0.3,0,0.6-0.1,0.8c-0.1,0.3-0.2,0.5-0.4,0.8c-0.2,0.2-0.4,0.4-0.7,0.5c-0.3,0.1-0.6,0.2-1,0.2
			c-0.5,0-1-0.2-1.4-0.6c-0.5-0.4-0.7-0.9-0.7-1.7v-1.6h-2.8v-1.1H269.3z M265.9,323.7v1.6c0,0.4,0.1,0.7,0.4,0.9
			c0.2,0.2,0.5,0.3,0.8,0.3c0.2,0,0.4,0,0.6-0.1c0.1-0.1,0.3-0.2,0.3-0.3c0.1-0.2,0.2-0.5,0.2-0.8v-1.6H265.9z"/>
	</g>
	<g>
		<path d="M142.5,190.9c0-2.1,0.9-3.7,2.5-4.8c-0.6-0.6-1.1-1.2-1.5-1.9c-0.4-0.7-0.6-1.5-0.6-2.4c0-1.8,0.6-3.2,1.8-4.4
			c1.1-1.2,2.5-1.7,4.3-1.8c1.8,0,3.2,0.6,4.4,1.8c1.1,1.2,1.7,2.6,1.7,4.4c0,0.9-0.2,1.7-0.6,2.4c-0.4,0.7-0.9,1.4-1.6,1.9
			c1.7,1.1,2.5,2.7,2.5,4.8c0,1.9-0.7,3.5-1.9,4.6c-1.3,1.2-2.8,1.8-4.6,1.8c-1.8,0-3.3-0.6-4.6-1.8
			C143.2,194.3,142.5,192.8,142.5,190.9z M145.5,190.9c0,1,0.4,1.8,1.1,2.4c0.7,0.7,1.4,1,2.4,1c1,0,1.8-0.3,2.4-1
			c0.7-0.6,1-1.4,1-2.4c0-1-0.4-1.8-1-2.4c-0.7-0.6-1.5-0.9-2.4-1c-0.9,0-1.7,0.3-2.4,1C145.9,189,145.6,189.9,145.5,190.9z
			 M145.9,181.7c0,1,0.3,1.7,1,2.3c0.6,0.5,1.3,0.8,2.1,0.8c0.8,0,1.5-0.3,2.1-0.8c0.6-0.5,0.9-1.3,0.9-2.3c0-1-0.3-1.8-0.9-2.3
			c-0.6-0.5-1.3-0.7-2.1-0.7c-0.8,0-1.5,0.2-2.1,0.7C146.3,179.9,146,180.7,145.9,181.7z"/>
		<path d="M157.7,175.8h11.4v3.1h-8.5v4.8c1-0.8,2.1-1.2,3.4-1.2c0.8,0,1.6,0.2,2.3,0.4c0.6,0.3,1.2,0.7,1.6,1.1
			c0.6,0.6,1,1.3,1.3,2c0.1,0.4,0.2,0.9,0.3,1.5c0.1,0.6,0.1,1.4,0.1,2.3c0,1.4-0.1,2.5-0.3,3.2c-0.2,0.7-0.5,1.4-1,1.9
			c-0.4,0.6-1,1.1-1.8,1.5c-0.8,0.5-1.7,0.7-2.8,0.7c-1.4,0-2.8-0.4-4-1.3c-1.2-0.9-2-2.3-2.3-4.3h3.1c0.3,1.6,1.4,2.5,3.1,2.5
			c0.7,0,1.3-0.1,1.8-0.4c0.4-0.3,0.7-0.7,0.9-1.1c0.2-0.5,0.3-1,0.3-1.5c0-0.5,0-1,0-1.5c0-1.2-0.2-2.2-0.6-3
			c-0.2-0.4-0.5-0.6-1-0.9c-0.4-0.2-0.9-0.3-1.6-0.3c-0.6,0-1.1,0.1-1.5,0.4c-0.5,0.3-0.9,0.7-1.2,1.4h-2.9V175.8z"/>
		<path d="M172.1,178.5c0-1,0.3-1.8,0.9-2.3c0.5-0.5,1.2-0.7,1.9-0.7c0.8,0,1.4,0.2,2,0.7c0.5,0.5,0.8,1.2,0.8,2.3v2.1
			c0,0.5-0.1,1-0.2,1.3c-0.1,0.4-0.3,0.7-0.6,0.9c-0.6,0.5-1.2,0.7-2,0.7c-0.7,0-1.4-0.2-1.9-0.7c-0.6-0.5-0.9-1.2-0.9-2.2V178.5z
			 M182.4,175.8h2l-10.1,21.4h-2L182.4,175.8z M173.8,180.4c0,1,0.4,1.5,1.1,1.5s1.1-0.5,1.1-1.5v-1.6c0-1-0.4-1.5-1.1-1.5
			s-1.1,0.5-1.1,1.5V180.4z M179,192.3c0-1,0.3-1.8,0.9-2.3c0.5-0.5,1.2-0.7,1.9-0.7c0.8,0,1.4,0.2,2,0.7c0.5,0.5,0.8,1.2,0.8,2.3
			v2.1c0,0.5-0.1,1-0.2,1.3c-0.1,0.4-0.3,0.7-0.6,0.9c-0.6,0.5-1.2,0.7-2,0.7c-0.7,0-1.4-0.2-1.9-0.7c-0.6-0.5-0.9-1.2-0.9-2.2
			V192.3z M180.7,194.1c0,1,0.4,1.5,1.1,1.5s1.1-0.5,1.1-1.5v-1.6c0-1-0.4-1.5-1.1-1.5s-1.1,0.5-1.1,1.5V194.1z"/>
	</g>
</g>
</svg>
