<?xml version="1.0" encoding="utf-8"?>
<!-- Generator: Adobe Illustrator 22.0.1, SVG Export Plug-In . SVG Version: 6.00 Build 0)  -->
<svg version="1.1" id="Layer_1" xmlns="http://www.w3.org/2000/svg" xmlns:xlink="http://www.w3.org/1999/xlink" x="0px" y="0px"
	 viewBox="0 0 751 544.7" style="enable-background:new 0 0 751 544.7;" xml:space="preserve">
<style type="text/css">
	.st0{fill:#FFFFFF;}
	.st1{clip-path:url(#SVGID_2_);}
	.st2{fill:#FFE7BD;stroke:#000000;stroke-width:7;stroke-linecap:round;stroke-linejoin:round;stroke-miterlimit:10;}
	.st3{fill:#382612;stroke:#000000;stroke-width:6;stroke-miterlimit:10;}
	.st4{fill:#FFE7BD;}
	.st5{opacity:0.2;fill:#494747;}
	.st6{opacity:0.4;}
	.st7{fill:#C4B7A1;}
	.st8{fill:#4F4F4F;}
	.st9{fill:#FC3535;stroke:#000000;stroke-width:6;stroke-linecap:round;stroke-linejoin:round;stroke-miterlimit:10;}
	.st10{fill:#FFAF78;}
	.st11{fill:#FFE7BD;stroke:#000000;stroke-width:5;stroke-linecap:round;stroke-linejoin:round;stroke-miterlimit:10;}
	.st12{fill:#FFE7BD;stroke:#000000;stroke-width:9;stroke-linecap:round;stroke-linejoin:round;stroke-miterlimit:10;}
	.st13{fill:#382612;}
	.st14{opacity:0.2;}
	.st15{fill:#494747;}
	.st16{fill:#FC3535;}
	.st17{fill:#DD7A5F;}
	.st18{fill:#FFF87B;}
</style>
<g>
	<g>
		<path class="st0" d="M718.4,536.8H32.6C19,536.8,8,525.8,8,512.2V31.4C8,17.8,19,6.8,32.6,6.8h685.8c13.6,0,24.6,11,24.6,24.6
			v480.8C743,525.8,732,536.8,718.4,536.8z"/>
	</g>
	<g>
		<path d="M718.4,537.8H32.6C18.5,537.8,7,526.3,7,512.2V31.4C7,17.3,18.5,5.8,32.6,5.8h685.8c14.1,0,25.6,11.5,25.6,25.6v480.8
			C744,526.3,732.5,537.8,718.4,537.8z M32.6,7.8C19.6,7.8,9,18.4,9,31.4v480.8c0,13,10.6,23.6,23.6,23.6h685.8
			c13,0,23.6-10.6,23.6-23.6V31.4c0-13-10.6-23.6-23.6-23.6H32.6z"/>
	</g>
</g>
<g id="XMLID_9_">
</g>
<g>
	<g>
		<defs>
			<path id="SVGID_1_" d="M727,536.8H24c-8.8,0-16-7.2-16-16v-498c0-8.8,7.2-16,16-16h703c8.8,0,16,7.2,16,16v498
				C743,529.7,735.8,536.8,727,536.8z"/>
		</defs>
		<clipPath id="SVGID_2_">
			<use xlink:href="#SVGID_1_"  style="overflow:visible;"/>
		</clipPath>
		<g class="st1">
			<g>
				<g>
					<g>
						<rect x="39.3" y="-108.5" width="2" height="755.6"/>
					</g>
				</g>
			</g>
			<g>
				<g>
					<g>
						<rect x="135.2" y="-108.5" width="2" height="755.6"/>
					</g>
				</g>
			</g>
			<g>
				<g>
					<g>
						<rect x="231.1" y="-108.5" width="2" height="755.6"/>
					</g>
				</g>
			</g>
			<g>
				<g>
					<g>
						<rect x="327" y="-108.5" width="2" height="755.6"/>
					</g>
				</g>
			</g>
			<g>
				<g>
					<g>
						<rect x="423" y="-108.5" width="2" height="755.6"/>
					</g>
				</g>
			</g>
			<g>
				<g>
					<g>
						<rect x="518.9" y="-108.5" width="2" height="755.6"/>
					</g>
				</g>
			</g>
			<g>
				<g>
					<g>
						<rect x="614.8" y="-108.5" width="2" height="755.6"/>
					</g>
				</g>
			</g>
			<g>
				<g>
					<g>
						<rect x="710.7" y="-108.5" width="2" height="755.6"/>
					</g>
				</g>
			</g>
			<g>
				<g>
					<g>
						<rect x="2.5" y="607.8" width="747" height="2"/>
					</g>
				</g>
			</g>
			<g>
				<g>
					<g>
						<rect x="2.5" y="510.8" width="747" height="2"/>
					</g>
				</g>
			</g>
			<g>
				<g>
					<g>
						<rect x="2.5" y="413.8" width="747" height="2"/>
					</g>
				</g>
			</g>
			<g>
				<g>
					<g>
						<rect x="2.5" y="316.8" width="747" height="2"/>
					</g>
				</g>
			</g>
			<g>
				<g>
					<g>
						<rect x="2.5" y="219.8" width="747" height="2"/>
					</g>
				</g>
			</g>
			<g>
				<g>
					<g>
						<rect x="2.5" y="122.8" width="747" height="2"/>
					</g>
				</g>
			</g>
			<g>
				<g>
					<g>
						<rect x="2.5" y="25.8" width="747" height="2"/>
					</g>
				</g>
			</g>
			<g>
				<g>
					<g>
						<rect x="2.5" y="-71.2" width="747" height="2"/>
					</g>
				</g>
			</g>
		</g>
	</g>
</g>
<image style="overflow:visible;opacity:0.5;" width="4032" height="3024" xlink:href="../KakaoTalk_Photo_2019-04-25-09-47-14.jpeg"  transform="matrix(8.534188e-09 0.7157 -0.7157 8.534188e-09 -380.9897 -127.0096)">
</image>
<path class="st2" d="M-1767,1665c0,0,260.3,176,261.6,300c0,0,100.3-184,119.8-206s195.9-160,219.7-166c23.8-6-22.2-110-34.2-188
	S-1767,1665-1767,1665z"/>
<g>
	<g>
		<g>
			<path class="st3" d="M-1565.1,613.4c0,0-491.6,99.5-564.7,696.4c-2.4,18.5-9.8,35.6-21.5,49.7c-54.1,67.3-79.5,316,245.8,369.6
				c11.2,2,108.7,10.7,120,8.8c19.5-3.9,43.9-15.1,45.4-48.3C-1739.7,1689.7-1893.3,611.9-1565.1,613.4z"/>
		</g>
	</g>
</g>
<g>
	<g>
		<g>
			<path class="st4" d="M-1165.9,1345.4c-32,310.2-232.9,413.4-465,389.6s-407.9-166.1-376.3-476.3s246.2-542.3,478.3-518.5
				C-1296.8,763.9-1134.2,1035.1-1165.9,1345.4z"/>
		</g>
	</g>
	<g>
		<g>
			<path d="M-1568.7,1742c-20.3,0-41.4-1.2-62.5-3.1c-123.9-12.9-223.9-58.2-289.5-132.1c-75-83.6-105.1-201.2-89.9-348.5
				c32-311.8,248.5-546.3,482.6-522c113.7,11.7,214.1,81.7,283.3,196.9c69.2,114.9,98.5,261.4,82.8,412.2
				c-15.2,147.3-68.8,255.9-159,322.8C-1386.6,1717-1471,1742-1568.7,1742z M-1561.7,742.5c-217.3,0-411.4,223.5-441.5,516.9
				c-14.8,145,14.8,260.2,87.9,342.3c64.5,72.3,162.9,116.8,284.5,129.3c121.9,12.5,227.4-11.3,305.2-68.8
				c88.3-65.6,141.1-172.3,155.9-317.3c15.2-149.3-13.7-293.8-81.7-407.5c-68-113.3-166.5-181.7-277.4-193.4
				C-1539.8,742.8-1551.1,742.5-1561.7,742.5z"/>
		</g>
	</g>
</g>
<path class="st5" d="M-1332,1675.7c0,0-25,31.3-38,46.3s-15.7,20-15.7,20l65.3-44.3L-1332,1675.7z"/>
<g>
	<g>
		<g>
			<g>
				<ellipse transform="matrix(1 -4.551167e-03 4.551167e-03 1 -5.1599 -7.9999)" cx="-1760.3" cy="1129.7" rx="39.9" ry="44.4"/>
			</g>
		</g>
	</g>
	<g>
		<g>
			<g>
				<path d="M-1771,1123.1l-0.4,0c-36.5,0.3-51.2-48.2-51.9-50.3c-0.7-2.2,0.8-5,3-5.7c2.2-0.7,5,0.8,5.7,3c0,0.4,13.3,43.7,43,43.6
					c2.3,0.2,4.3,1.8,4.5,4.5C-1766.7,1120.8-1768.7,1122.8-1771,1123.1z"/>
			</g>
		</g>
	</g>
</g>
<g>
	<g>
		<g>
			<g>
				<ellipse transform="matrix(1 -4.551167e-03 4.551167e-03 1 -5.1975 -6.8393)" cx="-1505.3" cy="1138.6" rx="39.9" ry="44.4"/>
			</g>
		</g>
	</g>
	<g>
		<g>
			<g>
				<path d="M-1515.3,1131.2l-0.4,0c-36.5,0.3-51.2-48.2-51.9-50.3c-0.7-2.2,0.8-5,3-5.7s5,0.8,5.7,3c0,0.4,13.3,43.7,43,43.6
					c2.3,0.2,4.3,1.8,4.5,4.5C-1511.5,1129-1513.1,1131-1515.3,1131.2z"/>
			</g>
		</g>
	</g>
</g>
<g>
	<g>
		<g>
			<path class="st0" d="M-1887.3,1029c-6.1,31.3,9.5,37.8-3.6,50.4c-8.5,8.6-35.4-19.2-29.3-50.5c6.1-31.3,38.7-55.6,50.6-53.2
				C-1857.7,977.6-1881.7,997.7-1887.3,1029z"/>
		</g>
	</g>
</g>
<path class="st5" d="M-1213.6,1041c0,0,128.7,482.8-274.4,681c0,0,295-50.3,337-292.7C-1109,1186.9-1120.4,1109.5-1213.6,1041z"/>
<g>
	<g>
		<g>
			<g>
				<path class="st4" d="M-1677.9,1171.2c0,0-7.1,105.8-52.5,78.2c-55.5-34.2-20.3,59,25.6,70.3"/>
			</g>
		</g>
		<g>
			<g>
				<path d="M-1704.3,1324.2c-0.4,0-0.9,0.1-1.4-0.3c-28.7-6.8-52.9-43-56.6-65.2c-2.2-11.9,1.8-16.9,5.1-19.5
					c6.3-4.3,16-2.2,29.5,5.9c7.2,4.2,13.2,5.3,18.3,2.5c18.8-9.7,25.7-58.7,26.9-76.8c0.2-2.3,2.2-4.3,5-4.1c2.3,0.2,4.3,2.2,4.1,5
					c-0.6,7.3-5.5,70.9-31.9,84.6c-8.1,4-17.2,3.2-27.4-2.9c-11.1-6.9-17.5-7.6-19.6-6.5c-1.7,1.1-2.1,5.2-1.1,10.5
					c3.4,19,25,51.9,49.9,57.8c2.3,0.7,3.9,3.2,3.3,5.5C-1700.8,1322.5-1702,1324-1704.3,1324.2z"/>
			</g>
		</g>
	</g>
	<g class="st6">
		<g>
			<g>
				<path class="st7" d="M-1729.9,1274.2c6.8,9.2,12,6.8,12.3,13.6c0,4.5-14,4.2-20.4-5c-6.8-9.2-4.8-23.8-1.5-26.4
					C-1735.7,1253.6-1736.8,1265-1729.9,1274.2z"/>
			</g>
		</g>
	</g>
</g>
<g>
	<g>
		<g>
			<circle class="st8" cx="-1679" cy="1274.1" r="5.8"/>
		</g>
	</g>
</g>
<path class="st9" d="M-653.1,2023.5c0,0,31.7,22.8,31.7,51.5c0,28.7,17.3,62.7,21.3,78.7s51.3,160.7,38,169.3s-91.1,0-91.1,0V2023.5
	z"/>
<g>
	<g>
		<g>
			
				<ellipse transform="matrix(1 -4.551167e-03 4.551167e-03 1 -5.5373 -8.6438)" class="st10" cx="-1902" cy="1212.4" rx="78.9" ry="40.4"/>
		</g>
	</g>
</g>
<path class="st9" d="M-2170.6,2227.4c0,0-13.4,41.1-13.3,51.6c0.1,10.5,42.1,66,31.6,78l1519.4-34.5c0,0-7.5-241.5-24-321
	c-16-77.1-0.8-101.3-50.4-134.2c-3.2-2.1-5.8-5-7.6-8.4c-9.7-18.8-44-82.9-77-124.6c-39-49.2,5.9-67.3-55-111.9
	c-9.4-6.9-29-12.8-39.2-16c-4.3-1.3-114.5-101.3-152-107.3c-37.5-6-115.8,80-206.8,148.5c-91,68.6-123.1,87-163.5,120
	c-40.5,33-97,197.5-97,197.5s-59.7,94.5-90.5,146c-60.5,101.5-115.5,134.7-151.5,166.5c-36,31.7-28.5,60-28.5,60s-76.5-82.5-78-96
	c-1.5-13.5-18-52.5-30-64.5c-12-12-59.8-26.8-91.4-23.2C-2006.8,2157.5-2154.4,2207.3-2170.6,2227.4z"/>
<g>
	<g>
		<g>
			
				<ellipse transform="matrix(1 -4.551167e-03 4.551167e-03 1 -5.5224 -6.2931)" class="st10" cx="-1385.5" cy="1210.3" rx="78.9" ry="40.4"/>
		</g>
	</g>
</g>
<g>
	<g>
		<g>
			<path class="st3" d="M-1627.5,571.5L-1627.5,571.5c60-42.9,181.9,0,182.9,0l0,0c473.5,45.4,517.9,546.2,517.9,546.2
				c20,118,40.5,522.3-20.5,605.7c-79,108.3-427.7,83.9-407.7-107.8s163.9-57.5,179-329.7s-222.4-284.3-222.4-284.3
				c-187.3-19.5-183.4-127.3-183.4-131.7l0,0c-78,60.5-30.7,106.8-27.3,109.7l0,0c-117-12.2-46.3-119.5-41.9-126.3l0,0
				c-98.5,63.9-20.5,116.1-13.7,120.5v0.5c-148.2-15.6-94.1-165.3-33.2-274.6c-76.1,41-198,100.9-218,193.6
				c-22.9,104.4-93.6,140-127.3,151.7c-8.8,2.9-17.1-4.4-15.6-13.2C-2059.1,1031.8-2024.5,577.3-1627.5,571.5z"/>
		</g>
	</g>
</g>
<g>
	<path class="st11" d="M-2084.5,2103c-0.4-5,7.5-28,14.5-30s71-36,77-24s-5,47-6,58c-0.7,7.2,31.3,60.1,53.7,96.2
		c12.5,20.1,6.3,46.6-13.8,59c-28.1,17.3-66,37-87.9,38.8c-23.9,2-61.5-8.8-84-16.3c-11.1-3.7-20.1-12.1-24.4-23
		c-12.9-32.7-45.1-97.4-64.8-109.7c-24.2-15-35.8-59-34.8-80s-12-42-12-42c-28-12-27-44-24-59s-4-29-26-51s-8-68-4-85s-14-27-23-53
		s1-48,13-90s98-48.5,98-48.5c14-17-5-73.5-5-73.5c-9-23-6-104-6-104c4-88,52-79,52-79c52-2,46.5,99,52.5,129s52.5,106.1,46.5,105
		c-39-7-140,22.5-140,22.5s108.3-36.5,140-22.5c0,0,111.5-1.5,96,112c0,0,0.2,9.5-3.5,7.5c-17.5-9.5-94.2,15.6-112.5,21.5
		c-22.7,7.3-117,27-117,27c34-13,178-54,229.5-48.5s48.5,87.5,29.5,114.5s-194,54-194,54c57.5,1,194-54,194-54c34.5,60-10,88-10,88
		c-70.5,57-164,57-164,57c40,1.5,164-57,164-57c35.5,42.5-7.5,95.5-16.5,103.5s-60.7,21.3-72.5,26.5S-2084.5,2103-2084.5,2103"/>
	<path class="st11" d="M-2215,1549c0,0,42-2,57.5-12.5C-2157.5,1536.5-2178,1565-2215,1549z"/>
	<path class="st11" d="M-2028.5,2059.5c0,0-7.5,76.5-20.5,85.5C-2049,2145-2015,2131.9-2028.5,2059.5z"/>
</g>
<path class="st9" d="M-974.8,1865c-9-12-112.5-42-184.2-67.5c-71.7-25.5-126.3,1.5-154.8,13.5c-28.5,12-175.5,184.5-204,193.5
	c-28.5,9-73.5,40.5-68.6,55c4.9,14.5-63.4,105.5-73.9,115.7c-10.5,10.2-42,34.8-60,42.3c-18,7.5-27,60-27,60s-45,39.2-28.5,60"/>
<path class="st9" d="M-727.4,2324.6c0,0,15-87.6,0-140.1s-168-282-193.5-285"/>
<path class="st12" d="M-1795.2,1413c0,0,176.5,43.5,283.8-26.3"/>
<path class="st2" d="M-1647,1475c0,0,20,3,36-8"/>
<path class="st13" d="M-2058.8,1055c0-24.2,14.1-74.9,15.8-79.5c5.2-14.4,6.7,11.5,17.1,0c13.5-15,232.6-284.1,283.4-289
	c50.8-4.9,70.7-13.2,57.8,0c-12.9,13.2,94.8,40.5,65.8,43.5s-26.3,66.6-107.4,54.1c-32.2-5-187.4,119.4-200.9,158.4
	s-108,264-115.5,214.5C-2048.8,1117.4-2058.8,1073.6-2058.8,1055z"/>
<g>
	<g>
		<g>
			<g>
				<g>
					<g>
						<path class="st4" d="M223.1,364.4c0,0,64.8,43.8,65.2,74.7c0,0,25-45.8,29.9-51.3s48.8-39.9,54.7-41.4
							c5.9-1.5-5.5-27.4-8.5-46.8C361.4,280.2,223.1,364.4,223.1,364.4z"/>
					</g>
				</g>
			</g>
			<g>
				<g>
					<g>
						<path d="M288.3,440c-0.1,0-0.1,0-0.2,0c-0.4-0.1-0.7-0.4-0.7-0.8c-0.1-12.4-11.3-29.1-32.4-48.3c-16-14.6-32.2-25.6-32.4-25.7
							c-0.2-0.2-0.4-0.4-0.4-0.7c0-0.3,0.2-0.6,0.4-0.7c0.3-0.2,31.1-18.9,63.5-36.5c19.1-10.3,35-18.2,47.2-23.5
							c15.8-6.8,25.4-9.1,29.5-7.2c1.3,0.6,2.1,1.6,2.3,3c1.2,7.5,3.6,16.1,5.8,23.7c3.1,11,5.6,19.6,3.8,22.8
							c-0.4,0.7-1,1.1-1.7,1.3c-2.4,0.6-13,7.9-27.5,19c-12.8,9.8-24.6,19.5-26.8,22.1c-4.7,5.3-29.5,50.7-29.7,51.2
							C288.9,439.8,288.6,440,288.3,440z M224.7,364.4c3.9,2.8,17.8,12.6,31.4,25.1c9.5,8.6,17.1,16.8,22.5,24.4
							c6,8.2,9.4,15.7,10.3,22.2c5.4-9.9,24.3-44.1,28.6-48.9c5.1-5.8,49-40.1,55.2-41.6c0.3-0.1,0.5-0.2,0.6-0.5
							c1.5-2.5-1.3-12.2-4-21.5c-2.2-7.6-4.7-16.3-5.8-23.9c-0.1-0.8-0.5-1.3-1.3-1.7c-2.4-1.1-9.3-0.8-28.1,7.2
							c-12.2,5.2-28.1,13.1-47.1,23.4C258.2,344.3,230.6,360.9,224.7,364.4z"/>
					</g>
				</g>
			</g>
		</g>
		<g>
			<g>
				<g>
					<g>
						<g>
							<g>
								<g>
									<path class="st13" d="M273.4,102.4c0,0-122.5,24.8-140.7,173.5c-0.6,4.6-2.4,8.9-5.3,12.4c-13.5,16.8-19.8,78.7,61.2,92.1
										c2.8,0.5,27.1,2.7,29.9,2.2c4.9-1,10.9-3.8,11.3-12C229.9,370.5,191.7,102,273.4,102.4z"/>
								</g>
							</g>
						</g>
						<g>
							<g>
								<g>
									<path d="M217.1,383.4c-6.2,0-26.1-1.8-28.6-2.3c-43.5-7.2-60-27.9-66.2-44.1c-4.4-11.4-4.2-21.9-3.2-28.8
										c1.1-8.3,4-15.8,7.7-20.5c2.8-3.4,4.6-7.5,5.2-12c4.2-34,14.2-64.3,29.8-90.1c12.5-20.6,28.5-38.4,47.7-52.9
										c16.9-12.8,33.3-20.5,44.1-24.8c5.8-4.2,12.5-6.3,19.7-6.3c0.1,0,0.1,0,0.2,0l7.3,0l-7.1,1.4c-0.1,0-7.7,1.6-19.3,6.2
										c-2.3,1.6-4.4,3.6-6.4,5.9c-10.1,11.4-17.3,31.1-21.6,58.4c-3.5,22.2-5,49.6-4.5,81.3c0.8,50,6.3,96.7,8.6,114.4
										c0.1,0.6,0.1,1,0.1,1.2l0,0c-0.3,6.8-4.4,11.2-11.9,12.7C218.4,383.3,217.8,383.4,217.1,383.4z M249.6,111.2
										c-10.5,4.5-24.7,11.8-39.3,22.8c-19,14.3-34.9,32-47.3,52.5c-15.5,25.6-25.4,55.7-29.5,89.5c-0.6,4.8-2.5,9.2-5.5,12.8
										c-3.6,4.4-6.3,11.8-7.4,19.7c-0.9,6.6-1.1,16.9,3.2,28c6,15.8,22.2,36.1,65,43.1c3.3,0.6,27.1,2.6,29.6,2.2
										c6.8-1.4,10.4-5.2,10.7-11.3c0-0.1-0.1-0.5-0.1-1c-4.5-34.2-24.6-207.2,17.8-255.4C247.7,113.1,248.6,112.1,249.6,111.2z"
										/>
								</g>
							</g>
						</g>
					</g>
				</g>
			</g>
		</g>
		<g>
			<g>
				<g>
					<g>
						<g>
							<g>
								<g>
									<path class="st4" d="M372.9,284.8c-8,77.3-58,103-115.8,97.1c-57.8-5.9-101.6-41.4-93.7-118.7S224.6,128,282.5,134
										C340.3,139.9,380.8,207.5,372.9,284.8z"/>
								</g>
							</g>
						</g>
					</g>
				</g>
			</g>
			<g>
				<g>
					<g>
						<g>
							<g>
								<g>
									<path d="M272.5,383.6c-5.1,0-10.3-0.3-15.6-0.8c-30.9-3.2-55.8-14.5-72.1-32.9c-18.7-20.8-26.2-50.1-22.4-86.8
										c8-77.7,61.9-136.1,120.2-130.1c28.3,2.9,53.3,20.3,70.6,49.1c17.2,28.6,24.5,65.1,20.6,102.7
										c-3.8,36.7-17.1,63.8-39.6,80.4C317.9,377.3,296.9,383.6,272.5,383.6z M274.3,134.6c-54.1,0-102.5,55.7-110,128.8
										c-3.7,36.1,3.7,64.8,21.9,85.3c16.1,18,40.6,29.1,70.9,32.2c30.4,3.1,56.7-2.8,76-17.1c22-16.4,35.1-42.9,38.8-79
										c3.8-37.2-3.4-73.2-20.3-101.5c-16.9-28.2-41.5-45.3-69.1-48.2C279.7,134.7,276.9,134.6,274.3,134.6z"/>
								</g>
							</g>
						</g>
					</g>
				</g>
			</g>
		</g>
		<g class="st14">
			<g>
				<g>
					<g>
						<path class="st15" d="M331.5,367c0,0-6.2,7.8-9.5,11.5c-3.2,3.7-3.9,5-3.9,5l16.3-11L331.5,367z"/>
					</g>
				</g>
			</g>
		</g>
		<g>
			<g>
				<g>
					<g>
						<g>
							<g>
								<g>
									<g>
										<ellipse transform="matrix(1 -4.551167e-03 4.551167e-03 1 -1.0492 1.0254)" cx="224.8" cy="231" rx="9.9" ry="11.1"/>
									</g>
								</g>
							</g>
						</g>
					</g>
				</g>
			</g>
			<g>
				<g>
					<g>
						<g>
							<g>
								<g>
									<g>
										<path d="M222.1,229.4l-0.1,0c-9.1,0.1-12.7-12-12.9-12.5c-0.2-0.5,0.2-1.3,0.7-1.4c0.5-0.2,1.3,0.2,1.4,0.7
											c0,0.1,3.3,10.9,10.7,10.9c0.6,0.1,1.1,0.4,1.1,1.1C223.2,228.8,222.7,229.3,222.1,229.4z"/>
									</g>
								</g>
							</g>
						</g>
					</g>
				</g>
			</g>
		</g>
		<g>
			<g>
				<g>
					<g>
						<g>
							<g>
								<g>
									<g>
										<ellipse transform="matrix(1 -4.551167e-03 4.551167e-03 1 -1.0585 1.3146)" cx="288.3" cy="233.2" rx="9.9" ry="11.1"/>
									</g>
								</g>
							</g>
						</g>
					</g>
				</g>
			</g>
			<g>
				<g>
					<g>
						<g>
							<g>
								<g>
									<g>
										<path d="M285.8,231.4l-0.1,0c-9.1,0.1-12.7-12-12.9-12.5c-0.2-0.5,0.2-1.3,0.7-1.4c0.5-0.2,1.3,0.2,1.4,0.7
											c0,0.1,3.3,10.9,10.7,10.9c0.6,0.1,1.1,0.4,1.1,1.1C286.8,230.9,286.4,231.3,285.8,231.4z"/>
									</g>
								</g>
							</g>
						</g>
					</g>
				</g>
			</g>
		</g>
		<g>
			<g>
				<g>
					<g>
						<g>
							<g>
								<g>
									<path class="st0" d="M193.2,205.9c-1.5,7.8,2.4,9.4-0.9,12.6c-2.1,2.1-8.8-4.8-7.3-12.6c1.5-7.8,9.6-13.8,12.6-13.3
										C200.5,193.1,194.6,198.1,193.2,205.9z"/>
								</g>
							</g>
						</g>
					</g>
				</g>
			</g>
		</g>
		<g class="st14">
			<g>
				<g>
					<g>
						<path class="st15" d="M361,208.9c0,0,32.1,120.3-68.3,169.7c0,0,73.5-12.5,84-72.9C387.1,245.3,384.2,226,361,208.9z"/>
					</g>
				</g>
			</g>
		</g>
		<g>
			<g>
				<g>
					<g>
						<g>
							<g>
								<g>
									<g>
										<path class="st4" d="M245.3,241.4c0,0-1.8,26.4-13.1,19.5c-13.8-8.5-5,14.7,6.4,17.5"/>
									</g>
								</g>
							</g>
						</g>
					</g>
				</g>
				<g>
					<g>
						<g>
							<g>
								<g>
									<g>
										<path d="M238.8,279.5c-0.1,0-0.2,0-0.3-0.1c-7.1-1.7-13.2-10.7-14.1-16.2c-0.5-3,0.4-4.2,1.3-4.9c1.6-1.1,4-0.5,7.3,1.5
											c1.8,1,3.3,1.3,4.6,0.6c4.7-2.4,6.4-14.6,6.7-19.1c0.1-0.6,0.6-1.1,1.2-1c0.6,0.1,1.1,0.6,1,1.2c-0.1,1.8-1.4,17.7-8,21.1
											c-2,1-4.3,0.8-6.8-0.7c-2.8-1.7-4.4-1.9-4.9-1.6c-0.4,0.3-0.5,1.3-0.3,2.6c0.8,4.7,6.2,12.9,12.4,14.4
											c0.6,0.2,1,0.8,0.8,1.4C239.6,279.1,239.3,279.4,238.8,279.5z"/>
									</g>
								</g>
							</g>
						</g>
					</g>
				</g>
			</g>
			<g class="st6">
				<g>
					<g>
						<g>
							<g>
								<g>
									<g>
										<path class="st7" d="M232.4,267c1.7,2.3,3,1.7,3.1,3.4c0,1.1-3.5,1-5.1-1.3c-1.7-2.3-1.2-5.9-0.4-6.6
											C230.9,261.9,230.7,264.7,232.4,267z"/>
									</g>
								</g>
							</g>
						</g>
					</g>
				</g>
			</g>
		</g>
		<g>
			<g>
				<g>
					<g>
						<g>
							<g>
								<g>
									<circle class="st8" cx="245.1" cy="267" r="1.5"/>
								</g>
							</g>
						</g>
					</g>
				</g>
			</g>
		</g>
		<g>
			<g>
				<g>
					<g>
						<path class="st16" d="M500.6,453.7c0,0,7.9,5.7,7.9,12.8c0,7.1,4.3,15.6,5.3,19.6c1,4,12.8,40,9.5,42.2
							c-3.3,2.2-22.7,0-22.7,0V453.7z"/>
					</g>
				</g>
			</g>
			<g>
				<g>
					<g>
						<path d="M515.8,530c-6.3,0-13.9-0.8-15.2-1c-0.4,0-0.7-0.4-0.7-0.7v-74.6c0-0.3,0.2-0.5,0.4-0.7c0.2-0.1,0.5-0.1,0.8,0.1
							c0.1,0.1,2.1,1.5,4.1,3.9c2.7,3.2,4.1,6.5,4.1,9.6c0,4.9,2.1,10.5,3.7,14.7c0.7,1.9,1.3,3.5,1.6,4.7c0.2,0.7,0.7,2.6,1.5,5.1
							c9,29.8,9.6,36.6,7.6,37.9C522.5,529.7,519.3,530,515.8,530z M501.4,527.6c1.5,0.2,5.3,0.5,9.4,0.7c8.9,0.5,11.4-0.2,12.1-0.7
							c0.2-0.2,1.1-1.8-2.1-14.5c-1.9-7.6-4.5-16.1-6.2-21.7c-0.8-2.6-1.3-4.4-1.5-5.2c-0.3-1.2-0.9-2.7-1.6-4.6
							c-1.6-4.3-3.8-10.1-3.8-15.2c0-5-4.3-9.4-6.4-11.3V527.6z"/>
					</g>
				</g>
			</g>
		</g>
		<g>
			<g>
				<g>
					<g>
						<g>
							<g>
								<g>
									
										<ellipse transform="matrix(1 -4.551167e-03 4.551167e-03 1 -1.1432 0.865)" class="st10" cx="189.5" cy="251.6" rx="19.7" ry="10.1"/>
								</g>
							</g>
						</g>
					</g>
				</g>
			</g>
		</g>
		<g>
			<g>
				<g>
					<g>
						<path class="st16" d="M122.6,504.5c0,0-3.3,10.2-3.3,12.8c0,2.6,10.5,16.4,7.9,19.4l378.5-8.6c0,0-1.9-60.2-6-80
							c-4-19.2-0.2-25.2-12.6-33.4c-0.8-0.5-1.4-1.2-1.9-2.1c-2.4-4.7-11-20.7-19.2-31c-9.7-12.3,1.5-16.8-13.7-27.9
							c-2.4-1.7-7.2-3.2-9.8-4c-1.1-0.3-28.5-25.2-37.9-26.7c-9.3-1.5-28.9,19.9-51.5,37s-30.7,21.7-40.7,29.9
							c-10.1,8.2-24.2,49.2-24.2,49.2s-14.9,23.5-22.5,36.4C250.7,500.8,237,509.1,228,517c-9,7.9-7.1,14.9-7.1,14.9
							s-19.1-20.6-19.4-23.9s-4.5-13.1-7.5-16.1c-3-3-14.9-6.7-22.8-5.8S126.6,499.5,122.6,504.5z"/>
					</g>
				</g>
			</g>
			<g>
				<g>
					<g>
						<path d="M127.1,537.5c-0.3,0-0.6-0.2-0.7-0.4c-0.1-0.3-0.1-0.6,0.1-0.8c0.3-0.3,0.6-1.4-0.8-4.6c-1-2.4-2.6-5.2-4-7.6
							c-2-3.6-3.2-5.6-3.2-6.7c0-2.7,3.2-12.7,3.3-13.1c0-0.1,0.1-0.2,0.1-0.2c2.6-3.3,17.1-8.7,23.2-10.9
							c10.9-3.9,22.1-7.2,25.9-7.7c7.9-0.9,20.1,2.7,23.4,6c3.2,3.2,7.3,13,7.7,16.5c0.2,2.1,10.5,13.9,17.8,21.9
							c0.1-2.8,1.3-7.9,7.5-13.4c1.6-1.4,3.4-2.9,5.3-4.4c8.4-6.9,20-16.2,32.3-36.9c7.4-12.3,21.6-34.8,22.5-36.3
							c0.9-2.6,14.4-41.3,24.4-49.5c5.1-4.2,9.6-7.4,15.9-11.8c6.1-4.3,13.7-9.7,24.9-18.1c7.5-5.6,14.8-11.9,21.2-17.4
							c13.6-11.6,24.3-20.8,30.9-19.8c7.4,1.2,25.3,16.2,33.8,23.4c2,1.7,3.8,3.2,4.2,3.4l0.2,0.1c2.7,0.8,7.3,2.3,9.7,4
							c8.8,6.4,9,10.8,9.3,15.5c0.2,3.6,0.4,7.3,4.6,12.5c8.3,10.4,16.8,26.5,19.3,31.2c0.4,0.7,0.9,1.4,1.6,1.8
							c9.2,6.1,9.8,11.2,10.8,20.5c0.4,3.6,0.9,8,2,13.4c4.1,19.6,6,79.5,6,80.1c0,0.2-0.1,0.4-0.2,0.5c-0.1,0.1-0.3,0.2-0.5,0.2
							l-377.4,8.6C128.3,537.5,127.2,537.5,127.1,537.5z M123.3,504.9c-0.9,2.9-3.2,10.5-3.2,12.5c0,0.8,1.6,3.5,3,6
							c3.3,5.7,5.6,10.1,5.2,12.7l376.6-8.6c-0.2-7-2.1-60.8-5.9-79.1c-1.1-5.5-1.6-9.9-2.1-13.5c-1.6-13.8-4.5-15.7-10.2-19.4
							c-0.9-0.6-1.6-1.4-2.1-2.4c-2.4-4.6-10.9-20.6-19.1-30.9c-4.4-5.6-4.7-9.7-4.9-13.3c-0.3-4.5-0.5-8.4-8.7-14.4
							c-2.2-1.6-6.8-3-9.2-3.8l-0.3-0.1c-0.3-0.1-0.9-0.5-4.6-3.7c-7.8-6.6-26.1-21.9-33.1-23c-5.9-0.9-16.9,8.5-29.7,19.4
							c-6.4,5.5-13.7,11.8-21.3,17.4c-11.2,8.5-18.8,13.8-24.9,18.1c-6.2,4.4-10.7,7.6-15.8,11.7c-9.8,8-23.8,48.5-23.9,48.9
							c0,0.1,0,0.1-0.1,0.2c-0.1,0.2-15,23.7-22.5,36.4c-12.4,20.9-24.1,30.4-32.7,37.3c-1.9,1.5-3.6,3-5.2,4.4
							c-8.5,7.5-6.9,13.9-6.9,14.2c0.1,0.3-0.1,0.7-0.4,0.8c-0.3,0.2-0.7,0.1-0.9-0.1c-3.2-3.5-19.2-20.9-19.6-24.3
							c-0.4-3.2-4.4-12.8-7.3-15.6c-2.7-2.7-14.5-6.4-22.2-5.6C163.9,487.8,127.5,500,123.3,504.9z"/>
					</g>
				</g>
			</g>
		</g>
		<g>
			<g>
				<g>
					<g>
						<g>
							<g>
								<g>
									
										<ellipse transform="matrix(1 -4.551167e-03 4.551167e-03 1 -1.1395 1.4507)" class="st10" cx="318.2" cy="251.1" rx="19.7" ry="10.1"/>
								</g>
							</g>
						</g>
					</g>
				</g>
			</g>
		</g>
		<g>
			<g>
				<g>
					<g>
						<g>
							<g>
								<g>
									<path class="st13" d="M257.9,92L257.9,92c14.9-10.7,45.3,0,45.6,0l0,0c118,11.3,129,136.1,129,136.1
										c5,29.4,10.1,130.1-5.1,150.9c-19.7,27-106.5,20.9-101.6-26.8c5-47.7,40.8-14.3,44.6-82.1S315,199.1,315,199.1
										c-46.7-4.9-45.7-31.7-45.7-32.8l0,0c-19.4,15.1-7.7,26.6-6.8,27.3l0,0c-29.2-3-11.5-29.8-10.4-31.5l0,0
										c-24.5,15.9-5.1,28.9-3.4,30v0.1c-36.9-3.9-23.4-41.2-8.3-68.4c-19,10.2-49.3,25.1-54.3,48.2c-5.7,26-23.3,34.9-31.7,37.8
										c-2.2,0.7-4.3-1.1-3.9-3.3C150.4,206.6,159,93.4,257.9,92z"/>
								</g>
							</g>
						</g>
						<g>
							<g>
								<g>
									<path d="M383.3,395.6c-10.8,0-21.6-1.9-30.8-5.4c-9-3.5-16-8.3-20.8-14.4c-5.3-6.8-7.6-14.8-6.6-23.9
										c2.3-22,11-27.1,20.3-32.4c11-6.4,22.3-13,24.3-49.7c1.2-21.4-3.8-38.5-14.8-50.7c-16.1-17.9-39.6-19.3-39.8-19.3l0,0
										c-10.6-1.1-19.6-3.4-26.8-6.9c-5.8-2.9-10.5-6.5-13.8-10.8c-4.5-5.8-5.5-11.4-5.7-14.3c-6.3,5.2-9.5,10.4-9.7,15.6
										c-0.1,5.9,4,9.7,4,9.7l1.8,1.6l-2.4-0.2c-8.4-0.9-13.8-3.8-16.1-8.6c-3.3-6.9,0.5-15.9,3.3-21c-6.1,4.5-9.2,9.2-9.2,13.9
										c0,7.1,7.1,12,8.6,12.9l0.3,0.2v1.4l-0.8-0.1c-10.8-1.1-18.2-5.2-21.8-12.2c-3.4-6.5-3.5-15.7-0.3-27.1
										c2.3-8.2,6.4-17.7,12-28c-0.4,0.2-0.8,0.4-1.2,0.7c-9.3,5-21,11.2-30.7,18.8c-11.3,8.8-17.8,17.7-19.8,27.1
										c-5.6,25.6-22.6,35-32.2,38.3c-1.3,0.4-2.6,0.2-3.6-0.7c-1-0.8-1.4-2.1-1.3-3.4c0.2-3.1,9.9-113.7,107.9-115.4
										c6-4.2,15-5.6,26.7-4.3c4.2,0.5,10.8,1.6,18.9,4.2c0.2,0,0.3,0.1,0.3,0.1c27,2.6,50.7,11.4,70.2,26.2
										c15.7,11.8,28.8,27.5,39,46.5c17.1,31.9,20.2,62.9,20.4,64.1c2.4,14.4,5,46.9,5,78.8c0,48.4-5.6,66.2-10.3,72.7
										c-5.7,7.9-17.6,13.5-32.6,15.5C391.4,395.4,387.3,395.6,383.3,395.6z M315,198.4c0.5,0,6.3,0.4,14.2,2.9
										c7.4,2.4,18.1,7.3,26.7,16.8c11.3,12.6,16.4,30,15.2,51.8c-0.9,16.7-3.9,28.8-9.1,37c-4.6,7.3-10.4,10.6-15.9,13.8
										c-8.9,5.2-17.3,10.1-19.5,31.3c-1,9.5,1.1,26.9,26.5,36.7c12.4,4.8,27.8,6.4,42.2,4.5c14.6-1.9,26.1-7.4,31.6-14.9
										c8.7-11.9,10-50.1,10-71.8c0-31.9-2.6-64.2-5-78.6l0-0.1c0-0.3-3-31.5-20.2-63.6c-10.1-18.8-23.1-34.3-38.6-46
										c-19.4-14.6-42.7-23.3-69.5-25.9c-0.1,0-0.2,0-0.6-0.2c-7.9-2.5-14.5-3.6-18.6-4.1c-11.5-1.3-20.2,0-25.9,4.1l-0.2,0.1
										l-0.2,0c-22.2,0.3-41.6,6.4-57.7,18.1c-12.9,9.4-23.7,22.4-32.1,38.6c-13.9,26.9-16.6,53.9-16.8,56.9l0,0l-0.1,0.4
										c-0.1,0.8,0.1,1.5,0.7,2c0.6,0.5,1.4,0.7,2.2,0.4c9.3-3.2,25.8-12.4,31.2-37.2c2.1-9.8,8.8-18.9,20.3-28
										c9.8-7.7,21.5-13.9,30.9-18.9c1.2-0.6,2.3-1.3,3.5-1.9l2.3-1.2l-1.2,2.2c-17.9,32.2-16.9,48.2-12.9,55.9
										c3.1,5.9,9.1,9.6,17.9,11c-2.8-2.3-7.1-6.8-7.1-12.6c0-5.9,4.2-11.6,12.7-17.1l2.9-1.9l-1.9,3c-2.1,3.3-8.7,14.6-5,22.5
										c1.9,4,6.2,6.5,12.9,7.5c-1.4-1.8-3.3-5-3.1-9.3c0.1-5.9,4-11.9,11.4-17.6l1.2-0.9l0,1.6c0,1.8,0.3,8.2,5.4,14.8
										c3.2,4.1,7.7,7.6,13.3,10.4C295.8,195,304.6,197.3,315,198.4z"/>
								</g>
							</g>
						</g>
					</g>
				</g>
			</g>
		</g>
		<g>
			<g>
				<g>
					<g>
						<g>
							<path class="st4" d="M144,473.5c-0.1-1.2,1.9-7,3.6-7.5c1.7-0.5,17.7-9,19.2-6c1.5,3-1.2,11.7-1.5,14.4
								c-0.2,1.8,7.8,15,13.4,24c3.1,5,1.6,11.6-3.4,14.7c-7,4.3-16.4,9.2-21.9,9.7c-6,0.5-15.3-2.2-20.9-4.1c-2.8-0.9-5-3-6.1-5.7
								c-3.2-8.1-11.2-24.3-16.2-27.3c-6-3.7-8.9-14.7-8.7-19.9c0.2-5.2-3-10.5-3-10.5c-7-3-6.7-11-6-14.7c0.7-3.7-1-7.2-6.5-12.7
								s-2-16.9-1-21.2s-3.5-6.7-5.7-13.2c-2.2-6.5,0.2-12,3.2-22.4c3-10.5,24.4-12.1,24.4-12.1c3.5-4.2-1.2-18.3-1.2-18.3
								c-2.2-5.7-1.5-25.9-1.5-25.9c1-21.9,13-19.7,13-19.7c13-0.5,11.6,24.7,13.1,32.1c1.5,7.5,13.1,26.4,11.6,26.2
								c-9.7-1.7-34.9,5.6-34.9,5.6s27-9.1,34.9-5.6c0,0,27.8-0.4,23.9,27.9c0,0,0.1,2.4-0.9,1.9c-4.4-2.4-23.5,3.9-28,5.4
								c-5.7,1.8-29.1,6.7-29.1,6.7c8.5-3.2,44.3-13.5,57.2-12.1c12.8,1.4,12.1,21.8,7.3,28.5c-4.7,6.7-48.3,13.5-48.3,13.5
								c14.3,0.2,48.3-13.5,48.3-13.5c8.6,14.9-2.5,21.9-2.5,21.9c-17.6,14.2-40.9,14.2-40.9,14.2c10,0.4,40.9-14.2,40.9-14.2
								c8.8,10.6-1.9,23.8-4.1,25.8c-2.2,2-15.1,5.3-18.1,6.6C144.7,467.3,144,473.5,144,473.5"/>
						</g>
					</g>
				</g>
				<g>
					<g>
						<g>
							<path d="M151.8,523.5c-5.8,0-13.7-2.2-19.6-4.1c-3-1-5.3-3.2-6.5-6.1c-3-7.7-11-24-15.9-27c-6.4-4-9.2-15.3-9-20.5
								c0.2-4.5-2.3-9-2.8-9.9c-8-3.6-6.5-13.4-6.2-15.3c0.7-3.5-1-6.8-6.3-12.1c-5.3-5.3-2.7-15.6-1.5-20.5
								c0.1-0.5,0.2-0.9,0.3-1.2c0.5-2.2-0.6-3.9-2.2-6.2c-1.2-1.8-2.6-3.8-3.5-6.7c-1.9-5.6-0.4-10.5,1.8-18
								c0.5-1.5,0.9-3.1,1.4-4.8c2.9-10.2,22-12.3,24.7-12.5c2.4-3.5-0.2-13.7-1.5-17.5c-2.3-5.8-1.6-25.3-1.5-26.1
								c0.4-8.9,2.6-15,6.6-18.2c3.2-2.6,6.5-2.2,7-2.1c0.1,0,0.2,0,0.3,0c10.5,0,11.8,15.7,12.6,26.2c0.2,2.7,0.4,5,0.7,6.5
								c0.8,4.2,5,12.2,8,18.1c2.4,4.6,3.4,6.6,3.6,7.6c2.7,0.1,12.7,0.9,19,8.1c4.4,4.9,6,11.8,4.8,20.5c0,0.4,0,0.9-0.1,1.4
								c3.5,0.8,6.3,3.1,7.9,6.8c3.2,7,2,17.3-1.2,22.2c2.5,4.4,4.7,10.7,1.8,16.8c-1.3,2.8-3.2,4.5-4.1,5.2
								c3.5,4.5,4.1,10.1,1.8,16.2c-1.6,4.1-4.1,7.5-5.6,9.2c0.2,0.2,0.4,0.4,0.5,0.6c1.2,2.3,0.1,7.3-0.8,11.3
								c-0.3,1.5-0.6,2.7-0.7,3.5c0,0.5,0.9,3.6,13.3,23.6c1.6,2.6,2.1,5.6,1.4,8.6c-0.7,2.9-2.5,5.4-5,7
								c-3.5,2.1-15.3,9.2-22.2,9.8C152.9,523.5,152.4,523.5,151.8,523.5z M107.1,359.6c-0.6,0-21,1.8-23.9,11.6
								c-0.5,1.7-1,3.3-1.4,4.8c-2.3,7.5-3.6,12-1.8,17.2c0.9,2.7,2.2,4.6,3.4,6.4c1.6,2.4,3,4.5,2.3,7.2c-0.1,0.4-0.2,0.8-0.3,1.2
								c-1.2,4.7-3.6,14.6,1.1,19.4c5.6,5.6,7.4,9.3,6.6,13.3c-0.4,1.8-1.8,10.8,5.6,14c0.1,0.1,0.2,0.1,0.3,0.2
								c0.1,0.2,3.3,5.5,3.1,10.8c-0.2,4.8,2.4,15.7,8.4,19.4c5.2,3.2,13.2,19.6,16.4,27.6c1,2.6,3.1,4.5,5.7,5.4
								c5.2,1.7,14.7,4.5,20.7,4c6.6-0.5,18.2-7.5,21.6-9.6c2.3-1.4,3.9-3.6,4.5-6.2c0.6-2.6,0.2-5.3-1.2-7.6
								c-13.7-22-13.5-23.8-13.5-24.3c0.1-0.8,0.4-2.1,0.7-3.6c0.7-3.4,1.8-8.6,0.9-10.5c0,0-0.1-0.2-0.4-0.2
								c-1.8,1.4-7.3,3.1-12.2,4.6c-2,0.6-3.9,1.2-5,1.6c-0.4,0.2-0.6,0.3-0.8,0.3c-0.2,0.1-0.3,0.2-0.5,0.3c-0.9,0.9-1.9,3.3-2.4,5
								c-0.1,0.7-0.2,1.2-0.3,1.6c0,0.3-0.3,0.6-0.6,0.6c0,0,0,0,0,0c-0.3,0-0.6-0.3-0.6-0.6c0-0.3,0.1-0.9,0.3-1.7
								c0.4-1.8,1.3-4.8,3.1-6.1c0.2-0.2,0.4-0.3,0.6-0.3c0.2-0.1,0.5-0.2,0.8-0.3c0.6-0.2,1.3-0.6,2.2-1c7.3-3.4,12.4-5.4,15.1-5.3
								c2.6-2.5,11.8-14.5,4.2-24.3c-9.1,7.1-19.5,10.6-26.8,12.2c-5.3,1.2-9.8,1.6-12.1,1.7c-0.7,0.1-1.3,0.1-1.9,0.1
								c-0.3,0-0.6-0.3-0.6-0.6c0-0.3,0.3-0.6,0.6-0.6c0,0,0.7,0,1.9-0.1c11.1-1.1,37.5-13.5,38.7-14c0.3-0.2,2.7-1.9,4.2-5.1
								c2-4.4,1.5-9.5-1.6-15.2c-3.7,3.5-16.5,6.9-27.9,9.3c-7.6,2.2-15.2,3.8-20.3,3.7c-0.3,0-0.6-0.3-0.6-0.6
								c0-0.3,0.2-0.6,0.5-0.7c5.3-0.8,12.4-2.1,19.5-3.6c13.2-3.7,26.8-9.1,28.5-9.8c3-4.5,4.2-14.5,1.2-21.1
								c-1.6-3.6-4.2-5.7-7.7-6.2c-0.2,0-0.4,0-0.6-0.1c-2.7-0.3-6.4,0-10.4,0.5c-4,0.9-9.5,2.3-16.9,4.7l-0.3,0.1
								c-5.6,1.8-28.3,6.5-29.2,6.7c-0.3,0.1-0.6-0.1-0.7-0.4c-0.1-0.3,0.1-0.6,0.4-0.8c7-2.7,30.4-9.4,46.4-11.6
								c5.7-1.2,9.3-1.4,11.1-0.6c0.1-0.3,0.1-0.8,0.1-1.2c0,0,0-0.1,0-0.1c1.1-8.3-0.4-14.8-4.5-19.5c-6.5-7.4-17.6-7.7-18.7-7.7
								c-0.1,0-0.1,0-0.2,0c-9.5-1.7-34.3,5.5-34.6,5.6C107.2,359.6,107.1,359.6,107.1,359.6z M164.2,436.9
								c-5.5,2.4-13.9,6-21.5,8.5C149.1,444,156.9,441.5,164.2,436.9z M166.7,414.5c-1.3,0.5-2.8,1-4.4,1.6
								C164,415.6,165.5,415.1,166.7,414.5z M139.9,387c-1.7,0.4-3.4,0.8-5,1.1c-5,1.2-10,2.5-14.4,3.8c6.5-1.4,13.5-3.1,16.3-4
								l0.3-0.1C138,387.5,139,387.2,139.9,387z M116.4,295.7c-1.1,0-3.2,0.3-5.3,1.9c-3.6,2.9-5.7,8.8-6.1,17.2
								c0,0.2-0.7,20.1,1.5,25.7c0,0,0,0,0,0c0.2,0.5,4,12,2,17.4c5.6-1.8,25-7.7,32.8-5.4c-0.6-1.3-2-4.1-3.3-6.7
								c-3.2-6.3-7.3-14.1-8.1-18.4c-0.3-1.6-0.5-3.9-0.7-6.6c-0.8-10-2-25-11.4-25c-0.1,0-0.2,0-0.3,0c0,0-0.1,0-0.1,0
								C117.1,295.7,116.8,295.7,116.4,295.7z"/>
						</g>
					</g>
				</g>
			</g>
			<g>
				<g>
					<g>
						<g>
							<path class="st4" d="M111.5,335.5c0,0,10.5-0.5,14.3-3.1C125.8,332.4,120.7,339.5,111.5,335.5z"/>
						</g>
					</g>
				</g>
				<g>
					<g>
						<g>
							<path d="M116.9,337.3c-1.7,0-3.6-0.4-5.7-1.3c-0.3-0.1-0.4-0.4-0.4-0.7c0.1-0.3,0.3-0.5,0.6-0.5c0.1,0,10.3-0.5,14-3
								c0.2-0.2,0.6-0.1,0.8,0.1s0.2,0.6,0.1,0.8C126.3,332.8,123,337.3,116.9,337.3z M114.7,335.9c3.4,0.7,6-0.3,7.8-1.4
								C120,335.2,117,335.6,114.7,335.9z"/>
						</g>
					</g>
				</g>
			</g>
			<g>
				<g>
					<g>
						<g>
							<path class="st4" d="M158,462.7c0,0-1.9,19.1-5.1,21.3C152.9,484,161.3,480.7,158,462.7z"/>
						</g>
					</g>
				</g>
				<g>
					<g>
						<g>
							<path d="M152.9,484.6c-0.2,0-0.4-0.1-0.6-0.3c-0.1-0.3-0.1-0.6,0.2-0.8c2.2-1.5,4.1-13.6,4.8-20.9c0-0.3,0.3-0.5,0.6-0.6
								c0.3,0,0.6,0.2,0.6,0.5c3.4,18.4-5.1,21.9-5.5,22C153,484.6,153,484.6,152.9,484.6z M158,467.6c-0.6,4.2-1.5,10-2.9,13.7
								c0.4-0.4,0.7-1,1-1.6C157.4,477.5,158.5,473.7,158,467.6z"/>
						</g>
					</g>
				</g>
			</g>
		</g>
		<g>
			<g>
				<g>
					<g>
						<path class="st16" d="M420.5,414.2c-2.2-3-28-10.5-45.9-16.8c-17.9-6.4-31.5,0.4-38.6,3.4c-7.1,3-43.7,46-50.8,48.2
							c-7.1,2.2-18.3,10.1-17.1,13.7c1.2,3.6-15.8,26.3-18.4,28.8s-10.5,8.7-14.9,10.5S228,517,228,517s-11.2,9.8-7.1,14.9"/>
					</g>
				</g>
			</g>
			<g>
				<g>
					<g>
						<path d="M220.9,532.7c-0.2,0-0.4-0.1-0.6-0.3c-4.2-5.3,5.4-14.4,7-15.8c0.4-2.2,2.6-13.4,7.1-15.3c4.3-1.8,12.1-7.8,14.7-10.4
							c1.2-1.2,6-7.3,10.6-13.9c8.1-11.8,7.7-13.9,7.7-14.1c-0.3-0.8-0.1-1.7,0.4-2.6c2.1-4.2,11.2-10.1,17.2-12
							c3.5-1.1,15.7-13.8,26.4-25c10.7-11.2,20.8-21.7,24.4-23.2c0.4-0.2,0.9-0.4,1.3-0.6c7.2-3.1,20.7-8.9,37.8-2.8
							c5.6,2,11.9,4.1,18.1,6.1c16.4,5.4,26.6,8.8,28.2,11c0.2,0.3,0.2,0.8-0.1,1c-0.3,0.2-0.8,0.2-1-0.1
							c-1.4-1.9-15.2-6.4-27.4-10.4c-6.2-2-12.5-4.1-18.1-6.1c-16.5-5.9-29.1-0.5-36.7,2.8c-0.5,0.2-0.9,0.4-1.4,0.6
							c-3.3,1.4-13.7,12.3-23.9,22.9c-11.9,12.4-23.1,24.1-27,25.4c-6.1,1.9-14.5,7.7-16.3,11.3c-0.2,0.4-0.4,1-0.3,1.5
							c0.2,0.7,0.9,2.7-7.9,15.5c-4.3,6.3-9.3,12.7-10.7,14.1c-2.8,2.7-10.7,8.8-15.2,10.7c-3.4,1.4-5.7,10.9-6.3,14.4
							c0,0.2-0.1,0.3-0.2,0.4c-3,2.6-10,10.1-7,13.9c0.3,0.3,0.2,0.8-0.1,1C221.3,532.6,221.1,532.7,220.9,532.7z"/>
					</g>
				</g>
			</g>
		</g>
		<g>
			<g>
				<g>
					<g>
						<path class="st16" d="M482.1,528.7c0,0,3.7-21.8,0-34.9c-3.7-13.1-41.8-70.3-48.2-71"/>
					</g>
				</g>
			</g>
			<g>
				<g>
					<g>
						<path d="M482.1,529.5c0,0-0.1,0-0.1,0c-0.4-0.1-0.7-0.5-0.6-0.9c0-0.2,3.7-21.8,0-34.6c-1.9-6.8-13.3-25.5-23-39.9
							c-13.9-20.6-22.5-30.3-24.5-30.5c-0.4,0-0.7-0.4-0.7-0.8c0-0.4,0.4-0.7,0.8-0.7c1.1,0.1,3.4,1.3,10.2,9.8
							c4.3,5.4,9.8,13,15.4,21.4c14,20.8,21.8,35.3,23.2,40.3c3.7,13.1,0.2,34.3,0,35.2C482.8,529.2,482.5,529.5,482.1,529.5z"/>
					</g>
				</g>
			</g>
		</g>
		<g>
			<g>
				<g>
					<g>
						<path class="st4" d="M253,317.1c0,0,5,0.7,9-2"/>
					</g>
				</g>
			</g>
			<g>
				<g>
					<g>
						<path d="M254.6,318c-1,0-1.7-0.1-1.7-0.1c-0.5-0.1-0.8-0.5-0.7-1c0.1-0.5,0.5-0.8,1-0.7l0,0c0,0,4.7,0.7,8.3-1.8
							c0.4-0.3,0.9-0.2,1.2,0.2c0.3,0.4,0.2,0.9-0.2,1.2C259.7,317.7,256.6,318,254.6,318z"/>
					</g>
				</g>
			</g>
		</g>
		<g>
			<g>
				<g>
					<g>
						<path class="st13" d="M150.4,212.4c0-6,3.5-18.7,3.9-19.8c1.3-3.6,1.7,2.9,4.2,0c3.4-3.7,57.9-70.8,70.6-72s17.6-3.3,14.4,0
							c-3.2,3.3,23.6,10.1,16.4,10.8c-7.2,0.7-6.5,16.6-26.7,13.5c-8-1.2-46.7,29.8-50.1,39.5c-3.4,9.7-26.9,65.8-28.8,53.4
							C152.9,228,150.4,217.1,150.4,212.4z"/>
					</g>
				</g>
			</g>
		</g>
		<g>
			<g>
				<g>
					<path class="st16" d="M128.3,536h395.6l0.7-11.2C516.2,517.8,128.3,536,128.3,536z"/>
				</g>
			</g>
		</g>
		<g>
			<g>
				<g>
					<path d="M523.9,537H128.3c-0.5,0-0.9-0.4-0.9-0.9c0-0.5,0.4-0.9,0.9-0.9H523c0-2.7,0-10.9-0.8-15.9c-0.1-0.5,0.2-0.9,0.7-1
						c0.5-0.1,0.9,0.2,1,0.7c1,6.2,0.9,16.6,0.9,17C524.8,536.6,524.4,537,523.9,537z"/>
				</g>
			</g>
		</g>
	</g>
	<g>
		<path class="st17" d="M287.4,296c0,0-7.6,13.3-26.2,15s-33.8-3-44.9-10.5C216.4,300.5,267.5,308,287.4,296z"/>
		<path d="M253.7,312.3c-17.7,0-30.2-5.8-37.9-11c-0.4-0.3-0.5-0.8-0.4-1.2c0.2-0.4,0.6-0.7,1.1-0.6c0.5,0.1,51,7.3,70.4-4.4
			c0.4-0.2,0.9-0.2,1.2,0.1c0.3,0.3,0.4,0.8,0.2,1.2c-0.3,0.6-8.1,13.8-27,15.5C258.7,312.2,256.1,312.3,253.7,312.3z M220.8,302.1
			c8.7,5,22.1,9.6,40.4,7.9c12-1.1,19.3-7.2,22.9-11.2c-8.7,3.7-22,5.3-39.6,4.9C234.7,303.5,225.9,302.7,220.8,302.1z"/>
	</g>
	<g>
		<g>
			<path class="st18" d="M306,281.8c-0.4,7.6-8.1,15.8-15,15.8c6.9,0,14.4,8.1,14.6,15.8c-0.2-7.6,7-15.8,13.9-15.8
				C312.6,297.6,305.7,289.4,306,281.8z"/>
		</g>
		<g>
			<path d="M305.6,314.3c-0.5,0-1-0.4-1-1c-0.2-7-7.3-14.8-13.6-14.8c-0.6,0-1-0.4-1-1s0.4-1,1-1c6.3,0,13.6-7.8,14-14.8
				c0-0.6,0.5-1,1-1c0.5,0,1,0.5,1,1c0,0,0,0,0,0c-0.2,3.7,1.5,7.7,4.4,10.7c2.4,2.5,5.4,4,8.1,4c0.6,0,1,0.4,1,1s-0.4,1-1,1
				c-2.7,0-5.7,1.5-8.2,4c-3,3.1-4.7,7.1-4.7,10.7c0,0,0,0,0,0C306.6,313.9,306.2,314.3,305.6,314.3
				C305.6,314.3,305.6,314.3,305.6,314.3z M295.6,297.6c4.2,1.8,8.1,5.9,9.9,10.5c0.9-2.5,2.4-4.9,4.3-6.9c1.6-1.6,3.3-2.8,5.2-3.6
				c-1.8-0.8-3.5-2-5-3.6c-1.9-2-3.4-4.4-4.2-6.9C303.9,291.6,299.9,295.8,295.6,297.6z"/>
		</g>
	</g>
</g>
<g>
	<g>
		<g>
			<g>
				<path class="st16" d="M61,107.1l-7,21.2h-9l22.9-67.4h10.5l23,67.4h-9.3l-7.2-21.2H61z M83.1,100.3l-6.6-19.4
					C75,76.5,74,72.5,73,68.6h-0.2c-1,4-2.1,8.1-3.4,12.2l-6.6,19.5H83.1z"/>
			</g>
		</g>
		<g>
			<g>
				<path class="st16" d="M105.6,131.3H90l-7.2-21.2H63.2l-7,21.2H40.8l24.9-73.4h14.8L105.6,131.3z M94.3,125.3h3l-21-61.4h-6.2
					l-20.9,61.4h2.6l7-21.2h28.2L94.3,125.3z M87.3,103.3H58.6l7.9-23.5c1.1-3.4,2.2-7.3,3.3-12l0.6-2.3h4.9l0.8,3
					c0.9,3.6,1.9,7.3,3.3,11.4L87.3,103.3z M67,97.3h11.9l-5.3-15.4c-0.3-0.8-0.5-1.5-0.7-2.3c-0.2,0.7-0.4,1.4-0.7,2.1L67,97.3z"/>
			</g>
		</g>
	</g>
	<g>
		<g>
			<g>
				<path class="st16" d="M110.7,93c0-5-0.1-9.1-0.4-13.1h7.7l0.4,7.8h0.3c2.7-4.6,7.2-8.9,15.2-8.9c6.6,0,11.6,4,13.7,9.7h0.2
					c1.5-2.7,3.4-4.8,5.4-6.3c2.9-2.2,6.1-3.4,10.7-3.4c6.4,0,15.9,4.2,15.9,21v28.5h-8.6v-27.4c0-9.3-3.4-14.9-10.5-14.9
					c-5,0-8.9,3.7-10.4,8c-0.4,1.2-0.7,2.8-0.7,4.4v29.9H141v-29c0-7.7-3.4-13.3-10.1-13.3c-5.5,0-9.5,4.4-10.9,8.8
					c-0.5,1.3-0.7,2.8-0.7,4.3v29.2h-8.6V93z"/>
			</g>
		</g>
		<g>
			<g>
				<path class="st16" d="M182.8,131.3h-14.6v-30.4c0-11.9-5.6-11.9-7.5-11.9c-3.8,0-6.5,3-7.6,6c-0.3,1-0.5,2.3-0.5,3.4v32.9H138
					v-32c0-3.1-0.7-10.3-7.1-10.3c-4.1,0-7,3.5-8,6.7l-0.1,0.2c-0.3,0.8-0.5,2-0.5,3.2v32.2h-14.6V93c0-5.4-0.1-9.2-0.4-12.9
					l-0.2-3.2h13.8l0.2,3.3c3.5-2.9,7.8-4.4,12.9-4.4c5.8,0,10.9,2.7,14.1,7.2c1-1.2,2.2-2.2,3.4-3.2c3.6-2.8,7.5-4,12.5-4
					c8.7,0,18.9,6.3,18.9,24V131.3z M174.2,125.3h2.6V99.8c0-16.7-9.9-18-12.9-18c-3.2,0-5.6,0.6-7.9,2.1c1.5-0.6,3.1-0.9,4.7-0.9
					c4.1,0,13.5,1.7,13.5,17.9V125.3z M144,125.3h2.6V98.4c0-1.8,0.3-3.7,0.9-5.3c0.2-0.5,0.4-1.1,0.6-1.6h-2.6l-0.7-2
					c-1.8-4.8-5.9-7.7-10.9-7.7c-2.9,0-5.4,0.7-7.6,2c1.4-0.5,2.9-0.8,4.6-0.8c8,0,13.1,6.4,13.1,16.3V125.3z M113.7,125.3h2.6V99.1
					c0-2,0.3-3.8,0.9-5.3c0.3-1,0.8-2.1,1.4-3.1h-3l-0.4-7.8h-1.7c0.1,2.9,0.2,6.1,0.2,10.1V125.3z"/>
			</g>
		</g>
	</g>
	<g>
		<g>
			<g>
				<path class="st16" d="M220.9,128.3l-0.7-6.1h-0.3c-2.7,3.8-7.9,7.2-14.8,7.2c-9.8,0-14.8-6.9-14.8-13.9
					c0-11.7,10.4-18.1,29.1-18v-1c0-4-1.1-11.2-11-11.2c-4.5,0-9.2,1.4-12.6,3.6l-2-5.8c4-2.6,9.8-4.3,15.9-4.3
					c14.8,0,18.4,10.1,18.4,19.8v18.1c0,4.2,0.2,8.3,0.8,11.6H220.9z M219.6,103.6c-9.6-0.2-20.5,1.5-20.5,10.9
					c0,5.7,3.8,8.4,8.3,8.4c6.3,0,10.3-4,11.7-8.1c0.3-0.9,0.5-1.9,0.5-2.8V103.6z"/>
			</g>
		</g>
		<g>
			<g>
				<path class="st16" d="M205.1,132.4c-11.7,0-17.8-8.5-17.8-16.9c0-5.2,1.8-9.6,5.2-13.1c4.9-4.9,12.9-7.5,23.8-7.9
					c-0.5-4.3-3-6.2-7.9-6.2c-3.8,0-8,1.2-11,3.1l-3.2,2.1l-4-11.6l2-1.3c4.7-3,11.1-4.8,17.5-4.8c13.8,0,21.4,8.1,21.4,22.8v18.1
					c0,4.6,0.3,8.3,0.8,11.1l0.6,3.5h-14.3l-0.3-2.9C214.3,130.9,209.9,132.4,205.1,132.4z M219,100.5c-10.5,0-18.1,2.1-22.2,6.2
					c-2.3,2.3-3.5,5.2-3.5,8.8c0,5.4,3.6,10.9,11.8,10.9c1.8,0,3.4-0.3,4.8-0.7c-0.8,0.1-1.6,0.2-2.5,0.2c-6.8,0-11.3-4.6-11.3-11.4
					c0-3.5,1.2-6.4,3.5-8.7c3.8-3.7,10.4-5.4,20.1-5.2l2.9,0.1V112c0,1.5-0.4,2.9-0.7,3.7c-0.4,1.1-1,2.3-1.7,3.5h2.7l0.7,6.1h1.9
					c-0.2-2.5-0.4-5.3-0.4-8.6V98.6c0-11.3-5-16.8-15.4-16.8c-4.4,0-8.8,1-12.3,2.7l0,0.1c3.4-1.5,7.2-2.3,10.9-2.3
					c8.9,0,14,5.2,14,14.2v4l-3,0C219.3,100.5,219.1,100.5,219,100.5z M216.6,106.6c-7.7,0.2-11.2,2-12.8,3.5
					c-1.2,1.1-1.7,2.5-1.7,4.4c0,4.7,3.3,5.4,5.3,5.4c5,0,7.9-3.1,8.9-6.1c0.2-0.6,0.3-1.3,0.3-1.8V106.6z"/>
			</g>
		</g>
	</g>
	<g>
		<g>
			<g>
				<path class="st16" d="M236.8,123.2l21.9-28.5c2.1-2.6,4.1-4.9,6.3-7.5V87h-26.2v-7.1h36.9l-0.1,5.5L254,113.5
					c-2,2.7-4,5.1-6.2,7.6v0.2h28.3v7h-39.3V123.2z"/>
			</g>
		</g>
		<g>
			<g>
				<path class="st16" d="M279.1,131.3h-45.3v-9.1l22.5-29.3c0.8-1,1.6-1.9,2.4-2.9h-22.9V76.9h43l-0.2,9.5l-22.2,28.9
					c-0.7,1-1.5,2-2.3,3h25V131.3z M239.8,125.3h33.3v-1h-28.3v-4.3l0.7-0.9c2.4-2.8,4.3-5.1,6-7.4l21-27.4l0-1.5h-30.8V84H268v4.3
					l-2.4,2.8c-1.6,1.8-3,3.6-4.6,5.4l-21.2,27.6V125.3z"/>
			</g>
		</g>
	</g>
	<g>
		<g>
			<g>
				<path class="st16" d="M294.9,66.3c0.1,3-2.1,5.4-5.6,5.4c-3.1,0-5.3-2.4-5.3-5.4c0-3.1,2.3-5.5,5.5-5.5
					C292.8,60.8,294.9,63.2,294.9,66.3z M285.1,128.3V79.9h8.8v48.4H285.1z"/>
			</g>
		</g>
		<g>
			<g>
				<path class="st16" d="M296.9,131.3h-14.8V76.9h14.8V131.3z M288.1,125.3h2.8V82.9h-2.8V125.3z M289.3,74.7
					c-4.7,0-8.3-3.7-8.3-8.4c0-4.8,3.7-8.5,8.5-8.5c4.9,0,8.4,3.6,8.4,8.5c0.1,2.3-0.7,4.3-2.2,5.9
					C294.1,73.8,291.8,74.7,289.3,74.7z M289.5,63.8c-1.5,0-2.5,1-2.5,2.5c0,1.2,0.7,2.4,2.3,2.4c0.9,0,1.6-0.2,2.1-0.7
					c0.4-0.4,0.6-0.9,0.6-1.6l0-0.1C291.9,65.7,291.7,63.8,289.5,63.8z"/>
			</g>
		</g>
	</g>
	<g>
		<g>
			<g>
				<path class="st16" d="M308.5,93c0-5-0.1-9.1-0.4-13.1h7.8l0.5,8h0.2c2.4-4.6,8-9.1,16-9.1c6.7,0,17.1,4,17.1,20.6v28.9h-8.8
					v-27.9c0-7.8-2.9-14.3-11.2-14.3c-5.8,0-10.3,4.1-11.8,9c-0.4,1.1-0.6,2.6-0.6,4.1v29.1h-8.8V93z"/>
			</g>
		</g>
		<g>
			<g>
				<path class="st16" d="M352.7,131.3h-14.8v-30.9c0-11.3-6.2-11.3-8.2-11.3c-4.7,0-7.9,3.5-8.9,6.9l0,0.1
					c-0.3,0.7-0.4,1.9-0.4,3.1v32.1h-14.8V93c0-5.4-0.1-9.2-0.4-12.9l-0.2-3.2h13.9l0.2,3.6c3.3-2.7,7.9-4.7,13.7-4.7
					c9.3,0,20.1,6.2,20.1,23.6V131.3z M343.9,125.3h2.8V99.4c0-16.3-10.8-17.6-14.1-17.6c-3.4,0-6.3,1-8.5,2.4
					c1.7-0.7,3.6-1.1,5.6-1.1c9,0,14.2,6.3,14.2,17.3V125.3z M311.5,125.3h2.8V99.2c0-1.9,0.3-3.7,0.8-5c0.4-1.2,0.8-2.2,1.4-3.3
					h-2.9l-0.5-8h-1.8c0.1,2.9,0.2,6.1,0.2,10.1V125.3z"/>
			</g>
		</g>
	</g>
	<g>
		<g>
			<g>
				<path class="st16" d="M405.7,79.9c-0.2,3.5-0.4,7.4-0.4,13.3v28.1c0,11.1-2.2,17.9-6.9,22.1c-4.7,4.4-11.5,5.8-17.6,5.8
					c-5.8,0-12.2-1.4-16.1-4l2.2-6.7c3.2,2,8.2,3.8,14.2,3.8c9,0,15.6-4.7,15.6-16.9V120h-0.2c-2.7,4.5-7.9,8.1-15.4,8.1
					c-12,0-20.6-10.2-20.6-23.6c0-16.4,10.7-25.7,21.8-25.7c8.4,0,13,4.4,15.1,8.4h0.2l0.4-7.3H405.7z M396.6,99
					c0-1.5-0.1-2.8-0.5-4c-1.6-5.1-5.9-9.3-12.3-9.3c-8.4,0-14.4,7.1-14.4,18.3c0,9.5,4.8,17.4,14.3,17.4c5.4,0,10.3-3.4,12.2-9
					c0.5-1.5,0.7-3.2,0.7-4.7V99z"/>
			</g>
		</g>
		<g>
			<g>
				<path class="st16" d="M380.8,152.2c-6.8,0-13.6-1.7-17.8-4.5l-1.9-1.3l4.1-12.5l3.2,2c1.6,1,6.1,3.3,12.6,3.3
					c7.9,0,12-3.9,12.5-11.9c-3.5,2.4-7.8,3.7-12.5,3.7c-13.5,0-23.6-11.4-23.6-26.6c0-8.5,2.6-15.7,7.5-21
					c4.5-4.9,10.8-7.7,17.3-7.7c5.8,0,9.9,1.8,12.7,4l0.2-2.9h13.7l-0.2,3.2c-0.2,3.7-0.4,7.4-0.4,13.1v28.1
					c0,11.9-2.4,19.5-7.9,24.3C394.6,151,386.6,152.2,380.8,152.2z M368.3,143.8c3.3,1.5,7.9,2.4,12.5,2.4c4.7,0,11.1-0.9,15.5-5
					c4.1-3.7,6-9.8,6-19.9V93.2c0-4.2,0.1-7.4,0.2-10.3h-1.7l-0.4,7.3h-3.2c0.7,1.2,1.3,2.5,1.7,3.9c0.6,1.7,0.6,3.4,0.6,4.9v8.7
					c0,1.4-0.1,3.5-0.9,5.6c-0.4,1.3-1,2.5-1.7,3.7h2.7v8.4c0,12.6-6.8,19.9-18.6,19.9c-4.3,0-8.7-0.9-12.5-2.5L368.3,143.8z
					 M382.3,81.8c-9.3,0-18.8,7.8-18.8,22.7c0,11.9,7.4,20.6,17.6,20.6c2.2,0,4.3-0.4,6.2-1.1c-1.1,0.3-2.3,0.4-3.6,0.4
					c-10.3,0-17.3-8.2-17.3-20.4c0-12.5,7.2-21.3,17.4-21.3c2.8,0,5.3,0.6,7.5,1.8C389.3,83,386.4,81.8,382.3,81.8z M383.8,88.7
					c-6.9,0-11.4,6-11.4,15.3c0,7,3,14.4,11.3,14.4c4.3,0,7.9-2.7,9.4-7c0.3-1,0.5-2.4,0.5-3.7V99c0-1.4-0.1-2.3-0.3-3.1
					C392.7,94.2,390.5,88.7,383.8,88.7z"/>
			</g>
		</g>
	</g>
	<g>
		<g>
			<g>
				<path class="st16" d="M482.9,57.3v58.5c0,4.3,0.1,9.2,0.4,12.5h-7.9l-0.4-8.4h-0.2c-2.7,5.4-8.6,9.5-16.5,9.5
					c-11.7,0-20.7-9.9-20.7-24.6c-0.1-16.1,9.9-26,21.7-26c7.4,0,12.4,3.5,14.6,7.4h0.2V57.3H482.9z M474.1,99.6
					c0-1.1-0.1-2.6-0.4-3.7c-1.3-5.6-6.1-10.2-12.7-10.2c-9.1,0-14.5,8-14.5,18.7c0,9.8,4.8,17.9,14.3,17.9
					c5.9,0,11.3-3.9,12.9-10.5c0.3-1.2,0.4-2.4,0.4-3.8V99.6z"/>
			</g>
		</g>
		<g>
			<g>
				<path class="st16" d="M458.3,132.4c-13.7,0-23.7-11.6-23.7-27.6c-0.1-8.9,2.8-16.8,8.1-22.1c4.4-4.5,10.3-6.9,16.6-6.9
					c4.5,0,8.6,1.2,11.8,3.2V54.3h14.8v61.5c0,3,0.1,8.5,0.4,12.2l0.3,3.3h-14l-0.2-3.7C468.6,130.6,463.7,132.4,458.3,132.4z
					 M459.3,81.8c-4.6,0-9,1.8-12.3,5.1c-4.2,4.2-6.4,10.5-6.4,17.8c0,12.7,7.3,21.6,17.7,21.6c3.3,0,6.3-0.8,8.8-2.4
					c-1.9,0.8-4.1,1.3-6.3,1.3c-10.3,0-17.3-8.4-17.3-20.9c0-13,7-21.7,17.5-21.7c2.7,0,5.2,0.6,7.4,1.8
					C466.3,82.9,463.3,81.8,459.3,81.8z M478.3,125.3h1.8c-0.2-3.4-0.2-7.2-0.2-9.5V60.3h-2.8v28.9h-3.2c1.3,1.7,2.2,3.7,2.8,6
					c0.4,1.7,0.5,3.6,0.5,4.4v8.4c0,1.8-0.2,3.2-0.5,4.5c-0.4,1.6-1,3-1.7,4.4h2.9L478.3,125.3z M461,88.7
					c-8.5,0-11.5,8.5-11.5,15.7c0,7.2,3,14.9,11.3,14.9c4.9,0,8.8-3.2,10-8.2c0.2-0.9,0.3-1.8,0.3-3.1v-8.4c0-1.1-0.1-2.3-0.3-2.9
					l0-0.1C469.9,92.6,466.5,88.7,461,88.7z"/>
			</g>
		</g>
	</g>
	<g>
		<g>
			<g>
				<path class="st16" d="M502.4,105.7c0.2,11.9,7.8,16.8,16.6,16.8c6.3,0,10.1-1.1,13.4-2.5l1.5,6.3c-3.1,1.4-8.4,3-16.1,3
					c-14.9,0-23.8-9.8-23.8-24.4c0-14.6,8.6-26.1,22.7-26.1c15.8,0,20,13.9,20,22.8c0,1.8-0.2,3.2-0.3,4.1H502.4z M528.2,99.4
					c0.1-5.6-2.3-14.3-12.2-14.3c-8.9,0-12.8,8.2-13.5,14.3H528.2z"/>
			</g>
		</g>
		<g>
			<g>
				<path class="st16" d="M517.8,132.3c-16.3,0-26.8-10.8-26.8-27.4c0-17.1,10.6-29.1,25.7-29.1c15.9,0,23,13,23,25.8
					c0,1.7-0.2,3.1-0.3,4l-0.3,3.1h-33.4c1.5,9.3,8.8,10.8,13.3,10.8c6.1,0,9.5-1.1,12.2-2.3l3.3-1.4l2.9,12.2l-2.3,1
					C531.8,130.5,526.2,132.3,517.8,132.3z M516.7,81.8c-9.8,0-19.7,7.1-19.7,23.1c0,13.2,8,21.4,20.8,21.4c5.6,0,9.7-0.9,12.6-1.8
					l-0.1-0.5c-2.8,0.9-6.3,1.5-11.3,1.5c-11.9,0-19.4-7.6-19.6-19.8l-0.1-3.1h34.3c0-0.3,0-0.7,0-1.1
					C533.7,82.7,519.5,81.8,516.7,81.8z M531.2,102.4h-32l0.4-3.3c1-8.4,6.4-17,16.5-17c4.3,0,7.9,1.4,10.5,4.1
					c4.4,4.4,4.7,10.7,4.7,13.3L531.2,102.4z M506.2,96.4H525c-0.3-1.9-1-4.3-2.7-6c-1.5-1.5-3.6-2.3-6.2-2.3
					C509.9,88.1,507.3,92.9,506.2,96.4z"/>
			</g>
		</g>
	</g>
	<g>
		<g>
			<g>
				<path class="st16" d="M546.4,119.3c2.6,1.7,7.2,3.5,11.6,3.5c6.4,0,9.4-3.2,9.4-7.2c0-4.2-2.5-6.5-9-8.9
					c-8.7-3.1-12.8-7.9-12.8-13.7c0-7.8,6.3-14.2,16.7-14.2c4.9,0,9.2,1.4,11.9,3l-2.2,6.4c-1.9-1.2-5.4-2.8-9.9-2.8
					c-5.2,0-8.1,3-8.1,6.6c0,4,2.9,5.8,9.2,8.2c8.4,3.2,12.7,7.4,12.7,14.6c0,8.5-6.6,14.5-18.1,14.5c-5.3,0-10.2-1.3-13.6-3.3
					L546.4,119.3z"/>
			</g>
		</g>
		<g>
			<g>
				<path class="st16" d="M557.8,132.3c-5.6,0-11.1-1.4-15.1-3.7l-2.1-1.2l4.2-12.7l3.3,2.1c2.2,1.5,6.3,3,10,3
					c2.4,0,6.4-0.5,6.4-4.2c0-2-0.5-3.7-7-6.1c-12.2-4.3-14.8-11.4-14.8-16.5c0-10,8.3-17.2,19.7-17.2c4.9,0,9.8,1.2,13.4,3.4
					l2.1,1.2l-4.2,12.3l-3.2-2c-1.1-0.7-4.1-2.3-8.3-2.3c-3.1,0-5.1,1.4-5.1,3.6c0,1.6,0.5,2.8,7.3,5.4c6.8,2.6,14.6,6.9,14.6,17.4
					C578.9,125.4,570.6,132.3,557.8,132.3z M547.9,124.4c2.8,1.2,6.3,1.8,9.9,1.8c9.3,0,15.1-4.4,15.1-11.5c0-4.6-1.8-8.4-10.8-11.8
					c-6.1-2.3-11.1-4.8-11.1-11c0-5.7,4.6-9.6,11.1-9.6c3.3,0,6.1,0.7,8.2,1.6l0.2-0.7c-2.4-1-5.3-1.5-8.2-1.5
					c-8.1,0-13.7,4.6-13.7,11.2c0,4.7,3.6,8.3,10.8,10.9c6.6,2.4,11,5.4,11,11.7c0,4.7-3.2,10.2-12.4,10.2c-3.6,0-7.1-1-9.9-2.2
					L547.9,124.4z"/>
			</g>
		</g>
	</g>
	<g>
		<g>
			<g>
				<path class="st16" d="M597,66.3c0.1,3-2.1,5.4-5.6,5.4c-3.1,0-5.3-2.4-5.3-5.4c0-3.1,2.3-5.5,5.5-5.5
					C594.9,60.8,597,63.2,597,66.3z M587.2,128.3V79.9h8.8v48.4H587.2z"/>
			</g>
		</g>
		<g>
			<g>
				<path class="st16" d="M599,131.3h-14.8V76.9H599V131.3z M590.2,125.3h2.8V82.9h-2.8V125.3z M591.4,74.7c-4.7,0-8.3-3.7-8.3-8.4
					c0-4.8,3.7-8.5,8.5-8.5c4.9,0,8.4,3.6,8.4,8.5c0.1,2.3-0.7,4.3-2.2,5.9C596.2,73.8,593.9,74.7,591.4,74.7z M591.6,63.8
					c-1.5,0-2.5,1-2.5,2.5c0,1.2,0.7,2.4,2.3,2.4c0.9,0,1.6-0.2,2-0.7c0.4-0.4,0.6-0.9,0.6-1.6l0-0.1
					C594,65.7,593.8,63.8,591.6,63.8z"/>
			</g>
		</g>
	</g>
	<g>
		<g>
			<g>
				<path class="st16" d="M652.3,79.9c-0.2,3.5-0.4,7.4-0.4,13.3v28.1c0,11.1-2.2,17.9-6.9,22.1c-4.7,4.4-11.5,5.8-17.6,5.8
					c-5.8,0-12.2-1.4-16.1-4l2.2-6.7c3.2,2,8.2,3.8,14.2,3.8c9,0,15.6-4.7,15.6-16.9V120h-0.2c-2.7,4.5-7.9,8.1-15.4,8.1
					c-12,0-20.6-10.2-20.6-23.6c0-16.4,10.7-25.7,21.8-25.7c8.4,0,13,4.4,15.1,8.4h0.2l0.4-7.3H652.3z M643.2,99
					c0-1.5-0.1-2.8-0.5-4c-1.6-5.1-5.9-9.3-12.3-9.3c-8.4,0-14.4,7.1-14.4,18.3c0,9.5,4.8,17.4,14.3,17.4c5.4,0,10.3-3.4,12.2-9
					c0.5-1.5,0.7-3.2,0.7-4.7V99z"/>
			</g>
		</g>
		<g>
			<g>
				<path class="st16" d="M627.4,152.2c-6.8,0-13.6-1.7-17.8-4.5l-1.9-1.3l4.1-12.5l3.2,2c1.6,1,6.1,3.3,12.6,3.3
					c7.9,0,12-3.9,12.5-11.9c-3.5,2.4-7.8,3.7-12.5,3.7c-13.5,0-23.6-11.4-23.6-26.6c0-8.5,2.6-15.7,7.5-21
					c4.5-4.9,10.8-7.7,17.3-7.7c5.8,0,9.9,1.8,12.7,4l0.2-2.9h13.7l-0.2,3.2c-0.2,3.7-0.4,7.4-0.4,13.1v28.1
					c0,11.9-2.4,19.5-7.9,24.3C641.2,151,633.1,152.2,627.4,152.2z M614.9,143.8c3.3,1.5,7.9,2.4,12.5,2.4c4.7,0,11.1-0.9,15.5-5
					c4.1-3.7,6-9.8,6-19.9V93.2c0-4.2,0.1-7.4,0.2-10.3h-1.7l-0.4,7.3h-3.2c0.7,1.2,1.3,2.5,1.7,3.9c0.6,1.7,0.6,3.4,0.6,4.9v8.7
					c0,1.4-0.1,3.5-0.9,5.6c-0.4,1.3-1,2.5-1.7,3.7h2.7v8.4c0,12.6-6.8,19.9-18.6,19.9c-4.3,0-8.7-0.9-12.5-2.5L614.9,143.8z
					 M628.9,81.8c-9.3,0-18.8,7.8-18.8,22.7c0,11.9,7.4,20.6,17.6,20.6c2.2,0,4.3-0.4,6.2-1.1c-1.1,0.3-2.3,0.4-3.6,0.4
					c-10.3,0-17.3-8.2-17.3-20.4c0-12.5,7.2-21.3,17.4-21.3c2.8,0,5.3,0.6,7.5,1.8C635.9,83,633,81.8,628.9,81.8z M630.4,88.7
					c-6.9,0-11.4,6-11.4,15.3c0,7,3,14.4,11.3,14.4c4.3,0,7.9-2.7,9.4-7c0.3-1,0.5-2.4,0.5-3.7V99c0-1.4-0.1-2.3-0.3-3.1
					C639.3,94.2,637.1,88.7,630.4,88.7z"/>
			</g>
		</g>
	</g>
	<g>
		<g>
			<g>
				<path class="st16" d="M665.9,93c0-5-0.1-9.1-0.4-13.1h7.8l0.5,8h0.2c2.4-4.6,8-9.1,16-9.1c6.7,0,17.1,4,17.1,20.6v28.9h-8.8
					v-27.9c0-7.8-2.9-14.3-11.2-14.3c-5.8,0-10.3,4.1-11.8,9c-0.4,1.1-0.6,2.6-0.6,4.1v29.1h-8.8V93z"/>
			</g>
		</g>
		<g>
			<g>
				<path class="st16" d="M710.1,131.3h-14.8v-30.9c0-11.3-6.2-11.3-8.2-11.3c-4.7,0-7.9,3.5-8.9,6.9l0,0.1
					c-0.3,0.7-0.4,1.9-0.4,3.1v32.1h-14.8V93c0-5.4-0.1-9.2-0.4-12.9l-0.2-3.2h13.9l0.2,3.6c3.3-2.7,7.9-4.7,13.7-4.7
					c9.3,0,20.1,6.2,20.1,23.6V131.3z M701.3,125.3h2.8V99.4c0-16.3-10.8-17.6-14.1-17.6c-3.4,0-6.3,1-8.5,2.4
					c1.7-0.7,3.6-1.1,5.6-1.1c9,0,14.2,6.3,14.2,17.3V125.3z M668.9,125.3h2.8V99.2c0-1.9,0.3-3.7,0.8-5c0.4-1.2,0.8-2.2,1.4-3.3
					H671l-0.5-8h-1.8c0.1,2.9,0.2,6.1,0.2,10.1V125.3z"/>
			</g>
		</g>
	</g>
</g>
</svg>
