<?xml version="1.0" encoding="utf-8"?>
<!-- Generator: Adobe Illustrator 22.0.1, SVG Export Plug-In . SVG Version: 6.00 Build 0)  -->
<svg version="1.1" id="Layer_1" xmlns="http://www.w3.org/2000/svg" xmlns:xlink="http://www.w3.org/1999/xlink" x="0px" y="0px"
	 viewBox="0 0 1120.8 712" style="enable-background:new 0 0 1120.8 712;" xml:space="preserve">
<style type="text/css">
	.st0{fill:#FCFCFC;}
	.st1{fill:#FFFFFF;}
	.st2{opacity:0.3;}
	.st3{fill:#7B7064;}
	.st4{fill:#A3988E;}
	.st5{fill:#E9E9E9;}
	.st6{fill:#ECF0F3;}
	.st7{fill:#F38475;}
	.st8{fill:#F2CC67;}
	.st9{fill:#60D36D;}
	.st10{fill:#808080;}
	.st11{fill:#F2F2F2;}
	.st12{fill:#4D4D4D;}
	.st13{fill:#C7B299;}
	.st14{fill:#998675;}
	.st15{fill:#534741;}
	.st16{fill:#FF0000;}
	.st17{fill:#754C24;}
	.st18{fill:#3FA9F5;}
	.st19{fill:#FBB03B;}
	.st20{fill:#BDCCD4;}
	.st21{fill:#D9E021;}
	.st22{fill:#2E3192;}
	.st23{fill:#006837;}
	.st24{fill:#FFE7BD;}
	.st25{fill:#6A5F57;}
	.st26{opacity:0.4;}
	.st27{fill:#C4B7A1;}
	.st28{fill:#4F4F4F;}
	.st29{fill:#FFAF78;}
</style>
<g>
	<g>
		<path class="st0" d="M962.2,156.7h1.4v8h4.5v1.3h-6V156.7z"/>
	</g>
	<g>
		<path class="st0" d="M969.1,162.7c0-0.7,0.1-1.2,0.2-1.6c0.1-0.4,0.3-0.7,0.6-0.9c0.2-0.2,0.4-0.4,0.8-0.6
			c0.3-0.2,0.7-0.3,1.2-0.3c0.5,0,1,0.1,1.3,0.3c0.3,0.2,0.6,0.4,0.7,0.6c0.3,0.3,0.5,0.6,0.6,0.9c0.1,0.4,0.2,0.9,0.2,1.6
			c0,0.7-0.1,1.2-0.2,1.6c-0.1,0.4-0.3,0.7-0.6,1c-0.1,0.1-0.2,0.2-0.3,0.3c-0.1,0.1-0.3,0.2-0.4,0.3c-0.3,0.2-0.8,0.3-1.3,0.3
			c-0.5,0-0.9-0.1-1.2-0.3c-0.3-0.2-0.6-0.4-0.8-0.6c-0.2-0.3-0.4-0.6-0.6-1C969.1,164,969.1,163.4,969.1,162.7z M973.2,162.7
			c0-0.5,0-0.8-0.1-1c0-0.2-0.1-0.4-0.3-0.6c-0.1-0.1-0.2-0.3-0.4-0.4c-0.2-0.1-0.4-0.1-0.6-0.1c-0.2,0-0.4,0-0.6,0.1
			c-0.2,0.1-0.3,0.2-0.4,0.4c-0.1,0.2-0.2,0.3-0.2,0.6c-0.1,0.2-0.1,0.6-0.1,1c0,0.5,0,0.8,0.1,1c0.1,0.2,0.1,0.4,0.2,0.6
			c0.1,0.1,0.3,0.2,0.4,0.3c0.2,0.1,0.4,0.1,0.6,0.1c0.2,0,0.5,0,0.6-0.1c0.2-0.1,0.3-0.2,0.4-0.3c0.1-0.2,0.2-0.4,0.3-0.6
			C973.2,163.5,973.2,163.2,973.2,162.7z"/>
	</g>
	<g>
		<path class="st0" d="M979.7,165.4c-0.4,0.5-1,0.8-1.7,0.8c-0.4,0-0.8-0.1-1.1-0.3c-0.3-0.2-0.5-0.3-0.7-0.5
			c-0.2-0.2-0.3-0.5-0.4-0.8c-0.1-0.3-0.1-0.9-0.1-1.8c0-0.9,0-1.5,0.1-1.8c0.1-0.3,0.2-0.6,0.4-0.8c0.2-0.2,0.4-0.4,0.7-0.6
			c0.3-0.2,0.6-0.2,1.1-0.2c0.7,0,1.2,0.3,1.7,0.8v-0.7h1.3v6.5c0,1-0.3,1.7-0.9,2.2c-0.6,0.5-1.2,0.7-2,0.7c-0.9,0-1.7-0.4-2.3-1.1
			l1-0.8c0.2,0.2,0.4,0.3,0.6,0.4c0.2,0.1,0.5,0.2,0.7,0.2c0.5,0,0.8-0.1,1.1-0.4c0.3-0.3,0.4-0.6,0.4-1.1V165.4z M977,162.7
			c0,0.5,0,0.9,0.1,1.1c0,0.2,0.1,0.4,0.2,0.5c0.1,0.1,0.2,0.2,0.4,0.3c0.2,0.1,0.4,0.2,0.7,0.2c0.3,0,0.5-0.1,0.7-0.2
			c0.2-0.1,0.3-0.2,0.4-0.3c0.1-0.1,0.2-0.3,0.2-0.5c0-0.2,0-0.5,0-1.1c0-0.5,0-0.9,0-1.1c0-0.2-0.1-0.4-0.2-0.5
			c-0.1-0.1-0.2-0.2-0.4-0.4c-0.2-0.1-0.4-0.2-0.7-0.2c-0.3,0-0.5,0.1-0.7,0.2c-0.2,0.1-0.3,0.2-0.4,0.4c-0.1,0.1-0.2,0.3-0.2,0.5
			C977.1,161.9,977,162.2,977,162.7z"/>
	</g>
	<g>
		<path class="st0" d="M986,156.7h1.4v9.3H986V156.7z"/>
	</g>
	<g>
		<path class="st0" d="M989.3,159.4h1.3v0.7h0c0.4-0.5,1-0.8,1.7-0.8c0.6,0,1.1,0.2,1.5,0.6c0.5,0.4,0.7,1,0.7,1.7v4.4h-1.3v-4
			c0-0.5-0.1-0.8-0.4-1.1c-0.2-0.2-0.6-0.4-0.9-0.4c-0.4,0-0.7,0.1-0.9,0.4c-0.3,0.2-0.4,0.6-0.4,1.1v4h-1.3V159.4z"/>
	</g>
</g>
<g>
	<g>
		<path class="st1" d="M978.3,184.7c-12.4,0-22.5-10.1-22.5-22.5s10.1-22.5,22.5-22.5s22.5,10.1,22.5,22.5S990.7,184.7,978.3,184.7z
			 M978.3,141.7c-11.3,0-20.5,9.2-20.5,20.5s9.2,20.5,20.5,20.5s20.5-9.2,20.5-20.5S989.6,141.7,978.3,141.7z"/>
	</g>
</g>
<g>
	<g>
		<path d="M835,649.7H278.4c-13.1,0-23.8-10.7-23.8-23.8c0-13.1,10.7-23.8,23.8-23.8H835c13.1,0,23.8,10.7,23.8,23.8
			C858.7,639,848.1,649.7,835,649.7z M278.4,604.2c-12,0-21.8,9.8-21.8,21.8s9.8,21.8,21.8,21.8H835c12,0,21.8-9.8,21.8-21.8
			s-9.8-21.8-21.8-21.8H278.4z"/>
	</g>
</g>
<g>
	<g class="st2">
		<g>
			<path class="st1" d="M835,648.7H278.4c-12.6,0-22.8-10.2-22.8-22.8l0,0c0-12.6,10.2-22.8,22.8-22.8H835
				c12.6,0,22.8,10.2,22.8,22.8l0,0C857.7,638.5,847.5,648.7,835,648.7z"/>
		</g>
		<g>
			<path d="M835,649.7H278.4c-13.1,0-23.8-10.7-23.8-23.8c0-13.1,10.7-23.8,23.8-23.8H835c13.1,0,23.8,10.7,23.8,23.8
				C858.7,639,848.1,649.7,835,649.7z M278.4,604.2c-12,0-21.8,9.8-21.8,21.8s9.8,21.8,21.8,21.8H835c12,0,21.8-9.8,21.8-21.8
				s-9.8-21.8-21.8-21.8H278.4z"/>
		</g>
	</g>
	<g>
		<g>
			<g>
				<circle class="st3" cx="793.2" cy="625.9" r="15"/>
			</g>
		</g>
		<g>
			<g>
				<path class="st1" d="M793.2,615.2c-3.6,0-6.5,3.7-6.5,8.2s6.5,13.3,6.5,13.3s6.5-8.7,6.5-13.3S796.8,615.2,793.2,615.2z
					 M793.2,625c-1.7,0-3.2-1.4-3.2-3.2c0-1.7,1.4-3.2,3.2-3.2c1.7,0,3.2,1.4,3.2,3.2C796.4,623.6,794.9,625,793.2,625z"/>
			</g>
		</g>
	</g>
	<g>
		<g>
			<path class="st1" d="M390,634c2.4,0,3.6-0.9,3.7-2.6c0-1.4-0.8-2.2-2.4-2.5c-0.7-0.1-1.6-0.2-2.5-0.3c-1.6-0.3-2.8-0.9-3.6-1.8
				c-0.9-0.9-1.3-2.1-1.3-3.4c0-1.6,0.5-2.9,1.6-3.9c1-1,2.5-1.5,4.4-1.5c2.3,0.1,4.3,0.7,6,1.9l-1.6,2.3c-1.4-0.9-2.9-1.4-4.6-1.4
				c-0.9,0-1.6,0.2-2.2,0.6c-0.6,0.4-0.9,1.1-0.9,2c0,0.5,0.2,1,0.6,1.4c0.4,0.4,1.1,0.7,2,0.9c0.5,0.1,1.2,0.2,2.1,0.3
				c1.7,0.2,3,0.9,3.8,1.9c0.8,1,1.2,2.1,1.2,3.5c-0.1,3.5-2.3,5.3-6.5,5.4c-2.7,0-5.1-0.8-7.1-2.5l1.8-2.1
				C386.2,633.4,387.9,634,390,634z"/>
		</g>
		<g>
			<path class="st1" d="M399.4,618.2h11.8v2.7h-9v5.3h7.7v2.5h-7.7v5.4h9v2.7h-11.8V618.2z"/>
		</g>
		<g>
			<path class="st1" d="M423.3,632.5h-7l-1.4,4.1h-3l6.7-18.5h2.3l6.7,18.5h-3L423.3,632.5z M422.5,630.1l-2.7-8.1h-0.1l-2.7,8.1
				H422.5z"/>
		</g>
		<g>
			<path class="st1" d="M429.7,618.2h7.2c1.5,0,2.8,0.4,3.8,1.2c1.2,0.9,1.8,2.2,1.8,3.9c0,2.5-1.2,4.2-3.6,5.1l4.3,8.2h-3.3
				l-3.8-7.9h-3.6v7.9h-2.8V618.2z M432.5,626.3h4.2c1,0,1.8-0.3,2.4-0.9c0.5-0.6,0.8-1.2,0.8-2c0-1-0.3-1.7-0.9-2.1
				c-0.5-0.4-1.2-0.6-2.1-0.6h-4.4V626.3z"/>
		</g>
		<g>
			<path class="st1" d="M458.1,631.5c-0.4,1.7-1.2,3-2.3,4c-1.2,0.9-2.6,1.4-4.2,1.4c-1.5,0-2.7-0.4-3.6-1.1c-1-0.7-1.7-1.4-2.2-2.3
				c-0.1-0.3-0.3-0.5-0.4-0.8c-0.1-0.3-0.2-0.6-0.3-1c-0.1-0.7-0.2-2.2-0.2-4.3c0-2.2,0.1-3.6,0.2-4.3c0.1-0.7,0.3-1.3,0.6-1.8
				c0.4-0.9,1.2-1.6,2.2-2.3c1-0.7,2.2-1,3.6-1c1.8,0,3.2,0.5,4.4,1.6c1.1,1,1.8,2.3,2.1,3.9h-3c-0.2-0.7-0.6-1.4-1.2-1.9
				c-0.6-0.5-1.4-0.8-2.3-0.8c-0.7,0-1.2,0.1-1.7,0.4c-0.5,0.3-0.9,0.6-1.2,1c-0.4,0.4-0.6,0.9-0.7,1.5c-0.1,0.7-0.2,1.9-0.2,3.7
				c0,1.8,0.1,3.1,0.2,3.7c0.1,0.6,0.4,1.2,0.7,1.6c0.3,0.4,0.7,0.7,1.2,0.9c0.5,0.3,1,0.4,1.7,0.4c1.6,0,2.8-0.8,3.5-2.5H458.1z"/>
		</g>
		<g>
			<path class="st1" d="M470.2,628.6h-7.3v8.1H460v-18.5h2.8v7.9h7.3v-7.9h2.8v18.5h-2.8V628.6z"/>
		</g>
		<g>
			<path class="st1" d="M492.6,632.5h-7l-1.4,4.1h-3l6.7-18.5h2.3l6.7,18.5h-3L492.6,632.5z M491.8,630.1l-2.7-8.1h-0.1l-2.7,8.1
				H491.8z"/>
		</g>
		<g>
			<path class="st1" d="M499,618.2h7.2c1.8,0,3.2,0.5,4.1,1.4c0.9,0.9,1.4,2.1,1.4,3.6c0,0.8-0.2,1.5-0.5,2.2
				c-0.2,0.3-0.5,0.6-0.8,0.9c-0.4,0.3-0.8,0.6-1.3,0.9v0.1c1,0.3,1.8,0.8,2.3,1.6c0.5,0.8,0.7,1.7,0.7,2.7c0,1.6-0.5,2.9-1.5,3.8
				c-1,1-2.2,1.5-3.6,1.5H499V618.2z M501.8,620.7v5.3h4c1,0,1.8-0.3,2.3-0.8c0.5-0.5,0.7-1.1,0.7-1.9c0-0.7-0.2-1.4-0.7-1.9
				c-0.5-0.5-1.2-0.7-2.3-0.7H501.8z M501.8,628.5v5.6h4.3c1,0,1.8-0.3,2.3-0.9c0.5-0.5,0.7-1.2,0.7-1.9c0-0.8-0.2-1.4-0.7-2
				c-0.5-0.5-1.2-0.8-2.3-0.8H501.8z"/>
		</g>
		<g>
			<path class="st1" d="M514.2,627.4c0-2.2,0.1-3.6,0.2-4.3c0.1-0.7,0.3-1.3,0.6-1.8c0.4-0.9,1.2-1.6,2.2-2.3c1-0.7,2.2-1,3.6-1
				c1.5,0,2.7,0.4,3.7,1c1,0.7,1.7,1.4,2.1,2.3c0.3,0.4,0.5,1,0.6,1.8c0.1,0.7,0.2,2.2,0.2,4.3c0,2.1-0.1,3.5-0.2,4.3
				c-0.1,0.7-0.3,1.3-0.6,1.8c-0.4,0.9-1.1,1.6-2.1,2.3c-1,0.7-2.2,1-3.7,1.1c-1.5,0-2.7-0.4-3.6-1.1c-1-0.7-1.7-1.4-2.2-2.3
				c-0.1-0.3-0.3-0.5-0.4-0.8c-0.1-0.3-0.2-0.6-0.3-1C514.3,631,514.2,629.5,514.2,627.4z M517,627.4c0,1.8,0.1,3.1,0.2,3.7
				c0.1,0.6,0.4,1.2,0.7,1.6c0.3,0.4,0.7,0.7,1.2,0.9c0.5,0.3,1,0.4,1.7,0.4c0.7,0,1.2-0.1,1.7-0.4c0.5-0.2,0.8-0.5,1.1-0.9
				c0.4-0.4,0.6-0.9,0.7-1.6c0.1-0.6,0.2-1.9,0.2-3.7c0-1.8-0.1-3.1-0.2-3.7c-0.1-0.6-0.4-1.1-0.7-1.5c-0.3-0.4-0.7-0.7-1.1-1
				c-0.5-0.2-1.1-0.4-1.7-0.4c-0.7,0-1.2,0.1-1.7,0.4c-0.5,0.3-0.9,0.6-1.2,1c-0.4,0.4-0.6,0.9-0.7,1.5
				C517.1,624.4,517,625.6,517,627.4z"/>
		</g>
		<g>
			<path class="st1" d="M530.3,618.2h2.8v11.9c0,1.3,0.4,2.2,1.1,2.9c0.7,0.7,1.6,1,2.7,1s2-0.3,2.7-1c0.7-0.7,1-1.6,1.1-2.9v-11.9
				h2.8v12.2c0,1.9-0.7,3.5-1.9,4.6c-1.2,1.2-2.8,1.8-4.7,1.8c-1.9,0-3.4-0.6-4.6-1.8c-1.3-1.1-1.9-2.7-1.9-4.6V618.2z"/>
		</g>
		<g>
			<path class="st1" d="M550.2,620.7h-5.1v-2.5h12.9v2.5H553v16h-2.8V620.7z"/>
		</g>
		<g>
			<path class="st1" d="M566.3,618.2h11.8v2.7h-9v5.3h7.7v2.5h-7.7v5.4h9v2.7h-11.8V618.2z"/>
		</g>
		<g>
			<path class="st1" d="M578.8,618.2h3l4.2,14.1h0.1l4.2-14.1h3l-6.1,18.5h-2.2L578.8,618.2z"/>
		</g>
		<g>
			<path class="st1" d="M595.2,618.2H607v2.7h-9v5.3h7.7v2.5H598v5.4h9v2.7h-11.8V618.2z"/>
		</g>
		<g>
			<path class="st1" d="M609.7,618.2h7.2c1.5,0,2.8,0.4,3.8,1.2c1.2,0.9,1.8,2.2,1.8,3.9c0,2.5-1.2,4.2-3.6,5.1l4.3,8.2h-3.3
				l-3.8-7.9h-3.6v7.9h-2.8V618.2z M612.5,626.3h4.2c1,0,1.8-0.3,2.4-0.9c0.5-0.6,0.8-1.2,0.8-2c0-1-0.3-1.7-0.9-2.1
				c-0.5-0.4-1.2-0.6-2.1-0.6h-4.4V626.3z"/>
		</g>
		<g>
			<path class="st1" d="M628,629.1l-5.6-10.9h3l3.9,8.2l3.9-8.2h3l-5.6,10.9v7.6H628V629.1z"/>
		</g>
		<g>
			<path class="st1" d="M640.9,620.7h-5.1v-2.5h12.9v2.5h-5.1v16h-2.8V620.7z"/>
		</g>
		<g>
			<path class="st1" d="M660.9,628.6h-7.3v8.1h-2.8v-18.5h2.8v7.9h7.3v-7.9h2.8v18.5h-2.8V628.6z"/>
		</g>
		<g>
			<path class="st1" d="M667.6,618.2h2.8v18.5h-2.8V618.2z"/>
		</g>
		<g>
			<path class="st1" d="M674.3,618.2h2.6l8.4,13.2h0.1v-13.2h2.8v18.5h-2.7l-8.4-13.2h-0.1v13.2h-2.8V618.2z"/>
		</g>
		<g>
			<path class="st1" d="M698.1,626.5h6.6v3.8c0,1.9-0.7,3.4-1.9,4.7c-1.2,1.2-2.8,1.9-4.7,1.9c-1.5,0-2.7-0.4-3.6-1.1
				c-1-0.7-1.7-1.4-2.2-2.3c-0.1-0.3-0.3-0.5-0.4-0.8c-0.1-0.3-0.2-0.6-0.3-1c-0.1-0.7-0.2-2.2-0.2-4.3c0-2.2,0.1-3.6,0.2-4.3
				c0.1-0.7,0.3-1.3,0.6-1.8c0.4-0.9,1.2-1.6,2.2-2.3c1-0.7,2.2-1,3.6-1c1.8,0,3.2,0.5,4.4,1.6c1.1,1,1.8,2.3,2.1,3.9h-3
				c-0.2-0.7-0.6-1.4-1.2-1.9c-0.6-0.5-1.4-0.8-2.3-0.8c-0.7,0-1.2,0.1-1.7,0.4c-0.5,0.3-0.9,0.6-1.2,1c-0.4,0.4-0.6,0.9-0.7,1.5
				c-0.1,0.7-0.2,1.9-0.2,3.7c0,1.8,0.1,3.1,0.2,3.7c0.1,0.6,0.4,1.2,0.7,1.6c0.3,0.4,0.7,0.7,1.2,0.9c0.5,0.3,1,0.4,1.7,0.4
				c1.1,0,2-0.4,2.7-1.1c0.7-0.7,1.1-1.6,1.1-2.8v-1h-3.8V626.5z"/>
		</g>
	</g>
</g>
<g>
	<g>
		<g id="XMLID_14_">
			<g>
				<g>
					<path class="st4" d="M1112.4,108.6V695c0,4.4-3.6,7.9-7.9,7.9H16.3c-4.4,0-7.9-3.6-7.9-7.9V108.6h0.5H1112.4z"/>
				</g>
				<g>
					<polygon class="st5" points="1112.4,46.6 1112.4,108.6 8.9,108.6 8.4,108.6 8.4,46.6 8.9,46.6 					"/>
				</g>
				<g>
					<path class="st6" d="M1112.4,17v29.6H8.9H8.4V17c0-4.4,3.6-7.9,7.9-7.9h1088.1C1108.8,9.1,1112.4,12.7,1112.4,17z"/>
				</g>
			</g>
			<g>
				<g>
					<path d="M1104.5,703.9H16.3c-4.9,0-8.9-4-8.9-8.9V17c0-4.9,4-8.9,8.9-8.9h1088.1c4.9,0,8.9,4,8.9,8.9V695
						C1113.4,699.9,1109.4,703.9,1104.5,703.9z M16.3,10.1c-3.8,0-6.9,3.1-6.9,6.9V695c0,3.8,3.1,6.9,6.9,6.9h1088.1
						c3.8,0,6.9-3.1,6.9-6.9V17c0-3.8-3.1-6.9-6.9-6.9H16.3z"/>
				</g>
				<g>
					<rect x="8.9" y="45.6" width="1104" height="2"/>
				</g>
				<g>
					<rect x="8.9" y="107.6" width="1104" height="2"/>
				</g>
			</g>
		</g>
		<g>
			<g>
				<circle class="st7" cx="38.4" cy="28.2" r="7"/>
			</g>
			<g>
				<path d="M38.4,36.2c-4.4,0-8-3.6-8-8s3.6-8,8-8s8,3.6,8,8S42.8,36.2,38.4,36.2z M38.4,22.2c-3.3,0-6,2.7-6,6s2.7,6,6,6
					s6-2.7,6-6S41.7,22.2,38.4,22.2z"/>
			</g>
		</g>
		<g>
			<g>
				<circle class="st8" cx="66.9" cy="28.2" r="7"/>
			</g>
			<g>
				<path d="M66.9,36.2c-4.4,0-8-3.6-8-8s3.6-8,8-8s8,3.6,8,8S71.3,36.2,66.9,36.2z M66.9,22.2c-3.3,0-6,2.7-6,6s2.7,6,6,6
					s6-2.7,6-6S70.2,22.2,66.9,22.2z"/>
			</g>
		</g>
		<g>
			<g>
				<circle class="st9" cx="95.4" cy="28.2" r="7"/>
			</g>
			<g>
				<path d="M95.4,36.2c-4.4,0-8-3.6-8-8s3.6-8,8-8s8,3.6,8,8S99.8,36.2,95.4,36.2z M95.4,22.2c-3.3,0-6,2.7-6,6s2.7,6,6,6
					s6-2.7,6-6S98.7,22.2,95.4,22.2z"/>
			</g>
		</g>
	</g>
	<g>
		<g>
			<path class="st0" d="M62.6,141.4h3.7l7.3,16.7l7.2-16.7h3.7V167h-3.9v-16h-0.1l-5.4,12.3h-3.2L66.6,151h-0.1v16h-3.9V141.4z"/>
		</g>
		<g>
			<path class="st0" d="M89.9,141.4h3.9V167h-3.9V141.4z"/>
		</g>
		<g>
			<path class="st0" d="M99.2,141.4h3.7l11.6,18.2h0.1v-18.2h3.9V167h-3.7l-11.6-18.2h-0.1V167h-3.9V141.4z"/>
		</g>
		<g>
			<path class="st0" d="M123.8,141.4h3.9V167h-3.9V141.4z"/>
		</g>
		<g>
			<path class="st0" d="M133.1,141.4h3.7l7.3,16.7l7.2-16.7h3.7V167h-3.9v-16H151l-5.4,12.3h-3.2L137,151H137v16h-3.9V141.4z"/>
		</g>
		<g>
			<path class="st0" d="M160.4,141.4h3.9V167h-3.9V141.4z"/>
		</g>
	</g>
	<g>
		<g>
			<path class="st0" d="M335.6,165c1.8,0,2.8-0.7,2.8-2c0-1.1-0.6-1.7-1.9-1.9c-0.6-0.1-1.2-0.2-1.9-0.3c-1.2-0.2-2.2-0.7-2.8-1.4
				c-0.7-0.7-1-1.6-1-2.6c0-1.2,0.4-2.2,1.2-3c0.8-0.8,1.9-1.1,3.4-1.2c1.8,0,3.3,0.5,4.6,1.5l-1.2,1.8c-1.1-0.7-2.2-1.1-3.5-1.1
				c-0.7,0-1.2,0.2-1.7,0.5c-0.5,0.3-0.7,0.9-0.7,1.5c0,0.4,0.2,0.8,0.5,1.1c0.3,0.3,0.8,0.6,1.5,0.7c0.4,0.1,0.9,0.1,1.6,0.2
				c1.3,0.2,2.3,0.7,3,1.4c0.6,0.8,0.9,1.6,0.9,2.7c-0.1,2.7-1.7,4.1-5,4.1c-2.1,0-3.9-0.7-5.4-2l1.4-1.6
				C332.7,164.5,334,164.9,335.6,165z"/>
		</g>
		<g>
			<path class="st0" d="M350.7,160.8H345v6.2h-2.2v-14.2h2.2v6.1h5.6v-6.1h2.2V167h-2.2V160.8z"/>
		</g>
		<g>
			<path class="st0" d="M355.3,159.9c0-1.7,0-2.8,0.1-3.3c0.1-0.6,0.3-1,0.5-1.4c0.3-0.7,0.9-1.2,1.7-1.8c0.7-0.5,1.7-0.8,2.8-0.8
				c1.1,0,2.1,0.3,2.8,0.8c0.7,0.5,1.3,1.1,1.6,1.8c0.2,0.3,0.4,0.8,0.5,1.4c0.1,0.6,0.1,1.7,0.1,3.3c0,1.6,0,2.7-0.1,3.3
				c-0.1,0.6-0.3,1-0.5,1.4c-0.3,0.7-0.9,1.2-1.6,1.7c-0.8,0.5-1.7,0.8-2.8,0.8c-1.1,0-2.1-0.3-2.8-0.8c-0.8-0.5-1.3-1.1-1.7-1.7
				c-0.1-0.2-0.2-0.4-0.3-0.6c-0.1-0.2-0.1-0.5-0.2-0.8C355.4,162.6,355.3,161.5,355.3,159.9z M357.5,159.9c0,1.4,0.1,2.3,0.2,2.8
				c0.1,0.5,0.3,0.9,0.6,1.2c0.2,0.3,0.5,0.5,0.9,0.7c0.4,0.2,0.8,0.3,1.3,0.3c0.5,0,1-0.1,1.3-0.3c0.4-0.2,0.6-0.4,0.9-0.7
				c0.3-0.3,0.5-0.7,0.6-1.2c0.1-0.5,0.1-1.4,0.1-2.8s0-2.4-0.1-2.9c-0.1-0.5-0.3-0.9-0.6-1.2c-0.2-0.3-0.5-0.5-0.9-0.7
				c-0.4-0.2-0.8-0.3-1.3-0.3c-0.5,0-0.9,0.1-1.3,0.3c-0.4,0.2-0.7,0.4-0.9,0.7c-0.3,0.3-0.5,0.7-0.6,1.2
				C357.6,157.5,357.5,158.5,357.5,159.9z"/>
		</g>
		<g>
			<path class="st0" d="M368,152.8h5.2c0.6,0,1.1,0.1,1.6,0.2c0.5,0.1,1,0.4,1.6,0.8c0.4,0.3,0.8,0.8,1.1,1.4c0.3,0.6,0.4,1.2,0.4,2
				c0,1.1-0.4,2-1.1,2.9c-0.8,0.9-1.9,1.4-3.3,1.4h-3.3v5.6H368V152.8z M370.2,159.4h3.2c0.8,0,1.4-0.3,1.8-0.7
				c0.4-0.5,0.6-1,0.6-1.6c0-0.5-0.1-0.9-0.2-1.2c-0.2-0.3-0.4-0.5-0.7-0.7c-0.4-0.3-1-0.4-1.5-0.4h-3.1V159.4z"/>
		</g>
		<g>
			<path class="st0" d="M379.9,152.8h5.2c0.6,0,1.1,0.1,1.6,0.2c0.5,0.1,1,0.4,1.6,0.8c0.4,0.3,0.8,0.8,1.1,1.4
				c0.3,0.6,0.4,1.2,0.4,2c0,1.1-0.4,2-1.1,2.9c-0.8,0.9-1.9,1.4-3.3,1.4H382v5.6h-2.2V152.8z M382,159.4h3.2c0.8,0,1.4-0.3,1.8-0.7
				c0.4-0.5,0.6-1,0.6-1.6c0-0.5-0.1-0.9-0.2-1.2c-0.2-0.3-0.4-0.5-0.7-0.7c-0.4-0.3-1-0.4-1.5-0.4H382V159.4z"/>
		</g>
		<g>
			<path class="st0" d="M391.7,152.8h2.2V167h-2.2V152.8z"/>
		</g>
		<g>
			<path class="st0" d="M396.9,152.8h2l6.4,10.1h0v-10.1h2.2V167h-2l-6.4-10.1h0V167h-2.2V152.8z"/>
		</g>
		<g>
			<path class="st0" d="M415.2,159.2h5.1v2.9c0,1.4-0.5,2.6-1.5,3.6c-1,1-2.2,1.4-3.6,1.5c-1.1,0-2.1-0.3-2.8-0.8
				c-0.8-0.5-1.3-1.1-1.7-1.7c-0.1-0.2-0.2-0.4-0.3-0.6c-0.1-0.2-0.1-0.5-0.2-0.8c-0.1-0.6-0.1-1.7-0.1-3.3c0-1.7,0-2.8,0.1-3.3
				c0.1-0.6,0.3-1,0.5-1.4c0.3-0.7,0.9-1.2,1.7-1.8c0.7-0.5,1.7-0.8,2.8-0.8c1.4,0,2.5,0.4,3.4,1.2c0.9,0.8,1.4,1.8,1.6,3h-2.3
				c-0.2-0.6-0.5-1.1-1-1.5c-0.5-0.4-1.1-0.6-1.8-0.6c-0.5,0-0.9,0.1-1.3,0.3c-0.4,0.2-0.7,0.4-0.9,0.7c-0.3,0.3-0.5,0.7-0.6,1.2
				c-0.1,0.5-0.2,1.5-0.2,2.9s0.1,2.3,0.2,2.8c0.1,0.5,0.3,0.9,0.6,1.2c0.2,0.3,0.5,0.5,0.9,0.7c0.4,0.2,0.8,0.3,1.3,0.3
				c0.8,0,1.5-0.3,2.1-0.9c0.5-0.5,0.8-1.3,0.8-2.2v-0.7h-2.9V159.2z"/>
		</g>
	</g>
	<g>
		<g>
			<path class="st0" d="M557,163c-0.3,1.3-0.9,2.3-1.8,3c-0.9,0.7-2,1.1-3.2,1.1c-1.1,0-2.1-0.3-2.8-0.8c-0.8-0.5-1.3-1.1-1.7-1.7
				c-0.1-0.2-0.2-0.4-0.3-0.6c-0.1-0.2-0.1-0.5-0.2-0.8c-0.1-0.6-0.1-1.7-0.1-3.3c0-1.7,0-2.8,0.1-3.3c0.1-0.6,0.3-1,0.5-1.4
				c0.3-0.7,0.9-1.2,1.7-1.8c0.7-0.5,1.7-0.8,2.8-0.8c1.4,0,2.5,0.4,3.4,1.2c0.9,0.8,1.4,1.8,1.6,3h-2.3c-0.2-0.6-0.5-1.1-1-1.5
				c-0.5-0.4-1.1-0.6-1.8-0.6c-0.5,0-0.9,0.1-1.3,0.3c-0.4,0.2-0.7,0.4-0.9,0.7c-0.3,0.3-0.5,0.7-0.6,1.2c-0.1,0.5-0.2,1.5-0.2,2.9
				s0.1,2.3,0.2,2.8c0.1,0.5,0.3,0.9,0.6,1.2c0.2,0.3,0.5,0.5,0.9,0.7c0.4,0.2,0.8,0.3,1.3,0.3c1.2,0,2.1-0.6,2.7-1.9H557z"/>
		</g>
		<g>
			<path class="st0" d="M558.1,159.9c0-1.7,0-2.8,0.1-3.3c0.1-0.6,0.3-1,0.5-1.4c0.3-0.7,0.9-1.2,1.7-1.8c0.7-0.5,1.7-0.8,2.8-0.8
				c1.1,0,2.1,0.3,2.8,0.8c0.7,0.5,1.3,1.1,1.6,1.8c0.2,0.3,0.4,0.8,0.5,1.4c0.1,0.6,0.1,1.7,0.1,3.3c0,1.6,0,2.7-0.1,3.3
				c-0.1,0.6-0.3,1-0.5,1.4c-0.3,0.7-0.9,1.2-1.6,1.7c-0.8,0.5-1.7,0.8-2.8,0.8c-1.1,0-2.1-0.3-2.8-0.8c-0.8-0.5-1.3-1.1-1.7-1.7
				c-0.1-0.2-0.2-0.4-0.3-0.6c-0.1-0.2-0.1-0.5-0.2-0.8C558.1,162.6,558.1,161.5,558.1,159.9z M560.2,159.9c0,1.4,0.1,2.3,0.2,2.8
				c0.1,0.5,0.3,0.9,0.6,1.2c0.2,0.3,0.5,0.5,0.9,0.7c0.4,0.2,0.8,0.3,1.3,0.3c0.5,0,1-0.1,1.3-0.3c0.4-0.2,0.6-0.4,0.9-0.7
				c0.3-0.3,0.5-0.7,0.6-1.2c0.1-0.5,0.1-1.4,0.1-2.8s0-2.4-0.1-2.9c-0.1-0.5-0.3-0.9-0.6-1.2c-0.2-0.3-0.5-0.5-0.9-0.7
				c-0.4-0.2-0.8-0.3-1.3-0.3c-0.5,0-0.9,0.1-1.3,0.3c-0.4,0.2-0.7,0.4-0.9,0.7c-0.3,0.3-0.5,0.7-0.6,1.2
				C560.3,157.5,560.2,158.5,560.2,159.9z"/>
		</g>
		<g>
			<path class="st0" d="M570.8,152.8h5c1.9,0,3.4,0.8,4.3,2.4c0.3,0.5,0.6,1.1,0.7,1.7c0.1,0.6,0.1,1.6,0.1,3c0,1.5-0.1,2.6-0.2,3.2
				c-0.1,0.3-0.1,0.6-0.2,0.8c-0.1,0.2-0.2,0.5-0.4,0.7c-0.4,0.7-1,1.2-1.7,1.7c-0.7,0.5-1.6,0.7-2.7,0.7h-4.8V152.8z M572.9,165
				h2.6c1.2,0,2.1-0.4,2.6-1.2c0.2-0.3,0.4-0.7,0.5-1.2c0.1-0.5,0.1-1.3,0.1-2.6c0-1.2,0-2.1-0.1-2.7c-0.1-0.5-0.3-1-0.6-1.3
				c-0.6-0.8-1.4-1.2-2.5-1.2h-2.6V165z"/>
		</g>
		<g>
			<path class="st0" d="M583.4,152.8h2.2V167h-2.2V152.8z"/>
		</g>
		<g>
			<path class="st0" d="M588.5,152.8h5.5c1.4,0,2.5,0.4,3.2,1.1c0.7,0.7,1.1,1.6,1.1,2.8c0,0.6-0.1,1.1-0.4,1.7
				c-0.2,0.3-0.4,0.5-0.6,0.7c-0.3,0.2-0.6,0.5-1,0.7v0c0.8,0.2,1.4,0.6,1.8,1.2c0.4,0.6,0.6,1.3,0.6,2.1c0,1.2-0.4,2.2-1.2,2.9
				c-0.7,0.7-1.7,1.1-2.8,1.1h-6V152.8z M590.7,154.7v4.1h3.1c0.8,0,1.4-0.2,1.7-0.6c0.4-0.4,0.6-0.9,0.6-1.4s-0.2-1.1-0.6-1.5
				c-0.4-0.4-1-0.6-1.7-0.6H590.7z M590.7,160.7v4.3h3.3c0.8,0,1.4-0.2,1.8-0.7c0.4-0.4,0.6-0.9,0.6-1.5c0-0.6-0.2-1.1-0.6-1.5
				c-0.4-0.4-1-0.6-1.8-0.6H590.7z"/>
		</g>
		<g>
			<path class="st0" d="M600.2,159.9c0-1.7,0-2.8,0.1-3.3c0.1-0.6,0.3-1,0.5-1.4c0.3-0.7,0.9-1.2,1.7-1.8c0.7-0.5,1.7-0.8,2.8-0.8
				c1.1,0,2.1,0.3,2.8,0.8c0.7,0.5,1.3,1.1,1.6,1.8c0.2,0.3,0.4,0.8,0.5,1.4c0.1,0.6,0.1,1.7,0.1,3.3c0,1.6,0,2.7-0.1,3.3
				c-0.1,0.6-0.3,1-0.5,1.4c-0.3,0.7-0.9,1.2-1.6,1.7c-0.8,0.5-1.7,0.8-2.8,0.8c-1.1,0-2.1-0.3-2.8-0.8c-0.8-0.5-1.3-1.1-1.7-1.7
				c-0.1-0.2-0.2-0.4-0.3-0.6c-0.1-0.2-0.1-0.5-0.2-0.8C600.3,162.6,600.2,161.5,600.2,159.9z M602.4,159.9c0,1.4,0.1,2.3,0.2,2.8
				c0.1,0.5,0.3,0.9,0.6,1.2c0.2,0.3,0.5,0.5,0.9,0.7c0.4,0.2,0.8,0.3,1.3,0.3c0.5,0,1-0.1,1.3-0.3c0.4-0.2,0.6-0.4,0.9-0.7
				c0.3-0.3,0.5-0.7,0.6-1.2c0.1-0.5,0.1-1.4,0.1-2.8s0-2.4-0.1-2.9c-0.1-0.5-0.3-0.9-0.6-1.2c-0.2-0.3-0.5-0.5-0.9-0.7
				c-0.4-0.2-0.8-0.3-1.3-0.3c-0.5,0-0.9,0.1-1.3,0.3c-0.4,0.2-0.7,0.4-0.9,0.7c-0.3,0.3-0.5,0.7-0.6,1.2
				C602.5,157.5,602.4,158.5,602.4,159.9z"/>
		</g>
		<g>
			<path class="st0" d="M612.4,159.9c0-1.7,0-2.8,0.1-3.3c0.1-0.6,0.3-1,0.5-1.4c0.3-0.7,0.9-1.2,1.7-1.8c0.7-0.5,1.7-0.8,2.8-0.8
				c1.1,0,2.1,0.3,2.8,0.8c0.7,0.5,1.3,1.1,1.6,1.8c0.2,0.3,0.4,0.8,0.5,1.4c0.1,0.6,0.1,1.7,0.1,3.3c0,1.6,0,2.7-0.1,3.3
				c-0.1,0.6-0.3,1-0.5,1.4c-0.3,0.7-0.9,1.2-1.6,1.7c-0.8,0.5-1.7,0.8-2.8,0.8c-1.1,0-2.1-0.3-2.8-0.8c-0.8-0.5-1.3-1.1-1.7-1.7
				c-0.1-0.2-0.2-0.4-0.3-0.6c-0.1-0.2-0.1-0.5-0.2-0.8C612.5,162.6,612.4,161.5,612.4,159.9z M614.6,159.9c0,1.4,0.1,2.3,0.2,2.8
				c0.1,0.5,0.3,0.9,0.6,1.2c0.2,0.3,0.5,0.5,0.9,0.7c0.4,0.2,0.8,0.3,1.3,0.3c0.5,0,1-0.1,1.3-0.3c0.4-0.2,0.6-0.4,0.9-0.7
				c0.3-0.3,0.5-0.7,0.6-1.2c0.1-0.5,0.1-1.4,0.1-2.8s0-2.4-0.1-2.9c-0.1-0.5-0.3-0.9-0.6-1.2c-0.2-0.3-0.5-0.5-0.9-0.7
				c-0.4-0.2-0.8-0.3-1.3-0.3c-0.5,0-0.9,0.1-1.3,0.3c-0.4,0.2-0.7,0.4-0.9,0.7c-0.3,0.3-0.5,0.7-0.6,1.2
				C614.6,157.5,614.6,158.5,614.6,159.9z"/>
		</g>
		<g>
			<path class="st0" d="M625.1,152.8h2.2v7.3h0l5.9-7.3h2.6l-4.6,5.6l5,8.6h-2.6l-3.9-7l-2.5,2.6v4.3h-2.2V152.8z"/>
		</g>
	</g>
	<g>
		<g>
			<path class="st0" d="M765,163c-0.3,1.3-0.9,2.3-1.8,3c-0.9,0.7-2,1.1-3.2,1.1c-1.1,0-2.1-0.3-2.8-0.8c-0.8-0.5-1.3-1.1-1.7-1.7
				c-0.1-0.2-0.2-0.4-0.3-0.6c-0.1-0.2-0.1-0.5-0.2-0.8c-0.1-0.6-0.1-1.7-0.1-3.3c0-1.7,0-2.8,0.1-3.3c0.1-0.6,0.3-1,0.5-1.4
				c0.3-0.7,0.9-1.2,1.7-1.8c0.7-0.5,1.7-0.8,2.8-0.8c1.4,0,2.5,0.4,3.4,1.2c0.9,0.8,1.4,1.8,1.6,3h-2.3c-0.2-0.6-0.5-1.1-1-1.5
				c-0.5-0.4-1.1-0.6-1.8-0.6c-0.5,0-0.9,0.1-1.3,0.3c-0.4,0.2-0.7,0.4-0.9,0.7c-0.3,0.3-0.5,0.7-0.6,1.2c-0.1,0.5-0.2,1.5-0.2,2.9
				s0.1,2.3,0.2,2.8c0.1,0.5,0.3,0.9,0.6,1.2c0.2,0.3,0.5,0.5,0.9,0.7c0.4,0.2,0.8,0.3,1.3,0.3c1.2,0,2.1-0.6,2.7-1.9H765z"/>
		</g>
		<g>
			<path class="st0" d="M766,159.9c0-1.7,0-2.8,0.1-3.3c0.1-0.6,0.3-1,0.5-1.4c0.3-0.7,0.9-1.2,1.7-1.8c0.7-0.5,1.7-0.8,2.8-0.8
				c1.1,0,2.1,0.3,2.8,0.8c0.7,0.5,1.3,1.1,1.6,1.8c0.2,0.3,0.4,0.8,0.5,1.4c0.1,0.6,0.1,1.7,0.1,3.3c0,1.6,0,2.7-0.1,3.3
				c-0.1,0.6-0.3,1-0.5,1.4c-0.3,0.7-0.9,1.2-1.6,1.7c-0.8,0.5-1.7,0.8-2.8,0.8c-1.1,0-2.1-0.3-2.8-0.8c-0.8-0.5-1.3-1.1-1.7-1.7
				c-0.1-0.2-0.2-0.4-0.3-0.6c-0.1-0.2-0.1-0.5-0.2-0.8C766.1,162.6,766,161.5,766,159.9z M768.2,159.9c0,1.4,0.1,2.3,0.2,2.8
				c0.1,0.5,0.3,0.9,0.6,1.2c0.2,0.3,0.5,0.5,0.9,0.7c0.4,0.2,0.8,0.3,1.3,0.3c0.5,0,1-0.1,1.3-0.3c0.4-0.2,0.6-0.4,0.9-0.7
				c0.3-0.3,0.5-0.7,0.6-1.2c0.1-0.5,0.1-1.4,0.1-2.8s0-2.4-0.1-2.9c-0.1-0.5-0.3-0.9-0.6-1.2c-0.2-0.3-0.5-0.5-0.9-0.7
				c-0.4-0.2-0.8-0.3-1.3-0.3c-0.5,0-0.9,0.1-1.3,0.3c-0.4,0.2-0.7,0.4-0.9,0.7c-0.3,0.3-0.5,0.7-0.6,1.2
				C768.2,157.5,768.2,158.5,768.2,159.9z"/>
		</g>
		<g>
			<path class="st0" d="M778.7,152.8h2l4.1,9.3l4-9.3h2V167h-2.2v-8.9h0l-3,6.8h-1.8l-3-6.8h0v8.9h-2.2V152.8z"/>
		</g>
		<g>
			<path class="st0" d="M793.9,152.8h2l4.1,9.3l4-9.3h2V167h-2.2v-8.9h0l-3,6.8H799l-3-6.8h0v8.9h-2.2V152.8z"/>
		</g>
		<g>
			<path class="st0" d="M808.8,152.8h2.2v9.2c0,1,0.3,1.7,0.8,2.2c0.5,0.5,1.2,0.8,2.1,0.8s1.5-0.3,2.1-0.8c0.5-0.5,0.8-1.2,0.8-2.2
				v-9.2h2.2v9.4c0,1.5-0.5,2.7-1.5,3.6c-1,0.9-2.2,1.4-3.6,1.4c-1.4,0-2.6-0.5-3.6-1.4c-1-0.9-1.5-2.1-1.5-3.6V152.8z"/>
		</g>
		<g>
			<path class="st0" d="M821.6,152.8h2l6.4,10.1h0v-10.1h2.2V167h-2l-6.4-10.1h0V167h-2.2V152.8z"/>
		</g>
		<g>
			<path class="st0" d="M835.3,152.8h2.2V167h-2.2V152.8z"/>
		</g>
		<g>
			<path class="st0" d="M842.9,154.7H839v-1.9h10v1.9H845V167h-2.2V154.7z"/>
		</g>
		<g>
			<path class="st0" d="M852.9,161.1l-4.3-8.4h2.3l3,6.3l3-6.3h2.3l-4.3,8.4v5.9h-2V161.1z"/>
		</g>
	</g>
	<g>
		<g class="st2">
			<g>
				<ellipse class="st10" cx="703.7" cy="601.5" rx="248.4" ry="46.8"/>
			</g>
		</g>
		<g>
			<g>
				<g>
					<rect x="459" y="246.9" class="st11" width="462.4" height="343.8"/>
				</g>
				<g>
					<path d="M922.4,591.7H458V245.9h464.4V591.7z M460,589.7h460.4V247.9H460V589.7z"/>
				</g>
			</g>
			<g>
				<g>
					<path class="st12" d="M767.6,266.7H612.8c-2.5,0-4.5-2-4.5-4.5v0c0-2.5,2-4.5,4.5-4.5h154.8c2.5,0,4.5,2,4.5,4.5v0
						C772.1,264.7,770.1,266.7,767.6,266.7z"/>
				</g>
				<g>
					<path d="M767.6,267.7H612.8c-3,0-5.5-2.5-5.5-5.5c0-3,2.5-5.5,5.5-5.5h154.8c3,0,5.5,2.5,5.5,5.5
						C773.1,265.2,770.6,267.7,767.6,267.7z M612.8,258.7c-1.9,0-3.5,1.6-3.5,3.5c0,1.9,1.6,3.5,3.5,3.5h154.8
						c1.9,0,3.5-1.6,3.5-3.5c0-1.9-1.6-3.5-3.5-3.5H612.8z"/>
				</g>
			</g>
			<g>
				<g>
					<rect x="459" y="426.9" class="st13" width="462.4" height="163.8"/>
				</g>
				<g>
					<path d="M922.4,591.7H458V425.9h464.4V591.7z M460,589.7h460.4V427.9H460V589.7z"/>
				</g>
			</g>
			<g>
				<g>
					<rect x="459" y="448.5" class="st13" width="462.4" height="142.2"/>
				</g>
				<g>
					<path d="M922.4,591.7H458V447.5h464.4V591.7z M460,589.7h460.4V449.5H460V589.7z"/>
				</g>
			</g>
			<g>
				<g>
					<rect x="459" y="246.9" class="st13" width="149.3" height="343.8"/>
				</g>
				<g>
					<path d="M609.3,591.7H458V245.9h151.3V591.7z M460,589.7h147.3V247.9H460V589.7z"/>
				</g>
			</g>
			<g>
				<g>
					<rect x="772" y="246.9" class="st13" width="149.3" height="343.8"/>
				</g>
				<g>
					<path d="M922.3,591.7H771V245.9h151.3V591.7z M773,589.7h147.3V247.9H773V589.7z"/>
				</g>
			</g>
			<g>
				<g>
					<rect x="624.5" y="468.3" class="st14" width="129.6" height="27"/>
				</g>
				<g>
					<path d="M755.1,496.3H623.5v-29h131.6V496.3z M625.5,494.3h127.6v-25H625.5V494.3z"/>
				</g>
			</g>
			<g>
				<g>
					<rect x="624.5" y="507.9" class="st14" width="129.6" height="27"/>
				</g>
				<g>
					<path d="M755.1,535.9H623.5v-29h131.6V535.9z M625.5,533.9h127.6v-25H625.5V533.9z"/>
				</g>
			</g>
			<g>
				<g>
					<rect x="624.5" y="547.5" class="st14" width="129.6" height="27"/>
				</g>
				<g>
					<path d="M755.1,575.5H623.5v-29h131.6V575.5z M625.5,573.5h127.6v-25H625.5V573.5z"/>
				</g>
			</g>
			<g>
				<g>
					<circle class="st15" cx="689.3" cy="522.3" r="7.2"/>
				</g>
				<g>
					<path d="M689.3,530.5c-4.5,0-8.2-3.7-8.2-8.2c0-4.5,3.7-8.2,8.2-8.2c4.5,0,8.2,3.7,8.2,8.2
						C697.5,526.8,693.8,530.5,689.3,530.5z M689.3,516.1c-3.4,0-6.2,2.8-6.2,6.2s2.8,6.2,6.2,6.2s6.2-2.8,6.2-6.2
						S692.7,516.1,689.3,516.1z"/>
				</g>
			</g>
			<g>
				<g>
					<circle class="st15" cx="689.3" cy="561.9" r="7.2"/>
				</g>
				<g>
					<path d="M689.3,570.1c-4.5,0-8.2-3.7-8.2-8.2c0-4.5,3.7-8.2,8.2-8.2c4.5,0,8.2,3.7,8.2,8.2
						C697.5,566.4,693.8,570.1,689.3,570.1z M689.3,555.7c-3.4,0-6.2,2.8-6.2,6.2s2.8,6.2,6.2,6.2s6.2-2.8,6.2-6.2
						S692.7,555.7,689.3,555.7z"/>
				</g>
			</g>
			<g>
				<g>
					<rect x="469.7" y="261.3" class="st14" width="129.6" height="316.8"/>
				</g>
				<g>
					<path d="M600.3,579.1H468.7V260.3h131.6V579.1z M470.7,577.1h127.6V262.3H470.7V577.1z"/>
				</g>
			</g>
			<g>
				<g>
					<rect x="781.1" y="261.3" class="st14" width="129.6" height="316.8"/>
				</g>
				<g>
					<path d="M911.7,579.1H780.1V260.3h131.6V579.1z M782.1,577.1h127.6V262.3H782.1V577.1z"/>
				</g>
			</g>
			<g>
				<g>
					<circle class="st15" cx="689.3" cy="480.9" r="7.2"/>
				</g>
				<g>
					<path d="M689.3,489.1c-4.5,0-8.2-3.7-8.2-8.2c0-4.5,3.7-8.2,8.2-8.2c4.5,0,8.2,3.7,8.2,8.2
						C697.5,485.4,693.8,489.1,689.3,489.1z M689.3,474.7c-3.4,0-6.2,2.8-6.2,6.2s2.8,6.2,6.2,6.2s6.2-2.8,6.2-6.2
						S692.7,474.7,689.3,474.7z"/>
				</g>
			</g>
			<g>
				<g>
					<circle class="st15" cx="484.1" cy="426.9" r="7.2"/>
				</g>
				<g>
					<path d="M484.1,435.1c-4.5,0-8.2-3.7-8.2-8.2c0-4.5,3.7-8.2,8.2-8.2c4.5,0,8.2,3.7,8.2,8.2
						C492.3,431.4,488.6,435.1,484.1,435.1z M484.1,420.7c-3.4,0-6.2,2.8-6.2,6.2s2.8,6.2,6.2,6.2s6.2-2.8,6.2-6.2
						S487.5,420.7,484.1,420.7z"/>
				</g>
			</g>
			<g>
				<g>
					<circle class="st15" cx="896.3" cy="434.1" r="7.2"/>
				</g>
				<g>
					<path d="M896.3,442.3c-4.5,0-8.2-3.7-8.2-8.2c0-4.5,3.7-8.2,8.2-8.2c4.5,0,8.2,3.7,8.2,8.2
						C904.5,438.6,900.8,442.3,896.3,442.3z M896.3,427.9c-3.4,0-6.2,2.8-6.2,6.2s2.8,6.2,6.2,6.2s6.2-2.8,6.2-6.2
						S899.7,427.9,896.3,427.9z"/>
				</g>
			</g>
			<g>
				<g>
					<path class="st16" d="M619.8,365.6h-2.3c-2.1,0-3.8-1.7-3.8-3.8v-60.7c0-2.1,1.7-3.8,3.8-3.8h2.3c2.1,0,3.8,1.7,3.8,3.8v60.7
						C623.6,363.9,621.9,365.6,619.8,365.6z"/>
				</g>
				<g>
					<path d="M619.8,366.6h-2.3c-2.7,0-4.8-2.2-4.8-4.8v-60.7c0-2.7,2.2-4.8,4.8-4.8h2.3c2.7,0,4.8,2.2,4.8,4.8v60.7
						C624.6,364.4,622.5,366.6,619.8,366.6z M617.5,298.3c-1.6,0-2.8,1.3-2.8,2.8v60.7c0,1.6,1.3,2.8,2.8,2.8h2.3
						c1.6,0,2.8-1.3,2.8-2.8v-60.7c0-1.6-1.3-2.8-2.8-2.8H617.5z"/>
				</g>
			</g>
			<g>
				<g>
					<path class="st17" d="M637.7,365.6h-2.3c-2.1,0-3.8-1.7-3.8-3.8v-60.7c0-2.1,1.7-3.8,3.8-3.8h2.3c2.1,0,3.8,1.7,3.8,3.8v60.7
						C641.5,363.9,639.8,365.6,637.7,365.6z"/>
				</g>
				<g>
					<path d="M637.7,366.6h-2.3c-2.7,0-4.8-2.2-4.8-4.8v-60.7c0-2.7,2.2-4.8,4.8-4.8h2.3c2.7,0,4.8,2.2,4.8,4.8v60.7
						C642.5,364.4,640.4,366.6,637.7,366.6z M635.4,298.3c-1.6,0-2.8,1.3-2.8,2.8v60.7c0,1.6,1.3,2.8,2.8,2.8h2.3
						c1.6,0,2.8-1.3,2.8-2.8v-60.7c0-1.6-1.3-2.8-2.8-2.8H635.4z"/>
				</g>
			</g>
			<g>
				<g>
					<path class="st18" d="M655.6,365.6h-2.3c-2.1,0-3.8-1.7-3.8-3.8v-60.7c0-2.1,1.7-3.8,3.8-3.8h2.3c2.1,0,3.8,1.7,3.8,3.8v60.7
						C659.4,363.9,657.7,365.6,655.6,365.6z"/>
				</g>
				<g>
					<path d="M655.6,366.6h-2.3c-2.7,0-4.8-2.2-4.8-4.8v-60.7c0-2.7,2.2-4.8,4.8-4.8h2.3c2.7,0,4.8,2.2,4.8,4.8v60.7
						C660.4,364.4,658.2,366.6,655.6,366.6z M653.3,298.3c-1.6,0-2.8,1.3-2.8,2.8v60.7c0,1.6,1.3,2.8,2.8,2.8h2.3
						c1.6,0,2.8-1.3,2.8-2.8v-60.7c0-1.6-1.3-2.8-2.8-2.8H653.3z"/>
				</g>
			</g>
			<g>
				<g>
					<path class="st19" d="M673.5,365.6h-2.3c-2.1,0-3.8-1.7-3.8-3.8v-60.7c0-2.1,1.7-3.8,3.8-3.8h2.3c2.1,0,3.8,1.7,3.8,3.8v60.7
						C677.3,363.9,675.6,365.6,673.5,365.6z"/>
				</g>
				<g>
					<path d="M673.5,366.6h-2.3c-2.7,0-4.8-2.2-4.8-4.8v-60.7c0-2.7,2.2-4.8,4.8-4.8h2.3c2.7,0,4.8,2.2,4.8,4.8v60.7
						C678.3,364.4,676.1,366.6,673.5,366.6z M671.2,298.3c-1.6,0-2.8,1.3-2.8,2.8v60.7c0,1.6,1.3,2.8,2.8,2.8h2.3
						c1.6,0,2.8-1.3,2.8-2.8v-60.7c0-1.6-1.3-2.8-2.8-2.8H671.2z"/>
				</g>
			</g>
			<g>
				<g>
					<path class="st20" d="M691.6,357.4h-2.8c-2,0-3.6-1.6-3.6-3.6v-52.9c0-2,1.6-3.6,3.6-3.6h2.8c2,0,3.6,1.6,3.6,3.6v52.9
						C695.2,355.7,693.6,357.4,691.6,357.4z"/>
				</g>
				<g>
					<path d="M691.6,358.4h-2.8c-2.5,0-4.6-2.1-4.6-4.6v-52.9c0-2.5,2.1-4.6,4.6-4.6h2.8c2.5,0,4.6,2.1,4.6,4.6v52.9
						C696.2,356.3,694.1,358.4,691.6,358.4z M688.8,298.3c-1.4,0-2.6,1.2-2.6,2.6v52.9c0,1.4,1.2,2.6,2.6,2.6h2.8
						c1.4,0,2.6-1.2,2.6-2.6v-52.9c0-1.4-1.2-2.6-2.6-2.6H688.8z"/>
				</g>
			</g>
			<g>
				<g>
					<path class="st11" d="M712.1,331.4h-6c-1.6,0-3-1.3-3-3v-28.2c0-1.6,1.3-3,3-3h6c1.6,0,3,1.3,3,3v28.2
						C715,330.1,713.7,331.4,712.1,331.4z"/>
				</g>
				<g>
					<path d="M712.1,332.4h-6c-2.2,0-4-1.8-4-4v-28.2c0-2.2,1.8-4,4-4h6c2.2,0,4,1.8,4,4v28.2C716,330.7,714.3,332.4,712.1,332.4z
						 M706.1,298.3c-1.1,0-2,0.9-2,2v28.2c0,1.1,0.9,2,2,2h6c1.1,0,2-0.9,2-2v-28.2c0-1.1-0.9-2-2-2H706.1z"/>
				</g>
			</g>
			<g>
				<g>
					<path class="st21" d="M727.1,365.6h-2.3c-2.1,0-3.8-1.7-3.8-3.8v-60.7c0-2.1,1.7-3.8,3.8-3.8h2.3c2.1,0,3.8,1.7,3.8,3.8v60.7
						C730.9,363.9,729.2,365.6,727.1,365.6z"/>
				</g>
				<g>
					<path d="M727.1,366.6h-2.3c-2.7,0-4.8-2.2-4.8-4.8v-60.7c0-2.7,2.2-4.8,4.8-4.8h2.3c2.7,0,4.8,2.2,4.8,4.8v60.7
						C731.9,364.4,729.8,366.6,727.1,366.6z M724.8,298.3c-1.6,0-2.8,1.3-2.8,2.8v60.7c0,1.6,1.3,2.8,2.8,2.8h2.3
						c1.6,0,2.8-1.3,2.8-2.8v-60.7c0-1.6-1.3-2.8-2.8-2.8H724.8z"/>
				</g>
			</g>
			<g>
				<g>
					<path class="st22" d="M745,365.6h-2.3c-2.1,0-3.8-1.7-3.8-3.8v-60.7c0-2.1,1.7-3.8,3.8-3.8h2.3c2.1,0,3.8,1.7,3.8,3.8v60.7
						C748.8,363.9,747.1,365.6,745,365.6z"/>
				</g>
				<g>
					<path d="M745,366.6h-2.3c-2.7,0-4.8-2.2-4.8-4.8v-60.7c0-2.7,2.2-4.8,4.8-4.8h2.3c2.7,0,4.8,2.2,4.8,4.8v60.7
						C749.8,364.4,747.7,366.6,745,366.6z M742.7,298.3c-1.6,0-2.8,1.3-2.8,2.8v60.7c0,1.6,1.3,2.8,2.8,2.8h2.3
						c1.6,0,2.8-1.3,2.8-2.8v-60.7c0-1.6-1.3-2.8-2.8-2.8H742.7z"/>
				</g>
			</g>
			<g>
				<g>
					<path class="st23" d="M762.9,392.7h-2.3c-2.1,0-3.8-1.7-3.8-3.8v-87.8c0-2.1,1.7-3.8,3.8-3.8h2.3c2.1,0,3.8,1.7,3.8,3.8v87.8
						C766.7,391,765,392.7,762.9,392.7z"/>
				</g>
				<g>
					<path d="M762.9,393.7h-2.3c-2.7,0-4.8-2.2-4.8-4.8v-87.8c0-2.7,2.2-4.8,4.8-4.8h2.3c2.7,0,4.8,2.2,4.8,4.8v87.8
						C767.7,391.5,765.5,393.7,762.9,393.7z M760.6,298.3c-1.6,0-2.8,1.3-2.8,2.8v87.8c0,1.6,1.3,2.8,2.8,2.8h2.3
						c1.6,0,2.8-1.3,2.8-2.8v-87.8c0-1.6-1.3-2.8-2.8-2.8H760.6z"/>
				</g>
			</g>
			<g>
				<g>
					<rect x="618.2" y="267.6" class="st11" width="1.8" height="28.8"/>
				</g>
				<g>
					<rect x="617.2" y="266.6" width="3.8" height="30.8"/>
				</g>
			</g>
			<g>
				<g>
					<rect x="636.2" y="267.6" class="st11" width="1.8" height="28.8"/>
				</g>
				<g>
					<rect x="635.2" y="266.6" width="3.8" height="30.8"/>
				</g>
			</g>
			<g>
				<g>
					<rect x="654.2" y="267.6" class="st11" width="1.8" height="28.8"/>
				</g>
				<g>
					<rect x="653.2" y="266.6" width="3.8" height="30.8"/>
				</g>
			</g>
			<g>
				<g>
					<rect x="672.2" y="267.6" class="st11" width="1.8" height="28.8"/>
				</g>
				<g>
					<rect x="671.2" y="266.6" width="3.8" height="30.8"/>
				</g>
			</g>
			<g>
				<g>
					<rect x="690.2" y="267.6" class="st11" width="1.8" height="28.8"/>
				</g>
				<g>
					<rect x="689.2" y="266.6" width="3.8" height="30.8"/>
				</g>
			</g>
			<g>
				<g>
					<rect x="708.2" y="267.6" class="st11" width="1.8" height="28.8"/>
				</g>
				<g>
					<rect x="707.2" y="266.6" width="3.8" height="30.8"/>
				</g>
			</g>
			<g>
				<g>
					<rect x="724.4" y="267.6" class="st11" width="1.8" height="28.8"/>
				</g>
				<g>
					<rect x="723.4" y="266.6" width="3.8" height="30.8"/>
				</g>
			</g>
			<g>
				<g>
					<rect x="742.4" y="267.6" class="st11" width="1.8" height="28.8"/>
				</g>
				<g>
					<rect x="741.4" y="266.6" width="3.8" height="30.8"/>
				</g>
			</g>
			<g>
				<g>
					<rect x="760.4" y="267.6" class="st11" width="1.8" height="28.8"/>
				</g>
				<g>
					<rect x="759.4" y="266.6" width="3.8" height="30.8"/>
				</g>
			</g>
		</g>
	</g>
	<g>
		<g>
			<g>
				<rect x="289.5" y="612" class="st24" width="25.7" height="90.9"/>
			</g>
			<g>
				<path d="M316.2,703.9h-27.7V611h27.7V703.9z M290.5,701.9h23.7V613h-23.7V701.9z"/>
			</g>
		</g>
		<g>
			<g>
				<rect x="321.3" y="612" class="st24" width="25.7" height="90.9"/>
			</g>
			<g>
				<path d="M348,703.9h-27.7V611H348V703.9z M322.3,701.9H346V613h-23.7V701.9z"/>
			</g>
		</g>
		<g>
			<g>
				<path class="st25" d="M276.9,585.1c0,0,78.8-13.9,79.4,0c0.4,10.2,11.5,43.7,17.4,60.9c1.6,4.7-0.7,10.2-4.1,10.2l-104.2,1.3
					c-3.2-0.1-5.3-5.2-4-9.7L276.9,585.1z"/>
			</g>
			<g>
				<path d="M265.4,658.4c-1.4,0-2.8-0.8-3.7-2.2c-1.6-2.3-2.1-5.8-1.2-8.8l15.6-63.2l0.6-0.1c2.7-0.5,67.3-11.7,78.6-2.6
					c1.2,1,1.9,2.2,1.9,3.5c0.4,10.3,12.3,45.8,17.3,60.6c1.1,3.2,0.6,6.9-1.2,9.3c-1,1.4-2.4,2.2-3.9,2.1L265.4,658.4z
					 M277.8,585.9l-15.3,62c-0.8,2.5-0.4,5.4,0.9,7.1c0.4,0.6,1.1,1.3,2.1,1.3l104.2-1.3c1.1,0,1.8-0.7,2.3-1.3
					c1.4-1.9,1.7-5,0.9-7.5c-6.3-18.5-17-51.1-17.4-61.2c0-0.8-0.4-1.5-1.2-2.1C344.1,574.9,284.6,584.8,277.8,585.9z"/>
			</g>
		</g>
		<g>
			<g>
				<path class="st25" d="M291.2,589.5h50.2c11.9,0,21.7-8.7,21.7-19.4v-70.5c0-10.6-9.8-19.4-21.7-19.4h-50.2
					c-11.9,0-16.2,11.5-16.2,22.2l-5.5,67.7C269.5,580.8,279.3,589.5,291.2,589.5z"/>
			</g>
			<g>
				<path d="M341.4,590.5h-50.2c-12.5,0-22.7-9.1-22.7-20.4l5.5-67.8c0-17,8.9-23.1,17.2-23.1h50.2c12.5,0,22.7,9.1,22.7,20.4v70.5
					C364.1,581.3,353.9,590.5,341.4,590.5z M291.2,481.2c-11.2,0-15.2,10.9-15.2,21.2l-5.5,67.8c0,10,9.3,18.3,20.7,18.3h50.2
					c11.4,0,20.7-8.2,20.7-18.4v-70.5c0-10.1-9.3-18.4-20.7-18.4H291.2z"/>
			</g>
		</g>
		<g>
			<g>
				<path class="st24" d="M280.2,448c3.6,34.9,26.2,46.5,52.3,43.8c26.1-2.7,45.9-18.6,42.3-53.5s-27.7-61-53.8-58.3
					C294.9,382.7,276.6,413.2,280.2,448z"/>
			</g>
			<g>
				<path d="M325.3,493.2c-26.5,0-43.1-16.1-46.1-45.1c-1.8-17.1,1.6-33.7,9.4-46.7c7.9-13.1,19.3-21.1,32.3-22.4
					c26.6-2.7,51.2,23.8,54.9,59.2c1.7,16.7-1.7,30.1-10.3,39.6c-7.5,8.4-18.9,13.6-32.9,15C330.1,493.1,327.6,493.2,325.3,493.2z
					 M324.7,380.8c-1.2,0-2.4,0.1-3.6,0.2c-12.3,1.3-23.2,8.9-30.8,21.5c-7.6,12.7-10.8,28.8-9.1,45.5c2.9,27.8,18.8,43.3,44.2,43.3
					c2.3,0,4.6-0.1,7-0.4c13.6-1.4,24.5-6.4,31.6-14.4c8.1-9.1,11.4-21.9,9.8-38.1C370.4,405.8,348.8,380.8,324.7,380.8z"/>
			</g>
		</g>
		<g class="st26">
			<g>
				<path class="st27" d="M322.6,381.2c0.9-0.1,1.8-0.1,2.7-0.2c-24.5,4.4-41.4,33.4-38,66.5c3.4,33.1,24.4,44.8,49.2,43.2
					c-0.9,0.1-1.8,0.2-2.7,0.3c-26,2.7-48.4-8.7-51.9-43C278.4,413.8,296.6,383.8,322.6,381.2z"/>
			</g>
		</g>
		<g>
			<g>
				<g>
					<ellipse transform="matrix(0.9485 -0.3168 0.3168 0.9485 -121.3273 125.2162)" cx="324.3" cy="435.7" rx="3.9" ry="4.3"/>
				</g>
			</g>
			<g>
				<g>
					<path d="M324.9,435.2c-0.4,0-0.8-0.3-0.9-0.7c-0.2-0.5,0.1-1.1,0.6-1.3c2.4-0.8,2.2-4.8,2.2-4.9c0-0.6,0.4-1,1-1
						c0.5,0,1,0.4,1,1c0,0.2,0.2,5.6-3.6,6.8C325.2,435.2,325,435.2,324.9,435.2z"/>
				</g>
			</g>
		</g>
		<g>
			<g>
				<g>
					<ellipse transform="matrix(0.9485 -0.3168 0.3168 0.9485 -118.6748 134.4998)" cx="354.2" cy="432.1" rx="3.9" ry="4.3"/>
				</g>
			</g>
			<g>
				<g>
					<path d="M354.8,431.7c-0.4,0-0.8-0.3-0.9-0.7c-0.2-0.5,0.1-1.1,0.6-1.3c2.4-0.8,2.2-4.8,2.2-4.9c0-0.6,0.4-1,1-1
						c0.5,0,1,0.4,1,1c0,0.2,0.2,5.6-3.6,6.8C355,431.7,354.9,431.7,354.8,431.7z"/>
				</g>
			</g>
		</g>
		<g>
			<g>
				<path class="st24" d="M359.8,487.3c1,15,5.7,13.8,11.5,13.4c5.8-0.4,10.6,0.1,9.6-14.8c-1-15-6.6-26.8-12.4-26.4
					S358.7,472.3,359.8,487.3z"/>
			</g>
			<g>
				<path d="M367.8,501.9c-1.8,0-3.6-0.3-5-1.6c-2.3-2-3.6-6-4-12.9l0,0c-1.1-15.8,3.1-28.4,9.6-28.9c6.5-0.5,12.4,11.6,13.4,27.3
					c0.5,6.9-0.2,11.1-2.2,13.4c-1.9,2.2-4.6,2.3-7.4,2.5l-1.7,0.1C369.6,501.8,368.7,501.9,367.8,501.9z M360.8,487.2
					c0.4,6.2,1.5,10,3.3,11.6c1.5,1.3,3.6,1.2,6.2,1l1.8-0.1c2.6-0.2,4.7-0.3,6-1.8c1.6-1.8,2.2-5.7,1.7-11.9
					c-1.1-15.6-6.7-25.8-11.3-25.5C363.9,460.8,359.7,471.6,360.8,487.2L360.8,487.2z"/>
			</g>
		</g>
		<g>
			<g>
				<g>
					<path class="st25" d="M341.9,553.4l4.6-3.7c2.5-2,2.8-5.7,0.8-8.2l-40.4-49.3c-6.9-8.5-18.9-12.2-27.4-5.2l-1.7,2
						c-3.8,5.8-3.7,10.1-0.3,14.3l39,47.6C322.7,558.6,334.2,559.7,341.9,553.4z"/>
				</g>
				<g>
					<path d="M330.5,558.5c-0.6,0-1.3,0-1.9-0.1c-5.1-0.5-9.6-2.9-12.9-6.9l-39-47.6c-3.8-4.6-3.7-9.4,0.2-15.5l0.1-0.1l1.9-2.1
						c4.2-3.4,9.5-4.6,15.1-3.4c5.1,1.2,10,4.3,13.7,8.7l40.4,49.3c2.4,2.9,2,7.2-0.9,9.6l-4.6,3.7
						C339.1,557,334.8,558.5,330.5,558.5z M278.5,489.6c-3.4,5.3-3.5,9.2-0.3,13.1l39,47.6c2.9,3.5,7,5.7,11.5,6.1
						c4.5,0.5,9-0.9,12.5-3.8l4.6-3.7c2.1-1.7,2.4-4.7,0.7-6.8L306,492.8c-3.3-4.1-7.9-7-12.6-8.1c-3.5-0.8-8.6-0.9-13.3,2.9
						L278.5,489.6z"/>
				</g>
			</g>
			<g>
				<g>
					<path class="st25" d="M377,495.2l-11.8-8.6c-3.4-2.5-8.1-1.7-10.6,1.6l-34.5,47.3c-5,6.8-3.5,16.5,3.4,21.5l0,0
						c6.4,4.7,15.4,3.2,20.1-3.1l35.1-48.1C381.1,502.4,380.3,497.6,377,495.2z"/>
				</g>
				<g>
					<path d="M331.9,560.8c-3.1,0-6.3-1-9-2.9c-7.3-5.3-8.9-15.6-3.6-22.9l34.5-47.3c2.8-3.8,8.2-4.7,12-1.9l11.8,8.6
						c1.8,1.3,3,3.3,3.4,5.6c0.4,2.3-0.2,4.5-1.5,6.4l-35.1,48.1C341.3,558.6,336.6,560.8,331.9,560.8z M360.7,486.1
						c-2,0-4,0.9-5.3,2.7l-34.5,47.3c-4.7,6.4-3.3,15.5,3.1,20.1c5.9,4.3,14.3,3,18.7-2.9l35.1-48.1c1-1.4,1.4-3.1,1.2-4.9
						c-0.3-1.7-1.2-3.3-2.6-4.3l-11.8-8.6C363.4,486.5,362,486.1,360.7,486.1z"/>
				</g>
			</g>
		</g>
		<g>
			<g>
				<g>
					<path class="st24" d="M342.8,435.6c0,0,1.8,10.3,5.9,7.1c5-3.9,2.6,5.5-1.7,7.1"/>
				</g>
				<g>
					<path d="M347,450.7c-0.4,0-0.8-0.3-0.9-0.7c-0.2-0.5,0.1-1.1,0.6-1.3c1.5-0.6,2.9-2.5,3.5-4.1c0.4-1,0.4-1.7,0.4-2
						c-0.2,0.1-0.6,0.2-1.2,0.7c-1.3,1-2.4,0.9-3.2,0.6c-2.9-1.1-4.1-7.1-4.3-8.3c-0.1-0.5,0.3-1.1,0.8-1.2c0.5-0.1,1.1,0.3,1.2,0.8
						c0.4,2.5,1.7,6.3,3.1,6.8c0.1,0.1,0.5,0.2,1.2-0.4c0.5-0.4,2.1-1.6,3.4-0.9c0.4,0.2,1.1,0.8,1,2.4c-0.2,2.4-2.2,6.3-5.2,7.4
						C347.2,450.7,347.1,450.7,347,450.7z"/>
				</g>
			</g>
			<g class="st26">
				<g>
					<path class="st27" d="M349,445c-0.6,1-1.1,0.8-1.1,1.4c0,0.4,1.4,0.3,1.9-0.7c0.6-1,0.2-2.4-0.1-2.6
						C349.4,443,349.6,444.1,349,445z"/>
				</g>
			</g>
		</g>
		<g>
			<g>
				<circle class="st28" cx="344" cy="445.5" r="0.6"/>
			</g>
		</g>
		<g>
			<g>
				
					<ellipse transform="matrix(0.9948 -0.1023 0.1023 0.9948 -43.15 39.6889)" class="st29" cx="365.5" cy="440.7" rx="7.7" ry="3.9"/>
			</g>
		</g>
		<g>
			<g>
				
					<ellipse transform="matrix(0.9948 -0.1023 0.1023 0.9948 -43.9455 34.5745)" class="st29" cx="315.3" cy="445.9" rx="7.7" ry="3.9"/>
			</g>
		</g>
		<g>
			<g>
				<path class="st1" d="M367.9,426.5c0.9,3-0.5,3.8,0.9,4.9c0.9,0.7,3.2-2.3,2.3-5.2c-0.9-3-4.3-5-5.5-4.7
					C364.5,421.8,367,423.5,367.9,426.5z"/>
			</g>
		</g>
		<g>
			<g>
				<path class="st1" d="M321.3,459.7c0.8,6.6,11.5,14.7,23.3,13.3s20.2-11.9,19.4-18.6c-0.8-6.6-9.6,1-21.4,2.4
					S320.5,453.1,321.3,459.7z"/>
			</g>
			<g>
				<path d="M341.8,474.2c-4.7,0-9.4-1.4-13.5-3.9c-4.6-2.9-7.6-6.7-8-10.4l0,0c-0.2-1.5,0.1-2.6,0.9-3.4c1.6-1.6,4.7-1.3,9-0.9
					c3.5,0.4,7.8,0.8,12.3,0.2c4.5-0.6,8.6-2,11.9-3.2c4.1-1.5,7-2.5,9-1.4c0.9,0.6,1.5,1.6,1.7,3c0.9,7.6-8.2,18.2-20.2,19.7
					C343.8,474.1,342.8,474.2,341.8,474.2z M322.3,459.6c0.4,3,3.1,6.4,7.1,8.9c4.6,2.9,9.9,4.1,15.1,3.4
					c11.6-1.4,19.2-11.6,18.5-17.5c-0.2-1.2-0.6-1.5-0.7-1.6c-1.1-0.7-3.9,0.3-7.2,1.5c-3.4,1.2-7.6,2.8-12.3,3.4
					c-4.7,0.6-9.2,0.1-12.8-0.2c-3.5-0.4-6.5-0.7-7.4,0.3C322.5,458,322.2,458.4,322.3,459.6L322.3,459.6z"/>
			</g>
		</g>
		<g>
			<g>
				<path class="st1" d="M357.5,458.6c0,0-12.7,9.2-28.6,4"/>
			</g>
			<g>
				<path d="M339,465.2c-3.2,0-6.7-0.5-10.4-1.7c-0.5-0.2-0.8-0.7-0.6-1.3c0.2-0.5,0.7-0.8,1.3-0.6c15.1,5,27.5-3.7,27.7-3.8
					c0.4-0.3,1.1-0.2,1.4,0.2c0.3,0.4,0.2,1.1-0.2,1.4C357.7,459.7,350,465.2,339,465.2z"/>
			</g>
		</g>
		<g>
			<g>
				<path d="M335.1,467.9c-0.3,0-0.5-0.1-0.7-0.3c-2.5-2.5-2.1-7.2-2-7.4c0.1-0.5,0.5-1,1.1-0.9c0.5,0.1,1,0.5,0.9,1.1
					c0,0-0.4,4,1.5,5.8c0.4,0.4,0.4,1,0,1.4C335.6,467.8,335.4,467.9,335.1,467.9z"/>
			</g>
		</g>
		<g class="st26">
			<g>
				<path class="st27" d="M366.3,464.7c-1.2,5.3-2.5,13.2-1.3,17.9c0.3,1.1-1.2,1.9-1.9,1c-1-1.2-1.7-2.9-1.2-5.3
					c0.7-3.7,1.9-10.1,3.5-13.9C365.6,463.9,366.4,464.2,366.3,464.7z"/>
			</g>
		</g>
		<g>
			<g>
				<path d="M364.4,417.7c-6,0.4-14.3,1.1-18.7,2.5c-1.4,0.4-3-0.4-3.5-1.7c-1.4-3.8-4-10.5-7-15c-0.9-1.4-3.1-0.4-2.7,1.2
					c1.9,7.4,4.7,20,2.5,20.2c0,0-28.6,2.7-36.8,14.8c-1.4,2.1-3.3,3.8-5.7,4.7c-4,1.6-9.9,3.8-12.4,3.7
					c-3.9-0.2-31.8-58.8,35.1-68.2c0,0,43.3-28.6,54.9,30.5C370.9,414,368.2,417.5,364.4,417.7z"/>
			</g>
			<g>
				<path d="M280.4,449c-0.1,0-0.2,0-0.3,0c-2.7-0.1-9.4-13.3-10-27c-0.5-10.3,2.3-19.2,8.2-26.2c7.4-8.9,19.7-14.6,36.5-17
					c0.9-0.6,5-3.1,10.7-4.9c8.5-2.8,16.4-2.7,23.1,0c11.1,4.7,18.7,16.8,22.5,36.1c0.4,2-0.1,4.2-1.4,5.8c-1.3,1.6-3.2,2.7-5.3,2.8
					h0c-6.1,0.4-14.2,1.1-18.5,2.5c-1.9,0.6-4-0.5-4.7-2.4c-1.3-3.6-3.9-10.3-6.9-14.8c-0.2-0.3-0.5-0.2-0.6-0.2
					c-0.1,0.1-0.4,0.2-0.3,0.6c4.6,18.2,3.3,20.1,2.8,20.8c-0.3,0.4-0.7,0.6-1.1,0.7c-0.3,0-28.2,2.8-36.1,14.3
					c-1.6,2.4-3.7,4.1-6.1,5.1C286.8,447.8,282.6,449,280.4,449z M280.4,447.1L280.4,447.1L280.4,447.1z M280.4,447
					c1.8,0,6.1-1.3,11.9-3.6c2-0.8,3.8-2.3,5.2-4.3c8.1-11.9,34.3-14.9,37.3-15.2c0.2-0.6,0.6-3.9-3.2-19c-0.3-1.2,0.3-2.4,1.4-2.9
					c1.1-0.5,2.4-0.1,3.1,0.9c3.1,4.6,5.8,11.5,7.1,15.2c0.3,0.9,1.3,1.4,2.2,1.1c4.5-1.4,12.8-2.2,18.9-2.5h0
					c1.5-0.1,2.9-0.8,3.8-2c0.9-1.2,1.3-2.7,1-4.2c-3.7-18.6-10.8-30.3-21.3-34.7c-15-6.3-31.9,4.7-32,4.8l-0.2,0.1l-0.2,0
					c-25.3,3.6-40.1,14.9-42.8,32.8C270.1,429.7,278.3,445.9,280.4,447z"/>
			</g>
		</g>
		<g>
			<g>
				<path class="st24" d="M273.5,460.4c0.8,7.7,4.8,10.4,9.4,9.9s7.9,1,7.1-6.7c-0.8-7.7-5-18.5-9.6-18S272.7,452.7,273.5,460.4z"/>
			</g>
			<g>
				<path d="M281.9,471.4c-5.2,0-8.7-4-9.4-10.9c-0.9-8.4,2.5-15.4,7.8-15.9c2.6-0.3,5.1,2,7.2,6.5c1.7,3.6,3.1,8.4,3.5,12.4
					c0.3,3.2,0,5.1-1,6.2c-1.1,1.3-2.9,1.4-4.8,1.4c-0.7,0-1.4,0-2.1,0.1C282.6,471.4,282.2,471.4,281.9,471.4z M280.6,446.6
					c-0.1,0-0.1,0-0.2,0c-4,0.4-6.7,6.7-6,13.7c0.6,6.3,3.6,9.5,8.3,9c0.8-0.1,1.6-0.1,2.3-0.1c1.7-0.1,2.8-0.1,3.4-0.7
					c0.6-0.7,0.8-2.3,0.5-4.7c-0.4-3.9-1.7-8.4-3.3-11.8C284,448.6,282.2,446.6,280.6,446.6z"/>
			</g>
		</g>
		<g>
			<g>
				<path d="M293,393c-0.2-0.5-0.4-1-0.8-1.4c-4.3-4.8-32.2-16.6-39.1,10.4c-10.9,42.5-16.3,76.1-21.6,88.7c-0.8,1.8-1.9,5,0.1,5.1
					c6,0.2,27.1-7.1,34.8-26.3c11.5-28.8,15.1-40,24.6-46.7C299.6,416.8,294.2,397.1,293,393z"/>
			</g>
			<g>
				<path d="M231.9,496.8c-0.1,0-0.2,0-0.2,0c-0.7,0-1.3-0.3-1.7-0.9c-0.7-1-0.5-2.7,0.7-5.6c2.9-7,6-21,9.9-38.8
					c3.1-13.9,6.9-31.1,11.6-49.8c3-11.9,10.1-16,15.4-17.3c10.7-2.6,22.6,3.4,25.3,6.5c0.4,0.5,0.8,1.1,1,1.7l0,0
					c1.7,5.7,6.6,24.7-2.2,31c-8.2,5.9-11.9,15.2-20.9,37.7c-1.1,2.7-2.2,5.5-3.4,8.6C259.9,488.8,238.9,496.8,231.9,496.8z
					 M231.6,494.8C231.6,494.8,231.7,494.8,231.6,494.8c0.1,0,0.2,0,0.2,0c5,0,26-6.4,33.7-25.6c1.2-3,2.3-5.9,3.4-8.6
					c9.1-22.9,12.8-32.4,21.6-38.6c7.9-5.6,2.6-25,1.5-28.8l0,0c-0.1-0.4-0.3-0.7-0.5-1c-2.4-2.7-13.6-8.2-23.4-5.8
					c-7,1.7-11.7,7-14,15.8c-4.8,18.6-8.6,35.9-11.6,49.7c-4.1,18.6-7,32-10,39.1C231.4,493.9,231.6,494.7,231.6,494.8
					C231.6,494.8,231.6,494.8,231.6,494.8z"/>
			</g>
		</g>
	</g>
	<g>
		<g>
			<path class="st1" d="M295.1,311.8c0-38.2-46.8-69.2-104.6-69.2c-57.8,0-104.6,31-104.6,69.2S132.6,381,190.4,381
				c3.2,0,6.4-0.1,9.6-0.3c1.6-0.1,3.1,0.2,4.5,1c10.2,5.6,23.4,10.3,31.7,12.9c2.1,0.7,4-1.5,3.1-3.6c-1.6-3.2-2.7-7.2-3.4-11.2
				c-0.6-3.1,1.2-6.1,4.1-7.1C272.8,361.1,295.1,338.2,295.1,311.8z"/>
		</g>
		<g>
			<path d="M237.1,395.8c-0.4,0-0.7-0.1-1.1-0.2c-9-2.9-21.9-7.5-31.9-13c-1.2-0.7-2.6-1-4-0.9c-3.2,0.2-6.5,0.3-9.6,0.3
				c-58.3,0-105.6-31.5-105.6-70.2c0-38.7,47.4-70.2,105.6-70.2s105.6,31.5,105.6,70.2c0,25.9-21.4,49.6-55.7,61.9
				c-2.5,0.9-4,3.4-3.5,6c0.9,4.5,2,8.2,3.3,11c0.6,1.3,0.4,2.8-0.5,3.9C239,395.3,238.1,395.8,237.1,395.8z M200.6,379.7
				c1.6,0,3.1,0.4,4.5,1.1c9.9,5.5,22.6,10,31.5,12.9c0.6,0.2,1.2,0,1.6-0.5c0.4-0.5,0.5-1.1,0.2-1.7c-1.4-3-2.6-6.8-3.5-11.5
				c-0.7-3.6,1.3-7,4.8-8.3c33.6-12,54.4-34.9,54.4-60c0-37.6-46.5-68.2-103.6-68.2c-57.1,0-103.6,30.6-103.6,68.2
				c0,37.6,46.5,68.2,103.6,68.2c3.1,0,6.4-0.1,9.5-0.3C200.2,379.7,200.4,379.7,200.6,379.7z"/>
		</g>
	</g>
	<g>
		<g>
			<path d="M108.1,303.4h5.2c0.6,0,1.1,0.1,1.6,0.2c0.5,0.1,1,0.4,1.6,0.8c0.4,0.3,0.8,0.8,1.1,1.4c0.3,0.6,0.4,1.2,0.4,2
				c0,1.1-0.4,2-1.1,2.9c-0.8,0.9-1.9,1.4-3.3,1.4h-3.3v5.6h-2.2V303.4z M110.2,310.1h3.2c0.8,0,1.4-0.3,1.8-0.7
				c0.4-0.5,0.6-1,0.6-1.6c0-0.5-0.1-0.9-0.2-1.2c-0.2-0.3-0.4-0.5-0.7-0.7c-0.4-0.3-1-0.4-1.5-0.4h-3.1V310.1z"/>
		</g>
		<g>
			<path d="M119.8,303.4h2V315c0,0.5,0.3,0.7,0.8,0.7h0.7v1.9h-0.9c-0.7,0-1.4-0.2-1.8-0.6c-0.5-0.4-0.8-1-0.8-1.9V303.4z"/>
		</g>
		<g>
			<path d="M126.5,313.4c0,0.8,0.2,1.4,0.7,1.9c0.4,0.4,1,0.6,1.7,0.6c0.8,0,1.6-0.3,2.2-1l1.5,1.3c-1,1.1-2.3,1.7-3.7,1.6
				c-0.5,0-1.1-0.1-1.6-0.2c-0.3-0.1-0.5-0.2-0.7-0.3c-0.3-0.1-0.5-0.3-0.7-0.5c-0.4-0.4-0.8-0.9-1-1.6c-0.3-0.7-0.4-1.5-0.4-2.5
				c0-1,0.1-1.8,0.4-2.5c0.3-0.7,0.6-1.2,1-1.6c0.4-0.4,0.9-0.7,1.4-0.9c0.5-0.2,1-0.3,1.5-0.3c1.2,0,2.1,0.4,2.9,1.1
				c0.8,0.8,1.2,1.8,1.2,3.1v1.7H126.5z M130.7,311.7c0-0.8-0.2-1.4-0.6-1.8c-0.4-0.4-0.9-0.6-1.5-0.6s-1.1,0.2-1.5,0.6
				c-0.4,0.4-0.6,1-0.6,1.8H130.7z"/>
		</g>
		<g>
			<path d="M140.2,316.8L140.2,316.8c-0.2,0.3-0.5,0.6-0.9,0.8c-0.4,0.2-0.9,0.3-1.6,0.3c-1.1,0-2-0.3-2.6-0.9c-0.6-0.6-1-1.3-1-2.2
				c0-0.9,0.3-1.6,0.8-2.1c0.6-0.6,1.4-0.9,2.5-0.9h2.8v-1.1c0-0.9-0.7-1.3-2.1-1.3c-0.5,0-0.9,0.1-1.2,0.2
				c-0.3,0.1-0.5,0.3-0.7,0.6l-1.6-1.2c0.8-1,1.9-1.5,3.4-1.5c1.3,0,2.3,0.2,3.1,0.7c0.8,0.5,1.1,1.4,1.2,2.6v6.9h-2V316.8z
				 M140.2,313.4h-2.4c-1.2,0-1.8,0.4-1.8,1.2c0,0.3,0.2,0.6,0.5,0.9c0.3,0.3,0.8,0.4,1.5,0.4c0.9,0,1.5-0.1,1.8-0.3
				c0.3-0.2,0.5-0.7,0.5-1.5V313.4z"/>
		</g>
		<g>
			<path d="M148.4,315.9c0.6,0,1.1-0.1,1.4-0.3c0.4-0.2,0.6-0.5,0.6-1c0-0.4-0.1-0.6-0.3-0.8c-0.2-0.1-0.5-0.2-0.9-0.2l-1.8-0.2
				c-0.9-0.1-1.5-0.4-2.1-0.9c-0.5-0.5-0.8-1.2-0.8-2c0-1,0.4-1.8,1.1-2.3c0.7-0.5,1.6-0.8,2.7-0.8c0.5,0,0.9,0,1.3,0.1
				c0.4,0.1,0.7,0.2,1,0.3c0.6,0.3,1.2,0.6,1.7,1l-1.3,1.5c-0.4-0.3-0.8-0.5-1.2-0.7c-0.4-0.2-0.9-0.2-1.5-0.2
				c-0.6,0-1.1,0.1-1.3,0.3c-0.3,0.2-0.4,0.5-0.4,0.9c0,0.2,0.1,0.4,0.3,0.6c0.2,0.2,0.5,0.3,1,0.4l1.7,0.1c1.1,0.1,1.8,0.4,2.3,1
				c0.4,0.5,0.7,1.2,0.7,2.1c0,1-0.4,1.7-1.2,2.3c-0.8,0.5-1.8,0.8-3,0.8c-1.7,0-3.1-0.6-4.5-1.8l1.4-1.4
				C146,315.4,147.1,315.9,148.4,315.9z"/>
		</g>
		<g>
			<path d="M156.1,313.4c0,0.8,0.2,1.4,0.7,1.9c0.4,0.4,1,0.6,1.7,0.6c0.8,0,1.6-0.3,2.2-1l1.5,1.3c-1,1.1-2.3,1.7-3.7,1.6
				c-0.5,0-1.1-0.1-1.6-0.2c-0.3-0.1-0.5-0.2-0.7-0.3c-0.3-0.1-0.5-0.3-0.7-0.5c-0.4-0.4-0.8-0.9-1-1.6c-0.3-0.7-0.4-1.5-0.4-2.5
				c0-1,0.1-1.8,0.4-2.5c0.3-0.7,0.6-1.2,1-1.6c0.4-0.4,0.9-0.7,1.4-0.9c0.5-0.2,1-0.3,1.5-0.3c1.2,0,2.1,0.4,2.9,1.1
				c0.8,0.8,1.2,1.8,1.2,3.1v1.7H156.1z M160.3,311.7c0-0.8-0.2-1.4-0.6-1.8c-0.4-0.4-0.9-0.6-1.5-0.6s-1.1,0.2-1.5,0.6
				c-0.4,0.4-0.6,1-0.6,1.8H160.3z"/>
		</g>
		<g>
			<path d="M169.4,304.4h2v3.1h1.5v1.6h-1.5v5.9c0,0.5,0.2,0.8,0.7,0.8h0.8v1.9h-1.1c-0.7,0-1.3-0.2-1.8-0.7c-0.5-0.4-0.7-1-0.7-1.8
				v-6.1h-1v-1.6h1V304.4z"/>
		</g>
		<g>
			<path d="M174.9,307.5h2v1.1h0c0.7-0.8,1.5-1.2,2.6-1.2c0.8,0,1.5,0.3,2.1,0.8l-1.5,1.8c-0.4-0.3-0.9-0.5-1.3-0.5
				c-0.5,0-1,0.2-1.3,0.5c-0.4,0.3-0.6,0.9-0.6,1.6v6.1h-2V307.5z"/>
		</g>
		<g>
			<path d="M181.2,307.5h2.2l2.4,7.1h0l2.4-7.1h2.2l-4.4,12.2c-0.3,0.8-0.7,1.3-1.2,1.6c-0.5,0.3-1.1,0.4-1.7,0.4h-0.7v-1.9h0.6
				c0.3,0,0.5-0.1,0.7-0.2c0.2-0.1,0.4-0.4,0.5-0.7l0.6-1.7L181.2,307.5z"/>
		</g>
		<g>
			<path d="M196.4,304.4h2v3.1h1.5v1.6h-1.5v5.9c0,0.5,0.2,0.8,0.7,0.8h0.8v1.9h-1.1c-0.7,0-1.3-0.2-1.8-0.7c-0.5-0.4-0.7-1-0.7-1.8
				v-6.1h-1v-1.6h1V304.4z"/>
		</g>
		<g>
			<path d="M201.9,303.4h2v5.2h0c0.7-0.8,1.5-1.2,2.6-1.2c0.8,0,1.6,0.3,2.3,0.9c0.7,0.6,1.1,1.5,1.1,2.6v6.7h-2v-6
				c0-0.7-0.2-1.2-0.6-1.6c-0.4-0.4-0.8-0.6-1.4-0.6s-1.1,0.2-1.4,0.6c-0.4,0.4-0.6,0.9-0.6,1.6v6h-2V303.4z"/>
		</g>
		<g>
			<path d="M214.2,313.4c0,0.8,0.2,1.4,0.7,1.9c0.4,0.4,1,0.6,1.7,0.6c0.8,0,1.6-0.3,2.2-1l1.5,1.3c-1,1.1-2.3,1.7-3.7,1.6
				c-0.5,0-1.1-0.1-1.6-0.2c-0.3-0.1-0.5-0.2-0.7-0.3c-0.3-0.1-0.5-0.3-0.7-0.5c-0.4-0.4-0.8-0.9-1-1.6c-0.3-0.7-0.4-1.5-0.4-2.5
				c0-1,0.1-1.8,0.4-2.5c0.3-0.7,0.6-1.2,1-1.6c0.4-0.4,0.9-0.7,1.4-0.9c0.5-0.2,1-0.3,1.5-0.3c1.2,0,2.1,0.4,2.9,1.1
				c0.8,0.8,1.2,1.8,1.2,3.1v1.7H214.2z M218.4,311.7c0-0.8-0.2-1.4-0.6-1.8c-0.4-0.4-0.9-0.6-1.5-0.6s-1.1,0.2-1.5,0.6
				c-0.4,0.4-0.6,1-0.6,1.8H218.4z"/>
		</g>
		<g>
			<path d="M234.9,316c-0.4,0.5-1,0.9-1.6,1.2c-0.6,0.3-1.3,0.5-2.1,0.5c-1.2,0-2.2-0.4-3.2-1.2c-0.9-0.8-1.4-2.1-1.4-4
				c0-1.8,0.5-3.2,1.4-4c0.9-0.8,2-1.2,3.2-1.2c0.8,0,1.5,0.2,2.1,0.5c0.6,0.3,1.1,0.7,1.6,1.3l-1.5,1.3c-0.5-0.7-1.2-1-2.1-1.1
				c-1.7,0-2.6,1-2.6,3.2c0,2.1,0.9,3.2,2.6,3.1c0.9,0,1.5-0.4,2.1-1.1L234.9,316z"/>
		</g>
		<g>
			<path d="M236.3,303.4h2V315c0,0.5,0.3,0.7,0.8,0.7h0.7v1.9h-0.9c-0.7,0-1.4-0.2-1.8-0.6c-0.5-0.4-0.8-1-0.8-1.9V303.4z"/>
		</g>
		<g>
			<path d="M241,312.6c0-1.1,0.1-1.9,0.3-2.5c0.2-0.6,0.5-1,0.8-1.4c0.3-0.3,0.7-0.6,1.2-0.9c0.5-0.3,1.1-0.4,1.9-0.4
				c0.8,0,1.4,0.1,1.9,0.4c0.5,0.3,0.9,0.6,1.1,0.9c0.4,0.4,0.7,0.9,0.9,1.4c0.2,0.6,0.2,1.4,0.2,2.5c0,1.1-0.1,1.9-0.2,2.4
				c-0.2,0.6-0.5,1-0.9,1.5c-0.1,0.2-0.3,0.3-0.5,0.4c-0.2,0.2-0.4,0.3-0.7,0.4c-0.5,0.3-1.1,0.4-1.9,0.4c-0.8,0-1.4-0.2-1.9-0.4
				c-0.5-0.3-0.9-0.5-1.2-0.9c-0.4-0.4-0.7-0.9-0.8-1.5C241,314.5,241,313.7,241,312.6z M247.3,312.6c0-0.7,0-1.2-0.1-1.6
				c-0.1-0.3-0.2-0.6-0.4-0.8c-0.1-0.2-0.4-0.4-0.7-0.5c-0.3-0.1-0.6-0.2-1-0.2c-0.3,0-0.7,0.1-1,0.2c-0.3,0.1-0.5,0.3-0.7,0.5
				c-0.2,0.2-0.3,0.5-0.4,0.8c-0.1,0.3-0.1,0.9-0.1,1.6c0,0.7,0,1.2,0.1,1.5c0.1,0.3,0.2,0.6,0.4,0.9c0.2,0.2,0.4,0.4,0.7,0.5
				c0.3,0.1,0.6,0.2,1,0.2c0.4,0,0.7-0.1,1-0.2c0.3-0.1,0.5-0.3,0.7-0.5c0.2-0.3,0.3-0.5,0.4-0.9
				C247.2,313.8,247.3,313.3,247.3,312.6z"/>
		</g>
		<g>
			<path d="M255,315.9c0.6,0,1.1-0.1,1.4-0.3c0.4-0.2,0.6-0.5,0.6-1c0-0.4-0.1-0.6-0.3-0.8c-0.2-0.1-0.5-0.2-0.9-0.2l-1.8-0.2
				c-0.9-0.1-1.5-0.4-2.1-0.9c-0.5-0.5-0.8-1.2-0.8-2c0-1,0.4-1.8,1.1-2.3c0.7-0.5,1.6-0.8,2.7-0.8c0.5,0,0.9,0,1.3,0.1
				c0.4,0.1,0.7,0.2,1,0.3c0.6,0.3,1.2,0.6,1.7,1l-1.3,1.5c-0.4-0.3-0.8-0.5-1.2-0.7c-0.4-0.2-0.9-0.2-1.5-0.2
				c-0.6,0-1.1,0.1-1.3,0.3c-0.3,0.2-0.4,0.5-0.4,0.9c0,0.2,0.1,0.4,0.3,0.6c0.2,0.2,0.5,0.3,1,0.4l1.7,0.1c1.1,0.1,1.8,0.4,2.3,1
				c0.4,0.5,0.7,1.2,0.7,2.1c0,1-0.4,1.7-1.2,2.3c-0.8,0.5-1.8,0.8-3,0.8c-1.7,0-3.1-0.6-4.5-1.8l1.4-1.4
				C252.6,315.4,253.6,315.9,255,315.9z"/>
		</g>
		<g>
			<path d="M262.6,313.4c0,0.8,0.2,1.4,0.7,1.9c0.4,0.4,1,0.6,1.7,0.6c0.8,0,1.6-0.3,2.2-1l1.5,1.3c-1,1.1-2.3,1.7-3.7,1.6
				c-0.5,0-1.1-0.1-1.6-0.2c-0.3-0.1-0.5-0.2-0.7-0.3c-0.3-0.1-0.5-0.3-0.7-0.5c-0.4-0.4-0.8-0.9-1-1.6c-0.3-0.7-0.4-1.5-0.4-2.5
				c0-1,0.1-1.8,0.4-2.5c0.3-0.7,0.6-1.2,1-1.6c0.4-0.4,0.9-0.7,1.4-0.9c0.5-0.2,1-0.3,1.5-0.3c1.2,0,2.1,0.4,2.9,1.1
				c0.8,0.8,1.2,1.8,1.2,3.1v1.7H262.6z M266.9,311.7c0-0.8-0.2-1.4-0.6-1.8c-0.4-0.4-0.9-0.6-1.5-0.6s-1.1,0.2-1.5,0.6
				c-0.4,0.4-0.6,1-0.6,1.8H266.9z"/>
		</g>
		<g>
			<path d="M271.2,304.4h2v3.1h1.5v1.6h-1.5v5.9c0,0.5,0.2,0.8,0.7,0.8h0.8v1.9h-1.1c-0.7,0-1.3-0.2-1.8-0.7c-0.5-0.4-0.7-1-0.7-1.8
				v-6.1h-1v-1.6h1V304.4z"/>
		</g>
		<g>
			<path d="M276.7,315.6h2v2h-2V315.6z"/>
		</g>
	</g>
</g>
<g>
	<g>
		<path class="st0" d="M1001,155.9h1.4v8h4.5v1.3h-6V155.9z"/>
	</g>
	<g>
		<path class="st0" d="M1007.8,161.9c0-0.7,0.1-1.2,0.2-1.6c0.1-0.4,0.3-0.7,0.6-0.9c0.2-0.2,0.4-0.4,0.8-0.6
			c0.3-0.2,0.7-0.3,1.2-0.3c0.5,0,1,0.1,1.3,0.3c0.3,0.2,0.6,0.4,0.7,0.6c0.3,0.3,0.5,0.6,0.6,0.9c0.1,0.4,0.2,0.9,0.2,1.6
			c0,0.7-0.1,1.2-0.2,1.6c-0.1,0.4-0.3,0.7-0.6,1c-0.1,0.1-0.2,0.2-0.3,0.3c-0.1,0.1-0.3,0.2-0.4,0.3c-0.3,0.2-0.8,0.3-1.3,0.3
			c-0.5,0-0.9-0.1-1.2-0.3c-0.3-0.2-0.6-0.4-0.8-0.6c-0.2-0.3-0.4-0.6-0.6-1C1007.9,163.1,1007.8,162.6,1007.8,161.9z M1012,161.9
			c0-0.5,0-0.8-0.1-1c0-0.2-0.1-0.4-0.3-0.6c-0.1-0.1-0.2-0.3-0.4-0.4c-0.2-0.1-0.4-0.1-0.6-0.1c-0.2,0-0.4,0-0.6,0.1
			c-0.2,0.1-0.3,0.2-0.4,0.4c-0.1,0.2-0.2,0.3-0.2,0.6c-0.1,0.2-0.1,0.6-0.1,1c0,0.5,0,0.8,0.1,1c0.1,0.2,0.1,0.4,0.2,0.6
			c0.1,0.1,0.3,0.2,0.4,0.3c0.2,0.1,0.4,0.1,0.6,0.1c0.2,0,0.5,0,0.6-0.1c0.2-0.1,0.3-0.2,0.4-0.3c0.1-0.2,0.2-0.4,0.3-0.6
			C1011.9,162.7,1012,162.4,1012,161.9z"/>
	</g>
	<g>
		<path class="st0" d="M1018.4,164.5c-0.4,0.5-1,0.8-1.7,0.8c-0.4,0-0.8-0.1-1.1-0.3c-0.3-0.2-0.5-0.3-0.7-0.5
			c-0.2-0.2-0.3-0.5-0.4-0.8c-0.1-0.3-0.1-0.9-0.1-1.8c0-0.9,0-1.5,0.1-1.8c0.1-0.3,0.2-0.6,0.4-0.8c0.2-0.2,0.4-0.4,0.7-0.6
			c0.3-0.2,0.6-0.2,1.1-0.2c0.7,0,1.2,0.3,1.7,0.8v-0.7h1.3v6.5c0,1-0.3,1.7-0.9,2.2c-0.6,0.5-1.2,0.7-2,0.7c-0.9,0-1.7-0.4-2.3-1.1
			l1-0.8c0.2,0.2,0.4,0.3,0.6,0.4c0.2,0.1,0.5,0.2,0.7,0.2c0.5,0,0.8-0.1,1.1-0.4c0.3-0.3,0.4-0.6,0.4-1.1V164.5z M1015.8,161.9
			c0,0.5,0,0.9,0.1,1.1c0,0.2,0.1,0.4,0.2,0.5c0.1,0.1,0.2,0.2,0.4,0.3c0.2,0.1,0.4,0.2,0.7,0.2c0.3,0,0.5-0.1,0.7-0.2
			c0.2-0.1,0.3-0.2,0.4-0.3c0.1-0.1,0.2-0.3,0.2-0.5c0-0.2,0-0.5,0-1.1c0-0.5,0-0.9,0-1.1c0-0.2-0.1-0.4-0.2-0.5
			c-0.1-0.1-0.2-0.2-0.4-0.4c-0.2-0.1-0.4-0.2-0.7-0.2c-0.3,0-0.5,0.1-0.7,0.2c-0.2,0.1-0.3,0.2-0.4,0.4c-0.1,0.1-0.2,0.3-0.2,0.5
			C1015.8,161,1015.8,161.4,1015.8,161.9z"/>
	</g>
	<g>
		<path class="st0" d="M1024.8,155.9h1.4v9.3h-1.4V155.9z"/>
	</g>
	<g>
		<path class="st0" d="M1028,158.6h1.3v0.7h0c0.4-0.5,1-0.8,1.7-0.8c0.6,0,1.1,0.2,1.5,0.6c0.5,0.4,0.7,1,0.7,1.7v4.4h-1.3v-4
			c0-0.5-0.1-0.8-0.4-1.1c-0.2-0.2-0.6-0.4-0.9-0.4c-0.4,0-0.7,0.1-0.9,0.4c-0.3,0.2-0.4,0.6-0.4,1.1v4h-1.3V158.6z"/>
	</g>
</g>
<g>
	<g>
		<path class="st1" d="M1017.1,183.9c-12.4,0-22.5-10.1-22.5-22.5s10.1-22.5,22.5-22.5s22.5,10.1,22.5,22.5
			S1029.5,183.9,1017.1,183.9z M1017.1,140.9c-11.3,0-20.5,9.2-20.5,20.5s9.2,20.5,20.5,20.5s20.5-9.2,20.5-20.5
			S1028.4,140.9,1017.1,140.9z"/>
	</g>
</g>
</svg>
