<?xml version="1.0" encoding="utf-8"?>
<!-- Generator: Adobe Illustrator 22.0.1, SVG Export Plug-In . SVG Version: 6.00 Build 0)  -->
<svg version="1.1" id="Layer_1" xmlns="http://www.w3.org/2000/svg" xmlns:xlink="http://www.w3.org/1999/xlink" x="0px" y="0px"
	 viewBox="0 0 1120.8 712" style="enable-background:new 0 0 1120.8 712;" xml:space="preserve">
<style type="text/css">
	.st0{fill:#FFAF78;}
	.st1{fill:#848484;}
	.st2{fill:#FC3535;}
	.st3{fill:#382612;}
	.st4{fill:#FFE7BD;}
	.st5{opacity:0.4;}
	.st6{fill:#C4B7A1;}
	.st7{fill:#FFFFFF;}
	.st8{fill:#F38475;}
	.st9{fill:#F2CC67;}
	.st10{fill:#60D36D;}
</style>
<g id="XMLID_9_">
	<g>
		<g>
			<g>
				<path class="st0" d="M745.7,46.7v510.1c0,8.8-7.1,15.9-15.9,15.9H24.6c-8.8,0-15.9-7.1-15.9-15.9V46.7h1H745.7z"/>
			</g>
		</g>
		<g>
			<g>
				<path class="st1" d="M745.7,25.6v21.1H9.7h-1V25.6c0-8.8,7.1-15.9,15.9-15.9h705.3C738.6,9.7,745.7,16.8,745.7,25.6z"/>
			</g>
		</g>
	</g>
	<g>
		<g>
			<g>
				<path d="M729.8,573.7H24.6c-9.3,0-16.9-7.6-16.9-16.9V25.6c0-9.3,7.6-16.9,16.9-16.9h705.3c9.3,0,16.9,7.6,16.9,16.9v531.3
					C746.7,566.2,739.1,573.7,729.8,573.7z M24.6,10.7c-8.2,0-14.9,6.7-14.9,14.9v531.3c0,8.2,6.7,14.9,14.9,14.9h705.3
					c8.2,0,14.9-6.7,14.9-14.9V25.6c0-8.2-6.7-14.9-14.9-14.9C729.9,10.7,24.6,10.7,24.6,10.7z"/>
			</g>
		</g>
		<g>
			<g>
				<rect x="9.7" y="45.7" width="736" height="2"/>
			</g>
		</g>
	</g>
</g>
<g>
	<g>
		<g>
			<path class="st2" d="M291.5,572.2H107.9c-4.8,0-8.7-3.9-8.7-8.7V539c0-4.8,3.9-8.7,8.7-8.7h183.5c4.8,0,8.7,3.9,8.7,8.7v24.5
				C300.2,568.3,296.3,572.2,291.5,572.2z"/>
		</g>
	</g>
	<g>
		<g>
			<path d="M291.5,573.2H107.9c-5.4,0-9.7-4.4-9.7-9.7V539c0-5.4,4.4-9.7,9.7-9.7h183.5c5.4,0,9.7,4.4,9.7,9.7v24.5
				C301.2,568.9,296.8,573.2,291.5,573.2z M107.9,531.2c-4.3,0-7.7,3.5-7.7,7.7v24.5c0,4.3,3.5,7.7,7.7,7.7h183.5
				c4.3,0,7.7-3.5,7.7-7.7V539c0-4.3-3.5-7.7-7.7-7.7L107.9,531.2L107.9,531.2z"/>
		</g>
	</g>
</g>
<g>
	<g>
		<g>
			<path class="st2" d="M257.2,536.2H142.9c-27.2,0-49.4,16.2-49.4-8.1V367.7c0-24.2,22.2-44.1,49.4-44.1h114.3
				c27.2,0,36.9,26.2,36.9,50.4l12.5,154.1C306.7,552.4,284.4,536.2,257.2,536.2z"/>
		</g>
	</g>
	<g>
		<g>
			<path d="M104.4,542.5c-3.2,0-5.8-0.6-7.8-2.3c-2.7-2.2-4-6.2-4-12.1V367.7c0-24.8,22.6-45.1,50.4-45.1h114.3
				c12.7,0,22.9,5.7,29.5,16.6c5.4,8.9,8.4,21.3,8.4,34.8l12.5,154.1c0,6-1.3,9.9-4,12.2c-4.6,3.8-12.4,2.2-22.3,0.1
				c-7.2-1.5-15.4-3.1-24.1-3.1H142.9c-8.7,0-16.9,1.7-24.1,3.1C113.3,541.5,108.4,542.5,104.4,542.5z M142.9,535.2h114.3
				c8.9,0,17.2,1.7,24.5,3.2c9.4,1.9,16.8,3.4,20.6,0.3c2.2-1.8,3.3-5.3,3.3-10.5l-12.5-154.1c0-24-9.4-49.5-35.9-49.5H142.9
				c-26.7,0-48.4,19.3-48.4,43.1v160.5c0,5.3,1.1,8.7,3.3,10.5c3.9,3.2,11.3,1.6,20.6-0.3C125.8,536.9,134,535.2,142.9,535.2z"/>
		</g>
	</g>
</g>
<g>
	<g>
		<g>
			<path class="st3" d="M203.7,85.5c0,0-100.8,20.4-115.8,142.8c-0.5,3.8-2,7.3-4.4,10.2c-11.1,13.8-16.3,64.8,50.4,75.8
				c2.3,0.4,22.3,2.2,24.6,1.8c4-0.8,9-3.1,9.3-9.9C167.8,306.2,136.3,85.2,203.7,85.5z"/>
		</g>
	</g>
</g>
<g>
	<g>
		<g>
			<path class="st4" d="M314.2,232.3c-8.2,79.4-59.6,105.8-119,99.7S90.8,289.5,98.9,210.1s63-138.8,122.4-132.7
				S322.4,152.9,314.2,232.3z"/>
		</g>
	</g>
	<g>
		<g>
			<path d="M211.2,333.8c-5.2,0-10.6-0.3-16-0.8c-31.7-3.3-57.3-14.9-74.1-33.8c-19.2-21.4-26.9-51.5-23-89.2
				c8.2-79.8,63.6-139.8,123.5-133.6c29.1,3,54.8,20.9,72.5,50.4c17.7,29.4,25.2,66.9,21.2,105.5c-3.9,37.7-17.6,65.5-40.7,82.6
				C257.8,327.4,236.1,333.8,211.2,333.8z M213,78c-55.6,0-105.3,57.2-113,132.3c-3.8,37.1,3.8,66.6,22.5,87.6
				c16.5,18.5,41.7,29.9,72.8,33.1c31.2,3.2,58.2-2.9,78.1-17.6c22.6-16.8,36.1-44.1,39.9-81.2c3.9-38.2-3.5-75.2-20.9-104.3
				c-17.4-29-42.6-46.5-71-49.5C218.5,78.1,215.7,78,213,78z"/>
		</g>
	</g>
</g>
<g class="st5">
	<g>
		<g>
			<path class="st6" d="M219.8,79c-2.1-0.2-4.1-0.3-6.2-0.4c55.8,10,94.2,76.1,86.4,151.5s-55.6,102.1-112,98.4
				c2,0.3,4.1,0.5,6.1,0.7c59.1,6.1,110.2-19.8,118.3-97.9C320.4,153.3,278.9,85.1,219.8,79z"/>
		</g>
	</g>
</g>
<g>
	<path class="st7" d="M203.3,239.6c-0.8,16.8-15.1,29.8-31.9,29s-29.8-15.1-29-31.9s14.4-4.8,31.2-4S204,222.8,203.3,239.6z"/>
	<path d="M172.8,269.7c-0.5,0-1,0-1.5,0c-17.4-0.8-30.8-15.6-30-32.9c0.2-4.4,1.3-7.2,3.3-8.6c3.2-2.3,8-1,14.1,0.8
		c4.4,1.2,9.5,2.7,14.8,2.9c5.4,0.3,10.4-0.7,14.9-1.5c5.9-1.1,10.5-2,13.3,0.5c1.9,1.6,2.7,4.5,2.4,9c-0.4,8.4-4,16.2-10.3,21.8
		C188.1,266.8,180.7,269.7,172.8,269.7z M149,228.8c-1.3,0-2.4,0.2-3.2,0.9c-1.5,1.1-2.3,3.4-2.5,7.1c-0.8,16.2,11.8,30.1,28.1,30.8
		c7.9,0.4,15.4-2.4,21.2-7.7c5.8-5.3,9.2-12.6,9.6-20.4c0.2-3.8-0.4-6.2-1.8-7.4c-2.1-1.8-6.3-1-11.6,0c-4.6,0.9-9.7,1.8-15.4,1.6
		c-5.6-0.3-10.7-1.7-15.3-3C154.6,229.7,151.4,228.8,149,228.8z"/>
</g>
<g>
	<g>
		<g>
			<path class="st3" d="M190.9,76.9L190.9,76.9c12.3-8.8,37.3,0,37.5,0l0,0c97.1,9.3,106.2,112,106.2,112
				c4.1,24.2,8.3,107.1-4.2,124.2c-16.2,22.2-87.7,17.2-83.6-22.1s33.6-11.8,36.7-67.6s-45.6-58.3-45.6-58.3
				c-38.4-4-37.6-26.1-37.6-27l0,0c-16,12.4-6.3,21.9-5.6,22.5l0,0c-24-2.5-9.5-24.5-8.6-25.9l0,0c-20.2,13.1-4.2,23.8-2.8,24.7v0.1
				c-30.4-3.2-19.3-33.9-6.8-56.3c-15.6,8.4-40.6,20.7-44.7,39.7c-4.7,21.4-19.2,28.7-26.1,31.1c-1.8,0.6-3.5-0.9-3.2-2.7
				C102.3,171.3,109.4,78.1,190.9,76.9z"/>
		</g>
	</g>
</g>
<g>
	<g>
		<g>
			<path class="st7" d="M117.6,182.3c-2.1,6.8,1.2,8.6-2,11.1c-2.1,1.7-7.4-5.1-5.3-11.9c2.1-6.8,9.9-11.4,12.5-10.6
				C125.4,171.6,119.6,175.5,117.6,182.3z"/>
		</g>
	</g>
</g>
<g>
	<g>
		<g>
			<path class="st4" d="M157.4,307.7c-2.3,34.1-12.9,31.4-26.1,30.5s-24.1,0.3-21.8-33.8s14.9-61,28.2-60.1
				C150.9,245.3,159.8,273.6,157.4,307.7z"/>
		</g>
	</g>
	<g>
		<g>
			<path d="M139,339.7c-1.9,0-3.8-0.1-5.8-0.3c-0.7,0-1.3-0.1-2-0.1s-1.3-0.1-2-0.1c-6.2-0.4-12-0.7-15.9-5.2
				c-4.3-4.9-5.8-14.3-4.8-29.5c2.4-35.2,15.3-61.9,29.2-61c14,1,23.1,29.2,20.7,64.4c-1,15.2-3.8,24.3-8.7,28.6
				C146.6,339,143,339.7,139,339.7z M137,245.4c-12.4,0-24.2,26.2-26.5,59.2c-1,14.7,0.4,23.6,4.3,28.1c3.4,3.9,8.6,4.2,14.5,4.5
				c0.7,0,1.3,0.1,2,0.1s1.3,0.1,2,0.1c6,0.5,11.1,0.8,15-2.5c4.5-3.9,7.1-12.5,8.1-27.2c2.3-33.5-6.2-61.4-18.8-62.3
				C137.4,245.4,137.2,245.4,137,245.4z"/>
		</g>
	</g>
</g>
<g>
	<g>
		<g>
			<path class="st2" d="M114.9,307.8l14.9,1c10.6,0.7,18.6,10,17.9,20.5l-9.9,144.9c-0.8,11.5-10.8,20.3-22.3,19.5l0,0
				c-17.4-1.2-30.6-16.4-29.4-33.7l9.2-135.1C96,314.8,104.8,307.1,114.9,307.8z"/>
		</g>
	</g>
	<g>
		<g>
			<path d="M116.9,494.8c-0.5,0-1,0-1.5-0.1c-18-1.2-31.6-16.8-30.4-34.8l9.2-135.1c0.4-5.2,2.7-9.9,6.6-13.3s8.9-5.1,14.1-4.8
				l14.9,1c5.4,0.4,10.3,2.8,13.9,6.9c3.6,4.1,5.3,9.3,5,14.7l-9.9,144.9C138,485.9,128.4,494.8,116.9,494.8z M113.6,308.7
				c-4.2,0-8.2,1.5-11.4,4.3c-3.5,3.1-5.6,7.3-5.9,11.9L87.1,460c-1.1,16.9,11.6,31.5,28.5,32.7c11,0.7,20.5-7.6,21.3-18.6
				l9.9-144.9c0.3-4.8-1.3-9.5-4.5-13.2s-7.7-5.9-12.5-6.2l-14.9-1C114.4,308.7,114,308.7,113.6,308.7z"/>
		</g>
	</g>
</g>
<g>
	<g>
		<g>
			<path class="st4" d="M185.1,312.6c-2.3,34.1-12.9,31.4-26.1,30.5c-13.2-0.9-24.1,0.3-21.8-33.8s14.9-61,28.2-60.1
				C178.6,250.1,187.5,278.5,185.1,312.6z"/>
		</g>
	</g>
	<g>
		<g>
			<path d="M166.7,344.5c-1.9,0-3.8-0.1-5.8-0.3c-0.7,0-1.3-0.1-2-0.1s-1.3-0.1-2-0.1c-6.2-0.4-12-0.7-15.9-5.2
				c-4.3-4.9-5.8-14.3-4.8-29.5c1.1-16.6,4.7-32,10.1-43.5c5.5-11.7,12.3-18,19.1-17.5c14,1,23.1,29.2,20.7,64.4
				c-1,15.2-3.8,24.3-8.7,28.6C174.3,343.9,170.7,344.5,166.7,344.5z M164.8,250.2c-5.7,0-11.7,5.9-16.6,16.4
				c-5.3,11.2-8.8,26.4-9.9,42.8c-1,14.7,0.4,23.6,4.3,28.1c3.4,3.9,8.6,4.2,14.5,4.5c0.7,0,1.3,0.1,2,0.1s1.3,0.1,2,0.1
				c6,0.5,11.1,0.8,15-2.5c4.5-3.9,7.1-12.5,8.1-27.2c2.3-33.5-6.2-61.4-18.8-62.3C165.1,250.2,164.9,250.2,164.8,250.2z"/>
		</g>
	</g>
</g>
<g>
	<g>
		<g>
			<g>
				<path class="st2" d="M136.9,484.1l-10.4-8.5c-5.6-4.6-6.5-13-1.8-18.6l92.1-112.2c15.8-19.3,43-27.7,62.3-11.9l3.9,4.6
					c8.6,13.2,8.5,23.1,0.7,32.6l-88.9,108.4C180.4,495.9,154.4,498.4,136.9,484.1z"/>
			</g>
		</g>
		<g>
			<g>
				<path d="M162.9,494.4c-9.7,0-19-3.3-26.6-9.5l-10.4-8.5c-2.9-2.4-4.7-5.8-5.1-9.6c-0.4-3.8,0.7-7.5,3.1-10.4L216,344.1
					c8-9.8,19.1-16.9,30.4-19.5c12.3-2.8,24.1-0.2,33.3,7.4l0.1,0.1l4,4.7c8.7,13.3,8.9,23.8,0.6,33.8L195.5,479
					c-7.1,8.7-17.2,14-28.4,15.1C165.7,494.3,164.3,494.4,162.9,494.4z M137.5,483.3c8.2,6.8,18.7,9.9,29.4,8.9
					c10.7-1.1,20.3-6.2,27.1-14.4l88.9-108.4c7.7-9.4,7.5-18.8-0.7-31.4l-3.8-4.5c-8.7-7.1-19.9-9.6-31.5-6.9
					c-10.9,2.5-21.5,9.3-29.3,18.8l-92.1,112.2c-2.1,2.5-3,5.7-2.7,9s1.9,6.2,4.4,8.3L137.5,483.3z"/>
			</g>
		</g>
	</g>
	<g>
		<g>
			<g>
				<path class="st2" d="M147.8,310l33.3,2.3c9.4,0.6,16.6,8.9,16,18.3L188,463.5c-1.3,19.3-18.1,33.9-37.4,32.6l0,0
					c-17.9-1.2-31.6-16.9-30.4-34.8l9.2-135.3C130.1,316.6,138.4,309.4,147.8,310z"/>
			</g>
		</g>
		<g>
			<g>
				<path d="M153,497.2c-0.8,0-1.6,0-2.5-0.1c-18.5-1.3-32.6-17.4-31.3-35.9l9.2-135.3c0.3-4.8,2.5-9.3,6.2-12.5s8.4-4.8,13.2-4.5
					l33.3,2.3c4.8,0.3,9.3,2.5,12.5,6.2s4.8,8.4,4.5,13.2l-9.1,133C187.7,482.6,171.8,497.2,153,497.2z M146.6,311
					c-3.9,0-7.6,1.4-10.6,4c-3.3,2.9-5.2,6.8-5.5,11.1l-9.2,135.3c-1.2,17.4,12,32.6,29.4,33.8c18.8,1.3,35-12.9,36.3-31.7
					l9.1-132.9c0.3-4.3-1.1-8.5-4-11.7c-2.9-3.3-6.8-5.2-11.1-5.5l-33.3-2.3C147.4,311,147,311,146.6,311z"/>
			</g>
		</g>
	</g>
</g>
<g>
	<g>
		<g>
			
				<ellipse transform="matrix(0.1023 -0.9948 0.9948 0.1023 -102.9544 295.0556)" class="st0" cx="112" cy="204.6" rx="9" ry="17.6"/>
		</g>
	</g>
</g>
<g>
	<g>
		<g>
			
				<ellipse transform="matrix(0.1023 -0.9948 0.9948 0.1023 -12.0163 419.6725)" class="st0" cx="226.5" cy="216.5" rx="9" ry="17.6"/>
		</g>
	</g>
</g>
<g>
	<g>
		<g>
			<ellipse class="st8" cx="37.2" cy="28.3" rx="7" ry="7"/>
		</g>
	</g>
	<g>
		<g>
			<path d="M37.2,36.3c-4.4,0-8-3.6-8-8s3.6-8,8-8s8,3.6,8,8S41.6,36.3,37.2,36.3z M37.2,22.3c-3.3,0-6,2.7-6,6s2.7,6,6,6s6-2.7,6-6
				S40.5,22.3,37.2,22.3z"/>
		</g>
	</g>
</g>
<g>
	<g>
		<g>
			<ellipse class="st9" cx="65.7" cy="28.3" rx="7" ry="7"/>
		</g>
	</g>
	<g>
		<g>
			<path d="M65.7,36.3c-4.4,0-8-3.6-8-8s3.6-8,8-8s8,3.6,8,8S70.1,36.3,65.7,36.3z M65.7,22.3c-3.3,0-6,2.7-6,6s2.7,6,6,6
				c3.3,0,6-2.7,6-6S69,22.3,65.7,22.3z"/>
		</g>
	</g>
</g>
<g>
	<g>
		<g>
			<ellipse class="st10" cx="94.2" cy="28.3" rx="7" ry="7"/>
		</g>
	</g>
	<g>
		<g>
			<path d="M94.2,36.3c-4.4,0-8-3.6-8-8s3.6-8,8-8s8,3.6,8,8S98.6,36.3,94.2,36.3z M94.2,22.3c-3.3,0-6,2.7-6,6s2.7,6,6,6s6-2.7,6-6
				S97.5,22.3,94.2,22.3z"/>
		</g>
	</g>
</g>
<g class="st5">
	<g>
		<g>
			<path class="st6" d="M171.3,265.3c2.7,12,5.8,30.1,2.9,40.8c-0.7,2.6,2.6,4.4,4.4,2.3c2.3-2.7,3.8-6.6,2.7-12.2
				c-1.7-8.5-4.2-23.1-7.9-31.6C172.8,263.4,171,264,171.3,265.3z"/>
		</g>
	</g>
</g>
<g>
	<path class="st7" d="M117.5,182.5c-2.1,6.8,1.2,8.6-2,11.1c-2.1,1.7-7.4-5.1-5.3-11.9c2.1-6.8,9.9-11.4,12.5-10.6
		S119.6,175.7,117.5,182.5z"/>
</g>
<g>
	<g>
		<g>
			<ellipse transform="matrix(0.9948 -0.1023 0.1023 0.9948 -18.6487 16.7628)" cx="154.1" cy="190.2" rx="8.9" ry="9.9"/>
		</g>
	</g>
	<g>
		<circle class="st7" cx="151.2" cy="185.2" r="1.5"/>
	</g>
	<g>
		<circle class="st7" cx="155.7" cy="193.7" r="3"/>
	</g>
</g>
<g>
	<g>
		<g>
			<ellipse transform="matrix(0.9948 -0.1023 0.1023 0.9948 -19.1894 22.1961)" cx="206.8" cy="198.2" rx="8.9" ry="9.9"/>
		</g>
	</g>
	<g>
		<circle class="st7" cx="204.4" cy="194.2" r="1.5"/>
	</g>
	<g>
		<circle class="st7" cx="208.9" cy="202.7" r="3"/>
	</g>
</g>
<g>
	<g>
		<g>
			<g>
				<path class="st7" d="M640.5,35.6C511,35.6,406,100.1,406,179.6c0,43.5,31.4,82.5,81.1,108.9c-0.7,3.1-1.1,6.3-1.1,9.6
					c0,23.5,19,42.5,42.5,42.5c16.9,0,31.6-9.9,38.4-24.2c23.2,4.7,47.9,7.2,73.6,7.2c129.5,0,234.5-64.5,234.5-144
					S770,35.6,640.5,35.6z"/>
			</g>
		</g>
		<g>
			<g>
				<path d="M528.5,341.6c-24,0-43.5-19.5-43.5-43.5c0-3,0.3-6.1,1-9.1c-51.5-27.6-81-67.4-81-109.4c0-38.8,24.6-75.3,69.2-102.7
					c44.4-27.3,103.5-42.3,166.3-42.3s121.9,15,166.3,42.3c44.6,27.4,69.2,63.9,69.2,102.7s-24.6,75.3-69.2,102.7
					c-44.4,27.3-103.5,42.3-166.3,42.3c-24.9,0-49.5-2.4-73.1-7.1C560.1,332.2,544.9,341.6,528.5,341.6z M640.5,36.6
					c-128.8,0-233.5,64.1-233.5,143c0,41.4,29.4,80.8,80.6,108l0.7,0.4l-0.2,0.7c-0.7,3.1-1.1,6.2-1.1,9.4
					c0,22.9,18.6,41.5,41.5,41.5c15.9,0,30.6-9.3,37.5-23.7l0.3-0.7l0.8,0.2c23.6,4.8,48.3,7.2,73.4,7.2
					c128.8,0,233.5-64.1,233.5-143S769.3,36.6,640.5,36.6z"/>
			</g>
		</g>
	</g>
	<g>
		<g>
			<g>
				<circle class="st7" cx="476.5" cy="379.1" r="28.5"/>
			</g>
		</g>
		<g>
			<g>
				<path d="M476.5,408.6c-16.3,0-29.5-13.2-29.5-29.5s13.2-29.5,29.5-29.5s29.5,13.2,29.5,29.5S492.8,408.6,476.5,408.6z
					 M476.5,351.6c-15.2,0-27.5,12.3-27.5,27.5s12.3,27.5,27.5,27.5s27.5-12.3,27.5-27.5S491.7,351.6,476.5,351.6z"/>
			</g>
		</g>
	</g>
	<g>
		<g>
			<g>
				<circle class="st7" cx="416.5" cy="413.1" r="17.5"/>
			</g>
		</g>
		<g>
			<g>
				<path d="M416.5,431.6c-10.2,0-18.5-8.3-18.5-18.5s8.3-18.5,18.5-18.5s18.5,8.3,18.5,18.5S426.7,431.6,416.5,431.6z M416.5,396.6
					c-9.1,0-16.5,7.4-16.5,16.5s7.4,16.5,16.5,16.5s16.5-7.4,16.5-16.5S425.6,396.6,416.5,396.6z"/>
			</g>
		</g>
	</g>
	<g>
		<g>
			<g>
				<circle class="st7" cx="365.5" cy="413.1" r="12.5"/>
			</g>
		</g>
		<g>
			<g>
				<path d="M365.5,426.6c-7.4,0-13.5-6.1-13.5-13.5s6.1-13.5,13.5-13.5s13.5,6.1,13.5,13.5S372.9,426.6,365.5,426.6z M365.5,401.6
					c-6.3,0-11.5,5.2-11.5,11.5s5.2,11.5,11.5,11.5s11.5-5.2,11.5-11.5S371.8,401.6,365.5,401.6z"/>
			</g>
		</g>
	</g>
	<g>
		<g>
			<g>
				<path d="M472.3,197.7h4.9v4.9h-4.9V197.7z"/>
			</g>
			<g>
				<path d="M477.7,203.1h-5.9v-5.9h5.9V203.1z M472.8,202.1h3.9v-3.9h-3.9V202.1z"/>
			</g>
		</g>
		<g>
			<g>
				<path d="M483.8,197.7h4.9v4.9h-4.9V197.7z"/>
			</g>
			<g>
				<path d="M489.2,203.1h-5.9v-5.9h5.9V203.1z M484.3,202.1h3.9v-3.9h-3.9V202.1z"/>
			</g>
		</g>
		<g>
			<g>
				<path d="M495.3,197.7h4.9v4.9h-4.9V197.7z"/>
			</g>
			<g>
				<path d="M500.7,203.1h-5.9v-5.9h5.9V203.1z M495.8,202.1h3.9v-3.9h-3.9V202.1z"/>
			</g>
		</g>
		<g>
			<g>
				<path d="M504.1,168.4h5.5l5.4,24.3h0.1l6.6-24.3h3.8l6.6,24.3h0.1l5.4-24.3h5.5l-8.5,34.2h-4.3l-6.5-24.6h-0.1l-6.5,24.6h-4.3
					L504.1,168.4z"/>
			</g>
			<g>
				<path d="M534.8,203.1h-5.1l-6.2-23.4l-6.2,23.4h-5.1l-8.8-35.2h6.5l5.1,22.9l6.3-22.9h4.5l6.2,22.9l5.1-22.9h6.5L534.8,203.1z
					 M530.4,202.1h3.6l8.3-33.2h-4.4l-5.4,24.3h-0.8l-0.2-0.4l-6.5-23.9h-3l-6.6,24.3h-0.8l-0.2-0.4l-5.3-23.9h-4.4l8.3,33.2h3.5
					l6.5-24.6h0.8l0.2,0.4L530.4,202.1z"/>
			</g>
		</g>
		<g>
			<g>
				<path d="M545.8,168.4h4.9v12.4h0.1c1.6-1.9,3.7-2.9,6.3-2.9c2,0,3.9,0.7,5.5,2.1c1.7,1.4,2.5,3.5,2.6,6.3v16.2h-4.9V188
					c0-1.7-0.5-3-1.4-3.9s-2-1.4-3.4-1.4s-2.6,0.5-3.5,1.4s-1.4,2.2-1.4,3.9v14.5h-4.9v-34.1H545.8z"/>
			</g>
			<g>
				<path d="M565.7,203.1h-5.9v-15c0-1.6-0.4-2.7-1.2-3.5s-1.8-1.2-3.1-1.2s-2.3,0.4-3.1,1.2s-1.2,2-1.2,3.5v15h-5.9v-35.2h5.9v11.8
					c1.6-1.5,3.6-2.2,5.9-2.2c2.1,0,4.1,0.8,5.9,2.3c1.8,1.5,2.7,3.8,2.8,6.7v16.6L565.7,203.1L565.7,203.1z M560.8,202.1h3.9v-15.7
					c-0.1-2.6-0.9-4.6-2.4-6c-1.6-1.3-3.3-2-5.2-2c-2.5,0-4.4,0.9-5.9,2.7l-0.1,0.2h-0.7l-0.1-0.5v-11.9h-3.9v33.2h3.9v-14
					c0-1.8,0.5-3.3,1.5-4.2c1-1,2.3-1.5,3.8-1.5s2.8,0.5,3.8,1.5s1.5,2.4,1.5,4.2L560.8,202.1L560.8,202.1z"/>
			</g>
		</g>
		<g>
			<g>
				<path d="M570.3,190.4c0-2.6,0.2-4.5,0.6-5.9c0.4-1.3,1.1-2.5,2-3.4c0.7-0.8,1.6-1.5,2.8-2.2c1.2-0.6,2.7-0.9,4.6-1
					c1.9,0,3.5,0.4,4.7,1s2.1,1.4,2.7,2.2c1,0.9,1.7,2.1,2.1,3.4c0.4,1.4,0.6,3.3,0.6,5.9s-0.2,4.5-0.6,5.9
					c-0.4,1.3-1.1,2.5-2.1,3.5c-0.3,0.4-0.7,0.7-1.1,1.1c-0.4,0.4-0.9,0.7-1.6,1c-1.2,0.7-2.7,1-4.7,1.1c-1.9,0-3.4-0.4-4.6-1.1
					c-1.2-0.6-2.1-1.3-2.8-2.1c-0.9-1-1.6-2.1-2-3.5C570.6,194.9,570.3,193,570.3,190.4z M585.5,190.5c0-1.7-0.1-3-0.2-3.8
					c-0.2-0.8-0.5-1.4-1-2c-0.4-0.5-0.9-1-1.6-1.3c-0.7-0.3-1.5-0.5-2.3-0.5s-1.6,0.2-2.3,0.5s-1.2,0.7-1.6,1.3
					c-0.4,0.6-0.7,1.2-0.9,2s-0.3,2-0.3,3.8c0,1.7,0.1,2.9,0.3,3.7s0.5,1.5,0.9,2.1c0.4,0.5,1,0.9,1.6,1.2c0.7,0.3,1.5,0.5,2.3,0.5
					c0.9,0,1.7-0.2,2.3-0.5c0.7-0.4,1.2-0.8,1.6-1.2c0.5-0.6,0.8-1.3,1-2.1C585.4,193.3,585.5,192.1,585.5,190.5z"/>
			</g>
			<g>
				<path d="M580.4,203.4c-2,0-3.6-0.4-4.8-1.1c-1.2-0.6-2.2-1.4-2.9-2.2c-0.9-1-1.7-2.3-2.1-3.7c-0.4-1.4-0.7-3.4-0.7-6
					s0.2-4.6,0.7-6.1c0.5-1.4,1.2-2.6,2.1-3.6c0.7-0.8,1.7-1.6,2.9-2.3c1.3-0.6,2.9-1,4.8-1c2,0,3.7,0.4,4.9,1
					c1.2,0.7,2.2,1.5,2.9,2.3c1,0.9,1.7,2.1,2.1,3.6c0.4,1.4,0.6,3.5,0.6,6.1s-0.2,4.6-0.6,6c-0.4,1.4-1.2,2.7-2.2,3.7
					c-0.3,0.4-0.7,0.7-1.2,1.1c-0.4,0.4-1,0.8-1.7,1.1C584,203,582.4,203.3,580.4,203.4z M580.4,178.5c-1.8,0-3.2,0.3-4.3,0.9
					c-1.1,0.6-2,1.3-2.7,2.1c-0.9,0.9-1.5,2-1.9,3.2c-0.4,1.3-0.6,3.3-0.6,5.8s0.2,4.4,0.6,5.7c0.4,1.3,1.1,2.4,1.9,3.3
					c0.6,0.7,1.5,1.4,2.7,2c1.1,0.6,2.6,1,4.4,1c1.8,0,3.3-0.4,4.4-1c0.6-0.3,1.1-0.6,1.5-0.9c0.5-0.4,0.8-0.7,1.1-1
					c0.9-0.9,1.6-2,2-3.3s0.6-3.2,0.6-5.7s-0.2-4.4-0.6-5.8c-0.4-1.2-1-2.3-1.9-3.2c-0.6-0.8-1.5-1.5-2.6-2.1
					C583.7,178.8,582.2,178.5,580.4,178.5z M580.4,198.5c-0.9,0-1.7-0.2-2.5-0.6c-0.7-0.4-1.3-0.8-1.8-1.4c-0.5-0.7-0.8-1.5-1-2.3
					s-0.3-2.1-0.3-3.8c0-1.8,0.1-3,0.3-3.9c0.2-0.8,0.5-1.6,1-2.2c0.5-0.6,1.1-1.1,1.8-1.4c1.6-0.7,3.6-0.7,5.1,0
					c0.8,0.3,1.4,0.8,1.8,1.5c0.5,0.6,0.9,1.3,1,2.2c0.2,0.8,0.2,2.1,0.2,3.9c0,1.7-0.1,2.9-0.2,3.8c-0.2,0.9-0.5,1.7-1.1,2.3
					c-0.4,0.5-1,1-1.8,1.4C582.2,198.3,581.3,198.5,580.4,198.5z M580.4,183.4c-0.8,0-1.5,0.1-2.1,0.4c-0.6,0.3-1.1,0.7-1.5,1.1
					c-0.4,0.5-0.7,1.1-0.8,1.8c-0.2,0.8-0.3,2-0.3,3.6s0.1,2.8,0.3,3.6c0.2,0.7,0.5,1.4,0.8,1.9c0.3,0.4,0.8,0.8,1.5,1.1
					c1.3,0.6,3,0.6,4.2,0c0.6-0.3,1.1-0.7,1.4-1.1c0.4-0.6,0.7-1.2,0.9-1.9c0.1-0.7,0.2-1.9,0.2-3.6c0-1.7-0.1-2.9-0.2-3.7
					c-0.1-0.7-0.4-1.3-0.9-1.8c-0.3-0.5-0.8-0.9-1.4-1.2C581.9,183.5,581.2,183.4,580.4,183.4z"/>
			</g>
		</g>
		<g>
			<g>
				<path d="M619.8,200.4L619.8,200.4c-0.5,0.8-1.2,1.4-2.2,1.8c-0.9,0.4-2.2,0.6-3.9,0.6c-2.7,0-4.8-0.8-6.3-2.2s-2.3-3.1-2.3-5.3
					c0-2,0.7-3.7,2-5.1c1.3-1.4,3.3-2.1,5.9-2.1h6.8v-2.6c0-2.1-1.6-3.2-5-3.1c-1.2,0-2.2,0.1-2.9,0.4c-0.7,0.3-1.3,0.8-1.7,1.5
					l-3.8-2.9c1.9-2.4,4.6-3.6,8.2-3.6c3.1,0,5.5,0.5,7.3,1.7s2.8,3.3,2.8,6.3v16.6h-4.9L619.8,200.4L619.8,200.4z M619.8,192.3H614
					c-2.8,0.1-4.2,1-4.2,2.9c0,0.8,0.4,1.5,1.1,2.1c0.7,0.6,1.9,1,3.5,1c2,0,3.5-0.2,4.3-0.7s1.1-1.7,1.1-3.5L619.8,192.3
					L619.8,192.3z"/>
			</g>
			<g>
				<path d="M613.7,203.4c-2.8,0-5.1-0.8-6.6-2.3c-1.6-1.5-2.5-3.4-2.5-5.6c0-2.2,0.7-4,2.2-5.4c1.4-1.5,3.5-2.2,6.3-2.3h6.3v-2.1
					c0-0.7-0.2-1.2-0.6-1.6c-0.7-0.7-2-1-3.9-1c-1.2,0-2.1,0.1-2.7,0.3c-0.6,0.2-1.1,0.7-1.5,1.3l-0.3,0.5l-4.7-3.6l0.3-0.4
					c2-2.6,4.9-3.8,8.6-3.8c3.1,0,5.7,0.6,7.6,1.8c2,1.3,3,3.6,3,6.7V203h-5.9v-1.3c-0.4,0.4-0.9,0.7-1.5,1
					C616.8,203.2,615.4,203.4,613.7,203.4z M613,188.7c-2.4,0-4.3,0.7-5.5,2c-1.3,1.3-1.9,2.8-1.9,4.7c0,2,0.7,3.6,2.2,4.9
					c1.4,1.3,3.4,2,6,2c1.6,0,2.8-0.2,3.7-0.6c0.9-0.4,1.5-0.9,1.9-1.6l0.1-0.3h0.8l0.1,0.5v1.7h3.9v-16c0-2.8-0.9-4.7-2.6-5.9
					c-1.7-1.1-4.1-1.7-7.1-1.7c-3.3-0.1-5.8,0.9-7.5,3l3,2.3c0.4-0.6,1-1,1.7-1.2c0.8-0.3,1.8-0.4,3.1-0.4c2.2-0.1,3.7,0.4,4.6,1.3
					c0.6,0.6,0.9,1.4,0.9,2.4v3L613,188.7L613,188.7z M614.7,198.8c-0.1,0-0.2,0-0.4,0c-1.8,0-3-0.4-3.8-1.1
					c-0.8-0.7-1.3-1.5-1.3-2.5c0-1.5,0.8-3.3,4.7-3.4h6.4v2.3c0,2-0.4,3.3-1.4,3.9C618.1,198.5,616.7,198.8,614.7,198.8z M614,192.8
					c-3.4,0.1-3.7,1.4-3.7,2.4c0,0.7,0.3,1.2,0.9,1.7c0.6,0.6,1.7,0.9,3.2,0.9c2,0,3.3-0.2,4.1-0.7c0.6-0.4,0.9-1.5,0.9-3.1v-1.3
					H614V192.8z"/>
			</g>
		</g>
		<g>
			<g>
				<path d="M631,178.3h4.9v2.6h0.1c1.6-1.9,3.7-2.9,6.3-2.9c2,0,3.7,0.7,5.1,1.9l-3.6,4.2c-1-0.8-2.1-1.2-3.2-1.2
					c-1.2,0-2.3,0.4-3.2,1.2c-1,0.8-1.5,2.1-1.5,3.9v14.6H631V178.3z"/>
			</g>
			<g>
				<path d="M636.4,203.1h-5.9v-25.3h5.9v1.9c1.6-1.5,3.6-2.2,5.9-2.2c2.1,0,3.9,0.7,5.4,2l0.4,0.3l-4.2,5l-0.4-0.3
					c-0.9-0.7-1.9-1.1-2.9-1.1c-1.1,0-2.1,0.4-2.9,1.1c-0.9,0.7-1.4,1.9-1.4,3.5v15.1H636.4z M631.5,202.1h3.9V188
					c0-1.9,0.6-3.4,1.7-4.3c1-0.9,2.1-1.3,3.5-1.3c1.1,0,2.1,0.3,3.1,1l2.9-3.5c-1.3-0.9-2.8-1.4-4.4-1.4c-2.5,0-4.4,0.9-5.9,2.7
					l-0.2,0.2h-0.7l-0.1-0.5v-2.1h-3.9v23.3L631.5,202.1L631.5,202.1z"/>
			</g>
		</g>
		<g>
			<g>
				<path d="M652.6,192.3c0,2,0.6,3.4,1.7,4.5c1,1,2.4,1.5,4.1,1.5c2,0,3.8-0.8,5.3-2.4l3.5,3c-2.5,2.7-5.4,4-8.8,3.9
					c-1.3,0-2.5-0.2-3.8-0.6c-0.6-0.2-1.2-0.5-1.8-0.8s-1.2-0.7-1.7-1.1c-1-0.9-1.9-2.2-2.5-3.8c-0.7-1.6-1.1-3.6-1.1-6.1
					c0-2.4,0.3-4.4,0.9-6c0.6-1.6,1.4-2.9,2.3-3.8c1-1,2.1-1.6,3.3-2.1c1.2-0.4,2.4-0.6,3.5-0.6c2.8,0,5.1,0.9,7.1,2.7
					s2.9,4.3,3,7.5v4h-15V192.3z M662.8,188.2c-0.1-1.9-0.6-3.3-1.5-4.3c-0.9-0.9-2.1-1.4-3.6-1.4s-2.7,0.5-3.6,1.4
					c-0.9,1-1.4,2.4-1.5,4.3H662.8z"/>
			</g>
			<g>
				<path d="M658.6,203.4c-1.4,0-2.7-0.2-4-0.6c-0.7-0.2-1.3-0.5-1.9-0.9c-0.6-0.3-1.2-0.7-1.8-1.1c-1.1-1-2-2.3-2.7-4
					c-0.7-1.6-1.1-3.7-1.1-6.3c0-2.5,0.3-4.5,0.9-6.2c0.6-1.7,1.5-3,2.5-4s2.2-1.7,3.4-2.2c1.2-0.4,2.5-0.7,3.7-0.7
					c2.9,0,5.4,1,7.4,2.9s3.1,4.6,3.1,7.9v4.5h-15.2c0.1,1.6,0.6,2.7,1.5,3.6c1,1,2.2,1.4,3.8,1.4c1.9,0,3.5-0.7,5-2.2l0.3-0.3
					l4.3,3.7l-0.4,0.4C665.1,202,662,203.4,658.6,203.4z M657.7,178.5c-1.1,0-2.2,0.2-3.3,0.6c-1.1,0.4-2.2,1.1-3.1,1.9
					c-0.9,0.9-1.6,2.1-2.2,3.7c-0.6,1.5-0.9,3.5-0.9,5.8c0,2.4,0.3,4.4,1,5.9c0.6,1.6,1.4,2.8,2.4,3.6c0.5,0.4,1,0.7,1.6,1
					s1.1,0.6,1.7,0.8c1.2,0.4,2.4,0.5,3.7,0.5c3,0,5.7-1.1,7.9-3.4l-2.8-2.4c-1.6,1.5-3.4,2.2-5.3,2.2c-1.8,0-3.3-0.6-4.5-1.7
					c-1.2-1.1-1.8-2.7-1.8-4.8v-0.5h15.2v-3.5c0-3-1-5.5-2.8-7.2C662.6,179.4,660.3,178.5,657.7,178.5z M663.3,188.7H652v-0.5
					c0.1-2,0.7-3.6,1.7-4.6s2.4-1.5,4-1.5s2.9,0.5,4,1.5c1,1.1,1.6,2.6,1.7,4.6L663.3,188.7z M653.1,187.7h9.2
					c-0.1-1.5-0.6-2.7-1.4-3.4c-0.8-0.8-1.9-1.2-3.3-1.2s-2.4,0.4-3.3,1.2C653.7,185.1,653.2,186.2,653.1,187.7z"/>
			</g>
		</g>
		<g>
			<g>
				<path d="M680.9,178.3h5.2l5.8,17h0.1l5.7-17h5.2l-10.5,29.4c-0.7,1.8-1.6,3.1-2.8,3.8s-2.6,1-4.1,1h-1.6v-4.6h1.4
					c0.6,0,1.2-0.2,1.8-0.5c0.5-0.4,0.9-0.9,1.1-1.6l1.3-4.1L680.9,178.3z"/>
			</g>
			<g>
				<path d="M685.5,212.9h-2.1v-5.6h1.9c0.5,0,1-0.1,1.5-0.4c0.4-0.3,0.8-0.7,0.9-1.3l1.3-3.9l-8.9-23.9h6.3l5.5,16.1l5.4-16.1h6.3
					l-10.7,30c-0.7,1.9-1.7,3.3-3,4.1C688.6,212.6,687.1,212.9,685.5,212.9z M684.4,211.9h1.1c1.4,0,2.7-0.3,3.8-0.9
					c1.1-0.6,1.9-1.8,2.6-3.5l10.2-28.7H698l-5.7,17h-0.7l-0.2-0.3l-5.7-16.7h-4.1l8.5,22.9l-1.4,4.2c-0.3,0.8-0.7,1.4-1.3,1.9
					c-0.6,0.4-1.3,0.6-2.1,0.6h-0.9L684.4,211.9L684.4,211.9z"/>
			</g>
		</g>
		<g>
			<g>
				<path d="M704.2,190.4c0-2.6,0.2-4.5,0.6-5.9c0.4-1.3,1.1-2.5,2-3.4c0.7-0.8,1.6-1.5,2.8-2.2c1.2-0.6,2.7-0.9,4.6-1
					c1.9,0,3.5,0.4,4.7,1s2.1,1.4,2.7,2.2c1,0.9,1.7,2.1,2.1,3.4c0.4,1.4,0.6,3.3,0.6,5.9s-0.2,4.5-0.6,5.9
					c-0.4,1.3-1.1,2.5-2.1,3.5c-0.3,0.4-0.7,0.7-1.1,1.1c-0.4,0.4-0.9,0.7-1.6,1c-1.2,0.7-2.7,1-4.7,1.1c-1.9,0-3.4-0.4-4.6-1.1
					c-1.2-0.6-2.1-1.3-2.8-2.1c-0.9-1-1.6-2.1-2-3.5S704.2,193,704.2,190.4z M719.4,190.5c0-1.7-0.1-3-0.2-3.8c-0.2-0.8-0.5-1.4-1-2
					c-0.4-0.5-0.9-1-1.6-1.3c-0.7-0.3-1.5-0.5-2.3-0.5s-1.6,0.2-2.3,0.5s-1.2,0.7-1.6,1.3c-0.4,0.6-0.7,1.2-0.9,2s-0.3,2-0.3,3.8
					c0,1.7,0.1,2.9,0.3,3.7s0.5,1.5,0.9,2.1c0.4,0.5,1,0.9,1.6,1.2c0.7,0.3,1.5,0.5,2.3,0.5c0.9,0,1.7-0.2,2.3-0.5
					c0.7-0.4,1.2-0.8,1.6-1.2c0.5-0.6,0.8-1.3,1-2.1C719.3,193.3,719.4,192.1,719.4,190.5z"/>
			</g>
			<g>
				<path d="M714.2,203.4c-2,0-3.6-0.4-4.8-1.1c-1.2-0.6-2.2-1.4-2.9-2.2c-0.9-1-1.7-2.3-2.1-3.7c-0.4-1.4-0.7-3.4-0.7-6
					s0.2-4.6,0.7-6.1c0.5-1.4,1.2-2.6,2.1-3.6c0.7-0.8,1.7-1.6,2.9-2.3c1.3-0.6,2.9-1,4.8-1c2,0,3.7,0.4,4.9,1
					c1.2,0.7,2.2,1.5,2.9,2.3c1,0.9,1.7,2.1,2.1,3.6c0.4,1.4,0.6,3.5,0.6,6.1s-0.2,4.6-0.6,6c-0.4,1.4-1.2,2.7-2.2,3.7
					c-0.3,0.4-0.7,0.7-1.2,1.1c-0.4,0.4-1,0.8-1.7,1.1C717.9,203,716.2,203.3,714.2,203.4z M714.2,178.5c-1.8,0-3.2,0.3-4.3,0.9
					c-1.1,0.6-2,1.3-2.7,2.1c-0.9,0.9-1.5,2-1.9,3.2c-0.4,1.3-0.6,3.3-0.6,5.8s0.2,4.4,0.6,5.7c0.4,1.3,1.1,2.4,1.9,3.3
					c0.6,0.7,1.5,1.4,2.7,2c1.1,0.6,2.6,1,4.4,1c1.8,0,3.3-0.4,4.4-1c0.6-0.3,1.1-0.6,1.5-0.9c0.5-0.4,0.8-0.7,1.1-1
					c0.9-0.9,1.6-2,2-3.3s0.6-3.2,0.6-5.7s-0.2-4.4-0.6-5.8c-0.4-1.2-1-2.3-1.9-3.2c-0.6-0.8-1.5-1.5-2.6-2.1
					C717.5,178.8,716.1,178.5,714.2,178.5z M714.2,198.5c-0.9,0-1.7-0.2-2.5-0.6c-0.7-0.4-1.3-0.8-1.8-1.4c-0.5-0.7-0.8-1.5-1-2.3
					s-0.3-2.1-0.3-3.8c0-1.8,0.1-3,0.3-3.9c0.2-0.8,0.5-1.6,1-2.2c0.5-0.6,1.1-1.1,1.8-1.4c1.6-0.7,3.6-0.7,5.1,0
					c0.8,0.3,1.4,0.8,1.8,1.5c0.5,0.6,0.9,1.3,1,2.2c0.2,0.8,0.2,2.1,0.2,3.9c0,1.7-0.1,2.9-0.2,3.8c-0.2,0.9-0.5,1.7-1.1,2.3
					c-0.4,0.5-1,1-1.8,1.4C716.1,198.3,715.2,198.5,714.2,198.5z M714.2,183.4c-0.8,0-1.5,0.1-2.1,0.4c-0.6,0.3-1.1,0.7-1.5,1.1
					c-0.4,0.5-0.7,1.1-0.8,1.8c-0.2,0.8-0.3,2-0.3,3.6s0.1,2.8,0.3,3.6c0.2,0.7,0.5,1.4,0.8,1.9c0.3,0.4,0.8,0.8,1.5,1.1
					c1.3,0.6,3,0.6,4.2,0c0.6-0.3,1.1-0.7,1.4-1.1c0.4-0.6,0.7-1.2,0.9-1.9c0.1-0.7,0.2-1.9,0.2-3.6c0-1.7-0.1-2.9-0.2-3.7
					c-0.1-0.7-0.4-1.3-0.9-1.8c-0.3-0.5-0.8-0.9-1.4-1.2C715.8,183.5,715,183.4,714.2,183.4z"/>
			</g>
		</g>
		<g>
			<g>
				<path d="M729.4,178.3h4.9v14.5c0,1.6,0.5,2.9,1.4,3.8c0.9,0.9,2.1,1.4,3.5,1.4s2.6-0.5,3.4-1.4c0.9-0.9,1.4-2.2,1.4-3.8v-14.5
					h4.9v24.3H744V200h-0.1c-1.6,1.9-3.7,2.9-6.3,2.9c-2,0-3.8-0.8-5.5-2.2c-1.8-1.4-2.7-3.5-2.7-6.2V178.3L729.4,178.3z"/>
			</g>
			<g>
				<path d="M737.5,203.4c-2.1,0-4.1-0.8-5.8-2.3c-1.9-1.5-2.8-3.7-2.9-6.6v-16.7h5.9v15c0,1.5,0.4,2.7,1.2,3.5s1.8,1.2,3.1,1.2
					s2.3-0.4,3.1-1.2s1.2-2,1.2-3.5v-15h5.9v25.3h-5.9v-1.9C741.9,202.6,739.9,203.4,737.5,203.4z M729.9,178.8v15.7
					c0,2.6,0.8,4.5,2.5,5.8c1.5,1.4,3.3,2.1,5.2,2.1c2.5,0,4.4-0.9,5.9-2.7l0.2-0.2h0.7l0.1,0.5v2.1h3.9v-23.3h-3.9v14
					c0,1.8-0.5,3.2-1.5,4.2s-2.3,1.5-3.8,1.5s-2.8-0.5-3.8-1.5s-1.5-2.4-1.5-4.2v-14L729.9,178.8L729.9,178.8z"/>
			</g>
		</g>
		<g>
			<g>
				<path d="M755.3,197.7h4.9v4.9h-4.9V197.7z"/>
			</g>
			<g>
				<path d="M760.7,203.1h-5.9v-5.9h5.9V203.1z M755.8,202.1h3.9v-3.9h-3.9V202.1z"/>
			</g>
		</g>
		<g>
			<g>
				<path d="M766.8,197.7h4.9v4.9h-4.9V197.7z"/>
			</g>
			<g>
				<path d="M772.2,203.1h-5.9v-5.9h5.9V203.1z M767.3,202.1h3.9v-3.9h-3.9V202.1z"/>
			</g>
		</g>
		<g>
			<g>
				<path d="M778.3,197.7h4.9v4.9h-4.9V197.7z"/>
			</g>
			<g>
				<path d="M783.7,203.1h-5.9v-5.9h5.9V203.1z M778.8,202.1h3.9v-3.9h-3.9V202.1z"/>
			</g>
		</g>
		<g>
			<g>
				<path d="M794.6,191c0-0.9,0.1-1.8,0.2-2.5c0.2-0.7,0.5-1.4,1-2.1l4.3-6c0.8-1.1,1.2-2.2,1.2-3.2c0-1.3-0.5-2.4-1.3-3.2
					c-0.9-0.7-1.8-1.1-2.8-1.1c-1.2,0-2.3,0.4-3.1,1.1c-0.9,0.8-1.4,2.2-1.4,4.1h-4.9v-1c0-2.7,0.9-4.8,2.7-6.5s3.9-2.6,6.3-2.6
					c2.5,0,4.6,0.8,6.4,2.4c1.9,1.7,2.8,3.9,2.8,6.8c0,2-0.5,3.7-1.5,5l-4.4,6c-0.6,0.8-0.9,1.8-0.8,3v2.7h-4.9V191H794.6z
					 M794.6,197.7h4.9v4.9h-4.9V197.7z"/>
			</g>
			<g>
				<path d="M800,203.1h-5.9v-5.9h5.9V203.1z M795.1,202.1h3.9v-3.9h-3.9V202.1z M800,194.7h-5.9V191c0-1,0.1-1.8,0.2-2.6
					c0.2-0.8,0.6-1.5,1.1-2.3l4.3-6c0.7-1,1.1-2,1.1-2.9c0-1.2-0.4-2.1-1.1-2.8c-0.8-0.7-1.6-1-2.5-1c-1.1,0-2,0.3-2.7,1
					c-0.8,0.7-1.2,2-1.2,3.7v0.5h-5.9v-1.5c0-2.8,1-5.1,2.9-6.9c1.8-1.8,4.1-2.7,6.7-2.8c2.6,0,4.9,0.9,6.8,2.6c2,1.8,3,4.2,3,7.1
					c0,2.1-0.6,3.9-1.6,5.3l-4.4,6c-0.5,0.7-0.8,1.6-0.7,2.7L800,194.7L800,194.7z M795.1,193.7h3.9v-2.2c0-1.3,0.3-2.4,0.9-3.3
					l4.4-6c0.9-1.3,1.4-2.9,1.5-4.8c0-2.7-0.9-4.8-2.7-6.4c-1.7-1.5-3.8-2.3-6.1-2.3s-4.3,0.9-6,2.5s-2.6,3.7-2.6,6.2v0.5h3.9
					c0.1-1.8,0.6-3.1,1.5-4c0.9-0.8,2-1.3,3.4-1.3c1.1,0,2.2,0.4,3.1,1.2c1,0.9,1.5,2.1,1.5,3.5c0,1.1-0.4,2.3-1.3,3.5l-4.3,6
					c-0.5,0.6-0.8,1.3-0.9,1.9c-0.1,0.7-0.2,1.5-0.2,2.4L795.1,193.7L795.1,193.7z"/>
			</g>
		</g>
	</g>
</g>
</svg>
