<?xml version="1.0" encoding="utf-8"?>
<!-- Generator: Adobe Illustrator 22.0.1, SVG Export Plug-In . SVG Version: 6.00 Build 0)  -->
<svg version="1.1" id="Layer_1" xmlns="http://www.w3.org/2000/svg" xmlns:xlink="http://www.w3.org/1999/xlink" x="0px" y="0px"
	 viewBox="0 0 1120.8 712" style="enable-background:new 0 0 1120.8 712;" xml:space="preserve">
<style type="text/css">
	.st0{fill:#351F67;}
	.st1{fill:#666666;}
	.st2{fill:#F38475;}
	.st3{fill:#F2CC67;}
	.st4{fill:#60D36D;}
	.st5{fill:#231749;}
	.st6{fill:#FFFFFF;}
	.st7{opacity:0.35;}
	.st8{fill:#B0FFFF;}
	.st9{opacity:0.2;}
	.st10{fill:#FFE7BD;}
	.st11{fill:#EFEFEF;}
	.st12{fill:#FFAF78;}
</style>
<g>
	<g id="XMLID_15_">
		<g>
			<g>
				<path class="st0" d="M1112.2,46.6V695c0,4.4-3.6,7.9-7.9,7.9H16.1c-4.4,0-7.9-3.6-7.9-7.9V46.6h0.5H1112.2z"/>
			</g>
			<g>
				<path class="st1" d="M1112.2,17v29.6H8.6H8.2V17c0-4.4,3.6-7.9,7.9-7.9h1088.1C1108.6,9.1,1112.2,12.7,1112.2,17z"/>
			</g>
		</g>
		<g>
			<g>
				<path d="M1104.2,703.9H16.1c-4.9,0-8.9-4-8.9-8.9V17c0-4.9,4-8.9,8.9-8.9h1088.1c4.9,0,8.9,4,8.9,8.9V695
					C1113.2,699.9,1109.1,703.9,1104.2,703.9z M16.1,10.1c-3.8,0-6.9,3.1-6.9,6.9V695c0,3.8,3.1,6.9,6.9,6.9h1088.1
					c3.8,0,6.9-3.1,6.9-6.9V17c0-3.8-3.1-6.9-6.9-6.9H16.1z"/>
			</g>
			<g>
				<rect x="8.6" y="45.6" width="1104" height="2"/>
			</g>
		</g>
	</g>
	<g>
		<g>
			<circle class="st2" cx="38.2" cy="28.2" r="7"/>
		</g>
		<g>
			<path d="M38.1,36.2c-4.4,0-8-3.6-8-8s3.6-8,8-8s8,3.6,8,8S42.6,36.2,38.1,36.2z M38.1,22.2c-3.3,0-6,2.7-6,6s2.7,6,6,6s6-2.7,6-6
				S41.5,22.2,38.1,22.2z"/>
		</g>
	</g>
	<g>
		<g>
			<circle class="st3" cx="66.7" cy="28.2" r="7"/>
		</g>
		<g>
			<path d="M66.6,36.2c-4.4,0-8-3.6-8-8s3.6-8,8-8s8,3.6,8,8S71.1,36.2,66.6,36.2z M66.6,22.2c-3.3,0-6,2.7-6,6s2.7,6,6,6s6-2.7,6-6
				S70,22.2,66.6,22.2z"/>
		</g>
	</g>
	<g>
		<g>
			<circle class="st4" cx="95.2" cy="28.2" r="7"/>
		</g>
		<g>
			<path d="M95.1,36.2c-4.4,0-8-3.6-8-8s3.6-8,8-8s8,3.6,8,8S99.6,36.2,95.1,36.2z M95.1,22.2c-3.3,0-6,2.7-6,6s2.7,6,6,6s6-2.7,6-6
				S98.5,22.2,95.1,22.2z"/>
		</g>
	</g>
	<g>
		<g>
			<path class="st5" d="M560.2,260.4c-69.6,0-126,52.4-126,117v166.7h252V377.5C686.2,312.8,629.7,260.4,560.2,260.4z"/>
		</g>
		<g>
			<path d="M687.2,545.1h-254V377.5c0-65.1,57-118,127-118s127,53,127,118V545.1z M435.1,543.1h250V377.5c0-64-56.1-116-125-116
				c-68.9,0-125,52.1-125,116V543.1z"/>
		</g>
	</g>
	<g>
		<g>
			<path class="st6" d="M561.2,278.3c-61.3,0-111,46.2-111,103.1v119.8h222V381.4C672.2,324.5,622.5,278.3,561.2,278.3z"/>
		</g>
		<g>
			<path d="M673.2,502.2h-224V381.4c0-57.4,50.2-104.1,112-104.1c61.8,0,112,46.7,112,104.1V502.2z M451.1,500.2h220V381.4
				c0-56.3-49.3-102.1-110-102.1s-110,45.8-110,102.1V500.2z"/>
		</g>
	</g>
	<g>
		<g class="st7">
			<g>
				<path class="st8" d="M453.2,382.9v14.6l128.3,128.3h87.7v-80.2L515.5,291.9C478.7,307.9,453.2,342.6,453.2,382.9z"/>
			</g>
		</g>
		<g class="st9">
			<g>
				<path class="st8" d="M669.2,382c0-7.7-0.9-15.3-2.7-22.5L593,286.1c-10.1-2.9-20.8-4.4-31.9-4.4c-1.5,0-3.1,0-4.6,0.1
					l112.6,112.6V382z"/>
			</g>
		</g>
		<g class="st9">
			<g>
				<polygon class="st8" points="453.2,481.8 497,525.7 513.6,525.7 453.2,465.3 				"/>
			</g>
		</g>
	</g>
	<g>
		<g>
			<path class="st5" d="M738.2,544.1h-356v0c0-24.3,19.7-44,44-44h268C718.5,500.1,738.2,519.8,738.2,544.1L738.2,544.1z"/>
		</g>
		<g>
			<path d="M739.2,545.1h-358v-1c0-24.8,20.2-45,45-45h268c24.8,0,45,20.2,45,45V545.1z M383.2,543.1h354c-0.5-23.2-19.6-42-43-42
				h-268C402.8,501.1,383.7,519.9,383.2,543.1z"/>
		</g>
	</g>
	<g>
		<g>
			<path class="st10" d="M540.2,369.3c-1.3,2.2-0.7,5,1.3,6.3l18.8,11.9l-1,1.6l-18.8-11.9c-2-1.3-4.8-0.7-6.2,1.5
				c-1.5,2.2-1.1,5.1,1,6.4l18.9,12l-1,1.6l-18.8-11.9c-2-1.3-4.8-0.7-6.2,1.5c-1.5,2.2-1.1,5.1,1,6.4l18.9,12l-1,1.6l-18.8-11.9
				c-2-1.3-4.8-0.7-6.2,1.5c-1.5,2.2-1.1,5.1,1,6.4l18.9,12l4.6,2.9l18.1,11.5c3.6,2.3,8.7,0.9,11.3-3.2l14.9-23.5
				c2.1-3.3,1.4-7.6-1.6-9.4l-19.3-12.3l-4.6-2.9l-18.9-12C544.4,366.2,541.6,367,540.2,369.3z"/>
		</g>
		<g>
			<path d="M568.5,432.9c-1.5,0-3.1-0.4-4.4-1.3l-41.6-26.4c-1.1-0.7-1.9-1.9-2.2-3.2c-0.3-1.5,0-3.2,0.9-4.6
				c1.6-2.3,4.5-3.2,6.9-2.2c-0.9-0.7-1.5-1.7-1.7-2.9c-0.3-1.5,0-3.2,0.9-4.6c1.6-2.3,4.5-3.2,6.9-2.2c-0.9-0.7-1.5-1.7-1.7-2.9
				c-0.3-1.5,0-3.2,0.9-4.6c1.6-2.3,4.6-3.2,7-2.1c-2-1.7-2.5-4.8-1-7.2h0c0.8-1.4,2.2-2.4,3.7-2.8c1.4-0.3,2.7-0.1,3.9,0.6
				l42.8,27.2c1.7,1.1,2.8,2.8,3.1,4.9c0.3,2-0.1,4.1-1.3,6l-14.9,23.5C574.8,431.2,571.6,432.9,568.5,432.9z M526,396.8
				c-1.2,0-2.4,0.6-3.1,1.7c-0.6,0.9-0.9,2-0.6,3c0.2,0.8,0.6,1.5,1.3,2l41.6,26.4c3.2,2,7.6,0.7,9.9-2.9l14.9-23.5
				c0.9-1.4,1.2-3,1-4.6c-0.2-1.5-1-2.7-2.2-3.5l-42.8-27.2c-0.7-0.4-1.5-0.6-2.3-0.4c-1,0.2-1.9,0.9-2.5,1.9h0
				c-1,1.7-0.6,3.9,1,4.9l19.6,12.5l-2.1,3.3L539.9,378c-1.6-1-3.7-0.4-4.8,1.2c-0.6,0.9-0.9,2-0.6,3c0.2,0.8,0.6,1.5,1.3,2
				l19.8,12.6l-2.1,3.3l-19.6-12.5c-1.6-1-3.7-0.4-4.8,1.2c-0.6,0.9-0.9,2-0.6,3c0.2,0.8,0.6,1.5,1.3,2l19.8,12.6l-2.1,3.3
				l-19.6-12.5C527.2,396.9,526.6,396.8,526,396.8z"/>
		</g>
	</g>
	<g>
		<g>
			<path class="st6" d="M472.8,515.2h2l4.1,9.3l4-9.3h2v14.2h-2.2v-8.9h0l-3,6.8H478l-3-6.8h0v8.9h-2.2V515.2z"/>
		</g>
		<g>
			<path class="st6" d="M488,515.2h9.1v2h-6.9v4.1h5.9v1.9h-5.9v4.2h6.9v2H488V515.2z"/>
		</g>
		<g>
			<path class="st6" d="M503.7,521.6h5.1v2.9c0,1.4-0.5,2.6-1.5,3.6c-1,1-2.2,1.4-3.6,1.5c-1.1,0-2.1-0.3-2.8-0.8
				c-0.8-0.5-1.3-1.1-1.7-1.7c-0.1-0.2-0.2-0.4-0.3-0.6c-0.1-0.2-0.1-0.5-0.2-0.8c-0.1-0.6-0.1-1.7-0.1-3.3c0-1.7,0-2.8,0.1-3.3
				c0.1-0.6,0.3-1,0.5-1.4c0.3-0.7,0.9-1.2,1.7-1.8c0.7-0.5,1.7-0.8,2.8-0.8c1.4,0,2.5,0.4,3.4,1.2c0.9,0.8,1.4,1.8,1.6,3h-2.3
				c-0.2-0.6-0.5-1.1-1-1.5c-0.5-0.4-1.1-0.6-1.8-0.6c-0.5,0-0.9,0.1-1.3,0.3c-0.4,0.2-0.7,0.4-0.9,0.7c-0.3,0.3-0.5,0.7-0.6,1.2
				c-0.1,0.5-0.2,1.5-0.2,2.9s0.1,2.3,0.2,2.8c0.1,0.5,0.3,0.9,0.6,1.2c0.2,0.3,0.5,0.5,0.9,0.7c0.4,0.2,0.8,0.3,1.3,0.3
				c0.8,0,1.5-0.3,2.1-0.9c0.5-0.5,0.8-1.3,0.8-2.2v-0.7h-2.9V521.6z"/>
		</g>
		<g>
			<path class="st6" d="M518.6,526.3h-5.4l-1.1,3.2h-2.3l5.2-14.2h1.8l5.2,14.2h-2.3L518.6,526.3z M518,524.3l-2.1-6.2h0l-2.1,6.2
				H518z"/>
		</g>
		<g>
			<path class="st6" d="M523.5,515.2h5.5c1.4,0,2.5,0.4,3.2,1.1c0.7,0.7,1.1,1.6,1.1,2.8c0,0.6-0.1,1.1-0.4,1.7
				c-0.1,0.3-0.4,0.5-0.6,0.7c-0.3,0.2-0.6,0.5-1,0.7v0c0.8,0.2,1.4,0.6,1.8,1.2c0.4,0.6,0.6,1.3,0.6,2.1c0,1.2-0.4,2.2-1.2,2.9
				c-0.7,0.7-1.7,1.1-2.8,1.1h-6V515.2z M525.6,517.1v4.1h3.1c0.8,0,1.4-0.2,1.7-0.6c0.4-0.4,0.6-0.9,0.6-1.4s-0.2-1.1-0.6-1.5
				c-0.4-0.4-1-0.6-1.7-0.6H525.6z M525.6,523.1v4.3h3.3c0.8,0,1.4-0.2,1.8-0.7c0.4-0.4,0.6-0.9,0.6-1.5c0-0.6-0.2-1.1-0.6-1.5
				c-0.4-0.4-1-0.6-1.8-0.6H525.6z"/>
		</g>
		<g>
			<path class="st6" d="M535.2,522.3c0-1.7,0-2.8,0.1-3.3c0.1-0.6,0.3-1,0.5-1.4c0.3-0.7,0.9-1.2,1.7-1.8c0.7-0.5,1.7-0.8,2.8-0.8
				c1.1,0,2.1,0.3,2.8,0.8c0.7,0.5,1.3,1.1,1.6,1.8c0.2,0.3,0.4,0.8,0.5,1.4c0.1,0.6,0.1,1.7,0.1,3.3c0,1.6,0,2.7-0.1,3.3
				c-0.1,0.6-0.3,1-0.5,1.4c-0.3,0.7-0.9,1.2-1.6,1.7c-0.8,0.5-1.7,0.8-2.8,0.8c-1.1,0-2.1-0.3-2.8-0.8c-0.8-0.5-1.3-1.1-1.7-1.7
				c-0.1-0.2-0.2-0.4-0.3-0.6c-0.1-0.2-0.1-0.5-0.2-0.8C535.2,525.1,535.2,524,535.2,522.3z M537.4,522.3c0,1.4,0.1,2.3,0.2,2.8
				c0.1,0.5,0.3,0.9,0.6,1.2c0.2,0.3,0.5,0.5,0.9,0.7c0.4,0.2,0.8,0.3,1.3,0.3c0.5,0,1-0.1,1.3-0.3c0.4-0.2,0.6-0.4,0.9-0.7
				c0.3-0.3,0.5-0.7,0.6-1.2c0.1-0.5,0.1-1.4,0.1-2.8s0-2.4-0.1-2.9c-0.1-0.5-0.3-0.9-0.6-1.2c-0.2-0.3-0.5-0.5-0.9-0.7
				c-0.4-0.2-0.8-0.3-1.3-0.3c-0.5,0-0.9,0.1-1.3,0.3c-0.4,0.2-0.7,0.4-0.9,0.7c-0.3,0.3-0.5,0.7-0.6,1.2
				C537.4,520,537.4,520.9,537.4,522.3z"/>
		</g>
		<g>
			<path class="st6" d="M548.4,529.4h-2.4l4.4-7.3l-4.1-6.9h2.4l2.8,4.9l2.8-4.9h2.4l-4.1,6.9l4.4,7.3h-2.4l-3.1-5.3L548.4,529.4z"
				/>
		</g>
		<g>
			<path class="st6" d="M563.2,515.2h5.6c1.2,0,2.2,0.3,2.9,0.9c0.9,0.7,1.4,1.7,1.4,3c0,1.9-0.9,3.2-2.8,3.9l3.3,6.3H571l-2.9-6.1
				h-2.8v6.1h-2.2V515.2z M565.3,521.4h3.3c0.8,0,1.4-0.2,1.8-0.7c0.4-0.4,0.6-0.9,0.6-1.6c0-0.7-0.3-1.3-0.7-1.6
				c-0.4-0.3-0.9-0.4-1.6-0.4h-3.4V521.4z"/>
		</g>
		<g>
			<path class="st6" d="M575.4,515.2h9.1v2h-6.9v4.1h5.9v1.9h-5.9v4.2h6.9v2h-9.1V515.2z"/>
		</g>
		<g>
			<path class="st6" d="M586.5,515.2h2l6.4,10.1h0v-10.1h2.2v14.2h-2l-6.4-10.1h0v10.1h-2.2V515.2z"/>
		</g>
		<g>
			<path class="st6" d="M600.2,515.2h9.1v2h-6.9v4.1h5.9v1.9h-5.9v4.2h6.9v2h-9.1V515.2z"/>
		</g>
		<g>
			<path class="st6" d="M610,515.2h2.3l2.2,10.1h0l2.8-10.1h1.6l2.8,10.1h0l2.2-10.1h2.3l-3.6,14.2h-1.8l-2.7-10.3h0l-2.7,10.3h-1.8
				L610,515.2z"/>
		</g>
		<g>
			<path class="st6" d="M634.5,526.3h-5.4l-1.1,3.2h-2.3l5.2-14.2h1.8l5.2,14.2h-2.3L634.5,526.3z M633.9,524.3l-2.1-6.2h0l-2.1,6.2
				H633.9z"/>
		</g>
		<g>
			<path class="st6" d="M639.4,515.2h2.2v12.2h6.9v2h-9.1V515.2z"/>
		</g>
	</g>
	<g>
		<g>
			<path class="st6" d="M443.1,209c0-8.3,0.2-13.8,0.7-16.6c0.5-2.8,1.3-5.1,2.4-6.8c1.7-3.3,4.5-6.2,8.3-8.8c3.7-2.6,8.4-3.9,14-4
				c5.7,0.1,10.4,1.4,14.2,4c3.7,2.6,6.4,5.5,8.1,8.8c1.2,1.7,2,4,2.5,6.8c0.4,2.8,0.6,8.3,0.6,16.6c0,8.1-0.2,13.6-0.6,16.5
				c-0.5,2.9-1.3,5.2-2.5,6.9c-1.7,3.3-4.4,6.2-8.1,8.7c-3.8,2.6-8.5,4-14.2,4.1c-5.6-0.1-10.3-1.5-14-4.1c-3.8-2.5-6.6-5.4-8.3-8.7
				c-0.5-1.1-1-2.1-1.4-3.1c-0.4-1-0.7-2.3-1-3.8C443.3,222.6,443.1,217.1,443.1,209z M453.9,209c0,7,0.3,11.7,0.8,14.2
				c0.5,2.5,1.4,4.5,2.8,6c1.1,1.5,2.6,2.7,4.5,3.6c1.8,1.1,4,1.6,6.5,1.6c2.6,0,4.8-0.5,6.7-1.6c1.8-0.9,3.2-2.1,4.3-3.6
				c1.4-1.5,2.4-3.5,2.9-6c0.5-2.5,0.7-7.2,0.7-14.2c0-7-0.2-11.8-0.7-14.3c-0.5-2.4-1.5-4.4-2.9-5.9c-1.1-1.5-2.5-2.7-4.3-3.7
				c-1.9-0.9-4.1-1.4-6.7-1.5c-2.5,0.1-4.7,0.6-6.5,1.5c-1.9,1-3.4,2.2-4.5,3.7c-1.4,1.5-2.3,3.5-2.8,5.9
				C454.2,197.2,453.9,202,453.9,209z"/>
		</g>
		<g>
			<path class="st6" d="M506.5,173.4h25.8c2.8,0,5.5,0.3,8.1,0.8c2.6,0.7,5.2,2.1,7.9,4.2c2.2,1.6,4.1,3.9,5.5,6.8
				c1.5,2.9,2.2,6.2,2.2,10.2c0,5.3-1.9,10.1-5.6,14.4c-3.8,4.6-9.4,6.9-16.7,7h-16.4v27.8h-10.8V173.4z M517.3,206.6h16
				c4-0.1,7-1.3,9-3.7c1.9-2.3,2.9-4.9,2.9-7.8c0-2.4-0.4-4.4-1.2-6c-0.8-1.5-2-2.6-3.4-3.5c-2.2-1.4-4.8-2.1-7.7-2h-15.6V206.6z"/>
		</g>
		<g>
			<path class="st6" d="M565.8,173.4h45.5v10.2h-34.7v20.3h29.6v9.6h-29.6v20.9h34.7v10.2h-45.5V173.4z"/>
		</g>
		<g>
			<path class="st6" d="M621.4,173.4h10.2l32.2,50.6h0.2v-50.6h10.8v71.2h-10.2L632.4,194h-0.2v50.6h-10.8V173.4z"/>
		</g>
	</g>
	<g>
		<g>
			<path d="M532.3,327.1c-0.3,1.3-0.9,2.3-1.8,3c-0.9,0.7-2,1.1-3.2,1.1c-1.1,0-2.1-0.3-2.8-0.8c-0.8-0.5-1.3-1.1-1.7-1.7
				c-0.1-0.2-0.2-0.4-0.3-0.6c-0.1-0.2-0.1-0.5-0.2-0.8c-0.1-0.6-0.1-1.7-0.1-3.3c0-1.7,0-2.8,0.1-3.3c0.1-0.6,0.3-1,0.5-1.4
				c0.3-0.7,0.9-1.2,1.7-1.8c0.7-0.5,1.7-0.8,2.8-0.8c1.4,0,2.5,0.4,3.4,1.2c0.9,0.8,1.4,1.8,1.6,3H530c-0.2-0.6-0.5-1.1-1-1.5
				c-0.5-0.4-1.1-0.6-1.8-0.6c-0.5,0-0.9,0.1-1.3,0.3c-0.4,0.2-0.7,0.4-0.9,0.7c-0.3,0.3-0.5,0.7-0.6,1.2c-0.1,0.5-0.2,1.5-0.2,2.9
				s0.1,2.3,0.2,2.8c0.1,0.5,0.3,0.9,0.6,1.2c0.2,0.3,0.5,0.5,0.9,0.7c0.4,0.2,0.8,0.3,1.3,0.3c1.2,0,2.1-0.6,2.7-1.9H532.3z"/>
		</g>
		<g>
			<path d="M533.6,316.9h2v11.6c0,0.5,0.3,0.7,0.8,0.7h0.7v1.9h-0.9c-0.7,0-1.4-0.2-1.8-0.6c-0.5-0.4-0.8-1-0.8-1.9V316.9z"/>
		</g>
		<g>
			<path d="M538.8,316.9h2v2h-2V316.9z M538.8,321h2v10.1h-2V321z"/>
		</g>
		<g>
			<path d="M551,329.5c-0.4,0.5-1,0.9-1.6,1.2c-0.6,0.3-1.3,0.5-2.1,0.5c-1.2,0-2.2-0.4-3.2-1.2c-0.9-0.8-1.4-2.1-1.4-4
				c0-1.8,0.5-3.2,1.4-4c0.9-0.8,2-1.2,3.2-1.2c0.8,0,1.5,0.2,2.1,0.5c0.6,0.3,1.1,0.7,1.6,1.3l-1.5,1.3c-0.5-0.7-1.2-1-2.1-1.1
				c-1.7,0-2.6,1-2.6,3.2c0,2.1,0.9,3.2,2.6,3.1c0.9,0,1.5-0.4,2.1-1.1L551,329.5z"/>
		</g>
		<g>
			<path d="M552.4,316.9h2v8.9h0l3.9-4.8h2.4l-3.5,4l4,6.2h-2.6l-2.7-4.7l-1.6,1.8v2.9h-2V316.9z"/>
		</g>
		<g>
			<path d="M575.6,324.9h-5.6v6.2h-2.2v-14.2h2.2v6.1h5.6v-6.1h2.2v14.2h-2.2V324.9z"/>
		</g>
		<g>
			<path d="M582.1,326.8c0,0.8,0.2,1.4,0.7,1.9c0.4,0.4,1,0.6,1.7,0.6c0.8,0,1.6-0.3,2.2-1l1.5,1.3c-1,1.1-2.3,1.7-3.7,1.6
				c-0.5,0-1.1-0.1-1.6-0.2c-0.3-0.1-0.5-0.2-0.7-0.3c-0.3-0.1-0.5-0.3-0.7-0.5c-0.4-0.4-0.8-0.9-1-1.6c-0.3-0.7-0.4-1.5-0.4-2.5
				c0-1,0.1-1.8,0.4-2.5c0.3-0.7,0.6-1.2,1-1.6c0.4-0.4,0.9-0.7,1.4-0.9c0.5-0.2,1-0.3,1.5-0.3c1.2,0,2.1,0.4,2.9,1.1
				c0.8,0.8,1.2,1.8,1.2,3.1v1.7H582.1z M586.4,325.1c0-0.8-0.2-1.4-0.6-1.8c-0.4-0.4-0.9-0.6-1.5-0.6s-1.1,0.2-1.5,0.6
				c-0.4,0.4-0.6,1-0.6,1.8H586.4z"/>
		</g>
		<g>
			<path d="M590.6,321h2v1.1h0c0.7-0.8,1.5-1.2,2.6-1.2c0.8,0,1.5,0.3,2.1,0.8l-1.5,1.8c-0.4-0.3-0.9-0.5-1.3-0.5
				c-0.5,0-1,0.2-1.3,0.5c-0.4,0.3-0.6,0.9-0.6,1.6v6.1h-2V321z"/>
		</g>
		<g>
			<path d="M599.5,326.8c0,0.8,0.2,1.4,0.7,1.9c0.4,0.4,1,0.6,1.7,0.6c0.8,0,1.6-0.3,2.2-1l1.5,1.3c-1,1.1-2.3,1.7-3.7,1.6
				c-0.5,0-1.1-0.1-1.6-0.2c-0.3-0.1-0.5-0.2-0.7-0.3c-0.3-0.1-0.5-0.3-0.7-0.5c-0.4-0.4-0.8-0.9-1-1.6c-0.3-0.7-0.4-1.5-0.4-2.5
				c0-1,0.1-1.8,0.4-2.5c0.3-0.7,0.6-1.2,1-1.6c0.4-0.4,0.9-0.7,1.4-0.9c0.5-0.2,1-0.3,1.5-0.3c1.2,0,2.1,0.4,2.9,1.1
				c0.8,0.8,1.2,1.8,1.2,3.1v1.7H599.5z M603.8,325.1c0-0.8-0.2-1.4-0.6-1.8c-0.4-0.4-0.9-0.6-1.5-0.6s-1.1,0.2-1.5,0.6
				c-0.4,0.4-0.6,1-0.6,1.8H603.8z"/>
		</g>
	</g>
	<g>
		<g>
			<path class="st11" d="M568.7,378.6c-3.4-2.1-4.4-6.5-2.3-9.9l-7-4.4l-32.6,52.2l7,4.4c2.1-3.4,6.5-4.4,9.9-2.3
				c3.4,2.1,4.4,6.5,2.3,9.9l7,4.4l32.6-52.2l-7-4.4C576.4,379.6,572,380.7,568.7,378.6z"/>
		</g>
		<g>
			<path d="M553.2,434.3l-8.7-5.4l0.5-0.8c0.9-1.4,1.2-3.1,0.8-4.7c-0.4-1.6-1.3-3-2.7-3.8c-1.4-0.9-3.1-1.1-4.7-0.8
				c-1.6,0.4-3,1.3-3.8,2.7l-0.5,0.8l-8.7-5.4l33.7-53.9l8.7,5.4l-0.5,0.8c-1.8,2.9-0.9,6.7,2,8.5c2.9,1.8,6.7,0.9,8.5-2l0.5-0.8
				l8.7,5.4L553.2,434.3z M547.2,428.2l5.3,3.3l31.6-50.5l-5.3-3.3c-2.6,3.2-7.1,4-10.7,1.8l0,0c-3.5-2.2-4.8-6.7-3.1-10.4l-5.3-3.3
				l-31.6,50.5l5.3,3.3c1.1-1.4,2.7-2.4,4.5-2.8c2.1-0.5,4.3-0.1,6.2,1c1.9,1.2,3.1,3,3.6,5.1C548.2,424.7,548,426.5,547.2,428.2z"
				/>
		</g>
	</g>
	<g>
		<g>
			<path class="st10" d="M583,402.5L583,402.5c-4,0.3-7.9-3.3-8.6-8l-1.5-15.6c-0.5-3.2,1.3-6,4.1-6.2l0,0c2.8-0.2,5.4,2.3,5.9,5.5
				l2.3,21C585.5,400.8,584.5,402.3,583,402.5z"/>
		</g>
		<g>
			<path d="M582.5,403.5c-4.3,0-8.4-3.9-9.2-8.9l-1.5-15.7c-0.3-1.9,0.2-3.9,1.3-5.3c0.9-1.2,2.3-1.9,3.7-2c3.3-0.3,6.4,2.6,7,6.3
				l2.4,21c0.2,1.2-0.1,2.4-0.8,3.2c-0.6,0.7-1.4,1.2-2.3,1.2l0,0C582.9,403.5,582.7,403.5,582.5,403.5z M577.3,373.6
				c-0.1,0-0.2,0-0.2,0c-0.9,0.1-1.7,0.5-2.3,1.2c-0.8,1-1.1,2.4-0.9,3.8l1.5,15.7c0.6,4.1,4.1,7.4,7.6,7.1l0,0
				c0.5,0,0.8-0.3,0.9-0.5c0.3-0.4,0.5-1.1,0.4-1.7l-2.4-21C581.5,375.6,579.4,373.6,577.3,373.6z"/>
		</g>
	</g>
	<g>
		<g>
			<path class="st12" d="M671.2,498.1l-106.5-62c-2.1-1.2-2.9-4-1.6-6.1l21.9-37.8c1.5-2.5,4.8-3.2,7.2-1.5l80.1,60.5L671.2,498.1z"
				/>
		</g>
		<g>
			<path d="M672.1,499.8L564.2,437c-2.6-1.5-3.5-4.9-2-7.5l21.9-37.9c0.8-1.5,2.3-2.5,3.9-2.8c1.6-0.3,3.4,0.1,4.7,1.1l80.5,60.8
				L672.1,499.8z M589.1,390.7c-0.3,0-0.5,0-0.8,0.1c-1.1,0.2-2,0.9-2.6,1.9l-21.9,37.9c-1,1.7-0.4,3.8,1.3,4.7l105,61.1l1-44.7
				l-79.7-60.1C590.8,391,590,390.7,589.1,390.7z"/>
		</g>
	</g>
	<g>
		<g>
			<g>
				<path d="M560.2,358.6c-0.6,0-1-0.4-1-1v-19.7c0-0.6,0.4-1,1-1c0.6,0,1,0.4,1,1v19.7C561.2,358.1,560.7,358.6,560.2,358.6z"/>
			</g>
		</g>
		<g>
			<g>
				<g>
					<path d="M560,359.1c-0.3,0-0.5-0.1-0.7-0.3l-6.7-6.7c-0.4-0.4-0.4-1,0-1.4s1-0.4,1.4,0l6.7,6.7c0.4,0.4,0.4,1,0,1.4
						C560.5,359,560.3,359.1,560,359.1z"/>
				</g>
			</g>
			<g>
				<g>
					<path d="M560.3,359.1c-0.3,0-0.5-0.1-0.7-0.3c-0.4-0.4-0.4-1,0-1.4l6.7-6.7c0.4-0.4,1-0.4,1.4,0s0.4,1,0,1.4l-6.7,6.7
						C560.8,359,560.5,359.1,560.3,359.1z"/>
				</g>
			</g>
		</g>
	</g>
</g>
</svg>
