<?xml version="1.0" encoding="utf-8"?>
<!-- Generator: Adobe Illustrator 22.0.1, SVG Export Plug-In . SVG Version: 6.00 Build 0)  -->
<svg version="1.1" id="Layer_1" xmlns="http://www.w3.org/2000/svg" xmlns:xlink="http://www.w3.org/1999/xlink" x="0px" y="0px"
	 viewBox="0 0 1120.8 712" style="enable-background:new 0 0 1120.8 712;" xml:space="preserve">
<style type="text/css">
	.st0{fill:#242424;}
	.st1{fill:#414141;}
	.st2{fill:#666666;}
	.st3{fill:#F38475;}
	.st4{fill:#F2CC67;}
	.st5{fill:#60D36D;}
	.st6{fill:#A9A9A9;}
	.st7{fill:#5DADCD;}
	.st8{fill:#74D5FA;}
	.st9{fill:#FFFFFF;}
	.st10{opacity:0.5;}
	.st11{fill:#2D2D2D;}
	.st12{fill:#F2F2F2;}
	.st13{fill:#CCCCCC;}
	.st14{fill:#E6E6E6;}
	.st15{fill:#B3B3B3;}
	.st16{fill:#808080;}
	.st17{fill:#999999;}
	.st18{fill:#4D4D4D;}
	.st19{fill:#0F313F;}
	.st20{fill:#BDCCD4;}
	.st21{fill:#76D8FA;}
</style>
<g>
	<g id="XMLID_6_">
		<g>
			<g>
				<path class="st0" d="M1112.1,108.6V695c0,4.4-3.6,7.9-7.9,7.9H16.1c-4.4,0-7.9-3.6-7.9-7.9V108.6h0.5H1112.1z"/>
			</g>
			<g>
				<polygon class="st1" points="1112.1,46.6 1112.1,108.6 8.7,108.6 8.1,108.6 8.1,46.6 8.7,46.6 				"/>
			</g>
			<g>
				<path class="st2" d="M1112.1,17v29.6H8.7H8.1V17c0-4.4,3.6-7.9,7.9-7.9h1088.1C1108.6,9.1,1112.1,12.7,1112.1,17z"/>
			</g>
		</g>
		<g>
			<g>
				<path d="M1104.2,703.9H16.1c-4.9,0-8.9-4-8.9-8.9V17c0-4.9,4-8.9,8.9-8.9h1088.1c4.9,0,8.9,4,8.9,8.9v678
					C1113.1,699.9,1109.1,703.9,1104.2,703.9z M16.1,10.1c-3.8,0-6.9,3.1-6.9,6.9v678c0,3.8,3.1,6.9,6.9,6.9h1088.1
					c3.8,0,6.9-3.1,6.9-6.9V17c0-3.8-3.1-6.9-6.9-6.9H16.1z"/>
			</g>
			<g>
				<rect x="8.7" y="45.6" width="1104" height="2"/>
			</g>
			<g>
				<rect x="8.7" y="107.6" width="1104" height="2"/>
			</g>
		</g>
	</g>
	<g>
		<g>
			<circle class="st3" cx="38.1" cy="28.2" r="7"/>
		</g>
		<g>
			<path d="M38.1,36.2c-4.4,0-8-3.6-8-8s3.6-8,8-8s8,3.6,8,8S42.6,36.2,38.1,36.2z M38.1,22.2c-3.3,0-6,2.7-6,6s2.7,6,6,6s6-2.7,6-6
				S41.5,22.2,38.1,22.2z"/>
		</g>
	</g>
	<g>
		<g>
			<circle class="st4" cx="66.6" cy="28.2" r="7"/>
		</g>
		<g>
			<path d="M66.6,36.2c-4.4,0-8-3.6-8-8s3.6-8,8-8s8,3.6,8,8S71.1,36.2,66.6,36.2z M66.6,22.2c-3.3,0-6,2.7-6,6s2.7,6,6,6
				c3.3,0,6-2.7,6-6S70,22.2,66.6,22.2z"/>
		</g>
	</g>
	<g>
		<g>
			<circle class="st5" cx="95.1" cy="28.2" r="7"/>
		</g>
		<g>
			<path d="M95.1,36.2c-4.4,0-8-3.6-8-8s3.6-8,8-8s8,3.6,8,8S99.6,36.2,95.1,36.2z M95.1,22.2c-3.3,0-6,2.7-6,6s2.7,6,6,6s6-2.7,6-6
				S98.5,22.2,95.1,22.2z"/>
		</g>
	</g>
	<g>
		<g>
			<g>
				<path class="st6" d="M1037.9,86.1c-5.1,0-9.3-4.2-9.3-9.3s4.2-9.3,9.3-9.3s9.3,4.2,9.3,9.3S1043,86.1,1037.9,86.1z M1037.9,69.6
					c-4,0-7.3,3.3-7.3,7.3s3.3,7.3,7.3,7.3s7.3-3.3,7.3-7.3S1041.9,69.6,1037.9,69.6z"/>
			</g>
		</g>
		<g>
			<g>
				
					<rect x="1023.6" y="85.4" transform="matrix(0.6838 -0.7297 0.7297 0.6838 262.1992 777.8236)" class="st6" width="9.9" height="2"/>
			</g>
		</g>
	</g>
	<g id="XMLID_5_">
		<g>
			<g>
				<path class="st7" d="M1080,90.5l4.5-11.4h-5.1l-0.6-11.7c5.3,1.2,9.2,6,9.2,11.7C1088.2,84.4,1084.7,88.9,1080,90.5L1080,90.5z"
					/>
			</g>
			<g>
				<polygon class="st8" points="1084.6,79.1 1080,90.5 1079.5,79.1 				"/>
			</g>
			<g>
				<path class="st8" d="M1080,90.5L1080,90.5c-1.2,0.4-2.5,0.6-3.9,0.6c-6.6,0-12-5.4-12-12s5.4-12,12-12c0.9,0,1.9,0.1,2.8,0.3
					l-5.2,11.7h5.7L1080,90.5z"/>
			</g>
			<g>
				<polygon class="st7" points="1078.9,67.4 1079.5,79.1 1073.8,79.1 				"/>
			</g>
		</g>
		<g>
			<g>
				<path d="M1076.1,91.6c-6.9,0-12.5-5.6-12.5-12.5s5.6-12.5,12.5-12.5c1,0,2,0.1,2.9,0.3l0,0c5.6,1.3,9.6,6.3,9.6,12.2
					c0,5.4-3.4,10.2-8.4,11.9C1078.9,91.4,1077.5,91.6,1076.1,91.6z M1076.1,67.6c-6.3,0-11.5,5.2-11.5,11.5s5.2,11.5,11.5,11.5
					c1.3,0,2.6-0.2,3.7-0.6c4.6-1.6,7.8-6,7.8-10.9c0-5.4-3.6-10-8.8-11.2C1077.9,67.7,1077,67.6,1076.1,67.6z"/>
			</g>
			<g>
				<polygon points="1080.5,90.7 1079.5,90.3 1083.9,79.6 1073,79.6 1078.4,67.2 1079.4,67.6 1074.6,78.6 1085.3,78.6 				"/>
			</g>
		</g>
	</g>
	<g>
		<g>
			<path class="st9" d="M66.8,177h4.7c1,0,1.8,0.3,2.5,0.8c0.8,0.6,1.2,1.5,1.2,2.6c0,1.6-0.8,2.8-2.3,3.4l2.8,5.4h-2.2L71,184h-2.3
				v5.2h-1.8L66.8,177L66.8,177z M68.6,182.3h2.8c0.7,0,1.2-0.2,1.5-0.6c0.3-0.4,0.5-0.8,0.5-1.3c0-0.6-0.2-1.1-0.6-1.4
				c-0.3-0.2-0.8-0.4-1.3-0.4h-2.9V182.3z"/>
		</g>
		<g>
			<path class="st9" d="M77.1,177h7.7v1.7H79v3.5h5v1.6h-5v3.6h5.9v1.7h-7.7V177H77.1z"/>
		</g>
		<g>
			<path class="st9" d="M94.7,185.7c-0.3,1.1-0.8,2-1.5,2.6c-0.8,0.6-1.7,0.9-2.7,0.9s-1.7-0.3-2.4-0.7c-0.6-0.4-1.1-0.9-1.4-1.5
				c-0.1-0.2-0.2-0.4-0.2-0.5c-0.1-0.2-0.1-0.4-0.2-0.6c-0.1-0.5-0.1-1.4-0.1-2.8c0-1.4,0-2.3,0.1-2.8s0.2-0.9,0.4-1.2
				c0.3-0.6,0.8-1.1,1.4-1.5s1.4-0.7,2.4-0.7c1.2,0,2.1,0.4,2.9,1c0.7,0.7,1.2,1.5,1.4,2.5h-1.9c-0.2-0.5-0.4-0.9-0.8-1.2
				s-0.9-0.5-1.5-0.5c-0.4,0-0.8,0.1-1.1,0.3c-0.3,0.2-0.6,0.4-0.8,0.6c-0.2,0.3-0.4,0.6-0.5,1s-0.1,1.2-0.1,2.4s0,2,0.1,2.4
				s0.2,0.8,0.5,1c0.2,0.2,0.4,0.5,0.8,0.6c0.3,0.2,0.7,0.3,1.1,0.3c1,0,1.8-0.6,2.3-1.7L94.7,185.7L94.7,185.7z"/>
		</g>
		<g>
			<path class="st9" d="M96,177h7.7v1.7h-5.9v3.5h5v1.6h-5v3.6h5.9v1.7H96V177z"/>
		</g>
		<g>
			<path class="st9" d="M105.5,177h1.7l5.5,8.6l0,0V177h1.8v12.1h-1.7l-5.5-8.6l0,0v8.6h-1.8V177z"/>
		</g>
		<g>
			<path class="st9" d="M119.2,178.6h-3.3V177h8.5v1.6H121v10.5h-1.8V178.6z"/>
		</g>
	</g>
	<g>
		<g>
			<path class="st9" d="M74.9,218.7c-0.3,1.1-0.8,2-1.5,2.6c-0.8,0.6-1.7,0.9-2.7,0.9s-1.7-0.3-2.4-0.7c-0.6-0.4-1.1-0.9-1.4-1.5
				c-0.1-0.2-0.2-0.4-0.2-0.5c-0.1-0.2-0.1-0.4-0.2-0.6c-0.1-0.5-0.1-1.4-0.1-2.8c0-1.4,0-2.3,0.1-2.8s0.2-0.9,0.4-1.2
				c0.3-0.6,0.8-1.1,1.4-1.5s1.4-0.7,2.4-0.7c1.2,0,2.1,0.4,2.9,1c0.7,0.7,1.2,1.5,1.4,2.5h-2c-0.2-0.5-0.4-0.9-0.8-1.2
				s-0.9-0.5-1.5-0.5c-0.4,0-0.8,0.1-1.1,0.3c-0.3,0.2-0.6,0.4-0.8,0.6c-0.2,0.3-0.4,0.6-0.5,1s-0.1,1.2-0.1,2.4s0,2,0.1,2.4
				s0.2,0.8,0.5,1c0.2,0.2,0.4,0.5,0.8,0.6c0.3,0.2,0.7,0.3,1.1,0.3c1,0,1.8-0.6,2.3-1.7L74.9,218.7L74.9,218.7z"/>
		</g>
		<g>
			<path class="st9" d="M84.4,218.7c-0.3,1.1-0.8,2-1.5,2.6c-0.8,0.6-1.7,0.9-2.7,0.9s-1.7-0.3-2.4-0.7c-0.6-0.4-1.1-0.9-1.4-1.5
				c-0.1-0.2-0.2-0.4-0.2-0.5c-0.1-0.2-0.1-0.4-0.2-0.6c-0.1-0.5-0.1-1.4-0.1-2.8c0-1.4,0-2.3,0.1-2.8s0.2-0.9,0.4-1.2
				c0.3-0.6,0.8-1.1,1.4-1.5s1.4-0.7,2.4-0.7c1.2,0,2.1,0.4,2.9,1c0.7,0.7,1.2,1.5,1.4,2.5h-1.9c-0.2-0.5-0.4-0.9-0.8-1.2
				s-0.9-0.5-1.5-0.5c-0.4,0-0.8,0.1-1.1,0.3c-0.3,0.2-0.6,0.4-0.8,0.6c-0.2,0.3-0.4,0.6-0.5,1s-0.1,1.2-0.1,2.4s0,2,0.1,2.4
				s0.2,0.8,0.5,1c0.2,0.2,0.4,0.5,0.8,0.6c0.3,0.2,0.7,0.3,1.1,0.3c1,0,1.8-0.6,2.3-1.7L84.4,218.7L84.4,218.7z"/>
		</g>
		<g>
			<path class="st9" d="M89.7,210h7.7v1.7h-5.9v3.6h5v1.6h-5v5.2h-1.8C89.7,222.1,89.7,210,89.7,210z"/>
		</g>
		<g>
			<path class="st9" d="M98.9,210h1.8v12.1h-1.8V210z"/>
		</g>
		<g>
			<path class="st9" d="M103.3,210h1.8v10.4h5.9v1.7h-7.7C103.3,222.1,103.3,210,103.3,210z"/>
		</g>
		<g>
			<path class="st9" d="M112.7,210h7.7v1.7h-5.9v3.5h5v1.6h-5v3.6h5.9v1.7h-7.7V210z"/>
		</g>
		<g>
			<path class="st9" d="M125.8,220.4c1.6,0,2.4-0.6,2.4-1.7c0-0.9-0.5-1.4-1.6-1.6c-0.5-0.1-1-0.1-1.6-0.2c-1-0.2-1.8-0.6-2.4-1.2
				c-0.6-0.6-0.8-1.4-0.8-2.2c0-1.1,0.4-1.9,1.1-2.6c0.7-0.6,1.6-1,2.9-1c1.5,0,2.8,0.5,3.9,1.3l-1,1.5c-0.9-0.6-1.9-0.9-3-0.9
				c-0.6,0-1,0.1-1.4,0.4c-0.4,0.3-0.6,0.7-0.6,1.3c0,0.3,0.1,0.7,0.4,0.9c0.3,0.3,0.7,0.5,1.3,0.6c0.3,0.1,0.8,0.1,1.4,0.2
				c1.1,0.2,2,0.6,2.5,1.2c0.5,0.6,0.8,1.4,0.8,2.3c-0.1,2.3-1.5,3.5-4.2,3.5c-1.8,0-3.3-0.6-4.6-1.7l1.2-1.4
				C123.3,220,124.4,220.4,125.8,220.4z"/>
		</g>
	</g>
	<g>
		<g>
			<path class="st9" d="M66.8,245h1.8v10.4h5.9v1.7h-7.7C66.8,257.1,66.8,245,66.8,245z"/>
		</g>
		<g>
			<path class="st9" d="M76.2,245h4.7c1,0,1.8,0.3,2.5,0.8c0.8,0.6,1.2,1.5,1.2,2.6c0,1.6-0.8,2.8-2.3,3.4l2.8,5.4h-2.2l-2.5-5.2H78
				v5.2h-1.8V245z M78,250.3h2.8c0.7,0,1.2-0.2,1.5-0.6c0.3-0.4,0.5-0.8,0.5-1.3c0-0.6-0.2-1.1-0.6-1.4c-0.3-0.2-0.8-0.4-1.3-0.4H78
				V250.3z"/>
		</g>
		<g>
			<path class="st9" d="M90.7,245H95c0.5,0,0.9,0,1.4,0.1c0.4,0.1,0.9,0.4,1.3,0.7s0.7,0.7,0.9,1.2c0.2,0.5,0.4,1.1,0.4,1.7
				c0,0.9-0.3,1.7-0.9,2.4c-0.6,0.8-1.6,1.2-2.8,1.2h-2.8v4.7h-1.8V245z M92.5,250.6h2.7c0.7,0,1.2-0.2,1.5-0.6
				c0.3-0.4,0.5-0.8,0.5-1.3c0-0.4-0.1-0.7-0.2-1c-0.1-0.2-0.3-0.4-0.6-0.6c-0.4-0.2-0.8-0.4-1.3-0.3h-2.6V250.6z"/>
		</g>
		<g>
			<path class="st9" d="M107.4,251.8h-4.8v5.3h-1.8V245h1.8v5.2h4.8V245h1.8v12.1h-1.8V251.8z"/>
		</g>
		<g>
			<path class="st9" d="M111.3,251c0-1.4,0-2.3,0.1-2.8s0.2-0.9,0.4-1.2c0.3-0.6,0.8-1.1,1.4-1.5s1.4-0.7,2.4-0.7s1.8,0.2,2.4,0.7
				c0.6,0.4,1.1,0.9,1.4,1.5c0.2,0.3,0.3,0.7,0.4,1.2s0.1,1.4,0.1,2.8c0,1.4,0,2.3-0.1,2.8s-0.2,0.9-0.4,1.2
				c-0.3,0.6-0.7,1.1-1.4,1.5c-0.6,0.4-1.4,0.7-2.4,0.7s-1.7-0.3-2.4-0.7c-0.6-0.4-1.1-0.9-1.4-1.5c-0.1-0.2-0.2-0.4-0.2-0.5
				c-0.1-0.2-0.1-0.4-0.2-0.6C111.4,253.4,111.3,252.4,111.3,251z M113.2,251c0,1.2,0,2,0.1,2.4s0.2,0.8,0.5,1
				c0.2,0.2,0.4,0.5,0.8,0.6c0.3,0.2,0.7,0.3,1.1,0.3s0.8-0.1,1.1-0.3c0.3-0.2,0.5-0.4,0.7-0.6c0.2-0.3,0.4-0.6,0.5-1
				s0.1-1.2,0.1-2.4s0-2-0.1-2.4s-0.3-0.7-0.5-1c-0.2-0.2-0.4-0.5-0.7-0.6c-0.3-0.2-0.7-0.2-1.1-0.3c-0.4,0-0.8,0.1-1.1,0.3
				c-0.3,0.2-0.6,0.4-0.8,0.6c-0.2,0.3-0.4,0.6-0.5,1S113.2,249.9,113.2,251z"/>
		</g>
		<g>
			<path class="st9" d="M123.9,246.6h-3.3V245h8.5v1.6h-3.3v10.5H124L123.9,246.6L123.9,246.6z"/>
		</g>
		<g>
			<path class="st9" d="M129.6,251c0-1.4,0-2.3,0.1-2.8s0.2-0.9,0.4-1.2c0.3-0.6,0.8-1.1,1.4-1.5c0.6-0.4,1.4-0.7,2.4-0.7
				s1.8,0.2,2.4,0.7c0.6,0.4,1.1,0.9,1.4,1.5c0.2,0.3,0.3,0.7,0.4,1.2c0.1,0.5,0.1,1.4,0.1,2.8c0,1.4,0,2.3-0.1,2.8
				s-0.2,0.9-0.4,1.2c-0.3,0.6-0.7,1.1-1.4,1.5c-0.6,0.4-1.4,0.7-2.4,0.7s-1.7-0.3-2.4-0.7c-0.6-0.4-1.1-0.9-1.4-1.5
				c-0.1-0.2-0.2-0.4-0.2-0.5c-0.1-0.2-0.1-0.4-0.2-0.6C129.6,253.4,129.6,252.4,129.6,251z M131.4,251c0,1.2,0,2,0.1,2.4
				s0.2,0.8,0.5,1c0.2,0.2,0.4,0.5,0.8,0.6c0.3,0.2,0.7,0.3,1.1,0.3c0.4,0,0.8-0.1,1.1-0.3s0.5-0.4,0.7-0.6c0.2-0.3,0.4-0.6,0.5-1
				s0.1-1.2,0.1-2.4s0-2-0.1-2.4s-0.3-0.7-0.5-1c-0.2-0.2-0.4-0.5-0.7-0.6c-0.3-0.2-0.7-0.2-1.1-0.3c-0.4,0-0.8,0.1-1.1,0.3
				s-0.6,0.4-0.8,0.6c-0.2,0.3-0.4,0.6-0.5,1C131.5,249,131.4,249.9,131.4,251z"/>
		</g>
		<g>
			<path class="st9" d="M144,255.4c1.6,0,2.4-0.6,2.4-1.7c0-0.9-0.5-1.4-1.6-1.6c-0.5-0.1-1-0.1-1.6-0.2c-1-0.2-1.8-0.6-2.4-1.2
				c-0.6-0.6-0.8-1.4-0.8-2.2c0-1.1,0.4-1.9,1.1-2.6c0.7-0.6,1.6-1,2.9-1c1.5,0,2.8,0.5,3.9,1.3l-1,1.5c-0.9-0.6-1.9-0.9-3-0.9
				c-0.6,0-1,0.1-1.4,0.4c-0.4,0.3-0.6,0.7-0.6,1.3c0,0.3,0.1,0.7,0.4,0.9c0.3,0.3,0.7,0.5,1.3,0.6c0.3,0.1,0.8,0.1,1.4,0.2
				c1.1,0.2,2,0.6,2.5,1.2c0.5,0.6,0.8,1.4,0.8,2.3c-0.1,2.3-1.5,3.5-4.2,3.5c-1.8,0-3.3-0.6-4.6-1.7l1.2-1.4
				C141.5,255,142.6,255.4,144,255.4z"/>
		</g>
	</g>
	<g>
		<g>
			<rect x="56.1" y="174.1" class="st9" width="2" height="17"/>
		</g>
	</g>
	<g>
		<g>
			<path class="st9" d="M145.5,384.5H86.6c-8.1,0-14.6-6.6-14.6-14.6s6.6-14.6,14.6-14.6h58.9c8.1,0,14.6,6.6,14.6,14.6
				S153.6,384.5,145.5,384.5z M86.6,357.2c-7,0-12.6,5.7-12.6,12.6s5.7,12.6,12.6,12.6h58.9c7,0,12.6-5.7,12.6-12.6
				s-5.7-12.6-12.6-12.6H86.6z"/>
		</g>
	</g>
	<g>
		<g>
			<path class="st9" d="M125.9,424.1H85.2c-8.4,0-15.3-6.9-15.3-15.3s6.9-15.3,15.3-15.3h40.7c8.4,0,15.3,6.9,15.3,15.3
				S134.4,424.1,125.9,424.1z M85.2,395.6c-7.3,0-13.3,6-13.3,13.3s6,13.3,13.3,13.3h40.7c7.3,0,13.3-6,13.3-13.3s-6-13.3-13.3-13.3
				H85.2z"/>
		</g>
	</g>
	<g>
		<g>
			<path class="st9" d="M89.4,371c-0.2,0.8-0.6,1.5-1.1,1.9c-0.6,0.4-1.2,0.7-2,0.7c-0.7,0-1.3-0.2-1.8-0.5s-0.8-0.7-1-1.1
				c-0.1-0.1-0.1-0.3-0.2-0.4c0-0.1-0.1-0.3-0.1-0.5c-0.1-0.4-0.1-1-0.1-2.1c0-1,0-1.7,0.1-2.1s0.2-0.6,0.3-0.9
				c0.2-0.4,0.6-0.8,1-1.1c0.5-0.3,1.1-0.5,1.8-0.5c0.9,0,1.6,0.3,2.1,0.8s0.9,1.1,1,1.9H88c-0.1-0.4-0.3-0.7-0.6-0.9
				c-0.3-0.2-0.7-0.4-1.1-0.4c-0.3,0-0.6,0.1-0.8,0.2c-0.2,0.1-0.4,0.3-0.6,0.5s-0.3,0.4-0.3,0.7c-0.1,0.3-0.1,0.9-0.1,1.8
				s0,1.5,0.1,1.8s0.2,0.6,0.3,0.8c0.1,0.2,0.3,0.3,0.6,0.4c0.2,0.1,0.5,0.2,0.8,0.2c0.8,0,1.3-0.4,1.7-1.2L89.4,371L89.4,371z"/>
		</g>
		<g>
			<path class="st9" d="M90.2,367.2h1.3v0.7l0,0c0.4-0.5,1-0.8,1.7-0.8c0.5,0,1,0.2,1.3,0.5l-0.9,1.1c-0.3-0.2-0.5-0.3-0.8-0.3
				s-0.6,0.1-0.8,0.3c-0.3,0.2-0.4,0.5-0.4,1v3.8h-1.3L90.2,367.2L90.2,367.2z"/>
		</g>
		<g>
			<path class="st9" d="M95.8,370.8c0,0.5,0.1,0.9,0.4,1.2c0.3,0.3,0.6,0.4,1.1,0.4s1-0.2,1.4-0.6l0.9,0.8c-0.6,0.7-1.4,1-2.3,1
				c-0.3,0-0.7,0-1-0.1c-0.2-0.1-0.3-0.1-0.5-0.2s-0.3-0.2-0.4-0.3c-0.3-0.2-0.5-0.6-0.7-1s-0.3-0.9-0.3-1.6c0-0.6,0.1-1.2,0.2-1.6
				c0.2-0.4,0.4-0.8,0.6-1c0.3-0.2,0.5-0.4,0.9-0.5c0.3-0.1,0.6-0.2,0.9-0.2c0.7,0,1.3,0.2,1.8,0.7s0.8,1.1,0.8,2v1.1L95.8,370.8
				L95.8,370.8z M98.5,369.8c0-0.5-0.1-0.9-0.4-1.1c-0.2-0.2-0.6-0.4-0.9-0.4c-0.4,0-0.7,0.1-0.9,0.4c-0.2,0.3-0.4,0.6-0.4,1.1H98.5
				z"/>
		</g>
		<g>
			<path class="st9" d="M104.4,372.9L104.4,372.9c-0.1,0.2-0.3,0.4-0.6,0.5c-0.2,0.1-0.6,0.2-1,0.2c-0.7,0-1.3-0.2-1.6-0.6
				c-0.4-0.4-0.6-0.8-0.6-1.4c0-0.5,0.2-1,0.5-1.3c0.4-0.4,0.9-0.5,1.5-0.6h1.8V369c0-0.6-0.4-0.8-1.3-0.8c-0.3,0-0.6,0-0.8,0.1
				c-0.2,0.1-0.3,0.2-0.5,0.4l-1-0.8c0.5-0.6,1.2-0.9,2.1-0.9c0.8,0,1.4,0.1,1.9,0.5c0.5,0.3,0.7,0.9,0.7,1.6v4.3h-1.3v-0.5H104.4z
				 M104.4,370.8h-1.5c-0.7,0-1.1,0.3-1.1,0.8c0,0.2,0.1,0.4,0.3,0.6c0.2,0.2,0.5,0.3,0.9,0.3c0.5,0,0.9-0.1,1.1-0.2
				s0.3-0.4,0.3-0.9C104.4,371.4,104.4,370.8,104.4,370.8z"/>
		</g>
		<g>
			<path class="st9" d="M107.4,365.2h1.3v1.9h0.9v1h-0.9v3.7c0,0.3,0.1,0.5,0.5,0.5h0.5v1.2H109c-0.4,0-0.8-0.1-1.1-0.4
				c-0.3-0.3-0.4-0.6-0.4-1.2v-3.8h-0.6v-1h0.6L107.4,365.2L107.4,365.2z"/>
		</g>
		<g>
			<path class="st9" d="M111.8,370.8c0,0.5,0.1,0.9,0.4,1.2c0.3,0.3,0.6,0.4,1.1,0.4s1-0.2,1.4-0.6l0.9,0.8c-0.6,0.7-1.4,1-2.3,1
				c-0.3,0-0.7,0-1-0.1c-0.2-0.1-0.3-0.1-0.5-0.2s-0.3-0.2-0.4-0.3c-0.3-0.2-0.5-0.6-0.7-1s-0.3-0.9-0.3-1.6c0-0.6,0.1-1.2,0.2-1.6
				c0.2-0.4,0.4-0.8,0.6-1c0.3-0.2,0.5-0.4,0.9-0.5c0.3-0.1,0.6-0.2,0.9-0.2c0.7,0,1.3,0.2,1.8,0.7s0.8,1.1,0.8,2v1.1L111.8,370.8
				L111.8,370.8z M114.5,369.8c0-0.5-0.1-0.9-0.4-1.1c-0.2-0.2-0.6-0.4-0.9-0.4c-0.4,0-0.7,0.1-0.9,0.4c-0.2,0.3-0.4,0.6-0.4,1.1
				H114.5z"/>
		</g>
		<g>
			<path class="st9" d="M120.1,367.2h1.3v0.7l0,0c0.4-0.5,1-0.8,1.7-0.8c0.5,0,1,0.2,1.4,0.6s0.7,0.9,0.7,1.7v4.2h-1.3v-3.8
				c0-0.4-0.1-0.8-0.4-1c-0.2-0.2-0.5-0.4-0.9-0.4s-0.7,0.1-0.9,0.4c-0.2,0.2-0.4,0.6-0.4,1v3.8H120v-6.4H120.1z"/>
		</g>
		<g>
			<path class="st9" d="M127.8,370.8c0,0.5,0.1,0.9,0.4,1.2c0.3,0.3,0.6,0.4,1.1,0.4s1-0.2,1.4-0.6l0.9,0.8c-0.6,0.7-1.4,1-2.3,1
				c-0.3,0-0.7,0-1-0.1c-0.2-0.1-0.3-0.1-0.5-0.2s-0.3-0.2-0.4-0.3c-0.3-0.2-0.5-0.6-0.7-1s-0.3-0.9-0.3-1.6c0-0.6,0.1-1.2,0.2-1.6
				c0.2-0.4,0.4-0.8,0.6-1c0.3-0.2,0.5-0.4,0.9-0.5c0.3-0.1,0.6-0.2,0.9-0.2c0.7,0,1.3,0.2,1.8,0.7s0.8,1.1,0.8,2v1.1L127.8,370.8
				L127.8,370.8z M130.5,369.8c0-0.5-0.1-0.9-0.4-1.1c-0.2-0.2-0.6-0.4-0.9-0.4c-0.4,0-0.7,0.1-0.9,0.4s-0.4,0.6-0.4,1.1H130.5z"/>
		</g>
		<g>
			<path class="st9" d="M136.8,369.1L136.8,369.1l-1.4,4.4h-1.1l-2-6.4h1.4l1.2,4.4l0,0l1.4-4.4h0.9l1.4,4.4l0,0l1.2-4.4h1.4l-2,6.4
				h-1.1L136.8,369.1z"/>
		</g>
		<g>
			<path class="st9" d="M141.5,372.2h1.3v1.3h-1.3V372.2z"/>
		</g>
		<g>
			<path class="st9" d="M144.5,372.2h1.3v1.3h-1.3V372.2z"/>
		</g>
		<g>
			<path class="st9" d="M147.5,372.2h1.3v1.3h-1.3V372.2z"/>
		</g>
	</g>
	<g>
		<g>
			<path class="st9" d="M88.1,408.1c0-1,0-1.7,0.1-2.1s0.2-0.6,0.3-0.9c0.2-0.4,0.6-0.8,1-1.1c0.5-0.3,1.1-0.5,1.8-0.5
				c0.7,0,1.3,0.2,1.8,0.5s0.8,0.7,1,1.1c0.2,0.2,0.3,0.5,0.3,0.9c0.1,0.3,0.1,1,0.1,2.1c0,1,0,1.7-0.1,2.1s-0.2,0.6-0.3,0.9
				c-0.2,0.4-0.5,0.8-1,1.1c-0.5,0.3-1.1,0.5-1.8,0.5c-0.7,0-1.3-0.2-1.8-0.5s-0.8-0.7-1-1.1c-0.1-0.1-0.1-0.3-0.2-0.4
				c0-0.1-0.1-0.3-0.1-0.5C88.2,409.8,88.1,409.1,88.1,408.1z M89.5,408.1c0,0.9,0,1.5,0.1,1.8s0.2,0.6,0.3,0.8
				c0.1,0.2,0.3,0.3,0.6,0.4c0.2,0.1,0.5,0.2,0.8,0.2s0.6-0.1,0.8-0.2c0.2-0.1,0.4-0.3,0.5-0.4c0.2-0.2,0.3-0.4,0.4-0.8
				c0.1-0.3,0.1-0.9,0.1-1.8s0-1.5-0.1-1.8s-0.2-0.5-0.4-0.7c-0.1-0.2-0.3-0.3-0.5-0.5c-0.2-0.1-0.5-0.2-0.8-0.2s-0.6,0.1-0.8,0.2
				c-0.2,0.1-0.4,0.3-0.6,0.5s-0.3,0.4-0.3,0.7C89.5,406.6,89.5,407.2,89.5,408.1z"/>
		</g>
		<g>
			<path class="st9" d="M96,406.2h1.3v0.7c0.4-0.5,1-0.7,1.6-0.7c0.8,0,1.3,0.3,1.7,0.8c0.2,0.2,0.3,0.5,0.4,0.8s0.1,0.9,0.1,1.6
				c0,0.8,0,1.3-0.1,1.6c-0.1,0.3-0.2,0.6-0.4,0.8c-0.2,0.2-0.4,0.4-0.7,0.6c-0.3,0.2-0.6,0.2-1,0.2c-0.3,0-0.6-0.1-0.9-0.2
				s-0.5-0.3-0.8-0.5v3.2H96V406.2z M98.5,411.3c0.3,0,0.5-0.1,0.7-0.2s0.3-0.3,0.4-0.5s0.1-0.4,0.2-0.6c0-0.2,0-0.5,0-0.7
				c0-0.3,0-0.5,0-0.7s-0.1-0.5-0.2-0.6c-0.1-0.2-0.2-0.3-0.4-0.5c-0.2-0.1-0.4-0.2-0.7-0.2c-0.3,0-0.5,0.1-0.7,0.2
				s-0.3,0.3-0.4,0.5s-0.1,0.4-0.2,0.6c0,0.2,0,0.5,0,0.7s0,0.4,0,0.7c0,0.2,0.1,0.5,0.2,0.6c0.1,0.2,0.2,0.3,0.4,0.5
				C98,411.2,98.2,411.3,98.5,411.3z"/>
		</g>
		<g>
			<path class="st9" d="M103.4,409.8c0,0.5,0.1,0.9,0.4,1.2c0.3,0.3,0.6,0.4,1.1,0.4s1-0.2,1.4-0.6l0.9,0.8c-0.6,0.7-1.4,1-2.3,1
				c-0.3,0-0.7,0-1-0.1c-0.2-0.1-0.3-0.1-0.5-0.2s-0.3-0.2-0.4-0.3c-0.3-0.2-0.5-0.6-0.7-1s-0.3-0.9-0.3-1.6c0-0.6,0.1-1.2,0.2-1.6
				c0.2-0.4,0.4-0.8,0.6-1c0.3-0.2,0.5-0.4,0.9-0.5c0.3-0.1,0.6-0.2,0.9-0.2c0.7,0,1.3,0.2,1.8,0.7s0.8,1.1,0.8,2v1.1L103.4,409.8
				L103.4,409.8z M106.1,408.8c0-0.5-0.1-0.9-0.4-1.1c-0.2-0.2-0.6-0.4-0.9-0.4c-0.4,0-0.7,0.1-0.9,0.4c-0.2,0.3-0.4,0.6-0.4,1.1
				H106.1z"/>
		</g>
		<g>
			<path class="st9" d="M108.7,406.2h1.3v0.7l0,0c0.4-0.5,1-0.8,1.7-0.8c0.5,0,1,0.2,1.4,0.6s0.7,0.9,0.7,1.7v4.2h-1.3v-3.8
				c0-0.4-0.1-0.8-0.4-1c-0.2-0.2-0.5-0.4-0.9-0.4s-0.7,0.1-0.9,0.4c-0.2,0.2-0.4,0.6-0.4,1v3.8h-1.3v-6.4H108.7z"/>
		</g>
		<g>
			<path class="st9" d="M115.5,411.2h1.3v1.3h-1.3V411.2z"/>
		</g>
		<g>
			<path class="st9" d="M118.5,411.2h1.3v1.3h-1.3V411.2z"/>
		</g>
		<g>
			<path class="st9" d="M121.5,411.2h1.3v1.3h-1.3V411.2z"/>
		</g>
	</g>
	<g>
		<g>
			<g>
				<rect x="217.1" y="148.1" class="st9" width="7.1" height="7.1"/>
			</g>
		</g>
		<g>
			<g>
				<rect x="226" y="148.1" class="st9" width="7.1" height="7.1"/>
			</g>
		</g>
		<g>
			<g>
				<rect x="226" y="157" class="st9" width="7.1" height="7.1"/>
			</g>
		</g>
		<g>
			<g>
				<rect x="217.1" y="157" class="st9" width="7.1" height="7.1"/>
			</g>
		</g>
	</g>
	<g class="st10">
		<g>
			<g>
				<rect x="247.1" y="148.9" class="st9" width="3.2" height="3.1"/>
			</g>
		</g>
		<g>
			<g>
				<rect x="247.1" y="155.1" class="st9" width="3.2" height="3.1"/>
			</g>
		</g>
		<g>
			<g>
				<rect x="247.1" y="161.2" class="st9" width="3.2" height="3.1"/>
			</g>
		</g>
		<g>
			<g>
				<rect x="252" y="148.9" class="st9" width="12.1" height="3.1"/>
			</g>
		</g>
		<g>
			<g>
				<rect x="252" y="155.1" class="st9" width="12.1" height="3.1"/>
			</g>
		</g>
		<g>
			<g>
				<rect x="252" y="161.2" class="st9" width="12.1" height="3.1"/>
			</g>
		</g>
	</g>
	<g>
		<g>
			<rect x="224.1" y="201.1" class="st11" width="240" height="159"/>
		</g>
		<g>
			<path d="M465.1,361.1h-242v-161h242V361.1z M225.1,359.1h238v-157h-238V359.1z"/>
		</g>
	</g>
	<g>
		<g>
			<rect x="237.1" y="211.1" class="st12" width="214" height="101"/>
		</g>
		<g>
			<path d="M452.1,313.1h-216v-103h216V313.1z M238.1,311.1h212v-99h-212V311.1z"/>
		</g>
	</g>
	<g>
		<g>
			<rect x="224.1" y="397.1" class="st11" width="240" height="159"/>
		</g>
	</g>
	<g>
		<g>
			<rect x="496.1" y="201.1" class="st11" width="240" height="159"/>
		</g>
	</g>
	<g>
		<g>
			<rect x="496.1" y="397.1" class="st11" width="240" height="159"/>
		</g>
	</g>
	<g>
		<g>
			<rect x="766.1" y="201.1" class="st11" width="240" height="159"/>
		</g>
	</g>
	<g>
		<g>
			<rect x="766.1" y="397.1" class="st11" width="240" height="159"/>
		</g>
	</g>
	<g>
		<g>
			<path class="st12" d="M237.8,322.6h1.6l1.6,7.1l0,0l1.9-7.1h1.1l1.9,7.1l0,0l1.6-7.1h1.6l-2.5,10h-1.3l-1.9-7.2l0,0l-1.9,7.2
				h-1.3L237.8,322.6z"/>
		</g>
		<g>
			<path class="st12" d="M251,329.6c0,0.6,0.2,1,0.5,1.3s0.7,0.5,1.2,0.5c0.6,0,1.1-0.2,1.6-0.7l1,0.9c-0.7,0.8-1.6,1.2-2.6,1.1
				c-0.4,0-0.7-0.1-1.1-0.2c-0.2-0.1-0.4-0.1-0.5-0.2c-0.2-0.1-0.3-0.2-0.5-0.3c-0.3-0.3-0.5-0.6-0.7-1.1s-0.3-1-0.3-1.8
				c0-0.7,0.1-1.3,0.3-1.8s0.4-0.8,0.7-1.1c0.3-0.3,0.6-0.5,1-0.6c0.3-0.1,0.7-0.2,1-0.2c0.8,0,1.5,0.3,2.1,0.8s0.9,1.3,0.9,2.2v1.2
				L251,329.6L251,329.6z M253.9,328.4c0-0.6-0.2-1-0.4-1.3c-0.3-0.3-0.6-0.4-1.1-0.4s-0.8,0.1-1.1,0.4s-0.4,0.7-0.4,1.3H253.9z"/>
		</g>
		<g>
			<path class="st12" d="M256.9,322.6h1.4v3.6c0.3-0.3,0.5-0.5,0.9-0.6c0.3-0.2,0.6-0.2,1-0.2c0.9,0,1.5,0.3,1.9,0.9
				c0.2,0.2,0.3,0.5,0.4,0.9s0.1,1,0.1,1.8s0,1.4-0.1,1.8s-0.2,0.7-0.4,0.9c-0.2,0.3-0.5,0.5-0.8,0.7s-0.7,0.3-1.1,0.3
				c-0.7,0-1.4-0.3-1.8-0.8v0.7H257v-10H256.9z M259.7,326.8c-0.3,0-0.6,0.1-0.8,0.2c-0.2,0.1-0.3,0.3-0.4,0.5s-0.1,0.4-0.2,0.7
				s0,0.5,0,0.8s0,0.5,0,0.8s0.1,0.5,0.2,0.7s0.2,0.4,0.4,0.5c0.2,0.1,0.4,0.2,0.8,0.2c0.3,0,0.6-0.1,0.8-0.2
				c0.2-0.1,0.3-0.3,0.4-0.5s0.2-0.5,0.2-0.7c0-0.3,0-0.5,0-0.8s0-0.6,0-0.8c0-0.3-0.1-0.5-0.2-0.7s-0.2-0.4-0.4-0.5
				C260.3,326.9,260,326.8,259.7,326.8z"/>
		</g>
		<g>
			<path class="st12" d="M267.6,322.6h3.9c1,0,1.7,0.3,2.2,0.7c0.5,0.5,0.7,1.1,0.7,1.9c0,0.4-0.1,0.8-0.3,1.2
				c-0.1,0.2-0.3,0.3-0.5,0.5s-0.4,0.3-0.7,0.5l0,0c0.5,0.1,1,0.4,1.2,0.9c0.3,0.4,0.4,0.9,0.4,1.4c0,0.9-0.3,1.5-0.8,2
				s-1.2,0.8-2,0.8h-4.2L267.6,322.6L267.6,322.6z M269.1,324v2.9h2.2c0.6,0,1-0.1,1.2-0.4c0.3-0.3,0.4-0.6,0.4-1s-0.1-0.7-0.4-1
				s-0.7-0.4-1.2-0.4h-2.2V324z M269.1,328.2v3h2.3c0.6,0,1-0.2,1.2-0.5c0.3-0.3,0.4-0.6,0.4-1s-0.1-0.8-0.4-1.1
				c-0.3-0.3-0.7-0.4-1.2-0.4H269.1z"/>
		</g>
		<g>
			<path class="st12" d="M279.8,332L279.8,332c-0.2,0.2-0.4,0.4-0.6,0.5c-0.3,0.1-0.7,0.2-1.1,0.2c-0.8,0-1.4-0.2-1.8-0.6
				c-0.5-0.4-0.7-0.9-0.7-1.5s0.2-1.1,0.6-1.5s1-0.6,1.7-0.6h2v-0.7c0-0.6-0.5-0.9-1.5-0.9c-0.4,0-0.6,0-0.8,0.1
				c-0.2,0.1-0.4,0.2-0.5,0.4l-1.1-0.9c0.5-0.7,1.3-1.1,2.4-1c0.9,0,1.6,0.2,2.1,0.5c0.5,0.4,0.8,1,0.8,1.8v4.8h-1.4V332H279.8z
				 M279.8,329.6H278c-0.8,0-1.2,0.3-1.2,0.9c0,0.2,0.1,0.4,0.3,0.6c0.2,0.2,0.5,0.3,1,0.3c0.6,0,1-0.1,1.3-0.2
				c0.2-0.2,0.3-0.5,0.3-1v-0.6H279.8z"/>
		</g>
		<g>
			<path class="st12" d="M283,325.5h1.4v0.8l0,0c0.5-0.6,1.1-0.8,1.8-0.8c0.6,0,1.1,0.2,1.6,0.6s0.7,1,0.8,1.8v4.7h-1.4v-4.2
				c0-0.5-0.1-0.9-0.4-1.1c-0.3-0.3-0.6-0.4-1-0.4s-0.7,0.1-1,0.4s-0.4,0.6-0.4,1.1v4.2H283V325.5z"/>
		</g>
		<g>
			<path class="st12" d="M290.6,325.5h1.4v0.8l0,0c0.5-0.6,1.1-0.8,1.8-0.8c0.6,0,1.1,0.2,1.6,0.6s0.7,1,0.8,1.8v4.7h-1.4v-4.2
				c0-0.5-0.1-0.9-0.4-1.1c-0.3-0.3-0.6-0.4-1-0.4s-0.7,0.1-1,0.4s-0.4,0.6-0.4,1.1v4.2h-1.4V325.5z"/>
		</g>
		<g>
			<path class="st12" d="M299.2,329.6c0,0.6,0.2,1,0.5,1.3s0.7,0.5,1.2,0.5c0.6,0,1.1-0.2,1.6-0.7l1,0.9c-0.7,0.8-1.6,1.2-2.6,1.1
				c-0.4,0-0.7-0.1-1.1-0.2c-0.2-0.1-0.4-0.1-0.5-0.2c-0.2-0.1-0.3-0.2-0.5-0.3c-0.3-0.3-0.5-0.6-0.7-1.1s-0.3-1-0.3-1.8
				c0-0.7,0.1-1.3,0.3-1.8c0.2-0.5,0.4-0.8,0.7-1.1c0.3-0.3,0.6-0.5,1-0.6c0.3-0.1,0.7-0.2,1-0.2c0.8,0,1.5,0.3,2.1,0.8
				s0.9,1.3,0.9,2.2v1.2L299.2,329.6L299.2,329.6z M302.1,328.4c0-0.6-0.2-1-0.4-1.3c-0.3-0.3-0.6-0.4-1.1-0.4s-0.8,0.1-1.1,0.4
				c-0.3,0.3-0.4,0.7-0.4,1.3H302.1z"/>
		</g>
		<g>
			<path class="st12" d="M305.1,325.5h1.4v0.8l0,0c0.5-0.6,1.1-0.8,1.8-0.8c0.6,0,1.1,0.2,1.5,0.5l-1,1.2c-0.3-0.2-0.6-0.4-0.9-0.4
				c-0.4,0-0.7,0.1-0.9,0.4c-0.3,0.2-0.4,0.6-0.5,1.1v4.3h-1.4V325.5z"/>
		</g>
		<g>
			<path class="st12" d="M314,322.6h3.5c1.3,0,2.4,0.6,3,1.7c0.2,0.4,0.4,0.8,0.5,1.2c0,0.4,0.1,1.1,0.1,2.1c0,1.1,0,1.8-0.1,2.2
				c0,0.2-0.1,0.4-0.2,0.6s-0.2,0.3-0.3,0.5c-0.3,0.5-0.7,0.9-1.2,1.2c-0.5,0.3-1.1,0.5-1.9,0.5H314V322.6z M315.5,331.2h1.8
				c0.8,0,1.5-0.3,1.8-0.9c0.2-0.2,0.3-0.5,0.3-0.8s0.1-0.9,0.1-1.8s0-1.5-0.1-1.9s-0.2-0.7-0.4-0.9c-0.4-0.6-1-0.9-1.8-0.8h-1.8
				v7.1H315.5z"/>
		</g>
		<g>
			<path class="st12" d="M323.8,329.6c0,0.6,0.2,1,0.5,1.3s0.7,0.5,1.2,0.5c0.6,0,1.1-0.2,1.6-0.7l1,0.9c-0.7,0.8-1.6,1.2-2.6,1.1
				c-0.4,0-0.7-0.1-1.1-0.2c-0.2-0.1-0.4-0.1-0.5-0.2c-0.2-0.1-0.3-0.2-0.5-0.3c-0.3-0.3-0.5-0.6-0.7-1.1s-0.3-1-0.3-1.8
				c0-0.7,0.1-1.3,0.3-1.8c0.2-0.5,0.4-0.8,0.7-1.1c0.3-0.3,0.6-0.5,1-0.6c0.3-0.1,0.7-0.2,1-0.2c0.8,0,1.5,0.3,2.1,0.8
				s0.9,1.3,0.9,2.2v1.2L323.8,329.6L323.8,329.6z M326.8,328.4c0-0.6-0.2-1-0.4-1.3c-0.3-0.3-0.6-0.4-1.1-0.4s-0.8,0.1-1.1,0.4
				c-0.3,0.3-0.4,0.7-0.4,1.3H326.8z"/>
		</g>
		<g>
			<path class="st12" d="M332.1,331.3c0.4,0,0.7-0.1,1-0.2s0.4-0.4,0.4-0.7c0-0.3-0.1-0.4-0.2-0.5c-0.2-0.1-0.4-0.2-0.6-0.2
				l-1.3-0.1c-0.6-0.1-1.1-0.3-1.5-0.6c-0.4-0.3-0.6-0.8-0.6-1.4c0-0.7,0.3-1.3,0.8-1.6c0.5-0.4,1.1-0.5,1.9-0.5
				c0.3,0,0.6,0,0.9,0.1c0.3,0,0.5,0.1,0.7,0.2c0.4,0.2,0.8,0.4,1.2,0.7l-0.9,1c-0.3-0.2-0.6-0.4-0.9-0.5s-0.6-0.2-1-0.2
				s-0.8,0.1-0.9,0.2c-0.2,0.2-0.3,0.4-0.3,0.6s0.1,0.3,0.2,0.4s0.4,0.2,0.7,0.3l1.2,0.1c0.7,0.1,1.3,0.3,1.6,0.7
				c0.3,0.4,0.5,0.9,0.5,1.5c0,0.7-0.3,1.2-0.8,1.6s-1.2,0.6-2.1,0.6c-1.2,0-2.2-0.4-3.1-1.3l1-1C330.5,331,331.2,331.3,332.1,331.3
				z"/>
		</g>
		<g>
			<path class="st12" d="M336.5,322.6h1.4v1.4h-1.4V322.6z M336.5,325.5h1.4v7.1h-1.4V325.5z"/>
		</g>
		<g>
			<path class="st12" d="M343.8,331.9c-0.5,0.5-1.1,0.8-1.8,0.8c-0.5,0-0.8-0.1-1.1-0.3c-0.3-0.2-0.6-0.4-0.7-0.6
				c-0.2-0.2-0.3-0.5-0.4-0.9c-0.1-0.3-0.1-1-0.1-1.9c0-1,0-1.6,0.1-1.9s0.2-0.6,0.4-0.8c0.2-0.2,0.4-0.4,0.7-0.6
				c0.3-0.2,0.7-0.3,1.1-0.3c0.7,0,1.3,0.3,1.8,0.8v-0.8h1.4v6.9c0,1.1-0.3,1.9-0.9,2.4s-1.3,0.8-2.2,0.8c-1,0-1.8-0.4-2.5-1.2
				l1.1-0.9c0.2,0.2,0.4,0.3,0.6,0.4s0.5,0.2,0.8,0.2c0.5,0,0.9-0.1,1.2-0.4c0.3-0.3,0.4-0.7,0.5-1.1V331.9z M340.9,329.1
				c0,0.5,0,0.9,0.1,1.1c0,0.2,0.1,0.4,0.2,0.5s0.2,0.2,0.4,0.3c0.2,0.1,0.4,0.2,0.7,0.2s0.5-0.1,0.7-0.2s0.3-0.2,0.4-0.3
				c0.1-0.1,0.2-0.3,0.2-0.5s0-0.6,0-1.1c0-0.6,0-0.9,0-1.1s-0.1-0.4-0.2-0.5s-0.2-0.3-0.4-0.4c-0.2-0.1-0.4-0.2-0.7-0.2
				c-0.3,0-0.5,0.1-0.7,0.2s-0.3,0.2-0.4,0.4c-0.1,0.1-0.2,0.3-0.2,0.5C341,328.1,340.9,328.5,340.9,329.1z"/>
		</g>
		<g>
			<path class="st12" d="M347,325.5h1.4v0.8l0,0c0.5-0.6,1.1-0.8,1.8-0.8c0.6,0,1.1,0.2,1.6,0.6s0.7,1,0.8,1.8v4.7h-1.4v-4.2
				c0-0.5-0.1-0.9-0.4-1.1c-0.3-0.3-0.6-0.4-1-0.4s-0.7,0.1-1,0.4s-0.4,0.6-0.4,1.1v4.2H347V325.5z"/>
		</g>
		<g>
			<path class="st12" d="M354.6,331.2h1.4v1.4h-1.4V331.2z"/>
		</g>
		<g>
			<path class="st12" d="M357.9,325.5h1.4v0.7c0.5-0.5,1.1-0.8,1.8-0.8c0.9,0,1.5,0.3,1.9,0.9c0.2,0.2,0.3,0.5,0.4,0.9
				s0.1,1,0.1,1.8s0,1.4-0.1,1.8s-0.2,0.7-0.4,0.9c-0.2,0.3-0.5,0.5-0.8,0.7s-0.7,0.3-1.1,0.3s-0.7-0.1-1-0.2s-0.6-0.3-0.9-0.6v3.6
				h-1.4v-10H357.9z M360.7,331.3c0.3,0,0.6-0.1,0.8-0.2c0.2-0.1,0.3-0.3,0.4-0.5s0.2-0.5,0.2-0.7c0-0.3,0-0.5,0-0.8s0-0.6,0-0.8
				c0-0.3-0.1-0.5-0.2-0.7s-0.2-0.4-0.4-0.5c-0.2-0.1-0.5-0.2-0.8-0.2s-0.6,0.1-0.8,0.2c-0.2,0.1-0.3,0.3-0.4,0.5s-0.1,0.4-0.2,0.7
				c0,0.3,0,0.5,0,0.8s0,0.5,0,0.8s0.1,0.5,0.2,0.7s0.2,0.4,0.4,0.5C360.2,331.2,360.4,331.3,360.7,331.3z"/>
		</g>
		<g>
			<path class="st12" d="M367.6,331.3c0.4,0,0.7-0.1,1-0.2s0.4-0.4,0.4-0.7c0-0.3-0.1-0.4-0.2-0.5c-0.2-0.1-0.4-0.2-0.6-0.2
				l-1.3-0.1c-0.6-0.1-1.1-0.3-1.5-0.6c-0.4-0.3-0.6-0.8-0.6-1.4c0-0.7,0.3-1.3,0.8-1.6c0.5-0.4,1.1-0.5,1.9-0.5
				c0.3,0,0.6,0,0.9,0.1c0.3,0,0.5,0.1,0.7,0.2c0.4,0.2,0.8,0.4,1.2,0.7l-0.9,1c-0.3-0.2-0.6-0.4-0.9-0.5s-0.6-0.2-1-0.2
				s-0.8,0.1-0.9,0.2c-0.2,0.2-0.3,0.4-0.3,0.6s0.1,0.3,0.2,0.4s0.4,0.2,0.7,0.3l1.2,0.1c0.7,0.1,1.3,0.3,1.6,0.7
				c0.3,0.4,0.5,0.9,0.5,1.5c0,0.7-0.3,1.2-0.8,1.6s-1.2,0.6-2.1,0.6c-1.2,0-2.2-0.4-3.1-1.3l1-1C366,331,366.7,331.3,367.6,331.3z"
				/>
		</g>
		<g>
			<path class="st12" d="M376.1,331.9c-0.5,0.5-1.1,0.8-1.8,0.8c-0.4,0-0.8-0.1-1.1-0.3c-0.3-0.2-0.6-0.4-0.8-0.7
				c-0.2-0.2-0.3-0.5-0.4-0.9s-0.1-1-0.1-1.8c0-0.9,0-1.5,0.1-1.8c0.1-0.4,0.2-0.7,0.4-0.9c0.4-0.6,1-0.9,1.9-0.9
				c0.4,0,0.7,0.1,1,0.2c0.3,0.2,0.6,0.4,0.8,0.6v-3.6h1.4v10h-1.4V331.9z M374.7,326.8c-0.3,0-0.6,0.1-0.8,0.2
				c-0.2,0.1-0.3,0.3-0.4,0.5s-0.1,0.4-0.2,0.7c0,0.3,0,0.5,0,0.8s0,0.5,0,0.8s0.1,0.5,0.2,0.7s0.2,0.4,0.4,0.5
				c0.2,0.1,0.4,0.2,0.8,0.2s0.6-0.1,0.8-0.2c0.2-0.1,0.3-0.3,0.4-0.5s0.2-0.5,0.2-0.7c0-0.3,0-0.5,0-0.8s0-0.5,0-0.8
				s-0.1-0.5-0.2-0.7s-0.2-0.4-0.4-0.5S375.1,326.8,374.7,326.8z"/>
		</g>
	</g>
	<g>
		<g>
			<path class="st13" d="M240.5,344.3L240.5,344.3c-0.1,0.2-0.3,0.3-0.5,0.4s-0.5,0.1-0.8,0.1c-0.6,0-1-0.2-1.3-0.4
				c-0.3-0.3-0.5-0.7-0.5-1.1s0.1-0.8,0.4-1.1c0.3-0.3,0.7-0.4,1.2-0.4h1.4v-0.5c0-0.4-0.3-0.7-1-0.6c-0.3,0-0.5,0-0.6,0.1
				c-0.2,0.1-0.3,0.2-0.4,0.3l-0.8-0.6c0.4-0.5,1-0.8,1.7-0.7c0.6,0,1.1,0.1,1.5,0.4s0.6,0.7,0.6,1.3v3.5h-1v-0.7H240.5z
				 M240.5,342.6h-1.2c-0.6,0-0.9,0.2-0.9,0.6c0,0.2,0.1,0.3,0.2,0.4c0.1,0.1,0.4,0.2,0.7,0.2c0.4,0,0.7,0,0.9-0.2
				c0.2-0.1,0.2-0.4,0.2-0.7v-0.3H240.5z"/>
		</g>
		<g>
			<path class="st13" d="M245.4,340.5h-0.5v-0.8h0.5V339c0-0.5,0.1-0.8,0.4-1.1c0.3-0.2,0.6-0.3,1-0.3h0.7v1h-0.6
				c-0.3,0-0.5,0.1-0.4,0.4v0.7h1v0.8h-1v4.3h-1L245.4,340.5L245.4,340.5z"/>
		</g>
		<g>
			<path class="st13" d="M248.8,342.6c0,0.4,0.1,0.7,0.4,0.9c0.2,0.2,0.5,0.3,0.9,0.3s0.8-0.2,1.1-0.5l0.7,0.6
				c-0.5,0.6-1.1,0.8-1.8,0.8c-0.3,0-0.5,0-0.8-0.1c-0.1,0-0.3-0.1-0.4-0.2c-0.1-0.1-0.2-0.1-0.4-0.2c-0.2-0.2-0.4-0.5-0.5-0.8
				s-0.2-0.7-0.2-1.3c0-0.5,0.1-0.9,0.2-1.2c0.1-0.3,0.3-0.6,0.5-0.8c0.2-0.2,0.4-0.3,0.7-0.4c0.2-0.1,0.5-0.1,0.7-0.1
				c0.6,0,1.1,0.2,1.5,0.6s0.6,0.9,0.6,1.6v0.8L248.8,342.6L248.8,342.6z M250.9,341.8c0-0.4-0.1-0.7-0.3-0.9
				c-0.2-0.2-0.4-0.3-0.8-0.3s-0.6,0.1-0.8,0.3c-0.2,0.2-0.3,0.5-0.3,0.9H250.9z"/>
		</g>
		<g>
			<path class="st13" d="M255.9,341.2L255.9,341.2l-1.1,3.5H254l-1.6-5.1h1.1l1,3.5l0,0l1.2-3.5h0.7l1.2,3.5l0,0l1-3.5h1.1l-1.6,5.1
				H257L255.9,341.2z"/>
		</g>
		<g>
			<path class="st13" d="M264.4,343.9c0.3,0,0.5-0.1,0.7-0.2s0.3-0.3,0.3-0.5s-0.1-0.3-0.2-0.4s-0.3-0.1-0.5-0.1l-0.9-0.1
				c-0.4,0-0.8-0.2-1-0.4c-0.3-0.2-0.4-0.6-0.4-1c0-0.5,0.2-0.9,0.6-1.2c0.4-0.3,0.8-0.4,1.3-0.4c0.2,0,0.4,0,0.6,0s0.4,0.1,0.5,0.1
				c0.3,0.1,0.6,0.3,0.8,0.5l-0.6,0.7c-0.2-0.1-0.4-0.3-0.6-0.3c-0.2-0.1-0.5-0.1-0.7-0.1c-0.3,0-0.5,0.1-0.7,0.2
				c-0.1,0.1-0.2,0.3-0.2,0.4s0,0.2,0.2,0.3c0.1,0.1,0.3,0.2,0.5,0.2l0.8,0.1c0.5,0,0.9,0.2,1.1,0.5s0.3,0.6,0.3,1
				c0,0.5-0.2,0.9-0.6,1.1c-0.4,0.3-0.9,0.4-1.5,0.4c-0.8,0-1.6-0.3-2.2-0.9l0.7-0.7C263.2,343.7,263.7,343.9,264.4,343.9z"/>
		</g>
		<g>
			<path class="st13" d="M268.2,342.6c0,0.4,0.1,0.7,0.4,0.9c0.2,0.2,0.5,0.3,0.9,0.3s0.8-0.2,1.1-0.5l0.7,0.6
				c-0.5,0.6-1.1,0.8-1.8,0.8c-0.3,0-0.5,0-0.8-0.1c-0.1,0-0.3-0.1-0.4-0.2s-0.2-0.1-0.4-0.2c-0.2-0.2-0.4-0.5-0.5-0.8
				s-0.2-0.7-0.2-1.3c0-0.5,0.1-0.9,0.2-1.2c0.1-0.3,0.3-0.6,0.5-0.8c0.2-0.2,0.4-0.3,0.7-0.4c0.2-0.1,0.5-0.1,0.7-0.1
				c0.6,0,1.1,0.2,1.5,0.6s0.6,0.9,0.6,1.6v0.8L268.2,342.6L268.2,342.6z M270.3,341.8c0-0.4-0.1-0.7-0.3-0.9
				c-0.2-0.2-0.4-0.3-0.8-0.3s-0.6,0.1-0.8,0.3c-0.2,0.2-0.3,0.5-0.3,0.9H270.3z"/>
		</g>
		<g>
			<path class="st13" d="M276.1,343.9c-0.2,0.3-0.5,0.5-0.8,0.6c-0.3,0.2-0.6,0.3-1,0.3c-0.6,0-1.1-0.2-1.6-0.6s-0.7-1.1-0.7-2
				s0.3-1.6,0.7-2c0.5-0.4,1-0.6,1.6-0.6c0.4,0,0.7,0.1,1,0.2c0.3,0.2,0.6,0.4,0.8,0.6l-0.8,0.7c-0.3-0.3-0.6-0.5-1-0.5
				c-0.9,0-1.3,0.5-1.3,1.6s0.5,1.6,1.3,1.6c0.4,0,0.8-0.2,1-0.5L276.1,343.9z"/>
		</g>
		<g>
			<path class="st13" d="M276.6,342.2c0-0.5,0-0.9,0.1-1.2c0.1-0.3,0.2-0.5,0.4-0.7c0.1-0.2,0.3-0.3,0.6-0.5c0.2-0.1,0.6-0.2,1-0.2
				s0.7,0.1,1,0.2c0.2,0.1,0.4,0.3,0.6,0.5s0.3,0.4,0.4,0.7c0.1,0.3,0.1,0.7,0.1,1.2s0,0.9-0.1,1.2c-0.1,0.3-0.2,0.5-0.4,0.7
				c-0.1,0.1-0.1,0.1-0.2,0.2s-0.2,0.2-0.3,0.2c-0.2,0.1-0.6,0.2-1,0.2s-0.7-0.1-1-0.2s-0.4-0.3-0.6-0.4c-0.2-0.2-0.3-0.4-0.4-0.7
				C276.6,343.2,276.6,342.8,276.6,342.2z M279.8,342.2c0-0.4,0-0.6,0-0.8c0-0.2-0.1-0.3-0.2-0.4s-0.2-0.2-0.3-0.3
				c-0.1-0.1-0.3-0.1-0.5-0.1s-0.3,0-0.5,0.1c-0.1,0.1-0.3,0.2-0.3,0.3c-0.1,0.1-0.2,0.3-0.2,0.4c0,0.2-0.1,0.4-0.1,0.8
				s0,0.6,0.1,0.8c0,0.2,0.1,0.3,0.2,0.4s0.2,0.2,0.3,0.3c0.1,0.1,0.3,0.1,0.5,0.1s0.3,0,0.5-0.1c0.1-0.1,0.3-0.2,0.3-0.3
				c0.1-0.1,0.2-0.3,0.2-0.4C279.7,342.8,279.8,342.6,279.8,342.2z"/>
		</g>
		<g>
			<path class="st13" d="M281.8,339.7h1v0.5l0,0c0.3-0.4,0.8-0.6,1.3-0.6c0.4,0,0.8,0.1,1.2,0.4c0.3,0.3,0.5,0.7,0.5,1.3v3.4h-1v-3
				c0-0.4-0.1-0.6-0.3-0.8c-0.2-0.2-0.4-0.3-0.7-0.3s-0.5,0.1-0.7,0.3c-0.2,0.2-0.3,0.5-0.3,0.8v3h-1V339.7z"/>
		</g>
		<g>
			<path class="st13" d="M290.2,344.2c-0.3,0.4-0.8,0.6-1.3,0.6c-0.3,0-0.6-0.1-0.8-0.2c-0.2-0.1-0.4-0.3-0.6-0.5
				c-0.1-0.2-0.2-0.4-0.3-0.6c-0.1-0.3-0.1-0.7-0.1-1.3c0-0.6,0-1,0.1-1.3c0-0.3,0.1-0.5,0.3-0.6c0.3-0.4,0.7-0.6,1.4-0.7
				c0.3,0,0.5,0.1,0.7,0.2s0.4,0.3,0.6,0.4v-2.6h1v7.1h-1L290.2,344.2L290.2,344.2z M289.2,340.7c-0.2,0-0.4,0-0.6,0.1
				c-0.1,0.1-0.2,0.2-0.3,0.4c-0.1,0.2-0.1,0.3-0.1,0.5s0,0.4,0,0.6s0,0.4,0,0.6s0.1,0.4,0.1,0.5c0.1,0.1,0.2,0.3,0.3,0.4
				c0.1,0.1,0.3,0.1,0.6,0.1s0.4,0,0.6-0.1c0.1-0.1,0.2-0.2,0.3-0.4c0.1-0.2,0.1-0.3,0.1-0.5s0-0.4,0-0.5c0-0.2,0-0.4,0-0.6
				s-0.1-0.3-0.1-0.5c-0.1-0.2-0.1-0.3-0.3-0.4S289.5,340.7,289.2,340.7z"/>
		</g>
		<g>
			<path class="st13" d="M294.2,343.9c0.3,0,0.5-0.1,0.7-0.2s0.3-0.3,0.3-0.5s-0.1-0.3-0.2-0.4s-0.3-0.1-0.5-0.1l-0.9-0.1
				c-0.4,0-0.8-0.2-1-0.4c-0.3-0.2-0.4-0.6-0.4-1c0-0.5,0.2-0.9,0.6-1.2c0.4-0.3,0.8-0.4,1.3-0.4c0.2,0,0.4,0,0.6,0s0.4,0.1,0.5,0.1
				c0.3,0.1,0.6,0.3,0.8,0.5l-0.6,0.7c-0.2-0.1-0.4-0.3-0.6-0.3c-0.2-0.1-0.5-0.1-0.7-0.1c-0.3,0-0.5,0.1-0.7,0.2
				c-0.1,0.1-0.2,0.3-0.2,0.4s0,0.2,0.2,0.3c0.1,0.1,0.3,0.2,0.5,0.2l0.8,0.1c0.5,0,0.9,0.2,1.1,0.5s0.3,0.6,0.3,1
				c0,0.5-0.2,0.9-0.6,1.1c-0.4,0.3-0.9,0.4-1.5,0.4c-0.8,0-1.6-0.3-2.2-0.9l0.7-0.7C293,343.7,293.5,343.9,294.2,343.9z"/>
		</g>
		<g>
			<path class="st13" d="M302.3,344.3L302.3,344.3c-0.1,0.2-0.3,0.3-0.5,0.4s-0.5,0.1-0.8,0.1c-0.6,0-1-0.2-1.3-0.4
				c-0.3-0.3-0.5-0.7-0.5-1.1s0.1-0.8,0.4-1.1c0.3-0.3,0.7-0.4,1.2-0.4h1.4v-0.5c0-0.4-0.3-0.7-1-0.6c-0.3,0-0.5,0-0.6,0.1
				c-0.2,0.1-0.3,0.2-0.4,0.3l-0.8-0.6c0.4-0.5,1-0.8,1.7-0.7c0.6,0,1.1,0.1,1.5,0.4s0.6,0.7,0.6,1.3v3.5h-1L302.3,344.3
				L302.3,344.3z M302.3,342.6H301c-0.6,0-0.9,0.2-0.9,0.6c0,0.2,0.1,0.3,0.2,0.4s0.4,0.2,0.7,0.2c0.4,0,0.7,0,0.9-0.2
				c0.2-0.1,0.2-0.4,0.2-0.7v-0.3H302.3z"/>
		</g>
		<g>
			<path class="st13" d="M307.5,344.2c-0.3,0.4-0.8,0.6-1.3,0.6c-0.3,0-0.6-0.1-0.8-0.2c-0.2-0.1-0.4-0.3-0.5-0.4
				c-0.1-0.2-0.2-0.4-0.3-0.6c-0.1-0.2-0.1-0.7-0.1-1.4c0-0.7,0-1.1,0.1-1.4c0.1-0.2,0.2-0.4,0.3-0.6c0.1-0.2,0.3-0.3,0.5-0.4
				s0.5-0.2,0.8-0.2c0.5,0,0.9,0.2,1.3,0.6v-0.5h1v4.9c0,0.8-0.2,1.3-0.7,1.7c-0.4,0.4-0.9,0.6-1.5,0.6c-0.7,0-1.3-0.3-1.8-0.8
				l0.8-0.6c0.1,0.1,0.3,0.2,0.4,0.3c0.2,0.1,0.4,0.1,0.5,0.2c0.3,0,0.6-0.1,0.8-0.3c0.2-0.2,0.3-0.5,0.3-0.8v-0.7H307.5z
				 M305.4,342.2c0,0.4,0,0.7,0,0.8c0,0.2,0.1,0.3,0.2,0.4s0.2,0.2,0.3,0.2c0.1,0.1,0.3,0.1,0.5,0.1s0.4,0,0.5-0.1s0.2-0.2,0.3-0.2
				c0.1-0.1,0.1-0.2,0.2-0.4c0-0.1,0-0.4,0-0.8s0-0.7,0-0.8c0-0.2-0.1-0.3-0.2-0.4s-0.2-0.2-0.3-0.3c-0.1-0.1-0.3-0.1-0.5-0.1
				s-0.4,0-0.5,0.1s-0.2,0.2-0.3,0.3c-0.1,0.1-0.1,0.2-0.2,0.4C305.5,341.6,305.4,341.8,305.4,342.2z"/>
		</g>
		<g>
			<path class="st13" d="M309.5,342.2c0-0.5,0-0.9,0.1-1.2c0.1-0.3,0.2-0.5,0.4-0.7c0.1-0.2,0.3-0.3,0.6-0.5c0.2-0.1,0.6-0.2,1-0.2
				s0.7,0.1,1,0.2c0.2,0.1,0.4,0.3,0.6,0.5s0.3,0.4,0.4,0.7c0.1,0.3,0.1,0.7,0.1,1.2s0,0.9-0.1,1.2c-0.1,0.3-0.2,0.5-0.4,0.7
				c-0.1,0.1-0.1,0.1-0.2,0.2s-0.2,0.2-0.3,0.2c-0.2,0.1-0.6,0.2-1,0.2s-0.7-0.1-1-0.2s-0.4-0.3-0.6-0.4c-0.2-0.2-0.3-0.4-0.4-0.7
				C309.6,343.2,309.5,342.8,309.5,342.2z M312.7,342.2c0-0.4,0-0.6,0-0.8c0-0.2-0.1-0.3-0.2-0.4s-0.2-0.2-0.3-0.3
				c-0.1-0.1-0.3-0.1-0.5-0.1s-0.3,0-0.5,0.1c-0.1,0.1-0.3,0.2-0.3,0.3c-0.1,0.1-0.2,0.3-0.2,0.4c0,0.2-0.1,0.4-0.1,0.8
				s0,0.6,0.1,0.8c0,0.2,0.1,0.3,0.2,0.4s0.2,0.2,0.3,0.3c0.1,0.1,0.3,0.1,0.5,0.1s0.3,0,0.5-0.1c0.1-0.1,0.3-0.2,0.3-0.3
				c0.1-0.1,0.2-0.3,0.2-0.4C312.7,342.8,312.7,342.6,312.7,342.2z"/>
		</g>
	</g>
	<g>
		<g>
			<path class="st14" d="M764.5,141.6c0.9,0,1.4-0.3,1.4-1c0-0.5-0.3-0.8-0.9-1c-0.3,0-0.6-0.1-0.9-0.1c-0.6-0.1-1.1-0.3-1.4-0.7
				c-0.3-0.4-0.5-0.8-0.5-1.3c0-0.6,0.2-1.1,0.6-1.5c0.4-0.4,1-0.6,1.7-0.6c0.9,0,1.7,0.3,2.3,0.7l-0.6,0.9
				c-0.5-0.4-1.1-0.5-1.8-0.5c-0.3,0-0.6,0.1-0.8,0.2c-0.2,0.2-0.3,0.4-0.4,0.8c0,0.2,0.1,0.4,0.2,0.6c0.2,0.2,0.4,0.3,0.8,0.4
				c0.2,0,0.5,0.1,0.8,0.1c0.7,0.1,1.2,0.3,1.5,0.7s0.5,0.8,0.5,1.3c0,1.4-0.9,2.1-2.5,2.1c-1.1,0-2-0.3-2.7-1l0.7-0.8
				C763.1,141.3,763.7,141.6,764.5,141.6z"/>
		</g>
		<g>
			<path class="st14" d="M767.8,140.1c0-0.5,0-0.9,0.1-1.2s0.2-0.5,0.4-0.7c0.1-0.2,0.3-0.3,0.6-0.5c0.2-0.1,0.6-0.2,1-0.2
				s0.7,0.1,1,0.2c0.2,0.1,0.4,0.3,0.6,0.5c0.2,0.2,0.3,0.4,0.4,0.7c0.1,0.3,0.1,0.7,0.1,1.2s0,0.9-0.1,1.2s-0.2,0.5-0.4,0.7
				c-0.1,0.1-0.1,0.1-0.2,0.2c-0.1,0.1-0.2,0.2-0.3,0.2c-0.2,0.1-0.6,0.2-1,0.2s-0.7-0.1-1-0.2c-0.3-0.1-0.4-0.3-0.6-0.4
				c-0.2-0.2-0.3-0.4-0.4-0.7C767.8,141,767.8,140.6,767.8,140.1z M771,140.1c0-0.4,0-0.6,0-0.8s-0.1-0.3-0.2-0.4
				c-0.1-0.1-0.2-0.2-0.3-0.3s-0.3-0.1-0.5-0.1s-0.3,0-0.5,0.1c-0.1,0.1-0.3,0.2-0.3,0.3c-0.1,0.1-0.2,0.3-0.2,0.4
				c0,0.2-0.1,0.4-0.1,0.8c0,0.4,0,0.6,0.1,0.8c0,0.2,0.1,0.3,0.2,0.4c0.1,0.1,0.2,0.2,0.3,0.3s0.3,0.1,0.5,0.1s0.3,0,0.5-0.1
				c0.1-0.1,0.3-0.2,0.3-0.3c0.1-0.1,0.2-0.3,0.2-0.4C770.9,140.7,771,140.4,771,140.1z"/>
		</g>
		<g>
			<path class="st14" d="M773,137.5h1v0.5l0,0c0.3-0.4,0.8-0.6,1.3-0.6c0.4,0,0.8,0.1,1.1,0.4l-0.7,0.9c-0.2-0.2-0.4-0.3-0.7-0.3
				s-0.5,0.1-0.7,0.3s-0.3,0.4-0.3,0.8v3.1h-1L773,137.5L773,137.5z"/>
		</g>
		<g>
			<path class="st14" d="M777,136h1v1.5h0.7v0.8H778v3c0,0.3,0.1,0.4,0.4,0.4h0.4v1h-0.5c-0.4,0-0.7-0.1-0.9-0.3s-0.4-0.5-0.4-0.9
				v-3h-0.5v-0.8h0.5V136z"/>
		</g>
		<g>
			<path class="st15" d="M787,135.5h1.1v6.1h3.5v1H787V135.5z"/>
		</g>
		<g>
			<path class="st15" d="M795.1,142.2L795.1,142.2c-0.1,0.2-0.3,0.3-0.5,0.4c-0.2,0.1-0.5,0.1-0.8,0.1c-0.6,0-1-0.2-1.3-0.4
				c-0.3-0.3-0.5-0.7-0.5-1.1c0-0.4,0.1-0.8,0.4-1.1c0.3-0.3,0.7-0.4,1.2-0.4h1.4v-0.5c0-0.4-0.3-0.7-1-0.6c-0.3,0-0.5,0-0.6,0.1
				c-0.2,0.1-0.3,0.2-0.4,0.3l-0.8-0.6c0.4-0.5,1-0.8,1.7-0.7c0.6,0,1.1,0.1,1.5,0.4c0.4,0.3,0.6,0.7,0.6,1.3v3.5h-1L795.1,142.2
				L795.1,142.2z M795.1,140.5h-1.2c-0.6,0-0.9,0.2-0.9,0.6c0,0.2,0.1,0.3,0.2,0.4c0.1,0.1,0.4,0.2,0.7,0.2c0.4,0,0.7,0,0.9-0.2
				c0.2-0.1,0.2-0.4,0.2-0.7L795.1,140.5L795.1,140.5z"/>
		</g>
		<g>
			<path class="st15" d="M799.2,141.7c0.3,0,0.5-0.1,0.7-0.2s0.3-0.3,0.3-0.5s-0.1-0.3-0.2-0.4c-0.1-0.1-0.3-0.1-0.5-0.1l-0.9-0.1
				c-0.4,0-0.8-0.2-1-0.4c-0.3-0.2-0.4-0.6-0.4-1c0-0.5,0.2-0.9,0.6-1.2c0.4-0.3,0.8-0.4,1.3-0.4c0.2,0,0.4,0,0.6,0
				c0.2,0,0.4,0.1,0.5,0.1c0.3,0.1,0.6,0.3,0.8,0.5l-0.6,0.7c-0.2-0.1-0.4-0.3-0.6-0.3c-0.2-0.1-0.5-0.1-0.7-0.1
				c-0.3,0-0.5,0.1-0.7,0.2c-0.1,0.1-0.2,0.3-0.2,0.4c0,0.1,0,0.2,0.2,0.3c0.1,0.1,0.3,0.2,0.5,0.2l0.8,0.1c0.5,0,0.9,0.2,1.1,0.5
				c0.2,0.3,0.3,0.6,0.3,1c0,0.5-0.2,0.9-0.6,1.1c-0.4,0.3-0.9,0.4-1.5,0.4c-0.8,0-1.6-0.3-2.2-0.9l0.7-0.7
				C798,141.5,798.6,141.7,799.2,141.7z"/>
		</g>
		<g>
			<path class="st15" d="M802.3,136h1v1.5h0.7v0.8h-0.7v3c0,0.3,0.1,0.4,0.4,0.4h0.4v1h-0.5c-0.4,0-0.7-0.1-0.9-0.3
				s-0.4-0.5-0.4-0.9v-3h-0.5v-0.8h0.5V136z"/>
		</g>
		<g>
			<path class="st15" d="M807.2,140.1c0-0.5,0-0.9,0.1-1.2s0.2-0.5,0.4-0.7c0.1-0.2,0.3-0.3,0.6-0.5c0.2-0.1,0.6-0.2,1-0.2
				s0.7,0.1,1,0.2c0.2,0.1,0.4,0.3,0.6,0.5c0.2,0.2,0.3,0.4,0.4,0.7c0.1,0.3,0.1,0.7,0.1,1.2s0,0.9-0.1,1.2s-0.2,0.5-0.4,0.7
				c-0.1,0.1-0.1,0.1-0.2,0.2c-0.1,0.1-0.2,0.2-0.3,0.2c-0.2,0.1-0.6,0.2-1,0.2s-0.7-0.1-1-0.2c-0.3-0.1-0.4-0.3-0.6-0.4
				c-0.2-0.2-0.3-0.4-0.4-0.7C807.2,141,807.2,140.6,807.2,140.1z M810.4,140.1c0-0.4,0-0.6,0-0.8s-0.1-0.3-0.2-0.4
				c-0.1-0.1-0.2-0.2-0.3-0.3s-0.3-0.1-0.5-0.1s-0.3,0-0.5,0.1c-0.1,0.1-0.3,0.2-0.3,0.3c-0.1,0.1-0.2,0.3-0.2,0.4
				c0,0.2-0.1,0.4-0.1,0.8c0,0.4,0,0.6,0.1,0.8c0,0.2,0.1,0.3,0.2,0.4c0.1,0.1,0.2,0.2,0.3,0.3s0.3,0.1,0.5,0.1s0.3,0,0.5-0.1
				c0.1-0.1,0.3-0.2,0.3-0.3c0.1-0.1,0.2-0.3,0.2-0.4C810.3,140.7,810.4,140.4,810.4,140.1z"/>
		</g>
		<g>
			<path class="st15" d="M812.4,137.5h1v0.5c0.3-0.4,0.8-0.6,1.3-0.6c0.6,0,1.1,0.2,1.4,0.7c0.1,0.2,0.2,0.4,0.3,0.6
				c0,0.3,0.1,0.7,0.1,1.3s0,1-0.1,1.3s-0.1,0.5-0.3,0.6c-0.1,0.2-0.3,0.4-0.6,0.5c-0.2,0.1-0.5,0.2-0.8,0.2s-0.5-0.1-0.7-0.2
				c-0.2-0.1-0.4-0.2-0.6-0.4v2.6h-1L812.4,137.5L812.4,137.5z M814.5,141.6c0.2,0,0.4,0,0.6-0.1c0.1-0.1,0.2-0.2,0.3-0.4
				s0.1-0.3,0.1-0.5s0-0.4,0-0.6c0-0.2,0-0.4,0-0.6c0-0.2-0.1-0.4-0.1-0.5c-0.1-0.2-0.2-0.3-0.3-0.4c-0.1-0.1-0.3-0.1-0.6-0.1
				c-0.2,0-0.4,0-0.5,0.1s-0.2,0.2-0.3,0.4s-0.1,0.3-0.1,0.5s0,0.4,0,0.6c0,0.2,0,0.4,0,0.5c0,0.2,0.1,0.4,0.1,0.5
				c0.1,0.2,0.2,0.3,0.3,0.4C814.1,141.6,814.2,141.6,814.5,141.6z"/>
		</g>
		<g>
			<path class="st15" d="M818.4,140.5c0,0.4,0.1,0.7,0.4,0.9c0.2,0.2,0.5,0.3,0.9,0.3s0.8-0.2,1.1-0.5l0.7,0.6
				c-0.5,0.6-1.1,0.8-1.8,0.8c-0.3,0-0.5,0-0.8-0.1c-0.1,0-0.3-0.1-0.4-0.2c-0.1-0.1-0.2-0.1-0.4-0.2c-0.2-0.2-0.4-0.5-0.5-0.8
				s-0.2-0.7-0.2-1.3c0-0.5,0.1-0.9,0.2-1.2c0.1-0.3,0.3-0.6,0.5-0.8s0.4-0.3,0.7-0.4c0.2-0.1,0.5-0.1,0.7-0.1
				c0.6,0,1.1,0.2,1.5,0.6c0.4,0.4,0.6,0.9,0.6,1.6v0.8L818.4,140.5L818.4,140.5z M820.5,139.6c0-0.4-0.1-0.7-0.3-0.9
				s-0.4-0.3-0.8-0.3s-0.6,0.1-0.8,0.3s-0.3,0.5-0.3,0.9H820.5z"/>
		</g>
		<g>
			<path class="st15" d="M822.6,137.5h1v0.5l0,0c0.3-0.4,0.8-0.6,1.3-0.6c0.4,0,0.8,0.1,1.2,0.4c0.3,0.3,0.5,0.7,0.5,1.3v3.4h-1v-3
				c0-0.4-0.1-0.6-0.3-0.8s-0.4-0.3-0.7-0.3s-0.5,0.1-0.7,0.3s-0.3,0.5-0.3,0.8v3h-1V137.5z"/>
		</g>
		<g>
			<path class="st15" d="M828.8,140.5c0,0.4,0.1,0.7,0.4,0.9c0.2,0.2,0.5,0.3,0.9,0.3s0.8-0.2,1.1-0.5l0.7,0.6
				c-0.5,0.6-1.1,0.8-1.8,0.8c-0.3,0-0.5,0-0.8-0.1c-0.1,0-0.3-0.1-0.4-0.2c-0.1-0.1-0.2-0.1-0.4-0.2c-0.2-0.2-0.4-0.5-0.5-0.8
				s-0.2-0.7-0.2-1.3c0-0.5,0.1-0.9,0.2-1.2c0.1-0.3,0.3-0.6,0.5-0.8s0.4-0.3,0.7-0.4c0.2-0.1,0.5-0.1,0.7-0.1
				c0.6,0,1.1,0.2,1.5,0.6c0.4,0.4,0.6,0.9,0.6,1.6v0.8L828.8,140.5L828.8,140.5z M830.9,139.6c0-0.4-0.1-0.7-0.3-0.9
				s-0.4-0.3-0.8-0.3s-0.6,0.1-0.8,0.3s-0.3,0.5-0.3,0.9H830.9z"/>
		</g>
		<g>
			<path class="st15" d="M836,142.1c-0.3,0.4-0.8,0.6-1.3,0.6c-0.3,0-0.6-0.1-0.8-0.2c-0.2-0.1-0.4-0.3-0.6-0.5
				c-0.1-0.2-0.2-0.4-0.3-0.6c-0.1-0.3-0.1-0.7-0.1-1.3s0-1,0.1-1.3c0-0.3,0.1-0.5,0.3-0.6c0.3-0.4,0.7-0.6,1.4-0.7
				c0.3,0,0.5,0.1,0.7,0.2c0.2,0.1,0.4,0.3,0.6,0.4v-2.6h1v7.1h-1L836,142.1L836,142.1z M835,138.5c-0.2,0-0.4,0-0.6,0.1
				c-0.1,0.1-0.2,0.2-0.3,0.4s-0.1,0.3-0.1,0.5s0,0.4,0,0.6c0,0.2,0,0.4,0,0.6c0,0.2,0.1,0.4,0.1,0.5c0.1,0.1,0.2,0.3,0.3,0.4
				c0.1,0.1,0.3,0.1,0.6,0.1s0.4,0,0.6-0.1c0.1-0.1,0.2-0.2,0.3-0.4s0.1-0.3,0.1-0.5s0-0.4,0-0.5c0-0.2,0-0.4,0-0.6
				c0-0.2-0.1-0.3-0.1-0.5c-0.1-0.2-0.1-0.3-0.3-0.4S835.3,138.5,835,138.5z"/>
		</g>
	</g>
	<g>
		<g>
			<path class="st16" d="M951.4,135.5h4.5v1h-3.5v2.1h3v1h-3v3h-1.1L951.4,135.5L951.4,135.5z"/>
		</g>
		<g>
			<path class="st16" d="M956.7,135.5h1v1h-1V135.5z M956.7,137.5h1v5.1h-1V137.5z"/>
		</g>
		<g>
			<path class="st16" d="M959.1,135.5h1v5.8c0,0.2,0.1,0.3,0.4,0.3h0.4v1h-0.5c-0.4,0-0.7-0.1-0.9-0.3c-0.3-0.2-0.4-0.5-0.4-1V135.5
				z"/>
		</g>
		<g>
			<path class="st16" d="M961.7,136h1v1.5h0.7v0.8h-0.7v3c0,0.3,0.1,0.4,0.4,0.4h0.4v1H963c-0.4,0-0.7-0.1-0.9-0.3s-0.4-0.5-0.4-0.9
				v-3h-0.5v-0.8h0.5V136z"/>
		</g>
		<g>
			<path class="st16" d="M965.2,140.5c0,0.4,0.1,0.7,0.4,0.9c0.2,0.2,0.5,0.3,0.9,0.3s0.8-0.2,1.1-0.5l0.7,0.6
				c-0.5,0.6-1.1,0.8-1.8,0.8c-0.3,0-0.5,0-0.8-0.1c-0.1,0-0.3-0.1-0.4-0.2c-0.1-0.1-0.2-0.1-0.4-0.2c-0.2-0.2-0.4-0.5-0.5-0.8
				s-0.2-0.7-0.2-1.3c0-0.5,0.1-0.9,0.2-1.2c0.1-0.3,0.3-0.6,0.5-0.8s0.4-0.3,0.7-0.4c0.2-0.1,0.5-0.1,0.7-0.1
				c0.6,0,1.1,0.2,1.5,0.6c0.4,0.4,0.6,0.9,0.6,1.6v0.8L965.2,140.5L965.2,140.5z M967.3,139.6c0-0.4-0.1-0.7-0.3-0.9
				s-0.4-0.3-0.8-0.3s-0.6,0.1-0.8,0.3s-0.3,0.5-0.3,0.9H967.3z"/>
		</g>
		<g>
			<path class="st16" d="M969.4,137.5h1v0.5l0,0c0.3-0.4,0.8-0.6,1.3-0.6c0.4,0,0.8,0.1,1.1,0.4l-0.7,0.9c-0.2-0.2-0.4-0.3-0.7-0.3
				s-0.5,0.1-0.7,0.3s-0.3,0.4-0.3,0.8v3.1h-1L969.4,137.5L969.4,137.5z"/>
		</g>
		<g>
			<path class="st16" d="M975.7,137.5h1v0.5l0,0c0.3-0.4,0.8-0.6,1.3-0.6c0.4,0,0.8,0.1,1.1,0.4l-0.7,0.9c-0.2-0.2-0.4-0.3-0.7-0.3
				s-0.5,0.1-0.7,0.3s-0.3,0.4-0.3,0.8v3.1h-1L975.7,137.5L975.7,137.5z"/>
		</g>
		<g>
			<path class="st16" d="M980.2,140.5c0,0.4,0.1,0.7,0.4,0.9c0.2,0.2,0.5,0.3,0.9,0.3s0.8-0.2,1.1-0.5l0.7,0.6
				c-0.5,0.6-1.1,0.8-1.8,0.8c-0.3,0-0.5,0-0.8-0.1c-0.1,0-0.3-0.1-0.4-0.2c-0.1-0.1-0.2-0.1-0.4-0.2c-0.2-0.2-0.4-0.5-0.5-0.8
				s-0.2-0.7-0.2-1.3c0-0.5,0.1-0.9,0.2-1.2c0.1-0.3,0.3-0.6,0.5-0.8s0.4-0.3,0.7-0.4c0.2-0.1,0.5-0.1,0.7-0.1
				c0.6,0,1.1,0.2,1.5,0.6c0.4,0.4,0.6,0.9,0.6,1.6v0.8L980.2,140.5L980.2,140.5z M982.3,139.6c0-0.4-0.1-0.7-0.3-0.9
				s-0.4-0.3-0.8-0.3s-0.6,0.1-0.8,0.3s-0.3,0.5-0.3,0.9H982.3z"/>
		</g>
		<g>
			<path class="st16" d="M988.2,141.8c-0.2,0.3-0.5,0.5-0.8,0.6c-0.3,0.2-0.6,0.3-1,0.3c-0.6,0-1.1-0.2-1.6-0.6
				c-0.5-0.4-0.7-1.1-0.7-2s0.3-1.6,0.7-2c0.5-0.4,1-0.6,1.6-0.6c0.4,0,0.7,0.1,1,0.2c0.3,0.2,0.6,0.4,0.8,0.6l-0.8,0.7
				c-0.3-0.3-0.6-0.5-1-0.5c-0.9,0-1.3,0.5-1.3,1.6s0.5,1.6,1.3,1.6c0.4,0,0.8-0.2,1-0.5L988.2,141.8z"/>
		</g>
		<g>
			<path class="st16" d="M989.6,140.5c0,0.4,0.1,0.7,0.4,0.9c0.2,0.2,0.5,0.3,0.9,0.3s0.8-0.2,1.1-0.5l0.7,0.6
				c-0.5,0.6-1.1,0.8-1.8,0.8c-0.3,0-0.5,0-0.8-0.1c-0.1,0-0.3-0.1-0.4-0.2c-0.1-0.1-0.2-0.1-0.4-0.2c-0.2-0.2-0.4-0.5-0.5-0.8
				s-0.2-0.7-0.2-1.3c0-0.5,0.1-0.9,0.2-1.2c0.1-0.3,0.3-0.6,0.5-0.8s0.4-0.3,0.7-0.4c0.2-0.1,0.5-0.1,0.7-0.1
				c0.6,0,1.1,0.2,1.5,0.6c0.4,0.4,0.6,0.9,0.6,1.6v0.8L989.6,140.5L989.6,140.5z M991.8,139.6c0-0.4-0.1-0.7-0.3-0.9
				s-0.4-0.3-0.8-0.3s-0.6,0.1-0.8,0.3s-0.3,0.5-0.3,0.9H991.8z"/>
		</g>
		<g>
			<path class="st16" d="M993.9,137.5h1v0.5l0,0c0.3-0.4,0.8-0.6,1.3-0.6c0.4,0,0.8,0.1,1.2,0.4c0.3,0.3,0.5,0.7,0.5,1.3v3.4h-1v-3
				c0-0.4-0.1-0.6-0.3-0.8s-0.4-0.3-0.7-0.3s-0.5,0.1-0.7,0.3s-0.3,0.5-0.3,0.8v3h-1V137.5z"/>
		</g>
		<g>
			<path class="st16" d="M999.3,136h1v1.5h0.7v0.8h-0.7v3c0,0.3,0.1,0.4,0.4,0.4h0.4v1h-0.5c-0.4,0-0.7-0.1-0.9-0.3
				s-0.4-0.5-0.4-0.9v-3h-0.5v-0.8h0.5V136z"/>
		</g>
		<g>
			<path class="st16" d="M1004.6,138.3h-0.5v-0.8h0.5v-0.7c0-0.5,0.1-0.8,0.4-1.1c0.3-0.2,0.6-0.3,1-0.3h0.7v1h-0.6
				c-0.3,0-0.5,0.1-0.4,0.4v0.7h1v0.8h-1v4.3h-1v-4.3H1004.6z"/>
		</g>
		<g>
			<path class="st16" d="M1007.2,135.5h1v1h-1V135.5z M1007.2,137.5h1v5.1h-1V137.5z"/>
		</g>
		<g>
			<path class="st16" d="M1009.6,135.5h1v5.8c0,0.2,0.1,0.3,0.4,0.3h0.4v1h-0.5c-0.4,0-0.7-0.1-0.9-0.3c-0.3-0.2-0.4-0.5-0.4-1
				V135.5z"/>
		</g>
		<g>
			<path class="st16" d="M1012.9,140.5c0,0.4,0.1,0.7,0.4,0.9c0.2,0.2,0.5,0.3,0.9,0.3s0.8-0.2,1.1-0.5l0.7,0.6
				c-0.5,0.6-1.1,0.8-1.8,0.8c-0.3,0-0.5,0-0.8-0.1c-0.1,0-0.3-0.1-0.4-0.2c-0.1-0.1-0.2-0.1-0.4-0.2c-0.2-0.2-0.4-0.5-0.5-0.8
				s-0.2-0.7-0.2-1.3c0-0.5,0.1-0.9,0.2-1.2c0.1-0.3,0.3-0.6,0.5-0.8s0.4-0.3,0.7-0.4c0.2-0.1,0.5-0.1,0.7-0.1
				c0.6,0,1.1,0.2,1.5,0.6c0.4,0.4,0.6,0.9,0.6,1.6v0.8L1012.9,140.5L1012.9,140.5z M1015.1,139.6c0-0.4-0.1-0.7-0.3-0.9
				s-0.4-0.3-0.8-0.3s-0.6,0.1-0.8,0.3s-0.3,0.5-0.3,0.9H1015.1z"/>
		</g>
		<g>
			<path class="st16" d="M1018.9,141.7c0.3,0,0.5-0.1,0.7-0.2s0.3-0.3,0.3-0.5s-0.1-0.3-0.2-0.4c-0.1-0.1-0.3-0.1-0.5-0.1l-0.9-0.1
				c-0.4,0-0.8-0.2-1-0.4c-0.3-0.2-0.4-0.6-0.4-1c0-0.5,0.2-0.9,0.6-1.2c0.4-0.3,0.8-0.4,1.3-0.4c0.2,0,0.4,0,0.6,0
				c0.2,0,0.4,0.1,0.5,0.1c0.3,0.1,0.6,0.3,0.8,0.5l-0.6,0.7c-0.2-0.1-0.4-0.3-0.6-0.3c-0.2-0.1-0.5-0.1-0.7-0.1
				c-0.3,0-0.5,0.1-0.7,0.2c-0.1,0.1-0.2,0.3-0.2,0.4c0,0.1,0,0.2,0.2,0.3c0.1,0.1,0.3,0.2,0.5,0.2l0.8,0.1c0.5,0,0.9,0.2,1.1,0.5
				c0.2,0.3,0.3,0.6,0.3,1c0,0.5-0.2,0.9-0.6,1.1c-0.4,0.3-0.9,0.4-1.5,0.4c-0.8,0-1.6-0.3-2.2-0.9l0.7-0.7
				C1017.7,141.5,1018.3,141.7,1018.9,141.7z"/>
		</g>
	</g>
	<g>
		<g>
			<rect x="783.1" y="148.1" class="st17" width="94" height="2"/>
		</g>
	</g>
	<g>
		<g>
			<rect x="950.1" y="148.1" class="st18" width="94" height="2"/>
		</g>
	</g>
	<g>
		<g>
			<path class="st9" d="M834.9,30.7c1.8,0,2.8-0.7,2.8-2c0-1.1-0.6-1.7-1.9-1.9c-0.6-0.1-1.2-0.2-1.9-0.3c-1.2-0.2-2.2-0.7-2.8-1.4
				c-0.7-0.7-1-1.6-1-2.6c0-1.2,0.4-2.2,1.2-3s1.9-1.1,3.4-1.2c1.8,0,3.3,0.5,4.6,1.5l-1.2,1.8c-1.1-0.7-2.2-1.1-3.5-1.1
				c-0.7,0-1.2,0.2-1.7,0.5s-0.7,0.9-0.7,1.5c0,0.4,0.2,0.8,0.5,1.1c0.3,0.3,0.8,0.6,1.5,0.7c0.4,0.1,0.9,0.1,1.6,0.2
				c1.3,0.2,2.3,0.7,3,1.4c0.6,0.8,0.9,1.6,0.9,2.7c-0.1,2.7-1.7,4.1-5,4.1c-2.1,0-3.9-0.7-5.4-2l1.4-1.6
				C832,30.2,833.3,30.7,834.9,30.7z"/>
		</g>
		<g>
			<path class="st9" d="M842.1,19.5h2v3.1h1.5v1.6h-1.5v5.9c0,0.5,0.2,0.8,0.7,0.8h0.8v1.9h-1.1c-0.7,0-1.3-0.2-1.8-0.7
				c-0.5-0.4-0.7-1-0.7-1.8v-6.1h-1v-1.6h1L842.1,19.5L842.1,19.5z"/>
		</g>
		<g>
			<path class="st9" d="M847.5,22.6h2v1.1l0,0c0.7-0.8,1.5-1.2,2.6-1.2c0.8,0,1.5,0.3,2.1,0.8l-1.5,1.8c-0.4-0.3-0.9-0.5-1.3-0.5
				c-0.5,0-1,0.2-1.3,0.5c-0.4,0.3-0.6,0.9-0.6,1.6v6.1h-2V22.6z"/>
		</g>
		<g>
			<path class="st9" d="M860.2,31.9L860.2,31.9c-0.2,0.3-0.5,0.6-0.9,0.8s-0.9,0.3-1.6,0.3c-1.1,0-2-0.3-2.6-0.9
				c-0.6-0.6-1-1.3-1-2.2c0-0.9,0.3-1.6,0.8-2.1c0.6-0.6,1.4-0.9,2.5-0.9h2.8v-1.1c0-0.9-0.7-1.3-2.1-1.3c-0.5,0-0.9,0.1-1.2,0.2
				s-0.5,0.3-0.7,0.6l-1.6-1.2c0.8-1,1.9-1.5,3.4-1.5c1.3,0,2.3,0.2,3.1,0.7s1.1,1.4,1.2,2.6v6.9h-2v-0.9H860.2z M860.2,28.5h-2.4
				c-1.2,0-1.8,0.4-1.8,1.2c0,0.3,0.2,0.6,0.5,0.9s0.8,0.4,1.5,0.4c0.9,0,1.5-0.1,1.8-0.3c0.3-0.2,0.5-0.7,0.5-1.5L860.2,28.5
				L860.2,28.5z"/>
		</g>
		<g>
			<path class="st9" d="M864.9,22.6h2v1.1l0,0c0.7-0.8,1.5-1.2,2.6-1.2c0.8,0,1.5,0.3,2.1,0.8l-1.5,1.8c-0.4-0.3-0.9-0.5-1.3-0.5
				c-0.5,0-1,0.2-1.3,0.5c-0.4,0.3-0.6,0.9-0.6,1.6v6.1h-2V22.6z"/>
		</g>
		<g>
			<path class="st9" d="M872.8,19.5h2v3.1h1.5v1.6h-1.5v5.9c0,0.5,0.2,0.8,0.7,0.8h0.8v1.9h-1.1c-0.7,0-1.3-0.2-1.8-0.7
				c-0.5-0.4-0.7-1-0.7-1.8v-6.1h-1v-1.6h1L872.8,19.5L872.8,19.5z"/>
		</g>
	</g>
	<g>
		<g>
			<path class="st9" d="M1088.1,39.1h-177c-6.6,0-12-5.4-12-12l0,0c0-6.6,5.4-12,12-12h177c6.6,0,12,5.4,12,12l0,0
				C1100.1,33.7,1094.7,39.1,1088.1,39.1z"/>
		</g>
		<g>
			<path d="M1088.1,40.1h-177c-7.2,0-13-5.8-13-13s5.8-13,13-13h177c7.2,0,13,5.8,13,13S1095.3,40.1,1088.1,40.1z M911.1,16.1
				c-6.1,0-11,4.9-11,11s4.9,11,11,11h177c6.1,0,11-4.9,11-11s-4.9-11-11-11C1088.1,16.1,911.1,16.1,911.1,16.1z"/>
		</g>
	</g>
	<g>
		<g>
			<g>
				<path class="st6" d="M920,31.9c-3.4,0-6.1-2.7-6.1-6.1s2.7-6.1,6.1-6.1s6.1,2.7,6.1,6.1S923.4,31.9,920,31.9z M920,21.7
					c-2.3,0-4.1,1.8-4.1,4.1s1.8,4.1,4.1,4.1s4.1-1.8,4.1-4.1S922.3,21.7,920,21.7z"/>
			</g>
		</g>
		<g>
			<g>
				
					<rect x="911.2" y="30.7" transform="matrix(0.6838 -0.7297 0.7297 0.6838 265.969 677.1315)" class="st6" width="6.1" height="2"/>
			</g>
		</g>
	</g>
	<g>
		<g>
			<g>
				<g>
					<path class="st19" d="M78.3,93H52.6c-1,0-1.9-0.8-1.9-1.9V65.5c0-1,0.8-1.9,1.9-1.9h25.6c1,0,1.9,0.8,1.9,1.9v25.6
						C80.1,92.2,79.3,93,78.3,93z"/>
				</g>
				<g>
					<path d="M78.3,98H52.6c-3.8,0-6.9-3.1-6.9-6.9V65.5c0-3.8,3.1-6.9,6.9-6.9h25.6c3.8,0,6.9,3.1,6.9,6.9v25.6
						C85.1,94.9,82.1,98,78.3,98z M55.8,88h19.4V68.6H55.8V88z"/>
				</g>
			</g>
			<g>
				<g>
					<path class="st19" d="M78.3,93H52.6c-1,0-1.9-0.8-1.9-1.9V65.5c0-1,0.8-1.9,1.9-1.9h25.6c1,0,1.9,0.8,1.9,1.9v25.6
						C80.1,92.2,79.3,93,78.3,93z"/>
				</g>
				<g>
					<path class="st20" d="M78.3,94H52.6c-1.6,0-2.9-1.3-2.9-2.9V65.5c0-1.6,1.3-2.9,2.9-2.9h25.6c1.6,0,2.9,1.3,2.9,2.9v25.6
						C81.1,92.7,79.9,94,78.3,94z M52.6,64.6c-0.5,0-0.9,0.4-0.9,0.9v25.6c0,0.5,0.4,0.9,0.9,0.9h25.6c0.5,0,0.9-0.4,0.9-0.9V65.5
						c0-0.5-0.4-0.9-0.9-0.9H52.6z"/>
				</g>
			</g>
		</g>
		<g>
			<g>
				<g>
					<path class="st21" d="M56.9,70.6l4.9,0.2l1.5-0.2l1.4,0.9l0.9,1.4l0.4,1.8l-0.8,2.7L62,78.8l-3.2-0.3l0.4,5.3l-1.9-0.1
						L56.9,70.6z M59.1,76.6l2.8,0.2l1.5-1l0.6-1.3l0-1l-0.6-0.7l-1.5-0.2h-2.7L59.1,76.6z"/>
				</g>
			</g>
			<g>
				<g>
					<path class="st21" d="M70.9,81.9l1.4-0.1l0.3-1l-0.2-0.6l-0.8-0.3L70,79.7L68,79l-0.9-1.9l1.3-2l2.3-1l1.1,0.4h1l1.5,1l-1,1.5
						L72,76.4l-1.3-0.2l-1.1,0.3l-0.3,0.7v0.7l1.1,0.2l1.5-0.1l2.1,1l0.4,2l-1,2.1L70.7,84l-4-1.8l1.2-1.5L70.9,81.9z"/>
				</g>
			</g>
		</g>
	</g>
	<g>
		<g>
			<g>
				<path class="st21" d="M118,21.9l5.3,0.2l1.7-0.3l1.6,1l1,1.5l0.4,2l-0.9,3l-3.4,1.5l-3.5-0.3l0.4,5.8l-2.1-0.1L118,21.9z
					 M120.4,28.5l3.1,0.3l1.6-1.1l0.7-1.4l-0.1-1.2l-0.7-0.7l-1.6-0.2h-2.9L120.4,28.5z"/>
			</g>
		</g>
		<g>
			<g>
				<path class="st21" d="M133.4,34.3l1.5-0.1l0.3-1.1l-0.2-0.7l-0.9-0.4l-1.8-0.2l-2.1-0.7l-0.9-2.1l1.4-2.2l2.6-1.1l1.2,0.4h1.1
					l1.6,1.1l-1.2,1.6l-1.4-0.7l-1.4-0.2l-1.2,0.3l-0.4,0.7v0.7l1.2,0.2l1.7-0.1l2.4,1.1l0.5,2.1l-1.1,2.3l-3,1l-4.4-2l1.3-1.6
					L133.4,34.3z"/>
			</g>
		</g>
	</g>
</g>
<g>
	<rect x="496.1" y="201.1" class="st11" width="240" height="159"/>
	<path d="M737.1,361.1h-242v-161h242V361.1z M497.1,359.1h238v-157h-238V359.1z"/>
</g>
<g>
	<rect x="509.1" y="211.1" class="st12" width="214" height="101"/>
	<path d="M724.1,313.1h-216v-103h216V313.1z M510.1,311.1h212v-99h-212V311.1z"/>
</g>
<g>
	<path class="st12" d="M510.7,322.6h3.9c1,0,1.7,0.3,2.2,0.7c0.5,0.5,0.7,1.1,0.7,1.9c0,0.4-0.1,0.8-0.3,1.2
		c-0.1,0.2-0.3,0.3-0.5,0.5c-0.2,0.2-0.4,0.3-0.7,0.5v0c0.5,0.1,1,0.4,1.2,0.9c0.3,0.4,0.4,0.9,0.4,1.4c0,0.9-0.3,1.5-0.8,2
		c-0.5,0.5-1.2,0.8-2,0.8h-4.2V322.6z M512.2,324v2.9h2.2c0.6,0,1-0.1,1.2-0.4c0.3-0.3,0.4-0.6,0.4-1s-0.1-0.7-0.4-1
		c-0.3-0.3-0.7-0.4-1.2-0.4H512.2z M512.2,328.2v3h2.3c0.6,0,1-0.2,1.2-0.5c0.3-0.3,0.4-0.6,0.4-1c0-0.4-0.1-0.8-0.4-1.1
		c-0.3-0.3-0.7-0.4-1.2-0.4H512.2z"/>
	<path class="st12" d="M519.2,322.6h1.5v10h-1.5V322.6z"/>
	<path class="st12" d="M522.8,322.6h3.9c1,0,1.7,0.3,2.2,0.7c0.5,0.5,0.7,1.1,0.7,1.9c0,0.4-0.1,0.8-0.3,1.2
		c-0.1,0.2-0.3,0.3-0.5,0.5c-0.2,0.2-0.4,0.3-0.7,0.5v0c0.5,0.1,1,0.4,1.2,0.9c0.3,0.4,0.4,0.9,0.4,1.4c0,0.9-0.3,1.5-0.8,2
		c-0.5,0.5-1.2,0.8-2,0.8h-4.2V322.6z M524.3,324v2.9h2.2c0.6,0,1-0.1,1.2-0.4c0.3-0.3,0.4-0.6,0.4-1s-0.1-0.7-0.4-1
		c-0.3-0.3-0.7-0.4-1.2-0.4H524.3z M524.3,328.2v3h2.3c0.6,0,1-0.2,1.2-0.5c0.3-0.3,0.4-0.6,0.4-1c0-0.4-0.1-0.8-0.4-1.1
		c-0.3-0.3-0.7-0.4-1.2-0.4H524.3z"/>
	<path class="st12" d="M531.3,322.6h1.5v10h-1.5V322.6z"/>
	<path class="st12" d="M534.9,322.6h3.9c1,0,1.7,0.3,2.2,0.7c0.5,0.5,0.7,1.1,0.7,1.9c0,0.4-0.1,0.8-0.3,1.2
		c-0.1,0.2-0.3,0.3-0.5,0.5c-0.2,0.2-0.4,0.3-0.7,0.5v0c0.5,0.1,1,0.4,1.2,0.9c0.3,0.4,0.4,0.9,0.4,1.4c0,0.9-0.3,1.5-0.8,2
		c-0.5,0.5-1.2,0.8-2,0.8h-4.2V322.6z M536.5,324v2.9h2.2c0.6,0,1-0.1,1.2-0.4c0.3-0.3,0.4-0.6,0.4-1s-0.1-0.7-0.4-1
		c-0.3-0.3-0.7-0.4-1.2-0.4H536.5z M536.5,328.2v3h2.3c0.6,0,1-0.2,1.2-0.5c0.3-0.3,0.4-0.6,0.4-1c0-0.4-0.1-0.8-0.4-1.1
		c-0.3-0.3-0.7-0.4-1.2-0.4H536.5z"/>
	<path class="st12" d="M543.5,322.6h1.5v10h-1.5V322.6z"/>
	<path class="st12" d="M550.3,327.1h3.5v2c0,1-0.4,1.8-1,2.5c-0.7,0.7-1.5,1-2.5,1c-0.8,0-1.4-0.2-2-0.6c-0.5-0.4-0.9-0.8-1.2-1.2
		c-0.1-0.2-0.1-0.3-0.2-0.4c-0.1-0.1-0.1-0.3-0.1-0.5c-0.1-0.4-0.1-1.2-0.1-2.3c0-1.2,0-1.9,0.1-2.3c0.1-0.4,0.2-0.7,0.3-1
		c0.2-0.5,0.6-0.9,1.2-1.2c0.5-0.4,1.2-0.6,2-0.6c1,0,1.7,0.3,2.4,0.9c0.6,0.6,1,1.3,1.1,2.1h-1.6c-0.1-0.4-0.3-0.7-0.7-1
		c-0.3-0.3-0.7-0.4-1.2-0.4c-0.4,0-0.7,0.1-0.9,0.2c-0.3,0.1-0.5,0.3-0.6,0.5c-0.2,0.2-0.3,0.5-0.4,0.8c-0.1,0.4-0.1,1-0.1,2
		s0,1.6,0.1,2c0.1,0.3,0.2,0.6,0.4,0.8c0.2,0.2,0.4,0.4,0.6,0.5c0.3,0.2,0.6,0.2,0.9,0.2c0.6,0,1.1-0.2,1.5-0.6
		c0.4-0.4,0.6-0.9,0.6-1.5v-0.5h-2V327.1z"/>
	<path class="st12" d="M559,322.6h1.5v8.5h4.9v1.4H559V322.6z"/>
	<path class="st12" d="M566.4,327.6c0-1.2,0-1.9,0.1-2.3c0.1-0.4,0.2-0.7,0.3-1c0.2-0.5,0.6-0.9,1.2-1.2c0.5-0.4,1.2-0.6,2-0.6
		c0.8,0,1.5,0.2,2,0.6c0.5,0.4,0.9,0.8,1.1,1.2c0.2,0.2,0.3,0.6,0.3,1c0.1,0.4,0.1,1.2,0.1,2.3c0,1.1,0,1.9-0.1,2.3
		c-0.1,0.4-0.2,0.7-0.3,1c-0.2,0.5-0.6,0.9-1.1,1.2c-0.5,0.4-1.2,0.6-2,0.6c-0.8,0-1.4-0.2-2-0.6c-0.5-0.4-0.9-0.8-1.2-1.2
		c-0.1-0.2-0.1-0.3-0.2-0.4c-0.1-0.1-0.1-0.3-0.1-0.5C566.5,329.5,566.4,328.8,566.4,327.6z M568,327.6c0,1,0,1.6,0.1,2
		c0.1,0.3,0.2,0.6,0.4,0.8c0.2,0.2,0.4,0.4,0.6,0.5c0.3,0.2,0.6,0.2,0.9,0.2c0.4,0,0.7-0.1,0.9-0.2c0.3-0.1,0.5-0.3,0.6-0.5
		c0.2-0.2,0.3-0.5,0.4-0.8c0.1-0.3,0.1-1,0.1-2s0-1.6-0.1-2c-0.1-0.3-0.2-0.6-0.4-0.8c-0.2-0.2-0.4-0.4-0.6-0.5
		c-0.3-0.1-0.6-0.2-0.9-0.2c-0.4,0-0.7,0.1-0.9,0.2c-0.3,0.1-0.5,0.3-0.6,0.5c-0.2,0.2-0.3,0.5-0.4,0.8C568,326,568,326.6,568,327.6
		z"/>
	<path class="st12" d="M578.5,327.1h3.5v2c0,1-0.4,1.8-1,2.5c-0.7,0.7-1.5,1-2.5,1c-0.8,0-1.4-0.2-2-0.6c-0.5-0.4-0.9-0.8-1.2-1.2
		c-0.1-0.2-0.1-0.3-0.2-0.4c-0.1-0.1-0.1-0.3-0.1-0.5c-0.1-0.4-0.1-1.2-0.1-2.3c0-1.2,0-1.9,0.1-2.3c0.1-0.4,0.2-0.7,0.3-1
		c0.2-0.5,0.6-0.9,1.2-1.2c0.5-0.4,1.2-0.6,2-0.6c1,0,1.7,0.3,2.4,0.9c0.6,0.6,1,1.3,1.1,2.1h-1.6c-0.1-0.4-0.3-0.7-0.7-1
		c-0.3-0.3-0.7-0.4-1.2-0.4c-0.4,0-0.7,0.1-0.9,0.2c-0.3,0.1-0.5,0.3-0.6,0.5c-0.2,0.2-0.3,0.5-0.4,0.8c-0.1,0.4-0.1,1-0.1,2
		s0,1.6,0.1,2c0.1,0.3,0.2,0.6,0.4,0.8c0.2,0.2,0.4,0.4,0.6,0.5c0.3,0.2,0.6,0.2,0.9,0.2c0.6,0,1.1-0.2,1.5-0.6
		c0.4-0.4,0.6-0.9,0.6-1.5v-0.5h-2V327.1z"/>
	<path class="st12" d="M583.5,327.6c0-1.2,0-1.9,0.1-2.3c0.1-0.4,0.2-0.7,0.3-1c0.2-0.5,0.6-0.9,1.2-1.2c0.5-0.4,1.2-0.6,2-0.6
		c0.8,0,1.5,0.2,2,0.6c0.5,0.4,0.9,0.8,1.1,1.2c0.2,0.2,0.3,0.6,0.3,1c0.1,0.4,0.1,1.2,0.1,2.3c0,1.1,0,1.9-0.1,2.3
		c-0.1,0.4-0.2,0.7-0.3,1c-0.2,0.5-0.6,0.9-1.1,1.2c-0.5,0.4-1.2,0.6-2,0.6c-0.8,0-1.4-0.2-2-0.6c-0.5-0.4-0.9-0.8-1.2-1.2
		c-0.1-0.2-0.1-0.3-0.2-0.4c-0.1-0.1-0.1-0.3-0.1-0.5C583.5,329.5,583.5,328.8,583.5,327.6z M585,327.6c0,1,0,1.6,0.1,2
		c0.1,0.3,0.2,0.6,0.4,0.8c0.2,0.2,0.4,0.4,0.6,0.5c0.3,0.2,0.6,0.2,0.9,0.2c0.4,0,0.7-0.1,0.9-0.2c0.3-0.1,0.5-0.3,0.6-0.5
		c0.2-0.2,0.3-0.5,0.4-0.8c0.1-0.3,0.1-1,0.1-2s0-1.6-0.1-2c-0.1-0.3-0.2-0.6-0.4-0.8c-0.2-0.2-0.4-0.4-0.6-0.5
		c-0.3-0.1-0.6-0.2-0.9-0.2c-0.4,0-0.7,0.1-0.9,0.2c-0.3,0.1-0.5,0.3-0.6,0.5c-0.2,0.2-0.3,0.5-0.4,0.8
		C585.1,326,585,326.6,585,327.6z"/>
	<path class="st12" d="M595.7,322.6h3.5c1.3,0,2.4,0.6,3,1.7c0.2,0.4,0.4,0.8,0.5,1.2c0,0.4,0.1,1.1,0.1,2.1c0,1.1,0,1.8-0.1,2.2
		c0,0.2-0.1,0.4-0.2,0.6c-0.1,0.2-0.2,0.3-0.3,0.5c-0.3,0.5-0.7,0.9-1.2,1.2c-0.5,0.3-1.1,0.5-1.9,0.5h-3.4V322.6z M597.3,331.2h1.8
		c0.8,0,1.5-0.3,1.8-0.9c0.2-0.2,0.3-0.5,0.3-0.8c0-0.3,0.1-0.9,0.1-1.8c0-0.9,0-1.5-0.1-1.9c-0.1-0.4-0.2-0.7-0.4-0.9
		c-0.4-0.6-1-0.9-1.8-0.8h-1.8V331.2z"/>
	<path class="st12" d="M605.5,329.6c0,0.6,0.2,1,0.5,1.3c0.3,0.3,0.7,0.5,1.2,0.5c0.6,0,1.1-0.2,1.6-0.7l1,0.9
		c-0.7,0.8-1.6,1.2-2.6,1.1c-0.4,0-0.7-0.1-1.1-0.2c-0.2-0.1-0.4-0.1-0.5-0.2c-0.2-0.1-0.3-0.2-0.5-0.3c-0.3-0.3-0.5-0.6-0.7-1.1
		c-0.2-0.5-0.3-1-0.3-1.8c0-0.7,0.1-1.3,0.3-1.8c0.2-0.5,0.4-0.8,0.7-1.1c0.3-0.3,0.6-0.5,1-0.6c0.3-0.1,0.7-0.2,1-0.2
		c0.8,0,1.5,0.3,2.1,0.8c0.6,0.5,0.9,1.3,0.9,2.2v1.2H605.5z M608.5,328.4c0-0.6-0.2-1-0.4-1.3c-0.3-0.3-0.6-0.4-1.1-0.4
		s-0.8,0.1-1.1,0.4c-0.3,0.3-0.4,0.7-0.4,1.3H608.5z"/>
	<path class="st12" d="M613.9,331.3c0.4,0,0.7-0.1,1-0.2s0.4-0.4,0.4-0.7c0-0.3-0.1-0.4-0.2-0.5c-0.2-0.1-0.4-0.2-0.6-0.2l-1.3-0.1
		c-0.6-0.1-1.1-0.3-1.5-0.6c-0.4-0.3-0.6-0.8-0.6-1.4c0-0.7,0.3-1.3,0.8-1.6c0.5-0.4,1.1-0.5,1.9-0.5c0.3,0,0.6,0,0.9,0.1
		c0.3,0,0.5,0.1,0.7,0.2c0.4,0.2,0.8,0.4,1.2,0.7l-0.9,1c-0.3-0.2-0.6-0.4-0.9-0.5c-0.3-0.1-0.6-0.2-1-0.2c-0.4,0-0.8,0.1-0.9,0.2
		c-0.2,0.2-0.3,0.4-0.3,0.6c0,0.2,0.1,0.3,0.2,0.4c0.1,0.1,0.4,0.2,0.7,0.3l1.2,0.1c0.7,0.1,1.3,0.3,1.6,0.7
		c0.3,0.4,0.5,0.9,0.5,1.5c0,0.7-0.3,1.2-0.8,1.6c-0.5,0.4-1.2,0.6-2.1,0.6c-1.2,0-2.2-0.4-3.1-1.3l1-1
		C612.2,331,613,331.3,613.9,331.3z"/>
	<path class="st12" d="M618.2,322.6h1.4v1.4h-1.4V322.6z M618.2,325.5h1.4v7.1h-1.4V325.5z"/>
	<path class="st12" d="M625.5,331.9c-0.5,0.5-1.1,0.8-1.8,0.8c-0.5,0-0.8-0.1-1.1-0.3c-0.3-0.2-0.6-0.4-0.7-0.6
		c-0.2-0.2-0.3-0.5-0.4-0.9c-0.1-0.3-0.1-1-0.1-1.9c0-1,0-1.6,0.1-1.9c0.1-0.3,0.2-0.6,0.4-0.8c0.2-0.2,0.4-0.4,0.7-0.6
		c0.3-0.2,0.7-0.3,1.1-0.3c0.7,0,1.3,0.3,1.8,0.8v-0.8h1.4v6.9c0,1.1-0.3,1.9-0.9,2.4c-0.6,0.5-1.3,0.8-2.2,0.8
		c-1,0-1.8-0.4-2.5-1.2l1.1-0.9c0.2,0.2,0.4,0.3,0.6,0.4c0.2,0.1,0.5,0.2,0.8,0.2c0.5,0,0.9-0.1,1.2-0.4c0.3-0.3,0.4-0.7,0.5-1.1
		V331.9z M622.7,329.1c0,0.5,0,0.9,0.1,1.1c0,0.2,0.1,0.4,0.2,0.5c0.1,0.1,0.2,0.2,0.4,0.3c0.2,0.1,0.4,0.2,0.7,0.2s0.5-0.1,0.7-0.2
		c0.2-0.1,0.3-0.2,0.4-0.3c0.1-0.1,0.2-0.3,0.2-0.5c0-0.2,0-0.6,0-1.1c0-0.6,0-0.9,0-1.1c0-0.2-0.1-0.4-0.2-0.5
		c-0.1-0.1-0.2-0.3-0.4-0.4c-0.2-0.1-0.4-0.2-0.7-0.2c-0.3,0-0.5,0.1-0.7,0.2c-0.2,0.1-0.3,0.2-0.4,0.4c-0.1,0.1-0.2,0.3-0.2,0.5
		C622.7,328.1,622.7,328.5,622.7,329.1z"/>
	<path class="st12" d="M628.8,325.5h1.4v0.8h0c0.5-0.6,1.1-0.8,1.8-0.8c0.6,0,1.1,0.2,1.6,0.6c0.5,0.4,0.7,1,0.8,1.8v4.7H633v-4.2
		c0-0.5-0.1-0.9-0.4-1.1c-0.3-0.3-0.6-0.4-1-0.4s-0.7,0.1-1,0.4c-0.3,0.3-0.4,0.6-0.4,1.1v4.2h-1.4V325.5z"/>
	<path class="st12" d="M636.3,331.2h1.4v1.4h-1.4V331.2z"/>
	<path class="st12" d="M639.7,325.5h1.4v0.7c0.5-0.5,1.1-0.8,1.8-0.8c0.9,0,1.5,0.3,1.9,0.9c0.2,0.2,0.3,0.5,0.4,0.9
		c0.1,0.4,0.1,1,0.1,1.8c0,0.8,0,1.4-0.1,1.8c-0.1,0.4-0.2,0.7-0.4,0.9c-0.2,0.3-0.5,0.5-0.8,0.7c-0.3,0.2-0.7,0.3-1.1,0.3
		c-0.4,0-0.7-0.1-1-0.2c-0.3-0.1-0.6-0.3-0.9-0.6v3.6h-1.4V325.5z M642.5,331.3c0.3,0,0.6-0.1,0.8-0.2c0.2-0.1,0.3-0.3,0.4-0.5
		c0.1-0.2,0.2-0.5,0.2-0.7c0-0.3,0-0.5,0-0.8c0-0.3,0-0.6,0-0.8c0-0.3-0.1-0.5-0.2-0.7c-0.1-0.2-0.2-0.4-0.4-0.5
		c-0.2-0.1-0.5-0.2-0.8-0.2c-0.3,0-0.6,0.1-0.8,0.2c-0.2,0.1-0.3,0.3-0.4,0.5c-0.1,0.2-0.1,0.4-0.2,0.7c0,0.3,0,0.5,0,0.8
		c0,0.3,0,0.5,0,0.8c0,0.3,0.1,0.5,0.2,0.7c0.1,0.2,0.2,0.4,0.4,0.5C641.9,331.2,642.2,331.3,642.5,331.3z"/>
	<path class="st12" d="M649.4,331.3c0.4,0,0.7-0.1,1-0.2s0.4-0.4,0.4-0.7c0-0.3-0.1-0.4-0.2-0.5c-0.2-0.1-0.4-0.2-0.6-0.2l-1.3-0.1
		c-0.6-0.1-1.1-0.3-1.5-0.6c-0.4-0.3-0.6-0.8-0.6-1.4c0-0.7,0.3-1.3,0.8-1.6c0.5-0.4,1.1-0.5,1.9-0.5c0.3,0,0.6,0,0.9,0.1
		c0.3,0,0.5,0.1,0.7,0.2c0.4,0.2,0.8,0.4,1.2,0.7l-0.9,1c-0.3-0.2-0.6-0.4-0.9-0.5c-0.3-0.1-0.6-0.2-1-0.2c-0.4,0-0.8,0.1-0.9,0.2
		c-0.2,0.2-0.3,0.4-0.3,0.6c0,0.2,0.1,0.3,0.2,0.4c0.1,0.1,0.4,0.2,0.7,0.3l1.2,0.1c0.7,0.1,1.3,0.3,1.6,0.7
		c0.3,0.4,0.5,0.9,0.5,1.5c0,0.7-0.3,1.2-0.8,1.6c-0.5,0.4-1.2,0.6-2.1,0.6c-1.2,0-2.2-0.4-3.1-1.3l1-1
		C647.7,331,648.5,331.3,649.4,331.3z"/>
	<path class="st12" d="M657.9,331.9c-0.5,0.5-1.1,0.8-1.8,0.8c-0.4,0-0.8-0.1-1.1-0.3c-0.3-0.2-0.6-0.4-0.8-0.7
		c-0.2-0.2-0.3-0.5-0.4-0.9c-0.1-0.4-0.1-1-0.1-1.8c0-0.9,0-1.5,0.1-1.8c0.1-0.4,0.2-0.7,0.4-0.9c0.4-0.6,1-0.9,1.9-0.9
		c0.4,0,0.7,0.1,1,0.2c0.3,0.2,0.6,0.4,0.8,0.6v-3.6h1.4v10h-1.4V331.9z M656.5,326.8c-0.3,0-0.6,0.1-0.8,0.2
		c-0.2,0.1-0.3,0.3-0.4,0.5c-0.1,0.2-0.1,0.4-0.2,0.7c0,0.3,0,0.5,0,0.8c0,0.3,0,0.5,0,0.8c0,0.3,0.1,0.5,0.2,0.7
		c0.1,0.2,0.2,0.4,0.4,0.5c0.2,0.1,0.4,0.2,0.8,0.2s0.6-0.1,0.8-0.2c0.2-0.1,0.3-0.3,0.4-0.5c0.1-0.2,0.2-0.5,0.2-0.7
		c0-0.3,0-0.5,0-0.8c0-0.3,0-0.5,0-0.8c0-0.3-0.1-0.5-0.2-0.7c-0.1-0.2-0.2-0.4-0.4-0.5S656.8,326.8,656.5,326.8z"/>
</g>
<g>
	<path class="st13" d="M512.4,344.3L512.4,344.3c-0.1,0.2-0.3,0.3-0.5,0.4c-0.2,0.1-0.5,0.1-0.8,0.1c-0.6,0-1-0.2-1.3-0.4
		c-0.3-0.3-0.5-0.7-0.5-1.1c0-0.4,0.1-0.8,0.4-1.1c0.3-0.3,0.7-0.4,1.2-0.4h1.4v-0.5c0-0.4-0.3-0.7-1-0.6c-0.3,0-0.5,0-0.6,0.1
		c-0.2,0.1-0.3,0.2-0.4,0.3l-0.8-0.6c0.4-0.5,1-0.8,1.7-0.7c0.6,0,1.1,0.1,1.5,0.4c0.4,0.3,0.6,0.7,0.6,1.3v3.5h-1V344.3z
		 M512.4,342.6h-1.2c-0.6,0-0.9,0.2-0.9,0.6c0,0.2,0.1,0.3,0.2,0.4c0.1,0.1,0.4,0.2,0.7,0.2c0.4,0,0.7,0,0.9-0.2
		c0.2-0.1,0.2-0.4,0.2-0.7V342.6z"/>
	<path class="st13" d="M517.3,340.5h-0.5v-0.8h0.5V339c0-0.5,0.1-0.8,0.4-1.1c0.3-0.2,0.6-0.3,1-0.3h0.7v1h-0.6
		c-0.3,0-0.5,0.1-0.4,0.4v0.7h1v0.8h-1v4.3h-1V340.5z"/>
	<path class="st13" d="M520.7,342.6c0,0.4,0.1,0.7,0.4,0.9c0.2,0.2,0.5,0.3,0.9,0.3c0.4,0,0.8-0.2,1.1-0.5l0.7,0.6
		c-0.5,0.6-1.1,0.8-1.8,0.8c-0.3,0-0.5,0-0.8-0.1c-0.1,0-0.3-0.1-0.4-0.2c-0.1-0.1-0.2-0.1-0.4-0.2c-0.2-0.2-0.4-0.5-0.5-0.8
		c-0.1-0.3-0.2-0.7-0.2-1.3c0-0.5,0.1-0.9,0.2-1.2c0.1-0.3,0.3-0.6,0.5-0.8c0.2-0.2,0.4-0.3,0.7-0.4c0.2-0.1,0.5-0.1,0.7-0.1
		c0.6,0,1.1,0.2,1.5,0.6c0.4,0.4,0.6,0.9,0.6,1.6v0.8H520.7z M522.8,341.8c0-0.4-0.1-0.7-0.3-0.9c-0.2-0.2-0.4-0.3-0.8-0.3
		s-0.6,0.1-0.8,0.3c-0.2,0.2-0.3,0.5-0.3,0.9H522.8z"/>
	<path class="st13" d="M527.9,341.2L527.9,341.2l-1.1,3.5h-0.9l-1.6-5.1h1.1l1,3.5h0l1.2-3.5h0.7l1.2,3.5h0l1-3.5h1.1l-1.6,5.1H529
		L527.9,341.2z"/>
	<path class="st13" d="M536.3,343.9c0.3,0,0.5-0.1,0.7-0.2s0.3-0.3,0.3-0.5c0-0.2-0.1-0.3-0.2-0.4c-0.1-0.1-0.3-0.1-0.5-0.1
		l-0.9-0.1c-0.4,0-0.8-0.2-1-0.4c-0.3-0.2-0.4-0.6-0.4-1c0-0.5,0.2-0.9,0.6-1.2c0.4-0.3,0.8-0.4,1.3-0.4c0.2,0,0.4,0,0.6,0
		c0.2,0,0.4,0.1,0.5,0.1c0.3,0.1,0.6,0.3,0.8,0.5l-0.6,0.7c-0.2-0.1-0.4-0.3-0.6-0.3c-0.2-0.1-0.5-0.1-0.7-0.1
		c-0.3,0-0.5,0.1-0.7,0.2c-0.1,0.1-0.2,0.3-0.2,0.4c0,0.1,0,0.2,0.2,0.3c0.1,0.1,0.3,0.2,0.5,0.2l0.8,0.1c0.5,0,0.9,0.2,1.1,0.5
		c0.2,0.3,0.3,0.6,0.3,1c0,0.5-0.2,0.9-0.6,1.1c-0.4,0.3-0.9,0.4-1.5,0.4c-0.8,0-1.6-0.3-2.2-0.9l0.7-0.7
		C535.1,343.7,535.7,343.9,536.3,343.9z"/>
	<path class="st13" d="M540.1,342.6c0,0.4,0.1,0.7,0.4,0.9c0.2,0.2,0.5,0.3,0.9,0.3c0.4,0,0.8-0.2,1.1-0.5l0.7,0.6
		c-0.5,0.6-1.1,0.8-1.8,0.8c-0.3,0-0.5,0-0.8-0.1c-0.1,0-0.3-0.1-0.4-0.2c-0.1-0.1-0.2-0.1-0.4-0.2c-0.2-0.2-0.4-0.5-0.5-0.8
		c-0.1-0.3-0.2-0.7-0.2-1.3c0-0.5,0.1-0.9,0.2-1.2c0.1-0.3,0.3-0.6,0.5-0.8c0.2-0.2,0.4-0.3,0.7-0.4c0.2-0.1,0.5-0.1,0.7-0.1
		c0.6,0,1.1,0.2,1.5,0.6c0.4,0.4,0.6,0.9,0.6,1.6v0.8H540.1z M542.3,341.8c0-0.4-0.1-0.7-0.3-0.9c-0.2-0.2-0.4-0.3-0.8-0.3
		s-0.6,0.1-0.8,0.3c-0.2,0.2-0.3,0.5-0.3,0.9H542.3z"/>
	<path class="st13" d="M548.1,343.9c-0.2,0.3-0.5,0.5-0.8,0.6c-0.3,0.2-0.6,0.3-1,0.3c-0.6,0-1.1-0.2-1.6-0.6
		c-0.5-0.4-0.7-1.1-0.7-2c0-0.9,0.3-1.6,0.7-2c0.5-0.4,1-0.6,1.6-0.6c0.4,0,0.7,0.1,1,0.2c0.3,0.2,0.6,0.4,0.8,0.6l-0.8,0.7
		c-0.3-0.3-0.6-0.5-1-0.5c-0.9,0-1.3,0.5-1.3,1.6c0,1.1,0.5,1.6,1.3,1.6c0.4,0,0.8-0.2,1-0.5L548.1,343.9z"/>
	<path class="st13" d="M548.5,342.2c0-0.5,0-0.9,0.1-1.2c0.1-0.3,0.2-0.5,0.4-0.7c0.1-0.2,0.3-0.3,0.6-0.5c0.2-0.1,0.6-0.2,1-0.2
		c0.4,0,0.7,0.1,1,0.2c0.2,0.1,0.4,0.3,0.6,0.5c0.2,0.2,0.3,0.4,0.4,0.7c0.1,0.3,0.1,0.7,0.1,1.2s0,0.9-0.1,1.2
		c-0.1,0.3-0.2,0.5-0.4,0.7c-0.1,0.1-0.1,0.1-0.2,0.2c-0.1,0.1-0.2,0.2-0.3,0.2c-0.2,0.1-0.6,0.2-1,0.2c-0.4,0-0.7-0.1-1-0.2
		c-0.3-0.1-0.4-0.3-0.6-0.4c-0.2-0.2-0.3-0.4-0.4-0.7C548.6,343.2,548.5,342.8,548.5,342.2z M551.7,342.2c0-0.4,0-0.6,0-0.8
		c0-0.2-0.1-0.3-0.2-0.4c-0.1-0.1-0.2-0.2-0.3-0.3c-0.1-0.1-0.3-0.1-0.5-0.1c-0.2,0-0.3,0-0.5,0.1c-0.1,0.1-0.3,0.2-0.3,0.3
		c-0.1,0.1-0.2,0.3-0.2,0.4c0,0.2-0.1,0.4-0.1,0.8c0,0.4,0,0.6,0.1,0.8c0,0.2,0.1,0.3,0.2,0.4c0.1,0.1,0.2,0.2,0.3,0.3
		c0.1,0.1,0.3,0.1,0.5,0.1c0.2,0,0.3,0,0.5-0.1c0.1-0.1,0.3-0.2,0.3-0.3c0.1-0.1,0.2-0.3,0.2-0.4
		C551.7,342.8,551.7,342.6,551.7,342.2z"/>
	<path class="st13" d="M553.8,339.7h1v0.5h0c0.3-0.4,0.8-0.6,1.3-0.6c0.4,0,0.8,0.1,1.2,0.4c0.3,0.3,0.5,0.7,0.5,1.3v3.4h-1v-3
		c0-0.4-0.1-0.6-0.3-0.8c-0.2-0.2-0.4-0.3-0.7-0.3s-0.5,0.1-0.7,0.3c-0.2,0.2-0.3,0.5-0.3,0.8v3h-1V339.7z"/>
	<path class="st13" d="M562.2,344.2c-0.3,0.4-0.8,0.6-1.3,0.6c-0.3,0-0.6-0.1-0.8-0.2c-0.2-0.1-0.4-0.3-0.6-0.5
		c-0.1-0.2-0.2-0.4-0.3-0.6c-0.1-0.3-0.1-0.7-0.1-1.3c0-0.6,0-1,0.1-1.3c0-0.3,0.1-0.5,0.3-0.6c0.3-0.4,0.7-0.6,1.4-0.7
		c0.3,0,0.5,0.1,0.7,0.2c0.2,0.1,0.4,0.3,0.6,0.4v-2.6h1v7.1h-1V344.2z M561.2,340.7c-0.2,0-0.4,0-0.6,0.1c-0.1,0.1-0.2,0.2-0.3,0.4
		c-0.1,0.2-0.1,0.3-0.1,0.5c0,0.2,0,0.4,0,0.6c0,0.2,0,0.4,0,0.6c0,0.2,0.1,0.4,0.1,0.5c0.1,0.1,0.2,0.3,0.3,0.4
		c0.1,0.1,0.3,0.1,0.6,0.1s0.4,0,0.6-0.1c0.1-0.1,0.2-0.2,0.3-0.4c0.1-0.2,0.1-0.3,0.1-0.5c0-0.2,0-0.4,0-0.5c0-0.2,0-0.4,0-0.6
		c0-0.2-0.1-0.3-0.1-0.5c-0.1-0.2-0.1-0.3-0.3-0.4S561.4,340.7,561.2,340.7z"/>
	<path class="st13" d="M566.1,343.9c0.3,0,0.5-0.1,0.7-0.2s0.3-0.3,0.3-0.5c0-0.2-0.1-0.3-0.2-0.4c-0.1-0.1-0.3-0.1-0.5-0.1
		l-0.9-0.1c-0.4,0-0.8-0.2-1-0.4c-0.3-0.2-0.4-0.6-0.4-1c0-0.5,0.2-0.9,0.6-1.2c0.4-0.3,0.8-0.4,1.3-0.4c0.2,0,0.4,0,0.6,0
		c0.2,0,0.4,0.1,0.5,0.1c0.3,0.1,0.6,0.3,0.8,0.5l-0.6,0.7c-0.2-0.1-0.4-0.3-0.6-0.3c-0.2-0.1-0.5-0.1-0.7-0.1
		c-0.3,0-0.5,0.1-0.7,0.2c-0.1,0.1-0.2,0.3-0.2,0.4c0,0.1,0,0.2,0.2,0.3c0.1,0.1,0.3,0.2,0.5,0.2l0.8,0.1c0.5,0,0.9,0.2,1.1,0.5
		c0.2,0.3,0.3,0.6,0.3,1c0,0.5-0.2,0.9-0.6,1.1c-0.4,0.3-0.9,0.4-1.5,0.4c-0.8,0-1.6-0.3-2.2-0.9l0.7-0.7
		C564.9,343.7,565.5,343.9,566.1,343.9z"/>
	<path class="st13" d="M574.2,344.3L574.2,344.3c-0.1,0.2-0.3,0.3-0.5,0.4c-0.2,0.1-0.5,0.1-0.8,0.1c-0.6,0-1-0.2-1.3-0.4
		c-0.3-0.3-0.5-0.7-0.5-1.1c0-0.4,0.1-0.8,0.4-1.1c0.3-0.3,0.7-0.4,1.2-0.4h1.4v-0.5c0-0.4-0.3-0.7-1-0.6c-0.3,0-0.5,0-0.6,0.1
		c-0.2,0.1-0.3,0.2-0.4,0.3l-0.8-0.6c0.4-0.5,1-0.8,1.7-0.7c0.6,0,1.1,0.1,1.5,0.4c0.4,0.3,0.6,0.7,0.6,1.3v3.5h-1V344.3z
		 M574.2,342.6H573c-0.6,0-0.9,0.2-0.9,0.6c0,0.2,0.1,0.3,0.2,0.4c0.1,0.1,0.4,0.2,0.7,0.2c0.4,0,0.7,0,0.9-0.2
		c0.2-0.1,0.2-0.4,0.2-0.7V342.6z"/>
	<path class="st13" d="M579.4,344.2c-0.3,0.4-0.8,0.6-1.3,0.6c-0.3,0-0.6-0.1-0.8-0.2c-0.2-0.1-0.4-0.3-0.5-0.4
		c-0.1-0.2-0.2-0.4-0.3-0.6c-0.1-0.2-0.1-0.7-0.1-1.4c0-0.7,0-1.1,0.1-1.4c0.1-0.2,0.2-0.4,0.3-0.6c0.1-0.2,0.3-0.3,0.5-0.4
		c0.2-0.1,0.5-0.2,0.8-0.2c0.5,0,0.9,0.2,1.3,0.6v-0.5h1v4.9c0,0.8-0.2,1.3-0.7,1.7c-0.4,0.4-0.9,0.6-1.5,0.6
		c-0.7,0-1.3-0.3-1.8-0.8l0.8-0.6c0.1,0.1,0.3,0.2,0.4,0.3c0.2,0.1,0.4,0.1,0.5,0.2c0.3,0,0.6-0.1,0.8-0.3c0.2-0.2,0.3-0.5,0.3-0.8
		V344.2z M577.4,342.2c0,0.4,0,0.7,0,0.8c0,0.2,0.1,0.3,0.2,0.4c0.1,0.1,0.2,0.2,0.3,0.2c0.1,0.1,0.3,0.1,0.5,0.1s0.4,0,0.5-0.1
		c0.1-0.1,0.2-0.2,0.3-0.2c0.1-0.1,0.1-0.2,0.2-0.4c0-0.1,0-0.4,0-0.8c0-0.4,0-0.7,0-0.8c0-0.2-0.1-0.3-0.2-0.4
		c-0.1-0.1-0.2-0.2-0.3-0.3c-0.1-0.1-0.3-0.1-0.5-0.1c-0.2,0-0.4,0-0.5,0.1c-0.1,0.1-0.2,0.2-0.3,0.3c-0.1,0.1-0.1,0.2-0.2,0.4
		C577.4,341.6,577.4,341.8,577.4,342.2z"/>
	<path class="st13" d="M581.5,342.2c0-0.5,0-0.9,0.1-1.2c0.1-0.3,0.2-0.5,0.4-0.7c0.1-0.2,0.3-0.3,0.6-0.5c0.2-0.1,0.6-0.2,1-0.2
		c0.4,0,0.7,0.1,1,0.2c0.2,0.1,0.4,0.3,0.6,0.5c0.2,0.2,0.3,0.4,0.4,0.7c0.1,0.3,0.1,0.7,0.1,1.2s0,0.9-0.1,1.2
		c-0.1,0.3-0.2,0.5-0.4,0.7c-0.1,0.1-0.1,0.1-0.2,0.2c-0.1,0.1-0.2,0.2-0.3,0.2c-0.2,0.1-0.6,0.2-1,0.2c-0.4,0-0.7-0.1-1-0.2
		c-0.3-0.1-0.4-0.3-0.6-0.4c-0.2-0.2-0.3-0.4-0.4-0.7C581.5,343.2,581.5,342.8,581.5,342.2z M584.7,342.2c0-0.4,0-0.6,0-0.8
		c0-0.2-0.1-0.3-0.2-0.4c-0.1-0.1-0.2-0.2-0.3-0.3c-0.1-0.1-0.3-0.1-0.5-0.1c-0.2,0-0.3,0-0.5,0.1c-0.1,0.1-0.3,0.2-0.3,0.3
		c-0.1,0.1-0.2,0.3-0.2,0.4c0,0.2-0.1,0.4-0.1,0.8c0,0.4,0,0.6,0.1,0.8c0,0.2,0.1,0.3,0.2,0.4c0.1,0.1,0.2,0.2,0.3,0.3
		c0.1,0.1,0.3,0.1,0.5,0.1c0.2,0,0.3,0,0.5-0.1c0.1-0.1,0.3-0.2,0.3-0.3c0.1-0.1,0.2-0.3,0.2-0.4
		C584.6,342.8,584.7,342.6,584.7,342.2z"/>
</g>
<g>
	<rect x="766.1" y="201.1" class="st11" width="240" height="159"/>
	<path d="M1007.1,361.1h-242v-161h242V361.1z M767.1,359.1h238v-157h-238V359.1z"/>
</g>
<g>
	<rect x="779.1" y="211.1" class="st12" width="214" height="101"/>
	<path d="M994.1,313.1h-216v-103h216V313.1z M780.1,311.1h212v-99h-212V311.1z"/>
</g>
<g>
	<path class="st12" d="M780.7,322.6h3.9c1,0,1.7,0.3,2.2,0.7c0.5,0.5,0.7,1.1,0.7,1.9c0,0.4-0.1,0.8-0.3,1.2
		c-0.1,0.2-0.3,0.3-0.5,0.5c-0.2,0.2-0.4,0.3-0.7,0.5v0c0.5,0.1,1,0.4,1.2,0.9c0.3,0.4,0.4,0.9,0.4,1.4c0,0.9-0.3,1.5-0.8,2
		c-0.5,0.5-1.2,0.8-2,0.8h-4.2V322.6z M782.2,324v2.9h2.2c0.6,0,1-0.1,1.2-0.4c0.3-0.3,0.4-0.6,0.4-1s-0.1-0.7-0.4-1
		c-0.3-0.3-0.7-0.4-1.2-0.4H782.2z M782.2,328.2v3h2.3c0.6,0,1-0.2,1.2-0.5c0.3-0.3,0.4-0.6,0.4-1c0-0.4-0.1-0.8-0.4-1.1
		c-0.3-0.3-0.7-0.4-1.2-0.4H782.2z"/>
	<path class="st12" d="M789.1,325.5h1.4v0.8h0c0.5-0.6,1.1-0.8,1.8-0.8c0.6,0,1.1,0.2,1.5,0.5l-1,1.2c-0.3-0.2-0.6-0.4-0.9-0.4
		c-0.4,0-0.7,0.1-0.9,0.4c-0.3,0.2-0.4,0.6-0.5,1.1v4.3h-1.4V325.5z"/>
	<path class="st12" d="M794.3,325.5h1.4v4.2c0,0.5,0.1,0.9,0.4,1.1c0.3,0.3,0.6,0.4,1,0.4s0.7-0.1,1-0.4c0.3-0.3,0.4-0.6,0.4-1.1
		v-4.2h1.4v7.1h-1.4v-0.8h0c-0.5,0.6-1.1,0.8-1.8,0.8c-0.6,0-1.1-0.2-1.6-0.6c-0.5-0.4-0.8-1-0.8-1.8V325.5z"/>
	<path class="st12" d="M804.3,331.3c0.4,0,0.7-0.1,1-0.2s0.4-0.4,0.4-0.7c0-0.3-0.1-0.4-0.2-0.5c-0.2-0.1-0.4-0.2-0.6-0.2l-1.3-0.1
		c-0.6-0.1-1.1-0.3-1.5-0.6c-0.4-0.3-0.6-0.8-0.6-1.4c0-0.7,0.3-1.3,0.8-1.6c0.5-0.4,1.1-0.5,1.9-0.5c0.3,0,0.6,0,0.9,0.1
		c0.3,0,0.5,0.1,0.7,0.2c0.4,0.2,0.8,0.4,1.2,0.7l-0.9,1c-0.3-0.2-0.6-0.4-0.9-0.5c-0.3-0.1-0.6-0.2-1-0.2c-0.4,0-0.8,0.1-0.9,0.2
		c-0.2,0.2-0.3,0.4-0.3,0.6c0,0.2,0.1,0.3,0.2,0.4c0.1,0.1,0.4,0.2,0.7,0.3l1.2,0.1c0.7,0.1,1.3,0.3,1.6,0.7
		c0.3,0.4,0.5,0.9,0.5,1.5c0,0.7-0.3,1.2-0.8,1.6c-0.5,0.4-1.2,0.6-2.1,0.6c-1.2,0-2.2-0.4-3.1-1.3l1-1
		C802.6,331,803.4,331.3,804.3,331.3z"/>
	<path class="st12" d="M808.6,322.6h1.4v3.6h0c0.5-0.6,1.1-0.8,1.8-0.8c0.6,0,1.1,0.2,1.6,0.6c0.5,0.4,0.7,1,0.8,1.8v4.7h-1.4v-4.2
		c0-0.5-0.1-0.9-0.4-1.1c-0.3-0.3-0.6-0.4-1-0.4s-0.7,0.1-1,0.4c-0.3,0.3-0.4,0.6-0.4,1.1v4.2h-1.4V322.6z"/>
	<path class="st12" d="M819.6,322.6h6.4v1.4h-4.9v2.8h4.1v1.3h-4.1v2.9h4.9v1.4h-6.4V322.6z"/>
	<path class="st12" d="M827.5,326.6h-0.7v-1.1h0.7v-0.9c0-0.7,0.2-1.2,0.6-1.5c0.4-0.3,0.8-0.4,1.4-0.4h0.9v1.3h-0.8
		c-0.4,0-0.6,0.2-0.6,0.6v0.9h1.4v1.1h-1.4v6h-1.4V326.6z"/>
	<path class="st12" d="M831.1,326.6h-0.7v-1.1h0.7v-0.9c0-0.7,0.2-1.2,0.6-1.5c0.4-0.3,0.8-0.4,1.4-0.4h0.9v1.3h-0.8
		c-0.4,0-0.6,0.2-0.6,0.6v0.9h1.4v1.1h-1.4v6h-1.4V326.6z"/>
	<path class="st12" d="M835.8,329.6c0,0.6,0.2,1,0.5,1.3c0.3,0.3,0.7,0.5,1.2,0.5c0.6,0,1.1-0.2,1.6-0.7l1,0.9
		c-0.7,0.8-1.6,1.2-2.6,1.1c-0.4,0-0.7-0.1-1.1-0.2c-0.2-0.1-0.4-0.1-0.5-0.2c-0.2-0.1-0.3-0.2-0.5-0.3c-0.3-0.3-0.5-0.6-0.7-1.1
		c-0.2-0.5-0.3-1-0.3-1.8c0-0.7,0.1-1.3,0.3-1.8c0.2-0.5,0.4-0.8,0.7-1.1c0.3-0.3,0.6-0.5,1-0.6c0.3-0.1,0.7-0.2,1-0.2
		c0.8,0,1.5,0.3,2.1,0.8c0.6,0.5,0.9,1.3,0.9,2.2v1.2H835.8z M838.8,328.4c0-0.6-0.2-1-0.4-1.3c-0.3-0.3-0.6-0.4-1.1-0.4
		s-0.8,0.1-1.1,0.4c-0.3,0.3-0.4,0.7-0.4,1.3H838.8z"/>
	<path class="st12" d="M847,331.5c-0.3,0.4-0.7,0.6-1.1,0.9c-0.4,0.2-0.9,0.4-1.5,0.4c-0.8,0-1.6-0.3-2.2-0.9c-0.7-0.6-1-1.5-1-2.8
		c0-1.3,0.4-2.2,1-2.8c0.6-0.6,1.4-0.9,2.2-0.8c0.6,0,1,0.1,1.5,0.3c0.4,0.2,0.8,0.5,1.1,0.9l-1.1,0.9c-0.4-0.5-0.8-0.7-1.4-0.7
		c-1.2,0-1.8,0.7-1.8,2.2c0,1.5,0.6,2.2,1.8,2.2c0.6,0,1.1-0.3,1.4-0.7L847,331.5z"/>
	<path class="st12" d="M848.1,323.3h1.4v2.2h1v1.1h-1v4.1c0,0.4,0.2,0.5,0.5,0.5h0.5v1.3h-0.7c-0.5,0-0.9-0.2-1.2-0.5
		c-0.3-0.3-0.5-0.7-0.5-1.3v-4.3h-0.7v-1.1h0.7V323.3z"/>
	<path class="st12" d="M851.9,331.2h1.4v1.4h-1.4V331.2z"/>
	<path class="st12" d="M855.2,325.5h1.4v0.7c0.5-0.5,1.1-0.8,1.8-0.8c0.9,0,1.5,0.3,1.9,0.9c0.2,0.2,0.3,0.5,0.4,0.9
		c0.1,0.4,0.1,1,0.1,1.8c0,0.8,0,1.4-0.1,1.8c-0.1,0.4-0.2,0.7-0.4,0.9c-0.2,0.3-0.5,0.5-0.8,0.7c-0.3,0.2-0.7,0.3-1.1,0.3
		c-0.4,0-0.7-0.1-1-0.2c-0.3-0.1-0.6-0.3-0.9-0.6v3.6h-1.4V325.5z M858.1,331.3c0.3,0,0.6-0.1,0.8-0.2c0.2-0.1,0.3-0.3,0.4-0.5
		c0.1-0.2,0.2-0.5,0.2-0.7c0-0.3,0-0.5,0-0.8c0-0.3,0-0.6,0-0.8c0-0.3-0.1-0.5-0.2-0.7c-0.1-0.2-0.2-0.4-0.4-0.5
		c-0.2-0.1-0.5-0.2-0.8-0.2c-0.3,0-0.6,0.1-0.8,0.2c-0.2,0.1-0.3,0.3-0.4,0.5c-0.1,0.2-0.1,0.4-0.2,0.7c0,0.3,0,0.5,0,0.8
		c0,0.3,0,0.5,0,0.8c0,0.3,0.1,0.5,0.2,0.7c0.1,0.2,0.2,0.4,0.4,0.5C857.5,331.2,857.7,331.3,858.1,331.3z"/>
	<path class="st12" d="M864.9,331.3c0.4,0,0.7-0.1,1-0.2s0.4-0.4,0.4-0.7c0-0.3-0.1-0.4-0.2-0.5c-0.2-0.1-0.4-0.2-0.6-0.2l-1.3-0.1
		c-0.6-0.1-1.1-0.3-1.5-0.6c-0.4-0.3-0.6-0.8-0.6-1.4c0-0.7,0.3-1.3,0.8-1.6c0.5-0.4,1.1-0.5,1.9-0.5c0.3,0,0.6,0,0.9,0.1
		c0.3,0,0.5,0.1,0.7,0.2c0.4,0.2,0.8,0.4,1.2,0.7l-0.9,1c-0.3-0.2-0.6-0.4-0.9-0.5c-0.3-0.1-0.6-0.2-1-0.2c-0.4,0-0.8,0.1-0.9,0.2
		c-0.2,0.2-0.3,0.4-0.3,0.6c0,0.2,0.1,0.3,0.2,0.4c0.1,0.1,0.4,0.2,0.7,0.3l1.2,0.1c0.7,0.1,1.3,0.3,1.6,0.7
		c0.3,0.4,0.5,0.9,0.5,1.5c0,0.7-0.3,1.2-0.8,1.6c-0.5,0.4-1.2,0.6-2.1,0.6c-1.2,0-2.2-0.4-3.1-1.3l1-1
		C863.3,331,864,331.3,864.9,331.3z"/>
	<path class="st12" d="M873.5,331.9c-0.5,0.5-1.1,0.8-1.8,0.8c-0.4,0-0.8-0.1-1.1-0.3c-0.3-0.2-0.6-0.4-0.8-0.7
		c-0.2-0.2-0.3-0.5-0.4-0.9c-0.1-0.4-0.1-1-0.1-1.8c0-0.9,0-1.5,0.1-1.8c0.1-0.4,0.2-0.7,0.4-0.9c0.4-0.6,1-0.9,1.9-0.9
		c0.4,0,0.7,0.1,1,0.2c0.3,0.2,0.6,0.4,0.8,0.6v-3.6h1.4v10h-1.4V331.9z M872.1,326.8c-0.3,0-0.6,0.1-0.8,0.2
		c-0.2,0.1-0.3,0.3-0.4,0.5c-0.1,0.2-0.1,0.4-0.2,0.7c0,0.3,0,0.5,0,0.8c0,0.3,0,0.5,0,0.8c0,0.3,0.1,0.5,0.2,0.7
		c0.1,0.2,0.2,0.4,0.4,0.5c0.2,0.1,0.4,0.2,0.8,0.2s0.6-0.1,0.8-0.2c0.2-0.1,0.3-0.3,0.4-0.5c0.1-0.2,0.2-0.5,0.2-0.7
		c0-0.3,0-0.5,0-0.8c0-0.3,0-0.5,0-0.8c0-0.3-0.1-0.5-0.2-0.7c-0.1-0.2-0.2-0.4-0.4-0.5S872.4,326.8,872.1,326.8z"/>
</g>
<g>
	<path class="st13" d="M782.4,344.3L782.4,344.3c-0.1,0.2-0.3,0.3-0.5,0.4c-0.2,0.1-0.5,0.1-0.8,0.1c-0.6,0-1-0.2-1.3-0.4
		c-0.3-0.3-0.5-0.7-0.5-1.1c0-0.4,0.1-0.8,0.4-1.1c0.3-0.3,0.7-0.4,1.2-0.4h1.4v-0.5c0-0.4-0.3-0.7-1-0.6c-0.3,0-0.5,0-0.6,0.1
		c-0.2,0.1-0.3,0.2-0.4,0.3l-0.8-0.6c0.4-0.5,1-0.8,1.7-0.7c0.6,0,1.1,0.1,1.5,0.4c0.4,0.3,0.6,0.7,0.6,1.3v3.5h-1V344.3z
		 M782.4,342.6h-1.2c-0.6,0-0.9,0.2-0.9,0.6c0,0.2,0.1,0.3,0.2,0.4c0.1,0.1,0.4,0.2,0.7,0.2c0.4,0,0.7,0,0.9-0.2
		c0.2-0.1,0.2-0.4,0.2-0.7V342.6z"/>
	<path class="st13" d="M787.3,340.5h-0.5v-0.8h0.5V339c0-0.5,0.1-0.8,0.4-1.1c0.3-0.2,0.6-0.3,1-0.3h0.7v1h-0.6
		c-0.3,0-0.5,0.1-0.4,0.4v0.7h1v0.8h-1v4.3h-1V340.5z"/>
	<path class="st13" d="M790.7,342.6c0,0.4,0.1,0.7,0.4,0.9c0.2,0.2,0.5,0.3,0.9,0.3c0.4,0,0.8-0.2,1.1-0.5l0.7,0.6
		c-0.5,0.6-1.1,0.8-1.8,0.8c-0.3,0-0.5,0-0.8-0.1c-0.1,0-0.3-0.1-0.4-0.2c-0.1-0.1-0.2-0.1-0.4-0.2c-0.2-0.2-0.4-0.5-0.5-0.8
		c-0.1-0.3-0.2-0.7-0.2-1.3c0-0.5,0.1-0.9,0.2-1.2c0.1-0.3,0.3-0.6,0.5-0.8c0.2-0.2,0.4-0.3,0.7-0.4c0.2-0.1,0.5-0.1,0.7-0.1
		c0.6,0,1.1,0.2,1.5,0.6c0.4,0.4,0.6,0.9,0.6,1.6v0.8H790.7z M792.8,341.8c0-0.4-0.1-0.7-0.3-0.9c-0.2-0.2-0.4-0.3-0.8-0.3
		s-0.6,0.1-0.8,0.3c-0.2,0.2-0.3,0.5-0.3,0.9H792.8z"/>
	<path class="st13" d="M797.9,341.2L797.9,341.2l-1.1,3.5h-0.9l-1.6-5.1h1.1l1,3.5h0l1.2-3.5h0.7l1.2,3.5h0l1-3.5h1.1l-1.6,5.1H799
		L797.9,341.2z"/>
	<path class="st13" d="M806.3,343.9c0.3,0,0.5-0.1,0.7-0.2s0.3-0.3,0.3-0.5c0-0.2-0.1-0.3-0.2-0.4c-0.1-0.1-0.3-0.1-0.5-0.1
		l-0.9-0.1c-0.4,0-0.8-0.2-1-0.4c-0.3-0.2-0.4-0.6-0.4-1c0-0.5,0.2-0.9,0.6-1.2c0.4-0.3,0.8-0.4,1.3-0.4c0.2,0,0.4,0,0.6,0
		c0.2,0,0.4,0.1,0.5,0.1c0.3,0.1,0.6,0.3,0.8,0.5l-0.6,0.7c-0.2-0.1-0.4-0.3-0.6-0.3c-0.2-0.1-0.5-0.1-0.7-0.1
		c-0.3,0-0.5,0.1-0.7,0.2c-0.1,0.1-0.2,0.3-0.2,0.4c0,0.1,0,0.2,0.2,0.3c0.1,0.1,0.3,0.2,0.5,0.2l0.8,0.1c0.5,0,0.9,0.2,1.1,0.5
		c0.2,0.3,0.3,0.6,0.3,1c0,0.5-0.2,0.9-0.6,1.1c-0.4,0.3-0.9,0.4-1.5,0.4c-0.8,0-1.6-0.3-2.2-0.9l0.7-0.7
		C805.1,343.7,805.7,343.9,806.3,343.9z"/>
	<path class="st13" d="M810.1,342.6c0,0.4,0.1,0.7,0.4,0.9c0.2,0.2,0.5,0.3,0.9,0.3c0.4,0,0.8-0.2,1.1-0.5l0.7,0.6
		c-0.5,0.6-1.1,0.8-1.8,0.8c-0.3,0-0.5,0-0.8-0.1c-0.1,0-0.3-0.1-0.4-0.2c-0.1-0.1-0.2-0.1-0.4-0.2c-0.2-0.2-0.4-0.5-0.5-0.8
		c-0.1-0.3-0.2-0.7-0.2-1.3c0-0.5,0.1-0.9,0.2-1.2c0.1-0.3,0.3-0.6,0.5-0.8c0.2-0.2,0.4-0.3,0.7-0.4c0.2-0.1,0.5-0.1,0.7-0.1
		c0.6,0,1.1,0.2,1.5,0.6c0.4,0.4,0.6,0.9,0.6,1.6v0.8H810.1z M812.3,341.8c0-0.4-0.1-0.7-0.3-0.9c-0.2-0.2-0.4-0.3-0.8-0.3
		s-0.6,0.1-0.8,0.3c-0.2,0.2-0.3,0.5-0.3,0.9H812.3z"/>
	<path class="st13" d="M818.1,343.9c-0.2,0.3-0.5,0.5-0.8,0.6c-0.3,0.2-0.6,0.3-1,0.3c-0.6,0-1.1-0.2-1.6-0.6
		c-0.5-0.4-0.7-1.1-0.7-2c0-0.9,0.3-1.6,0.7-2c0.5-0.4,1-0.6,1.6-0.6c0.4,0,0.7,0.1,1,0.2c0.3,0.2,0.6,0.4,0.8,0.6l-0.8,0.7
		c-0.3-0.3-0.6-0.5-1-0.5c-0.9,0-1.3,0.5-1.3,1.6c0,1.1,0.5,1.6,1.3,1.6c0.4,0,0.8-0.2,1-0.5L818.1,343.9z"/>
	<path class="st13" d="M818.5,342.2c0-0.5,0-0.9,0.1-1.2c0.1-0.3,0.2-0.5,0.4-0.7c0.1-0.2,0.3-0.3,0.6-0.5c0.2-0.1,0.6-0.2,1-0.2
		c0.4,0,0.7,0.1,1,0.2c0.2,0.1,0.4,0.3,0.6,0.5c0.2,0.2,0.3,0.4,0.4,0.7c0.1,0.3,0.1,0.7,0.1,1.2s0,0.9-0.1,1.2
		c-0.1,0.3-0.2,0.5-0.4,0.7c-0.1,0.1-0.1,0.1-0.2,0.2c-0.1,0.1-0.2,0.2-0.3,0.2c-0.2,0.1-0.6,0.2-1,0.2c-0.4,0-0.7-0.1-1-0.2
		c-0.3-0.1-0.4-0.3-0.6-0.4c-0.2-0.2-0.3-0.4-0.4-0.7C818.6,343.2,818.5,342.8,818.5,342.2z M821.7,342.2c0-0.4,0-0.6,0-0.8
		c0-0.2-0.1-0.3-0.2-0.4c-0.1-0.1-0.2-0.2-0.3-0.3c-0.1-0.1-0.3-0.1-0.5-0.1c-0.2,0-0.3,0-0.5,0.1c-0.1,0.1-0.3,0.2-0.3,0.3
		c-0.1,0.1-0.2,0.3-0.2,0.4c0,0.2-0.1,0.4-0.1,0.8c0,0.4,0,0.6,0.1,0.8c0,0.2,0.1,0.3,0.2,0.4c0.1,0.1,0.2,0.2,0.3,0.3
		c0.1,0.1,0.3,0.1,0.5,0.1c0.2,0,0.3,0,0.5-0.1c0.1-0.1,0.3-0.2,0.3-0.3c0.1-0.1,0.2-0.3,0.2-0.4
		C821.7,342.8,821.7,342.6,821.7,342.2z"/>
	<path class="st13" d="M823.8,339.7h1v0.5h0c0.3-0.4,0.8-0.6,1.3-0.6c0.4,0,0.8,0.1,1.2,0.4c0.3,0.3,0.5,0.7,0.5,1.3v3.4h-1v-3
		c0-0.4-0.1-0.6-0.3-0.8c-0.2-0.2-0.4-0.3-0.7-0.3s-0.5,0.1-0.7,0.3c-0.2,0.2-0.3,0.5-0.3,0.8v3h-1V339.7z"/>
	<path class="st13" d="M832.2,344.2c-0.3,0.4-0.8,0.6-1.3,0.6c-0.3,0-0.6-0.1-0.8-0.2c-0.2-0.1-0.4-0.3-0.6-0.5
		c-0.1-0.2-0.2-0.4-0.3-0.6c-0.1-0.3-0.1-0.7-0.1-1.3c0-0.6,0-1,0.1-1.3c0-0.3,0.1-0.5,0.3-0.6c0.3-0.4,0.7-0.6,1.4-0.7
		c0.3,0,0.5,0.1,0.7,0.2c0.2,0.1,0.4,0.3,0.6,0.4v-2.6h1v7.1h-1V344.2z M831.2,340.7c-0.2,0-0.4,0-0.6,0.1c-0.1,0.1-0.2,0.2-0.3,0.4
		c-0.1,0.2-0.1,0.3-0.1,0.5c0,0.2,0,0.4,0,0.6c0,0.2,0,0.4,0,0.6c0,0.2,0.1,0.4,0.1,0.5c0.1,0.1,0.2,0.3,0.3,0.4
		c0.1,0.1,0.3,0.1,0.6,0.1s0.4,0,0.6-0.1c0.1-0.1,0.2-0.2,0.3-0.4c0.1-0.2,0.1-0.3,0.1-0.5c0-0.2,0-0.4,0-0.5c0-0.2,0-0.4,0-0.6
		c0-0.2-0.1-0.3-0.1-0.5c-0.1-0.2-0.1-0.3-0.3-0.4S831.4,340.7,831.2,340.7z"/>
	<path class="st13" d="M836.1,343.9c0.3,0,0.5-0.1,0.7-0.2s0.3-0.3,0.3-0.5c0-0.2-0.1-0.3-0.2-0.4c-0.1-0.1-0.3-0.1-0.5-0.1
		l-0.9-0.1c-0.4,0-0.8-0.2-1-0.4c-0.3-0.2-0.4-0.6-0.4-1c0-0.5,0.2-0.9,0.6-1.2c0.4-0.3,0.8-0.4,1.3-0.4c0.2,0,0.4,0,0.6,0
		c0.2,0,0.4,0.1,0.5,0.1c0.3,0.1,0.6,0.3,0.8,0.5l-0.6,0.7c-0.2-0.1-0.4-0.3-0.6-0.3c-0.2-0.1-0.5-0.1-0.7-0.1
		c-0.3,0-0.5,0.1-0.7,0.2c-0.1,0.1-0.2,0.3-0.2,0.4c0,0.1,0,0.2,0.2,0.3c0.1,0.1,0.3,0.2,0.5,0.2l0.8,0.1c0.5,0,0.9,0.2,1.1,0.5
		c0.2,0.3,0.3,0.6,0.3,1c0,0.5-0.2,0.9-0.6,1.1c-0.4,0.3-0.9,0.4-1.5,0.4c-0.8,0-1.6-0.3-2.2-0.9l0.7-0.7
		C834.9,343.7,835.5,343.9,836.1,343.9z"/>
	<path class="st13" d="M844.2,344.3L844.2,344.3c-0.1,0.2-0.3,0.3-0.5,0.4c-0.2,0.1-0.5,0.1-0.8,0.1c-0.6,0-1-0.2-1.3-0.4
		c-0.3-0.3-0.5-0.7-0.5-1.1c0-0.4,0.1-0.8,0.4-1.1c0.3-0.3,0.7-0.4,1.2-0.4h1.4v-0.5c0-0.4-0.3-0.7-1-0.6c-0.3,0-0.5,0-0.6,0.1
		c-0.2,0.1-0.3,0.2-0.4,0.3l-0.8-0.6c0.4-0.5,1-0.8,1.7-0.7c0.6,0,1.1,0.1,1.5,0.4c0.4,0.3,0.6,0.7,0.6,1.3v3.5h-1V344.3z
		 M844.2,342.6H843c-0.6,0-0.9,0.2-0.9,0.6c0,0.2,0.1,0.3,0.2,0.4c0.1,0.1,0.4,0.2,0.7,0.2c0.4,0,0.7,0,0.9-0.2
		c0.2-0.1,0.2-0.4,0.2-0.7V342.6z"/>
	<path class="st13" d="M849.4,344.2c-0.3,0.4-0.8,0.6-1.3,0.6c-0.3,0-0.6-0.1-0.8-0.2c-0.2-0.1-0.4-0.3-0.5-0.4
		c-0.1-0.2-0.2-0.4-0.3-0.6c-0.1-0.2-0.1-0.7-0.1-1.4c0-0.7,0-1.1,0.1-1.4c0.1-0.2,0.2-0.4,0.3-0.6c0.1-0.2,0.3-0.3,0.5-0.4
		c0.2-0.1,0.5-0.2,0.8-0.2c0.5,0,0.9,0.2,1.3,0.6v-0.5h1v4.9c0,0.8-0.2,1.3-0.7,1.7c-0.4,0.4-0.9,0.6-1.5,0.6
		c-0.7,0-1.3-0.3-1.8-0.8l0.8-0.6c0.1,0.1,0.3,0.2,0.4,0.3c0.2,0.1,0.4,0.1,0.5,0.2c0.3,0,0.6-0.1,0.8-0.3c0.2-0.2,0.3-0.5,0.3-0.8
		V344.2z M847.4,342.2c0,0.4,0,0.7,0,0.8c0,0.2,0.1,0.3,0.2,0.4c0.1,0.1,0.2,0.2,0.3,0.2c0.1,0.1,0.3,0.1,0.5,0.1s0.4,0,0.5-0.1
		c0.1-0.1,0.2-0.2,0.3-0.2c0.1-0.1,0.1-0.2,0.2-0.4c0-0.1,0-0.4,0-0.8c0-0.4,0-0.7,0-0.8c0-0.2-0.1-0.3-0.2-0.4
		c-0.1-0.1-0.2-0.2-0.3-0.3c-0.1-0.1-0.3-0.1-0.5-0.1c-0.2,0-0.4,0-0.5,0.1c-0.1,0.1-0.2,0.2-0.3,0.3c-0.1,0.1-0.1,0.2-0.2,0.4
		C847.4,341.6,847.4,341.8,847.4,342.2z"/>
	<path class="st13" d="M851.5,342.2c0-0.5,0-0.9,0.1-1.2c0.1-0.3,0.2-0.5,0.4-0.7c0.1-0.2,0.3-0.3,0.6-0.5c0.2-0.1,0.6-0.2,1-0.2
		c0.4,0,0.7,0.1,1,0.2c0.2,0.1,0.4,0.3,0.6,0.5c0.2,0.2,0.3,0.4,0.4,0.7c0.1,0.3,0.1,0.7,0.1,1.2s0,0.9-0.1,1.2
		c-0.1,0.3-0.2,0.5-0.4,0.7c-0.1,0.1-0.1,0.1-0.2,0.2c-0.1,0.1-0.2,0.2-0.3,0.2c-0.2,0.1-0.6,0.2-1,0.2c-0.4,0-0.7-0.1-1-0.2
		c-0.3-0.1-0.4-0.3-0.6-0.4c-0.2-0.2-0.3-0.4-0.4-0.7C851.5,343.2,851.5,342.8,851.5,342.2z M854.7,342.2c0-0.4,0-0.6,0-0.8
		c0-0.2-0.1-0.3-0.2-0.4c-0.1-0.1-0.2-0.2-0.3-0.3c-0.1-0.1-0.3-0.1-0.5-0.1c-0.2,0-0.3,0-0.5,0.1c-0.1,0.1-0.3,0.2-0.3,0.3
		c-0.1,0.1-0.2,0.3-0.2,0.4c0,0.2-0.1,0.4-0.1,0.8c0,0.4,0,0.6,0.1,0.8c0,0.2,0.1,0.3,0.2,0.4c0.1,0.1,0.2,0.2,0.3,0.3
		c0.1,0.1,0.3,0.1,0.5,0.1c0.2,0,0.3,0,0.5-0.1c0.1-0.1,0.3-0.2,0.3-0.3c0.1-0.1,0.2-0.3,0.2-0.4
		C854.6,342.8,854.7,342.6,854.7,342.2z"/>
</g>
</svg>
