<?xml version="1.0" encoding="utf-8"?>
<!-- Generator: Adobe Illustrator 22.0.1, SVG Export Plug-In . SVG Version: 6.00 Build 0)  -->
<svg version="1.1" id="Layer_1" xmlns="http://www.w3.org/2000/svg" xmlns:xlink="http://www.w3.org/1999/xlink" x="0px" y="0px"
	 viewBox="0 0 1120.8 712" style="enable-background:new 0 0 1120.8 712;" xml:space="preserve">
<style type="text/css">
	.st0{fill:#FFFFFF;stroke:#000000;stroke-width:2;stroke-miterlimit:10;}
	.st1{stroke:#000000;stroke-miterlimit:10;}
	.st2{font-family:'DINAlternate-Bold';}
	.st3{font-size:48px;}
</style>
<g>
	<path class="st0" d="M640.5,35.6C511,35.6,406,100.1,406,179.6c0,43.5,31.4,82.5,81.1,108.9c-0.7,3.1-1.1,6.3-1.1,9.6
		c0,23.5,19,42.5,42.5,42.5c16.9,0,31.6-9.9,38.4-24.2c23.2,4.7,47.9,7.2,73.6,7.2c129.5,0,234.5-64.5,234.5-144
		S770,35.6,640.5,35.6z"/>
	<circle class="st0" cx="476.5" cy="379.1" r="28.5"/>
	<circle class="st0" cx="416.5" cy="413.1" r="17.5"/>
	<circle class="st0" cx="365.5" cy="413.1" r="12.5"/>
	<text transform="matrix(1 0 0 1 469 202.5913)" class="st1 st2 st3">...Who are you...?</text>
</g>
</svg>
