<?xml version="1.0" encoding="utf-8"?>
<!-- Generator: Adobe Illustrator 22.0.1, SVG Export Plug-In . SVG Version: 6.00 Build 0)  -->
<svg version="1.1" id="Layer_1" xmlns="http://www.w3.org/2000/svg" xmlns:xlink="http://www.w3.org/1999/xlink" x="0px" y="0px"
	 viewBox="0 0 1120.8 712" style="enable-background:new 0 0 1120.8 712;" xml:space="preserve">
<style type="text/css">
	.st0{fill:#FFFFFF;}
	.st1{fill:#514640;}
	.st2{fill:#F38475;}
	.st3{fill:#F2CC67;}
	.st4{fill:#60D36D;}
	.st5{fill:#AFAFAF;}
	.st6{fill:#666666;}
	.st7{opacity:0.5;}
	.st8{fill:#9EBAC4;}
	.st9{fill:#F0F0F0;}
	.st10{fill:#F1E464;}
	.st11{fill:#DBDBDB;}
	.st12{fill:#F0877F;}
</style>
<g>
	<g>
		<g id="XMLID_25_">
			<g>
				<g>
					<path class="st0" d="M424.5,32.6v620.3c0,14.5-11.9,26.4-26.3,26.4H114.4l0.1-672.4V6.3h283.6C412.6,6.3,424.5,18.1,424.5,32.6
						z"/>
				</g>
				<g>
					<path class="st1" d="M114.6,6.3v0.6l-0.2,672.4H44.2c-14.5,0-26.3-11.9-26.3-26.4V32.6c0-14.5,11.9-26.4,26.3-26.4h70.4V6.3z"
						/>
				</g>
			</g>
			<g>
				<g>
					<path d="M398.1,680.3h-354c-15.1,0-27.3-12.3-27.3-27.4V32.6c0-15.1,12.3-27.4,27.3-27.4h354c15.1,0,27.3,12.3,27.3,27.4v620.3
						C425.5,668,413.2,680.3,398.1,680.3z M44.2,7.3c-14,0-25.3,11.4-25.3,25.4V653c0,14,11.4,25.4,25.3,25.4h354
						c14,0,25.3-11.4,25.3-25.4V32.6c0-14-11.4-25.4-25.3-25.4h-354V7.3z"/>
				</g>
				<g>
					<rect x="113.5" y="6.9" width="2" height="672.4"/>
				</g>
			</g>
		</g>
		<g>
			<g>
				<g>
					<ellipse class="st2" cx="38.4" cy="27.9" rx="7" ry="6.6"/>
				</g>
				<g>
					<path d="M38.4,35.5c-4.4,0-8-3.4-8-7.6s3.6-7.6,8-7.6s8,3.4,8,7.6S42.8,35.5,38.4,35.5z M38.4,22.4c-3.3,0-6,2.5-6,5.6
						s2.7,5.6,6,5.6s6-2.5,6-5.6S41.7,22.4,38.4,22.4z"/>
				</g>
			</g>
			<g>
				<g>
					<ellipse class="st3" cx="66.9" cy="27.9" rx="7" ry="6.6"/>
				</g>
				<g>
					<path d="M66.9,35.5c-4.4,0-8-3.4-8-7.6s3.6-7.6,8-7.6s8,3.4,8,7.6S71.3,35.5,66.9,35.5z M66.9,22.4c-3.3,0-6,2.5-6,5.6
						s2.7,5.6,6,5.6c3.3,0,6-2.5,6-5.6S70.2,22.4,66.9,22.4z"/>
				</g>
			</g>
			<g>
				<g>
					<ellipse class="st4" cx="95.4" cy="27.9" rx="7" ry="6.6"/>
				</g>
				<g>
					<path d="M95.4,35.5c-4.4,0-8-3.4-8-7.6s3.6-7.6,8-7.6s8,3.4,8,7.6S99.8,35.5,95.4,35.5z M95.4,22.4c-3.3,0-6,2.5-6,5.6
						s2.7,5.6,6,5.6s6-2.5,6-5.6S98.7,22.4,95.4,22.4z"/>
				</g>
			</g>
		</g>
	</g>
	<g>
		<g>
			<g>
				<circle class="st5" cx="64.5" cy="91.4" r="6.1"/>
			</g>
			<g>
				<path d="M64.5,98.5c-3.9,0-7.1-3.2-7.1-7.1s3.2-7.1,7.1-7.1s7.1,3.2,7.1,7.1S68.4,98.5,64.5,98.5z M64.5,86.3
					c-2.8,0-5.1,2.3-5.1,5.1s2.3,5.1,5.1,5.1c2.8,0,5.1-2.3,5.1-5.1S67.3,86.3,64.5,86.3z"/>
			</g>
		</g>
		<g>
			<g>
				<path class="st5" d="M78.1,114.3c0.1-0.6,0.1-1.3,0.1-1.9v-3c0-4.8-2.6-8.8-5.8-8.8H56.7c-3.2,0-5.8,3.9-5.8,8.8v3
					c0,0.7,0.1,1.3,0.1,1.9H78.1z"/>
			</g>
			<g>
				<path d="M78.9,115.3H50.1l-0.1-0.9c-0.1-0.7-0.2-1.4-0.2-2.1v-3c0-5.4,3.1-9.8,6.8-9.8h15.8c3.8,0,6.8,4.4,6.8,9.8v3
					c0,0.7-0.1,1.4-0.2,2.1L78.9,115.3z M51.9,113.3h25.3c0-0.3,0-0.6,0-0.9v-3c0-4.2-2.2-7.8-4.8-7.8H56.7c-2.6,0-4.8,3.6-4.8,7.8
					v3C51.8,112.7,51.8,113,51.9,113.3z"/>
			</g>
		</g>
	</g>
	<g>
		<g>
			<g>
				<circle class="st5" cx="53.1" cy="255.8" r="3.5"/>
			</g>
			<g>
				<path d="M53.1,260.3c-2.5,0-4.5-2-4.5-4.5s2-4.5,4.5-4.5s4.5,2,4.5,4.5S55.5,260.3,53.1,260.3z M53.1,253.3
					c-1.4,0-2.5,1.1-2.5,2.5s1.1,2.5,2.5,2.5s2.5-1.1,2.5-2.5S54.4,253.3,53.1,253.3z"/>
			</g>
		</g>
		<g>
			<g>
				<circle class="st5" cx="64.5" cy="255.8" r="3.5"/>
			</g>
			<g>
				<path d="M64.5,260.3c-2.5,0-4.5-2-4.5-4.5s2-4.5,4.5-4.5s4.5,2,4.5,4.5S67,260.3,64.5,260.3z M64.5,253.3
					c-1.4,0-2.5,1.1-2.5,2.5s1.1,2.5,2.5,2.5s2.5-1.1,2.5-2.5S65.9,253.3,64.5,253.3z"/>
			</g>
		</g>
		<g>
			<g>
				<circle class="st5" cx="76" cy="255.8" r="3.5"/>
			</g>
			<g>
				<path d="M76,260.3c-2.5,0-4.5-2-4.5-4.5s2-4.5,4.5-4.5s4.5,2,4.5,4.5S78.5,260.3,76,260.3z M76,253.3c-1.4,0-2.5,1.1-2.5,2.5
					s1.1,2.5,2.5,2.5s2.5-1.1,2.5-2.5S77.4,253.3,76,253.3z"/>
			</g>
		</g>
	</g>
	<g>
		<g>
			<path class="st5" d="M64.5,168.7c-8.4,0-15.2,5.8-15.2,13c0,4.2,2.3,7.8,5.8,10.2v3.9c0,1.2,1.5,1.8,2.3,1l2.6-2.6
				c1.4,0.4,2.9,0.6,4.5,0.6c8.4,0,15.2-5.8,15.2-13C79.7,174.5,72.9,168.7,64.5,168.7z"/>
		</g>
		<g>
			<path d="M56.5,198.2c-0.3,0-0.6-0.1-0.9-0.2c-0.9-0.4-1.5-1.2-1.5-2.2v-3.4c-3.7-2.7-5.8-6.6-5.8-10.8c0-7.7,7.3-14,16.2-14
				s16.2,6.3,16.2,14s-7.3,14-16.2,14c-1.4,0-2.8-0.2-4.2-0.5l-2.2,2.2C57.7,198,57.1,198.2,56.5,198.2z M64.5,169.7
				c-7.8,0-14.2,5.4-14.2,12c0,3.7,2,7.1,5.4,9.4l0.4,0.3v4.4c0,0.2,0.1,0.3,0.2,0.3c0.1,0,0.2,0.1,0.4-0.1l3-3l0.6,0.1
				c1.4,0.4,2.8,0.5,4.2,0.5c7.8,0,14.2-5.4,14.2-12S72.4,169.7,64.5,169.7z"/>
		</g>
	</g>
	<g>
		<g>
			<path d="M373.8,29.7c-8.4,0-15.2,5.8-15.2,13c0,4.2,2.3,7.8,5.8,10.2v3.9c0,1.2,1.5,1.8,2.3,1l2.6-2.6c1.4,0.4,2.9,0.6,4.5,0.6
				c8.4,0,15.2-5.8,15.2-13C389.1,35.5,382.2,29.7,373.8,29.7z"/>
		</g>
		<g>
			<path d="M365.8,59.2c-0.3,0-0.6-0.1-0.9-0.2c-0.9-0.4-1.5-1.2-1.5-2.2v-3.4c-3.7-2.7-5.8-6.6-5.8-10.8c0-7.7,7.3-14,16.2-14
				s16.2,6.3,16.2,14s-7.3,14-16.2,14c-1.4,0-2.8-0.2-4.2-0.5l-2.2,2.2C367,59,366.4,59.2,365.8,59.2z M373.8,30.7
				c-7.8,0-14.2,5.4-14.2,12c0,3.7,2,7.1,5.4,9.4l0.4,0.3v4.4c0,0.2,0.1,0.3,0.2,0.3s0.2,0.1,0.4-0.1l3-3l0.6,0.1
				c1.4,0.4,2.8,0.5,4.2,0.5c7.8,0,14.2-5.4,14.2-12S381.7,30.7,373.8,30.7z"/>
		</g>
	</g>
	<g>
		<g>
			<path d="M150.4,57.9c-0.5,0.6-1.1,1.1-1.8,1.4c-0.7,0.4-1.5,0.6-2.4,0.6c-1.4,0-2.6-0.5-3.6-1.4c-1.1-0.9-1.6-2.5-1.7-4.5
				c0-2.1,0.6-3.7,1.7-4.6c1-0.9,2.2-1.4,3.6-1.4c0.9,0,1.7,0.2,2.4,0.6c0.7,0.4,1.3,0.9,1.8,1.5l-1.7,1.5c-0.6-0.8-1.4-1.2-2.4-1.2
				c-2,0-3,1.2-3,3.6c0,2.4,1,3.6,3,3.6c1,0,1.8-0.4,2.4-1.2L150.4,57.9z"/>
		</g>
		<g>
			<path d="M152,43.4h2.3v6l0,0c0.8-0.9,1.8-1.4,3-1.4c1,0,1.8,0.3,2.7,1c0.8,0.7,1.2,1.7,1.2,3v7.7h-2.3v-6.9
				c0-0.8-0.2-1.4-0.7-1.9c-0.4-0.4-1-0.7-1.7-0.7s-1.2,0.2-1.7,0.7c-0.4,0.4-0.7,1-0.7,1.9v6.9h-2.3V43.4H152z"/>
		</g>
		<g>
			<path d="M170.5,58.7L170.5,58.7c-0.3,0.4-0.6,0.7-1.1,0.9c-0.4,0.2-1.1,0.3-1.9,0.3c-1.3,0-2.3-0.4-3-1c-0.7-0.7-1.1-1.5-1.1-2.5
				s0.3-1.8,1-2.4c0.6-0.7,1.6-1,2.8-1h3.2v-1.2c0-1-0.8-1.5-2.4-1.5c-0.6,0-1,0.1-1.4,0.2c-0.4,0.1-0.6,0.4-0.8,0.7l-1.8-1.4
				c0.9-1.2,2.2-1.7,3.9-1.7c1.5,0,2.6,0.3,3.5,0.8c0.9,0.6,1.3,1.6,1.3,3v8h-2.3v-1.2H170.5z M170.5,54.8h-2.8c-1.4,0-2,0.5-2,1.4
				c0,0.4,0.2,0.7,0.5,1s0.9,0.5,1.7,0.5c1,0,1.7-0.1,2.1-0.3c0.4-0.2,0.6-0.8,0.6-1.7v-0.9H170.5z"/>
		</g>
		<g>
			<path d="M176,44.6h2.3v3.5h1.7v1.8h-1.7v6.8c0,0.6,0.3,0.9,0.8,0.9h0.9v2.2h-1.2c-0.8,0-1.5-0.3-2-0.8s-0.8-1.2-0.8-2.1v-7h-1.2
				v-1.8h1.2V44.6z"/>
		</g>
		<g>
			<path d="M182.4,44.6h2.3v3.5h1.7v1.8h-1.7v6.8c0,0.6,0.3,0.9,0.8,0.9h0.9v2.2h-1.2c-0.8,0-1.5-0.3-2-0.8s-0.8-1.2-0.8-2.1v-7
				h-1.2v-1.8h1.2V44.6z"/>
		</g>
		<g>
			<path d="M188.7,43.4h2.3v2.3h-2.3V43.4z M188.7,48.1h2.3v11.7h-2.3V48.1z"/>
		</g>
		<g>
			<path d="M194.1,48.1h2.3v1.2l0,0c0.8-0.9,1.8-1.4,3-1.4c1,0,1.8,0.3,2.7,1c0.8,0.7,1.2,1.7,1.2,3v7.7H201v-6.9
				c0-0.8-0.2-1.4-0.7-1.9c-0.4-0.4-1-0.7-1.7-0.7s-1.2,0.2-1.7,0.7c-0.4,0.4-0.7,1-0.7,1.9v6.9h-2.3V48.1H194.1z"/>
		</g>
		<g>
			<path d="M213,58.5c-0.8,0.9-1.8,1.3-3,1.4c-0.8,0-1.4-0.2-1.9-0.5s-0.9-0.6-1.2-0.9c-0.3-0.4-0.5-0.9-0.7-1.4
				c-0.1-0.5-0.2-1.6-0.2-3.1c0-1.6,0.1-2.6,0.2-3.2c0.1-0.5,0.4-1,0.7-1.4s0.7-0.7,1.2-1s1.1-0.4,1.9-0.4c1.2,0,2.2,0.5,3,1.4v-1.2
				h2.3v11.4c0,1.8-0.5,3-1.5,3.9c-1,0.8-2.2,1.3-3.5,1.3c-1.6,0-2.9-0.7-4-2l1.8-1.4c0.3,0.3,0.6,0.5,1,0.7s0.8,0.3,1.2,0.3
				c0.8,0,1.4-0.2,1.9-0.7c0.5-0.4,0.7-1.1,0.7-1.9v-1.3H213z M208.4,53.9c0,0.9,0,1.5,0.1,1.8c0.1,0.4,0.2,0.6,0.4,0.9
				c0.2,0.2,0.4,0.4,0.7,0.6c0.3,0.2,0.7,0.3,1.1,0.3s0.8-0.1,1.1-0.3s0.5-0.4,0.7-0.6c0.2-0.2,0.3-0.5,0.4-0.9c0-0.3,0.1-1,0.1-1.8
				c0-0.9,0-1.5-0.1-1.9s-0.2-0.6-0.4-0.9c-0.2-0.2-0.4-0.4-0.7-0.6c-0.3-0.2-0.7-0.3-1.1-0.3c-0.5,0-0.8,0.1-1.1,0.3
				s-0.6,0.4-0.7,0.6c-0.2,0.2-0.3,0.5-0.4,0.9C208.4,52.4,208.4,53,208.4,53.9z"/>
		</g>
	</g>
	<g>
		<g>
			<path d="M202.4,171.8c-0.3,1.3-0.9,2.3-1.8,3c-0.9,0.7-2,1.1-3.2,1.1c-1.1,0-2.1-0.3-2.8-0.8c-0.8-0.5-1.3-1.1-1.7-1.7
				c-0.1-0.2-0.2-0.4-0.3-0.6c-0.1-0.2-0.1-0.5-0.2-0.8c-0.1-0.6-0.1-1.7-0.1-3.3c0-1.7,0-2.8,0.1-3.3c0.1-0.6,0.3-1,0.5-1.4
				c0.3-0.7,0.9-1.2,1.7-1.8c0.7-0.5,1.7-0.8,2.8-0.8c1.4,0,2.5,0.4,3.4,1.2s1.4,1.8,1.6,3h-2.3c-0.2-0.6-0.5-1.1-1-1.5
				s-1.1-0.6-1.8-0.6c-0.5,0-0.9,0.1-1.3,0.3c-0.4,0.2-0.7,0.4-0.9,0.7c-0.3,0.3-0.5,0.7-0.6,1.2s-0.2,1.5-0.2,2.9s0.1,2.3,0.2,2.8
				c0.1,0.5,0.3,0.9,0.6,1.2c0.2,0.3,0.5,0.5,0.9,0.7s0.8,0.3,1.3,0.3c1.2,0,2.1-0.6,2.7-1.9h2.4V171.8z"/>
		</g>
		<g>
			<path d="M211.7,169.5h-5.6v6.2h-2.2v-14.2h2.2v6.1h5.6v-6.1h2.2v14.2h-2.2V169.5z"/>
		</g>
		<g>
			<path d="M216.4,168.6c0-1.7,0-2.8,0.1-3.3c0.1-0.6,0.3-1,0.5-1.4c0.3-0.7,0.9-1.2,1.7-1.8c0.7-0.5,1.7-0.8,2.8-0.8
				s2.1,0.3,2.8,0.8s1.3,1.1,1.6,1.8c0.2,0.3,0.4,0.8,0.5,1.4c0.1,0.6,0.1,1.7,0.1,3.3s0,2.7-0.1,3.3s-0.3,1-0.5,1.4
				c-0.3,0.7-0.9,1.2-1.6,1.7c-0.8,0.5-1.7,0.8-2.8,0.8s-2.1-0.3-2.8-0.8c-0.8-0.5-1.3-1.1-1.7-1.7c-0.1-0.2-0.2-0.4-0.3-0.6
				c-0.1-0.2-0.1-0.5-0.2-0.8C216.4,171.4,216.4,170.3,216.4,168.6z M218.5,168.6c0,1.4,0.1,2.3,0.2,2.8c0.1,0.5,0.3,0.9,0.6,1.2
				c0.2,0.3,0.5,0.5,0.9,0.7s0.8,0.3,1.3,0.3s1-0.1,1.3-0.3c0.4-0.2,0.6-0.4,0.9-0.7c0.3-0.3,0.5-0.7,0.6-1.2s0.1-1.4,0.1-2.8
				s0-2.4-0.1-2.9s-0.3-0.9-0.6-1.2c-0.2-0.3-0.5-0.5-0.9-0.7s-0.8-0.3-1.3-0.3s-0.9,0.1-1.3,0.3c-0.4,0.2-0.7,0.4-0.9,0.7
				c-0.3,0.3-0.5,0.7-0.6,1.2C218.6,166.3,218.5,167.2,218.5,168.6z"/>
		</g>
		<g>
			<path d="M229,161.5h2.2v14.2H229V161.5z"/>
		</g>
		<g>
			<path d="M246.8,169.5h-5.6v6.2H239v-14.2h2.2v6.1h5.6v-6.1h2.2v14.2h-2.2V169.5z"/>
		</g>
		<g>
			<path d="M259.2,172.6h-5.4l-1.1,3.2h-2.3l5.2-14.2h1.8l5.2,14.2h-2.2L259.2,172.6z M258.6,170.7l-2.1-6.2l0,0l-2.1,6.2H258.6z"/>
		</g>
		<g>
			<path d="M264.2,161.5h2l6.4,10.1l0,0v-10.1h2.2v14.2h-2l-6.4-10.1l0,0v10.1h-2.2V161.5z"/>
		</g>
		<g>
			<path d="M282.6,161.5h5.5c1.4,0,2.5,0.4,3.2,1.1c0.7,0.7,1.1,1.6,1.1,2.8c0,0.6-0.1,1.1-0.4,1.7c-0.1,0.3-0.4,0.5-0.6,0.7
				c-0.3,0.2-0.6,0.5-1,0.7l0,0c0.8,0.2,1.4,0.6,1.8,1.2c0.4,0.6,0.6,1.3,0.6,2.1c0,1.2-0.4,2.2-1.2,2.9c-0.7,0.7-1.7,1.1-2.8,1.1
				h-6v-14.3H282.6z M284.8,163.5v4.1h3.1c0.8,0,1.4-0.2,1.7-0.6c0.4-0.4,0.6-0.9,0.6-1.4s-0.2-1.1-0.6-1.5s-1-0.6-1.7-0.6H284.8z
				 M284.8,169.4v4.3h3.3c0.8,0,1.4-0.2,1.8-0.7c0.4-0.4,0.6-0.9,0.6-1.5s-0.2-1.1-0.6-1.5s-1-0.6-1.8-0.6H284.8z"/>
		</g>
		<g>
			<path d="M294.8,161.5h2.2v14.2h-2.2V161.5z"/>
		</g>
	</g>
	<g>
		<g>
			<path class="st6" d="M207.2,192.1H203v4.7h-1.6v-10.7h1.6v4.6h4.2v-4.6h1.6v10.7h-1.6V192.1z"/>
		</g>
		<g>
			<path class="st6" d="M211,186.1h1.5v1.5H211V186.1z M211,189.2h1.5v7.6H211V189.2z"/>
		</g>
		<g>
			<path class="st6" d="M214.6,193.2c0.2-0.3,0.4-0.6,0.7-0.9c0.3-0.3,0.7-0.4,1.2-0.4c0.3,0,0.5,0,0.8,0.1s0.5,0.2,0.8,0.4
				c0.3,0.1,0.6,0.3,0.8,0.4c0.3,0.1,0.5,0.2,0.7,0.2c0.3,0,0.6-0.1,0.8-0.4c0.2-0.2,0.4-0.5,0.6-0.7l0.5,0.9
				c-0.2,0.3-0.4,0.6-0.7,0.9c-0.3,0.3-0.7,0.4-1.2,0.4c-0.3,0-0.5-0.1-0.8-0.2c-0.3-0.1-0.6-0.2-0.9-0.3c-0.3-0.1-0.5-0.3-0.8-0.4
				c-0.3-0.1-0.5-0.2-0.7-0.2c-0.3,0-0.5,0.1-0.7,0.3s-0.4,0.5-0.6,0.7L214.6,193.2z"/>
		</g>
	</g>
	<g>
		<g>
			<g>
				<path d="M394.4,37.3c-0.6,0-1-0.4-1-1v-10c0-0.6,0.4-1,1-1s1,0.4,1,1v10C395.4,36.8,395,37.3,394.4,37.3z"/>
			</g>
		</g>
		<g>
			<g>
				<path d="M399.4,32.3h-10c-0.6,0-1-0.4-1-1s0.4-1,1-1h10c0.6,0,1,0.4,1,1S400,32.3,399.4,32.3z"/>
			</g>
		</g>
	</g>
	<g>
		<g>
			<path d="M380.9,126.5H158.5c-10.8,0-19.5-8.7-19.5-19.5s8.7-19.5,19.5-19.5h222.4c10.8,0,19.5,8.7,19.5,19.5
				S391.7,126.5,380.9,126.5z M158.5,89.5c-9.6,0-17.5,7.9-17.5,17.5s7.9,17.5,17.5,17.5h222.4c9.6,0,17.5-7.9,17.5-17.5
				s-7.9-17.5-17.5-17.5H158.5z"/>
		</g>
	</g>
	<g class="st7">
		<g>
			<g>
				<path d="M168.4,110.5c-3.1,0-5.7-2.6-5.7-5.7s2.6-5.7,5.7-5.7s5.7,2.6,5.7,5.7S171.5,110.5,168.4,110.5z M168.4,101.2
					c-2,0-3.7,1.7-3.7,3.7s1.7,3.7,3.7,3.7s3.7-1.7,3.7-3.7C172,102.8,170.4,101.2,168.4,101.2z"/>
			</g>
		</g>
		<g>
			<g>
				<path d="M177.4,114.9c-0.3,0-0.5-0.1-0.7-0.3l-5.7-5.7c-0.4-0.4-0.4-1,0-1.4s1-0.4,1.4,0l5.7,5.7c0.4,0.4,0.4,1,0,1.4
					C177.9,114.8,177.7,114.9,177.4,114.9z"/>
			</g>
		</g>
	</g>
	<g>
		<g>
			<g>
				<path class="st8" d="M163.8,205.3H148c-8,0-14.6-6.6-14.6-14.6v-15.8c0-8,6.6-14.6,14.6-14.6h15.8c8,0,14.6,6.6,14.6,14.6v15.8
					C178.4,198.7,171.8,205.3,163.8,205.3z"/>
			</g>
			<g>
				<path d="M163.8,206.3H148c-8.6,0-15.6-7-15.6-15.6v-15.8c0-8.6,7-15.6,15.6-15.6h15.8c8.6,0,15.6,7,15.6,15.6v15.8
					C179.4,199.3,172.4,206.3,163.8,206.3z M148,161.3c-7.5,0-13.6,6.1-13.6,13.6v15.8c0,7.5,6.1,13.6,13.6,13.6h15.8
					c7.5,0,13.6-6.1,13.6-13.6v-15.8c0-7.5-6.1-13.6-13.6-13.6H148z"/>
			</g>
		</g>
		<g>
			<g>
				<g>
					<circle class="st9" cx="155.9" cy="175.6" r="5.3"/>
				</g>
				<g>
					<path d="M155.9,181.8c-3.5,0-6.3-2.8-6.3-6.3s2.8-6.3,6.3-6.3s6.3,2.8,6.3,6.3S159.3,181.8,155.9,181.8z M155.9,171.3
						c-2.4,0-4.3,1.9-4.3,4.3s1.9,4.3,4.3,4.3s4.3-1.9,4.3-4.3S158.2,171.3,155.9,171.3z"/>
				</g>
			</g>
			<g>
				<g>
					<path class="st9" d="M167.6,195.3c0.1-0.5,0.1-1.1,0.1-1.6V191c0-4.2-2.3-7.6-5-7.6h-13.6c-2.8,0-5,3.4-5,7.6v2.6
						c0,0.6,0,1.1,0.1,1.6L167.6,195.3L167.6,195.3z"/>
				</g>
				<g>
					<path d="M168.4,196.3h-25.1l-0.1-0.9c-0.1-0.6-0.1-1.2-0.1-1.8V191c0-4.7,2.7-8.6,6-8.6h13.6c3.3,0,6,3.8,6,8.6v2.6
						c0,0.6,0,1.2-0.1,1.8L168.4,196.3z M145.1,194.3h21.6c0-0.2,0-0.4,0-0.6V191c0-3.6-1.8-6.6-4-6.6h-13.6c-2.2,0-4,3-4,6.6v2.6
						C145.1,193.8,145.1,194.1,145.1,194.3z"/>
				</g>
			</g>
		</g>
	</g>
	<g>
		<g>
			<rect x="114.4" y="574.3" width="310" height="2"/>
		</g>
	</g>
	<g>
		<g>
			<g class="st7">
				<path d="M150.8,609.5h2.2v7.3l0,0l5.9-7.3h2.6l-4.6,5.6l5,8.6h-2.6l-3.9-7l-2.5,2.6v4.3h-2.2v-14.1H150.8z"/>
			</g>
			<g class="st7">
				<path d="M164.7,619.5c0,0.8,0.2,1.4,0.7,1.9c0.4,0.4,1,0.6,1.7,0.6c0.8,0,1.6-0.3,2.2-1l1.5,1.3c-1,1.1-2.3,1.7-3.7,1.6
					c-0.5,0-1.1-0.1-1.6-0.2c-0.3-0.1-0.5-0.2-0.7-0.3c-0.3-0.1-0.5-0.3-0.7-0.5c-0.4-0.4-0.8-0.9-1-1.6c-0.3-0.7-0.4-1.5-0.4-2.5
					s0.1-1.8,0.4-2.5c0.3-0.7,0.6-1.2,1-1.6c0.4-0.4,0.9-0.7,1.4-0.9s1-0.3,1.5-0.3c1.2,0,2.1,0.4,2.9,1.1c0.8,0.8,1.2,1.8,1.2,3.1
					v1.7h-6.4V619.5z M169,617.8c0-0.8-0.2-1.4-0.6-1.8c-0.4-0.4-0.9-0.6-1.5-0.6s-1.1,0.2-1.5,0.6c-0.4,0.4-0.6,1-0.6,1.8H169z"/>
			</g>
			<g class="st7">
				<path d="M171.7,613.6h2.2l2.4,7.1l0,0l2.4-7.1h2.2l-4.4,12.2c-0.3,0.8-0.7,1.3-1.2,1.6s-1.1,0.4-1.7,0.4h-0.7v-1.9h0.6
					c0.3,0,0.5-0.1,0.7-0.2c0.2-0.1,0.4-0.4,0.5-0.7l0.6-1.7L171.7,613.6z"/>
			</g>
			<g class="st7">
				<path d="M188,616.7L188,616.7l-2.2,7.1H184l-3.2-10.1h2.2l1.9,7.1l0,0l2.3-7.1h1.5l2.3,7.1l0,0l1.9-7.1h2.2l-3.2,10.1h-1.8
					L188,616.7z"/>
			</g>
			<g class="st7">
				<path d="M196,618.7c0-1.1,0.1-1.9,0.3-2.5s0.5-1,0.8-1.4c0.3-0.3,0.7-0.6,1.2-0.9c0.5-0.3,1.1-0.4,1.9-0.4
					c0.8,0,1.4,0.1,1.9,0.4c0.5,0.3,0.9,0.6,1.1,0.9c0.4,0.4,0.7,0.9,0.9,1.4c0.2,0.6,0.2,1.4,0.2,2.5s-0.1,1.9-0.2,2.4
					c-0.2,0.6-0.5,1-0.9,1.5c-0.1,0.1-0.3,0.3-0.5,0.4c-0.2,0.2-0.4,0.3-0.7,0.4c-0.5,0.3-1.1,0.4-1.9,0.4c-0.8,0-1.4-0.2-1.9-0.4
					c-0.5-0.3-0.9-0.5-1.2-0.9c-0.4-0.4-0.7-0.9-0.8-1.5C196.1,620.6,196,619.8,196,618.7z M202.3,618.7c0-0.7,0-1.2-0.1-1.6
					c-0.1-0.3-0.2-0.6-0.4-0.8c-0.1-0.2-0.4-0.4-0.7-0.5s-0.6-0.2-1-0.2c-0.3,0-0.7,0.1-1,0.2c-0.3,0.1-0.5,0.3-0.7,0.5
					s-0.3,0.5-0.4,0.8c-0.1,0.3-0.1,0.9-0.1,1.6c0,0.7,0,1.2,0.1,1.5s0.2,0.6,0.4,0.9c0.2,0.2,0.4,0.4,0.7,0.5s0.6,0.2,1,0.2
					s0.7-0.1,1-0.2c0.3-0.1,0.5-0.3,0.7-0.5c0.2-0.3,0.3-0.5,0.4-0.9C202.3,619.9,202.3,619.4,202.3,618.7z"/>
			</g>
			<g class="st7">
				<path d="M206.5,613.6h2v1.1l0,0c0.7-0.8,1.5-1.2,2.6-1.2c0.8,0,1.5,0.3,2.1,0.8l-1.5,1.8c-0.4-0.3-0.9-0.5-1.3-0.5
					c-0.5,0-1,0.2-1.3,0.5c-0.4,0.3-0.6,0.9-0.6,1.6v6.1h-2V613.6z"/>
			</g>
			<g class="st7">
				<path d="M220,622.7c-0.7,0.8-1.5,1.2-2.6,1.2c-0.6,0-1.1-0.1-1.6-0.4c-0.5-0.2-0.8-0.5-1.1-0.9c-0.3-0.3-0.5-0.8-0.6-1.3
					s-0.2-1.4-0.2-2.6c0-1.2,0.1-2.1,0.2-2.6c0.1-0.5,0.3-0.9,0.6-1.3c0.6-0.9,1.5-1.3,2.7-1.3c0.5,0,1,0.1,1.4,0.3s0.8,0.5,1.2,0.9
					v-5.2h2v14.2h-2L220,622.7L220,622.7z M218,615.5c-0.5,0-0.8,0.1-1.1,0.2c-0.3,0.2-0.5,0.4-0.6,0.7s-0.2,0.6-0.2,1
					s-0.1,0.8-0.1,1.2s0,0.8,0.1,1.1c0,0.4,0.1,0.7,0.2,1c0.1,0.3,0.3,0.5,0.6,0.7s0.6,0.3,1.1,0.3s0.9-0.1,1.1-0.3
					c0.3-0.2,0.5-0.4,0.6-0.7s0.2-0.6,0.3-1c0-0.4,0-0.7,0-1.1c0-0.4,0-0.8,0-1.1c0-0.4-0.1-0.7-0.3-1c-0.1-0.3-0.3-0.6-0.6-0.7
					S218.5,615.5,218,615.5z"/>
			</g>
		</g>
		<g>
			<g>
				<path class="st10" d="M404.4,644.4h-269c-5.5,0-10-4.5-10-10v-35c0-5.5,4.5-10,10-10h269c5.5,0,10,4.5,10,10v35
					C414.4,639.9,409.9,644.4,404.4,644.4z M135.4,591.4c-4.4,0-8,3.6-8,8v35c0,4.4,3.6,8,8,8h269c4.4,0,8-3.6,8-8v-35
					c0-4.4-3.6-8-8-8H135.4z"/>
			</g>
		</g>
		<g class="st7">
			<g>
				<g>
					<path d="M387.4,620.4c-3.1,0-5.7-2.6-5.7-5.7s2.6-5.7,5.7-5.7s5.7,2.6,5.7,5.7S390.5,620.4,387.4,620.4z M387.4,611
						c-2,0-3.7,1.7-3.7,3.7s1.7,3.7,3.7,3.7s3.7-1.7,3.7-3.7S389.4,611,387.4,611z"/>
				</g>
			</g>
			<g>
				<g>
					<path d="M396.4,624.8c-0.3,0-0.5-0.1-0.7-0.3l-5.7-5.7c-0.4-0.4-0.4-1,0-1.4s1-0.4,1.4,0l5.7,5.7c0.4,0.4,0.4,1,0,1.4
						C396.9,624.7,396.7,624.8,396.4,624.8z"/>
				</g>
			</g>
		</g>
	</g>
	<g>
		<g>
			<g>
				<path d="M179.8,657.2v-1.3l1.2-0.9h1.2v8.6H181v-7.3L179.8,657.2z"/>
			</g>
		</g>
		<g>
			<g>
				<g>
					<path class="st11" d="M166.5,668.2H135c-2.4,0-4.3-2-4.3-4.3v-7.6c0-2.4,2-4.3,4.3-4.3h31.5c2.4,0,4.3,2,4.3,4.3v7.6
						C170.8,666.2,168.9,668.2,166.5,668.2z"/>
				</g>
				<g>
					<path class="st6" d="M166.5,669.2H135c-2.9,0-5.3-2.4-5.3-5.3v-7.6c0-2.9,2.4-5.3,5.3-5.3h31.5c2.9,0,5.3,2.4,5.3,5.3v7.6
						C171.8,666.8,169.4,669.2,166.5,669.2z M134.9,652.9c-1.8,0-3.3,1.5-3.3,3.3v7.6c0,1.8,1.5,3.3,3.3,3.3h31.5
						c1.8,0,3.3-1.5,3.3-3.3v-7.6c0-1.8-1.5-3.3-3.3-3.3H134.9z"/>
				</g>
			</g>
			<g>
				<g>
					<path class="st6" d="M140.2,655h1.2l3.9,6.1l0,0V655h1.3v8.6h-1.2l-3.9-6.1l0,0v6.1h-1.3V655z"/>
				</g>
				<g>
					<path class="st6" d="M149.2,661c0,0.5,0.1,0.9,0.4,1.1c0.3,0.3,0.6,0.4,1,0.4c0.5,0,0.9-0.2,1.3-0.6l0.9,0.8
						c-0.6,0.7-1.4,1-2.2,1c-0.3,0-0.6,0-0.9-0.1c-0.2-0.1-0.3-0.1-0.4-0.2c-0.2-0.1-0.3-0.2-0.4-0.3c-0.3-0.2-0.5-0.5-0.6-1
						c-0.2-0.4-0.3-0.9-0.3-1.5s0.1-1.1,0.2-1.5c0.2-0.4,0.3-0.7,0.6-1c0.2-0.2,0.5-0.4,0.8-0.5s0.6-0.2,0.9-0.2
						c0.7,0,1.3,0.2,1.8,0.7s0.7,1.1,0.7,1.9v1L149.2,661L149.2,661z M151.8,660c0-0.5-0.1-0.8-0.4-1.1c-0.2-0.2-0.5-0.3-0.9-0.3
						s-0.7,0.1-0.9,0.3s-0.4,0.6-0.4,1.1H151.8z"/>
				</g>
				<g>
					<path class="st6" d="M157.8,659.3L157.8,659.3l-1.3,4.3h-1.1l-1.9-6.1h1.3l1.2,4.3l0,0l1.4-4.3h0.9l1.4,4.3l0,0l1.2-4.3h1.3
						l-1.9,6.1h-1.1L157.8,659.3z"/>
				</g>
			</g>
		</g>
		<g>
			<g>
				<path d="M188.5,655h1.2v3.1c0.2-0.2,0.5-0.4,0.7-0.5s0.5-0.2,0.8-0.2c0.7,0,1.3,0.3,1.6,0.8c0.2,0.2,0.3,0.4,0.3,0.8
					c0.1,0.3,0.1,0.8,0.1,1.6c0,0.7,0,1.2-0.1,1.5s-0.2,0.6-0.3,0.8c-0.2,0.2-0.4,0.4-0.7,0.6c-0.3,0.1-0.6,0.2-1,0.2
					c-0.6,0-1.2-0.3-1.6-0.7v0.6h-1.2V655H188.5z M190.9,658.6c-0.3,0-0.5,0.1-0.7,0.2c-0.2,0.1-0.3,0.3-0.4,0.4
					c-0.1,0.2-0.1,0.4-0.1,0.6s0,0.4,0,0.7c0,0.2,0,0.4,0,0.7c0,0.2,0.1,0.4,0.1,0.6c0.1,0.2,0.2,0.3,0.4,0.4
					c0.2,0.1,0.4,0.2,0.7,0.2s0.5-0.1,0.7-0.2c0.2-0.1,0.3-0.3,0.4-0.4c0.1-0.2,0.1-0.4,0.2-0.6c0-0.2,0-0.4,0-0.7
					c0-0.2,0-0.5,0-0.7s-0.1-0.4-0.2-0.6c-0.1-0.2-0.2-0.3-0.4-0.4C191.4,658.7,191.2,658.6,190.9,658.6z"/>
			</g>
			<g>
				<path d="M194.7,655h1.2v1.2h-1.2V655z M194.7,657.5h1.2v6.1h-1.2V657.5z"/>
			</g>
			<g>
				<path d="M197.6,655h1.2v3.1c0.2-0.2,0.5-0.4,0.7-0.5s0.5-0.2,0.8-0.2c0.7,0,1.3,0.3,1.6,0.8c0.2,0.2,0.3,0.4,0.3,0.8
					c0.1,0.3,0.1,0.8,0.1,1.6c0,0.7,0,1.2-0.1,1.5s-0.2,0.6-0.3,0.8c-0.2,0.2-0.4,0.4-0.7,0.6c-0.3,0.1-0.6,0.2-1,0.2
					c-0.6,0-1.2-0.3-1.6-0.7v0.6h-1.2V655H197.6z M200,658.6c-0.3,0-0.5,0.1-0.7,0.2c-0.2,0.1-0.3,0.3-0.4,0.4
					c-0.1,0.2-0.1,0.4-0.1,0.6s0,0.4,0,0.7c0,0.2,0,0.4,0,0.7c0,0.2,0.1,0.4,0.1,0.6c0.1,0.2,0.2,0.3,0.4,0.4
					c0.2,0.1,0.4,0.2,0.7,0.2s0.5-0.1,0.7-0.2c0.2-0.1,0.3-0.3,0.4-0.4c0.1-0.2,0.1-0.4,0.2-0.6c0-0.2,0-0.4,0-0.7
					c0-0.2,0-0.5,0-0.7s-0.1-0.4-0.2-0.6c-0.1-0.2-0.2-0.3-0.4-0.4C200.5,658.7,200.3,658.6,200,658.6z"/>
			</g>
			<g>
				<path d="M203.8,655h1.2v1.2h-1.2V655z M203.8,657.5h1.2v6.1h-1.2V657.5z"/>
			</g>
			<g>
				<path d="M206.7,655h1.2v3.1c0.2-0.2,0.5-0.4,0.7-0.5s0.5-0.2,0.8-0.2c0.7,0,1.3,0.3,1.6,0.8c0.2,0.2,0.3,0.4,0.3,0.8
					c0.1,0.3,0.1,0.8,0.1,1.6c0,0.7,0,1.2-0.1,1.5s-0.2,0.6-0.3,0.8c-0.2,0.2-0.4,0.4-0.7,0.6c-0.3,0.1-0.6,0.2-1,0.2
					c-0.6,0-1.2-0.3-1.6-0.7v0.6h-1.2V655H206.7z M209.1,658.6c-0.3,0-0.5,0.1-0.7,0.2c-0.2,0.1-0.3,0.3-0.4,0.4
					c-0.1,0.2-0.1,0.4-0.1,0.6s0,0.4,0,0.7c0,0.2,0,0.4,0,0.7c0,0.2,0.1,0.4,0.1,0.6c0.1,0.2,0.2,0.3,0.4,0.4
					c0.2,0.1,0.4,0.2,0.7,0.2s0.5-0.1,0.7-0.2c0.2-0.1,0.3-0.3,0.4-0.4c0.1-0.2,0.1-0.4,0.2-0.6c0-0.2,0-0.4,0-0.7
					c0-0.2,0-0.5,0-0.7s-0.1-0.4-0.2-0.6c-0.1-0.2-0.2-0.3-0.4-0.4C209.6,658.7,209.4,658.6,209.1,658.6z"/>
			</g>
			<g>
				<path d="M213,655h1.2v1.2H213V655z M213,657.5h1.2v6.1H213V657.5z"/>
			</g>
			<g>
				<path d="M219.2,662.9c-0.4,0.5-0.9,0.7-1.6,0.7c-0.4,0-0.7-0.1-1-0.3s-0.5-0.3-0.6-0.5c-0.2-0.2-0.3-0.4-0.3-0.7
					c-0.1-0.3-0.1-0.8-0.1-1.6s0-1.4,0.1-1.7s0.2-0.5,0.3-0.7s0.4-0.4,0.6-0.5c0.3-0.1,0.6-0.2,1-0.2c0.6,0,1.1,0.2,1.6,0.7v-0.6
					h1.2v5.9c0,0.9-0.3,1.6-0.8,2s-1.1,0.7-1.9,0.7c-0.8,0-1.5-0.4-2.1-1l1-0.8c0.2,0.1,0.3,0.3,0.5,0.4c0.2,0.1,0.4,0.2,0.6,0.2
					c0.4,0,0.8-0.1,1-0.3s0.4-0.6,0.4-1v-0.7H219.2z M216.8,660.5c0,0.5,0,0.8,0,1s0.1,0.3,0.2,0.5c0.1,0.1,0.2,0.2,0.4,0.3
					s0.4,0.2,0.6,0.2s0.4-0.1,0.6-0.2c0.2-0.1,0.3-0.2,0.4-0.3c0.1-0.1,0.2-0.3,0.2-0.5s0-0.5,0-1s0-0.8,0-1s-0.1-0.3-0.2-0.4
					c-0.1-0.1-0.2-0.2-0.4-0.3s-0.4-0.1-0.6-0.1c-0.2,0-0.4,0.1-0.6,0.1c-0.2,0.1-0.3,0.2-0.4,0.3c-0.1,0.1-0.2,0.3-0.2,0.4
					C216.8,659.7,216.8,660.1,216.8,660.5z"/>
			</g>
			<g>
				<path d="M224.9,655h1.2v3.1l0,0c0.4-0.5,0.9-0.7,1.6-0.7c0.5,0,1,0.2,1.4,0.5c0.4,0.4,0.6,0.9,0.7,1.6v4h-1.2v-3.6
					c0-0.4-0.1-0.8-0.3-1s-0.5-0.3-0.9-0.3s-0.6,0.1-0.9,0.3c-0.2,0.2-0.3,0.5-0.3,1v3.6H225V655H224.9z"/>
			</g>
			<g>
				<path d="M231.1,660.5c0-0.6,0.1-1.1,0.2-1.5c0.1-0.3,0.3-0.6,0.5-0.9c0.2-0.2,0.4-0.4,0.7-0.5c0.3-0.2,0.7-0.2,1.1-0.2
					c0.5,0,0.9,0.1,1.2,0.2c0.3,0.2,0.5,0.3,0.7,0.5s0.4,0.5,0.5,0.9c0.1,0.3,0.1,0.8,0.1,1.5s0,1.1-0.1,1.5
					c-0.1,0.3-0.3,0.6-0.5,0.9c-0.1,0.1-0.2,0.2-0.3,0.3s-0.2,0.2-0.4,0.3c-0.3,0.2-0.7,0.3-1.2,0.3s-0.8-0.1-1.1-0.3
					s-0.5-0.3-0.7-0.5s-0.4-0.5-0.5-0.9C231.1,661.7,231.1,661.2,231.1,660.5z M234.9,660.5c0-0.4,0-0.8-0.1-1
					c0-0.2-0.1-0.4-0.2-0.5c-0.1-0.1-0.2-0.2-0.4-0.3s-0.4-0.1-0.6-0.1c-0.2,0-0.4,0-0.6,0.1c-0.2,0.1-0.3,0.2-0.4,0.3
					c-0.1,0.1-0.2,0.3-0.2,0.5s-0.1,0.5-0.1,0.9s0,0.7,0.1,0.9c0,0.2,0.1,0.4,0.2,0.5c0.1,0.1,0.2,0.2,0.4,0.3s0.4,0.1,0.6,0.1
					c0.2,0,0.4,0,0.6-0.1c0.2-0.1,0.3-0.2,0.4-0.3c0.1-0.2,0.2-0.3,0.2-0.5C234.8,661.3,234.9,660.9,234.9,660.5z"/>
			</g>
			<g>
				<path d="M237.4,657.5h1.2v3.6c0,0.4,0.1,0.7,0.3,1c0.2,0.2,0.5,0.3,0.9,0.3s0.6-0.1,0.9-0.3c0.2-0.2,0.3-0.6,0.3-1v-3.6h1.2v6.1
					H241v-0.7l0,0c-0.4,0.5-0.9,0.7-1.6,0.7c-0.5,0-1-0.2-1.4-0.6c-0.4-0.4-0.7-0.9-0.7-1.6v-3.9H237.4z"/>
			</g>
			<g>
				<path d="M245.9,662.5c0.4,0,0.6-0.1,0.9-0.2s0.3-0.3,0.3-0.6c0-0.2-0.1-0.4-0.2-0.5c-0.1-0.1-0.3-0.1-0.5-0.1l-1.1-0.1
					c-0.5,0-0.9-0.2-1.2-0.5s-0.5-0.7-0.5-1.2c0-0.6,0.2-1.1,0.7-1.4c0.4-0.3,1-0.5,1.6-0.5c0.3,0,0.5,0,0.8,0.1
					c0.2,0,0.4,0.1,0.6,0.2c0.4,0.2,0.7,0.4,1,0.6l-0.8,0.9c-0.2-0.2-0.5-0.3-0.7-0.4c-0.3-0.1-0.6-0.1-0.9-0.1
					c-0.4,0-0.7,0.1-0.8,0.2c-0.2,0.1-0.2,0.3-0.2,0.5c0,0.1,0.1,0.3,0.2,0.4c0.1,0.1,0.3,0.2,0.6,0.2l1,0.1c0.6,0,1.1,0.2,1.4,0.6
					c0.3,0.3,0.4,0.7,0.4,1.2c0,0.6-0.2,1-0.7,1.4c-0.5,0.3-1.1,0.5-1.8,0.5c-1,0-1.9-0.4-2.7-1.1l0.9-0.8
					C244.5,662.2,245.1,662.5,245.9,662.5z"/>
			</g>
			<g>
				<path d="M250.5,661c0,0.5,0.1,0.9,0.4,1.1c0.3,0.3,0.6,0.4,1,0.4c0.5,0,0.9-0.2,1.3-0.6l0.9,0.8c-0.6,0.7-1.4,1-2.2,1
					c-0.3,0-0.6,0-0.9-0.1c-0.2-0.1-0.3-0.1-0.4-0.2c-0.2-0.1-0.3-0.2-0.4-0.3c-0.3-0.2-0.5-0.5-0.6-1c-0.2-0.4-0.3-0.9-0.3-1.5
					s0.1-1.1,0.2-1.5c0.2-0.4,0.3-0.7,0.6-1c0.2-0.2,0.5-0.4,0.8-0.5s0.6-0.2,0.9-0.2c0.7,0,1.3,0.2,1.8,0.7s0.7,1.1,0.7,1.9v1
					L250.5,661L250.5,661z M253.1,660c0-0.5-0.1-0.8-0.4-1.1c-0.2-0.2-0.5-0.3-0.9-0.3s-0.7,0.1-0.9,0.3s-0.4,0.6-0.4,1.1H253.1z"/>
			</g>
		</g>
		<g>
			<g>
				<polygon class="st12" points="268.4,662.1 263.9,654.3 259.4,662.1 262.1,662.1 262.1,665.8 265.8,665.8 265.8,662.1 				"/>
			</g>
		</g>
		<g class="st7">
			<g>
				<g>
					<path d="M406.3,661.5c-0.2,0-0.5-0.1-0.7-0.3l-2.8-2.7c-0.4-0.4-0.4-1,0-1.4s1-0.4,1.4,0l2.8,2.7c0.4,0.4,0.4,1,0,1.4
						C406.9,661.4,406.6,661.5,406.3,661.5z"/>
				</g>
			</g>
			<g>
				<g>
					<path d="M403.5,664.3c-0.3,0-0.5-0.1-0.7-0.3c-0.4-0.4-0.4-1,0-1.4l2.8-2.7c0.4-0.4,1-0.4,1.4,0s0.4,1,0,1.4l-2.8,2.7
						C404,664.2,403.7,664.3,403.5,664.3z"/>
				</g>
			</g>
		</g>
	</g>
	<g>
		<g>
			<g>
				<circle class="st5" cx="64.2" cy="614.3" r="2.8"/>
			</g>
			<g>
				<path d="M64.2,618.2c-2.1,0-3.8-1.7-3.8-3.8s1.7-3.8,3.8-3.8c2.1,0,3.8,1.7,3.8,3.8S66.3,618.2,64.2,618.2z M64.2,612.5
					c-1,0-1.8,0.8-1.8,1.8s0.8,1.8,1.8,1.8c1,0,1.8-0.8,1.8-1.8S65.2,612.5,64.2,612.5z"/>
			</g>
		</g>
		<g>
			<g>
				<path class="st5" d="M72.5,602.4c-0.1-0.3-0.1-0.6-0.2-0.9c-0.1-5.6-2.8-10.2-7.8-10.2s-7.6,4.5-7.8,10.2c0,0.3-0.1,0.6-0.2,0.9
					l-2.4,7c-0.7,1.9,0.8,3.9,2.8,3.9H72c2,0,3.4-2,2.8-3.9L72.5,602.4z"/>
			</g>
			<g>
				<path d="M72.1,614.3H57c-1.3,0-2.5-0.6-3.2-1.7c-0.7-1-0.9-2.3-0.5-3.6l2.4-7c0.1-0.2,0.1-0.4,0.1-0.6
					c0.2-6.8,3.6-11.1,8.8-11.1s8.6,4.4,8.8,11.1c0,0.2,0,0.4,0.1,0.6l2.4,7c0.4,1.2,0.2,2.5-0.5,3.6
					C74.5,613.7,73.4,614.3,72.1,614.3z M64.5,592.4c-4.8,0-6.7,4.7-6.8,9.2c0,0.4-0.1,0.8-0.2,1.2l-2.4,7c-0.2,0.6-0.1,1.2,0.3,1.8
					c0.4,0.5,0.9,0.8,1.6,0.8h15.1c0.6,0,1.2-0.3,1.6-0.8s0.5-1.2,0.3-1.8l-2.4-7c-0.1-0.4-0.2-0.8-0.2-1.2
					C71.2,597.1,69.4,592.4,64.5,592.4z"/>
			</g>
		</g>
	</g>
	<g>
		<g>
			<path class="st5" d="M77,649h-1.4l0,0c0-1.5-0.4-2.9-1-4.2c0.1,0,0.1,0,0.2-0.1L76,644c0.3-0.2,0.5-0.6,0.3-1
				c-0.2-0.3-0.6-0.5-1-0.3l-1.2,0.7c-0.1,0-0.1,0.1-0.1,0.1c-0.7-1.1-1.6-2.1-2.6-2.9c0.1-0.1,0.1-0.1,0.2-0.2l0.7-1.2
				c0.2-0.3,0.1-0.8-0.3-1l0,0c-0.3-0.2-0.8-0.1-1,0.3l-0.7,1.2c0,0,0,0.1-0.1,0.1c-1.4-0.9-3.1-1.4-4.8-1.5l0,0V637
				c0-0.4-0.3-0.7-0.7-0.7c-0.4,0-0.7,0.3-0.7,0.7v1.4l0,0c-1.5,0.1-2.9,0.5-4.2,1.1c0,0,0-0.1-0.1-0.1l-0.7-1.2
				c-0.2-0.3-0.6-0.5-1-0.3l0,0c-0.3,0.2-0.5,0.6-0.3,1l0.7,1.2l0.1,0.1c-1.2,0.8-2.2,1.9-3,3.1c-0.1-0.1-0.1-0.2-0.2-0.2l-1.2-0.7
				c-0.3-0.2-0.8-0.1-1,0.3c-0.2,0.3-0.1,0.8,0.3,1l1.2,0.7c0.1,0.1,0.2,0.1,0.3,0.1c-0.6,1.3-1,2.7-1.1,4.3
				c-0.1-0.1-0.3-0.2-0.4-0.2H52c-0.4,0-0.7,0.3-0.7,0.7s0.3,0.7,0.7,0.7h1.4c0.2,0,0.3-0.1,0.4-0.2c0.1,1.5,0.5,3,1.1,4.3
				c-0.1,0-0.2,0-0.3,0.1l-1.2,0.7c-0.3,0.2-0.5,0.6-0.3,1s0.6,0.5,1,0.3l1.2-0.7c0.1,0,0.2-0.1,0.2-0.2c0.7,1.1,1.7,2.1,2.8,2.9
				l-0.7,1.2c-0.2,0.3-0.1,0.8,0.3,1l0,0c0.3,0.2,0.8,0.1,1-0.3l0.6-1.1c1.3,0.7,2.8,1.1,4.4,1.2l0,0v1.4c0,0.4,0.3,0.7,0.7,0.7
				c0.4,0,0.7-0.3,0.7-0.7v-1.4l0,0c1.4-0.1,2.7-0.4,3.9-1l0.7,1.2c0.2,0.3,0.6,0.5,1,0.3l0,0c0.3-0.2,0.5-0.6,0.3-1l-0.7-1.2
				c1.3-0.8,2.4-1.9,3.2-3.2l1.1,0.6c0.3,0.2,0.8,0.1,1-0.3c0.2-0.3,0.1-0.8-0.3-1l-1.1-0.6c0.6-1.1,0.9-2.4,1.1-3.7c0,0,0,0,0.1,0
				H77c0.4,0,0.7-0.3,0.7-0.7C77.7,649.3,77.4,649,77,649z M64.7,654.3c-2.8,0-5-2.2-5-5s2.2-5,5-5c2.8,0,5,2.2,5,5
				C69.7,652,67.5,654.3,64.7,654.3z"/>
		</g>
		<g>
			<path d="M64.7,663.3c-0.9,0-1.7-0.8-1.7-1.7V661c-1-0.1-2-0.4-3-0.8l-0.2,0.3c-0.2,0.4-0.6,0.7-1,0.8s-0.9,0.1-1.3-0.2
				c-0.4-0.2-0.7-0.6-0.8-1s-0.1-0.9,0.2-1.3l0.2-0.4c-0.6-0.5-1.2-1.1-1.7-1.8l-0.7,0.4c-0.8,0.5-1.9,0.2-2.3-0.6
				c-0.5-0.8-0.2-1.9,0.6-2.3l0.7-0.4c-0.3-0.9-0.6-1.8-0.7-2.7h-1c-0.9,0-1.7-0.8-1.7-1.7s0.8-1.7,1.7-1.7h1
				c0.1-0.9,0.4-1.8,0.7-2.6l-0.7-0.4c-0.4-0.2-0.7-0.6-0.8-1s-0.1-0.9,0.2-1.3c0.5-0.8,1.5-1.1,2.3-0.6l0.7,0.3
				c0.6-0.7,1.2-1.4,2-2l-0.3-0.6c-0.2-0.4-0.3-0.9-0.2-1.3c0.1-0.4,0.4-0.8,0.8-1c0.4-0.2,0.9-0.3,1.3-0.2c0.4,0.1,0.8,0.4,1,0.8
				l0.3,0.6c0.9-0.4,1.8-0.6,2.8-0.8V637c0-0.9,0.8-1.7,1.7-1.7c0.9,0,1.6,0.7,1.6,1.7v0.5c1.2,0.2,2.4,0.5,3.4,1.1l0.3-0.5
				c0.5-0.8,1.5-1.1,2.3-0.6s1.1,1.5,0.6,2.3l-0.4,0.7c0.6,0.5,1.1,1.1,1.6,1.8l0.6-0.3c0.8-0.5,1.9-0.2,2.3,0.6
				c0.5,0.8,0.2,1.9-0.6,2.3l-0.7,0.4c0.3,0.9,0.5,1.8,0.6,2.7h0.5c0.9,0,1.7,0.8,1.7,1.7s-0.8,1.7-1.7,1.7h-0.5
				c-0.1,0.8-0.4,1.5-0.7,2.3l0.3,0.2c0.8,0.5,1.1,1.5,0.6,2.3s-1.5,1.1-2.3,0.6l-0.3-0.2c-0.6,0.8-1.4,1.5-2.2,2.1l0.2,0.4
				c0.2,0.4,0.3,0.9,0.2,1.3c-0.1,0.4-0.4,0.8-0.8,1s-0.9,0.3-1.3,0.2s-0.8-0.4-1-0.8l-0.3-0.4c-0.8,0.3-1.6,0.5-2.4,0.6v0.5
				C66.4,662.5,65.7,663.3,64.7,663.3z M59.5,657.7l0.6,0.3c1.2,0.7,2.6,1,4,1.1h0.6h0.6c1.2-0.1,2.4-0.4,3.5-0.9l0.6-0.3l0.5-0.3
				c1.2-0.7,2.2-1.7,2.9-2.9l0.4-0.5l0.3-0.6c0.5-1.1,0.9-2.2,1-3.4l0.1-0.6V649c0-1.3-0.3-2.6-0.9-3.8l0,0l-0.6-1
				c-0.6-1-1.4-1.9-2.4-2.7l-0.1-0.1l-0.9-0.6c-1.3-0.8-2.9-1.3-4.4-1.4h-0.6h-0.6c-1.3,0.1-2.6,0.4-3.8,1h-0.1l0,0l-1,0.6
				c-1.1,0.7-2,1.7-2.8,2.8l-0.3,0.5l-0.2,0.5c-0.6,1.2-0.9,2.5-1,3.9v0.5v0.5c0.1,1.4,0.4,2.7,1,3.9l0.3,0.5l0.3,0.5
				c0.7,1,1.5,1.9,2.5,2.6L59.5,657.7z M75.6,643.2L75.6,643.2L75.6,643.2z M58.2,638.7L58.2,638.7L58.2,638.7z M64.7,655.3
				c-3.3,0-6-2.7-6-6s2.7-6,6-6c3.3,0,6,2.7,6,6S68,655.3,64.7,655.3z M64.7,645.3c-2.2,0-4,1.8-4,4s1.8,4,4,4c2.2,0,4-1.8,4-4
				S66.9,645.3,64.7,645.3z"/>
		</g>
	</g>
</g>
</svg>
