<?xml version="1.0" encoding="utf-8"?>
<!-- Generator: Adobe Illustrator 22.0.1, SVG Export Plug-In . SVG Version: 6.00 Build 0)  -->
<svg version="1.1" id="Layer_1" xmlns="http://www.w3.org/2000/svg" xmlns:xlink="http://www.w3.org/1999/xlink" x="0px" y="0px"
	 viewBox="0 0 150 150" style="enable-background:new 0 0 150 150;" xml:space="preserve">
<style type="text/css">
	.st0{fill:#351F67;}
	.st1{fill:#FFFFFF;}
	.st2{fill:#F2F2F2;}
</style>
<g>
	<g>
		<path class="st0" d="M104.1,113.8H45.9c-5.3,0-9.6-4.3-9.6-9.6V45.8c0-5.3,4.3-9.6,9.6-9.6h58.3c5.3,0,9.6,4.3,9.6,9.6v58.3
			C113.7,109.5,109.4,113.8,104.1,113.8z"/>
		<path d="M104.1,114.6H45.9c-5.7,0-10.4-4.7-10.4-10.4V45.8c0-5.7,4.7-10.4,10.4-10.4h58.3c5.7,0,10.4,4.7,10.4,10.4v58.3
			C114.5,109.9,109.8,114.6,104.1,114.6z M45.8,37.1C41,37.1,37,41,37,45.9v58.3c0,4.8,3.9,8.8,8.8,8.8h58.3c4.8,0,8.8-3.9,8.8-8.8
			V45.8c0-4.8-3.9-8.8-8.8-8.8L45.8,37.1L45.8,37.1z"/>
	</g>
	<g>
		<g>
			<path class="st1" d="M67.3,76.9l2.6-0.2l5,12.4l5.2-12.2h2.3l0.5,18.4l-2.8-0.1V83.8l-0.5-0.1l-3.8,8.8l-1.9-0.1l-4.4-8.5
				l0.4-0.1v11.5H67L67.3,76.9z"/>
		</g>
	</g>
	<g>
		<path class="st2" d="M97.4,100.8h-45V71.4h45V100.8z M54,99.2h41.8V73H54V99.2z"/>
	</g>
	<g>
		<g>
			<path class="st2" d="M68.4,62.3l-8.8-2.1l-1.3-10l8.8,2.1L68.4,62.3z M61,58.9l5.5,1.3l-0.9-6.6l-5.5-1.3L61,58.9z"/>
		</g>
		<g>
			<path class="st2" d="M75.5,64l-8.8-2.1l-1.3-10l8.8,2.1L75.5,64z M68.1,60.6l5.5,1.3l-0.9-6.6L67.2,54L68.1,60.6z"/>
		</g>
		<g>
			<path class="st2" d="M61.2,60.6l-8.6-2.1l2.2-9.1l5,1.2L61.2,60.6z M54.6,57.3l4.7,1.1l-0.9-6.6L56,51.2L54.6,57.3z"/>
		</g>
		<g>
			<path class="st2" d="M89.7,67.4l-8.8-2.1l-1.3-10l8.8,2.1L89.7,67.4z M82.4,64l5.5,1.3L87,58.7l-5.5-1.3L82.4,64z"/>
		</g>
		<g>
			<path class="st2" d="M95,68.7L88,67l-1.3-10l10.5,2.5L95,68.7z M89.5,65.7l4.3,1l1.4-6l-6.7-1.6L89.5,65.7z"/>
		</g>
		<g>
			<path class="st2" d="M82.6,65.7l-8.8-2.1l-1.3-10l8.8,2.1L82.6,65.7z M75.2,62.3l5.5,1.3L79.8,57l-5.5-1.3L75.2,62.3z"/>
		</g>
	</g>
</g>
<rect x="-176" y="10" class="st1" width="130" height="130"/>
<g>
	<g>
		<path class="st0" d="M-81.9,113.8h-58.3c-5.3,0-9.6-4.3-9.6-9.6V45.8c0-5.3,4.3-9.6,9.6-9.6h58.3c5.3,0,9.6,4.3,9.6,9.6v58.3
			C-72.3,109.5-76.6,113.8-81.9,113.8z"/>
		<path d="M-81.9,114.6h-58.3c-5.7,0-10.4-4.7-10.4-10.4V45.8c0-5.7,4.7-10.4,10.4-10.4h58.3c5.7,0,10.4,4.7,10.4,10.4v58.3
			C-71.5,109.9-76.2,114.6-81.9,114.6z M-140.2,37.1c-4.8,0-8.8,3.9-8.8,8.8v58.3c0,4.8,3.9,8.8,8.8,8.8h58.3c4.8,0,8.8-3.9,8.8-8.8
			V45.8c0-4.8-3.9-8.8-8.8-8.8L-140.2,37.1L-140.2,37.1z"/>
	</g>
	<g>
		<g>
			<path class="st1" d="M-118.7,76.9l2.6-0.2l5,12.4l5.2-12.2h2.3l0.5,18.4l-2.8-0.1V83.8l-0.5-0.1l-3.8,8.8l-1.9-0.1l-4.4-8.5
				l0.4-0.1v11.5h-2.9L-118.7,76.9z"/>
		</g>
	</g>
	<g>
		<path class="st2" d="M-88.6,100.8h-45V71.4h45V100.8z M-132,99.2h41.8V73H-132V99.2z"/>
	</g>
	<g>
		<g>
			<path class="st2" d="M-117.6,62.3l-8.8-2.1l-1.3-10l8.8,2.1L-117.6,62.3z M-125,58.9l5.5,1.3l-0.9-6.6l-5.5-1.3L-125,58.9z"/>
		</g>
		<g>
			<path class="st2" d="M-110.5,64l-8.8-2.1l-1.3-10l8.8,2.1L-110.5,64z M-117.9,60.6l5.5,1.3l-0.9-6.6l-5.5-1.3L-117.9,60.6z"/>
		</g>
		<g>
			<path class="st2" d="M-124.8,60.6l-8.6-2.1l2.2-9.1l5,1.2L-124.8,60.6z M-131.4,57.3l4.7,1.1l-0.9-6.6l-2.4-0.6L-131.4,57.3z"/>
		</g>
		<g>
			<path class="st2" d="M-96.3,67.4l-8.8-2.1l-1.3-10l8.8,2.1L-96.3,67.4z M-103.6,64l5.5,1.3l-0.9-6.6l-5.5-1.3L-103.6,64z"/>
		</g>
		<g>
			<path class="st2" d="M-91,68.7l-7-1.7l-1.3-10l10.5,2.5L-91,68.7z M-96.5,65.7l4.3,1l1.4-6l-6.7-1.6L-96.5,65.7z"/>
		</g>
		<g>
			<path class="st2" d="M-103.4,65.7l-8.8-2.1l-1.3-10l8.8,2.1L-103.4,65.7z M-110.8,62.3l5.5,1.3l-0.9-6.6l-5.5-1.3L-110.8,62.3z"
				/>
		</g>
	</g>
</g>
</svg>
