<?xml version="1.0" encoding="utf-8"?>
<!-- Generator: Adobe Illustrator 22.0.1, SVG Export Plug-In . SVG Version: 6.00 Build 0)  -->
<svg version="1.1" id="Layer_1" xmlns="http://www.w3.org/2000/svg" xmlns:xlink="http://www.w3.org/1999/xlink" x="0px" y="0px"
	 viewBox="0 0 150 150" style="enable-background:new 0 0 150 150;" xml:space="preserve">
<style type="text/css">
	.st0{fill:#EDBB62;}
	.st1{fill:#F0AA21;}
	.st2{fill:#FFFFFF;}
</style>
<g>
	<g>
		<g>
			<path class="st0" d="M104.4,113.1H45.5c-5.2,0-9.4-4.2-9.4-9.4V46.3c0-5.2,4.2-9.4,9.4-9.4h58.9c5.2,0,9.4,4.2,9.4,9.4v57.4
				C113.9,108.9,109.6,113.1,104.4,113.1z"/>
			<path d="M104.4,113.9H45.5c-5.6,0-10.2-4.6-10.2-10.2V46.3c0-5.6,4.6-10.2,10.2-10.2h58.9c5.6,0,10.2,4.6,10.2,10.2v57.4
				C114.7,109.3,110.1,113.9,104.4,113.9z M45.5,37.7c-4.8,0-8.6,3.9-8.6,8.6v57.4c0,4.8,3.9,8.6,8.6,8.6h58.9
				c4.8,0,8.6-3.9,8.6-8.6V46.3c0-4.8-3.9-8.6-8.6-8.6H45.5z"/>
		</g>
		<g>
			<path class="st1" d="M102,61.6l-4.5-3c-2-1.4-4.5-2.1-6.9-2.1H75H62.1c-4.2,0-8.4,1.3-11.9,3.6L48,61.6c-1.4,0.9-1.6,2.9-0.5,4.1
				l4.4,5.1c0.9,1,2.3,1.3,3.5,0.7l2.2-1.1c1-0.5,2.2,0.4,2,1.5l-4.4,20.4c-0.3,1.5,0.8,3,2.4,3h17.5h17.5c1.6,0,2.7-1.5,2.4-3
				l-4.4-20.4c-0.2-1.1,0.9-2.1,2-1.5l2.2,1.1c1.2,0.6,2.6,0.3,3.5-0.7l4.4-5.1C103.6,64.4,103.4,62.5,102,61.6z"/>
			<path d="M92.4,96H57.5c-1,0-1.9-0.4-2.5-1.2c-0.6-0.8-0.9-1.8-0.6-2.7l4.4-20.4c0.1-0.3-0.1-0.5-0.2-0.6S58.3,70.9,58,71
				l-2.2,1.1c-1.5,0.7-3.3,0.4-4.4-0.9L47,66.1c-0.7-0.8-1-1.8-0.8-2.8c0.1-1,0.7-1.9,1.6-2.5l2.2-1.5c3.7-2.4,7.9-3.7,12.3-3.7
				h28.5c2.6,0,5.2,0.8,7.4,2.2l4.5,3c0.9,0.6,1.4,1.5,1.6,2.5c0.1,1-0.2,2-0.8,2.8l-4.4,5.1c-1.1,1.3-2.9,1.6-4.4,0.9L92.5,71
				c-0.3-0.2-0.6,0-0.6,0.1c-0.1,0.1-0.3,0.3-0.2,0.6l4.4,20.4c0.2,1,0,2-0.6,2.7C94.3,95.6,93.4,96,92.4,96z M58.2,69.4
				c0.5,0,0.9,0.2,1.3,0.5c0.7,0.5,1,1.4,0.8,2.2l-4.4,20.4c-0.1,0.5,0,1,0.3,1.4s0.8,0.6,1.3,0.6h34.9c0.5,0,1-0.2,1.3-0.6
				s0.4-0.9,0.3-1.4l-4.4-20.4c-0.2-0.8,0.1-1.7,0.8-2.2c0.7-0.5,1.6-0.6,2.3-0.2l2.2,1.1c0.9,0.4,1.9,0.2,2.5-0.5l4.4-5.1
				c0.4-0.4,0.5-1,0.5-1.6c-0.1-0.6-0.4-1.1-0.9-1.4l-4.5-3c-1.9-1.3-4.2-2-6.5-2H61.9c-4.1,0-8.1,1.2-11.5,3.5l-2.2,1.5
				c-0.5,0.3-0.8,0.8-0.9,1.4s0.1,1.1,0.5,1.6l4.4,5.1c0.6,0.7,1.7,0.9,2.5,0.5l2.2-1.1C57.5,69.5,57.9,69.4,58.2,69.4z"/>
		</g>
		<g>
			<g>
				<circle class="st2" cx="75" cy="75.7" r="10.2"/>
				<path d="M75,86.7c-6.1,0-11-4.9-11-11s4.9-11,11-11s11,4.9,11,11C86,81.7,81,86.7,75,86.7z M75,66.2c-5.2,0-9.4,4.2-9.4,9.4
					c0,5.2,4.2,9.4,9.4,9.4c5.2,0,9.4-4.2,9.4-9.4C84.4,70.5,80.2,66.2,75,66.2z"/>
			</g>
			<g>
				<g>
					<circle cx="71.9" cy="72.2" r="1"/>
				</g>
				<g>
					<circle cx="77.4" cy="72.2" r="1"/>
				</g>
			</g>
			<g>
				<path d="M68.7,68.4c-0.1,0-0.3,0-0.4-0.1l-2.6-1.5c-0.4-0.2-0.5-0.7-0.3-1.1s0.7-0.5,1.1-0.3l2.2,1.2l1.2-0.7l-1.1-3
					c-0.2-0.4,0-0.9,0.5-1c0.4-0.2,0.9,0,1,0.5l1.4,3.6c0.1,0.4,0,0.8-0.3,1l-2.2,1.3C69,68.3,68.9,68.4,68.7,68.4z"/>
			</g>
		</g>
	</g>
</g>
<rect x="-164" y="10" class="st2" width="130" height="130"/>
<g>
	<g>
		<g>
			<path class="st0" d="M-69.6,113.1h-58.9c-5.2,0-9.4-4.2-9.4-9.4V46.3c0-5.2,4.2-9.4,9.4-9.4h58.9c5.2,0,9.4,4.2,9.4,9.4v57.4
				C-60.1,108.9-64.4,113.1-69.6,113.1z"/>
			<path d="M-69.6,113.9h-58.9c-5.6,0-10.2-4.6-10.2-10.2V46.3c0-5.6,4.6-10.2,10.2-10.2h58.9c5.6,0,10.2,4.6,10.2,10.2v57.4
				C-59.3,109.3-63.9,113.9-69.6,113.9z M-128.5,37.7c-4.8,0-8.6,3.9-8.6,8.6v57.4c0,4.8,3.9,8.6,8.6,8.6h58.9
				c4.8,0,8.6-3.9,8.6-8.6V46.3c0-4.8-3.9-8.6-8.6-8.6H-128.5z"/>
		</g>
		<g>
			<path class="st1" d="M-72,61.6l-4.5-3c-2-1.4-4.5-2.1-6.9-2.1H-99h-12.9c-4.2,0-8.4,1.3-11.9,3.6l-2.2,1.5
				c-1.4,0.9-1.6,2.9-0.5,4.1l4.4,5.1c0.9,1,2.3,1.3,3.5,0.7l2.2-1.1c1-0.5,2.2,0.4,2,1.5l-4.4,20.4c-0.3,1.5,0.8,3,2.4,3h17.5h17.5
				c1.6,0,2.7-1.5,2.4-3l-4.4-20.4c-0.2-1.1,0.9-2.1,2-1.5l2.2,1.1c1.2,0.6,2.6,0.3,3.5-0.7l4.4-5.1C-70.4,64.4-70.6,62.5-72,61.6z"
				/>
			<path d="M-81.6,96h-34.9c-1,0-1.9-0.4-2.5-1.2c-0.6-0.8-0.9-1.8-0.6-2.7l4.4-20.4c0.1-0.3-0.1-0.5-0.2-0.6s-0.3-0.2-0.6-0.1
				l-2.2,1.1c-1.5,0.7-3.3,0.4-4.4-0.9l-4.4-5.1c-0.7-0.8-1-1.8-0.8-2.8c0.1-1,0.7-1.9,1.6-2.5l2.2-1.5c3.7-2.4,7.9-3.7,12.3-3.7
				h28.5c2.6,0,5.2,0.8,7.4,2.2l4.5,3c0.9,0.6,1.4,1.5,1.6,2.5c0.1,1-0.2,2-0.8,2.8l-4.4,5.1c-1.1,1.3-2.9,1.6-4.4,0.9l-2.2-1.1
				c-0.3-0.2-0.6,0-0.6,0.1c-0.1,0.1-0.3,0.3-0.2,0.6l4.4,20.4c0.2,1,0,2-0.6,2.7C-79.7,95.6-80.6,96-81.6,96z M-115.8,69.4
				c0.5,0,0.9,0.2,1.3,0.5c0.7,0.5,1,1.4,0.8,2.2l-4.4,20.4c-0.1,0.5,0,1,0.3,1.4s0.8,0.6,1.3,0.6h34.9c0.5,0,1-0.2,1.3-0.6
				s0.4-0.9,0.3-1.4l-4.4-20.4c-0.2-0.8,0.1-1.7,0.8-2.2c0.7-0.5,1.6-0.6,2.3-0.2l2.2,1.1c0.9,0.4,1.9,0.2,2.5-0.5l4.4-5.1
				c0.4-0.4,0.5-1,0.5-1.6c-0.1-0.6-0.4-1.1-0.9-1.4l-4.5-3c-1.9-1.3-4.2-2-6.5-2h-28.5c-4.1,0-8.1,1.2-11.5,3.5l-2.2,1.5
				c-0.5,0.3-0.8,0.8-0.9,1.4s0.1,1.1,0.5,1.6l4.4,5.1c0.6,0.7,1.7,0.9,2.5,0.5l2.2-1.1C-116.5,69.5-116.1,69.4-115.8,69.4z"/>
		</g>
		<g>
			<g>
				<circle class="st2" cx="-99" cy="75.7" r="10.2"/>
				<path d="M-99,86.7c-6.1,0-11-4.9-11-11s4.9-11,11-11s11,4.9,11,11C-88,81.7-93,86.7-99,86.7z M-99,66.2c-5.2,0-9.4,4.2-9.4,9.4
					c0,5.2,4.2,9.4,9.4,9.4c5.2,0,9.4-4.2,9.4-9.4C-89.6,70.5-93.8,66.2-99,66.2z"/>
			</g>
			<g>
				<g>
					<circle cx="-102.1" cy="72.2" r="1"/>
				</g>
				<g>
					<circle cx="-96.6" cy="72.2" r="1"/>
				</g>
			</g>
			<g>
				<path d="M-105.3,68.4c-0.1,0-0.3,0-0.4-0.1l-2.6-1.5c-0.4-0.2-0.5-0.7-0.3-1.1s0.7-0.5,1.1-0.3l2.2,1.2l1.2-0.7l-1.1-3
					c-0.2-0.4,0-0.9,0.5-1c0.4-0.2,0.9,0,1,0.5l1.4,3.6c0.1,0.4,0,0.8-0.3,1l-2.2,1.3C-105,68.3-105.1,68.4-105.3,68.4z"/>
			</g>
		</g>
	</g>
</g>
</svg>
