<?xml version="1.0" encoding="utf-8"?>
<!-- Generator: Adobe Illustrator 22.0.1, SVG Export Plug-In . SVG Version: 6.00 Build 0)  -->
<svg version="1.1" id="Layer_1" xmlns="http://www.w3.org/2000/svg" xmlns:xlink="http://www.w3.org/1999/xlink" x="0px" y="0px"
	 viewBox="0 0 150 150" style="enable-background:new 0 0 150 150;" xml:space="preserve">
<style type="text/css">
	.st0{fill:url(#SVGID_1_);stroke:#000000;stroke-width:2;stroke-miterlimit:10;}
	.st1{fill:#FFFFFF;stroke:#000000;stroke-width:2;stroke-miterlimit:10;}
	.st2{fill:url(#SVGID_2_);stroke:#000000;stroke-width:2;stroke-miterlimit:10;}
	.st3{fill:#FFFFFF;}
	.st4{fill:url(#SVGID_3_);stroke:#000000;stroke-width:2;stroke-miterlimit:10;}
	.st5{fill:url(#SVGID_4_);stroke:#000000;stroke-width:2;stroke-miterlimit:10;}
</style>
<g>
	
		<linearGradient id="SVGID_1_" gradientUnits="userSpaceOnUse" x1="32.8" y1="77" x2="117.2" y2="77" gradientTransform="matrix(1 0 0 -1 0 152)">
		<stop  offset="6.995192e-02" style="stop-color:#FBB03B"/>
		<stop  offset="0.1022" style="stop-color:#DB7347"/>
		<stop  offset="0.1284" style="stop-color:#C4484F"/>
		<stop  offset="0.1417" style="stop-color:#BB3852"/>
		<stop  offset="0.2008" style="stop-color:#B22755"/>
		<stop  offset="0.2148" style="stop-color:#AB1958"/>
		<stop  offset="0.2296" style="stop-color:#A6105A"/>
		<stop  offset="0.24" style="stop-color:#A2095B"/>
		<stop  offset="0.2608" style="stop-color:#9F025D"/>
		<stop  offset="0.3189" style="stop-color:#9E005D"/>
		<stop  offset="0.3648" style="stop-color:#A0015D"/>
		<stop  offset="0.3903" style="stop-color:#A8045C"/>
		<stop  offset="0.4108" style="stop-color:#B6095C"/>
		<stop  offset="0.4285" style="stop-color:#CA105B"/>
		<stop  offset="0.4358" style="stop-color:#D4145A"/>
		<stop  offset="0.4726" style="stop-color:#CF195F"/>
		<stop  offset="0.5179" style="stop-color:#C0286E"/>
		<stop  offset="0.5676" style="stop-color:#A84087"/>
		<stop  offset="0.6205" style="stop-color:#8761AA"/>
		<stop  offset="0.6753" style="stop-color:#5D8BD6"/>
		<stop  offset="0.7087" style="stop-color:#3FA9F5"/>
		<stop  offset="0.7427" style="stop-color:#5798DC"/>
		<stop  offset="0.9215" style="stop-color:#CF4059"/>
		<stop  offset="1" style="stop-color:#FF1D25"/>
	</linearGradient>
	<path class="st0" d="M75,32.8c-23.3,0-42.2,18.9-42.2,42.2s18.9,42.2,42.2,42.2c23.3,0,42.2-18.9,42.2-42.2
		C117.2,51.7,98.3,32.8,75,32.8z M75,110c-19.3,0-35-15.6-35-35s15.6-35,35-35c19.3,0,35,15.6,35,35S94.3,110,75,110z"/>
	<circle class="st1" cx="75" cy="75" r="35.4"/>
	
		<linearGradient id="SVGID_2_" gradientUnits="userSpaceOnUse" x1="54.5943" y1="76.9196" x2="90.0205" y2="76.9196" gradientTransform="matrix(1 0 0 -1 0 152)">
		<stop  offset="6.995192e-02" style="stop-color:#FBB03B"/>
		<stop  offset="0.1022" style="stop-color:#DB7347"/>
		<stop  offset="0.1284" style="stop-color:#C4484F"/>
		<stop  offset="0.1417" style="stop-color:#BB3852"/>
		<stop  offset="0.2008" style="stop-color:#B22755"/>
		<stop  offset="0.2148" style="stop-color:#AB1958"/>
		<stop  offset="0.2296" style="stop-color:#A6105A"/>
		<stop  offset="0.24" style="stop-color:#A2095B"/>
		<stop  offset="0.2608" style="stop-color:#9F025D"/>
		<stop  offset="0.3189" style="stop-color:#9E005D"/>
		<stop  offset="0.3648" style="stop-color:#A0015D"/>
		<stop  offset="0.3903" style="stop-color:#A8045C"/>
		<stop  offset="0.4108" style="stop-color:#B6095C"/>
		<stop  offset="0.4285" style="stop-color:#CA105B"/>
		<stop  offset="0.4358" style="stop-color:#D4145A"/>
		<stop  offset="0.4726" style="stop-color:#CF195F"/>
		<stop  offset="0.5179" style="stop-color:#C0286E"/>
		<stop  offset="0.5676" style="stop-color:#A84087"/>
		<stop  offset="0.6205" style="stop-color:#8761AA"/>
		<stop  offset="0.6753" style="stop-color:#5D8BD6"/>
		<stop  offset="0.7087" style="stop-color:#3FA9F5"/>
		<stop  offset="0.7427" style="stop-color:#5798DC"/>
		<stop  offset="0.9215" style="stop-color:#CF4059"/>
		<stop  offset="1" style="stop-color:#FF1D25"/>
	</linearGradient>
	<path class="st2" d="M89.9,85.5c-0.1-0.3-0.2-0.5-0.3-0.7c0.1-0.2,0.1-0.4,0.1-0.7V59c0-0.9-0.7-1.6-1.6-1.6c-0.1,0-0.2,0-0.3,0
		c-0.1,0-0.2,0-0.3,0H68.4c-0.1,0-0.2,0-0.3,0c-0.1,0-0.2,0-0.3,0c-0.9,0-1.7,0.7-1.7,1.6v23.2c-1.5-0.5-3.3-0.6-5.2-0.1
		c-4.1,1-6.8,4.1-6.1,6.9s4.5,4.3,8.6,3.4c4.1-1,6.8-4.1,6.1-6.9c-0.1-0.3-0.2-0.5-0.3-0.7c0.1-0.2,0.1-0.4,0.1-0.7V62h17.2v20.3
		c-1.5-0.5-3.3-0.6-5.2-0.1c-4.1,1-6.8,4.1-6.1,6.9c0.7,2.8,4.5,4.3,8.6,3.4C87.8,91.4,90.6,88.3,89.9,85.5z"/>
</g>
<rect x="-154" y="10" class="st3" width="130" height="130"/>
<g>
	
		<linearGradient id="SVGID_3_" gradientUnits="userSpaceOnUse" x1="-131.2" y1="77" x2="-46.8" y2="77" gradientTransform="matrix(1 0 0 -1 0 152)">
		<stop  offset="6.995192e-02" style="stop-color:#FBB03B"/>
		<stop  offset="0.1022" style="stop-color:#DB7347"/>
		<stop  offset="0.1284" style="stop-color:#C4484F"/>
		<stop  offset="0.1417" style="stop-color:#BB3852"/>
		<stop  offset="0.2008" style="stop-color:#B22755"/>
		<stop  offset="0.2148" style="stop-color:#AB1958"/>
		<stop  offset="0.2296" style="stop-color:#A6105A"/>
		<stop  offset="0.24" style="stop-color:#A2095B"/>
		<stop  offset="0.2608" style="stop-color:#9F025D"/>
		<stop  offset="0.3189" style="stop-color:#9E005D"/>
		<stop  offset="0.3648" style="stop-color:#A0015D"/>
		<stop  offset="0.3903" style="stop-color:#A8045C"/>
		<stop  offset="0.4108" style="stop-color:#B6095C"/>
		<stop  offset="0.4285" style="stop-color:#CA105B"/>
		<stop  offset="0.4358" style="stop-color:#D4145A"/>
		<stop  offset="0.4726" style="stop-color:#CF195F"/>
		<stop  offset="0.5179" style="stop-color:#C0286E"/>
		<stop  offset="0.5676" style="stop-color:#A84087"/>
		<stop  offset="0.6205" style="stop-color:#8761AA"/>
		<stop  offset="0.6753" style="stop-color:#5D8BD6"/>
		<stop  offset="0.7087" style="stop-color:#3FA9F5"/>
		<stop  offset="0.7427" style="stop-color:#5798DC"/>
		<stop  offset="0.9215" style="stop-color:#CF4059"/>
		<stop  offset="1" style="stop-color:#FF1D25"/>
	</linearGradient>
	<path class="st4" d="M-89,32.8c-23.3,0-42.2,18.9-42.2,42.2s18.9,42.2,42.2,42.2c23.3,0,42.2-18.9,42.2-42.2
		C-46.8,51.7-65.7,32.8-89,32.8z M-89,110c-19.3,0-35-15.6-35-35s15.6-35,35-35c19.3,0,35,15.6,35,35S-69.7,110-89,110z"/>
	<circle class="st1" cx="-89" cy="75" r="35.4"/>
	
		<linearGradient id="SVGID_4_" gradientUnits="userSpaceOnUse" x1="-109.4057" y1="76.9196" x2="-73.9795" y2="76.9196" gradientTransform="matrix(1 0 0 -1 0 152)">
		<stop  offset="6.995192e-02" style="stop-color:#FBB03B"/>
		<stop  offset="0.1022" style="stop-color:#DB7347"/>
		<stop  offset="0.1284" style="stop-color:#C4484F"/>
		<stop  offset="0.1417" style="stop-color:#BB3852"/>
		<stop  offset="0.2008" style="stop-color:#B22755"/>
		<stop  offset="0.2148" style="stop-color:#AB1958"/>
		<stop  offset="0.2296" style="stop-color:#A6105A"/>
		<stop  offset="0.24" style="stop-color:#A2095B"/>
		<stop  offset="0.2608" style="stop-color:#9F025D"/>
		<stop  offset="0.3189" style="stop-color:#9E005D"/>
		<stop  offset="0.3648" style="stop-color:#A0015D"/>
		<stop  offset="0.3903" style="stop-color:#A8045C"/>
		<stop  offset="0.4108" style="stop-color:#B6095C"/>
		<stop  offset="0.4285" style="stop-color:#CA105B"/>
		<stop  offset="0.4358" style="stop-color:#D4145A"/>
		<stop  offset="0.4726" style="stop-color:#CF195F"/>
		<stop  offset="0.5179" style="stop-color:#C0286E"/>
		<stop  offset="0.5676" style="stop-color:#A84087"/>
		<stop  offset="0.6205" style="stop-color:#8761AA"/>
		<stop  offset="0.6753" style="stop-color:#5D8BD6"/>
		<stop  offset="0.7087" style="stop-color:#3FA9F5"/>
		<stop  offset="0.7427" style="stop-color:#5798DC"/>
		<stop  offset="0.9215" style="stop-color:#CF4059"/>
		<stop  offset="1" style="stop-color:#FF1D25"/>
	</linearGradient>
	<path class="st5" d="M-74.1,85.5c-0.1-0.3-0.2-0.5-0.3-0.7c0.1-0.2,0.1-0.4,0.1-0.7V59c0-0.9-0.7-1.6-1.6-1.6c-0.1,0-0.2,0-0.3,0
		c-0.1,0-0.2,0-0.3,0h-19.1c-0.1,0-0.2,0-0.3,0c-0.1,0-0.2,0-0.3,0c-0.9,0-1.7,0.7-1.7,1.6v23.2c-1.5-0.5-3.3-0.6-5.2-0.1
		c-4.1,1-6.8,4.1-6.1,6.9s4.5,4.3,8.6,3.4c4.1-1,6.8-4.1,6.1-6.9c-0.1-0.3-0.2-0.5-0.3-0.7c0.1-0.2,0.1-0.4,0.1-0.7V62h17.2v20.3
		c-1.5-0.5-3.3-0.6-5.2-0.1c-4.1,1-6.8,4.1-6.1,6.9c0.7,2.8,4.5,4.3,8.6,3.4C-76.2,91.4-73.4,88.3-74.1,85.5z"/>
</g>
</svg>
