<?xml version="1.0" encoding="utf-8"?>
<!-- Generator: Adobe Illustrator 22.0.1, SVG Export Plug-In . SVG Version: 6.00 Build 0)  -->
<svg version="1.1" id="Layer_1" xmlns="http://www.w3.org/2000/svg" xmlns:xlink="http://www.w3.org/1999/xlink" x="0px" y="0px"
	 viewBox="0 0 150 150" style="enable-background:new 0 0 150 150;" xml:space="preserve">
<style type="text/css">
	.st0{fill:#0F313F;}
	.st1{fill:#BDCCD4;}
	.st2{fill:#76D8FA;}
	.st3{fill:#FFFFFF;}
</style>
<g>
	<g>
		<g>
			<path class="st0" d="M106.5,111.1h-63c-2.5,0-4.6-2.1-4.6-4.6v-63c0-2.5,2.1-4.6,4.6-4.6h63c2.5,0,4.6,2.1,4.6,4.6v63
				C111.1,109,109.1,111.1,106.5,111.1z"/>
			<path d="M106.5,115.1h-63c-4.7,0-8.6-3.9-8.6-8.6v-63c0-4.7,3.9-8.6,8.6-8.6h63c4.7,0,8.6,3.9,8.6,8.6v63
				C115.1,111.2,111.3,115.1,106.5,115.1z M43.6,43c-0.3,0-0.6,0.3-0.6,0.6v63c0,0.3,0.3,0.6,0.6,0.6h63c0.3,0,0.6-0.3,0.6-0.6v-63
				c0-0.3-0.3-0.6-0.6-0.6H43.6z"/>
		</g>
		<g>
			<path class="st0" d="M106.5,111.1h-63c-2.5,0-4.6-2.1-4.6-4.6v-63c0-2.5,2.1-4.6,4.6-4.6h63c2.5,0,4.6,2.1,4.6,4.6v63
				C111.1,109,109.1,111.1,106.5,111.1z"/>
			<path class="st1" d="M106.5,111.9h-63c-3,0-5.4-2.4-5.4-5.4v-63c0-3,2.4-5.4,5.4-5.4h63c3,0,5.4,2.4,5.4,5.4v63
				C111.9,109.5,109.5,111.9,106.5,111.9z M43.6,39.7c-2.1,0-3.8,1.7-3.8,3.8v63c0,2.1,1.7,3.8,3.8,3.8h63c2.1,0,3.8-1.7,3.8-3.8
				v-63c0-2.1-1.7-3.8-3.8-3.8C106.6,39.7,43.6,39.7,43.6,39.7z"/>
		</g>
	</g>
	<g>
		<g>
			<path class="st2" d="M54,56l11.9,0.5l3.8-0.6l3.5,2.3l2.2,3.3l0.9,4.5l-2.1,6.6l-7.7,3.5l-7.9-0.8l0.9,12.9l-4.6-0.3L54,56z
				 M59.5,70.9l6.9,0.6l3.6-2.4l1.6-3.1l-0.1-2.8l-1.6-1.7L66.3,61h-6.6L59.5,70.9z"/>
		</g>
		<g>
			<path class="st2" d="M88.4,83.9l3.4-0.3l0.7-2.4l-0.4-1.6l-1.9-0.8l-4-0.4l-4.8-1.6l-2.1-4.7l3.1-4.9l5.8-2.4l2.8,1h2.5l3.7,2.4
				l-2.6,3.6l-3.1-1.5l-3.2-0.5l-2.7,0.7l-0.8,1.7v1.6l2.6,0.5l3.8-0.1l5.3,2.4l1.1,4.8l-2.5,5.1l-6.7,2.3l-9.8-4.4l2.8-3.6
				L88.4,83.9z"/>
		</g>
	</g>
</g>
<rect x="-171" y="10" class="st3" width="130" height="130"/>
<g>
	<g>
		<g>
			<path class="st0" d="M-74.5,111.1h-63c-2.5,0-4.6-2.1-4.6-4.6v-63c0-2.5,2.1-4.6,4.6-4.6h63c2.5,0,4.6,2.1,4.6,4.6v63
				C-69.9,109-71.9,111.1-74.5,111.1z"/>
			<path d="M-74.5,115.1h-63c-4.7,0-8.6-3.9-8.6-8.6v-63c0-4.7,3.9-8.6,8.6-8.6h63c4.7,0,8.6,3.9,8.6,8.6v63
				C-65.9,111.2-69.7,115.1-74.5,115.1z M-137.4,43c-0.3,0-0.6,0.3-0.6,0.6v63c0,0.3,0.3,0.6,0.6,0.6h63c0.3,0,0.6-0.3,0.6-0.6v-63
				c0-0.3-0.3-0.6-0.6-0.6H-137.4z"/>
		</g>
		<g>
			<path class="st0" d="M-74.5,111.1h-63c-2.5,0-4.6-2.1-4.6-4.6v-63c0-2.5,2.1-4.6,4.6-4.6h63c2.5,0,4.6,2.1,4.6,4.6v63
				C-69.9,109-71.9,111.1-74.5,111.1z"/>
			<path class="st1" d="M-74.5,111.9h-63c-3,0-5.4-2.4-5.4-5.4v-63c0-3,2.4-5.4,5.4-5.4h63c3,0,5.4,2.4,5.4,5.4v63
				C-69.1,109.5-71.5,111.9-74.5,111.9z M-137.4,39.7c-2.1,0-3.8,1.7-3.8,3.8v63c0,2.1,1.7,3.8,3.8,3.8h63c2.1,0,3.8-1.7,3.8-3.8
				v-63c0-2.1-1.7-3.8-3.8-3.8C-74.4,39.7-137.4,39.7-137.4,39.7z"/>
		</g>
	</g>
	<g>
		<g>
			<path class="st2" d="M-127,56l11.9,0.5l3.8-0.6l3.5,2.3l2.2,3.3l0.9,4.5l-2.1,6.6l-7.7,3.5l-7.9-0.8l0.9,12.9l-4.6-0.3L-127,56z
				 M-121.5,70.9l6.9,0.6l3.6-2.4l1.6-3.1l-0.1-2.8l-1.6-1.7l-3.6-0.5h-6.6L-121.5,70.9z"/>
		</g>
		<g>
			<path class="st2" d="M-92.6,83.9l3.4-0.3l0.7-2.4l-0.4-1.6l-1.9-0.8l-4-0.4l-4.8-1.6l-2.1-4.7l3.1-4.9l5.8-2.4l2.8,1h2.5l3.7,2.4
				l-2.6,3.6l-3.1-1.5l-3.2-0.5l-2.7,0.7l-0.8,1.7v1.6l2.6,0.5l3.8-0.1l5.3,2.4l1.1,4.8l-2.5,5.1l-6.7,2.3l-9.8-4.4l2.8-3.6
				L-92.6,83.9z"/>
		</g>
	</g>
</g>
</svg>
