<?xml version="1.0" encoding="utf-8"?>
<!-- Generator: Adobe Illustrator 22.0.1, SVG Export Plug-In . SVG Version: 6.00 Build 0)  -->
<svg version="1.1" id="Layer_1" xmlns="http://www.w3.org/2000/svg" xmlns:xlink="http://www.w3.org/1999/xlink" x="0px" y="0px"
	 viewBox="0 0 132.5 88" style="enable-background:new 0 0 132.5 88;" xml:space="preserve">
<style type="text/css">
	.st0{fill:#1A1A1A;}
	.st1{fill:#BBBABA;}
	.st2{fill:#FF0000;}
	.st3{fill:#FFFFFF;}
</style>
<g>
	<g>
		<path class="st0" d="M129.6,61.4c0.4-0.9,0.7-1.8,0.9-2.7C130.2,59.7,130,60.5,129.6,61.4z"/>
		<path d="M130.5,61.8l-1.8-0.8c0.4-0.8,0.6-1.7,0.8-2.5l2,0.4c0,0,0,0,0,0l0,0c0,0,0,0,0,0C131.2,59.9,130.9,60.9,130.5,61.8
			C130.5,61.8,130.5,61.8,130.5,61.8z"/>
	</g>
	<g>
		<path class="st0" d="M2.9,61.4c-0.4-0.9-0.7-1.8-0.9-2.7C2.2,59.7,2.5,60.5,2.9,61.4z"/>
		<path d="M2,61.8c-0.4-1-0.7-1.9-0.9-2.9l2-0.4c0.2,0.8,0.5,1.7,0.8,2.5L2,61.8z"/>
	</g>
	<g>
		<path class="st0" d="M130.7,57.4c0,0.4-0.1,0.8-0.2,1.1C130.6,58.1,130.6,57.7,130.7,57.4z"/>
		<path d="M131.5,58.7l-2-0.4c0-0.2,0.1-0.4,0.1-0.7c0-0.1,0-0.3,0-0.4l2,0.2c0,0.1,0,0.3,0,0.4C131.6,58.1,131.5,58.4,131.5,58.7z"
			/>
	</g>
	<g>
		<ellipse class="st0" cx="66.2" cy="61.4" rx="63.3" ry="23.5"/>
		<path d="M66.2,85.9C35,85.9,8,75.8,2,61.8l-0.2-0.4L2,61c6-14,33-24.1,64.2-24.1s58.3,10.1,64.2,24.1l0.2,0.4l-0.2,0.4
			C124.5,75.8,97.5,85.9,66.2,85.9z M4,61.4c6,13.1,32,22.5,62.2,22.5c30.2,0,56.2-9.4,62.2-22.5c-6-13.1-32-22.5-62.2-22.5
			C36.1,38.9,10,48.4,4,61.4z"/>
	</g>
	<g>
		<path class="st0" d="M2,58.5c-0.1-0.4-0.1-0.7-0.2-1.1C1.9,57.7,1.9,58.1,2,58.5z"/>
		<path d="M1,58.7C1,58.5,1,58.3,0.9,58c0-0.2-0.1-0.4-0.1-0.6l2-0.2c0,0.2,0,0.4,0.1,0.6C2.9,58,3,58.1,3,58.3L1,58.7z"/>
	</g>
	<g>
		<path class="st1" d="M130.8,55.9c0,0.5,0,1-0.1,1.4C130.7,56.9,130.8,56.4,130.8,55.9z"/>
		<path d="M131.7,57.5l-2-0.2c0-0.4,0.1-0.7,0.1-1c0,0,0,0,0,0l0,0c0-0.1,0-0.2,0-0.3l0,0c0,0,0,0,0,0h2c0,0.2,0,0.3,0,0.5
			C131.7,56.8,131.7,57.1,131.7,57.5z"/>
	</g>
	<g>
		<path class="st1" d="M1.8,57.4c-0.1-0.5-0.1-0.9-0.1-1.4C1.8,56.4,1.8,56.9,1.8,57.4z"/>
		<path d="M0.8,57.5c-0.1-0.5-0.1-1-0.1-1.5c0,0,0,0,0,0c0,0,0,0,0,0c0,0,0,0,0,0c0,0,0,0,0,0c0,0,0,0,0,0c0,0,0,0,0,0c0,0,0,0,0,0
			v0c0,0,0,0,0,0h2c0,0,0,0,0,0v0c0,0,0,0,0,0c0,0,0,0,0,0c0,0,0,0,0,0s0,0,0,0c0,0,0,0,0,0c0,0,0,0,0,0c0,0,0,0,0,0
			c0,0.4,0,0.8,0.1,1.3L0.8,57.5z"/>
	</g>
	<g>
		<path class="st1" d="M130.5,58.5c0,0.1,0,0.2,0,0.3C130.5,58.7,130.5,58.6,130.5,58.5z"/>
		<path d="M131.4,59l-2-0.4l0-0.2l2,0.4l0,0.1C131.4,58.8,131.4,58.9,131.4,59z"/>
	</g>
	<g>
		<polygon class="st1" points="129.6,61.4 129.6,61.4 129.6,61.4 		"/>
	</g>
	<g>
		<path class="st1" d="M2.1,58.7c0-0.1,0-0.2,0-0.3C2,58.6,2,58.7,2.1,58.7z"/>
		<path d="M1.1,59c0-0.1,0-0.1,0-0.2c0,0,0,0,0,0c0,0,0,0,0,0l1-0.3l1-0.2l0,0.2l-1,0.3L1.1,59z"/>
	</g>
	<g>
		<polygon class="st1" points="2.9,61.4 2.9,61.4 2.9,61.4 		"/>
	</g>
	<g>
		<path class="st1" d="M130.5,58.5c0.1-0.4,0.1-0.7,0.2-1.1c0.1-0.5,0.1-0.9,0.1-1.4c0-16-28.9-29-64.5-29s-64.5,13-64.5,29
			c0,0.5,0,1,0.1,1.4c0,0.4,0.1,0.8,0.2,1.1c0,0.1,0,0.2,0,0.3c0.2,0.9,0.5,1.8,0.9,2.7c0,0,0,0,0,0C8.6,48,34.8,37.9,66.2,37.9
			s57.6,10.1,63.3,23.5c0,0,0,0,0,0c0.4-0.9,0.7-1.8,0.9-2.7C130.5,58.7,130.5,58.6,130.5,58.5z"/>
		<path d="M2.9,64L2,61.8c-0.4-0.9-0.7-1.9-0.9-2.9c0-0.1,0-0.1,0-0.2c-0.1-0.5-0.2-0.9-0.2-1.3c-0.1-0.5-0.1-1-0.1-1.5
			c0-16.5,29.4-30,65.5-30c36.1,0,65.5,13.5,65.5,30c0,0.5,0,1-0.1,1.5c0,0.4-0.1,0.8-0.2,1.2l0,0.1c0,0.1,0,0.1,0,0.2
			c-0.2,1-0.5,1.9-0.9,2.9l-0.9,2.2l-0.9-2.2C123,48.6,96.7,38.9,66.2,38.9c-30.5,0-56.7,9.6-62.4,22.9L2.9,64z M66.2,36.9
			c29.6,0,55.4,9.1,63.1,22c0-0.1,0.1-0.2,0.1-0.3l0-0.2c0.1-0.3,0.1-0.7,0.2-1c0-0.5,0.1-0.9,0.1-1.3c0-15.4-28.5-28-63.5-28
			c-35,0-63.5,12.6-63.5,28c0,0.4,0,0.9,0.1,1.3c0,0.3,0.1,0.7,0.2,1l0,0.2c0,0.1,0.1,0.3,0.1,0.4C10.8,46,36.6,36.9,66.2,36.9z"/>
	</g>
	<g>
		<path class="st2" d="M112.9,34.9C106.1,16,88,2.5,66.8,2.5c-21,0-38.9,13.2-45.9,31.8c-2,5.3-3.1,11.1-3.1,17.2
			c0,9.5,2.7,18.3,7.3,25.8c11.2,4.2,25.5,6.7,41.2,6.7c16.3,0,31.1-2.7,42.5-7.2c4.4-7.4,7-16,7-25.2
			C115.8,45.7,114.7,40.1,112.9,34.9z M48,31.2c-5.2,5.2-12,6.9-15.1,3.8c-1.1-1.1-1.6-2.7-1.6-4.5c0.1-3.3,2-7.3,5.3-10.6
			c5.2-5.2,12-6.9,15.1-3.8c2.3,2.3,2,6.4-0.3,10.6C50.6,28.3,49.4,29.8,48,31.2z"/>
		<path d="M66.2,84.9c-15.1,0-29.9-2.4-41.5-6.7l-0.3-0.1l-0.2-0.3c-4.9-7.9-7.5-17-7.5-26.3c0-6,1.1-11.9,3.2-17.5
			C27.2,14.6,46,1.5,66.8,1.5c21,0,39.9,13.3,47,33c2,5.4,3,11.1,3,17c0,9.1-2.5,18-7.1,25.8l-0.2,0.3l-0.3,0.1
			C97.2,82.4,82,84.9,66.2,84.9z M25.7,76.4c11.4,4.2,25.7,6.5,40.5,6.5c15.4,0,30.2-2.5,41.8-7c4.4-7.4,6.7-15.8,6.7-24.4
			c0-5.6-1-11.1-2.8-16.3v0c-6.8-19-25-31.7-45.2-31.7c-19.9,0-38,12.5-45,31.2c-2,5.4-3,11-3,16.8C18.8,60.3,21.2,68.9,25.7,76.4z
			 M37.2,37.6c-2,0-3.7-0.6-5-1.9c-1.3-1.3-1.9-3.1-1.8-5.2c0.1-3.6,2.2-7.9,5.6-11.3c2.6-2.6,5.8-4.5,8.8-5.3
			c3.2-0.8,5.9-0.3,7.7,1.5c2.5,2.5,2.5,7-0.1,11.8c-1,1.7-2.2,3.3-3.6,4.8C45,35.6,40.7,37.6,37.2,37.6z M47.5,15.6
			c-0.7,0-1.5,0.1-2.3,0.3c-2.7,0.7-5.5,2.4-7.9,4.8c-3.1,3.1-5,6.8-5,9.9c0,1.1,0.2,2.7,1.3,3.8c2.7,2.7,9,1,13.7-3.8
			c1.3-1.3,2.4-2.8,3.3-4.3c2.1-3.8,2.3-7.5,0.5-9.4C50.2,16,49,15.6,47.5,15.6z"/>
	</g>
	<g>
		<path class="st3" d="M51.8,16.1c-3.1-3.1-9.9-1.4-15.1,3.8c-3.4,3.4-5.2,7.4-5.3,10.6c0,1.8,0.4,3.4,1.6,4.5
			c3.1,3.1,9.9,1.4,15.1-3.8c1.4-1.4,2.6-3,3.5-4.6C53.8,22.6,54.1,18.4,51.8,16.1z"/>
		<path d="M37.2,37.6c-2,0-3.7-0.6-5-1.9c-1.3-1.3-1.9-3.1-1.8-5.2c0.1-3.6,2.2-7.9,5.6-11.3c2.6-2.6,5.8-4.5,8.8-5.3
			c3.2-0.8,5.9-0.3,7.7,1.5c2.5,2.5,2.5,7-0.1,11.8c-1,1.7-2.2,3.3-3.6,4.8C45,35.6,40.7,37.6,37.2,37.6z M47.5,15.6
			c-0.7,0-1.5,0.1-2.3,0.3c-2.7,0.7-5.5,2.4-7.9,4.8c-3.1,3.1-5,6.8-5,9.9c0,1.1,0.2,2.7,1.3,3.8c2.7,2.7,9,1,13.7-3.8
			c1.3-1.3,2.4-2.8,3.3-4.3c2.1-3.8,2.3-7.5,0.5-9.4l0,0C50.2,16,49,15.6,47.5,15.6z"/>
	</g>
</g>
</svg>
