<?xml version="1.0" encoding="utf-8"?>
<!-- Generator: Adobe Illustrator 22.0.1, SVG Export Plug-In . SVG Version: 6.00 Build 0)  -->
<svg version="1.1" id="Layer_1" xmlns="http://www.w3.org/2000/svg" xmlns:xlink="http://www.w3.org/1999/xlink" x="0px" y="0px"
	 viewBox="0 0 132.5 88" style="enable-background:new 0 0 132.5 88;" xml:space="preserve">
<style type="text/css">
	.st0{fill:#1A1A1A;}
	.st1{fill:#BBBABA;}
	.st2{fill:none;}
	.st3{fill:#FF5A5A;}
	.st4{fill:#FFFFFF;}
</style>
<g>
	<path class="st0" d="M129.6,61.4c0.4-0.9,0.7-1.8,0.9-2.7C130.2,59.7,130,60.5,129.6,61.4z"/>
	<path d="M130.5,61.8l-1.8-0.8c0.4-0.8,0.6-1.7,0.8-2.5l2,0.4l0,0l0,0l0,0C131.2,59.9,130.9,60.9,130.5,61.8L130.5,61.8z"/>
</g>
<g>
	<path class="st0" d="M130.7,57.4c0,0.4-0.1,0.8-0.2,1.1C130.6,58.1,130.6,57.7,130.7,57.4z"/>
	<path d="M131.5,58.7l-2-0.4c0-0.2,0.1-0.4,0.1-0.7c0-0.1,0-0.3,0-0.4l2,0.2c0,0.1,0,0.3,0,0.4C131.6,58.1,131.5,58.4,131.5,58.7z"
		/>
</g>
<g>
	<path class="st0" d="M2,58.5c-0.1-0.4-0.1-0.7-0.2-1.1C1.9,57.7,1.9,58.1,2,58.5z"/>
	<path d="M1,58.7c0-0.2,0-0.4-0.1-0.7c0-0.2-0.1-0.4-0.1-0.6l2-0.2c0,0.2,0,0.4,0.1,0.6C2.9,58,3,58.1,3,58.3L1,58.7z"/>
</g>
<g>
	<path class="st1" d="M130.8,55.9c0,0.5,0,1-0.1,1.4C130.7,56.9,130.8,56.4,130.8,55.9z"/>
	<path d="M131.7,57.5l-2-0.2c0-0.4,0.1-0.7,0.1-1l0,0l0,0c0-0.1,0-0.2,0-0.3l0,0l0,0h2c0,0.2,0,0.3,0,0.5
		C131.7,56.8,131.7,57.1,131.7,57.5z"/>
</g>
<g>
	<path class="st1" d="M1.8,57.4c-0.1-0.5-0.1-0.9-0.1-1.4C1.8,56.4,1.8,56.9,1.8,57.4z"/>
	<path d="M0.8,57.5c-0.1-0.5-0.1-1-0.1-1.5l0,0l0,0l0,0l0,0l0,0l0,0l0,0l0,0l0,0h2l0,0l0,0l0,0l0,0l0,0l0,0l0,0l0,0l0,0
		c0,0.4,0,0.8,0.1,1.3L0.8,57.5z"/>
</g>
<g>
	<path class="st1" d="M130.5,58.5c0,0.1,0,0.2,0,0.3C130.5,58.7,130.5,58.6,130.5,58.5z"/>
	<path d="M131.4,59l-2-0.4v-0.2l2,0.4v0.1C131.4,58.8,131.4,58.9,131.4,59z"/>
</g>
<g>
	<path class="st1" d="M129.6,61.4L129.6,61.4L129.6,61.4z"/>
</g>
<g>
	<path class="st1" d="M2.1,58.7c0-0.1,0-0.2,0-0.3C2,58.6,2,58.7,2.1,58.7z"/>
	<path d="M1.1,59c0-0.1,0-0.1,0-0.2l0,0l0,0l1-0.3l1-0.2v0.2l-1,0.3L1.1,59z"/>
</g>
<g>
	<path class="st1" d="M2.9,61.4L2.9,61.4L2.9,61.4z"/>
</g>
<g>
	<path class="st2" d="M51.8,33.2c-3.1-3.1-9.9-1.4-15.1,3.8c-1.3,1.3-2.3,2.6-3.2,4c6-1.6,12.7-2.8,19.8-3.4
		C53.4,35.9,52.9,34.3,51.8,33.2z"/>
</g>
<g>
	<path class="st0" d="M31.3,47.6c0,1.8,0.4,3.4,1.6,4.5c3.1,3.1,9.9,1.4,15.1-3.8c1.4-1.4,2.6-3,3.5-4.6c1.2-2.1,1.8-4.3,1.9-6.2
		c-7.1,0.6-13.8,1.8-19.8,3.4C32.2,43.3,31.4,45.6,31.3,47.6z"/>
	<path d="M37.1,54.7c-2,0-3.7-0.6-4.9-1.9c-1.3-1.3-1.9-3.1-1.8-5.2l0,0c0.1-2.2,0.9-4.7,2.3-7.1l0.2-0.3l0.4-0.1
		c6.2-1.6,12.9-2.8,20-3.5l1.1-0.1v1.1c0,2.1-0.7,4.4-2,6.7c-1,1.7-2.2,3.3-3.6,4.8c-2.6,2.6-5.8,4.5-8.8,5.3
		C38.9,54.6,38,54.7,37.1,54.7z M34.2,41.9c-1.1,2-1.8,4-1.8,5.8l0,0c0,1.1,0.2,2.7,1.3,3.8c1.3,1.3,3.3,1.6,5.8,1
		c2.7-0.7,5.5-2.4,7.9-4.8c1.3-1.3,2.4-2.8,3.3-4.3c0.9-1.6,1.4-3.1,1.7-4.6C45.9,39.4,39.8,40.4,34.2,41.9z"/>
</g>
<g>
	<g>
		<path d="M66.2,85.9C35,85.9,8,75.8,2,61.8l-0.2-0.4L2,61c6-14,33-24.1,64.2-24.1S124.5,47,130.4,61l0.2,0.4l-0.2,0.4
			C124.5,75.8,97.5,85.9,66.2,85.9z M4,61.4c6,13.1,32,22.5,62.2,22.5s56.2-9.4,62.2-22.5c-6-13.1-32-22.5-62.2-22.5
			C36.1,38.9,10,48.4,4,61.4z"/>
	</g>
	<g>
		<path class="st0" d="M2.9,61.4c-0.4-0.9-0.7-1.8-0.9-2.7C2.2,59.7,2.5,60.5,2.9,61.4z"/>
		<path d="M2,61.8c-0.4-1-0.7-1.9-0.9-2.9l2-0.4c0.2,0.8,0.5,1.7,0.8,2.5L2,61.8z"/>
	</g>
	<g>
		<path class="st1" d="M130.5,58.5c0.1-0.4,0.1-0.7,0.2-1.1c0.1-0.5,0.1-0.9,0.1-1.4c0-16-28.9-29-64.5-29S1.8,40,1.8,56
			c0,0.5,0,1,0.1,1.4c0,0.4,0.1,0.8,0.2,1.1c0,0.1,0,0.2,0,0.3c0.2,0.9,0.5,1.8,0.9,2.7l0,0C8.6,48,34.8,37.9,66.2,37.9
			s57.6,10.1,63.3,23.5l0,0c0.4-0.9,0.7-1.8,0.9-2.7C130.5,58.7,130.5,58.6,130.5,58.5z"/>
		<path d="M2.9,64L2,61.8c-0.4-0.9-0.7-1.9-0.9-2.9c0-0.1,0-0.1,0-0.2c-0.1-0.5-0.2-0.9-0.2-1.3c-0.1-0.5-0.1-1-0.1-1.5
			c0-16.5,29.4-30,65.5-30s65.5,13.5,65.5,30c0,0.5,0,1-0.1,1.5c0,0.4-0.1,0.8-0.2,1.2v0.1c0,0.1,0,0.1,0,0.2
			c-0.2,1-0.5,1.9-0.9,2.9l-0.9,2.2l-0.9-2.2C123,48.6,96.7,38.9,66.2,38.9S9.5,48.5,3.8,61.8L2.9,64z M66.2,36.9
			c29.6,0,55.4,9.1,63.1,22c0-0.1,0.1-0.2,0.1-0.3v-0.2c0.1-0.3,0.1-0.7,0.2-1c0-0.5,0.1-0.9,0.1-1.3c0-15.4-28.5-28-63.5-28
			S2.7,40.7,2.7,56.1c0,0.4,0,0.9,0.1,1.3c0,0.3,0.1,0.7,0.2,1v0.2c0,0.1,0.1,0.3,0.1,0.4C10.8,46,36.6,36.9,66.2,36.9z"/>
	</g>
	<g>
		<path class="st0" d="M20.9,52.3c1-2.6,2.2-5.1,3.5-7.5C13.5,49,5.7,54.8,2.9,61.4c2.2,5.2,7.6,10,15.2,13.8
			c-0.2-1.9-0.3-3.8-0.3-5.7C17.8,63.5,18.9,57.7,20.9,52.3z"/>
		<path d="M19.3,77l-1.7-0.8c-8-4-13.4-9-15.6-14.3l-0.2-0.4L2,61c2.8-6.7,10.7-12.7,22-17.1l2.7-1l-1.4,2.5
			c-1.4,2.4-2.5,4.8-3.5,7.3l0,0c-2,5.4-3,11-3,16.8c0,1.8,0.1,3.7,0.3,5.6L19.3,77z M4,61.4c2,4.4,6.5,8.5,12.9,12
			c-0.1-1.3-0.2-2.7-0.2-4c0-6,1.1-11.9,3.2-17.5c0.6-1.7,1.4-3.4,2.3-5.1C12.9,50.8,6.6,55.9,4,61.4z"/>
	</g>
</g>
<g>
	<path class="st0" d="M129.6,61.4c-2.7-6.3-10-11.9-20.2-16.1c1.4,2.4,2.5,4.9,3.5,7.5c1.9,5.2,2.9,10.8,2.9,16.6
		c0,1.7-0.1,3.5-0.3,5.2C122.5,70.9,127.5,66.4,129.6,61.4z"/>
	<path d="M114.3,76.4l0.2-1.9c0.2-1.7,0.3-3.4,0.3-5.1c0-5.6-1-11.1-2.8-16.3c-0.9-2.5-2-5-3.4-7.4l-1.4-2.5l2.7,1.1
		c10.8,4.4,18,10.1,20.7,16.6l0.2,0.4l-0.2,0.4c-2.2,5.1-7.2,9.8-14.5,13.7L114.3,76.4z M111.6,47.4c0.8,1.7,1.6,3.4,2.2,5.1
		c2,5.4,3,11.1,3,17c0,1.1,0,2.3-0.1,3.4c5.9-3.4,9.9-7.3,11.8-11.5C126.1,56.2,120.1,51.3,111.6,47.4z"/>
</g>
<g>
	<path class="st3" d="M112.9,52c-0.9-2.6-2.1-5.1-3.5-7.5C101,29.6,85,19.6,66.8,19.6c-18.1,0-33.9,9.8-42.3,24.4
		c-1.4,2.4-2.6,4.9-3.5,7.5c-2,5.3-3.1,11.1-3.1,17.2c0,1.9,0.1,3.8,0.3,5.7c11.8,6,29,9.7,48.2,9.7c19.7,0,37.4-4,49.2-10.3
		c0.2-1.7,0.3-3.4,0.3-5.2C115.8,62.8,114.7,57.2,112.9,52z M51.5,43.8c-0.9,1.6-2,3.1-3.5,4.6c-5.2,5.2-12,6.9-15.1,3.8
		c-1.1-1.1-1.6-2.7-1.6-4.5c0.1-2,0.8-4.3,2.2-6.6c0.8-1.4,1.9-2.7,3.2-4c5.2-5.2,12-6.9,15.1-3.8c1.1,1.1,1.6,2.6,1.6,4.4
		C53.3,39.5,52.7,41.7,51.5,43.8z"/>
	<path d="M66.2,85c-18.5,0-36.2-3.6-48.6-9.8L17.1,75L17,74.5c-0.2-2-0.3-3.9-0.3-5.8c0-6,1.1-11.9,3.2-17.5c1-2.6,2.2-5.2,3.6-7.6
		c9-15.5,25.5-25,43.3-25c18,0,34.6,9.7,43.5,25.4c1.4,2.5,2.6,5.1,3.5,7.7l0,0c2,5.4,3,11.1,3,17c0,1.8-0.1,3.5-0.3,5.3l-0.1,0.5
		l-0.5,0.2C103.5,81.3,85.4,85,66.2,85z M19,73.7c12.1,6,29.3,9.4,47.2,9.4c18.6,0,36.2-3.6,48.3-9.9c0.1-1.5,0.2-3,0.2-4.5
		c0-5.6-1-11.1-2.8-16.3l0,0c-0.9-2.5-2-5-3.4-7.4C100,29.9,84,20.6,66.8,20.6c-17,0-32.9,9.1-41.5,23.9c-1.4,2.4-2.5,4.8-3.5,7.3
		c-2,5.4-3,11-3,16.8C18.8,70.3,18.8,72,19,73.7z M37.1,54.7c-2,0-3.7-0.6-4.9-1.9c-1.3-1.3-1.9-3.1-1.8-5.2
		c0.1-2.2,0.9-4.7,2.3-7.1c0.9-1.5,2-2.9,3.3-4.2c2.6-2.6,5.8-4.5,8.8-5.3c3.2-0.8,5.9-0.3,7.7,1.5c1.2,1.2,1.9,3,1.9,5.1
		s-0.7,4.4-2,6.7l0,0c-1,1.7-2.2,3.3-3.6,4.8c-2.6,2.6-5.8,4.5-8.8,5.3C38.9,54.6,38,54.7,37.1,54.7z M47.5,32.7
		c-0.7,0-1.5,0.1-2.3,0.3c-2.7,0.7-5.5,2.4-7.9,4.8c-1.2,1.2-2.2,2.5-3,3.8c-1.3,2.1-2,4.3-2,6.1c0,1.1,0.2,2.7,1.3,3.8
		c1.3,1.3,3.3,1.6,5.8,1c2.7-0.7,5.5-2.4,7.9-4.8c1.3-1.3,2.4-2.8,3.3-4.3c1.1-2,1.7-4,1.7-5.7c0-1.1-0.2-2.6-1.3-3.6
		C50.2,33.1,49,32.7,47.5,32.7z"/>
</g>
<g>
	<path class="st4" d="M51.8,33.2c-3.1-3.1-9.9-1.4-15.1,3.8c-3.4,3.4-5.2,7.4-5.3,10.6c0,1.8,0.4,3.4,1.6,4.5
		c3.1,3.1,9.9,1.4,15.1-3.8c1.4-1.4,2.6-3,3.5-4.6C53.8,39.7,54.1,35.5,51.8,33.2z"/>
	<path d="M37.1,54.7c-2,0-3.7-0.6-4.9-1.9c-1.3-1.3-1.9-3.1-1.8-5.2c0.1-3.6,2.2-7.9,5.6-11.3c2.6-2.6,5.8-4.5,8.8-5.3
		c3.2-0.8,5.9-0.3,7.7,1.5c2.5,2.5,2.5,7-0.1,11.8c-1,1.7-2.2,3.3-3.6,4.8c-2.6,2.6-5.8,4.5-8.8,5.3C38.9,54.6,38,54.7,37.1,54.7z
		 M47.5,32.7c-0.7,0-1.5,0.1-2.3,0.3c-2.7,0.7-5.5,2.4-7.9,4.8c-3.1,3.1-5,6.8-5,9.9c0,1.1,0.2,2.7,1.3,3.8c1.3,1.3,3.3,1.6,5.8,1
		c2.7-0.7,5.5-2.4,7.9-4.8c1.3-1.3,2.4-2.8,3.3-4.3c2.1-3.8,2.3-7.5,0.5-9.4l0,0C50.2,33.1,49,32.7,47.5,32.7z"/>
</g>
</svg>
