<?xml version="1.0" encoding="utf-8"?>
<!-- Generator: Adobe Illustrator 22.0.1, SVG Export Plug-In . SVG Version: 6.00 Build 0)  -->
<svg version="1.1" id="Layer_1" xmlns="http://www.w3.org/2000/svg" xmlns:xlink="http://www.w3.org/1999/xlink" x="0px" y="0px"
	 viewBox="0 0 150 150" style="enable-background:new 0 0 150 150;" xml:space="preserve">
<style type="text/css">
	.st0{fill:#FFFFFF;}
	.st1{fill:#FF7916;}
	.st2{fill:#FF3030;}
	.st3{fill:#59D8A7;}
	.st4{fill:#EFEFEF;}
	.st5{fill:#F9FFCA;}
</style>
<g>
	<g>
		<polygon class="st0" points="72.6,104.9 49.2,111.2 47.4,87 69,83.3 		"/>
		<path d="M49.2,111.9c-0.1,0-0.3,0-0.4-0.1c-0.2-0.1-0.3-0.3-0.3-0.5l-1.8-24.2c0-0.3,0.2-0.7,0.6-0.7l21.6-3.7
			c0.2,0,0.4,0,0.5,0.1s0.2,0.3,0.3,0.4l3.7,21.6c0.1,0.3-0.2,0.7-0.5,0.8l-23.5,6.3C49.3,111.9,49.2,111.9,49.2,111.9z M48.1,87.6
			l1.7,22.8l22.1-6l-3.5-20.3L48.1,87.6z"/>
	</g>
	<g>
		<polygon class="st1" points="69,83.3 47.4,87 49.2,111.2 49.6,111.1 69,83.7 		"/>
		<path d="M49.2,111.9c-0.1,0-0.2,0-0.4-0.1c-0.2-0.1-0.3-0.3-0.3-0.5l-1.8-24.2c0-0.3,0.2-0.7,0.6-0.7l21.6-3.7
			c0.2,0,0.4,0,0.5,0.1s0.2,0.3,0.3,0.4l0.1,0.3c0,0.2,0,0.4-0.1,0.5l-19.4,27.4c-0.1,0.1-0.2,0.2-0.3,0.2l-0.4,0.2
			C49.3,111.9,49.3,111.9,49.2,111.9z M48.1,87.6l1.6,22.1l18.1-25.5L48.1,87.6z"/>
	</g>
	<g>
		<polygon class="st2" points="69,83.7 49.6,111.1 72.6,104.9 		"/>
		<path d="M49.6,111.8c-0.2,0-0.4-0.1-0.5-0.3c-0.2-0.2-0.2-0.5,0-0.8l19.4-27.4c0.2-0.2,0.4-0.3,0.7-0.3c0.3,0.1,0.5,0.3,0.5,0.5
			l3.6,21.2c0.1,0.3-0.2,0.7-0.5,0.8l-23.1,6.2C49.7,111.8,49.6,111.8,49.6,111.8z M68.6,85.4L51.2,110l20.7-5.5L68.6,85.4z"/>
	</g>
	<g>
		<polygon class="st2" points="44.9,93.8 44.9,93.8 39.4,94.7 39.9,100.8 40,100.8 45.9,99.2 		"/>
		<path d="M39.9,101.5c-0.1,0-0.2,0-0.4-0.1c-0.2-0.1-0.3-0.3-0.3-0.5l-0.5-6.2c0-0.3,0.2-0.7,0.6-0.7l5.5-0.9
			c0.4-0.1,0.7,0.2,0.8,0.5v0.1l0,0l0.9,5.4c0.1,0.3-0.2,0.7-0.5,0.8l-5.9,1.6C40.1,101.5,40,101.5,39.9,101.5z M40.2,95.2l0.3,4.7
			l4.6-1.2l-0.7-4.2L40.2,95.2z"/>
	</g>
	<g>
		<polygon class="st1" points="68.6,109.6 68.6,109.5 63.9,110.4 64.3,115.7 64.4,115.6 69.4,114.3 		"/>
		<path d="M64.3,116.3c-0.1,0-0.2,0-0.4-0.1c-0.2-0.1-0.3-0.3-0.3-0.5l-0.4-5.3c0-0.3,0.2-0.7,0.6-0.7l4.7-0.8c0.2,0,0.4,0,0.5,0.1
			s0.2,0.3,0.3,0.4l0.8,4.7c0.1,0.3-0.2,0.7-0.5,0.8l-5.1,1.4C64.4,116.3,64.4,116.3,64.3,116.3z M64.6,110.9l0.3,3.9l3.8-1
			l-0.6-3.5L64.6,110.9z"/>
	</g>
	<g>
		<polygon class="st3" points="76,99.5 51.8,82.3 50.8,74.1 84.1,97.8 		"/>
		<path d="M75.9,100.2L51.2,82.7l-1.2-10l35.8,25.4L75.9,100.2z M52.4,82l23.7,16.8l6.3-1.4L51.5,75.5L52.4,82z"/>
	</g>
	<g>
		<polygon class="st0" points="85.9,40.7 104.2,34.4 104.3,53.8 104.3,73.2 86.1,98.9 49.5,72.9 67.7,47.2 		"/>
		<path d="M86.1,99.5c-0.1,0-0.3,0-0.4-0.1l-36.6-26c-0.1-0.1-0.2-0.3-0.3-0.4c0-0.2,0-0.4,0.1-0.5l18.2-25.6
			c0.1-0.1,0.2-0.2,0.3-0.2l18.2-6.5l0,0l18.4-6.4c0.2-0.1,0.4,0,0.6,0.1s0.3,0.3,0.3,0.5l0.1,38.9c0,0.1,0,0.3-0.1,0.4L86.7,99.3
			C86.5,99.4,86.3,99.5,86.1,99.5z M50.4,72.7L86,97.9L103.7,73l-0.1-37.7l-17.5,6.1l-18,6.4L50.4,72.7z"/>
	</g>
	<g>
		<polygon class="st3" points="96.3,102.6 89.7,94.2 103.9,74.2 110.5,82.6 		"/>
		<path d="M96.3,103.8l-7.4-9.5l15-21.1l7.4,9.5L96.3,103.8z M90.6,94.2l5.7,7.3l13.4-18.9l-5.7-7.3L90.6,94.2z"/>
	</g>
	<g>
		<polygon class="st3" points="42.6,64.5 52.7,67.9 66.8,48 56.7,44.6 		"/>
		<path d="M52.9,68.7l-11.4-3.9l15-21.1l11.4,3.9L52.9,68.7z M43.6,64.2l8.8,3l13.4-18.9l-8.8-3L43.6,64.2z"/>
	</g>
	<g>
		<polygon class="st4" points="104.3,73.2 104.3,53.8 104.2,35 68,86 86.1,98.9 		"/>
		<path d="M86.1,99.5c-0.1,0-0.3,0-0.4-0.1L67.6,86.6c-0.1-0.1-0.2-0.3-0.3-0.4c0-0.2,0-0.4,0.1-0.5l36.2-51.1
			c0.2-0.2,0.5-0.3,0.7-0.3c0.3,0.1,0.5,0.3,0.5,0.6l0.1,38.3c0,0.1,0,0.3-0.1,0.4L86.6,99.2C86.5,99.4,86.3,99.5,86.1,99.5z
			 M68.9,85.9l17,12.1l17.7-24.9l-0.1-36L68.9,85.9z"/>
	</g>
	<g>
		<circle class="st3" cx="83.9" cy="62.8" r="13.3"/>
		<path d="M83.9,76.7c-2.8,0-5.6-0.8-8-2.6c-6.3-4.4-7.8-13.2-3.3-19.4c2.2-3,5.4-5.1,9-5.7c3.7-0.6,7.4,0.2,10.4,2.4s5.1,5.4,5.7,9
			c0.6,3.7-0.2,7.4-2.4,10.4l0,0C92.5,74.7,88.2,76.7,83.9,76.7z M83.9,50.2c-0.7,0-1.4,0.1-2.1,0.2c-3.3,0.6-6.2,2.4-8.2,5.1
			c-4,5.7-2.7,13.6,3,17.6s13.6,2.7,17.6-3c1.9-2.7,2.7-6.1,2.1-9.4c-0.6-3.3-2.4-6.2-5.1-8.2C89,51,86.5,50.2,83.9,50.2z"/>
	</g>
	<g>
		<circle class="st5" cx="83.6" cy="62.5" r="9.5"/>
		<path d="M83.6,72.7c-2,0-4.1-0.6-5.8-1.9c-4.6-3.2-5.6-9.6-2.4-14.1c3.2-4.6,9.6-5.6,14.1-2.4c4.6,3.2,5.6,9.6,2.4,14.1l0,0
			C89.9,71.2,86.8,72.7,83.6,72.7z M83.6,53.8c-2.8,0-5.5,1.3-7.2,3.7c-2.8,4-1.9,9.5,2.1,12.3s9.5,1.9,12.3-2.1l0,0
			c2.8-4,1.9-9.5-2.1-12.3C87.2,54.3,85.4,53.8,83.6,53.8z"/>
	</g>
</g>
<rect x="-166" y="10" class="st0" width="130" height="130"/>
<g>
	<g>
		<polygon class="st0" points="-103.4,104.9 -126.8,111.2 -128.6,87 -107,83.3 		"/>
		<path d="M-126.8,111.9c-0.1,0-0.3,0-0.4-0.1c-0.2-0.1-0.3-0.3-0.3-0.5l-1.8-24.2c0-0.3,0.2-0.7,0.6-0.7l21.6-3.7
			c0.2,0,0.4,0,0.5,0.1s0.2,0.3,0.3,0.4l3.7,21.6c0.1,0.3-0.2,0.7-0.5,0.8l-23.5,6.3C-126.7,111.9-126.8,111.9-126.8,111.9z
			 M-127.9,87.6l1.7,22.8l22.1-6l-3.5-20.3L-127.9,87.6z"/>
	</g>
	<g>
		<polygon class="st1" points="-107,83.3 -128.6,87 -126.8,111.2 -126.4,111.1 -107,83.7 		"/>
		<path d="M-126.8,111.9c-0.1,0-0.2,0-0.4-0.1c-0.2-0.1-0.3-0.3-0.3-0.5l-1.8-24.2c0-0.3,0.2-0.7,0.6-0.7l21.6-3.7
			c0.2,0,0.4,0,0.5,0.1s0.2,0.3,0.3,0.4l0.1,0.3c0,0.2,0,0.4-0.1,0.5l-19.4,27.4c-0.1,0.1-0.2,0.2-0.3,0.2l-0.4,0.2
			C-126.7,111.9-126.7,111.9-126.8,111.9z M-127.9,87.6l1.6,22.1l18.1-25.5L-127.9,87.6z"/>
	</g>
	<g>
		<polygon class="st2" points="-107,83.7 -126.4,111.1 -103.4,104.9 		"/>
		<path d="M-126.4,111.8c-0.2,0-0.4-0.1-0.5-0.3c-0.2-0.2-0.2-0.5,0-0.8l19.4-27.4c0.2-0.2,0.4-0.3,0.7-0.3c0.3,0.1,0.5,0.3,0.5,0.5
			l3.6,21.2c0.1,0.3-0.2,0.7-0.5,0.8l-23.1,6.2C-126.3,111.8-126.4,111.8-126.4,111.8z M-107.4,85.4l-17.4,24.6l20.7-5.5
			L-107.4,85.4z"/>
	</g>
	<g>
		<polygon class="st2" points="-131.1,93.8 -131.1,93.8 -136.6,94.7 -136.1,100.8 -136,100.8 -130.1,99.2 		"/>
		<path d="M-136.1,101.5c-0.1,0-0.2,0-0.4-0.1c-0.2-0.1-0.3-0.3-0.3-0.5l-0.5-6.2c0-0.3,0.2-0.7,0.6-0.7l5.5-0.9
			c0.4-0.1,0.7,0.2,0.8,0.5v0.1l0,0l0.9,5.4c0.1,0.3-0.2,0.7-0.5,0.8l-5.9,1.6C-135.9,101.5-136,101.5-136.1,101.5z M-135.8,95.2
			l0.3,4.7l4.6-1.2l-0.7-4.2L-135.8,95.2z"/>
	</g>
	<g>
		<polygon class="st1" points="-107.4,109.6 -107.4,109.5 -112.1,110.4 -111.7,115.7 -111.6,115.6 -106.6,114.3 		"/>
		<path d="M-111.7,116.3c-0.1,0-0.2,0-0.4-0.1c-0.2-0.1-0.3-0.3-0.3-0.5l-0.4-5.3c0-0.3,0.2-0.7,0.6-0.7l4.7-0.8
			c0.2,0,0.4,0,0.5,0.1s0.2,0.3,0.3,0.4l0.8,4.7c0.1,0.3-0.2,0.7-0.5,0.8l-5.1,1.4C-111.6,116.3-111.6,116.3-111.7,116.3z
			 M-111.4,110.9l0.3,3.9l3.8-1l-0.6-3.5L-111.4,110.9z"/>
	</g>
	<g>
		<polygon class="st3" points="-100,99.5 -124.2,82.3 -125.2,74.1 -91.9,97.8 		"/>
		<path d="M-100.1,100.2l-24.7-17.5l-1.2-10l35.8,25.4L-100.1,100.2z M-123.6,82l23.7,16.8l6.3-1.4l-30.9-21.9L-123.6,82z"/>
	</g>
	<g>
		<polygon class="st0" points="-90.1,40.7 -71.8,34.4 -71.7,53.8 -71.7,73.2 -89.9,98.9 -126.5,72.9 -108.3,47.2 		"/>
		<path d="M-89.9,99.5c-0.1,0-0.3,0-0.4-0.1l-36.6-26c-0.1-0.1-0.2-0.3-0.3-0.4c0-0.2,0-0.4,0.1-0.5l18.2-25.6
			c0.1-0.1,0.2-0.2,0.3-0.2l18.2-6.5l0,0l18.4-6.4c0.2-0.1,0.4,0,0.6,0.1s0.3,0.3,0.3,0.5l0.1,38.9c0,0.1,0,0.3-0.1,0.4l-18.2,25.6
			C-89.5,99.4-89.7,99.5-89.9,99.5z M-125.6,72.7L-90,97.9L-72.3,73l-0.1-37.7l-17.5,6.1l-18,6.4L-125.6,72.7z"/>
	</g>
	<g>
		<polygon class="st3" points="-79.7,102.6 -86.3,94.2 -72.1,74.2 -65.5,82.6 		"/>
		<path d="M-79.7,103.8l-7.4-9.5l15-21.1l7.4,9.5L-79.7,103.8z M-85.4,94.2l5.7,7.3l13.4-18.9l-5.7-7.3L-85.4,94.2z"/>
	</g>
	<g>
		<polygon class="st3" points="-133.4,64.5 -123.3,67.9 -109.2,48 -119.3,44.6 		"/>
		<path d="M-123.1,68.7l-11.4-3.9l15-21.1l11.4,3.9L-123.1,68.7z M-132.4,64.2l8.8,3l13.4-18.9l-8.8-3L-132.4,64.2z"/>
	</g>
	<g>
		<polygon class="st4" points="-71.7,73.2 -71.7,53.8 -71.8,35 -108,86 -89.9,98.9 		"/>
		<path d="M-89.9,99.5c-0.1,0-0.3,0-0.4-0.1l-18.1-12.8c-0.1-0.1-0.2-0.3-0.3-0.4c0-0.2,0-0.4,0.1-0.5l36.2-51.1
			c0.2-0.2,0.5-0.3,0.7-0.3c0.3,0.1,0.5,0.3,0.5,0.6l0.1,38.3c0,0.1,0,0.3-0.1,0.4l-18.2,25.6C-89.5,99.4-89.7,99.5-89.9,99.5z
			 M-107.1,85.9l17,12.1l17.7-24.9l-0.1-36L-107.1,85.9z"/>
	</g>
	<g>
		<circle class="st3" cx="-92.1" cy="62.8" r="13.3"/>
		<path d="M-92.1,76.7c-2.8,0-5.6-0.8-8-2.6c-6.3-4.4-7.8-13.2-3.3-19.4c2.2-3,5.4-5.1,9-5.7c3.7-0.6,7.4,0.2,10.4,2.4
			s5.1,5.4,5.7,9c0.6,3.7-0.2,7.4-2.4,10.4l0,0C-83.5,74.7-87.8,76.7-92.1,76.7z M-92.1,50.2c-0.7,0-1.4,0.1-2.1,0.2
			c-3.3,0.6-6.2,2.4-8.2,5.1c-4,5.7-2.7,13.6,3,17.6s13.6,2.7,17.6-3c1.9-2.7,2.7-6.1,2.1-9.4c-0.6-3.3-2.4-6.2-5.1-8.2
			C-87,51-89.5,50.2-92.1,50.2z"/>
	</g>
	<g>
		<circle class="st5" cx="-92.4" cy="62.5" r="9.5"/>
		<path d="M-92.4,72.7c-2,0-4.1-0.6-5.8-1.9c-4.6-3.2-5.6-9.6-2.4-14.1c3.2-4.6,9.6-5.6,14.1-2.4c4.6,3.2,5.6,9.6,2.4,14.1l0,0
			C-86.1,71.2-89.2,72.7-92.4,72.7z M-92.4,53.8c-2.8,0-5.5,1.3-7.2,3.7c-2.8,4-1.9,9.5,2.1,12.3s9.5,1.9,12.3-2.1l0,0
			c2.8-4,1.9-9.5-2.1-12.3C-88.8,54.3-90.6,53.8-92.4,53.8z"/>
	</g>
</g>
</svg>
