<?xml version="1.0" encoding="utf-8"?>
<!-- Generator: Adobe Illustrator 22.0.1, SVG Export Plug-In . SVG Version: 6.00 Build 0)  -->
<svg version="1.1" id="Layer_1" xmlns="http://www.w3.org/2000/svg" xmlns:xlink="http://www.w3.org/1999/xlink" x="0px" y="0px"
	 viewBox="0 0 100.5 72.5" style="enable-background:new 0 0 100.5 72.5;" xml:space="preserve">
<style type="text/css">
	.st0{fill:#FFFFFF;}
</style>
<g>
	<g>
		<g>
			<path class="st0" d="M41.6,53.5c-0.2-0.3-0.5-0.5-0.9-0.5H10.2c-4.4,0-8-3.6-8-8V11c0-4.4,3.6-8,8-8h80c4.4,0,8,3.6,8,8v34
				c0,4.4-3.6,8-8,8H59.8c-0.4,0-0.7,0.2-0.9,0.5l-8.7,15L41.6,53.5z"/>
		</g>
		<g>
			<path d="M90.2,4c3.9,0,7,3.1,7,7v34c0,3.9-3.1,7-7,7H59.8c-0.7,0-1.4,0.4-1.7,1l-7.8,13.5L42.5,53c-0.4-0.6-1-1-1.7-1H10.2
				c-3.9,0-7-3.1-7-7V11c0-3.9,3.1-7,7-7H90.2 M90.2,2h-80c-4.9,0-9,4.1-9,9v34c0,5,4.1,9,9,9h30.5l9.5,16.5L59.8,54h30.5
				c4.9,0,9-4,9-9V11C99.2,6.1,95.2,2,90.2,2L90.2,2z"/>
		</g>
	</g>
	<g>
		<path d="M26.7,34.1c1.8,0,2.8-0.7,2.8-2c0-1.1-0.6-1.7-1.9-1.9c-0.6-0.1-1.2-0.2-1.9-0.3c-1.2-0.2-2.2-0.7-2.8-1.4
			c-0.7-0.7-1-1.6-1-2.6c0-1.2,0.4-2.2,1.2-3c0.8-0.8,1.9-1.1,3.4-1.2c1.8,0,3.3,0.5,4.6,1.5L30.1,25c-1.1-0.7-2.2-1.1-3.5-1.1
			c-0.7,0-1.2,0.2-1.7,0.5c-0.5,0.3-0.7,0.9-0.7,1.5c0,0.4,0.2,0.8,0.5,1.1c0.3,0.3,0.8,0.6,1.5,0.7c0.4,0.1,0.9,0.1,1.6,0.2
			c1.3,0.2,2.3,0.7,3,1.4c0.6,0.8,0.9,1.6,0.9,2.7c-0.1,2.7-1.7,4.1-5,4.1c-2.1,0-3.9-0.7-5.4-2l1.4-1.6
			C23.8,33.6,25.2,34,26.7,34.1z"/>
		<path d="M35.3,31.8c0,0.8,0.2,1.4,0.7,1.9c0.4,0.4,1,0.6,1.7,0.6c0.8,0,1.6-0.3,2.2-1l1.5,1.3c-1,1.1-2.3,1.7-3.7,1.6
			c-0.5,0-1.1-0.1-1.6-0.2c-0.3-0.1-0.5-0.2-0.7-0.3c-0.3-0.1-0.5-0.3-0.7-0.5c-0.4-0.4-0.8-0.9-1-1.6c-0.3-0.7-0.4-1.5-0.4-2.5
			c0-1,0.1-1.8,0.4-2.5c0.3-0.7,0.6-1.2,1-1.6c0.4-0.4,0.9-0.7,1.4-0.9c0.5-0.2,1-0.3,1.5-0.3c1.2,0,2.1,0.4,2.9,1.1
			c0.8,0.8,1.2,1.8,1.2,3.1v1.7H35.3z M39.6,30.1c0-0.8-0.2-1.4-0.6-1.8c-0.4-0.4-0.9-0.6-1.5-0.6s-1.1,0.2-1.5,0.6
			c-0.4,0.4-0.6,1-0.6,1.8H39.6z"/>
		<path d="M43.9,22.9h2V26h1.5v1.6h-1.5v5.9c0,0.5,0.2,0.8,0.7,0.8h0.8v1.9h-1.1c-0.7,0-1.3-0.2-1.8-0.7c-0.5-0.4-0.7-1-0.7-1.8
			v-6.1h-1V26h1V22.9z"/>
		<path d="M49.5,22.9h2V26H53v1.6h-1.5v5.9c0,0.5,0.2,0.8,0.7,0.8H53v1.9h-1.1c-0.7,0-1.3-0.2-1.8-0.7c-0.5-0.4-0.7-1-0.7-1.8v-6.1
			h-1V26h1V22.9z"/>
		<path d="M55,21.9h2v2h-2V21.9z M55,26h2v10.1h-2V26z"/>
		<path d="M59.7,26h2V27h0c0.7-0.8,1.5-1.2,2.6-1.2c0.8,0,1.6,0.3,2.3,0.9c0.7,0.6,1.1,1.5,1.1,2.6v6.7h-2v-6c0-0.7-0.2-1.2-0.6-1.6
			c-0.4-0.4-0.8-0.6-1.4-0.6s-1.1,0.2-1.4,0.6c-0.4,0.4-0.6,0.9-0.6,1.6v6h-2V26z"/>
		<path d="M76.1,35c-0.7,0.8-1.5,1.2-2.6,1.2c-0.7,0-1.2-0.2-1.6-0.4c-0.5-0.3-0.8-0.5-1-0.8c-0.3-0.3-0.5-0.7-0.6-1.2
			c-0.1-0.5-0.2-1.4-0.2-2.7c0-1.4,0.1-2.3,0.2-2.8c0.1-0.5,0.3-0.9,0.6-1.2c0.2-0.3,0.6-0.6,1-0.9c0.4-0.2,1-0.4,1.6-0.4
			c1,0,1.9,0.4,2.6,1.2V26h2v9.9c0,1.5-0.5,2.6-1.3,3.4c-0.9,0.7-1.9,1.1-3.1,1.1c-1.4,0-2.5-0.6-3.5-1.7l1.6-1.3
			c0.3,0.2,0.6,0.4,0.9,0.6c0.3,0.2,0.7,0.3,1.1,0.3c0.7,0,1.3-0.2,1.7-0.6c0.4-0.4,0.6-0.9,0.6-1.6V35z M72.1,31
			c0,0.8,0,1.3,0.1,1.6c0,0.3,0.2,0.6,0.3,0.8c0.1,0.2,0.3,0.3,0.6,0.5c0.3,0.2,0.6,0.3,1,0.3s0.7-0.1,1-0.3
			c0.3-0.1,0.5-0.3,0.6-0.5c0.2-0.2,0.3-0.5,0.3-0.8c0-0.3,0.1-0.8,0.1-1.6c0-0.8,0-1.3-0.1-1.6c-0.1-0.3-0.2-0.6-0.3-0.7
			c-0.1-0.2-0.3-0.4-0.6-0.5c-0.3-0.1-0.6-0.2-1-0.2c-0.4,0-0.7,0.1-1,0.2c-0.3,0.2-0.5,0.4-0.6,0.5c-0.2,0.2-0.3,0.4-0.3,0.7
			C72.1,29.7,72.1,30.2,72.1,31z"/>
	</g>
</g>
</svg>
