<?xml version="1.0" encoding="utf-8"?>
<!-- Generator: Adobe Illustrator 22.0.1, SVG Export Plug-In . SVG Version: 6.00 Build 0)  -->
<svg version="1.1" id="Layer_1" xmlns="http://www.w3.org/2000/svg" xmlns:xlink="http://www.w3.org/1999/xlink" x="0px" y="0px"
	 viewBox="0 0 150 150" style="enable-background:new 0 0 150 150;" xml:space="preserve">
<style type="text/css">
	.st0{fill:#E6E6E6;}
	.st1{opacity:0.6;}
	.st2{fill:#808080;}
	.st3{fill:#464643;}
	.st4{fill:#FFFFFF;}
</style>
<g>
	<g>
		<circle class="st0" cx="75" cy="75" r="41.6"/>
		<path d="M75,117.4c-23.4,0-42.4-19-42.4-42.4s19-42.4,42.4-42.4s42.4,19,42.4,42.4S98.3,117.4,75,117.4z M75,34.2
			c-22.5,0-40.8,18.3-40.8,40.8s18.3,40.8,40.8,40.8s40.8-18.3,40.8-40.8C115.7,52.5,97.4,34.2,75,34.2z"/>
	</g>
	<g class="st1">
		<path class="st2" d="M113.1,59.6c1,3.5,1.5,7.2,1.5,11c0,22.6-18.4,40.9-41.1,40.9c-17,0-31.5-10.2-37.8-24.9
			c4.8,17.2,20.7,29.9,39.6,29.9c22.7,0,41.1-18.3,41.1-40.9C116.4,70,115.2,64.6,113.1,59.6z"/>
	</g>
	<g>
		<path class="st3" d="M101.4,78.6V72h-6c-0.2-1.4-0.6-2.8-1.2-4.1l5.4-3.1l-3.3-5.7l-5.4,3.1c-0.9-1.1-1.9-2-3-2.9l3.2-5.6
			l-5.7-3.3l-3.3,5.7c-1.2-0.5-2.5-0.8-3.9-1v-6.7h-6.6v6.7c-1.3,0.2-2.6,0.5-3.8,1l-3.4-5.9l-5.7,3.3l3.4,5.9c-1,0.8-2,1.7-2.8,2.7
			l-5.9-3.4l-3.3,5.7l5.8,3.3c-0.5,1.2-0.9,2.5-1.2,3.8H48v6.6h6.5c0.2,1.4,0.5,2.7,0.9,4l-5.6,3.2l3.3,5.7l5.4-3.1
			c0.9,1.1,1.8,2.2,2.9,3.1l-3.1,5.4l5.7,3.3l3-5.1c1.3,0.6,2.7,1,4.2,1.3v5.9h6.6v-5.7c1.5-0.2,3-0.6,4.4-1.1l2.9,5l5.7-3.3
			L88,91.8c1.2-0.9,2.3-2,3.2-3.1l5,2.9l3.3-5.7l-5-2.9c0.5-1.4,0.9-2.8,1.1-4.3h5.8V78.6z M88.1,75.5c0,7.2-5.9,13.1-13.1,13.1
			s-13.1-5.9-13.1-13.1S67.8,62.4,75,62.4S88.1,68.2,88.1,75.5z"/>
		<path d="M78.5,102.6h-8.2v-6.1c-1-0.2-2.1-0.5-3-0.9l-3,5.2l-7.1-4.1l3.2-5.5c-0.7-0.7-1.4-1.4-2.1-2.2l-5.5,3.1L48.7,85l5.7-3.3
			c-0.3-0.9-0.5-1.9-0.6-2.8h-6.6v-8.3h6.9c0.2-0.9,0.5-1.8,0.8-2.7L49,64.5l4.1-7.1l6.1,3.5c0.6-0.7,1.3-1.3,2-1.9l-3.5-6l7.1-4.1
			l3.5,6.1c0.9-0.3,1.7-0.5,2.6-0.7v-6.9h8.2v6.9c0.9,0.2,1.8,0.4,2.7,0.7l3.3-5.8l7.1,4.1L88.9,59c0.7,0.6,1.4,1.3,2.1,2.1l5.6-3.2
			l4.1,7.1l-5.5,3.2c0.3,1,0.6,2,0.8,3h6.1v8.2H96c-0.2,1.1-0.5,2.1-0.8,3.1l5.1,3l-4.1,7.1l-5.1-3c-0.7,0.8-1.5,1.6-2.3,2.3l2.9,5
			l-7.1,4.1l-3-5.1c-1,0.3-2.1,0.6-3.2,0.8L78.5,102.6L78.5,102.6z M71.9,101h5v-5.6l0.7-0.1c1.4-0.2,2.8-0.5,4.2-1l0.6-0.2l2.8,4.9
			l4.3-2.5l-2.8-4.8l0.6-0.4c1.1-0.9,2.2-1.9,3.1-3l0.4-0.5l4.9,2.8l2.5-4.3l-4.9-2.8l0.2-0.6c0.5-1.3,0.9-2.7,1.1-4.1l0.1-0.7h5.8
			v-5h-5.9l-0.1-0.7c-0.2-1.4-0.6-2.7-1.1-4l-0.3-0.7l5.3-3l-2.5-4.3l-5.3,3.1L90.2,63c-0.9-1-1.8-2-2.9-2.8l-0.5-0.4l3.2-5.5
			l-4.3-2.5l-3.2,5.6l-0.6-0.2c-1.2-0.4-2.5-0.8-3.7-1l-0.7-0.1v-6.6h-5v6.6l-0.7,0.1c-1.3,0.2-2.5,0.5-3.7,1l-0.6,0.2l-3.4-5.8
			l-4.3,2.5l3.3,5.8l-0.5,0.4c-1,0.8-1.9,1.7-2.7,2.6l-0.4,0.5L53.7,60l-2.5,4.3l5.7,3.3l-0.3,0.7c-0.5,1.2-0.9,2.4-1.1,3.7
			l-0.1,0.7h-6.6v5h6.4l0.1,0.7c0.2,1.3,0.5,2.6,0.9,3.9l0.2,0.6l-5.5,3.2l2.5,4.3l5.3-3.1l0.4,0.6c0.8,1.1,1.8,2.1,2.8,3l0.5,0.4
			l-3,5.2l4.3,2.5l2.9-5l0.7,0.3c1.3,0.6,2.7,1,4,1.2l0.7,0.1v5.4H71.9z M75,89.4c-7.7,0-13.9-6.2-13.9-13.9S67.3,61.6,75,61.6
			s13.9,6.2,13.9,13.9C88.9,83.1,82.6,89.4,75,89.4z M75,63.2c-6.8,0-12.3,5.5-12.3,12.3S68.2,87.8,75,87.8s12.3-5.5,12.3-12.3
			S81.7,63.2,75,63.2z"/>
	</g>
	<g>
		<ellipse transform="matrix(0.7071 -0.7071 0.7071 0.7071 -19.3597 54.89)" class="st4" cx="56.6" cy="50.8" rx="10.4" ry="6.2"/>
		<path d="M52.6,60.2c-1.5,0-2.9-0.5-3.9-1.5c-2.8-2.8-1.5-8.5,2.9-12.9s10.1-5.7,12.9-2.9c1.4,1.4,1.8,3.5,1.2,6
			c-0.6,2.4-2.1,4.8-4.1,6.9l0,0l0,0C58.7,58.7,55.4,60.2,52.6,60.2z M60.7,43.1c-2.3,0-5.4,1.4-7.9,3.9c-3.7,3.7-5,8.5-2.9,10.6
			s6.9,0.7,10.6-2.9l0,0c1.9-1.9,3.2-4,3.7-6.1c0.5-1.9,0.2-3.5-0.8-4.5C62.7,43.4,61.8,43.1,60.7,43.1z"/>
	</g>
</g>
<rect x="-152" y="10" class="st4" width="130" height="130"/>
<g>
	<g>
		<circle class="st0" cx="-87" cy="75" r="41.6"/>
		<path d="M-87,117.4c-23.4,0-42.4-19-42.4-42.4s19-42.4,42.4-42.4s42.4,19,42.4,42.4S-63.7,117.4-87,117.4z M-87,34.2
			c-22.5,0-40.8,18.3-40.8,40.8s18.3,40.8,40.8,40.8S-46.2,97.5-46.2,75C-46.3,52.5-64.6,34.2-87,34.2z"/>
	</g>
	<g class="st1">
		<path class="st2" d="M-48.9,59.6c1,3.5,1.5,7.2,1.5,11c0,22.6-18.4,40.9-41.1,40.9c-17,0-31.5-10.2-37.8-24.9
			c4.8,17.2,20.7,29.9,39.6,29.9c22.7,0,41.1-18.3,41.1-40.9C-45.6,70-46.8,64.6-48.9,59.6z"/>
	</g>
	<g>
		<path class="st3" d="M-60.6,78.6V72h-6c-0.2-1.4-0.6-2.8-1.2-4.1l5.4-3.1l-3.3-5.7l-5.4,3.1c-0.9-1.1-1.9-2-3-2.9l3.2-5.6
			l-5.7-3.3l-3.3,5.7c-1.2-0.5-2.5-0.8-3.9-1v-6.7h-6.6v6.7c-1.3,0.2-2.6,0.5-3.8,1l-3.4-5.9l-5.7,3.3l3.4,5.9c-1,0.8-2,1.7-2.8,2.7
			l-5.9-3.4l-3.3,5.7l5.8,3.3c-0.5,1.2-0.9,2.5-1.2,3.8h-6.7v6.6h6.5c0.2,1.4,0.5,2.7,0.9,4l-5.6,3.2l3.3,5.7l5.4-3.1
			c0.9,1.1,1.8,2.2,2.9,3.1l-3.1,5.4l5.7,3.3l3-5.1c1.3,0.6,2.7,1,4.2,1.3v5.9h6.6v-5.7c1.5-0.2,3-0.6,4.4-1.1l2.9,5l5.7-3.3
			l-2.8-4.9c1.2-0.9,2.3-2,3.2-3.1l5,2.9l3.3-5.7l-5-2.9c0.5-1.4,0.9-2.8,1.1-4.3h5.8V78.6z M-73.9,75.5c0,7.2-5.9,13.1-13.1,13.1
			s-13.1-5.9-13.1-13.1s5.9-13.1,13.1-13.1S-73.9,68.2-73.9,75.5z"/>
		<path d="M-83.5,102.6h-8.2v-6.1c-1-0.2-2.1-0.5-3-0.9l-3,5.2l-7.1-4.1l3.2-5.5c-0.7-0.7-1.4-1.4-2.1-2.2l-5.5,3.1l-4.1-7.1
			l5.7-3.3c-0.3-0.9-0.5-1.9-0.6-2.8h-6.6v-8.3h6.9c0.2-0.9,0.5-1.8,0.8-2.7l-5.9-3.4l4.1-7.1l6.1,3.5c0.6-0.7,1.3-1.3,2-1.9l-3.5-6
			l7.1-4.1l3.5,6.1c0.9-0.3,1.7-0.5,2.6-0.7v-6.9h8.2v6.9c0.9,0.2,1.8,0.4,2.7,0.7l3.3-5.8l7.1,4.1l-3.3,5.7
			c0.7,0.6,1.4,1.3,2.1,2.1l5.6-3.2l4.1,7.1l-5.5,3.2c0.3,1,0.6,2,0.8,3h6.1v8.2H-66c-0.2,1.1-0.5,2.1-0.8,3.1l5.1,3l-4.1,7.1
			l-5.1-3c-0.7,0.8-1.5,1.6-2.3,2.3l2.9,5l-7.1,4.1l-3-5.1c-1,0.3-2.1,0.6-3.2,0.8L-83.5,102.6L-83.5,102.6z M-90.1,101h5v-5.6
			l0.7-0.1c1.4-0.2,2.8-0.5,4.2-1l0.6-0.2l2.8,4.9l4.3-2.5l-2.8-4.8l0.6-0.4c1.1-0.9,2.2-1.9,3.1-3l0.4-0.5l4.9,2.8l2.5-4.3
			l-4.9-2.8l0.2-0.6c0.5-1.3,0.9-2.7,1.1-4.1l0.1-0.7h5.8v-5h-5.9l-0.1-0.7c-0.2-1.4-0.6-2.7-1.1-4l-0.3-0.7l5.3-3l-2.5-4.3
			l-5.3,3.1l-0.4-0.5c-0.9-1-1.8-2-2.9-2.8l-0.5-0.4l3.2-5.5l-4.3-2.5l-3.2,5.6l-0.6-0.2c-1.2-0.4-2.5-0.8-3.7-1l-0.7-0.1v-6.6h-5
			v6.6l-0.7,0.1c-1.3,0.2-2.5,0.5-3.7,1l-0.6,0.2l-3.4-5.8l-4.3,2.5l3.3,5.8l-0.5,0.4c-1,0.8-1.9,1.7-2.7,2.6l-0.4,0.5l-5.8-3.4
			l-2.5,4.3l5.7,3.3l-0.3,0.7c-0.5,1.2-0.9,2.4-1.1,3.7l-0.1,0.7h-6.6v5h6.4l0.1,0.7c0.2,1.3,0.5,2.6,0.9,3.9l0.2,0.6l-5.5,3.2
			l2.5,4.3l5.3-3.1l0.4,0.6c0.8,1.1,1.8,2.1,2.8,3l0.5,0.4l-3,5.2l4.3,2.5l2.9-5l0.7,0.3c1.3,0.6,2.7,1,4,1.2l0.7,0.1v5.4H-90.1z
			 M-87,89.4c-7.7,0-13.9-6.2-13.9-13.9s6.2-13.9,13.9-13.9s13.9,6.2,13.9,13.9C-73.1,83.1-79.4,89.4-87,89.4z M-87,63.2
			c-6.8,0-12.3,5.5-12.3,12.3s5.5,12.3,12.3,12.3s12.3-5.5,12.3-12.3S-80.3,63.2-87,63.2z"/>
	</g>
	<g>
		
			<ellipse transform="matrix(0.7071 -0.7071 0.7071 0.7071 -66.8084 -59.6612)" class="st4" cx="-105.4" cy="50.8" rx="10.4" ry="6.2"/>
		<path d="M-109.4,60.2c-1.5,0-2.9-0.5-3.9-1.5c-2.8-2.8-1.5-8.5,2.9-12.9s10.1-5.7,12.9-2.9c1.4,1.4,1.8,3.5,1.2,6
			c-0.6,2.4-2.1,4.8-4.1,6.9l0,0l0,0C-103.3,58.7-106.6,60.2-109.4,60.2z M-101.3,43.1c-2.3,0-5.4,1.4-7.9,3.9
			c-3.7,3.7-5,8.5-2.9,10.6s6.9,0.7,10.6-2.9l0,0c1.9-1.9,3.2-4,3.7-6.1c0.5-1.9,0.2-3.5-0.8-4.5C-99.3,43.4-100.2,43.1-101.3,43.1z
			"/>
	</g>
</g>
</svg>
