<?xml version="1.0" encoding="utf-8"?>
<!-- Generator: Adobe Illustrator 22.0.1, SVG Export Plug-In . SVG Version: 6.00 Build 0)  -->
<svg version="1.1" id="Layer_1" xmlns="http://www.w3.org/2000/svg" xmlns:xlink="http://www.w3.org/1999/xlink" x="0px" y="0px"
	 viewBox="0 0 1742.3 156.8" style="enable-background:new 0 0 1742.3 156.8;" xml:space="preserve">
<style type="text/css">
	.st0{opacity:0.3;fill:#FFFFFF;}
	.st1{fill:#D1CAB6;}
	.st2{opacity:0.7;}
	.st3{fill:#828181;}
	.st4{fill:#C4C4C4;}
	.st5{fill:#898888;}
	.st6{fill:#FFFFFF;}
	.st7{fill:#F2EDE2;}
	.st8{opacity:0.2;fill:none;stroke:#FFFFFF;stroke-width:2;stroke-miterlimit:10;}
	.st9{fill:#E6E6E6;}
	.st10{opacity:0.6;}
	.st11{fill:#808080;}
	.st12{fill:#464643;}
	.st13{clip-path:url(#SVGID_2_);fill:#29ABE2;}
	.st14{clip-path:url(#SVGID_2_);fill:#28AAE1;}
	.st15{clip-path:url(#SVGID_2_);fill:#28A9E1;}
	.st16{clip-path:url(#SVGID_2_);fill:#27A8E0;}
	.st17{clip-path:url(#SVGID_2_);fill:#26A7DF;}
	.st18{clip-path:url(#SVGID_2_);fill:#25A6DF;}
	.st19{clip-path:url(#SVGID_2_);fill:#25A5DE;}
	.st20{clip-path:url(#SVGID_2_);fill:#24A4DD;}
	.st21{clip-path:url(#SVGID_2_);fill:#23A3DD;}
	.st22{clip-path:url(#SVGID_2_);fill:#23A2DC;}
	.st23{clip-path:url(#SVGID_2_);fill:#22A1DB;}
	.st24{clip-path:url(#SVGID_2_);fill:#21A0DB;}
	.st25{clip-path:url(#SVGID_2_);fill:#209FDA;}
	.st26{clip-path:url(#SVGID_2_);fill:#209ED9;}
	.st27{clip-path:url(#SVGID_2_);fill:#1F9DD9;}
	.st28{clip-path:url(#SVGID_2_);fill:#1E9CD8;}
	.st29{clip-path:url(#SVGID_2_);fill:#1D9BD7;}
	.st30{clip-path:url(#SVGID_2_);fill:#1D9AD7;}
	.st31{clip-path:url(#SVGID_2_);fill:#1C99D6;}
	.st32{clip-path:url(#SVGID_2_);fill:#1B98D5;}
	.st33{clip-path:url(#SVGID_2_);fill:#1B97D5;}
	.st34{clip-path:url(#SVGID_2_);fill:#1A96D4;}
	.st35{clip-path:url(#SVGID_2_);fill:#1995D3;}
	.st36{clip-path:url(#SVGID_2_);fill:#1894D3;}
	.st37{clip-path:url(#SVGID_2_);fill:#1893D2;}
	.st38{clip-path:url(#SVGID_2_);fill:#1792D1;}
	.st39{clip-path:url(#SVGID_2_);fill:#1691D1;}
	.st40{clip-path:url(#SVGID_2_);fill:#1690D0;}
	.st41{clip-path:url(#SVGID_2_);fill:#158FCF;}
	.st42{clip-path:url(#SVGID_2_);fill:#148DCF;}
	.st43{clip-path:url(#SVGID_2_);fill:#138CCE;}
	.st44{clip-path:url(#SVGID_2_);fill:#138BCD;}
	.st45{clip-path:url(#SVGID_2_);fill:#128ACD;}
	.st46{clip-path:url(#SVGID_2_);fill:#1189CC;}
	.st47{clip-path:url(#SVGID_2_);fill:#1188CB;}
	.st48{clip-path:url(#SVGID_2_);fill:#1087CB;}
	.st49{clip-path:url(#SVGID_2_);fill:#0F86CA;}
	.st50{clip-path:url(#SVGID_2_);fill:#0E85C9;}
	.st51{clip-path:url(#SVGID_2_);fill:#0E84C9;}
	.st52{clip-path:url(#SVGID_2_);fill:#0D83C8;}
	.st53{clip-path:url(#SVGID_2_);fill:#0C82C7;}
	.st54{clip-path:url(#SVGID_2_);fill:#0C81C7;}
	.st55{clip-path:url(#SVGID_2_);fill:#0B80C6;}
	.st56{clip-path:url(#SVGID_2_);fill:#0A7FC5;}
	.st57{clip-path:url(#SVGID_2_);fill:#097EC5;}
	.st58{clip-path:url(#SVGID_2_);fill:#097DC4;}
	.st59{clip-path:url(#SVGID_2_);fill:#087CC3;}
	.st60{clip-path:url(#SVGID_2_);fill:#077BC3;}
	.st61{clip-path:url(#SVGID_2_);fill:#067AC2;}
	.st62{clip-path:url(#SVGID_2_);fill:#0679C1;}
	.st63{clip-path:url(#SVGID_2_);fill:#0578C1;}
	.st64{clip-path:url(#SVGID_2_);fill:#0477C0;}
	.st65{clip-path:url(#SVGID_2_);fill:#0476BF;}
	.st66{clip-path:url(#SVGID_2_);fill:#0375BF;}
	.st67{clip-path:url(#SVGID_2_);fill:#0274BE;}
	.st68{clip-path:url(#SVGID_2_);fill:#0173BD;}
	.st69{clip-path:url(#SVGID_2_);fill:#0172BD;}
	.st70{clip-path:url(#SVGID_2_);fill:#0071BC;}
	.st71{fill:#EBF0F6;}
	.st72{fill:#7C5151;}
	.st73{fill:#916363;}
	.st74{fill:#382612;}
	.st75{fill:#FFE7BD;}
	.st76{opacity:0.2;}
	.st77{fill:#494747;}
	.st78{opacity:0.4;}
	.st79{fill:#C4B7A1;}
	.st80{fill:#4F4F4F;}
	.st81{fill:#FFAF78;}
	.st82{fill:#0F313F;}
	.st83{fill:#BDCCD4;}
	.st84{fill:#76D8FA;}
	.st85{fill:#3D2303;}
	.st86{fill:#EA9F48;}
	.st87{fill:#F1A74B;}
	.st88{fill:#380427;}
	.st89{fill:#F85FC4;}
	.st90{fill:#F57EAE;}
	.st91{fill:#3D6E9E;}
	.st92{fill:#65B5E1;}
	.st93{fill:#555555;}
	.st94{fill:#351F67;}
	.st95{fill:#F2F2F2;}
	.st96{fill:url(#SVGID_3_);stroke:#000000;stroke-width:2;stroke-miterlimit:10;}
	.st97{fill:none;stroke:#FFFFFF;stroke-width:4;stroke-miterlimit:10;}
	.st98{fill:url(#SVGID_4_);stroke:#000000;stroke-width:2;stroke-miterlimit:10;}
	.st99{fill:#FFFFFF;stroke:#000000;stroke-width:2;stroke-miterlimit:10;}
	.st100{fill:url(#SVGID_5_);stroke:#000000;stroke-width:2;stroke-miterlimit:10;}
	.st101{fill:#71C5F6;}
	.st102{fill:#FF8095;}
	.st103{fill:#D87261;}
	.st104{fill:#F2D373;}
	.st105{fill:#AE5E4F;}
	.st106{fill:#4DAC78;}
	.st107{fill:#418D5F;}
	.st108{fill:#D1B669;}
	.st109{fill:#EDBB62;}
	.st110{fill:#F0AA21;}
	.st111{fill:#FF9A29;}
	.st112{fill:#FFF7EE;}
	.st113{fill:#C64F3C;}
	.st114{fill:#FF7916;}
	.st115{fill:#FF3030;}
	.st116{fill:#59D8A7;}
	.st117{fill:#EFEFEF;}
	.st118{fill:#F9FFCA;}
</style>
<g>
	<path class="st0" d="M1725.2,150.9H17.2V36.3c0-16.7,13.7-30.3,30.3-30.3h1647.3c16.7,0,30.3,13.7,30.3,30.3V150.9z"/>
	<g>
		<g>
			<g>
				<path class="st1" d="M1693.1,51.6c0.2-0.5,0.3-1.1,0.3-1.6c0-7.2-17-13.1-38.1-13.1c-21,0-38.1,5.9-38.1,13.1
					c0,0.5,0.1,1.1,0.3,1.6c0,0,0,0,0,0.1c0,0.5,0.1,1.1,0.3,1.6c0,0,0,0,0,0.1c0,0.6,0.1,1.1,0.3,1.6c0,0,0,0,0,0
					c0,0.6,0.1,1.1,0.3,1.6c0,0,0,0,0,0c0,0.6,0.1,1.1,0.3,1.6c0,0,0,0,0,0c0,0.6,0.1,1.1,0.3,1.6c0,0,0,0,0,0
					c0,0.6,0.1,1.1,0.3,1.6c0,0,0,0,0,0c0,0.6,0.1,1.1,0.3,1.7c0,0,0,0,0,0c0,0.6,0.1,1.1,0.3,1.7c0,0,0,0,0,0
					c0,0.6,0.1,1.1,0.3,1.7c0,0,0,0,0,0c0,0.6,0.1,1.1,0.3,1.7c0,0,0,0,0,0c0,0.6,0.1,1.1,0.3,1.7c0,0.6,0.1,1.1,0.3,1.7
					c0,0.6,0.1,1.1,0.3,1.7c0,0.6,0.1,1.1,0.3,1.7c0,0.6,0.1,1.1,0.3,1.7c0,0.6,0.1,1.1,0.3,1.7c0,0.6,0.1,1.1,0.3,1.7
					c0,0.6,0.1,1.1,0.3,1.7c0,0.6,0.1,1.1,0.3,1.7c0,0.6,0.1,1.1,0.3,1.7c0,0.6,0.1,1.1,0.3,1.7c0,0.6,0.1,1.1,0.3,1.7
					c0,0.6,0.1,1.1,0.3,1.7c0,0.6,0.1,1.1,0.3,1.7c0,0.6,0.1,1.1,0.3,1.7c0,0.6,0.1,1.1,0.3,1.7c0,0.6,0.1,1.1,0.3,1.7
					c0,0.6,0.1,1.1,0.3,1.7c0,0.6,0.1,1.1,0.3,1.7c0,0.6,0.1,1.1,0.3,1.7c0,0.6,0.1,1.1,0.3,1.7c0,0.6,0.1,1.1,0.3,1.7
					c0,0.6,0.1,1.1,0.3,1.7c0.3,7.1,12.7,12.8,28,12.8c15.3,0,27.7-5.7,28-12.8c0.2-0.6,0.3-1.1,0.3-1.7c0.2-0.6,0.3-1.1,0.3-1.7
					c0.2-0.6,0.3-1.1,0.3-1.7c0.2-0.6,0.3-1.1,0.3-1.7c0.2-0.6,0.3-1.1,0.3-1.7c0.2-0.6,0.3-1.1,0.3-1.7c0.2-0.6,0.3-1.1,0.3-1.7
					c0.2-0.6,0.3-1.1,0.3-1.7c0.2-0.6,0.3-1.1,0.3-1.7c0.2-0.6,0.3-1.1,0.3-1.7c0.2-0.6,0.3-1.1,0.3-1.7c0.2-0.6,0.3-1.1,0.3-1.7
					c0.2-0.6,0.3-1.1,0.3-1.7c0.2-0.6,0.3-1.1,0.3-1.7c0.2-0.6,0.3-1.1,0.3-1.7c0.2-0.6,0.3-1.1,0.3-1.7c0.2-0.6,0.3-1.1,0.3-1.7
					c0.2-0.6,0.3-1.1,0.3-1.7c0.2-0.6,0.3-1.1,0.3-1.7c0.2-0.6,0.3-1.1,0.3-1.7c0.2-0.6,0.3-1.1,0.3-1.7c0.2-0.6,0.3-1.1,0.3-1.7
					c0.2-0.5,0.3-1.1,0.3-1.7c0,0,0,0,0,0c0.2-0.5,0.3-1.1,0.3-1.7c0,0,0,0,0,0c0.2-0.5,0.3-1.1,0.3-1.7c0,0,0,0,0,0
					c0.2-0.5,0.3-1.1,0.3-1.7c0,0,0,0,0,0c0.2-0.5,0.3-1.1,0.3-1.7c0,0,0,0,0,0c0.2-0.5,0.3-1.1,0.3-1.6c0,0,0,0,0,0
					c0.2-0.5,0.3-1.1,0.3-1.6c0,0,0,0,0,0c0.2-0.5,0.3-1.1,0.3-1.6c0,0,0,0,0,0c0.2-0.5,0.3-1.1,0.3-1.6c0,0,0,0,0,0
					c0.2-0.5,0.3-1.1,0.3-1.6c0,0,0,0,0-0.1C1693,52.7,1693.1,52.2,1693.1,51.6C1693.1,51.6,1693.1,51.6,1693.1,51.6z"/>
				<path d="M1655.3,120.7c-15.8,0-28.4-5.9-28.8-13.4c-0.2-0.5-0.3-1.1-0.3-1.7c-0.2-0.5-0.3-1.1-0.3-1.7c-0.2-0.5-0.3-1.1-0.3-1.7
					c-0.2-0.6-0.3-1.1-0.3-1.7c-0.2-0.6-0.3-1.1-0.3-1.7c-0.2-0.6-0.3-1.1-0.3-1.7c-0.2-0.6-0.3-1.1-0.3-1.7
					c-0.2-0.6-0.3-1.1-0.3-1.7c-0.2-0.6-0.3-1.1-0.3-1.7c-0.2-0.6-0.3-1.1-0.3-1.7c-0.2-0.6-0.3-1.1-0.3-1.7
					c-0.2-0.6-0.3-1.1-0.3-1.7c-0.2-0.6-0.3-1.1-0.3-1.7c-0.2-0.6-0.3-1.1-0.3-1.7c-0.2-0.6-0.3-1.1-0.3-1.7
					c-0.2-0.6-0.3-1.1-0.3-1.7c-0.2-0.6-0.3-1.1-0.3-1.7c-0.2-0.6-0.3-1.1-0.3-1.7c-0.2-0.6-0.3-1.1-0.3-1.7
					c-0.2-0.6-0.3-1.1-0.3-1.7c-0.2-0.6-0.3-1.1-0.3-1.7c-0.2-0.6-0.3-1.1-0.3-1.7c-0.2-0.6-0.3-1.1-0.3-1.7
					c-0.2-0.6-0.3-1.1-0.3-1.7c-0.2-0.6-0.3-1.1-0.3-1.7c-0.2-0.6-0.3-1.1-0.3-1.7c-0.2-0.6-0.3-1.1-0.3-1.7
					c-0.2-0.6-0.3-1.1-0.3-1.7c-0.2-0.6-0.3-1.1-0.3-1.7c-0.2-0.6-0.3-1.1-0.3-1.7c-0.2-0.6-0.3-1.1-0.3-1.7
					c-0.2-0.6-0.3-1.1-0.3-1.7c-0.2-0.6-0.3-1.1-0.3-1.7c-0.2-0.6-0.3-1.2-0.3-1.7c0-7.8,17.1-13.8,38.8-13.8
					c21.8,0,38.8,6.1,38.8,13.8c0,0.6-0.1,1.1-0.3,1.7c0,0.5-0.1,1.1-0.3,1.7c0,0.6-0.1,1.1-0.3,1.7c0,0.6-0.1,1.1-0.3,1.7
					c0,0.6-0.1,1.1-0.3,1.7c0,0.6-0.1,1.1-0.3,1.7c0,0.6-0.1,1.1-0.3,1.7c0,0.6-0.1,1.1-0.3,1.7c0,0.6-0.1,1.1-0.3,1.7
					c0,0.6-0.1,1.1-0.3,1.7c0,0.5-0.1,1.1-0.3,1.7c0,0.5-0.1,1.1-0.3,1.7c0,0.5-0.1,1.1-0.3,1.7c0,0.6-0.1,1.1-0.3,1.7
					c0,0.6-0.1,1.1-0.3,1.7c0,0.6-0.1,1.1-0.3,1.7c0,0.6-0.1,1.1-0.3,1.7c0,0.6-0.1,1.1-0.3,1.7c0,0.6-0.1,1.1-0.3,1.7
					c0,0.6-0.1,1.1-0.3,1.7c0,0.6-0.1,1.1-0.3,1.7c0,0.6-0.1,1.1-0.3,1.7c0,0.6-0.1,1.1-0.3,1.7c0,0.6-0.1,1.1-0.3,1.7
					c0,0.6-0.1,1.1-0.3,1.7c0,0.6-0.1,1.1-0.3,1.7c0,0.6-0.1,1.1-0.3,1.7c0,0.6-0.1,1.1-0.3,1.7c0,0.6-0.1,1.1-0.3,1.7
					c0,0.6-0.1,1.1-0.3,1.7c0,0.6-0.1,1.1-0.3,1.7c0,0.6-0.1,1.1-0.3,1.7c0,0.6-0.1,1.1-0.3,1.7c0,0.6-0.1,1.1-0.3,1.7
					C1683.7,114.8,1671.1,120.7,1655.3,120.7z M1621.3,68.4c0,0.4,0.1,0.9,0.3,1.4l0,0.1V70c0,0.5,0.1,0.9,0.3,1.4l0,0.1l0,0.1
					c0,0.5,0.1,0.9,0.3,1.4l0,0.1l0,0.1c0,0.5,0.1,0.9,0.3,1.4l0,0.1l0,0.1c0,0.5,0.1,0.9,0.3,1.4l0,0.2c0,0.5,0.1,1,0.3,1.4l0,0.2
					c0,0.5,0.1,0.9,0.3,1.4l0,0.2c0,0.5,0.1,1,0.3,1.4l0,0.2c0,0.5,0.1,1,0.3,1.4l0,0.2c0,0.5,0.1,1,0.3,1.5l0,0.2
					c0,0.5,0.1,1,0.3,1.5l0,0.2c0,0.5,0.1,1,0.3,1.5l0,0.2c0,0.5,0.1,1,0.3,1.5l0,0.2c0,0.5,0.1,1,0.3,1.5l0,0.2
					c0,0.5,0.1,1,0.3,1.5l0,0.2c0,0.5,0.1,1,0.3,1.5l0,0.2c0,0.5,0.1,1,0.3,1.5l0,0.2c0,0.5,0.1,1,0.3,1.5l0,0.2
					c0,0.5,0.1,1,0.3,1.5l0,0.2c0,0.5,0.1,1,0.3,1.5l0,0.2c0,0.5,0.1,1,0.3,1.5l0,0.2c0,0.5,0.1,1,0.3,1.5l0,0.2
					c0,0.5,0.1,1,0.3,1.5l0,0.2c0.3,6.7,12.5,12.1,27.2,12.1s27-5.4,27.2-12.1l0-0.2c0.2-0.5,0.2-1,0.3-1.5l0-0.2
					c0.2-0.5,0.2-1,0.3-1.5l0-0.2c0.2-0.5,0.2-1,0.3-1.5l0-0.2c0.2-0.5,0.2-1,0.3-1.5l0-0.2c0.2-0.5,0.2-1,0.3-1.5l0-0.2
					c0.2-0.5,0.2-1,0.3-1.5l0-0.2c0.2-0.5,0.2-1,0.3-1.5l0-0.2c0.2-0.5,0.2-1,0.3-1.5l0-0.2c0.2-0.5,0.2-1,0.3-1.5l0-0.2
					c0.2-0.5,0.2-1,0.3-1.5l0-0.2c0.2-0.5,0.2-1,0.3-1.5l0-0.2c0.2-0.5,0.2-1,0.3-1.5l0-0.2c0.2-0.5,0.2-1,0.3-1.5l0-0.2
					c0.2-0.5,0.2-1,0.3-1.5l0-0.2c0.2-0.5,0.2-1,0.3-1.4l0-0.2c0.2-0.5,0.3-1,0.3-1.4l0-0.2c0.2-0.5,0.3-1,0.3-1.4l0-0.2
					c0.2-0.5,0.3-1,0.3-1.4l0-0.2c0.2-0.5,0.3-1,0.3-1.4l0-0.1l0-0.1c0.2-0.5,0.3-1,0.3-1.4l0-0.1l0-0.1c0.2-0.5,0.3-1,0.3-1.4
					l0-0.1l0-0.1c0.2-0.5,0.3-1,0.3-1.4v-0.1l0-0.1c0.2-0.5,0.2-0.9,0.3-1.4l0-0.1l0.1-0.2c0.2-0.5,0.2-0.9,0.3-1.4l0-0.2l0-0.1
					c0.2-0.5,0.3-1,0.3-1.4v-0.1l0-0.1c0.2-0.5,0.3-1,0.3-1.4v-0.1l0-0.1c0.2-0.5,0.3-0.9,0.3-1.4v-0.1l0-0.2
					c0.2-0.5,0.3-0.9,0.3-1.4l0-0.1l0-0.1c0.2-0.5,0.3-0.9,0.3-1.4v-0.1l0-0.2c0.2-0.5,0.3-0.9,0.3-1.4l0-0.1l0-0.2
					c0.2-0.5,0.3-0.9,0.3-1.4v-0.1l0-0.2c0.2-0.5,0.3-0.9,0.3-1.4l0-0.1l0-0.2c0.2-0.5,0.3-0.9,0.3-1.4l0-0.1l0-0.2
					c0.2-0.5,0.3-0.9,0.3-1.4c0-6.7-17.1-12.3-37.3-12.3c-20.2,0-37.3,5.6-37.3,12.3c0,0.4,0.1,0.9,0.3,1.4l0,0.1l0,0.2
					c0,0.4,0.1,0.8,0.3,1.3l0,0.1l0,0.2c0,0.4,0.1,0.8,0.3,1.3l0,0.1l0,0.2c0,0.4,0.1,0.8,0.3,1.3l0,0.1l0,0.2
					c0,0.4,0.1,0.8,0.3,1.3l0,0.1l0,0.2c0,0.4,0.1,0.8,0.3,1.3l0,0.1l0,0.1c0,0.5,0.1,0.9,0.3,1.4l0,0.1l0,0.2
					c0,0.4,0.1,0.8,0.3,1.3l0,0.1l0,0.2c0,0.4,0.1,0.8,0.3,1.3l0,0.1l0,0.2c0,0.4,0.1,0.8,0.3,1.3l0,0.1l0,0.2
					c0,0.4,0.1,0.9,0.3,1.4l0.1,0.2L1621.3,68.4z"/>
			</g>
			<g class="st2">
				<path class="st3" d="M1692.6,51.6c0.2-0.5,0.3-1.1,0.3-1.6c0-7.2-17-13.1-38.1-13.1c-0.8,0-1.7,0-2.5,0
					c19.8,0.4,35.6,6.1,35.6,13c0,0.5-0.1,1.1-0.3,1.6c0,0,0,0,0,0.1c0,0.5-0.1,1.1-0.3,1.6c0,0,0,0,0,0.1c0,0.6-0.1,1.1-0.3,1.6
					c0,0,0,0,0,0c0,0.6-0.1,1.1-0.3,1.6c0,0,0,0,0,0c0,0.6-0.1,1.1-0.3,1.6c0,0,0,0,0,0c0,0.6-0.1,1.1-0.3,1.6c0,0,0,0,0,0
					c0,0.6-0.1,1.1-0.3,1.6c0,0,0,0,0,0c0,0.6-0.1,1.1-0.3,1.7c0,0,0,0,0,0c0,0.6-0.1,1.1-0.3,1.7c0,0,0,0,0,0
					c0,0.6-0.1,1.1-0.3,1.7c0,0,0,0,0,0c0,0.6-0.1,1.1-0.3,1.7c0,0,0,0,0,0c0,0.6-0.1,1.1-0.3,1.7c0,0.6-0.1,1.1-0.3,1.7
					c0,0.6-0.1,1.1-0.3,1.7c0,0.6-0.1,1.1-0.3,1.7c0,0.6-0.1,1.1-0.3,1.7c0,0.6-0.1,1.1-0.3,1.7c0,0.6-0.1,1.1-0.3,1.7
					c0,0.6-0.1,1.1-0.3,1.7c0,0.6-0.1,1.1-0.3,1.7c0,0.6-0.1,1.1-0.3,1.7c0,0.6-0.1,1.1-0.3,1.7c0,0.6-0.1,1.1-0.3,1.7
					c0,0.6-0.1,1.1-0.3,1.7c0,0.6-0.1,1.1-0.3,1.7c0,0.6-0.1,1.1-0.3,1.7c0,0.6-0.1,1.1-0.3,1.7c0,0.6-0.1,1.1-0.3,1.7
					c0,0.6-0.1,1.1-0.3,1.7c0,0.6-0.1,1.1-0.3,1.7c0,0.6-0.1,1.1-0.3,1.7c0,0.6-0.1,1.1-0.3,1.7c0,0.6-0.1,1.1-0.3,1.7
					c0,0.6-0.1,1.1-0.3,1.7c-0.3,6.7-11.4,12.2-25.5,12.8c0.8,0,1.7,0.1,2.5,0.1c15.3,0,27.7-5.7,28-12.8c0.2-0.6,0.3-1.1,0.3-1.7
					c0.2-0.6,0.3-1.1,0.3-1.7c0.2-0.6,0.3-1.1,0.3-1.7c0.2-0.6,0.3-1.1,0.3-1.7c0.2-0.6,0.3-1.1,0.3-1.7c0.2-0.6,0.3-1.1,0.3-1.7
					c0.2-0.6,0.3-1.1,0.3-1.7c0.2-0.6,0.3-1.1,0.3-1.7c0.2-0.6,0.3-1.1,0.3-1.7c0.2-0.6,0.3-1.1,0.3-1.7c0.2-0.6,0.3-1.1,0.3-1.7
					c0.2-0.6,0.3-1.1,0.3-1.7c0.2-0.6,0.3-1.1,0.3-1.7c0.2-0.6,0.3-1.1,0.3-1.7c0.2-0.6,0.3-1.1,0.3-1.7c0.2-0.6,0.3-1.1,0.3-1.7
					c0.2-0.6,0.3-1.1,0.3-1.7c0.2-0.6,0.3-1.1,0.3-1.7c0.2-0.6,0.3-1.1,0.3-1.7c0.2-0.6,0.3-1.1,0.3-1.7c0.2-0.6,0.3-1.1,0.3-1.7
					c0.2-0.6,0.3-1.1,0.3-1.7c0.2-0.5,0.3-1.1,0.3-1.7c0,0,0,0,0,0c0.2-0.5,0.3-1.1,0.3-1.7c0,0,0,0,0,0c0.2-0.5,0.3-1.1,0.3-1.7
					c0,0,0,0,0,0c0.2-0.5,0.3-1.1,0.3-1.7c0,0,0,0,0,0c0.2-0.5,0.3-1.1,0.3-1.7c0,0,0,0,0,0c0.2-0.5,0.3-1.1,0.3-1.6c0,0,0,0,0,0
					c0.2-0.5,0.3-1.1,0.3-1.6c0,0,0,0,0,0c0.2-0.5,0.3-1.1,0.3-1.6c0,0,0,0,0,0c0.2-0.5,0.3-1.1,0.3-1.6c0,0,0,0,0,0
					c0.2-0.5,0.3-1.1,0.3-1.6c0,0,0,0,0-0.1C1692.5,52.7,1692.7,52.2,1692.6,51.6C1692.7,51.6,1692.6,51.6,1692.6,51.6z"/>
			</g>
			<g>
				<ellipse class="st4" cx="1655.3" cy="48.3" rx="36.7" ry="11.4"/>
				<path d="M1655.3,60.4c-21,0-37.5-5.3-37.5-12.2c0-6.8,16.5-12.1,37.5-12.1c21,0,37.5,5.3,37.5,12.1
					C1692.8,55.1,1676.3,60.4,1655.3,60.4z M1655.3,37.7c-21.5,0-35.9,5.5-35.9,10.6c0,5.1,14.4,10.6,35.9,10.6
					c21.5,0,35.9-5.5,35.9-10.6C1691.3,43.1,1676.8,37.7,1655.3,37.7z"/>
			</g>
			<g>
				<path class="st5" d="M1655.3,39.8c18.7,0,34,4.3,36.4,9.9c0.2-0.5,0.3-1,0.3-1.5c0-6.3-16.4-11.4-36.7-11.4
					c-20.3,0-36.7,5.1-36.7,11.4c0,0.5,0.1,1,0.3,1.5C1621.3,44.2,1636.7,39.8,1655.3,39.8z"/>
				<path d="M1691.7,51.7L1691,50c-2.5-5.9-20.1-9.4-35.7-9.4s-33.2,3.5-35.7,9.4l-0.7,1.7l-0.7-1.7c-0.2-0.6-0.4-1.2-0.4-1.8
					c0-6.8,16.5-12.1,37.5-12.1c21,0,37.5,5.3,37.5,12.1c0,0.6-0.1,1.2-0.4,1.8L1691.7,51.7z M1655.3,39.1c16.9,0,31.2,3.5,35.8,8.5
					c-1.2-4.9-15.3-9.9-35.8-9.9c-20.5,0-34.6,5-35.8,9.9C1624.2,42.6,1638.4,39.1,1655.3,39.1z"/>
			</g>
			<g>
				<ellipse transform="matrix(0.9752 -0.2213 0.2213 0.9752 24.965 362.4028)" class="st6" cx="1630" cy="69.8" rx="5" ry="8.5"/>
				<path d="M1631.2,78.9c-3,0-5.9-3.4-6.9-8c-0.7-3.2-0.3-6.2,1-8.2c0.7-1.1,1.7-1.7,2.8-1.9c3.2-0.6,6.5,2.9,7.6,8
					c0.7,3.2,0.3,6.2-1,8.2c-0.7,1.1-1.7,1.7-2.8,1.9C1631.7,78.8,1631.5,78.9,1631.2,78.9z M1628.8,62.2c-0.1,0-0.3,0-0.4,0
					c-0.7,0.1-1.3,0.5-1.8,1.3c-1.1,1.6-1.4,4.3-0.8,7c0.9,4.1,3.5,7.2,5.8,6.8c0.7-0.1,1.3-0.6,1.8-1.3c1.1-1.6,1.4-4.3,0.8-7l0,0
					C1633.4,65.2,1631,62.2,1628.8,62.2z"/>
			</g>
		</g>
		<g>
			<g>
				<path class="st7" d="M1657.1,46.3c0.8-0.2,1.3,1.2,2.1,1c0.8-0.2,0.4-1.7,1.3-2c0.8-0.2,1.3,1.2,2.1,1c0.8-0.2,0.4-1.7,1.3-2
					c0.8-0.2,1.3,1.2,2.1,1"/>
			</g>
			<g>
				<path d="M1659,47.7c-0.5,0-0.9-0.4-1.1-0.6c-0.3-0.3-0.5-0.5-0.7-0.4l-0.2-0.7c0.6-0.2,1.1,0.3,1.4,0.6c0.3,0.3,0.5,0.5,0.7,0.4
					c0.2-0.1,0.3-0.3,0.4-0.7c0.1-0.5,0.3-1.1,0.9-1.3c0.6-0.2,1.1,0.3,1.4,0.6c0.3,0.3,0.5,0.5,0.7,0.4c0.2-0.1,0.3-0.3,0.4-0.7
					c0.1-0.5,0.3-1.1,0.9-1.3c0.6-0.2,1.1,0.3,1.4,0.6c0.3,0.3,0.5,0.5,0.7,0.4l0.2,0.7c-0.6,0.2-1.1-0.3-1.4-0.6
					c-0.3-0.3-0.5-0.5-0.7-0.4c-0.2,0.1-0.3,0.3-0.4,0.7c-0.1,0.5-0.3,1.1-0.9,1.3c-0.6,0.2-1.1-0.3-1.4-0.6
					c-0.3-0.3-0.5-0.5-0.7-0.4c-0.2,0.1-0.3,0.3-0.4,0.7c-0.1,0.5-0.3,1.1-0.9,1.3C1659.2,47.7,1659.1,47.7,1659,47.7z"/>
			</g>
		</g>
		<g>
			<g>
				<path class="st7" d="M1668.2,49.5c0.6,0.1,0.3,1.6,0.9,1.8c0.6,0.1,0.9-1.4,1.5-1.3c0.6,0.1,0.3,1.6,0.9,1.8
					c0.6,0.1,0.9-1.4,1.5-1.3s0.3,1.6,0.9,1.8"/>
			</g>
			<g>
				<path d="M1674,52.6c-0.6-0.1-0.7-0.7-0.8-1.2c0-0.2-0.1-0.5-0.2-0.6c-0.1,0-0.3,0.3-0.4,0.5c-0.3,0.4-0.6,0.9-1.2,0.8
					c-0.6-0.1-0.7-0.7-0.8-1.2c0-0.2-0.1-0.5-0.2-0.6c-0.1,0-0.3,0.3-0.4,0.5c-0.3,0.4-0.6,0.9-1.2,0.8c-0.6-0.1-0.7-0.7-0.8-1.2
					c0-0.2-0.1-0.5-0.2-0.6l0.2-0.7c0.6,0.1,0.7,0.7,0.8,1.2c0,0.2,0.1,0.5,0.2,0.6c0.1,0,0.3-0.3,0.4-0.5c0.3-0.4,0.6-0.9,1.2-0.8
					c0.6,0.1,0.7,0.7,0.8,1.2c0,0.2,0.1,0.5,0.2,0.6c0.1,0,0.3-0.3,0.4-0.5c0.3-0.4,0.6-0.9,1.2-0.8c0.6,0.1,0.7,0.7,0.8,1.2
					c0,0.2,0.1,0.5,0.2,0.6L1674,52.6z"/>
			</g>
		</g>
		<g>
			<g>
				<path class="st7" d="M1630.5,48.7c0.6,0.1,0.3,1.6,0.9,1.8c0.6,0.1,0.9-1.4,1.5-1.3c0.6,0.1,0.3,1.6,0.9,1.8
					c0.6,0.1,0.9-1.4,1.5-1.3s0.3,1.6,0.9,1.8"/>
			</g>
			<g>
				<path d="M1636.3,51.9c-0.6-0.1-0.7-0.7-0.8-1.2c0-0.2-0.1-0.5-0.2-0.6c-0.1,0-0.3,0.3-0.4,0.5c-0.3,0.4-0.6,0.9-1.2,0.8
					c-0.6-0.1-0.7-0.7-0.8-1.2c0-0.2-0.1-0.5-0.2-0.6c-0.1,0-0.3,0.3-0.4,0.5c-0.3,0.4-0.6,0.9-1.2,0.8c-0.6-0.1-0.7-0.7-0.8-1.2
					c0-0.2-0.1-0.5-0.2-0.6l0.2-0.7c0.6,0.1,0.7,0.7,0.8,1.2c0,0.2,0.1,0.5,0.2,0.6c0.1,0,0.3-0.3,0.4-0.5c0.3-0.4,0.6-0.9,1.2-0.8
					c0.6,0.1,0.7,0.7,0.8,1.2c0,0.2,0.1,0.5,0.2,0.6c0.1,0,0.3-0.3,0.4-0.5c0.3-0.4,0.6-0.9,1.2-0.8c0.6,0.1,0.7,0.7,0.8,1.2
					c0,0.2,0.1,0.5,0.2,0.6L1636.3,51.9z"/>
			</g>
		</g>
	</g>
	<line class="st8" x1="1582.2" y1="31.9" x2="1582.2" y2="124.9"/>
	<g>
		<g>
			<circle class="st9" cx="724.5" cy="78.4" r="41.6"/>
			<path d="M724.5,120.8c-23.4,0-42.4-19-42.4-42.4c0-23.4,19-42.4,42.4-42.4c23.4,0,42.4,19,42.4,42.4
				C766.9,101.8,747.8,120.8,724.5,120.8z M724.5,37.6c-22.5,0-40.8,18.3-40.8,40.8c0,22.5,18.3,40.8,40.8,40.8s40.8-18.3,40.8-40.8
				C765.2,55.9,746.9,37.6,724.5,37.6z"/>
		</g>
		<g class="st10">
			<path class="st11" d="M762.6,63c1,3.5,1.5,7.2,1.5,11c0,22.6-18.4,40.9-41.1,40.9c-17,0-31.5-10.2-37.8-24.9
				c4.8,17.2,20.7,29.9,39.6,29.9c22.7,0,41.1-18.3,41.1-40.9C765.9,73.4,764.7,68,762.6,63z"/>
		</g>
		<g>
			<path class="st12" d="M750.9,82v-6.6h-6c-0.2-1.4-0.6-2.8-1.2-4.1l5.4-3.1l-3.3-5.7l-5.4,3.1c-0.9-1.1-1.9-2-3-2.9l3.2-5.6
				l-5.7-3.3l-3.3,5.7c-1.2-0.5-2.5-0.8-3.9-1v-6.7h-6.6v6.7c-1.3,0.2-2.6,0.5-3.8,1l-3.4-5.9l-5.7,3.3l3.4,5.9
				c-1,0.8-2,1.7-2.8,2.7l-5.9-3.4l-3.3,5.7l5.8,3.3c-0.5,1.2-0.9,2.5-1.2,3.8h-6.7v6.6h6.5c0.2,1.4,0.5,2.7,0.9,4l-5.6,3.2l3.3,5.7
				l5.4-3.1c0.9,1.1,1.8,2.2,2.9,3.1l-3.1,5.4l5.7,3.3l3-5.1c1.3,0.6,2.7,1,4.2,1.3v5.9h6.6v-5.7c1.5-0.2,3-0.6,4.4-1.1l2.9,5
				l5.7-3.3l-2.8-4.9c1.2-0.9,2.3-2,3.2-3.1l5,2.9l3.3-5.7l-5-2.9c0.5-1.4,0.9-2.8,1.1-4.3H750.9z M737.6,78.9
				c0,7.2-5.9,13.1-13.1,13.1s-13.1-5.9-13.1-13.1c0-7.2,5.9-13.1,13.1-13.1S737.6,71.6,737.6,78.9z"/>
			<path d="M728,106h-8.2v-6.1c-1-0.2-2.1-0.5-3-0.9l-3,5.2l-7.1-4.1l3.2-5.5c-0.7-0.7-1.4-1.4-2.1-2.2l-5.5,3.1l-4.1-7.1l5.7-3.3
				c-0.3-0.9-0.5-1.9-0.6-2.8h-6.6V74h6.9c0.2-0.9,0.5-1.8,0.8-2.7l-5.9-3.4l4.1-7.1l6.1,3.5c0.6-0.7,1.3-1.3,2-1.9l-3.5-6l7.1-4.1
				l3.5,6.1c0.9-0.3,1.7-0.5,2.6-0.7v-6.9h8.2v6.9c0.9,0.2,1.8,0.4,2.7,0.7l3.3-5.8l7.1,4.1l-3.3,5.7c0.7,0.6,1.4,1.3,2.1,2.1
				l5.6-3.2l4.1,7.1l-5.5,3.2c0.3,1,0.6,2,0.8,3h6.1v8.2h-6.1c-0.2,1.1-0.5,2.1-0.8,3.1l5.1,3l-4.1,7.1l-5.1-3
				c-0.7,0.8-1.5,1.6-2.3,2.3l2.9,5l-7.1,4.1l-3-5.1c-1,0.3-2.1,0.6-3.2,0.8V106z M721.4,104.4h5v-5.6l0.7-0.1
				c1.4-0.2,2.8-0.5,4.2-1l0.6-0.2l2.8,4.9l4.3-2.5l-2.8-4.8l0.6-0.4c1.1-0.9,2.2-1.9,3.1-3l0.4-0.5l4.9,2.8l2.5-4.3l-4.9-2.8
				l0.2-0.6c0.5-1.3,0.9-2.7,1.1-4.1l0.1-0.7h5.8v-5h-5.9l-0.1-0.7c-0.2-1.4-0.6-2.7-1.1-4l-0.3-0.7l5.3-3l-2.5-4.3l-5.3,3.1
				l-0.4-0.5c-0.9-1-1.8-2-2.9-2.8l-0.5-0.4l3.2-5.5l-4.3-2.5l-3.2,5.6l-0.6-0.2c-1.2-0.4-2.5-0.8-3.7-1l-0.7-0.1v-6.6h-5v6.6
				l-0.7,0.1c-1.3,0.2-2.5,0.5-3.7,1l-0.6,0.2l-3.4-5.8l-4.3,2.5l3.3,5.8l-0.5,0.4c-1,0.8-1.9,1.7-2.7,2.6l-0.4,0.5l-5.8-3.4
				l-2.5,4.3l5.7,3.3l-0.3,0.7c-0.5,1.2-0.9,2.4-1.1,3.7l-0.1,0.7h-6.6v5h6.4l0.1,0.7c0.2,1.3,0.5,2.6,0.9,3.9l0.2,0.6l-5.5,3.2
				l2.5,4.3l5.3-3.1l0.4,0.6c0.8,1.1,1.8,2.1,2.8,3l0.5,0.4l-3,5.2l4.3,2.5l2.9-5l0.7,0.3c1.3,0.6,2.7,1,4,1.2l0.7,0.1V104.4z
				 M724.5,92.8c-7.7,0-13.9-6.2-13.9-13.9c0-7.7,6.2-13.9,13.9-13.9s13.9,6.2,13.9,13.9C738.4,86.5,732.1,92.8,724.5,92.8z
				 M724.5,66.6c-6.8,0-12.3,5.5-12.3,12.3s5.5,12.3,12.3,12.3c6.8,0,12.3-5.5,12.3-12.3S731.2,66.6,724.5,66.6z"/>
		</g>
		<g>
			
				<ellipse transform="matrix(0.7071 -0.7071 0.7071 0.7071 168.4702 515.1727)" class="st6" cx="706.1" cy="54.2" rx="10.4" ry="6.2"/>
			<path d="M702.1,63.6c-1.5,0-2.9-0.5-3.9-1.5c-2.8-2.8-1.5-8.5,2.9-12.9c4.4-4.4,10.1-5.7,12.9-2.9c1.4,1.4,1.8,3.5,1.2,6
				c-0.6,2.4-2.1,4.8-4.1,6.9l0,0l0,0C708.2,62.1,704.9,63.6,702.1,63.6z M710.2,46.5c-2.3,0-5.4,1.4-7.9,3.9
				c-3.7,3.7-5,8.5-2.9,10.6c2.1,2.1,6.9,0.7,10.6-2.9l0,0c1.9-1.9,3.2-4,3.7-6.1c0.5-1.9,0.2-3.5-0.8-4.5
				C712.2,46.8,711.3,46.5,710.2,46.5z"/>
		</g>
	</g>
	<g>
		<g>
			<g>
				<defs>
					<path id="SVGID_1_" d="M83.5,84c0.6-3.7,6.9-23.6,12.6-41.3h-35c-3.8,0-7,2.9-7,6.4v58.6c0,3.5,3.1,6.4,7,6.4h28
						c0.1-11.7,5.4-24.2,5.4-24.2C86.4,89.9,82.3,90.9,83.5,84z"/>
				</defs>
				<clipPath id="SVGID_2_">
					<use xlink:href="#SVGID_1_"  style="overflow:visible;"/>
				</clipPath>
				<path class="st13" d="M96.1,42.7h-42H96.1z"/>
				<rect x="54.1" y="42.7" class="st13" width="42" height="1.2"/>
				<rect x="54.1" y="43.9" class="st14" width="42" height="1.2"/>
				<rect x="54.1" y="45.2" class="st15" width="42" height="1.2"/>
				<rect x="54.1" y="46.4" class="st16" width="42" height="1.2"/>
				<rect x="54.1" y="47.6" class="st17" width="42" height="1.2"/>
				<rect x="54.1" y="48.9" class="st18" width="42" height="1.2"/>
				<rect x="54.1" y="50.1" class="st19" width="42" height="1.2"/>
				<rect x="54.1" y="51.3" class="st20" width="42" height="1.2"/>
				<rect x="54.1" y="52.6" class="st21" width="42" height="1.2"/>
				<rect x="54.1" y="53.8" class="st22" width="42" height="1.2"/>
				<rect x="54.1" y="55" class="st23" width="42" height="1.2"/>
				<rect x="54.1" y="56.3" class="st24" width="42" height="1.2"/>
				<rect x="54.1" y="57.5" class="st25" width="42" height="1.2"/>
				<rect x="54.1" y="58.7" class="st26" width="42" height="1.2"/>
				<rect x="54.1" y="59.9" class="st27" width="42" height="1.2"/>
				<rect x="54.1" y="61.2" class="st28" width="42" height="1.2"/>
				<rect x="54.1" y="62.4" class="st29" width="42" height="1.2"/>
				<rect x="54.1" y="63.6" class="st30" width="42" height="1.2"/>
				<rect x="54.1" y="64.9" class="st31" width="42" height="1.2"/>
				<rect x="54.1" y="66.1" class="st32" width="42" height="1.2"/>
				<rect x="54.1" y="67.3" class="st33" width="42" height="1.2"/>
				<rect x="54.1" y="68.6" class="st34" width="42" height="1.2"/>
				<rect x="54.1" y="69.8" class="st35" width="42" height="1.2"/>
				<rect x="54.1" y="71" class="st36" width="42" height="1.2"/>
				<rect x="54.1" y="72.3" class="st37" width="42" height="1.2"/>
				<rect x="54.1" y="73.5" class="st38" width="42" height="1.2"/>
				<rect x="54.1" y="74.7" class="st39" width="42" height="1.2"/>
				<rect x="54.1" y="76" class="st40" width="42" height="1.2"/>
				<rect x="54.1" y="77.2" class="st41" width="42" height="1.2"/>
				<rect x="54.1" y="78.4" class="st42" width="42" height="1.2"/>
				<rect x="54.1" y="79.6" class="st43" width="42" height="1.2"/>
				<rect x="54.1" y="80.9" class="st44" width="42" height="1.2"/>
				<rect x="54.1" y="82.1" class="st45" width="42" height="1.2"/>
				<rect x="54.1" y="83.3" class="st46" width="42" height="1.2"/>
				<rect x="54.1" y="84.6" class="st47" width="42" height="1.2"/>
				<rect x="54.1" y="85.8" class="st48" width="42" height="1.2"/>
				<rect x="54.1" y="87" class="st49" width="42" height="1.2"/>
				<rect x="54.1" y="88.3" class="st50" width="42" height="1.2"/>
				<rect x="54.1" y="89.5" class="st51" width="42" height="1.2"/>
				<rect x="54.1" y="90.7" class="st52" width="42" height="1.2"/>
				<rect x="54.1" y="92" class="st53" width="42" height="1.2"/>
				<rect x="54.1" y="93.2" class="st54" width="42" height="1.2"/>
				<rect x="54.1" y="94.4" class="st55" width="42" height="1.2"/>
				<rect x="54.1" y="95.6" class="st56" width="42" height="1.2"/>
				<rect x="54.1" y="96.9" class="st57" width="42" height="1.2"/>
				<rect x="54.1" y="98.1" class="st58" width="42" height="1.2"/>
				<rect x="54.1" y="99.3" class="st59" width="42" height="1.2"/>
				<rect x="54.1" y="100.6" class="st60" width="42" height="1.2"/>
				<rect x="54.1" y="101.8" class="st61" width="42" height="1.2"/>
				<rect x="54.1" y="103" class="st62" width="42" height="1.2"/>
				<rect x="54.1" y="104.3" class="st63" width="42" height="1.2"/>
				<rect x="54.1" y="105.5" class="st64" width="42" height="1.2"/>
				<rect x="54.1" y="106.7" class="st65" width="42" height="1.2"/>
				<rect x="54.1" y="108" class="st66" width="42" height="1.2"/>
				<rect x="54.1" y="109.2" class="st67" width="42" height="1.2"/>
				<rect x="54.1" y="110.4" class="st68" width="42" height="1.2"/>
				<rect x="54.1" y="111.7" class="st69" width="42" height="1.2"/>
				<rect x="54.1" y="112.9" class="st70" width="42" height="1.2"/>
				<path class="st70" d="M54.1,114.1h42H54.1z"/>
			</g>
			<path d="M90,114.9H61.1c-4.3,0-7.8-3.2-7.8-7.2V49.1c0-4,3.5-7.2,7.8-7.2h36.2L96.9,43c-7.8,24-12.1,38.2-12.6,41.2
				c-0.3,2-0.2,3.3,0.4,3.9c0.9,1.1,3.5,1.1,7,1c0.9,0,1.9,0,2.9,0h1.3l-0.5,1.2c-0.1,0.1-5.3,12.5-5.4,23.9L90,114.9z M61.1,43.5
				c-3.4,0-6.2,2.5-6.2,5.6v58.6c0,3.1,2.8,5.6,6.2,5.6h27.2c0.3-9.6,3.7-19.3,5-22.6c-0.6,0-1.1,0-1.6,0c-4.1,0.1-6.8,0.1-8.3-1.6
				c-0.9-1.1-1.2-2.7-0.7-5.3l0,0c0.5-3,4.7-16.6,12.3-40.3H61.1z"/>
		</g>
		<g>
			<path class="st71" d="M132.1,107.7V49.1c0-3.5-3.1-6.4-7-6.4h-29c-5.7,17.7-12,37.6-12.6,41.3c-1.2,6.9,2.9,5.9,11.1,5.9
				c0,0-5.3,12.5-5.4,24.2h36C129,114.1,132.1,111.2,132.1,107.7z"/>
			<path d="M125.1,114.9H88.3l0-0.8c0.1-9.8,3.7-20,5-23.4c-0.6,0-1.1,0-1.6,0c-4.1,0.1-6.8,0.1-8.3-1.6c-0.9-1.1-1.2-2.7-0.7-5.3
				c0.5-3.1,4.8-17,12.7-41.4l0.2-0.6h29.6c4.3,0,7.8,3.2,7.8,7.2v58.6C132.9,111.7,129.4,114.9,125.1,114.9z M90,113.3h35.1
				c3.4,0,6.2-2.5,6.2-5.6V49.1c0-3.1-2.8-5.6-6.2-5.6H96.7c-7.6,23.6-11.9,37.7-12.4,40.6c-0.3,2-0.2,3.3,0.4,3.9
				c0.9,1.1,3.5,1.1,7,1c0.9,0,1.9,0,2.9,0h1.3l-0.5,1.2C95.3,90.3,90.3,102.1,90,113.3z"/>
		</g>
		<g>
			<path d="M91.9,103.7c-5.2,0-10.4-1.8-14.5-5.5c-0.3-0.3-0.4-0.8-0.1-1.2c0.3-0.3,0.8-0.4,1.2-0.1c7.6,6.7,19.2,6.7,26.8,0
				c0.3-0.3,0.9-0.3,1.2,0.1c0.3,0.3,0.3,0.9-0.1,1.2C102.3,101.9,97.1,103.7,91.9,103.7z"/>
		</g>
		<g>
			<path d="M72.8,75.7h-0.2c-1.2,0-2.2-1-2.2-2.2V71c0-1.2,1-2.2,2.2-2.2h0.2c1.2,0,2.2,1,2.2,2.2v2.5
				C75.1,74.7,74.1,75.7,72.8,75.7z"/>
		</g>
		<g>
			<path d="M107.8,75.7h-0.2c-1.2,0-2.2-1-2.2-2.2V71c0-1.2,1-2.2,2.2-2.2h0.2c1.2,0,2.2,1,2.2,2.2v2.5
				C110,74.7,109,75.7,107.8,75.7z"/>
		</g>
	</g>
	<g>
		<g>
			<g>
				<g>
					<path class="st72" d="M852.9,121l-56.1-11.6c-1.1-0.2-1.8-1.3-1.6-2.4l15.2-73.5c0.2-1.1,1.3-1.8,2.4-1.6L869,43.6
						c1.1,0.2,1.8,1.3,1.6,2.4l-15.2,73.4C855.1,120.5,854,121.2,852.9,121z"/>
				</g>
				<g>
					<path d="M852.9,121.1l-56.1-11.6c-1.1-0.2-1.9-1.4-1.6-2.5l15.2-73.5c0.2-1.1,1.4-1.9,2.5-1.6L869,43.5
						c1.1,0.2,1.9,1.4,1.6,2.5l-15.2,73.4c-0.1,0.6-0.4,1-0.9,1.4C854,121.1,853.5,121.2,852.9,121.1z M812.9,32
						c-1-0.2-2,0.5-2.3,1.5L795.4,107c-0.2,1,0.5,2,1.5,2.3l56.1,11.6c0.5,0.1,1,0,1.5-0.3c0.4-0.3,0.7-0.7,0.8-1.2l15.2-73.4
						c0.2-1-0.5-2-1.5-2.3L812.9,32z"/>
				</g>
			</g>
			<g>
				<g>
					<path class="st72" d="M852.9,121.2l-56.1-11.6c-1.2-0.2-2-1.4-1.7-2.6l15.2-73.5c0.2-1.2,1.4-2,2.6-1.7L869,43.3
						c1.2,0.2,2,1.4,1.7,2.6l-15.2,73.4C855.3,120.6,854.1,121.4,852.9,121.2z M812.8,32.1c-1-0.2-1.9,0.4-2.1,1.4L795.5,107
						c-0.2,1,0.4,1.9,1.4,2.1l56.1,11.6c1,0.2,1.9-0.4,2.1-1.4l15.2-73.4c0.2-1-0.4-1.9-1.4-2.1C868.9,43.8,812.8,32.1,812.8,32.1z"
						/>
				</g>
				<g>
					<path d="M852.8,121.3l-56.1-11.6c-1.3-0.3-2.1-1.5-1.8-2.8l15.2-73.5c0.3-1.3,1.5-2.1,2.8-1.8L869,43.2
						c1.3,0.3,2.1,1.5,1.8,2.8l-15.2,73.4c-0.1,0.6-0.5,1.1-1,1.5C854.1,121.3,853.5,121.4,852.8,121.3z M812.9,31.8
						c-1.1-0.2-2.3,0.5-2.5,1.6l-15.2,73.5c-0.2,1.1,0.5,2.3,1.6,2.5l56.1,11.6c0.6,0.1,1.1,0,1.6-0.3c0.5-0.3,0.8-0.8,0.9-1.3
						L870.6,46c0.2-1.1-0.5-2.3-1.6-2.5L812.9,31.8z M852.9,120.8l-56.1-11.6c-1-0.2-1.7-1.2-1.5-2.3l15.2-73.4
						c0.2-1,1.2-1.7,2.3-1.5l56.1,11.6c1,0.2,1.7,1.2,1.5,2.3l-15.2,73.4C855,120.4,854,121.1,852.9,120.8z M812.8,32.2
						c-0.9-0.2-1.8,0.4-2,1.3L795.6,107c-0.2,0.9,0.4,1.8,1.3,2l56.1,11.6c0.9,0.2,1.8-0.4,2-1.3l15.2-73.4c0.2-0.9-0.4-1.8-1.3-2
						L812.8,32.2z"/>
				</g>
			</g>
		</g>
		<g>
			<g>
				<g>
					<path class="st73" d="M849.2,123.1l-56.1-11.6c-1.1-0.2-1.8-1.3-1.6-2.4l15.2-73.5c0.2-1.1,1.3-1.8,2.4-1.6l56.1,11.6
						c1.1,0.2,1.8,1.3,1.6,2.4l-15.2,73.4C851.4,122.6,850.3,123.3,849.2,123.1z"/>
				</g>
				<g>
					<path d="M849.2,123.2l-56.1-11.6c-1.1-0.2-1.9-1.4-1.6-2.5l15.2-73.5c0.2-1.1,1.4-1.9,2.5-1.6l56.1,11.6
						c1.1,0.2,1.9,1.4,1.6,2.5l-15.2,73.4c-0.1,0.6-0.4,1-0.9,1.4C850.3,123.2,849.7,123.3,849.2,123.2z M809.1,34.1
						c-1-0.2-2,0.5-2.3,1.5l-15.2,73.5c-0.2,1,0.5,2,1.5,2.3l56.1,11.6c0.5,0.1,1,0,1.5-0.3c0.4-0.3,0.7-0.7,0.8-1.2L866.7,48
						c0.2-1-0.5-2-1.5-2.3L809.1,34.1z"/>
				</g>
			</g>
			<g>
				<g>
					<path class="st73" d="M849.1,123.3l-56.1-11.6c-1.2-0.2-2-1.4-1.7-2.6l15.2-73.5c0.2-1.2,1.4-2,2.6-1.7l56.1,11.6
						c1.2,0.2,2,1.4,1.7,2.6l-15.2,73.4C851.6,122.7,850.3,123.5,849.1,123.3z M809.1,34.2c-1-0.2-1.9,0.4-2.1,1.4l-15.2,73.4
						c-0.2,1,0.4,1.9,1.4,2.1l56.1,11.6c1,0.2,1.9-0.4,2.1-1.4L866.6,48c0.2-1-0.4-1.9-1.4-2.1C865.2,45.9,809.1,34.2,809.1,34.2z"
						/>
				</g>
				<g>
					<path d="M849.1,123.4l-56.1-11.6c-1.3-0.3-2.1-1.5-1.8-2.8l15.2-73.5c0.3-1.3,1.5-2.1,2.8-1.8l56.1,11.6
						c1.3,0.3,2.1,1.5,1.8,2.8l-15.2,73.4c-0.1,0.6-0.5,1.1-1,1.5C850.4,123.4,849.7,123.5,849.1,123.4z M809.2,33.9
						c-1.1-0.2-2.3,0.5-2.5,1.6L791.5,109c-0.2,1.1,0.5,2.3,1.6,2.5l56.1,11.6c0.6,0.1,1.1,0,1.6-0.3c0.5-0.3,0.8-0.8,0.9-1.3
						l15.2-73.4c0.2-1.1-0.5-2.3-1.6-2.5L809.2,33.9z M849.2,122.9l-56.1-11.6c-1-0.2-1.7-1.2-1.5-2.3l15.2-73.4
						c0.2-1,1.2-1.7,2.3-1.5l56.1,11.6c1,0.2,1.7,1.2,1.5,2.3l-15.2,73.4C851.3,122.5,850.2,123.1,849.2,122.9z M809.1,34.3
						c-0.9-0.2-1.8,0.4-2,1.3l-15.2,73.4c-0.2,0.9,0.4,1.8,1.3,2l56.1,11.6c0.9,0.2,1.8-0.4,2-1.3L866.5,48c0.2-0.9-0.4-1.8-1.3-2
						L809.1,34.3z"/>
				</g>
			</g>
		</g>
		<g>
			<g>
				<g>
					<path class="st6" d="M846.6,124.8l-56.1-11.6c-1.1-0.2-1.8-1.3-1.6-2.4l15.2-73.5c0.2-1.1,1.3-1.8,2.4-1.6l56.1,11.6
						c1.1,0.2,1.8,1.3,1.6,2.4L849,123.2C848.8,124.3,847.7,125,846.6,124.8z"/>
					<path d="M846.6,125l-56.1-11.6c-1.2-0.3-2-1.5-1.8-2.7L804,37.2c0.3-1.2,1.5-2,2.7-1.8l56.1,11.6c1.2,0.3,2,1.5,1.8,2.7
						l-15.2,73.4c-0.1,0.6-0.4,1.1-1,1.4C847.8,125,847.2,125.1,846.6,125z M806.5,36c-0.9-0.2-1.9,0.4-2.1,1.4l-15.2,73.5
						c-0.2,0.9,0.4,1.9,1.4,2.1l56.1,11.6c0.5,0.1,1,0,1.4-0.3c0.4-0.3,0.7-0.7,0.7-1.1L864,49.7c0.2-0.9-0.4-1.9-1.4-2.1L806.5,36z
						"/>
				</g>
			</g>
			<g>
				<g>
					<path d="M846.6,125l-56.1-11.6c-1.2-0.2-2-1.4-1.7-2.6L804,37.2c0.2-1.2,1.4-2,2.6-1.7l56.1,11.6c1.2,0.2,2,1.4,1.7,2.6
						l-15.2,73.4C849,124.4,847.8,125.2,846.6,125z M806.5,35.9c-1-0.2-1.9,0.4-2.1,1.4l-15.2,73.4c-0.2,1,0.4,1.9,1.4,2.1
						l56.1,11.6c1,0.2,1.9-0.4,2.1-1.4L864,49.7c0.2-1-0.4-1.9-1.4-2.1C862.6,47.5,806.5,35.9,806.5,35.9z"/>
					<path d="M846.5,125.2l-56.1-11.6c-1.3-0.3-2.2-1.6-1.9-2.9l15.2-73.5c0.3-1.3,1.6-2.2,2.9-1.9l56.1,11.6
						c1.3,0.3,2.2,1.6,1.9,2.9l-15.2,73.4c-0.1,0.6-0.5,1.2-1,1.6C847.8,125.2,847.2,125.3,846.5,125.2z M806.5,36.2
						c-0.8-0.2-1.7,0.4-1.8,1.2l-15.2,73.4c-0.2,0.8,0.4,1.7,1.2,1.8l56.1,11.6c0.8,0.2,1.7-0.4,1.8-1.2l15.2-73.4
						c0.2-0.8-0.4-1.7-1.2-1.8L806.5,36.2z"/>
				</g>
			</g>
		</g>
		<g>
			<g>
				<g>
					<path class="st6" d="M845.1,121.4l-51.9-10.8c-1-0.2-1.7-1.2-1.5-2.2l14.1-68c0.2-1,1.2-1.7,2.2-1.5L860,49.8
						c1,0.2,1.7,1.2,1.5,2.2l-14.1,68C847.1,121,846.1,121.6,845.1,121.4z"/>
				</g>
			</g>
			<g>
				<g>
					<path d="M845.1,121.6l-51.9-10.8c-1.1-0.2-1.8-1.3-1.6-2.5l14.1-68c0.2-1.1,1.3-1.8,2.5-1.6L860,49.6c1.1,0.2,1.8,1.3,1.6,2.5
						l-14.1,68C847.3,121.1,846.2,121.8,845.1,121.6z M808.1,39.2c-0.9-0.2-1.8,0.4-2,1.3l-14.1,68c-0.2,0.9,0.4,1.8,1.3,2
						l51.9,10.8c0.9,0.2,1.8-0.4,2-1.3l14.1-68c0.2-0.9-0.4-1.8-1.3-2C859.9,50,808.1,39.2,808.1,39.2z"/>
				</g>
			</g>
		</g>
		<g>
			<g>
				<g>
					<g>
						<g>
							<g>
								<g>
									<g>
										<g>
											<path class="st74" d="M828,72.3c0,0-7.2,0-10,8.2c-0.1,0.3-0.2,0.5-0.4,0.6c-1,0.8-2.1,4.2,2.4,6
												c0.2,0.1,1.5,0.5,1.7,0.5c0.3,0,0.7-0.1,0.8-0.6C822.3,87,823.3,71.3,828,72.3z"/>
										</g>
									</g>
								</g>
							</g>
							<g>
								<g>
									<g>
										<g>
											<path d="M821.5,87.6c-0.4-0.1-1.5-0.4-1.6-0.5c-2.4-0.9-3.1-2.3-3.2-3.3c-0.1-0.7,0-1.3,0.2-1.7c0.2-0.5,0.4-0.8,0.7-1.1
												c0.2-0.2,0.4-0.4,0.4-0.6c0.6-1.9,1.6-3.5,2.8-4.8c1-1,2.1-1.8,3.3-2.4c1.1-0.5,2.1-0.8,2.8-0.9c0.4-0.2,0.8-0.2,1.2-0.1
												c0,0,0,0,0,0l0.4,0.1l-0.4,0c0,0-0.5,0-1.2,0.1c-0.1,0.1-0.3,0.2-0.4,0.3c-0.7,0.5-1.4,1.6-1.9,3.1
												c-0.5,1.2-0.9,2.8-1.2,4.6c-0.5,2.8-0.8,5.6-0.9,6.6c0,0,0,0.1,0,0.1l0,0C822.3,87.4,822,87.6,821.5,87.6
												C821.5,87.6,821.5,87.6,821.5,87.6z M826.5,72.5c-0.6,0.1-1.5,0.4-2.5,0.8c-1.2,0.6-2.4,1.4-3.3,2.4
												c-1.2,1.3-2.1,2.9-2.7,4.7c-0.1,0.3-0.3,0.5-0.5,0.7c-0.3,0.2-0.5,0.6-0.7,1c-0.1,0.4-0.3,0.9-0.2,1.6
												c0.2,1,0.8,2.3,3.2,3.2c0.2,0.1,1.5,0.5,1.7,0.5c0.4,0,0.7-0.2,0.7-0.5c0,0,0,0,0-0.1c0.1-2,1-12.1,4-14.3
												C826.4,72.6,826.4,72.5,826.5,72.5z"/>
										</g>
									</g>
								</g>
							</g>
						</g>
					</g>
				</g>
			</g>
			<g>
				<g>
					<g>
						<g>
							<g>
								<g>
									<g>
										<g>
											<path class="st75" d="M831.5,83.8c-1.4,4.3-4.5,5.2-7.7,4.1s-5.3-3.5-3.9-7.8c1.4-4.3,5.1-7,8.3-5.9
												C831.3,75.2,832.8,79.5,831.5,83.8z"/>
										</g>
									</g>
								</g>
							</g>
						</g>
					</g>
				</g>
				<g>
					<g>
						<g>
							<g>
								<g>
									<g>
										<g>
											<path d="M824.6,88.2c-0.3-0.1-0.6-0.1-0.9-0.2c-1.7-0.5-3-1.5-3.7-2.7c-0.8-1.4-0.9-3.2-0.2-5.2c1.4-4.3,5.1-7,8.4-6
												c1.6,0.5,2.8,1.8,3.4,3.6c0.6,1.8,0.6,4,0,6.1c-0.6,2-1.7,3.4-3.2,4.1C827.3,88.4,826,88.5,824.6,88.2z M827.6,74.1
												c-3.1-0.6-6.5,2-7.8,6c-0.6,2-0.6,3.7,0.2,5.1c0.7,1.2,2,2.1,3.6,2.7c1.7,0.5,3.3,0.5,4.5-0.1c1.4-0.7,2.5-2,3.1-4
												c0.7-2.1,0.7-4.2,0-6c-0.6-1.8-1.8-3.1-3.4-3.6C827.9,74.2,827.8,74.1,827.6,74.1z"/>
										</g>
									</g>
								</g>
							</g>
						</g>
					</g>
				</g>
			</g>
			<g>
				<g>
					<g>
						<g>
							<g>
								<g>
									<g>
										<g>
											<g>
												<ellipse transform="matrix(0.1985 -0.9801 0.9801 0.1985 582.7925 870.6272)" cx="823.7" cy="79" rx="0.6" ry="0.6"/>
											</g>
										</g>
									</g>
								</g>
							</g>
						</g>
					</g>
				</g>
				<g>
					<g>
						<g>
							<g>
								<g>
									<g>
										<g>
											<g>
												<path d="M823.6,78.9L823.6,78.9C823,78.8,823,78,823,78c0,0,0-0.1,0.1-0.1c0,0,0.1,0,0.1,0.1c0,0,0.1,0.7,0.5,0.7
													C823.6,78.7,823.6,78.8,823.6,78.9C823.6,78.9,823.6,78.9,823.6,78.9z"/>
											</g>
										</g>
									</g>
								</g>
							</g>
						</g>
					</g>
				</g>
			</g>
			<g>
				<g>
					<g>
						<g>
							<g>
								<g>
									<g>
										<g>
											<g>
												<ellipse transform="matrix(0.1985 -0.9801 0.9801 0.1985 584.8088 874.8389)" cx="827.3" cy="79.9" rx="0.6" ry="0.6"/>
											</g>
										</g>
									</g>
								</g>
							</g>
						</g>
					</g>
				</g>
				<g>
					<g>
						<g>
							<g>
								<g>
									<g>
										<g>
											<g>
												<path d="M827.2,79.7L827.2,79.7c-0.5-0.1-0.6-0.8-0.6-0.9c0,0,0-0.1,0.1-0.1c0,0,0.1,0,0.1,0.1c0,0,0.1,0.7,0.5,0.7
													C827.2,79.6,827.2,79.6,827.2,79.7C827.2,79.7,827.2,79.7,827.2,79.7z"/>
											</g>
										</g>
									</g>
								</g>
							</g>
						</g>
					</g>
				</g>
			</g>
			<g>
				<g>
					<g>
						<g>
							<g>
								<g>
									<g>
										<g>
											<path class="st6" d="M822.2,77.2c-0.2,0.4,0,0.6-0.2,0.7c-0.1,0.1-0.4-0.4-0.3-0.8c0.2-0.4,0.7-0.7,0.9-0.6
												C822.8,76.6,822.4,76.8,822.2,77.2z"/>
										</g>
									</g>
								</g>
							</g>
						</g>
					</g>
				</g>
			</g>
			<g class="st76">
				<g>
					<g>
						<g>
							<g>
								<path class="st77" d="M831.7,79.3c0,0,0.4,7.2-5.9,8.8c0,0,4.3,0.2,5.6-3.2C832.7,81.7,832.8,80.6,831.7,79.3z"/>
							</g>
						</g>
					</g>
				</g>
			</g>
			<g>
				<g>
					<g>
						<g>
							<g>
								<g>
									<g>
										<g>
											<g>
												<path class="st75" d="M824.7,79.8c0,0-0.4,1.5-1,1c-0.7-0.6-0.5,0.8,0.2,1.1"/>
											</g>
										</g>
									</g>
								</g>
							</g>
						</g>
					</g>
					<g>
						<g>
							<g>
								<g>
									<g>
										<g>
											<g>
												<path d="M823.9,81.9C823.9,81.9,823.9,81.9,823.9,81.9c-0.4-0.2-0.6-0.8-0.6-1.1c0-0.2,0.1-0.2,0.1-0.3
													c0.1,0,0.2,0,0.4,0.2c0.1,0.1,0.2,0.1,0.3,0.1c0.3-0.1,0.5-0.8,0.6-1c0,0,0-0.1,0.1,0c0,0,0.1,0,0,0.1
													c0,0.1-0.3,1-0.7,1.1c-0.1,0-0.3,0-0.4-0.1c-0.1-0.1-0.2-0.2-0.3-0.1c0,0,0,0.1,0,0.1c0,0.3,0.2,0.8,0.5,1
													C824,81.8,824,81.8,823.9,81.9C824,81.9,823.9,81.9,823.9,81.9z"/>
											</g>
										</g>
									</g>
								</g>
							</g>
						</g>
					</g>
				</g>
				<g class="st78">
					<g>
						<g>
							<g>
								<g>
									<g>
										<g>
											<g>
												<path class="st79" d="M823.7,81.1c0.1,0.2,0.1,0.1,0.1,0.2c0,0.1-0.2,0-0.3-0.1c-0.1-0.2,0-0.4,0.1-0.4
													C823.7,80.8,823.6,81,823.7,81.1z"/>
											</g>
										</g>
									</g>
								</g>
							</g>
						</g>
					</g>
				</g>
			</g>
			<g>
				<g>
					<g>
						<g>
							<g>
								<g>
									<g>
										<g>
											<circle class="st80" cx="824.4" cy="81.3" r="0.1"/>
										</g>
									</g>
								</g>
							</g>
						</g>
					</g>
				</g>
			</g>
			<g>
				<g>
					<g>
						<g>
							<g>
								<g>
									<g>
										<g>
											
												<ellipse transform="matrix(0.1985 -0.9801 0.9801 0.1985 580.2524 869.0288)" class="st81" cx="821.4" cy="79.8" rx="0.6" ry="1.1"/>
										</g>
									</g>
								</g>
							</g>
						</g>
					</g>
				</g>
			</g>
			<g>
				<g>
					<g>
						<g>
							<g>
								<g>
									<g>
										<g>
											
												<ellipse transform="matrix(0.1985 -0.9801 0.9801 0.1985 584.6613 877.3902)" class="st81" cx="828.8" cy="81.2" rx="0.6" ry="1.1"/>
										</g>
									</g>
								</g>
							</g>
						</g>
					</g>
				</g>
			</g>
			<g>
				<g>
					<g>
						<g>
							<g>
								<g>
									<g>
										<g>
											<path class="st74" d="M827.2,71.5L827.2,71.5c1-0.4,2.6,0.5,2.6,0.5l0,0c6.6,2,5.7,9.2,5.7,9.2c-0.1,1.7-1,7.5-2.1,8.5
												c-1.4,1.3-6.3-0.1-5.5-2.7c0.8-2.7,2.5-0.3,3.5-4.1c1-3.8-2.3-4.7-2.3-4.7c-2.6-0.8-2.2-2.3-2.2-2.4l0,0
												c-1.3,0.6-0.7,1.4-0.7,1.5l0,0c-1.6-0.5-0.3-1.8-0.2-1.9l0,0c-1.6,0.6-0.6,1.6-0.5,1.7l0,0c-2.1-0.7-0.8-2.6,0.3-4
												c-1.2,0.4-3.1,0.8-3.7,2.1c-0.6,1.4-1.7,1.7-2.2,1.8c-0.1,0-0.2-0.1-0.2-0.2C819.7,76.7,821.6,70.4,827.2,71.5z"/>
										</g>
									</g>
								</g>
							</g>
							<g>
								<g>
									<g>
										<g>
											<path d="M830.8,90.2c-0.6-0.1-1.2-0.4-1.7-0.7c-0.5-0.3-0.8-0.7-1-1.1c-0.2-0.4-0.3-0.9-0.1-1.4c0.4-1.2,0.9-1.4,1.5-1.6
												c0.7-0.2,1.4-0.5,2-2.5c0.3-1.2,0.2-2.2-0.2-3.1c-0.7-1.2-2-1.6-2-1.6l0,0c-0.6-0.2-1.1-0.4-1.4-0.7
												c-0.3-0.2-0.5-0.5-0.7-0.8c-0.2-0.4-0.2-0.7-0.2-0.9c-0.4,0.2-0.7,0.5-0.7,0.8c-0.1,0.3,0.1,0.6,0.1,0.6l0.1,0.1l-0.1,0
												c-0.5-0.1-0.7-0.4-0.8-0.7c-0.1-0.4,0.2-0.9,0.4-1.2c-0.4,0.2-0.6,0.4-0.7,0.7c-0.1,0.4,0.3,0.8,0.3,0.8l0,0l0,0.1l0,0
												c-0.6-0.2-1-0.5-1.1-0.9c-0.1-0.4,0-0.9,0.3-1.5c0.2-0.4,0.6-0.9,1-1.5c0,0-0.1,0-0.1,0c-0.6,0.2-1.3,0.4-2,0.7
												c-0.7,0.4-1.2,0.8-1.4,1.3c-0.6,1.4-1.7,1.7-2.3,1.8c-0.1,0-0.2,0-0.2-0.1c0-0.1-0.1-0.1,0-0.2c0-0.2,1.9-6.3,7.5-5.3
												c0.4-0.2,0.9-0.1,1.6,0.1c0.2,0.1,0.6,0.2,1,0.5c0,0,0,0,0,0c1.5,0.5,2.7,1.2,3.7,2.3c0.8,0.9,1.3,1.9,1.7,3.1
												c0.6,2,0.4,3.8,0.4,3.9c0,0.8-0.3,2.7-0.6,4.5c-0.6,2.8-1.1,3.7-1.4,4c-0.4,0.4-1.2,0.6-2,0.5
												C831.2,90.3,831,90.3,830.8,90.2z M829.2,78.2c0,0,0.4,0.1,0.8,0.3c0.4,0.2,0.9,0.6,1.3,1.3c0.5,0.8,0.6,1.9,0.3,3.1
												c-0.2,0.9-0.6,1.6-1,2c-0.3,0.4-0.7,0.5-1.1,0.6c-0.6,0.2-1.1,0.4-1.5,1.5c-0.2,0.5-0.3,1.5,1.1,2.4
												c0.7,0.4,1.5,0.7,2.3,0.8c0.9,0.1,1.6-0.1,2-0.5c0.6-0.6,1.2-2.7,1.4-4c0.4-1.8,0.6-3.7,0.6-4.5l0,0c0,0,0.2-1.8-0.4-3.8
												c-0.4-1.2-0.9-2.2-1.7-3.1c-0.9-1.1-2.2-1.8-3.6-2.3c0,0,0,0,0,0c-0.4-0.2-0.8-0.4-1-0.5c-0.6-0.2-1.1-0.2-1.5-0.1l0,0
												l0,0c-1.3-0.2-2.4-0.1-3.5,0.3c-0.8,0.4-1.6,1-2.3,1.8c-1.1,1.4-1.6,2.9-1.6,3l0,0l0,0c0,0,0,0.1,0,0.1
												c0,0,0.1,0.1,0.1,0c0.6-0.1,1.6-0.4,2.2-1.7c0.2-0.5,0.7-1,1.5-1.3c0.6-0.3,1.4-0.5,2-0.7c0.1,0,0.1,0,0.2-0.1l0.1,0
												l-0.1,0.1c-1.4,1.6-1.5,2.5-1.4,3c0.1,0.4,0.4,0.7,0.9,0.8c-0.1-0.2-0.3-0.5-0.3-0.8c0.1-0.3,0.4-0.6,0.9-0.8l0.2-0.1
												l-0.1,0.1c-0.2,0.2-0.7,0.7-0.5,1.2c0.1,0.2,0.3,0.4,0.6,0.6c-0.1-0.1-0.1-0.3-0.1-0.6c0.1-0.3,0.4-0.6,0.9-0.9l0.1,0
												l0,0.1c0,0.1-0.1,0.5,0.1,0.9c0.1,0.3,0.3,0.5,0.6,0.7C828.1,77.8,828.6,78,829.2,78.2z"/>
										</g>
									</g>
								</g>
							</g>
						</g>
					</g>
				</g>
			</g>
			<g>
				<g>
					<g>
						<g>
							<g>
								<path class="st75" d="M822.4,82.9c0,0,2.4,1.1,4.1,0.5"/>
							</g>
						</g>
					</g>
				</g>
				<g>
					<g>
						<g>
							<g>
								<path d="M824,83.5c-0.1,0-0.2,0-0.3-0.1c-0.8-0.2-1.4-0.5-1.4-0.5c0,0,0-0.1,0-0.1c0,0,0.1,0,0.1,0c0,0,0.6,0.3,1.4,0.5
									c0.7,0.2,1.8,0.3,2.7,0c0,0,0.1,0,0.1,0c0,0,0,0.1,0,0.1C825.7,83.7,824.7,83.7,824,83.5z"/>
							</g>
						</g>
					</g>
				</g>
			</g>
			<g>
				<g>
					<g>
						<g>
							<g>
								<path class="st75" d="M824.3,84.2c0,0,0.3,0.1,0.5,0"/>
							</g>
						</g>
					</g>
				</g>
				<g>
					<g>
						<g>
							<g>
								<path d="M824.4,84.3C824.3,84.3,824.3,84.3,824.4,84.3c-0.1,0-0.1-0.1-0.1-0.1c0,0,0,0,0.1,0l0,0c0,0,0.3,0.1,0.5,0
									c0,0,0.1,0,0.1,0c0,0,0,0.1,0,0.1C824.7,84.3,824.5,84.3,824.4,84.3z"/>
							</g>
						</g>
					</g>
				</g>
			</g>
			<g>
				<g>
					<g>
						<g>
							<g>
								<path class="st74" d="M819.7,77.1c0.1-0.3,0.4-1,0.5-1.1c0.1-0.2,0.1,0.2,0.2,0.1c0.2-0.2,4.1-3.3,4.9-3.3
									c0.7,0.1,1,0,0.8,0.2c-0.2,0.1,1.2,0.9,0.8,0.8c-0.4,0-0.6,0.9-1.7,0.5c-0.4-0.2-3,1.1-3.3,1.7s-2.3,3.4-2.3,2.7
									C819.6,78,819.6,77.3,819.7,77.1z"/>
							</g>
						</g>
					</g>
				</g>
			</g>
		</g>
		<g>
			<g>
				<g>
					<path d="M809.6,46.5c0.6,0.1,0.9,0,1-0.4c0.1-0.3-0.1-0.6-0.4-0.7c-0.2-0.1-0.4-0.1-0.6-0.2c-0.4-0.1-0.6-0.3-0.8-0.6
						c-0.2-0.3-0.2-0.6-0.1-0.9c0.1-0.4,0.3-0.7,0.6-0.8c0.3-0.2,0.7-0.2,1.1-0.1c0.5,0.1,1,0.4,1.3,0.7l-0.5,0.5
						c-0.3-0.3-0.6-0.5-1-0.6c-0.2,0-0.4,0-0.5,0c-0.2,0.1-0.3,0.2-0.3,0.4c0,0.1,0,0.2,0.1,0.4c0.1,0.1,0.2,0.2,0.4,0.3
						c0.1,0,0.3,0.1,0.5,0.2c0.4,0.1,0.7,0.3,0.8,0.6c0.1,0.3,0.2,0.6,0.1,0.9c-0.2,0.8-0.8,1.1-1.8,0.9c-0.6-0.1-1.2-0.4-1.5-0.9
						l0.5-0.4C808.7,46.2,809.1,46.4,809.6,46.5z"/>
				</g>
			</g>
		</g>
		<g>
			<g>
				<g>
					<path d="M843.6,114c-0.6-0.1-0.9,0-1,0.4c-0.1,0.3,0.1,0.6,0.4,0.7c0.2,0.1,0.4,0.1,0.6,0.2c0.4,0.1,0.6,0.3,0.8,0.6
						c0.2,0.3,0.2,0.6,0.1,0.9c-0.1,0.4-0.3,0.7-0.6,0.8c-0.3,0.2-0.7,0.2-1.1,0.1c-0.5-0.1-1-0.4-1.3-0.7l0.5-0.5
						c0.3,0.3,0.6,0.5,1,0.6c0.2,0,0.4,0,0.5,0c0.2-0.1,0.3-0.2,0.3-0.4c0-0.1,0-0.2-0.1-0.4c-0.1-0.1-0.2-0.2-0.4-0.3
						c-0.1,0-0.3-0.1-0.5-0.2c-0.4-0.1-0.7-0.3-0.8-0.6c-0.1-0.3-0.2-0.6-0.1-0.9c0.2-0.8,0.8-1.1,1.8-0.9c0.6,0.1,1.2,0.4,1.5,0.9
						l-0.5,0.4C844.5,114.3,844.1,114.1,843.6,114z"/>
				</g>
			</g>
		</g>
		<g>
			<g>
				<g>
					<path d="M808.4,51.9c0-0.2,0-0.4-0.2-0.4c-0.1,0-0.2,0-0.3,0.2c0,0.1-0.1,0.1-0.1,0.2c-0.1,0.1-0.1,0.2-0.2,0.3
						c-0.1,0.1-0.2,0.1-0.3,0.1c-0.2,0-0.3-0.1-0.3-0.2c-0.1-0.1-0.1-0.3-0.1-0.4c0-0.2,0.1-0.4,0.3-0.5l0.2,0.2
						c-0.1,0.1-0.2,0.2-0.2,0.4c0,0.1,0,0.2,0,0.2c0,0.1,0.1,0.1,0.2,0.1c0.1,0,0.1,0,0.1,0c0,0,0.1-0.1,0.1-0.2c0,0,0-0.1,0.1-0.2
						c0.1-0.2,0.1-0.3,0.3-0.3c0.1-0.1,0.2-0.1,0.3,0c0.3,0.1,0.5,0.3,0.4,0.7c-0.1,0.3-0.2,0.5-0.4,0.6l-0.2-0.2
						C808.3,52.3,808.4,52.1,808.4,51.9z"/>
				</g>
			</g>
			<g>
				<g>
					<path d="M807.1,50.7l0.1-0.2l1.1,0.2l0,0l-0.5-0.6l0.1-0.3l0.4,0.5l0.9-0.3l-0.1,0.3l-0.6,0.2l0.2,0.2l0.4,0.1l-0.1,0.2
						L807.1,50.7z"/>
				</g>
			</g>
			<g>
				<g>
					<path d="M807.4,49.5l0.1-0.2l0.2,0.1l-0.1,0.2L807.4,49.5z M807.9,49.6l0.1-0.2l1.2,0.3l-0.1,0.2L807.9,49.6z"/>
				</g>
			</g>
			<g>
				<g>
					<path d="M807.5,48.9l0.1-0.2l1.4,0.3c0.1,0,0.1,0,0.1-0.1l0-0.1l0.2,0l0,0.1c0,0.1-0.1,0.2-0.1,0.2c-0.1,0.1-0.1,0.1-0.3,0
						L807.5,48.9z"/>
				</g>
			</g>
			<g>
				<g>
					<path d="M807.6,48.3l0.1-0.2l1.4,0.3c0.1,0,0.1,0,0.1-0.1l0-0.1l0.2,0l0,0.1c0,0.1-0.1,0.2-0.1,0.2c-0.1,0.1-0.1,0.1-0.3,0
						L807.6,48.3z"/>
				</g>
			</g>
		</g>
		<g>
			<g>
				<g>
					<path d="M844.8,108.6c0,0.2,0,0.4,0.2,0.4c0.1,0,0.2,0,0.3-0.2c0-0.1,0.1-0.1,0.1-0.2c0.1-0.1,0.1-0.2,0.2-0.3
						c0.1-0.1,0.2-0.1,0.3-0.1c0.2,0,0.3,0.1,0.3,0.2c0.1,0.1,0.1,0.3,0.1,0.4c0,0.2-0.1,0.4-0.3,0.5l-0.2-0.2
						c0.1-0.1,0.2-0.2,0.2-0.4c0-0.1,0-0.2,0-0.2c0-0.1-0.1-0.1-0.2-0.1c-0.1,0-0.1,0-0.1,0c0,0-0.1,0.1-0.1,0.2c0,0,0,0.1-0.1,0.2
						c-0.1,0.2-0.1,0.3-0.3,0.3c-0.1,0.1-0.2,0.1-0.3,0c-0.3-0.1-0.5-0.3-0.4-0.7c0.1-0.3,0.2-0.5,0.4-0.6l0.2,0.2
						C844.9,108.2,844.8,108.4,844.8,108.6z"/>
				</g>
			</g>
			<g>
				<g>
					<path d="M846.1,109.7l-0.1,0.2l-1.1-0.2l0,0l0.5,0.6l-0.1,0.3l-0.4-0.5l-0.9,0.3l0.1-0.3l0.6-0.2l-0.2-0.2l-0.4-0.1l0.1-0.2
						L846.1,109.7z"/>
				</g>
			</g>
			<g>
				<g>
					<path d="M845.8,111l-0.1,0.2l-0.2-0.1l0.1-0.2L845.8,111z M845.3,110.9l-0.1,0.2l-1.2-0.3l0.1-0.2L845.3,110.9z"/>
				</g>
			</g>
			<g>
				<g>
					<path d="M845.7,111.6l-0.1,0.2l-1.4-0.3c-0.1,0-0.1,0-0.1,0.1l0,0.1l-0.2,0l0-0.1c0-0.1,0.1-0.2,0.1-0.2c0.1-0.1,0.1-0.1,0.3,0
						L845.7,111.6z"/>
				</g>
			</g>
			<g>
				<g>
					<path d="M845.6,112.2l-0.1,0.2l-1.4-0.3c-0.1,0-0.1,0-0.1,0.1l0,0.1l-0.2,0l0-0.1c0-0.1,0.1-0.2,0.1-0.2c0.1-0.1,0.1-0.1,0.3,0
						L845.6,112.2z"/>
				</g>
			</g>
		</g>
	</g>
	<g>
		<g>
			<g>
				<path class="st82" d="M335,114.5h-63c-2.5,0-4.6-2.1-4.6-4.6v-63c0-2.5,2.1-4.6,4.6-4.6h63c2.5,0,4.6,2.1,4.6,4.6v63
					C339.6,112.4,337.6,114.5,335,114.5z"/>
				<path d="M335,118.5h-63c-4.7,0-8.6-3.9-8.6-8.6v-63c0-4.7,3.9-8.6,8.6-8.6h63c4.7,0,8.6,3.9,8.6,8.6v63
					C343.6,114.6,339.8,118.5,335,118.5z M272.1,46.4c-0.3,0-0.6,0.3-0.6,0.6v63c0,0.3,0.3,0.6,0.6,0.6h63c0.3,0,0.6-0.3,0.6-0.6
					v-63c0-0.3-0.3-0.6-0.6-0.6H272.1z"/>
			</g>
			<g>
				<path class="st82" d="M335,114.5h-63c-2.5,0-4.6-2.1-4.6-4.6v-63c0-2.5,2.1-4.6,4.6-4.6h63c2.5,0,4.6,2.1,4.6,4.6v63
					C339.6,112.4,337.6,114.5,335,114.5z"/>
				<path class="st83" d="M335,115.3h-63c-3,0-5.4-2.4-5.4-5.4v-63c0-3,2.4-5.4,5.4-5.4h63c3,0,5.4,2.4,5.4,5.4v63
					C340.4,112.9,338,115.3,335,115.3z M272.1,43.1c-2.1,0-3.8,1.7-3.8,3.8v63c0,2.1,1.7,3.8,3.8,3.8h63c2.1,0,3.8-1.7,3.8-3.8v-63
					c0-2.1-1.7-3.8-3.8-3.8H272.1z"/>
			</g>
		</g>
		<g>
			<g>
				<path class="st84" d="M282.5,59.4l11.9,0.5l3.8-0.6l3.5,2.3l2.2,3.3l0.9,4.5l-2.1,6.6l-7.7,3.5l-7.9-0.8l0.9,12.9l-4.6-0.3
					L282.5,59.4z M288,74.3l6.9,0.6l3.6-2.4l1.6-3.1l-0.1-2.8l-1.6-1.7l-3.6-0.5l-6.6,0L288,74.3z"/>
			</g>
			<g>
				<path class="st84" d="M316.9,87.3l3.4-0.3l0.7-2.4l-0.4-1.6l-1.9-0.8l-4-0.4l-4.8-1.6l-2.1-4.7l3.1-4.9l5.8-2.4l2.8,1l2.5,0
					l3.7,2.4l-2.6,3.6l-3.1-1.5l-3.2-0.5l-2.7,0.7l-0.8,1.7l0,1.6l2.6,0.5l3.8-0.1l5.3,2.4l1.1,4.8l-2.5,5.1l-6.7,2.3l-9.8-4.4
					l2.8-3.6L316.9,87.3z"/>
			</g>
		</g>
	</g>
	<g>
		<g>
			<g>
				<path class="st85" d="M229.8,114.5h-63c-2.5,0-4.6-2.1-4.6-4.6v-63c0-2.5,2.1-4.6,4.6-4.6h63c2.5,0,4.6,2.1,4.6,4.6v63
					C234.4,112.4,232.3,114.5,229.8,114.5z"/>
				<path d="M229.8,118.5h-63c-4.7,0-8.6-3.9-8.6-8.6v-63c0-4.7,3.9-8.6,8.6-8.6h63c4.7,0,8.6,3.9,8.6,8.6v63
					C238.4,114.6,234.6,118.5,229.8,118.5z M166.8,46.4c-0.3,0-0.6,0.3-0.6,0.6v63c0,0.3,0.3,0.6,0.6,0.6h63c0.3,0,0.6-0.3,0.6-0.6
					v-63c0-0.3-0.3-0.6-0.6-0.6H166.8z"/>
			</g>
			<g>
				<path class="st85" d="M229.8,114.5h-63c-2.5,0-4.6-2.1-4.6-4.6v-63c0-2.5,2.1-4.6,4.6-4.6h63c2.5,0,4.6,2.1,4.6,4.6v63
					C234.4,112.4,232.3,114.5,229.8,114.5z"/>
				<path class="st86" d="M229.8,115.3h-63c-3,0-5.4-2.4-5.4-5.4v-63c0-3,2.4-5.4,5.4-5.4h63c3,0,5.4,2.4,5.4,5.4v63
					C235.2,112.9,232.8,115.3,229.8,115.3z M166.8,43.1c-2.1,0-3.8,1.7-3.8,3.8v63c0,2.1,1.7,3.8,3.8,3.8h63c2.1,0,3.8-1.7,3.8-3.8
					v-63c0-2.1-1.7-3.8-3.8-3.8H166.8z"/>
			</g>
		</g>
		<g>
			<g>
				<path class="st87" d="M198.7,85l-11.5,0.1l-2.3,7l-4.8-0.4L191,59.6l4.7-0.4L207,91.5l-5.3-0.2L198.7,85z M196.9,79.9l-4.7-13.5
					l1.4,0l-6.1,14L196.9,79.9z"/>
			</g>
			<g>
				<path class="st87" d="M209.2,59l5.7-0.1l0,5.7l-4.5-1.1L209.2,59z M209,68.6l6.1,0l-0.1,23.1l-4.5-0.3L209,68.6z"/>
			</g>
		</g>
	</g>
	<g>
		<g>
			<g>
				<path class="st88" d="M440.3,114.5h-63c-2.5,0-4.6-2.1-4.6-4.6v-63c0-2.5,2.1-4.6,4.6-4.6h63c2.5,0,4.6,2.1,4.6,4.6v63
					C444.9,112.4,442.8,114.5,440.3,114.5z"/>
				<path d="M440.3,118.5h-63c-4.7,0-8.6-3.9-8.6-8.6v-63c0-4.7,3.9-8.6,8.6-8.6h63c4.7,0,8.6,3.9,8.6,8.6v63
					C448.9,114.6,445,118.5,440.3,118.5z M377.3,46.4c-0.3,0-0.6,0.3-0.6,0.6v63c0,0.3,0.3,0.6,0.6,0.6h63c0.3,0,0.6-0.3,0.6-0.6
					v-63c0-0.3-0.3-0.6-0.6-0.6H377.3z"/>
			</g>
			<g>
				<path class="st88" d="M440.3,114.5h-63c-2.5,0-4.6-2.1-4.6-4.6v-63c0-2.5,2.1-4.6,4.6-4.6h63c2.5,0,4.6,2.1,4.6,4.6v63
					C444.9,112.4,442.8,114.5,440.3,114.5z"/>
				<path class="st89" d="M440.3,115.3h-63c-3,0-5.4-2.4-5.4-5.4v-63c0-3,2.4-5.4,5.4-5.4h63c3,0,5.4,2.4,5.4,5.4v63
					C445.7,112.9,443.2,115.3,440.3,115.3z M377.3,43.1c-2.1,0-3.8,1.7-3.8,3.8v63c0,2.1,1.7,3.8,3.8,3.8h63c2.1,0,3.8-1.7,3.8-3.8
					v-63c0-2.1-1.7-3.8-3.8-3.8H377.3z"/>
			</g>
		</g>
		<g>
			<g>
				<path class="st90" d="M390.4,91.6l-5.7-0.1l9.9-16.3l-9.1-15.6l5.3,0.2l6.6,11l6.5-11.1l5.5-0.1l-9.5,15.6L410,91.5l-5.6,0
					l-7.1-11.5L390.4,91.6z"/>
			</g>
			<g>
				<path class="st90" d="M425.9,89.3l-5.8,2.7l-3.6-1l-2.6-2.2l-0.9-3l-0.6-5.7l0.4-5.8l1.1-2.9l6.2-2.7l3.3,0.4l2.7,2.1l-0.4-11.8
					l5.1,0.1l-0.5,32l-4.4,0L425.9,89.3z M421.5,73.2l-2.4,0.6l-1.4,1.5l-0.6,2.2l-0.4,2.7l0.3,2.5l0.5,2.4l1.5,1.5l2.4,0.9l2.5-1
					l1.5-1.5l0.2-2.4l0.1-2.4l0.4-2.5l-0.8-2.2l-1.2-1.9L421.5,73.2z"/>
			</g>
		</g>
	</g>
	<g>
		<g>
			<g>
				<path class="st91" d="M540.6,106.8h-53.2c-6.1,0-11-7.4-11-16.5v11c0,9.1,5,16.5,11,16.5h53.2c6.1,0,11-7.4,11-16.5v-11
					C551.6,99.4,546.7,106.8,540.6,106.8z"/>
				<path d="M540.6,118.7h-53.2c-6.6,0-11.9-7.8-11.9-17.4v-11h1.8c0,8.6,4.5,15.6,10.1,15.6h53.2c5.6,0,10.1-7,10.1-15.6h1.8v11
					C552.5,110.9,547.2,118.7,540.6,118.7z M477.3,99.5v1.8c0,8.6,4.5,15.6,10.1,15.6h53.2c5.6,0,10.1-7,10.1-15.6v-1.8
					c-2.1,4.9-5.8,8.2-10.1,8.2h-53.2C483.1,107.7,479.4,104.4,477.3,99.5z"/>
			</g>
			<g>
				<path class="st6" d="M536.9,102.3H492c-6.1,0-11-5-11-11V56.4c0-6.1,5-11,11-11h44.9c6.1,0,11,5,11,11v34.9
					C547.9,97.3,543,102.3,536.9,102.3z"/>
				<path d="M536.9,103.2H492c-6.6,0-11.9-5.3-11.9-11.9V56.4c0-6.6,5.3-11.9,11.9-11.9h44.9c6.6,0,11.9,5.3,11.9,11.9v34.9
					C548.8,97.8,543.5,103.2,536.9,103.2z M492,46.3c-5.6,0-10.1,4.5-10.1,10.1v34.9c0,5.6,4.5,10.1,10.1,10.1h44.9
					c5.6,0,10.1-4.5,10.1-10.1V56.4c0-5.6-4.5-10.1-10.1-10.1H492z"/>
			</g>
			<g>
				<path class="st92" d="M540.6,39h-53.2c-6.1,0-11,4.5-11,9.9v48c0,5.5,5,9.9,11,9.9h53.2c6.1,0,11-4.5,11-9.9v-48
					C551.6,43.4,546.7,39,540.6,39z M544.3,92.2c0,4.4-4,8-8.9,8h-42.8c-4.9,0-8.9-3.6-8.9-8V53.6c0-4.4,4-8,8.9-8h42.8
					c4.9,0,8.9,3.6,8.9,8V92.2z"/>
				<path d="M540.6,107.7h-53.2c-6.6,0-11.9-4.9-11.9-10.8v-48c0-6,5.3-10.8,11.9-10.8h53.2c6.6,0,11.9,4.9,11.9,10.8v48
					C552.5,102.9,547.2,107.7,540.6,107.7z M487.4,39.9c-5.6,0-10.1,4.1-10.1,9v48c0,5,4.5,9,10.1,9h53.2c5.6,0,10.1-4.1,10.1-9v-48
					c0-5-4.5-9-10.1-9H487.4z M535.4,101.1h-42.8c-5.4,0-9.8-4-9.8-8.9V53.6c0-4.9,4.4-8.9,9.8-8.9h42.8c5.4,0,9.8,4,9.8,8.9v38.6
					C545.2,97.1,540.8,101.1,535.4,101.1z M492.6,46.5c-4.4,0-8,3.2-8,7.1v38.6c0,3.9,3.6,7.1,8,7.1h42.8c4.4,0,8-3.2,8-7.1V53.6
					c0-3.9-3.6-7.1-8-7.1H492.6z"/>
			</g>
		</g>
		<g>
			<polygon class="st93" points="499.6,85.4 499.6,60.5 512,60.5 512,51.8 490.9,51.8 490.9,94 512,94 512,85.4 			"/>
			<path d="M512.9,94.9H490v-44h22.9v10.4h-12.4v23.1h12.4V94.9z M491.8,93.1h19.3v-6.9h-12.4V59.6h12.4v-6.9h-19.3V93.1z"/>
		</g>
		<g>
			<polygon class="st93" points="537.4,51.8 516.3,51.8 516.3,60.5 528.7,60.5 528.7,85.4 516.3,85.4 516.3,94 537.4,94 			"/>
			<path d="M538.3,94.9h-22.9V84.5h12.4V61.4h-12.4V50.9h22.9V94.9z M517.2,93.1h19.3V52.7h-19.3v6.9h12.4v26.7h-12.4V93.1z"/>
		</g>
	</g>
	<g>
		<g>
			<path class="st94" d="M648.4,117.2h-58.3c-5.3,0-9.6-4.3-9.6-9.6V49.2c0-5.3,4.3-9.6,9.6-9.6h58.3c5.3,0,9.6,4.3,9.6,9.6v58.3
				C658,112.9,653.7,117.2,648.4,117.2z"/>
			<path d="M648.4,118h-58.3c-5.7,0-10.4-4.7-10.4-10.4V49.2c0-5.7,4.7-10.4,10.4-10.4h58.3c5.7,0,10.4,4.7,10.4,10.4v58.3
				C658.8,113.3,654.1,118,648.4,118z M590.1,40.5c-4.8,0-8.8,3.9-8.8,8.8v58.3c0,4.8,3.9,8.8,8.8,8.8h58.3c4.8,0,8.8-3.9,8.8-8.8
				V49.2c0-4.8-3.9-8.8-8.8-8.8H590.1z"/>
		</g>
		<g>
			<g>
				<path class="st6" d="M611.6,80.3l2.6-0.2l5,12.4l5.2-12.2l2.3,0l0.5,18.4l-2.8-0.1l0-11.4l-0.5-0.1l-3.8,8.8l-1.9-0.1l-4.4-8.5
					l0.4-0.1l0,11.5l-2.9,0L611.6,80.3z"/>
			</g>
		</g>
		<g>
			<path class="st95" d="M641.7,104.2h-45V74.8h45V104.2z M598.3,102.6h41.8V76.4h-41.8V102.6z"/>
		</g>
		<g>
			<g>
				<path class="st95" d="M612.7,65.7l-8.8-2.1l-1.3-10l8.8,2.1L612.7,65.7z M605.3,62.3l5.5,1.3l-0.9-6.6l-5.5-1.3L605.3,62.3z"/>
			</g>
			<g>
				<path class="st95" d="M619.8,67.4l-8.8-2.1l-1.3-10l8.8,2.1L619.8,67.4z M612.4,64l5.5,1.3l-0.9-6.6l-5.5-1.3L612.4,64z"/>
			</g>
			<g>
				<path class="st95" d="M605.5,64l-8.6-2.1l2.2-9.1l5,1.2L605.5,64z M598.9,60.7l4.7,1.1l-0.9-6.6l-2.4-0.6L598.9,60.7z"/>
			</g>
			<g>
				<path class="st95" d="M634,70.8l-8.8-2.1l-1.3-10l8.8,2.1L634,70.8z M626.7,67.4l5.5,1.3l-0.9-6.6l-5.5-1.3L626.7,67.4z"/>
			</g>
			<g>
				<path class="st95" d="M639.3,72.1l-7-1.7l-1.3-10l10.5,2.5L639.3,72.1z M633.8,69.1l4.3,1l1.4-6l-6.7-1.6L633.8,69.1z"/>
			</g>
			<g>
				<path class="st95" d="M626.9,69.1l-8.8-2.1l-1.3-10l8.8,2.1L626.9,69.1z M619.5,65.7L625,67l-0.9-6.6l-5.5-1.3L619.5,65.7z"/>
			</g>
		</g>
	</g>
	<g>
		<linearGradient id="SVGID_3_" gradientUnits="userSpaceOnUse" x1="934.9057" y1="116.7398" x2="934.9057" y2="40.0857">
			<stop  offset="6.941105e-02" style="stop-color:#662D91"/>
			<stop  offset="0.1952" style="stop-color:#9E005D"/>
			<stop  offset="0.3781" style="stop-color:#D4145A"/>
			<stop  offset="0.5019" style="stop-color:#E53D7B"/>
			<stop  offset="0.6377" style="stop-color:#F7679D"/>
			<stop  offset="0.8564" style="stop-color:#F98D6B"/>
			<stop  offset="1" style="stop-color:#FAA24E"/>
		</linearGradient>
		<path class="st96" d="M964.5,116.7h-59.3c-5.2,0-9.5-4.3-9.5-9.5V49.6c0-5.2,4.3-9.5,9.5-9.5h59.3c5.2,0,9.5,4.3,9.5,9.5v57.7
			C974,112.5,969.8,116.7,964.5,116.7z"/>
		<circle class="st97" cx="934.9" cy="78.4" r="9.8"/>
		<circle class="st6" cx="949.2" cy="63.7" r="2.6"/>
		<path class="st97" d="M943.7,102.2h-17.4c-8.9,0-16.2-7.3-16.2-16.2V68.6c0-8.9,7.3-16.2,16.2-16.2h17.4c8.9,0,16.2,7.3,16.2,16.2
			V86C959.9,94.9,952.6,102.2,943.7,102.2z"/>
	</g>
	<g>
		<linearGradient id="SVGID_4_" gradientUnits="userSpaceOnUse" x1="997.9155" y1="78.4128" x2="1082.3464" y2="78.4128">
			<stop  offset="6.995192e-02" style="stop-color:#FBB03B"/>
			<stop  offset="0.1022" style="stop-color:#DB7347"/>
			<stop  offset="0.1284" style="stop-color:#C4484F"/>
			<stop  offset="0.1417" style="stop-color:#BB3852"/>
			<stop  offset="0.2008" style="stop-color:#B22755"/>
			<stop  offset="0.2148" style="stop-color:#AB1958"/>
			<stop  offset="0.2296" style="stop-color:#A6105A"/>
			<stop  offset="0.24" style="stop-color:#A2095B"/>
			<stop  offset="0.2608" style="stop-color:#9F025D"/>
			<stop  offset="0.3189" style="stop-color:#9E005D"/>
			<stop  offset="0.3648" style="stop-color:#A0015D"/>
			<stop  offset="0.3903" style="stop-color:#A8045C"/>
			<stop  offset="0.4108" style="stop-color:#B6095C"/>
			<stop  offset="0.4285" style="stop-color:#CA105B"/>
			<stop  offset="0.4358" style="stop-color:#D4145A"/>
			<stop  offset="0.4726" style="stop-color:#CF195F"/>
			<stop  offset="0.5179" style="stop-color:#C0286E"/>
			<stop  offset="0.5676" style="stop-color:#A84087"/>
			<stop  offset="0.6205" style="stop-color:#8761AA"/>
			<stop  offset="0.6753" style="stop-color:#5D8BD6"/>
			<stop  offset="0.7087" style="stop-color:#3FA9F5"/>
			<stop  offset="0.7427" style="stop-color:#5798DC"/>
			<stop  offset="0.9215" style="stop-color:#CF4059"/>
			<stop  offset="1" style="stop-color:#FF1D25"/>
		</linearGradient>
		<path class="st98" d="M1040.1,36.2c-23.3,0-42.2,18.9-42.2,42.2c0,23.3,18.9,42.2,42.2,42.2c23.3,0,42.2-18.9,42.2-42.2
			C1082.3,55.1,1063.4,36.2,1040.1,36.2z M1040.1,113.4c-19.3,0-35-15.6-35-35s15.6-35,35-35c19.3,0,35,15.6,35,35
			S1059.4,113.4,1040.1,113.4z"/>
		<circle class="st99" cx="1040.1" cy="78.4" r="35.4"/>
		<linearGradient id="SVGID_5_" gradientUnits="userSpaceOnUse" x1="1019.6942" y1="78.4128" x2="1055.1205" y2="78.4128">
			<stop  offset="6.995192e-02" style="stop-color:#FBB03B"/>
			<stop  offset="0.1022" style="stop-color:#DB7347"/>
			<stop  offset="0.1284" style="stop-color:#C4484F"/>
			<stop  offset="0.1417" style="stop-color:#BB3852"/>
			<stop  offset="0.2008" style="stop-color:#B22755"/>
			<stop  offset="0.2148" style="stop-color:#AB1958"/>
			<stop  offset="0.2296" style="stop-color:#A6105A"/>
			<stop  offset="0.24" style="stop-color:#A2095B"/>
			<stop  offset="0.2608" style="stop-color:#9F025D"/>
			<stop  offset="0.3189" style="stop-color:#9E005D"/>
			<stop  offset="0.3648" style="stop-color:#A0015D"/>
			<stop  offset="0.3903" style="stop-color:#A8045C"/>
			<stop  offset="0.4108" style="stop-color:#B6095C"/>
			<stop  offset="0.4285" style="stop-color:#CA105B"/>
			<stop  offset="0.4358" style="stop-color:#D4145A"/>
			<stop  offset="0.4726" style="stop-color:#CF195F"/>
			<stop  offset="0.5179" style="stop-color:#C0286E"/>
			<stop  offset="0.5676" style="stop-color:#A84087"/>
			<stop  offset="0.6205" style="stop-color:#8761AA"/>
			<stop  offset="0.6753" style="stop-color:#5D8BD6"/>
			<stop  offset="0.7087" style="stop-color:#3FA9F5"/>
			<stop  offset="0.7427" style="stop-color:#5798DC"/>
			<stop  offset="0.9215" style="stop-color:#CF4059"/>
			<stop  offset="1" style="stop-color:#FF1D25"/>
		</linearGradient>
		<path class="st100" d="M1055,88.9c-0.1-0.3-0.2-0.5-0.3-0.7c0.1-0.2,0.1-0.4,0.1-0.7V62.4c0-0.9-0.7-1.6-1.6-1.6
			c-0.1,0-0.2,0-0.3,0c-0.1,0-0.2,0-0.3,0h-19.1c-0.1,0-0.2,0-0.3,0c-0.1,0-0.2,0-0.3,0c-0.9,0-1.7,0.7-1.7,1.6v23.2
			c-1.5-0.5-3.3-0.6-5.2-0.1c-4.1,1-6.8,4.1-6.1,6.9c0.7,2.8,4.5,4.3,8.6,3.4c4.1-1,6.8-4.1,6.1-6.9c-0.1-0.3-0.2-0.5-0.3-0.7
			c0.1-0.2,0.1-0.4,0.1-0.7V65.4h17.2v20.3c-1.5-0.5-3.3-0.6-5.2-0.1c-4.1,1-6.8,4.1-6.1,6.9c0.7,2.8,4.5,4.3,8.6,3.4
			C1052.9,94.8,1055.7,91.7,1055,88.9z"/>
	</g>
	<g>
		<g>
			<circle class="st101" cx="1145.4" cy="78.4" r="39.1"/>
			<path d="M1145.4,119c-22.4,0-40.6-18.2-40.6-40.6s18.2-40.6,40.6-40.6S1186,56,1186,78.4S1167.7,119,1145.4,119z M1145.4,40.8
				c-20.7,0-37.6,16.9-37.6,37.6s16.9,37.6,37.6,37.6s37.6-16.9,37.6-37.6S1166.1,40.8,1145.4,40.8z"/>
		</g>
		<g>
			<polygon class="st102" points="1129,87.2 1130.6,90.1 1156.7,88.3 1160.1,82 1144.5,59.6 1140.8,59.6 			"/>
			<path d="M1130.1,91.1l-2.2-3.8l12.3-28.7h4.9l16.2,23.3l-3.9,7.4L1130.1,91.1z M1130.1,87.2l1.1,1.9l24.9-1.7l2.8-5.3L1144,60.6
				h-2.6L1130.1,87.2z"/>
		</g>
		<g>
			<path class="st103" d="M1140.8,59.6h3.8l-0.7-1h34.7c-6.7-11.3-19.1-18.8-33.1-18.8c-14.1,0-26.4,7.5-33.1,18.8l16.7,28.7
				L1140.8,59.6z"/>
		</g>
		<g>
			<path class="st104" d="M1160.1,82l-3.3,6.3l3.3-0.2l-16.3,28.9c0.5,0,1,0,1.5,0c21.3,0,38.6-17.3,38.6-38.6
				c0-6.8-1.8-13.2-4.9-18.8h-34.5L1160.1,82z"/>
		</g>
		<g>
			<path class="st105" d="M1143.8,58.6l0.7,1h34.5c-0.2-0.3-0.4-0.7-0.6-1H1143.8z"/>
		</g>
		<g>
			<path class="st106" d="M1130.6,90.1l-1.7-2.9l-0.4,0.8l-17-28.3c-3.1,5.5-4.8,11.9-4.8,18.7c0,20.1,15.3,36.6,34.9,38.4
				l15.1-28.5L1130.6,90.1z"/>
		</g>
		<g>
			<path class="st107" d="M1129,87.2l-16.7-28.7c-0.2,0.4-0.4,0.8-0.7,1.1l17,28.3L1129,87.2z"/>
		</g>
		<g>
			<path class="st108" d="M1156.7,88.3l-15.1,28.5c0.7,0.1,1.4,0.1,2.1,0.1l16.3-28.9L1156.7,88.3z"/>
		</g>
		<g>
			<circle class="st101" cx="1145.4" cy="78.4" r="19.8"/>
			<path class="st6" d="M1145.4,100.2c-12,0-21.8-9.8-21.8-21.8s9.8-21.8,21.8-21.8s21.8,9.8,21.8,21.8S1157.4,100.2,1145.4,100.2z
				 M1145.4,60.6c-9.8,0-17.8,8-17.8,17.8s8,17.8,17.8,17.8s17.8-8,17.8-17.8S1155.2,60.6,1145.4,60.6z"/>
		</g>
	</g>
	<g>
		<g>
			<g>
				<path class="st109" d="M1280,116.5h-58.9c-5.2,0-9.4-4.2-9.4-9.4V49.7c0-5.2,4.2-9.4,9.4-9.4h58.9c5.2,0,9.4,4.2,9.4,9.4v57.4
					C1289.5,112.3,1285.2,116.5,1280,116.5z"/>
				<path d="M1280,117.3h-58.9c-5.6,0-10.2-4.6-10.2-10.2V49.7c0-5.6,4.6-10.2,10.2-10.2h58.9c5.6,0,10.2,4.6,10.2,10.2v57.4
					C1290.3,112.7,1285.7,117.3,1280,117.3z M1221.1,41.1c-4.8,0-8.6,3.9-8.6,8.6v57.4c0,4.8,3.9,8.6,8.6,8.6h58.9
					c4.8,0,8.6-3.9,8.6-8.6V49.7c0-4.8-3.9-8.6-8.6-8.6H1221.1z"/>
			</g>
			<g>
				<path class="st110" d="M1277.6,65l-4.5-3c-2-1.4-4.5-2.1-6.9-2.1h-15.6h-12.9c-4.2,0-8.4,1.3-11.9,3.6l-2.2,1.5
					c-1.4,0.9-1.6,2.9-0.5,4.1l4.4,5.1c0.9,1,2.3,1.3,3.5,0.7l2.2-1.1c1-0.5,2.2,0.4,2,1.5l-4.4,20.4c-0.3,1.5,0.8,3,2.4,3h17.5
					h17.5c1.6,0,2.7-1.5,2.4-3l-4.4-20.4c-0.2-1.1,0.9-2.1,2-1.5l2.2,1.1c1.2,0.6,2.6,0.3,3.5-0.7l4.4-5.1
					C1279.2,67.8,1279,65.9,1277.6,65z"/>
				<path d="M1268,99.4h-34.9c-1,0-1.9-0.4-2.5-1.2c-0.6-0.8-0.9-1.8-0.6-2.7l4.4-20.4c0.1-0.3-0.1-0.5-0.2-0.6
					c-0.1-0.1-0.3-0.2-0.6-0.1l-2.2,1.1c-1.5,0.7-3.3,0.4-4.4-0.9l-4.4-5.1c-0.7-0.8-1-1.8-0.8-2.8c0.1-1,0.7-1.9,1.6-2.5l2.2-1.5
					c3.7-2.4,7.9-3.7,12.3-3.7h28.5c2.6,0,5.2,0.8,7.4,2.2l4.5,3c0.9,0.6,1.4,1.5,1.6,2.5c0.1,1-0.2,2-0.8,2.8l-4.4,5.1
					c-1.1,1.3-2.9,1.6-4.4,0.9l-2.2-1.1c-0.3-0.2-0.6,0-0.6,0.1c-0.1,0.1-0.3,0.3-0.2,0.6l4.4,20.4c0.2,1,0,2-0.6,2.7
					C1269.9,99,1269,99.4,1268,99.4z M1233.8,72.8c0.5,0,0.9,0.2,1.3,0.5c0.7,0.5,1,1.4,0.8,2.2l-4.4,20.4c-0.1,0.5,0,1,0.3,1.4
					c0.3,0.4,0.8,0.6,1.3,0.6h34.9c0.5,0,1-0.2,1.3-0.6c0.3-0.4,0.4-0.9,0.3-1.4l-4.4-20.4c-0.2-0.8,0.1-1.7,0.8-2.2
					c0.7-0.5,1.6-0.6,2.3-0.2l2.2,1.1c0.9,0.4,1.9,0.2,2.5-0.5l4.4-5.1c0.4-0.4,0.5-1,0.5-1.6c-0.1-0.6-0.4-1.1-0.9-1.4l-4.5-3
					c-1.9-1.3-4.2-2-6.5-2h-28.5c-4.1,0-8.1,1.2-11.5,3.5l-2.2,1.5c-0.5,0.3-0.8,0.8-0.9,1.4c-0.1,0.6,0.1,1.1,0.5,1.6l4.4,5.1
					c0.6,0.7,1.7,0.9,2.5,0.5l2.2-1.1C1233.1,72.9,1233.5,72.8,1233.8,72.8z"/>
			</g>
			<g>
				<g>
					<circle class="st6" cx="1250.6" cy="79.1" r="10.2"/>
					<path d="M1250.6,90.1c-6.1,0-11-4.9-11-11c0-6.1,4.9-11,11-11c6.1,0,11,4.9,11,11C1261.6,85.1,1256.6,90.1,1250.6,90.1z
						 M1250.6,69.6c-5.2,0-9.4,4.2-9.4,9.4c0,5.2,4.2,9.4,9.4,9.4c5.2,0,9.4-4.2,9.4-9.4C1260,73.9,1255.8,69.6,1250.6,69.6z"/>
				</g>
				<g>
					<g>
						<circle cx="1247.5" cy="75.6" r="1"/>
					</g>
					<g>
						<circle cx="1253" cy="75.6" r="1"/>
					</g>
				</g>
				<g>
					<path d="M1244.3,71.8c-0.1,0-0.3,0-0.4-0.1l-2.6-1.5c-0.4-0.2-0.5-0.7-0.3-1.1c0.2-0.4,0.7-0.5,1.1-0.3l2.2,1.2l1.2-0.7l-1.1-3
						c-0.2-0.4,0-0.9,0.5-1c0.4-0.2,0.9,0,1,0.5l1.4,3.6c0.1,0.4,0,0.8-0.3,1l-2.2,1.3C1244.6,71.7,1244.5,71.8,1244.3,71.8z"/>
				</g>
			</g>
		</g>
	</g>
	<g>
		<g>
			<g>
				<path class="st111" d="M1350.8,78.4h-17.5V38l0,0c9.7,0,17.5,7.8,17.5,17.5V78.4z"/>
				<path d="M1351.4,79h-18.7V37.4h0.6c10,0,18.1,8.1,18.1,18.1V79z M1333.9,77.8h16.3V55.5c0-9.1-7.2-16.5-16.3-16.9V77.8z"/>
			</g>
			<g>
				<path class="st111" d="M1370.6,49c-3.3-1.2-6.9-1.8-10.8-1.8h0c-15,0-27.3,10.1-27.3,22.5v44.1c0,2.7,2.7,5,6.1,5h42.4
					c3.3,0,6.1-2.2,6.1-5V72.7v-3.1V39.4C1379.5,39.4,1373,43.4,1370.6,49z"/>
				<path d="M1381,119.4h-42.4c-3.7,0-6.7-2.5-6.7-5.6V69.6c0-12.7,12.5-23.1,27.9-23.1c3.6,0,7.1,0.6,10.4,1.7
					c2.7-5.7,9.4-9.5,16.8-9.5h0.6v75C1387.7,116.9,1384.7,119.4,1381,119.4z M1359.8,47.8c-14.7,0-26.6,9.8-26.6,21.9v44.1
					c0,2.4,2.4,4.4,5.4,4.4h42.4c3,0,5.4-2,5.4-4.4V40c-6.9,0.2-13,3.9-15.3,9.2l-0.2,0.5l-0.5-0.2
					C1367,48.4,1363.5,47.8,1359.8,47.8z"/>
			</g>
			<g>
				<path d="M1342.7,72.3c-1.1,0-2.1,0.9-2.1,2.1h4.1C1344.8,73.2,1343.9,72.3,1342.7,72.3z"/>
				<path d="M1345.4,75h-5.4v-0.6c0-1.5,1.2-2.7,2.7-2.7c1.5,0,2.7,1.2,2.7,2.7V75z M1341.4,73.8h2.6c-0.2-0.5-0.7-0.8-1.3-0.8
					C1342.2,72.9,1341.7,73.3,1341.4,73.8z"/>
			</g>
			<g>
				<path d="M1364.2,72.3c-1.1,0-2.1,0.9-2.1,2.1h4.1C1366.2,73.2,1365.3,72.3,1364.2,72.3z"/>
				<path d="M1366.9,75h-5.4v-0.6c0-1.5,1.2-2.7,2.7-2.7c1.5,0,2.7,1.2,2.7,2.7V75z M1362.9,73.8h2.6c-0.2-0.5-0.7-0.8-1.3-0.8
					C1363.6,72.9,1363.1,73.3,1362.9,73.8z"/>
			</g>
			<g>
				<path class="st112" d="M1345.6,103.4c9.9,0,18.1-7.5,20.1-17.5c0.5-2.4-1.3-4.7-3.6-4.7h-33.1c-2.3,0-4.1,2.3-3.6,4.7
					C1327.5,95.9,1335.8,103.4,1345.6,103.4z"/>
				<path d="M1345.6,104c-9.9,0-18.6-7.6-20.7-18c-0.3-1.4,0.1-2.8,1-3.9c0.8-1,2-1.6,3.2-1.6h33.1c1.2,0,2.4,0.6,3.2,1.6
					c0.9,1.1,1.2,2.5,1,3.9C1364.3,96.4,1355.5,104,1345.6,104z M1329.1,81.7c-0.9,0-1.7,0.4-2.3,1.1c-0.7,0.8-0.9,1.8-0.7,2.9
					c2,9.9,10.2,17,19.5,17s17.5-7.2,19.5-17c0.2-1,0-2.1-0.7-2.9c-0.6-0.7-1.4-1.1-2.3-1.1H1329.1z"/>
			</g>
			<g>
				<rect x="1332.6" y="112.1" class="st113" width="54.5" height="6.7"/>
				<path d="M1387.7,119.4H1332v-8h55.8V119.4z M1333.2,118.2h53.3v-5.5h-53.3V118.2z"/>
			</g>
		</g>
		<g>
			<path d="M1328.9,87.2c2.1,0,3.9-2,4.3-4.8c0.1-0.7-0.3-1.3-0.8-1.3h-7.1c-0.5,0-0.9,0.6-0.8,1.3
				C1325,85.1,1326.7,87.2,1328.9,87.2z"/>
			<path d="M1328.9,87.8c-2.4,0-4.5-2.2-5-5.3c-0.1-0.6,0.1-1.1,0.4-1.5c0.3-0.3,0.6-0.5,1-0.5h7.1c0.4,0,0.7,0.2,1,0.5
				c0.3,0.4,0.5,1,0.4,1.5C1333.3,85.6,1331.3,87.8,1328.9,87.8z M1332.4,81.7l-7.1,0c0,0-0.2,0.2-0.2,0.6c0.4,2.5,2,4.2,3.7,4.2
				s3.3-1.8,3.7-4.2C1332.6,82,1332.5,81.7,1332.4,81.7z"/>
		</g>
	</g>
	<g>
		<g>
			<polygon class="st6" points="1458.6,108.3 1435.2,114.6 1433.4,90.4 1455,86.7 			"/>
			<path d="M1435.2,115.3c-0.1,0-0.3,0-0.4-0.1c-0.2-0.1-0.3-0.3-0.3-0.5l-1.8-24.2c0-0.3,0.2-0.7,0.6-0.7l21.6-3.7
				c0.2,0,0.4,0,0.5,0.1c0.1,0.1,0.2,0.3,0.3,0.4l3.7,21.6c0.1,0.3-0.2,0.7-0.5,0.8l-23.5,6.3
				C1435.3,115.3,1435.2,115.3,1435.2,115.3z M1434.1,91l1.7,22.8l22.1-6l-3.5-20.3L1434.1,91z"/>
		</g>
		<g>
			<polygon class="st114" points="1455,86.7 1433.4,90.4 1435.2,114.6 1435.6,114.5 1455,87.1 			"/>
			<path d="M1435.2,115.3c-0.1,0-0.2,0-0.4-0.1c-0.2-0.1-0.3-0.3-0.3-0.5l-1.8-24.2c0-0.3,0.2-0.7,0.6-0.7l21.6-3.7
				c0.2,0,0.4,0,0.5,0.1c0.1,0.1,0.2,0.3,0.3,0.4l0.1,0.3c0,0.2,0,0.4-0.1,0.5l-19.4,27.4c-0.1,0.1-0.2,0.2-0.3,0.2l-0.4,0.2
				C1435.3,115.3,1435.3,115.3,1435.2,115.3z M1434.1,91l1.6,22.1l18.1-25.5L1434.1,91z"/>
		</g>
		<g>
			<polygon class="st115" points="1455,87.1 1435.6,114.5 1458.6,108.3 			"/>
			<path d="M1435.6,115.2c-0.2,0-0.4-0.1-0.5-0.3c-0.2-0.2-0.2-0.5,0-0.8l19.4-27.4c0.2-0.2,0.4-0.3,0.7-0.3
				c0.3,0.1,0.5,0.3,0.5,0.5l3.6,21.2c0.1,0.3-0.2,0.7-0.5,0.8l-23.1,6.2C1435.7,115.2,1435.6,115.2,1435.6,115.2z M1454.6,88.8
				l-17.4,24.6l20.7-5.5L1454.6,88.8z"/>
		</g>
		<g>
			<polygon class="st115" points="1430.9,97.2 1430.9,97.2 1425.4,98.1 1425.9,104.2 1426,104.2 1431.9,102.6 			"/>
			<path d="M1425.9,104.9c-0.1,0-0.2,0-0.4-0.1c-0.2-0.1-0.3-0.3-0.3-0.5l-0.5-6.2c0-0.3,0.2-0.7,0.6-0.7l5.5-0.9
				c0.4-0.1,0.7,0.2,0.8,0.5l0,0.1c0,0,0,0,0,0l0.9,5.4c0.1,0.3-0.2,0.7-0.5,0.8l-5.9,1.6C1426.1,104.9,1426,104.9,1425.9,104.9z
				 M1426.2,98.6l0.3,4.7l4.6-1.2l-0.7-4.2L1426.2,98.6z"/>
		</g>
		<g>
			<polygon class="st114" points="1454.6,113 1454.6,112.9 1449.9,113.8 1450.3,119.1 1450.4,119 1455.4,117.7 			"/>
			<path d="M1450.3,119.7c-0.1,0-0.2,0-0.4-0.1c-0.2-0.1-0.3-0.3-0.3-0.5l-0.4-5.3c0-0.3,0.2-0.7,0.6-0.7l4.7-0.8
				c0.2,0,0.4,0,0.5,0.1c0.1,0.1,0.2,0.3,0.3,0.4l0.8,4.7c0.1,0.3-0.2,0.7-0.5,0.8l-5.1,1.4C1450.4,119.7,1450.4,119.7,1450.3,119.7
				z M1450.6,114.3l0.3,3.9l3.8-1l-0.6-3.5L1450.6,114.3z"/>
		</g>
		<g>
			<polygon class="st116" points="1462,102.9 1437.8,85.7 1436.8,77.5 1470.1,101.2 			"/>
			<path d="M1461.9,103.6l-24.7-17.5l-1.2-10l35.8,25.4L1461.9,103.6z M1438.4,85.4l23.7,16.8l6.3-1.4l-30.9-21.9L1438.4,85.4z"/>
		</g>
		<g>
			<polygon class="st6" points="1471.9,44.1 1490.2,37.8 1490.3,57.2 1490.3,76.6 1472.1,102.3 1435.5,76.3 1453.7,50.6 			"/>
			<path d="M1472.1,102.9c-0.1,0-0.3,0-0.4-0.1l-36.6-26c-0.1-0.1-0.2-0.3-0.3-0.4c0-0.2,0-0.4,0.1-0.5l18.2-25.6
				c0.1-0.1,0.2-0.2,0.3-0.2l18.2-6.5c0,0,0,0,0,0l18.4-6.4c0.2-0.1,0.4,0,0.6,0.1c0.2,0.1,0.3,0.3,0.3,0.5l0.1,38.9
				c0,0.1,0,0.3-0.1,0.4l-18.2,25.6C1472.5,102.8,1472.3,102.9,1472.1,102.9z M1436.4,76.1l35.6,25.2l17.7-24.9l-0.1-37.7l-17.5,6.1
				l-18,6.4L1436.4,76.1z"/>
		</g>
		<g>
			<polygon class="st116" points="1482.3,106 1475.7,97.6 1489.9,77.6 1496.5,86 			"/>
			<path d="M1482.3,107.2l-7.4-9.5l15-21.1l7.4,9.5L1482.3,107.2z M1476.6,97.6l5.7,7.3l13.4-18.9l-5.7-7.3L1476.6,97.6z"/>
		</g>
		<g>
			<polygon class="st116" points="1428.6,67.9 1438.7,71.3 1452.8,51.4 1442.7,48 			"/>
			<path d="M1438.9,72.1l-11.4-3.9l15-21.1l11.4,3.9L1438.9,72.1z M1429.6,67.6l8.8,3l13.4-18.9l-8.8-3L1429.6,67.6z"/>
		</g>
		<g>
			<polygon class="st117" points="1490.3,76.6 1490.3,57.2 1490.2,38.4 1454,89.4 1472.1,102.3 			"/>
			<path d="M1472.1,102.9c-0.1,0-0.3,0-0.4-0.1L1453.6,90c-0.1-0.1-0.2-0.3-0.3-0.4c0-0.2,0-0.4,0.1-0.5l36.2-51.1
				c0.2-0.2,0.5-0.3,0.7-0.3c0.3,0.1,0.5,0.3,0.5,0.6l0.1,38.3c0,0.1,0,0.3-0.1,0.4l-18.2,25.6
				C1472.5,102.8,1472.3,102.9,1472.1,102.9z M1454.9,89.3l17,12.1l17.7-24.9l-0.1-36L1454.9,89.3z"/>
		</g>
		<g>
			<circle class="st116" cx="1469.9" cy="66.2" r="13.3"/>
			<path d="M1469.9,80.1c-2.8,0-5.6-0.8-8-2.6c-6.3-4.4-7.8-13.2-3.3-19.4c2.2-3,5.4-5.1,9-5.7c3.7-0.6,7.4,0.2,10.4,2.4
				c3,2.2,5.1,5.4,5.7,9c0.6,3.7-0.2,7.4-2.4,10.4l0,0C1478.5,78.1,1474.2,80.1,1469.9,80.1z M1469.9,53.6c-0.7,0-1.4,0.1-2.1,0.2
				c-3.3,0.6-6.2,2.4-8.2,5.1c-4,5.7-2.7,13.6,3,17.6c5.7,4,13.6,2.7,17.6-3c1.9-2.7,2.7-6.1,2.1-9.4c-0.6-3.3-2.4-6.2-5.1-8.2
				C1475,54.4,1472.5,53.6,1469.9,53.6z"/>
		</g>
		<g>
			<circle class="st118" cx="1469.6" cy="65.9" r="9.5"/>
			<path d="M1469.6,76.1c-2,0-4.1-0.6-5.8-1.9c-4.6-3.2-5.6-9.6-2.4-14.1c3.2-4.6,9.6-5.6,14.1-2.4c4.6,3.2,5.6,9.6,2.4,14.1l0,0
				C1475.9,74.6,1472.8,76.1,1469.6,76.1z M1469.6,57.2c-2.8,0-5.5,1.3-7.2,3.7c-2.8,4-1.9,9.5,2.1,12.3c4,2.8,9.5,1.9,12.3-2.1l0,0
				c2.8-4,1.9-9.5-2.1-12.3C1473.2,57.7,1471.4,57.2,1469.6,57.2z"/>
		</g>
	</g>
</g>
</svg>
