<?xml version="1.0" encoding="utf-8"?>
<!-- Generator: Adobe Illustrator 22.0.1, SVG Export Plug-In . SVG Version: 6.00 Build 0)  -->
<svg version="1.1" id="Layer_1" xmlns="http://www.w3.org/2000/svg" xmlns:xlink="http://www.w3.org/1999/xlink" x="0px" y="0px"
	 viewBox="0 0 150 150" style="enable-background:new 0 0 150 150;" xml:space="preserve">
<style type="text/css">
	.st0{fill:#EA5220;}
	.st1{fill:#FFFFFF;}
</style>
<g>
	<g>
		<g>
			<circle class="st0" cx="74.8" cy="76.2" r="37.2"/>
		</g>
		<g>
			<path d="M74.8,114.5c-21.2,0-38.5-17.3-38.5-38.4s17.3-38.4,38.5-38.4s38.4,17.3,38.4,38.4S95.9,114.5,74.8,114.5z M74.8,40.3
				c-19.8,0-35.9,16.2-35.9,35.9s16.2,35.9,35.9,35.9s35.9-16.2,35.9-35.9S94.6,40.3,74.8,40.3z"/>
		</g>
	</g>
	<g>
		<g>
			<g>
				<path class="st1" d="M71.1,55.5c-5.3,0.5-7.8,1.3-12.1,3.6c0-2.5,0-3.8,0-6.3c11-8.5,20.5-8.5,31.6,0c0,2.5,0,3.8,0,6.3
					c-4.3-2.4-6.9-3.1-12.1-3.6c0,16.3,0,32.6,0,48.8c-2.9,0.4-4.4,0.4-7.3,0C71.1,88.1,71.1,71.8,71.1,55.5z"/>
				<path d="M74.8,105.9c-1.1,0-2.3-0.1-3.8-0.3l-1.1-0.1V56.9c-4.3,0.5-6.6,1.3-10.3,3.4l-1.9,1v-9l0.5-0.4
					c11.4-8.8,21.7-8.8,33.1,0l0.5,0.4v9l-1.9-1c-3.6-2-6-2.9-10.3-3.4v48.5l-1.1,0.1C77,105.8,75.9,105.9,74.8,105.9z M72.4,103.3
					c1.8,0.3,3,0.3,4.8,0V54.2l1.4,0.1c4.8,0.5,7.4,1.1,10.8,2.9v-3.5c-10.1-7.6-18.9-7.6-29.1,0v3.5c3.4-1.8,6-2.4,10.8-2.9
					l1.4-0.1C72.4,54.2,72.4,103.3,72.4,103.3z"/>
			</g>
		</g>
	</g>
</g>
<rect x="-179.2" y="11.1" class="st1" width="130" height="130"/>
<g>
	<g>
		<g>
			<circle class="st0" cx="-114.2" cy="76.2" r="37.2"/>
		</g>
		<g>
			<path d="M-114.2,114.5c-21.2,0-38.5-17.3-38.5-38.4s17.3-38.4,38.5-38.4s38.4,17.3,38.4,38.4S-93.1,114.5-114.2,114.5z
				 M-114.2,40.3c-19.8,0-35.9,16.2-35.9,35.9s16.2,35.9,35.9,35.9S-78.3,96-78.3,76.2S-94.4,40.3-114.2,40.3z"/>
		</g>
	</g>
	<g>
		<g>
			<g>
				<path class="st1" d="M-117.9,55.5c-5.3,0.5-7.8,1.3-12.1,3.6c0-2.5,0-3.8,0-6.3c11-8.5,20.5-8.5,31.6,0c0,2.5,0,3.8,0,6.3
					c-4.3-2.4-6.9-3.1-12.1-3.6c0,16.3,0,32.6,0,48.8c-2.9,0.4-4.4,0.4-7.3,0C-117.9,88.1-117.9,71.8-117.9,55.5z"/>
				<path d="M-114.2,105.9c-1.1,0-2.3-0.1-3.8-0.3l-1.1-0.1V56.9c-4.3,0.5-6.6,1.3-10.3,3.4l-1.9,1v-9l0.5-0.4
					c11.4-8.8,21.7-8.8,33.1,0l0.5,0.4v9l-1.9-1c-3.6-2-6-2.9-10.3-3.4v48.5l-1.1,0.1C-112,105.8-113.1,105.9-114.2,105.9z
					 M-116.6,103.3c1.8,0.3,3,0.3,4.8,0V54.2l1.4,0.1c4.8,0.5,7.4,1.1,10.8,2.9v-3.5c-10.1-7.6-18.9-7.6-29.1,0v3.5
					c3.4-1.8,6-2.4,10.8-2.9l1.4-0.1C-116.6,54.2-116.6,103.3-116.6,103.3z"/>
			</g>
		</g>
	</g>
</g>
</svg>
