<?xml version="1.0" encoding="utf-8"?>
<!-- Generator: Adobe Illustrator 22.0.1, SVG Export Plug-In . SVG Version: 6.00 Build 0)  -->
<svg version="1.1" id="Layer_1" xmlns="http://www.w3.org/2000/svg" xmlns:xlink="http://www.w3.org/1999/xlink" x="0px" y="0px"
	 viewBox="0 0 150 150" style="enable-background:new 0 0 150 150;" xml:space="preserve">
<style type="text/css">
	.st0{fill:#D1CAB6;}
	.st1{opacity:0.7;}
	.st2{fill:#828181;}
	.st3{fill:#C4C4C4;}
	.st4{fill:#898888;}
	.st5{fill:#FFFFFF;}
	.st6{fill:#F2EDE2;}
</style>
<g>
	<g>
		<g>
			<path class="st0" d="M113,48.4c0.2-0.5,0.3-1.1,0.3-1.6c0-7.2-17-13.1-38.1-13.1c-21,0-38.1,5.9-38.1,13.1c0,0.5,0.1,1.1,0.3,1.6
				c0,0,0,0,0,0.1c0,0.5,0.1,1.1,0.3,1.6c0,0,0,0,0,0.1c0,0.6,0.1,1.1,0.3,1.6l0,0c0,0.6,0.1,1.1,0.3,1.6l0,0c0,0.6,0.1,1.1,0.3,1.6
				l0,0c0,0.6,0.1,1.1,0.3,1.6l0,0c0,0.6,0.1,1.1,0.3,1.6l0,0c0,0.6,0.1,1.1,0.3,1.7l0,0c0,0.6,0.1,1.1,0.3,1.7l0,0
				c0,0.6,0.1,1.1,0.3,1.7l0,0c0,0.6,0.1,1.1,0.3,1.7l0,0c0,0.6,0.1,1.1,0.3,1.7c0,0.6,0.1,1.1,0.3,1.7c0,0.6,0.1,1.1,0.3,1.7
				c0,0.6,0.1,1.1,0.3,1.7c0,0.6,0.1,1.1,0.3,1.7c0,0.6,0.1,1.1,0.3,1.7c0,0.6,0.1,1.1,0.3,1.7c0,0.6,0.1,1.1,0.3,1.7
				c0,0.6,0.1,1.1,0.3,1.7c0,0.6,0.1,1.1,0.3,1.7c0,0.6,0.1,1.1,0.3,1.7c0,0.6,0.1,1.1,0.3,1.7c0,0.6,0.1,1.1,0.3,1.7
				c0,0.6,0.1,1.1,0.3,1.7c0,0.6,0.1,1.1,0.3,1.7c0,0.6,0.1,1.1,0.3,1.7c0,0.6,0.1,1.1,0.3,1.7c0,0.6,0.1,1.1,0.3,1.7
				c0,0.6,0.1,1.1,0.3,1.7c0,0.6,0.1,1.1,0.3,1.7c0,0.6,0.1,1.1,0.3,1.7c0,0.6,0.1,1.1,0.3,1.7c0,0.6,0.1,1.1,0.3,1.7
				c0.3,7.1,12.7,12.8,28,12.8s27.7-5.7,28-12.8c0.2-0.6,0.3-1.1,0.3-1.7c0.2-0.6,0.3-1.1,0.3-1.7c0.2-0.6,0.3-1.1,0.3-1.7
				c0.2-0.6,0.3-1.1,0.3-1.7c0.2-0.6,0.3-1.1,0.3-1.7c0.2-0.6,0.3-1.1,0.3-1.7c0.2-0.6,0.3-1.1,0.3-1.7c0.2-0.6,0.3-1.1,0.3-1.7
				c0.2-0.6,0.3-1.1,0.3-1.7c0.2-0.6,0.3-1.1,0.3-1.7c0.2-0.6,0.3-1.1,0.3-1.7c0.2-0.6,0.3-1.1,0.3-1.7c0.2-0.6,0.3-1.1,0.3-1.7
				c0.2-0.6,0.3-1.1,0.3-1.7c0.2-0.6,0.3-1.1,0.3-1.7c0.2-0.6,0.3-1.1,0.3-1.7c0.2-0.6,0.3-1.1,0.3-1.7c0.2-0.6,0.3-1.1,0.3-1.7
				c0.2-0.6,0.3-1.1,0.3-1.7c0.2-0.6,0.3-1.1,0.3-1.7c0.2-0.6,0.3-1.1,0.3-1.7c0.2-0.6,0.3-1.1,0.3-1.7c0.2-0.5,0.3-1.1,0.3-1.7l0,0
				c0.2-0.5,0.3-1.1,0.3-1.7l0,0c0.2-0.5,0.3-1.1,0.3-1.7l0,0c0.2-0.5,0.3-1.1,0.3-1.7l0,0c0.2-0.5,0.3-1.1,0.3-1.7l0,0
				c0.2-0.5,0.3-1.1,0.3-1.6l0,0c0.2-0.5,0.3-1.1,0.3-1.6l0,0c0.2-0.5,0.3-1.1,0.3-1.6l0,0c0.2-0.5,0.3-1.1,0.3-1.6l0,0
				c0.2-0.5,0.3-1.1,0.3-1.6c0,0,0,0,0-0.1C112.9,49.5,113,49,113,48.4L113,48.4z"/>
			<path d="M75.2,117.5c-15.8,0-28.4-5.9-28.8-13.4c-0.2-0.5-0.3-1.1-0.3-1.7c-0.2-0.5-0.3-1.1-0.3-1.7c-0.2-0.5-0.3-1.1-0.3-1.7
				c-0.2-0.6-0.3-1.1-0.3-1.7c-0.2-0.6-0.3-1.1-0.3-1.7c-0.2-0.6-0.3-1.1-0.3-1.7c-0.2-0.6-0.3-1.1-0.3-1.7
				c-0.2-0.6-0.3-1.1-0.3-1.7c-0.2-0.6-0.3-1.1-0.3-1.7c-0.2-0.6-0.3-1.1-0.3-1.7c-0.2-0.6-0.3-1.1-0.3-1.7
				c-0.2-0.6-0.3-1.1-0.3-1.7c-0.2-0.6-0.3-1.1-0.3-1.7c-0.2-0.6-0.3-1.1-0.3-1.7c-0.2-0.6-0.3-1.1-0.3-1.7
				c-0.2-0.6-0.3-1.1-0.3-1.7c-0.2-0.6-0.3-1.1-0.3-1.7c-0.2-0.6-0.3-1.1-0.3-1.7c-0.2-0.6-0.3-1.1-0.3-1.7
				c-0.2-0.6-0.3-1.1-0.3-1.7c-0.2-0.6-0.3-1.1-0.3-1.7c-0.2-0.6-0.3-1.1-0.3-1.7c-0.2-0.6-0.3-1.1-0.3-1.7
				c-0.2-0.6-0.3-1.1-0.3-1.7c-0.2-0.6-0.3-1.1-0.3-1.7c-0.2-0.6-0.3-1.1-0.3-1.7c-0.2-0.6-0.3-1.1-0.3-1.7
				c-0.2-0.6-0.3-1.1-0.3-1.7c-0.2-0.6-0.3-1.1-0.3-1.7c-0.2-0.6-0.3-1.1-0.3-1.7c-0.2-0.6-0.3-1.1-0.3-1.7
				c-0.2-0.6-0.3-1.1-0.3-1.7c-0.2-0.6-0.3-1.1-0.3-1.7c-0.2-0.6-0.3-1.2-0.3-1.7c0-7.8,17.1-13.8,38.8-13.8
				c21.8,0,38.8,6.1,38.8,13.8c0,0.6-0.1,1.1-0.3,1.7c0,0.5-0.1,1.1-0.3,1.7c0,0.6-0.1,1.1-0.3,1.7c0,0.6-0.1,1.1-0.3,1.7
				c0,0.6-0.1,1.1-0.3,1.7c0,0.6-0.1,1.1-0.3,1.7c0,0.6-0.1,1.1-0.3,1.7c0,0.6-0.1,1.1-0.3,1.7c0,0.6-0.1,1.1-0.3,1.7
				c0,0.6-0.1,1.1-0.3,1.7c0,0.5-0.1,1.1-0.3,1.7c0,0.5-0.1,1.1-0.3,1.7c0,0.5-0.1,1.1-0.3,1.7c0,0.6-0.1,1.1-0.3,1.7
				c0,0.6-0.1,1.1-0.3,1.7c0,0.6-0.1,1.1-0.3,1.7c0,0.6-0.1,1.1-0.3,1.7c0,0.6-0.1,1.1-0.3,1.7c0,0.6-0.1,1.1-0.3,1.7
				c0,0.6-0.1,1.1-0.3,1.7c0,0.6-0.1,1.1-0.3,1.7c0,0.6-0.1,1.1-0.3,1.7c0,0.6-0.1,1.1-0.3,1.7c0,0.6-0.1,1.1-0.3,1.7
				c0,0.6-0.1,1.1-0.3,1.7c0,0.6-0.1,1.1-0.3,1.7c0,0.6-0.1,1.1-0.3,1.7c0,0.6-0.1,1.1-0.3,1.7c0,0.6-0.1,1.1-0.3,1.7
				c0,0.6-0.1,1.1-0.3,1.7c0,0.6-0.1,1.1-0.3,1.7c0,0.6-0.1,1.1-0.3,1.7c0,0.6-0.1,1.1-0.3,1.7c0,0.6-0.1,1.1-0.3,1.7
				C103.6,111.6,91,117.5,75.2,117.5z M41.2,65.2c0,0.4,0.1,0.9,0.3,1.4v0.1v0.1c0,0.5,0.1,0.9,0.3,1.4v0.1v0.1
				c0,0.5,0.1,0.9,0.3,1.4v0.1V70c0,0.5,0.1,0.9,0.3,1.4v0.1v0.1c0,0.5,0.1,0.9,0.3,1.4v0.2c0,0.5,0.1,1,0.3,1.4v0.2
				c0,0.5,0.1,0.9,0.3,1.4v0.2c0,0.5,0.1,1,0.3,1.4V78c0,0.5,0.1,1,0.3,1.4v0.2c0,0.5,0.1,1,0.3,1.5v0.2c0,0.5,0.1,1,0.3,1.5V83
				c0,0.5,0.1,1,0.3,1.5v0.2c0,0.5,0.1,1,0.3,1.5v0.2c0,0.5,0.1,1,0.3,1.5v0.2c0,0.5,0.1,1,0.3,1.5v0.2c0,0.5,0.1,1,0.3,1.5v0.2
				c0,0.5,0.1,1,0.3,1.5v0.2c0,0.5,0.1,1,0.3,1.5v0.2c0,0.5,0.1,1,0.3,1.5v0.2c0,0.5,0.1,1,0.3,1.5v0.2c0,0.5,0.1,1,0.3,1.5v0.2
				c0,0.5,0.1,1,0.3,1.5v0.2c0,0.5,0.1,1,0.3,1.5v0.2c0.3,6.7,12.5,12.1,27.2,12.1s27-5.4,27.2-12.1v-0.2c0.2-0.5,0.2-1,0.3-1.5
				v-0.2c0.2-0.5,0.2-1,0.3-1.5v-0.2c0.2-0.5,0.2-1,0.3-1.5v-0.2c0.2-0.5,0.2-1,0.3-1.5v-0.2c0.2-0.5,0.2-1,0.3-1.5v-0.2
				c0.2-0.5,0.2-1,0.3-1.5V93c0.2-0.5,0.2-1,0.3-1.5v-0.2c0.2-0.5,0.2-1,0.3-1.5v-0.2c0.2-0.5,0.2-1,0.3-1.5v-0.2
				c0.2-0.5,0.2-1,0.3-1.5v-0.2c0.2-0.5,0.2-1,0.3-1.5v-0.2c0.2-0.5,0.2-1,0.3-1.5v-0.2c0.2-0.5,0.2-1,0.3-1.5v-0.2
				c0.2-0.5,0.2-1,0.3-1.5v-0.2c0.2-0.5,0.2-1,0.3-1.4v-0.2c0.2-0.5,0.3-1,0.3-1.4v-0.2c0.2-0.5,0.3-1,0.3-1.4v-0.2
				c0.2-0.5,0.3-1,0.3-1.4V73c0.2-0.5,0.3-1,0.3-1.4v-0.1v-0.1c0.2-0.5,0.3-1,0.3-1.4v-0.1v-0.1c0.2-0.5,0.3-1,0.3-1.4v-0.1v-0.1
				c0.2-0.5,0.3-1,0.3-1.4v-0.1v-0.1c0.2-0.5,0.2-0.9,0.3-1.4v-0.1l0.1-0.2c0.2-0.5,0.2-0.9,0.3-1.4v-0.2v-0.1
				c0.2-0.5,0.3-1,0.3-1.4v-0.1v-0.1c0.2-0.5,0.3-1,0.3-1.4v-0.1V60c0.2-0.5,0.3-0.9,0.3-1.4v-0.1v-0.2c0.2-0.5,0.3-0.9,0.3-1.4
				v-0.1v-0.1c0.2-0.5,0.3-0.9,0.3-1.4v-0.1V55c0.2-0.5,0.3-0.9,0.3-1.4v-0.1v-0.2c0.2-0.5,0.3-0.9,0.3-1.4v-0.1v-0.2
				c0.2-0.5,0.3-0.9,0.3-1.4v-0.1v-0.2c0.2-0.5,0.3-0.9,0.3-1.4v-0.1v-0.2c0.2-0.5,0.3-0.9,0.3-1.4c0-6.7-17.1-12.3-37.3-12.3
				c-20.2,0-37.3,5.6-37.3,12.3c0,0.4,0.1,0.9,0.3,1.4v0.1v0.2c0,0.4,0.1,0.8,0.3,1.3v0.1v0.2c0,0.4,0.1,0.8,0.3,1.3v0.1v0.2
				c0,0.4,0.1,0.8,0.3,1.3v0.1v0.2c0,0.4,0.1,0.8,0.3,1.3v0.1v0.2c0,0.4,0.1,0.8,0.3,1.3v0.1v0.1c0,0.5,0.1,0.9,0.3,1.4v0.1v0.2
				c0,0.4,0.1,0.8,0.3,1.3v0.1v0.2c0,0.4,0.1,0.8,0.3,1.3v0.1v0.2c0,0.4,0.1,0.8,0.3,1.3v0.1v0.2c0,0.4,0.1,0.9,0.3,1.4l0.1,0.2
				L41.2,65.2z"/>
		</g>
		<g class="st1">
			<path class="st2" d="M112.5,48.4c0.2-0.5,0.3-1.1,0.3-1.6c0-7.2-17-13.1-38.1-13.1c-0.8,0-1.7,0-2.5,0c19.8,0.4,35.6,6.1,35.6,13
				c0,0.5-0.1,1.1-0.3,1.6c0,0,0,0,0,0.1c0,0.5-0.1,1.1-0.3,1.6c0,0,0,0,0,0.1c0,0.6-0.1,1.1-0.3,1.6l0,0c0,0.6-0.1,1.1-0.3,1.6l0,0
				c0,0.6-0.1,1.1-0.3,1.6l0,0c0,0.6-0.1,1.1-0.3,1.6l0,0c0,0.6-0.1,1.1-0.3,1.6l0,0c0,0.6-0.1,1.1-0.3,1.7l0,0
				c0,0.6-0.1,1.1-0.3,1.7l0,0c0,0.6-0.1,1.1-0.3,1.7l0,0c0,0.6-0.1,1.1-0.3,1.7l0,0c0,0.6-0.1,1.1-0.3,1.7c0,0.6-0.1,1.1-0.3,1.7
				c0,0.6-0.1,1.1-0.3,1.7c0,0.6-0.1,1.1-0.3,1.7c0,0.6-0.1,1.1-0.3,1.7c0,0.6-0.1,1.1-0.3,1.7c0,0.6-0.1,1.1-0.3,1.7
				c0,0.6-0.1,1.1-0.3,1.7c0,0.6-0.1,1.1-0.3,1.7c0,0.6-0.1,1.1-0.3,1.7c0,0.6-0.1,1.1-0.3,1.7c0,0.6-0.1,1.1-0.3,1.7
				c0,0.6-0.1,1.1-0.3,1.7c0,0.6-0.1,1.1-0.3,1.7c0,0.6-0.1,1.1-0.3,1.7c0,0.6-0.1,1.1-0.3,1.7c0,0.6-0.1,1.1-0.3,1.7
				c0,0.6-0.1,1.1-0.3,1.7c0,0.6-0.1,1.1-0.3,1.7c0,0.6-0.1,1.1-0.3,1.7c0,0.6-0.1,1.1-0.3,1.7c0,0.6-0.1,1.1-0.3,1.7
				c0,0.6-0.1,1.1-0.3,1.7c-0.3,6.7-11.4,12.2-25.5,12.8c0.8,0,1.7,0.1,2.5,0.1c15.3,0,27.7-5.7,28-12.8c0.2-0.6,0.3-1.1,0.3-1.7
				c0.2-0.6,0.3-1.1,0.3-1.7c0.2-0.6,0.3-1.1,0.3-1.7c0.2-0.6,0.3-1.1,0.3-1.7c0.2-0.6,0.3-1.1,0.3-1.7c0.2-0.6,0.3-1.1,0.3-1.7
				c0.2-0.6,0.3-1.1,0.3-1.7c0.2-0.6,0.3-1.1,0.3-1.7c0.2-0.6,0.3-1.1,0.3-1.7c0.2-0.6,0.3-1.1,0.3-1.7c0.2-0.6,0.3-1.1,0.3-1.7
				c0.2-0.6,0.3-1.1,0.3-1.7c0.2-0.6,0.3-1.1,0.3-1.7c0.2-0.6,0.3-1.1,0.3-1.7c0.2-0.6,0.3-1.1,0.3-1.7c0.2-0.6,0.3-1.1,0.3-1.7
				c0.2-0.6,0.3-1.1,0.3-1.7c0.2-0.6,0.3-1.1,0.3-1.7c0.2-0.6,0.3-1.1,0.3-1.7c0.2-0.6,0.3-1.1,0.3-1.7c0.2-0.6,0.3-1.1,0.3-1.7
				c0.2-0.6,0.3-1.1,0.3-1.7c0.2-0.5,0.3-1.1,0.3-1.7l0,0c0.2-0.5,0.3-1.1,0.3-1.7l0,0c0.2-0.5,0.3-1.1,0.3-1.7l0,0
				c0.2-0.5,0.3-1.1,0.3-1.7l0,0c0.2-0.5,0.3-1.1,0.3-1.7l0,0c0.2-0.5,0.3-1.1,0.3-1.6l0,0c0.2-0.5,0.3-1.1,0.3-1.6l0,0
				c0.2-0.5,0.3-1.1,0.3-1.6l0,0c0.2-0.5,0.3-1.1,0.3-1.6l0,0c0.2-0.5,0.3-1.1,0.3-1.6c0,0,0,0,0-0.1
				C112.4,49.5,112.6,49,112.5,48.4C112.6,48.4,112.5,48.4,112.5,48.4z"/>
		</g>
		<g>
			<ellipse class="st3" cx="75.2" cy="45.1" rx="36.7" ry="11.4"/>
			<path d="M75.2,57.2c-21,0-37.5-5.3-37.5-12.2c0-6.8,16.5-12.1,37.5-12.1s37.5,5.3,37.5,12.1C112.7,51.9,96.2,57.2,75.2,57.2z
				 M75.2,34.5c-21.5,0-35.9,5.5-35.9,10.6s14.4,10.6,35.9,10.6s35.9-5.5,35.9-10.6C111.2,39.9,96.7,34.5,75.2,34.5z"/>
		</g>
		<g>
			<path class="st4" d="M75.2,36.6c18.7,0,34,4.3,36.4,9.9c0.2-0.5,0.3-1,0.3-1.5c0-6.3-16.4-11.4-36.7-11.4
				c-20.3,0-36.7,5.1-36.7,11.4c0,0.5,0.1,1,0.3,1.5C41.2,41,56.6,36.6,75.2,36.6z"/>
			<path d="M111.6,48.5l-0.7-1.7c-2.5-5.9-20.1-9.4-35.7-9.4S42,40.9,39.5,46.8l-0.7,1.7l-0.7-1.7c-0.2-0.6-0.4-1.2-0.4-1.8
				c0-6.8,16.5-12.1,37.5-12.1s37.5,5.3,37.5,12.1c0,0.6-0.1,1.2-0.4,1.8L111.6,48.5z M75.2,35.9c16.9,0,31.2,3.5,35.8,8.5
				c-1.2-4.9-15.3-9.9-35.8-9.9s-34.6,5-35.8,9.9C44.1,39.4,58.3,35.9,75.2,35.9z"/>
		</g>
		<g>
			<ellipse transform="matrix(0.9752 -0.2213 0.2213 0.9752 -13.4912 12.6907)" class="st5" cx="49.9" cy="66.6" rx="5" ry="8.5"/>
			<path d="M51.1,75.7c-3,0-5.9-3.4-6.9-8c-0.7-3.2-0.3-6.2,1-8.2c0.7-1.1,1.7-1.7,2.8-1.9c3.2-0.6,6.5,2.9,7.6,8
				c0.7,3.2,0.3,6.2-1,8.2c-0.7,1.1-1.7,1.7-2.8,1.9C51.6,75.6,51.4,75.7,51.1,75.7z M48.7,59c-0.1,0-0.3,0-0.4,0
				c-0.7,0.1-1.3,0.5-1.8,1.3c-1.1,1.6-1.4,4.3-0.8,7c0.9,4.1,3.5,7.2,5.8,6.8c0.7-0.1,1.3-0.6,1.8-1.3c1.1-1.6,1.4-4.3,0.8-7l0,0
				C53.3,62,50.9,59,48.7,59z"/>
		</g>
	</g>
	<g>
		<g>
			<path class="st6" d="M77,43.1c0.8-0.2,1.3,1.2,2.1,1c0.8-0.2,0.4-1.7,1.3-2c0.8-0.2,1.3,1.2,2.1,1c0.8-0.2,0.4-1.7,1.3-2
				c0.8-0.2,1.3,1.2,2.1,1"/>
		</g>
		<g>
			<path d="M78.9,44.5c-0.5,0-0.9-0.4-1.1-0.6c-0.3-0.3-0.5-0.5-0.7-0.4l-0.2-0.7c0.6-0.2,1.1,0.3,1.4,0.6s0.5,0.5,0.7,0.4
				s0.3-0.3,0.4-0.7c0.1-0.5,0.3-1.1,0.9-1.3s1.1,0.3,1.4,0.6s0.5,0.5,0.7,0.4s0.3-0.3,0.4-0.7c0.1-0.5,0.3-1.1,0.9-1.3
				s1.1,0.3,1.4,0.6s0.5,0.5,0.7,0.4l0.2,0.7c-0.6,0.2-1.1-0.3-1.4-0.6s-0.5-0.5-0.7-0.4s-0.3,0.3-0.4,0.7c-0.1,0.5-0.3,1.1-0.9,1.3
				s-1.1-0.3-1.4-0.6s-0.5-0.5-0.7-0.4s-0.3,0.3-0.4,0.7c-0.1,0.5-0.3,1.1-0.9,1.3C79.1,44.5,79,44.5,78.9,44.5z"/>
		</g>
	</g>
	<g>
		<g>
			<path class="st6" d="M88.1,46.3c0.6,0.1,0.3,1.6,0.9,1.8c0.6,0.1,0.9-1.4,1.5-1.3c0.6,0.1,0.3,1.6,0.9,1.8
				c0.6,0.1,0.9-1.4,1.5-1.3s0.3,1.6,0.9,1.8"/>
		</g>
		<g>
			<path d="M93.9,49.4c-0.6-0.1-0.7-0.7-0.8-1.2c0-0.2-0.1-0.5-0.2-0.6c-0.1,0-0.3,0.3-0.4,0.5c-0.3,0.4-0.6,0.9-1.2,0.8
				c-0.6-0.1-0.7-0.7-0.8-1.2c0-0.2-0.1-0.5-0.2-0.6c-0.1,0-0.3,0.3-0.4,0.5c-0.3,0.4-0.6,0.9-1.2,0.8c-0.6-0.1-0.7-0.7-0.8-1.2
				c0-0.2-0.1-0.5-0.2-0.6l0.2-0.7c0.6,0.1,0.7,0.7,0.8,1.2c0,0.2,0.1,0.5,0.2,0.6c0.1,0,0.3-0.3,0.4-0.5c0.3-0.4,0.6-0.9,1.2-0.8
				c0.6,0.1,0.7,0.7,0.8,1.2c0,0.2,0.1,0.5,0.2,0.6c0.1,0,0.3-0.3,0.4-0.5c0.3-0.4,0.6-0.9,1.2-0.8c0.6,0.1,0.7,0.7,0.8,1.2
				c0,0.2,0.1,0.5,0.2,0.6L93.9,49.4z"/>
		</g>
	</g>
	<g>
		<g>
			<path class="st6" d="M50.4,45.5c0.6,0.1,0.3,1.6,0.9,1.8c0.6,0.1,0.9-1.4,1.5-1.3c0.6,0.1,0.3,1.6,0.9,1.8
				c0.6,0.1,0.9-1.4,1.5-1.3s0.3,1.6,0.9,1.8"/>
		</g>
		<g>
			<path d="M56.2,48.7c-0.6-0.1-0.7-0.7-0.8-1.2c0-0.2-0.1-0.5-0.2-0.6c-0.1,0-0.3,0.3-0.4,0.5c-0.3,0.4-0.6,0.9-1.2,0.8
				c-0.6-0.1-0.7-0.7-0.8-1.2c0-0.2-0.1-0.5-0.2-0.6c-0.1,0-0.3,0.3-0.4,0.5c-0.3,0.4-0.6,0.9-1.2,0.8c-0.6-0.1-0.7-0.7-0.8-1.2
				c0-0.2-0.1-0.5-0.2-0.6l0.2-0.7c0.6,0.1,0.7,0.7,0.8,1.2c0,0.2,0.1,0.5,0.2,0.6c0.1,0,0.3-0.3,0.4-0.5c0.3-0.4,0.6-0.9,1.2-0.8
				c0.6,0.1,0.7,0.7,0.8,1.2c0,0.2,0.1,0.5,0.2,0.6c0.1,0,0.3-0.3,0.4-0.5c0.3-0.4,0.6-0.9,1.2-0.8c0.6,0.1,0.7,0.7,0.8,1.2
				c0,0.2,0.1,0.5,0.2,0.6L56.2,48.7z"/>
		</g>
	</g>
</g>
<rect x="-157" y="10" class="st5" width="130" height="130"/>
<g>
	<g>
		<g>
			<path class="st0" d="M-54,48.4c0.2-0.5,0.3-1.1,0.3-1.6c0-7.2-17-13.1-38.1-13.1c-21,0-38.1,5.9-38.1,13.1c0,0.5,0.1,1.1,0.3,1.6
				c0,0,0,0,0,0.1c0,0.5,0.1,1.1,0.3,1.6c0,0,0,0,0,0.1c0,0.6,0.1,1.1,0.3,1.6l0,0c0,0.6,0.1,1.1,0.3,1.6l0,0c0,0.6,0.1,1.1,0.3,1.6
				l0,0c0,0.6,0.1,1.1,0.3,1.6l0,0c0,0.6,0.1,1.1,0.3,1.6l0,0c0,0.6,0.1,1.1,0.3,1.7l0,0c0,0.6,0.1,1.1,0.3,1.7l0,0
				c0,0.6,0.1,1.1,0.3,1.7l0,0c0,0.6,0.1,1.1,0.3,1.7l0,0c0,0.6,0.1,1.1,0.3,1.7c0,0.6,0.1,1.1,0.3,1.7c0,0.6,0.1,1.1,0.3,1.7
				c0,0.6,0.1,1.1,0.3,1.7c0,0.6,0.1,1.1,0.3,1.7c0,0.6,0.1,1.1,0.3,1.7c0,0.6,0.1,1.1,0.3,1.7c0,0.6,0.1,1.1,0.3,1.7
				c0,0.6,0.1,1.1,0.3,1.7c0,0.6,0.1,1.1,0.3,1.7c0,0.6,0.1,1.1,0.3,1.7c0,0.6,0.1,1.1,0.3,1.7c0,0.6,0.1,1.1,0.3,1.7
				c0,0.6,0.1,1.1,0.3,1.7c0,0.6,0.1,1.1,0.3,1.7c0,0.6,0.1,1.1,0.3,1.7c0,0.6,0.1,1.1,0.3,1.7c0,0.6,0.1,1.1,0.3,1.7
				c0,0.6,0.1,1.1,0.3,1.7c0,0.6,0.1,1.1,0.3,1.7c0,0.6,0.1,1.1,0.3,1.7c0,0.6,0.1,1.1,0.3,1.7c0,0.6,0.1,1.1,0.3,1.7
				c0.3,7.1,12.7,12.8,28,12.8s27.7-5.7,28-12.8c0.2-0.6,0.3-1.1,0.3-1.7c0.2-0.6,0.3-1.1,0.3-1.7c0.2-0.6,0.3-1.1,0.3-1.7
				c0.2-0.6,0.3-1.1,0.3-1.7c0.2-0.6,0.3-1.1,0.3-1.7c0.2-0.6,0.3-1.1,0.3-1.7c0.2-0.6,0.3-1.1,0.3-1.7c0.2-0.6,0.3-1.1,0.3-1.7
				c0.2-0.6,0.3-1.1,0.3-1.7c0.2-0.6,0.3-1.1,0.3-1.7c0.2-0.6,0.3-1.1,0.3-1.7c0.2-0.6,0.3-1.1,0.3-1.7c0.2-0.6,0.3-1.1,0.3-1.7
				c0.2-0.6,0.3-1.1,0.3-1.7c0.2-0.6,0.3-1.1,0.3-1.7c0.2-0.6,0.3-1.1,0.3-1.7c0.2-0.6,0.3-1.1,0.3-1.7c0.2-0.6,0.3-1.1,0.3-1.7
				c0.2-0.6,0.3-1.1,0.3-1.7c0.2-0.6,0.3-1.1,0.3-1.7c0.2-0.6,0.3-1.1,0.3-1.7c0.2-0.6,0.3-1.1,0.3-1.7c0.2-0.5,0.3-1.1,0.3-1.7l0,0
				c0.2-0.5,0.3-1.1,0.3-1.7l0,0c0.2-0.5,0.3-1.1,0.3-1.7l0,0c0.2-0.5,0.3-1.1,0.3-1.7l0,0c0.2-0.5,0.3-1.1,0.3-1.7l0,0
				c0.2-0.5,0.3-1.1,0.3-1.6l0,0c0.2-0.5,0.3-1.1,0.3-1.6l0,0c0.2-0.5,0.3-1.1,0.3-1.6l0,0c0.2-0.5,0.3-1.1,0.3-1.6l0,0
				c0.2-0.5,0.3-1.1,0.3-1.6c0,0,0,0,0-0.1C-54.1,49.5-54,49-54,48.4L-54,48.4z"/>
			<path d="M-91.8,117.5c-15.8,0-28.4-5.9-28.8-13.4c-0.2-0.5-0.3-1.1-0.3-1.7c-0.2-0.5-0.3-1.1-0.3-1.7c-0.2-0.5-0.3-1.1-0.3-1.7
				c-0.2-0.6-0.3-1.1-0.3-1.7c-0.2-0.6-0.3-1.1-0.3-1.7c-0.2-0.6-0.3-1.1-0.3-1.7c-0.2-0.6-0.3-1.1-0.3-1.7
				c-0.2-0.6-0.3-1.1-0.3-1.7c-0.2-0.6-0.3-1.1-0.3-1.7c-0.2-0.6-0.3-1.1-0.3-1.7c-0.2-0.6-0.3-1.1-0.3-1.7
				c-0.2-0.6-0.3-1.1-0.3-1.7c-0.2-0.6-0.3-1.1-0.3-1.7c-0.2-0.6-0.3-1.1-0.3-1.7c-0.2-0.6-0.3-1.1-0.3-1.7
				c-0.2-0.6-0.3-1.1-0.3-1.7c-0.2-0.6-0.3-1.1-0.3-1.7c-0.2-0.6-0.3-1.1-0.3-1.7c-0.2-0.6-0.3-1.1-0.3-1.7
				c-0.2-0.6-0.3-1.1-0.3-1.7c-0.2-0.6-0.3-1.1-0.3-1.7c-0.2-0.6-0.3-1.1-0.3-1.7c-0.2-0.6-0.3-1.1-0.3-1.7
				c-0.2-0.6-0.3-1.1-0.3-1.7c-0.2-0.6-0.3-1.1-0.3-1.7c-0.2-0.6-0.3-1.1-0.3-1.7c-0.2-0.6-0.3-1.1-0.3-1.7
				c-0.2-0.6-0.3-1.1-0.3-1.7c-0.2-0.6-0.3-1.1-0.3-1.7c-0.2-0.6-0.3-1.1-0.3-1.7c-0.2-0.6-0.3-1.1-0.3-1.7
				c-0.2-0.6-0.3-1.1-0.3-1.7c-0.2-0.6-0.3-1.1-0.3-1.7c-0.2-0.6-0.3-1.2-0.3-1.7c0-7.8,17.1-13.8,38.8-13.8
				c21.8,0,38.8,6.1,38.8,13.8c0,0.6-0.1,1.1-0.3,1.7c0,0.5-0.1,1.1-0.3,1.7c0,0.6-0.1,1.1-0.3,1.7c0,0.6-0.1,1.1-0.3,1.7
				c0,0.6-0.1,1.1-0.3,1.7c0,0.6-0.1,1.1-0.3,1.7c0,0.6-0.1,1.1-0.3,1.7c0,0.6-0.1,1.1-0.3,1.7c0,0.6-0.1,1.1-0.3,1.7
				c0,0.6-0.1,1.1-0.3,1.7c0,0.5-0.1,1.1-0.3,1.7c0,0.5-0.1,1.1-0.3,1.7c0,0.5-0.1,1.1-0.3,1.7c0,0.6-0.1,1.1-0.3,1.7
				c0,0.6-0.1,1.1-0.3,1.7c0,0.6-0.1,1.1-0.3,1.7c0,0.6-0.1,1.1-0.3,1.7c0,0.6-0.1,1.1-0.3,1.7c0,0.6-0.1,1.1-0.3,1.7
				c0,0.6-0.1,1.1-0.3,1.7c0,0.6-0.1,1.1-0.3,1.7c0,0.6-0.1,1.1-0.3,1.7c0,0.6-0.1,1.1-0.3,1.7c0,0.6-0.1,1.1-0.3,1.7
				c0,0.6-0.1,1.1-0.3,1.7c0,0.6-0.1,1.1-0.3,1.7c0,0.6-0.1,1.1-0.3,1.7c0,0.6-0.1,1.1-0.3,1.7c0,0.6-0.1,1.1-0.3,1.7
				c0,0.6-0.1,1.1-0.3,1.7c0,0.6-0.1,1.1-0.3,1.7c0,0.6-0.1,1.1-0.3,1.7c0,0.6-0.1,1.1-0.3,1.7c0,0.6-0.1,1.1-0.3,1.7
				C-63.4,111.6-76,117.5-91.8,117.5z M-125.8,65.2c0,0.4,0.1,0.9,0.3,1.4v0.1v0.1c0,0.5,0.1,0.9,0.3,1.4v0.1v0.1
				c0,0.5,0.1,0.9,0.3,1.4v0.1V70c0,0.5,0.1,0.9,0.3,1.4v0.1v0.1c0,0.5,0.1,0.9,0.3,1.4v0.2c0,0.5,0.1,1,0.3,1.4v0.2
				c0,0.5,0.1,0.9,0.3,1.4v0.2c0,0.5,0.1,1,0.3,1.4V78c0,0.5,0.1,1,0.3,1.4v0.2c0,0.5,0.1,1,0.3,1.5v0.2c0,0.5,0.1,1,0.3,1.5V83
				c0,0.5,0.1,1,0.3,1.5v0.2c0,0.5,0.1,1,0.3,1.5v0.2c0,0.5,0.1,1,0.3,1.5v0.2c0,0.5,0.1,1,0.3,1.5v0.2c0,0.5,0.1,1,0.3,1.5v0.2
				c0,0.5,0.1,1,0.3,1.5v0.2c0,0.5,0.1,1,0.3,1.5v0.2c0,0.5,0.1,1,0.3,1.5v0.2c0,0.5,0.1,1,0.3,1.5v0.2c0,0.5,0.1,1,0.3,1.5v0.2
				c0,0.5,0.1,1,0.3,1.5v0.2c0,0.5,0.1,1,0.3,1.5v0.2c0.3,6.7,12.5,12.1,27.2,12.1s27-5.4,27.2-12.1v-0.2c0.2-0.5,0.2-1,0.3-1.5
				v-0.2c0.2-0.5,0.2-1,0.3-1.5v-0.2c0.2-0.5,0.2-1,0.3-1.5v-0.2c0.2-0.5,0.2-1,0.3-1.5v-0.2c0.2-0.5,0.2-1,0.3-1.5v-0.2
				c0.2-0.5,0.2-1,0.3-1.5V93c0.2-0.5,0.2-1,0.3-1.5v-0.2c0.2-0.5,0.2-1,0.3-1.5v-0.2c0.2-0.5,0.2-1,0.3-1.5v-0.2
				c0.2-0.5,0.2-1,0.3-1.5v-0.2c0.2-0.5,0.2-1,0.3-1.5v-0.2c0.2-0.5,0.2-1,0.3-1.5v-0.2c0.2-0.5,0.2-1,0.3-1.5v-0.2
				c0.2-0.5,0.2-1,0.3-1.5v-0.2c0.2-0.5,0.2-1,0.3-1.4v-0.2c0.2-0.5,0.3-1,0.3-1.4v-0.2c0.2-0.5,0.3-1,0.3-1.4v-0.2
				c0.2-0.5,0.3-1,0.3-1.4V73c0.2-0.5,0.3-1,0.3-1.4v-0.1v-0.1c0.2-0.5,0.3-1,0.3-1.4v-0.1v-0.1c0.2-0.5,0.3-1,0.3-1.4v-0.1v-0.1
				c0.2-0.5,0.3-1,0.3-1.4v-0.1v-0.1c0.2-0.5,0.2-0.9,0.3-1.4v-0.1l0.1-0.2c0.2-0.5,0.2-0.9,0.3-1.4v-0.2v-0.1
				c0.2-0.5,0.3-1,0.3-1.4v-0.1v-0.1c0.2-0.5,0.3-1,0.3-1.4v-0.1V60c0.2-0.5,0.3-0.9,0.3-1.4v-0.1v-0.2c0.2-0.5,0.3-0.9,0.3-1.4
				v-0.1v-0.1c0.2-0.5,0.3-0.9,0.3-1.4v-0.1V55c0.2-0.5,0.3-0.9,0.3-1.4v-0.1v-0.2c0.2-0.5,0.3-0.9,0.3-1.4v-0.1v-0.2
				c0.2-0.5,0.3-0.9,0.3-1.4v-0.1v-0.2c0.2-0.5,0.3-0.9,0.3-1.4v-0.1v-0.2c0.2-0.5,0.3-0.9,0.3-1.4c0-6.7-17.1-12.3-37.3-12.3
				c-20.2,0-37.3,5.6-37.3,12.3c0,0.4,0.1,0.9,0.3,1.4v0.1v0.2c0,0.4,0.1,0.8,0.3,1.3v0.1v0.2c0,0.4,0.1,0.8,0.3,1.3v0.1v0.2
				c0,0.4,0.1,0.8,0.3,1.3v0.1v0.2c0,0.4,0.1,0.8,0.3,1.3v0.1v0.2c0,0.4,0.1,0.8,0.3,1.3v0.1v0.1c0,0.5,0.1,0.9,0.3,1.4v0.1v0.2
				c0,0.4,0.1,0.8,0.3,1.3v0.1v0.2c0,0.4,0.1,0.8,0.3,1.3v0.1v0.2c0,0.4,0.1,0.8,0.3,1.3v0.1v0.2c0,0.4,0.1,0.9,0.3,1.4l0.1,0.2
				L-125.8,65.2z"/>
		</g>
		<g class="st1">
			<path class="st2" d="M-54.5,48.4c0.2-0.5,0.3-1.1,0.3-1.6c0-7.2-17-13.1-38.1-13.1c-0.8,0-1.7,0-2.5,0c19.8,0.4,35.6,6.1,35.6,13
				c0,0.5-0.1,1.1-0.3,1.6c0,0,0,0,0,0.1c0,0.5-0.1,1.1-0.3,1.6c0,0,0,0,0,0.1c0,0.6-0.1,1.1-0.3,1.6l0,0c0,0.6-0.1,1.1-0.3,1.6l0,0
				c0,0.6-0.1,1.1-0.3,1.6l0,0c0,0.6-0.1,1.1-0.3,1.6l0,0c0,0.6-0.1,1.1-0.3,1.6l0,0c0,0.6-0.1,1.1-0.3,1.7l0,0
				c0,0.6-0.1,1.1-0.3,1.7l0,0c0,0.6-0.1,1.1-0.3,1.7l0,0c0,0.6-0.1,1.1-0.3,1.7l0,0c0,0.6-0.1,1.1-0.3,1.7c0,0.6-0.1,1.1-0.3,1.7
				c0,0.6-0.1,1.1-0.3,1.7c0,0.6-0.1,1.1-0.3,1.7c0,0.6-0.1,1.1-0.3,1.7c0,0.6-0.1,1.1-0.3,1.7c0,0.6-0.1,1.1-0.3,1.7
				c0,0.6-0.1,1.1-0.3,1.7c0,0.6-0.1,1.1-0.3,1.7c0,0.6-0.1,1.1-0.3,1.7c0,0.6-0.1,1.1-0.3,1.7c0,0.6-0.1,1.1-0.3,1.7
				c0,0.6-0.1,1.1-0.3,1.7c0,0.6-0.1,1.1-0.3,1.7c0,0.6-0.1,1.1-0.3,1.7c0,0.6-0.1,1.1-0.3,1.7c0,0.6-0.1,1.1-0.3,1.7
				c0,0.6-0.1,1.1-0.3,1.7c0,0.6-0.1,1.1-0.3,1.7c0,0.6-0.1,1.1-0.3,1.7c0,0.6-0.1,1.1-0.3,1.7c0,0.6-0.1,1.1-0.3,1.7
				c0,0.6-0.1,1.1-0.3,1.7c-0.3,6.7-11.4,12.2-25.5,12.8c0.8,0,1.7,0.1,2.5,0.1c15.3,0,27.7-5.7,28-12.8c0.2-0.6,0.3-1.1,0.3-1.7
				c0.2-0.6,0.3-1.1,0.3-1.7c0.2-0.6,0.3-1.1,0.3-1.7c0.2-0.6,0.3-1.1,0.3-1.7c0.2-0.6,0.3-1.1,0.3-1.7c0.2-0.6,0.3-1.1,0.3-1.7
				c0.2-0.6,0.3-1.1,0.3-1.7c0.2-0.6,0.3-1.1,0.3-1.7c0.2-0.6,0.3-1.1,0.3-1.7c0.2-0.6,0.3-1.1,0.3-1.7c0.2-0.6,0.3-1.1,0.3-1.7
				c0.2-0.6,0.3-1.1,0.3-1.7c0.2-0.6,0.3-1.1,0.3-1.7c0.2-0.6,0.3-1.1,0.3-1.7c0.2-0.6,0.3-1.1,0.3-1.7c0.2-0.6,0.3-1.1,0.3-1.7
				c0.2-0.6,0.3-1.1,0.3-1.7c0.2-0.6,0.3-1.1,0.3-1.7c0.2-0.6,0.3-1.1,0.3-1.7c0.2-0.6,0.3-1.1,0.3-1.7c0.2-0.6,0.3-1.1,0.3-1.7
				c0.2-0.6,0.3-1.1,0.3-1.7c0.2-0.5,0.3-1.1,0.3-1.7l0,0c0.2-0.5,0.3-1.1,0.3-1.7l0,0c0.2-0.5,0.3-1.1,0.3-1.7l0,0
				c0.2-0.5,0.3-1.1,0.3-1.7l0,0c0.2-0.5,0.3-1.1,0.3-1.7l0,0c0.2-0.5,0.3-1.1,0.3-1.6l0,0c0.2-0.5,0.3-1.1,0.3-1.6l0,0
				c0.2-0.5,0.3-1.1,0.3-1.6l0,0c0.2-0.5,0.3-1.1,0.3-1.6l0,0c0.2-0.5,0.3-1.1,0.3-1.6c0,0,0,0,0-0.1C-54.6,49.5-54.4,49-54.5,48.4
				C-54.4,48.4-54.5,48.4-54.5,48.4z"/>
		</g>
		<g>
			<ellipse class="st3" cx="-91.8" cy="45.1" rx="36.7" ry="11.4"/>
			<path d="M-91.8,57.2c-21,0-37.5-5.3-37.5-12.2c0-6.8,16.5-12.1,37.5-12.1s37.5,5.3,37.5,12.1C-54.3,51.9-70.8,57.2-91.8,57.2z
				 M-91.8,34.5c-21.5,0-35.9,5.5-35.9,10.6s14.4,10.6,35.9,10.6s35.9-5.5,35.9-10.6C-55.8,39.9-70.3,34.5-91.8,34.5z"/>
		</g>
		<g>
			<path class="st4" d="M-91.8,36.6c18.7,0,34,4.3,36.4,9.9c0.2-0.5,0.3-1,0.3-1.5c0-6.3-16.4-11.4-36.7-11.4
				c-20.3,0-36.7,5.1-36.7,11.4c0,0.5,0.1,1,0.3,1.5C-125.8,41-110.4,36.6-91.8,36.6z"/>
			<path d="M-55.4,48.5l-0.7-1.7c-2.5-5.9-20.1-9.4-35.7-9.4s-33.2,3.5-35.7,9.4l-0.7,1.7l-0.7-1.7c-0.2-0.6-0.4-1.2-0.4-1.8
				c0-6.8,16.5-12.1,37.5-12.1s37.5,5.3,37.5,12.1c0,0.6-0.1,1.2-0.4,1.8L-55.4,48.5z M-91.8,35.9c16.9,0,31.2,3.5,35.8,8.5
				c-1.2-4.9-15.3-9.9-35.8-9.9s-34.6,5-35.8,9.9C-122.9,39.4-108.7,35.9-91.8,35.9z"/>
		</g>
		<g>
			
				<ellipse transform="matrix(0.9752 -0.2213 0.2213 0.9752 -17.6319 -24.2666)" class="st5" cx="-117.1" cy="66.6" rx="5" ry="8.5"/>
			<path d="M-115.9,75.7c-3,0-5.9-3.4-6.9-8c-0.7-3.2-0.3-6.2,1-8.2c0.7-1.1,1.7-1.7,2.8-1.9c3.2-0.6,6.5,2.9,7.6,8
				c0.7,3.2,0.3,6.2-1,8.2c-0.7,1.1-1.7,1.7-2.8,1.9C-115.4,75.6-115.6,75.7-115.9,75.7z M-118.3,59c-0.1,0-0.3,0-0.4,0
				c-0.7,0.1-1.3,0.5-1.8,1.3c-1.1,1.6-1.4,4.3-0.8,7c0.9,4.1,3.5,7.2,5.8,6.8c0.7-0.1,1.3-0.6,1.8-1.3c1.1-1.6,1.4-4.3,0.8-7l0,0
				C-113.7,62-116.1,59-118.3,59z"/>
		</g>
	</g>
	<g>
		<g>
			<path class="st6" d="M-90,43.1c0.8-0.2,1.3,1.2,2.1,1c0.8-0.2,0.4-1.7,1.3-2c0.8-0.2,1.3,1.2,2.1,1c0.8-0.2,0.4-1.7,1.3-2
				c0.8-0.2,1.3,1.2,2.1,1"/>
		</g>
		<g>
			<path d="M-88.1,44.5c-0.5,0-0.9-0.4-1.1-0.6c-0.3-0.3-0.5-0.5-0.7-0.4l-0.2-0.7c0.6-0.2,1.1,0.3,1.4,0.6s0.5,0.5,0.7,0.4
				s0.3-0.3,0.4-0.7c0.1-0.5,0.3-1.1,0.9-1.3s1.1,0.3,1.4,0.6s0.5,0.5,0.7,0.4s0.3-0.3,0.4-0.7c0.1-0.5,0.3-1.1,0.9-1.3
				s1.1,0.3,1.4,0.6s0.5,0.5,0.7,0.4l0.2,0.7c-0.6,0.2-1.1-0.3-1.4-0.6s-0.5-0.5-0.7-0.4s-0.3,0.3-0.4,0.7c-0.1,0.5-0.3,1.1-0.9,1.3
				s-1.1-0.3-1.4-0.6s-0.5-0.5-0.7-0.4s-0.3,0.3-0.4,0.7c-0.1,0.5-0.3,1.1-0.9,1.3C-87.9,44.5-88,44.5-88.1,44.5z"/>
		</g>
	</g>
	<g>
		<g>
			<path class="st6" d="M-78.9,46.3c0.6,0.1,0.3,1.6,0.9,1.8c0.6,0.1,0.9-1.4,1.5-1.3c0.6,0.1,0.3,1.6,0.9,1.8
				c0.6,0.1,0.9-1.4,1.5-1.3s0.3,1.6,0.9,1.8"/>
		</g>
		<g>
			<path d="M-73.1,49.4c-0.6-0.1-0.7-0.7-0.8-1.2c0-0.2-0.1-0.5-0.2-0.6c-0.1,0-0.3,0.3-0.4,0.5c-0.3,0.4-0.6,0.9-1.2,0.8
				c-0.6-0.1-0.7-0.7-0.8-1.2c0-0.2-0.1-0.5-0.2-0.6c-0.1,0-0.3,0.3-0.4,0.5c-0.3,0.4-0.6,0.9-1.2,0.8c-0.6-0.1-0.7-0.7-0.8-1.2
				c0-0.2-0.1-0.5-0.2-0.6l0.2-0.7c0.6,0.1,0.7,0.7,0.8,1.2c0,0.2,0.1,0.5,0.2,0.6c0.1,0,0.3-0.3,0.4-0.5c0.3-0.4,0.6-0.9,1.2-0.8
				c0.6,0.1,0.7,0.7,0.8,1.2c0,0.2,0.1,0.5,0.2,0.6c0.1,0,0.3-0.3,0.4-0.5c0.3-0.4,0.6-0.9,1.2-0.8c0.6,0.1,0.7,0.7,0.8,1.2
				c0,0.2,0.1,0.5,0.2,0.6L-73.1,49.4z"/>
		</g>
	</g>
	<g>
		<g>
			<path class="st6" d="M-116.6,45.5c0.6,0.1,0.3,1.6,0.9,1.8c0.6,0.1,0.9-1.4,1.5-1.3c0.6,0.1,0.3,1.6,0.9,1.8
				c0.6,0.1,0.9-1.4,1.5-1.3s0.3,1.6,0.9,1.8"/>
		</g>
		<g>
			<path d="M-110.8,48.7c-0.6-0.1-0.7-0.7-0.8-1.2c0-0.2-0.1-0.5-0.2-0.6c-0.1,0-0.3,0.3-0.4,0.5c-0.3,0.4-0.6,0.9-1.2,0.8
				c-0.6-0.1-0.7-0.7-0.8-1.2c0-0.2-0.1-0.5-0.2-0.6c-0.1,0-0.3,0.3-0.4,0.5c-0.3,0.4-0.6,0.9-1.2,0.8c-0.6-0.1-0.7-0.7-0.8-1.2
				c0-0.2-0.1-0.5-0.2-0.6l0.2-0.7c0.6,0.1,0.7,0.7,0.8,1.2c0,0.2,0.1,0.5,0.2,0.6c0.1,0,0.3-0.3,0.4-0.5c0.3-0.4,0.6-0.9,1.2-0.8
				c0.6,0.1,0.7,0.7,0.8,1.2c0,0.2,0.1,0.5,0.2,0.6c0.1,0,0.3-0.3,0.4-0.5c0.3-0.4,0.6-0.9,1.2-0.8c0.6,0.1,0.7,0.7,0.8,1.2
				c0,0.2,0.1,0.5,0.2,0.6L-110.8,48.7z"/>
		</g>
	</g>
</g>
</svg>
