<?xml version="1.0" encoding="utf-8"?>
<!-- Generator: Adobe Illustrator 22.0.1, SVG Export Plug-In . SVG Version: 6.00 Build 0)  -->
<svg version="1.1" id="Layer_1" xmlns="http://www.w3.org/2000/svg" xmlns:xlink="http://www.w3.org/1999/xlink" x="0px" y="0px"
	 viewBox="0 0 45.1 34.4" style="enable-background:new 0 0 45.1 34.4;" xml:space="preserve">
<style type="text/css">
	.st0{stroke:#000000;stroke-width:0.75;stroke-miterlimit:10;}
</style>
<g>
	<path class="st0" d="M33.4,25.1c-6.5-4.9-15.4-4.9-21.8,0c-0.3-0.5-0.7-0.9-1-1.4c7.1-5.3,16.8-5.3,23.9,0
		C34.1,24.2,33.7,24.7,33.4,25.1z"/>
	<path class="st0" d="M35.9,20.3c-7.9-6-18.9-6-26.8,0c-0.3-0.5-0.7-0.9-1-1.4c8.6-6.4,20.3-6.4,28.9,0
		C36.6,19.4,36.2,19.8,35.9,20.3z"/>
	<path class="st0" d="M39.6,15.4c-10.2-7.6-24.1-7.6-34.3,0C5,15,4.6,14.5,4.3,14C15.1,6,29.9,6,40.7,14C40.3,14.5,40,15,39.6,15.4z
		"/>
	<path class="st0" d="M42.8,10.6c-12-9-28.5-9-40.5,0c-0.3-0.5-0.7-0.9-1-1.4c12.6-9.5,30-9.5,42.6,0C43.4,9.7,43.1,10.1,42.8,10.6z
		"/>
	<path class="st0" d="M24.7,30.8l-1.8,1.8c-0.3,0.3-0.8,0.3-1.1,0l-1.8-1.8c-0.3-0.3-0.3-0.8,0-1.1l1.8-1.8c0.3-0.3,0.8-0.3,1.1,0
		l1.8,1.8C25,30,25,30.5,24.7,30.8z"/>
</g>
</svg>
