<?xml version="1.0" encoding="utf-8"?>
<!-- Generator: Adobe Illustrator 22.0.1, SVG Export Plug-In . SVG Version: 6.00 Build 0)  -->
<svg version="1.1" id="Layer_1" xmlns="http://www.w3.org/2000/svg" xmlns:xlink="http://www.w3.org/1999/xlink" x="0px" y="0px"
	 viewBox="0 0 145.3 154.8" style="enable-background:new 0 0 145.3 154.8;" xml:space="preserve">
<style type="text/css">
	.st0{fill:#382612;}
	.st1{fill:#FFE7BD;}
	.st2{fill:#EF7070;}
	.st3{fill:#F2A5A5;}
	.st4{fill:#91C7E2;}
</style>
<g>
	<g>
		<path class="st0" d="M68.6-151.9c0,0-50.5,10.2-58.1,71.6c-0.2,1.9-1,3.7-2.2,5.1c-5.6,6.9-8.2,32.5,25.3,38
			C34.8-37,44.8-36,46-36.3c2-0.4,4.5-1.6,4.7-5C50.6-41.2,34.8-152.1,68.6-151.9z"/>
		<path d="M45.3-35.2c-2.9,0-11.2-0.8-11.9-0.9c-18.3-3-25.2-11.8-27.9-18.6c-3.1-8.2-1.3-16.9,2-21c1.1-1.4,1.8-2.9,2-4.6
			c3.9-32.1,19.7-50.1,32.3-59.5c6.8-5.1,13.4-8.4,18.3-10.3c2.5-1.8,5.4-2.7,8.5-2.7c0,0,0.1,0,0.1,0l9.7,0l-9.5,1.9
			c-0.1,0-3.2,0.7-7.9,2.5c-0.9,0.6-1.7,1.4-2.5,2.3c-18.5,21.3-7,103.9-6.9,104.7l0,0.1l0,0.1c-0.1,3.1-2.1,5.2-5.5,5.9
			C46-35.3,45.7-35.2,45.3-35.2z M56.1-146.2c-3.9,1.9-8.5,4.5-13.1,8c-12.2,9.2-27.6,26.8-31.4,58.1c-0.3,2-1.1,4-2.4,5.6
			c-2.5,3.1-4.7,11.1-1.7,19c2.4,6.3,9,14.5,26.3,17.3c1.4,0.2,11,1.1,12,0.9c2.4-0.5,3.7-1.8,3.8-3.9c-0.2-1.6-3-22-3.6-44.6
			C45.3-116.2,48.6-136.5,56.1-146.2z"/>
	</g>
	<g>
		<path class="st1" d="M128.7-90.3c0,30.9-25.1,56-56,56s-52-25.1-52-56s21.1-56,52-56S128.7-121.3,128.7-90.3z"/>
		<path d="M72.7-33.3c-30.2,0-53-24.5-53-57s22.8-57,53-57c31.4,0,57,25.6,57,57S104.1-33.3,72.7-33.3z M72.7-145.3
			c-14.4,0-27.5,5.7-36.9,16.1c-9.1,10.1-14.1,23.9-14.1,38.9s5,28.8,14.1,38.9C45.2-41,58.2-35.3,72.7-35.3c30.3,0,55-24.7,55-55
			S103-145.3,72.7-145.3z"/>
	</g>
	<g>
		<g>
			<ellipse transform="matrix(0.1023 -0.9948 0.9948 0.1023 152.0008 -38.3411)" cx="54.8" cy="-103.4" rx="4.8" ry="4.3"/>
		</g>
		<g>
			<path d="M53.8-103.8c0,0-0.1,0-0.1,0c-4.4-0.4-5.4-6.2-5.5-6.5c-0.1-0.5,0.3-1.1,0.8-1.2c0.5-0.1,1.1,0.3,1.2,0.8
				c0,0,0.9,4.5,3.7,4.8c0.5,0.1,0.9,0.5,0.9,1.1C54.7-104.2,54.3-103.8,53.8-103.8z"/>
		</g>
	</g>
	<g>
		<g>
			<ellipse transform="matrix(0.1023 -0.9948 0.9948 0.1023 178.1913 -2.5517)" cx="87.7" cy="-100" rx="4.8" ry="4.3"/>
		</g>
		<g>
			<path d="M86.7-100.4c0,0-0.1,0-0.1,0c-4.4-0.4-5.4-6.2-5.5-6.5c-0.1-0.5,0.3-1.1,0.8-1.2c0.5-0.1,1.1,0.3,1.2,0.8
				c0,0,0.9,4.5,3.7,4.8c0.5,0.1,0.9,0.5,0.9,1.1C87.6-100.8,87.2-100.4,86.7-100.4z"/>
		</g>
	</g>
	<g>
		<ellipse transform="matrix(0.1023 -0.9948 0.9948 0.1023 125.9212 -39.5944)" class="st2" cx="41" cy="-89.6" rx="4.4" ry="8.6"/>
	</g>
	<g>
		
			<ellipse transform="matrix(0.1023 -0.9948 0.9948 0.1023 170.5704 21.5019)" class="st2" cx="97.2" cy="-83.8" rx="4.4" ry="8.6"/>
	</g>
	<g>
		<path class="st1" d="M61.8-49.3H47c-1.4-0.8-3-1.3-4.8-1.6c-1.1-0.2-2-0.6-3-1.1c-0.1-0.1-0.3-0.1-0.4-0.2c0,0,0,0,0,0l-0.1-7.3
			c0-2.5-2.8-4.2-4.9-2.9c-0.5,0.3-0.8,0.7-1,1.2L28-49.8c-4.3,1.8-7.3,5.5-7.3,12.4c0,11.1,7.9,12.1,15.9,15.1
			c3.4,1.3,6.8,0.8,9.5-1h4c1,0,1.8-1.2,1.8-2.7v-0.1c0-1.2-0.6-2.2-1.3-2.5c0,0,0-0.1,0.1-0.1h2c1.2,0,2.1-1.4,2.1-3.1v-0.1
			c0-1.7-0.9-3.1-2.1-3.1H54c1.1,0,2-1.4,2-3.1v-0.1c0-1.7-0.9-3.1-2-3.1h-1.7c-0.1-0.3-0.1-0.7-0.2-1l12.4,0c1.1,0,2.1-0.9,2.2-2
			C66.7-47.1,64.5-49.3,61.8-49.3z"/>
		<path d="M40.5-20.6c-1.4,0-2.8-0.3-4.2-0.8c-1.1-0.4-2.1-0.8-3.2-1.1c-6.9-2.4-13.4-4.6-13.4-14.9c0-6.5,2.5-10.9,7.5-13.1
			l4.5-11.1c0.3-0.7,0.8-1.3,1.4-1.7c1.3-0.8,2.8-0.8,4.1-0.1c1.4,0.8,2.3,2.2,2.3,3.8l0.1,6.7c1,0.5,1.8,0.8,2.6,1
			c1.9,0.3,3.5,0.9,4.9,1.6h14.6c1.6,0,3.1,0.6,4.2,1.8s1.7,2.6,1.6,4.2c0,1.7-1.5,3-3.2,3H56c0.6,0.7,1,1.8,1,3.1v0.1
			c0,1.7-0.7,3.1-1.7,3.7c0.4,0.7,0.6,1.5,0.6,2.5v0.1c0,2.3-1.4,4.1-3.1,4.1h0c0.2,0.5,0.3,1.1,0.3,1.7c0,2.1-1.2,3.7-2.8,3.7h-3.7
			C44.7-21.2,42.6-20.6,40.5-20.6z M35.3-61.9c-0.4,0-0.7,0.1-1.1,0.3c-0.3,0.2-0.5,0.4-0.6,0.7l-4.7,11.5c-0.1,0.2-0.3,0.4-0.5,0.5
			c-4.5,1.9-6.7,5.6-6.7,11.5c0,8.9,5.3,10.7,12.1,13c1.1,0.4,2.1,0.7,3.2,1.1c3,1.1,6.1,0.8,8.6-0.9c0.2-0.1,0.4-0.2,0.6-0.2h4
			c0.3,0,0.8-0.7,0.8-1.7c0-0.9-0.4-1.6-0.7-1.7c-0.3-0.1-0.5-0.3-0.6-0.6c-0.1-0.3-0.1-0.5,0-0.8c0.2-0.3,0.6-0.7,1-0.7h2
			c0.5,0,1.1-0.9,1.1-2.1v-0.1c0-1.2-0.6-2.1-1.1-2.1c-0.6,0-1-0.4-1-1s0.4-1,1-1H54c0.4,0,1-0.8,1-2.1v-0.1c0-1.3-0.6-2.1-1-2.1
			h-1.7c-0.5,0-0.9-0.3-1-0.8c-0.1-0.3-0.1-0.6-0.2-0.9c-0.1-0.3,0-0.6,0.2-0.9c0.2-0.2,0.5-0.4,0.8-0.4h12.4c0.6,0,1.1-0.5,1.2-1.1
			c0-1-0.4-2-1.1-2.8c-0.7-0.8-1.7-1.2-2.8-1.2H47c-0.2,0-0.3,0-0.5-0.1c-1.2-0.7-2.7-1.2-4.5-1.5c-1.1-0.2-2.1-0.6-3.3-1.2
			c-0.1-0.1-0.2-0.1-0.3-0.2c-0.2-0.1-0.4-0.2-0.5-0.4c-0.1-0.2-0.2-0.4-0.2-0.5l-0.1-7.3c0-0.9-0.5-1.7-1.3-2.1
			C36-61.8,35.7-61.9,35.3-61.9z"/>
	</g>
	<g>
		<path class="st0" d="M65.2-158.2L65.2-158.2c6.2-4.4,18.7,0,18.8,0c0,0,0,0,0,0c48.7,4.7,53.3,56.2,53.3,56.2
			c2.1,12.2,4.1,53.7-2.1,62.3c-8.1,11.1-44,8.6-41.9-11.1s16.9-5.9,18.4-33.9S88.8-114,88.8-114c-19.3-2-18.9-13.1-18.8-13.5
			c0,0,0,0,0,0c-8,6.2-3.1,11-2.8,11.3c0,0,0,0,0,0c-12-1.3-4.8-12.3-4.3-13c0,0,0,0,0,0c-10.1,6.5-2.1,11.9-1.4,12.4c0,0,0,0,0,0
			c-15.3-1.6-9.7-17-3.4-28.2c-7.8,4.2-20.3,10.4-22.4,19.9c-2.3,10.7-9.6,14.4-13.1,15.6c-0.9,0.3-1.8-0.5-1.6-1.4
			C20.8-110.9,24.4-157.6,65.2-158.2z"/>
		<path d="M116.9-32.1c-4.2,0-8.7-0.7-12.9-2.3c-8.4-3.2-12.5-9.1-11.8-16.5c1-9.4,4.9-11.7,8.7-13.9c4.4-2.5,8.9-5.2,9.7-20
			c0.5-8.7-1.5-15.5-5.9-20.5c-6.4-7.1-15.9-7.7-16-7.7c-15.4-1.6-18.8-8.9-19.6-12.5c-1.8,1.7-2.7,3.4-2.8,5
			c-0.1,2.1,1.4,3.5,1.4,3.6l0.5,0.5l-0.6,1.3l-0.8-0.1c-1.9-0.2-3.4-0.6-4.6-1.3l-0.3,0.8l-0.8-0.1c-4.7-0.5-7.9-2.3-9.5-5.4
			c-2.4-4.6-1.1-11.8,3.8-21.4c-7.4,4-17.3,9.7-19,17.7C34-113.5,26-109.7,22.7-108.6c-0.7,0.3-1.6,0.1-2.2-0.4
			c-0.6-0.5-0.9-1.3-0.8-2.1c0-0.4,4.1-47.3,45.1-48.2c5.9-3.9,16.2-1,19.3,0c25.5,2.5,38.9,17.9,45.6,30.4
			c7.2,13.5,8.4,26.2,8.5,26.7c2,11.6,4.4,53.8-2.3,62.9C132.9-35,125.4-32.1,116.9-32.1z M69.8-128.7l1.1,0.6l0,0.6
			c0,0.4-0.4,10.6,17.9,12.5c0.4,0,10.3,0.6,17.3,8.3c4.8,5.3,7,12.7,6.5,21.9c-0.9,15.9-6.1,18.9-10.7,21.6
			c-3.7,2.1-6.8,4-7.7,12.4c-0.9,8.7,6.2,12.8,10.5,14.4c10.7,4.1,25.1,2.2,29.6-4c6-8.2,4-49.6,1.9-61.5c0-0.2-1.2-13-8.3-26.1
			c-9.4-17.5-24.3-27.4-44.1-29.3l-0.3-0.1c-2.1-0.7-12.6-3.8-17.8-0.1l-0.3,0.2l-0.3,0c-39.5,0.6-43.4,45.9-43.4,46.4
			c0,0.2,0,0.3,0.1,0.3c0,0,0.1,0.1,0.2,0c3.7-1.2,10.3-4.8,12.4-14.9c2.1-9.5,13.8-15.8,21.6-19.9l4.3-2.3l-1.7,3
			c-5.7,10.3-7.6,18-5.3,22.4c0.9,1.7,2.4,2.9,4.6,3.6c-0.8-1-1.4-2.4-1.4-4c0-2.7,1.9-5.2,5.5-7.6l0.7-0.5l1.1,1.2l-0.5,0.7
			c-0.1,0.2-3.5,5.3-2,8.6c0.5,1.1,1.7,2,3.4,2.4c-0.4-0.8-0.6-1.8-0.6-3c0.1-2.6,1.8-5.2,5-7.7L69.8-128.7z M59.8-125.3
			c-0.7,1-1.1,1.9-1.1,2.9c0,0.9,0.3,1.6,0.7,2.3C58.9-121.9,59.2-123.7,59.8-125.3z"/>
	</g>
	<g>
		<g>
			<path class="st1" d="M117.8-50.3H103c-2.6-1.5-6-2-9.8-2c-8.8,0-16.5,2.8-16.5,13.9c0,11.1,7.9,12.1,15.9,15.1
				c8.3,3.1,16-4,16-15.1c0-1.9-0.2-3.5-0.6-4.9h12.4c1.2,0,2.2-1,2.2-2.2C122.7-48.2,120.5-50.3,117.8-50.3z"/>
			<path d="M96.6-21.6c-1.4,0-2.8-0.3-4.2-0.8c-1.1-0.4-2.1-0.8-3.2-1.1c-6.9-2.4-13.4-4.6-13.4-14.9c0-9.9,5.9-14.9,17.5-14.9
				c4.2,0,7.5,0.7,10.1,2h14.6c3.2,0,5.8,2.6,5.8,5.8c0,1.7-1.4,3.2-3.2,3.2h-11.2c0.2,1.2,0.3,2.5,0.3,3.9c0,6.4-2.5,11.9-6.7,14.8
				C101-22.3,98.8-21.6,96.6-21.6z M93.2-51.3c-10.6,0-15.5,4.1-15.5,12.9c0,8.9,5.3,10.7,12.1,13c1.1,0.4,2.1,0.7,3.2,1.1
				c3.1,1.2,6.2,0.8,8.8-1c3.6-2.5,5.8-7.4,5.8-13.1c0-1.7-0.2-3.2-0.5-4.7c-0.1-0.3,0-0.6,0.2-0.9c0.2-0.2,0.5-0.4,0.8-0.4h12.4
				c0.6,0,1.2-0.5,1.2-1.2c0-2.1-1.7-3.8-3.8-3.8H103c-0.2,0-0.3,0-0.5-0.1C100.3-50.7,97.2-51.3,93.2-51.3z"/>
		</g>
		<g>
			<path class="st1" d="M98.4-42.3h9.6c1.1,0,2,1.4,2,3.1v0.1c0,1.7-0.9,3.1-2,3.1h-9.5c-0.7,0-1.4-0.6-1.7-1.6l0-0.1
				C96-39.8,96.9-42.3,98.4-42.3z"/>
			<path d="M108-35h-9.5c-1.1,0-2.2-0.8-2.7-2.2l0-0.1c-0.6-1.6-0.4-3.5,0.5-4.7c0.6-0.8,1.3-1.2,2.1-1.2h9.6c1.7,0,3,1.8,3,4.1v0.1
				C111-36.8,109.7-35,108-35z M98.4-41.3c-0.2,0-0.4,0.2-0.5,0.4c-0.4,0.6-0.7,1.8-0.3,2.9l0,0.1c0.2,0.6,0.6,0.9,0.8,0.9h9.5
				c0.4,0,1-0.8,1-2.1v-0.1c0-1.3-0.6-2.1-1-2.1H98.4z"/>
		</g>
		<g>
			<path class="st1" d="M80.4-46.9l6.3-15.3c0.2-0.5,0.6-0.9,1-1.2c2.1-1.3,4.9,0.4,4.9,2.9l0.1,7.3c0,0,0,0,0,0c2.9,1.2,3.3,5,1,7
				l-3,2.4"/>
			<path d="M90.8-42.8c-0.3,0-0.6-0.1-0.8-0.4c-0.3-0.4-0.3-1.1,0.1-1.4l3-2.4c0.9-0.7,1.3-1.8,1.1-2.9c-0.2-1.1-0.8-1.9-1.8-2.3
				c-0.2-0.1-0.3-0.2-0.4-0.3c-0.1-0.2-0.2-0.4-0.2-0.6l-0.1-7.3c0-0.9-0.5-1.7-1.3-2.1c-0.7-0.4-1.5-0.4-2.1,0
				c-0.3,0.2-0.5,0.4-0.6,0.7l-6.3,15.3C81.1-46,80.5-45.8,80-46c-0.5-0.2-0.8-0.8-0.5-1.3l6.3-15.3c0.3-0.7,0.8-1.3,1.4-1.7
				c1.3-0.8,2.8-0.8,4.1-0.1c1.4,0.8,2.3,2.2,2.3,3.8l0.1,6.7c1.3,0.7,2.2,2.1,2.5,3.6c0.3,1.8-0.4,3.6-1.8,4.8l-3,2.4
				C91.2-42.9,91-42.8,90.8-42.8z"/>
		</g>
		<g>
			<path class="st1" d="M96.6-36h10.2c1.2,0,2.1,1.4,2.1,3.1v0.1c0,1.7-0.9,3.1-2.1,3.1H96.6c-0.8,0-1.5-0.6-1.8-1.6l0-0.1
				C93.9-33.5,95-36,96.6-36z"/>
			<path d="M106.8-28.7H96.6c-1.2,0-2.2-0.8-2.8-2.2l0-0.1c-0.6-1.5-0.4-3.4,0.5-4.7c0.6-0.9,1.4-1.3,2.3-1.3h10.2
				c1.7,0,3.1,1.8,3.1,4.1v0.1C109.9-30.5,108.5-28.7,106.8-28.7z M96.6-35c-0.3,0-0.5,0.3-0.7,0.5c-0.4,0.6-0.6,1.8-0.2,2.8l0,0.1
				c0.2,0.6,0.6,0.9,0.9,0.9h10.1c0.5,0,1.1-0.9,1.1-2.1v-0.1c0-1.2-0.6-2.1-1.1-2.1H96.6z"/>
		</g>
		<g>
			<path class="st1" d="M95.3-29.7h8.9c1,0,1.8,1.2,1.8,2.7v0.1c0,1.5-0.8,2.7-1.8,2.7h-8.9c-0.7,0-1.3-0.5-1.6-1.3l0-0.1
				C93-27.5,93.9-29.7,95.3-29.7z"/>
			<path d="M104.2-23.3h-8.9c-1.1,0-2-0.8-2.5-2l0-0.1c-0.5-1.4-0.4-3,0.4-4.1c0.5-0.8,1.3-1.2,2.1-1.2h8.9c1.6,0,2.8,1.6,2.8,3.7
				C107.1-24.9,105.8-23.3,104.2-23.3z M95.3-28.7c-0.2,0-0.4,0.2-0.5,0.4c-0.3,0.5-0.5,1.4-0.2,2.2l0,0.1c0.2,0.5,0.5,0.7,0.7,0.7
				h8.9c0.3,0,0.8-0.7,0.8-1.7c0-1.1-0.5-1.7-0.8-1.7H95.3z"/>
		</g>
	</g>
	<g>
		<ellipse class="st3" cx="66.2" cy="-69.3" rx="8.5" ry="12"/>
		<path d="M66.2-56.3c-5.2,0-9.5-5.8-9.5-13s4.3-13,9.5-13s9.5,5.8,9.5,13S71.4-56.3,66.2-56.3z M66.2-80.3c-4.1,0-7.5,4.9-7.5,11
			s3.4,11,7.5,11s7.5-4.9,7.5-11S70.3-80.3,66.2-80.3z"/>
	</g>
</g>
<g>
	<g>
		<path class="st0" d="M214-151.6c0,0-50.5,10.2-58.1,71.6c-0.2,1.9-1,3.7-2.2,5.1c-5.6,6.9-8.2,32.5,25.3,38
			c1.2,0.2,11.2,1.1,12.3,0.9c2-0.4,4.5-1.6,4.7-5C196-40.9,180.2-151.7,214-151.6z"/>
		<path d="M190.7-34.9c-2.9,0-11.2-0.8-11.9-0.9c-18.3-3-25.2-11.8-27.9-18.6c-3.1-8.2-1.3-16.9,2-21c1.1-1.4,1.8-2.9,2-4.6
			c3.9-32.1,19.7-50.1,32.3-59.5c6.8-5.1,13.4-8.4,18.3-10.3c2.5-1.8,5.4-2.7,8.5-2.7c0,0,0.1,0,0.1,0l9.7,0l-9.5,1.9
			c-0.1,0-3.2,0.7-7.9,2.5c-0.9,0.6-1.7,1.4-2.5,2.3c-18.5,21.3-7,103.9-6.9,104.7l0,0.1l0,0.1c-0.1,3.1-2.1,5.2-5.5,5.9
			C191.3-34.9,191-34.9,190.7-34.9z M201.4-145.9c-3.9,1.9-8.5,4.5-13.1,8c-12.2,9.2-27.6,26.8-31.4,58.1c-0.3,2-1.1,4-2.4,5.6
			c-2.5,3.1-4.7,11.1-1.7,19c2.4,6.3,9,14.5,26.3,17.3c1.4,0.2,11,1.1,12,0.9c2.4-0.5,3.7-1.8,3.8-3.9c-0.2-1.6-3-22-3.6-44.6
			C190.6-115.8,194-136.2,201.4-145.9z"/>
	</g>
	<g>
		<path class="st1" d="M274-90c0,30.9-25.1,56-56,56s-52-25.1-52-56s21.1-56,52-56S274-120.9,274-90z"/>
		<path d="M218-33c-30.2,0-53-24.5-53-57s22.8-57,53-57c31.4,0,57,25.6,57,57S249.4-33,218-33z M218-145c-14.4,0-27.5,5.7-36.9,16.1
			C172-118.8,167-105,167-90s5,28.8,14.1,38.9C190.5-40.7,203.6-35,218-35c30.3,0,55-24.7,55-55S248.3-145,218-145z"/>
	</g>
	<g>
		
			<ellipse transform="matrix(0.1023 -0.9948 0.9948 0.1023 256.0618 105.2764)" class="st2" cx="186.4" cy="-89.2" rx="4.4" ry="8.6"/>
	</g>
	<g>
		
			<ellipse transform="matrix(0.1023 -0.9948 0.9948 0.1023 300.7109 166.3727)" class="st2" cx="242.5" cy="-83.4" rx="4.4" ry="8.6"/>
	</g>
	<g>
		<g>
			<g>
				<path d="M232.9-93.6c-0.3,0-0.5-0.1-0.7-0.3l-7.2-8.1c-0.4-0.4-0.3-1,0.1-1.4c0.4-0.4,1-0.3,1.4,0.1l7.2,8.1
					c0.4,0.4,0.3,1-0.1,1.4C233.3-93.7,233.1-93.6,232.9-93.6z"/>
			</g>
			<g>
				<path d="M225.2-94c-0.3,0-0.5-0.1-0.7-0.3c-0.4-0.4-0.3-1,0.1-1.4l8.1-7.2c0.4-0.4,1-0.3,1.4,0.1c0.4,0.4,0.3,1-0.1,1.4
					l-8.1,7.2C225.7-94.1,225.5-94,225.2-94z"/>
			</g>
		</g>
		<g>
			<g>
				<path d="M202.3-95.3c-0.3,0-0.5-0.1-0.7-0.3l-7.2-8.1c-0.4-0.4-0.3-1,0.1-1.4c0.4-0.4,1-0.3,1.4,0.1l7.2,8.1
					c0.4,0.4,0.3,1-0.1,1.4C202.8-95.4,202.6-95.3,202.3-95.3z"/>
			</g>
			<g>
				<path d="M194.7-95.8c-0.3,0-0.5-0.1-0.7-0.3c-0.4-0.4-0.3-1,0.1-1.4l8.1-7.2c0.4-0.4,1-0.3,1.4,0.1c0.4,0.4,0.3,1-0.1,1.4
					l-8.1,7.2C195.2-95.9,194.9-95.8,194.7-95.8z"/>
			</g>
		</g>
	</g>
	<g>
		<path class="st0" d="M210.5-157.9L210.5-157.9c6.2-4.4,18.7,0,18.8,0c0,0,0,0,0,0c48.7,4.7,53.3,56.2,53.3,56.2
			c2.1,12.2,4.1,53.7-2.1,62.3c-8.1,11.1-44,8.6-41.9-11.1s16.9-5.9,18.4-33.9s-22.9-29.2-22.9-29.2c-19.3-2-18.9-13.1-18.8-13.5
			c0,0,0,0,0,0c-8,6.2-3.1,11-2.8,11.3c0,0,0,0,0,0c-12-1.3-4.8-12.3-4.3-13c0,0,0,0,0,0c-10.1,6.5-2.1,11.9-1.4,12.4c0,0,0,0,0,0
			c-15.3-1.6-9.7-17-3.4-28.2c-7.8,4.2-20.3,10.4-22.4,19.9c-2.3,10.7-9.6,14.4-13.1,15.6c-0.9,0.3-1.8-0.5-1.6-1.4
			C166.1-110.6,169.7-157.3,210.5-157.9z"/>
		<path d="M262.2-31.8c-4.2,0-8.7-0.7-12.9-2.3c-8.4-3.2-12.5-9.1-11.8-16.5c1-9.4,4.9-11.7,8.7-13.9c4.4-2.5,8.9-5.2,9.7-20
			c0.5-8.7-1.5-15.6-6-20.5c-6.4-7.1-15.9-7.7-16-7.7c-15.4-1.6-18.8-8.9-19.6-12.5c-1.8,1.7-2.7,3.4-2.8,5
			c-0.1,2.1,1.4,3.5,1.4,3.6l0.5,0.5l-0.6,1.3l-0.8-0.1c-1.9-0.2-3.4-0.6-4.6-1.3l-0.3,0.8l-0.8-0.1c-4.7-0.5-7.9-2.3-9.5-5.4
			c-2.4-4.6-1.1-11.8,3.8-21.4c-7.4,4-17.3,9.7-19,17.7c-2.5,11.4-10.5,15.2-13.8,16.3c-0.7,0.3-1.6,0.1-2.2-0.4
			c-0.6-0.5-0.9-1.3-0.8-2.1c0-0.4,4.1-47.3,45.1-48.2c5.9-3.9,16.2-1,19.3,0c25.5,2.5,38.9,17.9,45.6,30.4
			c7.2,13.5,8.4,26.2,8.5,26.7c2,11.6,4.4,53.8-2.3,62.9C278.2-34.7,270.7-31.8,262.2-31.8z M215.2-128.4l1.1,0.6l0,0.6
			c0,0.4-0.4,10.6,17.9,12.5c0.4,0,10.3,0.6,17.3,8.3c4.8,5.3,7,12.7,6.5,21.9c-0.9,15.9-6.1,18.9-10.7,21.6
			c-3.7,2.1-6.8,4-7.7,12.4c-0.9,8.7,6.2,12.8,10.5,14.4c10.7,4.1,25.1,2.2,29.6-4c6-8.2,4-49.6,1.9-61.5c0-0.2-1.2-13-8.3-26.1
			c-9.4-17.5-24.3-27.4-44.1-29.3l-0.3-0.1c-2.1-0.7-12.6-3.8-17.8-0.1l-0.3,0.2l-0.3,0c-39.5,0.6-43.4,45.9-43.4,46.4
			c0,0.2,0,0.3,0.1,0.3c0,0,0.1,0.1,0.2,0c3.7-1.2,10.3-4.8,12.4-14.9c2.1-9.5,13.8-15.8,21.6-19.9l4.3-2.3l-1.7,3
			c-5.7,10.3-7.6,18-5.3,22.4c0.9,1.7,2.4,2.9,4.6,3.6c-0.8-1-1.4-2.4-1.4-4c0-2.7,1.9-5.2,5.5-7.6l0.7-0.5l1.1,1.2l-0.5,0.7
			c-0.1,0.2-3.5,5.3-2,8.6c0.5,1.1,1.7,2,3.4,2.4c-0.4-0.8-0.6-1.8-0.6-3c0.1-2.6,1.8-5.2,5-7.7L215.2-128.4z M205.1-125
			c-0.7,1-1.1,1.9-1.1,2.9c0,0.9,0.3,1.6,0.7,2.3C204.3-121.5,204.6-123.4,205.1-125z"/>
	</g>
	<g>
		<path class="st3" d="M220-69c0,6.6-3.3,2-8,2s-9,4.6-9-2s3.8-12,8.5-12S220-75.6,220-69z"/>
		<path d="M218.4-64.4c-0.8,0-1.7-0.3-2.6-0.7c-1.2-0.4-2.5-0.9-3.9-0.9c-1.4,0-2.8,0.5-4,0.9c-1.7,0.6-3.4,1.1-4.6,0.2
			c-0.9-0.7-1.4-2-1.4-4.1c0-7.2,4.3-13,9.5-13s9.5,5.8,9.5,13c0,2.3-0.4,3.6-1.3,4.2C219.3-64.5,218.9-64.4,218.4-64.4z M212-68
			c1.8,0,3.3,0.6,4.6,1c0.7,0.2,1.8,0.7,2,0.5c0,0,0.4-0.3,0.4-2.5c0-6.1-3.4-11-7.5-11s-7.5,4.9-7.5,11c0,1.9,0.4,2.4,0.5,2.5
			c0.4,0.3,1.7-0.1,2.8-0.5C208.7-67.5,210.3-68,212-68z"/>
	</g>
	<g>
		<path class="st4" d="M192.4-94.9c0.3-0.9,1.5-0.7,1.6,0.2c0.8,9.6,2.9,32.6,3.6,39.2c0.6,5,3,21.4-9,15.6
			C178.7-44.8,188.9-82.9,192.4-94.9z"/>
		<path d="M193-37.8c-1.4,0-3-0.4-4.9-1.3c-10.4-5-1.2-40.9,3.2-56.1l0,0c0.2-0.9,1-1.4,1.9-1.3c0.9,0.1,1.6,0.8,1.6,1.7
			c0.8,9.6,2.9,32.6,3.6,39.1l0.1,0.6c0.5,4.4,1.6,13.5-2.5,16.4C195.3-38.1,194.2-37.8,193-37.8z M193.1-93.7
			c-6.5,22.4-11.3,49.3-4,52.8c2.7,1.3,4.7,1.5,5.9,0.6c3.2-2.3,2.1-11.2,1.7-14.6l-0.1-0.6C195.9-61.8,193.9-83.6,193.1-93.7z"/>
	</g>
	<g>
		<path class="st4" d="M232.2-91.9c-0.3-0.9-1.5-0.7-1.6,0.2c-0.8,9.6-2.9,32.6-3.6,39.2c-0.6,5-3,21.4,9,15.6
			C245.9-41.8,235.7-79.9,232.2-91.9z"/>
		<path d="M231.6-34.8c-1.2,0-2.2-0.3-3.1-0.9c-4.2-3-3.1-12.1-2.5-16.4l0.1-0.6c0.8-6.5,2.8-29.5,3.6-39.1c0.1-0.9,0.7-1.6,1.6-1.7
			c0.9-0.1,1.7,0.4,1.9,1.3v0c4.4,15.2,13.6,51.1,3.2,56.1C234.6-35.2,233-34.8,231.6-34.8z M231.5-90.7
			c-0.9,10.1-2.8,31.9-3.6,38.2l-0.1,0.6c-0.4,3.4-1.5,12.3,1.7,14.6c1.3,0.9,3.3,0.7,5.9-0.6C242.9-41.4,238-68.3,231.5-90.7z
			 M231.3-91.6L231.3-91.6C231.3-91.6,231.3-91.6,231.3-91.6L231.3-91.6z"/>
	</g>
	<g>
		<path class="st1" d="M213.8-41.2c-0.6-0.7-1.2-1.4-1.9-2l8.9-7.2c2.1-1.7,2.4-4.7,0.7-6.7c-1.7-2.1-4.7-2.4-6.7-0.7l-13.6,10.9
			c0,0,0,0-0.1,0.1c-3.5,0.4-6.9,2.1-10,4.6c-7.1,5.7-9.6,13.6-3,21.7s15.4,8.1,22.5,2.4C217.7-23.8,220.4-33.1,213.8-41.2z"/>
		<path d="M200.2-13.1c-4.7,0-9.3-2.3-12.9-6.8c-3.3-4.1-4.6-8.4-3.8-12.6c0.7-3.8,3.1-7.4,7-10.5c3.3-2.7,6.8-4.3,10.2-4.8
			l13.4-10.8c2.5-2,6.1-1.6,8.1,0.9s1.6,6.1-0.9,8.1l-8,6.5c0.4,0.4,0.8,0.8,1.1,1.3l0,0c5.3,6.6,6.3,16.7-3.3,24.5
			C207.7-14.5,203.9-13.1,200.2-13.1z M201.9-46.1C201.9-46.1,201.9-46.1,201.9-46.1c-0.2,0.2-0.4,0.3-0.6,0.3
			c-3.1,0.4-6.4,1.9-9.5,4.4c-3.5,2.8-5.7,6.1-6.3,9.4c-0.7,3.6,0.5,7.3,3.4,11c5.8,7.2,13.9,8.1,21.1,2.3c6.2-5,9.5-13.7,3-21.7
			l0,0c-0.5-0.6-1.1-1.2-1.8-1.9c-0.2-0.2-0.3-0.5-0.3-0.8c0-0.3,0.1-0.6,0.4-0.7l8.9-7.2c1.6-1.3,1.9-3.7,0.6-5.3
			c-1.3-1.6-3.7-1.9-5.3-0.6L201.9-46.1z"/>
	</g>
	<g>
		<path class="st1" d="M206.3-40.9c0.7-0.7,1.4-1.2,2.1-1.8l-8.1-8.1c-1.9-1.9-1.9-4.9,0-6.8c1.9-1.9,4.9-1.9,6.8,0l12.3,12.3
			c0,0,0,0,0.1,0.1c3.4,0.8,6.7,2.8,9.5,5.6c6.4,6.4,8.1,14.5,0.7,21.9c-7.4,7.4-16.2,6.4-22.6,0C200.6-24,198.9-33.4,206.3-40.9z"
			/>
		<path d="M218.4-11.3c-4.2,0-8.4-1.8-12-5.5c-3.5-3.5-5.5-7.7-5.8-11.9c-0.3-4.7,1.4-9.1,5.1-12.8c0.4-0.4,0.8-0.8,1.3-1.1
			l-7.3-7.3c-2.3-2.3-2.3-5.9,0-8.2c2.3-2.3,5.9-2.3,8.2,0L220-46c3.3,0.8,6.7,2.9,9.7,5.8c7.6,7.6,7.9,16.1,0.7,23.3
			C226.7-13.2,222.6-11.3,218.4-11.3z M203.7-57.9c-1,0-1.9,0.4-2.7,1.1c-1.5,1.5-1.5,3.9,0,5.4l8.1,8.1c0.2,0.2,0.3,0.5,0.3,0.8
			c0,0.3-0.2,0.6-0.4,0.7c-0.8,0.6-1.4,1.1-2,1.7c-3.3,3.3-4.9,7.2-4.6,11.3c0.3,3.8,2.1,7.5,5.3,10.7c6.5,6.5,14.7,6.5,21.2,0
			c8.6-8.6,3.3-16.5-0.7-20.5c-2.8-2.8-5.9-4.7-9-5.4c-0.2,0-0.4-0.1-0.5-0.3c0,0,0-0.1-0.1-0.1l-12.3-12.3
			C205.7-57.5,204.7-57.9,203.7-57.9z"/>
	</g>
</g>
<g>
	<g>
		<path class="st0" d="M69,12.4c0,0-50.5,10.2-58.1,71.6c-0.2,1.9-1,3.7-2.2,5.1c-5.6,6.9-8.2,32.5,25.3,38
			c1.2,0.2,11.2,1.1,12.3,0.9c2-0.4,4.5-1.6,4.7-5C51,123.1,35.2,12.3,69,12.4z"/>
		<path d="M45.7,129.1c-2.9,0-11.2-0.8-11.9-0.9c-18.3-3-25.2-11.8-27.9-18.6c-3.1-8.2-1.3-16.9,2-21c1.1-1.4,1.8-2.9,2-4.6
			c3.9-32.1,19.7-50.1,32.3-59.5c6.8-5.1,13.4-8.4,18.3-10.3c2.5-1.8,5.4-2.7,8.5-2.7c0,0,0.1,0,0.1,0l9.7,0l-9.5,1.9
			c-0.1,0-3.2,0.7-7.9,2.5c-0.9,0.6-1.7,1.4-2.5,2.3C40.3,39.5,51.8,122.1,52,123l0,0.1l0,0.1c-0.1,3.1-2.1,5.2-5.5,5.9
			C46.3,129.1,46,129.1,45.7,129.1z M56.4,18.1c-3.9,1.9-8.5,4.5-13.1,8c-12.2,9.2-27.6,26.8-31.4,58.1c-0.3,2-1.1,4-2.4,5.6
			c-2.5,3.1-4.7,11.1-1.7,19c2.4,6.3,9,14.5,26.3,17.3c1.4,0.2,11,1.1,12,0.9c2.4-0.5,3.7-1.8,3.8-3.9c-0.2-1.6-3-22-3.6-44.6
			C45.6,48.2,49,27.8,56.4,18.1z"/>
	</g>
	<g>
		<path class="st1" d="M129,74c0,30.9-25.1,56-56,56s-52-25.1-52-56s21.1-56,52-56S129,43.1,129,74z"/>
		<path d="M73,131c-30.2,0-53-24.5-53-57s22.8-57,53-57c31.4,0,57,25.6,57,57S104.4,131,73,131z M73,19c-14.4,0-27.5,5.7-36.9,16.1
			C27,45.2,22,59,22,74s5,28.8,14.1,38.9C45.5,123.3,58.6,129,73,129c30.3,0,55-24.7,55-55S103.3,19,73,19z"/>
	</g>
	<g>
		
			<ellipse transform="matrix(0.1023 -0.9948 0.9948 0.1023 -37.2515 108.2665)" class="st2" cx="41.4" cy="74.8" rx="4.4" ry="8.6"/>
	</g>
	<g>
		<ellipse transform="matrix(0.1023 -0.9948 0.9948 0.1023 7.3977 169.3628)" class="st2" cx="97.5" cy="80.6" rx="4.4" ry="8.6"/>
	</g>
	<g>
		<path class="st4" d="M87.2,72.1c-0.3-0.9-1.5-0.7-1.6,0.2c-0.8,9.6-2.9,32.6-3.6,39.2c-0.6,5-3,21.4,9,15.6
			C100.9,122.2,90.7,84.1,87.2,72.1z"/>
		<path d="M86.6,129.2c-1.2,0-2.2-0.3-3.1-0.9c-4.2-3-3.1-12.1-2.5-16.4l0.1-0.6c0.8-6.5,2.8-29.5,3.6-39.1c0.1-0.9,0.7-1.6,1.6-1.7
			c0.9-0.1,1.7,0.4,1.9,1.3v0c4.4,15.2,13.6,51.1,3.2,56.1C89.6,128.8,88,129.2,86.6,129.2z M86.5,73.3c-0.9,10.1-2.8,31.9-3.6,38.2
			l-0.1,0.6c-0.4,3.4-1.5,12.3,1.7,14.6c1.3,0.9,3.3,0.7,5.9-0.6C97.9,122.6,93,95.7,86.5,73.3z M86.3,72.4L86.3,72.4
			C86.3,72.4,86.3,72.4,86.3,72.4L86.3,72.4z"/>
	</g>
	<g>
		<g>
			<g>
				<path d="M87.9,70.4c-0.3,0-0.5-0.1-0.7-0.3L79.9,62c-0.4-0.4-0.3-1,0.1-1.4c0.4-0.4,1-0.3,1.4,0.1l7.2,8.1
					c0.4,0.4,0.3,1-0.1,1.4C88.3,70.3,88.1,70.4,87.9,70.4z"/>
			</g>
			<g>
				<path d="M80.2,70c-0.3,0-0.5-0.1-0.7-0.3c-0.4-0.4-0.3-1,0.1-1.4l8.1-7.2c0.4-0.4,1-0.3,1.4,0.1c0.4,0.4,0.3,1-0.1,1.4l-8.1,7.2
					C80.7,69.9,80.5,70,80.2,70z"/>
			</g>
		</g>
		<g>
			<g>
				<path d="M57.3,68.7c-0.3,0-0.5-0.1-0.7-0.3l-7.2-8.1c-0.4-0.4-0.3-1,0.1-1.4c0.4-0.4,1-0.3,1.4,0.1l7.2,8.1
					c0.4,0.4,0.3,1-0.1,1.4C57.8,68.6,57.6,68.7,57.3,68.7z"/>
			</g>
			<g>
				<path d="M49.7,68.2c-0.3,0-0.5-0.1-0.7-0.3c-0.4-0.4-0.3-1,0.1-1.4l8.1-7.2c0.4-0.4,1-0.3,1.4,0.1c0.4,0.4,0.3,1-0.1,1.4
					L50.4,68C50.2,68.1,49.9,68.2,49.7,68.2z"/>
			</g>
		</g>
	</g>
	<g>
		<path class="st0" d="M65.5,6.1L65.5,6.1c6.2-4.4,18.7,0,18.8,0c0,0,0,0,0,0c48.7,4.7,53.3,56.2,53.3,56.2
			c2.1,12.2,4.1,53.7-2.1,62.3c-8.1,11.1-44,8.6-41.9-11.1c2-19.7,16.9-5.9,18.4-33.9c1.6-28-22.9-29.2-22.9-29.2
			c-19.3-2-18.9-13.1-18.8-13.5c0,0,0,0,0,0c-8,6.2-3.1,11-2.8,11.3c0,0,0,0,0,0c-12-1.3-4.8-12.3-4.3-13c0,0,0,0,0,0
			C53,41.6,61,47,61.7,47.5c0,0,0,0,0,0c-15.3-1.6-9.7-17-3.4-28.2c-7.8,4.2-20.3,10.4-22.4,19.9c-2.3,10.7-9.6,14.4-13.1,15.6
			c-0.9,0.3-1.8-0.5-1.6-1.4C21.1,53.4,24.7,6.7,65.5,6.1z"/>
		<path d="M117.2,132.2c-4.2,0-8.7-0.7-12.9-2.3c-8.4-3.2-12.5-9.1-11.8-16.5c1-9.4,4.9-11.7,8.7-13.9c4.4-2.5,8.9-5.2,9.7-20
			c0.5-8.7-1.5-15.6-6-20.5c-6.4-7.1-15.9-7.7-16-7.7c-15.4-1.6-18.8-8.9-19.6-12.5c-1.8,1.7-2.7,3.4-2.8,5
			c-0.1,2.1,1.4,3.5,1.4,3.6l0.5,0.5L68,49.2l-0.8-0.1c-1.9-0.2-3.4-0.6-4.6-1.3l-0.3,0.8l-0.8-0.1c-4.7-0.5-7.9-2.3-9.5-5.4
			c-2.4-4.6-1.1-11.8,3.8-21.4c-7.4,4-17.3,9.7-19,17.7c-2.5,11.4-10.5,15.2-13.8,16.3c-0.7,0.3-1.6,0.1-2.2-0.4
			c-0.6-0.5-0.9-1.3-0.8-2.1c0-0.4,4.1-47.3,45.1-48.2c5.9-3.9,16.2-1,19.3,0c25.5,2.5,38.9,17.9,45.6,30.4
			c7.2,13.5,8.4,26.2,8.5,26.7c2,11.6,4.4,53.8-2.3,62.9C133.2,129.3,125.7,132.2,117.2,132.2z M70.2,35.6l1.1,0.6l0,0.6
			c0,0.4-0.4,10.6,17.9,12.5c0.4,0,10.3,0.6,17.3,8.3c4.8,5.3,7,12.7,6.5,21.9c-0.9,15.9-6.1,18.9-10.7,21.6
			c-3.7,2.1-6.8,4-7.7,12.4c-0.9,8.7,6.2,12.8,10.5,14.4c10.7,4.1,25.1,2.2,29.6-4c6-8.2,4-49.6,1.9-61.5c0-0.2-1.2-13-8.3-26.1
			C118.9,18.8,104.1,9,84.3,7.1L83.9,7c-2.1-0.7-12.6-3.8-17.8-0.1l-0.3,0.2l-0.3,0C26.1,7.7,22.1,53,22.1,53.5c0,0.2,0,0.3,0.1,0.3
			c0,0,0.1,0.1,0.2,0C26.1,52.6,32.7,49,34.9,39c2.1-9.5,13.8-15.8,21.6-19.9l4.3-2.3l-1.7,3c-5.7,10.3-7.6,18-5.3,22.4
			c0.9,1.7,2.4,2.9,4.6,3.6c-0.8-1-1.4-2.4-1.4-4c0-2.7,1.9-5.2,5.5-7.6l0.7-0.5l1.1,1.2l-0.5,0.7c-0.1,0.2-3.5,5.3-2,8.6
			c0.5,1.1,1.7,2,3.4,2.4c-0.4-0.8-0.6-1.8-0.6-3c0.1-2.6,1.8-5.2,5-7.7L70.2,35.6z M60.1,39c-0.7,1-1.1,1.9-1.1,2.9
			c0,0.9,0.3,1.6,0.7,2.3C59.3,42.5,59.6,40.6,60.1,39z"/>
	</g>
	<g>
		<path class="st3" d="M75,95c0,6.6-3.3,2-8,2s-9,4.6-9-2s3.8-12,8.5-12S75,88.4,75,95z"/>
		<path d="M73.4,99.6c-0.8,0-1.7-0.3-2.6-0.7C69.7,98.5,68.4,98,67,98c-1.4,0-2.8,0.5-4,0.9c-1.7,0.6-3.4,1.1-4.6,0.2
			c-0.9-0.7-1.4-2-1.4-4.1c0-7.2,4.3-13,9.5-13S76,87.8,76,95c0,2.3-0.4,3.6-1.3,4.2C74.3,99.5,73.9,99.6,73.4,99.6z M67,96
			c1.8,0,3.3,0.6,4.6,1c0.7,0.2,1.8,0.7,2,0.5c0,0,0.4-0.3,0.4-2.5c0-6.1-3.4-11-7.5-11S59,88.9,59,95c0,1.9,0.4,2.4,0.5,2.5
			c0.4,0.3,1.7-0.1,2.8-0.5C63.7,96.5,65.3,96,67,96z"/>
	</g>
	<g>
		<path class="st4" d="M47.4,69.1c0.3-0.9,1.5-0.7,1.6,0.2c0.8,9.6,2.9,32.6,3.6,39.2c0.6,5,3,21.4-9,15.6
			C33.7,119.2,43.9,81.1,47.4,69.1z"/>
		<path d="M48,126.2c-1.4,0-3-0.4-4.9-1.3c-10.4-5-1.2-40.9,3.2-56.1l0,0c0.2-0.9,1-1.4,1.9-1.3c0.9,0.1,1.6,0.8,1.6,1.7
			c0.8,9.6,2.9,32.6,3.6,39.1l0.1,0.6c0.5,4.4,1.6,13.5-2.5,16.4C50.3,125.9,49.2,126.2,48,126.2z M48.1,70.3
			c-6.5,22.4-11.3,49.3-4,52.8c2.7,1.3,4.7,1.5,5.9,0.6c3.2-2.3,2.1-11.2,1.7-14.6l-0.1-0.6C50.9,102.2,48.9,80.4,48.1,70.3z"/>
	</g>
	<g>
		<path class="st1" d="M68.8,122.8c-0.6-0.7-1.2-1.4-1.9-2l8.9-7.2c2.1-1.7,2.4-4.7,0.7-6.7c-1.7-2.1-4.7-2.4-6.7-0.7l-13.6,10.9
			c0,0,0,0-0.1,0.1c-3.5,0.4-6.9,2.1-10,4.6c-7.1,5.7-9.6,13.6-3,21.7c6.6,8.2,15.4,8.1,22.5,2.4C72.7,140.2,75.4,130.9,68.8,122.8z
			"/>
		<path d="M55.2,150.9c-4.7,0-9.3-2.3-12.9-6.8c-3.3-4.1-4.6-8.4-3.8-12.6c0.7-3.8,3.1-7.4,7-10.5c3.3-2.7,6.8-4.3,10.2-4.8
			l13.4-10.8c2.5-2,6.1-1.6,8.1,0.9s1.6,6.1-0.9,8.1l-8,6.5c0.4,0.4,0.8,0.8,1.1,1.3l0,0c5.3,6.6,6.3,16.7-3.3,24.5
			C62.7,149.5,58.9,150.9,55.2,150.9z M56.9,117.9C56.9,117.9,56.9,117.9,56.9,117.9c-0.2,0.2-0.4,0.3-0.6,0.3
			c-3.1,0.4-6.4,1.9-9.5,4.4c-3.5,2.8-5.7,6.1-6.3,9.4c-0.7,3.6,0.5,7.3,3.4,11c5.8,7.2,13.9,8.1,21.1,2.3c6.2-5,9.5-13.7,3-21.7
			l0,0c-0.5-0.6-1.1-1.2-1.8-1.9c-0.2-0.2-0.3-0.5-0.3-0.8c0-0.3,0.1-0.6,0.4-0.7l8.9-7.2c1.6-1.3,1.9-3.7,0.6-5.3
			c-1.3-1.6-3.7-1.9-5.3-0.6L56.9,117.9z"/>
	</g>
	<g>
		<path class="st1" d="M61.3,123.1c0.7-0.7,1.4-1.2,2.1-1.8l-8.1-8.1c-1.9-1.9-1.9-4.9,0-6.8c1.9-1.9,4.9-1.9,6.8,0l12.3,12.3
			c0,0,0,0,0.1,0.1c3.4,0.8,6.7,2.8,9.5,5.6c6.4,6.4,8.1,14.5,0.7,21.9c-7.4,7.4-16.2,6.4-22.6,0C55.6,140,53.9,130.6,61.3,123.1z"
			/>
		<path d="M73.4,152.7c-4.2,0-8.4-1.8-12-5.5c-3.5-3.5-5.5-7.7-5.8-11.9c-0.3-4.7,1.4-9.1,5.1-12.8c0.4-0.4,0.8-0.8,1.3-1.1
			l-7.3-7.3c-2.3-2.3-2.3-5.9,0-8.2c2.3-2.3,5.9-2.3,8.2,0L75,118c3.3,0.8,6.7,2.9,9.7,5.8c7.6,7.6,7.9,16.1,0.7,23.3
			C81.7,150.8,77.6,152.7,73.4,152.7z M58.7,106.1c-1,0-1.9,0.4-2.7,1.1c-1.5,1.5-1.5,3.9,0,5.4l8.1,8.1c0.2,0.2,0.3,0.5,0.3,0.8
			c0,0.3-0.2,0.6-0.4,0.7c-0.8,0.6-1.4,1.1-2,1.7c-3.3,3.3-4.9,7.2-4.6,11.3c0.3,3.8,2.1,7.5,5.3,10.7c6.5,6.5,14.7,6.5,21.2,0
			c8.6-8.6,3.3-16.5-0.7-20.5c-2.8-2.8-5.9-4.7-9-5.4c-0.2,0-0.4-0.1-0.5-0.3c0,0,0-0.1-0.1-0.1l-12.3-12.3
			C60.7,106.5,59.7,106.1,58.7,106.1z"/>
	</g>
</g>
</svg>
