<?xml version="1.0" encoding="utf-8"?>
<!-- Generator: Adobe Illustrator 22.0.1, SVG Export Plug-In . SVG Version: 6.00 Build 0)  -->
<svg version="1.1" id="Layer_1" xmlns="http://www.w3.org/2000/svg" xmlns:xlink="http://www.w3.org/1999/xlink" x="0px" y="0px"
	 viewBox="0 0 150 150" style="enable-background:new 0 0 150 150;" xml:space="preserve">
<style type="text/css">
	.st0{fill:#380427;}
	.st1{fill:#F85FC4;}
	.st2{fill:#F57EAE;}
	.st3{fill:#FFFFFF;}
</style>
<g>
	<g>
		<g>
			<path class="st0" d="M106.5,111.1h-63c-2.5,0-4.6-2.1-4.6-4.6v-63c0-2.5,2.1-4.6,4.6-4.6h63c2.5,0,4.6,2.1,4.6,4.6v63
				C111.1,109,109,111.1,106.5,111.1z"/>
			<path d="M106.5,115.1h-63c-4.7,0-8.6-3.9-8.6-8.6v-63c0-4.7,3.9-8.6,8.6-8.6h63c4.7,0,8.6,3.9,8.6,8.6v63
				C115.1,111.2,111.2,115.1,106.5,115.1z M43.5,43c-0.3,0-0.6,0.3-0.6,0.6v63c0,0.3,0.3,0.6,0.6,0.6h63c0.3,0,0.6-0.3,0.6-0.6v-63
				c0-0.3-0.3-0.6-0.6-0.6H43.5z"/>
		</g>
		<g>
			<path class="st0" d="M106.5,111.1h-63c-2.5,0-4.6-2.1-4.6-4.6v-63c0-2.5,2.1-4.6,4.6-4.6h63c2.5,0,4.6,2.1,4.6,4.6v63
				C111.1,109,109,111.1,106.5,111.1z"/>
			<path class="st1" d="M106.5,111.9h-63c-3,0-5.4-2.4-5.4-5.4v-63c0-3,2.4-5.4,5.4-5.4h63c3,0,5.4,2.4,5.4,5.4v63
				C111.9,109.5,109.4,111.9,106.5,111.9z M43.5,39.7c-2.1,0-3.8,1.7-3.8,3.8v63c0,2.1,1.7,3.8,3.8,3.8h63c2.1,0,3.8-1.7,3.8-3.8
				v-63c0-2.1-1.7-3.8-3.8-3.8C106.5,39.7,43.5,39.7,43.5,39.7z"/>
		</g>
	</g>
	<g>
		<g>
			<path class="st2" d="M56.6,88.2l-5.7-0.1l9.9-16.3l-9.1-15.6l5.3,0.2l6.6,11l6.5-11.1l5.5-0.1l-9.5,15.6l10.1,16.3h-5.6
				l-7.1-11.5L56.6,88.2z"/>
		</g>
		<g>
			<path class="st2" d="M92.1,85.9l-5.8,2.7l-3.6-1l-2.6-2.2l-0.9-3l-0.6-5.7l0.4-5.8l1.1-2.9l6.2-2.7l3.3,0.4l2.7,2.1L91.9,56
				l5.1,0.1l-0.5,32h-4.4L92.1,85.9z M87.7,69.8l-2.4,0.6l-1.4,1.5l-0.6,2.2l-0.4,2.7l0.3,2.5l0.5,2.4l1.5,1.5l2.4,0.9l2.5-1
				l1.5-1.5l0.2-2.4l0.1-2.4l0.4-2.5l-0.8-2.2l-1.2-1.9L87.7,69.8z"/>
		</g>
	</g>
</g>
<rect x="-158" y="10" class="st3" width="130" height="130"/>
<g>
	<g>
		<g>
			<path class="st0" d="M-61.5,111.1h-63c-2.5,0-4.6-2.1-4.6-4.6v-63c0-2.5,2.1-4.6,4.6-4.6h63c2.5,0,4.6,2.1,4.6,4.6v63
				C-56.9,109-59,111.1-61.5,111.1z"/>
			<path d="M-61.5,115.1h-63c-4.7,0-8.6-3.9-8.6-8.6v-63c0-4.7,3.9-8.6,8.6-8.6h63c4.7,0,8.6,3.9,8.6,8.6v63
				C-52.9,111.2-56.8,115.1-61.5,115.1z M-124.5,43c-0.3,0-0.6,0.3-0.6,0.6v63c0,0.3,0.3,0.6,0.6,0.6h63c0.3,0,0.6-0.3,0.6-0.6v-63
				c0-0.3-0.3-0.6-0.6-0.6H-124.5z"/>
		</g>
		<g>
			<path class="st0" d="M-61.5,111.1h-63c-2.5,0-4.6-2.1-4.6-4.6v-63c0-2.5,2.1-4.6,4.6-4.6h63c2.5,0,4.6,2.1,4.6,4.6v63
				C-56.9,109-59,111.1-61.5,111.1z"/>
			<path class="st1" d="M-61.5,111.9h-63c-3,0-5.4-2.4-5.4-5.4v-63c0-3,2.4-5.4,5.4-5.4h63c3,0,5.4,2.4,5.4,5.4v63
				C-56.1,109.5-58.6,111.9-61.5,111.9z M-124.5,39.7c-2.1,0-3.8,1.7-3.8,3.8v63c0,2.1,1.7,3.8,3.8,3.8h63c2.1,0,3.8-1.7,3.8-3.8
				v-63c0-2.1-1.7-3.8-3.8-3.8C-61.5,39.7-124.5,39.7-124.5,39.7z"/>
		</g>
	</g>
	<g>
		<g>
			<path class="st2" d="M-111.4,88.2l-5.7-0.1l9.9-16.3l-9.1-15.6l5.3,0.2l6.6,11l6.5-11.1l5.5-0.1l-9.5,15.6l10.1,16.3h-5.6
				l-7.1-11.5L-111.4,88.2z"/>
		</g>
		<g>
			<path class="st2" d="M-75.9,85.9l-5.8,2.7l-3.6-1l-2.6-2.2l-0.9-3l-0.6-5.7l0.4-5.8l1.1-2.9l6.2-2.7l3.3,0.4l2.7,2.1L-76.1,56
				l5.1,0.1l-0.5,32h-4.4L-75.9,85.9z M-80.3,69.8l-2.4,0.6l-1.4,1.5l-0.6,2.2l-0.4,2.7l0.3,2.5l0.5,2.4l1.5,1.5l2.4,0.9l2.5-1
				l1.5-1.5l0.2-2.4l0.1-2.4l0.4-2.5l-0.8-2.2l-1.2-1.9L-80.3,69.8z"/>
		</g>
	</g>
</g>
</svg>
