<?xml version="1.0" encoding="utf-8"?>
<!-- Generator: Adobe Illustrator 22.1.0, SVG Export Plug-In . SVG Version: 6.00 Build 0)  -->
<svg version="1.1" id="Layer_1" xmlns="http://www.w3.org/2000/svg" xmlns:xlink="http://www.w3.org/1999/xlink" x="0px" y="0px"
	 viewBox="0 0 68 62.5" style="enable-background:new 0 0 68 62.5;" xml:space="preserve">
<style type="text/css">
	.st0{fill:#3B4166;}
</style>
<path class="st0" d="M32,27.1c0,7.2-1.6,13.3-4.8,18.5c-3.2,5.2-9,8.4-17.5,9.7V44.2c3.3-0.4,6.1-1.8,8.3-4.2
	c2.2-2.4,3.3-6,3.3-10.6v-1H10.5V7.2H32V27.1z M61.2,27.1c0,7.2-1.6,13.3-4.8,18.5c-3.2,5.2-9,8.4-17.5,9.7V44.2
	c3.3-0.4,6.1-1.8,8.3-4.2c2.2-2.4,3.3-6,3.3-10.6v-1H39.7V7.2h21.5V27.1z"/>
</svg>
