<?xml version="1.0" encoding="utf-8"?>
<!-- Generator: Adobe Illustrator 22.1.0, SVG Export Plug-In . SVG Version: 6.00 Build 0)  -->
<svg version="1.1" id="Capa_1" xmlns="http://www.w3.org/2000/svg" xmlns:xlink="http://www.w3.org/1999/xlink" x="0px" y="0px"
	 viewBox="0 0 55 55" style="enable-background:new 0 0 55 55;" xml:space="preserve">
<style type="text/css">
	.st0{fill:#FFFFFF;}
</style>
<path class="st0" d="M52.7,0.2C52.4,0.1,52.2,0,51.9,0l-31,4C20.4,4.1,20,4.5,20,5v6v4.2v25.4c-1.8-2.2-4.7-3.6-8-3.6
	c-5.5,0-10,4-10,9s4.5,9,10,9s10-4,10-9c0-0.2,0-0.5,0-0.7c0-0.1,0-0.1,0-0.2v-29l29-3.8v18.3c-1.8-2.2-4.7-3.6-8-3.6
	c-5.5,0-10,4-10,9s4.5,9,10,9c5.5,0,9.9-4,10-8.9c0,0,0,0,0,0V11.2V7V1C53,0.7,52.9,0.4,52.7,0.2z"/>
</svg>
