<?xml version="1.0" encoding="iso-8859-1"?>
<!-- Generator: Adobe Illustrator 19.0.0, SVG Export Plug-In . SVG Version: 6.00 Build 0)  -->
<svg version="1.1" id="Layer_1" xmlns="http://www.w3.org/2000/svg" xmlns:xlink="http://www.w3.org/1999/xlink" x="0px" y="0px"
	 viewBox="0 0 512 512" style="enable-background:new 0 0 512 512;" xml:space="preserve">
<g>
	<g>
		<path d="M158.612,44.411v122.944v17.239v163.501c-16.858-15.584-39.383-25.123-64.097-25.123
			c-52.115,0-94.514,42.398-94.514,94.514S42.399,512,94.515,512c52.116,0,94.514-42.398,94.514-94.514V180.772l292.554-36.765
			v163.5c-16.858-15.584-39.383-25.124-64.097-25.124c-52.115,0-94.514,42.398-94.514,94.514s42.398,94.514,94.514,94.514
			S512,429.013,512,376.897V140.183v-13.417V0L158.612,44.411z M94.516,481.583c-35.343,0-64.097-28.753-64.097-64.097
			s28.753-64.097,64.097-64.097c35.344,0,64.097,28.753,64.097,64.097S129.858,481.583,94.516,481.583z M417.485,440.994
			c-35.343,0-64.097-28.753-64.097-64.097s28.753-64.097,64.097-64.097s64.097,28.753,64.097,64.097
			S452.829,440.994,417.485,440.994z M481.582,113.35l-292.554,36.766V71.245l292.554-36.766V113.35z"/>
	</g>
</g>
<g>
</g>
<g>
</g>
<g>
</g>
<g>
</g>
<g>
</g>
<g>
</g>
<g>
</g>
<g>
</g>
<g>
</g>
<g>
</g>
<g>
</g>
<g>
</g>
<g>
</g>
<g>
</g>
<g>
</g>
</svg>
