<?xml version="1.0" encoding="utf-8"?>
<!-- Generator: Adobe Illustrator 22.1.0, SVG Export Plug-In . SVG Version: 6.00 Build 0)  -->
<svg version="1.1" id="Layer_1" xmlns="http://www.w3.org/2000/svg" xmlns:xlink="http://www.w3.org/1999/xlink" x="0px" y="0px"
	 viewBox="0 0 609.8 235" style="enable-background:new 0 0 609.8 235;" xml:space="preserve">
<style type="text/css">
	.st0{fill:url(#SVGID_1_);}
</style>
<linearGradient id="SVGID_1_" gradientUnits="userSpaceOnUse" x1="304.9" y1="9.0623" x2="304.9" y2="218.9522">
	<stop  offset="0" style="stop-color:#202639"/>
	<stop  offset="0.2008" style="stop-color:#202639;stop-opacity:0.9591"/>
	<stop  offset="0.2176" style="stop-color:#202639;stop-opacity:0.9557"/>
	<stop  offset="0.4488" style="stop-color:#202639;stop-opacity:0.8"/>
	<stop  offset="0.6736" style="stop-color:#202639;stop-opacity:0.5"/>
	<stop  offset="0.8592" style="stop-color:#202639;stop-opacity:0.15"/>
	<stop  offset="0.8727" style="stop-color:#202639;stop-opacity:0.1355"/>
	<stop  offset="1" style="stop-color:#202639;stop-opacity:0"/>
</linearGradient>
<path class="st0" d="M587.4,12.6c-0.8,0.1-1.5,0.4-2.4,0.4h-27.9c-0.5-0.1-1-0.1-1.6-0.1c-0.6,0-1.2-0.1-1.9-0.1c-0.9,0-1.9,0-2.8,0
	c-0.8,0-1.7,0-2.5,0.1c-0.5,0-1,0.1-1.5,0.1c-0.2,0-0.3,0-0.5-0.2c-0.1-0.1-0.1-0.2-0.2-0.3c-0.2-0.1-0.5,0-0.7,0
	c-0.4,0-0.8-0.1-1.3-0.1c-1.9,0-3.7-0.1-5.6-0.1c-0.5,0-1,0-1.4-0.2c0,0,0,0,0,0l-1.2-0.2l-2.4-0.6c0,0-1.8-0.3-2.8,0s-3.9,0-3.9,0
	l-5.7,0.6c0,0-2,1-4,1.4h-20.4h-3.5l-1.9-0.6l-5.4-0.3c0,0-2.6-0.6-4.5,0s-7.4,0.9-7.4,0.9h-15.9c-0.4,0.1-1,0.2-1.3,0.2
	c-0.6,0-1.2,0-1.8,0c-0.5,0-1-0.1-1.6-0.1c-1,0-2,0-2.9,0c-0.5,0-1-0.1-1.5-0.1c-0.5,0-1,0-1.5,0c-1.6,0-3.2,0.1-4.8,0
	c-0.5,0-1-0.1-1.6-0.1c-0.3,0-0.7,0-1-0.1c-0.7-0.1-1.5,0-2.2-0.1c-1.6-0.2-3.2,0-4.8,0c-0.2,0-0.5,0-0.7-0.1l-2.4-0.9l-3.7-0.6
	c-3.1,0.3-4.8-1-4.8-1l-7.8,0c0,0-2.2-0.2-3.3,0.5c-1.1,0.7-5.9,1.3-6.6,1.4c0,0,0.1,0-0.1,0h-86.5c-2.3,0-4.7-0.1-7,0.1
	c-1.3,0.1-2.7,0-4,0c-0.9,0-1.8,0-2.8,0c-1.8,0-3.6,0-5.3,0c-1.4,0-2.8,0.2-4.3,0.2c-0.5,0-1.3,0-1.8,0c-1.5,0-3,0-4.5,0
	c-1.2,0-2.3,0-3.5,0c-0.3,0-0.7,0-1,0c-0.4-0.1-0.5-0.2-0.9-0.3c-1.6-0.3-3.1-0.4-4.7-1c-1-0.4-3-0.9-3-0.9l-1.2-0.5l-5-0.3
	c0,0-5.7-0.2-8.4,0.3c-1.8,0.3-5.7,0.1-5.7,0.1l-2.2,0.5l-3.6,1.8l-7.2-0.3l-2.5,0c0,0-2.3,0.2-3.4,0.5c-1.2,0.4-2.2,1.1-3.4,1.1
	c-1,0-2,0-3,0c-2.8,0-5.5,0-8.3,0c-1.8,0-3.6,0.2-5.3-0.3c-1.1-0.3-3.2-1-3.2-1l-2.9-0.6l-3.3,0l-2.5-0.4l-2.4,0.1l-1.1,0.3
	l-2.1,0.5l-5.4,1.4c0,0-1.7,0-2.5,0c-1.7,0-3.4,0.2-5-0.3c-0.4-0.1-0.8,0-1.2-0.1c-0.5-0.1-0.9-0.3-1.5-0.4c-1-0.1-2.1-0.3-3.1-0.3
	c-0.7,0-1.6,0.2-2.3,0c-0.7-0.2-1.5-0.3-2-0.6c-2.4-1-7.5-3.1-7.5-3.1s-5.6,0-8.2,0c-3.7,0-11.2,0-11.2,0l-2,0l-1.3,0.5
	c0,0-2.2,0.4-3.2,1.5c-0.5,0.6-1,1.2-1.8,1.4c-1.4,0.3-3.2,0-4.7,0c-4,0-8,0-12,0c-1.4,0-2.8,0.2-4.1-0.2c-1-0.3-1.9-0.7-2.8-1.1
	c-1-0.5-2-0.3-3.1-0.3c-1.6,0-3.1,0.3-4.7,0.3c-1,0-2,0-3,0c-1.5,0-2.9,0.4-4.5,0.3c-0.9,0-1.7,0-2.6,0.3c-0.6,0.1-1.2,0-1.8,0.1
	c-0.4,0.1-0.7,0.3-1.1,0.4c0,0-17.4,2.2-21.7,1.9s-16.2-0.9-16.2-0.9l-1.8-0.6c-2.1,0-4.2,0-6.3,0c-1.1,0-2.1,0-3.2,0
	c-0.9,0-1.5,0.2-2.4,0.4c-2,0.5-4,0.8-5.9,1.3c-0.8,0.2-1.4,0.3-2.3,0.3c-2.3,0-4.6,0-6.8,0H0v211.5h609.8V12.6H587.4z"/>
</svg>
