<?xml version="1.0" encoding="utf-8"?>
<!-- Generator: Adobe Illustrator 22.1.0, SVG Export Plug-In . SVG Version: 6.00 Build 0)  -->
<svg version="1.1" id="Layer_1" xmlns="http://www.w3.org/2000/svg" xmlns:xlink="http://www.w3.org/1999/xlink" x="0px" y="0px"
	 viewBox="0 0 2000 1471.7" style="enable-background:new 0 0 2000 1471.7;" xml:space="preserve">
<style type="text/css">
	.st0{fill:url(#SVGID_1_);}
	.st1{opacity:0.54;}
	.st2{fill:url(#SVGID_2_);}
	.st3{fill:url(#SVGID_3_);}
</style>
<linearGradient id="SVGID_1_" gradientUnits="userSpaceOnUse" x1="1000" y1="336.0989" x2="1000" y2="51.9711">
	<stop  offset="0" style="stop-color:#F3ECDB;stop-opacity:0.9"/>
	<stop  offset="0.8578" style="stop-color:#F3ECDB;stop-opacity:0.128"/>
	<stop  offset="1" style="stop-color:#F3ECDB;stop-opacity:0"/>
</linearGradient>
<rect x="0" y="29.4" class="st0" width="2000" height="329.7"/>
<g class="st1">
	
		<linearGradient id="SVGID_2_" gradientUnits="userSpaceOnUse" x1="1005.0822" y1="234.7469" x2="1005.0822" y2="1353.2864" gradientTransform="matrix(-0.9993 3.688213e-02 3.146405e-02 0.8525 1980.2469 187.7859)">
		<stop  offset="0" style="stop-color:#FFFFFF"/>
		<stop  offset="1" style="stop-color:#FFFFFF;stop-opacity:0"/>
	</linearGradient>
	<path class="st2" d="M1999.8,282.5c-3.7-9.4-19.3-11.9-26.9-4.3c-6.2-19-29.6-31.7-52.7-31.6c-23.1,0.1-45.1,11.1-60.1,26.4
		c-11.9-13.1-39.7-11.1-49.3,3.4c-17.9-20.9-54.5-27.8-81.4-15.5c-8.2,3.8-15.3,9-22.3,14.1c-12.4,9.1-24.8,18.1-37.2,27.2
		c-13-13.6-38.8-16.4-55.6-6.1c-18.4-25.1-52.5-41-87.2-40.6c-34.7,0.4-68.8,17-87.2,42.4c-0.6-7.6-8.4-14.3-17.3-14.7
		s-17.7,5.3-19.6,12.8c-10.9-12-37.2-8.3-43.5,6.1c-19.9-24.2-54.3-38.9-88.9-38.2c-34.7,0.7-68.6,17-87.7,42
		c-11.1-16.3-43.1-16.9-55.5-1.2c-15.5-17.6-45.9-23.9-69.4-14.6c-1-24.2-36.1-35.4-64.3-34c-42,2.1-87.5,23.6-95.2,59.1
		c-2.5-14.8-29.3-20.6-40-8.6c-12.6-12.8-41.3-7.8-47.4,8.2l-5.5-4.2c0,0-10-8.3-25.5-2.4c-15.6,5.8-29.5-22.3-29.5-22.3
		c-12.6-20.6-37-35.7-64-38.8c-33.4-3.8-63.4,10.7-83.6,32.9c0,0-6.6-17-31.9-13.5s-26.4,21.9-26.4,21.9
		c-12.5-1.1-27.1,2.5-29.2,15.1c-31.5-29.5-92-31.3-126.5-3.6c-10.4-13.4-37.2-13.6-48.1-0.3c-6.9-5.7-16.8-8.7-26.5-8
		c0,0-5.3-24.6-31.1-32.6c-25.9-8-38.9-0.7-56.1,7.3c-10.6-6.8-25.6-8.3-38-3.8s-21.6,14.7-23.6,26.1c-19.4-2.2-40,7.7-48.1,23.2
		C82.7,293.1,30.9,297,0,320.8l0,1150.9h1999.8V282.5z"/>
</g>
<g>
	<linearGradient id="SVGID_3_" gradientUnits="userSpaceOnUse" x1="1000" y1="431.9789" x2="1000" y2="1352.7472">
		<stop  offset="0" style="stop-color:#FFFFFF"/>
		<stop  offset="1" style="stop-color:#FFFFFF;stop-opacity:0"/>
	</linearGradient>
	<path class="st3" d="M1.2,349.9c3.4-11.2,20.2-15,28.1-6.4c5.5-22.6,28.4-38.4,51.5-39.3s45.5,11.1,61,28.3
		c11.4-15.8,39.2-14.8,49.4,1.9c17.1-25.2,53.4-34.9,80.8-21.6c8.3,4,15.6,9.8,22.8,15.6c12.7,10.1,25.4,20.2,38.2,30.2
		c12.5-16.5,38.1-20.9,55.4-9.6c17.4-30.2,51-50.3,85.7-51.3c34.7-1.1,69.4,16.9,88.7,45.9c0.3-8.9,7.9-17.1,16.7-18
		c8.9-0.9,17.9,5.4,20.1,14.1c10.5-14.5,36.9-11.3,43.6,5.3c19-29.2,52.8-48,87.4-48.6c34.7-0.6,69.1,16.9,89.1,45.4
		c10.5-19.5,42.4-21.7,55.4-3.8c14.8-21.2,45-30,68.8-20.1c0.1-28.4,34.8-43,63-42.6c42.1,0.6,88.3,23.8,97.3,65.1
		c2-17.5,28.5-25.4,39.7-11.8c12.1-15.5,41-10.9,47.7,7.6l5.3-5.2c0,0,9.7-10.1,25.4-4c15.8,6.2,28.6-27.4,28.6-27.4
		c11.8-24.6,35.6-43.5,62.5-48.2c33.3-5.9,63.8,9.8,84.7,34.9c0,0,6-20.1,31.4-17.1c25.4,3,27.2,24.5,27.2,24.5
		c12.4-1.8,27.2,1.8,29.8,16.4c30.4-36,90.8-40.6,126.3-9.7c9.9-16.2,36.7-17.5,48.1-2.4c6.7-7,16.5-10.9,26.2-10.5
		c0,0,4.3-29.1,29.9-39.6c25.5-10.5,38.8-2.5,56.4,6.2c10.4-8.4,25.3-10.8,37.8-6.1c12.5,4.7,22.2,16.3,24.5,29.5
		c19.3-3.4,40.3,7.3,48.9,25c34.2-23.4,83.6-20.9,115.3,5.6v1169.3H0L1.2,349.9z"/>
</g>
</svg>
