<?xml version="1.0" encoding="utf-8"?>
<!-- Generator: Adobe Illustrator 22.1.0, SVG Export Plug-In . SVG Version: 6.00 Build 0)  -->
<svg version="1.1" id="Layer_1" xmlns="http://www.w3.org/2000/svg" xmlns:xlink="http://www.w3.org/1999/xlink" x="0px" y="0px"
	 viewBox="0 0 548.7 574.7" style="enable-background:new 0 0 548.7 574.7;" xml:space="preserve">
<style type="text/css">
	.st0{fill:url(#SVGID_1_);}
	.st1{fill:#FFF5C2;}
	.st2{fill:url(#SVGID_2_);}
	.st3{fill:url(#SVGID_3_);}
</style>
<g>
	<g>
		<linearGradient id="SVGID_1_" gradientUnits="userSpaceOnUse" x1="47.3473" y1="429.525" x2="47.3473" y2="150.5944">
			<stop  offset="0" style="stop-color:#FFFFFF"/>
			<stop  offset="1" style="stop-color:#FFFFFF;stop-opacity:0"/>
		</linearGradient>
		<rect x="45.8" y="118.3" class="st0" width="3.1" height="305"/>
		<path class="st1" d="M59.4,461.5l-9.7-4.4l-9.1,5.5c-3.8,2.3-8.6-0.8-8.1-5.2l1.2-10.6l-8-6.9c-3.4-2.9-1.9-8.4,2.4-9.3l10.4-2.2
			l4.1-9.8c1.7-4.1,7.4-4.4,9.6-0.6l5.3,9.2l10.6,0.9c4.4,0.4,6.5,5.6,3.5,8.9l-7.1,7.9l2.4,10.3C67.8,459.7,63.5,463.3,59.4,461.5z
			"/>
	</g>
	<g>
		<linearGradient id="SVGID_2_" gradientUnits="userSpaceOnUse" x1="336.9875" y1="516.8001" x2="336.9875" y2="46.9766">
			<stop  offset="0" style="stop-color:#FFFFFF"/>
			<stop  offset="1" style="stop-color:#FFFFFF;stop-opacity:0"/>
		</linearGradient>
		<rect x="334.5" y="-7.4" class="st2" width="4.9" height="513.7"/>
		<path class="st1" d="M356.4,567.6l-15.6-7l-14.6,8.8c-6.1,3.7-13.8-1.2-13-8.3l1.9-17l-12.9-11.1c-5.4-4.6-3.1-13.5,3.9-14.9
			l16.7-3.5l6.6-15.7c2.8-6.6,11.8-7.1,15.4-0.9l8.5,14.8l17,1.4c7.1,0.6,10.4,9.1,5.6,14.3l-11.5,12.6l3.9,16.6
			C369.9,564.8,362.9,570.6,356.4,567.6z"/>
	</g>
	<g>
		<linearGradient id="SVGID_3_" gradientUnits="userSpaceOnUse" x1="509.7628" y1="352.4714" x2="509.7628" y2="73.5409">
			<stop  offset="0" style="stop-color:#FFFFFF"/>
			<stop  offset="1" style="stop-color:#FFFFFF;stop-opacity:0"/>
		</linearGradient>
		<rect x="508.2" y="41.2" class="st3" width="3.1" height="305"/>
		<path class="st1" d="M521.8,384.4l-9.7-4.4l-9.1,5.5c-3.8,2.3-8.6-0.8-8.1-5.2l1.2-10.6l-8-6.9c-3.4-2.9-1.9-8.4,2.4-9.3l10.4-2.2
			l4.1-9.8c1.7-4.1,7.4-4.4,9.6-0.6l5.3,9.2l10.6,0.9c4.4,0.4,6.5,5.6,3.5,8.9l-7.1,7.9l2.4,10.3
			C530.2,382.6,525.9,386.2,521.8,384.4z"/>
	</g>
</g>
</svg>
