<?xml version="1.0" encoding="iso-8859-1"?>
<!-- Generator: Adobe Illustrator 19.0.0, SVG Export Plug-In . SVG Version: 6.00 Build 0)  -->
<svg xmlns="http://www.w3.org/2000/svg" xmlns:xlink="http://www.w3.org/1999/xlink" version="1.1" id="Layer_1" x="0px" y="0px" viewBox="0 0 512 512" style="enable-background:new 0 0 512 512;" xml:space="preserve" width="512" height="512">
<g>
	<g>
		<path style="fill:#B6A4FF;" d="M344,504.5h55.96c18.25,0,33.04-14.79,33.04-33.04v-81.94c0-10.47-5.1-20.14-13.38-26.55    C401.3,348.79,388,306.26,388,256s13.3-92.79,31.62-106.97c8.28-6.41,13.38-16.08,13.38-26.55V40.54    c0-18.25-14.79-33.04-33.04-33.04H112.04C93.79,7.5,79,22.29,79,40.54v81.94c0,10.47,5.1,20.14,13.38,26.55    C110.7,163.21,124,205.74,124,256s-13.3,92.79-31.62,106.97C84.1,369.38,79,379.05,79,389.52v81.94    c0,18.25,14.79,33.04,33.04,33.04H168l88-36.5L344,504.5z"/>
		<path style="fill:#EFEDEE;" d="M291.33,127.25L243,401l48.33,103.5H344V207.86C344,171.83,322.34,140.85,291.33,127.25z"/>
		<path style="fill:#D2D2D2;" d="M291.33,127.25V504.5H168V208.99c0-47.598,37.353-87.46,84.923-89.078    C266.62,119.447,279.642,122.103,291.33,127.25z"/>
		<path style="fill:#D2D2D2;" d="M332.448,164.586c-9.242-16.273-23.543-29.628-41.118-37.335l-5.277,29.888    c30.072,10.955,52.385,38.194,57.018,69.889c0.621,4.248,0.929,8.54,0.929,12.833c0,0,0-31.999,0-32    C344,192.5,339.844,177.609,332.448,164.586z"/>
		<path style="fill:#B8B8B8;" d="M168,240.987c0.002-47.596,37.354-87.457,84.923-89.075c13.697-0.466,26.718,2.191,38.407,7.338    v-32c-5.114-2.252-10.483-4.027-16.051-5.272c-17.173-3.841-35.495-2.43-51.822,4.167C190.185,139.589,168,173.206,168,208.99    V240.987z"/>
		<circle style="fill:#B8B8B8;" cx="229.665" cy="306.333" r="19.22"/>
	</g>
	<g>
		<g>
			<path d="M173.346,61.21c4.142,0,7.5-3.358,7.5-7.5V38.75c0-4.142-3.358-7.5-7.5-7.5s-7.5,3.358-7.5,7.5V53.71     C165.846,57.852,169.204,61.21,173.346,61.21z"/>
			<path d="M338.654,61.21c4.142,0,7.5-3.358,7.5-7.5V38.75c0-4.142-3.358-7.5-7.5-7.5s-7.5,3.358-7.5,7.5V53.71     C331.154,57.852,334.512,61.21,338.654,61.21z"/>
			<path d="M256,69.194c10.115,0,19.609-4.224,26.047-11.589c2.726-3.119,2.408-7.856-0.71-10.583     c-3.118-2.727-7.856-2.409-10.583,0.71c-3.59,4.106-8.967,6.461-14.754,6.461s-11.164-2.355-14.754-6.461     c-2.726-3.118-7.464-3.438-10.583-0.71c-3.119,2.726-3.437,7.464-0.71,10.583C236.391,64.97,245.885,69.194,256,69.194z"/>
			<path d="M229.665,333.053c14.733,0,26.72-11.987,26.72-26.72s-11.987-26.72-26.72-26.72s-26.72,11.986-26.72,26.72     S214.932,333.053,229.665,333.053z M229.665,294.613c6.462,0,11.72,5.257,11.72,11.72s-5.258,11.72-11.72,11.72     s-11.72-5.258-11.72-11.72S223.203,294.613,229.665,294.613z"/>
			<path d="M87.789,357.04C77.437,365.054,71.5,376.892,71.5,389.52v81.94c0,22.354,18.186,40.54,40.54,40.54h287.92     c22.354,0,40.54-18.186,40.54-40.54v-81.94c0-12.628-5.937-24.467-16.289-32.481C410.383,346.335,395.5,310.152,395.5,256     s14.883-90.336,28.711-101.04c10.352-8.014,16.289-19.853,16.289-32.48V40.54C440.5,18.186,422.314,0,399.96,0H112.04     C89.686,0,71.5,18.186,71.5,40.54v81.94c0,12.627,5.937,24.466,16.289,32.48C101.617,165.664,116.5,201.848,116.5,256     C116.5,310.152,101.617,346.336,87.789,357.04z M96.971,368.901C117.624,352.915,131.5,307.543,131.5,256     c0-51.544-13.876-96.915-34.529-112.901C90.316,137.947,86.5,130.432,86.5,122.48V40.54C86.5,26.457,97.957,15,112.04,15h287.92     c14.083,0,25.54,11.457,25.54,25.54v81.94c0,7.952-3.816,15.468-10.471,20.619C394.376,159.085,380.5,204.457,380.5,256     c0,51.543,13.876,96.915,34.529,112.9c6.655,5.151,10.471,12.667,10.471,20.62v81.94c0,14.083-11.457,25.54-25.54,25.54H351.5     V293.46c0-4.142-3.358-7.5-7.5-7.5s-7.5,3.358-7.5,7.5V497h-37.67V139.686c23.206,14.581,37.67,40.225,37.67,68.174v56.897     c0,4.142,3.358,7.5,7.5,7.5s7.5-3.358,7.5-7.5c0,0,0-56.877,0-56.897c0-53.081-45.841-97.241-98.831-95.443     c-51.123,1.735-92.169,45.819-92.169,96.574v224.098c0,4.142,3.358,7.5,7.5,7.5s7.5-3.358,7.5-7.5c0,0,0-224.011,0-224.098     c0-42.841,34.576-80.117,77.678-81.583c10.621-0.358,20.907,1.284,30.652,4.893V497H175.5v-33.912c0-4.142-3.358-7.5-7.5-7.5     s-7.5,3.358-7.5,7.5V497h-48.46c-14.083,0-25.54-11.457-25.54-25.54v-81.94C86.5,381.568,90.316,374.052,96.971,368.901z"/>
		</g>
	</g>
</g>















</svg>
