<?xml version="1.0" encoding="utf-8"?>
<!-- Generator: Adobe Illustrator 16.0.0, SVG Export Plug-In . SVG Version: 6.00 Build 0)  -->
<!DOCTYPE svg PUBLIC "-//W3C//DTD SVG 1.1//EN" "http://www.w3.org/Graphics/SVG/1.1/DTD/svg11.dtd">
<svg version="1.1" id="Layer_1" xmlns="http://www.w3.org/2000/svg" xmlns:xlink="http://www.w3.org/1999/xlink" x="0px" y="0px"
	 width="1920px" height="867px" viewBox="0 0 1920 867" enable-background="new 0 0 1920 867" xml:space="preserve">
<g>
	<rect x="-1.128" y="-0.231" fill="#204D9F" width="1922.013" height="894.231"/>
	<path fill="#FFFFFF" d="M410.931,94.039c0,0-33.418,0.769-26.394,28.182c0,0,2.884,19.495,51.002,18.073
		c0,0,7.971,0.644,16.814-3.238c0,0,7.65-5.542,15.264,2.29c0,0,28.756,29.33,109.123,2.955c0,0,47.015-11.667,39.245-40.679
		c0,0,3.082-20.208-42.271-18.011c0,0-18.156,3.061-28.508-5.407c0,0-12.031-8.142-36.909,7.544c0,0-14.211,3.173-25.84-2.868
		c0,0-23.786-12.581-48.203,5.496C434.254,88.375,425.669,94.188,410.931,94.039z"/>
	<path fill="#FFFFFF" d="M1063.828,784.357c0,0-35.086,3.82-31.527-25.846c0,0,0.32-20.802,50.881-25.972
		c0,0,8.256-1.777,18.047,1.063c0,0,8.777,4.741,15.662-4.508c0,0,26.041-34.679,113.809-18.191c0,0,50.826,5.71,46.709,37.152
		c0,0,6.021,20.726-41.752,24.699c0,0-19.428-0.691-29.09,9.601c0,0-11.469,10.19-39.68-2.79c0,0-15.314-1.354-26.646,6.58
		c0,0-23.156,16.457-51.217,0.914C1089.023,787.061,1079.234,782.165,1063.828,784.357z"/>
	<path fill="#F5E168" d="M156.79,18.796c0,0,0.5-4.499,3-4.999c2.5-0.5,5.5,4.999,5.5,4.999l4.5-2.515c0,0,5.5-4.483-2.5,8.513
		l4.344,6.499c0,0-0.5,6.498-7.422,0c0,0-4.922-2.222-5.422,2.888c0,0-6.5,1.111-2-7.387c0,0,1.5-4.594-5.5-2.797
		C151.29,23.997,143.79,21.311,156.79,18.796z"/>
	<path fill="#F5E168" d="M156.586,291.081c-3.735-0.64-7.438-1.376-11.177-1.854c0.044-0.088,0.088-0.172,0.13-0.264
		c1.127-2.574,2.766-7.524,1.795-9.796l0.455-1.451c-0.802,0-1.511,0.1-2.163,0.263c-0.71-0.04-1.638,0.178-2.837,0.737
		c-2.467,1.079-4.623,3.419-6.413,6.379c-0.742,0.596-1.23,1.001-1.655,1.287c-1.918-0.564-3.949-0.422-5.932-0.406
		c-0.063,0-0.115,0.016-0.177,0.019c-0.485-0.251-0.987-0.479-1.526-0.661c-3.113-1.049-4.699,2.939-2.9,4.932
		c0.15,1.11,0.832,2.157,2.038,2.546c0.063,0.096,0.119,0.19,0.194,0.283c0.282,0.347,0.533,0.712,0.768,1.087
		c0.043,0.134,0.086,0.272,0.139,0.439c0.356,1.116,0.648,2.242,1.062,3.33c-0.052,0.243-0.077,0.5-0.063,0.771
		c-1.086,1.154-2.264,2.221-3.547,3.16c-1.042,0.76-1.382,1.855-1.27,2.886c-0.077,0.037-0.156,0.076-0.23,0.113
		c-2.713,1.36-1.375,5.631,1.514,5.588c2.204-0.033,4.533-0.338,6.678-1.078c0.027,0.071,0.057,0.142,0.084,0.213
		c-0.002,0.041-0.012,0.074-0.012,0.115v4.999c0,0.092,0.019,0.17,0.025,0.257c-0.008,0.081-0.025,0.159-0.025,0.242
		c0,1.623,1.364,3.015,3,3c0.256-0.002,0.512-0.014,0.768-0.021c0.808,0.358,1.73,0.318,2.534-0.066
		c0.565,0.002,1.132,0.018,1.698,0.088c0.246,0.03,0.482,0.005,0.714-0.045c0.896-0.013,1.784-0.433,2.376-1.441
		c0.414-0.704,0.621-1.556,0.722-2.466c0.264-0.418,0.434-0.927,0.438-1.546c0.031-3.812,0.279-7.557-0.127-11.329
		c0.371-0.78,0.749-1.435,1.143-1.999c3.595-0.883,7.273-0.975,10.984-1.168c2.182-0.113,3.131-2.089,2.84-3.744
		C159.042,293.028,158.499,291.409,156.586,291.081z"/>
	<path fill="#F5E168" d="M112.454,711.947c-0.226-0.205-0.473-0.385-0.72-0.563c-0.082-0.057-0.164-0.111-0.247-0.166
		c-0.019-0.014-0.023-0.016-0.038-0.025c-0.004-0.004-0.009-0.006-0.013-0.01c-0.451-2.351-1.638-3.979-3.156-5.289
		c0.186-0.209,0.346-0.449,0.438-0.75c0.54-1.765,1.208-5.104-1.439-5.686c-1.213-0.266-2.338-0.15-3.57-0.072
		c-1.737,0.111-2.27-1.008-2.932-2.264c-0.029-0.266-0.112-0.527-0.261-0.768c-0.941-1.521-2.294-2.999-3.967-3.716
		c-1.002-0.429-2.135-0.308-2.736,0.717c-0.314,0.535-0.345,1.311-0.076,1.918c-0.123,0.258-0.197,0.541-0.197,0.841v1
		c0,0.523,0.214,1.004,0.553,1.363c0.075,0.568,0.184,1.125,0.323,1.669c-0.315,3.479-0.178,7.361-4.626,7.465
		c-2.572,0.078-2.583,4.06,0,3.999c2.744-0.084,4.287-0.414,4.475,3.031c0.117,2.153-0.099,4.311,0.025,6.467
		c0.109,1.896,2.722,2.845,3.727,1.009c1.88-3.431,3.83-6.779,5.398-10.349c0.253,0.387,0.623,0.688,1.094,0.771
		c1.063,0.188,2.078,0.475,3.043,0.926l0.074,0.059c0.221,0.176,0.461,0.314,0.71,0.412c0.097,0.113,0.187,0.232,0.29,0.338
		c0.293,0.305,0.669,0.481,1.064,0.548c0.806,0.682,1.984,0.73,2.764-0.049C113.196,714.033,113.262,712.68,112.454,711.947z"/>
	<path fill="#F5E168" d="M1493.115,311.899c-0.227-0.205-0.473-0.386-0.721-0.563c-0.082-0.056-0.164-0.112-0.246-0.167
		c-0.02-0.013-0.025-0.015-0.039-0.024c-0.004-0.004-0.008-0.006-0.014-0.01c-0.449-2.352-1.637-3.979-3.154-5.29
		c0.186-0.208,0.346-0.449,0.438-0.75c0.541-1.765,1.209-5.104-1.439-5.686c-1.213-0.267-2.338-0.151-3.57-0.072
		c-1.736,0.11-2.27-1.008-2.932-2.263c-0.029-0.266-0.111-0.528-0.26-0.767c-0.941-1.521-2.295-3-3.969-3.716
		c-1.002-0.43-2.135-0.31-2.736,0.716c-0.313,0.535-0.344,1.31-0.074,1.917c-0.123,0.259-0.197,0.542-0.197,0.843v1
		c0,0.523,0.213,1.003,0.553,1.362c0.074,0.568,0.182,1.125,0.322,1.67c-0.314,3.479-0.178,7.362-4.625,7.466
		c-2.572,0.078-2.584,4.059,0,3.999c2.744-0.084,4.287-0.415,4.475,3.031c0.117,2.152-0.1,4.31,0.025,6.467
		c0.107,1.896,2.721,2.845,3.727,1.01c1.879-3.432,3.828-6.78,5.396-10.349c0.254,0.387,0.625,0.687,1.094,0.771
		c1.064,0.188,2.08,0.476,3.043,0.926l0.076,0.059c0.221,0.176,0.461,0.314,0.709,0.412c0.098,0.112,0.188,0.231,0.291,0.338
		c0.293,0.304,0.668,0.482,1.063,0.549c0.807,0.68,1.986,0.729,2.766-0.049C1493.857,313.984,1493.922,312.631,1493.115,311.899z"/>
	<path fill="#F5E168" d="M827.442,669.066c-1.59-0.41-3.225-0.773-4.847-1.168c-0.458-1.854-0.815-3.653-1.612-5.342
		c-0.172-1.648-0.498-3.271-1.145-4.839c-0.565-1.375-2.869-2.272-3.655-0.479c-0.875,1.996-1.948,3.888-2.911,5.839
		c-0.609-0.848-1.172-1.707-1.635-2.59c-0.943-1.802-3.279-0.924-3.645,0.646c-0.662,0.547-0.957,1.449-0.31,2.372
		c1.163,1.658,2.487,2.959,3.934,4.013c-0.503,1.84-0.921,3.706-1.684,5.466c-0.54,1.245,0.048,3.147,1.728,3.009
		c1.553-0.129,3.009-0.49,4.47-0.91c0.456,1.113,0.862,2.244,1.101,3.44c0.26,1.301,1.428,1.65,2.424,1.328
		c1.195,1.504,4.074,0.117,3.434-1.891c-0.445-1.397-0.865-2.792-1.306-4.176c1.896-0.236,3.827-0.379,5.659-0.863
		C829.346,672.419,829.36,669.564,827.442,669.066z"/>
	<path fill="#F5E168" d="M1189.512,519.947c-1.59-0.411-3.225-0.774-4.848-1.169c-0.457-1.854-0.814-3.653-1.613-5.341
		c-0.17-1.647-0.496-3.271-1.143-4.84c-0.566-1.375-2.869-2.271-3.656-0.479c-0.875,1.995-1.949,3.888-2.912,5.838
		c-0.607-0.848-1.172-1.704-1.633-2.589c-0.943-1.801-3.281-0.924-3.646,0.646c-0.66,0.548-0.957,1.448-0.309,2.372
		c1.164,1.658,2.488,2.96,3.934,4.015c-0.502,1.839-0.922,3.704-1.684,5.463c-0.539,1.246,0.049,3.148,1.727,3.01
		c1.553-0.129,3.01-0.488,4.471-0.908c0.457,1.11,0.863,2.241,1.102,3.438c0.26,1.301,1.426,1.651,2.422,1.328
		c1.197,1.505,4.076,0.117,3.436-1.891c-0.445-1.396-0.865-2.792-1.307-4.175c1.896-0.236,3.826-0.379,5.66-0.863
		C1191.416,523.301,1191.43,520.443,1189.512,519.947z"/>
	<path fill="#F5E168" d="M946.194,281.995c-0.191-0.047-0.373-0.102-0.561-0.152c0.352-1.148,0.661-2.3,1.01-3.367
		c0.303-0.924-1.023-1.742-1.672-0.972c-0.566,0.672-1.211,1.265-1.882,1.831c-0.821-0.94-1.667-1.86-2.454-2.831
		c-0.425-0.524-1.01-0.381-1.359,0.014c-0.422,0.092-0.805,0.422-0.824,0.912c-0.082,0.234-0.064,0.507,0.113,0.786
		c0.061,0.094,0.102,0.194,0.158,0.29c0.192,0.55,0.419,1.063,0.701,1.516c0.186,0.514,0.342,1.038,0.471,1.572
		c-1.219,0.724-2.481,1.377-3.721,2.002c-0.963,0.485-0.406,1.786,0.504,1.863c1.292,0.109,2.668,0.059,4.04-0.115
		c0.14,0.553,0.293,1.101,0.496,1.63c0.251,0.654,1.124,1.048,1.671,0.441c0.768-0.851,1.34-1.865,1.807-2.948
		c0.516-0.166,1.021-0.343,1.502-0.543C947.032,283.576,947.256,282.251,946.194,281.995z"/>
	<path fill="#F5E168" d="M424.194,773.434c-0.578-0.307-1.164-0.586-1.752-0.859c-0.029-0.623-0.078-1.242-0.154-1.863
		c1.074-0.506,0.564-2.308-0.615-1.878c-0.211,0.078-0.422,0.178-0.633,0.266c-0.189,0.029-0.369,0.102-0.518,0.215
		c-0.896,0.407-1.783,0.903-2.635,1.478c-0.801-0.258-1.611-0.496-2.434-0.709c-0.828-0.213-1.602,0.705-1.129,1.471
		c0.295,0.475,0.577,0.965,0.855,1.457c-1.063,1.067-1.969,2.259-2.605,3.532c-0.313,0.628,0.056,1.558,0.863,1.503
		c0.783-0.053,1.449-0.225,2.082-0.488c0.215,0.047,0.447,0.016,0.674-0.148c0.252-0.182,0.479-0.383,0.701-0.585
		c0.114-0.07,0.227-0.135,0.344-0.211c0.957,1.55,2.041,3.003,3.492,4.14c0.508,0.397,1.557,0.394,1.672-0.441
		c0.027-0.201,0.031-0.4,0.042-0.6c0.452-0.154,0.829-0.582,0.708-1.182c-0.173-0.852-0.385-1.679-0.682-2.483
		c0.004-0.213,0.008-0.428,0.01-0.639c0.412-0.029,0.818-0.063,1.207-0.111C424.586,775.185,425.165,773.95,424.194,773.434z"/>
	<path fill="#F5E168" d="M47.5,69.506c-0.577-0.307-1.163-0.587-1.751-0.86c-0.03-0.622-0.078-1.242-0.155-1.862
		c1.075-0.506,0.565-2.309-0.614-1.878c-0.211,0.077-0.422,0.176-0.633,0.264c-0.189,0.03-0.37,0.103-0.518,0.216
		c-0.896,0.408-1.783,0.904-2.635,1.477c-0.802-0.256-1.611-0.495-2.434-0.708c-0.828-0.213-1.603,0.705-1.129,1.469
		c0.295,0.476,0.577,0.965,0.855,1.458c-1.063,1.068-1.97,2.258-2.605,3.531c-0.313,0.629,0.056,1.56,0.863,1.505
		c0.783-0.053,1.448-0.225,2.081-0.489c0.215,0.048,0.448,0.017,0.674-0.147c0.252-0.183,0.479-0.383,0.701-0.586
		c0.115-0.071,0.227-0.135,0.344-0.211c0.958,1.55,2.042,3.003,3.493,4.14c0.507,0.397,1.556,0.395,1.671-0.441
		c0.028-0.201,0.031-0.4,0.043-0.599c0.452-0.154,0.829-0.582,0.707-1.182c-0.172-0.852-0.385-1.679-0.681-2.484
		c0.003-0.213,0.007-0.427,0.009-0.639c0.412-0.029,0.818-0.062,1.208-0.11C47.893,71.257,48.472,70.023,47.5,69.506z"/>
	<path fill="#F5E168" d="M354.207,214.592c-0.001-0.397-0.204-0.793-0.687-0.95c-0.844-0.272-1.654-0.623-2.471-0.948
		c0.045-0.217,0.098-0.431,0.135-0.651c0.191-0.107,0.381-0.22,0.574-0.322c1.143-0.6,0.131-2.326-1.01-1.726
		c-0.988,0.518-1.961,1.125-2.907,1.789c-0.829-0.435-1.675-0.836-2.571-1.141c-0.717-0.243-1.451,0.527-1.23,1.23
		c0.1,0.32,0.197,0.635,0.297,0.948c-0.053,0.186-0.072,0.38-0.047,0.552c0.055,0.374,0.133,0.755,0.227,1.138
		c-0.797,0.763-1.547,1.56-2.219,2.388c-0.549,0.675-0.217,1.66,0.707,1.707c1.129,0.057,2.262-0.034,3.389-0.207
		c0.631,0.739,1.4,1.339,2.346,1.671c0.657,0.23,1.215-0.361,1.266-0.964c0.043-0.518,0.068-1.038,0.096-1.559
		c1.25-0.372,2.479-0.798,3.67-1.226C354.504,216.057,354.653,215.056,354.207,214.592z"/>
	<path fill="#F5E168" d="M755.051,143.415c-1.311-0.126-2.619-0.293-3.93-0.438c-0.027-0.67-0.057-1.34-0.063-2.011
		c0.174-0.33,0.334-0.67,0.457-1.034c0.354-1.041-0.984-1.562-1.647-0.953c-0.356-0.113-0.771-0.057-1.024,0.23
		c-0.416,0.472-0.746,0.967-1.008,1.486c-0.119,0.113-0.211,0.262-0.249,0.455c-0.011,0.054-0.016,0.105-0.024,0.159
		c-0.15,0.388-0.265,0.79-0.348,1.208c-1.449-0.311-2.922-0.537-4.398-0.816c-0.783-0.147-1.67,0.679-1.129,1.469
		c0.715,1.041,1.514,2.126,2.393,3.16c-0.551,0.761-0.998,1.594-1.243,2.568c-0.231,0.915,0.69,1.476,1.47,1.128
		c0.545-0.244,1.096-0.507,1.645-0.768c0.078,0.137,0.158,0.272,0.236,0.41c0.365,0.639,1.21,0.606,1.628,0.111
		c0.556,0.383,1.13,0.726,1.731,0.997c0.161,0.073,0.35,0.096,0.538,0.082c0.003,0.004,0.006,0.008,0.009,0.012
		c0.729,0.835,1.813-0.085,1.672-0.973c-0.206-1.298-0.352-2.599-0.465-3.903c1.195-0.45,2.48-0.662,3.75-0.58
		C756.351,145.497,756.315,143.537,755.051,143.415z"/>
	<path fill="#F5E168" d="M1444.369,742.316c-1.311-0.127-2.619-0.293-3.93-0.439c-0.027-0.67-0.057-1.34-0.063-2.011
		c0.174-0.33,0.334-0.67,0.457-1.033c0.354-1.041-0.984-1.563-1.648-0.953c-0.355-0.113-0.77-0.057-1.023,0.23
		c-0.416,0.471-0.746,0.967-1.008,1.486c-0.119,0.113-0.211,0.262-0.25,0.455c-0.01,0.053-0.016,0.105-0.023,0.157
		c-0.15,0.389-0.266,0.791-0.348,1.209c-1.449-0.313-2.922-0.537-4.398-0.816c-0.783-0.148-1.67,0.68-1.129,1.469
		c0.715,1.041,1.514,2.126,2.393,3.161c-0.551,0.76-0.998,1.594-1.244,2.567c-0.23,0.914,0.691,1.477,1.471,1.129
		c0.545-0.244,1.096-0.508,1.645-0.77c0.078,0.137,0.158,0.273,0.236,0.41c0.365,0.639,1.209,0.607,1.627,0.111
		c0.557,0.383,1.131,0.727,1.732,0.998c0.16,0.072,0.35,0.096,0.537,0.082c0.004,0.004,0.006,0.008,0.01,0.012
		c0.729,0.836,1.813-0.086,1.672-0.973c-0.207-1.298-0.352-2.599-0.465-3.903c1.195-0.451,2.48-0.662,3.75-0.58
		C1445.668,744.397,1445.633,742.438,1444.369,742.316z"/>
	<path fill="#F5E168" d="M1833.373,396.908c-1.313-0.126-2.619-0.293-3.93-0.438c-0.027-0.669-0.057-1.34-0.064-2.011
		c0.176-0.33,0.334-0.67,0.459-1.034c0.352-1.041-0.984-1.562-1.648-0.953c-0.355-0.113-0.77-0.057-1.023,0.23
		c-0.418,0.472-0.746,0.967-1.01,1.486c-0.119,0.113-0.211,0.262-0.248,0.455c-0.01,0.054-0.016,0.105-0.025,0.159
		c-0.148,0.388-0.264,0.79-0.346,1.208c-1.449-0.311-2.922-0.537-4.398-0.816c-0.783-0.147-1.67,0.679-1.129,1.469
		c0.713,1.041,1.514,2.126,2.393,3.16c-0.551,0.761-0.998,1.594-1.244,2.568c-0.23,0.915,0.691,1.476,1.469,1.128
		c0.547-0.244,1.096-0.507,1.645-0.768c0.08,0.137,0.16,0.272,0.238,0.41c0.365,0.638,1.209,0.606,1.627,0.111
		c0.555,0.383,1.129,0.726,1.73,0.997c0.162,0.073,0.352,0.096,0.539,0.082c0.004,0.004,0.006,0.008,0.01,0.012
		c0.729,0.835,1.813-0.085,1.672-0.973c-0.207-1.298-0.354-2.599-0.465-3.903c1.195-0.45,2.479-0.662,3.75-0.58
		C1834.672,398.99,1834.637,397.03,1833.373,396.908z"/>
	<path fill="#F5E168" d="M728.127,358.981c-2.242-1.105-4.649-1.886-7.112-2.556c-0.319-4.028-1.192-8.806,0.509-12.27
		c0.482-0.982,0.292-1.917-0.215-2.619c0.271-2.492-3.489-4.275-4.602-1.654c-1.634,3.849-5.025,9.128-5.587,13.971
		c-3.328-1.009-6.499-2.322-9.237-4.479c-2.203-1.736-5.244,0.37-3.926,3.028c1.863,3.76,4.48,6.795,7.356,9.727
		c-2.675,2.292-5.481,4.429-8.46,6.349c-1.359,0.876-1.463,2.263-0.873,3.285c-0.207,1.54,1.002,3.222,3.049,2.782
		c1.546-0.33,2.988-0.889,4.377-1.567c2.863-1.026,5.721-2.062,8.568-3.123c1.706,2.459,3.264,5.026,4.982,7.541
		c1.383,2.025,4.589,1.318,4.658-1.262c0.09-3.321-0.057-6.636-0.215-9.95c2.256-0.926,4.501-1.882,6.727-2.888
		C729.804,362.539,729.719,359.765,728.127,358.981z"/>
	<path fill="#F5E168" d="M1081.848,25.835c-1.625-0.174-3.244-0.246-4.861-0.258c0.746-1.966-1.074-4.482-3.08-3.346
		c-1.225-0.322-2.625,0.172-2.969,1.69c-0.07,0.309-0.105,0.589-0.148,0.874c-0.389,0.358-0.768,0.722-1.141,1.091
		c-1.68,0.134-3.363,0.291-5.051,0.449c-2.248,0.209-3.207,2.526-1.768,4.266c0.467,0.563,0.898,1.148,1.348,1.721
		c-1.924,2.628-3.701,5.397-5.488,8.247c-1.502,2.395,2.016,5.147,3.926,3.028c1.826-2.024,3.707-3.883,5.697-5.542
		c1.584,2.428,3.045,4.936,4.377,7.536c0.969,1.89,4.123,1.484,4.57-0.598c0.861-4.016,0.904-8.394,0.361-12.659
		c1.549-0.639,3.17-1.177,4.893-1.591C1085.449,30.039,1084.486,26.119,1081.848,25.835z M1072.334,35.1
		c0.18-0.115,0.359-0.234,0.543-0.347c0.037,0.438,0.061,0.875,0.084,1.313C1072.752,35.743,1072.545,35.42,1072.334,35.1z"/>
	<path fill="#F5E168" d="M1772.33,78.687c2.242,1.105,4.65,1.886,7.113,2.556c0.318,4.028,1.191,8.806-0.51,12.27
		c-0.482,0.982-0.291,1.917,0.215,2.619c-0.271,2.491,3.49,4.275,4.602,1.654c1.635-3.849,5.025-9.128,5.588-13.971
		c3.328,1.01,6.498,2.323,9.236,4.479c2.203,1.736,5.244-0.37,3.926-3.029c-1.863-3.759-4.48-6.795-7.355-9.727
		c2.674-2.292,5.48-4.43,8.459-6.349c1.359-0.875,1.463-2.263,0.873-3.284c0.207-1.54-1.002-3.222-3.049-2.782
		c-1.545,0.33-2.988,0.889-4.377,1.567c-2.863,1.026-5.721,2.062-8.568,3.123c-1.705-2.459-3.264-5.026-4.982-7.541
		c-1.383-2.026-4.588-1.318-4.658,1.261c-0.09,3.322,0.057,6.636,0.215,9.951c-2.256,0.925-4.5,1.882-6.727,2.888
		C1770.654,75.129,1770.738,77.902,1772.33,78.687z"/>
	<path fill="#F5E168" d="M1711.486,747.493c-1.721-0.414-3.344-0.953-4.891-1.592c0.541-4.265,0.498-8.643-0.363-12.659
		c-0.445-2.081-3.602-2.487-4.568-0.597c-1.332,2.599-2.795,5.107-4.379,7.534c-1.988-1.659-3.869-3.518-5.695-5.541
		c-1.912-2.118-5.428,0.633-3.926,3.028c1.787,2.849,3.563,5.618,5.486,8.246c-0.449,0.574-0.881,1.158-1.346,1.722
		c-1.439,1.74-0.48,4.056,1.768,4.267c1.688,0.158,3.369,0.314,5.051,0.449c0.371,0.369,0.752,0.732,1.141,1.09
		c0.041,0.285,0.078,0.566,0.148,0.875c0.344,1.517,1.742,2.011,2.967,1.688c2.006,1.137,3.828-1.378,3.08-3.345
		c1.617-0.012,3.236-0.084,4.863-0.258C1713.461,752.118,1714.424,748.197,1711.486,747.493z M1701.934,742.17
		c-0.021,0.439-0.047,0.877-0.084,1.314c-0.182-0.113-0.361-0.232-0.543-0.348C1701.52,742.816,1701.727,742.494,1701.934,742.17z"
		/>
	<g>
		<defs>
			<rect id="SVGID_1_" x="1.128" y="-0.231" width="1920" height="867.231"/>
		</defs>
		<clipPath id="SVGID_2_">
			<use xlink:href="#SVGID_1_"  overflow="visible"/>
		</clipPath>
		<path clip-path="url(#SVGID_2_)" fill="#FFFFFF" d="M1.227,446.381c0,0,10.173-5.316,25.163,7.977c14.994,13.292,42.3,0,42.3,0
			s87.905-32.589,102.801,36.15c9.104,42.001-43.368,45.723-43.368,45.723s-61.04,7.975-132.251-5.846L1.227,446.381z"/>
		<path clip-path="url(#SVGID_2_)" fill="#FFFFFF" d="M102.835,871.855c0,0-41.078-54.828,18.855-66.195
			c0,0,22.221-0.668,31.648,4.014c9.426,4.681,33.669-2.675,40.403-9.362c6.733-6.684,85.52-32.763,132.658,12.038
			c0,0,6.059,8.023,22.895,1.335c16.835-6.686,129.291-14.041,141.41,62.183l-251.845,18.055L102.835,871.855z"/>
		<path clip-path="url(#SVGID_2_)" fill="#FFFFFF" d="M1979.404,869.254c0,0,34.846-46.511-15.994-56.152
			c0,0-18.85-0.568-26.848,3.403c-7.996,3.97-28.561-2.27-34.273-7.941c-5.713-5.673-72.545-27.794-112.531,10.21
			c0,0-5.141,6.805-19.422,1.135c-14.281-5.673-109.676-11.911-119.957,52.749l213.639,15.313L1979.404,869.254z"/>
		<path clip-path="url(#SVGID_2_)" fill="#FFFFFF" d="M1699.807-5.417c0,0,36.342,48.508-16.682,58.566
			c0,0-19.66,0.591-28.002-3.551c-8.342-4.141-29.789,2.367-35.746,8.283c-5.957,5.916-75.662,28.986-117.367-10.648
			c0,0-5.361-7.099-20.256-1.183s-114.389,12.422-125.111-55.017l222.818-15.972L1699.807-5.417z"/>
	</g>
	<path fill="#F5E168" d="M95.529,692.414c0,0-4.718-1.689-1.374,10.573c0,0-0.038,2.422-3.163,4.482s-3.008-0.909-3.125,2.061
		s0,0,0,0s-0.523,1.854,3.805,2.037c0,0,2.3-1.036,2.593,3.215c0.021,0.295,0.031,0.615,0.031,0.964
		c-0.006,5.363-1.238,5.057,1.233,7.155c0,0,1.55,3.638,7.886-11.132c0,0,8.585,4.98,11.085,4.23s-6.22-10.105-6.22-10.105
		s1.97-3.895,2.22-8.395s-7.75,2.5-7.75,2.5S99.308,692.078,95.529,692.414z"/>
</g>
</svg>
