<?xml version="1.0" encoding="utf-8"?>
<!-- Generator: Adobe Illustrator 16.0.0, SVG Export Plug-In . SVG Version: 6.00 Build 0)  -->
<!DOCTYPE svg PUBLIC "-//W3C//DTD SVG 1.1//EN" "http://www.w3.org/Graphics/SVG/1.1/DTD/svg11.dtd">
<svg version="1.1" id="Layer_1" xmlns="http://www.w3.org/2000/svg" xmlns:xlink="http://www.w3.org/1999/xlink" x="0px" y="0px"
	 width="805px" height="1841px" viewBox="0 0 805 1841" enable-background="new 0 0 805 1841" xml:space="preserve">
<g>
	<rect x="0.196" y="-0.032" fill="#C2D3EC" width="804.704" height="1841.231"/>
	<g>
		<polygon fill="#C2D3EC" points="326.501,-0.199 326.501,473.616 405.123,433.502 537.01,430.064 804.9,477.928 804.9,-0.199 		"/>
		<path fill="#4274B9" d="M19.733-0.199v473.792l2.232,0.444l101.947-33.371V-0.199C81.762-0.199,45.867-0.199,19.733-0.199z"/>
		<path fill="#3060AC" d="M123.913-0.139v440.825l200.917,33.129l0.827-0.422V-0.139C252.632-0.139,182.279-0.139,123.913-0.139z"/>
		<path fill="#678EC9" d="M324.831,473.816c0,0,66.973-33.451,66.973-35.504s0-438.511,0-438.511h-66.146L324.831,473.816z"/>
		<path fill="#EE827A" d="M417.393,458.48C406.051,312.188,437.451,27.655,440.586-0.139h132.375
			c-7.881,144.085,21.016,457.561,21.016,457.561c-13.719,4.983-53.998,5.931-89.898-4.507
			c-35.902-10.439-57.596-2.373-57.596-2.373L417.393,458.48z"/>
		<path fill="#EC7267" d="M477.49-0.139h44.656c0,0-0.326,28.21,5.281,78.384c6.682,59.784-6.635,124.017-2.627,153.814
			c0.469,3.483-13.748,202.041-9.369,223.76c0,0-22.266-6.531-33.475-7.459c-18.443-1.528-24.963-0.066-24.963-0.066
			s19.619-40.047,18.744-108.708C474.861,270.924,460.852,55.288,477.49-0.139z"/>
		<path fill="#EC7267" d="M417.393,458.48C406.051,312.188,437.451,27.655,440.586-0.139h-52.385c0,0,5.126,33.094-8.207,103.761
			s-7.333,155.333-3.5,168.335s11.707,125.679,11.707,125.679c2.627,17.319,6.13,40.094-5.837,54.329l-5.87,9.063
			C382.328,467.438,417.393,458.48,417.393,458.48"/>
		<polygon fill="#2F61AC" points="22.026,474.038 0.446,469.742 0.446,-0.199 22.026,-0.199 		"/>
	</g>
	<g>
		<path fill="#EE827A" d="M116.776,1717.67c-0.848,0-1.661,0.012-2.465,0.025c-0.805-0.014-1.618-0.025-2.466-0.025
			c-32.667,0-30.51,11.756-30.51,11.756l12.944,54.096l12.594,2.447l6.307,1.666l1.13-0.221l1.13,0.221l6.307-1.666l12.594-2.447
			l12.944-54.096C147.286,1729.426,149.443,1717.67,116.776,1717.67z"/>
		<path fill="#EC7267" d="M135.731,1777.826l-1.906,9.809c0,0-6.081,4.744-20.602,4.744s-18.061-4.744-18.061-4.744l-2.271-9.809
			c0,0,6.627,6.012,21.603,6.012C129.468,1783.838,135.731,1777.826,135.731,1777.826z"/>
		<path fill="#EC7267" d="M146.097,1734.34l-2.207,9.271c0,0-10.336,6.98-31.871,6.98c-21.534,0-27.16-6.438-27.16-6.438l-2.3-9.611
			c0,0,9.138,7.508,31.346,7.508C136.111,1742.051,146.097,1734.34,146.097,1734.34z"/>
		<path fill="#EE827A" d="M143.723,1729.49c0-9.213-28.81-9.598-28.81-9.598s-0.375,0.021-1.011,0.066
			c-0.637-0.045-1.011-0.066-1.011-0.066s-28.81,0.385-28.81,9.598c0,7.059,18.397,8.611,26.996,8.951
			c0.824,0.066,1.309,0.098,1.309,0.098s0.562,0.002,1.517-0.016c0.955,0.018,1.517,0.016,1.517,0.016s0.483-0.031,1.309-0.098
			C125.326,1738.102,143.723,1736.549,143.723,1729.49z"/>
		<path fill="#264A55" d="M146.986,1671.064c1.943,2.406-2.153,7.131-3.004,9.371c-1.313,3.455-2.682,6.891-4.14,10.289
			c-3.561,8.301-7.56,16.844-12.897,24.328c-0.516,0.723-2.944,2.936-2.985,3.721c0,0,1.553-29.051,1.562-29.207
			c0.135-2.426,4.689-4.475,6.37-5.678c3.527-2.525,6.808-5.598,9.985-8.547c1.678-1.559,2.917-3.357,5.017-4.385
			C146.926,1670.992,146.957,1671.027,146.986,1671.064z"/>
		<path fill="#1C3749" d="M132.689,1637.404c0.981,0.199,1.823,2.096,2.281,3.16c0.835,1.939,1.389,3.99,2.014,6.002
			c1.946,6.268,2.649,13.299,2.01,19.816c-0.434,4.428-1.548,8.742-3.301,12.834c-0.003,0.006-6.643,15.5-6.643,15.5
			s-6.327,6.014,0-18.662c1.676-6.537,2.551-13.24,2.843-19.977c0.197-4.545-1.258-8.986-1.08-13.518
			c0.049-1.262-0.062-3.408,0.682-4.471C131.905,1637.506,132.308,1637.328,132.689,1637.404z"/>
		<path fill="#264A55" d="M99.491,1573.652c0.279,0.063,0.581,0.182,0.909,0.357c1.833,0.992,2.636,4.398,3.58,6.102
			c1.465,2.645,2.816,5.355,4.045,8.119c2.378,5.346,4.343,10.889,5.768,16.566c0.947,3.771,1.7,7.861,1.736,11.764
			c0.128,13.65,0.987,27.279,1.513,40.918c0.147,3.822,0.269,7.648,0.341,11.475c0.106,5.611,0.2,11.232-0.195,16.836
			c-0.174,2.471-0.052,4.432-1.674,6.41c-0.417,0.51-3.5,3.154-3.378,3.725c-1.471-7.264-3.015-14.514-4.493-21.775
			c-2.878-14.143-5.379-28.35-7.776-42.578c-1.208-7.174-2.422-14.467-2.739-21.781c-0.318-7.328,0.521-14.682-0.235-21.994
			c-0.381-3.689-1.132-8.098-0.078-11.727C97.121,1575.012,98.047,1573.322,99.491,1573.652z"/>
		<path fill="#264A55" d="M128.708,1649.813c0.902,0.482,0.455,2.162,0.397,2.781c-0.108,1.152-0.205,2.307-0.303,3.459
			c-0.271,3.172-0.521,6.344-0.708,9.518c-0.214,3.605-0.38,7.211-0.434,10.818c-0.05,3.313-0.021,6.631,0.244,9.938
			c0.17,2.113,0.525,4.133,1.227,6.188c0.763,2.23,1.625,4.449,1.701,6.771c0.078,2.408-0.311,4.814-0.813,7.189
			c-1.152,5.441-2.994,10.988-5.972,16.025c-1.014,1.717-2.134,3.398-3.419,5.004c-1.069,1.338-2.15,2.99-4.035,3.766
			c-2.385,0.982-4.147-0.838-5.531-2.031c-1.844-1.592-3.495-3.211-4.535-5.199c-1.513-2.893-2.595-5.965-3.518-8.992
			c-0.819-2.688-1.364-5.42-1.763-8.16c-0.174-1.199-0.789-2.342-1.101-3.52c-0.158-0.598-0.29-1.213-0.22-1.826
			c0.188-1.512,1.209-0.984,2.599-0.775c1.142,0.172,2.322,0.107,3.478,0.086c6.134-0.113,5.433-6.4,5.461-9.619
			c0.012-1.443,0.391-2.863,0.671-4.285c0.585-2.973,1.253-5.936,2.043-8.881c0.982-3.658,2.136-7.291,3.428-10.891
			c1.286-3.582,2.655-7.195,4.687-10.578c0.924-1.539,2.13-2.975,3.176-4.467c0.492-0.701,1.426-2.529,2.754-2.445
			C128.417,1649.697,128.577,1649.742,128.708,1649.813z"/>
		<path fill="#1C3749" d="M82.837,1627.826c0.353,2.139,0.947,4.258,1.201,5.842c0.966,6.016,2.305,11.963,3.781,17.871
			c3.386,13.539,8.033,26.707,14.697,38.998c2.177,4.014,4.561,7.918,7.227,11.627c0.98,1.361,1.79,2.846,2.847,4.166
			c3.348,4.172,3.384-5.17,3.104-7.014c-1.078-7.08-3.331-13.963-6.285-20.473c-3.25-7.16-5.644-14.732-8.299-22.123
			c-3.612-10.051-7.833-19.76-11.829-29.648c-0.687-1.699-3.241-9.686-5.766-5.99C82.341,1622.801,82.425,1625.326,82.837,1627.826z
			"/>
	</g>
	<g>
		<path fill="#FFFFFF" d="M804.9,240.079c0,0-9.742,12.912-13.357,12.912l13.367,12.921L804.9,240.079z"/>
		<path fill="#729BD1" d="M737.293,215.154c0,0-1.008,1.446-1.008,4.09l0.264,181.262c0,0,0.518,1.754-9.814,14.755l-78.605,106.846
			c0,0-2.281,2.884,0,5.166s5.08,0.345,5.08,0.345l82.535-113.407c0,0,0.689-0.861,1.291-0.173c0.604,0.689,0.518,1.378,0.518,1.378
			l-0.361,72.425c0,0-0.451,4.339,3.598,4.501c3.996,0.161,3.463-4.124,3.463-4.124l-0.744-73.797c0,0,0.775-2.411,2.152-0.259
			c1.379,2.153,59.24,74.417,59.24,74.417v-12.292l-60.258-72.218c0,0-0.859-0.689-0.859-3.014l-0.18-180.371
			c0,0,0.086-2.325,0.602-3.703l-1.457-1.828"/>
		<circle fill="#2950A0" cx="740.917" cy="215.541" r="3.603"/>
		<path fill="#3160AB" d="M804.9,313.086v-6.887l-153.424-9.471c0,0-6.816,14.434,34.184,15.184
			C685.66,311.912,751.41,315.412,804.9,313.086z"/>
		<path fill="#8FB0DC" d="M804.9,293.456c0,0-150.811-6.794-153.424,3.272c-3.316,12.767,153.424,9.471,153.424,9.471V293.456z"/>
		<polyline fill="#FFFFFF" points="804.9,240.079 804.9,266.318 791.543,253.198 		"/>
		<rect x="773.148" y="261.6" fill="#98B7E0" width="31.762" height="35.128"/>
		<path fill="#2950A0" d="M755.271,249.09v-2.178c0,0-0.053-1.375,1.072-2.125s15.313-11.313,15.313-11.313s0.785-0.688,1.299,0
			s-0.051,1.163-0.051,1.163l-15.186,11.025c0,0-0.756,0.532-0.928,1.253l-0.01,2.175H755.271z"/>
		<polygon fill="#2550A1" points="759.182,247.998 730.213,247.998 724.215,247.998 730.414,296.728 731.637,296.728 
			757.758,296.728 758.98,296.728 765.18,247.998 		"/>
	</g>
	<g>
		<path fill="#2950A0" d="M115.688,495.292v-9.836l-12.229,0.186c-14.214-3.943-35.748-3.445-35.748-3.445
			s-23.782-0.01-37.858,4.563l-10.119,0.153v8.38c0,11.604,31.521,14.951,47.977,14.951c16.383,0,47.692-3.321,47.964-14.803
			C115.697,495.344,115.688,495.292,115.688,495.292z"/>
		<path fill="#4274B9" d="M67.71,473.816c0,0-47.977-0.02-47.977,13.096c0,11.604,31.521,14.951,47.977,14.951
			c16.455,0,47.977-3.348,47.977-14.951C115.688,472.706,67.71,473.816,67.71,473.816z"/>
		<polygon fill="#FFFFFF" points="0.446,83.996 195.586,61.88 195.586,67.831 0.446,91.127 		"/>
		<path fill="#6A95CE" d="M242.349,97.564l-1.9-13.189c-0.844-6.226-5.909-7.914-5.909-7.914s-10.868-4.959-12.24-5.592
			s-1.477-1.688-1.477-1.688V63.8l-9.074-1.794l-9.074,1.794v5.382c0,0-0.106,1.055-1.478,1.688
			c-1.372,0.633-12.24,5.592-12.24,5.592s-5.064,1.688-5.909,7.914l-1.898,13.189c0,0-0.422,18.044,30.599,19.732
			C242.77,115.608,242.349,97.564,242.349,97.564z"/>
		<path fill="#2950A0" d="M212.004,60.74c-9.563,0-9.375,3.012-9.375,3.012h-7.043v0.986v0.188v0.986h7.043
			c0,0-0.188,3.012,9.375,3.012c8.921,0,9.03-3.607,9.004-4.091C221.034,64.347,220.926,60.74,212.004,60.74z"/>
		<path fill="#3060AC" d="M201.754,60.987"/>
		<rect x="209.083" y="50.566" fill="#3C6DB4" width="5.327" height="13.786"/>
		<path fill="#FFFFFF" d="M209.154,50.064c0,0-0.782,1.896,2.678,1.896c3.459,0,2.455-1.896,2.455-1.896s-0.051-0.893-2.536-0.893
			S209.154,50.064,209.154,50.064z"/>
		<path fill="#3C6DB4" d="M209.154,63.85c0,0-0.782,1.896,2.678,1.896c3.459,0,2.455-1.896,2.455-1.896s-0.051-0.893-2.536-0.893
			S209.154,63.85,209.154,63.85z"/>
		<path fill="#3060AC" d="M70.619,475.221l-0.026,0.005l1.354-384.081h-7.252v385.325v1.458v6.876h0.007l0.003,0.192
			c-0.002,0.022-0.01,0.043-0.01,0.065c0,0.03,0.01,0.059,0.012,0.089l0.001,0.088h0.011c0.124,0.899,1.159,1.619,2.497,1.754
			l0.008,0.03l0.009-0.029c0.142,0.014,0.284,0.029,0.431,0.029c1.508,0,2.741-0.745,2.932-1.706h0.013v-0.083
			c0.008-0.058,0.026-0.113,0.026-0.172l-0.017-0.684V475.221z"/>
		<path fill="#2950A0" d="M76.465,80.438c1.529-8.566-8.146-8.925-8.146-8.925s-9.868,0.276-8.144,8.925
			c0,0,0.331,3.201,3.568,5.226l0.002,3.365c0,0-0.558,3.348,2.12,3.348h2.454h2.455c2.677,0,2.12-3.348,2.12-3.348l0.002-3.365
			C76.135,83.639,76.465,80.438,76.465,80.438z"/>
	</g>
	<g>
		<path fill="#204D9F" d="M192.995,375.038c0,0,0.814-12.718,3.665-25.295c2.851-12.578,4.887-26.695,4.887-26.695
			s1.493,1.357-1.765,19.412c0,0-5.294,18.869-4.072,21.855c0,0,1.021,3.122,1.732-3.529s12.474-58.026,22.407-74.555v2.61
			c0,0-13.144,36.515-16.809,51.176c0,0-4.887,22.805-5.294,27.556c0,0-0.814,7.059-2.037,9.094c-1.222,2.037,0.68,0.95,2.715-4.886
			c2.036-5.837,10.995-24.162,32.985-38.008l14.796-9.231v1.629l-18.054,12.081c0,0-16.968,11.131-26.742,31.629l-5.159,12.624
			l-6.243-3.394c0,0-2.308-10.724-7.874-26.063c0,0-2.579-6.651-5.022-19.683c-2.443-13.031-23.619-68.958-42.623-92.713v-2.172
			c0,0,10.723,12.353,17.646,27.421c6.923,15.067,18.325,38.958,22.669,54.026c4.343,15.068,16.424,55.112,16.424,55.112
			S191.773,377.345,192.995,375.038z"/>
		<path fill="#204D9F" d="M167.475,395.891l2.851,68.33c0,0-0.272,3.801,23.823,3.801s23.687-3.666,23.687-3.666l2.851-67.736
			L167.475,395.891z"/>
		<path fill="#77A1D5" d="M194.081,391.329c0,0-26.606-0.24-26.606,4.563s26.606,4.802,26.606,4.802s26.605,0,26.605-4.802
			S194.081,391.329,194.081,391.329z"/>
		<path fill="#1E4D9F" d="M241.029,242.938c4.632-11.338,14.661-34.207,14.661-34.207c-3.529,4.724-7.33,8.959-7.33,8.959
			c0.301-3.735,0-7.058,0-7.058c-5.158,6.516-20.904,42.542-20.904,42.542c1.356-10.125,0-28.425,0-28.425
			c-13.033,40.724-8.146,64.886-8.146,64.886c4.888-11.402,28.507-35.803,28.507-35.803s-1.086,0.238,0.814,7.84
			c1.9,7.601-2.986,23.619-2.986,23.619c13.846-25.791,8.688-32.117,8.688-32.117l5.43,3.882
			c13.303,8.145,9.502,26.876,9.502,26.876c4.615-12.76-4.072-25.248-4.072-25.248c8.959,2.715,21.72,20.633,21.72,20.633
			s2.443,2.986,0-1.9c-2.444-4.887-24.706-26.606-29.906-28.235c-5.2-1.629,0-2.986,0-2.986l7.372,0.543
			c22.53,5.193,31.221,2.443,31.221,2.443c-27.414-5.457-33.437-8.061-33.437-8.061c5.701-3.258,17.891-15.015,17.891-15.015
			l6.045-5.973l-4.344,1.629l4.344-5.973l-22.769,15.81c0,0-12.583,9.146-14.833,10.521S239.283,247.213,241.029,242.938z"/>
		<path fill="#2B52A2" d="M194.148,392.685c0,0-22.873-0.136-22.873,2.579c0,2.714,22.873,2.714,22.873,2.714s22.873,0,22.873-2.714
			C217.021,392.548,194.148,392.685,194.148,392.685z"/>
		<path fill="#1D4B9E" d="M187.836,376.225c0,0,2.444,3.123,1.765,17.337v4.416h5.973c0,0,0.272-7.107,2.443-7.646
			c0,0-2.714-1.076-1.765-4.63c0.951-3.554,1.07-6.708,2.833-10.129l-3.647,2.699C195.438,378.271,187.43,375.428,187.836,376.225z"
			/>
		<path fill="#204D9F" d="M306.749,364.177c-3.257-24.434-22.805-30.134-22.805-30.134c8.376,0.373,20.581,6.871,27.426,10.919
			c4.065,2.768,6.624,4.78,6.624,4.78c-38-43.547-71.788-25.202-71.788-25.202c-4.615,11.131,8.959,25.202,8.959,25.202
			c-0.814-3.305-0.271-4.025-0.271-4.025c2.714-6.516,1.086-16.29,1.086-16.29l6.516,7.602c5.973,3.258,11.403,15.204,11.403,15.204
			c2.171-0.814-3.258-13.303-3.258-13.303c7.874,4.344,8.688,23.077,8.688,23.077c2.986,5.158,2.037,13.031,2.037,13.031
			c5.836-10.588,2.579-27.874,2.579-27.874c7.872,2.261,16.017,22.716,16.017,22.716c-0.542-19.548-15.203-28.506-15.203-28.506
			C298.061,345.174,306.749,364.177,306.749,364.177z"/>
		<path fill="#1E4D9F" d="M161.521,231.228c0,0-7.873-2.444-9.229-7.06c-1.357-4.615-11.131-2.172-19.276,5.159
			c0,0-13.303-1.901-19.275,1.901c0,0-14.118-9.774-30.95-7.06c0,0-35.835,0.543-38.551,5.159c0,0,8.417-2.987,9.231,0.542
			c0,0-8.688,3.53-9.231,5.702c-0.542,2.171,21.448-6.875,21.448-6.875l10.859,2.531l-31.221,20.938l14.389-6.82
			c0,0-3.257,6.896-3.257,6.163s13.031-12.136,15.474-12.136l-17.918,24.705l20.633-24.434c0,0,2.172-2.715,7.874-2.715
			s10.045,0.815,10.045,0.815s-14.661,4.615-15.475,9.773l-4.887,14.117c0,0,9.23-22.262,27.013-22.533
			c0,0-3.937,14.66-2.036,28.777c0,0,0.533-24.162,5.697-29.32c0,0,3.534-5.43,1.633,4.072c0,0-1.357,5.158,0,7.331
			c0,0,0.543-10.86,5.43-11.674l4.887-0.815c0,0-1.629,10.656-0.272,14.694c0,0,1.629-6.983,2.444-0.658l4.615-12.136
			c0,0,1.085-4.344,5.43-2.444c0,0,4.615-0.271,9.773,6.787c0,0-1.901-5.701,1.629-6.515l3.53-0.815c0,0,4.343-1.899,5.701-4.615
			c0,0,2.986,2.172,9.773,0C157.449,231.77,156.906,230.684,161.521,231.228z"/>
	</g>
	<g>
		<path fill="#EE827A" d="M0.446,862.418l435.886,6.475l29.191,41.528c0,0,4.76,2.897,0.76,20.118
			c-4,17.219-22.695,189.781-22.695,189.781s-2.553,9.801-15.678,11.26l-427.464-2V862.418z"/>
		<path fill="none" stroke="#F6E2EE" stroke-miterlimit="10" d="M409.332,1165.717"/>
		<path fill="#3060AC" d="M0.446,1154.373c0,0,417.712,0.611,419.329-0.574s3.699-22.752,3.699-22.752l-423.028-0.508V1154.373z"/>
		<polygon fill="#EC7267" points="66.549,955.813 0.446,998.242 0.089,947.223 		"/>
		<polygon fill="#204D9F" points="419.711,1130.121 418.984,1130.121 403.256,1130.121 409.732,1167.262 418.984,1167.262 
			419.711,1167.262 428.963,1167.262 435.439,1130.121 		"/>
		<path fill="#EE827A" d="M437.832,1130.381l-35.14,0.641l2.218-51.973l2.326-190.759v-17.635c0-2.483,2.625-2.388,2.625-2.388h3.25
			c0,0,9.012,0,16.18,0c3.773,0,7.035,0,8.199,0c1.744,0,2.986,0.867,3.781,1.705l1.104,1.548l21.514,30.187
			c8.242,11.566,7.133,21.279,7.133,21.279l-25.023,192.486C445.998,1115.473,444.787,1130.381,437.832,1130.381z"/>
		<polygon fill="#DB6861" points="0.455,878.747 397.759,885.855 407.439,886.735 407.984,877.872 0.446,871.082 		"/>
		<path fill="#EC7267" d="M407.984,877.872l-7.551,9.778c0,0-5.773,1.223-8.593,57.366v111.855l13.019,23.389l22.635-157.971
			C427.494,922.289,427.494,894.956,407.984,877.872z"/>
		<path fill="#EE827A" d="M86.789,953.291l-69.734,38.215c0,0-15.313,6.748-12.801,20.584l0.761,20.191
			c0,0-2.501,12.52,23.339,17.428c25.842,4.906,178.765,9.002,178.765,9.002l185.829,6.623l-0.487-29.357l-0.437-67.592
			c0,0,4.914-10.932-18.458-10.051c-23.37,0.883-271.256-9.242-271.256-9.242S90.644,951.178,86.789,953.291z"/>
		<path fill="#EC7267" d="M3.552,1008.33c1.264-2.908,4.802-3.818,7.629-2.082c2.125,1.307,10.834,2.457,17.036,3.105
			c0,0,295.98,21.305,335.864,15.326c0.219-0.031,0.436-0.055,0.658-0.064l14.312-0.539c0.638-0.023,1.27,0.057,1.875,0.236
			c2.803,0.826,11.861,2.75,15.203-5.66c3.973-10.006,4.613-9.098,2.307-4.549c-1.829,3.605-2.044,33.336-2.056,45.518
			c-0.003,2.813-2.591,5.061-5.667,4.926l-227.667-9.973c-0.165-0.008-0.329-0.021-0.492-0.043l-113.626-10.564
			c-0.478-0.063-13.617-1.865-14.058-2.041l-28.216-7.9c-1.886-0.748-3.128-2.418-3.2-4.297L3.552,1008.33z"/>
		<path fill="#DB6861" d="M392.274,1057.65c0,0-208.982-5.824-268.541-12.414c0,0-16.078-2.83-26.155,0.336
			c0,0-10.641,2.541-15.504-1.627c-4.864-4.17-21.11-9.006-33.48-4.186l-19.591-4.086c-0.119,0.012-0.232,0.021-0.351,0.033
			c-0.678,0.063-2.341,0.205-4.608,0.336c-13.908,0.604-19.09-3.09-19.09-3.09c-1.707,5.498,5.692,10.586,5.692,10.586
			s15.199,7.305,30.601,8.838c21.204,2.111,81.479,2.258,210.513,7.928c8.342,0.367,123.108,7.613,123.108,7.613
			s16.058,13.662,20.736,14.139c7.164,0.732,9.255-1.797,9.255-1.797S396.494,1063.49,392.274,1057.65z"/>
	</g>
	<g>
		<path fill="#E18080" d="M497.049,1135.49c0-23.73,0-34.482,0-34.482s0.447-7.631,16.895-7.631c16.445,0,16.867,7.631,16.867,7.631
			v34.852c0,0,1.299,19.281-14.965,19.281h-3.807c-16.264,0-14.965-19.281-14.965-19.281v-34.852c0,0,0.422-7.631,16.869-7.631
			c16.445,0,16.893,7.631,16.893,7.631s0,10.752,0,34.482"/>
		<path fill="#D77A76" d="M513.943,1104.109c0,0,16.893-0.398,16.893-3.998c0-6.217-16.893-6.734-16.893-6.734
			s-16.869-0.137-16.869,6.734C497.074,1104.705,513.943,1104.109,513.943,1104.109z"/>
		<path fill="#16394F" d="M562.182,1009.676c-0.32,1.18-0.693,2.34-1.035,3.436c-0.447,1.443-0.895,2.881-1.236,4.354
			c-1.357,5.855-2.357,11.824-2.869,17.814c-0.309,3.605-0.559,7.365-0.184,10.979c0.217,2.109-0.469,4.127-1.396,6.008
			c-3.076,6.234-9.109,10.176-15.336,12.801c-2.199,0.928-4.449,1.729-6.691,2.545c-1.613,0.586-3.227,1.152-4.867,1.658
			c-1.293,0.398-2.836,0.707-3.885,1.621c-1.389,1.213-1.439,3.732-1.848,5.426c-0.543,2.244-1.082,4.488-1.621,6.734
			c-1.195,4.973-2.318,9.975-3.223,15.01c-0.072,0.406-0.809,5.885-0.779,5.883c-0.002,0-2.445,0.139-2.445,0.139
			c0.564-2.699,1.123-5.4,1.689-8.1c1.064-5.061,2.094-10.127,3.154-15.188c0.584-2.783,1.633-5.791,1.734-8.627
			c0.078-2.148-1.064-2.486-2.65-3.475c-2.398-1.5,0.297-6.684,0.941-8.6c0.791-2.346,1.688-4.652,2.613-6.947
			c0.531-1.316,1.584-2.893,1.211-4.363c0.041,0.158,7.232-3.535,7.838-3.967c3.453-2.459,6.279-5.73,8.355-9.41
			c1.551-2.746,2.666-5.682,3.416-8.744c1.305-5.318,3.529-10.283,6.771-14.693c2.262-3.078,4.902-5.369,7.781-7.824
			c0.592-0.506,1.18-0.969,1.889-1.301c0.797-0.373,2.633-1.398,3.217-0.383c0.35,0.604,0.266,2.088,0.238,2.762
			C562.902,1006.676,562.584,1008.191,562.182,1009.676z"/>
		<path fill="#1C3749" d="M487.676,987.699c-1.406,0.41-1.641,2.646-1.889,3.822c-0.656,3.121-1.463,6.232-2.215,9.332
			c-1.432,5.908-2.34,11.932-2.869,17.982c-0.65,7.441-0.803,14.969-0.174,22.416c0.674,7.963,2.391,15.859,5.959,23.053
			c3.832,7.727,9.572,14.166,15.547,20.293c0.662,0.68,1.436,1.832,2.254,2.299c0,0,5.08,2.902,3.99-5.08l1.816-8.344
			c0,0,4.354-11.25-6.17-26.127c0,0-2.539-1.814-3.99-18.141c-0.631-7.088-1.785-14.164-3.365-21.1
			c-1.309-5.746-2.586-12.189-5.561-17.355c-0.539-0.938-1.252-2.26-2.201-2.828C488.371,987.66,487.998,987.605,487.676,987.699z"
			/>
		<path fill="#264A55" d="M532.152,1002.197c-1.963-1.807-4.561,3.121-5.211,4.32c-2.01,3.713-4.268,7.248-6.338,10.92
			c-0.887,1.57-1.697,3.188-2.344,4.871c-1.088,2.826-2.686,5.674-5.016,7.67c-0.715,0.611-1.57,1.279-2.422,1.686
			c-1.768,0.844-3.088,1.664-3.932,3.518c-0.773,1.697-1.014,3.592-1.377,5.406c-1.508,7.521-1.18,15.537-0.408,23.127
			c0.219,2.152,0.484,4.299,0.766,6.443c0.326,2.473,0.725,4.938,1.141,7.396c0.23,1.352,0.465,2.701,0.703,4.049
			c0.191,1.078,0.082,4.838,1.947,4.65c1.625-0.164,2.34-4.324,2.617-5.508c0.559-2.389,0.945-4.844,1.262-7.273
			c1.822-3.303,4.238-7.324,7.428-9.443c1.008-0.67,2.906-0.893,3.695-1.756c2.068-2.268,2.938-5.746,3.758-8.623
			c0.955-3.342,1.658-6.75,2.264-10.172c0.467-2.648,0.887-5.305,1.314-7.959c1.273-7.893,2.014-15.85,1.83-23.852
			c-0.041-1.746-0.139-3.506-0.443-5.229C533.197,1005.365,533.07,1003.045,532.152,1002.197z"/>
		<path fill="#264A55" d="M514.773,1104.135c0,0-6.965-6.287-6.004-23.555c0,0,2.414-4.205,2.414-3.117s-2.504,18.867,6.375,26.533
			L514.773,1104.135z"/>
		<polygon fill="#264A55" points="513.119,1104.082 501.469,1084.863 498.93,1082.686 510.66,1104.135 		"/>
		<path fill="#264A55" d="M489.393,1073.979c-1.617-0.453-2.898-1.525-3.91-2.836c-0.762-0.982-0.787-2.266-1.824-3.082
			c-1.51-1.184-1.678,0.701-1.676,1.783c0.006,3.451,2.131,6.426,4.404,8.834c2.328,2.465,5,4.906,8.189,6.186
			c0,0,7.557,3.035,7.084,0.363C501.66,1085.227,502.354,1077.605,489.393,1073.979z"/>
		<path fill="#1C3749" d="M505.66,1086.326c0,0,8.5,16.467,7.459,17.756c0,0,1.346,0.139,2.719,0c0,0-7.752-14.604-8.387-18.152
			c-0.027-0.15-0.041-0.281-0.041-0.391C507.41,1082.873,505.66,1086.326,505.66,1086.326z"/>
		<path fill="#16394F" d="M587.107,1070.545c-0.416-1.049-2.371-1.611-3.355-1.879c-2.971-0.801-6.031-1.137-9.107-1.35
			c-3.055-0.211-6.127-0.305-9.146-0.617c-3.637-0.375-7.135-1.66-10.771-1.99c-3.52-0.318-6.754,0.857-9.807,2.514
			c-1.74,0.943-3.416,2.014-5.064,3.111c-2.934,1.951-6.031,3.467-9.383,4.559c-3.354,1.092-6.355,1.287-9.102,3.738
			c-1.232,1.1-2.307,2.406-3.375,3.66c-2.348,2.754-4.654,6.127-4.889,9.859c-0.127,2.035,0.666,4.385,1.891,6.016l0.006,0.033
			l0.84,1.111c1.527,2.336,3.389,4.488,3.389,4.488l2.178-0.219c-5.805-4.346-6.801-7.707-6.709-9.654
			c0.648-1.465,2.711-2.625,7.543-2.723c13.813-0.281,22.602-4.977,22.602-4.977c4.777-2.412,10.85-4.213,16.217-3.785
			c2.832,0.225,5.863,2.527,8.693,1.381c1.348-0.547,2.641-1.42,3.871-2.189c2.539-1.594,4.352-4.018,6.822-5.701
			c1.449-0.986,2.984-1.795,4.525-2.623C585.924,1072.799,587.641,1071.896,587.107,1070.545z"/>
	</g>
	<g>
		<polygon fill="#678EC9" points="714.4,1550.49 737.332,1550.471 687.248,1515.418 683.434,1515.418 169.397,1515.418 
			165.584,1515.418 115.5,1550.471 138.431,1550.49 138.431,1551.018 426.416,1550.754 714.4,1551.018 		"/>
		<path fill="#264186" d="M667.566,1765.482h69.623c0,0,6.039-0.52,6.039,6.107c0,5.791-6.039,5.619-6.039,5.619h-69.623V1765.482z"
			/>
		<path fill="#637FBE" d="M668.633,1777.211h72.643c0,0,3.018-0.002,3.018,2.547c0,2.527-2.93,2.344-2.93,2.344h-72.73V1777.211z"/>
		<path fill="#EB6954" d="M669.699,1798.109h72.641c0,0,3.02-0.006,3.02,3.596c0,3.566-2.932,3.307-2.932,3.307h-72.729V1798.109z"
			/>
		<path fill="#FFFCFD" d="M673.25,1782.104h53.994c0,0,6.748-0.512,6.748,8.168c0,8.672-7.814,7.814-7.814,7.814H673.25V1782.104z"
			/>
		<rect x="722.98" y="1782.104" fill="#494647" width="1.777" height="15.982"/>
		<rect x="718.207" y="1782.104" fill="#494647" width="1.777" height="15.982"/>
		<rect x="685.416" y="1782.104" fill="#494647" width="3.465" height="15.982"/>
		<rect x="680.711" y="1782.104" fill="#494647" width="3.463" height="15.982"/>
		<path fill="#EB6C5C" d="M706.896,1765.578l14.375-7.895c0.32-0.178,0.439-0.582,0.262-0.904l-34.408-62.648
			c-0.176-0.322-0.578-0.439-0.9-0.264l-14.377,7.896c-0.32,0.176-0.438,0.58-0.262,0.9l34.408,62.652
			C706.172,1765.637,706.574,1765.754,706.896,1765.578z"/>
		
			<rect x="685.206" y="1703.169" transform="matrix(-0.4812 -0.8766 0.8766 -0.4812 -483.4519 3137.9426)" fill="#FFFFFF" width="3.28" height="17.729"/>
		
			<rect x="706.795" y="1742.475" transform="matrix(-0.4814 -0.8765 0.8765 -0.4814 -485.5137 3215.4297)" fill="#FFFFFF" width="3.278" height="17.73"/>
		
			<rect x="709.302" y="1747.045" transform="matrix(-0.4814 -0.8765 0.8765 -0.4814 -485.8035 3224.397)" fill="#FFFFFF" width="3.278" height="17.729"/>
		<path fill="#678EC9" d="M180.059,1555.125v245.912c0,0-1.233,5.75,4.929,5.75c6.162,0,17.663,0,17.663,0s5.34,1.234,4.108-11.912
			c-1.232-13.145,0.343-240.092,0-239.75C206.417,1555.469,180.059,1555.125,180.059,1555.125z"/>
		<path fill="#496EB4" d="M246.603,1555.125l-0.465,168.277c0,0,0.465,14.377-6.107,23.824l-29.987,57.508
			c0,0-2.464,2.053-9.652,2.053l3.081-33.682l27.523-47.648v-170.332H246.603z"/>
		<path fill="#678EC9" d="M608.488,1555.125v171.563c0,0,0,9.859,3.285,16.432c3.287,6.572,32.041,59.15,32.041,59.15
			s2.053,4.107,5.75,4.107s15.609,0,15.609,0s5.34-0.588,5.34-6.572c0-9.447,0-244.68,0-244.68h-23.824l-1.232,217.158
			l-27.521-46.004l0.822-171.154H608.488z"/>
		<g>
			<path fill="#2C2C2C" d="M256.694,1536.309c0,0-1.742,0.688-1.597-3.338c0.18-5-0.888-9.797-9.14-9.797
				c-8.253,0-10.738,8.875-10.738,8.875l-3.418,0.006l-2.661-0.006c0,0-2.484-8.875-10.737-8.875c-8.253,0-9.533,4.809-9.14,9.797
				c0.274,3.473-1.598,3.338-1.598,3.338h-1.775v3.016c0,0,4.969,1.6,13.666,1.6s9.052-6.391,9.761-6.391c0.321,0,0.912,0,1.464,0
				c0.671,0,1.287,0,1.287,0c1.092,0,2.545,0,2.972,0c0.71,0,1.065,6.391,9.762,6.391s13.666-1.6,13.666-1.6v-3.016H256.694z"/>
			<path fill="#637FBE" d="M218.403,1525.127c0,0-8.451-0.797-7.543,9.406c0,0,0.343,4.488,6.745,4.436c0,0,9.681,1.025,9.681-5.93
				C227.286,1533.039,225.947,1525.127,218.403,1525.127z"/>
			<path fill="#2C2C2C" d="M215.83,1533.822c0,0-2.677,4.947-2.951,4.148c-0.274-0.797-3.342,2.457,0.777,2.691l-5.974-0.885
				l1.108-3.615c0,0,2.069,1.676,5.02-2.85l1.73-2.928c0,0,0.433-0.967,1.397,0C217.571,1531.018,215.83,1533.822,215.83,1533.822z"
				/>
			<path fill="#637FBE" d="M245.957,1525.127c0,0,8.204-1.047,7.543,9.406c0,0-0.256,4.475-6.745,4.436c0,0-9.47,0.9-9.47-6.055
				C237.286,1532.914,238.414,1525.127,245.957,1525.127z"/>
			<path fill="#2C2C2C" d="M248.531,1533.822c0,0,2.676,4.947,2.95,4.148c0.274-0.797,3.343,2.457-0.778,2.691l5.974-0.885
				l-1.107-3.615c0,0-2.069,1.676-5.021-2.85l-1.73-2.928c0,0-0.432-0.967-1.398,0
				C246.789,1531.018,248.531,1533.822,248.531,1533.822z"/>
		</g>
		<rect x="208.255" y="1322.811" fill="#1C3187" width="139.441" height="195.957"/>
		<rect x="217.002" y="1331.986" fill="#FDFAFB" stroke="#FFFFFF" stroke-miterlimit="10" width="120.918" height="174.945"/>
		<g>
			<g>
				<circle fill="#EBE9E2" cx="222.383" cy="1337.625" r="1.287"/>
				<circle fill="#EBE9E2" cx="229.608" cy="1337.625" r="1.287"/>
				<circle fill="#EBE9E2" cx="236.834" cy="1337.625" r="1.286"/>
				<circle fill="#EBE9E2" cx="244.058" cy="1337.625" r="1.286"/>
				<circle fill="#EBE9E2" cx="251.284" cy="1337.625" r="1.286"/>
				<circle fill="#EBE9E2" cx="258.509" cy="1337.625" r="1.286"/>
				<circle fill="#EBE9E2" cx="265.734" cy="1337.625" r="1.286"/>
				<circle fill="#EBE9E2" cx="272.959" cy="1337.625" r="1.287"/>
				<circle fill="#EBE9E2" cx="280.184" cy="1337.625" r="1.286"/>
				<circle fill="#EBE9E2" cx="287.409" cy="1337.625" r="1.286"/>
				<circle fill="#EBE9E2" cx="294.634" cy="1337.625" r="1.286"/>
				<circle fill="#EBE9E2" cx="301.859" cy="1337.625" r="1.287"/>
				<circle fill="#EBE9E2" cx="309.084" cy="1337.625" r="1.286"/>
				<circle fill="#EBE9E2" cx="316.31" cy="1337.625" r="1.286"/>
				<circle fill="#EBE9E2" cx="323.535" cy="1337.625" r="1.286"/>
				<circle fill="#EBE9E2" cx="330.759" cy="1337.625" r="1.286"/>
				<circle fill="#EBE9E2" cx="222.383" cy="1343.307" r="1.287"/>
				<circle fill="#EBE9E2" cx="229.608" cy="1343.307" r="1.287"/>
				<circle fill="#EBE9E2" cx="236.834" cy="1343.307" r="1.286"/>
				<circle fill="#EBE9E2" cx="244.058" cy="1343.307" r="1.286"/>
				<circle fill="#EBE9E2" cx="251.284" cy="1343.307" r="1.286"/>
				<circle fill="#EBE9E2" cx="258.509" cy="1343.307" r="1.286"/>
				<circle fill="#EBE9E2" cx="265.734" cy="1343.307" r="1.286"/>
				<circle fill="#EBE9E2" cx="272.959" cy="1343.307" r="1.287"/>
				<circle fill="#EBE9E2" cx="280.184" cy="1343.307" r="1.286"/>
				<circle fill="#EBE9E2" cx="287.409" cy="1343.307" r="1.286"/>
				<circle fill="#EBE9E2" cx="294.634" cy="1343.307" r="1.286"/>
				<circle fill="#EBE9E2" cx="301.859" cy="1343.307" r="1.287"/>
				<circle fill="#EBE9E2" cx="309.084" cy="1343.307" r="1.286"/>
				<circle fill="#EBE9E2" cx="316.31" cy="1343.307" r="1.286"/>
				<circle fill="#EBE9E2" cx="323.535" cy="1343.307" r="1.286"/>
				<circle fill="#EBE9E2" cx="330.759" cy="1343.307" r="1.286"/>
				<circle fill="#EBE9E2" cx="222.383" cy="1348.988" r="1.287"/>
				<circle fill="#EBE9E2" cx="229.608" cy="1348.988" r="1.287"/>
				<circle fill="#EBE9E2" cx="236.834" cy="1348.988" r="1.286"/>
				<circle fill="#EBE9E2" cx="244.058" cy="1348.988" r="1.286"/>
				<circle fill="#EBE9E2" cx="251.284" cy="1348.988" r="1.286"/>
				<circle fill="#EBE9E2" cx="258.509" cy="1348.988" r="1.286"/>
				<circle fill="#EBE9E2" cx="265.734" cy="1348.988" r="1.286"/>
				<circle fill="#EBE9E2" cx="272.959" cy="1348.988" r="1.287"/>
				<circle fill="#EBE9E2" cx="280.184" cy="1348.988" r="1.286"/>
				<circle fill="#EBE9E2" cx="287.409" cy="1348.988" r="1.286"/>
				<circle fill="#EBE9E2" cx="294.634" cy="1348.988" r="1.286"/>
				<circle fill="#EBE9E2" cx="301.859" cy="1348.988" r="1.287"/>
				<circle fill="#EBE9E2" cx="309.084" cy="1348.988" r="1.286"/>
				<circle fill="#EBE9E2" cx="316.31" cy="1348.988" r="1.286"/>
				<circle fill="#EBE9E2" cx="323.535" cy="1348.988" r="1.286"/>
				<circle fill="#EBE9E2" cx="330.759" cy="1348.988" r="1.286"/>
				<circle fill="#EBE9E2" cx="222.383" cy="1354.67" r="1.287"/>
				<circle fill="#EBE9E2" cx="229.608" cy="1354.67" r="1.287"/>
				<circle fill="#EBE9E2" cx="236.834" cy="1354.67" r="1.286"/>
				<circle fill="#EBE9E2" cx="244.058" cy="1354.67" r="1.286"/>
				<circle fill="#EBE9E2" cx="251.284" cy="1354.67" r="1.286"/>
				<circle fill="#EBE9E2" cx="258.509" cy="1354.67" r="1.286"/>
				<circle fill="#EBE9E2" cx="265.734" cy="1354.67" r="1.286"/>
				<circle fill="#EBE9E2" cx="272.959" cy="1354.67" r="1.287"/>
				<circle fill="#EBE9E2" cx="280.184" cy="1354.67" r="1.286"/>
				<circle fill="#EBE9E2" cx="287.409" cy="1354.67" r="1.286"/>
				<circle fill="#EBE9E2" cx="294.634" cy="1354.67" r="1.286"/>
				<circle fill="#EBE9E2" cx="301.859" cy="1354.67" r="1.287"/>
				<circle fill="#EBE9E2" cx="309.084" cy="1354.67" r="1.286"/>
				<circle fill="#EBE9E2" cx="316.31" cy="1354.67" r="1.286"/>
				<circle fill="#EBE9E2" cx="323.535" cy="1354.67" r="1.286"/>
				<circle fill="#EBE9E2" cx="330.759" cy="1354.67" r="1.286"/>
				<circle fill="#EBE9E2" cx="222.383" cy="1360.352" r="1.287"/>
				<circle fill="#EBE9E2" cx="229.608" cy="1360.352" r="1.287"/>
				<circle fill="#EBE9E2" cx="236.834" cy="1360.352" r="1.286"/>
				<circle fill="#EBE9E2" cx="244.058" cy="1360.352" r="1.286"/>
				<circle fill="#EBE9E2" cx="251.284" cy="1360.352" r="1.286"/>
				<circle fill="#EBE9E2" cx="258.509" cy="1360.352" r="1.286"/>
				<circle fill="#EBE9E2" cx="265.734" cy="1360.352" r="1.286"/>
				<circle fill="#EBE9E2" cx="272.959" cy="1360.352" r="1.287"/>
				<circle fill="#EBE9E2" cx="280.184" cy="1360.352" r="1.286"/>
				<circle fill="#EBE9E2" cx="287.409" cy="1360.352" r="1.286"/>
				<circle fill="#EBE9E2" cx="294.634" cy="1360.352" r="1.286"/>
				<circle fill="#EBE9E2" cx="301.859" cy="1360.352" r="1.287"/>
				<circle fill="#EBE9E2" cx="309.084" cy="1360.352" r="1.286"/>
				<circle fill="#EBE9E2" cx="316.31" cy="1360.352" r="1.286"/>
				<circle fill="#EBE9E2" cx="323.535" cy="1360.352" r="1.286"/>
				<circle fill="#EBE9E2" cx="330.759" cy="1360.352" r="1.286"/>
				<circle fill="#EBE9E2" cx="222.383" cy="1366.033" r="1.287"/>
				<circle fill="#EBE9E2" cx="229.608" cy="1366.033" r="1.287"/>
				<circle fill="#EBE9E2" cx="236.834" cy="1366.033" r="1.286"/>
				<circle fill="#EBE9E2" cx="244.058" cy="1366.033" r="1.286"/>
				<circle fill="#EBE9E2" cx="251.284" cy="1366.033" r="1.286"/>
				<circle fill="#EBE9E2" cx="258.509" cy="1366.033" r="1.286"/>
				<circle fill="#EBE9E2" cx="265.734" cy="1366.033" r="1.286"/>
				<circle fill="#EBE9E2" cx="272.959" cy="1366.033" r="1.287"/>
				<circle fill="#EBE9E2" cx="280.184" cy="1366.033" r="1.286"/>
				<circle fill="#EBE9E2" cx="287.409" cy="1366.033" r="1.286"/>
				<circle fill="#EBE9E2" cx="294.634" cy="1366.033" r="1.286"/>
				<circle fill="#EBE9E2" cx="301.859" cy="1366.033" r="1.287"/>
				<circle fill="#EBE9E2" cx="309.084" cy="1366.033" r="1.286"/>
				<circle fill="#EBE9E2" cx="316.31" cy="1366.033" r="1.286"/>
				<circle fill="#EBE9E2" cx="323.535" cy="1366.033" r="1.286"/>
				<circle fill="#EBE9E2" cx="330.759" cy="1366.033" r="1.286"/>
				<circle fill="#EBE9E2" cx="222.383" cy="1371.715" r="1.287"/>
				<circle fill="#EBE9E2" cx="229.608" cy="1371.715" r="1.287"/>
				<circle fill="#EBE9E2" cx="236.834" cy="1371.715" r="1.286"/>
				<circle fill="#EBE9E2" cx="244.058" cy="1371.715" r="1.286"/>
				<circle fill="#EBE9E2" cx="251.284" cy="1371.715" r="1.286"/>
				<circle fill="#EBE9E2" cx="258.509" cy="1371.715" r="1.286"/>
				<circle fill="#EBE9E2" cx="265.734" cy="1371.715" r="1.286"/>
				<circle fill="#EBE9E2" cx="272.959" cy="1371.715" r="1.287"/>
				<circle fill="#EBE9E2" cx="280.184" cy="1371.715" r="1.286"/>
				<circle fill="#EBE9E2" cx="287.409" cy="1371.715" r="1.286"/>
				<circle fill="#EBE9E2" cx="294.634" cy="1371.715" r="1.286"/>
				<circle fill="#EBE9E2" cx="301.859" cy="1371.715" r="1.287"/>
				<circle fill="#EBE9E2" cx="309.084" cy="1371.715" r="1.286"/>
				<circle fill="#EBE9E2" cx="316.31" cy="1371.715" r="1.286"/>
				<circle fill="#EBE9E2" cx="323.535" cy="1371.715" r="1.286"/>
				<circle fill="#EBE9E2" cx="330.759" cy="1371.715" r="1.286"/>
				<circle fill="#EBE9E2" cx="222.383" cy="1377.395" r="1.287"/>
				<circle fill="#EBE9E2" cx="229.608" cy="1377.395" r="1.287"/>
				<circle fill="#EBE9E2" cx="236.834" cy="1377.395" r="1.286"/>
				<circle fill="#EBE9E2" cx="244.058" cy="1377.395" r="1.286"/>
				<circle fill="#EBE9E2" cx="251.284" cy="1377.395" r="1.286"/>
				<circle fill="#EBE9E2" cx="258.509" cy="1377.395" r="1.286"/>
				<circle fill="#EBE9E2" cx="265.734" cy="1377.395" r="1.286"/>
				<circle fill="#EBE9E2" cx="272.959" cy="1377.395" r="1.287"/>
				<circle fill="#EBE9E2" cx="280.184" cy="1377.395" r="1.286"/>
				<circle fill="#EBE9E2" cx="287.409" cy="1377.395" r="1.286"/>
				<circle fill="#EBE9E2" cx="294.634" cy="1377.395" r="1.286"/>
				<circle fill="#EBE9E2" cx="301.859" cy="1377.395" r="1.287"/>
				<circle fill="#EBE9E2" cx="309.084" cy="1377.395" r="1.286"/>
				<circle fill="#EBE9E2" cx="316.31" cy="1377.395" r="1.286"/>
				<circle fill="#EBE9E2" cx="323.535" cy="1377.395" r="1.286"/>
				<circle fill="#EBE9E2" cx="330.759" cy="1377.395" r="1.286"/>
				<circle fill="#EBE9E2" cx="222.383" cy="1383.078" r="1.287"/>
				<circle fill="#EBE9E2" cx="229.608" cy="1383.078" r="1.287"/>
				<circle fill="#EBE9E2" cx="236.834" cy="1383.078" r="1.286"/>
				<circle fill="#EBE9E2" cx="244.058" cy="1383.078" r="1.286"/>
				<circle fill="#EBE9E2" cx="251.284" cy="1383.078" r="1.286"/>
				<circle fill="#EBE9E2" cx="258.509" cy="1383.078" r="1.286"/>
				<circle fill="#EBE9E2" cx="265.734" cy="1383.078" r="1.286"/>
				<circle fill="#EBE9E2" cx="272.959" cy="1383.078" r="1.287"/>
				<circle fill="#EBE9E2" cx="280.184" cy="1383.078" r="1.286"/>
				<circle fill="#EBE9E2" cx="287.409" cy="1383.078" r="1.286"/>
				<circle fill="#EBE9E2" cx="294.634" cy="1383.078" r="1.286"/>
				<circle fill="#EBE9E2" cx="301.859" cy="1383.078" r="1.287"/>
				<circle fill="#EBE9E2" cx="309.084" cy="1383.078" r="1.286"/>
				<circle fill="#EBE9E2" cx="316.31" cy="1383.078" r="1.286"/>
				<circle fill="#EBE9E2" cx="323.535" cy="1383.078" r="1.286"/>
				<circle fill="#EBE9E2" cx="330.759" cy="1383.078" r="1.286"/>
				<circle fill="#EBE9E2" cx="222.383" cy="1388.758" r="1.287"/>
				<circle fill="#EBE9E2" cx="229.608" cy="1388.758" r="1.287"/>
				<circle fill="#EBE9E2" cx="236.834" cy="1388.758" r="1.286"/>
				<circle fill="#EBE9E2" cx="244.058" cy="1388.758" r="1.286"/>
				<circle fill="#EBE9E2" cx="251.284" cy="1388.758" r="1.286"/>
				<circle fill="#EBE9E2" cx="258.509" cy="1388.758" r="1.286"/>
				<circle fill="#EBE9E2" cx="265.734" cy="1388.758" r="1.286"/>
				<circle fill="#EBE9E2" cx="272.959" cy="1388.758" r="1.287"/>
				<circle fill="#EBE9E2" cx="280.184" cy="1388.758" r="1.286"/>
				<circle fill="#EBE9E2" cx="287.409" cy="1388.758" r="1.286"/>
				<circle fill="#EBE9E2" cx="294.634" cy="1388.758" r="1.286"/>
				<circle fill="#EBE9E2" cx="301.859" cy="1388.758" r="1.287"/>
				<circle fill="#EBE9E2" cx="309.084" cy="1388.758" r="1.286"/>
				<circle fill="#EBE9E2" cx="316.31" cy="1388.758" r="1.286"/>
				<circle fill="#EBE9E2" cx="323.535" cy="1388.758" r="1.286"/>
				<circle fill="#EBE9E2" cx="330.759" cy="1388.758" r="1.286"/>
				<circle fill="#EBE9E2" cx="222.383" cy="1394.439" r="1.287"/>
				<circle fill="#EBE9E2" cx="229.608" cy="1394.439" r="1.287"/>
				<circle fill="#EBE9E2" cx="236.834" cy="1394.439" r="1.286"/>
				<circle fill="#EBE9E2" cx="244.058" cy="1394.439" r="1.286"/>
				<circle fill="#EBE9E2" cx="251.284" cy="1394.439" r="1.286"/>
				<circle fill="#EBE9E2" cx="258.509" cy="1394.439" r="1.286"/>
				<circle fill="#EBE9E2" cx="265.734" cy="1394.439" r="1.286"/>
				<circle fill="#EBE9E2" cx="272.959" cy="1394.439" r="1.287"/>
				<circle fill="#EBE9E2" cx="280.184" cy="1394.439" r="1.286"/>
				<circle fill="#EBE9E2" cx="287.409" cy="1394.439" r="1.286"/>
				<circle fill="#EBE9E2" cx="294.634" cy="1394.439" r="1.286"/>
				<circle fill="#EBE9E2" cx="301.859" cy="1394.439" r="1.287"/>
				<circle fill="#EBE9E2" cx="309.084" cy="1394.439" r="1.286"/>
				<circle fill="#EBE9E2" cx="316.31" cy="1394.439" r="1.286"/>
				<circle fill="#EBE9E2" cx="323.535" cy="1394.439" r="1.286"/>
				<circle fill="#EBE9E2" cx="330.759" cy="1394.439" r="1.286"/>
				<circle fill="#EBE9E2" cx="222.383" cy="1400.121" r="1.287"/>
				<circle fill="#EBE9E2" cx="229.608" cy="1400.121" r="1.287"/>
				<circle fill="#EBE9E2" cx="236.834" cy="1400.121" r="1.286"/>
				<circle fill="#EBE9E2" cx="244.058" cy="1400.121" r="1.286"/>
				<circle fill="#EBE9E2" cx="251.284" cy="1400.121" r="1.286"/>
				<circle fill="#EBE9E2" cx="258.509" cy="1400.121" r="1.286"/>
				<circle fill="#EBE9E2" cx="265.734" cy="1400.121" r="1.286"/>
				<circle fill="#EBE9E2" cx="272.959" cy="1400.121" r="1.287"/>
				<circle fill="#EBE9E2" cx="280.184" cy="1400.121" r="1.286"/>
				<circle fill="#EBE9E2" cx="287.409" cy="1400.121" r="1.286"/>
				<circle fill="#EBE9E2" cx="294.634" cy="1400.121" r="1.286"/>
				<circle fill="#EBE9E2" cx="301.859" cy="1400.121" r="1.287"/>
				<circle fill="#EBE9E2" cx="309.084" cy="1400.121" r="1.286"/>
				<circle fill="#EBE9E2" cx="316.31" cy="1400.121" r="1.286"/>
				<circle fill="#EBE9E2" cx="323.535" cy="1400.121" r="1.286"/>
				<circle fill="#EBE9E2" cx="330.759" cy="1400.121" r="1.286"/>
				<circle fill="#EBE9E2" cx="222.383" cy="1405.803" r="1.287"/>
				<circle fill="#EBE9E2" cx="229.608" cy="1405.803" r="1.287"/>
				<circle fill="#EBE9E2" cx="236.834" cy="1405.803" r="1.286"/>
				<circle fill="#EBE9E2" cx="244.058" cy="1405.803" r="1.286"/>
				<circle fill="#EBE9E2" cx="251.284" cy="1405.803" r="1.286"/>
				<circle fill="#EBE9E2" cx="258.509" cy="1405.803" r="1.286"/>
				<circle fill="#EBE9E2" cx="265.734" cy="1405.803" r="1.286"/>
				<circle fill="#EBE9E2" cx="272.959" cy="1405.803" r="1.287"/>
				<circle fill="#EBE9E2" cx="280.184" cy="1405.803" r="1.286"/>
				<circle fill="#EBE9E2" cx="287.409" cy="1405.803" r="1.286"/>
				<circle fill="#EBE9E2" cx="294.634" cy="1405.803" r="1.286"/>
				<circle fill="#EBE9E2" cx="301.859" cy="1405.803" r="1.287"/>
				<circle fill="#EBE9E2" cx="309.084" cy="1405.803" r="1.286"/>
				<circle fill="#EBE9E2" cx="316.31" cy="1405.803" r="1.286"/>
				<circle fill="#EBE9E2" cx="323.535" cy="1405.803" r="1.286"/>
				<circle fill="#EBE9E2" cx="330.759" cy="1405.803" r="1.286"/>
				<circle fill="#EBE9E2" cx="222.383" cy="1411.484" r="1.287"/>
				<circle fill="#EBE9E2" cx="229.608" cy="1411.484" r="1.287"/>
				<circle fill="#EBE9E2" cx="236.834" cy="1411.484" r="1.286"/>
				<circle fill="#EBE9E2" cx="244.058" cy="1411.484" r="1.286"/>
				<circle fill="#EBE9E2" cx="251.284" cy="1411.484" r="1.286"/>
				<circle fill="#EBE9E2" cx="258.509" cy="1411.484" r="1.286"/>
				<circle fill="#EBE9E2" cx="265.734" cy="1411.484" r="1.286"/>
				<circle fill="#EBE9E2" cx="272.959" cy="1411.484" r="1.287"/>
				<circle fill="#EBE9E2" cx="280.184" cy="1411.484" r="1.286"/>
				<circle fill="#EBE9E2" cx="287.409" cy="1411.484" r="1.286"/>
				<circle fill="#EBE9E2" cx="294.634" cy="1411.484" r="1.286"/>
				<circle fill="#EBE9E2" cx="301.859" cy="1411.484" r="1.287"/>
				<circle fill="#EBE9E2" cx="309.084" cy="1411.484" r="1.286"/>
				<circle fill="#EBE9E2" cx="316.31" cy="1411.484" r="1.286"/>
				<circle fill="#EBE9E2" cx="323.535" cy="1411.484" r="1.286"/>
				<circle fill="#EBE9E2" cx="330.759" cy="1411.484" r="1.286"/>
				<path fill="#EBE9E2" d="M223.67,1417.166c0,0.709-0.576,1.285-1.286,1.285c-0.711,0-1.287-0.576-1.287-1.285
					c0-0.713,0.576-1.287,1.287-1.287C223.094,1415.879,223.67,1416.453,223.67,1417.166z"/>
				<path fill="#EBE9E2" d="M230.895,1417.166c0,0.709-0.576,1.285-1.286,1.285c-0.71,0-1.287-0.576-1.287-1.285
					c0-0.713,0.577-1.287,1.287-1.287C230.319,1415.879,230.895,1416.453,230.895,1417.166z"/>
				<path fill="#EBE9E2" d="M238.12,1417.166c0,0.709-0.576,1.285-1.286,1.285s-1.287-0.576-1.287-1.285
					c0-0.713,0.576-1.287,1.287-1.287S238.12,1416.453,238.12,1417.166z"/>
				<path fill="#EBE9E2" d="M245.345,1417.166c0,0.709-0.576,1.285-1.286,1.285s-1.287-0.576-1.287-1.285
					c0-0.713,0.576-1.287,1.287-1.287S245.345,1416.453,245.345,1417.166z"/>
				<path fill="#EBE9E2" d="M252.57,1417.166c0,0.709-0.577,1.285-1.286,1.285c-0.711,0-1.287-0.576-1.287-1.285
					c0-0.713,0.576-1.287,1.287-1.287C251.994,1415.879,252.57,1416.453,252.57,1417.166z"/>
				<path fill="#EBE9E2" d="M259.795,1417.166c0,0.709-0.576,1.285-1.286,1.285c-0.711,0-1.287-0.576-1.287-1.285
					c0-0.713,0.576-1.287,1.287-1.287C259.219,1415.879,259.795,1416.453,259.795,1417.166z"/>
				<path fill="#EBE9E2" d="M267.02,1417.166c0,0.709-0.576,1.285-1.286,1.285s-1.287-0.576-1.287-1.285
					c0-0.713,0.576-1.287,1.287-1.287S267.02,1416.453,267.02,1417.166z"/>
				<path fill="#EBE9E2" d="M274.246,1417.166c0,0.709-0.576,1.285-1.287,1.285c-0.71,0-1.286-0.576-1.286-1.285
					c0-0.713,0.576-1.287,1.286-1.287C273.669,1415.879,274.246,1416.453,274.246,1417.166z"/>
				<path fill="#EBE9E2" d="M281.471,1417.166c0,0.709-0.576,1.285-1.286,1.285c-0.71,0-1.287-0.576-1.287-1.285
					c0-0.713,0.576-1.287,1.287-1.287C280.895,1415.879,281.471,1416.453,281.471,1417.166z"/>
				<path fill="#EBE9E2" d="M288.695,1417.166c0,0.709-0.576,1.285-1.286,1.285c-0.71,0-1.287-0.576-1.287-1.285
					c0-0.713,0.576-1.287,1.287-1.287C288.119,1415.879,288.695,1416.453,288.695,1417.166z"/>
				<path fill="#EBE9E2" d="M295.92,1417.166c0,0.709-0.576,1.285-1.286,1.285c-0.711,0-1.287-0.576-1.287-1.285
					c0-0.713,0.576-1.287,1.287-1.287C295.345,1415.879,295.92,1416.453,295.92,1417.166z"/>
				<path fill="#EBE9E2" d="M303.146,1417.166c0,0.709-0.576,1.285-1.287,1.285s-1.287-0.576-1.287-1.285
					c0-0.713,0.576-1.287,1.287-1.287S303.146,1416.453,303.146,1417.166z"/>
				<path fill="#EBE9E2" d="M310.37,1417.166c0,0.709-0.575,1.285-1.286,1.285c-0.71,0-1.286-0.576-1.286-1.285
					c0-0.713,0.576-1.287,1.286-1.287C309.795,1415.879,310.37,1416.453,310.37,1417.166z"/>
				<path fill="#EBE9E2" d="M317.596,1417.166c0,0.709-0.576,1.285-1.286,1.285c-0.71,0-1.286-0.576-1.286-1.285
					c0-0.713,0.576-1.287,1.286-1.287C317.02,1415.879,317.596,1416.453,317.596,1417.166z"/>
				<path fill="#EBE9E2" d="M324.821,1417.166c0,0.709-0.576,1.285-1.286,1.285c-0.711,0-1.286-0.576-1.286-1.285
					c0-0.713,0.575-1.287,1.286-1.287C324.245,1415.879,324.821,1416.453,324.821,1417.166z"/>
				<path fill="#EBE9E2" d="M332.045,1417.166c0,0.709-0.576,1.285-1.286,1.285s-1.287-0.576-1.287-1.285
					c0-0.713,0.576-1.287,1.287-1.287S332.045,1416.453,332.045,1417.166z"/>
				<circle fill="#EBE9E2" cx="222.383" cy="1422.848" r="1.287"/>
				<circle fill="#EBE9E2" cx="229.608" cy="1422.848" r="1.287"/>
				<circle fill="#EBE9E2" cx="236.834" cy="1422.848" r="1.286"/>
				<circle fill="#EBE9E2" cx="244.058" cy="1422.848" r="1.286"/>
				<circle fill="#EBE9E2" cx="251.284" cy="1422.848" r="1.286"/>
				<circle fill="#EBE9E2" cx="258.509" cy="1422.848" r="1.286"/>
				<circle fill="#EBE9E2" cx="265.734" cy="1422.848" r="1.286"/>
				<circle fill="#EBE9E2" cx="272.959" cy="1422.848" r="1.287"/>
				<circle fill="#EBE9E2" cx="280.184" cy="1422.848" r="1.286"/>
				<circle fill="#EBE9E2" cx="287.409" cy="1422.848" r="1.286"/>
				<circle fill="#EBE9E2" cx="294.634" cy="1422.848" r="1.286"/>
				<circle fill="#EBE9E2" cx="301.859" cy="1422.848" r="1.287"/>
				<circle fill="#EBE9E2" cx="309.084" cy="1422.848" r="1.286"/>
				<circle fill="#EBE9E2" cx="316.31" cy="1422.848" r="1.286"/>
				<circle fill="#EBE9E2" cx="323.535" cy="1422.848" r="1.286"/>
				<circle fill="#EBE9E2" cx="330.759" cy="1422.848" r="1.286"/>
				<circle fill="#EBE9E2" cx="222.383" cy="1428.527" r="1.287"/>
				<circle fill="#EBE9E2" cx="229.608" cy="1428.527" r="1.287"/>
				<circle fill="#EBE9E2" cx="236.834" cy="1428.527" r="1.286"/>
				<circle fill="#EBE9E2" cx="244.058" cy="1428.527" r="1.286"/>
				<circle fill="#EBE9E2" cx="251.284" cy="1428.527" r="1.286"/>
				<circle fill="#EBE9E2" cx="258.509" cy="1428.527" r="1.286"/>
				<circle fill="#EBE9E2" cx="265.734" cy="1428.527" r="1.286"/>
				<circle fill="#EBE9E2" cx="272.959" cy="1428.527" r="1.287"/>
				<circle fill="#EBE9E2" cx="280.184" cy="1428.527" r="1.286"/>
				<circle fill="#EBE9E2" cx="287.409" cy="1428.527" r="1.286"/>
				<circle fill="#EBE9E2" cx="294.634" cy="1428.527" r="1.286"/>
				<circle fill="#EBE9E2" cx="301.859" cy="1428.527" r="1.287"/>
				<circle fill="#EBE9E2" cx="309.084" cy="1428.527" r="1.286"/>
				<circle fill="#EBE9E2" cx="316.31" cy="1428.527" r="1.286"/>
				<circle fill="#EBE9E2" cx="323.535" cy="1428.527" r="1.286"/>
				<circle fill="#EBE9E2" cx="330.759" cy="1428.527" r="1.286"/>
				<path fill="#EBE9E2" d="M223.67,1434.211c0,0.709-0.576,1.285-1.286,1.285c-0.711,0-1.287-0.576-1.287-1.285
					c0-0.713,0.576-1.287,1.287-1.287C223.094,1432.924,223.67,1433.498,223.67,1434.211z"/>
				<path fill="#EBE9E2" d="M230.895,1434.211c0,0.709-0.576,1.285-1.286,1.285c-0.71,0-1.287-0.576-1.287-1.285
					c0-0.713,0.577-1.287,1.287-1.287C230.319,1432.924,230.895,1433.498,230.895,1434.211z"/>
				<path fill="#EBE9E2" d="M238.12,1434.211c0,0.709-0.576,1.285-1.286,1.285s-1.287-0.576-1.287-1.285
					c0-0.713,0.576-1.287,1.287-1.287S238.12,1433.498,238.12,1434.211z"/>
				<path fill="#EBE9E2" d="M245.345,1434.211c0,0.709-0.576,1.285-1.286,1.285s-1.287-0.576-1.287-1.285
					c0-0.713,0.576-1.287,1.287-1.287S245.345,1433.498,245.345,1434.211z"/>
				<path fill="#EBE9E2" d="M252.57,1434.211c0,0.709-0.577,1.285-1.286,1.285c-0.711,0-1.287-0.576-1.287-1.285
					c0-0.713,0.576-1.287,1.287-1.287C251.994,1432.924,252.57,1433.498,252.57,1434.211z"/>
				<path fill="#EBE9E2" d="M259.795,1434.211c0,0.709-0.576,1.285-1.286,1.285c-0.711,0-1.287-0.576-1.287-1.285
					c0-0.713,0.576-1.287,1.287-1.287C259.219,1432.924,259.795,1433.498,259.795,1434.211z"/>
				<path fill="#EBE9E2" d="M267.02,1434.211c0,0.709-0.576,1.285-1.286,1.285s-1.287-0.576-1.287-1.285
					c0-0.713,0.576-1.287,1.287-1.287S267.02,1433.498,267.02,1434.211z"/>
				<path fill="#EBE9E2" d="M274.246,1434.211c0,0.709-0.576,1.285-1.287,1.285c-0.71,0-1.286-0.576-1.286-1.285
					c0-0.713,0.576-1.287,1.286-1.287C273.669,1432.924,274.246,1433.498,274.246,1434.211z"/>
				<path fill="#EBE9E2" d="M281.471,1434.211c0,0.709-0.576,1.285-1.286,1.285c-0.71,0-1.287-0.576-1.287-1.285
					c0-0.713,0.576-1.287,1.287-1.287C280.895,1432.924,281.471,1433.498,281.471,1434.211z"/>
				<path fill="#EBE9E2" d="M288.695,1434.211c0,0.709-0.576,1.285-1.286,1.285c-0.71,0-1.287-0.576-1.287-1.285
					c0-0.713,0.576-1.287,1.287-1.287C288.119,1432.924,288.695,1433.498,288.695,1434.211z"/>
				<path fill="#EBE9E2" d="M295.92,1434.211c0,0.709-0.576,1.285-1.286,1.285c-0.711,0-1.287-0.576-1.287-1.285
					c0-0.713,0.576-1.287,1.287-1.287C295.345,1432.924,295.92,1433.498,295.92,1434.211z"/>
				<path fill="#EBE9E2" d="M303.146,1434.211c0,0.709-0.576,1.285-1.287,1.285s-1.287-0.576-1.287-1.285
					c0-0.713,0.576-1.287,1.287-1.287S303.146,1433.498,303.146,1434.211z"/>
				<path fill="#EBE9E2" d="M310.37,1434.211c0,0.709-0.575,1.285-1.286,1.285c-0.71,0-1.286-0.576-1.286-1.285
					c0-0.713,0.576-1.287,1.286-1.287C309.795,1432.924,310.37,1433.498,310.37,1434.211z"/>
				<path fill="#EBE9E2" d="M317.596,1434.211c0,0.709-0.576,1.285-1.286,1.285c-0.71,0-1.286-0.576-1.286-1.285
					c0-0.713,0.576-1.287,1.286-1.287C317.02,1432.924,317.596,1433.498,317.596,1434.211z"/>
				<path fill="#EBE9E2" d="M324.821,1434.211c0,0.709-0.576,1.285-1.286,1.285c-0.711,0-1.286-0.576-1.286-1.285
					c0-0.713,0.575-1.287,1.286-1.287C324.245,1432.924,324.821,1433.498,324.821,1434.211z"/>
				<path fill="#EBE9E2" d="M332.045,1434.211c0,0.709-0.576,1.285-1.286,1.285s-1.287-0.576-1.287-1.285
					c0-0.713,0.576-1.287,1.287-1.287S332.045,1433.498,332.045,1434.211z"/>
				<circle fill="#EBE9E2" cx="222.383" cy="1439.891" r="1.287"/>
				<circle fill="#EBE9E2" cx="229.608" cy="1439.891" r="1.287"/>
				<circle fill="#EBE9E2" cx="236.834" cy="1439.891" r="1.286"/>
				<circle fill="#EBE9E2" cx="244.058" cy="1439.891" r="1.286"/>
				<circle fill="#EBE9E2" cx="251.284" cy="1439.891" r="1.286"/>
				<circle fill="#EBE9E2" cx="258.509" cy="1439.891" r="1.286"/>
				<circle fill="#EBE9E2" cx="265.734" cy="1439.891" r="1.286"/>
				<circle fill="#EBE9E2" cx="272.959" cy="1439.891" r="1.287"/>
				<circle fill="#EBE9E2" cx="280.184" cy="1439.891" r="1.286"/>
				<circle fill="#EBE9E2" cx="287.409" cy="1439.891" r="1.286"/>
				<circle fill="#EBE9E2" cx="294.634" cy="1439.891" r="1.286"/>
				<circle fill="#EBE9E2" cx="301.859" cy="1439.891" r="1.287"/>
				<circle fill="#EBE9E2" cx="309.084" cy="1439.891" r="1.286"/>
				<circle fill="#EBE9E2" cx="316.31" cy="1439.891" r="1.286"/>
				<circle fill="#EBE9E2" cx="323.535" cy="1439.891" r="1.286"/>
				<circle fill="#EBE9E2" cx="330.759" cy="1439.891" r="1.286"/>
				<circle fill="#EBE9E2" cx="222.383" cy="1445.572" r="1.287"/>
				<circle fill="#EBE9E2" cx="229.608" cy="1445.572" r="1.287"/>
				<circle fill="#EBE9E2" cx="236.834" cy="1445.572" r="1.286"/>
				<circle fill="#EBE9E2" cx="244.058" cy="1445.572" r="1.286"/>
				<circle fill="#EBE9E2" cx="251.284" cy="1445.572" r="1.286"/>
				<circle fill="#EBE9E2" cx="258.509" cy="1445.572" r="1.286"/>
				<circle fill="#EBE9E2" cx="265.734" cy="1445.572" r="1.286"/>
				<circle fill="#EBE9E2" cx="272.959" cy="1445.572" r="1.287"/>
				<circle fill="#EBE9E2" cx="280.184" cy="1445.572" r="1.286"/>
				<circle fill="#EBE9E2" cx="287.409" cy="1445.572" r="1.286"/>
				<circle fill="#EBE9E2" cx="294.634" cy="1445.572" r="1.286"/>
				<circle fill="#EBE9E2" cx="301.859" cy="1445.572" r="1.287"/>
				<circle fill="#EBE9E2" cx="309.084" cy="1445.572" r="1.286"/>
				<circle fill="#EBE9E2" cx="316.31" cy="1445.572" r="1.286"/>
				<circle fill="#EBE9E2" cx="323.535" cy="1445.572" r="1.286"/>
				<circle fill="#EBE9E2" cx="330.759" cy="1445.572" r="1.286"/>
				<circle fill="#EBE9E2" cx="222.383" cy="1451.254" r="1.287"/>
				<circle fill="#EBE9E2" cx="229.608" cy="1451.254" r="1.287"/>
				<circle fill="#EBE9E2" cx="236.834" cy="1451.254" r="1.286"/>
				<circle fill="#EBE9E2" cx="244.058" cy="1451.254" r="1.286"/>
				<circle fill="#EBE9E2" cx="251.284" cy="1451.254" r="1.286"/>
				<circle fill="#EBE9E2" cx="258.509" cy="1451.254" r="1.286"/>
				<circle fill="#EBE9E2" cx="265.734" cy="1451.254" r="1.286"/>
				<circle fill="#EBE9E2" cx="272.959" cy="1451.254" r="1.287"/>
				<circle fill="#EBE9E2" cx="280.184" cy="1451.254" r="1.286"/>
				<circle fill="#EBE9E2" cx="287.409" cy="1451.254" r="1.286"/>
				<circle fill="#EBE9E2" cx="294.634" cy="1451.254" r="1.286"/>
				<circle fill="#EBE9E2" cx="301.859" cy="1451.254" r="1.287"/>
				<circle fill="#EBE9E2" cx="309.084" cy="1451.254" r="1.286"/>
				<circle fill="#EBE9E2" cx="316.31" cy="1451.254" r="1.286"/>
				<circle fill="#EBE9E2" cx="323.535" cy="1451.254" r="1.286"/>
				<circle fill="#EBE9E2" cx="330.759" cy="1451.254" r="1.286"/>
				<circle fill="#EBE9E2" cx="222.383" cy="1456.936" r="1.287"/>
				<circle fill="#EBE9E2" cx="229.608" cy="1456.936" r="1.287"/>
				<circle fill="#EBE9E2" cx="236.834" cy="1456.936" r="1.286"/>
				<circle fill="#EBE9E2" cx="244.058" cy="1456.936" r="1.286"/>
				<circle fill="#EBE9E2" cx="251.284" cy="1456.936" r="1.286"/>
				<circle fill="#EBE9E2" cx="258.509" cy="1456.936" r="1.286"/>
				<circle fill="#EBE9E2" cx="265.734" cy="1456.936" r="1.286"/>
				<circle fill="#EBE9E2" cx="272.959" cy="1456.936" r="1.287"/>
				<circle fill="#EBE9E2" cx="280.184" cy="1456.936" r="1.286"/>
				<circle fill="#EBE9E2" cx="287.409" cy="1456.936" r="1.286"/>
				<circle fill="#EBE9E2" cx="294.634" cy="1456.936" r="1.286"/>
				<circle fill="#EBE9E2" cx="301.859" cy="1456.936" r="1.287"/>
				<circle fill="#EBE9E2" cx="309.084" cy="1456.936" r="1.286"/>
				<circle fill="#EBE9E2" cx="316.31" cy="1456.936" r="1.286"/>
				<circle fill="#EBE9E2" cx="323.535" cy="1456.936" r="1.286"/>
				<circle fill="#EBE9E2" cx="330.759" cy="1456.936" r="1.286"/>
				<circle fill="#EBE9E2" cx="222.383" cy="1462.617" r="1.287"/>
				<circle fill="#EBE9E2" cx="229.608" cy="1462.617" r="1.287"/>
				<circle fill="#EBE9E2" cx="236.834" cy="1462.617" r="1.286"/>
				<circle fill="#EBE9E2" cx="244.058" cy="1462.617" r="1.286"/>
				<circle fill="#EBE9E2" cx="251.284" cy="1462.617" r="1.286"/>
				<circle fill="#EBE9E2" cx="258.509" cy="1462.617" r="1.286"/>
				<circle fill="#EBE9E2" cx="265.734" cy="1462.617" r="1.286"/>
				<circle fill="#EBE9E2" cx="272.959" cy="1462.617" r="1.287"/>
				<circle fill="#EBE9E2" cx="280.184" cy="1462.617" r="1.286"/>
				<circle fill="#EBE9E2" cx="287.409" cy="1462.617" r="1.286"/>
				<circle fill="#EBE9E2" cx="294.634" cy="1462.617" r="1.286"/>
				<circle fill="#EBE9E2" cx="301.859" cy="1462.617" r="1.287"/>
				<circle fill="#EBE9E2" cx="309.084" cy="1462.617" r="1.286"/>
				<circle fill="#EBE9E2" cx="316.31" cy="1462.617" r="1.286"/>
				<circle fill="#EBE9E2" cx="323.535" cy="1462.617" r="1.286"/>
				<circle fill="#EBE9E2" cx="330.759" cy="1462.617" r="1.286"/>
				<circle fill="#EBE9E2" cx="222.383" cy="1468.297" r="1.287"/>
				<circle fill="#EBE9E2" cx="229.608" cy="1468.297" r="1.287"/>
				<circle fill="#EBE9E2" cx="236.834" cy="1468.297" r="1.286"/>
				<circle fill="#EBE9E2" cx="244.058" cy="1468.297" r="1.286"/>
				<circle fill="#EBE9E2" cx="251.284" cy="1468.297" r="1.286"/>
				<circle fill="#EBE9E2" cx="258.509" cy="1468.297" r="1.286"/>
				<circle fill="#EBE9E2" cx="265.734" cy="1468.297" r="1.286"/>
				<circle fill="#EBE9E2" cx="272.959" cy="1468.297" r="1.287"/>
				<circle fill="#EBE9E2" cx="280.184" cy="1468.297" r="1.286"/>
				<circle fill="#EBE9E2" cx="287.409" cy="1468.297" r="1.286"/>
				<circle fill="#EBE9E2" cx="294.634" cy="1468.297" r="1.286"/>
				<circle fill="#EBE9E2" cx="301.859" cy="1468.297" r="1.287"/>
				<circle fill="#EBE9E2" cx="309.084" cy="1468.297" r="1.286"/>
				<circle fill="#EBE9E2" cx="316.31" cy="1468.297" r="1.286"/>
				<circle fill="#EBE9E2" cx="323.535" cy="1468.297" r="1.286"/>
				<circle fill="#EBE9E2" cx="330.759" cy="1468.297" r="1.286"/>
				<circle fill="#EBE9E2" cx="222.383" cy="1473.979" r="1.287"/>
				<circle fill="#EBE9E2" cx="229.608" cy="1473.979" r="1.287"/>
				<circle fill="#EBE9E2" cx="236.834" cy="1473.979" r="1.286"/>
				<circle fill="#EBE9E2" cx="244.058" cy="1473.979" r="1.286"/>
				<circle fill="#EBE9E2" cx="251.284" cy="1473.979" r="1.286"/>
				<circle fill="#EBE9E2" cx="258.509" cy="1473.979" r="1.286"/>
				<circle fill="#EBE9E2" cx="265.734" cy="1473.979" r="1.286"/>
				<circle fill="#EBE9E2" cx="272.959" cy="1473.979" r="1.287"/>
				<circle fill="#EBE9E2" cx="280.184" cy="1473.979" r="1.286"/>
				<circle fill="#EBE9E2" cx="287.409" cy="1473.979" r="1.286"/>
				<circle fill="#EBE9E2" cx="294.634" cy="1473.979" r="1.286"/>
				<circle fill="#EBE9E2" cx="301.859" cy="1473.979" r="1.287"/>
				<circle fill="#EBE9E2" cx="309.084" cy="1473.979" r="1.286"/>
				<circle fill="#EBE9E2" cx="316.31" cy="1473.979" r="1.286"/>
				<circle fill="#EBE9E2" cx="323.535" cy="1473.979" r="1.286"/>
				<circle fill="#EBE9E2" cx="330.759" cy="1473.979" r="1.286"/>
				<circle fill="#EBE9E2" cx="222.383" cy="1479.66" r="1.287"/>
				<circle fill="#EBE9E2" cx="229.608" cy="1479.66" r="1.287"/>
				<circle fill="#EBE9E2" cx="236.834" cy="1479.66" r="1.286"/>
				<circle fill="#EBE9E2" cx="244.058" cy="1479.66" r="1.286"/>
				<circle fill="#EBE9E2" cx="251.284" cy="1479.66" r="1.286"/>
				<circle fill="#EBE9E2" cx="258.509" cy="1479.66" r="1.286"/>
				<circle fill="#EBE9E2" cx="265.734" cy="1479.66" r="1.286"/>
				<circle fill="#EBE9E2" cx="272.959" cy="1479.66" r="1.287"/>
				<circle fill="#EBE9E2" cx="280.184" cy="1479.66" r="1.286"/>
				<circle fill="#EBE9E2" cx="287.409" cy="1479.66" r="1.286"/>
				<circle fill="#EBE9E2" cx="294.634" cy="1479.66" r="1.286"/>
				<circle fill="#EBE9E2" cx="301.859" cy="1479.66" r="1.287"/>
				<circle fill="#EBE9E2" cx="309.084" cy="1479.66" r="1.286"/>
				<circle fill="#EBE9E2" cx="316.31" cy="1479.66" r="1.286"/>
				<circle fill="#EBE9E2" cx="323.535" cy="1479.66" r="1.286"/>
				<circle fill="#EBE9E2" cx="330.759" cy="1479.66" r="1.286"/>
				<path fill="#EBE9E2" d="M223.67,1485.344c0,0.709-0.576,1.285-1.286,1.285c-0.711,0-1.287-0.576-1.287-1.285
					c0-0.713,0.576-1.287,1.287-1.287C223.094,1484.057,223.67,1484.631,223.67,1485.344z"/>
				<path fill="#EBE9E2" d="M230.895,1485.344c0,0.709-0.576,1.285-1.286,1.285c-0.71,0-1.287-0.576-1.287-1.285
					c0-0.713,0.577-1.287,1.287-1.287C230.319,1484.057,230.895,1484.631,230.895,1485.344z"/>
				<path fill="#EBE9E2" d="M238.12,1485.344c0,0.709-0.576,1.285-1.286,1.285s-1.287-0.576-1.287-1.285
					c0-0.713,0.576-1.287,1.287-1.287S238.12,1484.631,238.12,1485.344z"/>
				<path fill="#EBE9E2" d="M245.345,1485.344c0,0.709-0.576,1.285-1.286,1.285s-1.287-0.576-1.287-1.285
					c0-0.713,0.576-1.287,1.287-1.287S245.345,1484.631,245.345,1485.344z"/>
				<path fill="#EBE9E2" d="M252.57,1485.344c0,0.709-0.577,1.285-1.286,1.285c-0.711,0-1.287-0.576-1.287-1.285
					c0-0.713,0.576-1.287,1.287-1.287C251.994,1484.057,252.57,1484.631,252.57,1485.344z"/>
				<path fill="#EBE9E2" d="M259.795,1485.344c0,0.709-0.576,1.285-1.286,1.285c-0.711,0-1.287-0.576-1.287-1.285
					c0-0.713,0.576-1.287,1.287-1.287C259.219,1484.057,259.795,1484.631,259.795,1485.344z"/>
				<path fill="#EBE9E2" d="M267.02,1485.344c0,0.709-0.576,1.285-1.286,1.285s-1.287-0.576-1.287-1.285
					c0-0.713,0.576-1.287,1.287-1.287S267.02,1484.631,267.02,1485.344z"/>
				<path fill="#EBE9E2" d="M274.246,1485.344c0,0.709-0.576,1.285-1.287,1.285c-0.71,0-1.286-0.576-1.286-1.285
					c0-0.713,0.576-1.287,1.286-1.287C273.669,1484.057,274.246,1484.631,274.246,1485.344z"/>
				<path fill="#EBE9E2" d="M281.471,1485.344c0,0.709-0.576,1.285-1.286,1.285c-0.71,0-1.287-0.576-1.287-1.285
					c0-0.713,0.576-1.287,1.287-1.287C280.895,1484.057,281.471,1484.631,281.471,1485.344z"/>
				<path fill="#EBE9E2" d="M288.695,1485.344c0,0.709-0.576,1.285-1.286,1.285c-0.71,0-1.287-0.576-1.287-1.285
					c0-0.713,0.576-1.287,1.287-1.287C288.119,1484.057,288.695,1484.631,288.695,1485.344z"/>
				<path fill="#EBE9E2" d="M295.92,1485.344c0,0.709-0.576,1.285-1.286,1.285c-0.711,0-1.287-0.576-1.287-1.285
					c0-0.713,0.576-1.287,1.287-1.287C295.345,1484.057,295.92,1484.631,295.92,1485.344z"/>
				<path fill="#EBE9E2" d="M303.146,1485.344c0,0.709-0.576,1.285-1.287,1.285s-1.287-0.576-1.287-1.285
					c0-0.713,0.576-1.287,1.287-1.287S303.146,1484.631,303.146,1485.344z"/>
				<path fill="#EBE9E2" d="M310.37,1485.344c0,0.709-0.575,1.285-1.286,1.285c-0.71,0-1.286-0.576-1.286-1.285
					c0-0.713,0.576-1.287,1.286-1.287C309.795,1484.057,310.37,1484.631,310.37,1485.344z"/>
				<path fill="#EBE9E2" d="M317.596,1485.344c0,0.709-0.576,1.285-1.286,1.285c-0.71,0-1.286-0.576-1.286-1.285
					c0-0.713,0.576-1.287,1.286-1.287C317.02,1484.057,317.596,1484.631,317.596,1485.344z"/>
				<path fill="#EBE9E2" d="M324.821,1485.344c0,0.709-0.576,1.285-1.286,1.285c-0.711,0-1.286-0.576-1.286-1.285
					c0-0.713,0.575-1.287,1.286-1.287C324.245,1484.057,324.821,1484.631,324.821,1485.344z"/>
				<path fill="#EBE9E2" d="M332.045,1485.344c0,0.709-0.576,1.285-1.286,1.285s-1.287-0.576-1.287-1.285
					c0-0.713,0.576-1.287,1.287-1.287S332.045,1484.631,332.045,1485.344z"/>
				<circle fill="#EBE9E2" cx="222.383" cy="1491.023" r="1.287"/>
				<circle fill="#EBE9E2" cx="229.608" cy="1491.023" r="1.287"/>
				<circle fill="#EBE9E2" cx="236.834" cy="1491.023" r="1.286"/>
				<circle fill="#EBE9E2" cx="244.058" cy="1491.023" r="1.286"/>
				<circle fill="#EBE9E2" cx="251.284" cy="1491.023" r="1.286"/>
				<circle fill="#EBE9E2" cx="258.509" cy="1491.023" r="1.286"/>
				<circle fill="#EBE9E2" cx="265.734" cy="1491.023" r="1.286"/>
				<circle fill="#EBE9E2" cx="272.959" cy="1491.023" r="1.287"/>
				<circle fill="#EBE9E2" cx="280.184" cy="1491.023" r="1.286"/>
				<circle fill="#EBE9E2" cx="287.409" cy="1491.023" r="1.286"/>
				<circle fill="#EBE9E2" cx="294.634" cy="1491.023" r="1.286"/>
				<circle fill="#EBE9E2" cx="301.859" cy="1491.023" r="1.287"/>
				<circle fill="#EBE9E2" cx="309.084" cy="1491.023" r="1.286"/>
				<circle fill="#EBE9E2" cx="316.31" cy="1491.023" r="1.286"/>
				<circle fill="#EBE9E2" cx="323.535" cy="1491.023" r="1.286"/>
				<circle fill="#EBE9E2" cx="330.759" cy="1491.023" r="1.286"/>
				<circle fill="#EBE9E2" cx="222.383" cy="1496.705" r="1.287"/>
				<circle fill="#EBE9E2" cx="229.608" cy="1496.705" r="1.287"/>
				<circle fill="#EBE9E2" cx="236.834" cy="1496.705" r="1.286"/>
				<circle fill="#EBE9E2" cx="244.058" cy="1496.705" r="1.286"/>
				<circle fill="#EBE9E2" cx="251.284" cy="1496.705" r="1.286"/>
				<circle fill="#EBE9E2" cx="258.509" cy="1496.705" r="1.286"/>
				<circle fill="#EBE9E2" cx="265.734" cy="1496.705" r="1.286"/>
				<circle fill="#EBE9E2" cx="272.959" cy="1496.705" r="1.287"/>
				<circle fill="#EBE9E2" cx="280.184" cy="1496.705" r="1.286"/>
				<circle fill="#EBE9E2" cx="287.409" cy="1496.705" r="1.286"/>
				<circle fill="#EBE9E2" cx="294.634" cy="1496.705" r="1.286"/>
				<circle fill="#EBE9E2" cx="301.859" cy="1496.705" r="1.287"/>
				<circle fill="#EBE9E2" cx="309.084" cy="1496.705" r="1.286"/>
				<circle fill="#EBE9E2" cx="316.31" cy="1496.705" r="1.286"/>
				<circle fill="#EBE9E2" cx="323.535" cy="1496.705" r="1.286"/>
				<circle fill="#EBE9E2" cx="330.759" cy="1496.705" r="1.286"/>
				<circle fill="#EBE9E2" cx="222.383" cy="1502.387" r="1.287"/>
				<circle fill="#EBE9E2" cx="229.608" cy="1502.387" r="1.287"/>
				<circle fill="#EBE9E2" cx="236.834" cy="1502.387" r="1.286"/>
				<circle fill="#EBE9E2" cx="244.058" cy="1502.387" r="1.286"/>
				<circle fill="#EBE9E2" cx="251.284" cy="1502.387" r="1.286"/>
				<circle fill="#EBE9E2" cx="258.509" cy="1502.387" r="1.286"/>
				<circle fill="#EBE9E2" cx="265.734" cy="1502.387" r="1.286"/>
				<circle fill="#EBE9E2" cx="272.959" cy="1502.387" r="1.287"/>
				<circle fill="#EBE9E2" cx="280.184" cy="1502.387" r="1.286"/>
				<circle fill="#EBE9E2" cx="287.409" cy="1502.387" r="1.286"/>
				<circle fill="#EBE9E2" cx="294.634" cy="1502.387" r="1.286"/>
				<circle fill="#EBE9E2" cx="301.859" cy="1502.387" r="1.287"/>
				<circle fill="#EBE9E2" cx="309.084" cy="1502.387" r="1.286"/>
				<circle fill="#EBE9E2" cx="316.31" cy="1502.387" r="1.286"/>
				<circle fill="#EBE9E2" cx="323.535" cy="1502.387" r="1.286"/>
				<circle fill="#EBE9E2" cx="330.759" cy="1502.387" r="1.286"/>
			</g>
		</g>
		<g>
			<rect x="607.256" y="1420.525" fill="#1C3187" width="73.324" height="95.447"/>
			<rect x="612.916" y="1426.701" fill="#FFFFFF" width="62.004" height="81.555"/>
			<circle fill="#1C3187" cx="643.918" cy="1467.865" r="16.658"/>
		</g>
		<rect x="570.752" y="1370.855" fill="#4063AD" width="121.949" height="8.49"/>
		<path fill="#1C3187" d="M285.973,1356.943c0,0,2.037,29.07,5.896,32.93c0,0,32.459-0.344,32.459-1.115
			c0-0.773-8.583-14.135-6.732-31.814H285.973z"/>
		<path fill="none" stroke="#FFFFFF" stroke-linecap="round" stroke-linejoin="round" stroke-miterlimit="10" d="M297.013,1376.752
			c0,0,0.793,7.719,7.729,7.719c6.937,0,6.164-9.004,6.164-9.004"/>
		<path fill="none" stroke="#FFFFFF" stroke-linecap="round" stroke-linejoin="round" stroke-miterlimit="10" d="M300.358,1363.889
			c0,0-1.029,8.488,1.029,9.52"/>
		<path fill="none" stroke="#FFFFFF" stroke-linecap="round" stroke-linejoin="round" stroke-miterlimit="10" d="M306.533,1363.889
			c0,0-1.029,6.945,1.544,8.232"/>
		<rect x="270.257" y="1409.168" fill="#EC7267" width="33.446" height="33.445"/>
		<circle fill="#263E89" cx="286.401" cy="1415.619" r="2.275"/>
		<g>
			<rect x="624.752" y="1327.645" fill="#1C3187" width="61.5" height="43.221"/>
			<rect x="631.748" y="1334.504" fill="#FFFFFF" width="47.508" height="28.537"/>
			<rect x="648.178" y="1342.176" fill="#E95656" width="14.65" height="13.674"/>
		</g>
		<g>
			<path fill="#EA6159" d="M561.943,1404.842h13.641c0,0,11.951-0.699,13.139,13.301c0.906,10.693,8.324,96.555,8.324,96.555
				l-3.455-1.029l-7.275-95.367c0,0-0.781-10.744-11.094-10.744c-8.186,0-13.279,0-13.279,0V1404.842z"/>
			<polygon fill="#DF5850" points="603.961,1520.08 569.945,1520.08 569.852,1516.66 603.961,1516.822 			"/>
			<path fill="#EA6159" d="M569.943,1516.66l34.018,0.252c0,0-1.207-1.488-3.277-2.215c0,0-4.898-2.555-15.648-2.555
				s-15.184,4.518-15.184,4.518"/>
			<path fill="#EA6159" d="M515.867,1396.293c0,0-5.977,13.793,22.25,22.553c0,0,24.355,6.984,24.355-10.828c0,0,2-15.5-24.188-15.5
				C538.285,1392.518,516.791,1391.436,515.867,1396.293z"/>
		</g>
		<rect x="115.158" y="1550.471" fill="#4267B0" width="622.174" height="9.311"/>
		<g>
			<path fill="#FFFFFF" d="M413.182,1812.91l13.145-148.287c0,0,0.09-9.26-7.861-11.275c-11.818-2.994-4.471,3.271-4.471,3.271
				s10.342-0.277,8.635,13.893l-14.102,150.613c0,0-4.383,16.84,12.459,8.625c8.715-4.25,16.68-10.383,24.5-16.047
				c9.957-7.213,19.73-14.676,29.441-22.215c3.938-3.059,7.838-6.164,11.777-9.221c1.545-1.199,3.313-2.424,4.287-4.172
				c1.146-2.059,0.568-3.926,0.293-6.104c-0.262-2.059-0.521-4.115-0.783-6.174c-0.576-4.516-1.154-9.031-1.734-13.547
				c-1.484-11.582-2.963-23.166-4.439-34.75c-1.617-12.693-3.24-25.389-4.861-38.082c-1.344-10.52-2.684-21.041-4.027-31.561
				c-0.602-4.703-1.205-9.406-1.803-14.109c-0.023-0.188-0.031-0.387-0.072-0.57c-0.004-0.018-2.578-11.709-17.664-11.709
				l2.613,5.047c0,0,9.402,0.09,11.354,10.975c0.514,3.869,1.027,7.736,1.541,11.604c1.262,9.506,2.523,19.01,3.785,28.516
				c1.602,12.07,3.205,24.143,4.807,36.215c1.533,11.551,3.066,23.104,4.6,34.654c0.703,5.287,1.469,10.564,2.188,15.848
				c0.365,2.689,0.725,5.381,1.055,8.076c0.338,2.754,0.654,4.082-1.742,5.92c-2.918,2.236-6.053,4.205-8.992,6.424
				c-6.043,4.561-12.012,9.221-18.115,13.699c-10.746,7.887-21.49,15.793-32.439,23.398c-2.617,1.816-5.43,4.273-8.441,5.42
				c0,0-7.451,2.836-5.951-3.996L413.182,1812.91z"/>
			<path fill="#FFFFFF" d="M286.852,1636.693l-13.145,148.287l-1.021,10.379c-1.5,6.832,5.95,3.996,5.95,3.996
				c3.013-1.146,5.825-3.604,8.441-5.42c10.95-7.605,21.693-15.512,32.441-23.398c6.103-4.479,12.072-9.139,18.114-13.699
				c2.939-2.219,6.076-4.188,8.993-6.424c2.397-1.838,2.08-3.166,1.743-5.92c-0.33-2.695-0.69-5.387-1.055-8.076
				c-0.718-5.283-1.485-10.561-2.187-15.848c-1.534-11.551-3.067-23.104-4.6-34.654c-1.603-12.072-3.205-24.145-4.808-36.215
				c-1.262-9.506-2.523-19.01-3.785-28.516c-0.514-3.867-1.027-7.734-1.541-11.604c-1.95-10.885-11.353-10.975-11.353-10.975
				l-2.613-5.047c15.085,0,17.659,11.691,17.663,11.709c0.041,0.184,0.049,0.383,0.073,0.57c0.598,4.703,1.202,9.406,1.802,14.109
				c1.343,10.52,2.683,21.041,4.027,31.561c1.622,12.693,3.245,25.389,4.862,38.082c1.477,11.584,2.954,23.168,4.439,34.75
				c0.579,4.516,1.158,9.031,1.733,13.547c0.262,2.059,0.523,4.115,0.783,6.174c0.275,2.178,0.854,4.045-0.293,6.104
				c-0.974,1.748-2.742,2.973-4.287,4.172c-3.939,3.057-7.839,6.162-11.777,9.221c-9.711,7.539-19.485,15.002-29.442,22.215
				c-7.82,5.664-15.784,11.797-24.499,16.047c-16.841,8.215-12.46-8.625-12.46-8.625l14.103-150.613l2.172-21.092h6
				L286.852,1636.693z"/>
			<path fill="#EC7267" d="M399.994,1611.771l62,7.852c0,0,15,2.332,3.332,13c-11.666,10.666-44.57,25.361-44.57,25.361
				s-15.57,4.637-18.333-2.029L399.994,1611.771z"/>
			<path fill="#EC7267" d="M420.756,1657.984c0,0-9.037-2.055-12.322-43.131c-3.287-41.076-8.215-78.867-43.953-85.439
				c-35.737-6.572-58.739-6.982-58.739-6.982s-27.521-5.75-26.7,22.592c0.821,28.342-1.643,74.76-1.643,74.76
				s-4.108,18.895,9.447,20.949C286.847,1640.732,396.932,1665.789,420.756,1657.984z"/>
		</g>
		<path fill="#204D9F" d="M645.492,1765.207l-0.051,17.623l-14.18-24.441l-10.02-16.17c-5.176-8.355-4.131-22.555-4.131-22.555
			v-159.695h11.563l0.096,159.291c0,0-0.627,14.529,3.873,22.668L645.492,1765.207z"/>
		<path fill="#204D9F" d="M206.286,1757.205l0.051,17.625l10.738-16.885l10.019-16.17c5.177-8.355,4.131-22.555,4.131-22.555
			v-159.695h-11.563l-0.096,159.291c0,0,0.627,14.529-3.873,22.668L206.286,1757.205z"/>
	</g>
</g>
</svg>
