<?xml version="1.0" encoding="utf-8"?>
<!-- Generator: Adobe Illustrator 16.0.0, SVG Export Plug-In . SVG Version: 6.00 Build 0)  -->
<!DOCTYPE svg PUBLIC "-//W3C//DTD SVG 1.1//EN" "http://www.w3.org/Graphics/SVG/1.1/DTD/svg11.dtd">
<svg version="1.1" id="Layer_1" xmlns="http://www.w3.org/2000/svg" xmlns:xlink="http://www.w3.org/1999/xlink" x="0px" y="0px"
	 width="1339px" height="476px" viewBox="0 0 1339 476" enable-background="new 0 0 1339 476" xml:space="preserve">
<g>
	<g>
		<polygon fill="#FFFFFF" points="1226.246,263.41 1304.246,475.619 1055.58,475.619 986.913,284.076 		"/>
		<polygon fill="none" stroke="#172A54" stroke-miterlimit="10" points="1059.58,459.514 1278.498,440.848 1222.246,275.514 
			999.748,294.182 		"/>
	</g>
	<path fill="#FFFAFC" d="M331.437,278.475l196.793-64.248l91.374,88.16l63.979,62.498c0,0,9.147,6.5,0,8.5
		c-9.146,2-195.265,63.5-195.265,63.5s-4.008,1.234-8.882-3c-5.907-5.133-153-149.5-153-149.5s-1.75-2.5,2-4.5
		C331.082,278.473,331.437,278.475,331.437,278.475z"/>
	<g>
		<path fill="#C2D3EC" d="M342.937,284.338c0,0-6.334,1.334,0,5.668c6.334,4.332,116.667,114.666,116.667,114.666
			s4,3.666,7.667,2.334c3.666-1.334,181.666-59,181.666-59s3.903-1.637,0-4.945c-5.256-4.457-117.512-117.348-117.512-117.348
			l-7.43-5.238L342.937,284.338z"/>
		<g>
			<g>
				<defs>
					<path id="SVGID_1_" d="M342.937,284.338c0,0-6.334,1.334,0,5.668c6.334,4.332,116.667,114.666,116.667,114.666
						s4,3.666,7.667,2.334c3.666-1.334,181.666-59,181.666-59s3.903-1.262,0-4.945c-5.011-4.729-117.512-117.348-117.512-117.348
						l-7.43-5.238L342.937,284.338z"/>
				</defs>
				<clipPath id="SVGID_2_">
					<use xlink:href="#SVGID_1_"  overflow="visible"/>
				</clipPath>
				<g clip-path="url(#SVGID_2_)">
					<path fill="#231815" d="M562.531,308.838c0,0,13.615,20.365,9.951,38.088c0,0-18.25,12.254-42.416,14.988l-11.938,2.529
						c0,0-3.758-0.691,0.324,3.559c4.079,4.254,14.935,12.605,17.244,17.6s-76.781,50.05-76.781,50.05l-21.75-53.255
						c0,0,16.926-32.436,14.134-44.821c-2.795-12.39,49.455-10.394,58.616-4.093c0,0,27.938,1.027,26.875-10.17
						C535.728,312.113,562.531,308.838,562.531,308.838z"/>
					<path fill="#F6F0F0" d="M519.578,300.225c0,0,30.136,38.17,32.445,40.226c2.311,2.053,7.867,29.508-5.34,16.187
						c-13.207-13.32-7.489,5.233-19.394-4.527c-11.901-9.76-24.612-15.18-24.612-15.18S504.603,294.254,519.578,300.225z"/>
					<path fill="#F6F0F0" d="M515.296,267.572c0,0-1.181-12.697-18.458-15.375c-17.278-2.678-30.288-8.641-42.073,16.1
						c-11.788,24.74,0.986,41.307-2.264,53.707c-3.253,12.398-8.888,33.758-6.71,40.768c2.177,7.011,4.57,9.189,7.275,12.697
						c2.708,3.506,11.279,8.07,21.182,4.898c9.902-3.168,19.123-6.078,21.216-3.162c2.09,2.916,11.733,3.148,15.953,1.945
						c4.221-1.201,1.188-9.123-8.49-17.601c-9.679-8.479-16.853-25.344-26.455-34.057c0,0-14.555-17.103,3.676-35.056
						C498.379,274.486,507.867,278.816,515.296,267.572z"/>
					<path fill="#E9C0C0" d="M474.103,286.51c0,0-5.16-11.445-12.981,0.217c-7.82,11.664,5.11,17.435,5.11,17.435
						s-0.555,0.362,1.532,5.53c3.417,8.466,11.198,30.283,28.802,35.521c0,0,12.769,5.848,13.681-3.998c0,0,0.627-4.924,3.573-5.154
						c0,0,3.277-2.42,1.394-4.797c0,0,0.942-2.631,2.475-3.215c1.531-0.586,2-2.42,1.481-4.285
						c-0.521-1.865-1.926-4.012-0.565-4.531c1.361-0.522,7.158-0.153,4.59-6.862c-2.567-6.709-1.97-9.914-1.655-11.459
						c1.13-5.537-2.508-36.813-11.027-34.938C492.342,269.969,478.781,305.361,474.103,286.51z"/>
					<g>
						<path fill="#FFFFFF" d="M516.106,303.506c-8.212-2.604-7.43-8.287-7.43-8.287l1.394-23.084l0.375-7.666
							c0,0-0.304-2.813,3.366-3.344c-2.957-0.746-6.268-0.436-6.699,4.438l-0.522,2.668l-1.199,27.388c0,0-0.729,6.062,6.043,8.389
							c6.771,2.326,31.457,11.502,31.457,11.502l4.679-0.62l1.122-0.095h-0.001C548.689,314.793,524.317,306.109,516.106,303.506z"
							/>
						<path fill="#B7B9C4" d="M572.277,311.811c0.056,0.107-22.591-31.717-22.591-31.717l-31.08-16.924c0,0-2.27-1.408-4.795-2.045
							c-3.67,0.529-3.366,3.344-3.366,3.344l-0.375,7.666l-1.394,23.084c0,0-0.782,5.684,7.43,8.287
							c8.211,2.604,32.583,11.287,32.583,11.287h0.001l14.646-1.207C563.337,313.586,572.222,311.705,572.277,311.811z"/>
						
							<ellipse transform="matrix(-0.4644 -0.8856 0.8856 -0.4644 489.3214 887.116)" fill="#231815" cx="512.922" cy="295.589" rx="2.764" ry="2.243"/>
						
							<ellipse transform="matrix(-0.4643 -0.8857 0.8857 -0.4643 494.8174 878.4008)" fill="#DF982C" cx="513.066" cy="289.551" rx="1.766" ry="1.434"/>
						<g>
							<path fill="none" stroke="#FFFFFF" stroke-linecap="round" stroke-linejoin="round" stroke-miterlimit="10" d="
								M536.34,304.447c0.841,0.428,1.683,0.857,2.507,0.861"/>
							<path fill="none" stroke="#FFFFFF" stroke-linecap="round" stroke-linejoin="round" stroke-miterlimit="10" d="
								M537.162,304.449c0.037-1.107,0.233-2.299,0.021-3.492"/>
							<path fill="none" stroke="#FFFFFF" stroke-linecap="round" stroke-linejoin="round" stroke-miterlimit="10" d="
								M535.104,300.523c1.235,0.004,2.579,0.604,3.744,0.865"/>
							<path fill="none" stroke="#FFFFFF" stroke-linecap="round" stroke-linejoin="round" stroke-miterlimit="10" d="
								M536.035,299.162c0.055-0.682,0.036-1.107,0.092-1.789"/>
							<path fill="none" stroke="#FFFFFF" stroke-linecap="round" stroke-linejoin="round" stroke-miterlimit="10" d="
								M536.09,298.48c0.859,0.854,2.113,1.287,3.261,1.121c0.231-0.34,0.216-0.767,0.198-1.191"/>
							<path fill="none" stroke="#FFFFFF" stroke-linecap="round" stroke-linejoin="round" stroke-miterlimit="10" d="
								M537.774,299.34c-0.107-0.596-0.215-1.193-0.071-1.703"/>
							<path fill="none" stroke="#FFFFFF" stroke-linecap="round" stroke-linejoin="round" stroke-miterlimit="10" d="
								M535.985,293.965c0.841,0.43,2.006,0.689,2.83,0.693c0.232-0.34,0.143-0.512,0.216-0.766"/>
							<path fill="none" stroke="#FFFFFF" stroke-linecap="round" stroke-linejoin="round" stroke-miterlimit="10" d="
								M535.341,290.385c1.235,0.004,2.329,0.52,3.422,1.035c0.483-0.254,0.305-0.596,0.287-1.021"/>
							<path fill="none" stroke="#FFFFFF" stroke-linecap="round" stroke-linejoin="round" stroke-miterlimit="10" d="
								M537.027,283.404c-1.863,0.76-0.396,4.344,1.396,3.84c2.294-0.332,0.824-3.916-1.63-3.5"/>
							<path fill="none" stroke="#FFFFFF" stroke-linecap="round" stroke-linejoin="round" stroke-miterlimit="10" d="
								M539.019,281.709c0.178,0.34,0.429,0.428,0.77,0.684"/>
							<path fill="none" stroke="#FFFFFF" stroke-linecap="round" stroke-linejoin="round" stroke-miterlimit="10" d="
								M541.464,302.848c-0.609,1.191-0.63,2.726-0.574,4.002"/>
							<path fill="none" stroke="#FFFFFF" stroke-linecap="round" stroke-linejoin="round" stroke-miterlimit="10" d="
								M541.785,304.639c0.842,0.428,1.756,0.604,2.49,0.437"/>
							<path fill="none" stroke="#FFFFFF" stroke-linecap="round" stroke-linejoin="round" stroke-miterlimit="10" d="
								M541.321,301.398c0.502,0.174,0.752,0.26,1.164,0.26"/>
							<path fill="none" stroke="#FFFFFF" stroke-linecap="round" stroke-linejoin="round" stroke-miterlimit="10" d="
								M542.557,301.404c-0.124-1.025,0.002-1.961,0.289-2.98"/>
							<path fill="none" stroke="#FFFFFF" stroke-linecap="round" stroke-linejoin="round" stroke-miterlimit="10" d="
								M541.25,297.734c0.252,0.086,0.663,0.088,1.075,0.09"/>
							<path fill="none" stroke="#FFFFFF" stroke-linecap="round" stroke-linejoin="round" stroke-miterlimit="10" d="
								M541.072,295.434c0.145-0.51,0.288-1.021,0.359-1.276"/>
							<g>
								<g>
									<path fill="#FFFFFF" d="M540.897,296.127c0.1,0.113,0.247,0.153,0.34,0.258c0.43,0.482,1.134-0.227,0.707-0.707
										c-0.1-0.111-0.248-0.152-0.34-0.258C541.178,294.936,540.473,295.645,540.897,296.127L540.897,296.127z"/>
								</g>
							</g>
							<path fill="none" stroke="#FFFFFF" stroke-linecap="round" stroke-linejoin="round" stroke-miterlimit="10" d="
								M541.843,296.117c-0.09-0.17-0.09-0.17-0.181-0.34"/>
						</g>
					</g>
					<path fill="#DBAFAF" d="M575.433,299.768c0,0,3.176,0.783,3.231-5.285c0.056-6.071-2.766-7.041-3.692-7.045
						s-0.953-0.643-1.074-2.051c-0.12-1.404-0.844-5.434-5.494-4.301c0,0-1.492-0.199-1.651-2.564
						c-0.16-2.364-3.115-4.994-6.558-3.059c0,0-3.731,0.201-4.869-2.262c-1.137-2.461-5.047-2.859-5.047-2.859
						s-4.139,0.045-5.201,2.725c0,0-2.002,6.813,0.349,13.609c2.35,6.799,2.424,12.008,4.507,5.951
						c2.083-6.061,2.448-6.68,2.177-9.455c-0.268-2.773,3.508-2.061,3.508-2.061s0.42,8.744-2.176,13.205
						c-2.596,4.463-5.808,12.094,0.594,12.131c6.402,0.039,4.698-5.271,4.698-5.271l0.05-4.598l4.008-2.098l3.025-3.726
						c0,0,1.051,7.168-1.021,9.951c-2.07,2.783-2.257,4.519,0.416,4.012c2.674-0.504,4.235-2.465,4.235-2.465l2.994-1.405
						L575.433,299.768z"/>
					<path fill="#CEA4A4" d="M540.412,272.084c0,0-2.645,2.182-0.106,5.924s5.092,1.602,5.092,1.602l0.121-5.108
						C545.519,274.5,541.524,270.148,540.412,272.084z"/>
					<path fill="#E9C0C0" d="M546.006,344.232c0,0,7.144,16.01,11.078,18.52c3.938,2.506,18.574-6.637,18.574-6.637l2.934-5.293
						c0,0-3.827-5.83-4.499-8.58c-0.671-2.752-3.664-10.816-3.664-10.816s4.184-9.375,4.213-16.084
						c0.028-6.709,3.162-11.619,1.645-13.926c-1.518-2.305-2.811-5.383-2.811-5.383s-3.702-5.568-8.982-7.699l-2.446,3.568
						c0,0,1.743,4.799,4.002,5.574c2.258,0.778,2.497,6.528,2.497,6.528s-2.032,6.127-3.12,5.229
						c-1.088-0.898,0.527-9.584-3.957-19.314c0,0-2.494-12.408-7.91-11.854c-5.416,0.553-0.408,12.459-0.408,12.459
						s2.604,10.555,0.787,14.444c-1.815,3.892-0.914,3.257-2.459,1.779c0,0-3.074-11.451-3.745-12.731
						c-0.671-1.281-1.896-12.146-1.896-12.146s-0.629-6.789-5.404-5.014c-4.775,1.774-3.033,13.926-3.033,13.926l4.775,21.17
						c0,0,0.43,1.408-1.506,2.422c-1.937,1.014-2.74-0.521-2.74-0.521s-4.649-3.276-7.736-12.108
						c-3.086-8.828-8.596-5.615-9.129-4.521c-0.533,1.094-3.678,2.744,1.868,12.734s8.839,11.857,8.839,11.857
						s3.088,2.951,3.396,5.893c0.308,2.941,6.313,8.445,8.286,11.656C545.429,342.574,545.463,343.041,546.006,344.232z"/>
					<path fill="#F0D8D8" d="M523.147,298.605c0,0-4.367,0.494-1.156,4.852c3.209,4.359,4.783,0.594,4.783,0.594
						S529.72,297.609,523.147,298.605z"/>
					<path fill="#F0D8D8" d="M540.845,277.645c0,0-3.592,1.974-1.375,4.73c0,0,1.182,1.666,2.996,0.715
						c1.813-0.951,2.68-2.316,1.608-3.99C543.004,277.426,542.206,277.006,540.845,277.645z"/>
					<path fill="#F0D8D8" d="M551.041,281.818c0,0,2.498,2.625,5.015,1.307c2.516-1.318-0.504-4.656-0.504-4.656
						s-2.894-1.199-4.124,1.141C551.428,279.609,551.02,281.102,551.041,281.818z"/>
					<path fill="#F0D8D8" d="M563.576,291.059c0,0,2.5,3.015,4.832,0.072c0,0-3.084-2.621-3.504-2.008L563.576,291.059z"/>
					<path fill="#231815" d="M565.087,379.779c-0.345-0.658-0.334-2.109-2.416-6.078c-2.081-3.971-3.425-5.063-3.425-5.063
						s-0.86,0.122-1.073-2.052c-0.216-2.172-3.011-4.953-3.011-4.953l-0.737-1.407c0,0,1.086,4.817,13.547-1.715
						c12.461-6.531,9.438-9.355,9.438-9.355s1.466-0.439,2.148,2.629c0.685,3.07,2.231,3.729,2.231,3.729s1.882,1.299,1.209,2.307
						c-0.676,1.007,5.146,10.341,5.146,10.341L565.087,379.779z"/>
					<path fill="#F6F0F0" d="M477.3,304.447c1.899-8.9-2.162-14.908-2.162-14.908l7.495-17.951l13.229-7.938
						c0,0,13.019-1.174,10.728,4.58c0,0-17.956,16.293-16.956,23.188s-12.001,8.183-5.667,23.373c0,0,8,14.479,3.334,15.168
						c0,0,0.666-6.979-4.334-11.979S476.896,306.34,477.3,304.447z"/>
				</g>
			</g>
		</g>
	</g>
	<path fill="#989898" d="M883.473,249.082c-1.028-4.492-27.845-10.755-58.922-16.556l-180.796-89.299c0,0-23.269-13-42.769-3l-86,42
		l-1.551,0.814l-20.96-3.32c0,0-2.729,7.807-0.767,19.002c0.589,4.785,6.627,8.441,6.627,8.441
		c30.022,16.309,241.649,120.563,241.649,120.563s18,6.5,32,0s101.5-51.5,101.5-51.5s5.883-2.771,8.617-6.757
		C882.104,269.471,885.926,264.844,883.473,249.082"/>
	<path fill="#FFFFFF" d="M514.987,165.727l-20,10.5c0,0-7.5,7,0,12.5s245,122.5,245,122.5s18,6.5,32,0s101.5-51.5,101.5-51.5
		s25.5-12-5-22l-224.731-111c0,0-23.269-13-42.769-3L514.987,165.727z"/>
	<ellipse fill="none" stroke="#6D6D6D" stroke-miterlimit="10" cx="810.035" cy="275.066" rx="13.452" ry="8.75"/>
	<ellipse fill="#CBCBCB" cx="558.589" cy="155.374" rx="3.289" ry="2.139"/>
	<ellipse fill="#585959" cx="535.868" cy="218.547" rx="4.694" ry="5.277"/>
	<ellipse fill="#CBCBCB" cx="564.4" cy="146.461" rx="2.659" ry="1.729"/>
	<ellipse fill="#585959" cx="551.939" cy="226.565" rx="4.694" ry="5.277"/>
	<path fill="#EDEDEC" d="M549.487,202.977l8.25,4.25c0,0,2.5,0.75,2.5,4c0,4.75-3,1.598-3,1.598l-12.25-6.098c0,0-1.25,0-1.25-3.75
		s2.75-1.75,2.75-1.75L549.487,202.977z"/>
	<ellipse fill="#FFFFFF" cx="533.97" cy="218.325" rx="4.75" ry="5.5"/>
	<ellipse fill="#FFFFFF" cx="550.039" cy="226.342" rx="4.75" ry="5.5"/>
	<path fill="#CBCBCB" d="M578.49,147.229c-0.754-1.146-2.358-0.117-2.358-0.117l-9.384,4.406l-1.112,0.475
		c0,0-2.275,0.85-1.253,1.734c1.144,0.988,2.491,0,2.491,0l10.445-4.756C579.338,147.907,579.221,148.34,578.49,147.229z"/>
	<polygon fill="#E3E9F5" points="595.987,148.19 511.987,191.727 729.987,301.727 858.487,236.227 636.383,126.727 	"/>
	<path fill="#28459A" d="M752.201,193.882c0,0-8.337-3.051-15,0l-11.5,4.5l0,0l-63.5,29.598l-9.647,5.5
		c0,0-13.194,6.403,2.227,13.903c15.422,7.5,25.326,0,25.326,0l75.096-37.034C755.201,210.349,766.291,202.212,752.201,193.882z"/>
	<g>
		<g>
			<g>
				<path fill="#28459A" d="M609.787,369.824c4.45,0.846,10.031,5.484,7.627,10.494c0.288,0,0.576,0,0.863,0
					c-1.577-3.245,0.626-7.971,4.655-7.223c1.267,0.234,1.006,0.793,1.984,0.141c0.867-0.579,0.434-1.939,1.339-2.545
					c-0.202-0.262-0.404-0.523-0.606-0.785c-0.035,0.033-0.069,0.068-0.104,0.103c-0.199,0.195-0.186,0.511,0,0.707
					c0.486,0.519,1.389,0.638,2.05,0.788c0.306,0.068,0.645-0.146,0.633-0.482c-0.059-1.666,0.042-3.357-0.46-4.967
					c-0.321,0.09-0.644,0.178-0.964,0.266c0.941,2.439,1.398,4.56,1.389,7.188c0.333,0,0.667,0,1,0
					c-0.156-1.3,0.817-2.521,0.66-3.832c-0.167,0.167-0.333,0.333-0.5,0.5c0.828-0.057,1.679,0.623,2.335,1.074
					c0.199,0.137,0.438,0.056,0.606-0.078c0.774-0.614,1.019-1.794,1.248-2.707c-0.005,0.019,2.073,0.046,2.358,0.022
					c0.748-0.063,1.413-0.504,2.027-0.889c-0.245-0.1-0.49-0.199-0.734-0.299c0.322,2.271,2.086,3.948,2.408,6.215
					c0.321-0.089,0.643-0.177,0.964-0.266c-0.776-2.37,0.817-3.239,1.422-5.289c0.184-0.62-0.782-0.883-0.964-0.266
					c-0.71,2.404-2.306,3.121-1.422,5.82c0.206,0.629,1.053,0.357,0.964-0.267c-0.322-2.271-2.086-3.948-2.408-6.215
					c-0.045-0.32-0.484-0.455-0.733-0.3c-1.224,0.766-2.12,0.594-3.4,0.77c-0.518,0.071-1.302,0.079-1.445,0.693
					c-0.087,0.373-0.2,0.738-0.313,1.104c-0.313,0.994,0.022,1.131-0.726,0.66c-0.645-0.404-1.402-0.84-2.185-0.786
					c-0.246,0.017-0.534,0.216-0.5,0.5c0.156,1.3-0.818,2.521-0.66,3.832c0.075,0.623,0.998,0.662,1,0
					c0.011-2.745-0.438-4.897-1.425-7.453c-0.228-0.589-1.16-0.36-0.964,0.267c0.473,1.517,0.369,3.13,0.424,4.701
					c0.211-0.162,0.422-0.322,0.633-0.482c-0.651-0.148-0.971-0.449-1.504,0.074c0.399-0.393-0.126-1.105-0.605-0.785
					c-1.15,0.77-0.957,2.828-2.554,2.304c-1.381-0.454-2.861,0.048-4.008,0.817c-2.548,1.715-3.04,5.273-1.777,7.873
					c0.158,0.326,0.706,0.328,0.863,0c2.685-5.59-3.047-10.979-8.225-11.963C609.424,368.74,609.155,369.703,609.787,369.824
					L609.787,369.824z"/>
			</g>
		</g>
		<g>
			<g>
				<path fill="#28459A" d="M644.108,360.641c-0.314-0.717,0.178-1.726,0.751-2.156c1.208-0.912,1.802,1.182,2.075,1.901
					c0.812,2.144,0.226,4.009-0.647,6.042c-0.114,0.268-0.052,0.676,0.3,0.734c2.185,0.37,2.899-0.919,4.736-1.738
					c0.588-0.262,0.079-1.124-0.505-0.863c-1.435,0.641-2.237,1.932-3.966,1.637c0.1,0.246,0.199,0.49,0.299,0.734
					c0.703-1.637,1.395-3.328,1.188-5.143c-0.108-0.949-0.617-3.227-1.391-3.803c-2.167-1.618-4.749,0.772-3.703,3.158
					C643.503,361.734,644.365,361.225,644.108,360.641L644.108,360.641z"/>
			</g>
		</g>
		<g>
			<g>
				<path fill="#28459A" d="M650.577,355.215c-4.392,1.221-0.854,9.598,3.058,9.332
					C657.504,364.284,655.267,354.404,650.577,355.215c-0.635,0.11-0.364,1.073,0.267,0.965c3.836-0.664,4.788,7.732,2.14,7.357
					c-2.313-0.328-5.129-6.527-2.14-7.357C651.464,356.007,651.2,355.042,650.577,355.215L650.577,355.215z"/>
			</g>
		</g>
	</g>
	<g>
		<g>
			<polygon fill="#FFFFFF" points="0.694,408.514 178.694,322.514 368.028,457.848 331.361,475.391 69.361,475.391 			"/>
			<polygon fill="none" stroke="#172A54" stroke-miterlimit="10" points="178.028,333.182 326.028,436.516 252.028,475.391 
				82.028,475.391 15.361,411.184 			"/>
		</g>
		<g>
			<polygon fill="#EADBCC" points="178.967,331.33 330.568,437.178 254.769,477 80.631,477 12.342,411.23 			"/>
			<g>
				<g>
					<defs>
						<polygon id="SVGID_3_" points="178.967,331.33 330.568,437.178 254.769,477 80.631,477 12.342,411.23 						"/>
					</defs>
					<clipPath id="SVGID_4_">
						<use xlink:href="#SVGID_3_"  overflow="visible"/>
					</clipPath>
					<g clip-path="url(#SVGID_4_)">
						<path fill="#201B08" d="M205.692,360.004c-11.573-14.104-16.388-27.361-16.388-27.361l20.035,9.267
							c30.178,18.387,59.913,71.553,59.994,77.155c0.081,5.605-6.517,8.117-6.517,8.117s28.694,14.681,33.087,15.625
							c4.394,0.941,5.916,7.605,5.916,7.605l-44.219-23.594c0,0-24.271,10.153-29.519,15.977
							c-5.245,5.824-7.192,10.394-7.192,10.394s-1.48,2.021,2.323,2.985c3.804,0.963,58.379,16.941,58.379,16.941l-7.613,5.92
							c0,0-58.67-26.74-60.407-21.902c-1.733,4.836,10.879,55.623,7.664,58.558c-3.216,2.936-7.233,5.625-7.233,5.625L198.14,460.85
							c0,0-1.898-6.368-9.259,0.662c-7.36,7.029,7.271,74.556,7.271,74.556l-6.853,5.33l-17.972-67.104c0,0-2.789-4.373-1.14-6.963
							c1.65-2.592-3.717-7.137-38.522,12.52c0,0,0.877,21.554-3.908,28.759c-4.779,7.2-10.19,1.821-10.19,1.821l-3.791-24.52
							c0,0-23.343,7.688-27.023,13.168l-5.281-6.789l18.188-8.037l30.913-14.451c0,0,17.303-13.887,21.53-16.307
							c4.23-2.416,16.283-7.869,21.777-6.037l13.271-7.021c0,0-38.176,5.896-67.776,14.969
							c-29.602,9.067-32.104,14.492-36.055,16.479c-3.952,1.988-12.411,6.822-12.411,6.822l-1.479-1.902
							c0,0,26.184-22.104,30.496-22.842L63.513,469.2l-1.688-2.178c0,0,48.424-24.142,58.403-26.232
							c9.98-2.091,18.396-3.842,18.396-3.842s-10.063,0.414-41.946,7.336L59.25,459l25.883-12.281l32.771-8.918
							c0,0-17.631-0.676-26.513,3.615c-8.881,4.289,37.297-17.242,51.314-15.713c14.018,1.526,28.057-2.412,28.057-2.412
							s-64.851-11.91-69.715-10.307c-4.863,1.6,17.553-6.238,41.988-5.191c24.438,1.055,42.023,4.814,42.023,4.814
							s20.333,7.293,21.94,3.862c1.607-3.43-31.324-9.646-31.324-9.646s-53.633-14.141-61.898-19.486
							c-0.527-0.344-0.871-0.648-1.004-0.912c-2.194-4.393,27.099,8.137,48.534,5.852c21.439-2.282,48.039,13.855,48.039,13.855
							s-66.63-40.904-66.839-43.529c0,0,11.711,6.418,16.997,5.359c5.285-1.063,47.941,5.875,71.438,29.02
							c0,0,3.409,1.242-1.801-6.241C223.934,383.252,205.692,360.004,205.692,360.004z"/>
						<path fill="#484E25" d="M250.847,490.924l15.229-11.842c0,0-13.353-17.955-10.261-27.334
							c3.093-9.379,3.741-32.117-11.946-29.506c-15.688,2.606-18.942,0.776-23.937,7.713c0,0,5.495,3.139,8.151,12.84
							c2.66,9.705,30.168,38.01,30.168,38.01s-5.41-1.457-16.188-7.465c-10.778-6.002-57.112-15.309-57.112-15.309l53.598,24.146
							C238.548,482.178,250.552,488.973,250.847,490.924z"/>
						<path fill="#484E25" d="M143.486,435.344l46.465,3.979c0,0,13.917-11.263,19.055-10.896
							C209.005,428.428,148.604,430.932,143.486,435.344z"/>
						<path fill="#484E25" d="M122.554,515.271c0,0,6.396-18.488,6.021-29.968c-0.373-11.479,3.884-17.01,3.884-17.01
							s-13.221,4.219-24.469,8.605c-11.25,4.385-25.84,9.192-26.27,20.426c0,0,13.127-4.635,20.598-11.222
							c0,0,13.07-11.475,4.629-0.329c-8.44,11.139-12.592,27.012-10.649,30.293c0,0,10.127-24.293,16.152-29.705
							c0,0,7.188,29.866,6.68,31.571C118.62,519.635,120.771,520.959,122.554,515.271z"/>
						<path fill="#E9C0C0" d="M134.57,397.666c0,0-2.846,29.51,0.466,32.986c3.311,3.475,6.178,7.957,6.178,7.957l24.848-4.099
							c0,0,0.056-8.549,3.474-14.342c3.417-5.791,10.522-23.295,10.522-23.295s3.555-5.897-2.365-7.785c0,0-3.438-0.457-2.569-2.476
							c0.867-2.02-2.679-6.762-3.107-6.538c-0.432,0.223-1.024-0.32-0.572-1.121c0.453-0.802,7.32-20.078,2.773-19.951
							c-4.551,0.123-6.863,10.371-6.863,10.371l-8.001,20.657c0,0-1.927,2.896-2.21,1.804c-0.283-1.092,5.931-14.69,5.931-14.69
							l-5.931-3.922l-6.438,16.153c0,0-1.954,3.867-2.619,4.383c-0.664,0.519-4.827,9.464-4.827,9.464s-2.687,3.209-1.846-0.021
							c0.842-3.227-0.244-3.055,2.008-6.818c2.252-3.766,1.139-7.938-0.258-8.758c0,0-1.328-1.313-4.664,4.189
							C138.496,391.814,134.655,396.734,134.57,397.666z"/>
						<path fill="#D3A988" d="M160.419,367.686l5.125,0.59c0,0,1.755-6.778-0.876-6.637
							C162.037,361.781,160.419,367.686,160.419,367.686z"/>
						<path fill="#EC7267" d="M83.778,499.941l25.928,3.565c0,0,8.353,2.906,9.815,0.871c1.465-2.037,23.541-24.576,21.102-37.896
							c-2.44-13.324-2.276-32.701-2.276-32.701l28.412-2.916c0,0,1.42,34.34,2.457,37.912c1.038,3.569,5.738,11.297,10.022,16.022
							c4.285,4.729,10.142,31.064,1.788,37.56c-8.353,6.495-6.347,9.858-6.563,12.715c-0.218,2.854-11.662,20.26-19.798,20.766
							c-8.138,0.508-18.278,0.785-20.447,4.263C132.047,563.58,83.778,499.941,83.778,499.941z"/>
					</g>
				</g>
			</g>
		</g>
	</g>
	<g>
		<polygon fill="#BEA58B" points="1058.031,461.537 1281.214,442.311 1224.388,273.559 997.033,291.238 		"/>
		<g>
			<g>
				<defs>
					<polygon id="SVGID_5_" points="1058.031,461.537 1281.214,442.311 1222.651,266.395 997.033,291.238 					"/>
				</defs>
				<clipPath id="SVGID_6_">
					<use xlink:href="#SVGID_5_"  overflow="visible"/>
				</clipPath>
				<g clip-path="url(#SVGID_6_)">
					<path fill="#BEA58B" d="M1279.299,376.135c0,0-89.279,5.141-127.271,7.342c-37.992,2.203-84.757,5.779-110.756,3.019
						c-26-2.763,17.682,70.41,17.682,70.41l155.316,47.723l84.021-26.092L1279.299,376.135z"/>
					<path fill="#E3DACF" d="M1277.471,317.631l-289.833-21.066c0,0,37.413,83.898,34.53,95.277
						c-3.308,13.057,257.83-7.023,257.83-7.023L1277.471,317.631z"/>
					<path fill="#E9C0C0" d="M1089.889,429.287c0,0,21.813-3.777,24.451,10.656l-4.201,17.543l-27.411,1.922L1089.889,429.287z"/>
					<path fill="#E9C0C0" d="M1230.99,421.01c0,0-2.641-17.68-18.209-13.902c-15.569,3.773-17.153,13.371-17.153,13.371
						l16.625,36.529h31.807L1230.99,421.01z"/>
					<path fill="#F6F0F0" d="M1134.404,289.91c0,0,26.655-12.609,40.642,29.254c13.986,41.855,16.36,43.457,12.93,51.457
						c-3.432,7.998-70.723,21.061-75.736,13.596c-5.013-7.463-5.54-22.928-1.582-37.328c3.958-14.395,3.693-28.793,3.693-28.793
						S1114.614,292.387,1134.404,289.91z"/>
					<path fill="#E9C0C0" d="M1141.795,301.031c0,0,17.49,24.264,22.996,29.332c5.504,5.063,2.871,15.996,1.944,17.861
						c-0.929,1.866-4.358,17.063-18.081,23.461c0,0-5.794,1.489-12.926-4.586c-7.128-6.08-13.99-13.023-14.781-29.814
						c-0.793-16.789,4.485-32.252,11.348-34.387C1139.156,300.766,1139.549,297.947,1141.795,301.031z"/>
					<path fill="#EC7267" d="M1087.611,431.791c0,0,22.849-6.223,24.793,9.498l1.945,18.119l97.902-2.4l-11.609-34.664
						c0,0-3.093-7.059,3.075-10.717c6.168-3.656,16.646-8.584,23.278,0c6.631,8.586,0.298-7.412-5.771-13.012
						c-6.069-5.6-14.25-34.66-25.334-32.262c-11.082,2.399-8.182-2.134-20.057,2.934c-11.875,5.066-8.104-3.463-11.044,0.535
						c-2.941,3.998-2.678-6.135-2.678-9.332c0-3.199-8.182,10.932-13.459,11.195c-5.276,0.268-14.515-3.998-17.416-9.332
						c0,0,0.791,12.53-2.903,12.53c-3.693,0-2.901,0.002-6.86,1.334c-3.958,1.334-7.125-1.063-10.556,2.136
						c-3.432,3.196-5,3.731-5.791,3.467c-0.793-0.271-5.957,0.125-8.359,6.168C1093.324,396.65,1087.346,429.576,1087.611,431.791z"
						/>
					<path fill="#606060" d="M1124.352,467.113c0,0,0.791-21.597,10.82-31.729c10.026-10.129,12.401-17.637,12.401-17.637
						s0-9.022,6.068-9.56c6.069-0.532,1.848-11.463,5.276-13.596c3.433-2.135-2.375-19.467-4.221-19.998
						c-1.848-0.533,5.54,0.531,15.041,11.197c0,0,0.528,0,4.224-1.334c3.693-1.332,17.152,0.27,18.736,3.467
						c0,0,7.652-6.133,12.401-10.664c4.75-4.533,5.541-0.533,5.541,2.668c0,3.197,0.265,11.463-2.373,17.062
						c0,0-2.113,4.268-1.85,7.198c0.266,2.935-0.791,11.199-4.75,15.465c-3.957,4.269-5.806,21.331-5.806,21.331
						s0.265,23.194-9.5,27.463C1176.603,472.713,1124.352,467.113,1124.352,467.113z"/>
				</g>
			</g>
		</g>
	</g>
	<path opacity="0.3" fill="#030000" enable-background="new    " d="M1338.648,474.91l-280.998-95.332
		c0,0-24.015-10.004-55.669-7.338s-77.124-25.334-77.124-25.334s-23.863-9.332-35.863-10.666c0,0-6.834-1.502-5.667-6.336
		c1.167-4.832,17.833-5.332,27.333-4.332c0,0,4.5,0.313,4.5-1.928c0-2.242-5.166-3.404-5.166-3.404s-108.668-43.438-94.668-60.053
		c0,0,5.238-12.39,36.479,5.555c0.283,0.162,0.567,0.328,0.854,0.496c32,18.666,45,16.334,51,11.334s19.667-14.332,52.667-15.666
		c0,0,33.977-6.002,45.654,0.666c11.679,6.666,14.922,8.332,26.134,12c11.212,3.666,42.879,19,53.212,26s33.012,10.783,37,12
		c3.989,1.213,193.66,30.348,220.671,47.348L1338.648,474.91z"/>
	<g>
		<path fill="#DFAFAF" d="M1055.926,168.567c0,0,12.439-38.229-2.823-43.344c0,0-20.632-11.584-35.925,23.355l-30.519,57.957
			c0,0,1.598,18.992,39.209,16.621c0,0,16.095,6.984,21.763-7.879c0,0,16.196-1.646,17.348-17.795c0,0,0.28-13.727-6.648-20.443
			C1058.329,177.04,1054.479,173.622,1055.926,168.567z"/>
		<path fill="#E9C0C0" d="M926.146,229.459c0,0,5.658,0.574,9.408,3.074s36.75,15.353,76.75-3.074c0,0,32-11.676,9.5-21.676
			c0,0-24-10-47.75,1.25"/>
		<path fill="#FBEDE4" d="M1028.115,219.813c0,0-16.311-4.277-23.311,3.889c0,0-10.121,9.961-2.812,9.896
			C1001.993,233.598,1020.092,228.26,1028.115,219.813z"/>
		<path fill="#E9C0C0" d="M1110.32,138.325c0,0-57.016-12.791-61.516-3.291s-9,67-113.5,92c0,0-15.5,1.5-35,18s-48.5,34-67,17
			c0,0-10.5-6.5,17-23.5c0,0,38-22,49-43.5c0,0-39,49-98,42.5c0,0-47-3.5-40-27.5c0.285-0.449,6.676-9.252,30.5-0.5
			c0,0,21.5,12,66-29.5c0,0,106.714-139.826,173-149.043c0,0,102-18.793,147.25,0l-61.75,108.793L1110.32,138.325z"/>
		<path fill="#FBEDE4" d="M851.305,241.533c0,0,5.5-3.25,8.25,2.25s-2.75,16-13.75,21c0,0-4.912,0.941-9.5-4c0,0-4.25-5.383,0-8.066
			C836.305,252.717,848.395,242.453,851.305,241.533z"/>
		<path fill="#FBEDE4" d="M763.305,211.784c0,0,3.25,11,15.5,7.5c0,0,9.763-4.289,10-7.5c0,0,0.801-2.49-8.5-4.25c0,0-11-3.5-17,2
			C763.305,209.534,762.735,210.383,763.305,211.784z"/>
		<path fill="#DFAFAF" d="M899.305,195.034c0,0,34.666-46.666,38.166-71.166c0,0,0.5-2.834,1.334-2.834s0.834,1.168,0,4.5
			C937.971,128.868,925.389,167.167,899.305,195.034z"/>
		<path fill="#DFAFAF" d="M925.564,229.575c0,0,57.377-13.111,75.553-29.906c0,0,7.998-5.076,8.645-4.551
			c0.647,0.525-4.322,4.693-7.072,6.752C999.938,203.93,963.384,224.415,925.564,229.575z"/>
		<path fill="#E9C0C0" d="M1036.834,224.616c0,0,9.595-13.338,9.602-19.414c0,0-0.219-0.73,0.051-0.783
			c0.271-0.051,0.943-0.055,0.826,0.793C1047.196,206.061,1043.991,216.333,1036.834,224.616z"/>
		<path fill="#FBEDE4" d="M1029.822,207.868c0,0,0.482-7.834,9.149-7s10.833,1.166,10.833,1.166s3.498-0.029-2,10
			c0,0-5.312,11.063-12.5,9.422C1035.305,221.456,1030.673,221.368,1029.822,207.868z"/>
		<path fill="#FBEDE4" d="M1063.805,190.483c0,0-0.333-3.666-7.833,2.834c0,0-8.5,5.5-5,12.334c0,0,7.146,7.521,11.24,1.844
			C1062.212,207.495,1067.638,199.483,1063.805,190.483z"/>
		<path fill="#204D9F" d="M1338.998,33.31c0,0-160.75-15.325-202.64-12.479c-45.369,3.082-52.825,75.755-39.759,114.752
			c0,0,82.717,27.346,242.398,45.383V33.31z"/>
	</g>
	<g>
		<g>
			<g>
				<path fill="#28459A" d="M1258.461,458.75c0.321,0,0.321-0.5,0-0.5C1258.139,458.25,1258.139,458.75,1258.461,458.75
					L1258.461,458.75z"/>
			</g>
		</g>
		<g>
			<g>
				<path fill="#28459A" d="M1263.128,455.918c0.88,0.021,1.404,0.25,1.587,1.144c0.21,1.027-0.114,2.236-0.312,3.239
					c-0.185,0.944,1.261,1.349,1.447,0.398c0.283-1.448,0.675-3.126,0.164-4.568c-0.444-1.258-1.655-1.683-2.888-1.713
					C1262.159,454.394,1262.161,455.894,1263.128,455.918L1263.128,455.918z"/>
			</g>
		</g>
		<g>
			<g>
				<path fill="#28459A" d="M1268.461,454.584c1.04-0.021,2.341-0.49,3.227,0.22c0.307,0.245-0.591,2.01-0.707,2.234
					c-0.438,0.847-1.058,1.585-1.717,2.266c-0.673,0.694,0.387,1.756,1.061,1.062c0.85-0.875,1.57-1.832,2.131-2.917
					c0.423-0.818,0.988-2.206,0.729-3.146c-0.187-0.678-1.226-1.167-1.849-1.319c-0.91-0.225-1.954,0.085-2.875,0.104
					C1267.494,453.104,1267.492,454.604,1268.461,454.584L1268.461,454.584z"/>
			</g>
		</g>
		<g>
			<g>
				<path fill="#28459A" d="M1213.683,465.536c2.592-2.59,3.199-5.902-0.153-8.101c-1.792-1.175-6.139-2.147-6.796,0.813
					c-0.947,4.259,3.354,6.724,6.901,6.357c2.31-0.239,4.541-1.316,6.422-2.63c0.4-0.279,0.772-0.6,1.141-0.921
					c0.219-0.197,0.43-0.404,0.631-0.621c0.407-0.438,0.374-0.427-0.098,0.035c-0.286,1.186-0.105,2.395,0.372,3.486
					c0.093,0.214,0.396,0.125,0.457-0.06c0.776-2.385,1.896-4.561,2.119-7.091c0.027-0.32-0.473-0.317-0.5,0
					c-0.267,2.993,1.5,4.243,2.112,6.963c0.05,0.217,0.352,0.239,0.457,0.061c0.649-1.102,1.655-1.656,2.346-2.637
					c0.165-0.234,0.231-0.659,0.255-0.928c-0.378-0.11-0.449,0.039-0.214,0.451c0.059,0.303,0.078,0.604,0.094,0.907
					c0.009,0.174,0.086,0.355,0.284,0.365c1.046,0.054,1.949,0.005,3.021,0.299c0.219,0.06,0.386-0.177,0.282-0.367
					c-0.47-0.873-0.938-1.746-1.408-2.618c-0.152-0.283-0.584-0.03-0.432,0.253c0.713,1.327,4.232,0.492,5.299,0.041
					c2.189-0.927,2.719-3.419,2.452-5.529c-0.026-0.207-0.256-0.344-0.427-0.178c-1.779,1.73-2.354,4.035-0.496,5.94
					c0.801,0.821,1.994,1.084,3.094,1.038c0.747-0.031,2.998-0.87,2.965-1.8c0.057,1.546,1.271,3.01,2.884,2.4
					c2.286-0.861,1.16-4.21,0.438-5.676c-0.098-0.199-0.403-0.139-0.457,0.06c-0.428,1.584-0.923,3.821,0.983,4.57
					c1.979,0.777,4.896-1.165,6.406-2.177c0.267-0.178,0.024-0.604-0.252-0.433c-2.771,1.712-2.047,3.57-2.672,6.342
					c-0.069,0.313,0.411,0.446,0.482,0.133c0.563-2.498-0.223-4.396,2.441-6.042c-0.084-0.145-0.168-0.288-0.252-0.433
					c-1.546,1.034-6.709,4.154-7.046,0.495c-0.048-0.522-0.113-2.528,0.473-1.058c0.379,0.953,0.452,2.038,0.038,2.985
					c-1.069,2.443-2.938-0.265-2.987-1.701c-0.007-0.195-0.282-0.36-0.427-0.177c-1.104,1.407-2.478,2.294-4.326,1.902
					c-2.17-0.459-2.928-2.825-2.07-4.654c0.648-1.387,0.786-1.059,0.811-0.22c0.028,1.081-0.426,2.063-1.093,2.879
					c-0.552,0.676-1.4,1.007-2.202,1.247c-0.599,0.18-3.278,0.438-3.629-0.213c-0.144,0.085-0.287,0.169-0.432,0.253
					c0.321,0.595,0.641,1.191,0.961,1.787c0.7,1.3,0.007,0.151-1.078,0.069c-0.527-0.04-1.177-0.139-1.131,0.212
					c-0.093-0.703-0.171-1.373-0.335-2.071c-0.067-0.29-0.469-0.201-0.491,0.066c-0.1,1.2-0.567,1.613-1.396,2.309
					c-0.518,0.436-0.704,1.593-1.034,0.613c-0.732-2.171-2.021-3.157-1.792-5.734c-0.167,0-0.333,0-0.5,0
					c-0.131,1.497-0.521,2.788-1.064,4.173c-0.267,0.682-0.541,1.355-0.795,2.041c-0.064-0.297-0.132-0.594-0.196-0.891
					c-0.05-0.829,0.056-1.646,0.312-2.446c0.054-0.224-0.252-0.45-0.418-0.243c-3.557,4.428-14.631,8.066-14.818-0.844
					c-0.06-2.845,4.438-1.604,5.778-0.905c3.42,1.784,2.734,5.111,0.354,7.491C1213.101,465.411,1213.453,465.765,1213.683,465.536
					L1213.683,465.536z"/>
			</g>
		</g>
	</g>
</g>
</svg>
