<?xml version="1.0" encoding="utf-8"?>
<!-- Generator: Adobe Illustrator 16.0.0, SVG Export Plug-In . SVG Version: 6.00 Build 0)  -->
<!DOCTYPE svg PUBLIC "-//W3C//DTD SVG 1.1//EN" "http://www.w3.org/Graphics/SVG/1.1/DTD/svg11.dtd">
<svg version="1.1" id="Layer_1" xmlns="http://www.w3.org/2000/svg" xmlns:xlink="http://www.w3.org/1999/xlink" x="0px" y="0px"
	 width="375px" height="691px" viewBox="0 0 375 691" enable-background="new 0 0 375 691" xml:space="preserve">
<g>
	<path fill="#E69A98" d="M166.848,231.101c-1.971-7.356-5.586-1.506-5.586-1.506c-8.388,6.326-29.289,6.738-29.289,6.738
		c-12.79-1.238-13.752-22.553-13.752-22.553c-0.824-5.638-3.024-6.05-3.024-6.05c-6.463-4.813-3.371-8.385-3.371-8.385
		s1.102-1.289,0.07-2.341c-1.029-1.052-2.063-2.888-2.063-2.888c-2.44-4.688,0.826-7.701,0.826-7.701
		c1.786-3.988,0.692-9.49,0.692-9.49c0-2.75-4.407-5.72-4.407-5.72c-7.709-6.27-0.544-12.433-0.544-12.433
		s14.302-20.901,4.401-35.134c-9.901-14.231,0-36.373,0-36.373s12.233-1.373,12.646-1.373c0.413,0,3.987-1.375,3.987-1.375
		s8.113-2.75,9.539-3.3c1.426-0.55,7.236-1.238,7.909-1.238c0.672,0,10.329-1.375,11.016-1.375c0.688,0,10.313-0.962,11.276-0.962
		c0.963,0,31.766,6.602,32.178,6.602c0.414,0,3.988,49.504,5.64,50.33c1.647,0.824,0.963,6.05,1.375,6.737
		c0.411,0.688-0.552,8.546-0.552,8.546s-5.5,48.659-5.5,49.072s-3.574,10.727-3.574,10.727l1.648,17.464
		c0,0,14.578,14.987,14.99,15.95s7.838,5.776,7.838,5.776l10.727,15.539c0,0,30.939,4.538,43.865,7.7
		c12.928,3.163,15.676,11.826,15.676,11.826s-1.512,4.95-1.512,5.362c0,0.413-2.201,4.4-1.787,4.813
		c0.412,0.413-6.051,0.55-6.051,0.55l-5.088,0.274l-10.313-0.825c0,0-6.188-0.275-6.604-0.275c-0.412,0-6.05,1.65-6.05,1.65
		l-6.875,7.013l-12.237,9.901l-27.641,9.626c0,0-10.863,3.851-10.863,4.537c0,0.688-14.851,12.927-14.851,13.339
		s-25.577,13.613-25.028,13.063c0.552-0.55-5.138-6.756-5.138-6.756S187.508,308.246,166.848,231.101z"/>
	<path fill="#FFFFFF" d="M313.714,349.627c0,0-14.792-59.983-28.711-72.209c0,0,4.292,5.376,0,7.851
		c-4.292,2.476-10.067-2.888-10.067-2.888s-12.238-9.764-30.664,1.926c-18.426,11.688-25.717,23.239-42.49,26.813
		c-16.779,3.575-33.966,26.128-33.966,26.128s-11.552,12.65-16.364,8.938c0,0-17.126,17.495-34.347,49.933
		s-21.482,44.677-22.722,56.434c-1.236,11.758,1.512,21.383-7.288,44.21c0,0-5.776,15.676,0,37.679
		c4.301,16.386,25.837,80.961,36.552,112.865c-1.93,1.931-3.566,4.039-4.845,6.354c-19.625,35.533,76.305,37.166,139.34,37.166
		c57.073,0,57.498-25.479,57.498-25.479l9.352-182.886C324.989,482.461,327.188,395.832,313.714,349.627z"/>
	<path fill="#EC7267" d="M214.805,464.685c0,0-5.775-35.203-7.129-53.904c-1.354-18.702-28.9-32.453-50.902-38.229
		c-22.003-5.775-30.529,43.729-33.553,57.553c-3.025,13.824-9.9,20.555-17.052,36.23c-7.149,15.676-3.575,22.002-9.075,29.151
		s-5.227,17.603-5.227,17.603c-0.07,2.186-0.687-1.031-2.13-2.545c-1.444-1.513-1.101-2.063-1.101-2.063
		c1.19-2.206,1.58-4.745,1.58-4.745c8.524-30.253,7.016-52.186,7.016-52.186c-0.758-11.173-10.314-2.543-19.116,7.356
		c-8.801,9.9-10.176,11-21.726,18.427c-11.553,7.426-18.41,19.512-18.41,19.512s0.018,0.463-14.594,21.369
		C-3.037,556.024,0.064,600.27,0.064,600.27s5.171,26.402,1.871,34.654c-3.301,8.25-2.476,18.976,4.399,24.201
		c6.875,5.227,6.326,5.221,6.326,5.221h0.157c4.324,3.697,31.144,25.479,62.774,25.479c34.563,0,56.979-25.479,56.979-25.479
		l71.504-59.125c8.801-19.252,9.626-54.563,9.626-54.563C220.305,512.323,214.805,464.685,214.805,464.685z"/>
	<path fill="#E58D8C" d="M125.856,233.702c0,0,28.615-15.154,40.992-45.956l8.799-19.473c0,0,10.538,28.171-15.716,62.806
		C159.931,231.079,133.597,241.579,125.856,233.702z"/>
	<path fill="#FFFFFF" d="M106.184,102.46c0,0,2.351-1.113,4.001,0.537c1.649,1.649,4.605,3.645,1.031,3.919
		c-3.576,0.274-4.745,1.375-4.745,1.375s-0.633,0.246-1.03-2.2C104.891,102.722,106.184,102.46,106.184,102.46z"/>
	<path fill="#F6F0F0" d="M111.387,124.506c0,0-2.939,4.973-5.442,3.157l-1.323-1.011c0,0-0.33,5.163,5.836,3.757
		c0,0,1.778-0.251,3.291-0.03C113.749,130.379,113.586,128.007,111.387,124.506z"/>
	<path fill="#D68888" d="M163.827,126.134c0,0-0.748,29.597,4.077,35.95c0,0,2.294,5.792,4.041,4.392
		c1.745-1.399,4.474-2.206,6.191-10.165c0,0,1.657-4.943,4.414-7.884c2.757-2.94,6.862-13.316,3.97-21.954
		c-2.893-8.636-7.132-22.294-13.002-16.344C173.518,110.129,164.893,115.328,163.827,126.134z"/>
	<path fill="#C9767C" d="M170.888,141.839c0,0-1.532,1.504-0.6,7.205c0,0,0.821,3.104-0.016,5.018
		c-0.835,1.914,0.106,4.478,2.661,0.297c2.558-4.181,4.268-5.227,5.229-5.732c0.962-0.505,3.321-3.371-1.056-6.446
		C173.005,139.298,172.181,140.549,170.888,141.839z"/>
	<path fill="#C9767C" d="M174.557,112.896c0,0-7.83,6.486-7.699,17.538c0,0-0.369,2.179,3.347-0.959c0,0,2.784-1.616,3.704,5.861
		c0,0,0.533,3.266,2.336,2.42c0,0,1.612-0.626-0.321-4.733c-1.933-4.106-1.804-11.351-0.864-15.757
		C175.059,117.266,176.332,111.096,174.557,112.896z"/>
	<path fill="none" stroke="#D2D2D2" stroke-width="2" stroke-miterlimit="10" d="M281.663,289.463c0,0,11.036,10.83,13.924,18.255
		c0,0,4.125,3.507-0.619-7.529c-4.743-11.035-5.879-10.622-10.416-12.169C284.552,288.02,278.261,287.503,281.663,289.463z"/>
	<path fill="#F6F0EF" d="M351.42,171.188c-26.854-33.504-57.208-119.137-57.208-119.137
		c-29.151-68.756-97.907-53.904-133.995-40.598c-36.085,13.306-42.02,24.097-54.123,48.847c-12.104,24.75,6.691,39.896,6.691,39.896
		c3.935,4.198,12.282,6.856,12.282,6.856c13.343,4.472,8.537,15.401,8.537,15.401c-11.551,34.103-3.301,51.703,6.593,64.904
		c9.896,13.201,18.708,1.65,18.708,1.65c-7.75,6.021-14.145-2.2-14.145-2.2c-23.496-32.453-4.563-60.506-4.563-60.506
		c14.295,20.352,24.107-14.301,24.107-14.301c9.65-21.041,21.135,0.003,21.135,0.003c13.338,33.586-0.62,44.003-0.62,44.003
		c-1.993,2.124-4.281,17.506-4.281,17.506l-5.718,8.898l-10.516,18.697c-17.705,37.403,3.953,59.406,3.953,59.406
		c18.151,22.554,18.151,9.349,18.151,9.349c-27.568-24.646-13.751-48.674-13.751-48.674c1.607,11.457,12.742,18.938,18.627,22.139
		c0.001,0.001,0.001,0.001,0.001,0.001c3.343,1.226,8.64,8.111,9.361,16.962c6.275,20.857,2.418,41.216-5.217,83.625l-0.979,5.951
		c-2.542,14.363-6.881,14.112-7.24,20.953c0.206,4.511-1.424,9.161,0.098,10.303c4.918,3.688,16.346,8.425,22.813-14.86
		c0.043-0.156,0.088-0.316,0.132-0.48c1.876-6.718,4.843-16.398,8.128-26.82c27.076-54.527,74.735-26.193,74.735-26.193
		c0.805,0.656,1.591,1.414,2.362,2.244c0.058,0.062,0.096,0.104,0.127,0.137c0.631,0.688,1.25,1.432,1.861,2.229
		c3.387,4.689,10.403,17.809,12.628,48.729c-0.567,16.681-3.29,46.313-14.925,64.995c-16.913,27.163-7.838,32.242-4.538,35.13
		c3.304,2.888,10.313-0.238,16.502-13.062c6.188-12.822,17.431-17.501,17.431-17.501c23.944-15.968,24.209-20.106,25.459-27.483
		c0.084-0.427,0.158-0.887,0.219-1.379l0.001-0.006l0,0c0.604-4.827,0.223-12.955-0.865-27.094
		c-1.96-25.462-0.724-40.747,7.067-59.553c0.305-0.549,0.471-0.842,0.471-0.842C380.021,280.753,383.98,211.816,351.42,171.188z"/>
	<path fill="#F6EBEA" d="M254.766,233.702c-18.25-15.314-17.078-20.65-15.039-34.137c0.102-0.673-0.242-1.393-0.432-2.143
		c-2.107-8.309-9.574-20.512-9.574-20.512s-24.755-27.07-33.142-55.556c-8.388-28.484-19.527-48.955-20.61-56.104
		c-1.08-7.151-8.54-24.176-4.108-29.152c7.969-8.946,13.081,3.766,13.081,3.766c44.779,93.538,49.354,65.332,71.466,122.381
		c0,0,4.134,25.741,24.244,44.789c0,0,32.111,32.724,37.111,70.385c5,37.66-6.328,77.747-7.943,94.667
		c0,0-1.368-42.861-14.213-56.935c0,0-5.104-7.849-14.955-8.631c0,0,10.89-19.502,0-36.472
		C280.652,270.049,275.766,251.324,254.766,233.702z"/>
	<path fill="#E69A98" d="M156.7,346.187"/>
	<g>
		<path fill="none" stroke="#0D3662" stroke-width="2" stroke-linecap="round" stroke-linejoin="round" stroke-miterlimit="10" d="
			M3.348,631.026c0,0-1.396,14.484,18.385,4.45c19.779-10.034,14.729-20.069,60.182-52.179c0,0,18.939-12.845,27.355-25.688
			c8.418-12.844,37.457-33.313,37.457-33.313s37.876-28.898,50.083-46.157c0,0,15.192-16.456,15.592-24.083"/>
		<path fill="none" stroke="#0D3662" stroke-width="2" stroke-linecap="round" stroke-linejoin="round" stroke-miterlimit="10" d="
			M170.197,630.659c0,0-1.163-6.422,10.198-25.688c0,0,3.367-5.217,2.525-21.272c-0.842-16.055,12.206-24.482,13.047-24.482
			c0.842,0,13.949,0.07,0,33.715C182.017,626.574,169.911,633.987,170.197,630.659z"/>
		<path fill="none" stroke="#0D3662" stroke-width="2" stroke-linecap="round" stroke-linejoin="round" stroke-miterlimit="10" d="
			M72.614,516.973c0,0,2.449,4.015-4.401,20.409c0,0-2.134,4.524,2.012,15.164c4.146,10.636-6.571,20.179-7.376,20.426
			c-0.806,0.248-13.352,4.046-7.018-22.856C62.165,523.212,72.196,514.634,72.614,516.973z"/>
		<path fill="none" stroke="#0D3662" stroke-width="2" stroke-linecap="round" stroke-linejoin="round" stroke-miterlimit="10" d="
			M115.881,549.738c0,0,14.432,7.472,18.22,34.765c0,0,1.263,7.226,7.575,6.422c0,0,4.209-2.008,0-12.844
			c0,0-3.157-3.713-4.314-13.346C137.362,564.735,137.434,553.604,115.881,549.738z"/>
		<path fill="none" stroke="#0D3662" stroke-width="2" stroke-linecap="round" stroke-linejoin="round" stroke-miterlimit="10" d="
			M191.327,484.882c0,0,0.325,9.713,6.955,21.955c6.629,12.241,4.944,22.878,4.944,22.878s-1.397,6.622,2.668,6.822
			c4.066,0.201,4.066-10.837,4.066-10.837v-38.833c0,0,1.143-11.809-8.742-13.832"/>
		<path fill="none" stroke="#0D3662" stroke-width="2" stroke-linecap="round" stroke-linejoin="round" stroke-miterlimit="10" d="
			M124.643,541.578c0,0,5.881-11.262,8.091-21.798c2.208-10.536,10.521-21.474,15.675-21.271c5.158,0.2-2.314,13.044-2.314,13.044
			s-11.751,15.952-13.187,23.178"/>
		<path fill="none" stroke="#0D3662" stroke-width="2" stroke-linecap="round" stroke-linejoin="round" stroke-miterlimit="10" d="
			M50.165,609.204c0,0-0.654-19.886-19.068-22.095c0,0-3.787-0.803-8.838-1.104c-5.05-0.302-6.418-5.72-6.418-5.72
			s-2.946-6.823-6.733-2.007c-3.788,4.815,7.153,11.54,7.153,11.54s6.314,4.414,16.94,7.727c0,0,16.384,6.947,14.979,13.658"/>
		<path fill="none" stroke="#0D3662" stroke-width="2" stroke-linecap="round" stroke-linejoin="round" stroke-miterlimit="10" d="
			M85.293,463.71c0,0-10.187,7.627-14.984,14.448c-4.794,6.824-12.265,10.136-12.265,10.136s-16.518,9.732-11.258,15.854
			c5.26,6.121,12.731-10.736,12.731-10.736s7.048-13.145,15.571-7.225c0,0,5.892,6.121,7.574,5.418c0,0,2.526-0.501-1.156-4.816
			c-3.683-4.313-4.735-6.221-2.21-9.633c2.525-3.411,12.731-11.037,9.05-14.248C88.347,462.906,87.173,462.242,85.293,463.71z"/>
		<path fill="none" stroke="#0D3662" stroke-width="2" stroke-linecap="round" stroke-linejoin="round" stroke-miterlimit="10" d="
			M147.147,415.323c0,0-6.522,12.142-1.787,20.27c0,0,2.103,3.513,10.1,0.703c7.996-2.812,16.519-8.431,22.832-4.816
			c6.312,3.611,4.733,5.117-1.578,6.823c0,0-28.407,3.411-39.771,7.325c0,0-10.915,4.414-10.876-0.502
			c0.038-4.917,8.876-10.638,8.876-10.638s5.155-2.91,4.841-13.145c-0.315-10.235,0.314-38.331,10.942-39.334
			c0,0,1.979-0.804,3.462,5.817c1.482,6.623,1.289,12.242-3.927,21.072L147.147,415.323z"/>
		<path fill="none" stroke="#0D3662" stroke-width="2" stroke-linecap="round" stroke-linejoin="round" stroke-miterlimit="10" d="
			M96.625,645.718c0,0-10.309-9.146-19.31-6.414c0,0-3.903,1.234-3.014,9.664c0.89,8.43,4.392,18.019-0.579,23.328
			c-4.972,5.309-6.072,3.426-6.277-3.109c0,0,3.234-28.428,2.049-40.389c0,0-1.779-11.64,2.996-10.468
			c4.775,1.173,8.301,11.091,8.301,11.091s1.644,5.688,11.675,7.741c10.032,2.056,37.225,9.148,35.749,19.722
			c0,0,0.326,2.109-6.461,2.026c-6.786-0.086-12.209-1.569-19.598-8.682L96.625,645.718z"/>
	</g>
	<path fill="#EC7267" d="M180.539,173.515c0,2.702-2.19,4.893-4.892,4.893l0,0c-2.702,0-4.892-2.19-4.892-4.893v-1.929
		c0-2.702,2.189-4.893,4.892-4.893l0,0c2.701,0,4.892,2.19,4.892,4.893V173.515z"/>
</g>
</svg>
