<?xml version="1.0" encoding="utf-8"?>
<!-- Generator: Adobe Illustrator 16.0.0, SVG Export Plug-In . SVG Version: 6.00 Build 0)  -->
<!DOCTYPE svg PUBLIC "-//W3C//DTD SVG 1.1//EN" "http://www.w3.org/Graphics/SVG/1.1/DTD/svg11.dtd">
<svg version="1.1" id="Layer_1" xmlns="http://www.w3.org/2000/svg" xmlns:xlink="http://www.w3.org/1999/xlink" x="0px" y="0px"
	 width="730px" height="792px" viewBox="0 0 730 792" enable-background="new 0 0 730 792" xml:space="preserve">
<g>
	<path fill="#003F7D" d="M278.084,489.161c-3.895-19.104,1.74-24.578,1.74-24.578v-4.9l-7.214,4.9l-0.304,5.447
		c-1.553-4.143-3.233-7.968-5.056-11.42c0,0-20.168-20.553-7,10.666c0,0,31.801,17.121,10.386,286.424c0,0,3.946,8.141,12.897-2.267
		C283.534,753.434,299.915,578.743,278.084,489.161z"/>
	<path fill="#003F7D" d="M474.381,469.747c0,0-91.111,197.971-135.872,262.906c0,0-8.281,23.578,21.969,13.672
		c0,0,122.606-233.416,144.178-267.398c0.574-0.901-1.16-1.664-0.729-2.276C520.525,452.957,513.277,437.305,474.381,469.747z"/>
	<path fill="#2F5BA0" d="M320.375,385.697c32.07,76.87,48.207,276.579,2.471,386.125c0,0,6.506,20.955,23.768,11.229
		c0,0,68.105-469.88-97.559-474.035c0,0-58.713-3.648-77.829,9.852c-19.116,13.5,29.46,8,29.46,8S287.502,306.905,320.375,385.697z"
		/>
	<path fill="#2F5BA0" d="M265.213,571.416c-0.875-2.416-1.674-4.753-2.389-6.994l0.078-0.217c-0.076-0.08-0.146-0.164-0.22-0.244
		c-8.513-26.997-5.78-41.137-5.771-41.177c4.033-6.784,8.915-19.312-10.524-31.839c-23.239-14.978-49.575,7.747-49.575,7.747
		l35.462,35.71l-2.968,2.238l7.46,18.275l12.888,7.095l5.176,13.107c23.186,59.877,17.291,195.946,17.291,195.946
		c8.95,8.95,15.441,0,15.441,0C287.898,644.852,274.721,592.643,265.213,571.416z"/>
	<path fill="#003F7D" d="M208.755,603.777c0,0,59.214,32.026,78.438,135.265c0,0,2.292,9.954,18.854,9.878
		c0,0,6.407,8.035-4.831,13.814c0,0-26.932,19.598-43.825-47.854c-16.895-67.452-53.102-88.363-53.102-88.363
		S175.705,605.599,208.755,603.777z"/>
	<path fill="#003F7D" d="M467.217,487.816l24.611,12.006l17.75-9.775c0,0,44.918-27.57,93.459,17.223l5.676-31.097
		c0,0-29.492-24.295-31.014-24.295c-1.52,0-26.309-17.558-26.309-17.558h-30.469C520.924,434.32,465.152,436.997,467.217,487.816z"
		/>
	<path fill="#2F5BA0" d="M521.408,434.32c0,0,129.621-21.689,148.211,45.442c0,0,18.131,55.482-4.594,72.299
		c0,0-23.811,18.591-47.051-6.195c0,0-9.811-8.78-15.49-34.602C596.805,485.445,565.818,437.934,521.408,434.32z"/>
	<path fill="#003F7D" d="M715.898,364.659c0.01-0.025,0.018-0.042,0.018-0.042c-0.486-0.588-0.979-1.17-1.471-1.745
		c-0.168-0.2-0.26-0.302-0.26-0.302v0.001c-30.494-35.581-65.281-46.911-65.281-46.911
		c-62.049-27.457-102.361,18.647-127.971,46.525c-25.605,27.881-79.652,65.495-79.652,65.495s-3.055,18.879-2.383,17.364
		c0.672-1.513,90.525-65.229,90.525-65.229c39.551-30.758,63.219-10.632,112.578-0.853c40.771,8.076,49.764,24.725,52.229,30.525
		c0.129,0.301,0.238,0.574,0.336,0.813c4.029,18.666,24.961,17.636,33.908-1.817C735.916,392.302,721.096,371.278,715.898,364.659z"
		/>
	<path fill="#003F7D" d="M443.145,507.514c0,0-102.416-14.489-92.713,242.512c0,0-1.493,18.095-4.478,23.043
		c-2.982,4.948,19.396,7.175,19.396,7.175s7.458-17.146,4.473-58.173c-2.982-41.027,3.75-178.731,71.873-197.034
		C441.695,525.036,462.514,516.746,443.145,507.514"/>
	<path fill="#003F7D" d="M433.391,436.223c0,0-42.086,158.224-118.897,313.035c0,0,2.422,13.963,17.102,5.186
		c0,0,112.006-254.946,111.916-336.845l2.365-9.375l7.154-28.36L433.391,436.223z"/>
	<path fill="#003F7D" d="M269.931,272.865c0,0,49.668,38.276,13.176,485.965c0,0,5.812,18.188,15.988,0.944
		c0,0,57.487-363.385-10.729-489.938C288.365,269.836,269.871,244.619,269.931,272.865z"/>
	<path fill="#2F5BA0" d="M298.123,232.365c-2.834-0.769-5.637-1.459-8.408-2.075c-73.513-16.334-132.807,7.73-132.807,7.73
		c24.787-16.525,131.886,32.01,131.886,32.01C345.922,238.361,298.123,232.365,298.123,232.365z"/>
	<path fill="#003F7D" d="M280.488,262.635c-22.483-19.479-91.763-37.94-144.932-30.633c-54.482,7.487-87.274,44.67-101.733,87.79
		s19.622,44.238,19.622,44.238c16.526-0.69,11.363-6.541,44.671-37.784c33.31-31.243,87.79-57.321,87.79-57.321
		c31.865-14.349,49.836-5.422,49.836-5.422l16.029,6.526c0,0,13.75,7.547,24.143,6.125c0,0,12.212-1.475,12.451-6.318
		C288.365,269.836,287.663,268.569,280.488,262.635z"/>
	<path fill="#003F7D" d="M599.047,695.354"/>
	<path fill="#2F5BA0" d="M483.176,608.206c0.533,1.395,16.527,52.27,49.789,107.146C545.48,740.686,585.451,793,585.451,793
		s43.717-29.271,22.424-149.084c0,0-73.461-17.575-72.854-25.857c0.322-4.386,6.512-2.553,6.512-2.553l64.379,14.129
		c0,0,1.379-8.481-12.619-58.567c-43.051-108.144-123.219-75.359-123.219-75.359s-37.873,11.822-50.84,29.749L483.176,608.206z"/>
	<path fill="#003F7D" d="M154.102,494.373c65.435-18.592,82.991,4.648,91.254,40.28l9.475,40.278c0,0-41.022-32.322-107.184-13.123
		c0,0-77.623,18.873-103.08,53.716c0,0-14.457-1.158-5.457-22.158S66.094,528.379,154.102,494.373z"/>
	<path fill="#003F7D" d="M372.732,246.841c0,0,39.686,118.159-44.314,518.777c0,0-4.898,10.813,12.091-3.461
		c0,0,81.171-297.396,51.089-538.354L372.732,246.841z"/>
	<path fill="#2F5BA0" d="M286.642,2.07c0,0,101.708-25.141,134.846,134.276c0,0,26.283,103.42-26.283,122.847L286.642,2.07z"/>
	<path fill="#003F7D" d="M286.642,2.07c0,0-48.566,34.283,6.286,180.558c0,0,37.71,101.135,102.277,76.565
		C395.205,259.193,376.922,69.493,286.642,2.07z"/>
	<path fill="#003F7D" d="M424.881,451.836"/>
	<path fill="#2F5BA0" d="M619.752,120.482c0,0-57.277-14.918-95.23,10.441c-22.686,15.157-77.658,57.323-76.844,226.425
		c0,0,0.912,60.844-15.691,83.679L619.752,120.482z"/>
	<path fill="#003F7D" d="M619.752,120.482c0,0,58.15,38.69,4.924,89.454c-36.258,19.789-41.346,15.894-49.338,47.648
		c-7.996,31.756-29.725,50.002-40.023,54.629c-10.301,4.627-103.328,128.813-103.328,128.813S519.293,168.695,619.752,120.482z"/>
	<path fill="#003F7D" d="M562.092,701.506c-18.988-61.295-46.441-107.016-47.131-108.341c0,0-45.127-78.017-62.049-84.536
		c0,0-6.951-3.877-13.426,0.092c0,0-77.719,38.229-25.373,142.189c28.184,43.705,35.445,48.303,35.445,48.303l32.145-57.541
		c0,0,2.734-5.849,6.23-3.18c6.6,5.041-28.994,71.664-28.994,71.664c62.467,90.666,126.422,82.139,126.422,82.139
		S572.742,727.68,562.092,701.506z"/>
	<path fill="#003F7D" d="M190.327,397.805c0,0,4.547,2.581,18.074,3.1c22.45,0.857,96.053,24.271,74.882,57.063
		c0,0-10.937,22.833-17.604,23.295C265.679,481.262,224.235,415.094,190.327,397.805"/>
	<path fill="#2F5BA0" d="M71.294,509.35c24.207-18.918,74.365-42.346,104.059-44.153c29.693-1.808,88.307,15.752,88.307,15.752
		s8.006,3.874,3.873-14.461c-4.132-18.332-20.141-52.933-67.65-62.228c0,0-4.389-0.773-9.555-6.456
		c-5.163-5.681-42.086-33.308-89.338-3.873c-31.502,25.821-40.539,46.22-40.539,46.22s-6.196,10.329-16.783,13.426
		c-10.587,3.1-32.535,18.334-36.924,55.772c-4.391,37.439,9.037,46.478,9.037,46.478s2.84,2.583,5.68,2.065
		C21.46,557.893,31.587,540.768,71.294,509.35z"/>
	<path fill="#2F5BA0" d="M207.987,315.516c0,0-91.058-32.11-87.021,48.027c3.084,61.229,33.319,82.515,33.319,82.515
		s32.614-64.957,53.702-87.162C207.987,358.894,220.983,349.6,207.987,315.516z"/>
	<path fill="#003F7D" d="M230.497,321.776c-24.484-14.059-50.567-0.871-50.567-0.871s-25.75,8.75-29.75,62.493
		c-1.747,22.839-3.955,65.184,7.525,63.815c42.441-5.059,84.669-56.238,84.669-56.238
		C263.18,368.405,257.281,337.155,230.497,321.776z"/>
	<path fill="#2F5BA0" d="M12.94,665.443c79.949-131,198.432-59.916,198.432-59.916L12.94,776.948
		c-20.87-55.582-9.134-85.199-3.83-92.369c3.996-7.965,32.5-19.713,44.5-19.137c12,0.574,11.5-4.658,11.5-4.658
		s1.449-6.918-24,0.082c0,0-23.031,6.891-25.449,10C12.94,674.366,9.109,671.366,12.94,665.443z"/>
	<path fill="#003F7D" d="M12.94,776.948c7.478-15.74,40.48-44.855,67.881-74.125c42.031-44.897,78.379-88.391,130.551-97.297
		c8.983,30.231-1.188,59.266-1.188,59.266c-22.774,52.804-73.187,84.204-73.187,84.204l3.548-45.471
		c1.263-17.028-3.085-14.069-3.085-14.069c-4.579-1.437-5.3,16.63-5.3,16.63l-3.746,46.517
		C128.414,752.602,52.629,808.576,12.94,776.948z"/>
</g>
</svg>
