<?xml version="1.0" encoding="utf-8"?>
<!-- Generator: Adobe Illustrator 16.0.0, SVG Export Plug-In . SVG Version: 6.00 Build 0)  -->
<!DOCTYPE svg PUBLIC "-//W3C//DTD SVG 1.1//EN" "http://www.w3.org/Graphics/SVG/1.1/DTD/svg11.dtd">
<svg version="1.1" id="Layer_1" xmlns="http://www.w3.org/2000/svg" xmlns:xlink="http://www.w3.org/1999/xlink" x="0px" y="0px"
	 width="365px" height="596px" viewBox="0 0 365 596" enable-background="new 0 0 365 596" xml:space="preserve">
<g>
	<rect fill="#FFFFFF" width="365" height="596"/>
	<g>
		<g>
			<rect x="32.539" y="110.639" fill="#EADBCC" width="299.922" height="450.853"/>
		</g>
		<g>
			<g>
				<path fill="#D0AB93" d="M305.859,426.87c-5.957-13.341,0-39.507,0-39.507l-103.254-17.726v-6.901l-20.105,3.45l-20.104-3.45
					v6.901L59.141,387.363c0,0,5.957,26.166,0,39.507c-5.957,13.338-3.672,45.663-0.002,53.871c3.672,8.21,5.717,41.672,4.273,80.75
					h18.066c0,0-3.93-55.071,0-81.776c3.414-23.177,5.463-39.422,5.463-39.422s11.912-18.961,56.59-2.029
					c6.109,2.315,12.559,3.832,18.865,4.797v0.332c0,0,8.395,1.246,20.104,1.18c11.711,0.066,20.105-1.18,20.105-1.18v-0.332
					c6.305-0.965,12.754-2.481,18.863-4.797c44.678-16.932,56.592,2.029,56.592,2.029s2.049,16.245,5.461,39.422
					c3.932,26.705,0,81.776,0,81.776h18.066c-1.441-39.078,0.602-72.54,4.271-80.75C309.531,472.533,311.816,440.208,305.859,426.87
					z"/>
				<path fill="#E5C2A5" d="M305.859,387.363c-1.385-3.236-1.713-7.608-1.713-7.608s-15.166-41.944-25.193-52.232
					c-5.818-5.974-13.367-6.86-13.367-6.86h-0.799h-8.74h-54.498h-8.785h-0.801h-19.947h-0.801h-8.787h-54.496h-8.74h-0.801
					c0,0-7.547,0.887-13.367,6.86c-10.027,10.288-25.193,52.232-25.193,52.232s-0.707,3.792-2.738,6.116
					c-0.67,2.922,0.609,8.791,8.477,9.188c10.486,0.527,18.197-4.902,41.848-5.422c1.121-0.023,2.26-0.199,3.41-0.516
					c20.482,0,43.855,0,60.389,0c0.262,0,0.539,0,0.801,0c10.148,0,17.586,0,19.947,0c0.523,0,0.801,0,0.801,0
					c16.357,0,39.77,0,60.387,0c1.15,0.316,2.289,0.492,3.41,0.516c23.65,0.52,31.363,5.949,41.848,5.422
					C306.275,394.662,306.529,390.286,305.859,387.363z"/>
				<path fill="#E5C2A5" d="M148.873,401.729h61.053v27.961c0,0-3.869,4.617-28.539,4.617c-24.672,0-32.514-4.617-32.514-4.617
					V401.729z"/>
				<path fill="#E5C2A5" d="M216.596,401.729v25.652c0,0,14.881-2.563,26.166-7.182c11.289-4.618,28.221,4.618,28.221,4.618v-23.089
					H216.596z"/>
				<path fill="#E5C2A5" d="M142.254,401.729v25.652c0,0-14.877-2.563-26.164-7.182c-11.289-4.618-28.219,4.618-28.219,4.618
					v-23.089H142.254z"/>
				<circle fill="#D0AB93" cx="115.063" cy="411.733" r="3.796"/>
				<circle fill="#D0AB93" cx="178.91" cy="411.733" r="3.795"/>
				<circle fill="#D0AB93" cx="243.788" cy="411.733" r="3.796"/>
			</g>
			<g>
				<g>
					<path fill="#6A6F71" d="M122.766,342.531v5.374c0,0-0.49,1.587,1.588,1.587c2.076,0,133.357,0,133.357,0
						s1.955,0.367,1.955-1.464c0-1.832,0-6.84,0-6.84L122.766,342.531z"/>
					<path fill="#ABAAA8" d="M137.787,241.9c0,0-3.299-0.611-3.299,3.664c0,4.273,0,35.537,0,35.537h-0.732v3.299l0.855,1.221v1.834
						c0,0,0,3.174,3.176,3.174c3.174,0,18.563,0.609,18.563,0.609v-27.966v-1.222c0,0-0.184-1.281-0.672-1.281
						s-0.916-0.672-0.916-1.771c0-1.098,0-12.822,0-12.822s-0.305-0.795,0.611-0.795c0.914,0,0.914,0,0.914,0
						s0.611-0.243,0.611,0.795c0,1.037,0,45.063,0,45.063h8.672c0,0,1.1-0.061,1.77-1.646c0.672-1.589,3.971-9.954,3.971-9.954
						s1.221-3.114,4.885-3.114c3.662,0,33.035,0,33.035,0s1.953,0.184,1.953,2.504s0,22.716,0,22.716s0.365,2.808-3.176,2.808
						c-3.543,0-49.949,0-49.949,0h-31.385c0,0-1.832-0.244-2.809,2.564c-0.977,2.81-2.322,7.817-1.955,11.847
						c0.365,4.031,0,21.739,0.855,23.569c0.855,1.832,59.84,0,59.84,0h76.451l0.609-0.609l0.732-21.617l-0.611-0.855
						c0,0-0.977-2.076-0.977-3.785s0-38.958,0-38.958h3.785c0,0,1.957,0.123,1.957-2.32c0,0,0.854-5.251,0.854-10.503
						c0-5.251-1.1-9.16-1.1-9.16s-0.123-2.074-2.076-2.074h-2.564v-4.031c0,0-1.221-6.473-5.982-7.447h-1.59h-8.426h-14.777
						c0,0-0.609-0.856-2.32-0.856h-2.688c0,0-41.4-0.854-46.895,0v1.222H162.09v3.785c0,0,0.121,0.365-0.734,0.365
						c0,0-0.854-0.121-0.854-0.488s0-4.027,0-4.027L137.787,241.9z"/>
					<path fill="#D1CFCE" d="M249.305,300.656c0-3.678-2.846-11.31-12.6-11.31c0,0-11.299,0.002-12.578,11.31
						c-0.041,0.348-0.07,0.709-0.09,1.08c0.02,0.371,0.049,0.731,0.09,1.08c1.279,11.309,12.578,11.311,12.578,11.311
						c9.754,0,12.6-7.316,12.6-11.311c0-0.41,0.094-0.771,0.119-1.08C249.398,301.428,249.305,301.066,249.305,300.656z"/>
					<path fill="#E1DFDF" d="M247.816,300.783c0-3.24-2.508-9.971-11.107-9.971c0,0-9.963,0.002-11.092,9.971
						c-0.035,0.309-0.063,0.627-0.08,0.953c0.018,0.327,0.045,0.645,0.08,0.953c1.129,9.97,11.092,9.972,11.092,9.972
						c8.6,0,11.107-6.452,11.107-9.972c0-0.362,0.084-0.681,0.107-0.953C247.9,301.465,247.816,301.146,247.816,300.783z"/>
					<path fill="#D1CFCE" d="M247.258,268.027c0-2.916-2.258-8.975-9.996-8.975c0,0-8.969,0.002-9.986,8.975
						c-0.033,0.277-0.057,0.563-0.072,0.859c0.016,0.294,0.039,0.58,0.072,0.857c1.018,8.973,9.986,8.975,9.986,8.975
						c7.738,0,9.996-5.807,9.996-8.975c0-0.326,0.074-0.611,0.096-0.857C247.332,268.641,247.258,268.354,247.258,268.027z"/>
					<path fill="#E1DFDF" d="M245.836,268.156c0-2.482-1.922-7.638-8.51-7.638c0,0-7.629,0.001-8.494,7.638
						c-0.029,0.236-0.047,0.479-0.061,0.73c0.014,0.25,0.031,0.492,0.061,0.729c0.865,7.637,8.494,7.64,8.494,7.64
						c6.588,0,8.51-4.942,8.51-7.64c0-0.277,0.064-0.521,0.08-0.729C245.9,268.678,245.836,268.434,245.836,268.156z"/>
					<path fill="#D82737" d="M242.615,301.23c0-1.721-1.33-5.294-5.896-5.294c0,0-5.289,0.002-5.889,5.294
						c-0.018,0.164-0.031,0.332-0.041,0.506c0.01,0.176,0.023,0.343,0.041,0.506c0.6,5.293,5.889,5.293,5.889,5.293
						c4.566,0,5.896-3.424,5.896-5.293c0-0.191,0.045-0.361,0.057-0.506C242.66,301.592,242.615,301.423,242.615,301.23z"/>
					<path fill="#FFFFFF" d="M239.271,298.627c0,0-0.58,0.397-0.977,0c-0.398-0.396-4.275-0.915-4.457,1.834
						c0,0-0.26,1.891,2.893,1.891c0,0,1.32-0.121,1.32,0.734c0,0.854-2.016,0.916-3.727,0c0,0-0.492-0.199-0.492,0.664
						s0,0.863,0,0.863s0.096,0.7,0.555,0.242c0.459-0.457,0.793-0.121,0.793-0.121s4.324,1.588,4.275-1.71
						c0,0,0.611-1.833-2.537-1.711c0,0-1.248,0.306-1.248-0.915s2.746-0.488,3.42,0.063c0,0,0.365,0.426,0.365-0.246
						S239.271,298.627,239.271,298.627z"/>
					<rect x="171.615" y="245.861" fill="#6A6C69" width="12.518" height="1.354"/>
					<rect x="191.154" y="246.018" fill="#6A6C69" width="12.701" height="1.316"/>
					<rect x="229.99" y="245.898" fill="#6A6C69" width="12.699" height="1.175"/>
					<path fill="#E1DFDF" d="M177.875,244.1c0,0-4.367,0.122-4.855,2.258h9.463C182.482,246.357,181.691,244.1,177.875,244.1z"/>
					<path fill="#E1DFDF" d="M197.539,244.1c0,0-3.912-0.306-5.293,2.258h10.318C202.564,246.357,201.701,244.1,197.539,244.1z"/>
					<path fill="#E1DFDF" d="M236.209,244.1c0,0-3.91-0.306-5.291,2.258h10.318C241.236,246.357,240.371,244.1,236.209,244.1z"/>
					<path fill="#787875" d="M148.602,291.142c0,0-0.883,0.11-0.883,1.204s0,1.094,0,1.094s0.139,0.544,1.164,0.544
						c1.023,0,4.854,0,4.854,0s0.82-0.202,0.82-0.955c0-0.752,0-1.329,0-1.329s0.006-0.558-1.779-0.558H148.602z"/>
					<path fill="#787875" d="M149.018,301.918c0,0-0.82-0.205-0.82,0.82c0,1.026,0,1.983,0,1.983s-0.068,0.479,0.82,0.479
						s2.119,0,2.119,0s1.232-0.222,1.232-1.649s-1.232-1.649-1.232-1.649L149.018,301.918z"/>
					<path fill="#787875" d="M151.617,302.738v1.505h2.939c0,0,0.684-0.137,0.684-1.095c0-0.957-1.025-0.752-1.025-0.752h-2.598
						V302.738z"/>
					<path fill="#787875" d="M155.857,301.901c0,0-1.301-0.276-1.301,1.409c0,1.685,1.301,1.274,1.301,1.274
						s1.434,0.215,1.434-1.329C157.291,301.713,155.857,301.901,155.857,301.901z"/>
					<rect x="149.154" y="293.576" fill="#787875" width="1.982" height="8.802"/>
					<path fill="#787875" d="M149.531,305.2v2.722c0,0,0.051,0.476,0.615,0.476s0.514-0.514,0.514-0.514v-3.255
						C150.66,304.629,149.531,303.9,149.531,305.2z"/>
					<path fill="#787875" d="M149.9,308.257c0,0,0.053,2.276,0.207,2.293c0.217,0.024,0.268-1.376,0.268-2.293
						S149.9,308.257,149.9,308.257z"/>
				</g>
				<path fill="#1C3187" d="M176.076,304.023c0,0,33.598-1.841,35.252,2.902c2.533,7.261,2.533,7.261,5.613,16.504
					c3.082,9.244-3.557,11.701,0,21.971c3.559,10.271-7.016,18.255-2.912,37.299c4.379,20.316-2.701,18.793-2.701,18.793
					s-23.156,24.918-38.309-7.916c-7.639-16.549-37.977-20.844-47.76-15.709c-9.783,5.136-39.348,17.463-17.119-15.405
					s7.396-39.313,16.426-56.739c0,0,0-2.467,11.414-1.583C148.961,305.145,176.076,304.023,176.076,304.023z"/>
				<g>
					<path fill="#787875" d="M148.619,291.142c0,0-0.883,0.11-0.883,1.204s0,1.094,0,1.094s0.137,0.544,1.162,0.544s4.855,0,4.855,0
						s0.82-0.202,0.82-0.955c0-0.752,0-1.329,0-1.329s0.006-0.558-1.779-0.558H148.619z"/>
					<path fill="#787875" d="M149.035,301.918c0,0-0.82-0.205-0.82,0.82c0,1.026,0,1.983,0,1.983s-0.068,0.479,0.82,0.479
						s2.119,0,2.119,0s1.23-0.222,1.23-1.649s-1.23-1.649-1.23-1.649L149.035,301.918z"/>
					<path fill="#787875" d="M151.633,302.738v1.505h2.941c0,0,0.684-0.137,0.684-1.095c0-0.957-1.025-0.752-1.025-0.752h-2.6
						V302.738z"/>
					<path fill="#787875" d="M155.875,301.901c0,0-1.301-0.276-1.301,1.409c0,1.685,1.301,1.274,1.301,1.274
						s1.434,0.215,1.434-1.329C157.309,301.713,155.875,301.901,155.875,301.901z"/>
					<rect x="149.172" y="293.576" fill="#787875" width="1.982" height="8.802"/>
					<path fill="#787875" d="M149.547,305.2v2.722c0,0,0.053,0.476,0.617,0.476s0.512-0.514,0.512-0.514v-3.255
						C150.676,304.629,149.547,303.9,149.547,305.2z"/>
					<path fill="#787875" d="M149.918,308.257c0,0,0.053,2.276,0.207,2.293c0.217,0.024,0.266-1.376,0.266-2.293
						S149.918,308.257,149.918,308.257z"/>
				</g>
			</g>
			<g>
				<path fill="#EC7267" d="M108.629,331.436c0,0,0-7.574,0-16.766s-5.061-11.063-6.344-11.49c-1.285-0.425-1.057-1.191-1.057-1.191
					c2.793-1.531,2.492-3.744,2.492-3.744c0-3.047-4.273-3.414-6.574-3.389c-2.303-0.025-6.572,0.342-6.572,3.389
					c0,0-0.303,2.213,2.492,3.744c0,0,0.227,0.767-1.059,1.191c-1.283,0.427-6.344,2.299-6.344,11.49s0,16.766,0,16.766
					s-0.906,10.894,8.459,10.894c0.283,0,0.553,0,0.807,0c-0.002,0,0.477,0,1.918,0c0.184,0,0.383,0,0.6,0c0.531,0,1.166,0,1.916,0
					c0.256,0,0.523,0,0.807,0C109.533,342.329,108.629,331.436,108.629,331.436z"/>
				<path fill="#EE827A" d="M99.855,296.871c-2.719-1.34-7.086-0.766-7.871,0.969c-0.145,0.318-0.17,0.6-0.117,0.848
					c-0.115,0.55,0.117,1.205,1.309,1.794c2.719,1.337,7.084,0.765,7.871-0.972c0.145-0.318,0.17-0.6,0.117-0.848
					C101.279,298.113,101.047,297.459,99.855,296.871z"/>
				<g>
					<path fill="#47381F" d="M101.633,249.805c0,0,0.42-3.822,2.969-6.578c2.549-2.755,2.264-3.969,3.857-4.061
						c0,0,0.494-0.699-0.213,1.394c-0.707,2.094-3.973,6.375-5.285,8.118C102.961,248.678,101.52,250.496,101.633,249.805z"/>
					<path fill="#47381F" d="M101.428,250.744c0,0,1.322-2.879,0.688-5.908c-0.637-3.027,0.078-3.766-1.01-4.504
						c0,0-0.055-0.703-0.441,1.076c-0.387,1.778,0.111,6.189,0.303,7.978C100.967,249.386,101.217,251.283,101.428,250.744z"/>
					<path fill="#47381F" d="M95.209,248.615c0,0-0.824,0.205,0,1.44c0.822,1.233,5.707,7.456,5.707,7.302s0-1.131,0-1.131
						s-2.469-6.479-4.781-8.023C96.135,248.203,95.553,247.912,95.209,248.615z"/>
					<path fill="#47381F" d="M101.404,254.811v1.133c0,0,9.221-9,10.404-9.206c1.182-0.206,0.514-0.72-0.668-0.36
						C109.957,246.737,102.314,251.982,101.404,254.811z"/>
					<path fill="#47381F" d="M100.275,261.013c0,0-5.504-8.638-9.566-5.502c0,0-0.977,1.543,0.359,2.007
						c0,0-0.617-0.721-0.154-1.338s-0.309-1.081,1.852,0.051c2.16,1.133,7.51,6.531,7.51,6.531V261.013z"/>
					<path fill="#47381F" d="M86.541,262.628c0,0,3.65-4.681,13.525,3.806v0.822C100.066,267.256,90.551,261.855,86.541,262.628z"/>
					<path fill="#47381F" d="M85.615,270.004c0,0,4.936-4.475,13.73,0.463v1.079C99.346,271.546,90.859,267.689,85.615,270.004z"/>
					<path fill="#47381F" d="M98.93,275.174c0,0-9.102-4.269-11.879,3.445c0,0,5.143-6.479,11.879-2.673V275.174z"/>
					<path fill="#47381F" d="M98.902,277.424c0,0,7.289-1.822,8.217,4.232c0,0-2.84-5.49-8.326-3.667L98.902,277.424z"/>
					<path fill="#47381F" d="M90.211,283.37c0,0,1.529-4.21,8.307-4.038l0.34,0.643C98.857,279.975,92.604,280.347,90.211,283.37z"
						/>
					<path fill="#47381F" d="M100.553,260.158c0,0,4.938-7.199,11.313-7.406c0,0,2.008,0.051,2.83,1.749
						c0,0,0.309,0.551-0.873-0.315c-1.184-0.867-3.395-0.234-5.557,1.326c-2.16,1.561-7.455,5.006-7.713,5.83V260.158z"/>
					<path fill="#47381F" d="M99.984,263.96l-0.406,0.803c0,0,7.555-0.232,9.932-1.622c2.377-1.389,6.604-0.514,6.604-0.514
						s-0.686-2.06-3.063-1.803C110.672,261.078,99.984,263.96,99.984,263.96z"/>
					<path fill="#47381F" d="M99.893,268.898l-0.336,0.918c0,0,6.965-0.623,8.166-1.061c1.201-0.436,5.672,0.219,6.721,1.097
						c1.047,0.875,1.156-0.617-1.131-1.4c-2.287-0.786-4.164-1.637-7.66-0.618C102.156,268.852,99.893,268.898,99.893,268.898z"/>
					<path fill="#47381F" d="M99.252,273.353c0,0,6.791-2.104,10.391,0c3.6,2.103,4.576,4.212,4.576,4.212
						s-5.246-6.893-14.709-3.343l-0.719,0.307v-0.925L99.252,273.353z"/>
					<path fill="#47381F" d="M97.146,298.673c0,0,2.648-50.209,5.492-52.061c0,0-2.436,19.61-3.191,26.536
						c-0.754,6.926-1.506,25.566-1.506,25.566l-0.344,2.502l-1.082-0.016L97.146,298.673z"/>
				</g>
				<g>
					<path fill="#302515" d="M65.42,280.024c0,0,1.389-1.8,7.816-0.564c6.43,1.231,14.658,4.729,15.43,5.964l0.307,0.463
						C88.973,285.887,69.482,279.46,65.42,280.024z"/>
					<path fill="#302515" d="M68.248,278.07c0,0,6.43-4.063,17.383,2.211c0,0,0.977,0.565,1.08,1.336c0,0-8.023-2.21-11.211-2.826
						c0,0-5.811-1.305-7.715-0.053C67.785,278.738,67.359,278.496,68.248,278.07z"/>
					<path fill="#302515" d="M69.174,270.717c0,0-0.719,0.257-0.719,0.873c0,0,14.193,5.297,15.736,5.555
						C84.191,277.145,73.803,268.556,69.174,270.717z"/>
					<path fill="#302515" d="M65.883,287.841c0,0,15.018-2.417,24.736,1.595C90.619,289.436,69.277,288.15,65.883,287.841z"/>
					<path fill="#302515" d="M76.014,295.709c0,0,8.795-6.479,16.404-3.24C92.418,292.469,85.426,291.699,76.014,295.709z"/>
					<path fill="#302515" d="M85.117,279.197c0,0-0.771-7.195,1.08-11.311c1.85-4.113,3.496-7.867,3.496-7.867
						s-4.582,12.467-4.063,20.262L85.117,279.197z"/>
					<path fill="#302515" d="M82.236,273.756c0,0-2.264-7,0.926-13.736l2.109-5.195c0,0-3.652,9.822-3.139,13.32
						c0.516,3.496,0.926,7.354,0.926,7.354L82.236,273.756z"/>
					<path fill="#302515" d="M92.887,293.483c0,0-0.256-5.466,3.352-9.677l2.529-3.315c0,0-3.717,6.368-4.031,8.979
						c-0.316,2.61-1.602,5.425-1.602,5.425L92.887,293.483z"/>
					<path fill="#302515" d="M79.357,254.824c0,0-3.061,6.201,0,13.578l0.822,1.746C80.18,270.148,78.277,258.373,79.357,254.824z"
						/>
					<path fill="#302515" d="M68.455,267.014c0,0,6.221-2.16,11.004,1.078l0.617,1.441C80.076,269.533,74.625,265.83,68.455,267.014
						z"/>
					<path fill="#302515" d="M87.326,283.549c0,0,0.564-6.635,2.982-10.903c2.418-4.268,3.652-5.604,3.652-5.604
						s-5.76,14.553-5.76,17.177L87.326,283.549z"/>
					<path fill="#302515" d="M89.369,287.306c0,0,2.631-8.935,6.73-11.504c0,0-5.098,11.142-6.018,12.022
						c-0.918,0.881,0,0.215,0,0.215L89.369,287.306z"/>
					<path fill="#302515" d="M96.156,300.783c0,0-16.41-30.846-17.068-33.066c0,0,16.438,29.813,17.543,32.365l0.584,1.073
						C97.215,301.155,96.434,301.303,96.156,300.783z"/>
				</g>
				<g>
					<path fill="#403719" d="M118.254,287.227c0,0-0.918-1.191-5.17-0.375c-4.25,0.816-9.693,3.129-10.201,3.945l-0.205,0.305
						C102.678,291.102,115.566,286.852,118.254,287.227z"/>
					<path fill="#403719" d="M116.385,285.934c0,0-4.252-2.688-11.496,1.463c0,0-0.646,0.373-0.713,0.884
						c0,0,5.303-1.462,7.412-1.87c0,0,3.844-0.863,5.102-0.035C116.689,286.375,116.971,286.217,116.385,285.934z"/>
					<path fill="#403719" d="M115.771,281.07c0,0,0.477,0.169,0.477,0.578c0,0-9.387,3.504-10.406,3.673
						C105.842,285.321,112.711,279.642,115.771,281.07z"/>
					<path fill="#403719" d="M117.947,292.395c0,0-9.93-1.598-16.357,1.055C101.59,293.449,115.703,292.6,117.947,292.395z"/>
					<path fill="#403719" d="M111.248,297.598c0,0-5.814-4.285-10.848-2.143C100.4,295.455,105.023,294.947,111.248,297.598z"/>
					<path fill="#403719" d="M105.229,286.678c0,0,0.51-4.758-0.713-7.479c-1.225-2.72-2.314-5.201-2.314-5.201
						s3.031,8.242,2.688,13.398L105.229,286.678z"/>
					<path fill="#403719" d="M107.133,283.08c0,0,1.498-4.629-0.611-9.082l-1.395-3.437c0,0,2.414,6.495,2.074,8.808
						c-0.34,2.313-0.611,4.864-0.611,4.864L107.133,283.08z"/>
					<path fill="#403719" d="M109.039,270.562c0,0,2.021,4.101,0,8.978l-0.545,1.156
						C108.494,280.695,109.752,272.907,109.039,270.562z"/>
					<path fill="#403719" d="M95.365,287.924c0,0,3.785,2.57,4.43,7.813l0.096,1.275C99.891,297.012,97.145,289.614,95.365,287.924z
						"/>
					<path fill="#403719" d="M116.248,278.598c0,0-4.115-1.428-7.277,0.715l-0.408,0.953
						C108.563,280.266,112.166,277.816,116.248,278.598z"/>
					<path fill="#403719" d="M103.783,289.847c0,0-0.375-4.387-1.973-7.21s-2.412-3.707-2.412-3.707s3.807,9.625,3.807,11.359
						L103.783,289.847z"/>
					<path fill="#403719" d="M102.201,292.395c0,0-1.461-4.965-3.74-6.393c0,0,2.832,6.193,3.346,6.682c0.51,0.488,0,0.119,0,0.119
						L102.201,292.395z"/>
					<path fill="#403719" d="M97.928,300.953c0,0,10.854-20.396,11.287-21.867c0,0-10.871,19.717-11.6,21.404l-0.385,0.709
						C97.23,301.199,97.746,301.298,97.928,300.953z"/>
				</g>
			</g>
			<g>
				<g>
					<g>
						<path fill="#1C3187" d="M255.832,335.977l-3.645,20.079c0,4.661,5.674,4.577,5.674,4.577c0.162,0,0.316,0,0.463,0
							c0.428,0,0.791,0,1.096,0c0.123,0,0.236,0,0.342,0c0.148,0,0.275,0,0.389,0c0.162,0,0.316,0,0.461,0c0,0,0.07,0,0.246,0
							c0.107,0,0.262,0,0.461,0c0.115,0,0.24,0,0.391,0c0.105,0,0.217,0,0.342,0c0.303,0,0.666,0,1.096,0c0.146,0,0.299,0,0.461,0
							c0,0,5.676,0.084,5.676-4.577l-3.646-20.079c0,0-1.092-2.314-4.9-2.314C256.926,333.662,255.832,335.977,255.832,335.977z"/>
					</g>
					<g>
						<ellipse fill="#4267B0" cx="260.735" cy="336.066" rx="3.515" ry="1.589"/>
					</g>
				</g>
			</g>
			<g>
				<g>
					<g>
						<path fill="#1C3187" d="M268.211,341.617l-3.643,20.079c0,4.661,5.672,4.577,5.672,4.577c0.162,0,0.316,0,0.463,0
							c0.428,0,0.791,0,1.096,0c0.123,0,0.238,0,0.342,0c0.15,0,0.275,0,0.389,0c0.162,0,0.316,0,0.463,0c0,0,0.07,0,0.244,0
							c0.109,0,0.264,0,0.463,0c0.113,0,0.238,0,0.389,0c0.105,0,0.219,0,0.342,0c0.305,0,0.666,0,1.096,0c0.145,0,0.301,0,0.461,0
							c0,0,5.676,0.084,5.676-4.577l-3.646-20.079c0,0-1.092-2.314-4.902-2.314S268.211,341.617,268.211,341.617z"/>
					</g>
					<g>
						<ellipse fill="#4267B0" cx="273.114" cy="341.706" rx="3.515" ry="1.589"/>
					</g>
				</g>
			</g>
		</g>
	</g>
	<g>
		<g>
			<path fill="#333334" d="M70.783,33.733c0,0.26-0.016,0.579-0.047,0.958c-0.033,0.38-0.08,0.8-0.139,1.262
				c-0.061,0.462-0.133,0.956-0.217,1.479c-0.082,0.524-0.176,1.067-0.277,1.628c-0.213,1.132-0.43,2.194-0.652,3.186
				c-0.221,0.992-0.453,1.852-0.693,2.578c-0.24,0.716-0.457,1.394-0.652,2.032c-0.193,0.639-0.393,1.223-0.596,1.753
				c-0.047,0.135-0.145,0.392-0.293,0.771c-0.146,0.379-0.318,0.817-0.512,1.316c-0.195,0.498-0.402,1.03-0.625,1.597
				c-0.223,0.565-0.43,1.098-0.625,1.597c-0.193,0.498-0.363,0.932-0.506,1.3c-0.145,0.369-0.238,0.615-0.285,0.74
				c-0.037,0.104-0.115,0.213-0.236,0.327c-0.119,0.114-0.258,0.218-0.416,0.312c-0.156,0.094-0.32,0.169-0.492,0.226
				c-0.172,0.058-0.322,0.086-0.451,0.086c-0.277,0-0.543-0.07-0.797-0.21c-0.256-0.141-0.496-0.335-0.723-0.584
				c-0.227-0.25-0.438-0.546-0.631-0.889c-0.195-0.343-0.365-0.722-0.514-1.137l-3.234-8.909c-0.193,0.498-0.422,1.066-0.686,1.705
				s-0.541,1.293-0.834,1.963c-0.291,0.67-0.582,1.332-0.873,1.985c-0.291,0.654-0.563,1.247-0.813,1.776
				c-0.703,1.506-1.359,2.814-1.971,3.925V56.49c-0.656,1.236-1.197,1.854-1.623,1.854c-0.547,0-0.996-0.194-1.354-0.584
				c-0.355-0.39-0.658-0.911-0.908-1.565s-0.471-1.401-0.66-2.243c-0.189-0.841-0.395-1.713-0.617-2.616
				c-0.713-2.887-1.451-6.428-2.221-10.623c-0.018-0.094-0.068-0.307-0.152-0.639c-0.082-0.332-0.186-0.758-0.305-1.277v0.016
				c-0.139-0.55-0.24-1.018-0.305-1.402c-0.066-0.384-0.098-0.695-0.098-0.935c0-0.176,0.039-0.36,0.117-0.553
				c0.078-0.191,0.186-0.366,0.32-0.521c0.133-0.156,0.291-0.285,0.471-0.39c0.182-0.104,0.373-0.155,0.576-0.155
				c0.213,0,0.426,0.088,0.639,0.265s0.42,0.446,0.625,0.81c0.359,0.645,0.646,1.36,0.859,2.149c0.074,0.26,0.154,0.613,0.244,1.06
				c0.086,0.446,0.193,0.992,0.318,1.636s0.273,1.394,0.443,2.25c0.172,0.857,0.373,1.831,0.604,2.921
				c0.213,1.028,0.395,1.932,0.541,2.71c0.148,0.779,0.279,1.459,0.389,2.041c0.111,0.581,0.209,1.072,0.293,1.472
				c0.082,0.4,0.166,0.735,0.248,1.005c0.463-0.883,0.889-1.719,1.277-2.508s0.736-1.516,1.041-2.181
				c0.305-0.664,0.574-1.262,0.805-1.791c0.23-0.53,0.422-0.971,0.568-1.324c0.242-0.561,0.49-1.196,0.75-1.908
				c0.26-0.711,0.592-1.555,1-2.531c0.055-0.124,0.133-0.249,0.234-0.374c0.104-0.124,0.223-0.235,0.361-0.335
				c0.139-0.098,0.289-0.179,0.451-0.241s0.322-0.093,0.479-0.093c0.27,0,0.547,0.169,0.834,0.506
				c0.285,0.338,0.563,0.833,0.832,1.487c0.027,0.073,0.09,0.247,0.188,0.521c0.096,0.275,0.209,0.605,0.34,0.989
				c0.129,0.385,0.27,0.8,0.422,1.246c0.154,0.447,0.301,0.878,0.445,1.293c0.143,0.416,0.273,0.792,0.389,1.13
				c0.115,0.337,0.205,0.589,0.27,0.755c0.52,1.36,0.922,2.443,1.207,3.248c0.287,0.805,0.514,1.331,0.682,1.581
				c0.352-0.717,0.688-1.493,1.012-2.329s0.629-1.697,0.916-2.586c0.287-0.888,0.555-1.783,0.805-2.687s0.477-1.775,0.68-2.617
				c0.213-0.861,0.393-1.718,0.535-2.569s0.264-1.68,0.361-2.484c0.096-0.805,0.174-1.571,0.229-2.298s0.098-1.402,0.125-2.025
				c0.01-0.104,0.055-0.233,0.139-0.389c0.084-0.156,0.193-0.307,0.332-0.452c0.141-0.146,0.295-0.27,0.465-0.374
				c0.172-0.104,0.346-0.155,0.521-0.155c0.666,0,1.115,0.271,1.346,0.81C70.682,32.903,70.783,33.318,70.783,33.733z"/>
			<path fill="#333334" d="M88.686,42.768c0,0.229-0.094,0.607-0.277,1.138c-0.186,0.529-0.439,1.129-0.764,1.799
				s-0.703,1.376-1.139,2.118c-0.434,0.742-0.9,1.44-1.4,2.095c-0.52,0.686-1.102,1.355-1.748,2.01
				c-0.648,0.654-1.346,1.238-2.09,1.752c-0.744,0.515-1.531,0.927-2.359,1.238s-1.686,0.468-2.574,0.468
				c-0.953,0-1.762-0.174-2.428-0.522c-0.666-0.348-1.209-0.807-1.631-1.378c-0.42-0.571-0.727-1.22-0.916-1.947
				c-0.189-0.727-0.283-1.464-0.283-2.212c0-0.654,0.057-1.311,0.172-1.97c0.117-0.66,0.277-1.306,0.486-1.939
				s0.455-1.246,0.742-1.838s0.605-1.138,0.957-1.636c0.223-0.322,0.498-0.664,0.826-1.028c0.328-0.363,0.703-0.698,1.125-1.005
				c0.42-0.306,0.881-0.561,1.381-0.763c0.498-0.202,1.031-0.304,1.596-0.304c0.434,0,0.816,0.102,1.145,0.304
				s0.602,0.459,0.818,0.771s0.381,0.657,0.492,1.036s0.168,0.74,0.168,1.083c0,0.612-0.107,1.215-0.32,1.807
				s-0.551,1.199-1.014,1.822c-0.461,0.623-1.066,1.272-1.811,1.947s-1.648,1.396-2.713,2.165c-0.074,0.052-0.156,0.108-0.25,0.171
				c-0.092,0.063-0.18,0.125-0.264,0.188c-0.082,0.062-0.15,0.116-0.201,0.163s-0.076,0.075-0.076,0.086
				c0.047,0.229,0.107,0.457,0.182,0.686c0.072,0.229,0.193,0.434,0.359,0.615c0.168,0.182,0.395,0.329,0.68,0.443
				c0.287,0.114,0.662,0.172,1.125,0.172c0.361,0,0.744-0.044,1.152-0.133c0.406-0.088,0.818-0.221,1.234-0.397
				c0.416-0.176,0.826-0.392,1.229-0.646c0.402-0.254,0.783-0.547,1.145-0.88c0.473-0.426,0.967-0.929,1.484-1.511
				c0.518-0.581,1.029-1.212,1.533-1.893c0.504-0.68,0.986-1.399,1.443-2.157c0.459-0.758,0.863-1.531,1.215-2.32
				c0.139-0.302,0.318-0.509,0.541-0.623s0.412-0.172,0.568-0.172c0.111,0,0.215,0.083,0.313,0.249
				C88.637,41.984,88.686,42.301,88.686,42.768z M78.25,42.971c0-0.405-0.059-0.69-0.174-0.857c-0.115-0.166-0.229-0.249-0.34-0.249
				c-0.25,0-0.502,0.094-0.756,0.28c-0.256,0.188-0.5,0.437-0.736,0.748s-0.463,0.667-0.68,1.066c-0.217,0.4-0.41,0.815-0.576,1.246
				c-0.166,0.432-0.305,0.857-0.416,1.277c-0.111,0.421-0.186,0.803-0.223,1.146c0.584-0.53,1.115-1.025,1.596-1.488
				c0.482-0.462,0.891-0.89,1.229-1.284s0.602-0.75,0.791-1.067C78.154,43.472,78.25,43.199,78.25,42.971z"/>
			<path fill="#333334" d="M98.246,47.612c0,1.027-0.154,2.046-0.465,3.053s-0.729,1.968-1.256,2.882s-1.135,1.763-1.824,2.547
				s-1.412,1.474-2.166,2.071c-0.754,0.597-1.52,1.08-2.295,1.448c-0.777,0.369-1.514,0.59-2.207,0.662
				c-0.24-0.011-0.48-0.07-0.723-0.179c-0.24-0.109-0.457-0.244-0.65-0.405c-0.195-0.161-0.355-0.332-0.48-0.514
				c-0.125-0.183-0.188-0.351-0.188-0.507v-0.108c-0.037,0.01-0.088,0.016-0.152,0.016c-0.193,0-0.363-0.053-0.506-0.156
				c-0.145-0.104-0.264-0.239-0.361-0.405c-0.096-0.166-0.168-0.355-0.215-0.568s-0.068-0.428-0.068-0.646
				c0-0.197,0.045-0.521,0.139-0.974c0.092-0.451,0.213-0.988,0.359-1.611c0.186-0.789,0.338-1.501,0.459-2.135
				c0.119-0.633,0.23-1.254,0.332-1.861s0.207-1.238,0.313-1.893c0.107-0.653,0.238-1.396,0.396-2.227
				c0.146-0.769,0.291-1.498,0.43-2.188s0.287-1.371,0.443-2.041c0.158-0.67,0.326-1.34,0.508-2.009
				c0.18-0.67,0.385-1.363,0.617-2.08c0.389-1.235,0.764-2.142,1.123-2.718c0.361-0.576,0.746-0.864,1.152-0.864
				c0.158,0,0.326,0.018,0.506,0.055c0.182,0.036,0.346,0.111,0.494,0.226c0.146,0.114,0.27,0.275,0.367,0.482
				c0.098,0.208,0.146,0.483,0.146,0.826s-0.035,0.698-0.105,1.066c-0.068,0.369-0.154,0.735-0.256,1.099s-0.211,0.719-0.326,1.066
				c-0.115,0.349-0.225,0.673-0.326,0.974c-0.121,0.354-0.242,0.729-0.367,1.13c-0.125,0.399-0.25,0.805-0.375,1.215
				s-0.248,0.817-0.369,1.223c-0.119,0.404-0.23,0.789-0.332,1.152c-0.027,0.094-0.092,0.314-0.195,0.662
				c-0.102,0.348-0.217,0.755-0.346,1.223c-0.131,0.468-0.26,0.958-0.389,1.472c-0.131,0.515-0.236,0.984-0.32,1.41
				c0.463-0.706,0.99-1.387,1.582-2.041c0.594-0.654,1.203-1.235,1.832-1.744s1.25-0.916,1.859-1.223
				c0.611-0.307,1.156-0.46,1.639-0.46c0.342,0,0.686,0.058,1.033,0.172s0.627,0.337,0.84,0.67c0.129,0.197,0.238,0.415,0.326,0.653
				c0.088,0.239,0.16,0.48,0.215,0.725s0.096,0.485,0.117,0.725C98.234,47.197,98.246,47.415,98.246,47.612z M87.729,56.272
				c-0.037,0.155-0.119,0.355-0.244,0.6s-0.232,0.449-0.326,0.615c0.463-0.042,0.965-0.155,1.506-0.343
				c0.541-0.187,1.082-0.434,1.623-0.739c0.543-0.307,1.066-0.665,1.576-1.075c0.508-0.41,0.967-0.854,1.373-1.332
				c0.361-0.415,0.68-0.864,0.959-1.347c0.277-0.483,0.512-0.977,0.707-1.48c0.193-0.503,0.342-1.004,0.443-1.503
				c0.102-0.498,0.152-0.966,0.152-1.401c0-0.291-0.041-0.535-0.125-0.732c-0.082-0.197-0.203-0.296-0.359-0.296
				c-0.426,0-0.879,0.14-1.361,0.421c-0.48,0.28-0.969,0.656-1.463,1.129c-0.496,0.473-0.977,1.018-1.443,1.636
				c-0.467,0.617-0.902,1.262-1.305,1.932c-0.402,0.669-0.752,1.342-1.047,2.017C88.098,55.047,87.875,55.681,87.729,56.272z"/>
			<path fill="#333334" d="M126.693,37.44c0,0.146-0.016,0.322-0.047,0.53c-0.033,0.208-0.082,0.423-0.146,0.646
				c-0.064,0.223-0.137,0.436-0.215,0.639c-0.078,0.202-0.17,0.365-0.271,0.49h0.014c-0.295,0.395-0.994,0.592-2.094,0.592
				c0-0.446-0.018-0.833-0.049-1.16c-0.033-0.327-0.086-0.59-0.16-0.787c-0.064-0.166-0.18-0.306-0.348-0.42
				c-0.166-0.114-0.354-0.208-0.561-0.28c-0.209-0.073-0.42-0.127-0.633-0.164c-0.213-0.036-0.396-0.055-0.555-0.055
				c-0.398,0-0.787,0.011-1.166,0.031c-0.379,0.021-0.752,0.063-1.117,0.125s-0.734,0.15-1.109,0.265s-0.756,0.26-1.145,0.437
				c-0.277,0.124-0.572,0.28-0.881,0.467c-0.311,0.187-0.6,0.397-0.867,0.631c-0.27,0.233-0.498,0.488-0.688,0.764
				c-0.189,0.274-0.309,0.568-0.354,0.88l0.014-0.031c0,0.249,0.074,0.527,0.221,0.833c0.148,0.307,0.35,0.607,0.604,0.903
				c0.256,0.296,0.549,0.566,0.883,0.811c0.332,0.244,0.684,0.423,1.055,0.537c0.027,0.011,0.105,0.042,0.234,0.094
				c0.131,0.052,0.287,0.111,0.473,0.179s0.381,0.143,0.59,0.226c0.209,0.084,0.402,0.159,0.582,0.227
				c0.182,0.067,0.334,0.124,0.459,0.171s0.195,0.075,0.215,0.086c2.146,0.612,3.738,1.35,4.773,2.212
				c1.037,0.861,1.555,1.921,1.555,3.177c0,0.405-0.078,0.808-0.236,1.208c-0.158,0.399-0.355,0.781-0.596,1.145
				c-0.242,0.363-0.502,0.698-0.785,1.005c-0.281,0.306-0.549,0.563-0.797,0.771l0.014-0.016c-0.27,0.239-0.572,0.483-0.91,0.732
				s-0.701,0.493-1.088,0.732c-0.389,0.238-0.791,0.462-1.209,0.669c-0.416,0.208-0.842,0.39-1.275,0.546
				c-0.408,0.145-0.836,0.282-1.283,0.412c-0.449,0.13-0.896,0.242-1.34,0.335c-0.443,0.094-0.873,0.166-1.283,0.219
				c-0.412,0.052-0.785,0.077-1.117,0.077c-0.176,0-0.391-0.023-0.646-0.069c-0.254-0.047-0.521-0.112-0.805-0.195
				c-0.281-0.083-0.564-0.182-0.846-0.296c-0.283-0.114-0.535-0.244-0.756-0.39c-0.223-0.146-0.402-0.301-0.541-0.467
				c-0.141-0.166-0.209-0.343-0.209-0.529c0-0.166,0.027-0.369,0.084-0.607c0.055-0.239,0.135-0.47,0.242-0.693
				c0.105-0.224,0.23-0.415,0.375-0.576c0.143-0.161,0.299-0.242,0.465-0.242c0.23,0,0.447,0.031,0.652,0.094
				c0.203,0.063,0.432,0.133,0.686,0.21c0.256,0.078,0.551,0.151,0.889,0.219s0.756,0.101,1.256,0.101s1.02-0.06,1.561-0.179
				c0.543-0.119,1.076-0.28,1.604-0.482c0.527-0.203,1.031-0.434,1.514-0.693c0.48-0.26,0.914-0.53,1.303-0.811
				c0.168-0.124,0.35-0.267,0.549-0.428s0.385-0.338,0.555-0.53c0.172-0.191,0.314-0.392,0.432-0.6
				c0.115-0.207,0.172-0.42,0.172-0.639c0-0.249-0.166-0.487-0.498-0.716v0.016c-0.492-0.333-0.977-0.587-1.457-0.764
				c-0.482-0.177-0.902-0.321-1.264-0.437c-1.018-0.29-2.258-0.752-3.719-1.386h0.014c-0.611-0.27-1.203-0.618-1.777-1.044
				c-0.572-0.426-1.068-0.872-1.484-1.339c-0.924-1.153-1.387-2.482-1.387-3.988c0-0.592,0.146-1.168,0.443-1.729
				s0.699-1.088,1.207-1.581c0.51-0.493,1.1-0.947,1.77-1.363c0.672-0.415,1.385-0.771,2.145-1.066
				c0.758-0.296,1.533-0.527,2.324-0.693s1.557-0.249,2.297-0.249c0.23,0,0.52,0.019,0.867,0.055s0.703,0.088,1.068,0.155
				s0.715,0.15,1.047,0.249c0.334,0.1,0.598,0.211,0.791,0.335h-0.014c0.537,0.322,0.961,0.707,1.27,1.153
				C126.539,36.579,126.693,37.016,126.693,37.44z"/>
			<path fill="#333334" d="M146.51,43.282c0,0.197-0.037,0.376-0.111,0.537s-0.166,0.307-0.277,0.437
				c-0.109,0.13-0.232,0.246-0.367,0.35c-0.135,0.104-0.262,0.198-0.381,0.28c-0.416,0.208-0.863,0.39-1.34,0.546
				c-0.477,0.155-0.951,0.288-1.422,0.396c-0.473,0.109-0.932,0.2-1.381,0.273c-0.449,0.072-0.863,0.135-1.242,0.187
				c-0.26,0.031-0.529,0.065-0.813,0.102c-0.281,0.036-0.557,0.069-0.824,0.101c-0.27,0.031-0.52,0.063-0.75,0.094
				c-0.232,0.031-0.43,0.063-0.598,0.094c-0.203,0.883-0.395,1.729-0.574,2.539c-0.182,0.81-0.336,1.573-0.465,2.289
				c-0.02,0.125-0.047,0.296-0.084,0.515c-0.037,0.218-0.076,0.457-0.119,0.716c-0.041,0.26-0.08,0.532-0.117,0.818
				c-0.037,0.285-0.072,0.556-0.104,0.81c-0.033,0.255-0.059,0.483-0.076,0.686c-0.02,0.202-0.027,0.355-0.027,0.459
				c0,0.364,0.049,0.621,0.152,0.771c0.102,0.15,0.203,0.272,0.305,0.366c0.186,0.166,0.34,0.327,0.465,0.482
				c0.125,0.156,0.188,0.369,0.188,0.639c0,0.208-0.064,0.402-0.195,0.584c-0.129,0.182-0.291,0.34-0.484,0.476
				c-0.195,0.135-0.402,0.243-0.625,0.327c-0.223,0.083-0.43,0.124-0.625,0.124c-0.332,0-0.633-0.091-0.902-0.272
				c-0.268-0.182-0.498-0.423-0.693-0.724c-0.193-0.302-0.342-0.645-0.443-1.028s-0.152-0.779-0.152-1.184
				c0-0.686,0.045-1.438,0.139-2.259c0.092-0.82,0.227-1.646,0.402-2.477c0.074-0.363,0.154-0.764,0.242-1.199
				c0.088-0.437,0.17-0.852,0.242-1.246c0.074-0.395,0.141-0.745,0.195-1.052c0.055-0.306,0.092-0.512,0.111-0.615
				c-0.195,0.011-0.475,0.042-0.84,0.094s-0.799,0.077-1.297,0.077c-0.418,0-0.77-0.028-1.055-0.085
				c-0.287-0.058-0.523-0.164-0.709-0.319c-0.186-0.156-0.318-0.369-0.402-0.639c-0.082-0.271-0.125-0.623-0.125-1.06
				c0-0.249,0.08-0.449,0.236-0.6c0.158-0.15,0.352-0.265,0.584-0.343c0.23-0.078,0.471-0.13,0.721-0.155
				c0.25-0.026,0.473-0.039,0.666-0.039c0.092,0,0.254-0.013,0.486-0.039c0.23-0.025,0.482-0.052,0.756-0.078
				c0.273-0.025,0.537-0.052,0.791-0.078c0.254-0.025,0.451-0.038,0.59-0.038c0.047,0,0.104-0.099,0.174-0.296
				c0.068-0.197,0.141-0.452,0.215-0.764s0.15-0.656,0.229-1.036c0.078-0.379,0.154-0.753,0.229-1.121s0.141-0.709,0.201-1.021
				s0.109-0.556,0.146-0.731c0.102-0.437,0.188-0.925,0.256-1.465c0.07-0.54,0.174-1.051,0.313-1.534
				c0.139-0.482,0.336-0.888,0.59-1.215s0.617-0.49,1.09-0.49c0.5,0,0.869,0.122,1.109,0.365c0.24,0.244,0.361,0.646,0.361,1.208
				c0,0.26-0.021,0.565-0.063,0.919c-0.041,0.353-0.113,0.706-0.215,1.059c-0.223,0.8-0.412,1.548-0.568,2.243
				c-0.158,0.696-0.285,1.301-0.383,1.814c-0.098,0.515-0.188,1.063-0.27,1.644c0.379,0,0.742-0.003,1.088-0.008
				c0.348-0.005,0.701-0.016,1.063-0.031s0.738-0.039,1.131-0.07s0.82-0.077,1.283-0.14c0.537-0.073,0.99-0.146,1.361-0.219
				c0.369-0.072,0.695-0.14,0.977-0.202c0.283-0.063,0.539-0.114,0.771-0.155c0.23-0.042,0.471-0.063,0.721-0.063
				c0.129,0,0.252,0.039,0.367,0.116C146.453,42.807,146.51,42.991,146.51,43.282z"/>
			<path fill="#333334" d="M161.928,44.59c0,0.188-0.027,0.385-0.084,0.593c-0.055,0.207-0.127,0.415-0.215,0.623
				c-0.088,0.207-0.188,0.415-0.299,0.623c-0.109,0.207-0.227,0.399-0.346,0.576c-0.537,0.81-1.113,1.57-1.729,2.281
				c-0.615,0.712-1.232,1.379-1.852,2.002c-0.334,0.332-0.676,0.634-1.027,0.903c-0.352,0.271-0.703,0.504-1.055,0.701
				s-0.693,0.348-1.027,0.451c-0.332,0.104-0.643,0.156-0.93,0.156c-0.352,0-0.689-0.125-1.012-0.374
				c-0.324-0.249-0.609-0.563-0.854-0.942c-0.246-0.379-0.439-0.786-0.584-1.223c-0.143-0.437-0.215-0.841-0.215-1.215
				c-0.111,0.187-0.273,0.436-0.486,0.747s-0.434,0.629-0.666,0.95c-0.23,0.322-0.445,0.615-0.645,0.881
				c-0.199,0.265-0.34,0.454-0.424,0.568c-0.295,0.353-0.639,0.716-1.027,1.09c-0.387,0.374-0.773,0.712-1.158,1.013
				c-0.383,0.302-0.742,0.548-1.074,0.74c-0.334,0.192-0.588,0.288-0.764,0.288c-0.408,0-0.801-0.073-1.18-0.219
				c-0.379-0.145-0.715-0.355-1.006-0.631c-0.291-0.274-0.525-0.615-0.701-1.02c-0.176-0.405-0.264-0.867-0.264-1.387
				c0-0.509,0.063-1.066,0.188-1.674s0.295-1.241,0.514-1.9c0.217-0.659,0.479-1.327,0.783-2.002
				c0.307-0.675,0.637-1.332,0.992-1.971s0.734-1.243,1.131-1.814c0.398-0.57,0.805-1.08,1.221-1.526
				c0.74-0.789,1.527-1.37,2.359-1.744c0.834-0.374,1.693-0.561,2.582-0.561c0.23,0,0.426,0.036,0.582,0.108
				c0.158,0.073,0.291,0.169,0.402,0.288c0.111,0.12,0.207,0.257,0.285,0.413c0.078,0.155,0.15,0.312,0.215,0.467
				c0.047,0.073,0.123,0.175,0.229,0.304c0.107,0.131,0.215,0.273,0.326,0.429c0.111,0.156,0.209,0.312,0.293,0.468
				c0.082,0.155,0.123,0.296,0.123,0.42c0,0.219-0.027,0.455-0.082,0.709c-0.057,0.255-0.113,0.548-0.174,0.88
				c-0.061,0.333-0.117,0.709-0.174,1.13c-0.055,0.42-0.082,0.905-0.082,1.456c0,0.312,0.02,0.675,0.063,1.09
				c0.041,0.416,0.104,0.806,0.186,1.169c0.084,0.363,0.188,0.672,0.313,0.927c0.125,0.254,0.266,0.381,0.424,0.381
				c0.195,0,0.367-0.023,0.52-0.069c0.154-0.047,0.299-0.114,0.438-0.203c0.139-0.088,0.279-0.194,0.424-0.319
				c0.143-0.124,0.307-0.259,0.492-0.404c0.574-0.468,1.15-1.008,1.729-1.62s1.168-1.241,1.77-1.885
				c0.166-0.177,0.34-0.374,0.52-0.592c0.18-0.219,0.365-0.421,0.555-0.607c0.189-0.188,0.377-0.343,0.563-0.468
				c0.186-0.124,0.361-0.187,0.527-0.187C161.799,43.858,161.928,44.103,161.928,44.59z M150.729,42.628
				c0-0.031-0.006-0.091-0.02-0.18c-0.016-0.088-0.031-0.158-0.049-0.21c-0.307,0.042-0.641,0.174-1.006,0.397
				c-0.367,0.224-0.76,0.563-1.18,1.02c-0.422,0.457-0.873,1.047-1.354,1.769s-0.986,1.602-1.512,2.64
				c-0.141,0.28-0.287,0.584-0.445,0.911c-0.156,0.327-0.303,0.678-0.438,1.052c-0.133,0.374-0.242,0.771-0.326,1.191
				c-0.082,0.421-0.125,0.864-0.125,1.332c0,0.177,0.045,0.309,0.133,0.397c0.088,0.088,0.178,0.132,0.27,0.132
				c0.213,0,0.488-0.138,0.826-0.412c0.338-0.275,0.703-0.642,1.098-1.099c0.393-0.457,0.795-0.979,1.207-1.565
				c0.41-0.587,0.793-1.188,1.145-1.807s0.658-1.23,0.922-1.838s0.447-1.155,0.549-1.644c0.027-0.155,0.061-0.337,0.098-0.545
				s0.07-0.413,0.104-0.615c0.033-0.203,0.057-0.387,0.076-0.553C150.719,42.836,150.729,42.711,150.729,42.628z"/>
			<path fill="#333334" d="M183.854,45.743c0,0.197-0.033,0.412-0.098,0.646c-0.064,0.233-0.145,0.465-0.242,0.692
				c-0.098,0.229-0.203,0.444-0.318,0.646c-0.117,0.203-0.225,0.372-0.326,0.507c-0.297,0.415-0.627,0.856-0.992,1.323
				c-0.367,0.468-0.748,0.93-1.146,1.387c-0.396,0.457-0.805,0.896-1.221,1.316c-0.416,0.42-0.832,0.786-1.248,1.098
				c-0.324,0.249-0.637,0.48-0.938,0.693s-0.609,0.402-0.93,0.568c-0.318,0.166-0.656,0.296-1.014,0.39
				c-0.355,0.094-0.746,0.141-1.172,0.141c-0.693,0-1.27-0.156-1.729-0.468c-0.457-0.312-0.83-0.727-1.115-1.246
				c-0.287-0.52-0.508-1.113-0.66-1.783s-0.271-1.368-0.354-2.096c-0.121-0.986-0.254-1.768-0.402-2.344s-0.328-0.864-0.541-0.864
				c-0.186,0-0.365,0.049-0.541,0.147c-0.176,0.1-0.396,0.31-0.66,0.631c-0.264,0.322-0.596,0.792-0.998,1.41
				s-0.928,1.44-1.576,2.469c-0.223,0.353-0.492,0.747-0.811,1.184c-0.32,0.437-0.656,0.854-1.008,1.254s-0.699,0.753-1.047,1.06
				c-0.348,0.306-0.668,0.517-0.965,0.631c-1.166-0.291-1.748-1.542-1.748-3.754c0-0.562,0.055-1.387,0.166-2.477
				c0.057-0.488,0.119-1.002,0.188-1.542c0.07-0.54,0.158-1.083,0.264-1.628c0.107-0.545,0.234-1.08,0.383-1.604
				c0.146-0.524,0.318-1.01,0.512-1.456c0.111-0.25,0.236-0.446,0.375-0.593c0.139-0.145,0.279-0.254,0.424-0.326
				c0.143-0.073,0.293-0.12,0.451-0.141c0.156-0.021,0.314-0.031,0.471-0.031c0.139,0,0.273,0.039,0.402,0.117
				c0.131,0.077,0.246,0.189,0.348,0.335s0.184,0.321,0.242,0.529c0.061,0.208,0.092,0.446,0.092,0.717
				c0,0.238-0.02,0.467-0.057,0.685c-0.037,0.219-0.088,0.444-0.152,0.678c-0.064,0.234-0.131,0.48-0.201,0.74
				s-0.141,0.556-0.215,0.888c-0.047,0.218-0.113,0.498-0.201,0.841s-0.176,0.699-0.264,1.067s-0.17,0.729-0.242,1.082
				c-0.074,0.354-0.121,0.649-0.141,0.889c0.168-0.219,0.359-0.491,0.576-0.818c0.219-0.327,0.447-0.68,0.688-1.059
				s0.486-0.766,0.736-1.161c0.248-0.395,0.498-0.768,0.748-1.121c0.324-0.457,0.643-0.888,0.959-1.293
				c0.313-0.405,0.645-0.755,0.992-1.052c0.346-0.296,0.723-0.529,1.131-0.7c0.406-0.172,0.863-0.257,1.373-0.257
				c0.602,0,1.092,0.138,1.471,0.412c0.379,0.275,0.682,0.657,0.908,1.146c0.227,0.487,0.396,1.066,0.508,1.736
				s0.199,1.399,0.264,2.188c0.037,0.405,0.086,0.82,0.145,1.246c0.061,0.426,0.15,0.813,0.271,1.16
				c0.119,0.349,0.277,0.634,0.473,0.856c0.193,0.224,0.434,0.335,0.721,0.335c0.426,0,0.891-0.127,1.395-0.381
				c0.504-0.255,1.033-0.605,1.59-1.052c0.555-0.446,1.123-0.966,1.705-1.558c0.584-0.592,1.166-1.226,1.75-1.9
				c0.184-0.218,0.363-0.434,0.533-0.646c0.172-0.213,0.336-0.405,0.492-0.576c0.158-0.171,0.311-0.309,0.459-0.413
				c0.148-0.104,0.295-0.155,0.443-0.155c0.057,0,0.121,0.008,0.195,0.023s0.143,0.047,0.207,0.093
				c0.064,0.047,0.119,0.112,0.16,0.195S183.854,45.598,183.854,45.743z"/>
			<path fill="#333334" d="M203.475,46.117c0,0.187-0.021,0.371-0.068,0.553s-0.133,0.384-0.258,0.607
				c-0.123,0.224-0.291,0.485-0.498,0.786c-0.209,0.302-0.479,0.67-0.813,1.106v-0.016c-0.342,0.446-0.705,0.891-1.09,1.332
				c-0.383,0.441-0.797,0.896-1.242,1.362c-0.426,0.457-0.85,0.878-1.275,1.262c-0.426,0.385-0.838,0.717-1.236,0.997
				c-0.396,0.28-0.771,0.501-1.123,0.662s-0.666,0.241-0.943,0.241c-0.639,0-1.148-0.166-1.527-0.498
				c-0.379-0.333-0.682-0.784-0.908-1.355s-0.4-1.243-0.521-2.018c-0.119-0.773-0.23-1.596-0.332-2.469
				c-0.25,0.426-0.516,0.881-0.799,1.363c-0.281,0.482-0.578,0.963-0.887,1.44c-0.311,0.479-0.635,0.94-0.973,1.387
				s-0.682,0.852-1.033,1.215c-0.926,0.945-1.875,1.653-2.852,2.126s-1.982,0.709-3.018,0.709c-0.361,0-0.676-0.104-0.945-0.312
				c-0.268-0.208-0.49-0.476-0.666-0.803c-0.176-0.326-0.307-0.685-0.395-1.074s-0.133-0.766-0.133-1.129
				c0-0.488,0.02-0.906,0.057-1.254c0.037-0.349,0.092-0.642,0.166-0.881c0.398-1.277,0.84-2.489,1.326-3.637
				c0.484-1.147,1.084-2.276,1.797-3.388c0.443-0.706,0.883-1.329,1.318-1.869c0.434-0.54,0.895-0.994,1.381-1.363
				c0.484-0.368,1.01-0.646,1.574-0.833s1.197-0.28,1.9-0.28c0.592,0,1.078,0.244,1.457,0.732c0.381,0.487,0.648,1.168,0.807,2.04
				c0.064-0.395,0.127-0.841,0.186-1.34c0.061-0.498,0.119-1.022,0.174-1.573c0.057-0.55,0.107-1.121,0.152-1.713
				c0.047-0.592,0.088-1.179,0.125-1.761c0.047-0.81,0.107-1.495,0.182-2.056s0.166-0.944,0.277-1.152
				c0.148-0.271,0.332-0.493,0.555-0.67s0.523-0.265,0.902-0.265c0.23,0,0.451,0.039,0.658,0.116
				c0.209,0.078,0.395,0.177,0.557,0.296c0.16,0.12,0.287,0.255,0.381,0.405c0.092,0.15,0.139,0.299,0.139,0.444
				c0,0.135-0.023,0.337-0.07,0.607c-0.045,0.27-0.107,0.626-0.186,1.066c-0.08,0.441-0.174,0.981-0.285,1.62
				s-0.236,1.395-0.375,2.267c0,0.063-0.012,0.177-0.035,0.343s-0.051,0.355-0.082,0.568c-0.033,0.213-0.066,0.434-0.098,0.662
				c-0.033,0.229-0.064,0.443-0.098,0.646c-0.031,0.202-0.061,0.376-0.082,0.521c-0.023,0.146-0.041,0.233-0.049,0.265
				c-0.111,0.811-0.205,1.563-0.277,2.259c-0.074,0.696-0.111,1.392-0.111,2.087c0,0.312,0.002,0.645,0.006,0.997
				c0.006,0.354,0.012,0.709,0.021,1.067s0.023,0.714,0.041,1.066c0.02,0.354,0.047,0.691,0.084,1.013
				c0.01,0.073,0.031,0.158,0.068,0.257s0.086,0.192,0.146,0.28c0.061,0.089,0.131,0.164,0.215,0.227
				c0.084,0.062,0.176,0.093,0.277,0.093c0.131,0,0.27-0.028,0.416-0.085c0.148-0.058,0.303-0.13,0.465-0.219
				c0.162-0.088,0.32-0.182,0.473-0.28s0.289-0.194,0.41-0.288c0.49-0.363,0.973-0.756,1.449-1.176
				c0.477-0.421,0.955-0.88,1.436-1.379c0.473-0.487,0.945-0.963,1.416-1.425c0.473-0.462,0.889-0.911,1.25-1.348
				c0.139-0.155,0.314-0.233,0.527-0.233c0.146,0,0.27,0.078,0.367,0.233C203.428,45.463,203.475,45.732,203.475,46.117z
				 M189.127,48.609c0.074-0.094,0.154-0.208,0.242-0.343s0.176-0.28,0.264-0.437c0.088-0.155,0.176-0.313,0.264-0.475
				s0.16-0.31,0.215-0.444c-0.193-0.146-0.334-0.34-0.422-0.584s-0.133-0.491-0.133-0.74c0-0.104,0.008-0.223,0.021-0.358
				c0.014-0.135,0.029-0.272,0.049-0.412c0.018-0.141,0.033-0.272,0.049-0.397c0.014-0.125,0.02-0.218,0.02-0.28
				c0-0.135-0.037-0.277-0.111-0.429c-0.074-0.15-0.164-0.288-0.27-0.412c-0.107-0.125-0.223-0.229-0.348-0.312
				s-0.238-0.125-0.34-0.125c-0.223,0-0.48,0.148-0.777,0.444c-0.295,0.296-0.605,0.667-0.93,1.113s-0.645,0.935-0.965,1.464
				c-0.318,0.53-0.611,1.023-0.881,1.48c-0.295,0.519-0.551,1.004-0.764,1.456c-0.213,0.451-0.396,0.859-0.555,1.223
				c-0.49,1.184-0.734,2.118-0.734,2.804c0,0.623,0.102,0.935,0.305,0.935c0.186,0,0.426-0.072,0.721-0.218
				c0.297-0.146,0.645-0.369,1.041-0.67c0.416-0.322,0.793-0.631,1.131-0.927s0.627-0.584,0.867-0.864
				c0.52-0.593,0.939-1.093,1.264-1.504C188.674,49.188,188.932,48.858,189.127,48.609z"/>
			<path fill="#333334" d="M220.932,44.59c0,0.188-0.027,0.385-0.082,0.593c-0.057,0.207-0.127,0.415-0.215,0.623
				c-0.088,0.207-0.188,0.415-0.299,0.623c-0.111,0.207-0.227,0.399-0.348,0.576c-0.535,0.81-1.111,1.57-1.727,2.281
				c-0.615,0.712-1.232,1.379-1.854,2.002c-0.332,0.332-0.676,0.634-1.027,0.903c-0.352,0.271-0.703,0.504-1.053,0.701
				c-0.354,0.197-0.695,0.348-1.027,0.451c-0.334,0.104-0.645,0.156-0.93,0.156c-0.352,0-0.689-0.125-1.014-0.374
				s-0.607-0.563-0.854-0.942c-0.244-0.379-0.439-0.786-0.582-1.223c-0.145-0.437-0.215-0.841-0.215-1.215
				c-0.111,0.187-0.273,0.436-0.486,0.747s-0.436,0.629-0.666,0.95c-0.232,0.322-0.447,0.615-0.646,0.881
				c-0.197,0.265-0.34,0.454-0.422,0.568c-0.297,0.353-0.639,0.716-1.027,1.09s-0.775,0.712-1.158,1.013
				c-0.385,0.302-0.742,0.548-1.076,0.74c-0.332,0.192-0.588,0.288-0.764,0.288c-0.406,0-0.799-0.073-1.18-0.219
				c-0.379-0.145-0.715-0.355-1.006-0.631c-0.291-0.274-0.525-0.615-0.701-1.02c-0.176-0.405-0.264-0.867-0.264-1.387
				c0-0.509,0.063-1.066,0.188-1.674s0.297-1.241,0.514-1.9c0.219-0.659,0.479-1.327,0.785-2.002
				c0.305-0.675,0.635-1.332,0.992-1.971c0.355-0.639,0.732-1.243,1.131-1.814c0.396-0.57,0.805-1.08,1.221-1.526
				c0.74-0.789,1.527-1.37,2.359-1.744s1.693-0.561,2.58-0.561c0.232,0,0.426,0.036,0.584,0.108
				c0.156,0.073,0.291,0.169,0.402,0.288c0.111,0.12,0.205,0.257,0.283,0.413c0.08,0.155,0.15,0.312,0.217,0.467
				c0.045,0.073,0.121,0.175,0.229,0.304c0.105,0.131,0.215,0.273,0.326,0.429c0.111,0.156,0.207,0.312,0.291,0.468
				c0.084,0.155,0.125,0.296,0.125,0.42c0,0.219-0.027,0.455-0.084,0.709c-0.055,0.255-0.113,0.548-0.172,0.88
				c-0.061,0.333-0.119,0.709-0.174,1.13c-0.057,0.42-0.084,0.905-0.084,1.456c0,0.312,0.021,0.675,0.063,1.09
				c0.041,0.416,0.104,0.806,0.188,1.169s0.188,0.672,0.313,0.927c0.125,0.254,0.266,0.381,0.424,0.381
				c0.193,0,0.367-0.023,0.52-0.069c0.152-0.047,0.299-0.114,0.438-0.203c0.139-0.088,0.279-0.194,0.422-0.319
				c0.145-0.124,0.309-0.259,0.494-0.404c0.572-0.468,1.148-1.008,1.727-1.62s1.168-1.241,1.77-1.885
				c0.166-0.177,0.34-0.374,0.521-0.592c0.18-0.219,0.365-0.421,0.555-0.607c0.189-0.188,0.377-0.343,0.563-0.468
				c0.184-0.124,0.359-0.187,0.527-0.187C220.803,43.858,220.932,44.103,220.932,44.59z M209.734,42.628
				c0-0.031-0.008-0.091-0.021-0.18c-0.014-0.088-0.029-0.158-0.049-0.21c-0.305,0.042-0.641,0.174-1.006,0.397
				s-0.758,0.563-1.18,1.02c-0.42,0.457-0.871,1.047-1.354,1.769c-0.48,0.722-0.984,1.602-1.512,2.64
				c-0.139,0.28-0.287,0.584-0.443,0.911c-0.158,0.327-0.305,0.678-0.438,1.052c-0.135,0.374-0.242,0.771-0.326,1.191
				c-0.084,0.421-0.125,0.864-0.125,1.332c0,0.177,0.043,0.309,0.131,0.397c0.088,0.088,0.18,0.132,0.271,0.132
				c0.213,0,0.488-0.138,0.826-0.412c0.338-0.275,0.703-0.642,1.096-1.099s0.795-0.979,1.207-1.565s0.793-1.188,1.145-1.807
				s0.66-1.23,0.924-1.838s0.445-1.155,0.547-1.644c0.029-0.155,0.061-0.337,0.098-0.545s0.072-0.413,0.104-0.615
				c0.033-0.203,0.059-0.387,0.078-0.553C209.725,42.836,209.734,42.711,209.734,42.628z"/>
			<path fill="#333334" d="M232.533,44.435c0,0.094-0.018,0.218-0.055,0.374c-0.037,0.155-0.094,0.312-0.168,0.467
				c-0.072,0.156-0.168,0.291-0.283,0.405s-0.258,0.177-0.424,0.187c-0.037,0-0.115-0.002-0.236-0.008
				c-0.119-0.005-0.25-0.013-0.389-0.023c-0.139-0.01-0.268-0.018-0.389-0.022c-0.119-0.006-0.207-0.008-0.264-0.008
				c-1.545,0.093-2.881,0.716-4.01,1.869c-0.26,0.259-0.525,0.565-0.797,0.919c-0.273,0.353-0.543,0.739-0.807,1.16
				c-0.262,0.421-0.516,0.87-0.756,1.348s-0.457,0.976-0.652,1.495c-0.156,0.426-0.309,0.864-0.457,1.316
				c-0.148,0.451-0.277,0.927-0.389,1.425c-0.064,0.271-0.113,0.506-0.146,0.709c-0.031,0.202-0.086,0.438-0.158,0.708
				c-0.047,0.166-0.125,0.31-0.236,0.429s-0.24,0.218-0.389,0.296s-0.303,0.138-0.465,0.18c-0.162,0.041-0.322,0.067-0.479,0.077
				c-0.592,0-1-0.301-1.221-0.903c-0.223-0.602-0.334-1.5-0.334-2.694c0-0.271,0.002-0.524,0.008-0.764
				c0.004-0.238,0.014-0.479,0.027-0.724s0.029-0.499,0.049-0.764c0.018-0.265,0.041-0.563,0.068-0.896
				c0.037-0.488,0.088-1.067,0.152-1.737c0.064-0.669,0.135-1.35,0.209-2.04s0.154-1.357,0.242-2.002
				c0.088-0.644,0.178-1.188,0.271-1.635c0.111-0.551,0.299-0.981,0.563-1.293s0.648-0.468,1.158-0.468
				c0.148,0,0.299,0.045,0.451,0.133s0.289,0.194,0.408,0.319c0.121,0.124,0.223,0.26,0.307,0.405
				c0.082,0.146,0.129,0.274,0.139,0.389l0.014,0.28c0,0.291-0.023,0.634-0.07,1.028s-0.107,0.813-0.188,1.254
				c-0.078,0.441-0.162,0.888-0.25,1.34c-0.088,0.451-0.176,0.883-0.264,1.293s-0.166,0.789-0.234,1.137
				c-0.07,0.348-0.123,0.636-0.16,0.864c0.324-0.769,0.67-1.508,1.041-2.22c0.369-0.711,0.768-1.37,1.193-1.978
				s0.883-1.15,1.373-1.628s1.018-0.862,1.582-1.152c0.445-0.229,0.852-0.402,1.221-0.522c0.371-0.119,0.703-0.179,1-0.179
				c0.352,0,0.715,0.042,1.09,0.124c0.375,0.084,0.717,0.206,1.027,0.366c0.309,0.161,0.566,0.356,0.77,0.584
				C232.432,43.884,232.533,44.144,232.533,44.435z"/>
			<path fill="#333334" d="M253.377,51.116c0,0.073-0.023,0.185-0.068,0.335c-0.047,0.151-0.105,0.307-0.174,0.468
				c-0.07,0.161-0.137,0.314-0.201,0.459c-0.064,0.146-0.121,0.25-0.168,0.312c-0.352,0.571-0.723,1.109-1.115,1.612
				c-0.395,0.504-0.813,0.942-1.256,1.316c-0.445,0.374-0.92,0.667-1.424,0.88s-1.047,0.319-1.631,0.319
				c-0.268,0-0.541-0.063-0.818-0.187c-0.277-0.125-0.545-0.296-0.805-0.515c-0.26-0.218-0.498-0.478-0.715-0.778
				s-0.404-0.628-0.563-0.981c-0.119-0.28-0.232-0.604-0.34-0.974c-0.105-0.368-0.201-0.763-0.283-1.184
				c-0.084-0.421-0.148-0.856-0.195-1.309c-0.045-0.451-0.068-0.896-0.068-1.332v-0.467c-0.203,0.405-0.447,0.825-0.729,1.262
				c-0.283,0.437-0.584,0.872-0.902,1.309c-0.32,0.436-0.652,0.861-1,1.277c-0.346,0.415-0.686,0.794-1.02,1.137
				c-0.926,0.945-1.875,1.653-2.852,2.126s-1.982,0.709-3.018,0.709c-0.361,0-0.678-0.104-0.951-0.312s-0.498-0.476-0.674-0.803
				c-0.176-0.326-0.307-0.685-0.395-1.074s-0.133-0.766-0.133-1.129c0-0.488,0.021-0.906,0.063-1.254
				c0.043-0.349,0.1-0.642,0.174-0.881c0.389-1.277,0.828-2.489,1.318-3.637s1.092-2.276,1.805-3.388
				c0.213-0.332,0.451-0.672,0.715-1.021c0.264-0.348,0.535-0.68,0.818-0.997c0.281-0.316,0.576-0.609,0.881-0.88
				c0.305-0.27,0.605-0.493,0.902-0.67c0.352-0.207,0.754-0.384,1.207-0.529s1.008-0.218,1.666-0.218
				c0.285,0,0.555,0.086,0.805,0.257s0.469,0.395,0.658,0.67s0.35,0.589,0.479,0.942c0.131,0.353,0.219,0.716,0.264,1.09
				c0.047-0.395,0.102-0.851,0.168-1.37c0.064-0.52,0.129-1.069,0.193-1.651c0.064-0.581,0.129-1.179,0.195-1.791
				c0.064-0.613,0.119-1.21,0.166-1.792c0.064-0.81,0.141-1.511,0.229-2.103s0.188-0.997,0.299-1.215
				c0.148-0.27,0.314-0.473,0.5-0.607c0.184-0.135,0.467-0.202,0.846-0.202c0.23,0,0.445,0.031,0.645,0.093
				c0.199,0.063,0.373,0.148,0.521,0.258c0.148,0.108,0.264,0.233,0.346,0.373c0.084,0.141,0.125,0.283,0.125,0.429
				c0,0.135-0.02,0.343-0.063,0.623c-0.041,0.28-0.1,0.649-0.172,1.105c-0.074,0.458-0.166,1.008-0.271,1.651
				c-0.105,0.645-0.229,1.402-0.367,2.274c-0.01,0.094-0.033,0.296-0.07,0.607s-0.078,0.639-0.125,0.981
				c-0.045,0.343-0.09,0.656-0.131,0.942c-0.041,0.285-0.068,0.454-0.076,0.506c-0.102,0.789-0.182,1.534-0.236,2.235
				s-0.084,1.404-0.084,2.11c0,1.246,0.051,2.326,0.152,3.24c0.104,0.914,0.236,1.669,0.404,2.267
				c0.166,0.597,0.354,1.041,0.561,1.331c0.209,0.291,0.42,0.437,0.633,0.437c0.277,0,0.549-0.039,0.818-0.117
				c0.268-0.078,0.541-0.213,0.818-0.404c0.277-0.192,0.568-0.444,0.875-0.756c0.305-0.312,0.637-0.701,0.998-1.168
				c0.213-0.271,0.418-0.504,0.617-0.701s0.438-0.296,0.715-0.296c0.223,0,0.363,0.08,0.424,0.241S253.377,50.94,253.377,51.116z
				 M241.166,48.624c0.139-0.187,0.271-0.399,0.402-0.638c0.129-0.239,0.254-0.493,0.375-0.764
				c-0.186-0.135-0.301-0.304-0.348-0.506c-0.047-0.203-0.07-0.402-0.07-0.6c0-0.104,0.006-0.229,0.016-0.374
				c0.008-0.146,0.02-0.288,0.033-0.429c0.014-0.14,0.025-0.272,0.035-0.397c0.01-0.124,0.014-0.223,0.014-0.296
				c0-0.145-0.035-0.316-0.104-0.514c-0.07-0.197-0.156-0.39-0.258-0.576c-0.102-0.188-0.209-0.346-0.326-0.476
				c-0.115-0.129-0.223-0.194-0.326-0.194c-0.092,0-0.221,0.067-0.387,0.202c-0.168,0.136-0.355,0.314-0.563,0.538
				c-0.209,0.223-0.43,0.485-0.666,0.786c-0.236,0.302-0.473,0.618-0.709,0.95c-0.234,0.332-0.467,0.67-0.693,1.013
				s-0.428,0.67-0.604,0.981c-0.297,0.529-0.557,1.03-0.783,1.503s-0.42,0.891-0.576,1.254c-0.26,0.612-0.438,1.14-0.535,1.581
				c-0.096,0.441-0.145,0.839-0.145,1.191c0,0.644,0.102,0.966,0.305,0.966c0.186,0,0.418-0.055,0.701-0.164
				c0.281-0.108,0.631-0.319,1.047-0.631c0.869-0.664,1.555-1.282,2.055-1.854c0.527-0.612,0.959-1.126,1.297-1.542
				C240.691,49.222,240.961,48.884,241.166,48.624z"/>
			<path fill="#333334" d="M279.326,37.44c0,0.146-0.016,0.322-0.047,0.53c-0.033,0.208-0.082,0.423-0.146,0.646
				c-0.064,0.223-0.137,0.436-0.215,0.639c-0.078,0.202-0.17,0.365-0.271,0.49h0.014c-0.295,0.395-0.994,0.592-2.094,0.592
				c0-0.446-0.018-0.833-0.049-1.16c-0.033-0.327-0.086-0.59-0.16-0.787c-0.064-0.166-0.18-0.306-0.348-0.42
				c-0.166-0.114-0.354-0.208-0.561-0.28c-0.209-0.073-0.42-0.127-0.633-0.164c-0.213-0.036-0.396-0.055-0.555-0.055
				c-0.398,0-0.787,0.011-1.166,0.031c-0.379,0.021-0.752,0.063-1.117,0.125s-0.734,0.15-1.109,0.265s-0.756,0.26-1.145,0.437
				c-0.277,0.124-0.572,0.28-0.881,0.467c-0.311,0.187-0.6,0.397-0.867,0.631c-0.27,0.233-0.498,0.488-0.688,0.764
				c-0.189,0.274-0.309,0.568-0.354,0.88l0.014-0.031c0,0.249,0.074,0.527,0.221,0.833c0.148,0.307,0.35,0.607,0.604,0.903
				c0.256,0.296,0.549,0.566,0.883,0.811c0.332,0.244,0.684,0.423,1.055,0.537c0.027,0.011,0.105,0.042,0.234,0.094
				c0.131,0.052,0.287,0.111,0.473,0.179s0.381,0.143,0.59,0.226c0.209,0.084,0.402,0.159,0.582,0.227
				c0.182,0.067,0.334,0.124,0.459,0.171s0.195,0.075,0.215,0.086c2.146,0.612,3.738,1.35,4.773,2.212
				c1.037,0.861,1.555,1.921,1.555,3.177c0,0.405-0.078,0.808-0.236,1.208c-0.158,0.399-0.355,0.781-0.596,1.145
				c-0.242,0.363-0.502,0.698-0.785,1.005c-0.281,0.306-0.549,0.563-0.797,0.771l0.014-0.016c-0.27,0.239-0.572,0.483-0.91,0.732
				s-0.701,0.493-1.088,0.732c-0.389,0.238-0.791,0.462-1.209,0.669c-0.416,0.208-0.842,0.39-1.275,0.546
				c-0.408,0.145-0.836,0.282-1.283,0.412c-0.449,0.13-0.896,0.242-1.34,0.335c-0.443,0.094-0.873,0.166-1.283,0.219
				c-0.412,0.052-0.785,0.077-1.117,0.077c-0.176,0-0.391-0.023-0.646-0.069c-0.254-0.047-0.521-0.112-0.805-0.195
				c-0.281-0.083-0.564-0.182-0.846-0.296c-0.283-0.114-0.535-0.244-0.756-0.39c-0.223-0.146-0.402-0.301-0.541-0.467
				c-0.141-0.166-0.209-0.343-0.209-0.529c0-0.166,0.027-0.369,0.084-0.607c0.055-0.239,0.135-0.47,0.242-0.693
				c0.105-0.224,0.23-0.415,0.375-0.576c0.143-0.161,0.299-0.242,0.465-0.242c0.23,0,0.447,0.031,0.652,0.094
				c0.203,0.063,0.432,0.133,0.686,0.21c0.256,0.078,0.551,0.151,0.889,0.219s0.756,0.101,1.256,0.101s1.02-0.06,1.561-0.179
				c0.543-0.119,1.076-0.28,1.604-0.482c0.527-0.203,1.031-0.434,1.514-0.693c0.48-0.26,0.914-0.53,1.303-0.811
				c0.168-0.124,0.35-0.267,0.549-0.428s0.385-0.338,0.555-0.53c0.172-0.191,0.314-0.392,0.432-0.6
				c0.115-0.207,0.172-0.42,0.172-0.639c0-0.249-0.166-0.487-0.498-0.716v0.016c-0.492-0.333-0.977-0.587-1.457-0.764
				c-0.482-0.177-0.902-0.321-1.264-0.437c-1.018-0.29-2.258-0.752-3.719-1.386h0.014c-0.611-0.27-1.203-0.618-1.777-1.044
				c-0.572-0.426-1.068-0.872-1.484-1.339c-0.924-1.153-1.387-2.482-1.387-3.988c0-0.592,0.146-1.168,0.443-1.729
				s0.699-1.088,1.207-1.581c0.51-0.493,1.1-0.947,1.77-1.363c0.672-0.415,1.385-0.771,2.145-1.066
				c0.758-0.296,1.533-0.527,2.324-0.693s1.557-0.249,2.297-0.249c0.23,0,0.52,0.019,0.867,0.055s0.703,0.088,1.068,0.155
				s0.715,0.15,1.047,0.249c0.334,0.1,0.598,0.211,0.791,0.335h-0.014c0.537,0.322,0.961,0.707,1.27,1.153
				C279.172,36.579,279.326,37.016,279.326,37.44z"/>
			<path fill="#333334" d="M297.449,46.911c0,0.239-0.08,0.543-0.242,0.911c-0.162,0.369-0.383,0.779-0.666,1.23
				c-0.281,0.452-0.617,0.935-1.006,1.448c-0.389,0.515-0.811,1.042-1.264,1.581c-0.49,0.593-1.021,1.174-1.596,1.745
				c-0.572,0.571-1.184,1.121-1.832,1.65c-0.637,0.52-1.268,0.922-1.887,1.208c-0.619,0.285-1.207,0.428-1.762,0.428
				c-0.648,0-1.209-0.122-1.686-0.366c-0.477-0.243-0.885-0.576-1.223-0.996c-0.338-0.421-0.611-0.903-0.824-1.449
				c-0.213-0.545-0.383-1.121-0.508-1.729s-0.211-1.223-0.256-1.846c-0.047-0.623-0.07-1.215-0.07-1.776
				c0-0.218,0.014-0.545,0.043-0.98c0.027-0.437,0.066-0.896,0.117-1.379s0.105-0.95,0.166-1.401
				c0.061-0.452,0.123-0.808,0.188-1.067c0.139-0.509,0.459-0.991,0.957-1.448c0.482-0.437,1.018-0.654,1.611-0.654
				c0.6,0,0.9,0.404,0.9,1.215c0,0.384-0.029,0.792-0.09,1.223s-0.127,0.854-0.201,1.27c-0.119,0.758-0.203,1.44-0.25,2.048
				c-0.045,0.607-0.068,1.146-0.068,1.612c0,0.529,0.027,1.044,0.082,1.542c0.057,0.498,0.137,0.942,0.244,1.332
				c0.105,0.39,0.24,0.703,0.402,0.942s0.354,0.358,0.576,0.358c0.277,0,0.564-0.029,0.859-0.086c0.297-0.057,0.652-0.21,1.068-0.46
				c0.797-0.487,1.643-1.146,2.541-1.978c0.313-0.291,0.672-0.636,1.074-1.036c0.402-0.399,0.803-0.81,1.201-1.23
				c0.396-0.421,0.771-0.833,1.123-1.238s0.629-0.753,0.834-1.044c0.027-0.052,0.066-0.116,0.117-0.194s0.109-0.158,0.174-0.241
				s0.137-0.153,0.215-0.211c0.078-0.057,0.154-0.085,0.229-0.085c0.148,0,0.258,0.023,0.326,0.069
				c0.07,0.047,0.146,0.19,0.229,0.429C297.398,46.517,297.449,46.734,297.449,46.911z M288.818,34.092
				c0,0.343-0.047,0.668-0.139,0.974c-0.092,0.307-0.227,0.595-0.402,0.864c-0.352,0.551-0.893,0.826-1.623,0.826
				c-0.26,0-0.523-0.026-0.791-0.078c-0.27-0.052-0.51-0.125-0.723-0.218c-0.213-0.094-0.389-0.213-0.527-0.358
				s-0.207-0.312-0.207-0.499c0-0.321,0.074-0.662,0.221-1.02c0.148-0.358,0.342-0.69,0.576-0.997
				c0.236-0.307,0.496-0.561,0.777-0.764c0.283-0.202,0.553-0.304,0.813-0.304c0.324,0,0.609,0.023,0.859,0.07
				s0.461,0.127,0.633,0.241c0.17,0.114,0.303,0.275,0.395,0.483C288.771,33.521,288.818,33.78,288.818,34.092z"/>
			<path fill="#333334" d="M295.605,52.207c0-0.478,0.025-0.958,0.076-1.44c0.051-0.483,0.115-0.961,0.193-1.434
				s0.164-0.932,0.258-1.378c0.092-0.446,0.174-0.873,0.248-1.277c0.104-0.54,0.195-1.022,0.279-1.449
				c0.082-0.425,0.133-0.819,0.152-1.184c-0.139,0.031-0.295,0.061-0.465,0.086c-0.172,0.026-0.346,0.052-0.521,0.078
				c-0.176,0.025-0.346,0.044-0.514,0.054c-0.166,0.011-0.305,0.016-0.416,0.016c-0.287,0-0.533-0.022-0.742-0.069
				c-0.207-0.047-0.381-0.135-0.52-0.265s-0.242-0.312-0.307-0.546c-0.064-0.233-0.096-0.532-0.096-0.896
				c0-0.229,0.047-0.421,0.145-0.576c0.098-0.156,0.227-0.28,0.389-0.374s0.342-0.158,0.541-0.194s0.396-0.055,0.59-0.055
				c0.074,0,0.217-0.013,0.43-0.039c0.213-0.025,0.439-0.055,0.682-0.086c0.24-0.031,0.477-0.062,0.707-0.093
				s0.402-0.052,0.514-0.063c0.074,0,0.145-0.063,0.215-0.187c0.07-0.125,0.135-0.273,0.193-0.444
				c0.061-0.172,0.113-0.348,0.16-0.529s0.078-0.335,0.098-0.46c0.047-0.28,0.113-0.623,0.201-1.028
				c0.088-0.404,0.186-0.819,0.291-1.246c0.107-0.425,0.217-0.833,0.334-1.223c0.115-0.389,0.229-0.698,0.34-0.927
				c0.146-0.321,0.309-0.565,0.484-0.731s0.439-0.25,0.791-0.25c0.49,0,0.85,0.131,1.076,0.39c0.227,0.26,0.34,0.66,0.34,1.199
				c0,0.25-0.049,0.571-0.146,0.966c-0.096,0.395-0.205,0.818-0.324,1.27c-0.121,0.452-0.234,0.909-0.342,1.371
				c-0.105,0.462-0.164,0.875-0.172,1.238c0.184,0,0.453-0.021,0.805-0.063c0.352-0.041,0.721-0.091,1.109-0.148
				c0.389-0.057,0.762-0.116,1.117-0.179s0.627-0.114,0.813-0.155c0.389-0.094,0.686-0.164,0.895-0.211s0.398-0.091,0.568-0.132
				c0.172-0.042,0.357-0.091,0.557-0.148c0.197-0.057,0.479-0.143,0.838-0.257c0.139,0.125,0.25,0.224,0.334,0.296
				c0.084,0.073,0.145,0.133,0.188,0.179c0.041,0.047,0.068,0.092,0.082,0.133c0.016,0.042,0.021,0.088,0.021,0.141
				c0,0.404-0.166,0.776-0.5,1.113c-0.332,0.338-0.754,0.636-1.262,0.896c-0.51,0.26-1.063,0.48-1.658,0.662
				c-0.598,0.182-1.16,0.324-1.688,0.429c-0.389,0.072-0.736,0.135-1.047,0.187s-0.58,0.102-0.813,0.148
				c-0.23,0.046-0.42,0.099-0.568,0.155c-0.148,0.058-0.26,0.127-0.332,0.21c-0.121,0.468-0.258,1.026-0.41,1.675
				c-0.152,0.649-0.299,1.332-0.438,2.048c-0.139,0.717-0.254,1.441-0.346,2.173c-0.094,0.732-0.141,1.415-0.141,2.049
				c0,0.717,0.125,1.251,0.375,1.604c0.25,0.353,0.602,0.529,1.055,0.529c0.416,0,0.826-0.033,1.229-0.102
				c0.402-0.067,0.824-0.191,1.264-0.373s0.906-0.429,1.4-0.74c0.496-0.312,1.049-0.711,1.658-1.199
				c0.168-0.146,0.34-0.307,0.521-0.483c0.18-0.176,0.363-0.345,0.547-0.506c0.186-0.161,0.375-0.296,0.57-0.405
				c0.193-0.108,0.393-0.163,0.596-0.163c0.186,0,0.33,0.049,0.438,0.147c0.105,0.099,0.16,0.252,0.16,0.46
				c0,0.155-0.047,0.345-0.139,0.568c-0.094,0.224-0.223,0.459-0.389,0.709c-0.168,0.249-0.363,0.506-0.59,0.771
				s-0.479,0.517-0.756,0.756c-0.537,0.478-1.1,0.932-1.688,1.362c-0.588,0.432-1.184,0.808-1.789,1.13
				c-0.607,0.322-1.215,0.576-1.826,0.763c-0.609,0.188-1.215,0.28-1.816,0.28c-0.74,0-1.369-0.127-1.889-0.381
				c-0.518-0.255-0.941-0.595-1.27-1.021s-0.568-0.911-0.721-1.456C295.682,53.336,295.605,52.778,295.605,52.207z"/>
			<path fill="#333334" d="M321.248,49.17c0,0.384-0.133,0.82-0.402,1.309c-0.268,0.487-0.629,0.996-1.082,1.526
				c-0.5,0.571-1.047,1.104-1.645,1.597c-0.596,0.493-1.217,0.919-1.859,1.276c-0.643,0.358-1.297,0.639-1.963,0.842
				c-0.666,0.202-1.314,0.304-1.943,0.304c-0.777,0-1.469-0.138-2.074-0.413s-1.119-0.68-1.541-1.215
				c-0.42-0.535-0.742-1.202-0.965-2.002c-0.221-0.799-0.332-1.718-0.332-2.757c0-0.623,0.053-1.256,0.16-1.9
				c0.105-0.644,0.26-1.285,0.465-1.923c0.203-0.639,0.457-1.257,0.762-1.854c0.307-0.597,0.652-1.16,1.041-1.689
				c0.25-0.332,0.535-0.667,0.854-1.005c0.32-0.337,0.674-0.641,1.063-0.911c0.389-0.27,0.816-0.49,1.283-0.662
				c0.467-0.171,0.975-0.257,1.52-0.257c0.443,0,0.84,0.091,1.188,0.272c0.346,0.182,0.639,0.413,0.881,0.693
				c0.24,0.28,0.424,0.597,0.555,0.95c0.129,0.353,0.193,0.701,0.193,1.043c0,0.811-0.154,1.565-0.465,2.267
				c-0.309,0.701-0.742,1.371-1.297,2.01s-1.223,1.264-2.006,1.877c-0.781,0.612-1.645,1.241-2.588,1.885
				c-0.045,0.021-0.117,0.067-0.215,0.14c-0.098,0.073-0.145,0.12-0.145,0.141c0.008,0.208,0.055,0.431,0.139,0.67
				c0.082,0.238,0.211,0.462,0.389,0.67c0.174,0.207,0.398,0.381,0.672,0.521c0.273,0.14,0.6,0.21,0.979,0.21
				c0.582,0,1.17-0.091,1.762-0.272s1.176-0.444,1.75-0.786c0.572-0.343,1.133-0.759,1.678-1.246
				c0.547-0.488,1.064-1.039,1.555-1.651c0.186-0.239,0.367-0.41,0.549-0.514c0.18-0.104,0.348-0.156,0.506-0.156
				s0.293,0.073,0.41,0.218C321.191,48.521,321.248,48.785,321.248,49.17z M314.52,43.204c0-0.166-0.029-0.304-0.084-0.413
				c-0.057-0.108-0.119-0.194-0.188-0.257c-0.07-0.063-0.139-0.106-0.209-0.133c-0.068-0.025-0.117-0.038-0.145-0.038
				c-0.416,0-0.801,0.179-1.152,0.537s-0.666,0.817-0.943,1.378c-0.277,0.562-0.521,1.179-0.729,1.854
				c-0.209,0.676-0.381,1.33-0.521,1.963c0.557-0.478,1.074-0.919,1.555-1.324c0.48-0.404,0.9-0.799,1.256-1.184
				c0.357-0.384,0.639-0.769,0.848-1.152C314.414,44.051,314.52,43.64,314.52,43.204z"/>
		</g>
	</g>
	<g>
		<path fill="#676868" d="M88.944,81.814H88.3v2.257h-0.563v-2.257h-2.222v-0.499h3.332c1.029,0,1.99-0.086,2.703-0.472v0.5
			C90.92,81.715,89.986,81.814,88.944,81.814z M85.981,78.229c0-0.57,0.247-1.027,0.631-1.356c0.438-0.386,1.083-0.543,1.811-0.543
			c0.7,0,1.345,0.157,1.784,0.543c0.383,0.329,0.631,0.786,0.631,1.356c0,0.586-0.248,1.058-0.631,1.386
			c-0.439,0.357-1.084,0.543-1.784,0.543c-0.728,0-1.372-0.186-1.811-0.543C86.229,79.287,85.981,78.815,85.981,78.229z
			 M86.558,78.229c0,0.415,0.138,0.743,0.411,0.986c0.344,0.3,0.864,0.457,1.454,0.457c0.563,0,1.084-0.157,1.44-0.457
			c0.261-0.243,0.426-0.571,0.426-0.986c0-0.399-0.165-0.728-0.426-0.956c-0.356-0.3-0.878-0.457-1.44-0.457
			c-0.59,0-1.11,0.157-1.454,0.457C86.695,77.502,86.558,77.83,86.558,78.229z M95.268,86.371v-1.328h0.576v4.07h-8.984v-4.07h0.576
			v1.328H95.268z M95.268,86.885h-7.832v1.714h7.832V86.885z M93.17,84.171h-0.549v-0.928H90.33v-0.485h2.291v-6.271h0.549V84.171z
			 M95.268,76.416h0.576V84.2h-0.576V76.416z"/>
		<path fill="#676868" d="M106.615,82.972h2.469v0.543h-2.25v4.355h2.703v0.515H98.795V87.87h2.785v-4.355h-2.346v-0.543h1.989
			v-5.77h-1.729v-0.543h9.342v0.543h-1.729v2.342C107.108,80.743,106.957,82.187,106.615,82.972z M101.8,77.202v5.77h4.239
			c0.383-0.857,0.493-2.242,0.493-3.371v-2.398H101.8z M106.258,83.515h-4.115v4.355h4.115V83.515z"/>
		<path fill="#676868" d="M111.898,83.743V83.2h10.878v0.543h-5.007v2.699h-0.576v-2.699H111.898z M112.763,77.116v-0.528h9.149
			v0.528h-4.307v0.643c0,1.542,2.619,2.856,4.484,2.999v0.558c-1.975-0.172-4.073-1.3-4.76-2.571c-0.74,1.3-2.867,2.442-4.787,2.571
			v-0.558c1.838-0.1,4.5-1.471,4.5-2.999v-0.643H112.763z M113.339,85.628v2.871h8.82v0.543h-9.396v-3.414H113.339z"/>
		<path fill="#676868" d="M125.069,82.301v-0.515h10.878v0.515H125.069z M125.687,78.287c0-0.485,0.192-0.856,0.617-1.157
			c0.714-0.5,2.071-0.729,4.226-0.729c2.153,0,3.512,0.229,4.225,0.729c0.412,0.301,0.617,0.672,0.617,1.157
			c0,0.472-0.205,0.856-0.617,1.143c-0.713,0.5-2.071,0.743-4.225,0.743c-2.154,0-3.512-0.243-4.226-0.743
			C125.879,79.144,125.687,78.759,125.687,78.287z M126.51,86.885v1.714h8.889v0.515h-9.465v-2.729h8.573v-1.757h-8.573v-0.514
			h9.149v2.771H126.51z M126.276,78.287c0,0.314,0.124,0.557,0.425,0.771c0.576,0.399,1.783,0.6,3.828,0.6
			c2.043,0,3.264-0.2,3.826-0.6c0.303-0.215,0.426-0.457,0.426-0.771s-0.123-0.571-0.426-0.771c-0.563-0.414-1.783-0.6-3.826-0.6
			c-2.045,0-3.252,0.186-3.828,0.6C126.4,77.716,126.276,77.973,126.276,78.287z"/>
		<path fill="#676868" d="M142.205,83.743V83.2h10.879v0.543h-5.008v2.699H147.5v-2.699H142.205z M143.07,77.116v-0.528h9.148v0.528
			h-4.307v0.643c0,1.542,2.62,2.856,4.485,2.999v0.558c-1.976-0.172-4.073-1.3-4.76-2.571c-0.741,1.3-2.867,2.442-4.788,2.571
			v-0.558c1.839-0.1,4.5-1.471,4.5-2.999v-0.643H143.07z M143.646,85.628v2.871h8.82v0.543h-9.396v-3.414H143.646z"/>
		<path fill="#676868" d="M155.445,85.514v-0.542h10.74v0.542h-5.103v3.699h-0.563v-3.699H155.445z M160.809,78.973
			c-0.617,1.657-2.387,2.942-5.145,3.514v-0.571c2.662-0.528,4.856-2.043,4.856-4.613v-0.785h0.576v0.785
			c0,2.557,2.249,4.042,4.843,4.613v0.571C163.264,81.9,161.467,80.658,160.809,78.973z"/>
		<path fill="#676868" d="M175.187,78.158h-6.845v-0.514h3.141v-1.643h0.576v1.643h3.128V78.158z M168.753,81.986
			c0-0.671,0.261-1.229,0.741-1.628c0.535-0.486,1.357-0.743,2.264-0.743c0.918,0,1.742,0.257,2.276,0.743
			c0.466,0.399,0.741,0.957,0.741,1.628c0,0.657-0.275,1.214-0.741,1.614c-0.534,0.471-1.358,0.742-2.276,0.742
			c-0.906,0-1.729-0.271-2.264-0.742C169.014,83.2,168.753,82.644,168.753,81.986z M169.329,81.986c0,0.485,0.192,0.899,0.535,1.199
			c0.466,0.415,1.166,0.644,1.894,0.644c0.74,0,1.439-0.229,1.893-0.644c0.356-0.3,0.549-0.714,0.549-1.199
			c0-0.515-0.192-0.929-0.549-1.229c-0.453-0.414-1.152-0.643-1.893-0.643c-0.728,0-1.428,0.229-1.894,0.643
			C169.521,81.058,169.329,81.472,169.329,81.986z M170.139,85.614v2.885h8.395v0.543h-8.984v-3.428H170.139z M178.301,76.416v3.913
			h1.961v0.529h-1.961v4.655h-0.576v-9.098H178.301z"/>
		<path fill="#676868" d="M187.426,87.57V77.202h-1.33v-0.543h6.707v0.543h-1.385v6.326c0,1.485-0.124,3.143-0.357,4.042h0.096
			c1.043,0,2.045-0.114,2.717-0.471v0.514c-0.658,0.357-1.633,0.472-2.73,0.472h-5.213V87.57H187.426z M190.855,83.729v-6.526
			h-2.854V87.57h2.51C190.731,86.685,190.855,85.1,190.855,83.729z M192.652,82.314v-0.514h2.482v-5.385h0.576v12.583h-0.576v-6.685
			H192.652z"/>
		<path fill="#676868" d="M198.854,82.687v-0.529h10.878v0.529H198.854z M199.719,76.588h0.576v1.356h7.997v-1.356h0.576v4.013
			h-9.149V76.588z M200.295,87.028v1.585h8.889v0.5h-9.465v-2.6h8.573v-1.628h-8.573v-0.5h9.149v2.643H200.295z M208.292,80.101
			v-1.656h-7.997v1.656H208.292z"/>
		<path fill="#676868" d="M217.883,88.099h-5.281v-6.041h4.691v-4.855h-4.691v-0.543h5.268v5.927h-4.705v4.971h4.787
			c1.414,0,2.758-0.443,3.525-1.243v-9.897h0.576v12.568h-0.576v-2.128C220.777,87.642,219.365,88.099,217.883,88.099z"/>
		<path fill="#676868" d="M228.818,76.517v1.756c0,2.129,1.577,3.514,3.113,4.042v0.571c-1.66-0.557-2.949-1.771-3.416-3.085
			c-0.355,1.328-1.646,2.657-3.388,3.228v-0.557c1.591-0.557,3.114-2.085,3.114-4.199v-1.756H228.818z M230.876,89.299
			c-1.577,0-2.936-0.257-3.772-0.857c-0.576-0.399-0.892-0.942-0.892-1.642c0-0.715,0.315-1.258,0.892-1.657
			c0.837-0.6,2.195-0.871,3.772-0.871c1.604,0,2.949,0.271,3.786,0.871c0.563,0.399,0.892,0.942,0.892,1.657
			c0,0.699-0.329,1.242-0.892,1.642C233.825,89.042,232.48,89.299,230.876,89.299z M230.876,84.814
			c-1.468,0-2.702,0.257-3.416,0.757c-0.425,0.328-0.672,0.714-0.672,1.229c0,0.499,0.247,0.899,0.672,1.214
			c0.714,0.514,1.948,0.771,3.416,0.771c1.481,0,2.716-0.257,3.415-0.771c0.453-0.314,0.7-0.715,0.7-1.214
			c0-0.515-0.247-0.9-0.7-1.229C233.592,85.071,232.357,84.814,230.876,84.814z M235.293,83.558h-0.576v-7.142h0.576V83.558z"/>
		<path fill="#676868" d="M245.68,83.814c-0.33,1.942-1.715,3.556-3.484,4.313v-0.586c1.592-0.757,3.196-2.371,3.196-5.784v-5.17
			h0.576v5.17c0,3.413,1.618,4.941,3.196,5.784v0.586C247.436,87.313,246.036,85.757,245.68,83.814z M252.086,76.416v5.499h2.057
			v0.528h-2.057v6.556h-0.576V76.416H252.086z"/>
		<path fill="#676868" d="M255.93,82.343c0-2.456,0.328-4.241,1.193-5.17c0.452-0.514,1.069-0.771,1.852-0.771
			c0.768,0,1.385,0.258,1.838,0.771c0.878,0.929,1.193,2.714,1.193,5.17c0,2.442-0.315,4.242-1.193,5.171
			c-0.453,0.5-1.07,0.742-1.838,0.742c-0.782,0-1.399-0.242-1.852-0.742C256.258,86.585,255.93,84.785,255.93,82.343z
			 M261.43,82.343c0-2.313-0.274-3.97-1.016-4.784c-0.355-0.386-0.85-0.628-1.439-0.628c-0.604,0-1.098,0.242-1.454,0.628
			c-0.741,0.814-1.015,2.471-1.015,4.784c0,2.314,0.273,3.957,1.015,4.785c0.356,0.399,0.851,0.614,1.454,0.614
			c0.59,0,1.084-0.215,1.439-0.614C261.155,86.3,261.43,84.657,261.43,82.343z M264.955,88.984V76.416h0.576v12.568H264.955z"/>
		<path fill="#676868" d="M268.743,88.385V87.87h10.741v0.515H268.743z M278.785,77.202h-8.779v3.142h8.614v0.543h-8.614v3.128
			h8.943v0.528h-9.506v-7.884h9.342V77.202z"/>
	</g>
</g>
</svg>
