<?xml version="1.0" encoding="utf-8"?>
<!-- Generator: Adobe Illustrator 16.0.0, SVG Export Plug-In . SVG Version: 6.00 Build 0)  -->
<!DOCTYPE svg PUBLIC "-//W3C//DTD SVG 1.1//EN" "http://www.w3.org/Graphics/SVG/1.1/DTD/svg11.dtd">
<svg version="1.1" id="Layer_1" xmlns="http://www.w3.org/2000/svg" xmlns:xlink="http://www.w3.org/1999/xlink" x="0px" y="0px"
	 width="365px" height="596px" viewBox="0 0 365 596" enable-background="new 0 0 365 596" xml:space="preserve">
<g>
	<rect fill="#FFFFFF" width="365" height="596"/>
	<g>
		<defs>
			<rect id="SVGID_1_" x="33.188" y="106.989" width="298.623" height="452.458"/>
		</defs>
		<clipPath id="SVGID_2_">
			<use xlink:href="#SVGID_1_"  overflow="visible"/>
		</clipPath>
		<g clip-path="url(#SVGID_2_)">
			<path fill="#EADBCC" d="M29.082,572.725h305.056V437.047c-123.916-1.245-249.526-2.578-305.056-3.171V572.725z"/>
			<path fill="#E9E9E9" d="M334.181,295.518V87.016H30.026v208.371C106.413,294.52,285.901,292.831,334.181,295.518z"/>
			<path fill="#CFE2F4" d="M30.024,296.678v137.198c55.358,0.593,180.581,1.926,304.113,3.171V296.801
				C285.865,294.238,106.4,295.85,30.024,296.678z"/>
			<g>
				<image overflow="visible" width="115" height="86" xlink:href="15ACA829.png"  transform="matrix(1 0 0 1 -4 393)">
				</image>
			</g>
			<g>
				<image overflow="visible" width="144" height="82" xlink:href="15ACA82B.png"  transform="matrix(1 0 0 1 44 396)">
				</image>
			</g>
			<g>
				<image overflow="visible" width="109" height="87" xlink:href="15ACA82E.png"  transform="matrix(1 0 0 1 14 391)">
				</image>
			</g>
			<g>
				<image overflow="visible" width="98" height="85" xlink:href="15ACA82F.png"  transform="matrix(1 0 0 1 -8 391)">
				</image>
			</g>
			<g>
				<image overflow="visible" width="127" height="86" xlink:href="15ACA82A.png"  transform="matrix(1 0 0 1 4 393)">
				</image>
			</g>
			<g>
				<image overflow="visible" width="130" height="87" xlink:href="15ACA825.png"  transform="matrix(1 0 0 1 44 392)">
				</image>
			</g>
			<g>
				<image overflow="visible" width="158" height="95" xlink:href="15ACA826.png"  transform="matrix(1 0 0 1 68 384)">
				</image>
			</g>
			<g>
				<image overflow="visible" width="123" height="84" xlink:href="15ACA827.png"  transform="matrix(1 0 0 1 112 393)">
				</image>
			</g>
			<g>
				<image overflow="visible" width="139" height="87" xlink:href="15ACA839.png"  transform="matrix(1 0 0 1 146 393)">
				</image>
			</g>
			<g>
				<image overflow="visible" width="148" height="91" xlink:href="21F44DF2.png"  transform="matrix(1 0 0 1 193 394)">
				</image>
			</g>
			<g>
				<image overflow="visible" width="215" height="88" xlink:href="21F44DF5.png"  transform="matrix(1 0 0 1 126 391)">
				</image>
			</g>
			<g>
				<image overflow="visible" width="113" height="90" xlink:href="21F44DF6.png"  transform="matrix(1 0 0 1 257 393)">
				</image>
			</g>
			<g>
				<image overflow="visible" width="133" height="87" xlink:href="21F44DF4.png"  transform="matrix(1 0 0 1 -1 392)">
				</image>
			</g>
			<g>
				<image overflow="visible" width="125" height="83" xlink:href="21F44DF3.png"  transform="matrix(1 0 0 1 -8 255)">
				</image>
			</g>
			<g>
				<image overflow="visible" width="147" height="80" xlink:href="21F44DED.png"  transform="matrix(1 0 0 1 29 256)">
				</image>
			</g>
			<g>
				<image overflow="visible" width="170" height="83" xlink:href="21F44DEE.png"  transform="matrix(1 0 0 1 80 257)">
				</image>
			</g>
			<g>
				<image overflow="visible" width="177" height="82" xlink:href="21F44DEC.png"  transform="matrix(1 0 0 1 136 258)">
				</image>
			</g>
			<g>
				<image overflow="visible" width="135" height="78" xlink:href="21F44E12.png"  transform="matrix(1 0 0 1 197 258)">
				</image>
			</g>
			<g>
				<image overflow="visible" width="132" height="80" xlink:href="21F44E15.png"  transform="matrix(1 0 0 1 232 256)">
				</image>
			</g>
			<g>
				<image overflow="visible" width="243" height="89" xlink:href="21F44E09.png"  transform="matrix(1 0 0 1 114 247)">
				</image>
			</g>
			<g>
				<image overflow="visible" width="179" height="83" xlink:href="21F44E0B.png"  transform="matrix(1 0 0 1 90 257)">
				</image>
			</g>
			<path fill="#C4A98E" d="M334.181,262.705c0,0-0.357,4.798-6.755,1.765c-6.396-3.032-9.954-3.792-14.929,0
				c-4.977,3.794-7.611-7.458-12.795-10.998c-7.639-5.218-7.639-5.218-13.508,1.568c-2.791,3.228-16.644,16.753-20.199,17.737
				c-3.555,0.986-21.741,17.99-21.031,21.369c0.711,3.379,26.303-2.497,35.543,0.883l46.919,0.973h6.755V262.705z"/>
			<g>
				<path fill="#C4A98E" d="M103.493,271.565c-3.281-0.14-7.75-0.283-11.454-0.243c-3.799-1.479-6.275-4.413-14.534-6.181
					c-13.76-2.953-19.891,3.999-19.891,3.999c-4.586,3.338-8.097,2.928-10.703-5.083c-0.539-1.661,0.401-8.879-8.514-4.636
					l-8.371,3.387l-0.944,34.1c0,0,87.442-0.691,117.708-0.43c2.297-5.823-3.25-25.65-3.553-27.338
					c-0.768-4.248-15.289,0.83-16.186,2.646C127.052,271.787,114.503,276.289,103.493,271.565z"/>
			</g>
			<path fill="#F7F7F7" d="M334.292,155.825c0,0-8.654-4.948-20.115,6.604c-11.455,11.548-17.521-2.706-23.586-3.828
				c-6.067-1.122-19.547,1.56-24.266,11.357c-4.718,9.796-22.916,13.087-30.328,11.853c-7.414-1.23-16.176,11.182,0,19.826
				c16.176,8.643,70.094-13.633,78.18-2.906c8.09,10.725,18.873,7.887,18.873,7.887l0.672-47.49"/>
			<path fill="#F7F7F7" d="M61.619,147.445c0,0,9.298-11.824,23.522-1.38c14.227,10.444,18.848-1.886,20.807-4.031
				c1.957-2.149,10.084-6.562,14.367,6.448c0,0,3.868,6.705,10.087,5.522c14.638-2.786,12.241,16.78-3.359,21.547
				c-22.548,6.89-21.915,5.364-41.151,4.66c-12.727-0.471-15.262-8.003-24.559-5.956c-27.225,5.992-29.545-17.38-7.836-20.557
				C53.497,153.699,51.781,157.518,61.619,147.445z"/>
			<path fill="#CFE2F4" d="M235.513,433.876c0,0,51.973,16.3,70.053,6.827c18.08-9.475,8.023-20.497,8.023-20.497h-59.132
				L235.513,433.876z"/>
			<path fill="#CFE2F4" d="M29.056,434.215c0,0,9.352,6.478,39.09,4.76c29.741-1.719,41.006,1.387,41.006,1.387
				s36.41-0.385,63.906-3.088c27.495-2.705,83.861,0.16,83.861,0.16s43.445,2.201,54.736-2.436c0,0,9.047-2.918,15.977,2.063
				c6.929,4.978,9.794-0.194,9.794-0.194l2.436-25.808l-315.172-5.182L29.056,434.215z"/>
			<g>
				<path fill="#252526" d="M269.704,358.164c0,0,1.333,19.403-5.731,25.05c0,0-6.345,3.937-8.3-7.251
					c-0.502-2.866-0.136-1.94-3.129-17.846c-2.992-15.903,8.344-14.159,8.344-14.159
					C269.704,345.84,269.704,358.164,269.704,358.164"/>
				<path fill="#040000" d="M266.482,350.796c0,0,1.87,1.229,1.19,7.458c0,0-7.049-7.031-13.148,3.496l-1.078-7.754
					c0,0-0.059-3.336,5.91-4.636C265.325,348.063,266.482,350.796,266.482,350.796z"/>
				<g>
					<path fill="#E9C0C0" d="M140.003,267.949c0,0-5.826,23.524-6.871,27.346c-1.041,3.82-1.041,22.233-1.041,22.233
						s9.205,2.259,12.682-6.429c0,0-5.213-7.279,1.908-18.229c0,0,8.686-18.92,6.949-24.922l-12.68-2.009L140.003,267.949z"/>
					<path fill="#EC7267" d="M147.13,291.864c0,0-1.491,13.258-0.449,16.292c0,0-3.451,7.694-1.335-13.005L147.13,291.864z"/>
					<path fill="#E9C0C0" d="M185.241,363.816l-3.908,49.242c0,0-0.521,7.297,0,9.901s0.839,19.28-0.23,26.315
						c-1.072,7.033,0,36.732,0,36.732s-1.594,13.033-4.199,17.457c0,0-1.301,2.606,0,4.691c0,0-1.041,5.212,1.825,5.473
						c0,0,4.497,1.303,8.503-1.043c0,0,0.355-2.346,1.396-6.253c1.043-3.91,2.607-3.648,2.345-9.122
						c-0.26-5.469-0.26-8.074,2.866-16.672c3.127-8.598,9.641-38.299,7.294-61.748c0,0,0.782-14.07,4.433-24.753
						c0,0,12.504-32.565,12.244-38.817L185.241,363.816z"/>
					<path fill="#E9C0C0" d="M153.859,357.045c0,0,6.37,30.221,8.454,35.951c0,0,1.303,3.909,0,18.24
						c-1.302,14.328-1.563,30.222,1.824,43.509c3.385,13.288,0.78,28.92,0,31.784c-0.781,2.867,0.262,3.389,1.693,5.734
						c1.434,2.346,0.654,7.816,0,9.119c-0.65,1.302,2.474,6.773,12.897,3.124c0,0-2.116-9.459,0-13.027
						c2.112-3.565,1.302-10.421,0-13.286c0,0-1.564-13.549-0.522-22.146c1.044-8.597,3.12-26.835,1.82-41.687
						c0,0-0.218-42.728,0.416-52.108L153.859,357.045z"/>
					<path fill="#1C3187" d="M211.121,287.998c0,0,4.69,14.764,7.123,18.932c2.432,4.17,10.768,47.939,9.38,51.07
						c0,0-9.034,3.645-11.465,5.381c-2.43,1.738-28.139,5.732-32.48,1.566v-15.635l-1.912,15.111c0,0-9.379,7.469-15.979,4.344
						c-6.602-3.126-18.934-9.377-19.107-11.81c0,0,5.906-37.692,11.639-49.68c0,0,3.646-13.721,3.299-18.583
						C161.618,288.695,205.114,292.781,211.121,287.998z"/>
					<path fill="#EC7267" d="M121.931,355.221c0,0-6.254,18.236,8.077,21.624c14.33,3.384,30.743,3.124,29.699-19.8
						c-1.04-22.93-3.647-37.258-3.647-37.258s-0.125-4.185,1.239-5.091c1.368-0.902,4.753-8.458-6.45-6.896
						c0,0-9.029,1.563-12.332-1.822c0,0-8.249-6.271-6.426,8.718c0,0,0,7.417-3.125,14.069
						C128.966,328.766,122.707,352.193,121.931,355.221z"/>
					<path fill="#252526" d="M241.04,348.354c0,0-9.941,1.655-6.817,14.685c3.127,13.021,10.685,26.831,16.675,20.318
						c5.992-6.513,2.605-19.803,2.605-19.803S250.46,343.576,241.04,348.354z"/>
					<path fill="#040000" d="M236.96,370.269c0,0,1.244-7.863,7.232-10.168c0,0,4.42-1.772,7.514,3.554l-2.223-7.699
						c0,0-9.557-5.748-13.971,7.156L236.96,370.269z"/>
					<path fill="#E9C0C0" d="M220.676,269.763c0,0-1.909,10.769-1.565,16.151c0.348,5.386,5.567,17.194,10.602,27.966
						c5.031,10.771,11.98,20.496,10.937,27.097c-1.041,6.6,0.956,11.028,1.13,12.333c0.176,1.3,0.609,4.168,0.868,5.296
						c0.263,1.13,2.261,1.13,2.606-0.518l-0.521-5.213c0,0,0.867,7.293,1.737,7.467c0.868,0.174,1.825,0.089,2.083-0.606
						l-0.434-6.86l1.39,7.545c0,0,0.608,0.963,2.085,0.704c1.476-0.261,1.301-1.389,1.301-1.389l-0.348-7.208
						c0,0,0.09-0.693,0.783-0.693s0.781,0.432,0.781,0.432l2.087,5.387c0,0,0.692,1.477,2.603,0.865
						c1.738-1.042,0.607-2.17,0.607-2.17l-2.168-4.951c0,0-0.871-2.258,0.172-2.258c1.042,0,1.217,0.871,1.738,1.393
						c0.52,0.519,1.215,2.516,2.518,0.519c1.303-1.996-1.041-4.688-1.041-4.688l-6.428-8.078c0,0-5.471-9.381-6.167-12.68
						c-0.694-3.299-8.595-31.694-8.595-31.694s-7.355-23.576-6.256-25.682L220.676,269.763z"/>
					<path fill="#040000" d="M138.517,266.461c0,0,0.35,2.779,9.381,2.779h5.038c0,0,2.083,0.52,2.433-2.431
						c0,0,0.219-6.774,1.931-6.602c1.714,0.173,1.888,25.013,1.021,27.097c-0.871,2.085,13.027,6.426,27.094,6.6
						c14.071,0.174,30.92-4.168,31.963-6.079c1.042-1.911-5.039-26.751-1.91-27.617c3.124-0.868,4.34,10.941,4.34,10.941
						s0,1.044,3.998,0.871c3.992-0.173,10.419-1.043,10.419-1.043s0.175-10.073,0-17.718c-0.171-7.642,2.934-24.142,0.077-29.18
						c-2.855-5.039-7.719-9.031-18.662-11.117l-28.139-1.389l-15.979-0.867h-9.727c0,0-7.121-0.348-13.376,9.376
						C148.417,220.083,141.558,231.375,138.517,266.461z"/>
					<path fill="#EC7267" d="M153.859,213.83c0,0,9.236,56.975-4.833,92.929v3.126h2.345c0,0,3.479-13.279,5.464-23.709
						c1.986-10.428,2.205-34.771,1.57-44.553c-0.635-9.778-1.563-26.674-2.865-28.709
						C155.54,212.914,153.665,212.473,153.859,213.83z"/>
					<path fill="#F6F0F0" d="M176.303,258.471c-3.087-0.955-2.843-4.4-2.843-4.4c0.492-4.713,0.344-7.307,0.344-8.608
						c0-1.304-0.322-6.44-2.027-3.702c-3.264,5.245,2.396,14.359-2.455,12.228c-0.572-0.252-4.541-2.561-4.314-5.417
						c0.242-3.064-3.91-8.596-3.91-8.596c-1.215-1.651-7.121-11.207-1.215-24.404c5.906-13.201,8.686-39.951,8.686-39.951
						c7.295-31.611,27.096-23.275,27.096-23.275c12.012-0.219,17.89,26.575,19.106,30.052c1.214,3.476,12.766,38.817,14.331,44.465
						c1.563,5.644-0.641,13.214-1.823,14.414c-2.392,2.421-3.567-6.397-3.567-6.397s-2.793-14.109-5.292-7.643
						c-2.499,6.469,5.88,12.053-1.177,22.049c-7.056,9.997-5.144,11.172-8.967,13.229c-3.822,2.06-3.822-1.469-3.674-7.643
						c0.146-6.173-5.586,2.5-6.322,3.676c-0.733,1.176-3.158,5.78-7.568,7.396c0,0-4.338,2.287-6.102-1.076
						C184.608,264.864,180.063,259.633,176.303,258.471z"/>
				</g>
			</g>
		</g>
	</g>
	<g>
		<g>
			<path fill="#333334" d="M116.743,37.908c0,0.166-0.037,0.397-0.111,0.693s-0.169,0.612-0.285,0.95
				c-0.115,0.337-0.242,0.664-0.381,0.98c-0.139,0.317-0.273,0.579-0.402,0.787c-0.314,0.498-0.748,1.022-1.298,1.573
				s-1.2,1.111-1.95,1.682c-0.693,0.53-1.41,1.042-2.15,1.535s-1.471,0.942-2.192,1.347c-0.87,0.499-1.77,0.969-2.699,1.41
				s-1.843,0.823-2.741,1.145v0.748c0,0.135,0.008,0.353,0.021,0.654c0.014,0.301,0.032,0.648,0.055,1.043
				c0.023,0.395,0.047,0.815,0.07,1.262s0.046,0.883,0.069,1.309c0.022,0.426,0.042,0.82,0.056,1.184s0.021,0.66,0.021,0.888
				c0,0.53-0.15,0.942-0.451,1.238s-0.7,0.444-1.2,0.444c-1.332,0-1.998-2.528-1.998-7.586c0-0.446,0.012-0.897,0.034-1.354
				c0.023-0.457,0.06-0.948,0.111-1.473c0.051-0.523,0.113-1.087,0.187-1.689c0.074-0.603,0.162-1.277,0.264-2.025
				c0.084-0.623,0.17-1.22,0.258-1.791s0.188-1.129,0.298-1.675c0.111-0.545,0.243-1.082,0.396-1.611
				c0.152-0.53,0.336-1.064,0.549-1.604c-0.297,0.093-0.6,0.2-0.91,0.319c-0.31,0.119-0.636,0.241-0.978,0.365
				c-0.103,0.053-0.204,0.094-0.306,0.125s-0.213,0.047-0.333,0.047c-0.352,0-0.641-0.109-0.867-0.327s-0.34-0.504-0.34-0.856
				c0-0.426,0.079-0.797,0.235-1.114c0.158-0.316,0.41-0.6,0.757-0.849s0.791-0.47,1.332-0.662c0.542-0.191,1.2-0.376,1.978-0.553
				c0.443-0.104,0.925-0.205,1.443-0.304c0.518-0.099,1.041-0.187,1.568-0.265s1.041-0.143,1.54-0.195
				c0.499-0.052,0.952-0.077,1.36-0.077c0.49,0,0.964,0.005,1.422,0.016c0.458,0.01,0.909,0.036,1.354,0.077
				c0.443,0.042,0.885,0.1,1.324,0.172s0.887,0.171,1.34,0.296c1.018,0.28,1.832,0.695,2.442,1.246
				C116.372,36.075,116.743,36.901,116.743,37.908z M108.819,36.693c-0.731,0-1.529,0.049-2.395,0.147
				c-0.865,0.1-1.719,0.227-2.561,0.382c0.278,0.312,0.417,0.732,0.417,1.262c0,0.063-0.034,0.226-0.104,0.49
				c-0.068,0.266-0.146,0.554-0.229,0.865c-0.084,0.312-0.164,0.603-0.242,0.872c-0.08,0.271-0.133,0.436-0.16,0.498
				c-0.047,0.136-0.09,0.304-0.132,0.507c-0.042,0.202-0.083,0.423-0.125,0.662c-0.042,0.238-0.081,0.485-0.118,0.739
				c-0.037,0.255-0.074,0.501-0.111,0.74c-0.055,0.322-0.1,0.604-0.131,0.849c-0.033,0.244-0.059,0.462-0.076,0.654
				c-0.02,0.192-0.035,0.377-0.049,0.553c-0.014,0.177-0.025,0.358-0.035,0.545c0.305-0.145,0.652-0.309,1.041-0.49
				s0.783-0.368,1.187-0.561c0.402-0.192,0.796-0.384,1.179-0.576c0.385-0.192,0.725-0.366,1.021-0.522
				c0.157-0.093,0.335-0.197,0.534-0.312s0.402-0.233,0.611-0.358c0.207-0.124,0.418-0.251,0.631-0.381s0.406-0.257,0.583-0.382
				c0.444-0.301,0.903-0.656,1.38-1.067c0.477-0.41,0.914-0.849,1.313-1.315c0.396-0.468,0.723-0.942,0.979-1.426
				c0.254-0.482,0.381-0.937,0.381-1.362c0-0.219-0.236-0.395-0.707-0.53c-0.694-0.207-1.404-0.34-2.131-0.396
				C110.042,36.722,109.393,36.693,108.819,36.693z"/>
			<path fill="#333334" d="M132.854,44.435c0,0.094-0.02,0.218-0.057,0.374c-0.036,0.155-0.092,0.312-0.166,0.467
				c-0.074,0.156-0.168,0.291-0.284,0.405s-0.257,0.177-0.423,0.187c-0.037,0-0.116-0.002-0.236-0.008
				c-0.121-0.005-0.25-0.013-0.389-0.023c-0.139-0.01-0.269-0.018-0.389-0.022c-0.12-0.006-0.208-0.008-0.264-0.008
				c-1.545,0.093-2.882,0.716-4.01,1.869c-0.26,0.259-0.525,0.565-0.799,0.919c-0.272,0.353-0.541,0.739-0.805,1.16
				s-0.516,0.87-0.756,1.348s-0.458,0.976-0.652,1.495c-0.158,0.426-0.311,0.864-0.458,1.316c-0.147,0.451-0.277,0.927-0.389,1.425
				c-0.065,0.271-0.113,0.506-0.146,0.709c-0.033,0.202-0.086,0.438-0.16,0.708c-0.046,0.166-0.125,0.31-0.235,0.429
				c-0.111,0.119-0.241,0.218-0.389,0.296s-0.304,0.138-0.465,0.18c-0.162,0.041-0.321,0.067-0.479,0.077
				c-0.593,0-0.999-0.301-1.222-0.903c-0.222-0.602-0.333-1.5-0.333-2.694c0-0.271,0.003-0.524,0.007-0.764
				c0.005-0.238,0.014-0.479,0.028-0.724c0.014-0.244,0.03-0.499,0.048-0.764c0.02-0.265,0.042-0.563,0.07-0.896
				c0.037-0.488,0.088-1.067,0.152-1.737c0.064-0.669,0.134-1.35,0.208-2.04c0.073-0.69,0.155-1.357,0.243-2.002
				c0.088-0.644,0.178-1.188,0.271-1.635c0.11-0.551,0.298-0.981,0.562-1.293s0.65-0.468,1.159-0.468
				c0.147,0,0.298,0.045,0.45,0.133c0.153,0.088,0.289,0.194,0.41,0.319c0.12,0.124,0.222,0.26,0.305,0.405
				c0.084,0.146,0.13,0.274,0.139,0.389l0.015,0.28c0,0.291-0.023,0.634-0.069,1.028c-0.047,0.395-0.109,0.813-0.188,1.254
				s-0.162,0.888-0.25,1.34c-0.088,0.451-0.176,0.883-0.264,1.293s-0.166,0.789-0.236,1.137c-0.068,0.348-0.122,0.636-0.159,0.864
				c0.323-0.769,0.671-1.508,1.041-2.22c0.37-0.711,0.768-1.37,1.193-1.978c0.425-0.607,0.884-1.15,1.374-1.628
				s1.018-0.862,1.582-1.152c0.443-0.229,0.851-0.402,1.221-0.522c0.37-0.119,0.703-0.179,1-0.179c0.351,0,0.714,0.042,1.089,0.124
				c0.374,0.084,0.717,0.206,1.026,0.366c0.311,0.161,0.566,0.356,0.771,0.584C132.752,43.884,132.854,44.144,132.854,44.435z"/>
			<path fill="#333334" d="M152.92,43.298c0,0.197-0.058,0.407-0.173,0.631c-0.116,0.223-0.264,0.446-0.444,0.669
				c-0.181,0.224-0.387,0.444-0.618,0.662c-0.23,0.219-0.463,0.418-0.693,0.6c-0.231,0.183-0.451,0.341-0.659,0.476
				s-0.382,0.239-0.521,0.312c-0.25,0.114-0.571,0.221-0.965,0.319c-0.393,0.099-0.805,0.182-1.234,0.249s-0.847,0.122-1.249,0.163
				c-0.402,0.042-0.743,0.063-1.021,0.063c-0.064,0-0.154-0.008-0.27-0.023c-0.116-0.016-0.241-0.039-0.375-0.069
				c-0.135-0.031-0.269-0.07-0.402-0.117c-0.135-0.047-0.248-0.106-0.34-0.179c0.102,0.238,0.159,0.501,0.173,0.786
				c0.015,0.286,0.021,0.568,0.021,0.849c0,0.197-0.018,0.432-0.055,0.701c-0.037,0.271-0.086,0.545-0.146,0.825
				s-0.131,0.551-0.215,0.811c-0.083,0.26-0.172,0.478-0.264,0.654c-0.231,0.446-0.479,0.856-0.742,1.23s-0.558,0.722-0.881,1.043
				c-0.324,0.322-0.689,0.623-1.097,0.903c-0.407,0.281-0.879,0.556-1.415,0.826c-0.574,0.28-1.147,0.475-1.721,0.584
				c-0.574,0.109-1.166,0.163-1.777,0.163c-0.453,0-0.855-0.132-1.207-0.396s-0.647-0.621-0.888-1.067
				c-0.241-0.446-0.423-0.96-0.548-1.542c-0.125-0.581-0.188-1.188-0.188-1.822c0-0.156,0.012-0.351,0.035-0.584
				c0.022-0.233,0.055-0.47,0.097-0.709c0.042-0.238,0.087-0.473,0.139-0.701c0.051-0.228,0.099-0.42,0.146-0.576
				c0.129-0.436,0.316-0.935,0.563-1.495c0.244-0.561,0.533-1.135,0.867-1.721c0.333-0.587,0.703-1.163,1.109-1.729
				c0.408-0.565,0.84-1.069,1.298-1.511s0.935-0.797,1.43-1.067c0.495-0.27,0.992-0.404,1.491-0.404
				c0.213,0,0.385,0.023,0.514,0.069c0.129,0.047,0.236,0.109,0.319,0.188s0.159,0.166,0.229,0.265
				c0.068,0.099,0.145,0.194,0.229,0.288c0.064-0.021,0.132-0.036,0.201-0.047c0.069-0.01,0.141-0.016,0.215-0.016
				c0.287,0,0.569,0.125,0.847,0.374s0.56,0.524,0.847,0.825c0.129,0.136,0.262,0.273,0.396,0.413
				c0.134,0.141,0.257,0.265,0.368,0.374c0.11,0.109,0.209,0.197,0.298,0.265c0.088,0.067,0.15,0.102,0.187,0.102
				c0.241,0,0.502-0.003,0.785-0.008c0.281-0.006,0.568-0.016,0.859-0.031c0.292-0.016,0.574-0.039,0.848-0.07
				c0.271-0.031,0.52-0.067,0.742-0.109c0.027-0.01,0.147-0.044,0.36-0.101c0.213-0.058,0.47-0.13,0.771-0.219
				c0.301-0.088,0.627-0.184,0.979-0.288c0.352-0.104,0.678-0.199,0.979-0.288c0.3-0.088,0.559-0.16,0.776-0.218
				c0.218-0.057,0.345-0.086,0.382-0.086c0.186,0,0.333,0.026,0.443,0.078C152.864,42.913,152.92,43.059,152.92,43.298z
				 M136.906,53.687c0.749,0,1.413-0.223,1.991-0.67c0.578-0.446,1.066-1.041,1.464-1.783s0.706-1.589,0.923-2.539
				s0.33-1.929,0.34-2.936c-0.064-0.156-0.159-0.317-0.284-0.483s-0.267-0.313-0.423-0.443c-0.158-0.13-0.32-0.236-0.486-0.319
				s-0.318-0.125-0.458-0.125c-0.222,0-0.462,0.099-0.722,0.296c-0.259,0.197-0.5,0.4-0.721,0.607
				c-0.223,0.208-0.442,0.48-0.66,0.818c-0.217,0.337-0.418,0.714-0.604,1.129s-0.355,0.854-0.514,1.316
				c-0.156,0.462-0.291,0.919-0.402,1.37c-0.111,0.452-0.196,0.891-0.256,1.316c-0.061,0.426-0.091,0.805-0.091,1.137
				c0,0.167,0.022,0.327,0.069,0.483c0.047,0.155,0.109,0.296,0.188,0.421c0.078,0.124,0.174,0.223,0.285,0.296
				C136.656,53.65,136.776,53.687,136.906,53.687z"/>
			<path fill="#333334" d="M155.32,43.063c0,0.562-0.058,1.221-0.173,1.979c-0.116,0.758-0.221,1.646-0.313,2.663
				c-0.01,0.125-0.023,0.356-0.042,0.693c-0.019,0.338-0.034,0.729-0.048,1.176c-0.014,0.447-0.028,0.922-0.042,1.426
				c-0.015,0.504-0.021,0.983-0.021,1.44c0,0.779-0.008,1.509-0.021,2.188c-0.014,0.681-0.044,1.324-0.09,1.932
				c-0.047,0.607-0.111,1.191-0.194,1.752c-0.083,0.562-0.19,1.116-0.319,1.667c-0.139,0.581-0.345,1.137-0.617,1.667
				c-0.273,0.529-0.6,0.994-0.979,1.394s-0.805,0.719-1.277,0.958c-0.471,0.239-0.98,0.358-1.525,0.358
				c-0.584,0-1.147-0.141-1.693-0.421s-1.029-0.623-1.45-1.027c-0.421-0.405-0.759-0.831-1.013-1.277
				c-0.255-0.447-0.382-0.836-0.382-1.168c0-0.136,0.03-0.266,0.09-0.39c0.061-0.125,0.13-0.236,0.208-0.335
				c0.079-0.099,0.16-0.177,0.243-0.233c0.083-0.058,0.153-0.086,0.208-0.086c0.121,0,0.229,0.028,0.326,0.086
				c0.098,0.057,0.197,0.132,0.299,0.226s0.217,0.207,0.347,0.343c0.13,0.135,0.296,0.28,0.499,0.436
				c0.241,0.229,0.525,0.423,0.854,0.584s0.646,0.242,0.951,0.242c0.157,0,0.326-0.05,0.506-0.148
				c0.181-0.099,0.35-0.231,0.507-0.397s0.301-0.357,0.431-0.576c0.129-0.218,0.222-0.451,0.277-0.7
				c0.176-0.728,0.318-1.571,0.43-2.531c0.111-0.961,0.167-1.939,0.167-2.937c0-0.27,0.005-0.686,0.014-1.246
				s0.021-1.196,0.034-1.908c0.015-0.711,0.033-1.459,0.057-2.243c0.022-0.783,0.048-1.523,0.076-2.219
				c0.027-0.696,0.057-1.313,0.09-1.854c0.032-0.539,0.063-0.919,0.09-1.137c0.102-0.644,0.338-1.126,0.708-1.448
				s0.833-0.483,1.388-0.483c0.194,0,0.377,0.042,0.549,0.125c0.17,0.083,0.318,0.197,0.443,0.343s0.225,0.312,0.299,0.498
				C155.284,42.659,155.32,42.856,155.32,43.063z M156.208,34.107c0.028,0.156,0.043,0.307,0.043,0.452
				c0,0.177-0.021,0.332-0.063,0.467c-0.043,0.135-0.104,0.271-0.188,0.405c-0.084,0.135-0.19,0.272-0.32,0.413
				c-0.129,0.14-0.277,0.304-0.443,0.49c-0.121,0.125-0.225,0.231-0.313,0.319s-0.171,0.155-0.25,0.202
				c-0.078,0.047-0.162,0.081-0.25,0.102s-0.191,0.031-0.312,0.031c-0.277,0-0.53-0.07-0.757-0.21
				c-0.227-0.141-0.423-0.312-0.59-0.515c-0.166-0.202-0.295-0.426-0.389-0.67c-0.092-0.243-0.139-0.464-0.139-0.662
				c0-0.218,0.031-0.44,0.091-0.669s0.15-0.438,0.271-0.631s0.268-0.358,0.444-0.499c0.175-0.14,0.379-0.236,0.61-0.288
				c0.407,0.021,0.786,0.078,1.138,0.172c0.296,0.072,0.583,0.194,0.86,0.365C155.931,33.555,156.116,33.796,156.208,34.107z"/>
			<path fill="#333334" d="M176.399,46.117c0,0.187-0.125,0.529-0.375,1.027c-0.48,0.779-1.015,1.55-1.602,2.313
				c-0.588,0.763-1.215,1.487-1.881,2.173s-1.359,1.321-2.082,1.908c-0.721,0.587-1.452,1.093-2.191,1.519
				c-0.74,0.426-1.479,0.761-2.214,1.005s-1.455,0.365-2.158,0.365c-1.582,0-2.814-0.5-3.698-1.503
				c-0.883-1.002-1.325-2.516-1.325-4.54c0-0.811,0.051-1.606,0.153-2.391c0.102-0.784,0.27-1.558,0.506-2.321
				s0.543-1.514,0.923-2.251s0.847-1.453,1.401-2.149c0.203-0.26,0.441-0.509,0.715-0.748c0.273-0.238,0.564-0.451,0.875-0.638
				c0.309-0.188,0.633-0.338,0.971-0.452s0.673-0.171,1.006-0.171c0.49,0,0.914,0.104,1.27,0.312
				c0.356,0.207,0.65,0.485,0.882,0.833s0.402,0.747,0.513,1.199c0.111,0.452,0.167,0.927,0.167,1.425
				c0,0.925-0.306,1.883-0.915,2.874c-0.611,0.992-1.458,2.007-2.54,3.045c-0.353,0.333-0.759,0.693-1.222,1.083
				s-0.98,0.828-1.554,1.316c0.019,0.26,0.085,0.504,0.201,0.731c0.115,0.229,0.272,0.429,0.472,0.6
				c0.199,0.172,0.438,0.307,0.715,0.405s0.592,0.148,0.943,0.148c0.453,0,0.935-0.065,1.443-0.195s1.014-0.304,1.513-0.521
				s0.985-0.47,1.457-0.756c0.472-0.285,0.901-0.584,1.29-0.896c0.686-0.55,1.344-1.145,1.979-1.783
				c0.633-0.639,1.246-1.29,1.838-1.955l0.736-0.825c0.508-0.509,0.943-0.764,1.304-0.764c0.185,0,0.313,0.07,0.382,0.211
				C176.365,45.891,176.399,46.013,176.399,46.117z M165.575,43.251c0-0.229-0.02-0.446-0.063-0.654
				c-0.041-0.208-0.108-0.338-0.201-0.39c-0.314,0-0.649,0.15-1.006,0.452c-0.355,0.301-0.695,0.729-1.02,1.285
				c-0.324,0.555-0.613,1.225-0.867,2.009c-0.255,0.784-0.441,1.654-0.563,2.609c0.436-0.363,0.872-0.745,1.312-1.146
				c0.439-0.399,0.837-0.817,1.193-1.254c0.356-0.436,0.647-0.896,0.874-1.378C165.462,44.302,165.575,43.791,165.575,43.251z"/>
			<path fill="#333334" d="M191.637,46.147c0,0.208-0.025,0.388-0.076,0.538s-0.13,0.301-0.235,0.451
				c-0.107,0.151-0.244,0.314-0.41,0.491s-0.37,0.399-0.61,0.67l-1.222,1.37c-0.259,0.291-0.485,0.535-0.68,0.732
				s-0.381,0.382-0.563,0.553c-0.18,0.171-0.367,0.348-0.562,0.529s-0.431,0.403-0.708,0.662c-0.602,0.571-1.193,1.106-1.775,1.604
				c-0.584,0.498-1.152,0.945-1.707,1.34c-0.833,0.592-1.726,1.049-2.679,1.37c-0.952,0.322-1.962,0.483-3.024,0.483
				c-0.694,0-1.31-0.143-1.846-0.429c-0.537-0.285-0.99-0.67-1.36-1.152c-0.37-0.483-0.649-1.049-0.84-1.698
				c-0.189-0.648-0.284-1.331-0.284-2.048c0-1.36,0.254-2.729,0.764-4.104c0.508-1.376,1.207-2.729,2.095-4.058
				c0.222-0.332,0.483-0.68,0.784-1.044c0.301-0.363,0.617-0.692,0.951-0.988c0.332-0.296,0.675-0.54,1.026-0.732
				s0.694-0.288,1.026-0.288c0.223,0,0.438,0.07,0.646,0.21c0.207,0.141,0.41,0.33,0.609,0.568c0.199,0.239,0.387,0.517,0.563,0.834
				c0.176,0.316,0.338,0.656,0.486,1.02c0.295,0.728,0.443,1.257,0.443,1.589c0,0.177-0.016,0.393-0.049,0.646
				c-0.032,0.255-0.092,0.496-0.18,0.725s-0.207,0.423-0.354,0.584s-0.337,0.241-0.569,0.241c-0.342,0-0.624-0.122-0.846-0.366
				c-0.223-0.243-0.407-0.526-0.555-0.849c-0.148-0.321-0.267-0.639-0.354-0.95s-0.169-0.534-0.243-0.67
				c-0.222,0.094-0.455,0.275-0.7,0.546c-0.245,0.27-0.488,0.602-0.729,0.996c-0.241,0.396-0.468,0.839-0.681,1.332
				s-0.4,1.018-0.562,1.573c-0.162,0.556-0.292,1.124-0.389,1.706c-0.097,0.581-0.146,1.157-0.146,1.729
				c0,0.529,0.171,0.992,0.514,1.387c0.389,0.436,0.749,0.654,1.082,0.654c1.055,0,2.07-0.219,3.046-0.654
				c0.976-0.437,1.917-1.018,2.824-1.745c0.61-0.487,1.249-1.035,1.915-1.643c0.666-0.608,1.396-1.337,2.192-2.188
				c0.286-0.312,0.575-0.61,0.867-0.896c0.292-0.285,0.578-0.537,0.86-0.755s0.551-0.395,0.805-0.529
				c0.255-0.136,0.493-0.203,0.715-0.203C191.396,45.291,191.637,45.577,191.637,46.147z"/>
			<path fill="#333334" d="M201.462,42.705c0,0.26-0.068,0.476-0.201,0.646c-0.135,0.172-0.299,0.31-0.493,0.413
				c-0.194,0.104-0.402,0.18-0.624,0.226c-0.223,0.047-0.426,0.081-0.611,0.102c-0.693,0.052-1.387,0.122-2.081,0.21
				c-0.694,0.089-1.321,0.172-1.88,0.25c-0.561,0.077-1.021,0.146-1.381,0.202c-0.361,0.057-0.556,0.086-0.584,0.086
				c-0.064,0.28-0.145,0.633-0.242,1.059s-0.199,0.886-0.305,1.379c-0.107,0.493-0.211,0.997-0.313,1.511s-0.197,1.005-0.285,1.472
				c-0.088,0.468-0.157,0.891-0.208,1.27s-0.076,0.678-0.076,0.896c0,0.177,0.017,0.397,0.049,0.662s0.09,0.521,0.173,0.771
				c0.084,0.249,0.195,0.465,0.334,0.646s0.314,0.272,0.527,0.272c0.147,0,0.33-0.036,0.547-0.109
				c0.218-0.072,0.459-0.187,0.723-0.343c0.264-0.155,0.543-0.355,0.84-0.6c0.295-0.244,0.592-0.542,0.888-0.896
				c0.093-0.114,0.198-0.233,0.319-0.358c0.119-0.124,0.25-0.236,0.389-0.335s0.289-0.182,0.451-0.249
				c0.161-0.067,0.33-0.102,0.506-0.102c0.277,0,0.467,0.068,0.568,0.203s0.153,0.306,0.153,0.514c0,0.415-0.106,0.794-0.319,1.137
				s-0.48,0.728-0.805,1.153c-0.148,0.197-0.382,0.465-0.701,0.802c-0.318,0.338-0.698,0.67-1.138,0.997s-0.93,0.612-1.471,0.856
				c-0.542,0.244-1.112,0.366-1.714,0.366c-0.583,0-1.076-0.086-1.479-0.257c-0.402-0.172-0.734-0.395-0.998-0.67
				s-0.471-0.592-0.618-0.95s-0.257-0.725-0.326-1.098c-0.069-0.374-0.11-0.743-0.125-1.106c-0.014-0.363-0.021-0.69-0.021-0.981
				c0-0.312,0.029-0.672,0.09-1.082s0.132-0.844,0.215-1.301c0.084-0.457,0.179-0.927,0.285-1.41
				c0.105-0.482,0.201-0.944,0.284-1.386s0.155-0.849,0.216-1.223c0.06-0.374,0.09-0.69,0.09-0.95c0-0.063-0.008-0.119-0.021-0.172
				c-0.014-0.052-0.049-0.096-0.104-0.132c-0.056-0.036-0.144-0.063-0.264-0.078c-0.121-0.016-0.287-0.023-0.5-0.023
				c-0.24,0-0.497-0.008-0.77-0.023c-0.273-0.016-0.525-0.07-0.757-0.163c-0.231-0.094-0.423-0.241-0.575-0.444
				c-0.153-0.202-0.229-0.49-0.229-0.864c0-0.239,0.034-0.438,0.104-0.6c0.068-0.161,0.161-0.291,0.277-0.39
				c0.115-0.099,0.25-0.169,0.402-0.21c0.152-0.042,0.316-0.067,0.492-0.078l2.928-0.141c0.057-0.113,0.145-0.337,0.264-0.669
				c0.121-0.333,0.258-0.725,0.41-1.177c0.152-0.451,0.307-0.932,0.465-1.44c0.157-0.509,0.301-0.986,0.43-1.433
				c0.186-0.645,0.422-1.106,0.708-1.387s0.666-0.421,1.138-0.421c0.306,0,0.541,0.045,0.708,0.133s0.286,0.2,0.36,0.335
				s0.119,0.288,0.133,0.459c0.014,0.172,0.021,0.335,0.021,0.491c0,0.042-0.026,0.161-0.077,0.358s-0.117,0.438-0.201,0.724
				c-0.082,0.286-0.176,0.6-0.277,0.942s-0.205,0.688-0.313,1.036c-0.105,0.348-0.207,0.681-0.305,0.997s-0.178,0.589-0.242,0.817
				c0.11-0.01,0.293-0.031,0.547-0.063c0.255-0.03,0.549-0.064,0.882-0.101s0.683-0.072,1.048-0.109
				c0.365-0.036,0.707-0.072,1.027-0.109c0.318-0.036,0.596-0.064,0.832-0.085s0.391-0.031,0.465-0.031
				c0.5,0,0.904,0.028,1.215,0.086c0.309,0.057,0.547,0.143,0.714,0.257s0.278,0.254,0.333,0.42
				C201.434,42.28,201.462,42.478,201.462,42.705z"/>
			<path fill="#333334" d="M227.702,37.44c0,0.146-0.016,0.322-0.048,0.53s-0.081,0.423-0.146,0.646
				c-0.065,0.223-0.137,0.436-0.215,0.639c-0.079,0.202-0.17,0.365-0.271,0.49h0.014c-0.296,0.395-0.994,0.592-2.095,0.592
				c0-0.446-0.017-0.833-0.049-1.16s-0.085-0.59-0.159-0.787c-0.065-0.166-0.181-0.306-0.348-0.42
				c-0.166-0.114-0.354-0.208-0.562-0.28c-0.208-0.073-0.419-0.127-0.632-0.164c-0.213-0.036-0.397-0.055-0.555-0.055
				c-0.398,0-0.787,0.011-1.166,0.031c-0.379,0.021-0.752,0.063-1.117,0.125s-0.735,0.15-1.109,0.265
				c-0.375,0.114-0.757,0.26-1.146,0.437c-0.277,0.124-0.571,0.28-0.881,0.467s-0.599,0.397-0.867,0.631s-0.497,0.488-0.687,0.764
				c-0.19,0.274-0.309,0.568-0.354,0.88l0.014-0.031c0,0.249,0.074,0.527,0.222,0.833c0.148,0.307,0.35,0.607,0.604,0.903
				c0.255,0.296,0.549,0.566,0.882,0.811s0.685,0.423,1.055,0.537c0.028,0.011,0.106,0.042,0.235,0.094
				c0.13,0.052,0.287,0.111,0.473,0.179c0.185,0.067,0.381,0.143,0.59,0.226c0.208,0.084,0.402,0.159,0.582,0.227
				c0.181,0.067,0.334,0.124,0.459,0.171s0.195,0.075,0.215,0.086c2.146,0.612,3.737,1.35,4.773,2.212
				c1.036,0.861,1.555,1.921,1.555,3.177c0,0.405-0.079,0.808-0.236,1.208c-0.158,0.399-0.356,0.781-0.597,1.145
				c-0.241,0.363-0.502,0.698-0.784,1.005c-0.282,0.306-0.549,0.563-0.798,0.771l0.014-0.016c-0.269,0.239-0.571,0.483-0.909,0.732
				s-0.701,0.493-1.089,0.732c-0.389,0.238-0.791,0.462-1.208,0.669c-0.416,0.208-0.842,0.39-1.275,0.546
				c-0.408,0.145-0.836,0.282-1.284,0.412c-0.449,0.13-0.896,0.242-1.339,0.335c-0.444,0.094-0.873,0.166-1.284,0.219
				c-0.411,0.052-0.784,0.077-1.117,0.077c-0.176,0-0.391-0.023-0.646-0.069c-0.254-0.047-0.522-0.112-0.805-0.195
				s-0.564-0.182-0.846-0.296c-0.283-0.114-0.535-0.244-0.757-0.39s-0.402-0.301-0.541-0.467c-0.14-0.166-0.208-0.343-0.208-0.529
				c0-0.166,0.027-0.369,0.083-0.607c0.056-0.239,0.136-0.47,0.243-0.693c0.105-0.224,0.23-0.415,0.375-0.576
				c0.143-0.161,0.298-0.242,0.465-0.242c0.23,0,0.447,0.031,0.651,0.094s0.433,0.133,0.687,0.21
				c0.255,0.078,0.551,0.151,0.889,0.219s0.756,0.101,1.256,0.101s1.02-0.06,1.561-0.179c0.542-0.119,1.076-0.28,1.604-0.482
				c0.527-0.203,1.031-0.434,1.513-0.693s0.915-0.53,1.304-0.811c0.167-0.124,0.35-0.267,0.549-0.428s0.384-0.338,0.555-0.53
				c0.172-0.191,0.314-0.392,0.431-0.6c0.115-0.207,0.173-0.42,0.173-0.639c0-0.249-0.166-0.487-0.499-0.716v0.016
				c-0.491-0.333-0.977-0.587-1.457-0.764c-0.481-0.177-0.902-0.321-1.263-0.437c-1.018-0.29-2.258-0.752-3.719-1.386h0.014
				c-0.611-0.27-1.203-0.618-1.777-1.044c-0.573-0.426-1.068-0.872-1.484-1.339c-0.925-1.153-1.388-2.482-1.388-3.988
				c0-0.592,0.147-1.168,0.444-1.729c0.296-0.561,0.698-1.088,1.207-1.581s1.099-0.947,1.77-1.363
				c0.671-0.415,1.385-0.771,2.145-1.066c0.758-0.296,1.533-0.527,2.324-0.693s1.557-0.249,2.297-0.249
				c0.23,0,0.52,0.019,0.867,0.055c0.347,0.036,0.703,0.088,1.068,0.155s0.715,0.15,1.047,0.249c0.334,0.1,0.598,0.211,0.791,0.335
				h-0.014c0.537,0.322,0.96,0.707,1.27,1.153C227.548,36.579,227.702,37.016,227.702,37.44z"/>
			<path fill="#333334" d="M245.825,46.911c0,0.239-0.08,0.543-0.242,0.911c-0.162,0.369-0.384,0.779-0.666,1.23
				c-0.282,0.452-0.617,0.935-1.006,1.448c-0.389,0.515-0.811,1.042-1.264,1.581c-0.49,0.593-1.021,1.174-1.596,1.745
				c-0.573,0.571-1.184,1.121-1.832,1.65c-0.638,0.52-1.268,0.922-1.887,1.208c-0.619,0.285-1.207,0.428-1.762,0.428
				c-0.648,0-1.21-0.122-1.687-0.366c-0.477-0.243-0.884-0.576-1.222-0.996c-0.338-0.421-0.612-0.903-0.825-1.449
				c-0.213-0.545-0.382-1.121-0.507-1.729s-0.211-1.223-0.256-1.846c-0.047-0.623-0.07-1.215-0.07-1.776
				c0-0.218,0.014-0.545,0.042-0.98c0.028-0.437,0.067-0.896,0.118-1.379s0.105-0.95,0.166-1.401
				c0.061-0.452,0.123-0.808,0.188-1.067c0.139-0.509,0.458-0.991,0.957-1.448c0.481-0.437,1.018-0.654,1.61-0.654
				c0.601,0,0.901,0.404,0.901,1.215c0,0.384-0.029,0.792-0.09,1.223s-0.127,0.854-0.201,1.27c-0.12,0.758-0.203,1.44-0.25,2.048
				c-0.046,0.607-0.068,1.146-0.068,1.612c0,0.529,0.027,1.044,0.082,1.542c0.057,0.498,0.137,0.942,0.244,1.332
				c0.105,0.39,0.24,0.703,0.402,0.942c0.161,0.239,0.354,0.358,0.575,0.358c0.278,0,0.564-0.029,0.86-0.086
				c0.297-0.057,0.652-0.21,1.068-0.46c0.796-0.487,1.643-1.146,2.54-1.978c0.313-0.291,0.673-0.636,1.075-1.036
				c0.402-0.399,0.803-0.81,1.2-1.23s0.772-0.833,1.124-1.238s0.629-0.753,0.833-1.044c0.028-0.052,0.067-0.116,0.118-0.194
				s0.108-0.158,0.173-0.241c0.065-0.083,0.137-0.153,0.216-0.211c0.078-0.057,0.154-0.085,0.229-0.085
				c0.148,0,0.257,0.023,0.326,0.069c0.069,0.047,0.146,0.19,0.229,0.429C245.774,46.517,245.825,46.734,245.825,46.911z
				 M237.194,34.092c0,0.343-0.047,0.668-0.139,0.974c-0.093,0.307-0.227,0.595-0.402,0.864c-0.352,0.551-0.893,0.826-1.623,0.826
				c-0.26,0-0.523-0.026-0.791-0.078c-0.27-0.052-0.51-0.125-0.723-0.218c-0.213-0.094-0.389-0.213-0.527-0.358
				s-0.207-0.312-0.207-0.499c0-0.321,0.073-0.662,0.221-1.02c0.148-0.358,0.341-0.69,0.576-0.997
				c0.236-0.307,0.495-0.561,0.777-0.764c0.282-0.202,0.553-0.304,0.813-0.304c0.323,0,0.609,0.023,0.859,0.07
				s0.461,0.127,0.632,0.241s0.303,0.275,0.396,0.483C237.147,33.521,237.194,33.78,237.194,34.092z"/>
			<path fill="#333334" d="M243.98,52.207c0-0.478,0.025-0.958,0.076-1.44c0.051-0.483,0.116-0.961,0.194-1.434
				s0.164-0.932,0.257-1.378s0.175-0.873,0.249-1.277c0.103-0.54,0.195-1.022,0.278-1.449c0.083-0.425,0.134-0.819,0.152-1.184
				c-0.139,0.031-0.294,0.061-0.465,0.086c-0.171,0.026-0.345,0.052-0.521,0.078c-0.176,0.025-0.347,0.044-0.514,0.054
				c-0.166,0.011-0.305,0.016-0.416,0.016c-0.287,0-0.534-0.022-0.742-0.069s-0.382-0.135-0.521-0.265s-0.241-0.312-0.306-0.546
				c-0.064-0.233-0.097-0.532-0.097-0.896c0-0.229,0.048-0.421,0.146-0.576c0.098-0.156,0.227-0.28,0.389-0.374
				s0.342-0.158,0.541-0.194s0.396-0.055,0.59-0.055c0.074,0,0.217-0.013,0.43-0.039c0.213-0.025,0.439-0.055,0.681-0.086
				c0.24-0.031,0.477-0.062,0.708-0.093c0.23-0.031,0.402-0.052,0.514-0.063c0.073,0,0.145-0.063,0.215-0.187
				c0.069-0.125,0.134-0.273,0.193-0.444c0.061-0.172,0.113-0.348,0.16-0.529s0.078-0.335,0.098-0.46
				c0.046-0.28,0.113-0.623,0.201-1.028c0.088-0.404,0.185-0.819,0.291-1.246c0.106-0.425,0.217-0.833,0.333-1.223
				c0.116-0.389,0.229-0.698,0.34-0.927c0.147-0.321,0.31-0.565,0.485-0.731s0.439-0.25,0.791-0.25c0.49,0,0.85,0.131,1.076,0.39
				c0.227,0.26,0.34,0.66,0.34,1.199c0,0.25-0.049,0.571-0.146,0.966c-0.096,0.395-0.205,0.818-0.325,1.27
				c-0.12,0.452-0.233,0.909-0.341,1.371c-0.105,0.462-0.164,0.875-0.173,1.238c0.185,0,0.453-0.021,0.805-0.063
				c0.352-0.041,0.722-0.091,1.11-0.148c0.389-0.057,0.761-0.116,1.117-0.179c0.355-0.063,0.627-0.114,0.812-0.155
				c0.389-0.094,0.687-0.164,0.896-0.211c0.208-0.047,0.397-0.091,0.568-0.132c0.172-0.042,0.356-0.091,0.556-0.148
				c0.198-0.057,0.479-0.143,0.839-0.257c0.139,0.125,0.25,0.224,0.334,0.296c0.083,0.073,0.145,0.133,0.188,0.179
				c0.041,0.047,0.068,0.092,0.082,0.133c0.015,0.042,0.021,0.088,0.021,0.141c0,0.404-0.166,0.776-0.5,1.113
				c-0.332,0.338-0.754,0.636-1.263,0.896s-1.062,0.48-1.658,0.662s-1.159,0.324-1.687,0.429c-0.389,0.072-0.737,0.135-1.047,0.187
				c-0.311,0.052-0.581,0.102-0.813,0.148c-0.23,0.046-0.42,0.099-0.568,0.155c-0.148,0.058-0.26,0.127-0.333,0.21
				c-0.12,0.468-0.257,1.026-0.409,1.675c-0.152,0.649-0.299,1.332-0.438,2.048c-0.139,0.717-0.254,1.441-0.347,2.173
				c-0.093,0.732-0.14,1.415-0.14,2.049c0,0.717,0.125,1.251,0.375,1.604c0.25,0.353,0.602,0.529,1.055,0.529
				c0.416,0,0.826-0.033,1.229-0.102c0.402-0.067,0.823-0.191,1.263-0.373s0.907-0.429,1.401-0.74
				c0.495-0.312,1.048-0.711,1.658-1.199c0.167-0.146,0.34-0.307,0.521-0.483c0.181-0.176,0.363-0.345,0.548-0.506
				c0.186-0.161,0.375-0.296,0.569-0.405c0.194-0.108,0.394-0.163,0.597-0.163c0.186,0,0.33,0.049,0.438,0.147
				c0.105,0.099,0.159,0.252,0.159,0.46c0,0.155-0.046,0.345-0.139,0.568s-0.222,0.459-0.389,0.709
				c-0.167,0.249-0.362,0.506-0.59,0.771c-0.227,0.265-0.479,0.517-0.756,0.756c-0.536,0.478-1.099,0.932-1.687,1.362
				c-0.588,0.432-1.184,0.808-1.79,1.13s-1.214,0.576-1.825,0.763c-0.609,0.188-1.216,0.28-1.817,0.28
				c-0.74,0-1.369-0.127-1.888-0.381c-0.518-0.255-0.941-0.595-1.27-1.021s-0.568-0.911-0.721-1.456
				C244.057,53.336,243.98,52.778,243.98,52.207z"/>
			<path fill="#333334" d="M269.625,49.17c0,0.384-0.134,0.82-0.402,1.309c-0.269,0.487-0.63,0.996-1.083,1.526
				c-0.499,0.571-1.047,1.104-1.644,1.597s-1.217,0.919-1.86,1.276c-0.643,0.358-1.297,0.639-1.963,0.842
				c-0.666,0.202-1.314,0.304-1.943,0.304c-0.776,0-1.469-0.138-2.074-0.413s-1.119-0.68-1.54-1.215s-0.743-1.202-0.965-2.002
				c-0.222-0.799-0.333-1.718-0.333-2.757c0-0.623,0.053-1.256,0.16-1.9c0.105-0.644,0.261-1.285,0.465-1.923
				c0.203-0.639,0.457-1.257,0.763-1.854c0.306-0.597,0.652-1.16,1.041-1.689c0.249-0.332,0.534-0.667,0.854-1.005
				c0.319-0.337,0.673-0.641,1.062-0.911c0.389-0.27,0.816-0.49,1.283-0.662c0.467-0.171,0.975-0.257,1.52-0.257
				c0.444,0,0.84,0.091,1.188,0.272c0.346,0.182,0.64,0.413,0.881,0.693c0.24,0.28,0.425,0.597,0.555,0.95
				c0.129,0.353,0.194,0.701,0.194,1.043c0,0.811-0.155,1.565-0.465,2.267s-0.743,1.371-1.298,2.01s-1.223,1.264-2.005,1.877
				c-0.782,0.612-1.645,1.241-2.588,1.885c-0.046,0.021-0.118,0.067-0.216,0.14c-0.097,0.073-0.145,0.12-0.145,0.141
				c0.008,0.208,0.055,0.431,0.139,0.67c0.082,0.238,0.212,0.462,0.389,0.67c0.175,0.207,0.399,0.381,0.672,0.521
				c0.273,0.14,0.6,0.21,0.979,0.21c0.583,0,1.17-0.091,1.763-0.272c0.592-0.182,1.175-0.444,1.749-0.786
				c0.572-0.343,1.133-0.759,1.679-1.246c0.546-0.488,1.063-1.039,1.554-1.651c0.186-0.239,0.368-0.41,0.549-0.514
				c0.18-0.104,0.349-0.156,0.506-0.156c0.158,0,0.294,0.073,0.41,0.218C269.567,48.521,269.625,48.785,269.625,49.17z
				 M262.896,43.204c0-0.166-0.028-0.304-0.084-0.413c-0.056-0.108-0.118-0.194-0.188-0.257s-0.139-0.106-0.208-0.133
				c-0.069-0.025-0.118-0.038-0.146-0.038c-0.416,0-0.801,0.179-1.152,0.537s-0.666,0.817-0.943,1.378
				c-0.277,0.562-0.521,1.179-0.729,1.854c-0.208,0.676-0.381,1.33-0.521,1.963c0.556-0.478,1.073-0.919,1.554-1.324
				c0.481-0.404,0.9-0.799,1.256-1.184c0.357-0.384,0.639-0.769,0.848-1.152C262.79,44.051,262.896,43.64,262.896,43.204z"/>
		</g>
	</g>
	<g>
		<path fill="#676868" d="M107.302,88.548v-0.515h10.741v0.515H107.302z M115.121,83.234h2.47v0.529h-9.85v-0.529h1.988v-5.869
			h-1.729v-0.543h9.342v0.543h-1.729v2.441C115.614,80.992,115.464,82.435,115.121,83.234z M110.306,77.365v5.869h4.239
			c0.384-0.856,0.493-2.256,0.493-3.385v-2.484H110.306z"/>
		<path fill="#676868" d="M124.368,83.949h-3.607V80.05h3.607v-2.785h-3.607v-0.514h4.184v3.827h-3.621v2.842h3.113
			c1.125,0,2.059-0.214,2.758-0.686V76.65h0.563v3.485h2.359v-3.557h0.576v9.026h-0.576v-4.928h-2.359v4.686h-0.563v-2.1
			C126.55,83.749,125.562,83.949,124.368,83.949z M130.939,89.205h-9.231v-3.528h0.576v2.985h8.655V89.205z"/>
		<path fill="#676868" d="M133.851,78.436h2.894V76.18h0.576v2.256h2.922v0.529h-2.922v3.113c0,2.999,1.577,4.87,3.032,5.627v0.557
			c-1.619-0.771-2.895-2.385-3.307-4.127c-0.397,1.757-1.77,3.413-3.333,4.127v-0.557c1.399-0.7,3.031-2.613,3.031-5.627v-3.113
			h-2.894V78.436z M143.329,76.579v5.499h2.058v0.528h-2.058v6.556h-0.576V76.579H143.329z"/>
		<path fill="#676868" d="M147.172,82.506c0-2.456,0.329-4.241,1.193-5.17c0.452-0.514,1.069-0.771,1.852-0.771
			c0.769,0,1.386,0.258,1.839,0.771c0.877,0.929,1.193,2.714,1.193,5.17c0,2.442-0.316,4.242-1.193,5.171
			c-0.453,0.5-1.07,0.742-1.839,0.742c-0.782,0-1.399-0.242-1.852-0.742C147.501,86.748,147.172,84.948,147.172,82.506z
			 M152.673,82.506c0-2.313-0.275-3.97-1.016-4.784c-0.356-0.386-0.85-0.628-1.44-0.628c-0.604,0-1.097,0.242-1.454,0.628
			c-0.74,0.814-1.015,2.471-1.015,4.784c0,2.314,0.274,3.957,1.015,4.785c0.357,0.399,0.851,0.614,1.454,0.614
			c0.591,0,1.084-0.215,1.44-0.614C152.397,86.463,152.673,84.82,152.673,82.506z M156.198,89.147V76.579h0.576v12.568H156.198z"/>
		<path fill="#676868" d="M159.986,88.548v-0.515h10.741v0.515H159.986z M160.687,77.365v-0.543h9.342v0.543h-4.404v1.499
			c0,2.542,2.291,4.113,4.527,4.556v0.558c-2.305-0.442-4.033-1.742-4.801-3.456c-0.755,1.728-2.594,3.014-4.815,3.456V83.42
			c2.153-0.414,4.526-1.999,4.526-4.556v-1.499H160.687z"/>
		<path fill="#676868" d="M177.521,80.264c0-1.242,0.384-2.256,1.083-2.87c0.521-0.472,1.235-0.743,2.071-0.743
			c0.851,0,1.578,0.271,2.086,0.743c0.699,0.614,1.083,1.628,1.083,2.87c0,1.243-0.384,2.242-1.083,2.871
			c-0.453,0.414-1.084,0.686-1.812,0.729v3.999h2.003c1.357,0,2.523-0.343,3.278-1V76.564h0.591v5.499h2.057v0.543h-2.057v6.556
			h-0.591v-1.757c-0.741,0.671-1.935,0.985-3.333,0.985h-5.721v-0.528h3.183v-3.999c-0.699-0.058-1.304-0.314-1.756-0.729
			C177.904,82.506,177.521,81.507,177.521,80.264z M178.11,80.264c0,1.043,0.287,1.9,0.85,2.429
			c0.439,0.414,1.029,0.643,1.715,0.643c0.713,0,1.289-0.229,1.729-0.643c0.563-0.528,0.864-1.386,0.864-2.429
			c0-1.042-0.302-1.913-0.864-2.441c-0.439-0.415-1.016-0.629-1.729-0.629c-0.686,0-1.275,0.214-1.715,0.629
			C178.397,78.351,178.11,79.222,178.11,80.264z"/>
		<path fill="#676868" d="M193.571,83.978c-0.329,1.942-1.715,3.556-3.484,4.313v-0.586c1.592-0.757,3.197-2.371,3.197-5.784v-5.17
			h0.576v5.17c0,3.413,1.618,4.941,3.195,5.784v0.586C195.327,87.477,193.929,85.92,193.571,83.978z M199.978,76.579v5.499h2.058
			v0.528h-2.058v6.556h-0.576V76.579H199.978z"/>
		<path fill="#676868" d="M204.521,81.678h4.459v-4.855h0.563v11.426h-5.584V76.822h0.563V81.678z M208.979,87.733v-5.513h-4.459
			v5.513H208.979z M212.847,89.147V76.579h0.576v12.568H212.847z"/>
		<path fill="#676868" d="M223.879,83.978c-0.329,1.942-1.715,3.556-3.484,4.313v-0.586c1.591-0.757,3.196-2.371,3.196-5.784v-5.17
			h0.576v5.17c0,3.413,1.619,4.941,3.195,5.784v0.586C225.635,87.477,224.235,85.92,223.879,83.978z M230.284,76.579v5.499h2.059
			v0.528h-2.059v6.556h-0.575V76.579H230.284z"/>
		<path fill="#676868" d="M234.128,82.506c0-2.456,0.33-4.241,1.193-5.17c0.453-0.514,1.07-0.771,1.853-0.771
			c0.769,0,1.386,0.258,1.838,0.771c0.878,0.929,1.193,2.714,1.193,5.17c0,2.442-0.315,4.242-1.193,5.171
			c-0.452,0.5-1.069,0.742-1.838,0.742c-0.782,0-1.399-0.242-1.853-0.742C234.458,86.748,234.128,84.948,234.128,82.506z
			 M239.629,82.506c0-2.313-0.274-3.97-1.015-4.784c-0.357-0.386-0.851-0.628-1.44-0.628c-0.604,0-1.098,0.242-1.454,0.628
			c-0.741,0.814-1.016,2.471-1.016,4.784c0,2.314,0.274,3.957,1.016,4.785c0.356,0.399,0.85,0.614,1.454,0.614
			c0.59,0,1.083-0.215,1.44-0.614C239.354,86.463,239.629,84.82,239.629,82.506z M243.154,89.147V76.579h0.576v12.568H243.154z"/>
		<path fill="#676868" d="M246.942,88.548v-0.515h10.741v0.515H246.942z M256.983,77.365h-8.779v3.142h8.615v0.543h-8.615v3.128
			h8.944v0.528h-9.507v-7.884h9.342V77.365z"/>
	</g>
</g>
</svg>
