<?xml version="1.0" encoding="utf-8"?>
<!-- Generator: Adobe Illustrator 16.0.0, SVG Export Plug-In . SVG Version: 6.00 Build 0)  -->
<!DOCTYPE svg PUBLIC "-//W3C//DTD SVG 1.1//EN" "http://www.w3.org/Graphics/SVG/1.1/DTD/svg11.dtd">
<svg version="1.1" id="Layer_1" xmlns="http://www.w3.org/2000/svg" xmlns:xlink="http://www.w3.org/1999/xlink" x="0px" y="0px"
	 width="297px" height="456px" viewBox="0 0 297 456" enable-background="new 0 0 297 456" xml:space="preserve">
<g>
	<path fill="#E9C0C0" d="M146.195,294.868l63.469,37.13c0,0,12.125-13.416,1.957-20.275c-0.584-0.395-59.344-48.336-59.344-48.336
		l-22.82,25.778C129.457,289.165,141.914,291.797,146.195,294.868z"/>
	<path fill="#E9C0C0" d="M105.209,217.347c0,0-6.12,3.932-9.433,0s-4.063-5.735-3.628-6.842c0.109-2.245,2.622-1.139,2.622-1.139
		s-0.469-2.031,0.112-2.272l0.25-1.842l11.254-29.753l7.322-7.816l14.412,13.107l-6.905,10.198
		C121.216,190.988,112.765,213.622,105.209,217.347l-1.949,0.963"/>
	<path fill="#E9C0C0" d="M156.494,28.063l-11.426,16.668c0,0-2.184-8.678,0,16.973c2.183,25.651,5.006,25.053,5.006,25.053
		l9.725,20.532l14.881,33.781l20.174-4.021l16.105-15.685l12.783-15.685l-27.02-65.618l-26.064-29.795l-9.023,0.342L156.494,28.063z
		"/>
	<path fill="#AFB1B4" d="M202.338,330.754c0,0,7.604,1.178,2.363,15.402c-5.236,14.225-2.184,19.531-2.184,19.531
		s7.152,16.758,15.379,7.844c0,0,10.297-9.082,11.838-28.9c0,0,3.232-4.789,8.646-11.873c0,0,7.016-8.711-5.533-15.824
		c0,0-11.064-5.738-19.471-4.996c0,0-1.756-0.215,0.602,3.025c0.873,7.01-3.234,13.564-8.828,15.098c-5.592,1.531,0,0,0,0
		S201.324,328.598,202.338,330.754z"/>
	<path fill="#E9C0C0" d="M176.605,350.16c-0.828-1.106,7.566,31.616,7.465,46.169l-1.936,18.522l12.441,6.359
		c0,0,10.506-8.018,10.506-8.846c0-0.83,3.869-18.248,3.869-19.076c0-0.83-2.764-9.4-2.764-9.4s1.105-31.24-1.658-39.258
		L176.605,350.16z"/>
	<path fill="#204D9F" d="M173.34,240.634l-4.75,4.194c0,0-7.824,6.636-5.986,28.477c0,0,4.604,38.33,4.604,49.161
		c0,10.83,4.307,27.143,9.342,29.63c5.035,2.488,26.998,0.129,26.998,0.129s8.549,1.012,3.469-29.759c0,0,0.98-30.721-1.785-40.04
		c0,0-2.34-5.928,3.721-9.398c0,0,22.119-12.164,21.289-27.369l-1.871-16.312l-26.605-17.693l-67.557-6.236
		c0,0-12.825,11.953-40.586,12.915c-15.236,0.528-25.388,8.527-26.493,16.544c-1.106,8.017-1.331,15.481,20.346,28.752
		c21.676,13.27,40.198,32.347,49.875,28.753c9.677-3.596,16.591-15.262,17.677-20.183c1.145-5.19,2.021-6.7-5.295-12.537
		c0,0-12.85-9.829-20.273-12.095c0,0,3.929,0.186,5.719,0l31.328-5.209c0,0,0,0,2.766-0.829L173.34,240.634z"/>
	<path fill="#FFFFFF" d="M202.348,287.336c0,0-0.57-4.93-1.223-8.549c0,0-1.066-4.316,4.088-7.621l11.096-7.779l9.965-11.66v-5.589
		c-0.158-1.389-11.385,10.997-21.061,16.527c-9.678,5.529-14.119,8.165-11.402,18.67c2.07,7.997,2.648,22.629,2.648,22.629
		l1.383,42.3l-0.211,6.482l5.344-0.463c0,0,1.906-5.618,1.238-14.618c-0.666-9-1.492-14.007-0.824-18.507
		C204.055,314.658,202.914,291.706,202.348,287.336z"/>
	<path fill="#AFB1B4" d="M184.07,396.329c0,0-4.146,3.595-4.424,34.005c0,0-4.766,23.979,5.178,24.895
		c6.643,0.611,11.826,0.418,20.734-10.23c7.459-8.914,5.883-17.43,4.775-22.682c-1.105-5.252,0.879-16.568,0.879-16.568
		s4.471-21-5.025-21.859c0,0,2.211,27.924-9.123,28.477c0,0-13.766,5.07-13.822-4.701
		C183.242,407.664,183.631,400.541,184.07,396.329z"/>
	<path fill="#EC7267" d="M120.144,191.636c0,0,5.237-7.86-1.763-12.749c0,0-6.466-6.594-13.523,0.656
		c-1.081,0.266-4.144-5.377-0.821-9.049c2.948-3.258,1.549-2.393,4.419-5.673c1.819-2.079,1.058-4.903,1.92-7.322
		c0.869-2.436,3.45-4.521,3.103-7.312c-0.003-0.021-0.824-6.646,3.041-13.823c3.871-7.188,2.765-11.059,2.765-11.059
		c-1.382-4.422,0-11.334,0-11.334c0.111-0.204,6.288-7.788,6.461-7.95c15.47-14.521,18.773-10.896,18.773-10.896l28.219,7.326
		l5.82,17.828c1.762,5.39,8.783,6.709,12.377,2.323l22.531-27.477l13.912,9.527c0.551-1.257,1.201-2.531,1.975-3.765
		c1.322-2.109,3.721-2.181,5.721-1.212c5.434,2.632,9.709,8.501,13.211,13.214c1.621,2.183,3.279,4.374,4.777,6.645
		c2.146,3.257,3.291,7.217,5.51,10.378c3.51,4.996,9.064,5.637,12.197,15.114c1.391,4.208,3.412,8.324,6.236,11.766
		c0.719,0.877,1.691,1.632,2.344,2.546c1.244,1.746,1.455,4.072,1.848,6.12c0.605,3.151,0.572,6.418-0.391,9.498
		c0,0,4.662,4.836,3.51,11.485c-0.961,5.542,0.309,11.026-4.152,15.28c-3.314,3.16-9.467,5.835-13.883,3.429
		c1.473-3.373,4.711-5.298,3.836-9.686c-0.83-4.166-8.857-16.184-17.262-10.282l-6.09,6.184c0,0-2.748,0.026-1.715-5.892
		c0.848-4.848,4.002-9.484,4.352-14.36c0.17-2.357-0.996-3.982-2.266-5.84c-1.385-2.024-2.906-4.018-4.082-6.173
		c-1.447-2.654-3.129-4.943-4.207-0.814c-0.625,2.389-0.777,4.793-1.088,7.23c-0.51,4.014-0.777,8.058-1.395,12.058
		c-1.768,11.441-3.533,22.882-5.301,34.323c-0.898,5.816-1.795,11.633-2.693,17.448c0,0-16.924-2.486-16.928-2.487
		c-2.492-0.366-5.031-1.348-7.461-1.996c-11.986-3.2-23.961-6.45-35.955-9.633c-6.516-1.729-13.014-3.522-19.53-5.244
		c-2.515-0.665-5.039-1.294-7.551-1.968c-3.376-0.906-7.722-1.438-10.803-3.051c4.235-3.888,5.237-9.007,6.684-14.623
		c1.246-4.834,0.644-9.933,1.848-14.781c-1.271,5.121-8.612,7.728-10.546,12.414C128.127,187.978,126.881,194.379,120.144,191.636"
		/>
	<g>
		<g>
			<path fill="#040000" d="M174.133,231.303l4.141-16.925l-18.566-15.393l0.318-30.367c0,0-14.784,24.914-10.535,51.291
				c0,0,16.627,1.09,18.189,12.938c-8.875,5.875-3.125,16.875-3.125,16.875c6.375,7.875,14.125,3.75,14.125,3.75
				c20-5.875,33.074,13.268,33.074,13.268c14.508,16.356,38.762,12.199,38.762,12.199c44.338-6.593,44.338-53.364,44.338-53.364
				L174.133,231.303z"/>
			<path fill="#FFFFFF" d="M148.791,213.058c0,0-2.255-27.798,10.002-42.828c12.234-15.002,27.266-4.304,32.996,0.813
				c5.729,5.118,10.436,2.872,10.436,2.872s54.984-43.024,81.738,1.085c26.754,44.108,8.117,87.916-19.27,92.05
				c-27.059,4.084-38.096-1.85-51.879-13.863c-13.785-12.016-25.217-12.502-34.176-7.08c-6.668,4.039-17.318-4.941-13.98-10.534
				c2.482-4.157,10.574-13.987-3.588-19.747L148.791,213.058z"/>
			<polygon fill="#040000" points="238.961,193.687 238.334,223.743 245.637,219.708 245.934,198.058 			"/>
			
				<line fill="#FFFFFF" stroke="#040000" stroke-width="2" stroke-miterlimit="10" x1="205.391" y1="198.242" x2="240.496" y2="200.669"/>
			
				<line fill="#FFFFFF" stroke="#040000" stroke-width="2" stroke-miterlimit="10" x1="204.432" y1="204.527" x2="245.742" y2="208.106"/>
			
				<line fill="#FFFFFF" stroke="#040000" stroke-width="2" stroke-miterlimit="10" x1="207.547" y1="211.715" x2="242.652" y2="214.141"/>
			<circle fill="#040000" cx="194.429" cy="203.968" r="17.667"/>
		</g>
		<path fill="#040000" d="M201.027,194.917c0,0-4.137-0.396-6.555,1.446l-26.633-1.961l-6.506-0.479l-0.002,0.02l-73.181-5.389
			c0,0-21.517-1.664-27.357-2.602c-5.841-0.938-6.208-2.11-6.208-2.11c-2.525-3.427-14.203-3.992-21.861-4.422l-25.443-1.144
			c0,0-5.5-1.677-6.918,10.27l-0.044-0.003c-0.024,0.328-0.04,0.639-0.057,0.951c-0.013,0.13-0.022,0.268-0.034,0.4l-0.017-0.001
			c-0.028,0.327-0.049,0.639-0.068,0.949c-0.034,0.31-0.066,0.62-0.095,0.947l0.044,0.004c-0.494,12.02,5.201,11.236,5.201,11.236
			l25.303,2.905c7.63,0.79,19.25,2.083,22.287-0.9c0,0,0.547-1.1,6.463-1.1s27.425,1.769,27.425,1.769l73.109,6.283l-0.002,0.02
			l6.5,0.559l26.605,2.286c2.096,2.202,6.242,2.467,6.242,2.467c9.611,0.827,9.994-7.952,9.994-7.952s0.086-0.446,0.119-1.126
			c0.074-0.602,0.076-1.007,0.074-1.094c0.041-0.325,0.053-0.532,0.053-0.532s0.08-0.447,0.105-1.127
			c0.074-0.677,0.063-1.131,0.063-1.131S210.648,195.625,201.027,194.917z"/>
	</g>
	<path fill="#E9C0C0" d="M210.531,224.195c0.129,0.235-0.016,0.499,0.055,0.816c0.082,0.364,0.352,0.669,0.594,0.938
		c0.207,0.23,0.563,0.422,1.107,0.493c0.031,0.008,0.055,0.013,0.053,0.007c0.984,0.109,2.58-0.189,5.121-1.452
		c1.346-0.669,2.689-1.362,3.963-2.162c0.383-0.239,0.736-0.541,1.123-0.767c1.113-0.647,2.375-1.057,3.529-1.631
		c0.602-0.3,1.203-0.719,1.83-0.961c3.771-1.457,7.533-2.952,11.322-4.365c6.809-2.538,13.5-5.401,20.301-7.946
		c1.555-0.582,3.191-0.92,4.73-1.536c3.273-1.31,5.926-2.921,6.258-6.653c0.379-4.271-1.813-8.065-4.77-11.023
		c-8.746-8.745-12.186-3.719-12.186-3.719s-4.41,5.108-11.1,10.748c-3.557,2.999-7.311,5.782-11.301,8.177
		c-1.104,0.662-2.137,1.478-3.455,1.44c-3.453-0.099-6.904,0.093-10.354,0.208c-1.283,0.044-2.566,0.084-3.85,0.084
		c-2.318,0.017-5.195-0.417-7.232,0.976c-0.41,0.28-0.818,0.663-0.6,1.19c0.121,0.29,0.592,0.477,0.668,0.77
		c0.113,0.445-0.547,0.621-0.867,0.799c-0.492,0.273-0.973,0.56-1.402,0.927c-0.826,0.705-1.428,1.604-1.08,2.733
		c0.07,0.229,0.174,0.424,0.309,0.588c0.041,0.056,0.086,0.103,0.129,0.149c0.023,0.022,0.047,0.045,0.072,0.067
		c0.061,0.056,0.121,0.11,0.186,0.148c0.404,0.238,1.025,0.327,1.371,0.635c0.547,0.486-0.123,1.904-0.146,2.535
		c-0.021,0.596,0.021,1.224,0.293,1.766c0.201,0.403,0.531,0.729,0.928,0.94c0.377,0.2,1.02,0.197,1.336,0.421
		c0.336,0.238,0.141,0.948,0.209,1.352c0.096,0.564,0.285,1.067,0.605,1.544c0.303,0.448,0.662,0.882,1.08,1.228
		c0.287,0.237,0.713,0.142,1.006,0.356C210.447,224.075,210.498,224.134,210.531,224.195z M208.168,210.521
		c0.561-0.975,1.693-1.502,2.686-1.784c0.82,0.573,1.004,1.265,0.008,1.676C210.25,210.666,209.254,210.622,208.168,210.521z"/>
	<path fill="#EC7267" d="M229.516,101.002c-4.26,6.776-4.896,14.728-4.896,14.728c-0.418,3.545,0.563,7.735,1.594,11.086
		c1.428,4.635,3.568,9.041,5.764,13.351c2.25,4.415,4.639,8.765,7.207,13.003c2.164,3.568,4.49,7.025,6.832,10.479
		c2.752,4.056,3.227,7.899,1.928,12.564c-0.736,2.637-1.535,5.258-2.303,7.886c-0.16,0.547-0.396,1.109-0.494,1.672
		c-1.045,5.933,1.617,5.595,1.617,5.595l6.215-5.899c8.439-5.929,16.055,6.214,17.305,10.281c1.514,4.918-4.611,9.271-4.611,9.271
		c3.568,1.567,7.902,1.62,11.166-0.479c4.119-2.651,7.232-6.327,7.115-11.275c-0.053-2.202,0.213-4.412,0.592-6.579
		c0.584-3.346-1.432-5.927-2.309-8.976c-0.916-3.18-0.145-6.2-0.43-9.432c-0.238-2.727-0.904-5.38-2.002-7.885
		c-0.164-0.375-0.363-1.127-0.689-1.408c0-0.001-4.977-4.302-8.105-13.797c-1.459-4.428-3.963-7.269-7.268-10.364
		c-4.07-3.811-6.771-9.164-9.584-13.923c-0.428-0.725-1.016-1.329-1.512-2.006c-1.729-2.362-3.264-4.815-5.102-7.104
		c-2.041-2.544-4.008-5.12-6.369-7.385c-1.863-1.788-3.848-3.826-6.311-4.761C232.77,98.851,230.797,98.961,229.516,101.002z"/>
	<path fill="#F6F0F0" d="M227.25,135.125c0,0-20.158,18.138-13.99-1.796c3.396-10.973-1.939-13.235-1.939-13.235
		c-11.152-2.425-7.758-20.851-7.758-20.851c0.689-26.026-5.287-24.766-5.287-24.766s-4.691-2.85-7.322,8.945
		c0,0-0.74,6.103,1.453,9.455c0,0,4.123,3.879-0.383,3.235c-4.098-0.586-5.436-7.582-5.436-7.582s-5.164-8.039,1.807-25.198
		c6.971-17.16,0-19.572,0-19.572s-12.332-7.775-20.912-9.92c-2.195-0.549-3.705-1.116-4.736-1.655l0,0
		c-3.502-1.324-3.592-2.829-3.592-2.829l0,0c-0.598,2.322-1.74,4.728-3.91,5.967c-4.975,2.844-10.058,5.565-1.031,32.675
		c4.496,8.81,8.227,10.508,10.334,11.333c2.742,1.071,7.883,5.342,7.883,5.342s6.248,9.752-1.916,15.543
		c0,0-8.555,9.693-8.068,19.39c0.484,9.698-9.213,40.048-16.002,9.599c0,0-5.333-7.636-10.183,1.565
		c-4.849,9.201-11.637-10.194,4.385-25.739c0,0,7.333-13.647,1.433-25.625c-9.277-18.832-5.135-17.746-0.3-44.612
		c4.998-27.765,21.022-32.784,24.974-32.305c0.027-0.062,0.045-0.103,0.045-0.103c0.859-0.02,1.676-0.141,2.42-0.311
		c0.256-0.257,0.41-0.375,0.41-0.375c1.053-0.558,2.158-0.89,3.297-1.04c0.008-0.004,0.02-0.01,0.02-0.01l-0.002,0.008
		c11.943-1.541,28.051,18.356,33.602,39.884c6.084,23.593,23.414,50.989,25.879,54.241c3.559,4.692,7.805,7.82,10.346,11.727
		c3.557,5.743,3.34,8.845,3.34,11.789c0,0-1.281,25.167-10.379,7.773c0,0-0.686-1.212-3.557-0.808c0,0-1.773,0.75-2.424,4.525
		C229.32,132.268,227.25,135.125,227.25,135.125z"/>
	<path fill="#E9C0C0" d="M90.756,198.833l-1.37,2.958c-1.089,2.167,3.027,10.057,3.027,10.057l1.951,2.069
		c3.291,1.559,7.771,2.162,7.771,2.162c4.523-0.136,9.07-8.404,9.07-8.404c0.327-2.533-0.741-10.175-2.091-11.833
		c0,0-1.858-1.968-2.65-1.405c0,0-0.876,0.36-1.792-0.101s-1.666,0-1.666,0c-1.417,0.622-2.312,0.254-3.177,0.185
		c-1.823-0.146-1.152,1.364-0.782,1.979c0,0,0.585,1.161,0.417,3.167c0,0-0.357,3.61-1.875,4.302c0,0-2.792,0.698-3.868-0.677
		c-0.5-0.625-0.625-1.412-0.212-2.375c0,0,0.452-1.059,1.035-1.779c0.753-0.929,1.128-1.846-0.33-2.179
		C92.73,196.619,91.464,197.374,90.756,198.833z"/>
	<path fill="#E9C0C0" d="M103.813,194.678"/>
	<path fill="#E9C0C0" d="M101.31,194.576"/>
	<path fill="#E9C0C0" d="M103.473,219.1"/>
	<path fill="#E9C0C0" d="M93.621,208.365"/>
	<path fill="#E9C0C0" d="M93.509,210.638"/>
	<path fill="none" stroke="#F0CECE" stroke-width="0.5" stroke-linecap="round" stroke-linejoin="round" stroke-miterlimit="10" d="
		M102.021,194.916c0,0,1.233,1.329,1.247,4.125c0.014,2.75,0.808,4-0.593,6.377"/>
	<path fill="none" stroke="#F0CECE" stroke-width="0.5" stroke-linecap="round" stroke-linejoin="round" stroke-miterlimit="10" d="
		M105.378,194.916c0,0,1.541,1.919,1.555,4.715c0.014,2.75,1.171,4.075,0.281,6.243"/>
</g>
</svg>
