<?xml version="1.0" encoding="utf-8"?>
<!-- Generator: Adobe Illustrator 16.0.0, SVG Export Plug-In . SVG Version: 6.00 Build 0)  -->
<!DOCTYPE svg PUBLIC "-//W3C//DTD SVG 1.1//EN" "http://www.w3.org/Graphics/SVG/1.1/DTD/svg11.dtd">
<svg version="1.1" id="Layer_1" xmlns="http://www.w3.org/2000/svg" xmlns:xlink="http://www.w3.org/1999/xlink" x="0px" y="0px"
	 width="180px" height="552px" viewBox="0 0 180 552" enable-background="new 0 0 180 552" xml:space="preserve">
<g>
	<path fill="#1E1F1F" d="M144.196,552.39c0,0,7.324-0.553,11.28-4.26c0,0,1.894-2.053,3.866-2.92s3.694-2.576,1.966-8.586
		s-27.379,3.063-27.379,3.063s-2.673,2.525,1.034,7.26C138.673,551.681,140.883,552.231,144.196,552.39z"/>
	<path fill="#E9C0C0" d="M140.646,494.008l-1.184,28.007c0,0-1.421,10.414-4.103,13.65c-2.683,3.234-1.105,9.229,0.789,12.307
		c0,0,0.631,1.104,3.865,1.104s3.65-2.018,3.65-2.018s0.672-1.813,1.873,0.756c1.095,2.34,3.787,1.262,3.787,1.262
		s2.445,0.711,4.181-1.025c0,0,3.239-1.35,3.616-2.926c0,0,2.995-0.176,3.337-2.125c0,0,2.208-2.521,0.546-10.885l-1.639-23.411
		l-0.496-5.07c0,0-0.078-2.998,0.316-4.261s0.753-2.398-0.789-4.496c-1.543-2.101-1.263-8.679-1.263-8.679L140.646,494.008z"/>
	<path fill="#1E1F1F" d="M140.243,504.4c0,0-0.24,0.013-0.351,0.277c-0.475,1.138-1.541,1.041-0.51,9.685c0,0-0.067,5.98,5.177,8.9
		c0.244,0.139,0.487,0.275,0.731,0.414c0.189,0.107,0.383,0.211,0.57,0.322c0.647,0.385,0.465,1.223,0.465,1.865
		c0,0.852,0,1.703,0,2.557c0,1.771,0,3.545,0,5.318c0,0.432,0,0.863,0,1.293c0,0-0.649,1.688-3.473,0
		c-2.939-1.756-6.234-1.553-6.471-1.078l-0.519,0.996c0,0,4.519-0.486,6.832,1.582c0,0,2.288,1.34-2.131,0.789
		c-4.417-0.553-7.292,3.814-7.292,3.814l-0.123,1.943c0,0,1.735-4.498,5.917-4.338c0,0,1.341-0.16-2.366,2.365
		c0,0-3.235,1.895-2.525,4.34l0.879,1.377c0,0-1.272-3.744,5.117-6.662c0,0,2.919-2.053,6.785-1.58
		c3.866,0.475,8.204,4.342,8.204,4.342l2.524,2.84l0.947-0.471c0,0-1.656-3.002-4.182-4.736c0,0-1.656-1.895,1.342-0.947
		s4.733,2.051,4.733,4.025c0,0,1.42-2.291-0.632-3.551c-2.05-1.264-4.18-1.656-4.18-1.656s-1.578-1.342,1.971-1.184
		c0,0,3.127,0.242,3.915,1.424c0,0,1.079-2.203-1.39-2.451c0,0-5.859-1.033-9.388,0.078c0,0-1.973,0.238-1.973-0.629
		c-0.003-0.65-0.005-1.301-0.007-1.951c-0.007-1.859-0.014-3.721-0.021-5.582c-0.003-0.809-0.006-1.617-0.009-2.426
		c-0.001-0.26-0.037-0.547-0.003-0.807c0.082-0.637,0.641-0.932,1.089-1.303c0.396-0.328,0.785-0.66,1.17-1
		c1.64-1.445,3.207-2.994,4.568-4.705c1.263-1.59,2.571-3.5,2.758-5.58l0.236-1.421l0.885-0.008l-0.648-7.25
		c0,0-0.789-1.105-1.656,5.286c0,0-0.236,4.182-3.393,7.732l-3.707,4.496c0,0-1.311,1.738-2.337,1.738c-1.025,0-2.8-1.125-2.8-1.125
		s-5.125-2.375-5.126-8.951L140.243,504.4z"/>
	<path fill="#1E1F1F" d="M15.993,549.55c0,0,4.182,0.395,8.599-2.92c0,0,4.655-2.604,5.129-5.682c0,0,0.158-4.416,0.789-6.152
		c0,0,0.488-2.209-1.847-5.049c0,0-25.924-1.656-26.081,3.393c0,0-2.943,5.375,2.867,9.826c0,0,1.551,4.217,5.101,5.715
		C10.549,548.681,11.454,549.55,15.993,549.55z"/>
	<path fill="#E9C0C0" d="M13.31,487.145c0,0,0.631,4.891,0,6.311c-0.631,1.421-0.789,3.314,0,5.364
		c0.789,2.052-8.836,32.506-8.836,32.506s-3.156,7.102,0,10.729c0,0,1.736,1.105,1.736,2.367s2.682,1.895,3.313,1.42
		c0.631-0.475,3.744,3.129,4.733,0.158c0,0-0.316-2.365,1.262-2.525c0,0,0.999-0.047,0.789,2.053c0,0,0.126,2.109,3.168,0.65
		c0,0,1.125,1.5,3.459-0.178c0,0,2.051-0.158,2.998-3.787c0,0,3.156,0,2.683-14.99c0,0-0.315-11.834,3.155-17.515
		c0,0,4.419-4.891,0-12.623l-0.947-12.623L13.31,487.145z"/>
	<path fill="#1E1F1F" d="M17.255,521.858c0,0-1.894,8.203-1.263,10.098c0.632,1.893-4.576,0-4.576,0s-8.345-2.154-8.345,0.842
		c0,0,7.487,0.504,1.862,1.797c0,0-3.142,1.148-2.827,2.094c0,0,5.63-2.717,7.692-1.297c0,0,0.927,0.494-2.625,2.561
		c0,0-3.817,3.121-2.7,4.102l1.31,1.227c0,0,3.424-7.537,11.472-7.064c8.047,0.473,9.467,8.363,9.467,8.363l1.357-1.438
		c0,0-0.569-4.715-6.248-7.082c0,0,0.307-1.5,4.576,0.629c0,0,3.313,2.211,3.313,4.26v-3.785c0,0-4.576-3.314-8.047-2.525
		c0,0-0.947-2.002,5.049-1.42c0,0,2.367,0.316,2.998,1.578c0.631,1.264,0.789,0,0.789,0s1.104-2.682-3.629-3.156
		c0,0-4.261,0-6.312,0.789c0,0-2.122,1.42-2.166-0.789c-0.043-2.207,0-0.789,0-0.789s0.745-7.258,2.166-8.992
		c1.42-1.736,9.643-8.939,11.323-15.973l1.594,0.166c0,0,0.249-0.697,0.252-2.416l-1.493-0.082c0,0-0.474-6.47-0.825-11.177
		c0,0-1.27-1.299-0.752,7.232c0,0,1.262,8.125-5.839,15.7l-3.55,4.182c0,0-0.947,1.025-1.973,1.025s-2.051-1.656-2.051-1.656
		s-4.696-6.516-4.862-10.85c0,0,0.081-3.027,0.437-5.507c0.018-0.127,0.037-0.252,0.059-0.377c0.446-2.531-1.67,6.586-1.67,6.586
		s0.355,4.782,5.327,11.251C16.545,519.964,17.445,520.997,17.255,521.858z"/>
	<path fill="#E9C0C0" d="M70.007,58.48c0.106-1.147-7.281,31.281-7.281,31.281s13.488,52.381,14.344,52.461
		c0.854,0.077,11.032,3.864,11.032,3.864l10.177-15.684c0,0,18.225-23.633,18.225-25.395c0-1.761-3.195-19.984-3.195-19.984
		L99.227,62.539L70.007,58.48z"/>
	<path fill="#DFAFAF" d="M89.351,80.273c0,0,10.644,5.466,19.279-7.031c10.225-14.805-32.504-18.768-32.504-18.768
		S76.47,73.408,89.351,80.273z"/>
	<path fill="#DFAFAF" d="M82.085,68.018c0,0-9.994,20.361-9.994,32.118c0,12.518,17.08,35.141,17.08,35.141s-0.972,3.07-1.445,5.672
		c0,0-1.016,1.998-3.946-2.018l-17.33-36.846c0,0,6.33-18.488,7.984-25.968s3.875-18.646,3.875-18.646S78.999,64.316,82.085,68.018z
		"/>
	<path fill="#E9C0C0" d="M77.863,54.581c0,0,3.088,20.374,15.293,22.673c10.776,2.03,20.077-11.708,20.077-11.708
		s12.966-27.392,12.554-27.392s-1.026-19.065-1.026-19.065l-6.401-11.518L98.823,0.716c0,0-11.505,9.361-11.875,9.755
		c-0.369,0.397-6.559,11.471-6.559,11.471l-4.265,10.939L77.863,54.581z"/>
	<path fill="#204D9F" d="M121.975,75.013l6.127,11.895l3,6.229c0,0-17.438-8.112-17.793-8.112s-0.947,13.846-8.166,21.064
		s-14.556,20.709-17.514,34.672c0,0-1.184,2.25-4.26-3.904c-3.078-6.153-17.634-37.633-20.237-48.281l-3.077,0.945l-26.508,11.361
		c0,0-8.484,1.76-9.349,14.555c-3.847,56.95-4.312,38.417-15.674,128.169c0,0-1.242,3.864-5.667,5.083
		c-6.083,1.676-1.774,7.691,1.065,8.756c2.84,1.066,8.039-1.27,6.43,4.973c-1.668,6.471-4.301,24.021-4.301,24.021
		s4.063-1.895,9.745-1.895c5.68,0,8.401,1.895,8.401,1.895s-0.828-24.141,2.366-26.152c3.196-2.013,3.703-10.315,3.703-10.315
		s9.551-40.571,9.551-40.926c0-0.355,2.959-15.03,1.658-22.249c-1.303-7.219,1.893-5.324,1.893-5.324s2.012,6.035,9.23,7.1
		c7.219,1.066,18.936,9.468,18.936,9.468s43.786,2.366,43.786,2.011c0-0.354,8.047-5.797,8.047-5.797l6.509-5.563
		c0,0,9.586-5.682,9.231-17.042l0.008-21.183c0,0,5.442-1.81,6.152,1.504c0.711,3.313-1.42,3.904,5.563,7.811l4.854,3.106
		c0,0,8.167,4.917,18.25-4.25c0,0,9.833-9.917,4.917-16.379c0,0-1.417-2.455-8.503-10.726l-8.825-13.54
		c0,0-12.675-17.946-8.773-23.161c2.685-3.588,2.352-6.61-1.648-6.944c0,0-8.361-0.65-10.111-5.233l-5.214-15.282
		c0,0-2.737,3.203-6.3,4.828S122.869,75.013,121.975,75.013z"/>
	<path fill="#F6F0F0" d="M61.556,44.153c2.533-12.135,5.929-20.242,22.278-36.204c15.595-15.224,24.878-3.898,24.878-3.898
		C122.637,0,126.907,28.187,126.907,28.187c5.8,20.694-9.29,48.083-9.29,48.083s-4.171,7.148,3.055,11.46
		c0,0,8.648,7.001,2.894,15.261c0,0-5.948,5.49-5.948,11.261c0,4.767-13.545,30.711-13.824,7.04c0,0,4.493-14.76-2.832-25.063
		c0,0-4.687-10.582,4.243-21.571c19.362-23.827,13.534-42.199,13.534-42.199c-3.342-18.381-13.564-11.967-13.564-11.967
		S95.718,14.633,92.376,28c-2.478,9.909-8.354,14.667-8.354,14.667c-7.188,4.341-5.896,13.554-5.896,13.554
		c0.396,17.137-12.206,47.305-12.206,47.305l-4.177,9.69c-1.106,5.302-0.257,8.708-0.257,8.71c0,0,1.689,8.469,4.526,10.97
		c4.085,3.601-9.099,10.768-15.968-11.753c0,0-2.228-11.825-12.995-11.082c0,0-16.523-3.522,7.969-20.143
		c0,0,11.081-14.124,13.938-30.541S61.556,44.153,61.556,44.153z"/>
	<path fill="#E9C0C0" d="M122.048,75.056c-8.218-10.146-9.365-17.237-9.365-17.237c0.328-4.923,7.232,6.307,7.232,6.307
		c2.99,3.082,2.976-2.459,2.976-2.459c-1.415-7.378-6.856-13.347-6.856-13.347c-3.018-4.039,0.111-3.163,0.491-3.884
		c0.255-0.479,0.222-0.896,0.222-0.896c-0.212-1.111,0.098-1.426,2.012-1.535c0.436-0.024,0.405-0.7,1.092-1.008
		c0.399-0.181,1.477,0.202,1.91-0.025c1.646-0.859,5.488,4.622,6.425,5.603c2.757,2.887,5.249,4.834,5.578,8.778
		c0.464,5.598,2.013,12.019,2.013,12.019s-2.194,2.687-5.575,4.471C130.201,71.842,126.414,74.105,122.048,75.056z"/>
	<path fill="none" d="M67.736,341.591c1.37-4.227,2.266-6.883,2.271-6.896l-2.259,6.653
		C67.745,341.429,67.739,341.509,67.736,341.591z"/>
	<path fill="#040000" d="M156.847,393.426c-5.207-19.882-8.994-26.037-7.574-62.484c1.42-36.449-2.84-68.163-9.467-81.891
		c0,0-0.58-28.874-9.758-36.448l-1.248-16.686c0,0,3.195-1.775,2.131-4.971c0,0,0.592-2.13-4.379-0.236l-7.574,0.117
		c0,0-1.538,0.592-0.355,1.894c0,0-9.111,0.592-9.822-0.946c-0.709-1.539-4.727,1.625-2.958,4.853c0,0-2.485,3.669-6.036-2.485
		c0,0-9.542-3.078-7.848-0.119c0,0-2.329,0.829-3.159-0.71c-0.828-1.538-2.248-1.538-5.68-1.538s-5.325-2.013-6.508,0.946
		c0,0-5.682-2.247-10.061-2.011c0,0-1.418,0.473-1.418-2.485c0-2.959-4.498-2.13-6.984-2.366l-1.064-1.539
		c0,0-2.956-4.383-5.68-0.71c-2.725,3.672,0,4.712,0,4.712s2.604,0.85-0.237,7.359c-2.841,6.508-1.583,7.295-6.509,11.004
		c-4.924,3.711-14.082,31.242-16.094,55.857c0,0-12.307,75.027-11.834,110.056c0,0,0,16.095-4.733,26.51
		c0,0-3.313,35.028-2.366,43.549c0,0,1.08,21.301-0.171,30.295c0,0-4.903,10.887,0,13.727s12.95,6.154,12.95,6.154
		s10.551-1.893,9.772-1.893s3.956-1.422,2.536-11.835l4.732-13.728c0,0,2.367-11.834,0.474-17.988l1.421-5.68
		c0,0,2.84-1.895,2.84-10.888s10.887-43.075,10.887-43.075s11.834-19.409,12.781-46.391l9.322-27.455c0,0,3.932-20.354,8.191-20.354
		c0,0,3.314,2.84,4.262,18.934c0,0,4.26,21.775,7.1,28.875c2.84,7.101,5.207,25.564,10.888,44.971
		c5.681,19.407,13.253,59.17,13.253,59.17s4.734,26.98,6.154,32.662c1.42,5.68,2.84,10.414,2.84,11.833
		c0,1.421,0.831,2.455,4.734,4.733c6.264,5.556,9.117,2.414,9.117,2.414s7.065-3.254,10.76-4.142l1.898-0.165
		c2.697,0.889,4.732-2.841,3.313-16.567c0,0-0.929-5.681,0.481-10.888C161.581,460.17,162.054,413.307,156.847,393.426z"/>
	<path fill="#252525" d="M52.141,192.558l-4.39,11.126c0,0,6.899,4.019,11.317,2.915c4.417-1.104,5.049-6.92,5.049-6.92
		s0.946-4.441-4.892-5.229C59.226,194.449,56.336,194.365,52.141,192.558z"/>
	<path fill="#252525" d="M115.31,202.256c0.342-0.395,0.901-0.619,1.357-0.842c0.56-0.272,1.147-0.478,1.737-0.675
		c1.996-0.668,4.049-1.2,6.162-1.284c1.445-0.058,2.979-0.006,4.408,0.224l0.802,10.706c0,0-8.539-1.104-12.01,1.735
		c-0.374,0.307-0.938,0.589-1.378,0.267c-0.457-0.334-0.662-0.98-0.8-1.5c-0.466-1.766-0.499-3.648-0.448-5.464
		c0.016-0.574,0.047-1.151-0.018-1.724C115.071,203.226,114.959,202.671,115.31,202.256z"/>
	<path fill="#252525" d="M96.307,211.648c0,0,0.789,8.837,0.789,8.36c0-0.473-0.385,1.422,2.525,1.422
		c4.563,0,3.944,10.256,3.944,10.256v76.132c0,0,0.682,10.178,2.524,10.178c3.428,0,3.156-47.651,3.156-47.651v-40.393
		c0,0,0.188-8.679-2.998-8.679c-1.609,0,3.77-2.221,4.418,3.313c0.173,1.475,6.941,23.51,6.941,23.51l3.63-5.364
		c0,0,2.208-3.786-2.998-12.466c0,0-0.789-1.263-0.315-5.68c0.475-4.418-5.049-6.47-5.049-6.47s1.104-3.944-2.053-6.469
		c0,0,1.279-0.429,1.105-1.579v-5.049c0,0,0.174-3.384-7.258-2.366c0,0-9.311-0.632-11.834,0.632c0,0-2.209,0.921-3.156-0.803
		c0,0,0.254-1.723-9.942-1.723c-11.676,0-9.466,2.682-9.466,2.682s1.244,5.996-0.167,8.363c0,0-1.254,3.313,5.216,2.84
		c0,0,7.101,1.422,9.625-3.787c0,0,0-1.578,5.522-1.262C95.991,209.912,96.178,210.21,96.307,211.648z"/>
	<path fill="#252525" d="M72.131,199.686c-0.023-0.021-0.055-0.043-0.097-0.066c-0.135-0.073-0.293-0.089-0.437-0.134
		c-0.335-0.104-0.674-0.193-1.017-0.268c-1.003-0.215-2.13-0.343-3.118,0.008c-1.212,0.429-1.649,1.587-1.61,2.797
		c0,0-0.044,3.078-1.679,4.772c-0.658,0.683-0.019,1.248,0.63,1.574c1.183,0.598,2.582,0.82,3.889,0.896
		c0.356,0.021,0.931,0.324,1.237,0.019c0.193-0.192,0.139-0.667,0.136-0.907c-0.006-0.477-0.053-0.948-0.086-1.423
		c-0.065-0.944-0.185-1.904-0.49-2.805c-0.144-0.422-0.338-0.846-0.639-1.18c-0.218-0.242-0.353-0.556-0.188-0.863
		c0.352-0.652,1.406-0.895,2.059-1.064c0.212-0.056,0.421-0.108,0.642-0.112c0.185-0.004,0.33-0.002,0.498-0.092
		c0.365-0.195,0.363-0.525,0.344-0.888C72.199,199.824,72.202,199.753,72.131,199.686z"/>
	<path fill="#E9C0C0" d="M20.569,308.055l1.653-2.535l1.976-19.081c-1.591-1.135-5.988-1.772-5.988-1.772
		c-5.964-0.907-12.158,1.772-12.158,1.772s0.354,1.42-1.479,4.733c-1.833,3.313,2.603,19.566,2.603,19.566s0.489,2.272,2.822,3.786
		c3.157,2.049,8.362,5.83,8.362,5.83c0.781,0.595,4.293,3.116,4.349,0.338c0-0.938-1.05-2.332-2.099-3.49
		C19.537,315.458,18.288,312.149,20.569,308.055z M18.675,301.43c-1.263,7.572-2.84,6.31-2.84,6.31c-0.947-1.894,0-5.208,0-5.208
		C19.78,294.959,18.675,301.43,18.675,301.43z"/>
</g>
</svg>
