<?xml version="1.0" encoding="utf-8"?>
<!-- Generator: Adobe Illustrator 16.0.0, SVG Export Plug-In . SVG Version: 6.00 Build 0)  -->
<!DOCTYPE svg PUBLIC "-//W3C//DTD SVG 1.1//EN" "http://www.w3.org/Graphics/SVG/1.1/DTD/svg11.dtd">
<svg version="1.1" id="Layer_1" xmlns="http://www.w3.org/2000/svg" xmlns:xlink="http://www.w3.org/1999/xlink" x="0px" y="0px"
	 width="622px" height="272px" viewBox="0 0 622 272" enable-background="new 0 0 622 272" xml:space="preserve">
<g>
	<path fill="#E9C0C0" d="M299.771,149.129"/>
	<g>
		<g>
			<path fill="#E9C0C0" d="M507.547,122.765c-0.596-0.229-0.219-0.991-0.219-0.991c0.191-1.166,1.057-2.404,0.223-3.619
				c-0.148-0.212-0.895-0.449-0.969-0.649c-0.313-0.851-0.1-1.446-0.1-1.446c-0.018-0.609-0.242-1.051-1.314-1.347
				c0,0-0.482-0.981-1.602-0.245c0,0-1.338,0.466-1.418-0.075c-0.449-3.061-9.633-0.524-10.725-0.315
				c-1.254,0.24-2.42,0.509-3.574,1.098c-1.393,0.708-3.314,1.458-4.768,2.075c-2.744,1.164-5.816,1.709-9.068,1.652
				c-5.092-0.088-10.215,0.197-15.301,0.393c-2.727-0.124-6.23-0.042-10.021,0.158c-2.117,0.318-4.012,0.534-5.398,0.563
				c-3.402,0.072-13.004,1.185-24.207,2.21l8.33,22.645c6.484-2.246,20.219-5.055,31.18-7.197c4.477-0.874,8.48-1.637,11.342-2.206
				c2.627-0.513,5.453-1.498,8.111-1.799c1.332-0.15,2.672-0.512,4.02-0.344c2.078,0.26,4.371,1.859,6.539,2.404
				c2.082,0.795,4.969,1.4,7.838-0.023c4.143-2.055,5.809-4.053,5.631-5.125c2.674-2.174,5.287-4.559,5.658-5.631
				C508.215,123.546,507.83,122.983,507.547,122.765z"/>
			<path fill="#204993" d="M351.689,131.553c0,0,33.053,4.461,51.445-5.641c18.391-10.104,19.215-2.935,31.617-5.21
				c12.209-2.24,9.496-2.868,17.943-1.579l11.426,0.037c0,0-5.279,11.418,2.473,16.963c-2.15,0.529-4.303,1.058-6.455,1.587
				c-1.561,0.383-6.096,3.539-7.656,3.924c-2.182,0.537-3.604,5.092-4.861,6.715c-5.539,7.152-16,1.932-21.539,3.383
				c-8.74,2.289-18.855-2.18-18.855-2.18l-55.711,1.242C351.516,150.793,341.469,130.726,351.689,131.553z"/>
			<path fill="#E9C0C0" d="M138.474,65.208c0,0-52.614,48.97-52.576,67.375c0.038,18.403-20.781,8.853-20.781,8.853
				s-25.663-3.25-34.951-0.469c-9.289,2.781-29.558-7.589-29.651-12.986c0,0-3.377-6.965,16.094-1.86
				c19.471,5.103,92.892-67.527,92.892-67.527L138.474,65.208z"/>
			<path fill="#EC7267" d="M163.836,66.329c0,0-4.867-26.856-30.926,18.991c-0.829,1.458-5.901,9.598-5.901,9.598
				c-5.878,12.834-12.686,21.582-12.686,21.582c-4.976,8.886-23.922-7.299-25.878-10.619C82.969,96.59,73.662,93.203,67.833,92.64
				c-3.788-0.367-8.438-3.022-3.506-10.158c2.087-3.017,66.277-66.061,66.277-66.061s19.241-27.633,48.888-9.598
				c16.353,9.948,7.865,3.029,21.117,22.869l13.076,47.454c0,0,3.471,22.438,16.962,30.358c0,0,15.25,10.386,24.246,11.981
				c0,0-10.058,43.823-3.066,56.696l-10.61,0.479c-32.476-6.689-63.577-6.225-66.386-55.41
				C174.832,121.25,171.456,76.657,163.836,66.329z"/>
			<path fill="#E9C0C0" d="M160.351,62.536c0,0-20.689,68.837-11.363,84.701c9.327,15.865-13.467,18.137-13.467,18.137
				s-23.791,10.152-30.403,17.242c-6.612,7.092-29.347,8.373-32.152,3.762c0,0-6.43-4.307,12.952-9.732
				c19.383-5.426,46.084-105.188,46.084-105.188L160.351,62.536z"/>
			<path fill="#EE827A" d="M159.267,98c-6.333,17.213-7.999,20.305-7.999,20.305c-5.118,9.501-27.328-13.07-29.834-15.998
				c-7.014-8.193-15.662-6.42-21.5-5.958c-3.794,0.301-8.836-1.503-5.224-9.39c1.527-3.334,49.8-68.582,49.8-68.582
				S154.6,1.496,172.6,1.5c14.606,0.004,21.592,4.373,37.667,38.787l22.064,49.354c0,0,7.903,21.932,21.5,28.247
				c0,0,12.024,9.38,26.512,7.923c0,0-4.284,31.723,4.847,43.178l-8.44,2.676c-31.834,5.668-72.564,17.838-85.26-19.416
				c-1.614-4.736-2.765-9.471-3.55-14.129c-0.4-2.372-0.702-4.725-0.923-7.048c-0.772-11.177-6.583-35.573-13.583-49.922
				c0,0-5.5-19.651-10.26,2.575C162.823,85.367,159.267,98,159.267,98z"/>
			<path fill="#E9C0C0" d="M333.91,131.08c-3.529-10.869,0.789-5.967,0.789-5.967c7.66,7.153,23.598,5.897,27.049,4.254
				c3.154-1.822-1.75-4.251-1.354-10.774c0.123-2.045,3.246-4.16,5.344-4.411c6.963-0.835,10.199-8.014,14.75-6.101
				c4.332,1.822,7.266,1.155,13.406-0.267c3.059-0.708,9.037,0.79,11.313,2.088c3.537,2.019,4.402,4.821,5.363,9.316
				c1.516,7.098,0.311,16.431-3.406,22.709c-4.752,8.029-14.602,13.156-23.262,15.805c-4.725,1.443-9.625,2.033-14.543,2.285
				c-1.191,0.061-4.768,0.879-5.881,0.361c-0.021-0.01-30.156-11.729-27.396-26.288L333.91,131.08z"/>
			<path fill="#E9C0C0" d="M521.627,191.848c-0.01-0.064-0.008-0.154,0.012-0.279c0.076-0.51,0.193-0.945,0.143-1.469
				c-0.057-0.609-0.086-1.994-0.877-2.191c-0.471-0.119-0.914,0.531-1.133,0.861c0,0-2.291,3.043-4,3.668
				c0,0-4.416,2.854-6.398,0.143l-1.51-1.582l-0.535-0.877c-0.572-1.51-0.277-2.225,0.207-2.619l2.111-2.211
				c0,0,3.021-2.25,1.996-3.75c-1.023-1.5-4.549,0.75-4.549,0.75c-3.949,1.375-5.209,1.426-5.211,1.426
				c-0.027,0.006-13.854,2.906-25.119-1.57c-2.535-1.008-5.873-2.078-9.521-3.129c-2.104-0.391-3.965-0.809-5.285-1.232
				c-3.238-1.045-12.678-3.133-23.598-5.828c-13.549-3.344-29.926-4.41-39.066-8.791c0,0-49.125-11.75-64.861-23.271
				c0,0-10.623-6.776-18.416,8.633c0,0-5.812,15.453,4.852,18.713c15.803,8.443,41.371,15.002,59.652,15.596
				c1.209,0.271,2.465,0.531,3.791,0.76c12.365,2.121,34.326,8.381,34.326,8.381s9.666,4.109,20.188,4.105
				c6.859-0.004,20.76,1.836,31.816,3.395c4.518,0.639,8.551,1.227,11.443,1.625c4.061,1.682,8.242,3.586,11.432,5.434
				c0.172,0.098,0.344,0.197,0.533,0.309c0,0,11.387,4.412,15.758,2.887c2.244-0.393,9.631-4.982,10.955-6.67
				c0.918-1.168,0.736-1.826,0.539-2.125c0.076-0.582-0.16-0.492,0.119-1.008c0.563-1.039,1.785-1.926,1.393-3.35
				c-0.068-0.246-0.346-0.574-0.35-0.787c-0.018-0.906,0.379-1.398,0.379-1.398c0.182-0.582,0.176-1.307-0.096-1.863
				c-0.117-0.244-0.205-0.473-0.49-0.516C521.918,191.961,521.666,192.107,521.627,191.848z"/>
			<path fill="#204993" d="M299.771,173.008c0,0-3.411-1.029-19.671,2c-38.827,7.234-27.197-3.104-26.283-8.018
				c5.651-30.389-17.658-55.033,1.077-50.99c11.979,2.585,14.521,4.833,34.354,4.333c0,0,4.945-0.286,6.87-1.833
				c4.468-3.593,25.811-9.159,37.405,5.358c0,0,4.537,5.508,13.559,13.354c6.475,5.631,17.063,9.018,20.416,13.287
				c9.211,3.391,12.916,8.668,12.916,8.668l27.076,5.625c0,0-4.305-1.068,20.281,3.24c16.311-1.043,33.246,8.938,33.246,8.938
				l12.262,3.881c0,0-8.396,10.559-4.979,18.297l-13.402-1.086c-9.137-3.34-16.195,5.008-31.529,6.025s-27.666-7.686-27.666-7.686
				s-23.289-5.977-47.955-12.234c-5.867-1.49-12.477-3.229-18.961-5.34C328.787,178.828,317.941,172.596,299.771,173.008z"/>
			<path fill="#F6F0F0" d="M384.238,136.136c-3.18,3.931,2.666,0,2.666,0l4.834-3.566c0,0,3.166-2.559,5.834,1.375
				c2.225,3.282-3.25,4.624-10,4.374s-19.154,5.182-23.379,11.436c-10.158,15.039-32.375,15.5-38.625,15.5
				s-16.497,7.064-13.246,14.564c3.25,7.5-8.713,15.75-8.713,15.75c-26.963,18,12.497,11.25,12.497,11.25
				c25.035-8,17.58,2.73,17.58,2.73c-20.387,14.23,0.887,13.52,5.887,9.27s24.75-5.928,24.75-5.928
				c21.75-2.93,21.432-21.822,21.432-21.822c9.182-17,14.568-12,35.805-29.314s2.264-40.175,2.264-40.175s-6.063-7.397-9-9.366
				c-9.691-6.494-13.186-3.392-13.186-3.392s-4.898,10.058-3.064,16.902c0,0-0.477,2.513-3.668,2.513
				C388.738,128.237,388.338,131.067,384.238,136.136z"/>
		</g>
		<g>
			<path fill="#040000" d="M579.416,159.268c2.973,3.16,11.383,3.6,14.609,4.539c3.459,1.006,7.094,1.916,10.414,3.342
				c6.836,2.936,18.336,10.395,16.828,19.396c-0.727,4.328-3.75,5.543-7.586,3.633c-1.555-0.775-2.316-2.129-2.785-4.877
				c-0.629-3.691-5.098-6.4-7.957-8.1c-11.744-6.984-25.186-10.256-38.338-5.434c-0.461,0.258-0.924,0.516-1.389,0.77
				c-1.15,0.633-2.311,1.258-3.479,1.859c-1.514,0.783-3.025,1.58-4.57,2.301c-1.541,0.717-3.068,1.488-4.664,2.082
				c-1.381,0.514-2.629,1.064-4.111,1.217c-0.5,0.051-0.984,0.072-1.486,0.08c-0.549,0.008-1.1,0.01-1.646-0.047
				c-1.229-0.125-2.813-0.592-3.668-1.535c-0.279-0.309-0.455-0.684-0.564-1.084c-0.166-0.613-0.266-1.289-0.094-1.91
				c0.16-0.574,0.518-1.063,0.779-1.588c0.316-0.637,0.908-2.088,0.318-2.725c-0.371-0.402-1.291-0.453-1.793-0.428
				c-1.586,0.078-3.41-0.316-4.92,0.307c-1.957,0.809-2.549,3.037-3.361,4.781c-0.533,1.145-1.211,2.23-1.664,3.412
				c-0.773,2.016-0.924,5.039-3.82,4.797c-3.01-0.25-3.01,0.221-4.012-0.754c-0.52-0.502-1.992,0.645-3.01-1.002
				c0,0-2.76-1.254,0.752-6.27l3.26-3.512c0,0-3.762,2.006-5.518-0.502c0,0-3.764-1.504,3.262-7.775c0,0,4.313-3.141,2.256-6.02
				c-1.361-1.49-2.645-3.068-3.865-4.678c-1.002-1.324-1.717-2.826-2.512-4.277c-0.508-0.928-0.961-2.717-2.314-2.529
				c-1.33,0.186-2.881,2.891-3.676,3.84c-1.604,1.916-3.201,3.84-4.809,5.754c-3.961,4.715-7.92,9.436-11.879,14.154
				c-0.801,0.953-1.926,1.945-2.549,3.035c0,0.002-2.26,3.961-5.27,3.209c0,0-3.037,1.119-3.76-1.891c0,0-2.064-0.559-1.691-2.207
				c0.318-1.412,0.689-1.43,0.689-1.43s-3.449-2.631,4.264-5.957c7.129-7.631,13.551-16.842,17.787-26.377
				c0.875-1.968,1.621-3.987,2.234-6.054c0.777-2.621,1.594-5.161,1.246-7.928c-0.451-3.601-0.939-7.197-1.305-10.808
				c-0.248-2.466-2.027-3.41-4.16-4.263c-1.398-0.559-3.313-0.964-4.32-2.183c-0.813-0.982-0.621-2.185-0.975-3.32
				c-0.383-1.224-1.191-1.491-1.977-2.39c-1.793-2.065-2.199-4.911-2.346-7.554c-0.061-1.092-0.053-2.186-0.004-3.278
				c0.055-1.236,0.656-2.555-0.125-3.692c-0.627-0.914-2.012-1.835-2.842-2.585c-2.48-2.242-5.668-4.593-8.984-5.347
				c-5.518-1.253,5.277-3.466,10.033-3.762c2.35-0.146,4.557-0.99,6.465-2.35c1.633-1.166,2.729-2.919,4.344-4.105
				c1.771-1.3,3.949-1.496,6.023-1.994c5.516-1.32,10.627-0.142,15.619,2.479c7.48,3.926,11.076,11.711,16.715,17.532
				c2.232,2.306,4.953,4.061,7.889,5.34c2.373,1.033,4.883,1.747,7.424,2.22c18.186,3.384,28.012,25.028,28.105,41.5
				c0.021,3.735-0.311,7.487-0.75,11.196c-0.369,3.107-2.229,6.535-1.797,9.68C578.498,157.998,578.863,158.68,579.416,159.268z"/>
			<path fill="#353535" d="M484.775,173.633c0,0-0.619-0.555-1.176-0.033c-0.555,0.523-1.063,1-1.063,1s-0.479,0.314-0.023,0.797
				c0.457,0.48,1.268,0.129,1.945-0.508C485.133,174.252,484.775,173.633,484.775,173.633z"/>
			<path fill="#353535" d="M488.049,173.391c0,0-0.621-0.557-1.176-0.033c-0.557,0.521-1.064,1-1.064,1s-0.479,0.314-0.021,0.795
				s1.268,0.129,1.943-0.508S488.049,173.391,488.049,173.391z"/>
			<path fill="#353535" d="M482.543,171.479c0,0,0.541,0.633,0,1.176c-0.541,0.539-1.035,1.033-1.035,1.033s-0.33,0.471-0.799,0
				c-0.471-0.471-0.094-1.27,0.564-1.928S482.543,171.479,482.543,171.479z"/>
			<path fill="#353535" d="M482.6,168.465c0,0,0.365,0.75-0.291,1.139c-0.658,0.391-1.26,0.746-1.26,0.746s-0.436,0.375-0.775-0.197
				c-0.338-0.574,0.225-1.254,1.025-1.729C482.102,167.949,482.6,168.465,482.6,168.465z"/>
			<path fill="#353535" d="M546.568,135.77c0,0,1.336,6.541-0.246,10.959c-1.801,5.023-11.723,21.943-11.723,21.943
				s-5.23,7.33-1.166,0c4.916-8.863,11.584-22.363,11.584-22.363s1.16-6.066,0.371-10.21
				C545.018,134.149,546.135,134.61,546.568,135.77z"/>
			<path fill="#353535" d="M527.908,132.415c0,0,1.299,3.735,2.857,9.944c0.709,2.82,1.115,12.885-1.469,17.045
				c-1.42,2.285-6.383,11.082-6.383,11.082s-3.121,5.197,0.014-1.553l5.969-11.281c0,0,2.717-9.023,0.459-16.045
				C529.355,141.607,526.273,130.499,527.908,132.415z"/>
			<path fill="#353535" d="M509.387,87.493c0,0-0.846,1.411-3.293-0.471c-2.445-1.881-1.6,1.505-1.6,1.505s-3.008,0.372-4.891-1.036
				l-2.068,0.022c0,0,5.172-7.262,7.43-4.158C504.965,83.354,509.668,86.364,509.387,87.493z"/>
			<path fill="#353535" d="M483.678,169.701c0.764-0.451,0-1.365,0-1.365c-0.93-1.633,1.043-2.035,1.068-2.039
				c1.775-0.357,0.895,1.656,1.307,2.383l0.32,0.309l0.408,0.396c0,0,0.311,0.303,0.318,0.309c0.883,0.857,2.297-0.893,2.463,1.266
				c0,0-0.41,1.939-2.109,1.033c0,0-0.941-0.738-1.406,0c-0.467,0.736-1.461,0.24-1.461,0.24l-0.545-0.592l-0.611-0.525
				C483.43,171.115,482.916,170.15,483.678,169.701z"/>
			<path fill="#353535" d="M515.797,171.932c0,0-0.176-1.01,0.699-1.666c0,0,0.338-0.225,0.42,0.002
				c0.082,0.223-0.164,0.336-0.164,0.336s-0.758,0.453-0.621,1.656L515.797,171.932z"/>
			<path fill="#353535" d="M517.951,173.246c0,0-0.348-0.963,0.398-1.762c0,0,0.295-0.279,0.414-0.072s-0.104,0.361-0.104,0.361
				s-0.582,0.486-0.379,1.506L517.951,173.246z"/>
			<path fill="#353535" d="M517.447,182.301c0,0-0.307-2.043,1.506-3.355c0,0,0.262-0.234,0.438-0.057
				c0.178,0.176-0.021,0.328-0.021,0.328s-1.658,1.289-1.652,3.449L517.447,182.301z"/>
			<path fill="#353535" d="M520.217,183.184c0,0-1.139-1.354,0.803-3.295c0,0,0.262-0.234,0.438-0.059
				c0.178,0.178-0.021,0.33-0.021,0.33s-1.711,1.426-0.869,3.248L520.217,183.184z"/>
			<path fill="#353535" d="M523.396,183.996c0,0-0.922-1.719,0.162-3.326c0,0,0.26-0.234,0.438-0.059
				c0.176,0.178-0.021,0.33-0.021,0.33s-0.941,1.336-0.164,3.068L523.396,183.996z"/>
			<path fill="#353535" d="M539.49,178.35c0,0,1.348-0.758,1.848-1.383c0,0,0.262-0.256,0.5,0c0.146,0.156,0,0.25,0,0.25
				s-1.133,1.15-2.068,1.42L539.49,178.35z"/>
			<path fill="#353535" d="M541.248,179.514c0,0,1.424-0.768,1.924-1.393c0,0,0.172-0.289,0.428-0.053
				c0.172,0.158,0.072,0.303,0.072,0.303s-0.871,1.08-1.807,1.348L541.248,179.514z"/>
		</g>
		<g>
			<path fill="#D88243" d="M293.921,107.488c0,0,0.004-0.137,0.997,5.549c0.406,2.323-0.034,4.495-0.034,4.495
				c-1.826,0.672-4.392,1.407-6.104,2.304c-1.299,0.681-2.017,0.082-2.941-0.791c-1.501-1.417-9.338-8.772-14.294-7.485
				c0,0-11.646,1.243-8.646,3.513c0,0,0.635,0.568-0.678,1.315s-3.602,6.145-3.602,6.145c0.012,0.826,1.108,2.048,0.688,2.813
				c-0.474,0.863-2.216,0.46-2.978,0.474c0,0-4.186,2.544-11.238-0.028c-7.054-2.572-5.824-2.148-5.824-2.148
				c-8.865-0.325-12.812-6.023-12.812-6.023c-2.311-3.284-4.51-8.015-5.294-11.921c-0.488-2.426-0.787-4.886-1.013-7.348
				c-0.12-1.319-0.19-0.711-0.276-2.033c-0.144-2.185,1.065-5.087-0.357-6.853c-1.362-1.689-8.036-4.077-9.523-5.648
				c-1.953-2.064-3.864-4.194-5.491-6.53c-1.808-2.594-4.722-7.361-2.148-10.385c1.654-1.941,6.523-2.679,8.087-0.668
				c1.607,2.067,0.676,2.095,1.376,4.475c0.633,2.146,1.358,5.068,2.959,6.582c1.11,1.051,2.995,2.08,4.544,2.443
				c1.959,0.459,3.855-0.09,4.874-1.196c7.354-7.977,3.76-4.543,12.612-11.137c0,0,15.851-13.401,38.66-0.646
				c0,0,8.252,7.707,16.168,2.845c0,0,9.084-7.46,23.184-3.914c0,0,6.016,1.62,8.297,6.276c0,0,0.949,4.24,6.59,6.247
				c0,0,7.123,2.899,6.201,7.075c-0.273,1.231-8.066,0.244-9.922,6.808l-1.602,4.838c0,0-0.35,2.095-1.891,4.051
				c-0.879,1.116-2.143,2.189-3.959,2.802c0,0-2.785,0.968-4.453,2.53c-3.113,2.916-5.758,0.784-8.096-1.83
				c-2.436-2.721-8.796-4.678-11.582-2.454C292,103.949,294.163,107.023,293.921,107.488"/>
			<path fill="#FFFFFF" d="M254.969,125.839l14.317-0.277c4.177-0.095,3.743-4.032,3.743-4.032c1.247-1.638-1.084-3.861-1.084-3.861
				c-0.433-2.441-6.188-2.605-6.188-2.605c-1.383,0.01-2.46-0.103-3.309-0.271C262.977,118.234,249.804,122.168,254.969,125.839z"/>
			<path fill="#FFFFFF" d="M293.478,103.229c3.596-4.187,10.778-0.276,12.263,1.272c0.961,1.002,4.396,5.849,8.417,2.083
				c1.666-1.562,4.5-2.583,4.5-2.583c1.816-0.613,2.955-1.902,3.834-3.019c-0.037-0.008-3.449-3.689-12.958-4.969
				c-5.044-0.679-4.877-7.326-13.711-3.179C295.824,92.833,288.49,95.5,293.478,103.229z"/>
			<path fill="#FFFFFF" d="M282.131,115.741l3.708,3.305c0,0,2.393,2.95,8.808,1.884c6.415-1.064,6.903-2.42,6.972-4.392
				c0.066-1.972-1.346-4.293-4.204-4.923c-2.856-0.63-3.489-4.265-3.489-4.265S290.314,114.315,282.131,115.741z"/>
		</g>
		<g>
			<path fill="#424142" d="M290.973,217.104c-0.312-1.145-1.172-2.035-1.511-3.105c0,0-0.833-2.627-0.833-8.25
				s-5.743-9.582-5.743-9.582s-1.729-1.434-2.268-6.096c-0.537-4.662-9.683-24.029-35.863-22.594
				c-26.007,1.424-41.002-2.85-57.629,23.951c-9.082,11.045-22.995,16.293-26.086,31.404c-1.064,5.199-0.844,10.484,0.298,15.658
				c5.271,23.881,21.874,29.842,21.874,29.842s11.393,5.834,23.502,2.002c0,0,9.768-3.002,5.831-7.836
				c-1.363-1.674-5.805,0.928-11.156,1.727c0,0-16.508,2.641-25.177-9.227c-8.316-11.391-8.093-15.756-8.5-18
				c-1.113-6.131-1.279-13.381,1.833-18.666c1.196-2.025,4.712-5.986,6.472-7.568c0.803-0.709,2.192-1.215,3.169-1.609
				c2.312-0.934,1.758,0.164,1.193,2.127c-1.322,4.6-0.673,12.945,1.974,16.625c3.891,5.408,6.917,17.256,6.952,19.26
				c0.032,1.832,1.584,1.553,1.845,1.404c0.451-0.256,0.818-0.057,0.818-0.057c1.182,0.328,1.838-0.047,2.15-0.766
				c0.225-0.516,0.931-0.033,1.541-0.5c0.49-0.375,0.353-0.803,0.603-1.137c0.25-0.332,0.669-0.051,0.95-0.801
				c0.258-0.686-0.048-1.084-0.406-1.563c-0.742-0.992-2.16-6.881-2.16-6.881s-2.434-6.785,0.316-7.701c0,0,6.99-3.154,7.667,2.037
				c0.25,1.916,2.916,6.045,2.916,6.045s0.68,1.434,1.46,3.15c0.066,0.184,1.727,4.842,1.646,5.496
				c-0.083,0.666,0.57,1.559,1.75,1.277c0.913-0.219,1.326,0.057,1.326,0.057s1.463,0.541,2.296-0.793c0,0,0.087-0.291,0.587-0.416
				c0.796-0.199,1.301-0.492,1.394-1.381c0,0,0.003-0.363,0.23-0.922c0,0,0.963-2.318-0.579-3.26
				c-1.093-0.666-2.892-4.131-2.893-4.131c-0.201-0.439-0.408-0.891-0.63-1.348c-1.567-3.24,0.97-3.775,0.97-3.775
				c5.943-1.121,5.487-10.938,14.776-14.207c0,0,1.292-0.535,5.109-2.02c0.041,0.025,0.078,0.055,0.119,0.08
				c2.811-1.104,8.644-3.393,10.928-4.289c0.021-0.051,0.042-0.1,0.068-0.158c5.431-2.219,5.373-1.91,8.354,0.139
				c2.313,1.59-2.177,13.676,0.146,15.563c0.934,0.76,3.961,0.043,4.853-0.391c0.699-0.342,1.297-0.844,1.829-1.404
				c0.731-0.77,1.006-1.881,2.09-2.238c0.993-0.326,2.271-0.063,3.259,0.125c4.496,0.846,11.579-1.738,12.581-2.744
				c0.51-0.512,2.438-2.281,5.672,1.256c3.602,3.938,6.951,3.309,7.057,3.287c0.882-0.182,1.28-3.543,1.323-4.238
				C291.325,219,291.227,218.031,290.973,217.104z"/>
			
				<path fill="none" stroke="#606060" stroke-width="0.8" stroke-linecap="round" stroke-linejoin="bevel" stroke-miterlimit="10" d="
				M259.825,171.656c-2.322,5.727-7.469,6.637-9.716,6.303c-0.451-0.076-0.889-0.156-1.297-0.232l-0.003,0.002
				c-1.111-0.215-2.034-0.43-2.545-0.625c0,0-0.194-0.115-0.489-0.26c-0.289-0.109-0.576-0.227-0.844-0.354
				c-0.097-0.043-0.191-0.09-0.282-0.139c-1.643-0.844-2.396,0.432-2.411,0.592c0,0-0.557-0.092-0.88,0.082
				c-0.001,0.004-0.002,0.004-0.003,0.004c-0.021,0.008-0.041,0.023-0.063,0.033c-0.116,0.076-0.303,0.195-0.482,0.367
				c-0.161,0.158-0.303,0.361-0.381,0.609v0.002c0,0-0.201,0.514-0.159,1.1c0,0-0.044,0.164-0.228,0.531
				c-0.003,0.004-0.001,0.012-0.003,0.018c-0.221,0.309-0.381,0.887-0.204,1.484c0.01,0.039,0.016,0.086,0.032,0.129
				c0.015,0.041,0.046,0.088,0.064,0.127c0.039,0.088,0.08,0.174,0.139,0.256c0.09,0.129,0.198,0.258,0.347,0.391
				c0,0,0.321,0.605,0.496,1.037h-0.002c0.006,0.021,0.013,0.039,0.018,0.059c0.061,0.199,0.383,0.848,1.654,0.779l-0.079,0.014
				c0,0,15.839,8.641,25.173,0.641"/>
			
				<path fill="none" stroke="#606060" stroke-width="0.8" stroke-linecap="round" stroke-linejoin="bevel" stroke-miterlimit="10" d="
				M240.712,208.99c0.625-7.182-6.311-14.787-6.313-14.787c-0.935-0.656-1.736-1.203-1.777-1.23l-0.006-0.004
				c-1.752-0.309-1.565-1.338-1.489-1.594c0.006-0.016,0.011-0.037,0.017-0.057h0.001c0.103-0.461,0.202-1.131,0.202-1.131
				c-0.028-0.178-0.037-0.336-0.033-0.488c0.005-0.096,0.021-0.191,0.04-0.281c0.008-0.049,0.011-0.098,0.024-0.145
				c0.012-0.043,0.028-0.088,0.044-0.133c0.189-0.607,0.597-1.068,0.906-1.264c0.005-0.006,0.007-0.01,0.011-0.016
				c0.314-0.26,0.426-0.391,0.426-0.391c0.278-0.551,0.679-0.939,0.679-0.939l-0.001,0.002c0.183-0.197,0.385-0.324,0.573-0.404
				c0.208-0.088,0.398-0.125,0.517-0.148c0.02,0,0.042-0.01,0.058-0.008c0.001,0,0.004,0.002,0.004,0.002
				c0.31-0.033,0.637,0.266,0.637,0.266c0.095-0.145,2.431-0.859,3.101,0.539c0.036,0.078,0.077,0.156,0.117,0.234
				c0.118,0.219,0.25,0.436,0.391,0.645c0.123,0.246,0.193,0.424,0.193,0.424c0.244,0.377,0.757,0.926,1.396,1.547l0.493,0.471
				c0.236,0.225,0,0,0.265,0.24c1.344,1.174,12.531,4.57,12.531,13.65"/>
		</g>
	</g>
</g>
</svg>
