<?xml version="1.0" encoding="utf-8"?>
<!-- Generator: Adobe Illustrator 16.0.0, SVG Export Plug-In . SVG Version: 6.00 Build 0)  -->
<!DOCTYPE svg PUBLIC "-//W3C//DTD SVG 1.1//EN" "http://www.w3.org/Graphics/SVG/1.1/DTD/svg11.dtd">
<svg version="1.1" id="Layer_1" xmlns="http://www.w3.org/2000/svg" xmlns:xlink="http://www.w3.org/1999/xlink" x="0px" y="0px"
	 width="365px" height="596px" viewBox="0 0 365 596" enable-background="new 0 0 365 596" xml:space="preserve">
<g>
	<rect fill="#FFFFFF" width="365" height="596"/>
	<g>
		<rect x="32.539" y="110.639" fill="#EADBCC" width="299.922" height="450.853"/>
	</g>
	<g>
		<defs>
			<rect id="SVGID_1_" x="32.537" y="108.688" width="299.924" height="450.854"/>
		</defs>
		<clipPath id="SVGID_2_">
			<use xlink:href="#SVGID_1_"  overflow="visible"/>
		</clipPath>
		<g clip-path="url(#SVGID_2_)">
			<path fill="#1C3187" d="M120.025,466.158c0,0-21.418,38.406-6.172,93.896h71.725c0,0-2.75-44.586,3.949-44.586
				c6.695,0,6.717,44.586,6.717,44.586h69.816c0,0,8.254-66.481-23.467-112.803s-66.887-18.899-72.303-17.922
				C164.875,430.307,120.025,466.158,120.025,466.158z"/>
			<g>
				<path fill="#E9C0C0" d="M164.605,332.914l24.018,52.834c0,0,13.199-21.285,21.904-53.434
					C210.527,332.314,175.035,316.188,164.605,332.914z"/>
				<path fill="#F6F0F0" d="M178.902,195.886c0,0,21.773-7.751,34.359,7.416c12.588,15.169,5.443,17.864,5.443,17.864l-54.773,3.709
					c0,0-31.639,3.371-14.287-18.879C149.645,205.996,161.211,189.143,178.902,195.886z"/>
				<path fill="none" d="M177.328,338.945c4.68,7.461,8.729,19.262,8.729,19.262c3.541,7.637,10.027-5.979,15.488-20.984
					l-17.381,1.014C184.164,338.236,179.811,339.491,177.328,338.945z"/>
				<g>
					<path fill="#EC7267" d="M274.342,217.396l-94.553-1.74l-101.486,1.74l4.279,128.326c0,0,9.746,0.051,22.938,0.189
						c27.293,0.289,69.344,0.942,70.428,2.256c0.301,0.364,0.787,0.593,1.379,0.723c2.529,0.554,6.969-0.723,6.969-0.723
						l17.721-1.037l60.559-3.529l13.984-0.816L274.342,217.396z"/>
					<path fill="#FFFFFF" d="M222.092,233.09c0,0-0.471,0.279-0.471,1.186c0,0.899,0.471,0.758,0.471,0.758h8.971l-0.74,7.358h1.553
						c0,0,1.148,0.067,1.283-1.735c0.131-1.799,0.535-6.278,1.803-6.381c0.008,0,0.01,0,0.016,0c1.281-0.07,0.877-0.836-0.34-0.836
						C233.426,233.439,222.092,233.09,222.092,233.09z"/>
					<path fill="#FFFFFF" d="M224.924,239.129l-0.605,4.301h-5.264c0,0-0.676,0.838,0,1.524c0.674,0.697,12.35,0.697,12.35,0.697
						s0.807-0.071,1.412-0.697c0.609-0.62,1.15-0.413,1.15-0.413s0.607-0.485,0-0.69l-6.816-0.212l0.541-4.51H224.924z"/>
					<path fill="#FFFFFF" d="M244.65,233.199h-5.93c-0.199-0.051-0.418-0.037-0.646,0.074c-1.615,0.786-3.453,3.172-2.451,5.07
						c0.586,1.113,1.578,1.584,2.656,1.676l0,0c3.643,0.499,5.131-0.959,5.764-2.32c0.041-0.086,0.074-0.18,0.107-0.26
						c0.018-0.047,0.031-0.088,0.043-0.135c0.393-1.188,0.02-2.168-0.061-2.479c-0.094-0.347-0.094-0.898,0.469-0.898
						c0.561,0,0.572-0.189,0.572-0.189C245.174,233.084,244.65,233.199,244.65,233.199z M239.766,238.067
						c-1.436,0-1.279-1.282-1.279-1.282c0-2.044,1.768-1.818,1.768-1.818c0.9,0,1.402,0.808,1.402,1.548
						C241.656,237.252,241.209,238.067,239.766,238.067z"/>
					<path fill="#FFFFFF" d="M249.439,241.26c0,0,0.084-0.188-0.633-0.188c-0.648,0-4.666-0.115-5.461-0.137
						c-0.016,0-0.031-0.005-0.047-0.005h-0.896c-1.646-0.146-3.248-0.026-4.906,0c-0.037,0-0.072,0.015-0.107,0.015
						c-0.146-0.063-0.332-0.07-0.535,0.017c-1.135,0.487-1.896,1.37-2.01,2.651c-0.021,0.225-0.008,0.43,0.031,0.621
						c-0.102,0.554,0.223,1.111,0.65,1.546c0.254,0.272,0.551,0.46,0.9,0.562c0.273,0.074,0.551,0.053,0.828,0.012
						c0.51,0.039,1.018,0.023,1.529-0.005c1.385,0.237,2.887,0.118,4.293,0.134c0.094,0.004,0.178-0.018,0.254-0.041
						c0.676,0.023,1.4,0.125,2.07,0.011c0.098,0.012,0.201,0.012,0.314-0.019c0.045-0.012,0.084-0.026,0.123-0.041
						c0.154,0.023,0.313,0.008,0.479-0.067c1.252-0.568,2.287-2.329,1.922-3.749l0,0c0,0,0,0-0.002-0.006
						c-0.029-0.096-0.059-0.196-0.1-0.287c-0.049-0.27-0.002-0.629,0.627-0.629C249.775,241.654,249.439,241.26,249.439,241.26z
						 M244.859,244.043c-0.162,0.15-0.395,0.255-0.645,0.335c-0.904,0.085-1.852-0.033-2.734-0.089
						c-0.652-0.047-1.305-0.092-1.961-0.118c-0.828-0.034-1.586,0.089-1.527-0.925c0.129-0.166,0.338-0.266,0.57-0.346
						c1.145,0.073,2.373,0.156,3.551,0.107c0.109,0.015,0.223,0.023,0.332,0.027c0.121,0.013,0.229-0.004,0.32-0.037
						c0.334,0.004,0.67,0.008,1.004,0.014c0.418,0.02,0.846-0.044,1.26,0.007c0.01,0.017,0.014,0.031,0.021,0.048
						c0.033,0.072,0.08,0.138,0.139,0.189C245.166,243.551,245.07,243.842,244.859,244.043z"/>
					<path fill="#FFFFFF" d="M259.762,233.854h-4.4c-3.293,0-4.014,3.771-4.014,3.771l-0.648,5.505c0,0-0.223,2.657,3.438,2.657
						c3.668,0,4.252-2.61,4.252-2.61s0.766-2.565,1.037-5.318c0.268-2.755-0.521-2.151-0.721-2.845
						c-0.203-0.699,1.033-0.555,1.033-0.555s0.293-0.027,0.293-0.279S259.762,233.854,259.762,233.854z M256.658,236.643
						l-1.078,6.352c0,0-0.113,1.177-1.283,1.177s-0.967-1.501-0.967-1.501s0.787-4.721,1.033-6.027
						c0.246-1.305,1.35-1.145,1.35-1.145C256.902,235.498,256.658,236.643,256.658,236.643z"/>
					<path fill="#FFFFFF" d="M262.303,233.173h3.777c0,0,0.357,0,0.357,0.367c0,0.364-0.334,0.344-0.334,0.344
						s-0.875-0.029-0.967,0.596c-0.09,0.624-1.574,10.015-1.574,10.015s-0.336,1.818-0.943,2.01h-2.184L262.303,233.173z"/>
					<path fill="#FFFFFF" d="M244.834,252.921h-4.402c-3.293,0-4.008,3.771-4.008,3.771l-0.654,5.509c0,0-0.227,2.656,3.441,2.656
						c3.664,0,4.25-2.609,4.25-2.609s0.762-2.57,1.035-5.322c0.266-2.75-0.52-2.152-0.723-2.846
						c-0.203-0.691,1.037-0.555,1.037-0.555s0.289-0.023,0.289-0.275S244.834,252.921,244.834,252.921z M241.727,255.713
						l-1.078,6.346c0,0-0.113,1.18-1.281,1.18c-1.17,0-0.967-1.5-0.967-1.5s0.783-4.715,1.037-6.025
						c0.244-1.303,1.348-1.146,1.348-1.146C241.973,254.566,241.727,255.713,241.727,255.713z"/>
					<path fill="#FFFFFF" d="M247.371,252.241h3.781c0,0,0.355,0,0.355,0.365c0,0.364-0.336,0.343-0.336,0.343
						s-0.877-0.028-0.967,0.604c-0.092,0.623-1.57,10.012-1.57,10.012s-0.338,1.822-0.949,2.01h-2.182L247.371,252.241z"/>
					<path fill="#FFFFFF" d="M263.695,253.026h3.223c0,0,0.303,0.003,0.303,0.231c0,0.229-0.285,0.217-0.285,0.217
						s-0.746-0.018-0.826,0.376c-0.074,0.396-1.344,6.294-1.344,6.294s-0.285,1.137-0.801,1.256h-1.859L263.695,253.026z"/>
					<path fill="#FFFFFF" d="M229.887,271.569h-4.396c-3.295,0-4.016,3.769-4.016,3.769l-0.652,5.502c0,0-0.221,2.657,3.441,2.657
						c3.666,0,4.254-2.608,4.254-2.608s0.764-2.568,1.033-5.317c0.268-2.756-0.52-2.153-0.719-2.847
						c-0.203-0.69,1.033-0.561,1.033-0.561s0.291-0.016,0.291-0.275C230.156,271.637,229.887,271.569,229.887,271.569z
						 M226.787,274.359l-1.082,6.34c0,0-0.115,1.182-1.283,1.182s-0.967-1.498-0.967-1.498s0.789-4.725,1.035-6.023
						c0.246-1.307,1.348-1.148,1.348-1.148C227.031,273.211,226.787,274.359,226.787,274.359z"/>
					<path fill="#FFFFFF" d="M232.43,270.882h3.779c0,0,0.357,0,0.357,0.365c0,0.364-0.338,0.34-0.338,0.34
						s-0.875-0.018-0.965,0.602c-0.09,0.627-1.574,10.019-1.574,10.019s-0.338,1.818-0.945,2.006h-2.182L232.43,270.882z"/>
					<path fill="#FFFFFF" d="M261.316,288.564h3.775c0,0,0.357,0,0.357,0.361c0,0.371-0.332,0.344-0.332,0.344
						s-0.877-0.025-0.971,0.603c-0.09,0.625-1.572,10.017-1.572,10.017s-0.338,1.818-0.945,2.004h-2.182L261.316,288.564z"/>
					<path fill="#FFFFFF" d="M217.621,270.166h3.777c0,0,0.355,0,0.355,0.369c0,0.365-0.332,0.344-0.332,0.344
						s-0.877-0.021-0.967,0.598c-0.09,0.627-1.574,10.018-1.574,10.018s-0.338,1.814-0.945,2.003h-2.18L217.621,270.166z"/>
					<path fill="#FFFFFF" d="M246.715,233.09h3.67c0,0,0.311-0.065,0.311,0.326c0,0-0.041,0.438-0.311,0.438
						c-0.271,0-1.107-0.16-1.107,0.723c0,0-0.107,0.294,0.564,0.294c0.676,0,1.172,0,1.172,0s-0.232,1.48-0.318,1.529
						c-0.086,0.045-1.371,0-1.371,0s-0.406-0.061-0.406,0.421c0,0.479,0.359,0.343,0.359,0.343h1.332l-0.16,1.711h-1.686
						c0,0-0.314,1.438-1.012,1.438s-1.869,0-1.869,0L246.715,233.09z"/>
					<path fill="#FFFFFF" d="M205.988,251.76h8.254c0,0,0.516-0.117,0.516,0.371c0,0.484-0.516,0.484-0.516,0.484h-0.406
						c0,0-0.447-0.049-0.447,0.295c0,0.354-0.453,0.63-1.17,0.63c-0.721,0-3.285,0-3.285,0s-0.383-0.049-0.383,0.39
						c0,0.445,0.406,0.49,0.406,0.49h4.879c0,0,0.385-0.024,0.385,0.277c0,0.298-0.385,0.141-0.385,0.141h-0.381
						c0,0-0.357,0.09-0.357,0.387c0,0.305-0.318,0.627-1.195,0.627c-0.873,0-3.193,0-3.193,0s-0.607-0.166-0.607,0.603
						c0,0.765,0.607,0.556,0.607,0.556h5.061c0,0,0.473-0.094,0.473,0.256c0,0.348-0.428,0.32-0.428,0.32h-0.65
						c0,0-0.295-0.092-0.496,0.28c-0.203,0.37-0.25,0.418-1.012,0.418c-0.766,0-6.277,0-6.277,0s-0.717,0.089-0.492-0.745
						C205.113,256.709,205.988,251.76,205.988,251.76z"/>
					<path fill="#FFFFFF" d="M214.152,254.236h2l0.359-2.385h3.354c0,0,0.629-0.07,0.629,0.301c0,0.368-0.281,0.293-0.281,0.293
						h-0.615c0,0-0.34-0.095-0.34,0.594c0,0.688-0.654,5.868-1.508,5.868c-0.852,0-2.271,0-2.271,0l0.473-3.03h-2.092
						L214.152,254.236z"/>
					<path fill="#FFFFFF" d="M211.828,274.644l1.787,0.101l0.572-4.587l2.996,0.164c0,0,0.572-0.099,0.535,0.612
						c-0.037,0.723-0.279,0.551-0.279,0.551l-0.553-0.033c0,0-0.295-0.184-0.367,1.141c-0.07,1.326-1.188,11.319-1.953,11.273
						c-0.768-0.039-2.033-0.113-2.033-0.113l0.736-5.836l-1.875-0.106L211.828,274.644z"/>
					<path fill="#FFFFFF" d="M258.395,255.726h1.578l0.283-2.792h2.65c0,0,0.496-0.084,0.496,0.35c0,0.432-0.223,0.338-0.223,0.338
						h-0.488c0,0-0.268-0.1-0.268,0.708c0,0.8-0.516,6.892-1.189,6.892c-0.676,0-1.791,0-1.791,0l0.369-3.559h-1.922
						L258.395,255.726z"/>
					<path fill="#FFFFFF" d="M243.086,290.986h2.467l0.322-2.422h3.014c0,0,0.566-0.069,0.566,0.307
						c0,0.378-0.256,0.298-0.256,0.298h-0.555c0,0-0.303-0.091-0.303,0.605c0,0.695-0.588,5.963-1.355,5.963
						c-0.77,0-2.043,0-2.043,0l0.428-3.077h-2.551L243.086,290.986z"/>
					<path fill="#FFFFFF" d="M205.697,259.067l-0.201,1.483h9.262c0,0,0.428-0.074,0.428,0.459c0,0.531-0.461,0.473-0.461,0.473
						h-9.346l-0.537,3.459h11.469c0,0,0.688,0.082,1.283-0.529c0,0,0.025-0.117,0.404-0.117c0.381,0,0.381,0,0.381,0
						s0.248-0.002,0.248-0.253c0-0.255-0.27-0.233-0.27-0.233h-10.1c0,0-0.516,0.097-0.516-0.484c0-0.58,0.473-0.462,0.473-0.462
						h8.637c0,0,0.852-0.093,0.852-1.483c0-1.387,0.496-1.387,0.744-1.387c0.246,0,0.629,0.116,0.629-0.297
						c0-0.423-0.607-0.301-0.607-0.301L205.697,259.067z"/>
					<path fill="#FFFFFF" d="M220.854,259.695l-0.201,1.477h9.268c0,0,0.426-0.07,0.426,0.465c0,0.533-0.459,0.475-0.459,0.475
						h-9.35l-0.535,3.458h11.469c0,0,0.684,0.075,1.279-0.538c0,0,0.025-0.11,0.408-0.11c0.381,0,0.381,0,0.381,0
						s0.246,0,0.246-0.252c0-0.257-0.271-0.238-0.271-0.238h-10.098c0,0-0.514,0.099-0.514-0.485c0-0.57,0.469-0.458,0.469-0.458
						h8.635c0,0,0.859-0.094,0.859-1.481c0-1.389,0.492-1.389,0.742-1.389c0.244,0,0.627,0.118,0.627-0.295
						c0-0.419-0.604-0.305-0.604-0.305L220.854,259.695z"/>
					<path fill="#FFFFFF" d="M259.223,253.026h-4.363c0,0-3.938-0.506-4.453,3.635c-0.484,3.876,4.215,3.356,4.215,3.356
						s2.982,0.051,3.838-3.703c0,0,0.156-0.568-0.008-1.229c-0.498-1.834,0.727-1.616,0.727-1.616s0.291,0.161,0.291-0.187
						C259.469,252.943,259.223,253.026,259.223,253.026z M256.07,256.2c-0.088,2.173-1.752,2.242-1.752,2.242
						s-1.348,0.022-1.348-1.687c0-2.059,1.598-2.131,1.598-2.131C256.209,254.445,256.07,256.2,256.07,256.2z"/>
					<path fill="#FFFFFF" d="M244.516,288.651h-4.881c0,0-4.404-0.478-4.98,3.432c-0.539,3.671,4.713,3.177,4.713,3.177
						s3.334,0.047,4.293-3.498c0,0,0.18-0.541-0.004-1.168c-0.563-1.729,0.811-1.521,0.811-1.521s0.326,0.151,0.326-0.176
						C244.793,288.564,244.516,288.651,244.516,288.651z M240.996,291.65c-0.102,2.055-1.965,2.125-1.965,2.125
						s-1.512,0.02-1.512-1.598c0-1.949,1.789-2.014,1.789-2.014C241.145,289.996,240.996,291.65,240.996,291.65z"/>
					<path fill="#FFFFFF" d="M221.098,252.241c0,0-0.279-0.099-0.279,0.785c0,0.883,0.279,0.834,0.279,0.834h4.393
						c0,0,0.74-0.042,0.469,0.79c-0.268,0.83-0.947,3.792-0.807,3.979c0.131,0.188,1.965,0,1.965,0s0.877,0.082,1.135-1.555
						c0.287-1.817,0.131-3.867,1.443-4.153c0,0,0.461,0.157,0.461-0.306s-0.697-0.382-0.697-0.382L221.098,252.241z"/>
					<path fill="#FFFFFF" d="M235.586,254.82l-0.289-0.018c0,0-0.453,0.018-0.879,0.018c-0.156,0-0.303-0.034-0.357-0.074
						c0.076-0.604,0.109-0.975,0.109-1.148c0-0.688,0.336-0.598,0.336-0.598h0.619c0,0,0.281,0.08,0.281-0.288
						c0-0.372-0.631-0.304-0.631-0.304h-3.352l-0.305,2.019l-0.275,2.007h0.018l-0.473,3.027c0,0,1.42,0,2.271,0
						c0.457,0,0.854-1.469,1.127-2.946c0.406-0.006,1.113-0.008,1.322,0.003c0.305,0.019,0.559-1.046,0.559-1.046
						C235.854,254.788,235.586,254.82,235.586,254.82z"/>
					<path fill="#FFFFFF" d="M265.945,276.135l-0.266-0.029c0,0-0.43,0.029-0.828,0.029c-0.145,0-0.287-0.059-0.34-0.135
						c0.076-1.129,0.104-2.505,0.104-2.834c0-1.282,0.314-1.125,0.314-1.125h0.586c0,0,0.266,0.156,0.266-0.539
						c0-0.693-0.596-0.568-0.596-0.568h-3.156l-0.283,3.787l-0.26,3.766h0.018l-1.068,6.021c0,0,1.332,0,2.137,0
						c0.43,0,1.426-3.103,1.684-5.869c0.379-0.004,1.047-0.016,1.244,0.004c0.293,0.034,0.525-1.283,0.525-1.283
						C266.201,276.082,265.945,276.135,265.945,276.135z"/>
					<path fill="#FFFFFF" d="M250.381,271.916c-1.211,0-12.549-0.347-12.549-0.347s-0.473,0.274-0.473,1.177
						c0,0.899,0.473,0.762,0.473,0.762h8.973l-0.299,2.974c-0.07,0.054-0.162,0.097-0.285,0.097c-0.357,0-8.588,0-8.588,0
						s-0.785-0.162-0.785,0.642c0,0.285,0,0.429,0,0.499c0,0-0.035,0.678,0.658,0.678c0.689,0,8.582,0,8.582,0
						s0.125,0.017,0.221,0.064l-0.246,2.404h1.553c0,0,1.148,0.066,1.283-1.732c0.133-1.797,0.537-6.279,1.803-6.387
						c0.006,0,0.01,0,0.02,0C252,272.679,251.598,271.916,250.381,271.916z"/>
					<path fill="#FFFFFF" d="M234.943,282.221c0,0-0.465-0.07-0.465,0.477c0,0.545,0,0.722,0,0.722s-0.006,0.606,0.465,0.606
						s11.977,0,11.977,0s1.23,0.137,1.854-0.801c0,0,0.018-0.327,0.559-0.327c0.535,0,0.707-0.019,0.707-0.331
						c0,0,0-0.209-0.232-0.209C249.57,282.357,234.943,282.221,234.943,282.221z"/>
					<path fill="#FFFFFF" d="M188.297,281.314c0,0-0.457-0.068-0.457,0.479c0,0.541,0,0.719,0,0.719s-0.01,0.605,0.457,0.605
						c0.469,0,11.84,0,11.84,0s1.217,0.139,1.838-0.797c0,0,0.018-0.331,0.547-0.331c0.537,0,0.699-0.015,0.699-0.331
						c0,0,0-0.205-0.23-0.205C202.756,281.453,188.297,281.314,188.297,281.314z"/>
					<path fill="#FFFFFF" d="M265.275,264.123c-0.143,0-6.088-0.074-9.943-0.131c-0.002,0-0.002,0-0.002,0
						c-0.336,0-0.389-0.334-0.396-0.555c0.109-1.779,0.711-1.674,0.711-1.674h0.639c0,0,0.352-0.105,0.352-0.363
						c0-0.257-0.336-0.18-0.336-0.18h-3.486c-1.215,0-1.104,3.092-1.104,3.092l0,0c-0.014,0.063-0.02,0.135-0.02,0.222
						c0,0.659,0,0.87,0,0.87s-0.01,0.737,0.41,0.737s10.621,0,10.621,0s1.092,0.166,1.643-0.966c0,0,0.014-0.4,0.496-0.4
						c0.475,0,0.629-0.02,0.629-0.4C265.488,264.375,265.488,264.123,265.275,264.123z"/>
					<path fill="#FFFFFF" d="M204.074,270.841c0,0-2.268,0-2.928,0c-0.662,0-0.602,0.623-0.602,0.623s-0.158,1.155-0.158,1.577
						c0,0.416-0.334,0.349-0.334,0.349s-6.119,0-6.299,0s-0.158-0.278-0.158-0.278l0.115-0.949c0-0.814,0.818-0.837,0.818-0.837
						s0.34,0,0.34-0.378c0-0.373-0.273-0.281-0.273-0.281h-2.967c-0.773,0-0.752,0.703-0.752,0.703s-1.059,6.314-1.059,7.057
						c0,0.741,0.516,0.582,0.516,0.582s9.939,0,11.043,0s1.172-1.201,1.172-1.201s0.832-5.207,0.832-5.785s0.875-0.507,0.875-0.507
						s0.361,0.021,0.361-0.369C204.617,270.748,204.074,270.841,204.074,270.841z M199.871,275.746l-0.133,1.264
						c0,0.622-0.539,0.491-0.539,0.491s-5.334,0-5.951,0c-0.619,0-0.459-0.665-0.459-0.665l0.178-1.322
						c0-0.744,0.744-0.673,0.744-0.673s5.057,0.093,5.689,0.093C200.029,274.934,199.871,275.746,199.871,275.746z"/>
					<path fill="#FFFFFF" d="M205.625,270.932h7.244c0,0,0.453-0.091,0.453,0.285c0,0.363-0.387,0.353-0.387,0.353
						s-1.01,0.011-1.01,0.729c0,0.715-0.652,4.301-0.652,4.301s-0.049,1.159-1.012,1.159c-0.965,0-2.744,0-2.744,0
						s-0.539-0.096-0.539,0.437l-0.453,2.66c0,0-0.156,0.738,0.229,0.738c0.381,0,4.928,0,4.928,0s0.287-0.09,0.287,0.21
						c0,0.304-0.268,0.279-0.268,0.279h-0.672c0,0-0.359-0.073-0.678,0.369c-0.314,0.438-0.402,0.554-1.035,0.554
						c-0.631,0-5.486,0-5.486,0s-0.496-0.043-0.34-0.625c0.156-0.577,0.947-5.73,0.947-5.73s-0.023-0.678,0.65-0.678
						c0.678,0,3.146,0,3.146,0s0.498,0.078,0.498-0.507l0.383-2.354c0,0,0.178-0.512-0.52-0.512h-2.809c0,0-0.564,0.096-0.564-0.465
						v-0.805C205.223,271.33,205.158,270.932,205.625,270.932z"/>
					<path fill="#FFFFFF" d="M251.91,272.041h8.256c0,0,0.766-0.157,0.766,0.441c0,0.602-0.609,0.629-0.609,0.629
						s-0.768-0.238-0.768,0.461c0,0.693-1.254,8.809-1.254,8.809s-0.141,1.412-1.148,1.412c-1.012,0-1.977,0-1.977,0l1.346-9.318
						c0,0,0.205-0.791-0.27-0.791c-0.471,0-4.203,0-4.203,0s-0.701,0.051-0.701-0.528c0-0.581,0-0.882,0-0.882
						S251.396,272.041,251.91,272.041z"/>
					<path fill="#FFFFFF" d="M250.66,289.169c0,0-0.527-0.069-0.527,0.546c0,0.609,0,0.725,0,0.725s0.033,0.51,0.527,0.51
						c0.5,0,1.33,0,1.33,0s0.4-0.066,0.242,0.369c-0.152,0.441-3.617,9.163-3.617,9.163s-0.428,0.552,0.426,0.552
						c0.852,0,1.846,0,1.846,0s0.336,0.067,0.514-0.508c0.186-0.578,2.611-6.869,2.611-6.869s0.271-0.74,0.271-0.212
						c0,0.536,0.359,7.265,0.359,7.265s0,0.33,0.336,0.33c0.338,0,2.271,0,2.271,0s0.227-0.006,0.158-0.471
						c-0.068-0.461-0.762-9.156-0.762-9.156s-0.025-0.463,0.246-0.463c0.27,0,0.74,0,0.74,0s0.49,0.072,1.281-0.739
						c0,0,0.068-0.302,0.787-0.302c0,0,0.428,0.027,0.428-0.416c0-0.323-0.402-0.301-0.402-0.301L250.66,289.169z"/>
					<path fill="#FFFFFF" d="M247.402,301.539c-0.295-0.601-1.441-3.764-1.441-3.764s-0.451-0.719,0.316-0.818
						c0.764-0.09,0.92-0.156,0.92-0.408c0-0.117-0.268-0.303-0.963-0.256h-2.521c0,0-0.902,0.069-1.463,1.084
						c-0.564,1.018-1.719,2.497-1.719,2.497s-0.529,0.632-0.305-0.136l0.422-2.217c0,0,0.074-0.674,0.568-0.674
						c0.492,0,0.652-0.141,0.652-0.393c0,0,0.154-0.162-0.699-0.162s-2.609,0-2.609,0s-0.471,0-0.471,0.555l-0.137,0.621
						c0,0-0.045,0.405-0.391,0.405c-0.352,0-0.574,0-0.574,0s-0.248,0.132-0.158-0.405l0.158-0.506c0,0,0.09-0.301,0.518-0.301
						c0,0,0.246-0.023,0.246-0.23c0-0.295-0.352-0.242-0.352-0.242l-2.133-0.025c0,0-0.863-0.195-0.863,0.566l-0.791,4.53
						c0,0-0.203,0.653,0.631,0.653s7.465,0,7.465,0s0.518,0.111,0.676-0.301c0.158-0.416,0.945-1.756,0.945-1.756
						s0.293-0.741,0.563,0.017c0.27,0.765,0.605,1.739,0.605,1.739s0.049,0.412,0.518,0.412c0.475,0,1.936,0,1.936,0
						S247.693,302.146,247.402,301.539z"/>
					<g>
						<g>
							<path fill="#FFFFFF" d="M108.758,301.51c3.789,4.793,12.176,2.621,12.176,2.621v0.567c0,2.103,0.934,1.733,1.43,1.798
								c0.498,0.063,0,0,0.25,0.384c0.248,0.38,1.986,0.256,2.299,0c0.311-0.258,0.682,0,0.682,0
								c1.555-0.192,1.182-2.557,1.182-2.557c3.293,0.766,8.947-0.961,9.381-1.341c0.438-0.385,0.561,0.128,0.561,0.128
								c-0.064,1.851,1.365,2.106,1.799,2.046c0.436-0.067,0.686,0.252,0.686,0.252c0.869,0.576,1.74,0,1.74,0
								s-0.063-0.319,0.621-0.319s1.305-0.191,1.676-1.532c0.371-1.344-0.621-1.981-1.553-2.301
								c-0.932-0.32-0.932-0.641-0.932-0.641c0.932-0.188,2.547-1.533,2.547-1.533c2.859,1.919,9.49,0.087,10.498,0.256
								c0.559,0.097,0.809,1.277,1.863,1.663c1.059,0.384,5.967,3.066,6.154-2.875c0.184-5.94-11.059-4.409-12.74-4.155
								c-1.676,0.259-2.855-1.598-2.855-1.598c1.18-2.363-0.311-6.262-0.311-6.262c2.67,1.15,4.721-1.659,3.666-4.727
								c-1.059-3.069-0.5-11.053,0.498-12.587c0.992-1.534,0.461-2.357,0.309-2.556c-0.047-0.063-0.271-0.302-0.475-0.162
								c-0.186,0.129-0.262-0.224-0.262-0.224c-0.266-0.646-0.678-0.464-0.879-0.397c-0.203,0.063-0.188-0.178-0.188-0.178
								c-0.123-0.572-0.807-0.384-0.807-0.384c1.059-1.214-0.559-5.367-0.746-6.194c-0.186-0.831,0.561-1.983,0.561-1.983
								s1.43-1.21,1.365-3.321c-0.061-2.111-5.279,0-5.467,0c-3.939,0-5.531-0.976-5.775-1.279
								c-0.473-0.584-3.416-2.618-5.283-3.705c-1.863-1.086-0.807,0.96-0.807,0.96c0.994,1.979,0,3.767,0,3.767
								c-3.914,2.049-4.039,6.904-4.039,6.904c-0.43,2.321-3.604,1.916-3.604,1.916c-15.719,1.343-17.146,23.066-18.514,27.668
								C104.096,294.229,104.967,296.718,108.758,301.51z M144.006,271.619c0.27-0.34,0.695-1.385,0.488-2.174
								c0,0-0.086-0.285,0.277-0.285s0.27,0.139,0.27,0.139s-0.373,2.063-0.24,2.577c0.135,0.509-0.35,0.274-0.35,0.274
								S143.734,271.959,144.006,271.619z"/>
							<path fill="#BB5A50" d="M148.301,267.392c0,0,0.695,0.064,0.602,0.842c0,0-0.02,0.146,0.072,0.245
								c0.092,0.094,0.207,0.52-0.082,0.763c-0.291,0.249-0.467-0.425-0.467-0.425s0.008-0.165-0.174-0.114
								c-0.17,0.044-0.447,0-0.594-0.158c-0.057-0.065-0.113-0.022-0.113,0.019c0,0.043-0.256,0.313-0.434,0.158
								c-0.145-0.122,0.021-0.604,0.27-0.711c0,0,0.125-0.044,0.145-0.16C147.525,267.85,147.719,267.314,148.301,267.392z"/>
							<path fill="#BB5A50" d="M146.967,265.934c0,0,0.291,0.033,0.291,0.681c0,0.756-0.416,0.478-0.416,0.478
								s-0.35-0.254-0.32-0.711C146.553,265.922,146.805,265.894,146.967,265.934z"/>
							<path fill="#BB5A50" d="M149.826,266.715c0,0-0.293,0.009-0.336,0.658c-0.053,0.757,0.381,0.51,0.381,0.51
								s0.369-0.232,0.369-0.693C150.24,266.732,149.992,266.682,149.826,266.715z"/>
							<path fill="#BB5A50" d="M149.152,265.822c0,0,0.357-0.006,0.178,0.719c-0.141,0.582-0.441,0.424-0.441,0.424
								s-0.326-0.146-0.164-0.681C148.889,265.748,149.152,265.822,149.152,265.822z"/>
							<path fill="#BB5A50" d="M147.951,265.571c0,0,0.32-0.083,0.396,0.623c0.066,0.597-0.283,0.544-0.283,0.544
								s-0.262-0.037-0.371-0.584C147.588,265.619,147.951,265.571,147.951,265.571z"/>
							<path fill="#8B3E3A" d="M140.322,256.565c0,0-0.428,0.396-0.846,0.634l0.158-0.881L140.322,256.565z"/>
							<path fill="#8B3E3A" d="M138.912,255.842c0,0-0.035,0.67-0.18,1.178l-0.434-0.986L138.912,255.842z"/>
							<path fill="#BB5A50" d="M139.48,255.746c0,0,1.336,0.207,1.055,0.639c0,0-0.092,0.193-0.34,0.207
								c-0.248,0.016-0.467-0.014-0.639,0.48c0,0-0.092,0.271-0.494,0.369c0,0-0.156,0.11-0.297-0.464
								c-0.141-0.575,0.063-0.783-0.467-0.944c0,0-0.186-0.158,0-0.287C138.486,255.619,139.352,255.724,139.48,255.746z"/>
						</g>
						<g>
							<g>
								<g>
									<path fill="#FFFFFF" d="M104.562,282.988c-0.519,0.472-0.932,1.03-1.373,1.572c-0.121,0.148,0.09,0.362,0.212,0.212
										c0.441-0.542,0.854-1.101,1.373-1.572C104.917,283.069,104.705,282.858,104.562,282.988L104.562,282.988z"/>
								</g>
							</g>
							<g>
								<g>
									<path fill="#FFFFFF" d="M126.84,249.26c-0.697-0.016-1.392-0.212-1.876-0.737c-0.131-0.143-0.343,0.07-0.212,0.212
										c0.537,0.582,1.315,0.808,2.088,0.825C127.033,249.564,127.033,249.265,126.84,249.26L126.84,249.26z"/>
								</g>
							</g>
							<g>
								<g>
									<path fill="#FFFFFF" d="M128.904,249.61c0.101,0.724-0.581,0.869-1.148,0.828c-0.193-0.014-0.192,0.286,0,0.3
										c0.813,0.06,1.565-0.294,1.438-1.208C129.167,249.339,128.878,249.421,128.904,249.61L128.904,249.61z"/>
								</g>
							</g>
							<g>
								<g>
									<path fill="#FFFFFF" d="M128.974,251.712c-1.05-0.694-2.286-0.727-3.505-0.728c-0.193,0-0.193,0.3,0,0.3
										c1.167,0.001,2.347,0.021,3.354,0.687C128.985,252.078,129.135,251.818,128.974,251.712L128.974,251.712z"/>
								</g>
							</g>
							<g>
								<g>
									<path fill="#FFFFFF" d="M136.322,245.325c0.312,0.254,0.601,0.534,0.916,0.785c0.149,0.12,0.363-0.091,0.212-0.212
										c-0.314-0.251-0.604-0.531-0.916-0.785C136.385,244.992,136.171,245.203,136.322,245.325L136.322,245.325z"/>
								</g>
							</g>
							<g>
								<g>
									<path fill="#FFFFFF" d="M137.684,243.146c0.263,1.061,0.929,1.912,1.714,2.648c0.141,0.132,0.354-0.08,0.212-0.212
										c-0.749-0.702-1.386-1.502-1.637-2.516C137.926,242.878,137.637,242.958,137.684,243.146L137.684,243.146z"/>
								</g>
							</g>
							<g>
								<g>
									<path fill="#FFFFFF" d="M159.36,253.839c-0.976,0.278-1.94,0.558-2.962,0.578c-0.193,0.004-0.193,0.304,0,0.3
										c1.049-0.021,2.04-0.303,3.042-0.588C159.626,254.075,159.547,253.786,159.36,253.839L159.36,253.839z"/>
								</g>
							</g>
							<g>
								<g>
									<path fill="#FFFFFF" d="M158.914,255.695c-0.864-0.481-1.792-0.777-2.756-0.984c-0.189-0.041-0.269,0.249-0.08,0.289
										c0.939,0.201,1.843,0.485,2.685,0.954C158.931,256.048,159.083,255.789,158.914,255.695L158.914,255.695z"/>
								</g>
							</g>
							<g>
								<g>
									<path fill="#FFFFFF" d="M161.548,258.13c-0.864,0.676-1.83,0.817-2.898,0.823c-0.193,0.001-0.193,0.301,0,0.3
										c1.159-0.006,2.178-0.182,3.11-0.911C161.913,258.223,161.699,258.013,161.548,258.13L161.548,258.13z"/>
								</g>
							</g>
							<g>
								<g>
									<path fill="#FFFFFF" d="M152.87,254.471c-0.076,0.724,0.113,1.39,0.489,2.007c0.101,0.165,0.36,0.014,0.259-0.151
										c-0.352-0.578-0.519-1.179-0.448-1.856C153.189,254.278,152.889,254.28,152.87,254.471L152.87,254.471z"/>
								</g>
							</g>
							<g>
								<g>
									<path fill="#FFFFFF" d="M156.133,262.417c0.902,0.436,1.673,1.128,2.665,1.367c0.188,0.045,0.268-0.244,0.08-0.289
										c-0.964-0.231-1.716-0.913-2.593-1.336C156.111,262.074,155.959,262.333,156.133,262.417L156.133,262.417z"/>
								</g>
							</g>
							<g>
								<g>
									<path fill="#FFFFFF" d="M158.539,261.936c0.582-0.279,1.21-0.375,1.843-0.467c0.19-0.028,0.109-0.317-0.08-0.289
										c-0.662,0.097-1.307,0.206-1.915,0.498C158.213,261.761,158.365,262.02,158.539,261.936L158.539,261.936z"/>
								</g>
							</g>
							<g>
								<g>
									<path fill="#FFFFFF" d="M160.075,267.534c1.058,0.61,2.001,1.498,3.227,1.75c0.189,0.039,0.27-0.25,0.08-0.289
										c-1.197-0.247-2.123-1.125-3.156-1.72C160.058,267.178,159.907,267.437,160.075,267.534L160.075,267.534z"/>
								</g>
							</g>
							<g>
								<g>
									<path fill="#FFFFFF" d="M161.503,266.775c0.426-0.076,0.847-0.088,1.278-0.088c0.193,0,0.193-0.3,0-0.3
										c-0.458,0-0.906,0.018-1.358,0.099C161.233,266.52,161.313,266.81,161.503,266.775L161.503,266.775z"/>
								</g>
							</g>
							<g>
								<g>
									<path fill="#FFFFFF" d="M162.781,264.564c0.479,0.013,0.921,0.112,1.366,0.284c0.181,0.07,0.258-0.221,0.08-0.289
										c-0.472-0.182-0.941-0.281-1.446-0.294C162.588,264.259,162.588,264.559,162.781,264.564L162.781,264.564z"/>
								</g>
							</g>
							<g>
								<g>
									<path fill="#FFFFFF" d="M163.476,259.63c0.662-0.243,1.321-0.013,1.984,0.102c0.189,0.033,0.271-0.256,0.08-0.289
										c-0.72-0.124-1.428-0.365-2.145-0.102C163.216,259.407,163.293,259.697,163.476,259.63L163.476,259.63z"/>
								</g>
							</g>
							<g>
								<g>
									<path fill="#FFFFFF" d="M161.916,252.864c0.555-0.308,1.034-0.881,1.656-1.045c0.187-0.049,0.107-0.339-0.08-0.289
										c-0.656,0.173-1.144,0.752-1.727,1.076C161.595,252.699,161.746,252.958,161.916,252.864L161.916,252.864z"/>
								</g>
							</g>
							<g>
								<g>
									<path fill="#FFFFFF" d="M161.977,279.894c0.184,0.846,0.37,1.69,0.66,2.508c0.064,0.181,0.354,0.103,0.289-0.08
										c-0.29-0.817-0.476-1.662-0.66-2.508C162.225,279.625,161.936,279.705,161.977,279.894L161.977,279.894z"/>
								</g>
							</g>
							<g>
								<g>
									<path fill="#FFFFFF" d="M162.763,287.349c-1.288-0.879-2.732-1.453-4.167-2.042c-0.179-0.074-0.256,0.217-0.08,0.289
										c1.412,0.581,2.829,1.147,4.095,2.012C162.772,287.717,162.922,287.458,162.763,287.349L162.763,287.349z"/>
								</g>
							</g>
							<g>
								<g>
									<path fill="#FFFFFF" d="M157.09,278.89c-0.001,0.392-0.028,0.753-0.18,1.119c-0.075,0.179,0.216,0.256,0.289,0.08
										c0.164-0.394,0.189-0.777,0.191-1.199C157.391,278.696,157.091,278.696,157.09,278.89L157.09,278.89z"/>
								</g>
							</g>
							<g>
								<g>
									<path fill="#FFFFFF" d="M154.088,275.703c0.013,0.763,0.277,1.706-0.331,2.308c-0.138,0.136,0.074,0.348,0.212,0.212
										c0.687-0.68,0.434-1.653,0.419-2.52C154.385,275.51,154.085,275.51,154.088,275.703L154.088,275.703z"/>
								</g>
							</g>
							<g>
								<g>
									<path fill="#FFFFFF" d="M153.359,285.916c0.208,0.479,0.539,0.857,0.993,1.116c0.168,0.096,0.319-0.163,0.151-0.259
										c-0.414-0.236-0.697-0.574-0.886-1.009C153.541,285.587,153.283,285.74,153.359,285.916L153.359,285.916z"/>
								</g>
							</g>
							<g>
								<g>
									<path fill="#FFFFFF" d="M152.738,284.061c0.122,0.05,0.243,0.099,0.365,0.148c0.147,0.123,0.361-0.088,0.212-0.212
										c-0.179-0.149-0.346-0.21-0.577-0.236C152.546,283.739,152.548,284.039,152.738,284.061L152.738,284.061z"/>
								</g>
							</g>
							<g>
								<g>
									<path fill="#FFFFFF" d="M156.384,273.203c0.321,0.315,0.664,0.579,1.097,0.714c0.185,0.058,0.264-0.231,0.08-0.289
										c-0.384-0.121-0.681-0.359-0.965-0.637C156.458,272.855,156.246,273.067,156.384,273.203L156.384,273.203z"/>
								</g>
							</g>
							<g>
								<g>
									<path fill="#FFFFFF" d="M159.068,270.919c0.112,0.295,0.265,0.572,0.377,0.867c0.068,0.179,0.358,0.102,0.289-0.08
										c-0.112-0.295-0.265-0.572-0.377-0.867C159.29,270.66,159,270.737,159.068,270.919L159.068,270.919z"/>
								</g>
							</g>
							<g>
								<g>
									<path fill="#FFFFFF" d="M157.019,266.899c0.099,0.224,0.183,0.454,0.283,0.678c0.079,0.176,0.337,0.023,0.259-0.151
										c-0.1-0.224-0.184-0.454-0.283-0.678C157.2,266.571,156.941,266.724,157.019,266.899L157.019,266.899z"/>
								</g>
							</g>
							<g>
								<g>
									<path fill="#FFFFFF" d="M154.511,266.643c0.345,0.435,0.717,0.846,1.008,1.321c0.101,0.165,0.36,0.014,0.259-0.151
										c-0.304-0.497-0.693-0.927-1.055-1.382C154.603,266.279,154.392,266.493,154.511,266.643L154.511,266.643z"/>
								</g>
							</g>
							<g>
								<g>
									<path fill="#FFFFFF" d="M154.094,266.783c-0.099,0.322-0.181,0.648-0.279,0.97c-0.057,0.186,0.233,0.264,0.289,0.08
										c0.099-0.322,0.181-0.648,0.279-0.97C154.439,266.678,154.15,266.599,154.094,266.783L154.094,266.783z"/>
								</g>
							</g>
							<g>
								<g>
									<path fill="#FFFFFF" d="M165.582,278.996c1.057,1.072,2.232,2.023,3.193,3.187c0.123,0.149,0.334-0.064,0.212-0.212
										c-0.961-1.164-2.136-2.115-3.193-3.187C165.658,278.646,165.445,278.858,165.582,278.996L165.582,278.996z"/>
								</g>
							</g>
							<g>
								<g>
									<path fill="#FFFFFF" d="M128.403,254.359c-0.904-0.207-1.839-0.18-2.742-0.39c-0.188-0.044-0.269,0.246-0.08,0.289
										c0.904,0.21,1.838,0.183,2.742,0.39C128.512,254.691,128.592,254.402,128.403,254.359L128.403,254.359z"/>
								</g>
							</g>
							<g>
								<g>
									<path fill="#FFFFFF" d="M125.314,257.121c-0.986-0.533-2.047-0.901-2.864-1.699c-0.138-0.135-0.351,0.077-0.212,0.212
										c0.835,0.817,1.915,1.2,2.925,1.746C125.333,257.472,125.484,257.212,125.314,257.121L125.314,257.121z"/>
								</g>
							</g>
							<g>
								<g>
									<path fill="#FFFFFF" d="M120.858,258.439c-0.54-0.168-1.062-0.384-1.602-0.549c-0.186-0.057-0.264,0.233-0.08,0.289
										c0.54,0.166,1.063,0.381,1.602,0.549C120.964,258.786,121.042,258.497,120.858,258.439L120.858,258.439z"/>
								</g>
							</g>
							<g>
								<g>
									<path fill="#FFFFFF" d="M117.391,256.929c0.193,0,0.193-0.3,0-0.3S117.197,256.929,117.391,256.929L117.391,256.929z"/>
								</g>
							</g>
							<g>
								<g>
									<path fill="#FFFFFF" d="M118.295,258.464c-0.188-0.772-0.628-1.53-1.257-2.025c-0.15-0.118-0.364,0.092-0.212,0.212
										c0.591,0.465,1.002,1.167,1.18,1.893C118.052,258.731,118.341,258.652,118.295,258.464L118.295,258.464z"/>
								</g>
							</g>
							<g>
								<g>
									<path fill="#FFFFFF" d="M119.523,259.785c-0.829-0.4-1.542-0.97-2.257-1.543c-0.149-0.12-0.363,0.091-0.212,0.212
										c0.733,0.588,1.466,1.179,2.317,1.59C119.545,260.127,119.697,259.869,119.523,259.785L119.523,259.785z"/>
								</g>
							</g>
							<g>
								<g>
									<path fill="#FFFFFF" d="M101.229,289.796c-0.269-0.733-0.837-1.211-1.412-1.71c-0.145-0.126-0.358,0.085-0.212,0.212
										c0.527,0.458,1.086,0.901,1.334,1.579C101.005,290.056,101.295,289.978,101.229,289.796L101.229,289.796z"/>
								</g>
							</g>
							<g>
								<g>
									<path fill="#FFFFFF" d="M113.608,254.481c-0.639-0.514-1.742-0.638-2.345,0c-0.133,0.14,0.079,0.353,0.212,0.212
										c0.483-0.511,1.406-0.414,1.921,0C113.545,254.813,113.759,254.602,113.608,254.481L113.608,254.481z"/>
								</g>
							</g>
							<g>
								<g>
									<path fill="#FFFFFF" d="M113.233,258.281c-1.271,0.419-1.266,2.099-0.942,3.164c0.056,0.185,0.346,0.105,0.289-0.08
										c-0.269-0.886-0.361-2.434,0.733-2.795C113.496,258.51,113.418,258.22,113.233,258.281L113.233,258.281z"/>
								</g>
							</g>
							<g>
								<g>
									<path fill="#FFFFFF" d="M111.036,261.303c-0.818-0.12-1.305-0.809-1.915-1.293c-0.15-0.119-0.363,0.092-0.212,0.212
										c0.65,0.517,1.173,1.243,2.046,1.371C111.146,261.62,111.227,261.331,111.036,261.303L111.036,261.303z"/>
								</g>
							</g>
							<g>
								<g>
									<path fill="#FFFFFF" d="M104.442,264.732c-0.049,0.978-1.141,1.423-1.947,1.66c-0.185,0.054-0.106,0.344,0.08,0.289
										c0.953-0.28,2.11-0.817,2.167-1.949C104.751,264.539,104.451,264.54,104.442,264.732L104.442,264.732z"/>
								</g>
							</g>
							<g>
								<g>
									<path fill="#FFFFFF" d="M104.241,266.899c-0.784-0.985-2.109-1.2-3.269-1.45c-0.189-0.041-0.269,0.249-0.08,0.289
										c1.111,0.239,2.387,0.43,3.137,1.373C104.149,267.262,104.36,267.048,104.241,266.899L104.241,266.899z"/>
								</g>
							</g>
							<g>
								<g>
									<path fill="#FFFFFF" d="M99.358,278.58c-0.799-0.619-1.793-0.867-2.622-1.434c-0.16-0.11-0.31,0.15-0.151,0.259
										c0.806,0.552,1.785,0.786,2.562,1.387C99.297,278.909,99.511,278.698,99.358,278.58L99.358,278.58z"/>
								</g>
							</g>
							<g>
								<g>
									<path fill="#FFFFFF" d="M104.486,275.048c-0.08,0.04-0.159,0.08-0.239,0.12c-0.188,0.045-0.108,0.334,0.08,0.289
										c0.149-0.036,0.252-0.102,0.371-0.197C104.849,275.14,104.635,274.929,104.486,275.048L104.486,275.048z"/>
								</g>
							</g>
							<g>
								<g>
									<path fill="#FFFFFF" d="M107.032,275.786c-0.065,1.23-2.081,0.878-2.897,0.871c-0.193-0.002-0.193,0.298,0,0.3
										c1.019,0.01,3.117,0.342,3.197-1.17C107.342,275.593,107.042,275.594,107.032,275.786L107.032,275.786z"/>
								</g>
							</g>
							<g>
								<g>
									<path fill="#FFFFFF" d="M106.151,277.834c-0.633,0.162-1.288,0.319-1.744,0.82c-0.13,0.143,0.082,0.355,0.212,0.212
										c0.42-0.461,1.03-0.594,1.612-0.743C106.418,278.075,106.339,277.786,106.151,277.834L106.151,277.834z"/>
								</g>
							</g>
							<g>
								<g>
									<path fill="#FFFFFF" d="M152.164,250.911c0.384,0.405,0.72,0.843,1.01,1.319c0.1,0.165,0.36,0.014,0.259-0.151
										c-0.303-0.499-0.655-0.957-1.057-1.38C152.242,250.558,152.03,250.771,152.164,250.911L152.164,250.911z"/>
								</g>
							</g>
							<g>
								<g>
									<path fill="#FFFFFF" d="M160.657,248.971c-0.047,0.924-1.111,1.223-1.859,1.4c-0.188,0.044-0.108,0.334,0.08,0.289
										c0.902-0.214,2.023-0.606,2.079-1.689C160.966,248.777,160.667,248.778,160.657,248.971L160.657,248.971z"/>
								</g>
							</g>
							<g>
								<g>
									<path fill="#FFFFFF" d="M154.41,295.02c0.296,0.296,0.617,0.565,0.914,0.861c0.137,0.137,0.349-0.075,0.212-0.212
										c-0.296-0.296-0.617-0.565-0.914-0.861C154.484,294.671,154.272,294.883,154.41,295.02L154.41,295.02z"/>
								</g>
							</g>
							<g>
								<g>
									<path fill="#FFFFFF" d="M152.123,294.157c0.123,0.144,0.2,0.275,0.281,0.44c0.085,0.174,0.344,0.021,0.259-0.151
										c-0.091-0.186-0.193-0.344-0.328-0.501C152.208,293.798,151.997,294.011,152.123,294.157L152.123,294.157z"/>
								</g>
							</g>
							<g>
								<g>
									<path fill="#FFFFFF" d="M151.896,307.021c-1.091-0.438-2.22-0.757-3.35-1.075c-0.187-0.053-0.266,0.236-0.08,0.289
										c1.13,0.318,2.259,0.639,3.35,1.075C151.995,307.382,152.073,307.092,151.896,307.021L151.896,307.021z"/>
								</g>
							</g>
							<g>
								<g>
									<path fill="#FFFFFF" d="M151.571,304.883c-0.445,0.337-0.917,0.635-1.361,0.972c-0.152,0.115-0.003,0.376,0.151,0.26
										c0.444-0.337,0.917-0.636,1.361-0.972C151.875,305.027,151.725,304.767,151.571,304.883L151.571,304.883z"/>
								</g>
							</g>
							<g>
								<g>
									<path fill="#FFFFFF" d="M159.979,307.559c-0.716,0.098-1.436,0.104-2.157,0.104c-0.193,0-0.193,0.301,0,0.301
										c0.75-0.001,1.494-0.013,2.237-0.115C160.25,307.821,160.169,307.532,159.979,307.559L159.979,307.559z"/>
								</g>
							</g>
							<g>
								<g>
									<path fill="#FFFFFF" d="M156.775,308.844c-1.361,0-2.723,0-4.084,0c-0.193,0-0.193,0.301,0,0.301c1.361,0,2.723,0,4.084,0
										C156.969,309.145,156.969,308.844,156.775,308.844L156.775,308.844z"/>
								</g>
							</g>
							<g>
								<g>
									<path fill="#FFFFFF" d="M154.851,312.299c-1.176,0.325-2.358,0.624-3.557,0.857c-0.189,0.037-0.109,0.326,0.08,0.289
										c1.198-0.233,2.38-0.532,3.557-0.857C155.117,312.536,155.038,312.247,154.851,312.299L154.851,312.299z"/>
								</g>
							</g>
							<g>
								<g>
									<path fill="#FFFFFF" d="M159.916,312.933c-1.668,0.016-3.329,0.18-4.985-0.1c-0.189-0.032-0.271,0.257-0.08,0.289
										c1.685,0.284,3.368,0.126,5.065,0.111C160.109,313.231,160.109,312.932,159.916,312.933L159.916,312.933z"/>
								</g>
							</g>
							<g>
								<g>
									<path fill="#FFFFFF" d="M156.214,314.664c-1.062,0.197-2.135,0.107-3.208,0.1c-0.193-0.001-0.193,0.299,0,0.301
										c1.101,0.007,2.198,0.091,3.288-0.111C156.484,314.918,156.403,314.629,156.214,314.664L156.214,314.664z"/>
								</g>
							</g>
							<g>
								<g>
									<path fill="#FFFFFF" d="M147.174,313.708c-2.577,1.26-5.802,0.052-8.508-0.126c-0.193-0.013-0.192,0.288,0,0.301
										c2.757,0.181,6.022,1.373,8.66,0.085C147.5,313.883,147.347,313.624,147.174,313.708L147.174,313.708z"/>
								</g>
							</g>
							<g>
								<g>
									<path fill="#FFFFFF" d="M143.377,311.43c-0.594,0-1.188,0-1.781,0c-0.193,0-0.193,0.301,0,0.301c0.594,0,1.188,0,1.781,0
										C143.57,311.73,143.57,311.43,143.377,311.43L143.377,311.43z"/>
								</g>
							</g>
							<g>
								<g>
									<path fill="#FFFFFF" d="M146.518,309.92c-0.82,0.098-1.642,0.134-2.446,0.332c-0.188,0.046-0.108,0.336,0.08,0.289
										c0.778-0.191,1.573-0.228,2.366-0.32C146.708,310.198,146.709,309.897,146.518,309.92L146.518,309.92z"/>
								</g>
							</g>
							<g>
								<g>
									<path fill="#FFFFFF" d="M136.885,316.92c-0.958-0.022-1.878-0.313-2.824-0.432c-0.191-0.023-0.189,0.276,0,0.301
										c0.948,0.119,1.865,0.408,2.824,0.432C137.078,317.225,137.078,316.925,136.885,316.92L136.885,316.92z"/>
								</g>
							</g>
							<g>
								<g>
									<path fill="#FFFFFF" d="M135.684,313.083c-0.907-0.008-1.8-0.118-2.685-0.313c-0.188-0.042-0.269,0.247-0.08,0.289
										c0.911,0.201,1.832,0.316,2.765,0.325C135.877,313.385,135.877,313.085,135.684,313.083L135.684,313.083z"/>
								</g>
							</g>
							<g>
								<g>
									<path fill="#FFFFFF" d="M134.466,312.121c-0.841-0.194-1.692-0.214-2.552-0.215c-0.193,0-0.193,0.301,0,0.301
										c0.833,0,1.656,0.016,2.472,0.203C134.574,312.454,134.654,312.164,134.466,312.121L134.466,312.121z"/>
								</g>
							</g>
							<g>
								<g>
									<path fill="#FFFFFF" d="M133.064,310.285c-1.116,0-2.232,0-3.348,0c-0.193,0-0.193,0.301,0,0.301c1.116,0,2.232,0,3.348,0
										C133.258,310.586,133.258,310.285,133.064,310.285L133.064,310.285z"/>
								</g>
							</g>
							<g>
								<g>
									<path fill="#FFFFFF" d="M129.757,310.508c-1.242-0.415-2.496-0.734-3.812-0.759c-0.193-0.003-0.193,0.297,0,0.301
										c1.29,0.023,2.515,0.341,3.731,0.747C129.861,310.858,129.939,310.568,129.757,310.508L129.757,310.508z"/>
								</g>
							</g>
							<g>
								<g>
									<path fill="#FFFFFF" d="M126.405,308.896c-1.122-0.32-2.308-0.322-3.358,0.227c-0.171,0.09-0.02,0.349,0.151,0.26
										c0.98-0.513,2.083-0.495,3.126-0.197C126.512,309.239,126.591,308.949,126.405,308.896L126.405,308.896z"/>
								</g>
							</g>
							<g>
								<g>
									<path fill="#FFFFFF" d="M130.447,312.98c-1.102-0.006-2.244-0.105-3.284,0.33c-0.175,0.073-0.099,0.364,0.08,0.289
										c1.016-0.425,2.128-0.325,3.204-0.318C130.641,313.282,130.641,312.982,130.447,312.98L130.447,312.98z"/>
								</g>
							</g>
							<g>
								<g>
									<path fill="#FFFFFF" d="M124.073,314.883c-1.128,0.416-2.344,0.218-3.517,0.204c-0.193-0.002-0.193,0.298,0,0.301
										c1.2,0.013,2.442,0.21,3.597-0.216C124.333,315.105,124.255,314.815,124.073,314.883L124.073,314.883z"/>
								</g>
							</g>
							<g>
								<g>
									<path fill="#FFFFFF" d="M135.996,311.039c-1.173,0.001-2.338,0.021-3.497,0.224c-0.19,0.033-0.109,0.322,0.08,0.289
										c1.132-0.197,2.271-0.212,3.417-0.212C136.189,311.34,136.189,311.039,135.996,311.039L135.996,311.039z"/>
								</g>
							</g>
							<g>
								<g>
									<path fill="#FFFFFF" d="M117.894,314.051c-0.462,0.139-0.931,0.15-1.409,0.15c-0.193,0.001-0.193,0.301,0,0.301
										c0.506-0.001,1.001-0.016,1.489-0.162C118.158,314.284,118.08,313.995,117.894,314.051L117.894,314.051z"/>
								</g>
							</g>
							<g>
								<g>
									<path fill="#FFFFFF" d="M118.391,315.3c-0.583-0.069-1.166-0.079-1.752-0.08c-0.193,0-0.193,0.3,0,0.301
										c0.586,0,1.169,0.01,1.752,0.08C118.583,315.623,118.58,315.323,118.391,315.3L118.391,315.3z"/>
								</g>
							</g>
							<g>
								<g>
									<path fill="#FFFFFF" d="M118.2,315.934c-0.991-0.155-1.981-0.313-2.971-0.472c-0.189-0.03-0.271,0.259-0.08,0.289
										c0.99,0.159,1.98,0.317,2.971,0.472C118.31,316.252,118.391,315.963,118.2,315.934L118.2,315.934z"/>
								</g>
							</g>
							<g>
								<g>
									<path fill="#FFFFFF" d="M112.523,313.014c0.921-0.039,1.736,0.588,2.514,1.001c0.171,0.09,0.322-0.169,0.151-0.26
										c-0.827-0.438-1.685-1.083-2.666-1.042C112.331,312.722,112.33,313.021,112.523,313.014L112.523,313.014z"/>
								</g>
							</g>
							<g>
								<g>
									<path fill="#FFFFFF" d="M117.324,316.946c-0.688-0.006-1.373-0.071-2.061-0.078c-0.193-0.002-0.193,0.299,0,0.301
										c0.688,0.006,1.373,0.071,2.061,0.078C117.518,317.249,117.518,316.948,117.324,316.946L117.324,316.946z"/>
								</g>
							</g>
							<g>
								<g>
									<path fill="#FFFFFF" d="M116.286,317.54c-0.592-0.559-1.379-0.665-2.165-0.672c-0.193-0.001-0.193,0.299,0,0.301
										c0.702,0.005,1.419,0.08,1.953,0.584C116.214,317.885,116.427,317.674,116.286,317.54L116.286,317.54z"/>
								</g>
							</g>
							<g>
								<g>
									<path fill="#FFFFFF" d="M114.885,318.436c-0.905,0.009-2.727,0.353-3.3-0.553c-0.103-0.162-0.363-0.012-0.259,0.152
										c0.668,1.055,2.521,0.71,3.559,0.701C115.078,318.734,115.078,318.435,114.885,318.436L114.885,318.436z"/>
								</g>
							</g>
							<g>
								<g>
									<path fill="#FFFFFF" d="M112.066,313.887c-0.95,0.018-1.877,0.225-2.82,0.314c-0.191,0.019-0.192,0.318,0,0.301
										c0.942-0.091,1.871-0.298,2.82-0.314C112.26,314.184,112.26,313.884,112.066,313.887L112.066,313.887z"/>
								</g>
							</g>
							<g>
								<g>
									<path fill="#FFFFFF" d="M108.056,310.186c-1.356-0.24-2.408-1.071-2.864-2.384c-0.063-0.182-0.353-0.104-0.289,0.08
										c0.489,1.407,1.61,2.334,3.073,2.593C108.165,310.508,108.246,310.219,108.056,310.186L108.056,310.186z"/>
								</g>
							</g>
							<g>
								<g>
									<path fill="#FFFFFF" d="M108.559,307.175c-0.746-0.698-1.782-0.51-2.705-0.721c-0.188-0.043-0.269,0.246-0.08,0.289
										c0.851,0.195,1.889,0.004,2.573,0.645C108.488,307.52,108.701,307.308,108.559,307.175L108.559,307.175z"/>
								</g>
							</g>
							<g>
								<g>
									<path fill="#FFFFFF" d="M101.457,309.84c-1.223-0.119-2.571-0.179-3.622-0.888c-0.161-0.108-0.311,0.152-0.151,0.26
										c1.095,0.737,2.498,0.804,3.773,0.929C101.649,310.159,101.648,309.859,101.457,309.84L101.457,309.84z"/>
								</g>
							</g>
							<g>
								<g>
									<path fill="#FFFFFF" d="M100.666,308.592c-1.016-0.107-2.029-0.225-2.999-0.561c-0.184-0.063-0.262,0.227-0.08,0.289
										c0.995,0.345,2.037,0.461,3.079,0.572C100.858,308.912,100.856,308.612,100.666,308.592L100.666,308.592z"/>
								</g>
							</g>
							<g>
								<g>
									<path fill="#FFFFFF" d="M99.438,305.771c-1.446,0.245-2.833,0.695-4.23,1.132c-0.184,0.058-0.105,0.347,0.08,0.289
										c1.396-0.437,2.784-0.887,4.23-1.132C99.709,306.027,99.628,305.738,99.438,305.771L99.438,305.771z"/>
								</g>
							</g>
							<g>
								<g>
									<path fill="#FFFFFF" d="M96.068,304.452c-0.445,0.475-1.021,0.742-1.653,0.87c-0.189,0.038-0.109,0.327,0.08,0.289
										c0.679-0.138,1.307-0.438,1.785-0.946C96.412,304.523,96.201,304.312,96.068,304.452L96.068,304.452z"/>
								</g>
							</g>
							<g>
								<g>
									<path fill="#FFFFFF" d="M98.457,297.902c-0.329,0.303-0.722,0.419-1.145,0.526c-0.188,0.047-0.108,0.336,0.08,0.289
										c0.479-0.121,0.909-0.263,1.277-0.603C98.811,297.982,98.598,297.771,98.457,297.902L98.457,297.902z"/>
								</g>
							</g>
							<g>
								<g>
									<path fill="#FFFFFF" d="M96.323,292.923c-0.012,0.587-0.14,1.102-0.421,1.619c-0.093,0.17,0.167,0.321,0.259,0.151
										c0.305-0.559,0.449-1.135,0.462-1.77C96.626,292.729,96.327,292.729,96.323,292.923L96.323,292.923z"/>
								</g>
							</g>
							<g>
								<g>
									<path fill="#FFFFFF" d="M96.323,284.104c0.158,1.263-1.115,1.761-2.159,1.887c-0.189,0.023-0.192,0.323,0,0.3
										c1.195-0.144,2.639-0.748,2.458-2.187C96.599,283.914,96.299,283.912,96.323,284.104L96.323,284.104z"/>
								</g>
							</g>
						</g>
					</g>
					<g>
						<g>
							<path fill="#FFFFFF" d="M203.372,310.688c0.813-0.327,1.655-0.567,2.5-0.803c0.186-0.052,0.106-0.341-0.08-0.289
								c-0.844,0.235-1.686,0.476-2.5,0.803C203.115,310.47,203.192,310.76,203.372,310.688L203.372,310.688z"/>
						</g>
					</g>
					<g>
						<g>
							<path fill="#FFFFFF" d="M203.41,309.063c0.333,0.251,0.684,0.478,1.018,0.727c0.156,0.115,0.305-0.146,0.152-0.26
								c-0.335-0.249-0.686-0.475-1.018-0.727C203.408,308.688,203.259,308.948,203.41,309.063L203.41,309.063z"/>
						</g>
					</g>
					<g>
						<g>
							<path fill="#FFFFFF" d="M197.196,311.091c0.56,0.076,1.117,0.088,1.681,0.089c0.193,0,0.193-0.3,0-0.301
								c-0.536,0-1.069-0.005-1.601-0.077C197.087,310.776,197.006,311.065,197.196,311.091L197.196,311.091z"/>
						</g>
					</g>
					<g>
						<g>
							<path fill="#FFFFFF" d="M201.026,314.626c0.879,0.242,1.761,0.47,2.656,0.64c0.189,0.036,0.27-0.253,0.08-0.289
								c-0.896-0.17-1.778-0.397-2.656-0.64C200.92,314.285,200.84,314.574,201.026,314.626L201.026,314.626z"/>
						</g>
					</g>
					<g>
						<g>
							<path fill="#FFFFFF" d="M200.011,316.395c0.816,0.15,1.638,0.091,2.462,0.086c0.193-0.002,0.193-0.302,0-0.301
								c-0.796,0.006-1.594,0.07-2.382-0.074C199.901,316.07,199.82,316.359,200.011,316.395L200.011,316.395z"/>
						</g>
					</g>
					<g>
						<g>
							<path fill="#FFFFFF" d="M209.66,313.986c0.442,0,0.886,0,1.328,0c0.193,0,0.193-0.301,0-0.301c-0.442,0-0.886,0-1.328,0
								C209.467,313.686,209.467,313.986,209.66,313.986L209.66,313.986z"/>
						</g>
					</g>
					<g>
						<g>
							<path fill="#FFFFFF" d="M214.504,318.086c0.73-0.02,1.431-0.229,2.151-0.327c0.19-0.025,0.109-0.314-0.08-0.289
								c-0.693,0.094-1.368,0.297-2.071,0.315C214.311,317.791,214.311,318.091,214.504,318.086L214.504,318.086z"/>
						</g>
					</g>
					<g>
						<g>
							<path fill="#FFFFFF" d="M219.975,315.837c0.7-0.009,1.388-0.097,2.071-0.249c0.188-0.042,0.108-0.331-0.08-0.289
								c-0.657,0.146-1.317,0.23-1.991,0.237C219.781,315.539,219.781,315.839,219.975,315.837L219.975,315.837z"/>
						</g>
					</g>
					<g>
						<g>
							<path fill="#FFFFFF" d="M220.952,315.107c0.607-0.142,1.217-0.155,1.837-0.155c0.193-0.001,0.193-0.301,0-0.301
								c-0.647,0.001-1.283,0.02-1.917,0.167C220.684,314.862,220.764,315.151,220.952,315.107L220.952,315.107z"/>
						</g>
					</g>
					<g>
						<g>
							<path fill="#FFFFFF" d="M224.468,313.903c0.904-0.305,1.815-0.539,2.774-0.556c0.193-0.004,0.193-0.304,0-0.301
								c-0.985,0.018-1.925,0.254-2.854,0.567C224.206,313.676,224.284,313.966,224.468,313.903L224.468,313.903z"/>
						</g>
					</g>
					<g>
						<g>
							<path fill="#FFFFFF" d="M223.881,315.758c0.801-0.005,1.625-0.076,2.382,0.234c0.179,0.073,0.256-0.217,0.08-0.289
								c-0.781-0.321-1.636-0.251-2.462-0.246C223.688,315.459,223.688,315.759,223.881,315.758L223.881,315.758z"/>
						</g>
					</g>
					<g>
						<g>
							<path fill="#FFFFFF" d="M223.997,316.556c0.866,0.317,1.798,0.173,2.698,0.163c0.193-0.003,0.193-0.303,0-0.301
								c-0.873,0.01-1.778,0.156-2.618-0.151C223.895,316.2,223.817,316.49,223.997,316.556L223.997,316.556z"/>
						</g>
					</g>
					<g>
						<g>
							<path fill="#FFFFFF" d="M241.108,315.266c0.499,0.154,1.006,0.171,1.524,0.172c0.193,0,0.193-0.3,0-0.301
								c-0.491,0-0.971-0.014-1.444-0.16C241.003,314.919,240.925,315.209,241.108,315.266L241.108,315.266z"/>
						</g>
					</g>
					<g>
						<g>
							<path fill="#FFFFFF" d="M240.68,316.562c0.598-0.071,1.195-0.081,1.797-0.081c0.193,0,0.193-0.301,0-0.301
								c-0.602,0.001-1.199,0.011-1.797,0.081C240.49,316.283,240.488,316.584,240.68,316.562L240.68,316.562z"/>
						</g>
					</g>
					<g>
						<g>
							<path fill="#FFFFFF" d="M240.956,317.197c1.016-0.162,2.031-0.322,3.047-0.484c0.19-0.03,0.109-0.319-0.08-0.289
								c-1.016,0.162-2.031,0.322-3.047,0.484C240.686,316.938,240.767,317.228,240.956,317.197L240.956,317.197z"/>
						</g>
					</g>
					<g>
						<g>
							<path fill="#FFFFFF" d="M246.697,313.608c-1.006-0.043-1.884,0.616-2.734,1.063c-0.171,0.091-0.02,0.35,0.152,0.26
								c0.8-0.422,1.637-1.063,2.582-1.022C246.891,313.917,246.89,313.617,246.697,313.608L246.697,313.608z"/>
						</g>
					</g>
					<g>
						<g>
							<path fill="#FFFFFF" d="M241.773,318.25c0.704-0.008,1.405-0.075,2.109-0.082c0.193-0.002,0.193-0.303,0-0.301
								c-0.704,0.008-1.405,0.075-2.109,0.082C241.58,317.951,241.58,318.252,241.773,318.25L241.773,318.25z"/>
						</g>
					</g>
					<g>
						<g>
							<path fill="#FFFFFF" d="M244.275,319.775c1.063,0.01,2.961,0.361,3.646-0.719c0.104-0.164-0.156-0.314-0.26-0.152
								c-0.588,0.931-2.456,0.579-3.386,0.57C244.082,319.474,244.082,319.773,244.275,319.775L244.275,319.775z"/>
						</g>
					</g>
					<g>
						<g>
							<path fill="#FFFFFF" d="M247.83,328.146c0.974,0.017,1.926,0.227,2.893,0.322c0.192,0.019,0.19-0.281,0-0.301
								c-0.967-0.095-1.919-0.305-2.893-0.322C247.637,327.843,247.637,328.143,247.83,328.146L247.83,328.146z"/>
						</g>
					</g>
					<g>
						<g>
							<path fill="#FFFFFF" d="M255.126,325.612c0.486-0.439,1.208-0.315,1.809-0.448c0.188-0.042,0.108-0.331-0.08-0.289
								c-0.675,0.149-1.392,0.029-1.941,0.524C254.77,325.529,254.982,325.741,255.126,325.612L255.126,325.612z"/>
						</g>
					</g>
					<g>
						<g>
							<path fill="#FFFFFF" d="M257.051,323.487c0.802-0.094,1.643-0.167,2.296-0.688c0.151-0.121-0.063-0.332-0.213-0.213
								c-0.58,0.463-1.374,0.518-2.083,0.6C256.861,323.209,256.858,323.509,257.051,323.487L257.051,323.487z"/>
						</g>
					</g>
					<g>
						<g>
							<path fill="#FFFFFF" d="M259.824,326.861c0.627-0.082,1.248-0.168,1.837-0.408c0.177-0.072,0.1-0.362-0.08-0.289
								c-0.564,0.23-1.156,0.318-1.757,0.396C259.635,326.586,259.633,326.886,259.824,326.861L259.824,326.861z"/>
						</g>
					</g>
					<g>
						<g>
							<path fill="#FFFFFF" d="M258.183,320.586c0.864,0.172,1.678,0.497,2.5,0.805c0.182,0.068,0.26-0.222,0.08-0.289
								c-0.822-0.308-1.636-0.633-2.5-0.805C258.073,320.259,257.993,320.548,258.183,320.586L258.183,320.586z"/>
						</g>
					</g>
					<g>
						<g>
							<path fill="#FFFFFF" d="M215.022,310.048c0.278,0.238,0.576,0.346,0.928,0.438c0.188,0.05,0.267-0.24,0.08-0.289
								c-0.294-0.077-0.559-0.158-0.795-0.362C215.089,309.71,214.876,309.921,215.022,310.048L215.022,310.048z"/>
						</g>
					</g>
					<g>
						<g>
							<path fill="#FFFFFF" d="M261.947,329.404c0.013,0.461,0.118,0.873,0.335,1.281c0.092,0.17,0.351,0.019,0.26-0.152
								c-0.195-0.365-0.283-0.716-0.294-1.129C262.242,329.211,261.942,329.211,261.947,329.404L261.947,329.404z"/>
						</g>
					</g>
					<path fill="#EC7267" d="M236.693,299.305c0,0,0.004-0.203,0.193-0.203c0.193,0,0.754,0,0.754,0s0.232-0.091,0.232,0.203
						c0,0.289-0.127,0.631-0.127,0.631s-0.027,0.236-0.258,0.236s-0.615,0-0.615,0s-0.307,0.055-0.307-0.209
						C236.566,299.698,236.693,299.305,236.693,299.305z"/>
					<path fill="#E77F79" d="M172.279,216.082l5.047,132.809l6.969-0.723l-4.506-132.512
						C179.789,215.656,172.225,214.602,172.279,216.082z"/>
				</g>
				<g>
					<g>
						<g>
							<path fill="#FFFFFF" d="M250.609,273.562c0.613,0.007,1.22,0.059,1.804-0.164c0.179-0.068,0.102-0.358-0.08-0.289
								c-0.559,0.213-1.138,0.159-1.724,0.153C250.416,273.26,250.416,273.56,250.609,273.562L250.609,273.562z"/>
						</g>
					</g>
					<path fill="#E9C0C0" d="M283.057,269.323c0,0,6.354,7.433,6.354,15.109c0,0,1.807,22.542,4.217,27.415
						c2.201,4.453,9.895,36.725,18.031,48.598l5.908,14.711l-3.73,11.549l-13.525-2.595c0,0-4.508-4.157-5.441-4.797
						c-0.932-0.642-4.041-3.518-4.973-3.837c-0.934-0.32-5.285-3.198-5.285-3.198l-0.313-4.157l1.15-7.246l-1.002-6.226
						c0,0-2.014-26.817-4.189-30.973s-5.285-10.868-5.285-10.868s-2.176-8.314-2.176-14.708c0,0,1.553-4.798-5.596-5.436
						c0,0-17.721-3.558-17.488-6.554c0.232-3,5.945-1.442,5.945-1.442s13.758,2.882,14.338,2.282
						c0.584-0.602,0.584-1.321-1.164-1.681c-1.748-0.36-15.154-5.274-15.154-5.274s-8.277-2.039-7.346-5.756
						c0.932-3.718,10.143,0.839,10.143,0.839s12.357,2.998,12.941,3.836c0,0,2.215,1.28,2.643,0.438
						c0.428-0.84-1.943-2.598-1.943-2.598l-16.904-12.389c0,0-3.422-2.398-1.709-4.953c1.709-2.561,4.195-0.321,7.303,0.956
						c3.109,1.278,13.215,8.313,13.215,8.313s2.174,2.238,2.641,1.439c0.467-0.8-1.709-3.678-1.709-3.678
						s-8.393-15.188-4.197-18.227c0,0,1.654-1.497,3.111,2.4C273.615,255.303,283.057,269.323,283.057,269.323z"/>
					<path fill="#333334" d="M268.051,249.041c0,0,1.539,5.295,4.047,4.154c0,0,0.771-0.164,0.148-1.664
						c-0.623-1.503-1.689-4.43-3.281-3.451C268.965,248.08,268.285,248.495,268.051,249.041z"/>
					<path fill="#333334" d="M256.357,261.829c0,0,1.574-1.173,0-2.624c0,0-2.346-1.695-4.059-0.614c0,0-1.363,0.96,0.27,1.86
						S255.367,261.949,256.357,261.829z"/>
					<path fill="#333334" d="M250.963,273.066c0,0,1.258,1.713-0.9,2.071c-2.156,0.36-3.805-0.538-3.805-0.538
						s-0.035-1.496,2.061-1.799C250.412,272.501,250.963,273.066,250.963,273.066z"/>
					<path fill="#333334" d="M254.141,284.374c0,0,1.344,1.617-1.105,1.855c-2.447,0.239-3.322-0.118-3.322-0.118
						S249.012,284.2,254.141,284.374z"/>
				</g>
				<g>
					<path fill="#E9C0C0" d="M46.156,366.203c0,0,16.787-37.408,19.275-47.002c0,0,4.355-10.01,3.109-16.247
						c0,0-2.271-1.857-1.281-4.975c0.381-1.204-0.709-1.925-0.709-1.925s-2.615-0.834-0.982-4.31c0,0,0.355-0.112-0.816-0.541
						c-1.807-0.657-1.164-3.021-1.002-4.077c0,0,0.309-1.392-1.328-2.996c0,0-2.682-3.416,0.99-6.973
						c3.871-3.75,6.063-7.354,8.082-9.273c2.021-1.918,4.537-2.584,9.328-5.274c10.57-5.937,12.125-4.795,12.125-4.795
						s6.217,1.757-1.555,6.874l-8.084,4.154c0,0-2.33,1.441,1.555,0.641c3.887-0.801,10.438-2.875,10.438-2.875
						s7.244-2.44,8.137-0.042c0.895,2.396-0.076,4.515-6.527,6.354c0,0-11.814,2.996-14.961,5.516
						c-3.148,2.519-0.232,3.116,0.465,2.876c0.701-0.236,11.607-1.691,13.525-1.918c2.039-0.24,7.334-1.93,8.334-1.979
						c1.225-0.059,2.682,0,2.273,2.34c-0.516,2.949-6.994,4.436-6.994,4.436l-6.529,1.561c0,0-1.631,1.077,1.283,1.077
						s5.129-0.958,5.014,1.44c-0.117,2.398-5.83,3.236-5.83,3.236l-5.363,0.719c0,0-5.713,2.039-5.012,4.556
						c0.699,2.521,3.381,7.676,3.381,7.676s1.98,1.078-1.049,7.552c-3.033,6.477-13.895,47.929-11.611,57.116
						c0,0-0.748,12.427-0.748,12.786s-9.328,12.232-10.143,12.352c-0.816,0.119-5.945-0.24-6.646,0
						c-0.697,0.238-7.111-0.721-7.344-1.92c-0.234-1.199-4.547-3.357-4.896-3.717s-1.865-4.557-2.447-5.156
						c-0.584-0.598,0.932-9.229,0.932-9.229l0.932-3.36l0.818-1.678L46.156,366.203z"/>
					<path fill="#333334" d="M89.018,258.591c0,0,1.381,2.579,2.49,2.28c1.107-0.302,3.428-1.07,3.316-1.914s-1.342-1.558-2.9-1.194
						C90.365,258.124,89.018,258.591,89.018,258.591z"/>
					<path fill="#333334" d="M97.504,265.994c0,0-0.107,2.729,1.115,3.329c1.225,0.599,3.725,0.42,5.1-1.317
						c0,0,0.357-2.824-2.594-2.492C98.174,265.844,97.504,265.994,97.504,265.994z"/>
					<path fill="#333334" d="M100.617,278.301c0,0-0.016,2.234,1.326,2.114c1.34-0.12,4.338-0.45,4.559-2.114
						c0,0-0.281-1.448-2.941-0.762C100.896,278.227,100.617,278.301,100.617,278.301z"/>
					<path fill="#333334" d="M94.66,286.821c0,0-0.412,2.044,1.568,1.866c1.984-0.178,2.852,0.184,3.09-0.718
						c0.234-0.899-0.932-1.512-2.098-1.148C97.221,286.821,95.418,286.829,94.66,286.821z"/>
				</g>
				<g>
					<path fill="#FFFFFF" d="M118.744,466.6c16.295,13.305,37.645-1.326,37.645-1.326c12.699-11.028,27.357-5.116,27.357-5.116
						c13.369,6.718,35.234,2.61,41.766,0.37c2.313-0.793,4.863-1.375,7.344-1.467c17.563-2.605,19.648,5.438,19.648,5.438
						c2.09,9.442,7.949,2.673,3.693-14.246c-4.254-16.913-16.699-35.36-12.408-43.636c0,0,0,0,0.002,0
						c2.467-2.58,3.584-2.747,5.455-3.125c0,0,5.518-0.516,8.006,3.638c2.486,4.155,24.25,9.29,24.25,9.29s6.84,1.58,9.637,5.419
						c2.799,3.835,17.41,1.919,21.143-1.919c3.73-3.838,12.744-15.988,10.879-23.66c-0.873-3.596-1.133-11.045-2.248-18.248v-0.016
						l-0.002-0.002c-0.469-3.027-1.094-6.003-1.975-8.637v-0.002l-0.002-0.002c-0.787-2.352-1.779-4.424-3.059-6.004v-0.002
						l-0.006-0.005c-1.154-1.419-2.537-2.438-4.211-2.897c0,0,1.258,2.926,2.158,8.161c1.178,5.23,0.063,7.829,0.063,7.829
						c-3.152,4.797-3.152,4.797-5.02,6.074c-1.131,0.777-4.877,0.664-8.236-1.305c-1.367-0.906-2.699-1.965-3.965-3.09
						c-4.586-4.632-11.115-5.837-10.805-15.428l-0.465-3.997c-0.027-0.215-0.678-2.819-0.701-3.038c-0.047-0.445,0.111,0.232,0,0
						l-0.24-1.003l0,0c-1.004-2.155-4.311,4.037-5.434,5.481c-0.82,1.054-20.654,1.793-39.393-15.199l-38.104,2.222
						c-5.461,15.007-7.182,26.486-11.611,26.005c0,0-5.611,1.8-12.607-24.283c-0.578-0.125-1.055-0.348-1.352-0.707
						c-1.063-1.287-26.58-1.93-53.352-2.211c-6.092,5.882-17.059-4.453-29.184,21.525c0,0-2.799,5.436-9.949,7.035
						c-7.15,1.598-6.838,0.959-9.326-4.797c0,0-0.123-3.996-4.041,4.477c0,0-5.285,11.911-11.814,12.508c0,0-1.219,0.49-2.92,0.742
						c-1.582-0.668-2.871-1.656-3.607-2.697c-2.488-3.52-2.178-5.756-5.598-7.994c-0.754-0.495-1.164-1.295-1.361-2.225
						c0.055-1.361,0.189-2.844,0.43-4.492l0.932-3.836c-0.086-0.07-0.193-0.08-0.311-0.051c-0.77-0.048-2.799,0.314-4.041,5.166
						c-1.553,6.076-9.326,13.109-3.73,27.178c5.596,14.069,7.15,28.138,21.453,27.178c0,0,6.838-1.598,9.947-4.475
						c3.107-2.879,10.881-2.879,10.881-2.879s13.99-2.238,20.518-8.633c6.529-6.396,15.582,2.529,15.582,2.529
						s0.4,0.377,1.039,1.102c0,0,6.563,15.955,1.109,36.335C113.152,470.037,118.744,466.6,118.744,466.6z"/>
				</g>
				<path fill="#F6F0F0" d="M105.061,345.908c-0.922,2.35-1.207,5.589,0.064,10.025c3.717,12.945,16.514,6.95,13.246,22.059
					c-2.111,9.752,17.527,4.307,35.277-13.945c12.766-13.129,18.631,2.566,19.564-13.504c0.055-0.98,0.053-1.937,0.018-2.88
					c-9.719-0.981-44.262-1.5-67.816-1.751C105.295,345.91,105.178,345.91,105.061,345.908z"/>
				<path fill="#F6F0F0" d="M265.273,353.735c-4.025-3.56-6.109-6.979-7.143-9.882l-51.17,2.985
					c-0.908,9.707,5.217,11.735,7.139,13.562c2.775,2.637,4.18,10.311,4.18,10.311c7.082,12.479,24.078-2.59,24.078-2.59
					l0.926-0.719c3.596-4.795,16.037-2.398,16.037-2.398C269.729,365.725,274.379,361.787,265.273,353.735z"/>
			</g>
		</g>
	</g>
	<g>
		<path fill="#333334" d="M106.807,55.93c-0.008,0.271-0.088,0.514-0.234,0.732c-0.148,0.218-0.357,0.404-0.625,0.561
			c-0.186,0.114-0.396,0.202-0.631,0.265c-0.236,0.063-0.475,0.094-0.715,0.094c-0.557,0-1.102-0.128-1.639-0.382
			c-0.535-0.255-1.115-0.615-1.734-1.083c-0.305-0.228-0.693-0.531-1.166-0.911c-0.471-0.379-1.012-0.833-1.623-1.362
			c-0.148-0.125-0.439-0.377-0.875-0.756c-0.434-0.379-1.012-0.89-1.734-1.534c-0.666-0.592-1.197-1.057-1.596-1.394
			c-0.396-0.338-0.623-0.522-0.68-0.554c-0.111-0.052-0.219-0.08-0.326-0.085c-0.105-0.006-0.303-0.008-0.59-0.008
			c-0.064,0-0.129,0-0.193,0s-0.143,0.002-0.23,0.008c-0.088,0.005-0.203,0.013-0.346,0.023c-0.145,0.01-0.336,0.025-0.576,0.046
			c-0.564-0.446-0.846-1.054-0.846-1.822c0-0.374,0.078-0.68,0.234-0.919c0.158-0.238,0.385-0.415,0.682-0.529
			c0.072-0.021,0.129-0.036,0.166-0.047c0.037-0.01,0.076-0.018,0.117-0.023c0.041-0.005,0.1-0.016,0.174-0.031
			s0.18-0.028,0.318-0.039c0.27,0,0.527-0.036,0.777-0.108c0.25-0.073,0.494-0.164,0.729-0.272c0.236-0.109,0.463-0.229,0.68-0.358
			c0.219-0.13,0.428-0.252,0.633-0.366c0.295-0.166,0.604-0.358,0.922-0.576c0.32-0.219,0.641-0.446,0.965-0.686
			c0.287-0.218,0.566-0.457,0.84-0.717c0.273-0.259,0.543-0.54,0.811-0.841c0.213-0.239,0.369-0.48,0.467-0.725
			c0.096-0.243,0.145-0.485,0.145-0.724c0-0.363-0.102-0.712-0.305-1.044s-0.461-0.634-0.771-0.903
			c-0.309-0.271-0.646-0.504-1.012-0.701s-0.711-0.348-1.035-0.451c-0.637-0.208-1.268-0.312-1.887-0.312
			c-0.186,0-0.416,0.01-0.693,0.03c-0.277,0.021-0.588,0.053-0.93,0.094c-0.314,0.042-0.623,0.081-0.924,0.117
			s-0.59,0.08-0.867,0.132c-0.129,0.021-0.23,0.037-0.305,0.047c-0.074,0.011-0.148,0.023-0.223,0.039s-0.158,0.034-0.256,0.055
			s-0.229,0.052-0.396,0.094c0.074,0.197,0.139,0.404,0.195,0.623c0.055,0.218,0.105,0.457,0.152,0.716
			c0.084,0.405,0.137,0.776,0.16,1.114c0.023,0.337,0.035,0.641,0.035,0.911c0,0.312-0.004,0.607-0.008,0.888
			s-0.016,0.556-0.035,0.825c-0.027,0.551-0.082,1.102-0.166,1.651c-0.084,0.54-0.195,1.241-0.334,2.103
			c-0.109,0.737-0.203,1.39-0.277,1.955c-0.074,0.566-0.133,1.067-0.18,1.503c-0.047,0.416-0.082,0.82-0.104,1.215
			c-0.023,0.395-0.035,0.769-0.035,1.122c0,0.321,0.014,0.628,0.041,0.919s0.072,0.573,0.133,0.849
			c0.059,0.275,0.143,0.548,0.25,0.817c0.105,0.271,0.238,0.551,0.395,0.842c-0.092,0.166-0.211,0.321-0.354,0.467
			c-0.145,0.146-0.297,0.275-0.459,0.39c-0.16,0.114-0.324,0.205-0.492,0.272c-0.166,0.067-0.324,0.102-0.471,0.102
			c-0.75,0-1.297-0.177-1.639-0.53c-0.389-0.373-0.623-0.81-0.707-1.308c-0.047-0.25-0.076-0.53-0.09-0.842
			s-0.021-0.664-0.021-1.059c0-0.571,0.027-1.122,0.084-1.651c0.045-0.468,0.1-0.916,0.158-1.348
			c0.061-0.431,0.127-0.858,0.201-1.285c0.047-0.187,0.084-0.363,0.111-0.529c0.029-0.166,0.053-0.34,0.076-0.521
			s0.049-0.379,0.076-0.592c0.029-0.213,0.061-0.46,0.098-0.74c0.121-0.852,0.217-1.672,0.291-2.461s0.111-1.511,0.111-2.165
			c0-0.498-0.012-1.021-0.035-1.565c-0.021-0.545-0.063-1.113-0.117-1.706c-0.297,0.094-0.545,0.164-0.75,0.211
			c-0.203,0.047-0.342,0.07-0.416,0.07c-0.49,0-0.816-0.133-0.979-0.397s-0.242-0.636-0.242-1.114c0-0.539,0.416-1.038,1.248-1.495
			c0.324-0.176,0.65-0.337,0.979-0.482s0.654-0.275,0.979-0.39c0.361-0.125,0.791-0.244,1.291-0.358s1.051-0.223,1.652-0.327
			c0.572-0.094,1.119-0.169,1.637-0.226s0.98-0.086,1.387-0.086c1.406,0,2.762,0.188,4.066,0.561
			c0.686,0.198,1.314,0.463,1.887,0.795c0.574,0.332,1.088,0.731,1.541,1.199c1,1.008,1.498,2.311,1.498,3.909
			c0,1.039-0.355,2.062-1.068,3.069c-0.602,0.83-1.289,1.555-2.066,2.173c-0.777,0.617-1.633,1.212-2.568,1.783
			c0.297,0.239,0.592,0.478,0.889,0.717c0.297,0.238,0.615,0.488,0.957,0.747c0.51,0.395,0.984,0.769,1.424,1.122
			c0.438,0.353,0.852,0.68,1.24,0.98c0.389,0.302,0.816,0.634,1.285,0.997c0.467,0.364,0.982,0.764,1.547,1.199
			c0.537,0.405,1.029,0.771,1.479,1.099c0.447,0.327,0.82,0.595,1.115,0.802L106.807,55.93z"/>
		<path fill="#333334" d="M125.568,45.167c0,0.083-0.027,0.213-0.082,0.389c-0.057,0.177-0.148,0.385-0.279,0.623
			c-0.359,0.645-0.811,1.346-1.352,2.104s-1.139,1.513-1.791,2.266s-1.35,1.48-2.096,2.181c-0.744,0.701-1.498,1.322-2.262,1.861
			c-0.764,0.54-1.523,0.974-2.283,1.301c-0.758,0.327-1.479,0.491-2.164,0.491c-0.869,0-1.629-0.135-2.275-0.405
			c-0.648-0.27-1.186-0.662-1.609-1.176c-0.426-0.515-0.746-1.143-0.959-1.885s-0.318-1.586-0.318-2.531
			c0-0.717,0.049-1.475,0.146-2.274c0.096-0.8,0.275-1.612,0.533-2.438c0.26-0.825,0.609-1.656,1.049-2.492s1-1.644,1.686-2.422
			c0.527-0.603,1.096-1.06,1.707-1.371c0.609-0.312,1.193-0.467,1.748-0.467c0.102,0,0.23,0.023,0.389,0.069
			c0.156,0.047,0.314,0.112,0.473,0.195c0.156,0.083,0.309,0.182,0.457,0.296s0.268,0.239,0.361,0.374
			c0.295,0.426,0.518,0.828,0.666,1.207c0.146,0.379,0.221,0.808,0.221,1.285c0,0.747-0.092,1.423-0.277,2.024
			c-0.184,0.603-0.436,1.166-0.756,1.69c-0.318,0.524-0.695,1.03-1.131,1.519s-0.902,0.997-1.402,1.526
			c-0.305,0.322-0.684,0.673-1.137,1.052s-0.939,0.792-1.457,1.238c0.074,0.321,0.166,0.6,0.277,0.833s0.25,0.429,0.416,0.584
			c0.166,0.156,0.367,0.272,0.604,0.351s0.516,0.117,0.84,0.117c0.436,0,0.9-0.083,1.395-0.25c0.494-0.166,0.992-0.379,1.492-0.639
			c0.434-0.228,0.865-0.516,1.291-0.864c0.424-0.348,0.855-0.709,1.289-1.082c0.27-0.229,0.613-0.559,1.035-0.989
			c0.42-0.431,0.848-0.88,1.283-1.348c0.295-0.312,0.592-0.615,0.889-0.911c0.295-0.296,0.609-0.625,0.943-0.989l0.734-0.81
			c0.537-0.488,0.973-0.732,1.305-0.732c0.176,0,0.287,0.058,0.334,0.172C125.545,44.954,125.568,45.063,125.568,45.167z
			 M114.801,43.484c0-0.457-0.063-0.779-0.188-0.966s-0.266-0.28-0.424-0.28c-0.139,0-0.301,0.094-0.486,0.28
			c-0.184,0.187-0.377,0.438-0.574,0.756c-0.199,0.316-0.398,0.685-0.598,1.105s-0.385,0.864-0.555,1.332
			c-0.172,0.467-0.314,0.947-0.43,1.44c-0.117,0.493-0.197,0.969-0.244,1.426c0.27-0.25,0.512-0.476,0.729-0.678
			c0.219-0.203,0.424-0.418,0.617-0.646c0.195-0.218,0.414-0.485,0.66-0.803c0.244-0.316,0.479-0.646,0.701-0.988
			c0.221-0.343,0.408-0.686,0.563-1.028C114.725,44.092,114.801,43.775,114.801,43.484z"/>
		<path fill="#333334" d="M146.676,47.877c0.148,0,0.252,0.021,0.313,0.063c0.061,0.041,0.09,0.14,0.09,0.296
			c0,0.395-0.115,0.805-0.348,1.23c-0.23,0.426-0.547,0.839-0.949,1.238s-0.873,0.778-1.408,1.137
			c-0.537,0.358-1.109,0.676-1.715,0.95c-0.605,0.275-1.229,0.491-1.867,0.646c-0.637,0.156-1.268,0.233-1.887,0.233
			c-0.703,0-1.318-0.119-1.846-0.358c-0.527-0.238-0.982-0.55-1.367-0.935c-0.383-0.384-0.705-0.822-0.963-1.315
			c-0.26-0.493-0.473-1-0.639-1.519c-0.168-0.52-0.299-1.025-0.396-1.52c-0.096-0.492-0.178-0.932-0.242-1.315
			c-0.02-0.104-0.037-0.211-0.055-0.319c-0.02-0.109-0.084-0.164-0.195-0.164c-0.055,0-0.15,0.106-0.285,0.319
			c-0.133,0.213-0.289,0.483-0.465,0.811s-0.359,0.69-0.555,1.09c-0.193,0.4-0.375,0.792-0.541,1.176
			c-0.314,0.717-0.643,1.441-0.984,2.173c-0.344,0.732-0.707,1.392-1.09,1.979c-0.385,0.587-0.799,1.067-1.242,1.44
			c-0.443,0.374-0.926,0.562-1.443,0.562c-0.48,0-0.865-0.174-1.152-0.522c-0.287-0.348-0.502-0.794-0.645-1.339
			c-0.145-0.546-0.236-1.161-0.277-1.847c-0.041-0.685-0.063-1.359-0.063-2.024c0-0.8,0.01-1.516,0.027-2.149
			c0.02-0.634,0.027-1.267,0.027-1.9c0-0.395,0.051-0.769,0.152-1.121c0.104-0.354,0.236-0.665,0.404-0.935
			c0.166-0.271,0.354-0.483,0.561-0.639c0.209-0.156,0.42-0.234,0.633-0.234c0.221,0,0.436,0.021,0.645,0.063
			c0.207,0.042,0.393,0.133,0.555,0.272c0.162,0.141,0.289,0.349,0.383,0.623c0.092,0.275,0.139,0.646,0.139,1.114
			c0,0.467-0.035,0.947-0.105,1.44c-0.068,0.493-0.145,1.021-0.229,1.581s-0.162,1.171-0.236,1.83
			c-0.074,0.66-0.115,1.399-0.125,2.22c0.121-0.135,0.264-0.353,0.432-0.654c0.166-0.301,0.344-0.646,0.533-1.036
			c0.189-0.389,0.377-0.799,0.563-1.23c0.186-0.431,0.361-0.843,0.527-1.238c0.434-1.059,0.846-1.97,1.234-2.733
			c0.389-0.763,0.799-1.389,1.229-1.877s0.896-0.849,1.402-1.082c0.504-0.234,1.094-0.351,1.768-0.351
			c0.176,0,0.336,0.052,0.48,0.155c0.143,0.104,0.268,0.236,0.373,0.397c0.107,0.161,0.188,0.346,0.244,0.553
			c0.055,0.208,0.082,0.416,0.082,0.623c0,1.194,0.072,2.22,0.217,3.076c0.143,0.857,0.371,1.558,0.686,2.104
			c0.314,0.545,0.719,0.944,1.215,1.199c0.494,0.254,1.094,0.381,1.797,0.381c0.213-0.021,0.488-0.06,0.826-0.116
			s0.705-0.138,1.104-0.241c0.396-0.104,0.805-0.239,1.221-0.405s0.809-0.363,1.18-0.592c0.045-0.031,0.174-0.114,0.381-0.249
			c0.209-0.135,0.439-0.278,0.693-0.429c0.256-0.15,0.498-0.285,0.729-0.405C146.436,47.937,146.592,47.877,146.676,47.877z"/>
		<path fill="#333334" d="M161.996,45.167c0,0.083-0.027,0.213-0.084,0.389c-0.055,0.177-0.146,0.385-0.277,0.623
			c-0.359,0.645-0.811,1.346-1.352,2.104c-0.543,0.758-1.139,1.513-1.791,2.266s-1.352,1.48-2.096,2.181
			c-0.744,0.701-1.498,1.322-2.262,1.861c-0.764,0.54-1.523,0.974-2.283,1.301c-0.758,0.327-1.48,0.491-2.164,0.491
			c-0.869,0-1.629-0.135-2.275-0.405c-0.648-0.27-1.186-0.662-1.611-1.176c-0.424-0.515-0.744-1.143-0.957-1.885
			s-0.318-1.586-0.318-2.531c0-0.717,0.049-1.475,0.145-2.274c0.098-0.8,0.275-1.612,0.535-2.438
			c0.258-0.825,0.607-1.656,1.047-2.492s1.002-1.644,1.688-2.422c0.527-0.603,1.096-1.06,1.707-1.371
			c0.609-0.312,1.193-0.467,1.748-0.467c0.102,0,0.23,0.023,0.389,0.069c0.156,0.047,0.314,0.112,0.471,0.195
			c0.158,0.083,0.311,0.182,0.459,0.296c0.146,0.114,0.268,0.239,0.359,0.374c0.297,0.426,0.52,0.828,0.666,1.207
			c0.148,0.379,0.223,0.808,0.223,1.285c0,0.747-0.092,1.423-0.277,2.024c-0.186,0.603-0.438,1.166-0.756,1.69
			c-0.32,0.524-0.697,1.03-1.131,1.519c-0.436,0.488-0.902,0.997-1.402,1.526c-0.305,0.322-0.684,0.673-1.137,1.052
			c-0.455,0.379-0.939,0.792-1.457,1.238c0.072,0.321,0.166,0.6,0.277,0.833c0.109,0.233,0.25,0.429,0.416,0.584
			c0.166,0.156,0.367,0.272,0.604,0.351s0.516,0.117,0.84,0.117c0.434,0,0.898-0.083,1.395-0.25
			c0.494-0.166,0.992-0.379,1.492-0.639c0.434-0.228,0.863-0.516,1.289-0.864c0.426-0.348,0.855-0.709,1.291-1.082
			c0.268-0.229,0.613-0.559,1.033-0.989c0.422-0.431,0.85-0.88,1.285-1.348c0.295-0.312,0.592-0.615,0.887-0.911
			c0.297-0.296,0.611-0.625,0.943-0.989l0.736-0.81c0.537-0.488,0.971-0.732,1.305-0.732c0.176,0,0.287,0.058,0.332,0.172
			C161.973,44.954,161.996,45.063,161.996,45.167z M151.227,43.484c0-0.457-0.061-0.779-0.186-0.966s-0.268-0.28-0.424-0.28
			c-0.139,0-0.301,0.094-0.486,0.28s-0.377,0.438-0.576,0.756c-0.199,0.316-0.396,0.685-0.596,1.105s-0.385,0.864-0.555,1.332
			c-0.172,0.467-0.314,0.947-0.432,1.44c-0.115,0.493-0.195,0.969-0.242,1.426c0.268-0.25,0.512-0.476,0.729-0.678
			c0.217-0.203,0.424-0.418,0.617-0.646c0.195-0.218,0.414-0.485,0.66-0.803c0.244-0.316,0.479-0.646,0.701-0.988
			c0.221-0.343,0.408-0.686,0.561-1.028S151.227,43.775,151.227,43.484z"/>
		<path fill="#333334" d="M189.029,43.998c0,0.271-0.061,0.527-0.182,0.771c-0.119,0.244-0.273,0.47-0.457,0.678
			c-0.186,0.208-0.396,0.399-0.633,0.576c-0.234,0.177-0.469,0.332-0.699,0.467c-0.473,0.271-1.014,0.494-1.625,0.67
			c-0.609,0.177-1.299,0.265-2.066,0.265c-0.639,0-1.229-0.077-1.77-0.233c-0.541-0.155-1.016-0.321-1.422-0.498
			c-0.297,0.561-0.578,1.22-0.848,1.978c-0.268,0.759-0.541,1.579-0.818,2.461c-0.037,0.115-0.092,0.294-0.166,0.538
			s-0.156,0.52-0.244,0.825c-0.088,0.307-0.18,0.629-0.277,0.966c-0.096,0.338-0.191,0.659-0.283,0.966
			c-0.094,0.307-0.176,0.584-0.25,0.833s-0.131,0.437-0.168,0.561c-0.24,0.748-0.555,1.268-0.943,1.558
			c-0.389,0.291-0.814,0.437-1.275,0.437c-0.5,0-0.955-0.179-1.367-0.537s-0.752-0.797-1.02-1.316
			c-0.27-0.529-0.514-1.083-0.736-1.659s-0.422-1.155-0.596-1.736c-0.176-0.582-0.336-1.16-0.48-1.737
			c-0.143-0.576-0.27-1.129-0.381-1.658c-0.027-0.135-0.055-0.28-0.084-0.437c-0.027-0.155-0.064-0.233-0.109-0.233
			c-0.02,0-0.068,0.096-0.146,0.288s-0.17,0.437-0.271,0.732s-0.213,0.623-0.332,0.98c-0.121,0.358-0.236,0.712-0.348,1.06
			s-0.211,0.665-0.297,0.95c-0.09,0.286-0.156,0.501-0.203,0.646c-0.102,0.343-0.223,0.717-0.367,1.121
			c-0.143,0.405-0.301,0.808-0.471,1.207c-0.172,0.4-0.355,0.784-0.549,1.153c-0.193,0.368-0.398,0.695-0.611,0.981
			c-0.213,0.285-0.432,0.514-0.658,0.685c-0.227,0.172-0.455,0.258-0.688,0.258c-0.443,0-0.834-0.144-1.172-0.429
			c-0.338-0.286-0.6-0.626-0.785-1.021c-0.379-0.852-0.73-1.807-1.055-2.866c-0.322-1.059-0.604-2.146-0.838-3.263
			c-0.236-1.116-0.422-2.217-0.557-3.302c-0.133-1.085-0.201-2.085-0.201-2.999c0-0.778,0.139-1.34,0.416-1.682
			c0.279-0.343,0.75-0.515,1.416-0.515c0.287,0,0.516,0.099,0.688,0.296c0.17,0.197,0.305,0.449,0.402,0.756
			s0.166,0.651,0.209,1.035c0.041,0.385,0.068,0.762,0.082,1.13s0.025,0.709,0.035,1.021s0.031,0.556,0.068,0.731
			c0.037,0.374,0.096,0.805,0.174,1.293s0.164,0.989,0.258,1.503c0.092,0.515,0.191,1.019,0.297,1.511
			c0.107,0.494,0.209,0.935,0.307,1.324c0.096,0.39,0.184,0.704,0.264,0.942c0.078,0.239,0.141,0.358,0.188,0.358
			c0.055,0,0.125-0.091,0.207-0.272c0.084-0.182,0.184-0.438,0.299-0.771c0.115-0.332,0.25-0.734,0.402-1.207
			s0.33-0.994,0.535-1.565c0.193-0.581,0.383-1.137,0.568-1.666c0.186-0.53,0.367-1.052,0.549-1.565
			c0.18-0.515,0.369-1.025,0.568-1.534s0.408-1.033,0.631-1.573c0.064-0.177,0.164-0.356,0.299-0.538
			c0.133-0.182,0.289-0.345,0.465-0.49s0.357-0.263,0.549-0.351c0.189-0.088,0.371-0.133,0.547-0.133c0.73,0,1.146,0.473,1.25,1.418
			c0.092,0.831,0.207,1.653,0.346,2.469s0.289,1.589,0.451,2.321c0.162,0.731,0.328,1.407,0.5,2.024
			c0.172,0.618,0.338,1.152,0.5,1.604c0.162,0.451,0.313,0.805,0.451,1.059c0.139,0.255,0.258,0.382,0.359,0.382
			c0.084,0,0.18-0.114,0.285-0.343c0.105-0.228,0.217-0.523,0.334-0.888c0.115-0.363,0.232-0.771,0.354-1.223
			c0.119-0.451,0.236-0.896,0.346-1.332c0.111-0.436,0.213-0.843,0.307-1.223c0.092-0.379,0.176-0.683,0.25-0.911
			c0.102-0.321,0.215-0.69,0.34-1.105s0.26-0.842,0.408-1.277c0.148-0.437,0.309-0.862,0.479-1.277
			c0.172-0.415,0.359-0.786,0.563-1.113s0.418-0.59,0.645-0.787s0.471-0.296,0.729-0.296c0.27,0.021,0.488,0.058,0.66,0.109
			s0.316,0.122,0.438,0.21c0.119,0.088,0.227,0.189,0.318,0.304s0.186,0.244,0.277,0.39c0.094,0.135,0.248,0.272,0.465,0.412
			c0.219,0.141,0.453,0.268,0.709,0.382c0.254,0.114,0.504,0.208,0.748,0.28c0.246,0.073,0.438,0.109,0.576,0.109
			c0.666,0,1.338-0.063,2.012-0.187c0.676-0.125,1.318-0.354,1.93-0.686c0.092-0.052,0.203-0.111,0.334-0.18
			c0.129-0.067,0.23-0.101,0.305-0.101c0.027,0,0.063,0.005,0.104,0.016c0.041,0.01,0.082,0.039,0.119,0.085
			c0.035,0.047,0.068,0.12,0.096,0.219S189.029,43.822,189.029,43.998z"/>
		<path fill="#333334" d="M204.141,44.17c-0.01,0.124-0.086,0.397-0.229,0.817c-0.145,0.421-0.342,0.927-0.59,1.519
			c-0.25,0.592-0.549,1.233-0.896,1.924c-0.346,0.69-0.729,1.358-1.145,2.002c-0.527,0.81-1.068,1.531-1.623,2.165
			c-0.555,0.633-1.092,1.163-1.609,1.589c-0.52,0.426-1.004,0.75-1.457,0.974c-0.453,0.223-0.842,0.334-1.166,0.334
			c-0.518,0-0.951-0.083-1.297-0.249c-0.348-0.166-0.635-0.404-0.861-0.716s-0.402-0.69-0.527-1.138
			c-0.125-0.446-0.225-0.955-0.299-1.526c-0.369,0.634-0.771,1.252-1.207,1.854c-0.436,0.603-0.889,1.137-1.359,1.604
			c-0.473,0.468-0.955,0.844-1.451,1.129c-0.494,0.286-0.986,0.429-1.477,0.429c-0.314,0-0.646-0.063-0.992-0.187
			c-0.348-0.125-0.666-0.317-0.959-0.577c-0.291-0.259-0.533-0.597-0.729-1.012c-0.193-0.415-0.291-0.909-0.291-1.48
			c0-0.456,0.051-0.976,0.152-1.558c0.102-0.581,0.24-1.186,0.418-1.814c0.174-0.628,0.375-1.264,0.604-1.908
			c0.227-0.644,0.467-1.254,0.721-1.83s0.512-1.098,0.77-1.565c0.26-0.467,0.51-0.846,0.75-1.137
			c0.277-0.332,0.607-0.672,0.992-1.021c0.385-0.348,0.809-0.662,1.277-0.942c0.467-0.28,0.971-0.511,1.512-0.693
			c0.541-0.181,1.113-0.272,1.715-0.272c0.609,0,1.068,0.185,1.373,0.554c0.305,0.368,0.508,0.932,0.611,1.689
			c0,0.073,0.029,0.158,0.09,0.257c0.061,0.1,0.125,0.203,0.193,0.312c0.07,0.109,0.133,0.224,0.188,0.343
			c0.057,0.12,0.084,0.241,0.084,0.366c0,0.156-0.031,0.348-0.09,0.576c-0.061,0.229-0.131,0.485-0.209,0.771
			c-0.078,0.285-0.148,0.603-0.207,0.95c-0.061,0.348-0.092,0.719-0.092,1.113c0,0.592,0.01,1.166,0.029,1.722
			c0.018,0.556,0.064,1.049,0.139,1.479c0.072,0.431,0.184,0.776,0.332,1.036c0.148,0.259,0.348,0.389,0.598,0.389
			c0.213,0,0.471-0.099,0.777-0.296c0.305-0.197,0.637-0.467,0.998-0.81s0.738-0.75,1.131-1.223s0.775-0.979,1.145-1.519
			c0.307-0.446,0.584-0.894,0.834-1.34c0.248-0.446,0.48-0.878,0.693-1.293s0.412-0.805,0.596-1.168
			c0.186-0.363,0.365-0.681,0.541-0.95c0.176-0.271,0.35-0.483,0.521-0.639c0.17-0.156,0.35-0.233,0.533-0.233
			c0.121,0.01,0.227,0.072,0.32,0.187c0.092,0.114,0.139,0.338,0.139,0.67c0,0.052,0,0.111,0,0.179c0,0.068-0.006,0.133-0.014,0.195
			V44.17z M192.484,44.513c0-0.063-0.018-0.133-0.049-0.211c-0.033-0.077-0.074-0.152-0.125-0.226
			c-0.051-0.072-0.107-0.132-0.166-0.179c-0.061-0.047-0.119-0.07-0.174-0.07c-0.223,0-0.436,0.047-0.639,0.14
			c-0.203,0.094-0.396,0.214-0.576,0.358c-0.18,0.146-0.348,0.31-0.5,0.491s-0.293,0.366-0.422,0.553
			c-0.316,0.467-0.643,1.036-0.979,1.705c-0.338,0.67-0.645,1.374-0.916,2.111c-0.273,0.737-0.498,1.464-0.674,2.181
			c-0.176,0.716-0.264,1.354-0.264,1.916c0,0.176,0.066,0.319,0.201,0.428c0.135,0.109,0.309,0.164,0.521,0.164
			c0.166,0,0.381-0.106,0.645-0.319s0.543-0.496,0.84-0.85c0.295-0.353,0.592-0.75,0.889-1.191c0.295-0.441,0.563-0.896,0.805-1.362
			c0.443-0.873,0.818-1.781,1.123-2.727C192.33,46.48,192.484,45.509,192.484,44.513z"/>
		<path fill="#333334" d="M213.896,50.805c0,0.146-0.047,0.338-0.139,0.577c-0.094,0.238-0.207,0.49-0.342,0.755
			c-0.133,0.265-0.277,0.524-0.43,0.779c-0.152,0.254-0.289,0.465-0.408,0.631c-0.371,0.509-0.785,0.999-1.242,1.472
			c-0.459,0.473-0.939,0.888-1.443,1.246s-1.023,0.644-1.555,0.856s-1.057,0.319-1.574,0.319c-0.814,0-1.514-0.169-2.096-0.506
			c-0.584-0.338-1.064-0.834-1.443-1.487c-0.379-0.654-0.66-1.459-0.84-2.415c-0.18-0.955-0.271-2.045-0.271-3.271
			c0-0.737,0.033-1.545,0.098-2.422c0.064-0.878,0.152-1.784,0.264-2.719s0.246-1.877,0.402-2.827
			c0.158-0.95,0.328-1.863,0.514-2.741c0.186-0.877,0.381-1.7,0.59-2.469s0.422-1.436,0.639-2.001
			c0.217-0.566,0.438-1.013,0.658-1.34c0.223-0.327,0.439-0.491,0.652-0.491c0.186,0,0.354,0.042,0.508,0.125
			c0.152,0.083,0.289,0.187,0.408,0.312c0.121,0.125,0.227,0.268,0.32,0.429c0.092,0.161,0.17,0.319,0.234,0.475
			c-0.037,0.457-0.109,1.033-0.221,1.729c-0.111,0.695-0.244,1.436-0.396,2.219c-0.152,0.784-0.309,1.579-0.471,2.384
			s-0.313,1.55-0.451,2.235c-0.102,0.509-0.189,1.043-0.264,1.604c-0.074,0.562-0.137,1.122-0.188,1.683s-0.088,1.114-0.111,1.659
			s-0.035,1.062-0.035,1.55c0,1.599,0.162,2.824,0.486,3.676s0.865,1.277,1.623,1.277c0.473,0,0.928-0.091,1.367-0.272
			s0.861-0.415,1.264-0.701c0.402-0.285,0.781-0.61,1.137-0.974c0.357-0.363,0.678-0.722,0.965-1.074
			c0.213-0.26,0.432-0.501,0.66-0.725c0.227-0.224,0.418-0.335,0.574-0.335c0.26,0,0.418,0.058,0.473,0.171
			C213.867,50.313,213.896,50.515,213.896,50.805z"/>
		<path fill="#333334" d="M238.916,37.44c0,0.146-0.016,0.322-0.049,0.53s-0.08,0.423-0.146,0.646
			c-0.064,0.223-0.137,0.436-0.215,0.639c-0.078,0.202-0.168,0.365-0.27,0.49h0.014c-0.297,0.395-0.994,0.592-2.096,0.592
			c0-0.446-0.016-0.833-0.049-1.16s-0.086-0.59-0.16-0.787c-0.064-0.166-0.18-0.306-0.346-0.42s-0.354-0.208-0.563-0.28
			c-0.209-0.073-0.418-0.127-0.631-0.164c-0.213-0.036-0.398-0.055-0.555-0.055c-0.398,0-0.787,0.011-1.166,0.031
			c-0.381,0.021-0.752,0.063-1.117,0.125s-0.736,0.15-1.111,0.265c-0.373,0.114-0.756,0.26-1.145,0.437
			c-0.277,0.124-0.57,0.28-0.881,0.467s-0.6,0.397-0.867,0.631s-0.498,0.488-0.688,0.764c-0.189,0.274-0.307,0.568-0.354,0.88
			l0.014-0.031c0,0.249,0.074,0.527,0.223,0.833c0.148,0.307,0.35,0.607,0.604,0.903s0.549,0.566,0.881,0.811
			c0.334,0.244,0.686,0.423,1.055,0.537c0.027,0.011,0.107,0.042,0.236,0.094s0.287,0.111,0.471,0.179
			c0.186,0.067,0.383,0.143,0.59,0.226c0.209,0.084,0.402,0.159,0.584,0.227c0.18,0.067,0.332,0.124,0.457,0.171
			s0.197,0.075,0.215,0.086c2.146,0.612,3.738,1.35,4.775,2.212c1.035,0.861,1.553,1.921,1.553,3.177
			c0,0.405-0.078,0.808-0.234,1.208c-0.158,0.399-0.357,0.781-0.598,1.145s-0.502,0.698-0.783,1.005
			c-0.283,0.306-0.549,0.563-0.799,0.771l0.014-0.016c-0.268,0.239-0.57,0.483-0.908,0.732s-0.701,0.493-1.09,0.732
			c-0.389,0.238-0.791,0.462-1.207,0.669c-0.416,0.208-0.842,0.39-1.277,0.546c-0.406,0.145-0.834,0.282-1.283,0.412
			s-0.895,0.242-1.34,0.335c-0.443,0.094-0.871,0.166-1.283,0.219c-0.412,0.052-0.783,0.077-1.117,0.077
			c-0.176,0-0.391-0.023-0.645-0.069c-0.254-0.047-0.523-0.112-0.805-0.195c-0.283-0.083-0.564-0.182-0.848-0.296
			c-0.281-0.114-0.533-0.244-0.756-0.39s-0.402-0.301-0.541-0.467s-0.209-0.343-0.209-0.529c0-0.166,0.029-0.369,0.084-0.607
			c0.057-0.239,0.137-0.47,0.242-0.693c0.107-0.224,0.232-0.415,0.375-0.576c0.145-0.161,0.299-0.242,0.465-0.242
			c0.232,0,0.449,0.031,0.652,0.094s0.434,0.133,0.688,0.21c0.254,0.078,0.551,0.151,0.889,0.219
			c0.336,0.067,0.756,0.101,1.256,0.101c0.498,0,1.02-0.06,1.561-0.179s1.076-0.28,1.604-0.482c0.527-0.203,1.031-0.434,1.512-0.693
			s0.916-0.53,1.305-0.811c0.166-0.124,0.35-0.267,0.549-0.428c0.197-0.161,0.383-0.338,0.555-0.53c0.17-0.191,0.314-0.392,0.43-0.6
			c0.115-0.207,0.174-0.42,0.174-0.639c0-0.249-0.166-0.487-0.5-0.716v0.016c-0.49-0.333-0.977-0.587-1.457-0.764
			s-0.902-0.321-1.264-0.437c-1.018-0.29-2.256-0.752-3.719-1.386h0.014c-0.609-0.27-1.201-0.618-1.775-1.044
			s-1.068-0.872-1.484-1.339c-0.926-1.153-1.389-2.482-1.389-3.988c0-0.592,0.148-1.168,0.445-1.729
			c0.295-0.561,0.697-1.088,1.207-1.581c0.508-0.493,1.098-0.947,1.77-1.363c0.67-0.415,1.385-0.771,2.143-1.066
			c0.76-0.296,1.533-0.527,2.324-0.693s1.557-0.249,2.297-0.249c0.232,0,0.521,0.019,0.867,0.055
			c0.348,0.036,0.703,0.088,1.068,0.155c0.367,0.067,0.715,0.15,1.049,0.249c0.332,0.1,0.596,0.211,0.791,0.335h-0.014
			c0.535,0.322,0.959,0.707,1.27,1.153S238.916,37.016,238.916,37.44z"/>
		<path fill="#333334" d="M257.039,46.911c0,0.239-0.082,0.543-0.242,0.911c-0.162,0.369-0.385,0.779-0.666,1.23
			c-0.283,0.452-0.619,0.935-1.008,1.448c-0.387,0.515-0.809,1.042-1.262,1.581c-0.49,0.593-1.023,1.174-1.596,1.745
			c-0.574,0.571-1.186,1.121-1.832,1.65c-0.639,0.52-1.268,0.922-1.887,1.208c-0.621,0.285-1.207,0.428-1.764,0.428
			c-0.646,0-1.209-0.122-1.686-0.366c-0.477-0.243-0.883-0.576-1.221-0.996c-0.338-0.421-0.613-0.903-0.826-1.449
			c-0.213-0.545-0.381-1.121-0.506-1.729s-0.211-1.223-0.258-1.846c-0.045-0.623-0.068-1.215-0.068-1.776
			c0-0.218,0.014-0.545,0.041-0.98c0.027-0.437,0.066-0.896,0.119-1.379c0.051-0.482,0.105-0.95,0.166-1.401
			c0.061-0.452,0.123-0.808,0.188-1.067c0.139-0.509,0.457-0.991,0.957-1.448c0.48-0.437,1.018-0.654,1.609-0.654
			c0.602,0,0.902,0.404,0.902,1.215c0,0.384-0.029,0.792-0.09,1.223s-0.127,0.854-0.201,1.27c-0.121,0.758-0.203,1.44-0.25,2.048
			s-0.07,1.146-0.07,1.612c0,0.529,0.029,1.044,0.084,1.542s0.137,0.942,0.242,1.332c0.107,0.39,0.24,0.703,0.402,0.942
			s0.355,0.358,0.576,0.358c0.277,0,0.564-0.029,0.861-0.086c0.295-0.057,0.652-0.21,1.068-0.46
			c0.795-0.487,1.643-1.146,2.539-1.978c0.314-0.291,0.674-0.636,1.076-1.036c0.402-0.399,0.803-0.81,1.199-1.23
			c0.398-0.421,0.773-0.833,1.125-1.238s0.629-0.753,0.832-1.044c0.027-0.052,0.066-0.116,0.117-0.194s0.109-0.158,0.174-0.241
			s0.137-0.153,0.215-0.211c0.08-0.057,0.156-0.085,0.23-0.085c0.146,0,0.256,0.023,0.326,0.069c0.068,0.047,0.145,0.19,0.229,0.429
			C256.988,46.517,257.039,46.734,257.039,46.911z M248.408,34.092c0,0.343-0.047,0.668-0.139,0.974
			c-0.094,0.307-0.229,0.595-0.402,0.864c-0.354,0.551-0.895,0.826-1.625,0.826c-0.258,0-0.521-0.026-0.791-0.078
			c-0.268-0.052-0.508-0.125-0.721-0.218c-0.213-0.094-0.389-0.213-0.527-0.358s-0.209-0.312-0.209-0.499
			c0-0.321,0.074-0.662,0.223-1.02c0.148-0.358,0.34-0.69,0.576-0.997s0.494-0.561,0.777-0.764c0.281-0.202,0.553-0.304,0.811-0.304
			c0.324,0,0.611,0.023,0.861,0.07s0.459,0.127,0.631,0.241s0.303,0.275,0.396,0.483C248.361,33.521,248.408,33.78,248.408,34.092z"
			/>
		<path fill="#333334" d="M255.193,52.207c0-0.478,0.025-0.958,0.076-1.44c0.051-0.483,0.115-0.961,0.195-1.434
			c0.078-0.473,0.164-0.932,0.256-1.378s0.176-0.873,0.25-1.277c0.102-0.54,0.193-1.022,0.277-1.449
			c0.084-0.425,0.135-0.819,0.152-1.184c-0.139,0.031-0.293,0.061-0.465,0.086c-0.172,0.026-0.344,0.052-0.52,0.078
			c-0.176,0.025-0.348,0.044-0.514,0.054c-0.166,0.011-0.305,0.016-0.416,0.016c-0.287,0-0.535-0.022-0.742-0.069
			c-0.209-0.047-0.383-0.135-0.521-0.265s-0.24-0.312-0.305-0.546c-0.064-0.233-0.098-0.532-0.098-0.896
			c0-0.229,0.049-0.421,0.146-0.576c0.096-0.156,0.227-0.28,0.389-0.374c0.16-0.094,0.342-0.158,0.541-0.194s0.395-0.055,0.59-0.055
			c0.074,0,0.217-0.013,0.43-0.039c0.213-0.025,0.439-0.055,0.68-0.086s0.477-0.062,0.707-0.093
			c0.232-0.031,0.404-0.052,0.514-0.063c0.074,0,0.146-0.063,0.215-0.187c0.07-0.125,0.135-0.273,0.195-0.444
			c0.061-0.172,0.113-0.348,0.16-0.529c0.045-0.182,0.078-0.335,0.096-0.46c0.047-0.28,0.113-0.623,0.201-1.028
			c0.088-0.404,0.186-0.819,0.293-1.246c0.105-0.425,0.217-0.833,0.332-1.223c0.115-0.389,0.229-0.698,0.34-0.927
			c0.148-0.321,0.311-0.565,0.486-0.731s0.439-0.25,0.791-0.25c0.49,0,0.848,0.131,1.076,0.39c0.227,0.26,0.34,0.66,0.34,1.199
			c0,0.25-0.049,0.571-0.146,0.966s-0.205,0.818-0.326,1.27c-0.121,0.452-0.234,0.909-0.34,1.371
			c-0.107,0.462-0.164,0.875-0.174,1.238c0.186,0,0.453-0.021,0.805-0.063c0.352-0.041,0.723-0.091,1.111-0.148
			c0.389-0.057,0.76-0.116,1.117-0.179c0.355-0.063,0.625-0.114,0.811-0.155c0.389-0.094,0.688-0.164,0.895-0.211
			c0.209-0.047,0.398-0.091,0.57-0.132c0.17-0.042,0.355-0.091,0.555-0.148c0.199-0.057,0.479-0.143,0.84-0.257
			c0.139,0.125,0.25,0.224,0.332,0.296c0.084,0.073,0.146,0.133,0.188,0.179c0.043,0.047,0.07,0.092,0.084,0.133
			c0.014,0.042,0.021,0.088,0.021,0.141c0,0.404-0.168,0.776-0.5,1.113c-0.334,0.338-0.754,0.636-1.264,0.896
			c-0.508,0.26-1.061,0.48-1.658,0.662c-0.596,0.182-1.158,0.324-1.686,0.429c-0.389,0.072-0.738,0.135-1.047,0.187
			c-0.311,0.052-0.582,0.102-0.813,0.148c-0.232,0.046-0.422,0.099-0.568,0.155c-0.148,0.058-0.26,0.127-0.334,0.21
			c-0.121,0.468-0.256,1.026-0.41,1.675c-0.152,0.649-0.297,1.332-0.436,2.048c-0.139,0.717-0.256,1.441-0.348,2.173
			c-0.092,0.732-0.139,1.415-0.139,2.049c0,0.717,0.125,1.251,0.375,1.604c0.25,0.353,0.602,0.529,1.055,0.529
			c0.416,0,0.826-0.033,1.229-0.102c0.402-0.067,0.822-0.191,1.262-0.373s0.906-0.429,1.402-0.74
			c0.494-0.312,1.047-0.711,1.658-1.199c0.166-0.146,0.34-0.307,0.52-0.483c0.182-0.176,0.363-0.345,0.549-0.506
			s0.375-0.296,0.568-0.405c0.195-0.108,0.393-0.163,0.598-0.163c0.184,0,0.33,0.049,0.436,0.147c0.107,0.099,0.16,0.252,0.16,0.46
			c0,0.155-0.047,0.345-0.139,0.568s-0.223,0.459-0.389,0.709c-0.166,0.249-0.363,0.506-0.59,0.771s-0.479,0.517-0.756,0.756
			c-0.537,0.478-1.098,0.932-1.686,1.362c-0.588,0.432-1.186,0.808-1.791,1.13s-1.213,0.576-1.824,0.763
			c-0.611,0.188-1.217,0.28-1.818,0.28c-0.74,0-1.369-0.127-1.887-0.381c-0.518-0.255-0.941-0.595-1.27-1.021
			s-0.57-0.911-0.723-1.456C255.27,53.336,255.193,52.778,255.193,52.207z"/>
		<path fill="#333334" d="M280.838,49.17c0,0.384-0.135,0.82-0.402,1.309c-0.268,0.487-0.629,0.996-1.082,1.526
			c-0.5,0.571-1.047,1.104-1.645,1.597s-1.217,0.919-1.859,1.276c-0.643,0.358-1.297,0.639-1.963,0.842
			c-0.666,0.202-1.314,0.304-1.943,0.304c-0.777,0-1.469-0.138-2.074-0.413c-0.607-0.275-1.119-0.68-1.541-1.215
			s-0.742-1.202-0.965-2.002c-0.221-0.799-0.332-1.718-0.332-2.757c0-0.623,0.053-1.256,0.158-1.9
			c0.107-0.644,0.262-1.285,0.465-1.923c0.205-0.639,0.459-1.257,0.764-1.854c0.307-0.597,0.652-1.16,1.041-1.689
			c0.25-0.332,0.535-0.667,0.854-1.005c0.318-0.337,0.674-0.641,1.063-0.911c0.389-0.27,0.816-0.49,1.283-0.662
			c0.467-0.171,0.973-0.257,1.52-0.257c0.443,0,0.84,0.091,1.186,0.272c0.348,0.182,0.641,0.413,0.881,0.693
			c0.242,0.28,0.426,0.597,0.557,0.95c0.129,0.353,0.193,0.701,0.193,1.043c0,0.811-0.154,1.565-0.465,2.267
			s-0.742,1.371-1.297,2.01s-1.225,1.264-2.006,1.877c-0.781,0.612-1.645,1.241-2.588,1.885c-0.047,0.021-0.117,0.067-0.215,0.14
			c-0.098,0.073-0.146,0.12-0.146,0.141c0.01,0.208,0.057,0.431,0.139,0.67c0.084,0.238,0.213,0.462,0.389,0.67
			c0.176,0.207,0.4,0.381,0.674,0.521c0.273,0.14,0.598,0.21,0.979,0.21c0.582,0,1.17-0.091,1.762-0.272s1.176-0.444,1.748-0.786
			c0.574-0.343,1.135-0.759,1.68-1.246c0.545-0.488,1.064-1.039,1.555-1.651c0.184-0.239,0.367-0.41,0.547-0.514
			c0.182-0.104,0.35-0.156,0.508-0.156c0.156,0,0.293,0.073,0.408,0.218C280.781,48.521,280.838,48.785,280.838,49.17z
			 M274.107,43.204c0-0.166-0.027-0.304-0.082-0.413c-0.057-0.108-0.119-0.194-0.188-0.257c-0.07-0.063-0.139-0.106-0.209-0.133
			c-0.068-0.025-0.117-0.038-0.145-0.038c-0.418,0-0.801,0.179-1.152,0.537s-0.666,0.817-0.943,1.378
			c-0.277,0.562-0.521,1.179-0.729,1.854c-0.209,0.676-0.383,1.33-0.521,1.963c0.555-0.478,1.074-0.919,1.555-1.324
			c0.48-0.404,0.9-0.799,1.256-1.184c0.355-0.384,0.639-0.769,0.846-1.152C274.004,44.051,274.107,43.64,274.107,43.204z"/>
	</g>
	<g>
		<path fill="#676868" d="M118.353,88.248H114.1V76.822h4.253V88.248z M117.776,87.733V77.365h-3.101v10.368H117.776z
			 M118.929,82.492v-0.543h1.742V76.65h0.563v12.354h-0.563v-6.513H118.929z M123.276,76.564h0.576v12.598h-0.576V76.564z"/>
		<path fill="#676868" d="M132.291,79.407v-2.042h-5.075v-0.543h5.665v2.542c0,4.813-1.962,7.855-5.733,8.94v-0.571
			C130.508,86.72,132.291,83.892,132.291,79.407z M136.544,76.579v5.499h2.057v0.528h-2.057v6.556h-0.576V76.579H136.544z"/>
		<path fill="#676868" d="M140.784,79.307h4.473v-2.556h0.576v6.513h-5.625v-6.513h0.576V79.307z M145.257,82.721v-2.899h-4.473
			v2.899H145.257z M140.798,85.363h8.917v3.998h-0.575v-3.456h-8.342V85.363z M149.715,76.579v3.271h1.962v0.543h-1.962v3.499
			h-0.575v-7.313H149.715z"/>
		<path fill="#676868" d="M153.201,88.548v-0.515h10.741v0.515H153.201z M158.565,79.95c-0.659,1.885-2.291,3.527-5.145,4.155v-0.57
			c2.813-0.629,4.855-2.643,4.855-5.413v-1.371h0.576v1.371c0,2.771,2.154,4.784,4.843,5.413v0.57
			C160.911,83.463,159.237,81.835,158.565,79.95z"/>
		<path fill="#676868" d="M176.126,88.262h-5.281v-6.041h4.691v-4.855h-4.691v-0.543h5.268v5.927h-4.705v4.971h4.787
			c1.414,0,2.758-0.443,3.525-1.243v-9.897h0.576v12.568h-0.576V87.02C179.021,87.805,177.608,88.262,176.126,88.262z"/>
		<path fill="#676868" d="M183.509,85.349V84.82h10.74v0.528h-2.578v3.941h-0.563v-3.941h-4.391v3.941h-0.576v-3.941H183.509z
			 M184.771,76.68v4.927h8.916v0.543h-9.479v-5.47H184.771z"/>
		<path fill="#676868" d="M196.857,79.364c0-0.942,0.356-1.671,0.933-2.156c0.535-0.472,1.304-0.715,2.154-0.715
			c0.863,0,1.633,0.243,2.167,0.715c0.563,0.485,0.933,1.214,0.933,2.156c0,0.929-0.37,1.643-0.933,2.143
			c-0.534,0.471-1.304,0.714-2.167,0.714c-0.851,0-1.619-0.243-2.154-0.714C197.214,81.007,196.857,80.293,196.857,79.364z
			 M197.434,79.364c0,0.743,0.261,1.328,0.7,1.714c0.452,0.414,1.084,0.629,1.811,0.629c0.713,0,1.357-0.215,1.811-0.629
			c0.439-0.386,0.699-0.971,0.699-1.714c0-0.757-0.26-1.328-0.699-1.729c-0.453-0.414-1.098-0.628-1.811-0.628
			c-0.727,0-1.358,0.214-1.811,0.628C197.694,78.036,197.434,78.607,197.434,79.364z M198.421,86.806v1.956h8.451v0.515h-9.041
			v-2.985h8.3V84.32h-8.3v-0.515h8.876v3H198.421z M203.579,79.621v-0.514h2.552v-2.528h0.576v6.013h-0.576v-2.971H203.579z"/>
		<path fill="#676868" d="M217.095,83.978c-0.33,1.942-1.715,3.556-3.484,4.313v-0.586c1.591-0.757,3.195-2.371,3.195-5.784v-5.17
			h0.576v5.17c0,3.413,1.619,4.941,3.196,5.784v0.586C218.851,87.477,217.45,85.92,217.095,83.978z M223.5,76.579v5.499h2.058v0.528
			H223.5v6.556h-0.575V76.579H223.5z"/>
		<path fill="#676868" d="M227.343,82.506c0-2.456,0.33-4.241,1.193-5.17c0.453-0.514,1.07-0.771,1.852-0.771
			c0.77,0,1.387,0.258,1.839,0.771c0.878,0.929,1.193,2.714,1.193,5.17c0,2.442-0.315,4.242-1.193,5.171
			c-0.452,0.5-1.069,0.742-1.839,0.742c-0.781,0-1.398-0.242-1.852-0.742C227.673,86.748,227.343,84.948,227.343,82.506z
			 M232.844,82.506c0-2.313-0.274-3.97-1.015-4.784c-0.357-0.386-0.851-0.628-1.441-0.628c-0.604,0-1.097,0.242-1.453,0.628
			c-0.74,0.814-1.016,2.471-1.016,4.784c0,2.314,0.275,3.957,1.016,4.785c0.356,0.399,0.85,0.614,1.453,0.614
			c0.591,0,1.084-0.215,1.441-0.614C232.569,86.463,232.844,84.82,232.844,82.506z M236.369,89.147V76.579h0.576v12.568H236.369z"/>
		<path fill="#676868" d="M240.157,88.548v-0.515h10.742v0.515H240.157z M250.199,77.365h-8.779v3.142h8.614v0.543h-8.614v3.128
			h8.944v0.528h-9.507v-7.884h9.342V77.365z"/>
	</g>
</g>
</svg>
