<?xml version="1.0" encoding="utf-8"?>
<!-- Generator: Adobe Illustrator 16.0.0, SVG Export Plug-In . SVG Version: 6.00 Build 0)  -->
<!DOCTYPE svg PUBLIC "-//W3C//DTD SVG 1.1//EN" "http://www.w3.org/Graphics/SVG/1.1/DTD/svg11.dtd">
<svg version="1.1" id="Layer_1" xmlns="http://www.w3.org/2000/svg" xmlns:xlink="http://www.w3.org/1999/xlink" x="0px" y="0px"
	 width="365px" height="596px" viewBox="0 0 365 596" enable-background="new 0 0 365 596" xml:space="preserve">
<g>
	<rect fill="#FFFFFF" width="365" height="596"/>
	<g>
		<g>
			<defs>
				<rect id="SVGID_1_" x="32.539" y="109.233" width="299.922" height="447.091"/>
			</defs>
			<clipPath id="SVGID_2_">
				<use xlink:href="#SVGID_1_"  overflow="visible"/>
			</clipPath>
			<polygon clip-path="url(#SVGID_2_)" fill="#EADBCC" points="170.232,106.375 170.232,446.645 334.059,402.303 339.246,106.375 
							"/>
			<polygon clip-path="url(#SVGID_2_)" fill="#D0BAA7" points="179.42,106.375 179.42,450.361 6.598,400.266 1.221,106.375 			"/>
			<polygon clip-path="url(#SVGID_2_)" fill="#C4A98E" points="30.141,403.078 30.141,475.467 30.141,491.096 80.941,491.096 
				179.42,445.631 			"/>
			<path clip-path="url(#SVGID_2_)" fill="#BFA17D" d="M161.525,466.621L32.539,515.227l105.266,49.32l77.092-4.289l74.816-38.656
				C289.713,521.602,175.863,461.217,161.525,466.621z"/>
			<path clip-path="url(#SVGID_2_)" fill="#DFC8AE" d="M339.59,324.393l1.82-22.268c0,0-35.631-2.067-40.469-2.067
				c-4.834,0-4.215,4.218-4.215,4.218v16.492h-15.793c-0.002,0.003-0.004,0.005-0.006,0.007c-1.049-0.148-6.146-0.442-6.146,7.896
				c0,9.291,0,14.295,0,14.295h-11.971c0,0-10.912,0-10.912,11.081c0,11.075,0,21.083,0,21.083h-14.434c0,0-7.043-0.67-7.043,7.151
				c0,10.003,0,20.726,0,20.726H217.75c0,0-10.561-2.143-10.561,10.008s0,24.303,0,24.303l-24.289,5.688
				c0,0-3.875,0.746-3.875,3.641c0,7.506,0,28.553,0,28.553l152.08,62.188l14.283-212.637L339.59,324.393z"/>
			<polygon clip-path="url(#SVGID_2_)" fill="#AF9373" points="203.408,562.76 343.152,574.453 336.289,497.357 			"/>
			<polygon clip-path="url(#SVGID_2_)" fill="#B8A289" points="30.141,481.504 179.42,445.631 179.42,475.467 30.141,518.799 			"/>
			<polygon clip-path="url(#SVGID_2_)" fill="#AF9373" points="28.648,523.805 28.648,560.971 133.912,560.971 28.648,507.365 			
				"/>
			<path clip-path="url(#SVGID_2_)" fill="#C9AA8A" d="M230.422,403.006c12.262,1.361,102.914,30.735,102.914,30.735
				s9.057,1.813-11.545,8.222l-109.85-35.063c0,0-1.344-0.31-1.406-1.569s3.648-2.324,3.648-2.324H230.422z"/>
			<path clip-path="url(#SVGID_2_)" fill="#C9AA8A" d="M251.955,370.111v5h-3.457c0,0,75.656,14.299,86.908,14.299l-0.939-5.709
				C334.467,383.701,269.906,375.113,251.955,370.111z"/>
			<path clip-path="url(#SVGID_2_)" fill="#C9AA8A" d="M256.564,344.876c0,0,73.791,6.675,79.719,8.761l0.311-4.381l-60.568-7.113
				C276.025,342.143,259.377,340.621,256.564,344.876z"/>
			<path clip-path="url(#SVGID_2_)" fill="#C9AA8A" d="M295.719,323.502c0,0,35.205,0.816,40.135,1.901v1.632l-54.92-6.268
				C280.934,320.768,274.064,322.828,295.719,323.502z"/>
			<path clip-path="url(#SVGID_2_)" fill="#C9AA8A" d="M212.648,439.059l-5.459-1.696l-24.025,5.58c0,0-2.023,0.442-2.107,0.808
				l35.461,12.73c17.457,6.553,75.645,31.092,75.645,31.092l28.385-13.119C307.018,471.435,212.648,439.059,212.648,439.059z"/>
			<path clip-path="url(#SVGID_2_)" fill="#AF9373" d="M332.697,435.887l-8.275,2.145c0,0-5.188,1.563-5.188,7.861
				c0,9.291,0,28.561,0,28.561l-24.463,8.965c0,0-6.672,1.412-6.672,9.65c0,9.441,0,27.875,0,27.875l48.189-21.442L332.697,435.887z
				"/>
			<g clip-path="url(#SVGID_2_)">
				<path fill="#EC7267" d="M32.787,427.637c0,0,19.813,1.52,22.236-2.043s13.4-50.033,11.975-52.172
					c-1.424-2.137-28.936-2.424-34.211,0.854V427.637z"/>
				<path fill="#EE827A" d="M32.787,379.265c32.643,0,34.211-5.843,34.211-5.843c0-8.644-34.211-6.273-34.211-6.273V379.265z"/>
				<path fill="#26140A" d="M45.541,226.5v40.676c0,0-2.279,13.87-3.611,20.144c-1.332,6.271,0,22.429,0,22.429l-0.592,30.598
					l-3.209,26.508c0,0-1.521,6.207,4.752,6.207c6.271,0,7.689-0.971,7.076-6.011c-0.615-5.038-1.223-40.961-0.064-54.263
					c1.16-13.305,0-36.303,0-36.303L50.41,228.4C50.41,228.4,48.199,220.038,45.541,226.5z"/>
				<path fill="#29230D" d="M52.191,230.341c0,0,25.85,0.149,26.799-2.321c0,0,0.762-2.469-3.42-1.52
					c-4.18,0.949-18.057,1.707-18.057,1.707s-6.271,0.193-0.568-2.848c5.701-3.041,21.477-11.594,20.906-15.205
					s-5.322,2.282-5.322,2.282s-16.156,12.164-16.727,11.973c-0.568-0.189-1.898-0.759,0.951-2.851
					c2.852-2.092,15.586-15.588,14.824-18.054c0,0,0.189-2.665-2.469,0c-2.662,2.659-15.967,18.624-15.967,18.624
					s-0.809,0.879-1.734-0.049c-0.928-0.926,0.285-2.209,0.285-2.209s15.07-23.305,12.879-24.447c0,0-0.619-1.139-1.832,1.143
					c-1.211,2.281-11.332,21.451-11.332,21.451s0,0.5-0.57,0.5s-0.285-1.924-0.285-1.924l-1.211-20.027c0,0,0.283-2.281-1.426-2.281
					c-1.711,0-0.713,3.99-0.713,3.99s1.283,14.541,0.285,14.824c-0.998,0.285-1.568-1.711-1.568-1.711s-7.838-23.377-11.119-23.092
					c0,0-2.137-1.568,0,3.709c2.139,5.271,9.979,21.951,8.838,23.231c-1.141,1.283-13.256-18.956-13.256-18.956v6.699l11.83,13.828
					c0,0,2.566,2.85,1.426,4.417c-1.141,1.568-13.256-9.407-13.256-9.407v2.853l11.547,8.265c0,0,1.426,0.286,0.854,1.996
					c-0.57,1.711-1.566,0.57-1.566,0.57l-10.834-3.991v2.709l10.977,3.421c0,0,2.496,0.846,4.986,1.853
					C48.064,230.184,52.191,230.341,52.191,230.341z"/>
				<path fill="#29230D" d="M49.957,279.811c0,0,10.076-1.426,14.066,4.279c5.873,8.387,9.121,12.258,9.121,12.258
					s4.277,3.42-1.709-11.83c0,0-2.939-9.552-16.721-7.985c0,0-1.668,0.714-1.668-0.854s1.668-1.71,1.668-1.71l15.01-8.837
					c0,0,1.783-0.928,0.855-1.854c-0.926-0.928-2.424,0-2.424,0l-11.688,6.414c0,0-2.564,1.282,0.426-2.708
					c2.994-3.991,9.551-15.11,9.551-15.11s0.928-0.783-0.143-1.854c-1.068-1.07-1.994,0.855-1.994,0.855l-8.838,12.688
					c0,0-4.277,5.701-5.988,2.992s-1.283-9.551-5.986-10.69c0,0-3.563-1.284,0,5.415c3.564,6.701-0.426,3.564-0.426,3.564
					l-12.688-7.982v6.701c0,0,16.393,6.984,12.115,7.838c-4.275,0.855-12.115-0.568-12.115-0.568v4.988c0,0,9.979-0.998,7.27,0.144
					c-2.707,1.14-7.27,3.134-7.27,3.134v2.709c0,0,8.967-4.076,13.813-1.797C44.195,280.01,46.787,280.668,49.957,279.811z"/>
				<path fill="#29230D" d="M42.213,354.646l-10.975,4.136l-0.855-2.14c0,0,11.262-4.562,11.83-5.557c0.57-1-0.996-1.57-0.996-1.57
					H28.244v-2.139h10.977c0,0,0.998-0.144,0.998-1.426c0-1.281-1.141-1.566-1.141-1.566l-8.695-2.424v-2.281
					c10.834,4.277,9.408-1.281,9.408-1.281l-1.854-6.416c0,0-1.566-5.131,0-6.984c1.568-1.853,2.566,0,2.566,0
					s0.428,8.411,2.279,11.973c1.854,3.564,5.27,1.428,5.27,1.428l9.131-4.704c0,0,5.273-2.993,6.127-1.426
					c0.855,1.567-4.893,3.991-4.893,3.991c-11.449,4.703-10.219,14.254-10.361,16.494c-0.141,2.242,1.836,1.465,1.836,1.465
					l12.564-5.701c0,0,2.137-1.709,3.135-0.712c0.996,0.998-0.141,1.995-0.141,1.995s-3.994,1.995-6.416,3.42
					c-2.424,1.426-1.996,1.568-1.996,2.283c0,0.713,8.268-0.572,8.268-0.572s2.992-1.141,3.42,0s-1.729,2.138-1.729,2.138
					c-2.156,1.571-16.088,0.715-16.088,0.715s-4.277,0.429-5.703-0.998C43.781,355.361,43.791,354.055,42.213,354.646z"/>
			</g>
		</g>
		<g>
			<g>
				<g>
					<path fill="#FFFFFF" d="M256.414,178.904c-3.918-4.288-11.536-5.681-15.818-1.195c-0.935,0.979,0.548,2.466,1.484,1.485
						c3.514-3.68,9.698-2.253,12.85,1.195C255.845,181.391,257.325,179.901,256.414,178.904L256.414,178.904z"/>
				</g>
			</g>
			<g>
				<g>
					<path fill="#FFFFFF" d="M265.236,180.028c1.55-3.176,6.203-6.352,9.614-4.103c1.135,0.748,2.186-1.072,1.061-1.813
						c-4.354-2.871-10.44,0.661-12.487,4.856C262.832,180.18,264.643,181.245,265.236,180.028L265.236,180.028z"/>
				</g>
			</g>
			<g>
				<g>
					<path fill="#FFFFFF" d="M260.532,184.563c-0.608-0.417-1.372-0.876-2.142-0.821c-0.868,0.063-1.396,0.684-1.461,1.524
						c-0.111,1.428,1.374,2.818,2.542,3.35c0.521,0.237,1.126,0.154,1.437-0.377c0.268-0.456,0.145-1.199-0.376-1.437
						c-0.487-0.222-0.696-0.367-1.035-0.714c-0.069-0.071-0.133-0.148-0.197-0.225c0.134,0.16-0.081-0.134-0.103-0.168
						c-0.045-0.073-0.084-0.149-0.123-0.226c-0.086-0.172,0.052,0.172-0.031-0.107c-0.022-0.074-0.046-0.301-0.011,0.021
						c-0.03-0.278-0.051,0.151-0.017,0.005c-0.059,0.25-0.344,0.433-0.565,0.449c0.225-0.016-0.253-0.057,0.002-0.005
						c0.038,0.008,0.354,0.125,0.198,0.056c0.291,0.129,0.56,0.309,0.821,0.488c0.474,0.324,1.163,0.09,1.437-0.377
						C261.214,185.479,261.003,184.886,260.532,184.563L260.532,184.563z"/>
				</g>
			</g>
			<g>
				<g>
					<path fill="#FFFFFF" d="M258.952,186.068c0,0.149,0,0.298,0,0.447c0,1.354,2.1,1.354,2.1,0c0-0.149,0-0.298,0-0.447
						C261.052,184.714,258.952,184.714,258.952,186.068L258.952,186.068z"/>
				</g>
			</g>
			<g>
				<g>
					<path fill="#FFFFFF" d="M261.34,186.811c0.228-0.234,0.436-0.574,0.752-0.589c-0.338-0.443-0.675-0.886-1.013-1.329
						c-0.164,0.897-1.057,1.47-1.671,2.075c-0.967,0.952,0.52,2.436,1.484,1.485c0.887-0.873,1.975-1.702,2.212-3.001
						c0.116-0.637-0.281-1.364-1.013-1.329c-0.981,0.046-1.579,0.53-2.236,1.204C258.909,186.295,260.394,187.782,261.34,186.811
						L261.34,186.811z"/>
				</g>
			</g>
			<g>
				<g>
					<path fill="#FFFFFF" d="M258.813,188.9c0.749,0.896,1.871,0.966,2.768,0.256c0.663-0.525,1.086-1.35,1.418-2.111
						c0.229-0.524,0.16-1.122-0.376-1.437c-0.45-0.263-1.208-0.148-1.437,0.377c-0.187,0.426-0.435,0.961-0.684,1.282
						c-0.146,0.187-0.292,0.305-0.367,0.348c0.268-0.152,0.465,0.161,0.162-0.201c-0.367-0.439-1.107-0.377-1.484,0
						C258.381,187.846,258.445,188.461,258.813,188.9L258.813,188.9z"/>
				</g>
			</g>
			<g>
				<g>
					<path fill="#FFFFFF" d="M258.923,189.064c0.787,0.52,1.701,0.64,2.512,0.099c0.674-0.45,1.188-1.217,1.634-1.883
						c0.853-1.277,1.009-3.231-0.896-3.569c-1.324-0.234-1.891,1.79-0.559,2.025c0.256,0.045,0.214,0.067,0.071-0.123
						c-0.044-0.264-0.062-0.301-0.053-0.111c0.001-0.081-0.011-0.051-0.037,0.088c-0.076,0.267-0.264,0.516-0.417,0.745
						c-0.179,0.268-0.374,0.51-0.633,0.814c-0.09,0.105-0.188,0.212-0.303,0.289c-0.059,0.018-0.041,0.017,0.053-0.002
						c-0.112-0.047-0.217-0.108-0.312-0.185C258.85,186.501,257.799,188.321,258.923,189.064L258.923,189.064z"/>
				</g>
			</g>
			<g>
				<g>
					<path fill="#FFFFFF" d="M258.591,184.893c-0.27,0.744-0.106,1.412,0.368,2.02c0.354,0.452,1.116,0.367,1.484,0
						c0.765-0.763,0.854-2.169-0.069-2.843c-1.219-0.889-2.212,0.89-2.287,1.884c-0.089,1.184,1.233,2.035,2.165,1.147
						c0.688-0.655,0.742-1.932,0.259-2.724c-0.585-0.958-1.801-0.603-2.213,0.289c-0.325,0.703-0.51,1.539-0.364,2.308
						c0.189,1.007,1.299,1.429,2.196,1.103c0.81-0.294,1.459-0.917,2.056-1.516c-0.55-0.424-1.1-0.849-1.648-1.272
						c-0.293,0.392-0.582,0.784-0.846,1.195c-0.657,1.026,0.809,2.089,1.648,1.272c0.535-0.52,0.863-1.185,1.346-1.742
						c-0.55-0.424-1.1-0.849-1.648-1.272c-0.29,0.548-0.642,1.049-1.031,1.529c-0.36,0.444-0.436,1.049,0,1.485
						c0.373,0.373,1.123,0.445,1.484,0c0.503-0.619,0.986-1.249,1.359-1.955c0.537-1.015-0.837-2.209-1.648-1.272
						c-0.481,0.556-0.818,1.23-1.346,1.742c0.55,0.424,1.1,0.849,1.648,1.272c0.264-0.412,0.554-0.803,0.846-1.195
						c0.729-0.977-0.828-2.095-1.648-1.272c-0.309,0.31-0.621,0.623-0.96,0.854c-0.101,0.069-0.208,0.126-0.316,0.182
						c0.14-0.072-0.222,0.001,0.032-0.011c0.293-0.015,0.437,0.206,0.531,0.445c-0.048-0.122-0.003,0.216-0.007-0.086
						c-0.001-0.09,0.009-0.181,0.018-0.271c-0.023,0.241,0.021-0.074,0.026-0.104c0.02-0.094,0.046-0.187,0.072-0.28
						c0.016-0.056,0.164-0.406,0.046-0.15c0.035-0.077,0.171-0.242-0.028,0c-0.77,0.305-1.25,0.211-1.44-0.281
						c0.02,0.066,0.034,0.134,0.047,0.202c0.005,0.026-0.025,0.22-0.005,0.115c0.036-0.185,0.413-0.343,0.579-0.322
						c0.177,0.048,0.354,0.096,0.53,0.143c0.211,0.145,0.329,0.33,0.353,0.554c-0.016,0.087-0.005,0.051,0.032-0.106
						c0.049-0.183,0.061-0.199,0.145-0.265c-0.154,0.09-0.309,0.18-0.463,0.27c-0.316-0.169-0.633-0.338-0.949-0.507
						c0.029,0.116,0.029,0.121,0.002,0.014c-0.004-0.092-0.092,0.062,0.014-0.044c0.495,0,0.989,0,1.484,0
						c0.157,0.201,0.075,0.292,0.173,0.024C261.079,184.175,259.049,183.63,258.591,184.893L258.591,184.893z"/>
				</g>
			</g>
			<g>
				<g>
					<path fill="#FFFFFF" d="M240.51,187.679c7.813,2.915,13.737,6.627,22.435,5.5c5.136-0.667,12.375-3.037,15.034-7.925
						c0.647-1.189-1.166-2.25-1.813-1.06c-3.084,5.667-12.251,7.104-17.957,7.244c-6.195,0.151-11.585-3.711-17.141-5.784
						C239.797,185.179,239.253,187.209,240.51,187.679L240.51,187.679z"/>
				</g>
			</g>
			<g>
				<g>
					<path fill="#FFFFFF" d="M248.735,190.866c-0.271,1.226-0.864,2.45-1.257,3.651c-0.47,1.433-0.948,2.87-1.382,4.313
						c-0.391,1.3,1.637,1.852,2.025,0.559c0.376-1.253,0.809-2.49,1.198-3.74c0.438-1.407,1.124-2.792,1.44-4.224
						C251.052,190.105,249.027,189.544,248.735,190.866L248.735,190.866z"/>
				</g>
			</g>
			<g>
				<g>
					<path fill="#FFFFFF" d="M254.026,192.438c-0.04,3.343-1.108,6.561-1.148,9.906c-0.017,1.355,2.084,1.353,2.1,0
						c0.04-3.343,1.109-6.56,1.148-9.906C256.143,191.083,254.042,191.084,254.026,192.438L254.026,192.438z"/>
				</g>
			</g>
			<g>
				<g>
					<path fill="#FFFFFF" d="M261.788,192.24c0.203,4.238,0.995,8.413,1.295,12.643c0.095,1.343,2.195,1.352,2.1,0
						c-0.3-4.229-1.091-8.405-1.295-12.643C263.823,190.892,261.723,190.886,261.788,192.24L261.788,192.24z"/>
				</g>
			</g>
			<g>
				<g>
					<path fill="#FFFFFF" d="M267.851,191.275c0.356,1.724,1.385,3.173,2.43,4.553c1.12,1.481,1.998,3.122,3.163,4.568
						c0.85,1.055,2.325-0.441,1.484-1.485c-1.05-1.304-1.809-2.815-2.834-4.143c-0.942-1.22-1.9-2.517-2.218-4.052
						C269.602,189.391,267.578,189.954,267.851,191.275L267.851,191.275z"/>
				</g>
			</g>
			<g>
				<g>
					<path fill="#FFFFFF" d="M272.434,189.881c0.95,1.339,2.139,2.446,3.25,3.646c0.921,0.996,2.402-0.493,1.484-1.485
						c-0.983-1.063-2.08-2.036-2.922-3.221C273.47,187.728,271.647,188.774,272.434,189.881L272.434,189.881z"/>
				</g>
			</g>
			<g>
				<g>
					<path fill="#FFFFFF" d="M264.636,220.709c0.163-3.442,5.599-5.78,6.854-1.774c1.483,4.737-4.406,10.68-7.913,12.982
						c-1.288,0.846-0.087,2.925,1.211,2.072c4.7-3.086,12.408-11.585,8.112-17.584c-3.411-4.764-10.435-0.546-10.664,4.304
						C262.162,222.257,264.563,222.25,264.636,220.709L264.636,220.709z"/>
				</g>
			</g>
			<g>
				<g>
					<path fill="#FFFFFF" d="M264.187,220.408c-0.056-5.782-8.261-9.821-10.829-3.276c-2.827,7.205,3.716,13.687,9.523,16.857
						c1.358,0.742,2.569-1.331,1.211-2.072c-3.097-1.69-5.75-3.895-7.678-6.874c-0.995-1.539-1.365-3.276-1.335-5.081
						c0.083-4.962,6.661-4.364,6.707,0.445C261.801,221.955,264.201,221.957,264.187,220.408L264.187,220.408z"/>
				</g>
			</g>
			<g>
				<g>
					<path fill="#FFFFFF" d="M278.516,182.339c2.857,0.046,8.504-1.133,9.841-4.077c0.212-0.468,0.199-0.963,0.25-1.476
						c-0.043-0.654-0.089-1.308-0.138-1.961c-0.304-1.327,0.463-1.934,2.3-1.823c0.561,1.632,0.571,3.476,1.961,4.669
						c1.597,1.371,8.128,2.385,3.348,6.576c-0.612,0.537-0.88,1.343-0.443,2.087c0.577,0.985,6.634,1.27,4.639,3.581
						c-0.985,1.141-2.328,2.018-2.904,3.448c-0.149,0.371,0.022,0.908,0.309,1.167c0.512,0.464,0.895,0.617,1.551,0.884
						c5.307,2.161,2.303,5.468-0.313,7.589c-3.902,3.165-8.788,3.767-13.624,3.479c-5.765-0.343-3.76,5.87-2.982,9.483
						c2.066,9.6,3.424,19.462,4.914,29.177c0.833,5.434,2.257,10.737,3.595,16.063c1.229,4.895,1.83,10.022,3.799,14.691
						c0.592,1.403,2.915,0.788,2.314-0.638c-1.967-4.664-2.586-9.797-3.799-14.691c-1.323-5.338-2.702-10.631-3.595-16.063
						c-1.656-10.075-2.995-20.261-5.143-30.239c-0.279-1.295-1.808-5.358,0.896-5.383c1.952-0.018,3.664,0.122,5.636-0.138
						c3.124-0.412,6.232-1.363,8.746-3.314c3.215-2.497,8.998-9.262,2.079-11.688c-0.625-0.226-1.253-0.44-1.886-0.642
						c-0.055,0.839,0.18,0.818,0.702-0.062c0.863-0.894,1.778-1.712,2.425-2.782c0.715-1.183,0.486-3.735-0.971-4.366
						c-1.071-0.463-2.008-0.669-3.178-0.831c-2.3-0.317-1.003,1.578,0.23-0.43c1.21-1.969,1.305-4.509-0.211-6.406
						c-1.901-2.38-4.701-1.604-5.526-4.843c-0.607-2.384-1.281-4.173-3.922-4.343c-1.921-0.124-2.906,2.125-3.24,3.596
						c-0.303,1.332-0.062,2.812,0.03,4.153c0.135,1.967-6.523,3.171-7.69,3.152C276.967,179.914,276.97,182.313,278.516,182.339
						L278.516,182.339z"/>
				</g>
			</g>
			<g>
				<g>
					<path fill="#FFFFFF" d="M293.456,183.838c2.54,4.476,4.303,9.413,3.721,14.619c-0.172,1.537,2.23,1.521,2.4,0
						c0.625-5.597-1.319-11.021-4.049-15.83C294.765,181.281,292.691,182.49,293.456,183.838L293.456,183.838z"/>
				</g>
			</g>
			<g>
				<g>
					<path fill="#FFFFFF" d="M272.691,244.156c11.719-0.111,24.538-4.563,35.1-9.423c1.405-0.646,0.185-2.714-1.211-2.072
						c-10.083,4.639-22.723,8.989-33.889,9.095C271.145,241.771,271.144,244.171,272.691,244.156L272.691,244.156z"/>
				</g>
			</g>
			<g>
				<g>
					<path fill="#FFFFFF" d="M273.472,153.498c2.139,7.471,2.871,14.804,2.949,22.568c0.014,1.354,2.113,1.355,2.1,0
						c-0.08-8.005-0.822-15.437-3.023-23.127C275.125,151.64,273.099,152.193,273.472,153.498L273.472,153.498z"/>
				</g>
			</g>
			<g>
				<g>
					<path fill="#FFFFFF" d="M275.198,152.344c-1.149-3.367-4.232-1.203-5.964,0.425c-3.422,3.217-5.972,7.419-9.68,10.306
						c-1.068,0.832,0.43,2.306,1.484,1.485c2.708-2.108,4.69-5.045,7.057-7.508c0.58-0.603,4.727-5.176,5.077-4.15
						C273.608,154.176,275.637,153.629,275.198,152.344L275.198,152.344z"/>
				</g>
			</g>
			<g>
				<g>
					<path fill="#FFFFFF" d="M233.713,147.164c-2.125,4.737-1.344,9.534-0.282,14.461c1.355,6.289,1.845,13.088,3.756,19.197
						c0.403,1.288,2.431,0.738,2.025-0.559c-1.429-4.566-1.581-9.613-2.664-14.312c-1.302-5.644-3.525-12.146-1.022-17.728
						C236.075,146.999,234.266,145.93,233.713,147.164L233.713,147.164z"/>
				</g>
			</g>
			<g>
				<g>
					<path fill="#FFFFFF" d="M236.047,147.627c2.287-3.119,17.199,14.888,19.182,16.933c0.943,0.974,2.428-0.513,1.484-1.485
						c-2.986-3.081-17.584-23.185-22.479-16.507C233.432,147.662,235.256,148.708,236.047,147.627L236.047,147.627z"/>
				</g>
			</g>
			<g>
				<g>
					<path fill="#FFFFFF" d="M247.852,169.899c5.302-6.7,15.329-5.331,21.113-0.411c6.301,5.359,7.534,12.909,7.604,20.76
						c0.012,1.354,2.112,1.354,2.1,0c-0.081-9.09-1.922-17.575-9.537-23.35c-6.461-4.899-17.246-5.46-22.765,1.515
						C245.536,169.463,247.012,170.96,247.852,169.899L247.852,169.899z"/>
				</g>
			</g>
			<g>
				<g>
					<path fill="#FFFFFF" d="M246.717,168.002c-5.73,6.813-9.874,13.146-6.222,21.993c3.137,7.598,10.206,14.039,18.054,16.339
						c17.057,4.999,24.814-18.868,19.232-31.399c-0.55-1.235-2.358-0.166-1.813,1.06c2.441,5.482,1.492,14.979-0.922,20.186
						c-3.3,7.119-9.992,9.872-17.351,7.715c-6.392-1.874-11.404-7.717-14.575-13.279c-4.65-8.155-0.209-14.84,5.08-21.129
						C249.067,168.458,247.589,166.965,246.717,168.002L246.717,168.002z"/>
				</g>
			</g>
			<g>
				<g>
					<path fill="#FFFFFF" d="M237.187,180.372c1.212,4.81,2.153,9.745,4.742,14.043c2.223,3.692,5.959,6.281,9.328,8.835
						c1.08,0.818,2.125-1.006,1.061-1.813c-3.629-2.75-6.945-5.375-9.327-9.329c-2.154-3.578-2.772-8.3-3.778-12.294
						C238.881,178.501,236.855,179.058,237.187,180.372L237.187,180.372z"/>
				</g>
			</g>
			<g>
				<g>
					<path fill="#FFFFFF" d="M225.658,184.878c4.524,0.417,9.074,0.597,13.567,1.301c1.514,0.237,2.164-2.076,0.639-2.314
						c-4.709-0.737-9.466-0.95-14.206-1.387C224.117,182.335,224.131,184.737,225.658,184.878L225.658,184.878z"/>
				</g>
			</g>
			<g>
				<g>
					<path fill="#FFFFFF" d="M222.971,221.503c2.592-0.044,5.213,0,7.784-0.383c4.599-0.684,7.095,0.841,8.402,5.315
						c1.474,5.038,0.533,11.331,0.701,16.548c0.151,4.678,0.445,9.411,1.219,14.031c0.255,1.524,2.567,0.875,2.314-0.638
						c-1.145-6.836-1.215-13.884-1.288-20.797c-0.046-4.363,0.23-8.773-1.8-12.768c-3.433-6.754-11.274-3.81-17.333-3.708
						C221.425,219.129,221.422,221.529,222.971,221.503L222.971,221.503z"/>
				</g>
			</g>
			<g>
				<g>
					<path fill="#FFFFFF" d="M240.733,255.797c0.404,5.597,1.577,11.132,3.104,16.524c0.421,1.487,2.736,0.854,2.314-0.638
						c-1.467-5.184-2.63-10.505-3.018-15.886C243.022,254.263,240.622,254.252,240.733,255.797L240.733,255.797z"/>
				</g>
			</g>
			<g>
				<g>
					<path fill="#FFFFFF" d="M250.397,271.224c-2.276-2.905-5.333-1.485-7.157,1.093c-2.325,3.287-0.863,8.72,1.418,11.626
						c1.854,2.362,4.488,3.683,7.489,2.944c3.269-0.804,4.962-4.298,5.426-7.328c0.231-1.513-2.081-2.164-2.314-0.638
						c-0.532,3.477-3.12,7.324-7.021,5.156c-1.959-1.089-2.886-3.487-3.451-5.512c-0.399-1.43-0.383-3.127,0.218-4.496
						c0.669-1.524,2.377-2.832,3.695-1.148C249.654,274.138,251.34,272.427,250.397,271.224L250.397,271.224z"/>
				</g>
			</g>
			<g>
				<g>
					<path fill="#FFFFFF" d="M260.892,247.883c0.101,7.348,2.525,14.266,3.828,21.438c1.512,8.329,3.486,16.55,5.023,24.874
						c0.281,1.521,2.594,0.875,2.314-0.638c-1.413-7.648-3.739-15.1-4.734-22.827c-0.993-7.706-3.925-15.017-4.031-22.847
						C263.271,246.336,260.871,246.334,260.892,247.883L260.892,247.883z"/>
				</g>
			</g>
			<g>
				<g>
					<path fill="#FFFFFF" d="M273.104,298.033c-0.474-2.407-1.172-4.761-1.645-7.168c-0.298-1.518-2.611-0.874-2.314,0.638
						c0.473,2.407,1.171,4.761,1.645,7.168C271.089,300.188,273.401,299.544,273.104,298.033L273.104,298.033z"/>
				</g>
			</g>
			<g>
				<g>
					<path fill="#FFFFFF" d="M248.989,251.188c1.694,8.434,3.847,16.757,5.973,25.089c2.134,8.361,2.922,16.977,5.523,25.232
						c0.464,1.471,2.781,0.842,2.314-0.639c-2.598-8.239-3.555-16.84-5.523-25.231c-1.966-8.376-4.277-16.647-5.973-25.089
						C250.999,249.033,248.686,249.677,248.989,251.188L248.989,251.188z"/>
				</g>
			</g>
			<g>
				<g>
					<path fill="#FFFFFF" d="M257.564,277.85c2.626-0.772,5.233-1.583,7.675-2.838c1.721-0.886,0.203-3.474-1.514-2.591
						c-2.21,1.137-4.583,1.838-6.958,2.537C254.915,275.501,255.704,278.396,257.564,277.85L257.564,277.85z"/>
				</g>
			</g>
			<g>
				<g>
					<path fill="#FFFFFF" d="M257.474,277.104c2.19-1.516,5.146-1.88,7.704-2.392c1.896-0.379,1.092-3.271-0.797-2.893
						c-2.816,0.563-6.009,1.024-8.421,2.694C254.381,275.606,255.879,278.208,257.474,277.104L257.474,277.104z"/>
				</g>
			</g>
			<g>
				<g>
					<path fill="#FFFFFF" d="M261.643,277.01c1.58-0.022,3.165-0.357,4.491-1.25c1.595-1.075,0.096-3.675-1.514-2.591
						c-0.909,0.612-1.893,0.826-2.978,0.841C259.71,274.037,259.707,277.037,261.643,277.01L261.643,277.01z"/>
				</g>
			</g>
			<g>
				<g>
					<path fill="#FFFFFF" d="M257.166,278.052c3,0.078,5.814-1.08,8.518-2.254c1.417-0.615,0.193-2.682-1.211-2.072
						c-2.311,1.003-4.747,1.993-7.307,1.926C255.617,275.611,255.621,278.011,257.166,278.052L257.166,278.052z"/>
				</g>
			</g>
			<g>
				<g>
					<path fill="#FFFFFF" d="M257.611,276.409c2.413-0.215,4.551-1.101,6.729-2.107c1.404-0.648,0.184-2.717-1.211-2.072
						c-1.768,0.817-3.556,1.605-5.518,1.779C256.082,274.145,256.069,276.546,257.611,276.409L257.611,276.409z"/>
				</g>
			</g>
			<g>
				<g>
					<path fill="#FFFFFF" d="M268.054,276.563c2.455-3.704,3.241-7.966,4.15-12.25c0.397-1.878,0.754-3.737,1.053-5.635
						c0.12-0.761,1.909-9.173,3.224-5.853c2.087,5.274,5.36,10.181,7.793,15.319c2.848,6.011,5.681,12.162,9.183,17.824
						c0.813,1.313,2.889,0.109,2.072-1.211c-4.172-6.745-7.38-14.119-10.82-21.252c-1.837-3.81-4.307-7.406-5.913-11.317
						c-0.451-1.098-0.942-3.011-2.289-3.381c-3.695-1.017-4.924,5.779-5.35,7.975c-1.201,6.188-1.613,13.196-5.175,18.57
						C265.124,276.646,267.203,277.847,268.054,276.563L268.054,276.563z"/>
				</g>
			</g>
			<g>
				<g>
					<path fill="#FFFFFF" d="M270.9,268.644c4.027-0.103,7.823-1.428,11.793-1.938c1.513-0.195,1.532-2.597,0-2.4
						c-3.958,0.509-7.787,1.836-11.793,1.938C269.355,266.283,269.352,268.683,270.9,268.644L270.9,268.644z"/>
				</g>
			</g>
			<g>
				<g>
					<path fill="#FFFFFF" d="M297.788,270.59c1.892,3.998,2.622,8.421,4.926,12.24c0.798,1.323,2.874,0.118,2.072-1.211
						c-2.293-3.802-3.037-8.25-4.926-12.24C299.198,267.98,297.13,269.199,297.788,270.59L297.788,270.59z"/>
				</g>
			</g>
			<g>
				<g>
					<path fill="#FFFFFF" d="M301.101,270.004c0.941,3.478,3.232,6.324,4.748,9.544c0.658,1.4,2.728,0.181,2.072-1.211
						c-1.424-3.026-3.623-5.709-4.506-8.971C303.011,267.874,300.696,268.508,301.101,270.004L301.101,270.004z"/>
				</g>
			</g>
			<g>
				<g>
					<path fill="#FFFFFF" d="M305.13,268.209c0.568,3.394,2.432,6.278,3.734,9.408c0.586,1.407,2.909,0.791,2.314-0.638
						c-1.299-3.12-3.169-6.032-3.734-9.408C307.189,266.048,304.877,266.696,305.13,268.209L305.13,268.209z"/>
				</g>
			</g>
			<g>
				<g>
					<path fill="#FFFFFF" d="M237.502,287.313c1.38,2.876,2.803,5.685,3.731,8.75c0.56,1.846,3.455,1.059,2.893-0.798
						c-1.003-3.31-2.542-6.358-4.034-9.465C239.255,284.056,236.669,285.579,237.502,287.313L237.502,287.313z"/>
				</g>
			</g>
			<g>
				<g>
					<path fill="#FFFFFF" d="M238.548,286.509c1.934,2.398,2.414,5.742,3.422,8.578c0.515,1.448,2.834,0.824,2.314-0.638
						c-1.171-3.293-1.795-6.853-4.039-9.637C239.273,283.606,237.586,285.316,238.548,286.509L238.548,286.509z"/>
				</g>
			</g>
			<g>
				<g>
					<path fill="#FFFFFF" d="M212.81,268.192c0.154,13.585,3.182,26.853,4.631,40.315c0.164,1.521,2.565,1.538,2.4,0
						c-1.449-13.459-4.477-26.735-4.631-40.315C215.192,266.646,212.792,266.644,212.81,268.192L212.81,268.192z"/>
				</g>
			</g>
			<g>
				<g>
					<path fill="#FFFFFF" d="M215.167,271.306c-0.539-3.458,0.652,0.783,1.094,1.672c1.621,3.27,3.354,6.489,4.777,9.852
						c2.872,6.788,4.48,14.01,7.467,20.756c0.497,1.123,2.26,0.523,2.236-0.605c-0.11-5.295-1.896-10.351-2.936-15.511
						c-1.189-5.909-2.255-11.792-2.277-17.84c0.651-2.109,1.142-2.107,1.471,0.006c0.437,1.354,0.769,2.771,1.163,4.141
						c0.811,2.817,1.53,5.66,2.239,8.504c1.667,6.691,4.763,13.207,5.404,20.104c0.143,1.527,2.544,1.541,2.4,0
						c-0.763-8.188-4.318-16.2-6.354-24.159c-0.721-2.822-1.706-13.231-6.108-13.187c-7.32,0.074,2.524,34.469,2.597,37.941
						c0.745-0.202,1.491-0.403,2.236-0.605c-2.695-6.088-4.248-12.573-6.632-18.777c-1.858-4.84-4.6-9.253-6.556-14.045
						c-0.668-1.637-1.797-3.139-3.691-2.454c-1.776,0.642-1.056,3.496-0.846,4.845C213.091,273.47,215.402,272.819,215.167,271.306
						L215.167,271.306z"/>
				</g>
			</g>
			<g>
				<g>
					<path fill="#FFFFFF" d="M227.265,183.06c-1.048-4.042-0.454-7.05-5.308-8.102c-2.426-0.525-4.854,1.836-4.866,4.173
						c-0.009,1.553,0.288,3.067,0.371,4.615c0.145,2.685-4.884,2.751-6.655,3.275c-2.529,0.749-4.735,4.169-3.965,6.831
						c0.767,2.646,3.064,4.027,5.725,4.444c0.828,0.13,1.655,0.241,2.48,0.387c1.869,0.331-1.021,0.133-1.685,0.334
						c-1.128,0.343-3.367,1.166-3.977,2.308c-3.938,7.385,3.841,10.137,9.873,8.747c1.353-0.312,1.006-2.326-0.319-2.357
						c-5.166-0.123-9.448,4.258-8.325,9.414c1.606,7.373,16.347,4.343,20.868,4.3c1.547-0.015,1.548-2.415,0-2.4
						c-3.916,0.037-7.827,0.22-11.742,0.315c-2.72,0.066-9.155-0.923-6.328-6.391c1.013-1.958,3.488-2.886,5.527-2.837
						c-0.106-0.786-0.213-1.572-0.319-2.357c-1.264,0.292-2.494,0.422-3.791,0.411c-2.115-0.019-7.414-2.443-2.901-5.889
						c1.579-1.206,5.24-0.871,6.294-2.79c1.458-2.655-2.517-3.142-4.243-3.399c-0.604-0.09-1.204-0.162-1.8-0.3
						c-0.436-2.06-0.87-4.121-1.306-6.181c0.799-0.373,1.632-0.626,2.498-0.761c1.789-0.378,3.991-0.632,5.364-2.005
						c1.085-1.085,1.155-2.561,1.079-3.997c-0.051-0.937-0.241-1.88-0.328-2.816c3.687-1.142,5.384-0.453,5.089,2.067
						c0.061,0.546,0.186,1.079,0.375,1.6C225.338,185.195,227.653,184.56,227.265,183.06L227.265,183.06z"/>
				</g>
			</g>
			<g>
				<g>
					<path fill="#FFFFFF" d="M218.187,193.682c-0.052,6.972-0.913,14.614,2.703,20.913c0.771,1.342,2.844,0.133,2.072-1.211
						c-3.374-5.878-2.423-13.197-2.375-19.702C220.599,192.133,218.198,192.135,218.187,193.682L218.187,193.682z"/>
				</g>
			</g>
			<g>
				<g>
					<path fill="#FFFFFF" d="M253.582,233.55c0-0.995,0-1.99,0-2.985c0-0.967-1.5-0.967-1.5,0c0,0.995,0,1.99,0,2.985
						C252.082,234.517,253.582,234.517,253.582,233.55L253.582,233.55z"/>
				</g>
			</g>
			<g>
				<g>
					<path fill="#FFFFFF" d="M253.479,234.076c1.105-1.919,3.214-2.969,4.48-4.775c0.557-0.794-0.744-1.542-1.295-0.757
						c-1.27,1.811-3.358,2.825-4.48,4.775C251.701,234.159,252.997,234.914,253.479,234.076L253.479,234.076z"/>
				</g>
			</g>
			<g>
				<g>
					<path fill="#FFFFFF" d="M252.982,234.447c0.946,0,1.892,0,2.838,0c0.968,0,0.968-1.5,0-1.5c-0.946,0-1.892,0-2.838,0
						C252.015,232.947,252.015,234.447,252.982,234.447L252.982,234.447z"/>
				</g>
			</g>
			<g>
				<g>
					<path fill="#FFFFFF" d="M268.163,219.892c0.411,0.563,0.733,1.171,1.045,1.793c0.433,0.865,1.727,0.105,1.295-0.757
						c-0.312-0.622-0.634-1.23-1.045-1.793c-0.24-0.33-0.646-0.492-1.026-0.269C268.106,219.057,267.922,219.562,268.163,219.892
						L268.163,219.892z"/>
				</g>
			</g>
			<g>
				<g>
					<path fill="#FFFFFF" d="M270.234,221.056c2.871-2.083,4.977-5.027,7.914-7.018c0.795-0.539,0.046-1.839-0.758-1.295
						c-2.945,1.997-5.043,4.936-7.914,7.018C268.702,220.323,269.449,221.625,270.234,221.056L270.234,221.056z"/>
				</g>
			</g>
			<g>
				<g>
					<path fill="#FFFFFF" d="M276.535,212.572c-0.001,0.296-0.026,0.522-0.124,0.803c-0.316,0.917,1.133,1.307,1.447,0.398
						c0.136-0.394,0.176-0.786,0.177-1.201C278.038,211.605,276.538,211.605,276.535,212.572L276.535,212.572z"/>
				</g>
			</g>
			<g>
				<g>
					<path fill="#FFFFFF" d="M275.451,212.568c0,0.548,0,1.096,0,1.645c0,0.967,1.5,0.967,1.5,0c0-0.548,0-1.096,0-1.645
						C276.951,211.601,275.451,211.601,275.451,212.568L275.451,212.568z"/>
				</g>
			</g>
			<g>
				<g>
					<path fill="#FFFFFF" d="M274.133,212.721c0,0.846,0,1.691,0,2.537c0,0.967,1.5,0.967,1.5,0c0-0.846,0-1.691,0-2.537
						C275.633,211.753,274.133,211.753,274.133,212.721L274.133,212.721z"/>
				</g>
			</g>
			<g>
				<g>
					<path fill="#FFFFFF" d="M274.733,216.31c0.497,0.812,1.092,1.562,1.758,2.242c0.678,0.692,1.737-0.369,1.061-1.061
						c-0.58-0.592-1.09-1.231-1.523-1.938C275.524,214.73,274.227,215.483,274.733,216.31L274.733,216.31z"/>
				</g>
			</g>
			<g>
				<g>
					<path fill="#FFFFFF" d="M275.929,215.416c0.525,0.848,1.211,1.534,2.06,2.059c0.825,0.511,1.578-0.788,0.758-1.295
						c-0.631-0.39-1.132-0.892-1.522-1.521C276.716,213.838,275.417,214.591,275.929,215.416L275.929,215.416z"/>
				</g>
			</g>
			<g>
				<g>
					<path fill="#FFFFFF" d="M276.83,214.839c0.624,0.317,1.201,0.676,1.642,1.229c0.255,0.32,0.796,0.265,1.061,0
						c0.313-0.313,0.255-0.741,0-1.061c-0.511-0.641-1.222-1.095-1.944-1.463C276.728,213.106,275.968,214.4,276.83,214.839
						L276.83,214.839z"/>
				</g>
			</g>
			<g>
				<g>
					<path fill="#FFFFFF" d="M257.736,137.311c-3.721-0.134-7.762,3.259-6.798,7.199c1.311,5.354,11.834,4.094,15.495,3.524
						c1.777-0.276,4.295-0.883,4.975-2.826c0.692-1.978-0.089-4.026-1.766-5.248c-4.101-2.988-11.572-3.033-15.923-0.729
						c-1.71,0.906-0.194,3.495,1.514,2.591c3.011-1.594,6.378-1.13,9.603-0.586c1.008,0.169,1.844,0.402,2.739,0.912
						c2.491,1.419,0.181,2.587-1.347,2.901c-3.032,0.625-6.576,0.719-9.593,0.053c-4.377-0.965-2.429-4.918,1.101-4.792
						C259.672,140.38,259.665,137.38,257.736,137.311L257.736,137.311z"/>
				</g>
			</g>
			<g>
				<g>
					<path fill="#FFFFFF" d="M273.432,137.389c-0.398,3.626-2.004,7.001-2.931,10.503c-0.496,1.873,2.398,2.667,2.893,0.798
						c1.004-3.792,2.606-7.372,3.038-11.301C276.643,135.467,273.641,135.487,273.432,137.389L273.432,137.389z"/>
				</g>
			</g>
			<g>
				<g>
					<path fill="#FFFFFF" d="M277.366,138.635c-0.538,3.306-2.135,6.291-2.836,9.554c-0.405,1.887,2.486,2.689,2.893,0.798
						c0.701-3.263,2.298-6.248,2.836-9.554C280.567,137.541,277.677,136.729,277.366,138.635L277.366,138.635z"/>
				</g>
			</g>
			<g>
				<g>
					<path fill="#FFFFFF" d="M279.421,153.168c5.032-2.626,8.537-7.969,11.737-12.481c1.122-1.582-1.48-3.078-2.59-1.514
						c-2.9,4.088-6.1,9.023-10.661,11.404C276.191,151.473,277.708,154.062,279.421,153.168L279.421,153.168z"/>
				</g>
			</g>
			<g>
				<g>
					<path fill="#FFFFFF" d="M279.512,157.651c2.303-0.949,4.073-2.681,6.098-4.09c1.912-1.331,4.137-2.021,5.764-3.763
						c1.319-1.412-0.798-3.538-2.121-2.121c-1.405,1.504-3.429,2.231-5.156,3.293c-1.854,1.14-3.354,2.952-5.381,3.788
						C276.952,155.485,277.723,158.389,279.512,157.651L279.512,157.651z"/>
				</g>
			</g>
			<g>
				<g>
					<path fill="#FFFFFF" d="M280.01,162.63c10.257-0.895,19.346-7.524,28.916-10.803c1.819-0.623,1.038-3.521-0.797-2.893
						c-9.251,3.169-18.242,9.834-28.119,10.695C278.098,159.796,278.082,162.798,280.01,162.63L280.01,162.63z"/>
				</g>
			</g>
			<g>
				<g>
					<path fill="#FFFFFF" d="M280.309,165.317c4.114,0.094,8.24-0.788,12.195-1.844c1.868-0.498,1.074-3.392-0.797-2.893
						c-3.712,0.99-7.537,1.824-11.398,1.736C278.373,162.273,278.377,165.273,280.309,165.317L280.309,165.317z"/>
				</g>
			</g>
			<g>
				<g>
					<path fill="#FFFFFF" d="M280.457,169.352c1.722,0.001,3.439,0.004,5.125,0.394c1.883,0.436,2.682-2.457,0.797-2.893
						c-1.948-0.451-3.931-0.5-5.922-0.501C278.522,166.351,278.522,169.351,280.457,169.352L280.457,169.352z"/>
				</g>
			</g>
			<g>
				<g>
					<path fill="#FFFFFF" d="M280.059,172.283c1.125,0.413,2.281,0.72,3.434,1.046c1.865,0.529,2.655-2.366,0.797-2.893
						c-1.152-0.327-2.308-0.633-3.434-1.046c-0.768-0.282-1.642,0.309-1.845,1.047C278.78,171.276,279.291,172.002,280.059,172.283
						L280.059,172.283z"/>
				</g>
			</g>
			<g>
				<g>
					<path fill="#FFFFFF" d="M279.7,174.67c1.271,0.651,2.456,1.421,3.792,1.943c0.763,0.298,1.646-0.321,1.845-1.047
						c0.234-0.851-0.287-1.548-1.048-1.845c-1.078-0.422-2.046-1.114-3.075-1.641c-0.728-0.373-1.622-0.196-2.052,0.539
						C278.767,173.293,278.973,174.298,279.7,174.67L279.7,174.67z"/>
				</g>
			</g>
			<g>
				<g>
					<path fill="#FFFFFF" d="M279.849,177.508c0.508,0.39,1.199,1.037,1.793,1.494c0.649,0.5,1.679,0.1,2.052-0.539
						c0.453-0.773,0.108-1.554-0.538-2.052c-0.505-0.389-1.198-1.038-1.793-1.494c-0.65-0.499-1.678-0.101-2.052,0.539
						C278.857,176.229,279.201,177.011,279.849,177.508L279.849,177.508z"/>
				</g>
			</g>
			<g>
				<g>
					<path fill="#FFFFFF" d="M196.143,134.358c11.839,4.714,22.919,11.001,34.282,16.72c1.723,0.867,3.242-1.721,1.514-2.591
						c-11.599-5.838-22.914-12.21-34.999-17.022C195.141,130.75,194.367,133.652,196.143,134.358L196.143,134.358z"/>
				</g>
			</g>
			<g>
				<g>
					<path fill="#FFFFFF" d="M214.151,148.393c5.313,2.299,10.52,4.836,15.886,7.016c1.793,0.729,2.565-2.175,0.797-2.893
						c-5.124-2.082-10.094-4.519-15.169-6.714C213.909,145.042,212.38,147.626,214.151,148.393L214.151,148.393z"/>
				</g>
			</g>
			<g>
				<g>
					<path fill="#FFFFFF" d="M196.541,152.629c3.031,0.156,5.876,1.21,8.795,1.952c2.711,0.689,5.543,0.82,8.275,1.426
						c1.885,0.418,2.686-2.474,0.797-2.893c-3.12-0.692-6.31-0.927-9.411-1.715c-2.829-0.719-5.52-1.619-8.456-1.77
						C194.606,149.529,194.616,152.53,196.541,152.629L196.541,152.629z"/>
				</g>
			</g>
			<g>
				<g>
					<path fill="#FFFFFF" d="M218.988,162.576c3.065,1.034,6.233,1.639,9.406,2.242c1.89,0.359,2.696-2.532,0.797-2.893
						c-3.173-0.603-6.34-1.208-9.406-2.242C217.947,159.063,217.165,161.961,218.988,162.576L218.988,162.576z"/>
				</g>
			</g>
			<g>
				<g>
					<path fill="#FFFFFF" d="M219.586,168.101c3.863,1.093,7.909,0.575,11.797,1.494c1.881,0.445,2.68-2.447,0.797-2.893
						c-3.888-0.92-7.951-0.406-11.797-1.494C218.518,164.68,217.728,167.575,219.586,168.101L219.586,168.101z"/>
				</g>
			</g>
			<g>
				<g>
					<path fill="#FFFFFF" d="M227.5,160.042c1.246,0.336,2.542,0.487,3.832,0.499c1.936,0.018,1.934-2.982,0-3
						c-1.037-0.009-2.032-0.122-3.035-0.392C226.427,156.645,225.634,159.539,227.5,160.042L227.5,160.042z"/>
				</g>
			</g>
			<g>
				<g>
					<path fill="#FFFFFF" d="M238.547,137.698c1.96,3.098,2.1,6.955,3.885,10.156c0.941,1.69,3.533,0.177,2.59-1.514
						c-1.783-3.198-1.906-7.031-3.885-10.156C240.105,134.555,237.509,136.059,238.547,137.698L238.547,137.698z"/>
				</g>
			</g>
			<g>
				<g>
					<path fill="#FFFFFF" d="M226.09,134.719c3.101,2.966,4.515,7.197,7.469,10.305c1.335,1.405,3.453-0.72,2.121-2.121
						c-2.95-3.105-4.348-7.32-7.469-10.305C226.813,131.261,224.689,133.379,226.09,134.719L226.09,134.719z"/>
				</g>
			</g>
			<g>
				<g>
					<path fill="#FFFFFF" d="M258.834,144.855c-0.028,4.251-0.369,8.491-0.4,12.742c-0.014,1.935,2.986,1.934,3,0
						c0.031-4.251,0.372-8.491,0.4-12.742C261.847,142.92,258.847,142.921,258.834,144.855L258.834,144.855z"/>
				</g>
			</g>
			<g>
				<g>
					<path fill="#FFFFFF" d="M252.515,149.639c0.444,1.768,0.95,3.484,1.743,5.131c0.839,1.743,3.425,0.221,2.59-1.514
						c-0.676-1.405-1.062-2.909-1.44-4.416C254.937,146.966,252.043,147.762,252.515,149.639L252.515,149.639z"/>
				</g>
			</g>
		</g>
		<g>
			<path fill="#E9C0C0" d="M107.711,238.42c0,0,6.281-22.914,9.311-25.768c0,0,2.09-2.854,2.51-7.609c0,0,1.541-7.98,3.029-9.725
				c0,0,5.172-7.926,2.902-10.145c0,0-1.102-0.633-3.371,4.042c-2.273,4.679-2.668,5.63-3.766,5.63
				c-1.096,0-1.018-2.063-1.018-2.063l-0.156-9.117c0,0,0-1.662-1.33-1.742c0,0-0.943,0-1.178,1.824c-0.236,1.822,0,9.035,0,9.035
				s-0.393,1.506-1.334,0.396c-0.939-1.109-2.428,0.316-2.506,1.268c-0.08,0.953-0.783,1.348-1.334,1.268
				c-0.549-0.079-2.586,2.298-1.959,5.074c0.627,2.773,0.551,8.004,0.551,8.004s-0.943,3.092-3.609,6.023
				c-2.662,2.934-11.127,14.032-11.127,14.032S103.633,239.928,107.711,238.42z"/>
			<path fill="#E9C0C0" d="M180.838,355.701c0.281-1.286,0.695-1.998,1.516-3.363c0.854-1.426,0.838-10.284,0.838-10.284
				l-3.471-17.95c0,0,12.893,2.264,14.689,5.641c0,0-1.467,14.558-0.551,17.828c0.916,3.268,2.111,10.178,1.869,11.164
				c0,0,0.531,1.877-1.402,3.023c-0.406,0.238-3.975,3.623-3.975,3.623c-0.506,0.443-2.551,2.803-3.08,3.156
				c-0.641,0.436-3.881,1.069-5.139,0.766c-1.516-0.359,0.396-0.734-0.014-1.032c-0.336-0.239-1.348-0.223-1.822-0.606
				c-1.189-0.961,1.174-1.031,0.293-1.123c-1.404-0.154-2.086-1.254-1.193-1.325c0.805-0.064-0.357-0.403-0.357-0.403
				c-0.359-0.15-0.852-0.28-0.6-0.938c0.254-0.663,2.23-0.311,2.678-0.658c0.887-0.687,1.293-1.096,1.951-1.951
				c0.156-0.201,0.703-2.26,0.859-2.893c0.055-0.223,0.115-0.416,0.018-0.559c-0.467-0.674-1.355,0.663-1.447,0.961
				c-1.189,3.846-2.4,3.182-2.4,3.182c-1.129-0.043,0.416-4.711,0.416-4.711L180.838,355.701z"/>
			<path fill="#E9C0C0" d="M142.752,462.635c0,0-2.068,32.862-2.512,41.986c-0.443,9.121-8.652,3.414-8.652,3.414l-1.408-3.414
				c0,0-0.408-37.697-1.891-40.469C127.16,462.044,142.752,462.635,142.752,462.635z"/>
			<path fill="#E9C0C0" d="M194.887,471.17c0,0,2.217,16.777,4.277,20.583c2.059,3.809,8.805,16.505,6.826,19.181
				c-1.98,2.68-12.988,7.807-14.443,1.64c0,0-1.6-1.331-3.076-9.934c-1.502-8.788-3.594-25.345-7.803-30.878L194.887,471.17z"/>
			<path fill="#040000" d="M121.723,329.729c0,0-7.721,19.318-3.486,39.766c4.232,20.451,5.311,34.682,3.588,45.775
				c-1.725,11.1-3.826,47.754-3.354,53.143c0,0-0.459,4.28-0.857,5.072c-0.396,0.793,0.045,3.134,3.328,4.979
				c4.389,2.471,13.6,6.704,17.674,4.96c4.076-1.741,11.244-3.263,11.244-3.263s2.195-0.158,0-5.549
				c-2.191-5.391-7.123-49.544-5.713-61.754c1.414-12.209,2.596-48.394,2.596-48.394s0.043-6.329,4.002-5.065
				c1.631,0.518,2.822,2.694,3.293,5.707c0.469,3.01,12.941,44.709,12.941,47.561c0,2.855,8.088,56.027,8.119,62.098
				c0.025,4.779,3.273,4.879,5.957,4.823c5.486-0.118,10.664,0.473,14.111,1.267c3.449,0.791,10.633-0.834,12.67-4.482
				c2.037-3.645,3.449-1.902,0-6.5c-3.447-4.598-16.674-54.559-17.299-61.849c-0.629-7.292-4.574-50.284-5.248-56.284
				c-1.004-8.889-7.236-25.141-10.375-29.124C174.914,322.614,141.139,315.756,121.723,329.729z"/>
			<g>
				<path fill="#030000" d="M182.621,485.758c0.102-0.102,0.578-0.453,0.578-0.453s0.385-0.359,0.926-0.498c0.004,0,0.01,0,0.016,0
					c0.285-0.067,0.607-0.075,0.943,0.078c0.982,0.441,2.873,1.809,2.961,6.543l0.154,1.612l-0.92,0.784l-0.797-0.125l0.725-0.467
					c-0.027-0.168-0.061-0.325-0.09-0.488c-0.5-2.666-0.9-4.506-1.756-5.736c-0.418-0.605-1.248-1.243-1.668-1.404
					c-0.063-0.022-0.129-0.033-0.193-0.051l-0.195,0.133l-0.572,0.332C182.732,486.018,182.52,485.855,182.621,485.758z"/>
				<path fill="#030000" d="M197.146,490.512c0,0,1.447-3.141,2.275-1.814c0.83,1.324,0.945,2.287,0.688,2.922
					C200.109,491.619,197.451,491.782,197.146,490.512z"/>
				<path fill="#030000" d="M224.275,507.217c0,0,3.592-0.449,1.973,1.557c-1.619,2.008-8.705,8.008-16.623,6.52
					c-7.918-1.496-19.264-0.538-19.264-0.538s-7.307,0.243-2.686-2.362C192.293,509.785,224.275,507.217,224.275,507.217z"/>
				<path fill="#030000" d="M228.086,510.43c0,0,0.596,1.223,0.215,1.787c0,0-0.439,0.042-0.434,0.719
					c0.006,0.676-0.744,0.617-0.822,0.588c0,0-0.484-0.013-0.523,0.594c-0.037,0.608-0.563,0.563-0.824,0.559
					c-0.264-0.01-0.469,0.432-0.447,0.617c0.023,0.186-0.506,0.738-0.93,0.605c-0.428-0.135-0.918,0.415-0.918,0.717
					c-0.002,0.3-0.525,0.891-1.266,0.611c0,0-0.363-0.219-0.432,0.426c0,0-0.195,0.553-1.244,0.494
					c-1.049-0.053-1.551,0.722-1.551,0.722s-0.68,0.536-1.65,0.206c0,0-0.324-0.223-0.619,0.116
					c-0.293,0.335-0.381,0.536-0.93,0.604s-0.744-0.322-0.744-0.322s-0.248-0.193-0.688-0.138c-0.439,0.052-0.725,0.464-0.725,0.464
					s-0.15,0.287-0.887,0.377c-0.732,0.092-0.947-0.146-0.947-0.146s-0.045-0.369-0.373-0.328c-0.33,0.04-0.521,0.326-0.521,0.326
					s-0.053,0.159-0.822,0.258c-0.77,0.094-1.1-0.469-1.1-0.469l-0.232-1.924c0,0-6.857-0.727-7.406-0.658
					c-0.549,0.07-0.887,3.461-1.596,3.738c-0.711,0.276-2.063,0.447-2.502,0.236c-0.436-0.207-0.158-0.093-0.158-0.093
					s-0.295-0.265-0.529,0.258c0,0-0.357,0.117-1.018,0.2c-0.658,0.08-0.658,0.08-0.658,0.08s-0.385-0.703-0.697-0.211
					c-0.313,0.49-0.98,0.5-1.395,0.438c-0.418-0.061-0.523-0.313-0.523-0.313s-0.371-0.289-0.551,0.07
					c-0.178,0.363-0.99,0.424-1.379,0.283c-0.389-0.139-0.408-0.285-0.408-0.285s-0.24-0.461-0.504-0.203
					c-0.268,0.262-0.746,0.32-1.262,0.045s-0.557-0.303-0.584-0.527c-0.025-0.221-0.236-0.459-0.523-0.198
					c0,0-0.309,0.077-0.346-0.821c-0.031-0.898-0.486-6.117-0.486-6.117l40.508-5.991L228.086,510.43z"/>
				<path fill="#181818" d="M193.229,491.012c0,0,2.555-0.396,4.178-0.523c0,0,3.264-1.307,4.172,1.289
					c0.91,2.592,2.584,9.078,11.279,11.451c0,0,0.502,0.461,0.59,1.201c0,0,1.984,1.258,6.994-0.496c0,0,3.031-0.907,4.953,3.293
					c0,0-0.43,3.234-10.729,6.691c0,0-5.148,0.486-11.529-0.6c-6.383-1.082-12.723,0.01-12.723,0.01s-2.77,1.098-2.914-2.567
					c-0.146-3.669,0.014-14.071-1.229-16.323c0,0-0.893-1.242,1.986-2.053C188.258,492.385,192.35,491.141,193.229,491.012z"/>
				<path fill="#181818" d="M182.621,485.758c0.158-0.127,0.324-0.188,0.496-0.218c0.186-0.034,0.381-0.011,0.576,0.063
					c-1.074,0.963,3.035,6.613,3.424,7.141c0.029,0.163,0.063,0.32,0.09,0.488l-0.725,0.467
					C186.482,493.699,180.938,487.068,182.621,485.758z"/>
			</g>
			<path fill="#1C3187" d="M122.166,270.152c3.125,6.817,3.85,26.318,0.559,29.17c-3.295,2.854-10.426,12.359-12.781,17.274
				c-2.35,4.915,2.512,5.073,2.512,5.073c2.037,1.428,2.82,4.438,2.82,4.438c2.666,4.439,9.406,3.805,11.758,4.123
				c2.35,0.316,5.643,2.061,8.777,3.393c3.137,1.336,12.385,0.729,14.266,0s2.039-3.233,7.523-1.491
				c5.486,1.743,12.486,1.166,20.852,0c0.016-0.005,0.029-0.011,0.047-0.013c-0.178,3.139-0.41,5.648-0.41,6.98v0.012
				c-0.225,3.963,1.988,2.548,1.988,2.548s2.803-3.456,6.309,0c3.504,3.459,6.539,0,6.539,0s1.715-1.884,3.98-0.817
				s2.637-1.695,2.637-1.695l-1.633-6.854c0-0.32,0.006-0.521,0.006-0.521s-0.355-1.189-0.859-3.062l-0.002-0.002l0,0
				c-1.443-5.349-4.139-16.304-3.443-21.355c0.316-12.995-0.291-42.8-4.838-51.997c-3.596-7.265-14.213-8.027-14.213-8.027
				l-45.645-3.336c-6.271,0.951-10.785,0.797-10.785,0.797c-15.68,0.422-11.957-4.084-11.957-4.084
				c1.91-3.637,4.85-5.006,4.85-5.006c2.035-1.585-0.742-4.886-2.631-4.629c-2.363,0.318-2.363,0.318-3.016-1.5
				c-1.057-2.959-3.096-1.676-5.643-2.537l-0.838-1.479c0.051-3.025-4.625-2.34-4.625-2.34c-0.156,2.061-1.41,5.232-1.41,5.232
				c-1.486,5.563-4.105,12.258-4.105,12.258c-4.137,12.119,21.82,21.518,21.82,21.518
				C121.857,268.722,122.166,270.152,122.166,270.152z M172.492,297.258c0,0,3.965-18.869,4.074-7.768
				c0.107,10.477,0.504,22.092,0.504,22.092c1.043,3.664,1.471,7.742,1.586,11.645c-1.588-5.055-4.098-10.375-4.098-10.375
				S169.357,306.927,172.492,297.258z"/>
			<path fill="#FFFFFF" d="M144.119,190.252c0,0,19.752-6.975,25.709,28.852c0,0,1.881,19.659,9.092,31.07
				c0,0,6.166,11.31-1.881,21.877c0,0-2.719,1.798-3.973,5.709c-1.252,3.91-1.881,5.494-8.568,1.9
				c-6.689-3.594-5.018,6.021-5.018,6.021s2.195,10.465-6.582,3.809c-8.779-6.659-6.896,4.436-14.109-7.611
				c0,0-2.926-5.283-6.48-2.642c0,0-5.432,8.562-10.971-11.943c0,0-1.775-7.714,2.193-15.64c3.971-7.926,6.48-29.592,6.48-29.592
				S129.697,191.73,144.119,190.252z"/>
			<g>
				<path fill="#030000" d="M143.309,516.67v6.559c0,0-0.963,1.154-1.285,0.708v-1.64c0,0,0.045-0.223-0.395-0.223
					c-0.438,0-0.318,0.373-0.318,0.373v1.824c0,0-0.436,0.596-1.945,0.596c0,0-0.477-0.109-0.633-0.408v-1.563
					c0,0,0.119-0.449-0.477-0.449s-0.678,0.707-0.678,0.707v1.379c0,0-0.039,0.559-1.547,0.559s-1.629-0.447-1.629-0.447v-1.678
					c0,0,0-0.408-0.594-0.408c-0.596,0-0.518,0.447-0.518,0.447v1.564c0,0-0.236,0.521-1.902,0.521c0,0-1.234-0.109-1.234-0.856
					v-1.49c0,0,0.078-0.407-0.354-0.522c-0.439-0.109-0.205,0.26-0.205,0.26v1.604c0,0,0.004,0.672-0.988,0.186
					c0,0-0.955-0.335-0.955-1.006v-1.045c0,0,0.121-0.52-0.238-0.52c0,0-0.234-0.149-0.234,0.373v0.82c0,0,0.098,0.428-0.24,0.109
					v-6.855L143.309,516.67z"/>
				<path fill="#030000" d="M138.811,495.916c0,0,3.018-0.051,3.018,2.906l-1.311,13.188h-10.602l-0.555-14.12
					c0,0-0.158-2.025,2.461-2.025L138.811,495.916z"/>
				<path fill="#030000" d="M141.828,517.824c0,0-14.889,1.406-14.889-1.446c0-2.316,2.264-2.353,2.264-2.353
					s14.055-1.193,14.055,2.02C143.258,516.045,143.725,517.689,141.828,517.824z"/>
				<path fill="#181818" d="M137.266,486.527c0,0,1.35-0.078,1.35,1.266c0,1.34-0.557,7.936-1.35,8.943h-4.328l-0.316-8.906
					c0,0-0.158-1.305,1.191-1.305L137.266,486.527z"/>
				<path fill="#030000" d="M132.34,494.771c0.488-0.385,1.246-0.748,2.389-0.748c0.307,0,0.602,0.007,0.887,0.021
					c0.281-0.015,0.576-0.021,0.885-0.021c1.143,0,1.902,0.363,2.389,0.748c0.301,0.17,0.551,0.365,0.748,0.59v0.709l-0.1,0.006
					l-0.098,0.404l-3.824-0.2l-3.824,0.2l-0.1-0.404l-0.1-0.006v-0.709C131.789,495.137,132.043,494.941,132.34,494.771z"/>
				<path fill="#181818" d="M139.008,499.725c0,0-1.734,4.213,1.271,6.921c3.697,3.331,2.145,8.72,1.549,9.168
					c-0.596,0.446-11.551,1.47-13.383-0.521c0,0-0.549-4.255,0.643-6.491c1.191-2.235,3.275-3.59,3.275-6.495
					s-2.086-6.475,0.77-6.441h4.229C137.361,495.865,140.262,495.223,139.008,499.725z"/>
			</g>
		</g>
	</g>
	<g>
		<path fill="#676868" d="M85.57,88.548v-0.515h10.742v0.515H85.57z M93.391,83.234h2.469v0.529h-9.85v-0.529h1.988v-5.869H86.27
			v-0.543h9.342v0.543h-1.729v2.441C93.883,80.992,93.732,82.435,93.391,83.234z M88.574,77.365v5.869h4.24
			c0.383-0.856,0.492-2.256,0.492-3.385v-2.484H88.574z"/>
		<path fill="#676868" d="M102.637,83.949h-3.607V80.05h3.607v-2.785h-3.607v-0.514h4.184v3.827h-3.621v2.842h3.113
			c1.125,0,2.059-0.214,2.758-0.686V76.65h0.563v3.485h2.359v-3.557h0.576v9.026h-0.576v-4.928h-2.359v4.686h-0.563v-2.1
			C104.818,83.749,103.83,83.949,102.637,83.949z M109.209,89.205h-9.232v-3.528h0.576v2.985h8.656V89.205z"/>
		<path fill="#676868" d="M112.119,78.436h2.895V76.18h0.576v2.256h2.922v0.529h-2.922v3.113c0,2.999,1.576,4.87,3.031,5.627v0.557
			c-1.619-0.771-2.895-2.385-3.307-4.127c-0.396,1.757-1.77,3.413-3.332,4.127v-0.557c1.398-0.7,3.031-2.613,3.031-5.627v-3.113
			h-2.895V78.436z M121.598,76.579v5.499h2.059v0.528h-2.059v6.556h-0.576V76.579H121.598z"/>
		<path fill="#676868" d="M125.441,82.506c0-2.456,0.328-4.241,1.193-5.17c0.451-0.514,1.068-0.771,1.852-0.771
			c0.768,0,1.385,0.258,1.838,0.771c0.877,0.929,1.193,2.714,1.193,5.17c0,2.442-0.316,4.242-1.193,5.171
			c-0.453,0.5-1.07,0.742-1.838,0.742c-0.783,0-1.4-0.242-1.852-0.742C125.77,86.748,125.441,84.948,125.441,82.506z
			 M130.941,82.506c0-2.313-0.275-3.97-1.016-4.784c-0.355-0.386-0.85-0.628-1.439-0.628c-0.604,0-1.098,0.242-1.455,0.628
			c-0.74,0.814-1.014,2.471-1.014,4.784c0,2.314,0.273,3.957,1.014,4.785c0.357,0.399,0.852,0.614,1.455,0.614
			c0.59,0,1.084-0.215,1.439-0.614C130.666,86.463,130.941,84.82,130.941,82.506z M134.467,89.147V76.579h0.576v12.568H134.467z"/>
		<path fill="#676868" d="M138.256,88.548v-0.515h10.74v0.515H138.256z M138.955,77.365v-0.543h9.342v0.543h-4.404v1.499
			c0,2.542,2.291,4.113,4.527,4.556v0.558c-2.305-0.442-4.033-1.742-4.801-3.456c-0.754,1.728-2.594,3.014-4.814,3.456V83.42
			c2.152-0.414,4.525-1.999,4.525-4.556v-1.499H138.955z"/>
		<path fill="#676868" d="M155.391,88.548v-0.515h10.742v0.515H155.391z M164.869,81.121v-3.756h-8.875v-0.543h9.451v4.241
			c0,1.6-0.191,3.313-0.438,4.514h-0.59C164.691,84.377,164.869,82.649,164.869,81.121z"/>
		<path fill="#676868" d="M171.908,83.978c-0.314,1.942-1.715,3.556-3.471,4.313v-0.586c1.578-0.757,3.184-2.371,3.184-5.784v-5.17
			h0.59v5.17c0,3.413,1.605,4.941,3.182,5.784v0.586C173.678,87.477,172.266,85.92,171.908,83.978z M177.945,89.147V76.579h0.576
			v12.568H177.945z"/>
		<path fill="#676868" d="M182.09,76.751h5.994v0.528h-2.701v0.957c0,2.014,1.549,3.199,2.908,3.542v0.571
			c-1.482-0.4-2.717-1.371-3.197-2.614c-0.439,1.271-1.646,2.414-3.195,2.771v-0.542c1.439-0.343,2.895-1.686,2.895-3.728v-0.957
			h-2.703V76.751z M183.475,86.806v1.956h8.451v0.515h-9.041v-2.985h8.301V84.32h-8.301v-0.515h8.877v3H183.475z M191.762,82.592
			h-0.576v-2.913h-2.992V79.15h2.992v-2.571h0.576V82.592z"/>
		<path fill="#676868" d="M208.814,77.279h-8.574v2.842h8.643v0.528h-4.375v2.186h5.17v0.528h-10.877v-0.528h5.145v-2.186h-4.281
			v-3.898h9.15V77.279z M199.418,87.377c0-0.571,0.273-1.043,0.809-1.386c0.797-0.515,2.154-0.785,4.033-0.785
			s3.225,0.271,4.033,0.785c0.535,0.343,0.809,0.814,0.809,1.386c0,0.557-0.273,1.028-0.809,1.385
			c-0.809,0.515-2.154,0.771-4.033,0.771s-3.236-0.257-4.033-0.771C199.691,88.405,199.418,87.934,199.418,87.377z M200.008,87.377
			c0,0.356,0.178,0.686,0.549,0.942c0.672,0.442,1.92,0.7,3.703,0.7c1.797,0,3.045-0.258,3.703-0.7
			c0.385-0.257,0.549-0.586,0.549-0.942c0-0.357-0.164-0.7-0.549-0.943c-0.658-0.457-1.906-0.714-3.703-0.714
			c-1.783,0-3.031,0.257-3.703,0.714C200.186,86.677,200.008,87.02,200.008,87.377z"/>
		<path fill="#676868" d="M215.744,88.262h-3.279V76.822h4.24v0.543h-3.664v4.855h3.375v0.528h-3.375v4.971h2.758
			c1.234,0,2.25-0.329,2.895-0.985V76.65h0.576v5.37h2.359v-5.441h0.576v12.583h-0.576v-6.613h-2.359v6.441h-0.576v-1.714
			C218.09,87.948,217.033,88.262,215.744,88.262z"/>
		<path fill="#676868" d="M225.143,84.491v-0.528h5.145v-2.356h0.563v2.356h5.172v0.528H225.143z M226.008,78.036v-0.543h4.279
			v-1.399h0.563v1.399h4.307v0.543h-4.307v0.328c0,1.543,2.619,2.856,4.484,2.999v0.558c-1.975-0.172-4.072-1.3-4.76-2.571
			c-0.74,1.3-2.867,2.442-4.787,2.571v-0.558c1.838-0.1,4.5-1.471,4.5-2.999v-0.328H226.008z M226.584,86.02v2.643h8.82v0.543
			h-9.396V86.02H226.584z"/>
		<path fill="#676868" d="M245.625,83.978c-0.328,1.942-1.715,3.556-3.484,4.313v-0.586c1.592-0.757,3.197-2.371,3.197-5.784v-5.17
			h0.576v5.17c0,3.413,1.619,4.941,3.195,5.784v0.586C247.381,87.477,245.982,85.92,245.625,83.978z M252.031,76.579v5.499h2.059
			v0.528h-2.059v6.556h-0.576V76.579H252.031z"/>
		<path fill="#676868" d="M255.875,82.506c0-2.456,0.33-4.241,1.193-5.17c0.453-0.514,1.07-0.771,1.852-0.771
			c0.77,0,1.387,0.258,1.838,0.771c0.879,0.929,1.193,2.714,1.193,5.17c0,2.442-0.314,4.242-1.193,5.171
			c-0.451,0.5-1.068,0.742-1.838,0.742c-0.781,0-1.398-0.242-1.852-0.742C256.205,86.748,255.875,84.948,255.875,82.506z
			 M261.375,82.506c0-2.313-0.273-3.97-1.014-4.784c-0.357-0.386-0.852-0.628-1.441-0.628c-0.604,0-1.098,0.242-1.453,0.628
			c-0.74,0.814-1.016,2.471-1.016,4.784c0,2.314,0.275,3.957,1.016,4.785c0.355,0.399,0.85,0.614,1.453,0.614
			c0.59,0,1.084-0.215,1.441-0.614C261.102,86.463,261.375,84.82,261.375,82.506z M264.9,89.147V76.579h0.576v12.568H264.9z"/>
		<path fill="#676868" d="M268.689,88.548v-0.515h10.74v0.515H268.689z M278.73,77.365h-8.779v3.142h8.615v0.543h-8.615v3.128h8.943
			v0.528h-9.506v-7.884h9.342V77.365z"/>
	</g>
	<g>
		<g>
			<path fill="#333334" d="M115.662,37.908c0,0.166-0.037,0.397-0.111,0.693s-0.169,0.612-0.285,0.95
				c-0.115,0.337-0.242,0.664-0.381,0.98c-0.139,0.317-0.273,0.579-0.402,0.787c-0.314,0.498-0.748,1.022-1.298,1.573
				s-1.2,1.111-1.95,1.682c-0.693,0.53-1.41,1.042-2.15,1.535s-1.471,0.942-2.192,1.347c-0.87,0.499-1.77,0.969-2.699,1.41
				s-1.843,0.823-2.741,1.145v0.748c0,0.135,0.008,0.353,0.021,0.654c0.014,0.301,0.032,0.648,0.055,1.043
				c0.023,0.395,0.047,0.815,0.07,1.262s0.046,0.883,0.069,1.309c0.022,0.426,0.042,0.82,0.056,1.184s0.021,0.66,0.021,0.888
				c0,0.53-0.15,0.942-0.451,1.238s-0.7,0.444-1.2,0.444c-1.332,0-1.998-2.528-1.998-7.586c0-0.446,0.012-0.897,0.034-1.354
				c0.023-0.457,0.06-0.948,0.111-1.473c0.051-0.523,0.113-1.087,0.187-1.689c0.074-0.603,0.162-1.277,0.264-2.025
				c0.084-0.623,0.17-1.22,0.258-1.791s0.188-1.129,0.298-1.675c0.111-0.545,0.243-1.082,0.396-1.611
				c0.152-0.53,0.336-1.064,0.549-1.604c-0.297,0.093-0.6,0.2-0.91,0.319c-0.31,0.119-0.636,0.241-0.978,0.365
				c-0.103,0.053-0.204,0.094-0.306,0.125s-0.213,0.047-0.333,0.047c-0.352,0-0.641-0.109-0.867-0.327s-0.34-0.504-0.34-0.856
				c0-0.426,0.079-0.797,0.235-1.114c0.158-0.316,0.41-0.6,0.757-0.849s0.791-0.47,1.332-0.662c0.542-0.191,1.2-0.376,1.978-0.553
				c0.443-0.104,0.925-0.205,1.443-0.304c0.518-0.099,1.041-0.187,1.568-0.265s1.041-0.143,1.54-0.195
				c0.499-0.052,0.952-0.077,1.36-0.077c0.49,0,0.964,0.005,1.422,0.016c0.458,0.01,0.909,0.036,1.354,0.077
				c0.443,0.042,0.885,0.1,1.324,0.172s0.887,0.171,1.34,0.296c1.018,0.28,1.832,0.695,2.442,1.246
				C115.291,36.075,115.662,36.901,115.662,37.908z M107.738,36.693c-0.731,0-1.529,0.049-2.395,0.147
				c-0.865,0.1-1.719,0.227-2.561,0.382c0.278,0.312,0.417,0.732,0.417,1.262c0,0.063-0.034,0.226-0.104,0.49
				c-0.068,0.266-0.146,0.554-0.229,0.865c-0.084,0.312-0.164,0.603-0.242,0.872c-0.08,0.271-0.133,0.436-0.16,0.498
				c-0.047,0.136-0.09,0.304-0.132,0.507c-0.042,0.202-0.083,0.423-0.125,0.662c-0.042,0.238-0.081,0.485-0.118,0.739
				c-0.037,0.255-0.074,0.501-0.111,0.74c-0.055,0.322-0.1,0.604-0.131,0.849c-0.033,0.244-0.059,0.462-0.076,0.654
				c-0.02,0.192-0.035,0.377-0.049,0.553c-0.014,0.177-0.025,0.358-0.035,0.545c0.305-0.145,0.652-0.309,1.041-0.49
				s0.783-0.368,1.187-0.561c0.402-0.192,0.796-0.384,1.179-0.576c0.385-0.192,0.725-0.366,1.021-0.522
				c0.157-0.093,0.335-0.197,0.534-0.312s0.402-0.233,0.611-0.358c0.207-0.124,0.418-0.251,0.631-0.381s0.406-0.257,0.583-0.382
				c0.444-0.301,0.903-0.656,1.38-1.067c0.477-0.41,0.914-0.849,1.313-1.315c0.396-0.468,0.723-0.942,0.979-1.426
				c0.254-0.482,0.381-0.937,0.381-1.362c0-0.219-0.236-0.395-0.707-0.53c-0.694-0.207-1.404-0.34-2.131-0.396
				C108.961,36.722,108.312,36.693,107.738,36.693z"/>
			<path fill="#333334" d="M131.773,44.435c0,0.094-0.02,0.218-0.057,0.374c-0.036,0.155-0.092,0.312-0.166,0.467
				c-0.074,0.156-0.168,0.291-0.284,0.405s-0.257,0.177-0.423,0.187c-0.037,0-0.116-0.002-0.236-0.008
				c-0.121-0.005-0.25-0.013-0.389-0.023c-0.139-0.01-0.269-0.018-0.389-0.022c-0.12-0.006-0.208-0.008-0.264-0.008
				c-1.545,0.093-2.882,0.716-4.01,1.869c-0.26,0.259-0.525,0.565-0.799,0.919c-0.272,0.353-0.541,0.739-0.805,1.16
				s-0.516,0.87-0.756,1.348s-0.458,0.976-0.652,1.495c-0.158,0.426-0.311,0.864-0.458,1.316c-0.147,0.451-0.277,0.927-0.389,1.425
				c-0.065,0.271-0.113,0.506-0.146,0.709c-0.033,0.202-0.086,0.438-0.16,0.708c-0.046,0.166-0.125,0.31-0.235,0.429
				c-0.111,0.119-0.241,0.218-0.389,0.296s-0.304,0.138-0.465,0.18c-0.162,0.041-0.321,0.067-0.479,0.077
				c-0.593,0-0.999-0.301-1.222-0.903c-0.222-0.602-0.333-1.5-0.333-2.694c0-0.271,0.003-0.524,0.007-0.764
				c0.005-0.238,0.014-0.479,0.028-0.724c0.014-0.244,0.03-0.499,0.048-0.764c0.02-0.265,0.042-0.563,0.07-0.896
				c0.037-0.488,0.088-1.067,0.152-1.737c0.064-0.669,0.134-1.35,0.208-2.04c0.073-0.69,0.155-1.357,0.243-2.002
				c0.088-0.644,0.178-1.188,0.271-1.635c0.11-0.551,0.298-0.981,0.562-1.293s0.65-0.468,1.159-0.468
				c0.147,0,0.298,0.045,0.45,0.133c0.153,0.088,0.289,0.194,0.41,0.319c0.12,0.124,0.222,0.26,0.305,0.405
				c0.084,0.146,0.13,0.274,0.139,0.389l0.015,0.28c0,0.291-0.023,0.634-0.069,1.028c-0.047,0.395-0.109,0.813-0.188,1.254
				s-0.162,0.888-0.25,1.34c-0.088,0.451-0.176,0.883-0.264,1.293s-0.166,0.789-0.236,1.137c-0.068,0.348-0.122,0.636-0.159,0.864
				c0.323-0.769,0.671-1.508,1.041-2.22c0.37-0.711,0.768-1.37,1.193-1.978c0.425-0.607,0.884-1.15,1.374-1.628
				s1.018-0.862,1.582-1.152c0.443-0.229,0.851-0.402,1.221-0.522c0.37-0.119,0.703-0.179,1-0.179c0.351,0,0.714,0.042,1.089,0.124
				c0.374,0.084,0.717,0.206,1.026,0.366c0.311,0.161,0.566,0.356,0.771,0.584C131.671,43.884,131.773,44.144,131.773,44.435z"/>
			<path fill="#333334" d="M151.839,43.298c0,0.197-0.058,0.407-0.173,0.631c-0.116,0.223-0.264,0.446-0.444,0.669
				c-0.181,0.224-0.387,0.444-0.618,0.662c-0.23,0.219-0.463,0.418-0.693,0.6c-0.231,0.183-0.451,0.341-0.659,0.476
				s-0.382,0.239-0.521,0.312c-0.25,0.114-0.571,0.221-0.965,0.319c-0.393,0.099-0.805,0.182-1.234,0.249s-0.847,0.122-1.249,0.163
				c-0.402,0.042-0.743,0.063-1.021,0.063c-0.064,0-0.154-0.008-0.27-0.023c-0.116-0.016-0.241-0.039-0.375-0.069
				c-0.135-0.031-0.269-0.07-0.402-0.117c-0.135-0.047-0.248-0.106-0.34-0.179c0.102,0.238,0.159,0.501,0.173,0.786
				c0.015,0.286,0.021,0.568,0.021,0.849c0,0.197-0.018,0.432-0.055,0.701c-0.037,0.271-0.086,0.545-0.146,0.825
				s-0.131,0.551-0.215,0.811c-0.083,0.26-0.172,0.478-0.264,0.654c-0.231,0.446-0.479,0.856-0.742,1.23s-0.558,0.722-0.881,1.043
				c-0.324,0.322-0.689,0.623-1.097,0.903c-0.407,0.281-0.879,0.556-1.415,0.826c-0.574,0.28-1.147,0.475-1.721,0.584
				c-0.574,0.109-1.166,0.163-1.777,0.163c-0.453,0-0.855-0.132-1.207-0.396s-0.647-0.621-0.888-1.067
				c-0.241-0.446-0.423-0.96-0.548-1.542c-0.125-0.581-0.188-1.188-0.188-1.822c0-0.156,0.012-0.351,0.035-0.584
				c0.022-0.233,0.055-0.47,0.097-0.709c0.042-0.238,0.087-0.473,0.139-0.701c0.051-0.228,0.099-0.42,0.146-0.576
				c0.129-0.436,0.316-0.935,0.563-1.495c0.244-0.561,0.533-1.135,0.867-1.721c0.333-0.587,0.703-1.163,1.109-1.729
				c0.408-0.565,0.84-1.069,1.298-1.511s0.935-0.797,1.43-1.067c0.495-0.27,0.992-0.404,1.491-0.404
				c0.213,0,0.385,0.023,0.514,0.069c0.129,0.047,0.236,0.109,0.319,0.188s0.159,0.166,0.229,0.265
				c0.068,0.099,0.145,0.194,0.229,0.288c0.064-0.021,0.132-0.036,0.201-0.047c0.069-0.01,0.141-0.016,0.215-0.016
				c0.287,0,0.569,0.125,0.847,0.374s0.56,0.524,0.847,0.825c0.129,0.136,0.262,0.273,0.396,0.413
				c0.134,0.141,0.257,0.265,0.368,0.374c0.11,0.109,0.209,0.197,0.298,0.265c0.088,0.067,0.15,0.102,0.187,0.102
				c0.241,0,0.502-0.003,0.785-0.008c0.281-0.006,0.568-0.016,0.859-0.031c0.292-0.016,0.574-0.039,0.848-0.07
				c0.271-0.031,0.52-0.067,0.742-0.109c0.027-0.01,0.147-0.044,0.36-0.101c0.213-0.058,0.47-0.13,0.771-0.219
				c0.301-0.088,0.627-0.184,0.979-0.288c0.352-0.104,0.678-0.199,0.979-0.288c0.3-0.088,0.559-0.16,0.776-0.218
				c0.218-0.057,0.345-0.086,0.382-0.086c0.186,0,0.333,0.026,0.443,0.078C151.783,42.913,151.839,43.059,151.839,43.298z
				 M135.825,53.687c0.749,0,1.413-0.223,1.991-0.67c0.578-0.446,1.066-1.041,1.464-1.783s0.706-1.589,0.923-2.539
				s0.33-1.929,0.34-2.936c-0.064-0.156-0.159-0.317-0.284-0.483s-0.267-0.313-0.423-0.443c-0.158-0.13-0.32-0.236-0.486-0.319
				s-0.318-0.125-0.458-0.125c-0.222,0-0.462,0.099-0.722,0.296c-0.259,0.197-0.5,0.4-0.721,0.607
				c-0.223,0.208-0.442,0.48-0.66,0.818c-0.217,0.337-0.418,0.714-0.604,1.129s-0.355,0.854-0.514,1.316
				c-0.156,0.462-0.291,0.919-0.402,1.37c-0.111,0.452-0.196,0.891-0.256,1.316c-0.061,0.426-0.091,0.805-0.091,1.137
				c0,0.167,0.022,0.327,0.069,0.483c0.047,0.155,0.109,0.296,0.188,0.421c0.078,0.124,0.174,0.223,0.285,0.296
				C135.575,53.65,135.695,53.687,135.825,53.687z"/>
			<path fill="#333334" d="M154.239,43.063c0,0.562-0.058,1.221-0.173,1.979c-0.116,0.758-0.221,1.646-0.313,2.663
				c-0.01,0.125-0.023,0.356-0.042,0.693c-0.019,0.338-0.034,0.729-0.048,1.176c-0.014,0.447-0.028,0.922-0.042,1.426
				c-0.015,0.504-0.021,0.983-0.021,1.44c0,0.779-0.008,1.509-0.021,2.188c-0.014,0.681-0.044,1.324-0.09,1.932
				c-0.047,0.607-0.111,1.191-0.194,1.752c-0.083,0.562-0.19,1.116-0.319,1.667c-0.139,0.581-0.345,1.137-0.617,1.667
				c-0.273,0.529-0.6,0.994-0.979,1.394s-0.805,0.719-1.277,0.958c-0.471,0.239-0.98,0.358-1.525,0.358
				c-0.584,0-1.147-0.141-1.693-0.421s-1.029-0.623-1.45-1.027c-0.421-0.405-0.759-0.831-1.013-1.277
				c-0.255-0.447-0.382-0.836-0.382-1.168c0-0.136,0.03-0.266,0.09-0.39c0.061-0.125,0.13-0.236,0.208-0.335
				c0.079-0.099,0.16-0.177,0.243-0.233c0.083-0.058,0.153-0.086,0.208-0.086c0.121,0,0.229,0.028,0.326,0.086
				c0.098,0.057,0.197,0.132,0.299,0.226s0.217,0.207,0.347,0.343c0.13,0.135,0.296,0.28,0.499,0.436
				c0.241,0.229,0.525,0.423,0.854,0.584s0.646,0.242,0.951,0.242c0.157,0,0.326-0.05,0.506-0.148
				c0.181-0.099,0.35-0.231,0.507-0.397s0.301-0.357,0.431-0.576c0.129-0.218,0.222-0.451,0.277-0.7
				c0.176-0.728,0.318-1.571,0.43-2.531c0.111-0.961,0.167-1.939,0.167-2.937c0-0.27,0.005-0.686,0.014-1.246
				s0.021-1.196,0.034-1.908c0.015-0.711,0.033-1.459,0.057-2.243c0.022-0.783,0.048-1.523,0.076-2.219
				c0.027-0.696,0.057-1.313,0.09-1.854c0.032-0.539,0.063-0.919,0.09-1.137c0.102-0.644,0.338-1.126,0.708-1.448
				s0.833-0.483,1.388-0.483c0.194,0,0.377,0.042,0.549,0.125c0.17,0.083,0.318,0.197,0.443,0.343s0.225,0.312,0.299,0.498
				C154.203,42.659,154.239,42.856,154.239,43.063z M155.127,34.107c0.028,0.156,0.043,0.307,0.043,0.452
				c0,0.177-0.021,0.332-0.063,0.467c-0.043,0.135-0.104,0.271-0.188,0.405c-0.084,0.135-0.19,0.272-0.32,0.413
				c-0.129,0.14-0.277,0.304-0.443,0.49c-0.121,0.125-0.225,0.231-0.313,0.319s-0.171,0.155-0.25,0.202
				c-0.078,0.047-0.162,0.081-0.25,0.102s-0.191,0.031-0.312,0.031c-0.277,0-0.53-0.07-0.757-0.21
				c-0.227-0.141-0.423-0.312-0.59-0.515c-0.166-0.202-0.295-0.426-0.389-0.67c-0.092-0.243-0.139-0.464-0.139-0.662
				c0-0.218,0.031-0.44,0.091-0.669s0.15-0.438,0.271-0.631s0.268-0.358,0.444-0.499c0.175-0.14,0.379-0.236,0.61-0.288
				c0.407,0.021,0.786,0.078,1.138,0.172c0.296,0.072,0.583,0.194,0.86,0.365C154.85,33.555,155.035,33.796,155.127,34.107z"/>
			<path fill="#333334" d="M175.318,46.117c0,0.187-0.125,0.529-0.375,1.027c-0.48,0.779-1.015,1.55-1.602,2.313
				c-0.588,0.763-1.215,1.487-1.881,2.173s-1.359,1.321-2.082,1.908c-0.721,0.587-1.452,1.093-2.191,1.519
				c-0.74,0.426-1.479,0.761-2.214,1.005s-1.455,0.365-2.158,0.365c-1.582,0-2.814-0.5-3.698-1.503
				c-0.883-1.002-1.325-2.516-1.325-4.54c0-0.811,0.051-1.606,0.153-2.391c0.102-0.784,0.27-1.558,0.506-2.321
				s0.543-1.514,0.923-2.251s0.847-1.453,1.401-2.149c0.203-0.26,0.441-0.509,0.715-0.748c0.273-0.238,0.564-0.451,0.875-0.638
				c0.309-0.188,0.633-0.338,0.971-0.452s0.673-0.171,1.006-0.171c0.49,0,0.914,0.104,1.27,0.312
				c0.356,0.207,0.65,0.485,0.882,0.833s0.402,0.747,0.513,1.199c0.111,0.452,0.167,0.927,0.167,1.425
				c0,0.925-0.306,1.883-0.915,2.874c-0.611,0.992-1.458,2.007-2.54,3.045c-0.353,0.333-0.759,0.693-1.222,1.083
				s-0.98,0.828-1.554,1.316c0.019,0.26,0.085,0.504,0.201,0.731c0.115,0.229,0.272,0.429,0.472,0.6
				c0.199,0.172,0.438,0.307,0.715,0.405s0.592,0.148,0.943,0.148c0.453,0,0.935-0.065,1.443-0.195s1.014-0.304,1.513-0.521
				s0.985-0.47,1.457-0.756c0.472-0.285,0.901-0.584,1.29-0.896c0.686-0.55,1.344-1.145,1.979-1.783
				c0.633-0.639,1.246-1.29,1.838-1.955l0.736-0.825c0.508-0.509,0.943-0.764,1.304-0.764c0.185,0,0.313,0.07,0.382,0.211
				C175.284,45.891,175.318,46.013,175.318,46.117z M164.494,43.251c0-0.229-0.02-0.446-0.063-0.654
				c-0.041-0.208-0.108-0.338-0.201-0.39c-0.314,0-0.649,0.15-1.006,0.452c-0.355,0.301-0.695,0.729-1.02,1.285
				c-0.324,0.555-0.613,1.225-0.867,2.009c-0.255,0.784-0.441,1.654-0.563,2.609c0.436-0.363,0.872-0.745,1.312-1.146
				c0.439-0.399,0.837-0.817,1.193-1.254c0.356-0.436,0.647-0.896,0.874-1.378C164.381,44.302,164.494,43.791,164.494,43.251z"/>
			<path fill="#333334" d="M190.556,46.147c0,0.208-0.025,0.388-0.076,0.538s-0.13,0.301-0.235,0.451
				c-0.107,0.151-0.244,0.314-0.41,0.491s-0.37,0.399-0.61,0.67l-1.222,1.37c-0.259,0.291-0.485,0.535-0.68,0.732
				s-0.381,0.382-0.563,0.553c-0.18,0.171-0.367,0.348-0.562,0.529s-0.431,0.403-0.708,0.662c-0.602,0.571-1.193,1.106-1.775,1.604
				c-0.584,0.498-1.152,0.945-1.707,1.34c-0.833,0.592-1.726,1.049-2.679,1.37c-0.952,0.322-1.962,0.483-3.024,0.483
				c-0.694,0-1.31-0.143-1.846-0.429c-0.537-0.285-0.99-0.67-1.36-1.152c-0.37-0.483-0.649-1.049-0.84-1.698
				c-0.189-0.648-0.284-1.331-0.284-2.048c0-1.36,0.254-2.729,0.764-4.104c0.508-1.376,1.207-2.729,2.095-4.058
				c0.222-0.332,0.483-0.68,0.784-1.044c0.301-0.363,0.617-0.692,0.951-0.988c0.332-0.296,0.675-0.54,1.026-0.732
				s0.694-0.288,1.026-0.288c0.223,0,0.438,0.07,0.646,0.21c0.207,0.141,0.41,0.33,0.609,0.568c0.199,0.239,0.387,0.517,0.563,0.834
				c0.176,0.316,0.338,0.656,0.486,1.02c0.295,0.728,0.443,1.257,0.443,1.589c0,0.177-0.016,0.393-0.049,0.646
				c-0.032,0.255-0.092,0.496-0.18,0.725s-0.207,0.423-0.354,0.584s-0.337,0.241-0.569,0.241c-0.342,0-0.624-0.122-0.846-0.366
				c-0.223-0.243-0.407-0.526-0.555-0.849c-0.148-0.321-0.267-0.639-0.354-0.95s-0.169-0.534-0.243-0.67
				c-0.222,0.094-0.455,0.275-0.7,0.546c-0.245,0.27-0.488,0.602-0.729,0.996c-0.241,0.396-0.468,0.839-0.681,1.332
				s-0.4,1.018-0.562,1.573c-0.162,0.556-0.292,1.124-0.389,1.706c-0.097,0.581-0.146,1.157-0.146,1.729
				c0,0.529,0.171,0.992,0.514,1.387c0.389,0.436,0.749,0.654,1.082,0.654c1.055,0,2.07-0.219,3.046-0.654
				c0.976-0.437,1.917-1.018,2.824-1.745c0.61-0.487,1.249-1.035,1.915-1.643c0.666-0.608,1.396-1.337,2.192-2.188
				c0.286-0.312,0.575-0.61,0.867-0.896c0.292-0.285,0.578-0.537,0.86-0.755s0.551-0.395,0.805-0.529
				c0.255-0.136,0.493-0.203,0.715-0.203C190.314,45.291,190.556,45.577,190.556,46.147z"/>
			<path fill="#333334" d="M200.381,42.705c0,0.26-0.068,0.476-0.201,0.646c-0.135,0.172-0.299,0.31-0.493,0.413
				c-0.194,0.104-0.402,0.18-0.624,0.226c-0.223,0.047-0.426,0.081-0.611,0.102c-0.693,0.052-1.387,0.122-2.081,0.21
				c-0.694,0.089-1.321,0.172-1.88,0.25c-0.561,0.077-1.021,0.146-1.381,0.202c-0.361,0.057-0.556,0.086-0.584,0.086
				c-0.064,0.28-0.145,0.633-0.242,1.059s-0.199,0.886-0.305,1.379c-0.107,0.493-0.211,0.997-0.313,1.511s-0.197,1.005-0.285,1.472
				c-0.088,0.468-0.157,0.891-0.208,1.27s-0.076,0.678-0.076,0.896c0,0.177,0.017,0.397,0.049,0.662s0.09,0.521,0.173,0.771
				c0.084,0.249,0.195,0.465,0.334,0.646s0.314,0.272,0.527,0.272c0.147,0,0.33-0.036,0.547-0.109
				c0.218-0.072,0.459-0.187,0.723-0.343c0.264-0.155,0.543-0.355,0.84-0.6c0.295-0.244,0.592-0.542,0.888-0.896
				c0.093-0.114,0.198-0.233,0.319-0.358c0.119-0.124,0.25-0.236,0.389-0.335s0.289-0.182,0.451-0.249
				c0.161-0.067,0.33-0.102,0.506-0.102c0.277,0,0.467,0.068,0.568,0.203s0.153,0.306,0.153,0.514c0,0.415-0.106,0.794-0.319,1.137
				s-0.48,0.728-0.805,1.153c-0.148,0.197-0.382,0.465-0.701,0.802c-0.318,0.338-0.698,0.67-1.138,0.997s-0.93,0.612-1.471,0.856
				c-0.542,0.244-1.112,0.366-1.714,0.366c-0.583,0-1.076-0.086-1.479-0.257c-0.402-0.172-0.734-0.395-0.998-0.67
				s-0.471-0.592-0.618-0.95s-0.257-0.725-0.326-1.098c-0.069-0.374-0.11-0.743-0.125-1.106c-0.014-0.363-0.021-0.69-0.021-0.981
				c0-0.312,0.029-0.672,0.09-1.082s0.132-0.844,0.215-1.301c0.084-0.457,0.179-0.927,0.285-1.41
				c0.105-0.482,0.201-0.944,0.284-1.386s0.155-0.849,0.216-1.223c0.06-0.374,0.09-0.69,0.09-0.95c0-0.063-0.008-0.119-0.021-0.172
				c-0.014-0.052-0.049-0.096-0.104-0.132c-0.056-0.036-0.144-0.063-0.264-0.078c-0.121-0.016-0.287-0.023-0.5-0.023
				c-0.24,0-0.497-0.008-0.77-0.023c-0.273-0.016-0.525-0.07-0.757-0.163c-0.231-0.094-0.423-0.241-0.575-0.444
				c-0.153-0.202-0.229-0.49-0.229-0.864c0-0.239,0.034-0.438,0.104-0.6c0.068-0.161,0.161-0.291,0.277-0.39
				c0.115-0.099,0.25-0.169,0.402-0.21c0.152-0.042,0.316-0.067,0.492-0.078l2.928-0.141c0.057-0.113,0.145-0.337,0.264-0.669
				c0.121-0.333,0.258-0.725,0.41-1.177c0.152-0.451,0.307-0.932,0.465-1.44c0.157-0.509,0.301-0.986,0.43-1.433
				c0.186-0.645,0.422-1.106,0.708-1.387s0.666-0.421,1.138-0.421c0.306,0,0.541,0.045,0.708,0.133s0.286,0.2,0.36,0.335
				s0.119,0.288,0.133,0.459c0.014,0.172,0.021,0.335,0.021,0.491c0,0.042-0.026,0.161-0.077,0.358s-0.117,0.438-0.201,0.724
				c-0.082,0.286-0.176,0.6-0.277,0.942s-0.205,0.688-0.313,1.036c-0.105,0.348-0.207,0.681-0.305,0.997s-0.178,0.589-0.242,0.817
				c0.11-0.01,0.293-0.031,0.547-0.063c0.255-0.03,0.549-0.064,0.882-0.101s0.683-0.072,1.048-0.109
				c0.365-0.036,0.707-0.072,1.027-0.109c0.318-0.036,0.596-0.064,0.832-0.085s0.391-0.031,0.465-0.031
				c0.5,0,0.904,0.028,1.215,0.086c0.309,0.057,0.547,0.143,0.714,0.257s0.278,0.254,0.333,0.42
				C200.353,42.28,200.381,42.478,200.381,42.705z"/>
			<path fill="#333334" d="M226.621,37.44c0,0.146-0.016,0.322-0.048,0.53s-0.081,0.423-0.146,0.646
				c-0.065,0.223-0.137,0.436-0.215,0.639c-0.079,0.202-0.17,0.365-0.271,0.49h0.014c-0.296,0.395-0.994,0.592-2.095,0.592
				c0-0.446-0.017-0.833-0.049-1.16s-0.085-0.59-0.159-0.787c-0.065-0.166-0.181-0.306-0.348-0.42
				c-0.166-0.114-0.354-0.208-0.562-0.28c-0.208-0.073-0.419-0.127-0.632-0.164c-0.213-0.036-0.397-0.055-0.555-0.055
				c-0.398,0-0.787,0.011-1.166,0.031c-0.379,0.021-0.752,0.063-1.117,0.125s-0.735,0.15-1.109,0.265
				c-0.375,0.114-0.757,0.26-1.146,0.437c-0.277,0.124-0.571,0.28-0.881,0.467s-0.599,0.397-0.867,0.631s-0.497,0.488-0.687,0.764
				c-0.19,0.274-0.309,0.568-0.354,0.88l0.014-0.031c0,0.249,0.074,0.527,0.222,0.833c0.148,0.307,0.35,0.607,0.604,0.903
				c0.255,0.296,0.549,0.566,0.882,0.811s0.685,0.423,1.055,0.537c0.028,0.011,0.106,0.042,0.235,0.094
				c0.13,0.052,0.287,0.111,0.473,0.179c0.185,0.067,0.381,0.143,0.59,0.226c0.208,0.084,0.402,0.159,0.582,0.227
				c0.181,0.067,0.334,0.124,0.459,0.171s0.195,0.075,0.215,0.086c2.146,0.612,3.737,1.35,4.773,2.212
				c1.036,0.861,1.555,1.921,1.555,3.177c0,0.405-0.079,0.808-0.236,1.208c-0.158,0.399-0.356,0.781-0.597,1.145
				c-0.241,0.363-0.502,0.698-0.784,1.005c-0.282,0.306-0.549,0.563-0.798,0.771l0.014-0.016c-0.269,0.239-0.571,0.483-0.909,0.732
				s-0.701,0.493-1.089,0.732c-0.389,0.238-0.791,0.462-1.208,0.669c-0.416,0.208-0.842,0.39-1.275,0.546
				c-0.408,0.145-0.836,0.282-1.284,0.412c-0.449,0.13-0.896,0.242-1.339,0.335c-0.444,0.094-0.873,0.166-1.284,0.219
				c-0.411,0.052-0.784,0.077-1.117,0.077c-0.176,0-0.391-0.023-0.646-0.069c-0.254-0.047-0.522-0.112-0.805-0.195
				s-0.564-0.182-0.846-0.296c-0.283-0.114-0.535-0.244-0.757-0.39s-0.402-0.301-0.541-0.467c-0.14-0.166-0.208-0.343-0.208-0.529
				c0-0.166,0.027-0.369,0.083-0.607c0.056-0.239,0.136-0.47,0.243-0.693c0.105-0.224,0.23-0.415,0.375-0.576
				c0.143-0.161,0.298-0.242,0.465-0.242c0.23,0,0.447,0.031,0.651,0.094s0.433,0.133,0.687,0.21
				c0.255,0.078,0.551,0.151,0.889,0.219s0.756,0.101,1.256,0.101s1.02-0.06,1.561-0.179c0.542-0.119,1.076-0.28,1.604-0.482
				c0.527-0.203,1.031-0.434,1.513-0.693s0.915-0.53,1.304-0.811c0.167-0.124,0.35-0.267,0.549-0.428s0.384-0.338,0.555-0.53
				c0.172-0.191,0.314-0.392,0.431-0.6c0.115-0.207,0.173-0.42,0.173-0.639c0-0.249-0.166-0.487-0.499-0.716v0.016
				c-0.491-0.333-0.977-0.587-1.457-0.764c-0.481-0.177-0.902-0.321-1.263-0.437c-1.018-0.29-2.258-0.752-3.719-1.386h0.014
				c-0.611-0.27-1.203-0.618-1.777-1.044c-0.573-0.426-1.068-0.872-1.484-1.339c-0.925-1.153-1.388-2.482-1.388-3.988
				c0-0.592,0.147-1.168,0.444-1.729c0.296-0.561,0.698-1.088,1.207-1.581s1.099-0.947,1.77-1.363
				c0.671-0.415,1.385-0.771,2.145-1.066c0.758-0.296,1.533-0.527,2.324-0.693s1.557-0.249,2.297-0.249
				c0.23,0,0.52,0.019,0.867,0.055c0.347,0.036,0.703,0.088,1.068,0.155s0.715,0.15,1.047,0.249c0.334,0.1,0.598,0.211,0.791,0.335
				h-0.014c0.537,0.322,0.96,0.707,1.27,1.153C226.467,36.579,226.621,37.016,226.621,37.44z"/>
			<path fill="#333334" d="M244.744,46.911c0,0.239-0.08,0.543-0.242,0.911c-0.162,0.369-0.384,0.779-0.666,1.23
				c-0.282,0.452-0.617,0.935-1.006,1.448c-0.389,0.515-0.811,1.042-1.264,1.581c-0.49,0.593-1.021,1.174-1.596,1.745
				c-0.573,0.571-1.184,1.121-1.832,1.65c-0.638,0.52-1.268,0.922-1.887,1.208c-0.619,0.285-1.207,0.428-1.762,0.428
				c-0.648,0-1.21-0.122-1.687-0.366c-0.477-0.243-0.884-0.576-1.222-0.996c-0.338-0.421-0.612-0.903-0.825-1.449
				c-0.213-0.545-0.382-1.121-0.507-1.729s-0.211-1.223-0.256-1.846c-0.047-0.623-0.07-1.215-0.07-1.776
				c0-0.218,0.014-0.545,0.042-0.98c0.028-0.437,0.067-0.896,0.118-1.379s0.105-0.95,0.166-1.401
				c0.061-0.452,0.123-0.808,0.188-1.067c0.139-0.509,0.458-0.991,0.957-1.448c0.481-0.437,1.018-0.654,1.61-0.654
				c0.601,0,0.901,0.404,0.901,1.215c0,0.384-0.029,0.792-0.09,1.223s-0.127,0.854-0.201,1.27c-0.12,0.758-0.203,1.44-0.25,2.048
				c-0.046,0.607-0.068,1.146-0.068,1.612c0,0.529,0.027,1.044,0.082,1.542c0.057,0.498,0.137,0.942,0.244,1.332
				c0.105,0.39,0.24,0.703,0.402,0.942c0.161,0.239,0.354,0.358,0.575,0.358c0.278,0,0.564-0.029,0.86-0.086
				c0.297-0.057,0.652-0.21,1.068-0.46c0.796-0.487,1.643-1.146,2.54-1.978c0.313-0.291,0.673-0.636,1.075-1.036
				c0.402-0.399,0.803-0.81,1.2-1.23s0.772-0.833,1.124-1.238s0.629-0.753,0.833-1.044c0.028-0.052,0.067-0.116,0.118-0.194
				s0.108-0.158,0.173-0.241c0.065-0.083,0.137-0.153,0.216-0.211c0.078-0.057,0.154-0.085,0.229-0.085
				c0.148,0,0.257,0.023,0.326,0.069c0.069,0.047,0.146,0.19,0.229,0.429C244.693,46.517,244.744,46.734,244.744,46.911z
				 M236.113,34.092c0,0.343-0.047,0.668-0.139,0.974c-0.093,0.307-0.227,0.595-0.402,0.864c-0.352,0.551-0.893,0.826-1.623,0.826
				c-0.26,0-0.523-0.026-0.791-0.078c-0.27-0.052-0.51-0.125-0.723-0.218c-0.213-0.094-0.389-0.213-0.527-0.358
				s-0.207-0.312-0.207-0.499c0-0.321,0.073-0.662,0.221-1.02c0.148-0.358,0.341-0.69,0.576-0.997
				c0.236-0.307,0.495-0.561,0.777-0.764c0.282-0.202,0.553-0.304,0.813-0.304c0.323,0,0.609,0.023,0.859,0.07
				s0.461,0.127,0.632,0.241s0.303,0.275,0.396,0.483C236.066,33.521,236.113,33.78,236.113,34.092z"/>
			<path fill="#333334" d="M242.899,52.207c0-0.478,0.025-0.958,0.076-1.44c0.051-0.483,0.116-0.961,0.194-1.434
				s0.164-0.932,0.257-1.378s0.175-0.873,0.249-1.277c0.103-0.54,0.195-1.022,0.278-1.449c0.083-0.425,0.134-0.819,0.152-1.184
				c-0.139,0.031-0.294,0.061-0.465,0.086c-0.171,0.026-0.345,0.052-0.521,0.078c-0.176,0.025-0.347,0.044-0.514,0.054
				c-0.166,0.011-0.305,0.016-0.416,0.016c-0.287,0-0.534-0.022-0.742-0.069s-0.382-0.135-0.521-0.265s-0.241-0.312-0.306-0.546
				c-0.064-0.233-0.097-0.532-0.097-0.896c0-0.229,0.048-0.421,0.146-0.576c0.098-0.156,0.227-0.28,0.389-0.374
				s0.342-0.158,0.541-0.194s0.396-0.055,0.59-0.055c0.074,0,0.217-0.013,0.43-0.039c0.213-0.025,0.439-0.055,0.681-0.086
				c0.24-0.031,0.477-0.062,0.708-0.093c0.23-0.031,0.402-0.052,0.514-0.063c0.073,0,0.145-0.063,0.215-0.187
				c0.069-0.125,0.134-0.273,0.193-0.444c0.061-0.172,0.113-0.348,0.16-0.529s0.078-0.335,0.098-0.46
				c0.046-0.28,0.113-0.623,0.201-1.028c0.088-0.404,0.185-0.819,0.291-1.246c0.106-0.425,0.217-0.833,0.333-1.223
				c0.116-0.389,0.229-0.698,0.34-0.927c0.147-0.321,0.31-0.565,0.485-0.731s0.439-0.25,0.791-0.25c0.49,0,0.85,0.131,1.076,0.39
				c0.227,0.26,0.34,0.66,0.34,1.199c0,0.25-0.049,0.571-0.146,0.966c-0.096,0.395-0.205,0.818-0.325,1.27
				c-0.12,0.452-0.233,0.909-0.341,1.371c-0.105,0.462-0.164,0.875-0.173,1.238c0.185,0,0.453-0.021,0.805-0.063
				c0.352-0.041,0.722-0.091,1.11-0.148c0.389-0.057,0.761-0.116,1.117-0.179c0.355-0.063,0.627-0.114,0.812-0.155
				c0.389-0.094,0.687-0.164,0.896-0.211c0.208-0.047,0.397-0.091,0.568-0.132c0.172-0.042,0.356-0.091,0.556-0.148
				c0.198-0.057,0.479-0.143,0.839-0.257c0.139,0.125,0.25,0.224,0.334,0.296c0.083,0.073,0.145,0.133,0.188,0.179
				c0.041,0.047,0.068,0.092,0.082,0.133c0.015,0.042,0.021,0.088,0.021,0.141c0,0.404-0.166,0.776-0.5,1.113
				c-0.332,0.338-0.754,0.636-1.263,0.896s-1.062,0.48-1.658,0.662s-1.159,0.324-1.687,0.429c-0.389,0.072-0.737,0.135-1.047,0.187
				c-0.311,0.052-0.581,0.102-0.813,0.148c-0.23,0.046-0.42,0.099-0.568,0.155c-0.148,0.058-0.26,0.127-0.333,0.21
				c-0.12,0.468-0.257,1.026-0.409,1.675c-0.152,0.649-0.299,1.332-0.438,2.048c-0.139,0.717-0.254,1.441-0.347,2.173
				c-0.093,0.732-0.14,1.415-0.14,2.049c0,0.717,0.125,1.251,0.375,1.604c0.25,0.353,0.602,0.529,1.055,0.529
				c0.416,0,0.826-0.033,1.229-0.102c0.402-0.067,0.823-0.191,1.263-0.373s0.907-0.429,1.401-0.74
				c0.495-0.312,1.048-0.711,1.658-1.199c0.167-0.146,0.34-0.307,0.521-0.483c0.181-0.176,0.363-0.345,0.548-0.506
				c0.186-0.161,0.375-0.296,0.569-0.405c0.194-0.108,0.394-0.163,0.597-0.163c0.186,0,0.33,0.049,0.438,0.147
				c0.105,0.099,0.159,0.252,0.159,0.46c0,0.155-0.046,0.345-0.139,0.568s-0.222,0.459-0.389,0.709
				c-0.167,0.249-0.362,0.506-0.59,0.771c-0.227,0.265-0.479,0.517-0.756,0.756c-0.536,0.478-1.099,0.932-1.687,1.362
				c-0.588,0.432-1.184,0.808-1.79,1.13s-1.214,0.576-1.825,0.763c-0.609,0.188-1.216,0.28-1.817,0.28
				c-0.74,0-1.369-0.127-1.888-0.381c-0.518-0.255-0.941-0.595-1.27-1.021s-0.568-0.911-0.721-1.456
				C242.976,53.336,242.899,52.778,242.899,52.207z"/>
			<path fill="#333334" d="M268.544,49.17c0,0.384-0.134,0.82-0.402,1.309c-0.269,0.487-0.63,0.996-1.083,1.526
				c-0.499,0.571-1.047,1.104-1.644,1.597s-1.217,0.919-1.86,1.276c-0.643,0.358-1.297,0.639-1.963,0.842
				c-0.666,0.202-1.314,0.304-1.943,0.304c-0.776,0-1.469-0.138-2.074-0.413s-1.119-0.68-1.54-1.215s-0.743-1.202-0.965-2.002
				c-0.222-0.799-0.333-1.718-0.333-2.757c0-0.623,0.053-1.256,0.16-1.9c0.105-0.644,0.261-1.285,0.465-1.923
				c0.203-0.639,0.457-1.257,0.763-1.854c0.306-0.597,0.652-1.16,1.041-1.689c0.249-0.332,0.534-0.667,0.854-1.005
				c0.319-0.337,0.673-0.641,1.062-0.911c0.389-0.27,0.816-0.49,1.283-0.662c0.467-0.171,0.975-0.257,1.52-0.257
				c0.444,0,0.84,0.091,1.188,0.272c0.346,0.182,0.64,0.413,0.881,0.693c0.24,0.28,0.425,0.597,0.555,0.95
				c0.129,0.353,0.194,0.701,0.194,1.043c0,0.811-0.155,1.565-0.465,2.267s-0.743,1.371-1.298,2.01s-1.223,1.264-2.005,1.877
				c-0.782,0.612-1.645,1.241-2.588,1.885c-0.046,0.021-0.118,0.067-0.216,0.14c-0.097,0.073-0.145,0.12-0.145,0.141
				c0.008,0.208,0.055,0.431,0.139,0.67c0.082,0.238,0.212,0.462,0.389,0.67c0.175,0.207,0.399,0.381,0.672,0.521
				c0.273,0.14,0.6,0.21,0.979,0.21c0.583,0,1.17-0.091,1.763-0.272c0.592-0.182,1.175-0.444,1.749-0.786
				c0.572-0.343,1.133-0.759,1.679-1.246c0.546-0.488,1.063-1.039,1.554-1.651c0.186-0.239,0.368-0.41,0.549-0.514
				c0.18-0.104,0.349-0.156,0.506-0.156c0.158,0,0.294,0.073,0.41,0.218C268.486,48.521,268.544,48.785,268.544,49.17z
				 M261.814,43.204c0-0.166-0.028-0.304-0.084-0.413c-0.056-0.108-0.118-0.194-0.188-0.257s-0.139-0.106-0.208-0.133
				c-0.069-0.025-0.118-0.038-0.146-0.038c-0.416,0-0.801,0.179-1.152,0.537s-0.666,0.817-0.943,1.378
				c-0.277,0.562-0.521,1.179-0.729,1.854c-0.208,0.676-0.381,1.33-0.521,1.963c0.556-0.478,1.073-0.919,1.554-1.324
				c0.481-0.404,0.9-0.799,1.256-1.184c0.357-0.384,0.639-0.769,0.848-1.152C261.709,44.051,261.814,43.64,261.814,43.204z"/>
		</g>
	</g>
</g>
</svg>
