<?xml version="1.0" encoding="utf-8"?>
<!-- Generator: Adobe Illustrator 16.0.0, SVG Export Plug-In . SVG Version: 6.00 Build 0)  -->
<!DOCTYPE svg PUBLIC "-//W3C//DTD SVG 1.1//EN" "http://www.w3.org/Graphics/SVG/1.1/DTD/svg11.dtd">
<svg version="1.1" id="Layer_1" xmlns="http://www.w3.org/2000/svg" xmlns:xlink="http://www.w3.org/1999/xlink" x="0px" y="0px"
	 width="414px" height="596px" viewBox="0 0 414 596" enable-background="new 0 0 414 596" xml:space="preserve">
<g>
	<g>
		<rect x="-0.082" y="0.057" fill="#FFFFFF" width="414.163" height="595.887"/>
	</g>
	<g>
		<rect x="36.391" y="41.535" fill="#EADBCC" width="341.218" height="512.93"/>
	</g>
	<g>
		<g>
			<defs>
				<rect id="SVGID_1_" x="36.391" y="41.535" width="341.218" height="512.93"/>
			</defs>
			<clipPath id="SVGID_2_">
				<use xlink:href="#SVGID_1_"  overflow="visible"/>
			</clipPath>
			<g clip-path="url(#SVGID_2_)">
				<path fill="#1C3187" d="M135.924,448.223c0,0-24.367,43.695-7.021,106.826h81.6c0,0-3.128-50.725,4.492-50.725
					c7.616,0,7.643,50.725,7.643,50.725h79.43c0,0,9.391-75.635-26.696-128.334c-36.091-52.699-76.098-21.502-82.258-20.391
					C186.95,407.436,135.924,448.223,135.924,448.223z"/>
				<g>
					<path fill="#E9C0C0" d="M186.643,296.635l27.324,60.107c0,0,15.018-24.215,24.92-60.789
						C238.887,295.953,198.508,277.604,186.643,296.635z"/>
					<path fill="#F6F0F0" d="M202.907,140.738c0,0,24.771-8.818,39.091,8.438c14.319,17.258,6.192,20.324,6.192,20.324
						l-62.315,4.219c0,0-35.994,3.836-16.254-21.477C169.622,152.242,182.78,133.068,202.907,140.738z"/>
					<path fill="none" d="M201.116,303.496c5.325,8.488,9.931,21.914,9.931,21.914c4.029,8.688,11.408-6.803,17.621-23.875
						l-19.775,1.154C208.893,302.689,203.942,304.117,201.116,303.496z"/>
					<g>
						<path fill="#EC7267" d="M311.488,165.211l-107.571-1.98l-115.459,1.98l4.867,145.994c0,0,11.088,0.059,26.096,0.217
							c31.051,0.328,78.893,1.072,80.125,2.566c0.344,0.414,0.896,0.674,1.567,0.822c2.88,0.629,7.93-0.822,7.93-0.822l20.16-1.18
							l68.897-4.017l15.908-0.928L311.488,165.211z"/>
						<path fill="#FFFFFF" d="M252.045,183.066c0,0-0.537,0.317-0.537,1.348c0,1.023,0.537,0.863,0.537,0.863h10.205l-0.842,8.371
							h1.766c0,0,1.307,0.076,1.459-1.975c0.15-2.047,0.609-7.143,2.053-7.26c0.008,0,0.012,0,0.019,0
							c1.457-0.081,0.998-0.951-0.388-0.951C264.938,183.463,252.045,183.066,252.045,183.066z"/>
						<path fill="#FFFFFF" d="M255.266,189.936l-0.688,4.894h-5.988c0,0-0.769,0.952,0,1.733c0.768,0.794,14.051,0.794,14.051,0.794
							s0.918-0.081,1.607-0.794c0.69-0.705,1.307-0.469,1.307-0.469s0.691-0.553,0-0.786l-7.754-0.241l0.615-5.131H255.266
							L255.266,189.936z"/>
						<path fill="#FFFFFF" d="M277.709,183.19h-6.746c-0.228-0.059-0.476-0.044-0.736,0.084c-1.838,0.894-3.928,3.608-2.789,5.77
							c0.666,1.265,1.795,1.8,3.023,1.906l0,0c4.145,0.567,5.838-1.092,6.557-2.642c0.047-0.097,0.084-0.203,0.121-0.295
							c0.021-0.054,0.037-0.1,0.051-0.152c0.445-1.352,0.021-2.467-0.069-2.82c-0.105-0.395-0.105-1.021,0.534-1.021
							c0.638,0,0.648-0.216,0.648-0.216C278.303,183.059,277.709,183.19,277.709,183.19z M272.152,188.729
							c-1.635,0-1.457-1.459-1.457-1.459c0-2.326,2.013-2.068,2.013-2.068c1.022,0,1.594,0.918,1.594,1.759
							C274.301,187.8,273.793,188.729,272.152,188.729z"/>
						<path fill="#FFFFFF" d="M283.156,192.36c0,0,0.099-0.214-0.719-0.214c-0.737,0-5.309-0.13-6.213-0.155
							c-0.018,0-0.037-0.005-0.055-0.005h-1.021c-1.873-0.168-3.694-0.031-5.58,0c-0.043,0-0.084,0.018-0.123,0.018
							c-0.168-0.074-0.377-0.081-0.608,0.018c-1.291,0.555-2.158,1.559-2.287,3.016c-0.023,0.256-0.008,0.489,0.037,0.708
							c-0.117,0.629,0.254,1.263,0.738,1.759c0.291,0.311,0.627,0.521,1.024,0.637c0.312,0.086,0.627,0.061,0.941,0.015
							c0.58,0.044,1.158,0.026,1.74-0.005c1.575,0.27,3.284,0.135,4.885,0.152c0.106,0.003,0.201-0.02,0.289-0.048
							c0.77,0.028,1.592,0.143,2.354,0.013c0.111,0.013,0.229,0.013,0.357-0.021c0.051-0.015,0.096-0.03,0.141-0.048
							c0.174,0.027,0.355,0.01,0.543-0.076c1.424-0.646,2.603-2.65,2.188-4.266l0,0c0,0,0,0-0.004-0.006
							c-0.031-0.109-0.064-0.224-0.113-0.328c-0.055-0.305-0.002-0.715,0.713-0.715C283.539,192.809,283.156,192.36,283.156,192.36z
							 M277.945,195.526c-0.184,0.171-0.448,0.29-0.731,0.382c-1.029,0.097-2.105-0.038-3.109-0.102
							c-0.742-0.054-1.483-0.104-2.231-0.135c-0.941-0.039-1.804,0.102-1.738-1.051c0.148-0.189,0.385-0.304,0.65-0.395
							c1.303,0.084,2.698,0.178,4.038,0.121c0.125,0.018,0.253,0.028,0.378,0.033c0.139,0.014,0.26-0.005,0.364-0.043
							c0.381,0.005,0.763,0.008,1.144,0.016c0.475,0.022,0.961-0.051,1.434,0.008c0.01,0.02,0.014,0.035,0.023,0.053
							c0.037,0.084,0.092,0.158,0.157,0.217C278.295,194.967,278.188,195.297,277.945,195.526z"/>
						<path fill="#FFFFFF" d="M294.9,183.936h-5.006c-3.746,0-4.565,4.289-4.565,4.289l-0.738,6.264c0,0-0.254,3.023,3.912,3.023
							c4.172,0,4.836-2.971,4.836-2.971s0.871-2.919,1.18-6.051c0.305-3.134-0.592-2.447-0.818-3.236
							c-0.231-0.796,1.175-0.631,1.175-0.631s0.334-0.03,0.334-0.318C295.207,184.02,294.9,183.936,294.9,183.936z M291.369,187.107
							l-1.228,7.226c0,0-0.129,1.339-1.459,1.339c-1.332,0-1.1-1.708-1.1-1.708s0.895-5.37,1.174-6.856
							c0.281-1.484,1.535-1.303,1.535-1.303C291.648,185.805,291.369,187.107,291.369,187.107z"/>
						<path fill="#FFFFFF" d="M297.79,183.16h4.298c0,0,0.407,0,0.407,0.417c0,0.415-0.381,0.392-0.381,0.392
							s-0.996-0.033-1.1,0.678c-0.104,0.71-1.791,11.395-1.791,11.395s-0.383,2.068-1.074,2.285h-2.483L297.79,183.16z"/>
						<path fill="#FFFFFF" d="M277.916,205.627h-5.008c-3.746,0-4.562,4.291-4.562,4.291l-0.744,6.267c0,0-0.256,3.023,3.916,3.023
							c4.168,0,4.836-2.97,4.836-2.97s0.867-2.925,1.179-6.055c0.303-3.129-0.591-2.449-0.822-3.238
							c-0.23-0.786,1.18-0.631,1.18-0.631s0.33-0.025,0.33-0.313C278.221,205.714,277.916,205.627,277.916,205.627z
							 M274.383,208.804l-1.228,7.22c0,0-0.131,1.342-1.459,1.342c-1.329,0-1.1-1.707-1.1-1.707s0.891-5.363,1.18-6.854
							c0.279-1.483,1.533-1.304,1.533-1.304C274.662,207.5,274.383,208.804,274.383,208.804z"/>
						<path fill="#FFFFFF" d="M280.805,204.854h4.301c0,0,0.404,0,0.404,0.415s-0.381,0.392-0.381,0.392s-0.998-0.033-1.101,0.686
							c-0.104,0.709-1.789,11.391-1.789,11.391s-0.383,2.072-1.077,2.286h-2.482L280.805,204.854z"/>
						<path fill="#FFFFFF" d="M299.377,205.747h3.664c0,0,0.346,0.003,0.346,0.263c0,0.262-0.324,0.246-0.324,0.246
							s-0.85-0.02-0.941,0.43c-0.084,0.449-1.526,7.16-1.526,7.16s-0.324,1.293-0.912,1.428h-2.115L299.377,205.747z"/>
						<path fill="#FFFFFF" d="M260.912,226.843h-5.002c-3.748,0-4.568,4.288-4.568,4.288l-0.742,6.259c0,0-0.252,3.023,3.916,3.023
							c4.17,0,4.838-2.968,4.838-2.968s0.869-2.922,1.176-6.049c0.306-3.136-0.59-2.451-0.817-3.238
							c-0.23-0.786,1.178-0.639,1.178-0.639s0.33-0.018,0.33-0.313C261.219,226.92,260.912,226.843,260.912,226.843z
							 M257.385,230.017l-1.23,7.213c0,0-0.131,1.345-1.459,1.345c-1.329,0-1.1-1.703-1.1-1.703s0.896-5.376,1.178-6.854
							c0.279-1.486,1.533-1.306,1.533-1.306C257.664,228.711,257.385,230.017,257.385,230.017z"/>
						<path fill="#FFFFFF" d="M263.805,226.062h4.299c0,0,0.408,0,0.408,0.415c0,0.414-0.385,0.387-0.385,0.387
							s-0.996-0.021-1.099,0.685c-0.104,0.713-1.791,11.397-1.791,11.397s-0.385,2.068-1.075,2.282h-2.482L263.805,226.062z"/>
						<path fill="#FFFFFF" d="M296.668,246.178h4.297c0,0,0.405,0,0.405,0.412c0,0.422-0.379,0.39-0.379,0.39
							s-0.998-0.028-1.104,0.687c-0.103,0.711-1.787,11.395-1.787,11.395s-0.385,2.069-1.076,2.281h-2.481L296.668,246.178z"/>
						<path fill="#FFFFFF" d="M246.957,225.247h4.299c0,0,0.404,0,0.404,0.42c0,0.415-0.38,0.39-0.38,0.39s-0.997-0.023-1.1,0.682
							c-0.102,0.713-1.791,11.396-1.791,11.396s-0.385,2.064-1.074,2.278h-2.479L246.957,225.247z"/>
						<path fill="#FFFFFF" d="M280.059,183.066h4.174c0,0,0.354-0.076,0.354,0.371c0,0-0.047,0.498-0.354,0.498
							c-0.309,0-1.26-0.183-1.26,0.822c0,0-0.123,0.334,0.644,0.334c0.768,0,1.331,0,1.331,0s-0.264,1.685-0.36,1.74
							c-0.099,0.051-1.562,0-1.562,0s-0.463-0.068-0.463,0.479s0.41,0.39,0.41,0.39h1.516l-0.182,1.947h-1.92
							c0,0-0.357,1.636-1.15,1.636s-2.125,0-2.125,0L280.059,183.066z"/>
						<path fill="#FFFFFF" d="M233.723,204.305h9.391c0,0,0.587-0.133,0.587,0.424c0,0.551-0.587,0.551-0.587,0.551h-0.461
							c0,0-0.51-0.055-0.51,0.336c0,0.401-0.516,0.717-1.33,0.717c-0.819,0-3.737,0-3.737,0s-0.437-0.056-0.437,0.443
							c0,0.506,0.461,0.557,0.461,0.557h5.553c0,0,0.437-0.027,0.437,0.316c0,0.338-0.437,0.158-0.437,0.158h-0.434
							c0,0-0.408,0.104-0.408,0.442c0,0.346-0.36,0.712-1.358,0.712c-0.994,0-3.634,0-3.634,0s-0.69-0.188-0.69,0.686
							c0,0.87,0.69,0.633,0.69,0.633h5.759c0,0,0.536-0.106,0.536,0.291c0,0.395-0.485,0.363-0.485,0.363h-0.74
							c0,0-0.336-0.104-0.563,0.32c-0.23,0.42-0.283,0.475-1.15,0.475c-0.871,0-7.141,0-7.141,0s-0.816,0.102-0.562-0.848
							C232.729,209.936,233.723,204.305,233.723,204.305z"/>
						<path fill="#FFFFFF" d="M243.012,207.124h2.275l0.407-2.714h3.816c0,0,0.715-0.08,0.715,0.342c0,0.42-0.32,0.334-0.32,0.334
							h-0.7c0,0-0.386-0.107-0.386,0.676c0,0.781-0.743,6.676-1.715,6.676c-0.971,0-2.586,0-2.586,0l0.539-3.447h-2.381
							L243.012,207.124z"/>
						<path fill="#FFFFFF" d="M240.367,230.34l2.032,0.115l0.65-5.219l3.41,0.187c0,0,0.649-0.112,0.606,0.697
							c-0.043,0.822-0.315,0.626-0.315,0.626l-0.631-0.038c0,0-0.334-0.208-0.416,1.298c-0.08,1.51-1.353,12.879-2.224,12.827
							c-0.873-0.046-2.313-0.13-2.313-0.13l0.836-6.64l-2.133-0.12L240.367,230.34z"/>
						<path fill="#FFFFFF" d="M293.346,208.818h1.795l0.322-3.178h3.016c0,0,0.563-0.095,0.563,0.398
							c0,0.492-0.252,0.385-0.252,0.385h-0.557c0,0-0.303-0.114-0.303,0.805c0,0.91-0.588,7.842-1.354,7.842
							c-0.771,0-2.039,0-2.039,0l0.42-4.05h-2.187L293.346,208.818z"/>
						<path fill="#FFFFFF" d="M275.928,248.934h2.807l0.367-2.756h3.428c0,0,0.646-0.079,0.646,0.349
							c0,0.431-0.291,0.339-0.291,0.339h-0.631c0,0-0.344-0.102-0.344,0.689s-0.668,6.783-1.543,6.783s-2.322,0-2.322,0l0.485-3.5
							h-2.901L275.928,248.934z"/>
						<path fill="#FFFFFF" d="M233.393,212.619l-0.229,1.688H243.7c0,0,0.487-0.084,0.487,0.523c0,0.604-0.524,0.537-0.524,0.537
							h-10.631l-0.611,3.936h13.047c0,0,0.783,0.094,1.459-0.604c0,0,0.029-0.133,0.461-0.133c0.435,0,0.435,0,0.435,0
							s0.28-0.002,0.28-0.287c0-0.291-0.307-0.266-0.307-0.266h-11.488c0,0-0.588,0.109-0.588-0.552
							c0-0.659,0.537-0.524,0.537-0.524h9.826c0,0,0.969-0.106,0.969-1.688c0-1.578,0.564-1.578,0.848-1.578
							c0.279,0,0.716,0.133,0.716-0.338c0-0.48-0.691-0.342-0.691-0.342L233.393,212.619z"/>
						<path fill="#FFFFFF" d="M250.635,213.334l-0.229,1.68h10.544c0,0,0.483-0.079,0.483,0.529c0,0.605-0.521,0.539-0.521,0.539
							h-10.638l-0.608,3.936h13.047c0,0,0.779,0.084,1.457-0.613c0,0,0.027-0.125,0.463-0.125s0.436,0,0.436,0s0.279,0,0.279-0.287
							c0-0.291-0.309-0.271-0.309-0.271h-11.488c0,0-0.586,0.112-0.586-0.552c0-0.649,0.535-0.521,0.535-0.521h9.822
							c0,0,0.979-0.107,0.979-1.686c0-1.58,0.561-1.58,0.844-1.58c0.279,0,0.713,0.135,0.713-0.336c0-0.477-0.686-0.347-0.686-0.347
							L250.635,213.334z"/>
						<path fill="#FFFFFF" d="M294.287,205.747h-4.966c0,0-4.479-0.575-5.065,4.136c-0.551,4.41,4.797,3.817,4.797,3.817
							s3.393,0.059,4.365-4.212c0,0,0.178-0.646-0.008-1.397c-0.568-2.087,0.825-1.84,0.825-1.84s0.33,0.183,0.33-0.212
							C294.566,205.652,294.287,205.747,294.287,205.747z M290.701,209.358c-0.103,2.472-1.994,2.55-1.994,2.55
							s-1.533,0.025-1.533-1.918c0-2.342,1.818-2.426,1.818-2.426C290.857,207.361,290.701,209.358,290.701,209.358z"/>
						<path fill="#FFFFFF" d="M277.555,246.277h-5.553c0,0-5.01-0.545-5.666,3.904c-0.613,4.176,5.36,3.613,5.36,3.613
							s3.796,0.054,4.886-3.98c0,0,0.203-0.613-0.006-1.328c-0.64-1.965,0.924-1.73,0.924-1.73s0.371,0.172,0.371-0.199
							C277.871,246.178,277.555,246.277,277.555,246.277z M273.551,249.689c-0.115,2.337-2.234,2.416-2.234,2.416
							s-1.721,0.022-1.721-1.817c0-2.217,2.035-2.29,2.035-2.29C273.721,247.807,273.551,249.689,273.551,249.689z"/>
						<path fill="#FFFFFF" d="M250.914,204.854c0,0-0.318-0.111-0.318,0.894s0.318,0.949,0.318,0.949h4.996
							c0,0,0.842-0.048,0.532,0.898c-0.305,0.944-1.078,4.313-0.918,4.525c0.148,0.214,2.236,0,2.236,0s0.998,0.094,1.291-1.769
							c0.326-2.066,0.148-4.398,1.641-4.725c0,0,0.525,0.179,0.525-0.348c0-0.527-0.793-0.434-0.793-0.434L250.914,204.854z"/>
						<path fill="#FFFFFF" d="M267.395,207.788l-0.328-0.021c0,0-0.516,0.021-0.998,0.021c-0.178,0-0.346-0.038-0.407-0.084
							c0.088-0.687,0.125-1.109,0.125-1.308c0-0.781,0.383-0.68,0.383-0.68h0.705c0,0,0.317,0.092,0.317-0.328
							c0-0.423-0.719-0.344-0.719-0.344h-3.811l-0.349,2.295L262,209.623h0.021l-0.537,3.443c0,0,1.613,0,2.584,0
							c0.521,0,0.972-1.67,1.281-3.352c0.463-0.006,1.267-0.008,1.504,0.005c0.349,0.021,0.635-1.19,0.635-1.19
							C267.701,207.752,267.395,207.788,267.395,207.788z"/>
						<path fill="#FFFFFF" d="M301.936,232.037l-0.303-0.033c0,0-0.488,0.033-0.941,0.033c-0.166,0-0.326-0.066-0.387-0.152
							c0.086-1.285,0.117-2.851,0.117-3.225c0-1.459,0.356-1.28,0.356-1.28h0.666c0,0,0.303,0.179,0.303-0.613
							c0-0.789-0.676-0.646-0.676-0.646h-3.592l-0.321,4.309l-0.296,4.284h0.021l-1.217,6.851c0,0,1.518,0,2.432,0
							c0.488,0,1.623-3.53,1.916-6.679c0.432-0.004,1.19-0.018,1.416,0.006c0.332,0.038,0.598-1.461,0.598-1.461
							C302.227,231.977,301.936,232.037,301.936,232.037z"/>
						<path fill="#FFFFFF" d="M284.229,227.237c-1.379,0-14.276-0.395-14.276-0.395s-0.537,0.313-0.537,1.339
							c0,1.023,0.537,0.867,0.537,0.867h10.209l-0.341,3.383c-0.079,0.062-0.186,0.109-0.323,0.109c-0.408,0-9.771,0-9.771,0
							s-0.893-0.184-0.893,0.73c0,0.324,0,0.488,0,0.568c0,0-0.041,0.771,0.748,0.771c0.782,0,9.764,0,9.764,0
							s0.143,0.019,0.252,0.073l-0.281,2.734h1.769c0,0,1.305,0.076,1.461-1.971c0.149-2.043,0.608-7.144,2.051-7.266
							c0.006,0,0.01,0,0.021,0C286.07,228.105,285.611,227.237,284.229,227.237z"/>
						<path fill="#FFFFFF" d="M266.666,238.96c0,0-0.529-0.079-0.529,0.542s0,0.822,0,0.822s-0.008,0.689,0.529,0.689
							c0.535,0,13.623,0,13.623,0s1.401,0.155,2.11-0.911c0,0,0.021-0.372,0.636-0.372c0.608,0,0.805-0.02,0.805-0.376
							c0,0,0-0.237-0.267-0.237C283.305,239.117,266.666,238.96,266.666,238.96z"/>
						<path fill="#FFFFFF" d="M213.596,237.93c0,0-0.52-0.079-0.52,0.545c0,0.615,0,0.818,0,0.818s-0.011,0.688,0.52,0.688
							c0.533,0,13.471,0,13.471,0s1.386,0.158,2.09-0.906c0,0,0.021-0.377,0.623-0.377c0.611,0,0.798-0.018,0.798-0.376
							c0,0,0-0.234-0.265-0.234C230.045,238.087,213.596,237.93,213.596,237.93z"/>
						<path fill="#FFFFFF" d="M301.174,218.371c-0.162,0-6.928-0.084-11.313-0.148c-0.004,0-0.004,0-0.004,0
							c-0.381,0-0.44-0.379-0.448-0.631c0.122-2.025,0.807-1.904,0.807-1.904h0.729c0,0,0.398-0.121,0.398-0.414
							c0-0.291-0.381-0.203-0.381-0.203h-3.967c-1.384,0-1.257,3.517-1.257,3.517l0,0c-0.016,0.071-0.021,0.153-0.021,0.252
							c0,0.751,0,0.99,0,0.99s-0.012,0.84,0.467,0.84c0.478,0,12.084,0,12.084,0s1.24,0.188,1.867-1.1c0,0,0.018-0.456,0.563-0.456
							c0.541,0,0.715-0.022,0.715-0.455C301.413,218.658,301.413,218.371,301.174,218.371z"/>
						<path fill="#FFFFFF" d="M231.547,226.014c0,0-2.58,0-3.332,0c-0.754,0-0.685,0.709-0.685,0.709s-0.18,1.314-0.18,1.795
							c0,0.474-0.381,0.396-0.381,0.396s-6.963,0-7.166,0c-0.205,0-0.182-0.317-0.182-0.317l0.133-1.079
							c0-0.927,0.932-0.952,0.932-0.952s0.388,0,0.388-0.431c0-0.424-0.312-0.32-0.312-0.32h-3.377
							c-0.881,0-0.855,0.802-0.855,0.802s-1.204,7.183-1.204,8.027c0,0.843,0.588,0.661,0.588,0.661s11.309,0,12.563,0
							c1.256,0,1.334-1.366,1.334-1.366s0.947-5.925,0.947-6.581c0-0.657,0.994-0.576,0.994-0.576s0.412,0.023,0.412-0.42
							C232.164,225.908,231.547,226.014,231.547,226.014z M226.764,231.595l-0.152,1.438c0,0.707-0.612,0.559-0.612,0.559
							s-6.068,0-6.771,0c-0.705,0-0.521-0.756-0.521-0.756l0.201-1.506c0-0.846,0.848-0.766,0.848-0.766s5.754,0.106,6.471,0.106
							S226.764,231.595,226.764,231.595z"/>
						<path fill="#FFFFFF" d="M233.311,226.117h8.24c0,0,0.516-0.104,0.516,0.324c0,0.414-0.438,0.401-0.438,0.401
							s-1.148,0.013-1.148,0.83c0,0.813-0.742,4.894-0.742,4.894s-0.055,1.318-1.149,1.318c-1.101,0-3.123,0-3.123,0
							s-0.613-0.109-0.613,0.496l-0.514,3.027c0,0-0.178,0.84,0.258,0.84c0.434,0,5.605,0,5.605,0s0.327-0.103,0.327,0.238
							c0,0.347-0.305,0.318-0.305,0.318h-0.766c0,0-0.408-0.084-0.771,0.42c-0.356,0.499-0.459,0.629-1.178,0.629
							c-0.717,0-6.242,0-6.242,0s-0.563-0.049-0.385-0.711c0.178-0.656,1.076-6.52,1.076-6.52s-0.027-0.771,0.74-0.771
							c0.77,0,3.579,0,3.579,0s0.566,0.09,0.566-0.575l0.437-2.68c0,0,0.2-0.583-0.593-0.583h-3.194c0,0-0.644,0.109-0.644-0.527
							v-0.916C232.852,226.57,232.779,226.117,233.311,226.117z"/>
						<path fill="#FFFFFF" d="M285.969,227.38h9.391c0,0,0.871-0.179,0.871,0.501c0,0.686-0.692,0.716-0.692,0.716
							s-0.871-0.271-0.871,0.524c0,0.789-1.429,10.021-1.429,10.021s-0.159,1.606-1.307,1.606c-1.15,0-2.25,0-2.25,0l1.531-10.601
							c0,0,0.233-0.9-0.305-0.9c-0.537,0-4.783,0-4.783,0s-0.797,0.059-0.797-0.601c0-0.661,0-1.003,0-1.003
							S285.383,227.38,285.969,227.38z"/>
						<path fill="#FFFFFF" d="M284.545,246.865c0,0-0.601-0.079-0.601,0.621c0,0.694,0,0.824,0,0.824s0.037,0.582,0.601,0.582
							c0.567,0,1.514,0,1.514,0s0.457-0.078,0.277,0.42c-0.174,0.5-4.117,10.423-4.117,10.423s-0.486,0.628,0.484,0.628
							c0.97,0,2.1,0,2.1,0s0.383,0.077,0.586-0.577c0.211-0.659,2.971-7.815,2.971-7.815s0.31-0.843,0.31-0.24
							c0,0.609,0.408,8.264,0.408,8.264s0,0.375,0.383,0.375c0.385,0,2.584,0,2.584,0s0.258-0.006,0.18-0.535
							c-0.078-0.523-0.867-10.416-0.867-10.416s-0.026-0.525,0.279-0.525c0.309,0,0.844,0,0.844,0s0.56,0.08,1.457-0.842
							c0,0,0.078-0.344,0.896-0.344c0,0,0.485,0.031,0.485-0.473c0-0.369-0.459-0.344-0.459-0.344L284.545,246.865z"/>
						<path fill="#FFFFFF" d="M280.84,260.939c-0.336-0.683-1.641-4.281-1.641-4.281s-0.515-0.819,0.36-0.932
							c0.867-0.104,1.045-0.178,1.045-0.465c0-0.133-0.303-0.344-1.096-0.291h-2.869c0,0-1.024,0.079-1.664,1.232
							c-0.641,1.158-1.955,2.842-1.955,2.842s-0.602,0.719-0.346-0.154l0.479-2.522c0,0,0.085-0.767,0.646-0.767
							c0.559,0,0.742-0.16,0.742-0.447c0,0,0.176-0.184-0.797-0.184c-0.972,0-2.968,0-2.968,0s-0.536,0-0.536,0.631l-0.154,0.708
							c0,0-0.051,0.46-0.445,0.46c-0.397,0-0.651,0-0.651,0s-0.283,0.15-0.183-0.46l0.183-0.577c0,0,0.102-0.342,0.588-0.342
							c0,0,0.278-0.027,0.278-0.262c0-0.336-0.397-0.275-0.397-0.275l-2.428-0.029c0,0-0.98-0.223-0.98,0.646l-0.9,5.153
							c0,0-0.229,0.742,0.718,0.742c0.948,0,8.491,0,8.491,0s0.591,0.126,0.771-0.342c0.18-0.474,1.076-1.998,1.076-1.998
							s0.332-0.843,0.639,0.02c0.307,0.871,0.689,1.979,0.689,1.979s0.055,0.468,0.588,0.468c0.541,0,2.203,0,2.203,0
							S281.17,261.629,280.84,260.939z"/>
						<g>
							<g>
								<path fill="#FFFFFF" d="M123.106,260.906c4.311,5.452,13.854,2.982,13.854,2.982v0.645c0,2.393,1.061,1.973,1.626,2.045
									c0.565,0.072,0,0,0.283,0.438c0.282,0.433,2.261,0.291,2.614,0c0.354-0.293,0.777,0,0.777,0
									c1.768-0.219,1.344-2.908,1.344-2.908c3.745,0.87,10.18-1.094,10.673-1.525c0.496-0.439,0.639,0.145,0.639,0.145
									c-0.073,2.105,1.553,2.396,2.046,2.328c0.496-0.077,0.78,0.287,0.78,0.287c0.988,0.653,1.979,0,1.979,0
									s-0.071-0.364,0.706-0.364s1.484-0.218,1.907-1.742c0.423-1.529-0.706-2.255-1.769-2.618
									c-1.059-0.364-1.059-0.729-1.059-0.729c1.059-0.216,2.896-1.744,2.896-1.744c3.252,2.183,10.797,0.098,11.944,0.291
									c0.634,0.109,0.919,1.453,2.119,1.892c1.204,0.437,6.787,3.488,7-3.271c0.211-6.759-12.581-5.017-14.492-4.726
									c-1.907,0.293-3.25-1.818-3.25-1.818c1.343-2.689-0.353-7.125-0.353-7.125c3.038,1.309,5.37-1.887,4.17-5.377
									c-1.203-3.492-0.567-12.575,0.565-14.319c1.13-1.746,0.524-2.683,0.354-2.908c-0.055-0.071-0.31-0.343-0.54-0.184
									c-0.211,0.146-0.299-0.255-0.299-0.255c-0.302-0.734-0.771-0.528-0.999-0.453c-0.23,0.072-0.213-0.201-0.213-0.201
									c-0.141-0.651-0.919-0.437-0.919-0.437c1.203-1.381-0.636-6.106-0.849-7.048c-0.213-0.946,0.637-2.256,0.637-2.256
									s1.626-1.378,1.554-3.779c-0.068-2.401-6.005,0-6.219,0c-4.481,0-6.293-1.109-6.571-1.455
									c-0.537-0.664-3.888-2.979-6.009-4.215s-0.92,1.092-0.92,1.092c1.133,2.252,0,4.285,0,4.285
									c-4.453,2.33-4.595,7.854-4.595,7.854c-0.49,2.643-4.1,2.182-4.1,2.182c-17.883,1.527-19.509,26.242-21.063,31.477
									C117.802,252.623,118.792,255.455,123.106,260.906z M163.207,226.899c0.307-0.387,0.791-1.575,0.555-2.474
									c0,0-0.096-0.324,0.316-0.324c0.411,0,0.307,0.158,0.307,0.158s-0.424,2.347-0.272,2.932
									c0.153,0.58-0.398,0.313-0.398,0.313S162.899,227.286,163.207,226.899z"/>
								<path fill="#BB5A50" d="M168.093,222.09c0,0,0.791,0.073,0.684,0.957c0,0-0.021,0.167,0.083,0.279
									c0.104,0.107,0.235,0.592-0.094,0.868c-0.33,0.284-0.53-0.484-0.53-0.484s0.01-0.187-0.198-0.129
									c-0.193,0.05-0.509,0-0.675-0.18c-0.064-0.075-0.131-0.026-0.131,0.021c0,0.047-0.29,0.356-0.491,0.18
									c-0.165-0.14,0.023-0.688,0.307-0.81c0,0,0.142-0.05,0.165-0.183C167.211,222.61,167.431,222.002,168.093,222.09z"/>
								<path fill="#BB5A50" d="M166.575,220.43c0,0,0.33,0.039,0.33,0.775c0,0.86-0.474,0.544-0.474,0.544s-0.396-0.289-0.363-0.81
									C166.104,220.418,166.39,220.385,166.575,220.43z"/>
								<path fill="#BB5A50" d="M169.829,221.32c0,0-0.333,0.01-0.384,0.748c-0.06,0.861,0.434,0.58,0.434,0.58
									s0.421-0.264,0.421-0.788C170.299,221.341,170.016,221.283,169.829,221.32z"/>
								<path fill="#BB5A50" d="M169.062,220.305c0,0,0.406-0.007,0.203,0.818c-0.162,0.662-0.503,0.482-0.503,0.482
									s-0.372-0.166-0.187-0.775C168.762,220.22,169.062,220.305,169.062,220.305z"/>
								<path fill="#BB5A50" d="M167.696,220.019c0,0,0.363-0.093,0.451,0.71c0.075,0.679-0.322,0.619-0.322,0.619
									s-0.298-0.043-0.422-0.665C167.282,220.072,167.696,220.019,167.696,220.019z"/>
								<path fill="#8B3E3A" d="M159.017,209.773c0,0-0.488,0.449-0.963,0.721l0.18-1.001L159.017,209.773z"/>
								<path fill="#8B3E3A" d="M157.413,208.951c0,0-0.042,0.761-0.206,1.338l-0.492-1.121L157.413,208.951z"/>
								<path fill="#BB5A50" d="M158.058,208.842c0,0,1.521,0.234,1.2,0.727c0,0-0.105,0.219-0.387,0.234
									c-0.283,0.019-0.532-0.016-0.729,0.547c0,0-0.104,0.308-0.563,0.419c0,0-0.178,0.127-0.337-0.526
									c-0.159-0.654,0.069-0.891-0.53-1.074c0,0-0.211-0.18,0-0.326C156.926,208.695,157.911,208.816,158.058,208.842z"/>
							</g>
							<g>
								<g>
									<g>
										<path fill="#FFFFFF" d="M118.346,239.848c-0.591,0.535-1.06,1.174-1.563,1.788c-0.122,0.148,0.089,0.362,0.212,0.212
											c0.503-0.614,0.972-1.252,1.563-1.788C118.701,239.93,118.489,239.718,118.346,239.848L118.346,239.848z"/>
									</g>
								</g>
								<g>
									<g>
										<path fill="#FFFFFF" d="M143.677,201.484c-0.793-0.015-1.602-0.244-2.15-0.846c-0.13-0.144-0.342,0.069-0.212,0.212
											c0.6,0.659,1.493,0.917,2.362,0.934C143.871,201.788,143.871,201.487,143.677,201.484L143.677,201.484z"/>
									</g>
								</g>
								<g>
									<g>
										<path fill="#FFFFFF" d="M146.046,201.854c0.12,0.831-0.667,1.018-1.327,0.968c-0.193-0.015-0.192,0.286,0,0.3
											c0.904,0.068,1.765-0.323,1.616-1.348C146.308,201.583,146.019,201.665,146.046,201.854L146.046,201.854z"/>
									</g>
								</g>
								<g>
									<g>
										<path fill="#FFFFFF" d="M146.095,204.269c-1.192-0.788-2.594-0.823-3.978-0.824c-0.193,0-0.193,0.3,0,0.3
											c1.332,0.001,2.678,0.024,3.826,0.783C146.105,204.635,146.255,204.375,146.095,204.269L146.095,204.269z"/>
									</g>
								</g>
								<g>
									<g>
										<path fill="#FFFFFF" d="M154.479,196.971c0.355,0.288,0.684,0.607,1.041,0.892c0.15,0.119,0.363-0.092,0.212-0.212
											c-0.357-0.285-0.685-0.604-1.041-0.892C154.542,196.639,154.329,196.85,154.479,196.971L154.479,196.971z"/>
									</g>
								</g>
								<g>
									<g>
										<path fill="#FFFFFF" d="M156.034,194.499c0.298,1.205,1.054,2.17,1.945,3.005c0.142,0.132,0.354-0.08,0.212-0.212
											c-0.854-0.802-1.582-1.716-1.869-2.874C156.276,194.231,155.987,194.311,156.034,194.499L156.034,194.499z"/>
									</g>
								</g>
								<g>
									<g>
										<path fill="#FFFFFF" d="M180.681,206.691c-1.112,0.316-2.211,0.636-3.376,0.659c-0.193,0.004-0.193,0.304,0,0.3
											c1.191-0.023,2.317-0.345,3.456-0.669C180.947,206.928,180.868,206.638,180.681,206.691L180.681,206.691z"/>
									</g>
								</g>
								<g>
									<g>
										<path fill="#FFFFFF" d="M180.157,208.8c-0.981-0.546-2.036-0.883-3.132-1.117c-0.188-0.041-0.269,0.249-0.08,0.289
											c1.07,0.229,2.101,0.553,3.061,1.086C180.175,209.153,180.326,208.894,180.157,208.8L180.157,208.8z"/>
									</g>
								</g>
								<g>
									<g>
										<path fill="#FFFFFF" d="M183.179,211.57c-0.988,0.772-2.091,0.934-3.312,0.94c-0.193,0.001-0.193,0.301,0,0.3
											c1.312-0.007,2.468-0.202,3.523-1.028C183.543,211.663,183.329,211.452,183.179,211.57L183.179,211.57z"/>
									</g>
								</g>
								<g>
									<g>
										<path fill="#FFFFFF" d="M173.313,207.391c-0.09,0.817,0.125,1.578,0.554,2.273c0.101,0.165,0.359,0.014,0.259-0.151
											c-0.402-0.655-0.597-1.353-0.513-2.122C173.634,207.198,173.333,207.201,173.313,207.391L173.313,207.391z"/>
									</g>
								</g>
								<g>
									<g>
										<path fill="#FFFFFF" d="M177.015,216.413c1.025,0.495,1.9,1.283,3.027,1.552c0.188,0.045,0.268-0.244,0.08-0.289
											c-1.1-0.263-1.956-1.039-2.956-1.522C176.993,216.07,176.84,216.329,177.015,216.413L177.015,216.413z"/>
									</g>
								</g>
								<g>
									<g>
										<path fill="#FFFFFF" d="M179.73,215.866c0.661-0.321,1.381-0.428,2.102-0.534c0.19-0.028,0.108-0.317-0.08-0.289
											c-0.749,0.109-1.486,0.23-2.172,0.564C179.405,215.691,179.557,215.95,179.73,215.866L179.73,215.866z"/>
									</g>
								</g>
								<g>
									<g>
										<path fill="#FFFFFF" d="M181.499,222.235c1.202,0.692,2.272,1.7,3.666,1.989c0.188,0.039,0.269-0.25,0.08-0.289
											c-1.363-0.283-2.417-1.281-3.595-1.958C181.482,221.879,181.332,222.139,181.499,222.235L181.499,222.235z"/>
									</g>
								</g>
								<g>
									<g>
										<path fill="#FFFFFF" d="M183.108,221.369c0.485-0.088,0.967-0.102,1.458-0.102c0.193,0,0.193-0.3,0-0.3
											c-0.519,0-1.026,0.02-1.538,0.113C182.838,221.115,182.918,221.404,183.108,221.369L183.108,221.369z"/>
									</g>
								</g>
								<g>
									<g>
										<path fill="#FFFFFF" d="M184.566,218.852c0.546,0.013,1.054,0.127,1.562,0.324c0.181,0.07,0.258-0.22,0.08-0.289
											c-0.534-0.207-1.069-0.321-1.642-0.334C184.373,218.548,184.373,218.848,184.566,218.852L184.566,218.852z"/>
									</g>
								</g>
								<g>
									<g>
										<path fill="#FFFFFF" d="M185.352,213.24c0.755-0.281,1.509-0.015,2.269,0.114c0.188,0.032,0.271-0.257,0.08-0.289
											c-0.813-0.138-1.619-0.416-2.429-0.114C185.093,213.018,185.17,213.308,185.352,213.24L185.352,213.24z"/>
									</g>
								</g>
								<g>
									<g>
										<path fill="#FFFFFF" d="M183.572,205.543c0.633-0.348,1.179-1.008,1.888-1.19c0.187-0.048,0.106-0.337-0.08-0.289
											c-0.744,0.19-1.298,0.856-1.958,1.22C183.251,205.378,183.403,205.637,183.572,205.543L183.572,205.543z"/>
									</g>
								</g>
								<g>
									<g>
										<path fill="#FFFFFF" d="M183.672,236.309c0.208,0.962,0.42,1.923,0.749,2.853c0.063,0.181,0.354,0.103,0.289-0.08
											c-0.328-0.93-0.541-1.89-0.749-2.853C183.921,236.04,183.631,236.12,183.672,236.309L183.672,236.309z"/>
									</g>
								</g>
								<g>
									<g>
										<path fill="#FFFFFF" d="M184.536,244.814c-1.464-1-3.105-1.651-4.736-2.322c-0.179-0.074-0.256,0.217-0.08,0.289
											c1.608,0.662,3.223,1.306,4.665,2.292C184.545,245.183,184.695,244.922,184.536,244.814L184.536,244.814z"/>
									</g>
								</g>
								<g>
									<g>
										<path fill="#FFFFFF" d="M178.114,235.171c-0.001,0.432-0.02,0.84-0.19,1.244c-0.075,0.176,0.184,0.329,0.259,0.151
											c0.194-0.457,0.231-0.902,0.232-1.395C178.415,234.978,178.115,234.978,178.114,235.171L178.114,235.171z"/>
									</g>
								</g>
								<g>
									<g>
										<path fill="#FFFFFF" d="M174.699,231.547c0.014,0.873,0.314,1.951-0.385,2.638c-0.138,0.136,0.074,0.348,0.212,0.212
											c0.778-0.765,0.487-1.874,0.473-2.85C174.996,231.354,174.696,231.354,174.699,231.547L174.699,231.547z"/>
									</g>
								</g>
								<g>
									<g>
										<path fill="#FFFFFF" d="M173.865,243.154c0.231,0.541,0.608,0.972,1.121,1.263c0.168,0.096,0.32-0.164,0.151-0.259
											c-0.472-0.268-0.801-0.659-1.015-1.155C174.048,242.825,173.79,242.978,173.865,243.154L173.865,243.154z"/>
									</g>
								</g>
								<g>
									<g>
										<path fill="#FFFFFF" d="M173.141,241.035c0.145,0.058,0.287,0.116,0.43,0.174c0.148,0.122,0.361-0.089,0.213-0.212
											c-0.2-0.165-0.387-0.232-0.643-0.262C172.949,240.713,172.951,241.013,173.141,241.035L173.141,241.035z"/>
									</g>
								</g>
								<g>
									<g>
										<path fill="#FFFFFF" d="M177.305,228.687c0.359,0.355,0.751,0.658,1.24,0.807c0.186,0.057,0.264-0.233,0.08-0.289
											c-0.44-0.135-0.785-0.411-1.108-0.73C177.379,228.339,177.167,228.551,177.305,228.687L177.305,228.687z"/>
									</g>
								</g>
								<g>
									<g>
										<path fill="#FFFFFF" d="M180.364,226.098c0.127,0.337,0.302,0.651,0.43,0.987c0.067,0.179,0.357,0.101,0.289-0.08
											c-0.127-0.336-0.303-0.65-0.43-0.987C180.586,225.838,180.295,225.916,180.364,226.098L180.364,226.098z"/>
									</g>
								</g>
								<g>
									<g>
										<path fill="#FFFFFF" d="M178.03,221.519c0.113,0.255,0.206,0.518,0.321,0.771c0.08,0.176,0.338,0.023,0.259-0.151
											c-0.114-0.254-0.208-0.517-0.32-0.771C178.21,221.191,177.952,221.344,178.03,221.519L178.03,221.519z"/>
									</g>
								</g>
								<g>
									<g>
										<path fill="#FFFFFF" d="M175.172,221.223c0.393,0.497,0.819,0.965,1.149,1.508c0.102,0.165,0.36,0.014,0.26-0.151
											c-0.345-0.564-0.788-1.052-1.197-1.568C175.264,220.859,175.053,221.073,175.172,221.223L175.172,221.223z"/>
									</g>
								</g>
								<g>
									<g>
										<path fill="#FFFFFF" d="M174.705,221.403c-0.113,0.366-0.207,0.737-0.318,1.103c-0.057,0.186,0.233,0.264,0.289,0.08
											c0.112-0.366,0.205-0.737,0.318-1.103C175.051,221.298,174.762,221.219,174.705,221.403L174.705,221.403z"/>
									</g>
								</g>
								<g>
									<g>
										<path fill="#FFFFFF" d="M187.769,235.277c1.202,1.22,2.539,2.302,3.632,3.626c0.123,0.149,0.334-0.064,0.212-0.212
											c-1.093-1.324-2.43-2.407-3.632-3.626C187.845,234.927,187.633,235.139,187.769,235.277L187.769,235.277z"/>
									</g>
								</g>
								<g>
									<g>
										<path fill="#FFFFFF" d="M145.452,207.283c-1.029-0.235-2.094-0.204-3.121-0.442c-0.188-0.044-0.27,0.246-0.08,0.289
											c1.028,0.239,2.092,0.207,3.121,0.442C145.56,207.615,145.64,207.326,145.452,207.283L145.452,207.283z"/>
									</g>
								</g>
								<g>
									<g>
										<path fill="#FFFFFF" d="M141.932,210.423c-1.125-0.607-2.333-1.027-3.265-1.938c-0.139-0.135-0.352,0.077-0.212,0.212
											c0.949,0.929,2.177,1.364,3.324,1.984C141.951,210.774,142.102,210.515,141.932,210.423L141.932,210.423z"/>
									</g>
								</g>
								<g>
									<g>
										<path fill="#FFFFFF" d="M136.867,211.924c-0.614-0.19-1.208-0.436-1.821-0.623c-0.187-0.057-0.264,0.233-0.08,0.289
											c0.614,0.188,1.208,0.434,1.821,0.623C136.972,212.271,137.051,211.98,136.867,211.924L136.867,211.924z"/>
									</g>
								</g>
								<g>
									<g>
										<path fill="#FFFFFF" d="M132.926,210.167c0.193,0,0.193-0.3,0-0.3S132.733,210.167,132.926,210.167L132.926,210.167z"/>
									</g>
								</g>
								<g>
									<g>
										<path fill="#FFFFFF" d="M133.936,211.938c-0.21-0.872-0.712-1.738-1.424-2.294c-0.15-0.118-0.364,0.093-0.212,0.212
											c0.674,0.527,1.146,1.335,1.347,2.163C133.692,212.207,133.981,212.126,133.936,211.938L133.936,211.938z"/>
									</g>
								</g>
								<g>
									<g>
										<path fill="#FFFFFF" d="M135.342,213.455c-0.944-0.456-1.757-1.107-2.57-1.76c-0.148-0.12-0.362,0.091-0.212,0.212
											c0.833,0.668,1.664,1.34,2.631,1.807C135.364,213.797,135.516,213.539,135.342,213.455L135.342,213.455z"/>
									</g>
								</g>
								<g>
									<g>
										<path fill="#FFFFFF" d="M114.52,247.585c-0.303-0.831-0.952-1.372-1.601-1.937c-0.146-0.126-0.358,0.085-0.212,0.212
											c0.601,0.523,1.242,1.032,1.523,1.805C114.296,247.845,114.586,247.767,114.52,247.585L114.52,247.585z"/>
									</g>
								</g>
								<g>
									<g>
										<path fill="#FFFFFF" d="M128.609,207.416c-0.713-0.578-1.967-0.717-2.64,0c-0.132,0.141,0.08,0.354,0.212,0.212
											c0.552-0.589,1.626-0.477,2.216,0C128.546,207.748,128.76,207.537,128.609,207.416L128.609,207.416z"/>
									</g>
								</g>
								<g>
									<g>
										<path fill="#FFFFFF" d="M128.204,211.744c-1.437,0.473-1.424,2.375-1.06,3.575c0.057,0.185,0.347,0.105,0.289-0.08
											c-0.31-1.021-0.409-2.791,0.851-3.206C128.466,211.973,128.388,211.683,128.204,211.744L128.204,211.744z"/>
									</g>
								</g>
								<g>
									<g>
										<path fill="#FFFFFF" d="M125.693,215.182c-0.935-0.132-1.491-0.926-2.188-1.476c-0.15-0.119-0.364,0.092-0.212,0.212
											c0.736,0.583,1.33,1.414,2.319,1.553C125.802,215.498,125.884,215.208,125.693,215.182L125.693,215.182z"/>
									</g>
								</g>
								<g>
									<g>
										<path fill="#FFFFFF" d="M118.216,219.064c-0.048,1.121-1.308,1.639-2.23,1.908c-0.185,0.054-0.105,0.343,0.08,0.289
											c1.068-0.312,2.396-0.922,2.45-2.197C118.524,218.871,118.224,218.872,118.216,219.064L118.216,219.064z"/>
									</g>
								</g>
								<g>
									<g>
										<path fill="#FFFFFF" d="M117.952,221.544c-0.891-1.117-2.394-1.361-3.709-1.644c-0.189-0.041-0.27,0.249-0.08,0.289
											c1.268,0.273,2.721,0.492,3.578,1.567C117.861,221.908,118.071,221.694,117.952,221.544L117.952,221.544z"/>
									</g>
								</g>
								<g>
									<g>
										<path fill="#FFFFFF" d="M112.396,234.833c-0.907-0.703-2.038-0.985-2.979-1.629c-0.16-0.11-0.311,0.15-0.151,0.259
											c0.919,0.628,2.034,0.897,2.919,1.582C112.335,235.163,112.549,234.952,112.396,234.833L112.396,234.833z"/>
									</g>
								</g>
								<g>
									<g>
										<path fill="#FFFFFF" d="M118.26,230.816c-0.094,0.047-0.188,0.094-0.281,0.141c-0.188,0.045-0.107,0.334,0.08,0.289
											c0.166-0.04,0.28-0.113,0.413-0.218C118.623,230.907,118.409,230.697,118.26,230.816L118.26,230.816z"/>
									</g>
								</g>
								<g>
									<g>
										<path fill="#FFFFFF" d="M121.162,231.641c-0.075,1.419-2.372,1.02-3.316,1.01c-0.193-0.002-0.193,0.298,0,0.3
											c1.143,0.011,3.526,0.393,3.616-1.31C121.472,231.447,121.172,231.448,121.162,231.641L121.162,231.641z"/>
									</g>
								</g>
								<g>
									<g>
										<path fill="#FFFFFF" d="M120.146,233.991c-0.713,0.181-1.464,0.357-1.975,0.926c-0.129,0.143,0.083,0.356,0.212,0.212
											c0.476-0.529,1.181-0.681,1.843-0.849C120.414,234.233,120.334,233.943,120.146,233.991L120.146,233.991z"/>
									</g>
								</g>
								<g>
									<g>
										<path fill="#FFFFFF" d="M172.501,203.326c0.439,0.459,0.824,0.96,1.152,1.505c0.101,0.165,0.359,0.015,0.26-0.151
											c-0.344-0.566-0.742-1.088-1.2-1.565C172.579,202.974,172.367,203.186,172.501,203.326L172.501,203.326z"/>
									</g>
								</g>
								<g>
									<g>
										<path fill="#FFFFFF" d="M182.172,201.133c-0.048,1.061-1.274,1.41-2.13,1.613c-0.188,0.044-0.108,0.334,0.08,0.289
											c1.01-0.24,2.295-0.682,2.35-1.902C182.48,200.939,182.181,200.94,182.172,201.133L182.172,201.133z"/>
									</g>
								</g>
								<g>
									<g>
										<path fill="#FFFFFF" d="M175.059,253.508c0.335,0.338,0.701,0.642,1.038,0.979c0.137,0.137,0.349-0.075,0.212-0.212
											c-0.336-0.336-0.703-0.641-1.038-0.979C175.134,253.159,174.922,253.371,175.059,253.508L175.059,253.508z"/>
									</g>
								</g>
								<g>
									<g>
										<path fill="#FFFFFF" d="M172.456,252.526c0.141,0.165,0.229,0.315,0.32,0.505c0.085,0.174,0.345,0.021,0.26-0.151
											c-0.104-0.21-0.218-0.389-0.368-0.565C172.542,252.167,172.331,252.38,172.456,252.526L172.456,252.526z"/>
									</g>
								</g>
								<g>
									<g>
										<path fill="#FFFFFF" d="M172.177,267.195c-1.242-0.498-2.526-0.861-3.812-1.225c-0.188-0.053-0.267,0.237-0.08,0.289
											c1.285,0.363,2.569,0.727,3.812,1.225C172.277,267.557,172.354,267.266,172.177,267.195L172.177,267.195z"/>
									</g>
								</g>
								<g>
									<g>
										<path fill="#FFFFFF" d="M171.824,264.761c-0.506,0.383-1.044,0.721-1.55,1.104c-0.151,0.115-0.003,0.376,0.151,0.259
											c0.506-0.383,1.043-0.721,1.549-1.104C172.127,264.905,171.979,264.644,171.824,264.761L171.824,264.761z"/>
									</g>
								</g>
								<g>
									<g>
										<path fill="#FFFFFF" d="M181.385,267.808c-0.816,0.112-1.637,0.118-2.46,0.119c-0.193,0-0.193,0.3,0,0.3
											c0.851,0,1.696-0.013,2.54-0.129C181.656,268.07,181.575,267.781,181.385,267.808L181.385,267.808z"/>
									</g>
								</g>
								<g>
									<g>
										<path fill="#FFFFFF" d="M177.734,269.27c-1.548,0-3.096,0-4.645,0c-0.193,0-0.193,0.3,0,0.3c1.548,0,3.096,0,4.645,0
											C177.927,269.57,177.927,269.27,177.734,269.27L177.734,269.27z"/>
									</g>
								</g>
								<g>
									<g>
										<path fill="#FFFFFF" d="M175.549,273.199c-1.337,0.372-2.683,0.711-4.047,0.977c-0.189,0.037-0.109,0.326,0.08,0.289
											c1.362-0.265,2.709-0.604,4.047-0.977C175.815,273.437,175.736,273.147,175.549,273.199L175.549,273.199z"/>
									</g>
								</g>
								<g>
									<g>
										<path fill="#FFFFFF" d="M181.306,273.922c-1.9,0.017-3.79,0.204-5.677-0.114c-0.189-0.032-0.271,0.257-0.08,0.289
											c1.914,0.323,3.828,0.142,5.757,0.125C181.5,274.221,181.5,273.92,181.306,273.922L181.306,273.922z"/>
									</g>
								</g>
								<g>
									<g>
										<path fill="#FFFFFF" d="M177.1,275.893c-1.209,0.224-2.432,0.122-3.653,0.114c-0.192-0.001-0.192,0.298,0,0.3
											c1.25,0.009,2.496,0.104,3.733-0.125C177.37,276.146,177.29,275.857,177.1,275.893L177.1,275.893z"/>
									</g>
								</g>
								<g>
									<g>
										<path fill="#FFFFFF" d="M166.822,274.801c-2.937,1.436-6.605,0.062-9.69-0.141c-0.193-0.013-0.192,0.287,0,0.3
											c3.131,0.206,6.847,1.565,9.842,0.1C167.147,274.975,166.995,274.716,166.822,274.801L166.822,274.801z"/>
									</g>
								</g>
								<g>
									<g>
										<path fill="#FFFFFF" d="M162.491,272.213c-0.676,0-1.351,0-2.025,0c-0.193,0-0.193,0.3,0,0.3c0.675,0,1.35,0,2.025,0
											C162.684,272.513,162.684,272.213,162.491,272.213L162.491,272.213z"/>
									</g>
								</g>
								<g>
									<g>
										<path fill="#FFFFFF" d="M166.065,270.496c-0.932,0.109-1.864,0.149-2.778,0.375c-0.188,0.046-0.108,0.336,0.08,0.289
											c0.887-0.22,1.795-0.258,2.698-0.365C166.255,270.773,166.257,270.473,166.065,270.496L166.065,270.496z"/>
									</g>
								</g>
								<g>
									<g>
										<path fill="#FFFFFF" d="M155.106,278.459c-1.09-0.026-2.137-0.356-3.215-0.491c-0.19-0.024-0.188,0.276,0,0.3
											c1.079,0.135,2.123,0.465,3.215,0.491C155.299,278.764,155.299,278.464,155.106,278.459L155.106,278.459z"/>
									</g>
								</g>
								<g>
									<g>
										<path fill="#FFFFFF" d="M153.739,274.093c-1.032-0.009-2.051-0.135-3.06-0.359c-0.188-0.042-0.269,0.247-0.08,0.289
											c1.035,0.23,2.08,0.36,3.14,0.37C153.932,274.395,153.932,274.095,153.739,274.093L153.739,274.093z"/>
									</g>
								</g>
								<g>
									<g>
										<path fill="#FFFFFF" d="M152.348,272.998c-0.956-0.221-1.922-0.243-2.897-0.244c-0.193,0-0.193,0.3,0,0.3
											c0.949,0,1.888,0.018,2.817,0.233C152.457,273.331,152.537,273.042,152.348,272.998L152.348,272.998z"/>
									</g>
								</g>
								<g>
									<g>
										<path fill="#FFFFFF" d="M150.759,270.911c-1.271,0-2.54,0-3.81,0c-0.193,0-0.193,0.3,0,0.3c1.27,0,2.539,0,3.81,0
											C150.953,271.21,150.953,270.911,150.759,270.911L150.759,270.911z"/>
									</g>
								</g>
								<g>
									<g>
										<path fill="#FFFFFF" d="M146.99,271.162c-1.412-0.472-2.837-0.835-4.331-0.862c-0.193-0.003-0.193,0.296,0,0.3
											c1.469,0.027,2.864,0.389,4.251,0.851C147.094,271.513,147.172,271.223,146.99,271.162L146.99,271.162z"/>
									</g>
								</g>
								<g>
									<g>
										<path fill="#FFFFFF" d="M143.177,269.33c-1.272-0.363-2.614-0.366-3.805,0.255c-0.171,0.089-0.021,0.348,0.15,0.259
											c1.121-0.585,2.381-0.566,3.574-0.225C143.284,269.672,143.363,269.383,143.177,269.33L143.177,269.33z"/>
									</g>
								</g>
								<g>
									<g>
										<path fill="#FFFFFF" d="M147.782,273.977c-1.252-0.007-2.551-0.122-3.73,0.375c-0.175,0.074-0.098,0.364,0.08,0.289
											c1.156-0.485,2.425-0.371,3.65-0.364C147.975,274.278,147.975,273.978,147.782,273.977L147.782,273.977z"/>
									</g>
								</g>
								<g>
									<g>
										<path fill="#FFFFFF" d="M140.535,276.141c-1.285,0.473-2.672,0.248-4.008,0.233c-0.192-0.002-0.192,0.298,0,0.3
											c1.364,0.016,2.775,0.239,4.088-0.244C140.794,276.363,140.717,276.074,140.535,276.141L140.535,276.141z"/>
									</g>
								</g>
								<g>
									<g>
										<path fill="#FFFFFF" d="M154.095,271.768c-1.333,0-2.657,0.023-3.974,0.253c-0.19,0.033-0.109,0.322,0.08,0.289
											c1.29-0.226,2.587-0.242,3.894-0.243C154.289,272.068,154.289,271.768,154.095,271.768L154.095,271.768z"/>
									</g>
								</g>
								<g>
									<g>
										<path fill="#FFFFFF" d="M133.504,275.194c-0.527,0.159-1.063,0.171-1.608,0.171c-0.192,0-0.192,0.3,0,0.3
											c0.572,0,1.138-0.016,1.688-0.182C133.769,275.428,133.69,275.138,133.504,275.194L133.504,275.194z"/>
									</g>
								</g>
								<g>
									<g>
										<path fill="#FFFFFF" d="M134.064,276.616c-0.663-0.08-1.326-0.091-1.993-0.091c-0.192,0-0.192,0.3,0,0.3
											c0.667,0,1.33,0.011,1.993,0.091C134.256,276.939,134.253,276.639,134.064,276.616L134.064,276.616z"/>
									</g>
								</g>
								<g>
									<g>
										<path fill="#FFFFFF" d="M133.843,277.336c-1.127-0.176-2.254-0.356-3.381-0.537c-0.189-0.031-0.271,0.258-0.08,0.289
											c1.127,0.182,2.253,0.361,3.381,0.537C133.953,277.655,134.034,277.366,133.843,277.336L133.843,277.336z"/>
									</g>
								</g>
								<g>
									<g>
										<path fill="#FFFFFF" d="M127.389,273.972c1.052-0.043,1.981,0.67,2.871,1.142c0.171,0.091,0.322-0.168,0.151-0.259
											c-0.938-0.498-1.91-1.229-3.022-1.183C127.196,273.68,127.196,273.98,127.389,273.972L127.389,273.972z"/>
									</g>
								</g>
								<g>
									<g>
										<path fill="#FFFFFF" d="M132.852,278.489c-0.782-0.007-1.562-0.082-2.344-0.089c-0.193-0.002-0.193,0.298,0,0.3
											c0.782,0.007,1.562,0.082,2.344,0.089C133.045,278.791,133.045,278.49,132.852,278.489L132.852,278.489z"/>
									</g>
								</g>
								<g>
									<g>
										<path fill="#FFFFFF" d="M131.656,279.158c-0.665-0.634-1.563-0.752-2.448-0.758c-0.193-0.001-0.193,0.298,0,0.3
											c0.801,0.005,1.63,0.093,2.236,0.67C131.584,279.503,131.797,279.291,131.656,279.158L131.656,279.158z"/>
									</g>
								</g>
								<g>
									<g>
										<path fill="#FFFFFF" d="M130.076,280.184c-1.041,0.009-3.114,0.399-3.773-0.641c-0.103-0.163-0.363-0.013-0.259,0.151
											c0.755,1.191,2.859,0.8,4.032,0.789C130.269,280.482,130.269,280.182,130.076,280.184L130.076,280.184z"/>
									</g>
								</g>
								<g>
									<g>
										<path fill="#FFFFFF" d="M126.869,275.008c-1.08,0.019-2.137,0.255-3.209,0.357c-0.191,0.018-0.192,0.318,0,0.3
											c1.071-0.102,2.129-0.338,3.209-0.357C127.062,275.305,127.062,275.005,126.869,275.008L126.869,275.008z"/>
									</g>
								</g>
								<g>
									<g>
										<path fill="#FFFFFF" d="M122.3,270.797c-1.549-0.276-2.75-1.228-3.271-2.728c-0.063-0.182-0.353-0.104-0.288,0.08
											c0.554,1.594,1.823,2.642,3.479,2.937C122.41,271.12,122.49,270.831,122.3,270.797L122.3,270.797z"/>
									</g>
								</g>
								<g>
									<g>
										<path fill="#FFFFFF" d="M122.865,267.367c-0.845-0.791-2.022-0.577-3.067-0.816c-0.188-0.043-0.27,0.246-0.08,0.289
											c0.974,0.223,2.153,0.006,2.936,0.739C122.794,267.711,123.007,267.499,122.865,267.367L122.865,267.367z"/>
									</g>
								</g>
								<g>
									<g>
										<path fill="#FFFFFF" d="M114.8,270.403c-1.396-0.135-2.934-0.202-4.132-1.011c-0.161-0.109-0.312,0.151-0.151,0.259
											c1.243,0.838,2.836,0.912,4.284,1.052C114.993,270.721,114.991,270.421,114.8,270.403L114.8,270.403z"/>
									</g>
								</g>
								<g>
									<g>
										<path fill="#FFFFFF" d="M113.899,268.983c-1.157-0.123-2.313-0.255-3.418-0.638c-0.184-0.063-0.262,0.226-0.08,0.289
											c1.132,0.392,2.314,0.524,3.498,0.649C114.091,269.303,114.089,269.003,113.899,268.983L113.899,268.983z"/>
									</g>
								</g>
								<g>
									<g>
										<path fill="#FFFFFF" d="M112.507,265.773c-1.646,0.278-3.224,0.79-4.813,1.287c-0.184,0.058-0.104,0.347,0.08,0.289
											c1.589-0.497,3.167-1.009,4.813-1.287C112.778,266.03,112.697,265.741,112.507,265.773L112.507,265.773z"/>
									</g>
								</g>
								<g>
									<g>
										<path fill="#FFFFFF" d="M108.683,264.269c-0.506,0.542-1.168,0.848-1.889,0.993c-0.189,0.038-0.109,0.327,0.08,0.289
											c0.767-0.153,1.481-0.494,2.021-1.07C109.026,264.34,108.815,264.127,108.683,264.269L108.683,264.269z"/>
									</g>
								</g>
								<g>
									<g>
										<path fill="#FFFFFF" d="M111.399,256.816c-0.373,0.349-0.827,0.482-1.311,0.604c-0.188,0.047-0.108,0.336,0.08,0.289
											c0.539-0.136,1.029-0.295,1.442-0.681C111.753,256.896,111.541,256.684,111.399,256.816L111.399,256.816z"/>
									</g>
								</g>
								<g>
									<g>
										<path fill="#FFFFFF" d="M108.979,251.137c-0.011,0.666-0.16,1.267-0.48,1.852c-0.094,0.169,0.166,0.321,0.259,0.151
											c0.347-0.629,0.51-1.286,0.521-2.003C109.283,250.943,108.983,250.943,108.979,251.137L108.979,251.137z"/>
									</g>
								</g>
								<g>
									<g>
										<path fill="#FFFFFF" d="M108.979,241.103c0.187,1.447-1.282,2.025-2.477,2.167c-0.189,0.022-0.192,0.323,0,0.3
											c1.346-0.16,2.984-0.843,2.776-2.467C109.255,240.914,108.955,240.911,108.979,241.103L108.979,241.103z"/>
									</g>
								</g>
							</g>
						</g>
						<g>
							<g>
								<path fill="#FFFFFF" d="M230.741,271.327c0.926-0.372,1.884-0.646,2.844-0.914c0.186-0.052,0.105-0.341-0.08-0.289
									c-0.96,0.269-1.918,0.542-2.844,0.914C230.484,271.109,230.562,271.399,230.741,271.327L230.741,271.327z"/>
							</g>
						</g>
						<g>
							<g>
								<path fill="#FFFFFF" d="M230.801,269.482c0.378,0.286,0.777,0.542,1.156,0.826c0.154,0.116,0.305-0.145,0.151-0.259
									c-0.38-0.284-0.778-0.54-1.155-0.826C230.799,269.106,230.649,269.367,230.801,269.482L230.801,269.482z"/>
							</g>
						</g>
						<g>
							<g>
								<path fill="#FFFFFF" d="M223.726,271.786c0.635,0.086,1.269,0.099,1.907,0.099c0.193,0,0.193-0.3,0-0.3
									c-0.611,0-1.221-0.006-1.827-0.088C223.616,271.471,223.535,271.76,223.726,271.786L223.726,271.786z"/>
							</g>
						</g>
						<g>
							<g>
								<path fill="#FFFFFF" d="M228.083,275.808c0.999,0.276,2.003,0.535,3.021,0.729c0.189,0.036,0.271-0.253,0.08-0.289
									c-1.02-0.193-2.021-0.452-3.021-0.729C227.977,275.467,227.896,275.756,228.083,275.808L228.083,275.808z"/>
							</g>
						</g>
						<g>
							<g>
								<path fill="#FFFFFF" d="M226.927,277.819c0.927,0.17,1.859,0.104,2.796,0.097c0.193-0.001,0.193-0.301,0-0.3
									c-0.907,0.006-1.817,0.079-2.716-0.086C226.817,277.496,226.737,277.785,226.927,277.819L226.927,277.819z"/>
							</g>
						</g>
						<g>
							<g>
								<path fill="#FFFFFF" d="M237.9,275.079c0.504,0,1.009,0,1.513,0c0.192,0,0.192-0.3,0-0.3c-0.504,0-1.009,0-1.513,0
									C237.707,274.779,237.707,275.079,237.9,275.079L237.9,275.079z"/>
							</g>
						</g>
						<g>
							<g>
								<path fill="#FFFFFF" d="M243.412,279.743c0.814-0.02,1.596-0.258,2.399-0.365c0.188-0.025,0.191-0.325,0-0.3
									c-0.804,0.107-1.587,0.345-2.399,0.365C243.219,279.448,243.219,279.748,243.412,279.743L243.412,279.743z"/>
							</g>
						</g>
						<g>
							<g>
								<path fill="#FFFFFF" d="M249.635,277.184c0.794-0.007,1.576-0.108,2.351-0.281c0.188-0.042,0.108-0.331-0.08-0.289
									c-0.747,0.167-1.503,0.263-2.271,0.27C249.441,276.886,249.441,277.186,249.635,277.184L249.635,277.184z"/>
							</g>
						</g>
						<g>
							<g>
								<path fill="#FFFFFF" d="M250.741,276.356c0.69-0.164,1.388-0.178,2.095-0.178c0.192,0,0.192-0.3,0-0.3
									c-0.733,0-1.458,0.019-2.175,0.189C250.473,276.112,250.553,276.401,250.741,276.356L250.741,276.356z"/>
							</g>
						</g>
						<g>
							<g>
								<path fill="#FFFFFF" d="M254.741,274.985c1.029-0.347,2.068-0.614,3.162-0.633c0.193-0.003,0.193-0.303,0-0.3
									c-1.118,0.02-2.187,0.288-3.242,0.644C254.479,274.758,254.558,275.047,254.741,274.985L254.741,274.985z"/>
							</g>
						</g>
						<g>
							<g>
								<path fill="#FFFFFF" d="M254.08,277.094c0.911-0.005,1.853-0.088,2.714,0.268c0.179,0.074,0.256-0.216,0.08-0.289
									c-0.887-0.367-1.857-0.284-2.794-0.279C253.887,276.795,253.887,277.095,254.08,277.094L254.08,277.094z"/>
							</g>
						</g>
						<g>
							<g>
								<path fill="#FFFFFF" d="M254.218,278.003c0.983,0.361,2.041,0.196,3.063,0.185c0.193-0.002,0.193-0.302,0-0.3
									c-0.994,0.011-2.025,0.177-2.982-0.174C254.115,277.647,254.038,277.937,254.218,278.003L254.218,278.003z"/>
							</g>
						</g>
						<g>
							<g>
								<path fill="#FFFFFF" d="M273.685,276.536c0.565,0.176,1.143,0.192,1.729,0.193c0.192,0,0.192-0.3,0-0.3
									c-0.561,0-1.11-0.014-1.649-0.182C273.579,276.189,273.501,276.479,273.685,276.536L273.685,276.536z"/>
							</g>
						</g>
						<g>
							<g>
								<path fill="#FFFFFF" d="M273.191,278.008c0.682-0.081,1.36-0.091,2.045-0.092c0.193,0,0.193-0.3,0-0.3
									c-0.685,0-1.363,0.011-2.045,0.092C273.002,277.731,273,278.031,273.191,278.008L273.191,278.008z"/>
							</g>
						</g>
						<g>
							<g>
								<path fill="#FFFFFF" d="M273.499,278.733c1.154-0.184,2.312-0.366,3.467-0.551c0.189-0.03,0.109-0.319-0.08-0.289
									c-1.155,0.185-2.312,0.367-3.467,0.551C273.229,278.475,273.31,278.764,273.499,278.733L273.499,278.733z"/>
							</g>
						</g>
						<g>
							<g>
								<path fill="#FFFFFF" d="M280.037,274.691c-1.142-0.049-2.137,0.7-3.101,1.208c-0.171,0.09-0.02,0.349,0.152,0.259
									c0.914-0.482,1.866-1.213,2.947-1.167C280.23,274.999,280.229,274.699,280.037,274.691L280.037,274.691z"/>
							</g>
						</g>
						<g>
							<g>
								<path fill="#FFFFFF" d="M274.436,279.93c0.801-0.007,1.601-0.087,2.4-0.094c0.192-0.001,0.192-0.302,0-0.3
									c-0.801,0.007-1.601,0.087-2.4,0.094C274.242,279.632,274.242,279.932,274.436,279.93L274.436,279.93z"/>
							</g>
						</g>
						<g>
							<g>
								<path fill="#FFFFFF" d="M277.281,281.665c1.198,0.011,3.357,0.415,4.131-0.806c0.104-0.164-0.156-0.314-0.261-0.151
									c-0.676,1.069-2.802,0.667-3.87,0.657C277.088,281.363,277.088,281.663,277.281,281.665L277.281,281.665z"/>
							</g>
						</g>
						<g>
							<g>
								<path fill="#FFFFFF" d="M281.326,291.189c1.105,0.02,2.189,0.259,3.288,0.367c0.192,0.019,0.19-0.281,0-0.3
									c-1.1-0.108-2.182-0.348-3.288-0.367C281.133,290.886,281.133,291.186,281.326,291.189L281.326,291.189z"/>
							</g>
						</g>
						<g>
							<g>
								<path fill="#FFFFFF" d="M289.612,288.311c0.553-0.507,1.383-0.359,2.066-0.514c0.188-0.042,0.108-0.332-0.08-0.289
									c-0.758,0.171-1.584,0.026-2.199,0.591C289.257,288.23,289.47,288.442,289.612,288.311L289.612,288.311z"/>
							</g>
						</g>
						<g>
							<g>
								<path fill="#FFFFFF" d="M291.816,285.888c0.903-0.104,1.862-0.186,2.598-0.776c0.149-0.121-0.063-0.332-0.213-0.212
									c-0.661,0.532-1.573,0.595-2.385,0.688C291.627,285.61,291.624,285.911,291.816,285.888L291.816,285.888z"/>
							</g>
						</g>
						<g>
							<g>
								<path fill="#FFFFFF" d="M294.971,289.726c0.711-0.092,1.418-0.188,2.085-0.462c0.176-0.072,0.099-0.363-0.08-0.289
									c-0.643,0.265-1.318,0.363-2.005,0.452C294.781,289.451,294.779,289.751,294.971,289.726L294.971,289.726z"/>
							</g>
						</g>
						<g>
							<g>
								<path fill="#FFFFFF" d="M293.11,282.588c0.982,0.197,1.908,0.566,2.845,0.916c0.182,0.068,0.26-0.222,0.08-0.289
									c-0.937-0.35-1.861-0.719-2.845-0.916C293.001,282.261,292.921,282.55,293.11,282.588L293.11,282.588z"/>
							</g>
						</g>
						<g>
							<g>
								<path fill="#FFFFFF" d="M244.017,270.603c0.31,0.272,0.651,0.392,1.045,0.496c0.188,0.049,0.268-0.24,0.08-0.289
									c-0.337-0.089-0.644-0.181-0.912-0.418C244.085,270.263,243.872,270.475,244.017,270.603L244.017,270.603z"/>
							</g>
						</g>
						<g>
							<g>
								<path fill="#FFFFFF" d="M297.408,292.641c0.014,0.521,0.132,0.987,0.377,1.447c0.093,0.17,0.352,0.019,0.261-0.151
									c-0.226-0.419-0.325-0.821-0.337-1.295C297.703,292.448,297.403,292.447,297.408,292.641L297.408,292.641z"/>
							</g>
						</g>
						<path fill="#EC7267" d="M268.656,258.397c0,0,0.005-0.232,0.22-0.232c0.221,0,0.858,0,0.858,0s0.265-0.102,0.265,0.232
							c0,0.328-0.146,0.717-0.146,0.717s-0.031,0.271-0.293,0.271c-0.264,0-0.699,0-0.699,0s-0.35,0.063-0.35-0.239
							S268.656,258.397,268.656,258.397z"/>
						<path fill="#E77F79" d="M195.374,163.715l5.739,151.096l7.93-0.822l-5.126-150.757
							C203.917,163.23,195.311,162.031,195.374,163.715z"/>
					</g>
					<g>
						<g>
							<g>
								<path fill="#FFFFFF" d="M284.488,229.089c0.693,0.006,1.388,0.072,2.047-0.185c0.178-0.069,0.101-0.359-0.08-0.289
									c-0.635,0.247-1.301,0.18-1.967,0.174C284.295,228.788,284.295,229.088,284.488,229.089L284.488,229.089z"/>
							</g>
						</g>
						<path fill="#E9C0C0" d="M321.402,224.287c0,0,7.229,8.457,7.229,17.189c0,0,2.055,25.646,4.797,31.191
							c2.504,5.064,11.256,41.778,20.514,55.289l6.721,16.733l-4.243,13.142l-15.388-2.953c0,0-5.129-4.729-6.188-5.457
							c-1.062-0.729-4.599-4.002-5.658-4.364c-1.063-0.365-6.014-3.64-6.014-3.64l-0.355-4.729l1.31-8.244l-1.14-7.084
							c0,0-2.291-30.507-4.766-35.235c-2.478-4.727-6.015-12.365-6.015-12.365s-2.475-9.459-2.475-16.732
							c0,0,1.768-5.459-6.367-6.184c0,0-20.159-4.049-19.895-7.457c0.264-3.412,6.764-1.641,6.764-1.641s15.65,3.277,16.313,2.596
							c0.664-0.684,0.664-1.502-1.324-1.912c-1.99-0.408-17.242-6-17.242-6s-9.418-2.32-8.356-6.549
							c1.061-4.229,11.539,0.955,11.539,0.955s14.061,3.41,14.723,4.363c0,0,2.521,1.457,3.008,0.5
							c0.486-0.955-2.211-2.955-2.211-2.955l-19.231-14.096c0,0-3.894-2.729-1.945-5.635c1.945-2.912,4.772-0.365,8.311,1.088
							c3.537,1.455,15.033,9.459,15.033,9.459s2.475,2.545,3.006,1.637c0.531-0.91-1.945-4.184-1.945-4.184
							s-9.549-17.277-4.774-20.736c0,0,1.881-1.703,3.539,2.73C310.659,208.336,321.402,224.287,321.402,224.287z"/>
						<path fill="#333334" d="M304.329,201.213c0,0,1.752,6.023,4.604,4.727c0,0,0.879-0.186,0.17-1.893
							c-0.709-1.711-1.922-5.041-3.732-3.926C305.37,200.121,304.598,200.592,304.329,201.213z"/>
						<path fill="#333334" d="M291.027,215.762c0,0,1.791-1.334,0-2.986c0,0-2.668-1.928-4.616-0.697c0,0-1.552,1.092,0.307,2.115
							C288.574,215.219,289.9,215.898,291.027,215.762z"/>
						<path fill="#333334" d="M284.891,228.545c0,0,1.43,1.949-1.024,2.357c-2.453,0.41-4.328-0.611-4.328-0.611
							s-0.039-1.703,2.344-2.047C284.264,227.902,284.891,228.545,284.891,228.545z"/>
						<path fill="#333334" d="M288.506,241.41c0,0,1.527,1.84-1.258,2.111c-2.785,0.273-3.779-0.135-3.779-0.135
							S282.67,241.213,288.506,241.41z"/>
					</g>
					<g>
						<path fill="#E9C0C0" d="M51.885,334.506c0,0,19.098-42.559,21.928-53.473c0,0,4.955-11.389,3.539-18.484
							c0,0-2.586-2.113-1.459-5.66c0.435-1.369-0.807-2.188-0.807-2.188s-2.976-0.949-1.117-4.904c0,0,0.404-0.127-0.928-0.615
							c-2.058-0.748-1.326-3.438-1.142-4.639c0,0,0.351-1.584-1.512-3.408c0,0-3.051-3.887,1.127-7.934
							c4.404-4.266,6.896-8.365,9.195-10.551c2.299-2.182,5.162-2.939,10.61-6c12.025-6.754,13.796-5.455,13.796-5.455
							s7.071,1.998-1.771,7.82l-9.195,4.727c0,0-2.651,1.641,1.769,0.729c4.422-0.91,11.875-3.271,11.875-3.271
							s8.242-2.775,9.258-0.047c1.018,2.727-0.088,5.137-7.426,7.229c0,0-13.441,3.408-17.021,6.275
							c-3.582,2.865-0.266,3.545,0.529,3.271c0.797-0.27,13.205-1.924,15.387-2.182c2.32-0.273,8.344-2.195,9.482-2.252
							c1.393-0.066,3.051,0,2.586,2.662c-0.586,3.355-7.957,5.047-7.957,5.047l-7.428,1.775c0,0-1.857,1.225,1.459,1.225
							c3.315,0,5.836-1.09,5.703,1.639c-0.134,2.729-6.634,3.682-6.634,3.682l-6.1,0.818c0,0-6.5,2.32-5.703,5.184
							c0.795,2.867,3.846,8.732,3.846,8.732s2.254,1.227-1.192,8.592c-3.449,7.367-15.808,54.527-13.209,64.98
							c0,0-0.853,14.137-0.853,14.547c0,0.408-10.61,13.916-11.539,14.051c-0.928,0.137-6.764-0.272-7.561,0
							c-0.795,0.271-8.09-0.818-8.355-2.184c-0.265-1.366-5.172-3.82-5.569-4.229c-0.398-0.41-2.123-5.187-2.785-5.865
							c-0.664-0.682,1.061-10.502,1.061-10.502l1.062-3.822l0.93-1.908L51.885,334.506z"/>
						<path fill="#333334" d="M100.647,212.078c0,0,1.572,2.934,2.834,2.594c1.261-0.344,3.898-1.217,3.773-2.178
							c-0.127-0.961-1.527-1.771-3.301-1.359C102.179,211.547,100.647,212.078,100.647,212.078z"/>
						<path fill="#333334" d="M110.303,220.5c0,0-0.123,3.105,1.268,3.787c1.396,0.682,4.238,0.479,5.802-1.498
							c0,0,0.407-3.213-2.949-2.836C111.066,220.33,110.303,220.5,110.303,220.5z"/>
						<path fill="#333334" d="M113.844,234.502c0,0-0.018,2.541,1.508,2.404c1.526-0.137,4.937-0.512,5.188-2.404
							c0,0-0.32-1.648-3.349-0.867C114.163,234.416,113.844,234.502,113.844,234.502z"/>
						<path fill="#333334" d="M107.067,244.195c0,0-0.469,2.326,1.785,2.123c2.256-0.203,3.244,0.209,3.515-0.816
							c0.268-1.023-1.06-1.721-2.386-1.307C109.981,244.195,107.93,244.203,107.067,244.195z"/>
					</g>
					<g>
						<path fill="#FFFFFF" d="M134.467,448.727c18.538,15.138,42.827-1.51,42.827-1.51c14.447-12.547,31.125-5.819,31.125-5.819
							c15.209,7.643,40.084,2.969,47.514,0.422c2.633-0.902,5.533-1.564,8.355-1.67c19.979-2.964,22.354,6.188,22.354,6.188
							c2.379,10.742,9.045,3.04,4.203-16.208c-4.84-19.242-18.998-40.229-14.117-49.645c0,0,0,0,0.002,0
							c2.808-2.935,4.078-3.125,6.207-3.556c0,0,6.277-0.588,9.107,4.14c2.83,4.729,27.588,10.567,27.588,10.567
							s7.78,1.8,10.965,6.166c3.184,4.363,19.807,2.183,24.053-2.184c4.244-4.365,14.5-18.189,12.377-26.918
							c-0.992-4.091-1.289-12.566-2.557-20.761l-0.002-0.018l-0.002-0.002c-0.533-3.445-1.244-6.83-2.246-9.826v-0.002l-0.002-0.002
							c-0.896-2.676-2.023-5.035-3.48-6.832v-0.002l-0.006-0.006c-1.313-1.613-2.887-2.773-4.791-3.295c0,0,1.432,3.328,2.455,9.283
							c1.34,5.951,0.072,8.908,0.072,8.908c-3.586,5.457-3.586,5.457-5.711,6.909c-1.287,0.884-5.55,0.757-9.371-1.483
							c-1.556-1.031-3.07-2.234-4.511-3.517c-5.219-5.271-12.646-6.641-12.293-17.551l-0.528-4.549
							c-0.031-0.244-0.771-3.207-0.797-3.455c-0.056-0.509,0.125,0.264,0,0l-0.273-1.144l0,0c-1.143-2.451-4.904,4.594-6.182,6.236
							c-0.935,1.199-23.498,2.041-44.816-17.291l-43.35,2.527c-6.213,17.072-8.172,30.133-13.211,29.586
							c0,0-6.383,2.047-14.343-27.627c-0.656-0.143-1.199-0.396-1.537-0.805c-1.209-1.465-30.24-2.195-60.697-2.517
							c-6.93,6.69-19.406-5.065-33.201,24.49c0,0-3.184,6.184-11.317,8.002c-8.135,1.817-7.781,1.092-10.611-5.457
							c0,0-0.141-4.545-4.598,5.094c0,0-6.013,13.552-13.441,14.229c0,0-1.385,0.558-3.32,0.845
							c-1.801-0.761-3.268-1.886-4.104-3.069c-2.83-4.003-2.478-6.548-6.367-9.095c-0.859-0.563-1.324-1.474-1.549-2.53
							c0.063-1.55,0.215-3.234,0.487-5.109l1.062-4.365c-0.098-0.08-0.221-0.09-0.354-0.057c-0.875-0.056-3.186,0.356-4.598,5.877
							c-1.768,6.912-10.611,14.914-4.244,30.92s8.135,32.012,24.406,30.92c0,0,7.779-1.818,11.316-5.092
							c3.536-3.275,12.379-3.275,12.379-3.275s15.918-2.545,23.344-9.82c7.428-7.277,17.727,2.877,17.727,2.877
							s0.457,0.43,1.185,1.254c0,0,7.465,18.15,1.262,41.339C128.104,452.637,134.467,448.727,134.467,448.727z"/>
					</g>
					<path fill="#F6F0F0" d="M118.899,311.418c-1.049,2.672-1.373,6.357,0.074,11.404c4.229,14.729,18.787,7.908,15.068,25.098
						c-2.4,11.094,19.94,4.898,40.135-15.867c14.523-14.936,21.197,2.92,22.26-15.361c0.063-1.116,0.06-2.205,0.021-3.276
						c-11.058-1.117-50.355-1.707-77.154-1.992C119.167,311.42,119.032,311.42,118.899,311.418z"/>
					<path fill="#F6F0F0" d="M301.17,320.322c-4.578-4.049-6.949-7.941-8.125-11.242l-58.217,3.396
						c-1.031,11.043,5.938,13.35,8.123,15.428c3.157,3,4.756,11.729,4.756,11.729c8.057,14.197,27.393-2.944,27.393-2.944
						l1.053-0.818c4.093-5.455,18.246-2.729,18.246-2.729C306.24,333.963,311.531,329.482,301.17,320.322z"/>
				</g>
			</g>
		</g>
	</g>
</g>
</svg>
