<?xml version="1.0" encoding="utf-8"?>
<!-- Generator: Adobe Illustrator 16.0.0, SVG Export Plug-In . SVG Version: 6.00 Build 0)  -->
<!DOCTYPE svg PUBLIC "-//W3C//DTD SVG 1.1//EN" "http://www.w3.org/Graphics/SVG/1.1/DTD/svg11.dtd">
<svg version="1.1" id="Layer_1" xmlns="http://www.w3.org/2000/svg" xmlns:xlink="http://www.w3.org/1999/xlink" x="0px" y="0px"
	 width="414px" height="596px" viewBox="0 0 414 596" enable-background="new 0 0 414 596" xml:space="preserve">
<g>
	<g>
		<rect x="-0.082" y="0.057" fill="#FFFFFF" width="414.163" height="595.887"/>
		<g>
			<g>
				<defs>
					<rect id="SVGID_1_" x="36.444" y="43.754" width="341.111" height="508.492"/>
				</defs>
				<clipPath id="SVGID_2_">
					<use xlink:href="#SVGID_1_"  overflow="visible"/>
				</clipPath>
				<polygon clip-path="url(#SVGID_2_)" fill="#EADBCC" points="193.048,40.504 193.048,427.504 379.37,377.072 385.273,40.504 				
					"/>
			</g>
			<g>
				<defs>
					<rect id="SVGID_3_" x="36.444" y="43.754" width="341.111" height="508.492"/>
				</defs>
				<clipPath id="SVGID_4_">
					<use xlink:href="#SVGID_3_"  overflow="visible"/>
				</clipPath>
				<polygon clip-path="url(#SVGID_4_)" fill="#D0BAA7" points="203.495,40.504 203.495,431.73 6.937,374.754 0.824,40.504 				"/>
			</g>
			<g>
				<defs>
					<rect id="SVGID_5_" x="36.444" y="43.754" width="341.111" height="508.492"/>
				</defs>
				<clipPath id="SVGID_6_">
					<use xlink:href="#SVGID_5_"  overflow="visible"/>
				</clipPath>
				<polygon clip-path="url(#SVGID_6_)" fill="#C4A98E" points="33.713,377.953 33.713,460.283 33.713,478.059 91.494,478.059 
					203.495,426.352 				"/>
			</g>
			<g>
				<defs>
					<rect id="SVGID_7_" x="36.444" y="43.754" width="341.111" height="508.492"/>
				</defs>
				<clipPath id="SVGID_8_">
					<use xlink:href="#SVGID_7_"  overflow="visible"/>
				</clipPath>
				<path clip-path="url(#SVGID_8_)" fill="#BFA17D" d="M183.143,450.223L36.444,505.504l119.722,56.094l87.681-4.879l85.088-43.965
					C328.934,512.754,199.452,444.078,183.143,450.223z"/>
			</g>
			<g>
				<defs>
					<rect id="SVGID_9_" x="36.444" y="43.754" width="341.111" height="508.492"/>
				</defs>
				<clipPath id="SVGID_10_">
					<use xlink:href="#SVGID_9_"  overflow="visible"/>
				</clipPath>
				<path clip-path="url(#SVGID_10_)" fill="#DFC8AE" d="M385.661,288.463l2.07-25.328c0,0-40.522-2.35-46.025-2.35
					c-5.5,0-4.795,4.797-4.795,4.797v18.758h-17.963c-0.002,0.002-0.004,0.004-0.006,0.006c-1.19-0.168-6.992-0.502-6.992,8.98
					c0,10.568,0,16.258,0,16.258h-13.61c0,0-12.412,0-12.412,12.602c0,12.601,0,23.98,0,23.98h-16.416c0,0-8.008-0.762-8.008,8.133
					c0,11.379,0,23.572,0,23.572H247.09c0,0-12.012-2.438-12.012,11.383c0,13.818,0,27.641,0,27.641l-27.624,6.468
					c0,0-4.406,0.85-4.406,4.143c0,8.535,0,32.476,0,32.476l172.965,70.727l16.242-241.838L385.661,288.463z"/>
			</g>
			<g>
				<defs>
					<rect id="SVGID_11_" x="36.444" y="43.754" width="341.111" height="508.492"/>
				</defs>
				<clipPath id="SVGID_12_">
					<use xlink:href="#SVGID_11_"  overflow="visible"/>
				</clipPath>
				<polygon clip-path="url(#SVGID_12_)" fill="#AF9373" points="230.777,559.563 389.715,572.863 381.907,485.18 				"/>
			</g>
			<g>
				<defs>
					<rect id="SVGID_13_" x="36.444" y="43.754" width="341.111" height="508.492"/>
				</defs>
				<clipPath id="SVGID_14_">
					<use xlink:href="#SVGID_13_"  overflow="visible"/>
				</clipPath>
				<polygon clip-path="url(#SVGID_14_)" fill="#B8A289" points="33.713,467.15 203.495,426.352 203.495,460.283 33.713,509.566 
									"/>
			</g>
			<g>
				<defs>
					<rect id="SVGID_15_" x="36.444" y="43.754" width="341.111" height="508.492"/>
				</defs>
				<clipPath id="SVGID_16_">
					<use xlink:href="#SVGID_15_"  overflow="visible"/>
				</clipPath>
				<polygon clip-path="url(#SVGID_16_)" fill="#AF9373" points="32.018,515.26 32.018,557.531 151.738,557.531 32.018,496.563 				
					"/>
			</g>
			<g>
				<defs>
					<rect id="SVGID_17_" x="36.444" y="43.754" width="341.111" height="508.492"/>
				</defs>
				<clipPath id="SVGID_18_">
					<use xlink:href="#SVGID_17_"  overflow="visible"/>
				</clipPath>
				<path clip-path="url(#SVGID_18_)" fill="#C9AA8A" d="M261.504,377.871c13.942,1.549,117.045,34.957,117.045,34.957
					s10.301,2.063-13.129,9.35l-124.937-39.879c0,0-1.528-0.352-1.6-1.783c-0.072-1.434,4.146-2.645,4.146-2.645H261.504
					L261.504,377.871z"/>
			</g>
			<g>
				<defs>
					<rect id="SVGID_19_" x="36.444" y="43.754" width="341.111" height="508.492"/>
				</defs>
				<clipPath id="SVGID_20_">
					<use xlink:href="#SVGID_19_"  overflow="visible"/>
				</clipPath>
				<path clip-path="url(#SVGID_20_)" fill="#C9AA8A" d="M285.992,340.459v5.688h-3.933c0,0,86.047,16.263,98.844,16.263
					l-1.067-6.492C379.836,355.916,306.409,346.148,285.992,340.459z"/>
			</g>
			<g>
				<defs>
					<rect id="SVGID_21_" x="36.444" y="43.754" width="341.111" height="508.492"/>
				</defs>
				<clipPath id="SVGID_22_">
					<use xlink:href="#SVGID_21_"  overflow="visible"/>
				</clipPath>
				<path clip-path="url(#SVGID_22_)" fill="#C9AA8A" d="M291.234,311.758c0,0,83.926,7.592,90.668,9.965l0.353-4.981l-68.886-8.091
					C313.368,308.65,294.436,306.92,291.234,311.758z"/>
			</g>
			<g>
				<defs>
					<rect id="SVGID_23_" x="36.444" y="43.754" width="341.111" height="508.492"/>
				</defs>
				<clipPath id="SVGID_24_">
					<use xlink:href="#SVGID_23_"  overflow="visible"/>
				</clipPath>
				<path clip-path="url(#SVGID_24_)" fill="#C9AA8A" d="M335.766,287.449c0,0,40.041,0.93,45.646,2.164v1.854l-62.463-7.127
					C318.948,284.34,311.139,286.684,335.766,287.449z"/>
			</g>
			<g>
				<defs>
					<rect id="SVGID_25_" x="36.444" y="43.754" width="341.111" height="508.492"/>
				</defs>
				<clipPath id="SVGID_26_">
					<use xlink:href="#SVGID_25_"  overflow="visible"/>
				</clipPath>
				<path clip-path="url(#SVGID_26_)" fill="#C9AA8A" d="M241.285,418.873l-6.207-1.928l-27.323,6.346c0,0-2.304,0.504-2.398,0.92
					l40.333,14.479c19.853,7.452,86.031,35.362,86.031,35.362l32.285-14.922C348.616,455.699,241.285,418.873,241.285,418.873z"/>
			</g>
			<g>
				<defs>
					<rect id="SVGID_27_" x="36.444" y="43.754" width="341.111" height="508.492"/>
				</defs>
				<clipPath id="SVGID_28_">
					<use xlink:href="#SVGID_27_"  overflow="visible"/>
				</clipPath>
				<path clip-path="url(#SVGID_28_)" fill="#AF9373" d="M377.823,415.268l-9.412,2.439c0,0-5.899,1.777-5.899,8.941
					c0,10.565,0,32.481,0,32.481l-27.822,10.195c0,0-7.588,1.606-7.588,10.977c0,10.738,0,31.703,0,31.703l54.807-24.387
					L377.823,415.268z"/>
			</g>
			<g>
				<defs>
					<rect id="SVGID_29_" x="36.444" y="43.754" width="341.111" height="508.492"/>
				</defs>
				<clipPath id="SVGID_30_">
					<use xlink:href="#SVGID_29_"  overflow="visible"/>
				</clipPath>
				<g clip-path="url(#SVGID_30_)">
					<path fill="#312412" d="M51.23,177.125v46.26c0,0-2.594,15.777-4.106,22.912c-1.513,7.133,0,25.508,0,25.508l-0.672,34.8
						l-3.65,30.148c0,0-1.729,7.059,5.404,7.059c7.133,0,8.746-1.102,8.048-6.834c-0.698-5.729-1.393-46.585-0.073-61.717
						c1.32-15.131,0-41.287,0-41.287l0.588-54.688C56.767,179.287,54.255,169.775,51.23,177.125z"/>
					<path fill="#EC7267" d="M36.726,405.885c0,0,22.533,1.729,25.29-2.324c2.756-4.053,15.239-56.903,13.618-59.336
						c-1.621-2.432-32.91-2.758-38.908,0.971V405.885z"/>
					<path fill="#EE827A" d="M36.726,350.869c37.125,0,38.908-6.645,38.908-6.645c0-9.83-38.908-7.136-38.908-7.136V350.869z"/>
					<path fill="#211B07" d="M58.795,181.492c0,0,29.397,0.172,30.479-2.639c0,0,0.864-2.809-3.891-1.729
						c-4.756,1.08-20.536,1.941-20.536,1.941s-7.134,0.221-0.647-3.238c6.485-3.459,24.427-13.186,23.777-17.293
						c-0.648-4.107-6.053,2.594-6.053,2.594s-18.374,13.836-19.023,13.619c-0.646-0.217-2.159-0.863,1.082-3.242
						c3.242-2.379,17.726-17.729,16.86-20.535c0,0,0.216-3.029-2.81,0c-3.026,3.025-18.158,21.184-18.158,21.184
						s-0.919,0.998-1.974-0.055c-1.055-1.055,0.324-2.514,0.324-2.514s17.139-26.506,14.648-27.805c0,0-0.706-1.295-2.084,1.299
						c-1.378,2.594-12.89,24.398-12.89,24.398s0,0.568-0.647,0.568c-0.648,0-0.324-2.189-0.324-2.189l-1.379-22.777
						c0,0,0.324-2.594-1.621-2.594s-0.811,4.539-0.811,4.539s1.459,16.537,0.323,16.859c-1.134,0.324-1.782-1.945-1.782-1.945
						s-8.916-26.588-12.646-26.264c0,0-2.433-1.783,0,4.217c2.432,5.998,11.348,24.967,10.051,26.426
						c-1.297,1.457-15.077-21.563-15.077-21.563v7.619L47.444,166.1c0,0,2.918,3.242,1.621,5.025s-15.077-10.701-15.077-10.701
						v3.244l13.133,9.402c0,0,1.621,0.324,0.973,2.27c-0.648,1.946-1.783,0.648-1.783,0.648l-12.321-4.539v3.08l12.483,3.891
						c0,0,2.838,0.963,5.674,2.107C54.1,181.316,58.795,181.492,58.795,181.492z"/>
					<path fill="#251C08" d="M56.252,237.758c0,0,11.46-1.621,15.999,4.863c6.68,9.541,10.375,13.943,10.375,13.943
						s4.863,3.891-1.944-13.455c0,0-3.343-10.863-19.019-9.08c0,0-1.896,0.811-1.896-0.973c0-1.784,1.896-1.945,1.896-1.945
						l17.071-10.051c0,0,2.027-1.055,0.974-2.107c-1.054-1.055-2.756,0-2.756,0l-13.294,7.295c0,0-2.918,1.459,0.486-3.08
						s10.861-17.186,10.861-17.186s1.055-0.891-0.162-2.107c-1.216-1.217-2.27,0.973-2.27,0.973l-10.053,14.43
						c0,0-4.862,6.484-6.81,3.402c-1.945-3.078-1.459-10.861-6.81-12.158c0,0-4.053-1.459,0,6.16
						c4.054,7.621-0.485,4.055-0.485,4.055l-14.43-9.08v7.621c0,0,18.645,7.943,13.78,8.916c-4.864,0.973-13.78-0.648-13.78-0.648
						v5.674c0,0,11.35-1.135,8.27,0.162c-3.08,1.297-8.27,3.566-8.27,3.566v3.08c0,0,10.198-4.637,15.71-2.043
						C49.701,237.984,52.649,238.732,56.252,237.758z"/>
					<path fill="#312412" d="M47.447,322.871l-12.481,4.703l-0.974-2.434c0,0,12.808-5.188,13.455-6.32
						c0.648-1.137-1.135-1.785-1.135-1.785H31.559v-2.432h12.483c0,0,1.135-0.162,1.135-1.621s-1.297-1.783-1.297-1.783
						l-9.891-2.756v-2.594c12.321,4.862,10.7-1.459,10.7-1.459l-2.106-7.298c0,0-1.783-5.836,0-7.943s2.918,0,2.918,0
						s0.485,9.566,2.594,13.618c2.107,4.055,5.99,1.623,5.99,1.623l10.385-5.351c0,0,5.998-3.404,6.971-1.623
						c0.974,1.785-5.564,4.541-5.564,4.541c-13.022,5.351-11.62,16.211-11.782,18.76c-0.162,2.55,2.086,1.666,2.086,1.666
						l14.289-6.483c0,0,2.432-1.945,3.566-0.812c1.134,1.134-0.162,2.271-0.162,2.271s-4.539,2.27-7.295,3.891
						c-2.758,1.621-2.271,1.783-2.271,2.596c0,0.811,9.402-0.65,9.402-0.65s3.403-1.297,3.891,0c0.486,1.3-1.967,2.433-1.967,2.433
						c-2.453,1.785-18.298,0.812-18.298,0.812s-4.864,0.487-6.485-1.136C49.23,323.684,49.242,322.195,47.447,322.871z"/>
				</g>
			</g>
		</g>
		<g>
			<g>
				<g>
					<path fill="#FFFFFF" d="M290.961,123.095c-4.404-4.821-12.969-6.407-17.787-1.359c-0.936,0.979,0.548,2.466,1.484,1.485
						c4.051-4.243,11.182-2.622,14.817,1.359C290.392,125.582,291.872,124.093,290.961,123.095L290.961,123.095z"/>
				</g>
			</g>
			<g>
				<g>
					<path fill="#FFFFFF" d="M300.975,124.198c1.795-3.684,7.185-7.319,11.13-4.717c1.135,0.748,2.187-1.071,1.062-1.813
						c-4.89-3.224-11.712,0.766-14.004,5.471C298.571,124.35,300.382,125.415,300.975,124.198L300.975,124.198z"/>
				</g>
			</g>
			<g>
				<g>
					<path fill="#FFFFFF" d="M295.675,129.554c-0.668-0.458-1.514-0.977-2.36-0.915c-0.901,0.067-1.472,0.722-1.52,1.606
						c-0.087,1.576,1.521,3.079,2.818,3.668c0.521,0.236,1.127,0.154,1.438-0.377c0.267-0.455,0.145-1.2-0.376-1.437
						c-0.557-0.252-0.836-0.449-1.229-0.86c-0.225-0.235-0.172-0.173-0.356-0.48c-0.061-0.098-0.11-0.201-0.158-0.304
						c0.115,0.247-0.007-0.051-0.022-0.109c-0.082-0.292-0.004,0.121-0.014-0.044c-0.016-0.281-0.045,0.159-0.005,0.009
						c-0.076,0.282-0.303,0.406-0.516,0.422c0.286-0.021-0.119-0.039,0.081,0.007c0.037,0.008,0.356,0.127,0.209,0.062
						c0.337,0.148,0.647,0.355,0.95,0.563c0.473,0.325,1.163,0.09,1.437-0.377C296.356,130.47,296.146,129.878,295.675,129.554
						L295.675,129.554z"/>
				</g>
			</g>
			<g>
				<g>
					<path fill="#FFFFFF" d="M294.095,131.141c0,0.17,0,0.34,0,0.51c0,1.354,2.1,1.354,2.1,0c0-0.17,0-0.34,0-0.51
						C296.194,129.787,294.095,129.787,294.095,131.141L294.095,131.141z"/>
				</g>
			</g>
			<g>
				<g>
					<path fill="#FFFFFF" d="M296.564,131.883c0.275-0.281,0.534-0.692,0.957-0.712c-0.338-0.443-0.675-0.886-1.013-1.329
						c-0.192,1.051-1.221,1.718-1.938,2.423c-0.967,0.951,0.52,2.435,1.484,1.485c0.991-0.975,2.213-1.898,2.479-3.35
						c0.116-0.637-0.281-1.364-1.013-1.329c-1.077,0.05-1.721,0.59-2.44,1.327C294.132,131.366,295.616,132.852,296.564,131.883
						L296.564,131.883z"/>
				</g>
			</g>
			<g>
				<g>
					<path fill="#FFFFFF" d="M293.893,134.26c0.798,0.953,1.982,1.052,2.945,0.291c0.745-0.589,1.218-1.516,1.59-2.371
						c0.229-0.524,0.16-1.122-0.376-1.437c-0.45-0.263-1.208-0.148-1.438,0.377c-0.221,0.505-0.46,1.049-0.8,1.487
						c-0.146,0.188-0.307,0.338-0.446,0.418c0.23-0.132,0.298,0.094,0.009-0.25c-0.367-0.439-1.106-0.377-1.484,0
						C293.461,133.206,293.525,133.822,293.893,134.26L293.893,134.26z"/>
				</g>
			</g>
			<g>
				<g>
					<path fill="#FFFFFF" d="M293.991,134.424c2.002,1.319,3.452-0.387,4.516-1.979c0.921-1.378,1.139-3.479-0.934-3.847
						c-1.323-0.235-1.891,1.789-0.559,2.025c0.203,0.036,0.312,0.117,0.168-0.073c-0.136-0.182-0.018-0.163-0.088,0.085
						c-0.091,0.316-0.309,0.61-0.489,0.881c-0.222,0.332-0.476,0.643-0.742,0.956c-0.355,0.417-0.385,0.42-0.813,0.138
						C293.917,131.863,292.866,133.683,293.991,134.424L293.991,134.424z"/>
				</g>
			</g>
			<g>
				<g>
					<path fill="#FFFFFF" d="M293.679,129.842c-0.286,0.795-0.128,1.505,0.382,2.157c0.354,0.452,1.116,0.367,1.484,0
						c0.798-0.795,0.924-2.296-0.051-3.006c-1.282-0.936-2.308,0.991-2.385,2.019c-0.092,1.213,1.243,2.131,2.218,1.202
						c0.734-0.702,0.786-2.077,0.271-2.923c-0.611-1.003-1.847-0.581-2.268,0.329c-0.353,0.761-0.558,1.68-0.399,2.514
						c0.201,1.072,1.37,1.499,2.321,1.154c0.895-0.325,1.616-1.025,2.274-1.688c-0.55-0.424-1.1-0.849-1.647-1.272
						c-0.333,0.445-0.663,0.891-0.963,1.359c-0.659,1.026,0.809,2.088,1.647,1.272c0.608-0.59,0.981-1.346,1.529-1.98
						c-0.55-0.424-1.1-0.849-1.648-1.272c-0.334,0.635-0.742,1.212-1.194,1.768c-0.849,1.041,0.629,2.536,1.483,1.485
						c0.564-0.693,1.107-1.4,1.523-2.193c0.532-1.015-0.837-2.211-1.648-1.272c-0.547,0.632-0.93,1.398-1.528,1.98
						c0.55,0.424,1.1,0.849,1.647,1.272c0.301-0.468,0.631-0.914,0.963-1.359c0.729-0.976-0.83-2.097-1.647-1.272
						c-0.354,0.355-0.708,0.712-1.122,0.996c-0.114,0.079-0.236,0.144-0.36,0.207c0.069-0.035-0.226,0.016-0.036,0.006
						c0.264-0.013,0.38,0.187,0.465,0.4c-0.025-0.108-0.027-0.092-0.006,0.048c-0.005-0.061-0.008-0.123-0.007-0.184
						c-0.004-0.295,0.006-0.222,0.057-0.463c0.021-0.107,0.052-0.213,0.081-0.319c0.014-0.045,0.167-0.423,0.066-0.205
						c0.031-0.068,0.181-0.26-0.01-0.03c-0.738,0.296-1.205,0.21-1.397-0.257c0.021,0.075,0.039,0.152,0.054,0.229
						c0.011,0.055-0.001,0.19-0.006,0.208c0.027-0.14,0.389-0.276,0.521-0.26c0.177,0.048,0.354,0.096,0.53,0.144
						c0.37,0.167,0.265,0.745,0.371,0.347c0.04-0.152,0.083-0.272,0.201-0.365c-0.153,0.09-0.309,0.18-0.464,0.27
						c-0.3-0.159-0.601-0.318-0.9-0.477c0.032,0.119,0.036,0.137,0.008,0.054c-0.004-0.09-0.078,0.103-0.026,0.051
						c0.495,0,0.989,0,1.484,0c0.138,0.176,0.079,0.109,0.159-0.113C296.163,129.123,294.134,128.578,293.679,129.842
						L293.679,129.842z"/>
				</g>
			</g>
			<g>
				<g>
					<path fill="#FFFFFF" d="M273.014,132.833c3.757,1.284,7.506,3.341,11.198,4.86c4.607,1.896,9.4,2.022,14.278,1.389
						c5.569-0.722,14.231-3.401,16.977-8.941c0.6-1.209-1.212-2.273-1.813-1.06c-3.24,6.54-14.23,8.155-20.549,8.31
						c-7.179,0.176-13.063-4.373-19.533-6.584C272.287,130.369,271.74,132.397,273.014,132.833L273.014,132.833z"/>
				</g>
			</g>
			<g>
				<g>
					<path fill="#FFFFFF" d="M282.47,136.635c-0.309,1.394-0.982,2.788-1.43,4.154c-0.533,1.629-1.078,3.264-1.57,4.905
						c-0.39,1.301,1.638,1.852,2.025,0.559c0.427-1.425,0.919-2.832,1.36-4.253c0.499-1.602,1.277-3.176,1.64-4.805
						C284.787,135.874,282.763,135.313,282.47,136.635L282.47,136.635z"/>
				</g>
			</g>
			<g>
				<g>
					<path fill="#FFFFFF" d="M288.489,138.385c-0.042,3.803-1.257,7.461-1.303,11.266c-0.017,1.355,2.083,1.353,2.101,0
						c0.046-3.801,1.261-7.46,1.303-11.266C290.604,137.03,288.504,137.031,288.489,138.385L288.489,138.385z"/>
				</g>
			</g>
			<g>
				<g>
					<path fill="#FFFFFF" d="M297.319,138.16c0.232,4.82,1.132,9.568,1.473,14.379c0.096,1.343,2.195,1.352,2.101,0
						c-0.34-4.811-1.24-9.559-1.473-14.379C299.354,136.812,297.254,136.806,297.319,138.16L297.319,138.16z"/>
				</g>
			</g>
			<g>
				<g>
					<path fill="#FFFFFF" d="M304.207,137.025c0.404,1.949,1.57,3.583,2.752,5.145c1.268,1.674,2.259,3.531,3.573,5.167
						c0.85,1.055,2.325-0.441,1.484-1.485c-1.201-1.493-2.071-3.221-3.245-4.741c-1.079-1.398-2.175-2.885-2.539-4.644
						C305.957,135.141,303.935,135.704,304.207,137.025L304.207,137.025z"/>
				</g>
			</g>
			<g>
				<g>
					<path fill="#FFFFFF" d="M309.407,135.405c1.074,1.512,2.42,2.763,3.674,4.119c0.922,0.996,2.402-0.493,1.484-1.485
						c-1.127-1.218-2.38-2.335-3.346-3.693C310.443,133.251,308.62,134.298,309.407,135.405L309.407,135.405z"/>
				</g>
			</g>
			<g>
				<g>
					<path fill="#FFFFFF" d="M300.251,170.539c0.193-4.1,6.632-6.804,8.116-2.061c1.713,5.467-5.021,12.289-9.074,14.951
						c-1.288,0.846-0.088,2.925,1.211,2.072c5.271-3.461,13.992-13.034,9.168-19.773c-3.782-5.282-11.568-0.534-11.821,4.812
						C297.777,172.087,300.178,172.08,300.251,170.539L300.251,170.539z"/>
				</g>
			</g>
			<g>
				<g>
					<path fill="#FFFFFF" d="M299.739,170.197c-0.061-6.376-9.14-10.96-11.991-3.682c-3.186,8.124,4.21,15.413,10.753,18.985
						c1.357,0.742,2.568-1.331,1.211-2.072c-3.546-1.936-6.581-4.465-8.788-7.876c-1.147-1.773-1.576-3.782-1.541-5.861
						c0.097-5.841,7.903-5.176,7.957,0.506C297.354,171.744,299.754,171.746,299.739,170.197L299.739,170.197z"/>
				</g>
			</g>
			<g>
				<g>
					<path fill="#FFFFFF" d="M316.2,126.735c3.222,0.124,6.55-1.348,9.434-2.681c2.235-1.034,1.864-3.717,1.722-5.702
						c-0.274-1.595,0.543-2.734,2.452-3.419c0.6,0.804,0.771,2.449,1.029,3.448c0.296,1.146,0.671,2.093,1.454,2.972
						c0.521,0.582,1.551,0.662,2.249,0.781c2.733,0.466,4.018,5.027,1.956,6.871c-0.362,0.325-0.56,0.538-0.784,0.953
						c-0.188,0.343-0.26,0.875,0,1.211c1.138,1.479,3.288,1.313,4.992,1.627c2.944,0.544-2.6,5.808-2.904,6.686
						c-0.14,0.397,0.021,0.879,0.309,1.167c0.637,0.641,1.431,0.869,2.272,1.156c5.632,1.919,1.382,6.912-0.975,8.8
						c-4.213,3.377-9.699,4.327-14.962,3.943c-6.971-0.508-4.708,6.217-3.711,10.838c2.382,11.041,3.879,22.387,5.633,33.554
						c0.962,6.129,2.608,12.12,4.112,18.131c1.381,5.513,2.066,11.23,4.313,16.48c0.607,1.419,2.675,0.195,2.072-1.211
						c-2.377-5.557-3.063-11.882-4.524-17.726c-1.507-6.016-2.979-11.986-3.941-18.118c-1.718-10.939-3.248-22.013-5.582-32.83
						c-0.292-1.354-2.104-6.621,0.561-6.753c1.732-0.086,3.385,0.25,5.125,0.088c4.079-0.381,8.02-1.407,11.401-3.769
						c3.805-2.656,10.025-9.508,3.269-12.963c-0.397-0.172-0.802-0.329-1.21-0.47c-1.092-0.412-2.116,0.542-1.084-0.558
						c0.887-0.942,2.094-1.822,2.75-2.954c0.808-1.389,1.129-3.923-0.466-4.966c-1.212-0.793-2.456-0.977-3.885-1.17
						c-2.333-0.316-0.849,1.014,0.243-0.833c1.271-2.15,1.342-4.939-0.292-6.985c-0.949-1.188-1.805-1.714-3.199-2.293
						c-2.087-0.867-2.771-1.806-3.328-4.105c-0.563-2.323-1.637-3.938-4.101-4c-2.136-0.053-3.429,2.511-3.57,4.285
						c-0.109,1.37,0.664,4.845-0.605,5.761c-1.898,1.368-5.933,2.441-8.223,2.353C314.653,124.275,314.657,126.676,316.2,126.735
						L316.2,126.735z"/>
				</g>
			</g>
			<g>
				<g>
					<path fill="#FFFFFF" d="M333.335,128.52c2.9,5.114,4.918,10.764,4.252,16.713c-0.173,1.537,2.229,1.52,2.399,0
						c0.709-6.339-1.49-12.477-4.58-17.924C334.644,125.963,332.57,127.172,333.335,128.52L333.335,128.52z"/>
				</g>
			</g>
			<g>
				<g>
					<path fill="#FFFFFF" d="M309.577,197.042c6.988-0.032,13.632-1.954,20.305-3.848c6.712-1.905,13.18-3.918,19.529-6.846
						c1.404-0.647,0.186-2.715-1.211-2.072c-6.175,2.847-12.431,4.782-18.957,6.604c-6.481,1.809-12.874,3.731-19.666,3.762
						C308.031,194.649,308.03,197.049,309.577,197.042L309.577,197.042z"/>
				</g>
			</g>
			<g>
				<g>
					<path fill="#FFFFFF" d="M310.604,94.059c2.427,8.514,3.27,16.849,3.359,25.705c0.014,1.354,2.112,1.355,2.1,0
						c-0.092-9.102-0.943-17.526-3.434-26.264C312.259,92.2,310.232,92.753,310.604,94.059L310.604,94.059z"/>
				</g>
			</g>
			<g>
				<g>
					<path fill="#FFFFFF" d="M312.287,92.822c-1.262-3.699-4.66-1.221-6.541,0.547c-3.892,3.659-6.792,8.438-11.006,11.724
						c-1.067,0.832,0.431,2.307,1.483,1.485c3.077-2.399,5.333-5.739,8.022-8.54c0.69-0.718,5.494-6.187,6.016-4.658
						C310.697,94.655,312.727,94.108,312.287,92.822L312.287,92.822z"/>
				</g>
			</g>
			<g>
				<g>
					<path fill="#FFFFFF" d="M265.367,86.966c-2.495,5.373-1.469,11.027-0.241,16.612c0.819,3.736,1.702,7.458,2.512,11.197
						c0.755,3.483,0.59,6.928,1.699,10.359c0.415,1.283,2.442,0.734,2.024-0.559c-1.729-5.347-1.914-11.417-3.184-16.938
						c-1.434-6.237-3.852-13.467-0.999-19.613C267.746,86.806,265.937,85.739,265.367,86.966L265.367,86.966z"/>
				</g>
			</g>
			<g>
				<g>
					<path fill="#FFFFFF" d="M267.775,87.346c2.787-3.799,19.714,16.83,22.041,19.232c0.943,0.974,2.428-0.512,1.484-1.485
						c-3.313-3.421-19.923-26.188-25.338-18.807C265.16,87.38,266.983,88.426,267.775,87.346L267.775,87.346z"/>
				</g>
			</g>
			<g>
				<g>
					<path fill="#FFFFFF" d="M281.225,112.649c2.391-3.068,5.95-4.179,9.613-4.97c5.739-1.238,10.269,0.795,14.602,4.503
						c7.18,6.145,8.621,14.72,8.692,23.712c0.011,1.354,2.109,1.354,2.1,0c-0.087-11.033-2.597-20.091-11.602-27.065
						c-6.919-5.358-19.241-4.917-24.891,2.334C278.918,112.218,280.394,113.716,281.225,112.649L281.225,112.649z"/>
				</g>
			</g>
			<g>
				<g>
					<path fill="#FFFFFF" d="M280.137,110.697c-5.884,6.978-11.489,14.662-7.417,23.992c3.836,8.789,11.07,16.354,20.349,19.241
						c8.878,2.763,16.327-1.951,20.763-9.468c2.439-4.136,2.854-9.128,2.954-13.82c0.083-3.912,0.126-8.482-1.547-12.089
						c-0.567-1.228-2.379-0.16-1.813,1.06c2.771,5.978,1.719,16.835-0.792,22.586c-3.447,7.898-10.699,11.689-19.008,9.707
						c-7.297-1.742-13.035-7.939-16.936-13.993c-3.038-4.718-4.438-10.199-2.134-15.49c1.646-3.78,4.435-7.12,7.063-10.239
						C282.488,111.154,281.011,109.66,280.137,110.697L280.137,110.697z"/>
				</g>
			</g>
			<g>
				<g>
					<path fill="#FFFFFF" d="M269.337,124.625c1.372,5.458,2.437,11.061,5.375,15.937c2.517,4.177,6.747,7.107,10.561,9.996
						c1.081,0.818,2.125-1.007,1.062-1.813c-4.15-3.143-7.938-6.14-10.663-10.66c-2.457-4.078-3.163-9.463-4.309-14.017
						C271.032,122.754,269.007,123.311,269.337,124.625L269.337,124.625z"/>
				</g>
			</g>
			<g>
				<g>
					<path fill="#FFFFFF" d="M256.084,129.622c5.161,0.477,10.35,0.683,15.476,1.486c1.515,0.237,2.164-2.075,0.64-2.314
						c-5.342-0.837-10.737-1.076-16.114-1.572C254.543,127.08,254.557,129.481,256.084,129.622L256.084,129.622z"/>
				</g>
			</g>
			<g>
				<g>
					<path fill="#FFFFFF" d="M253.027,171.276c3.285-0.056,6.527-0.098,9.783-0.569c5.206-0.752,7.813,2.276,8.94,6.992
						c1.373,5.741,0.455,12.437,0.651,18.313c0.178,5.258,0.5,10.581,1.375,15.773c0.258,1.524,2.569,0.875,2.314-0.638
						c-1.243-7.374-1.356-14.979-1.459-22.438c-0.073-5.266,0.456-10.8-2.005-15.641c-3.872-7.621-12.742-4.309-19.603-4.193
						C251.481,168.902,251.479,171.302,253.027,171.276L253.027,171.276z"/>
				</g>
			</g>
			<g>
				<g>
					<path fill="#FFFFFF" d="M273.396,210.447c0.456,6.351,1.79,12.631,3.523,18.749c0.421,1.487,2.736,0.854,2.313-0.638
						c-1.674-5.909-2.997-11.976-3.438-18.111C275.686,208.913,273.285,208.902,273.396,210.447L273.396,210.447z"/>
				</g>
			</g>
			<g>
				<g>
					<path fill="#FFFFFF" d="M284.104,228.108c-2.518-3.214-5.858-1.647-7.882,1.208c-2.601,3.673-0.966,9.774,1.586,13.024
						c2.072,2.64,5,4.133,8.358,3.307c3.663-0.901,5.538-4.831,6.057-8.219c0.231-1.513-2.081-2.164-2.313-0.638
						c-0.623,4.071-3.693,8.482-8.229,5.961c-2.268-1.26-3.348-4.021-4.001-6.367c-0.467-1.672-0.438-3.641,0.265-5.241
						c0.798-1.814,2.892-3.345,4.463-1.338C283.361,231.023,285.047,229.312,284.104,228.108L284.104,228.108z"/>
				</g>
			</g>
			<g>
				<g>
					<path fill="#FFFFFF" d="M296.321,201.445c0.079,8.428,2.953,16.367,4.391,24.599c1.641,9.406,3.951,18.64,5.671,28.028
						c0.277,1.521,2.592,0.875,2.313-0.638c-1.596-8.716-4.271-17.202-5.391-26.007c-1.113-8.764-4.501-17.076-4.584-25.982
						C298.706,199.898,296.307,199.897,296.321,201.445L296.321,201.445z"/>
				</g>
			</g>
			<g>
				<g>
					<path fill="#FFFFFF" d="M309.886,258.527c-0.535-2.738-1.331-5.415-1.867-8.152c-0.298-1.518-2.61-0.874-2.314,0.638
						c0.536,2.738,1.332,5.415,1.867,8.152C307.867,260.683,310.182,260.039,309.886,258.527L309.886,258.527z"/>
				</g>
			</g>
			<g>
				<g>
					<path fill="#FFFFFF" d="M282.778,205.161c1.924,9.592,4.376,19.058,6.793,28.533c2.427,9.509,3.307,19.315,6.283,28.697
						c0.467,1.47,2.784,0.841,2.314-0.638c-2.974-9.366-4.032-19.158-6.283-28.697c-2.247-9.523-4.868-18.932-6.793-28.533
						C284.789,203.006,282.476,203.65,282.778,205.161L282.778,205.161z"/>
				</g>
			</g>
			<g>
				<g>
					<path fill="#FFFFFF" d="M292.316,235.329c2.97-0.874,5.919-1.787,8.679-3.208c1.722-0.886,0.203-3.475-1.514-2.591
						c-2.527,1.302-5.244,2.106-7.962,2.906C289.668,232.981,290.456,235.876,292.316,235.329L292.316,235.329z"/>
				</g>
			</g>
			<g>
				<g>
					<path fill="#FFFFFF" d="M292.165,234.5c2.506-1.734,5.885-2.155,8.812-2.74c1.896-0.379,1.092-3.27-0.797-2.893
						c-3.187,0.637-6.8,1.153-9.528,3.042C289.072,233.003,290.57,235.604,292.165,234.5L292.165,234.5z"/>
				</g>
			</g>
			<g>
				<g>
					<path fill="#FFFFFF" d="M297.012,234.365c1.763-0.025,3.523-0.397,5.003-1.394c1.595-1.076,0.095-3.676-1.515-2.591
						c-1.062,0.716-2.222,0.967-3.488,0.985C295.079,231.393,295.076,234.393,297.012,234.365L297.012,234.365z"/>
				</g>
			</g>
			<g>
				<g>
					<path fill="#FFFFFF" d="M291.918,235.593c3.383,0.087,6.557-1.218,9.604-2.541c1.417-0.615,0.193-2.682-1.211-2.072
						c-2.655,1.152-5.453,2.289-8.395,2.213C290.369,233.153,290.373,235.553,291.918,235.593L291.918,235.593z"/>
				</g>
			</g>
			<g>
				<g>
					<path fill="#FFFFFF" d="M292.428,233.724c2.711-0.242,5.119-1.244,7.565-2.373c1.404-0.647,0.186-2.716-1.211-2.072
						c-2.038,0.94-4.094,1.843-6.354,2.045C290.899,231.46,290.886,233.861,292.428,233.724L292.428,233.724z"/>
				</g>
			</g>
			<g>
				<g>
					<path fill="#FFFFFF" d="M304.16,233.98c3.097-4.624,3.828-10.082,5.047-15.402c0.532-2.324,0.807-4.704,1.229-7.049
						c0.337-1.861,1.912-8.878,3.676-4.328c2.41,6.215,6.336,12.027,9.189,18.076c3.088,6.544,6.206,13.251,10.032,19.4
						c0.814,1.311,2.893,0.107,2.071-1.211c-4.849-7.793-8.514-16.358-12.517-24.601c-2.012-4.141-4.701-8.051-6.463-12.303
						c-0.58-1.401-1.065-3.516-2.763-3.982c-4.013-1.104-5.394,7.49-5.78,9.628c-1.235,6.831-1.856,14.676-5.796,20.56
						C301.225,234.06,303.305,235.259,304.16,233.98L304.16,233.98z"/>
				</g>
			</g>
			<g>
				<g>
					<path fill="#FFFFFF" d="M307.538,224.892c4.58-0.117,8.901-1.624,13.416-2.205c1.514-0.195,1.532-2.598,0-2.4
						c-4.503,0.581-8.856,2.089-13.416,2.205C305.993,222.531,305.99,224.931,307.538,224.892L307.538,224.892z"/>
				</g>
			</g>
			<g>
				<g>
					<path fill="#FFFFFF" d="M338.261,227.186c2.153,4.546,2.985,9.58,5.604,13.924c0.798,1.324,2.873,0.118,2.072-1.211
						c-2.606-4.327-3.453-9.385-5.604-13.924C339.671,224.576,337.602,225.795,338.261,227.186L338.261,227.186z"/>
				</g>
			</g>
			<g>
				<g>
					<path fill="#FFFFFF" d="M342.046,226.559c1.066,3.941,3.666,7.167,5.385,10.818c0.659,1.4,2.728,0.181,2.072-1.211
						c-1.626-3.455-4.135-6.519-5.144-10.245C343.955,224.429,341.641,225.063,342.046,226.559L342.046,226.559z"/>
				</g>
			</g>
			<g>
				<g>
					<path fill="#FFFFFF" d="M346.63,224.52c0.646,3.858,2.765,7.14,4.246,10.699c0.586,1.407,2.908,0.791,2.313-0.638
						c-1.477-3.548-3.604-6.859-4.246-10.699C348.689,222.358,346.377,223.007,346.63,224.52L346.63,224.52z"/>
				</g>
			</g>
			<g>
				<g>
					<path fill="#FFFFFF" d="M269.732,246.187c1.578,3.287,3.204,6.499,4.266,10.001c0.559,1.846,3.454,1.059,2.893-0.798
						c-1.135-3.749-2.877-7.198-4.566-10.717C271.485,242.929,268.899,244.452,269.732,246.187L269.732,246.187z"/>
				</g>
			</g>
			<g>
				<g>
					<path fill="#FFFFFF" d="M270.86,245.259c2.222,2.754,2.775,6.573,3.937,9.83c0.516,1.447,2.835,0.824,2.313-0.638
						c-1.322-3.714-2.021-7.748-4.553-10.889C271.586,242.356,269.898,244.066,270.86,245.259L270.86,245.259z"/>
				</g>
			</g>
			<g>
				<g>
					<path fill="#FFFFFF" d="M241.638,224.543c0.154,15.45,3.629,30.542,5.266,45.852c0.163,1.522,2.564,1.538,2.4,0
						c-1.637-15.307-5.112-30.406-5.266-45.852C244.022,222.996,241.622,222.995,241.638,224.543L241.638,224.543z"/>
				</g>
			</g>
			<g>
				<g>
					<path fill="#FFFFFF" d="M243.995,228.128c-0.697-4.437,0.683,0.091,1.543,1.774c1.886,3.69,3.811,7.393,5.434,11.207
						c3.281,7.713,5.075,15.942,8.492,23.605c0.501,1.125,2.253,0.521,2.236-0.605c-0.099-6.479-2.341-12.868-3.664-19.178
						c-1.319-6.285-2.403-12.745-2.242-19.194c0.575-0.133,1.15-0.266,1.726-0.398c0.197,0.565,0.353,1.142,0.464,1.73
						c0.389,1.717,1.007,3.425,1.483,5.122c0.974,3.467,1.841,6.964,2.688,10.464c1.692,6.988,5.012,13.549,5.636,20.777
						c0.133,1.53,2.532,1.542,2.399,0c-0.782-9.043-4.795-17.874-7.02-26.657c-1.023-4.042-2.123-8.086-3.337-12.074
						c-0.396-1.305-1.432-3.64-3.104-3.64c-9.061,0,2.503,38.602,2.57,43.048c0.745-0.202,1.491-0.404,2.236-0.605
						c-2.888-6.475-4.598-13.359-7.019-20.005c-2.021-5.545-5.232-10.493-7.423-15.942c-0.57-1.42-1.666-4.941-3.897-4.341
						c-2.521,0.679-1.835,3.534-1.518,5.55C241.921,230.292,244.233,229.642,243.995,228.128L243.995,228.128z"/>
				</g>
			</g>
			<g>
				<g>
					<path fill="#FFFFFF" d="M257.751,127.763c-0.896-3.462-0.421-8.49-5.329-9.01c-3.396-0.36-5.608,1.503-5.935,4.833
						c-0.202,2.074,1.592,5.493-0.688,7.028c-1.936,1.302-4.667,0.963-6.771,1.862c-3.313,1.416-4.732,4.812-3.991,8.287
						c0.645,3.026,4.938,3.945,7.446,4.301c3.113,0.442,2.121,0.093-0.343,0.962c-1.197,0.422-3.93,1.383-4.591,2.758
						c-3.971,8.267,4.563,11.063,11.212,9.496c1.355-0.32,1.003-2.315-0.319-2.357c-5.722-0.183-10.617,4.775-9.31,10.498
						c1.895,8.285,18.43,4.813,23.575,4.77c1.547-0.013,1.548-2.413,0-2.4c-4.547,0.038-9.088,0.263-13.634,0.363
						c-3.554,0.078-9.76-1.607-7.284-7.147c1.092-2.444,4.147-3.763,6.651-3.683c-0.105-0.786-0.213-1.572-0.318-2.357
						c-1.607,0.379-3.146,0.521-4.791,0.443c-3.688-0.175-7.232-5.205-1.696-7.532c1.629-0.685,4.588-0.943,5.77-2.484
						c2.215-2.887-3.548-3.539-5.071-3.755c-1.401-0.199-2.14-0.431-3.533-1.114c-5.16-2.53,0.757-6.836,3.001-7.329
						c1.832-0.402,4.883-0.597,6.2-2.202c1.206-1.469,1.396-2.85,1.249-4.728c-0.098-1.233-0.328-2.439-0.363-3.681
						c4.402-0.944,6.445,0.069,6.129,3.04c0.068,0.605,0.209,1.197,0.42,1.775C255.824,129.898,258.139,129.263,257.751,127.763
						L257.751,127.763z"/>
				</g>
			</g>
			<g>
				<g>
					<path fill="#FFFFFF" d="M247.751,139.801c-0.06,7.896-1.044,16.565,3.053,23.701c0.771,1.342,2.844,0.133,2.072-1.211
						c-3.854-6.715-2.779-15.059-2.726-22.49C250.163,138.252,247.763,138.254,247.751,139.801L247.751,139.801z"/>
				</g>
			</g>
			<g>
				<g>
					<path fill="#FFFFFF" d="M287.74,185.143c0-1.131,0-2.263,0-3.395c0-0.967-1.5-0.967-1.5,0c0,1.131,0,2.263,0,3.395
						C286.24,186.11,287.74,186.11,287.74,185.143L287.74,185.143z"/>
				</g>
			</g>
			<g>
				<g>
					<path fill="#FFFFFF" d="M287.638,185.691c1.259-2.186,3.654-3.378,5.096-5.434c0.558-0.794-0.743-1.542-1.295-0.757
						c-1.443,2.06-3.819,3.217-5.096,5.434C285.859,185.774,287.155,186.529,287.638,185.691L287.638,185.691z"/>
				</g>
			</g>
			<g>
				<g>
					<path fill="#FFFFFF" d="M287.162,186.063c1.074,0,2.15,0,3.227,0c0.968,0,0.968-1.5,0-1.5c-1.075,0-2.151,0-3.227,0
						C286.194,184.563,286.194,186.063,287.162,186.063L287.162,186.063z"/>
				</g>
			</g>
			<g>
				<g>
					<path fill="#FFFFFF" d="M304.515,169.558c0.467,0.641,0.835,1.332,1.188,2.039c0.434,0.865,1.728,0.105,1.295-0.757
						c-0.354-0.708-0.722-1.399-1.188-2.039c-0.24-0.33-0.646-0.492-1.026-0.269C304.457,168.723,304.273,169.227,304.515,169.558
						L304.515,169.558z"/>
				</g>
			</g>
			<g>
				<g>
					<path fill="#FFFFFF" d="M306.73,170.845c3.266-2.369,5.66-5.718,9.002-7.982c0.795-0.539,0.046-1.839-0.758-1.295
						c-3.352,2.271-5.736,5.614-9.002,7.982C305.198,170.112,305.945,171.414,306.73,170.845L306.73,170.845z"/>
				</g>
			</g>
			<g>
				<g>
					<path fill="#FFFFFF" d="M314.051,161.285c-0.001,0.343-0.03,0.614-0.145,0.939c-0.316,0.916,1.132,1.306,1.447,0.398
						c0.152-0.439,0.195-0.875,0.196-1.338C315.553,160.318,314.053,160.318,314.051,161.285L314.051,161.285z"/>
				</g>
			</g>
			<g>
				<g>
					<path fill="#FFFFFF" d="M312.818,161.281c0,0.623,0,1.246,0,1.869c0,0.967,1.5,0.967,1.5,0c0-0.623,0-1.246,0-1.869
						C314.318,160.314,312.818,160.314,312.818,161.281L312.818,161.281z"/>
				</g>
			</g>
			<g>
				<g>
					<path fill="#FFFFFF" d="M311.318,161.453c0,0.962,0,1.924,0,2.887c0,0.967,1.5,0.967,1.5,0c0-0.962,0-1.924,0-2.887
						C312.818,160.486,311.318,160.486,311.318,161.453L311.318,161.453z"/>
				</g>
			</g>
			<g>
				<g>
					<path fill="#FFFFFF" d="M311.987,165.484c0.562,0.916,1.232,1.763,1.984,2.529c0.679,0.691,1.739-0.371,1.061-1.061
						c-0.666-0.678-1.253-1.414-1.75-2.225C312.778,163.904,311.48,164.657,311.987,165.484L311.987,165.484z"/>
				</g>
			</g>
			<g>
				<g>
					<path fill="#FFFFFF" d="M313.347,164.466c0.586,0.949,1.357,1.72,2.308,2.304c0.827,0.508,1.58-0.79,0.758-1.295
						c-0.731-0.45-1.318-1.035-1.771-1.766C314.135,162.888,312.837,163.641,313.347,164.466L313.347,164.466z"/>
				</g>
			</g>
			<g>
				<g>
					<path fill="#FFFFFF" d="M314.336,163.774c0.715,0.362,1.385,0.776,1.888,1.412c0.254,0.321,0.797,0.264,1.061,0
						c0.314-0.314,0.253-0.74,0-1.061c-0.571-0.724-1.376-1.234-2.189-1.646C314.232,162.043,313.473,163.337,314.336,163.774
						L314.336,163.774z"/>
				</g>
			</g>
			<g>
				<g>
					<path fill="#FFFFFF" d="M292.568,75.893c-4.093-0.146-8.598,3.575-7.532,7.928c1.451,5.937,13.338,4.489,17.368,3.864
						c1.932-0.3,4.771-0.943,5.516-3.071c0.756-2.157-0.076-4.396-1.913-5.735c-4.605-3.356-13.014-3.418-17.903-0.828
						c-1.71,0.906-0.193,3.496,1.515,2.591c3.479-1.843,7.353-1.317,11.08-0.69c1.162,0.196,2.132,0.471,3.165,1.059
						c2.99,1.704,0.336,3.282-1.581,3.677c-3.484,0.718-7.554,0.823-11.021,0.06c-1.804-0.397-4.184-1.426-2.948-3.647
						c0.82-1.476,2.652-2.265,4.256-2.207C294.504,78.962,294.497,75.961,292.568,75.893L292.568,75.893z"/>
				</g>
			</g>
			<g>
				<g>
					<path fill="#FFFFFF" d="M310.625,75.777c-0.455,4.145-2.282,7.997-3.344,12c-0.496,1.873,2.397,2.666,2.894,0.798
						c1.138-4.292,2.962-8.35,3.45-12.797C313.836,73.855,310.834,73.876,310.625,75.777L310.625,75.777z"/>
				</g>
			</g>
			<g>
				<g>
					<path fill="#FFFFFF" d="M315.093,77.248c-0.611,3.761-2.43,7.155-3.226,10.867c-0.403,1.887,2.487,2.689,2.894,0.798
						c0.796-3.712,2.612-7.106,3.225-10.867C318.293,76.153,315.402,75.342,315.093,77.248L315.093,77.248z"/>
				</g>
			</g>
			<g>
				<g>
					<path fill="#FFFFFF" d="M317.128,93.545c5.691-2.972,9.653-9.019,13.273-14.123c1.122-1.582-1.479-3.078-2.59-1.514
						c-3.319,4.678-6.978,10.32-12.198,13.045C313.898,91.85,315.414,94.439,317.128,93.545L317.128,93.545z"/>
				</g>
			</g>
			<g>
				<g>
					<path fill="#FFFFFF" d="M317.279,98.622c2.6-1.07,4.601-3.041,6.885-4.631c2.16-1.502,4.679-2.279,6.515-4.247
						c1.317-1.412-0.799-3.538-2.121-2.121c-1.611,1.727-3.925,2.561-5.906,3.778c-2.129,1.308-3.839,3.369-6.168,4.329
						C314.72,96.456,315.49,99.359,317.279,98.622L317.279,98.622z"/>
				</g>
			</g>
			<g>
				<g>
					<path fill="#FFFFFF" d="M317.9,104.279c11.647-0.957,21.966-8.589,32.834-12.28c1.821-0.619,1.04-3.517-0.797-2.893
						c-10.519,3.573-20.803,11.25-32.037,12.173C315.986,101.437,315.971,104.438,317.9,104.279L317.9,104.279z"/>
				</g>
			</g>
			<g>
				<g>
					<path fill="#FFFFFF" d="M318.238,107.336c4.662,0.104,9.334-0.895,13.816-2.091c1.868-0.499,1.074-3.392-0.797-2.893
						c-4.239,1.131-8.61,2.083-13.021,1.983C316.303,104.292,316.307,107.292,318.238,107.336L318.238,107.336z"/>
				</g>
			</g>
			<g>
				<g>
					<path fill="#FFFFFF" d="M318.407,111.922c1.979,0.001,3.948,0.008,5.886,0.456c1.883,0.436,2.682-2.456,0.797-2.893
						c-2.198-0.509-4.437-0.563-6.683-0.563C316.474,108.921,316.474,111.921,318.407,111.922L318.407,111.922z"/>
				</g>
			</g>
			<g>
				<g>
					<path fill="#FFFFFF" d="M318.01,115.265c1.279,0.469,2.595,0.818,3.906,1.189c1.864,0.528,2.654-2.367,0.797-2.893
						c-1.312-0.372-2.625-0.72-3.906-1.189c-0.769-0.282-1.643,0.309-1.845,1.047C316.731,114.257,317.241,114.984,318.01,115.265
						L318.01,115.265z"/>
				</g>
			</g>
			<g>
				<g>
					<path fill="#FFFFFF" d="M317.651,118c1.431,0.729,2.764,1.6,4.266,2.19c0.762,0.3,1.646-0.322,1.845-1.047
						c0.233-0.852-0.287-1.546-1.048-1.845c-1.244-0.489-2.359-1.282-3.549-1.888C317.445,114.533,315.928,117.121,317.651,118
						L317.651,118z"/>
				</g>
			</g>
			<g>
				<g>
					<path fill="#FFFFFF" d="M317.821,121.227c0.575,0.44,1.362,1.179,2.039,1.699c0.65,0.499,1.678,0.101,2.052-0.539
						c0.453-0.772,0.109-1.555-0.538-2.052c-0.571-0.439-1.36-1.181-2.038-1.699c-0.65-0.498-1.679-0.101-2.053,0.539
						C316.83,119.946,317.173,120.731,317.821,121.227L317.821,121.227z"/>
				</g>
			</g>
			<g>
				<g>
					<path fill="#FFFFFF" d="M222.57,72.13c13.486,5.358,26.1,12.531,39.04,19.039c1.725,0.866,3.242-1.721,1.515-2.591
						c-13.179-6.626-26.024-13.885-39.757-19.34C221.567,68.522,220.795,71.425,222.57,72.13L222.57,72.13z"/>
				</g>
			</g>
			<g>
				<g>
					<path fill="#FFFFFF" d="M243.101,88.112c6.026,2.609,11.933,5.489,18.02,7.961c1.793,0.729,2.564-2.174,0.797-2.893
						c-5.846-2.375-11.514-5.153-17.303-7.66C242.858,84.761,241.329,87.345,243.101,88.112L243.101,88.112z"/>
				</g>
			</g>
			<g>
				<g>
					<path fill="#FFFFFF" d="M222.969,92.902c3.468,0.179,6.719,1.378,10.057,2.228c3.084,0.785,6.307,0.934,9.414,1.623
						c1.886,0.418,2.687-2.474,0.797-2.893c-3.55-0.788-7.177-1.054-10.704-1.952c-3.198-0.814-6.242-1.835-9.563-2.006
						C221.034,89.803,221.044,92.803,222.969,92.902L222.969,92.902z"/>
				</g>
			</g>
			<g>
				<g>
					<path fill="#FFFFFF" d="M248.553,104.226c3.486,1.176,7.089,1.862,10.697,2.549c1.89,0.36,2.695-2.531,0.797-2.893
						c-3.607-0.687-7.21-1.373-10.697-2.549C247.512,100.713,246.729,103.611,248.553,104.226L248.553,104.226z"/>
				</g>
			</g>
			<g>
				<g>
					<path fill="#FFFFFF" d="M249.232,110.509c4.394,1.241,8.995,0.652,13.416,1.699c1.881,0.446,2.681-2.447,0.797-2.893
						c-4.421-1.047-9.04-0.464-13.416-1.699C248.164,107.089,247.373,109.984,249.232,110.509L249.232,110.509z"/>
				</g>
			</g>
			<g>
				<g>
					<path fill="#FFFFFF" d="M258.234,101.341c1.4,0.38,2.854,0.548,4.304,0.562c1.936,0.017,1.934-2.983,0-3
						c-1.196-0.011-2.351-0.14-3.507-0.454C257.162,97.94,256.369,100.834,258.234,101.341L258.234,101.341z"/>
				</g>
			</g>
			<g>
				<g>
					<path fill="#FFFFFF" d="M270.922,76.024c2.229,3.525,2.387,7.908,4.416,11.549c0.94,1.69,3.533,0.178,2.59-1.514
						c-2.026-3.637-2.169-7.997-4.416-11.549C272.481,72.881,269.884,74.384,270.922,76.024L270.922,76.024z"/>
				</g>
			</g>
			<g>
				<g>
					<path fill="#FFFFFF" d="M256.721,72.594c3.529,3.374,5.135,8.185,8.492,11.721c1.334,1.405,3.452-0.719,2.121-2.121
						c-3.354-3.533-4.943-8.328-8.492-11.721C257.444,69.136,255.32,71.255,256.721,72.594L256.721,72.594z"/>
				</g>
			</g>
			<g>
				<g>
					<path fill="#FFFFFF" d="M294.021,84.27c-0.032,4.834-0.42,9.656-0.455,14.49c-0.014,1.935,2.986,1.934,3,0
						c0.035-4.834,0.423-9.656,0.455-14.49C297.034,82.334,294.034,82.335,294.021,84.27L294.021,84.27z"/>
				</g>
			</g>
			<g>
				<g>
					<path fill="#FFFFFF" d="M286.827,89.653c0.5,1.993,1.066,3.931,1.962,5.788c0.839,1.743,3.426,0.221,2.59-1.514
						c-0.777-1.615-1.226-3.34-1.659-5.072C289.249,86.979,286.355,87.775,286.827,89.653L286.827,89.653z"/>
				</g>
			</g>
		</g>
	</g>
	<g>
		<path fill="#E9C0C0" d="M121.937,190.684c0,0,7.146-26.063,10.592-29.307c0,0,2.377-3.246,2.854-8.656
			c0,0,1.752-9.074,3.445-11.059c0,0,5.883-9.016,3.299-11.539c0,0-1.25-0.721-3.832,4.598c-2.586,5.32-3.033,6.402-4.281,6.402
			s-1.158-2.346-1.158-2.346l-0.178-10.367c0,0,0-1.893-1.516-1.982c0,0-1.07,0-1.336,2.074c-0.271,2.072,0,10.275,0,10.275
			s-0.447,1.713-1.519,0.451c-1.068-1.262-2.762,0.361-2.852,1.441c-0.09,1.084-0.892,1.533-1.517,1.443
			c-0.625-0.09-2.94,2.613-2.229,5.77c0.713,3.154,0.625,9.104,0.625,9.104s-1.07,3.518-4.103,6.852
			c-3.03,3.336-12.657,15.957-12.657,15.957S117.3,192.396,121.937,190.684z"/>
		<path fill="#E9C0C0" d="M205.108,324.07c0.32-1.465,0.791-2.271,1.724-3.824c0.973-1.623,0.955-11.699,0.955-11.699l-3.947-20.414
			c0,0,14.664,2.576,16.708,6.416c0,0-1.67,16.557-0.627,20.275c1.041,3.717,2.399,11.576,2.125,12.697c0,0,0.604,2.135-1.596,3.438
			c-0.462,0.271-4.521,4.121-4.521,4.121c-0.578,0.504-2.9,3.188-3.502,3.59c-0.732,0.494-4.416,1.215-5.847,0.871
			c-1.724-0.41,0.453-0.836-0.017-1.176c-0.381-0.271-1.53-0.253-2.071-0.689c-1.353-1.092,1.336-1.172,0.334-1.276
			c-1.599-0.174-2.372-1.426-1.357-1.508c0.914-0.072-0.408-0.457-0.408-0.457c-0.408-0.172-0.966-0.32-0.681-1.066
			c0.29-0.756,2.538-0.354,3.046-0.748c1.008-0.783,1.469-1.246,2.219-2.219c0.178-0.23,0.8-2.57,0.979-3.291
			c0.061-0.254,0.131-0.473,0.02-0.635c-0.531-0.769-1.541,0.754-1.646,1.094c-1.354,4.373-2.729,3.617-2.729,3.617
			c-1.285-0.049,0.471-5.357,0.471-5.357L205.108,324.07z"/>
		<path fill="#E9C0C0" d="M161.792,445.689c0,0-2.353,37.372-2.857,47.752c-0.504,10.375-9.84,3.883-9.84,3.883l-1.604-3.883
			c0,0-0.464-42.875-2.148-46.025C144.058,445.016,161.792,445.689,161.792,445.689z"/>
		<path fill="#E9C0C0" d="M221.088,455.398c0,0,2.521,19.079,4.863,23.407c2.344,4.332,10.016,18.771,7.764,21.816
			c-2.252,3.047-14.771,8.877-16.426,1.863c0,0-1.82-1.515-3.498-11.3c-1.711-9.993-4.088-28.823-8.876-35.118L221.088,455.398z"/>
		<path fill="#040000" d="M137.875,294.531c0,0-8.779,21.971-3.965,45.227c4.813,23.26,6.041,39.443,4.08,52.063
			c-1.962,12.623-4.351,54.312-3.814,60.439c0,0-0.523,4.867-0.975,5.771c-0.452,0.902,0.051,3.563,3.784,5.662
			c4.992,2.811,15.468,7.625,20.103,5.643s12.789-3.713,12.789-3.713s2.496-0.18,0-6.312c-2.494-6.131-8.103-56.35-6.498-70.233
			c1.604-13.886,2.951-55.039,2.951-55.039s0.051-7.199,4.553-5.763c1.854,0.59,3.211,3.064,3.744,6.49
			c0.535,3.424,14.719,50.85,14.719,54.094c0,3.246,9.199,63.722,9.234,70.626c0.028,5.436,3.723,5.549,6.775,5.483
			c6.24-0.133,12.126,0.539,16.048,1.441c3.925,0.899,12.095-0.949,14.412-5.099c2.316-4.146,3.922-2.164,0-7.393
			c-3.924-5.229-18.965-62.051-19.676-70.344c-0.715-8.294-5.203-57.189-5.971-64.013c-1.144-10.11-8.229-28.594-11.799-33.126
			C198.371,286.438,159.957,278.639,137.875,294.531z"/>
		<g>
			<path fill="#030000" d="M207.137,471.986c0.115-0.113,0.656-0.515,0.656-0.515s0.438-0.41,1.052-0.565c0.006,0,0.012,0,0.021,0
				c0.321-0.076,0.688-0.086,1.071,0.088c1.117,0.502,3.271,2.059,3.369,7.442l0.174,1.834l-1.045,0.892l-0.908-0.144l0.826-0.53
				c-0.031-0.189-0.067-0.369-0.102-0.556c-0.568-3.03-1.027-5.127-1.998-6.522c-0.479-0.689-1.42-1.414-1.898-1.599
				c-0.071-0.024-0.146-0.038-0.219-0.057l-0.222,0.148l-0.652,0.379C207.262,472.283,207.022,472.1,207.137,471.986z"/>
			<path fill="#030000" d="M223.658,477.395c0,0,1.645-3.571,2.586-2.063c0.944,1.508,1.075,2.604,0.782,3.324
				C227.027,478.654,224.002,478.84,223.658,477.395z"/>
			<path fill="#030000" d="M254.512,496.395c0,0,4.086-0.51,2.244,1.771c-1.84,2.283-9.9,9.107-18.908,7.412
				c-9.004-1.701-21.906-0.611-21.906-0.611s-8.31,0.277-3.055-2.686C218.137,499.316,254.512,496.395,254.512,496.395z"/>
			<path fill="#030000" d="M258.846,500.049c0,0,0.678,1.392,0.244,2.031c0,0-0.5,0.047-0.492,0.818
				c0.008,0.77-0.846,0.702-0.936,0.668c0,0-0.552-0.015-0.597,0.678c-0.043,0.688-0.641,0.637-0.938,0.633
				c-0.299-0.01-0.533,0.49-0.508,0.701c0.024,0.213-0.576,0.842-1.062,0.688c-0.484-0.152-1.043,0.474-1.043,0.816
				c-0.002,0.34-0.596,1.012-1.438,0.693c0,0-0.412-0.248-0.49,0.485c0,0-0.221,0.629-1.414,0.563
				c-1.193-0.063-1.764,0.817-1.764,0.817s-0.773,0.611-1.878,0.236c0,0-0.368-0.254-0.702,0.131
				c-0.334,0.383-0.435,0.611-1.06,0.688c-0.625,0.078-0.848-0.365-0.848-0.365s-0.281-0.221-0.781-0.158
				c-0.5,0.062-0.824,0.529-0.824,0.529s-0.172,0.324-1.008,0.428c-0.834,0.104-1.078-0.166-1.078-0.166s-0.051-0.42-0.424-0.375
				c-0.375,0.047-0.592,0.373-0.592,0.373s-0.062,0.18-0.938,0.291c-0.873,0.107-1.25-0.531-1.25-0.531l-0.262-2.188
				c0,0-7.801-0.824-8.426-0.748c-0.625,0.08-1.006,3.936-1.814,4.252c-0.809,0.313-2.348,0.51-2.844,0.27
				c-0.496-0.235-0.182-0.104-0.182-0.104s-0.336-0.301-0.603,0.291c0,0-0.408,0.133-1.158,0.229
				c-0.748,0.093-0.748,0.093-0.748,0.093s-0.438-0.802-0.793-0.24c-0.354,0.557-1.114,0.567-1.588,0.498
				c-0.475-0.07-0.594-0.355-0.594-0.355s-0.422-0.33-0.625,0.08c-0.205,0.412-1.129,0.482-1.57,0.322
				c-0.44-0.158-0.463-0.326-0.463-0.326s-0.272-0.522-0.576-0.229c-0.303,0.297-0.846,0.364-1.434,0.053
				c-0.586-0.313-0.633-0.346-0.664-0.602c-0.029-0.25-0.268-0.521-0.596-0.226c0,0-0.351,0.088-0.392-0.936
				c-0.036-1.021-0.555-6.955-0.555-6.955l46.072-6.814L258.846,500.049z"/>
			<path fill="#181818" d="M219.201,477.965c0,0,2.905-0.451,4.752-0.596c0,0,3.711-1.486,4.743,1.465
				c1.035,2.947,2.939,10.324,12.828,13.023c0,0,0.572,0.524,0.672,1.366c0,0,2.257,1.431,7.955-0.563c0,0,3.447-1.031,5.632,3.744
				c0,0-0.488,3.68-12.199,7.61c0,0-5.855,0.554-13.115-0.682c-7.256-1.23-14.469,0.01-14.469,0.01s-3.148,1.25-3.314-2.92
				c-0.166-4.172,0.017-16.004-1.396-18.563c0,0-1.017-1.412,2.26-2.334C213.549,479.525,218.201,478.111,219.201,477.965z"/>
			<path fill="#181818" d="M207.137,471.986c0.18-0.144,0.369-0.213,0.563-0.246c0.213-0.039,0.433-0.013,0.655,0.071
				c-1.222,1.097,3.453,7.521,3.896,8.121c0.033,0.187,0.069,0.365,0.102,0.556l-0.826,0.53
				C211.527,481.02,205.221,473.479,207.137,471.986z"/>
		</g>
		<path fill="#1C3187" d="M138.378,226.771c3.557,7.756,4.379,29.934,0.637,33.178c-3.746,3.246-11.859,14.057-14.535,19.646
			c-2.674,5.588,2.854,5.77,2.854,5.77c2.315,1.623,3.209,5.047,3.209,5.047c3.031,5.049,10.697,4.328,13.371,4.689
			c2.674,0.359,6.418,2.344,9.983,3.859c3.566,1.515,14.086,0.828,16.226,0c2.139-0.83,2.317-3.68,8.557-1.697
			c6.24,1.984,14.201,1.326,23.713,0c0.021-0.004,0.035-0.012,0.055-0.016c-0.2,3.569-0.465,6.426-0.465,7.938v0.015
			c-0.256,4.51,2.262,2.899,2.262,2.899s3.188-3.932,7.173,0c3.985,3.933,7.438,0,7.438,0s1.951-2.145,4.527-0.932
			s2.998-1.928,2.998-1.928l-1.857-7.795c0-0.365,0.006-0.594,0.006-0.594s-0.401-1.352-0.977-3.48l-0.002-0.004l0,0
			c-1.643-6.082-4.707-18.543-3.916-24.285c0.357-14.783-0.332-48.68-5.502-59.139c-4.092-8.266-16.167-9.131-16.167-9.131
			l-51.912-3.795c-7.133,1.082-12.27,0.906-12.27,0.906c-17.828,0.48-13.597-4.645-13.597-4.645c2.17-4.135,5.515-5.693,5.515-5.693
			c2.315-1.803-0.845-5.557-2.992-5.266c-2.689,0.363-2.689,0.363-3.428-1.705c-1.201-3.365-3.521-1.906-6.419-2.885l-0.952-1.682
			c0.059-3.441-5.261-2.66-5.261-2.66c-0.178,2.344-1.604,5.949-1.604,5.949c-1.691,6.328-4.67,13.941-4.67,13.941
			c-4.705,13.781,24.815,24.473,24.815,24.473C138.029,225.145,138.378,226.771,138.378,226.771z M195.617,257.6
			c0,0,4.51-21.459,4.635-8.834c0.121,11.916,0.572,25.127,0.572,25.127c1.186,4.166,1.672,8.805,1.804,13.242
			c-1.807-5.748-4.661-11.799-4.661-11.799S192.052,268.598,195.617,257.6z"/>
		<path fill="#FFFFFF" d="M163.347,135.898c0,0,22.465-7.932,29.24,32.814c0,0,2.139,22.357,10.339,35.338
			c0,0,7.013,12.861-2.138,24.881c0,0-3.093,2.045-4.519,6.492c-1.426,4.447-2.141,6.25-9.748,2.162
			c-7.604-4.088-5.705,6.85-5.705,6.85s2.498,11.902-7.485,4.33c-9.984-7.572-7.845,5.047-16.047-8.656c0,0-3.328-6.008-7.369-3.004
			c0,0-6.181,9.736-12.479-13.582c0,0-2.021-8.775,2.494-17.789c4.518-9.014,7.371-33.656,7.371-33.656
			S146.945,137.58,163.347,135.898z"/>
		<g>
			<path fill="#030000" d="M162.423,507.145v7.462c0,0-1.096,1.313-1.459,0.805v-1.865c0,0,0.049-0.254-0.449-0.254
				s-0.361,0.424-0.361,0.424v2.076c0,0-0.495,0.678-2.213,0.678c0,0-0.541-0.125-0.723-0.465v-1.777c0,0,0.137-0.512-0.541-0.512
				s-0.77,0.807-0.77,0.807v1.566c0,0-0.046,0.637-1.761,0.637s-1.852-0.51-1.852-0.51v-1.906c0,0,0-0.467-0.676-0.467
				c-0.679,0-0.589,0.51-0.589,0.51v1.779c0,0-0.271,0.594-2.165,0.594c0,0-1.402-0.125-1.402-0.975v-1.695
				c0,0,0.09-0.463-0.404-0.594c-0.498-0.125-0.229,0.295-0.229,0.295v1.824c0,0,0.004,0.764-1.125,0.211
				c0,0-1.084-0.381-1.084-1.146v-1.188c0,0,0.135-0.592-0.271-0.592c0,0-0.27-0.17-0.27,0.424v0.934c0,0,0.112,0.486-0.271,0.125
				v-7.797L162.423,507.145z"/>
			<path fill="#030000" d="M157.312,483.541c0,0,3.431-0.057,3.431,3.307l-1.49,15h-12.06l-0.631-16.061c0,0-0.18-2.303,2.799-2.303
				L157.312,483.541z"/>
			<path fill="#030000" d="M160.742,508.459c0,0-16.935,1.6-16.935-1.645c0-2.638,2.574-2.679,2.574-2.679
				s15.984-1.356,15.984,2.297C162.367,506.434,162.898,508.305,160.742,508.459z"/>
			<path fill="#181818" d="M155.552,472.863c0,0,1.535-0.088,1.535,1.438c0,1.523-0.633,9.025-1.535,10.172h-4.922l-0.361-10.129
				c0,0-0.18-1.483,1.355-1.483L155.552,472.863z"/>
			<path fill="#030000" d="M149.951,482.24c0.555-0.438,1.416-0.853,2.717-0.853c0.35,0,0.684,0.008,1.008,0.025
				c0.32-0.019,0.656-0.025,1.008-0.025c1.299,0,2.162,0.414,2.715,0.853c0.343,0.19,0.627,0.414,0.853,0.672v0.805l-0.113,0.006
				l-0.111,0.461l-4.35-0.227l-4.35,0.227l-0.111-0.461l-0.115-0.006v-0.805C149.324,482.654,149.611,482.432,149.951,482.24z"/>
			<path fill="#181818" d="M157.535,487.871c0,0-1.974,4.795,1.444,7.875c4.205,3.787,2.439,9.916,1.763,10.424
				c-0.679,0.51-13.14,1.674-15.222-0.592c0,0-0.623-4.838,0.73-7.381c1.354-2.543,3.725-4.082,3.725-7.39
				c0-3.305-2.373-7.362,0.875-7.323h4.812C155.662,483.484,158.958,482.752,157.535,487.871z"/>
		</g>
	</g>
</g>
</svg>
