<?xml version="1.0" encoding="utf-8"?>
<!-- Generator: Adobe Illustrator 16.0.0, SVG Export Plug-In . SVG Version: 6.00 Build 0)  -->
<!DOCTYPE svg PUBLIC "-//W3C//DTD SVG 1.1//EN" "http://www.w3.org/Graphics/SVG/1.1/DTD/svg11.dtd">
<svg version="1.1" id="Layer_1" xmlns="http://www.w3.org/2000/svg" xmlns:xlink="http://www.w3.org/1999/xlink" x="0px" y="0px"
	 width="178px" height="134px" viewBox="0 0 178 134" enable-background="new 0 0 178 134" xml:space="preserve">
<g>
	<path fill="#EC7267" d="M168.115,91.492c0,0,5.415-69.137,0-74.551c-0.572-0.572-0.758-1.289-1.702-1.822
		c-3.545-2.002-8.239-2.133-12.185-2.248c-3.975-0.117-8.063-0.144-12.028,0.184c-2.954,0.243-7.102,0.396-9.595,2.843
		c-2.314,2.271-2.193,6.769-2.439,10.146c-0.359,4.931-0.342,11.006,0,15.875c0.547,7.788,0.523,15.72,0.232,23.521
		c-0.008,0.22-0.158,4.813-0.186,4.813c-0.013,0-31.771,0-31.771,0L53.994,26.519c0,0-8.415-2.568-17.119-0.242
		c0,0-6.705,91.735,0,103.256c0,0,16.289-0.842,35.046-0.365c18.757,0.479,73.287-23.514,73.287-23.514L168.115,91.492z"/>
	<path fill="#F8EEE3" d="M1.541,30.792c0,0-2.107,18.633-1.275,78.194v12.912c0,0-1.248,7.635,9.164,7.635
		s78.273,3.121,104.542,2.777c25.32-0.332,44.148-2.221,56.227-2.777c0,0,8.746-0.139,7.497-8.885l0.122-27.488
		c0,0,1.679-7.242-7.9-7.242c0,0-8.882,2.244-8.882-9.002V52.342c0,0,0.007-8.8-11.245-10.829c0,0-11.809-2.754-24.33-0.613
		c-0.357,0.062-0.713,0.156-1.076,0.197c-9.14,1.026-8.746,7.496-8.746,7.496l-2.5,42.899c0,0,0.834,6.666-7.913,6.666
		s-7.08-9.58-7.08-9.58l1.249-78.719c0,0,1.518-9.995-10.426-9.995c-13.314,0-25.725,0-25.725,0s-9.248-1.24-9.248,8.746v26.655
		c0,0-0.416,6.665-8.746,6.665s-6.664-7.813-6.664-9.58c0-2.573,2.383-12.495-12.078-12.495H11.511
		C11.511,19.855,1.541,18.297,1.541,30.792z"/>
	<path fill="#8F8F90" d="M64.734,120.635c0.054-4.527,0.128-10.871,0.185-15.699c0.001-0.119,0.002-0.227,0.003-0.342
		c0.024-1.992,0.044-3.707,0.058-4.889c0.013-1.09,0.021-1.74,0.021-1.74s0.06-5.119-6.089-6.473
		c-0.878-0.189-1.883-0.309-3.036-0.32c-0.135-0.004-0.261-0.004-0.392-0.006c-0.018,0-0.037,0-0.052,0
		c-1.639-0.02-2.973-0.035-4.056-0.049c-1.286-0.016-2.988-0.035-5.246-0.063c-1.151-0.012-2.16,0.08-3.042,0.252
		c-6.18,1.207-6.24,6.326-6.24,6.326s-0.008,0.65-0.021,1.74c-0.009,0.811-0.031,2.596-0.058,4.891
		c-0.001,0.113-0.002,0.225-0.003,0.342c-0.053,4.527-0.128,10.871-0.185,15.699c-0.001,0.117-0.003,0.229-0.004,0.342
		c-0.024,1.992-0.044,3.705-0.058,4.887c-0.013,1.09-0.021,1.74-0.021,1.74s-0.06,5.123,6.089,6.471
		c0.878,0.193,1.884,0.311,3.036,0.324c0.135,0.002,0.261,0.002,0.391,0.004c0.018,0.002,0.037,0.002,0.052,0.002
		c1.64,0.018,2.974,0.035,4.057,0.047c1.287,0.016,2.988,0.035,5.247,0.063c1.151,0.014,2.16-0.078,3.042-0.252
		c6.18-1.205,6.24-6.326,6.24-6.326s0.007-0.648,0.02-1.74c0.009-0.811,0.031-2.596,0.058-4.889
		C64.731,120.863,64.732,120.752,64.734,120.635z"/>
	<path fill="#EC7267" d="M109.221,28.908c0,0,0.357-9.471-7.467-9.471h-0.178H83.133h-0.176c-7.825,0-7.468,9.471-7.468,9.471
		c0,9.879,0,14.819,0,14.819s-0.357,9.471,7.467,9.471h0.178h18.443h0.176c7.825,0,7.468-9.471,7.468-9.471
		S109.221,38.787,109.221,28.908z"/>
</g>
</svg>
