<?xml version="1.0" encoding="utf-8"?>
<!-- Generator: Adobe Illustrator 16.0.0, SVG Export Plug-In . SVG Version: 6.00 Build 0)  -->
<!DOCTYPE svg PUBLIC "-//W3C//DTD SVG 1.1//EN" "http://www.w3.org/Graphics/SVG/1.1/DTD/svg11.dtd">
<svg version="1.1" id="Layer_1" xmlns="http://www.w3.org/2000/svg" xmlns:xlink="http://www.w3.org/1999/xlink" x="0px" y="0px"
	 width="178px" height="134px" viewBox="0 0 178 134" enable-background="new 0 0 178 134" xml:space="preserve">
<g>
	<path fill="#8F8F90" d="M138.479,69.896c-0.152-8.446-1.451-17.525-4.645-25.377c-2.541-6.247-6.42-11.956-10.991-16.893
		c-4.038-4.362-8.755-7.928-14.024-10.669c-4.247-2.209-8.743-4.056-13.315-5.479c-4.753-1.48-9.239-2.123-14.168-2.601
		c-0.062-0.514-0.09-1.05-0.059-1.567c-0.003,0.062,2.602,0.396,2.602-1.093c0-1.038,0.093-1.976,0.063-3.002
		c-0.041-1.403,0.304-2.671-1.513-2.95c-2.073-0.316-4.239-0.195-6.485-0.13c-1.721,0.051-4.213-0.166-5.66,0.66
		c-0.982,0.561-1.025,1.961-0.976,2.976c0.039,0.781-0.14,2.389,0.348,3.023c0.585,0.761,2.047,0.548,2.982,0.535
		c0,0-0.005,1.058,0.05,1.589c0,0.003-56.572,1.937-57.646,60.979c-0.931,51.233,41.513,62.724,58.956,63.935
		c0.728,0.078,1.66,0.12,2.763,0.109c1.104,0.011,2.036-0.031,2.763-0.109C96.967,132.62,139.412,121.13,138.479,69.896z"/>
	<path fill="#F8EEE3" d="M83.799,14.211c0.838-0.009,31.476,1.06,50.73-4.24c19.252-5.302,46.541-8.761,43.026,0
		c-3.516,8.762-21.934,8.092-21.934,8.092s-31.809-1.34-30.303,7.701c0,0,0.836,3.682,3.683,2.845c0,0,10.548-3.236,12.057,4.074
		c0,0,0.947,4.576-5.136,7.421c-6.082,2.848-8.705,6.92-6.643,11.051c2.066,4.129,10.773,38.561-14.787,60.214
		c-25.559,21.654-48.552,14.623-48.552,14.623S20.961,117.4,20.961,74.985c0-42.413,29.688-53.573,29.688-53.573
		S59.677,14.51,83.799,14.211z"/>
	<path fill="#EC7267" d="M103.891,70.323c0-26.812-26.677-26.812-26.677-26.812c-0.283,0-0.582,0.006-0.893,0.018
		c-0.311-0.012-0.61-0.018-0.892-0.018c0,0-26.677,0-26.677,26.812c0,0.107,0.004,0.213,0.004,0.321
		c-0.001,0.107-0.004,0.215-0.004,0.323c0,22.212,20.202,27.793,27.129,27.793c0.14,0,0.289-0.005,0.439-0.008
		c0.151,0.003,0.3,0.008,0.439,0.008c6.928,0,27.13-5.581,27.13-27.793c0-0.108-0.005-0.216-0.006-0.323
		C103.886,70.536,103.891,70.431,103.891,70.323z"/>
	<path fill="#8F8F90" d="M117.429,78.357l-38.557-7.055c0.005-0.08,0.014-0.156,0.014-0.241c0-0.681-0.165-1.172-0.397-1.536
		l18.706-21.55l-1.117-1.117L76.887,68.542c-0.072-0.008-0.116-0.012-0.116-0.012s-2.906-0.53-2.906,2.531
		c0,3.061,2.906,2.357,2.906,2.357s1.122,0.049,1.729-0.874l38.39,7.277L117.429,78.357z"/>
	<path fill="#F8EEE3" d="M155.232,24.648c0,0.333-11.273,1.116-8.707,6.585c0,0,1.006,3.793,11.273,0
		c10.269-3.795,8.93-6.585,8.93-6.585s0.671-2.568-11.05,0"/>
	<circle fill="#231815" cx="96.735" cy="111.035" r="0.893"/>
	<circle fill="#231815" cx="114.159" cy="95.41" r="0.893"/>
	<circle fill="#231815" cx="120.885" cy="73.457" r="0.893"/>
	<circle fill="#231815" cx="116.568" cy="50.177" r="0.892"/>
	<path fill="#231815" d="M72.973,116.072c0-0.491,0.399-0.895,0.892-0.895s0.893,0.403,0.893,0.895c0,0.494-0.4,0.895-0.893,0.895
		S72.973,116.566,72.973,116.072z"/>
	<circle fill="#231815" cx="100.335" cy="32.888" r="0.893"/>
	<circle fill="#231815" cx="50.704" cy="108.517" r="0.893"/>
	<path fill="#231815" d="M36.037,91.131c0.055-0.492-0.297-0.934-0.787-0.992c-0.49-0.052-0.932,0.298-0.987,0.788
		c-0.056,0.491,0.296,0.933,0.786,0.987C35.539,91.97,35.981,91.619,36.037,91.131z"/>
	<circle fill="#231815" cx="30.937" cy="68.458" r="0.892"/>
	<circle fill="#231815" cx="37.849" cy="45.81" r="0.893"/>
	<circle fill="#231815" cx="55.924" cy="30.458" r="0.893"/>
	<circle fill="#231815" cx="78.219" cy="25.291" r="0.892"/>
	<g>
		<g>
			<path fill="#F8EEE3" d="M30.4,64.457c1.935,0,1.935-3,0-3S28.466,64.457,30.4,64.457L30.4,64.457z"/>
		</g>
	</g>
</g>
</svg>
