<?xml version="1.0" encoding="utf-8"?>
<!-- Generator: Adobe Illustrator 16.0.0, SVG Export Plug-In . SVG Version: 6.00 Build 0)  -->
<!DOCTYPE svg PUBLIC "-//W3C//DTD SVG 1.1//EN" "http://www.w3.org/Graphics/SVG/1.1/DTD/svg11.dtd">
<svg version="1.1" id="Layer_1" xmlns="http://www.w3.org/2000/svg" xmlns:xlink="http://www.w3.org/1999/xlink" x="0px" y="0px"
	 width="447.126px" height="621px" viewBox="0 0 447.126 621" enable-background="new 0 0 447.126 621" xml:space="preserve">
<g>
	<path fill="#805232" d="M153.852,555.834c0,0-6.445,15.157,21.661,18.994c28.106,3.838,46.405,6.335,46.405,6.335
		s11.997,1.638,12.917-11.456l-0.13-2.837L153.852,555.834z"/>
	<polygon fill="#95603C" points="152.618,523.588 153.41,558.517 234.835,569.707 229.955,515.938 	"/>
	<path fill="#B88055" d="M154.66,508.477c0,0,1.915,5.031,4.217,4.046c2.301-0.988-0.407,2.978-0.407,2.978l46.279-69.107
		c0,0,2.632-3.769,3.56-3.849c2.567-0.221,1.741,6.306,1.741,6.306l-1.074,71.378c0,0,2.879,4.293,5.588,0.329
		c0,0-2.192-88.73,0.633-93.545l-4.759-3.25c0,0-3.038,9.555-8.106,14.932L154.66,508.477z"/>
	<path fill="#E9C0C0" d="M371.881,581.118c-42.465-17.59-40.17-20.62-40.17-20.62c-9.712-9.538-31.324,7.531-31.324,7.531
		c12.716,14.309,38.805,22.754,38.805,22.754c23.685,6.322,22.344,22.711,22.344,22.711c1.85,14.06,21.371,0.898,21.371,0.898
		c5.896-5.466,15.113-6.118,15.113-6.118c16.995,0.327,26.977-12.986,26.977-12.986s1.965-2.73,0.947-5.21
		c-1.133-2.756-11.371-1.806-11.371-1.806s-20.016-0.779-26.641-3.068C379.973,582.455,371.881,581.118,371.881,581.118z"/>
	<path fill="#E9C0C0" d="M438.219,471.109c-0.354,2.58-3.961,7.209-6.747,10.452c-1.792,1.753-3.267,3.628-3.267,3.628
		c-7.331,9.242-19.162,15.461-19.162,15.461c-14.574,7.26-54.701-3.613-54.701-3.613l-20.131-5.582l-9.924,26.747
		c0,0,23.047,8.993,50.76,4.974c12.261-1.779,21.023-1.602,26.991-0.85c4.165,0.792,7.776,1.945,10.757,3.127
		c5.884,2.331,9.26,4.77,9.262,4.771h0.001c11.351,3.627,12.349-7.904,12.349-7.904c-0.978-14.007,7.818-25.52,10.717-42.52
		C448.021,462.803,438.797,466.855,438.219,471.109z"/>
	<path fill="#EC7267" d="M347.605,496.704c-0.258-1.754-1.699-3.264-4.518-4.352c-3.982-1.536-8.07-2.784-12.021-4.411
		c-7.877-3.242-15.745-6.523-23.54-9.963c-0.004-0.002-17.738-7.824-55.688-2.283c0,0-44.367,15.565-96.102-34.476l-47.624,36.845
		c0,0,8.889,5.889,20.538,40.083c0,0,9.982,36.279,70.447,17.419c0,0,1.338-0.33,1.343-0.332l1.46-0.363
		c6.344-1.355,31.602-4.383,40.1,30.571c0.816,4.981,1.844,11.871,2.617,19.176c0,0.009,0.002,0.017,0.002,0.024
		c0.612,5.77,1.447,11.45,1.219,17.271c-0.169,4.293-2.242,10.253-0.999,14.438c4.556,15.321,28.249-12.551,31.31-16.515
		c24.224-31.375,34.275-17.864,40.99-21.715c6.716-3.85,18.979-4.779,16.314-42.417c-0.525-7.426,0.205-15.069,3.199-21.954
		c1.92-4.417,5.201-7.787,8.417-11.284C346.957,500.422,347.862,498.442,347.605,496.704z"/>
	<path fill="#B88055" d="M220.75,491.274c0,0-0.32-6.114-1.74-6.307c-1.003-0.137-3.561,3.85-3.561,3.85l-43.467,64.398
		c0,0-2.4,3.681-4.824,1.996c-2.424-1.688-0.945-4.194-0.945-4.194l47.672-69.783c6.133-9.883,8.108-14.932,8.108-14.932
		l4.758,3.249c-2.826,4.817-0.633,93.546-0.633,93.546s-0.293,1.747-2.207,1.486c-1.915-0.261-2.776-1.895-2.776-1.895
		L220.75,491.274z"/>
	<polygon fill="#B88055" points="238.134,426.166 229.812,442.67 228.65,451.18 237.607,445.902 244.748,422.166 241.267,419.093 	
		"/>
	<path fill="#95603C" d="M231.287,442.691l-0.898-1.508c0,0-15.865,21.398-8.425,28.161c0,0,8.397,11.471,14.849-13.577
		l1.067-10.074C237.88,445.693,234.545,447.789,231.287,442.691z"/>
	<polyline fill="#B88055" points="238.738,425.729 257.523,384.632 418.124,0.087 423.326,0.087 237.887,444.963 	"/>
	<path fill="#E9C0C0" d="M254.547,334.906c0.996-0.199,1.901-0.321,2.521-0.392C256.195,334.564,255.335,334.712,254.547,334.906z"
		/>
	<polygon fill="#1E4D9F" points="216.513,363.603 216.515,363.603 216.513,363.603 	"/>
	<path fill="#E9C0C0" d="M259.316,329.396c-0.629,0.084-1.549,0.224-2.559,0.439c-1.283,0.338-2.521,1.076-3.258,1.571
		c-0.934,0.366-1.76,0.815-2.299,1.376c-0.002,0.004-4.769,4.361-11.622,6.664c-5.758,1.938-25.187,6.806-37.909,9.509
		c-1.667,0.585-3.512,1.17-5.486,1.745c-17.784,5.179-45.924,9.704-45.924,9.704l-9.871,25.193
		c14.121,9.287,65.241-19.799,65.241-19.799c5.461-2.291,9.312-3.594,12.022-4.316h0.001c0.036-0.017,17.103-7.262,23.757-8.685
		c0,0,1.445-0.039,3.357-0.463l11.518-14.813l1.758-2.14c0.947-2.736,2.119-5.595,2.237-5.987
		C260.007,329.393,259.589,329.379,259.316,329.396z"/>
	<polygon fill="#B88055" points="248.405,352.184 251.085,354.787 254.994,352.721 259.133,348.229 257.004,344.76 254.357,343.782 
			"/>
	<path fill="#B88055" d="M395.588,0.556L278.805,289.684c-0.535,0.75-1.334,2.604-2.513,6.246l-1.491,3.708l-5.048,10.775
		c-5.2,11.413-11.144,22.229-11.142,22.229l-1.641,3.027c-8.669,12.104-13.637,19.691-13.637,19.691l-16.071,29.215l-8.322,16.504
		l-1.163,8.512l8.957-5.28l23.215-47.783l5.617-6.511l4.822-9.494c0,0,13.041-24.863,17.713-37.677
		c4.656-12.768,123.33-302.325,123.33-302.325L395.588,0.556z"/>
	<path fill="#E9C0C0" d="M260.277,340.666c0,0-0.434,1.313-2.643-0.52c0,0-2.702-2.031-2.824,0.523c0,0,0.205,1.224,1.859,2.426
		c0,0,1.65,1.512,1.713,1.918c0,0,0.364,1.024-0.906-0.436c0,0-4.338-4.048-4.902-2.22c0,0-0.416,1.892,3.059,5.25
		c0,0,0.651,0.698,0.58,0.915c-0.068,0.219-0.85-0.108-2.934-2.122c0,0-1.697-1.962-2.543-0.658s2.157,5.614,2.635,5.945
		c0,0,0.185,0.293-0.083,0.612c-0.267,0.318-0.522,0.412-2.403-1.615c-1.883-2.029-2.563-1.947-2.312,0.528
		c0.253,2.473,2.189,5.39,4.089,5.677c0,0,1.766,0.397,2.594-1.351c0,0,0.225-0.77,0.178-1.307
		c-0.043-0.538,1.723,0.058,2.447-1.218c0.725-1.277,0.629-1.5,0.621-2.704s1.076,1.207,2.225-0.59
		c1.149-1.793,2.746-1.78,3.75-3.563c0,0,1.334-2.176-2.391-9.373L260.277,340.666z"/>
	<path fill="none" d="M119.804,306.132c-0.038-0.225-0.078-0.451-0.078-0.451S119.734,305.868,119.804,306.132z"/>
	<path fill="#E9C0C0" d="M123.143,317.461c-0.091,0.146-0.175,0.293-0.272,0.441C122.965,317.754,123.059,317.607,123.143,317.461z"
		/>
	<path fill="#204D9F" d="M122.871,317.902c-0.02,0.03-0.04,0.059-0.059,0.088c0.007-0.008,0.014-0.018,0.021-0.029
		C122.847,317.94,122.855,317.923,122.871,317.902z"/>
	<path fill="#E9C0C0" d="M66.188,319.98c-0.927-11.143,0.445-24.779,7.479-33.899c5.498-7.135,15.646-12.783,24.479-14.295
		c5.591-0.951,9.199-1.242,13.133,1.889c2.527,2.016,6.98,8.184,7.568,12.015c1.179,7.69,1.753,11.358,5.826,15.49
		c4.273,4.344-2.17,11.261-0.248,19.703c0.751,3.296-0.324,7.066-2.612,8.146c0,0-2.867,2.385-13.964,1.834
		c-9.317-0.464,10.188,26.405,10.188,26.405l-65.834,3.727L66.188,319.98z"/>
	<path fill="#204D9F" d="M119.875,306.363c-0.03-0.082-0.051-0.157-0.071-0.23C119.863,306.47,119.927,306.803,119.875,306.363z"/>
	<path fill="#040000" d="M108.115,341.395c6.336,10.656-11.167,15.29-11.167,15.29l8.873,6.241l5.888,4.706l27.569,24.747
		c28.407,0.75,24.061-20.754,24.061-20.754c-1.147-18.865-9.857-14.51-9.857-14.51c-7.96,1.623-19.225-4.452-25.726-8.586
		c-0.347-0.227-3.287-2.199-5.769-5.04c-0.368-0.422-0.854-0.776-1.412-1.08C120.576,342.409,116.924,338.788,108.115,341.395z"/>
	<path fill="#040000" d="M108.006,350.13c0,0-5.778,7.967-19.462,7.173c-13.684-0.797-22.003-6.537-22.851,21.895
		c0,0-5.228,47.838,19.958,79.26c0,0,4.611,10.656,22.473,19.54c0,0,9.864,7.144,17.264-5.792c0,0,7.249-17.409,19.248-22.377
		c0,0,14.6-0.024,11.473-11.324c0,0-16.687-22.537-16.815-44.885C139.167,371.268,132.953,354.46,108.006,350.13z"/>
	<path fill="#95603C" d="M219.315,401.132l0.233-1.703c0,0-15.893,20.08-9.057,27.012c0,0,7.655,12.748,14.673-12.121l1.37-10.032
		C226.535,404.287,222.235,406.298,219.315,401.132z"/>
	<path fill="#E9C0C0" d="M164.992,432.947c0,0,1.957,5.756,17.293,0.338c0,0,28.539-11.131,48.258-30.691
		c0,0,5.225-6.513,14.418-6.123c0,0,5.469,0.167,11.039-2.541c0,0,3.879-1.781,3.396,2.198c0,0-0.539,4.381-11.193,5.177
		c0,0-3.797,3.474,8.768,2.442c1.82-0.149,3.008-1.303,4.434,0.542c2.225,2.881-0.895,4.106-1.797,5.305
		c-0.807-0.111-2.186,0.434-2.979,0.562c0.396,0.205,1.454,0.707,1.588,1.203c0.51,1.913-1.661,3.183-2.812,4.232
		c-2.007,1.829-1.055,1.031-2.016,3.554c-0.496,1.297-2.129,1.218-2.707,2.326c-1.029,1.975,0.193,2.854-1.887,4.424
		c-1.463,1.102-3.504,1.424-5.285,1.588c-3.549,0.33-7.455-0.12-10.854-1.206c-0.002,0-5.676-1.813-18.74,9.21
		c0,0-44.843,32.118-62.006,32.953c0,0-6.973,0.435-8.779-7.586C143.131,460.854,140.813,429.066,164.992,432.947z"/>
	<path fill="#040000" d="M81.868,424.777c0,0,2.719,7.598,16.09,21.849c0,0,3.037,3.158,11.119,9.58
		c9.526,7.57,25.926,15.417,25.926,15.417s11.641,7.873,16.066,2.988c0,0,4.521-2.961,4.006-21.777c0,0-1.691-11.07,11.923-18.039
		c0,0-6.892-9.451-23.93-1.086c0,0-3.003,5.08-17.349-12.625c0,0-39.613-68.262-54.206-48.869
		C71.513,372.215,60.275,377.616,81.868,424.777z"/>
	<path fill="#B88055" d="M226.117,563.098c0,0,0.17,1.396-2.207,1.486c-3.057,0.117-2.776-1.895-2.776-1.895"/>
	<path fill="#F6F0F0" d="M109.149,276.77c0.012-0.021,7.713-13.519-23.887-11.358l-0.001,0.003
		c-12.041,0.054-26.553,5.626-38.716,26.298c0,0-5.494,11.781-21.979,21.689c-24.664,14.824-12.988,41.61-12.988,41.61
		s-0.306,20.324-7.798,29.602c-2.41,2.983-6.326,16.401,8.441,11.753c0,0,19.536-9.837,15.561,4.954
		c-1.856,6.906-8.014,15.489-10.242,23.652c-0.443,1.621-4.274,19.441,18.994,6.053c23.267-13.391,37.675-13.629,37.675-39.725
		c0,0-6.75-23.008,10.801-32.661c0,0,10.929-3.702,10.378-14.927c-2.144-14.736,12.146-26.441,0.369-31.427
		c-6.789-2.873-5.67-6.393-4.28-9.408c2.022-4.381,7.914,2.638,7.914,2.638s8.223,10.832,6.381,13.313
		c-1.841,2.479,6.787-4.478-0.593-12.669C95.654,295.588,106.646,287.837,109.149,276.77z"/>
</g>
</svg>
