<?xml version="1.0" encoding="utf-8"?>
<!-- Generator: Adobe Illustrator 16.0.0, SVG Export Plug-In . SVG Version: 6.00 Build 0)  -->
<!DOCTYPE svg PUBLIC "-//W3C//DTD SVG 1.1//EN" "http://www.w3.org/Graphics/SVG/1.1/DTD/svg11.dtd">
<svg version="1.1" id="Layer_1" xmlns="http://www.w3.org/2000/svg" xmlns:xlink="http://www.w3.org/1999/xlink" x="0px" y="0px"
	 width="178px" height="134px" viewBox="0 0 178 134" enable-background="new 0 0 178 134" xml:space="preserve">
<g>
	<path fill="#8F8F90" d="M89.199,24.919c0,0-49.713-4.408-58.8,42.125c-9.087,46.537,32.073,68.089,58.8,66.622
		c0,0,52.92-1.469,52.92-57.313C142.119,20.511,89.199,24.919,89.199,24.919z"/>
	<path fill="#F8EEE3" d="M135.1,81.138c0,0,4.02-41.527-38.4-49.117c-42.418-7.592-62.066,26.79-60.725,49.117
		c0,0,1.34,44.204,52.241,44.204C139.119,125.342,135.1,81.138,135.1,81.138z"/>
	<path fill="#EC7267" d="M88.487,37.303c0,0-7.82,17.913,0,25.732c0,0,4.541,7.569,31.788-7.567c0,0,27.248-11.605,28.256-21.192
		c0,0,4.037-8.578-15.137-23.715c0,0-26.238-20.183-35.824-4.037C97.57,6.524,91.938,22.72,88.487,37.303z"/>
</g>
</svg>
