<?xml version="1.0" encoding="utf-8"?>
<!-- Generator: Adobe Illustrator 16.0.0, SVG Export Plug-In . SVG Version: 6.00 Build 0)  -->
<!DOCTYPE svg PUBLIC "-//W3C//DTD SVG 1.1//EN" "http://www.w3.org/Graphics/SVG/1.1/DTD/svg11.dtd">
<svg version="1.1" id="Layer_1" xmlns="http://www.w3.org/2000/svg" xmlns:xlink="http://www.w3.org/1999/xlink" x="0px" y="0px"
	 width="116px" height="95px" viewBox="0 0 116 95" enable-background="new 0 0 116 95" xml:space="preserve">
<g>
	<g>
		<path fill="#4F89C8" d="M89.675,2.355L18.09,40.559c0,0-24.126,9.467-16.793,29.75c0,0,2.022,7.693,8.808,11.055
			c-0.23-0.729-0.459-1.485-0.68-2.305c-6.668-24.75,10.634-33.696,10.634-33.696l68.366-35.054c0,0,13.01-8.201,23.049-6.123
			C108.095,0.778,99.831-1.841,89.675,2.355z"/>
		<polygon fill="#4F89C8" points="23.924,90.809 30.424,94.809 30.424,74.309 23.924,80.059 		"/>
	</g>
	<path fill="#28459A" d="M111.474,4.186c-5.299-6.627-27.299,6.873-27.299,6.873L20.059,45.362c0,0-22.884,11.884-11.884,33.446
		c0.386,0.756,1.699,1.826,1.93,2.555c5.069,4.695,9.427,2.478,17.985-0.138l2.334-1.188v14.771
		c6.25-3.25,26.438-28.239,26.438-28.239l41.896-21.344c0,0,17.334-8.667,17.334-28.667C116.091,16.559,116.081,8.829,111.474,4.186
		z"/>
	<path fill="none" stroke="#FFFFFF" stroke-width="3" stroke-linecap="round" stroke-linejoin="round" stroke-miterlimit="10" d="
		M36.76,67.961c0-7.218-2.527-19.129,3.971-23.82"/>
	<path fill="none" stroke="#FFFFFF" stroke-width="3" stroke-linecap="round" stroke-linejoin="round" stroke-miterlimit="10" d="
		M32.789,59.299c1.805-1.803,4.332-3.248,7.219-4.33"/>
	<path fill="none" stroke="#FFFFFF" stroke-width="3" stroke-linecap="round" stroke-linejoin="round" stroke-miterlimit="10" d="
		M48.67,50.275c-4.691,0.722-7.219,9.746-2.527,11.189c6.137,1.805,10.107-9.023,3.25-11.189"/>
	<path fill="none" stroke="#FFFFFF" stroke-width="3" stroke-linecap="round" stroke-linejoin="round" stroke-miterlimit="10" d="
		M56.609,36.563c0,6.495,1.805,16.24,1.084,20.934"/>
	<path fill="none" stroke="#FFFFFF" stroke-width="3" stroke-linecap="round" stroke-linejoin="round" stroke-miterlimit="10" d="
		M63.829,32.23c0,7.219,0.361,14.437,0.361,22.016"/>
	<path fill="none" stroke="#FFFFFF" stroke-width="3" stroke-linecap="round" stroke-linejoin="round" stroke-miterlimit="10" d="
		M73.935,38.364c-3.969,1.085-8.301,10.829-1.805,11.189c4.693,0,7.941-11.189,1.445-11.189"/>
	<path fill="none" stroke="#FFFFFF" stroke-width="3" stroke-linecap="round" stroke-linejoin="round" stroke-miterlimit="10" d="
		M80.433,34.396c1.082,2.887,1.805,6.136,3.969,8.301c2.166-2.889,2.166-7.58,3.248-10.828c1.445,2.527,2.166,5.414,4.332,7.58
		c1.443-3.25,0.723-7.219,1.443-10.828"/>
</g>
</svg>
