<?xml version="1.0" encoding="utf-8"?>
<!-- Generator: Adobe Illustrator 16.0.0, SVG Export Plug-In . SVG Version: 6.00 Build 0)  -->
<!DOCTYPE svg PUBLIC "-//W3C//DTD SVG 1.1//EN" "http://www.w3.org/Graphics/SVG/1.1/DTD/svg11.dtd">
<svg version="1.1" id="Layer_1" xmlns="http://www.w3.org/2000/svg" xmlns:xlink="http://www.w3.org/1999/xlink" x="0px" y="0px"
	 width="116px" height="95px" viewBox="0 0 116 95" enable-background="new 0 0 116 95" xml:space="preserve">
<g>
	<path fill="#4F89C8" d="M89.674,2.355L18.089,40.56c0,0-24.126,9.466-16.793,29.749c0,0,2.022,7.693,8.808,11.057
		c-0.23-0.73-0.459-1.486-0.68-2.307c-6.668-24.75,10.634-33.695,10.634-33.695L88.424,10.31c0,0,13.012-8.201,23.051-6.123
		C108.096,0.778,99.83-1.84,89.674,2.355z"/>
	<polygon fill="#4F89C8" points="23.923,90.809 30.423,94.809 30.423,74.309 23.923,80.059 	"/>
</g>
<path fill="#28459A" d="M111.475,4.187c-5.301-6.627-27.301,6.873-27.301,6.873L20.059,45.362c0,0-22.884,11.884-11.884,33.446
	c0.386,0.756,1.699,1.826,1.93,2.555c5.069,4.695,9.427,2.479,17.985-0.139l2.334-1.188v14.771c6.25-3.25,26.438-28.24,26.438-28.24
	l41.896-21.343c0,0,17.334-8.667,17.334-28.667C116.09,16.56,116.08,8.83,111.475,4.187z"/>
<path fill="none" stroke="#FFFFFF" stroke-width="3" stroke-linecap="round" stroke-linejoin="round" stroke-miterlimit="10" d="
	M39.198,52.849c-4.691,0.723-7.219,9.746-2.527,11.189c6.137,1.805,10.107-9.023,3.25-11.189"/>
<path fill="#FFFFFF" d="M28.947,65.965c-1.266,2.734-5.3,5.526-6.781,1.367c-1.214-3.41,1.817-9.086,5.844-8.331
	c1.891,0.354,2.698-2.536,0.798-2.893c-6.458-1.211-11.179,6.216-9.535,12.021c0.761,2.688,3.097,4.648,5.948,4.342
	c2.84-0.306,5.156-2.486,6.316-4.993C32.345,65.735,29.759,64.21,28.947,65.965z"/>
<path fill="#FFFFFF" d="M91.805,33.111c-1.157,2.499-4.846,5.051-6.198,1.25c-1.106-3.116,1.662-8.304,5.341-7.613
	c1.728,0.325,2.464-2.317,0.729-2.643c-5.901-1.106-10.216,5.68-8.714,10.986c0.695,2.456,2.83,4.247,5.435,3.967
	c2.597-0.279,4.713-2.272,5.773-4.563C94.909,32.902,92.546,31.508,91.805,33.111z"/>
<path fill="#FFFFFF" d="M55.073,53.938c0.036,0.818,1.014,1.344,1.739,1.215c0.884-0.156,1.25-0.922,1.214-1.738
	c-0.025-0.602-0.092-1.193-0.198-1.777c0.008-0.123,0.007-0.248-0.015-0.387c-0.529-3.227-1-10.419-6.114-8.184
	c-1.786,0.78-2.926,2.32-3.622,4.168c-0.103-0.381-0.207-0.763-0.321-1.141c-0.554-1.828-3.514-1.325-2.954,0.524
	c1.101,3.631,1.62,7.395,2.798,11.002l0.002,0.012h0.001c0.042,0.127,0.078,0.256,0.121,0.383c0.553,1.621,3.167,0.721,2.831-0.908
	c-0.701-3.396-0.723-7.676,1.466-10.554c1.32-1.736,1.82-0.45,2.165,0.953c0.169,0.691,0.278,1.394,0.373,2.101"/>
<path fill="#FFFFFF" d="M64.924,47.049c-0.056,0.056-0.092,0.091-0.135,0.132c-0.115-0.302-0.182-0.676-0.243-0.896
	c-0.385-1.362-0.48-2.821-0.563-4.24c0.88-0.353,1.781-0.661,2.7-0.941c2.1-0.638,1.045-3.877-1.056-3.236
	c-0.589,0.179-1.177,0.368-1.761,0.573c-0.009-1.445,0.004-2.892-0.045-4.337c-0.073-2.195-3.475-2.034-3.401,0.159
	c0.063,1.882,0.045,3.764,0.085,5.641c-0.61,0.331-1.203,0.692-1.765,1.108c-1.757,1.297,0.082,4.165,1.853,2.856
	c0.042-0.031,0.09-0.054,0.132-0.085c0.078,0.769,0.175,1.537,0.316,2.302c0.642,3.483,3.164,6.567,6.399,3.256
	C68.979,47.768,66.457,45.482,64.924,47.049z"/>
<path fill="#FFFFFF" d="M100.757,30.198c-0.056,0.056-0.092,0.091-0.135,0.132c-0.115-0.302-0.182-0.676-0.243-0.896
	c-0.385-1.362-0.48-2.821-0.563-4.24c0.88-0.353,1.781-0.661,2.7-0.941c2.1-0.638,1.045-3.877-1.056-3.236
	c-0.589,0.179-1.177,0.368-1.761,0.573c-0.009-1.445,0.004-2.892-0.045-4.337c-0.073-2.195-3.475-2.034-3.401,0.159
	c0.063,1.882,0.045,3.764,0.085,5.641c-0.61,0.331-1.203,0.692-1.765,1.108c-1.757,1.297,0.082,4.165,1.853,2.856
	c0.042-0.031,0.09-0.054,0.132-0.085c0.078,0.769,0.175,1.537,0.316,2.302c0.642,3.483,3.164,6.566,6.399,3.256
	C104.812,30.917,102.29,28.63,100.757,30.198z"/>
<path fill="#FFFFFF" d="M82.195,39.34c-0.926-0.909-1.488-1.512-1.667-2.813c-0.217-1.573-0.729-3.073-1.114-4.609
	c-0.104-0.413-0.316-0.704-0.582-0.895c-0.266-0.352-0.637-0.61-1.072-0.713c-0.026-0.007-0.053-0.007-0.079-0.011
	c-0.172-0.089-0.368-0.143-0.595-0.143c-3.485,0.012-5.096,1.53-6.432,5.42c-1.187,3.458-0.833,7.901,2.439,9.309
	c2.755,1.183,4.928-0.944,6.074-3.917c0.227,0.237,0.46,0.47,0.697,0.702C81.383,43.16,83.715,40.831,82.195,39.34z M74.558,41.653
	c-2.089,0.185-1.581-3.151-1.243-4.532c0.562-2.289,1.406-3.148,3.05-3.335c0.048,0.069,0.114,0.117,0.172,0.174
	c0.22,0.834,0.435,1.663,0.612,2.504C77.099,38.733,76.169,41.51,74.558,41.653z"/>
</svg>
