<?xml version="1.0" encoding="utf-8"?>
<!-- Generator: Adobe Illustrator 16.0.0, SVG Export Plug-In . SVG Version: 6.00 Build 0)  -->
<!DOCTYPE svg PUBLIC "-//W3C//DTD SVG 1.1//EN" "http://www.w3.org/Graphics/SVG/1.1/DTD/svg11.dtd">
<svg version="1.1" id="Layer_1" xmlns="http://www.w3.org/2000/svg" xmlns:xlink="http://www.w3.org/1999/xlink" x="0px" y="0px"
	 width="1066px" height="472px" viewBox="0 0 1066 472" enable-background="new 0 0 1066 472" xml:space="preserve">
<g>
	<g>
		<polygon fill="#FFFFFF" points="972.959,259.689 1050.959,471.898 802.293,471.898 733.626,280.356 		"/>
		<polygon fill="none" stroke="#172A54" stroke-miterlimit="10" points="806.293,455.794 1025.211,437.128 968.959,271.794 
			746.461,290.461 		"/>
	</g>
	<path fill="#FFFAFC" d="M271.826,262.597l182.754-58.286l105.413,82.197l63.979,62.499c0,0,9.147,6.5,0,8.5
		c-9.146,2-195.265,63.5-195.265,63.5s-5.382,4-8.882-3s-153-149.5-153-149.5s-1.75-2.5,2-4.5
		C271.473,262.595,271.826,262.597,271.826,262.597z"/>
	<g>
		<path fill="#C2D3EC" d="M283.326,268.46c0,0-6.334,1.334,0,5.667s116.667,114.667,116.667,114.667s4,3.666,7.667,2.333
			c3.666-1.333,181.666-59,181.666-59s6-1.558,0-4.945S471.814,209.835,471.814,209.835l-7.429-5.239L283.326,268.46z"/>
		<g>
			<defs>
				<path id="SVGID_1_" d="M283.326,268.46c0,0-6.334,1.334,0,5.667s116.667,114.667,116.667,114.667s4,3.666,7.667,2.333
					c3.666-1.333,181.666-59,181.666-59s6-1.558,0-4.945S471.814,209.835,471.814,209.835l-7.429-5.239L283.326,268.46z"/>
			</defs>
			<clipPath id="SVGID_2_">
				<use xlink:href="#SVGID_1_"  overflow="visible"/>
			</clipPath>
			<g clip-path="url(#SVGID_2_)">
				<path fill="#231815" d="M502.922,292.96c0,0,13.615,20.364,9.951,38.087c0,0-18.25,12.255-42.416,14.989l-11.938,2.528
					c0,0-3.757-0.691,0.325,3.56c4.079,4.254,14.934,12.604,17.244,17.599c2.309,4.994-76.781,50.049-76.781,50.049l-21.75-53.254
					c0,0,16.925-32.436,14.133-44.822c-2.795-12.389,49.455-10.393,58.617-4.092c0,0,27.938,1.028,26.874-10.17
					C476.117,296.234,502.922,292.96,502.922,292.96z"/>
				<path fill="#F6F0F0" d="M459.969,284.347c0,0,30.135,38.169,32.445,40.224c2.311,2.054,7.867,29.508-5.34,16.187
					s-7.489,5.233-19.393-4.528c-11.902-9.76-24.613-15.18-24.613-15.18S444.992,278.375,459.969,284.347z"/>
				<path fill="#F6F0F0" d="M455.686,251.694c0,0-1.18-12.698-18.458-15.376s-30.288-8.641-42.073,16.1
					c-11.788,24.741,0.986,41.307-2.264,53.707c-3.252,12.398-8.887,33.758-6.71,40.768s4.571,9.19,7.276,12.697
					c2.708,3.506,11.279,8.07,21.182,4.899c9.902-3.169,19.123-6.079,21.215-3.163c2.09,2.916,11.734,3.148,15.953,1.946
					c4.221-1.201,1.189-9.124-8.49-17.6c-9.678-8.479-16.852-25.345-26.455-34.057c0,0-14.555-17.103,3.676-35.056
					C438.769,258.608,448.258,262.938,455.686,251.694z"/>
				<path fill="#E9C0C0" d="M414.492,270.631c0,0-5.16-11.445-12.981,0.217c-7.821,11.665,5.11,17.434,5.11,17.434
					s-0.555,0.363,1.532,5.531c3.417,8.465,11.198,30.283,28.802,35.521c0,0,12.768,5.849,13.681-3.997c0,0,0.627-4.925,3.573-5.155
					c0,0,3.277-2.42,1.393-4.797c0,0,0.943-2.631,2.475-3.215c1.531-0.586,2-2.42,1.481-4.284c-0.52-1.866-1.925-4.012-0.565-4.532
					c1.361-0.522,7.158-0.153,4.59-6.863c-2.568-6.709-1.97-9.914-1.655-11.459c1.129-5.536-2.508-36.813-11.028-34.938
					C432.731,254.091,419.172,289.482,414.492,270.631z"/>
				<g>
					<path fill="#FFFFFF" d="M456.496,287.628c-8.212-2.604-7.43-8.288-7.43-8.288l1.394-23.083l0.375-7.667
						c0,0-0.304-2.814,3.366-3.344c-2.957-0.746-6.268-0.436-6.699,4.438l-0.523,2.668l-1.199,27.388c0,0-0.729,6.06,6.043,8.388
						c6.772,2.327,31.457,11.503,31.457,11.503l4.679-0.622l1.122-0.094h-0.001C489.079,298.914,464.707,290.23,456.496,287.628z"/>
					<path fill="#B7B9C4" d="M512.667,295.932c0.056,0.107-22.591-31.716-22.591-31.716l-31.08-16.925c0,0-2.27-1.408-4.795-2.045
						c-3.67,0.529-3.366,3.344-3.366,3.344l-0.375,7.667l-1.394,23.083c0,0-0.782,5.685,7.43,8.288
						c8.211,2.603,32.583,11.286,32.583,11.286h0.001l14.646-1.207C503.727,297.707,512.611,295.826,512.667,295.932z"/>
					
						<ellipse transform="matrix(0.8856 -0.4644 0.4644 0.8856 -78.0618 242.4974)" fill="#231815" cx="453.323" cy="279.741" rx="2.244" ry="2.764"/>
					
						<ellipse transform="matrix(0.8856 -0.4644 0.4644 0.8856 -75.2244 241.907)" fill="#DF982C" cx="453.469" cy="273.662" rx="1.434" ry="1.766"/>
					<g>
						<path fill="none" stroke="#FFFFFF" stroke-linecap="round" stroke-linejoin="round" stroke-miterlimit="10" d="
							M476.729,288.568c0.841,0.428,1.683,0.857,2.507,0.861"/>
						<path fill="none" stroke="#FFFFFF" stroke-linecap="round" stroke-linejoin="round" stroke-miterlimit="10" d="
							M477.553,288.57c0.037-1.106,0.233-2.299,0.02-3.491"/>
						<path fill="none" stroke="#FFFFFF" stroke-linecap="round" stroke-linejoin="round" stroke-miterlimit="10" d="
							M475.494,284.645c1.235,0.004,2.579,0.605,3.744,0.865"/>
						<path fill="none" stroke="#FFFFFF" stroke-linecap="round" stroke-linejoin="round" stroke-miterlimit="10" d="
							M476.426,283.283c0.054-0.682,0.036-1.107,0.091-1.789"/>
						<path fill="none" stroke="#FFFFFF" stroke-linecap="round" stroke-linejoin="round" stroke-miterlimit="10" d="
							M476.479,282.602c0.86,0.856,2.114,1.287,3.261,1.121c0.232-0.34,0.216-0.766,0.198-1.191"/>
						<path fill="none" stroke="#FFFFFF" stroke-linecap="round" stroke-linejoin="round" stroke-miterlimit="10" d="
							M478.164,283.461c-0.107-0.596-0.215-1.193-0.071-1.703"/>
						<path fill="none" stroke="#FFFFFF" stroke-linecap="round" stroke-linejoin="round" stroke-miterlimit="10" d="
							M476.375,278.086c0.841,0.43,2.006,0.69,2.83,0.694c0.232-0.341,0.143-0.513,0.216-0.767"/>
						<path fill="none" stroke="#FFFFFF" stroke-linecap="round" stroke-linejoin="round" stroke-miterlimit="10" d="
							M475.73,274.506c1.236,0.004,2.329,0.52,3.422,1.035c0.484-0.254,0.305-0.596,0.287-1.021"/>
						<path fill="none" stroke="#FFFFFF" stroke-linecap="round" stroke-linejoin="round" stroke-miterlimit="10" d="
							M477.417,267.525c-1.863,0.76-0.396,4.344,1.396,3.84c2.294-0.332,0.825-3.916-1.629-3.5"/>
						<path fill="none" stroke="#FFFFFF" stroke-linecap="round" stroke-linejoin="round" stroke-miterlimit="10" d="
							M479.408,265.83c0.178,0.34,0.429,0.428,0.77,0.684"/>
						<path fill="none" stroke="#FFFFFF" stroke-linecap="round" stroke-linejoin="round" stroke-miterlimit="10" d="
							M481.854,286.969c-0.609,1.191-0.629,2.725-0.574,4.002"/>
						<path fill="none" stroke="#FFFFFF" stroke-linecap="round" stroke-linejoin="round" stroke-miterlimit="10" d="
							M482.176,288.76c0.841,0.429,1.755,0.604,2.49,0.437"/>
						<path fill="none" stroke="#FFFFFF" stroke-linecap="round" stroke-linejoin="round" stroke-miterlimit="10" d="
							M481.711,285.52c0.502,0.174,0.752,0.26,1.164,0.26"/>
						<path fill="none" stroke="#FFFFFF" stroke-linecap="round" stroke-linejoin="round" stroke-miterlimit="10" d="
							M482.946,285.525c-0.124-1.024,0.002-1.961,0.289-2.98"/>
						<path fill="none" stroke="#FFFFFF" stroke-linecap="round" stroke-linejoin="round" stroke-miterlimit="10" d="
							M481.641,281.856c0.251,0.086,0.663,0.087,1.075,0.089"/>
						<path fill="none" stroke="#FFFFFF" stroke-linecap="round" stroke-linejoin="round" stroke-miterlimit="10" d="
							M481.462,279.555c0.144-0.51,0.288-1.021,0.359-1.276"/>
						<g>
							<g>
								<path fill="#FFFFFF" d="M481.287,280.249c0.1,0.112,0.247,0.153,0.34,0.257c0.429,0.482,1.134-0.227,0.707-0.707
									c-0.1-0.112-0.248-0.152-0.34-0.257C481.566,279.059,480.861,279.769,481.287,280.249L481.287,280.249z"/>
							</g>
						</g>
						<path fill="none" stroke="#FFFFFF" stroke-linecap="round" stroke-linejoin="round" stroke-miterlimit="10" d="
							M482.232,280.238c-0.09-0.17-0.09-0.17-0.18-0.34"/>
					</g>
				</g>
				<path fill="#DBAFAF" d="M515.822,283.889c0,0,3.176,0.784,3.232-5.285c0.055-6.072-2.766-7.041-3.693-7.045
					s-0.953-0.643-1.074-2.05c-0.12-1.405-0.844-5.435-5.494-4.302c0,0-1.492-0.198-1.652-2.564
					c-0.16-2.365-3.115-4.994-6.557-3.059c0,0-3.732,0.201-4.869-2.262c-1.137-2.461-5.047-2.859-5.047-2.859
					s-4.139,0.046-5.201,2.726c0,0-2.002,6.812,0.348,13.608c2.35,6.799,2.424,12.009,4.507,5.951
					c2.083-6.061,2.448-6.68,2.177-9.455c-0.268-2.773,3.508-2.061,3.508-2.061s0.42,8.744-2.176,13.206s-5.808,12.093,0.594,12.131
					c6.402,0.038,4.698-5.272,4.698-5.272l0.05-4.597l4.008-2.099l3.025-3.725c0,0,1.051,7.168-1.021,9.952
					c-2.07,2.782-2.256,4.517,0.416,4.012c2.674-0.504,4.236-2.466,4.236-2.466l2.994-1.406L515.822,283.889z"/>
				<path fill="#CEA4A4" d="M480.803,256.205c0,0-2.645,2.182-0.107,5.924s5.092,1.603,5.092,1.603l0.121-5.11
					C485.908,258.621,481.914,254.27,480.803,256.205z"/>
				<path fill="#E9C0C0" d="M486.396,328.354c0,0,7.144,16.011,11.079,18.52c3.938,2.506,18.574-6.636,18.574-6.636l2.933-5.293
					c0,0-3.827-5.83-4.499-8.581c-0.671-2.752-3.664-10.815-3.664-10.815s4.184-9.375,4.213-16.085
					c0.029-6.709,3.162-11.619,1.645-13.925s-2.811-5.384-2.811-5.384s-3.702-5.568-8.982-7.698l-2.447,3.567
					c0,0,1.744,4.8,4.002,5.575c2.258,0.778,2.497,6.528,2.497,6.528s-2.032,6.127-3.12,5.229s0.528-9.583-3.957-19.314
					c0,0-2.494-12.407-7.91-11.854c-5.416,0.553-0.408,12.459-0.408,12.459s2.604,10.555,0.787,14.445
					c-1.815,3.891-0.914,3.256-2.459,1.779c0,0-3.074-11.45-3.745-12.731s-1.896-12.147-1.896-12.147s-0.629-6.789-5.404-5.013
					c-4.775,1.775-3.033,13.925-3.033,13.925l4.775,21.17c0,0,0.43,1.408-1.506,2.422c-1.936,1.015-2.74-0.521-2.74-0.521
					s-4.649-3.277-7.736-12.109c-3.086-8.828-8.596-5.615-9.129-4.52c-0.533,1.095-3.678,2.744,1.868,12.734
					s8.839,11.857,8.839,11.857s3.088,2.951,3.396,5.893s6.313,8.445,8.287,11.656C485.818,326.695,485.853,327.162,486.396,328.354
					z"/>
				<path fill="#F0D8D8" d="M463.537,282.727c0,0-4.367,0.494-1.156,4.852c3.209,4.359,4.783,0.594,4.783,0.594
					S470.109,281.73,463.537,282.727z"/>
				<path fill="#F0D8D8" d="M481.234,261.767c0,0-3.592,1.973-1.375,4.73c0,0,1.182,1.666,2.996,0.714
					c1.814-0.951,2.68-2.315,1.609-3.99C483.395,261.547,482.597,261.127,481.234,261.767z"/>
				<path fill="#F0D8D8" d="M491.432,265.939c0,0,2.498,2.625,5.014,1.307s-0.504-4.656-0.504-4.656s-2.893-1.199-4.124,1.142
					C491.817,263.731,491.409,265.223,491.432,265.939z"/>
				<path fill="#F0D8D8" d="M503.967,275.181c0,0,2.5,3.013,4.832,0.071c0,0-3.084-2.62-3.504-2.008L503.967,275.181z"/>
				<path fill="#231815" d="M505.477,363.901c-0.344-0.658-0.334-2.11-2.416-6.079c-2.081-3.971-3.424-5.062-3.424-5.062
					s-0.861,0.123-1.074-2.051c-0.215-2.173-3.01-4.953-3.01-4.953l-0.738-1.409c0,0,1.086,4.818,13.547-1.714
					s9.438-9.356,9.438-9.356s1.465-0.439,2.148,2.629c0.685,3.07,2.232,3.729,2.232,3.729s1.881,1.299,1.209,2.307
					c-0.676,1.006,5.145,10.34,5.145,10.34L505.477,363.901z"/>
				<path fill="#F6F0F0" d="M417.689,288.568c1.9-8.9-2.162-14.907-2.162-14.907l7.495-17.952l13.229-7.938
					c0,0,13.018-1.173,10.727,4.58c0,0-17.956,16.293-16.956,23.189c1,6.897-12.001,8.183-5.667,23.373c0,0,8,14.479,3.334,15.168
					c0,0,0.666-6.978-4.334-11.978S417.285,290.461,417.689,288.568z"/>
			</g>
		</g>
	</g>
	<path fill="#989898" d="M776.312,245.362c-1.028-4.493-27.845-10.757-58.922-16.557l-180.796-89.299c0,0-23.268-13-42.768-3l-86,42
		l-1.551,0.814l-20.96-3.32c0,0-2.728,7.807-0.767,19.002c0.589,4.784,6.627,8.441,6.627,8.441
		c30.023,16.309,241.65,120.563,241.65,120.563s18,6.5,32,0s101.5-51.5,101.5-51.5s5.883-2.77,8.617-6.757
		C774.943,265.75,778.765,261.123,776.312,245.362"/>
	<g>
		<g>
			<path fill="#4F89C8" d="M570.576,3.304l-71.584,38.203c0,0-24.127,9.467-16.794,29.75c0,0,2.022,7.693,8.808,11.055
				c-0.23-0.729-0.459-1.485-0.68-2.305c-6.668-24.75,10.635-33.696,10.635-33.696l68.365-35.054c0,0,13.01-8.201,23.049-6.123
				C588.996,1.727,580.732-0.893,570.576,3.304z"/>
			<polygon fill="#4F89C8" points="504.826,91.757 511.326,95.757 511.326,75.257 504.826,81.007 			"/>
		</g>
		<path fill="#28459A" d="M592.375,5.134c-5.299-6.627-27.299,6.873-27.299,6.873l-64.115,34.304c0,0-22.885,11.884-11.885,33.446
			c0.386,0.756,1.699,1.826,1.93,2.555c5.07,4.695,9.427,2.478,17.986-0.138l2.334-1.188v14.771
			c6.25-3.25,26.438-28.239,26.438-28.239l41.895-21.344c0,0,17.334-8.667,17.334-28.667
			C596.992,17.507,596.982,9.777,592.375,5.134z"/>
		<path fill="none" stroke="#FFFFFF" stroke-width="3" stroke-linecap="round" stroke-linejoin="round" stroke-miterlimit="10" d="
			M517.662,68.909c0-7.218-2.527-19.129,3.97-23.82"/>
		<path fill="none" stroke="#FFFFFF" stroke-width="3" stroke-linecap="round" stroke-linejoin="round" stroke-miterlimit="10" d="
			M513.691,60.247c1.805-1.803,4.332-3.248,7.219-4.33"/>
		<path fill="none" stroke="#FFFFFF" stroke-width="3" stroke-linecap="round" stroke-linejoin="round" stroke-miterlimit="10" d="
			M529.572,51.224c-4.691,0.722-7.219,9.746-2.527,11.189c6.137,1.805,10.106-9.023,3.249-11.189"/>
		<path fill="none" stroke="#FFFFFF" stroke-width="3" stroke-linecap="round" stroke-linejoin="round" stroke-miterlimit="10" d="
			M537.512,37.511c0,6.495,1.805,16.24,1.083,20.934"/>
		<path fill="none" stroke="#FFFFFF" stroke-width="3" stroke-linecap="round" stroke-linejoin="round" stroke-miterlimit="10" d="
			M544.73,33.179c0,7.219,0.361,14.437,0.361,22.016"/>
		<path fill="none" stroke="#FFFFFF" stroke-width="3" stroke-linecap="round" stroke-linejoin="round" stroke-miterlimit="10" d="
			M554.836,39.313c-3.97,1.085-8.301,10.829-1.805,11.189c4.692,0,7.941-11.189,1.445-11.189"/>
		<path fill="none" stroke="#FFFFFF" stroke-width="3" stroke-linecap="round" stroke-linejoin="round" stroke-miterlimit="10" d="
			M561.333,35.345c1.083,2.887,1.805,6.136,3.97,8.301c2.166-2.889,2.166-7.58,3.248-10.828c1.444,2.527,2.166,5.414,4.332,7.58
			c1.443-3.25,0.722-7.219,1.443-10.828"/>
	</g>
	<path fill="#FFFFFF" d="M407.826,162.007l-20,10.5c0,0-7.5,7,0,12.5s245,122.5,245,122.5s18,6.5,32,0s101.5-51.5,101.5-51.5
		s25.5-12-5-22l-224.732-111c0,0-23.268-13-42.768-3L407.826,162.007z"/>
	<ellipse fill="none" stroke="#6D6D6D" stroke-miterlimit="10" cx="702.875" cy="271.347" rx="13.452" ry="8.75"/>
	<ellipse fill="#CBCBCB" cx="451.428" cy="151.653" rx="3.289" ry="2.139"/>
	<ellipse fill="#585959" cx="428.708" cy="214.826" rx="4.694" ry="5.277"/>
	<ellipse fill="#CBCBCB" cx="457.239" cy="142.741" rx="2.659" ry="1.729"/>
	<ellipse fill="#585959" cx="444.778" cy="222.844" rx="4.694" ry="5.277"/>
	<path fill="#EDEDEC" d="M402.326,199.257l8.25,4.25c0,0,2.5,0.75,2.5,4c0,4.75-3,1.597-3,1.597l-12.25-6.097c0,0-1.25,0-1.25-3.75
		s2.75-1.75,2.75-1.75L402.326,199.257z"/>
	<ellipse fill="#FFFFFF" cx="426.809" cy="214.604" rx="4.75" ry="5.5"/>
	<ellipse fill="#FFFFFF" cx="442.879" cy="222.621" rx="4.75" ry="5.5"/>
	<path fill="#CBCBCB" d="M471.33,143.509c-0.754-1.147-2.359-0.117-2.359-0.117l-9.383,4.406l-1.113,0.475
		c0,0-2.275,0.85-1.253,1.734c1.144,0.988,2.491,0,2.491,0l10.446-4.756C472.177,144.186,472.06,144.62,471.33,143.509z"/>
	<polygon fill="#E3E9F5" points="488.826,144.47 404.826,188.007 622.826,298.007 751.326,232.507 529.222,123.007 	"/>
	<path fill="#28459A" d="M616.826,180.507c0,0-8.337-3.052-15,0l-11.5,4.5l0,0l-63.5,29.597l-9.648,5.5
		c0,0-13.194,6.403,2.227,13.903c15.422,7.5,25.326,0,25.326,0l75.096-37.033C619.826,196.974,630.916,188.837,616.826,180.507z"/>
	<g>
		<g>
			<g>
				<path fill="#28459A" d="M553.845,355.259c4.45,0.846,10.031,5.485,7.627,10.493c0.288,0,0.575,0,0.863,0
					c-1.576-3.245,0.626-7.97,4.655-7.222c1.267,0.235,1.006,0.794,1.984,0.141c0.867-0.58,0.433-1.939,1.339-2.545
					c-0.201-0.262-0.403-0.523-0.605-0.785c-0.035,0.034-0.069,0.068-0.104,0.102c-0.199,0.195-0.185,0.511,0,0.707
					c0.487,0.519,1.389,0.637,2.05,0.788c0.306,0.069,0.645-0.146,0.633-0.482c-0.059-1.667,0.041-3.357-0.46-4.966
					c-0.321,0.089-0.644,0.177-0.965,0.266c0.942,2.439,1.4,4.558,1.39,7.187c0.333,0,0.667,0,1,0
					c-0.156-1.3,0.817-2.519,0.66-3.831c-0.167,0.167-0.333,0.333-0.5,0.5c0.827-0.058,1.68,0.622,2.336,1.073
					c0.198,0.137,0.438,0.056,0.605-0.078c0.775-0.614,1.019-1.794,1.247-2.707c-0.004,0.018,2.074,0.046,2.359,0.022
					c0.747-0.063,1.413-0.504,2.026-0.888c-0.244-0.1-0.489-0.199-0.734-0.299c0.322,2.271,2.087,3.949,2.408,6.216
					c0.321-0.089,0.644-0.177,0.965-0.266c-0.776-2.37,0.816-3.24,1.422-5.29c0.183-0.62-0.782-0.883-0.965-0.266
					c-0.71,2.405-2.306,3.121-1.422,5.821c0.206,0.629,1.053,0.358,0.965-0.266c-0.322-2.271-2.087-3.949-2.408-6.216
					c-0.046-0.32-0.485-0.455-0.734-0.299c-1.224,0.765-2.12,0.593-3.4,0.769c-0.518,0.071-1.302,0.079-1.445,0.694
					c-0.087,0.373-0.2,0.737-0.314,1.103c-0.313,0.994,0.023,1.13-0.725,0.66c-0.646-0.405-1.403-0.84-2.186-0.785
					c-0.246,0.018-0.534,0.216-0.5,0.5c0.156,1.3-0.817,2.519-0.66,3.831c0.075,0.623,0.997,0.662,1,0
					c0.011-2.744-0.438-4.897-1.425-7.452c-0.228-0.589-1.16-0.361-0.965,0.266c0.473,1.517,0.369,3.13,0.425,4.7
					c0.211-0.161,0.422-0.321,0.633-0.482c-0.653-0.149-0.969-0.448-1.504,0.075c0.4-0.392-0.127-1.105-0.605-0.785
					c-1.151,0.769-0.957,2.828-2.554,2.304c-1.381-0.454-2.861,0.047-4.007,0.817c-2.549,1.714-3.04,5.273-1.777,7.872
					c0.158,0.326,0.706,0.328,0.863,0c2.684-5.589-3.047-10.978-8.225-11.962C553.48,354.175,553.212,355.139,553.845,355.259
					L553.845,355.259z"/>
			</g>
		</g>
		<g>
			<g>
				<path fill="#28459A" d="M588.165,346.074c-0.314-0.717,0.179-1.725,0.751-2.157c1.208-0.912,1.802,1.182,2.075,1.902
					c0.812,2.143,0.226,4.008-0.647,6.042c-0.114,0.267-0.052,0.675,0.299,0.734c2.185,0.371,2.9-0.918,4.736-1.737
					c0.589-0.262,0.079-1.124-0.504-0.863c-1.436,0.64-2.237,1.931-3.967,1.636c0.1,0.245,0.199,0.49,0.299,0.734
					c0.703-1.637,1.394-3.328,1.188-5.142c-0.108-0.949-0.617-3.227-1.391-3.804c-2.166-1.617-4.749,0.773-3.702,3.158
					C587.561,347.168,588.422,346.658,588.165,346.074L588.165,346.074z"/>
			</g>
		</g>
		<g>
			<g>
				<path fill="#28459A" d="M594.635,340.648c-4.392,1.221-0.855,9.598,3.057,9.332
					C601.561,349.718,599.323,339.838,594.635,340.648c-0.635,0.11-0.365,1.073,0.266,0.965c3.836-0.664,4.788,7.732,2.141,7.357
					c-2.314-0.328-5.13-6.527-2.141-7.357C595.521,341.44,595.257,340.476,594.635,340.648L594.635,340.648z"/>
			</g>
		</g>
	</g>
	<g>
		<g>
			<polygon fill="#FFFFFF" points="3.6,404.794 181.6,318.794 370.934,454.127 334.267,471.67 72.267,471.67 			"/>
			<polygon fill="none" stroke="#172A54" stroke-miterlimit="10" points="180.934,329.462 328.934,432.795 254.934,471.67 
				84.934,471.67 18.267,407.464 			"/>
		</g>
		<g>
			<polygon fill="#EADBCC" points="181.872,327.61 333.474,433.458 257.674,473.279 83.536,473.279 15.247,407.51 			"/>
			<g>
				<defs>
					<polygon id="SVGID_3_" points="181.872,327.61 333.474,433.458 257.674,473.279 83.536,473.279 15.247,407.51 					"/>
				</defs>
				<clipPath id="SVGID_4_">
					<use xlink:href="#SVGID_3_"  overflow="visible"/>
				</clipPath>
				<g clip-path="url(#SVGID_4_)">
					<path fill="#201B08" d="M208.598,356.284c-11.574-14.104-16.388-27.361-16.388-27.361l20.035,9.265
						c30.178,18.387,59.913,71.553,59.994,77.156c0.081,5.605-6.516,8.117-6.516,8.117s28.694,14.681,33.087,15.625
						c4.393,0.941,5.916,7.605,5.916,7.605l-44.219-23.594c0,0-24.272,10.155-29.519,15.977c-5.245,5.824-7.192,10.393-7.192,10.393
						s-1.481,2.022,2.323,2.986c3.804,0.964,58.379,16.942,58.379,16.942l-7.613,5.919c0,0-58.67-26.74-60.407-21.902
						c-1.734,4.836,10.878,55.623,7.664,58.558c-3.216,2.935-7.234,5.624-7.234,5.624l-15.862-60.465c0,0-1.899-6.368-9.259,0.662
						c-7.36,7.029,7.271,74.555,7.271,74.555l-6.853,5.331l-17.972-67.104c0,0-2.789-4.374-1.139-6.964
						c1.65-2.592-3.717-7.136-38.523,12.52c0,0,0.877,21.553-3.908,28.758c-4.779,7.202-10.19,1.822-10.19,1.822l-3.791-24.52
						c0,0-23.343,7.69-27.025,13.168l-5.281-6.789l18.187-8.037l30.914-14.45c0,0,17.302-13.888,21.53-16.308
						c4.23-2.416,16.283-7.868,21.777-6.037l13.272-7.021c0,0-38.176,5.896-67.777,14.968
						c-29.601,9.068-32.102,14.492-36.054,16.479c-3.953,1.988-12.412,6.823-12.412,6.823l-1.478-1.903
						c0,0,26.183-22.105,30.496-22.842l-36.412,15.238l-1.69-2.177c0,0,48.424-24.142,58.404-26.233s18.395-3.842,18.395-3.842
						s-10.063,0.414-41.946,7.337l-37.427,14.716l25.883-12.28l32.772-8.919c0,0-17.631-0.676-26.513,3.615
						c-8.881,4.289,37.297-17.241,51.314-15.713c14.018,1.527,28.057-2.412,28.057-2.412s-64.851-11.91-69.715-10.307
						c-4.863,1.6,17.553-6.237,41.988-5.191c24.438,1.055,42.024,4.814,42.024,4.814s20.333,7.293,21.94,3.863
						c1.608-3.43-31.324-9.646-31.324-9.646s-53.633-14.14-61.898-19.486c-0.528-0.344-0.872-0.648-1.004-0.912
						c-2.195-4.393,27.098,8.137,48.534,5.852c21.439-2.283,48.039,13.855,48.039,13.855s-66.63-40.904-66.839-43.529
						c0,0,11.711,6.418,16.997,5.36c5.285-1.063,47.942,5.874,71.438,29.019c0,0,3.409,1.242-1.801-6.242
						C226.839,379.531,208.598,356.284,208.598,356.284z"/>
					<path fill="#484E25" d="M253.752,487.203l15.229-11.842c0,0-13.352-17.955-10.26-27.334s3.741-32.116-11.947-29.505
						c-15.688,2.606-18.942,0.777-23.936,7.713c0,0,5.495,3.138,8.151,12.839c2.66,9.705,30.168,38.01,30.168,38.01
						s-5.41-1.457-16.188-7.464c-10.779-6.003-57.113-15.31-57.113-15.31l53.598,24.147
						C241.453,478.458,253.457,485.252,253.752,487.203z"/>
					<path fill="#484E25" d="M146.392,431.623l46.464,3.979c0,0,13.917-11.261,19.055-10.895
						C211.91,424.707,151.509,427.211,146.392,431.623z"/>
					<path fill="#484E25" d="M125.459,511.549c0,0,6.396-18.488,6.021-29.966c-0.373-11.479,3.884-17.011,3.884-17.011
						s-13.22,4.219-24.469,8.605c-11.25,4.385-25.838,9.194-26.269,20.426c0,0,13.127-4.635,20.598-11.221
						c0,0,13.07-11.475,4.629-0.33c-8.441,11.139-12.592,27.012-10.65,30.294c0,0,10.127-24.294,16.152-29.705
						c0,0,7.188,29.867,6.68,31.571C121.525,515.914,123.677,517.238,125.459,511.549z"/>
					<path fill="#E9C0C0" d="M137.476,393.946c0,0-2.846,29.51,0.465,32.986c3.311,3.474,6.178,7.957,6.178,7.957l24.848-4.099
						c0,0,0.055-8.549,3.473-14.341c3.417-5.792,10.523-23.295,10.523-23.295s3.555-5.898-2.365-7.786c0,0-3.439-0.457-2.57-2.475
						c0.868-2.02-2.678-6.762-3.107-6.539c-0.432,0.223-1.025-0.319-0.572-1.121c0.453-0.801,7.32-20.078,2.773-19.951
						c-4.551,0.123-6.863,10.372-6.863,10.372l-8.001,20.658c0,0-1.927,2.896-2.21,1.802c-0.283-1.091,5.931-14.691,5.931-14.691
						l-5.931-3.922l-6.438,16.154c0,0-1.954,3.867-2.619,4.383c-0.664,0.519-4.827,9.463-4.827,9.463s-2.686,3.209-1.846-0.021
						c0.842-3.227-0.244-3.056,2.008-6.819c2.252-3.766,1.139-7.938-0.258-8.757c0,0-1.328-1.313-4.664,4.188
						C141.401,388.094,137.561,393.014,137.476,393.946z"/>
					<path fill="#D3A988" d="M163.324,363.966l5.125,0.589c0,0,1.755-6.779-0.876-6.637
						C164.942,358.062,163.324,363.966,163.324,363.966z"/>
					<path fill="#EC7267" d="M86.684,496.221l25.927,3.567c0,0,8.353,2.905,9.816,0.87c1.465-2.036,23.541-24.576,21.101-37.896
						c-2.44-13.323-2.276-32.701-2.276-32.701l28.412-2.915c0,0,1.42,34.339,2.457,37.911c1.038,3.57,5.738,11.298,10.023,16.024
						c4.285,4.728,10.141,31.063,1.788,37.558s-6.347,9.859-6.563,12.715c-0.218,2.854-11.662,20.261-19.798,20.766
						c-8.137,0.508-18.278,0.785-20.447,4.262C134.952,559.859,86.684,496.221,86.684,496.221z"/>
				</g>
			</g>
		</g>
	</g>
	<g>
		<polygon fill="#BEA58B" points="804.743,457.816 1027.926,438.59 971.1,269.839 743.746,287.518 		"/>
		<g>
			<defs>
				<polygon id="SVGID_5_" points="804.743,457.816 1027.926,438.59 969.363,262.674 743.746,287.518 				"/>
			</defs>
			<clipPath id="SVGID_6_">
				<use xlink:href="#SVGID_5_"  overflow="visible"/>
			</clipPath>
			<g clip-path="url(#SVGID_6_)">
				<path fill="#BEA58B" d="M1026.011,372.415c0,0-89.279,5.14-127.27,7.341c-37.992,2.204-84.757,5.779-110.756,3.018
					c-26-2.762,17.682,70.41,17.682,70.41l155.316,47.723l84.021-26.092L1026.011,372.415z"/>
				<path fill="#E3DACF" d="M1024.183,313.91L734.35,292.844c0,0,37.413,83.899,34.53,95.277
					c-3.307,13.057,257.831-7.023,257.831-7.023L1024.183,313.91z"/>
				<path fill="#E9C0C0" d="M836.601,425.566c0,0,21.813-3.777,24.451,10.656l-4.201,17.543l-27.411,1.922L836.601,425.566z"/>
				<path fill="#E9C0C0" d="M977.702,417.289c0,0-2.641-17.679-18.209-13.902c-15.57,3.773-17.154,13.371-17.154,13.371
					l16.626,36.529h31.806L977.702,417.289z"/>
				<path fill="#F6F0F0" d="M881.116,286.19c0,0,26.655-12.61,40.641,29.253c13.987,41.856,16.361,43.457,12.93,51.457
					c-3.432,7.998-70.723,21.062-75.736,13.596c-5.013-7.463-5.54-22.928-1.582-37.327c3.958-14.396,3.693-28.794,3.693-28.794
					S861.326,288.667,881.116,286.19z"/>
				<path fill="#E9C0C0" d="M888.507,297.311c0,0,17.491,24.264,22.997,29.332c5.503,5.063,2.871,15.996,1.944,17.861
					c-0.929,1.867-4.359,17.063-18.081,23.462c0,0-5.794,1.489-12.926-4.586c-7.128-6.08-13.99-13.024-14.781-29.815
					c-0.793-16.789,4.485-32.252,11.347-34.386C885.868,297.046,886.261,294.227,888.507,297.311z"/>
				<path fill="#EC7267" d="M834.323,428.07c0,0,22.848-6.223,24.793,9.498l1.945,18.119l97.903-2.4l-11.61-34.664
					c0,0-3.092-7.059,3.075-10.716c6.169-3.657,16.647-8.585,23.279,0c6.631,8.585,0.298-7.413-5.771-13.013
					c-6.069-5.599-14.25-34.66-25.334-32.262c-11.082,2.4-8.181-2.133-20.056,2.934s-8.104-3.463-11.044,0.535
					c-2.942,3.998-2.678-6.135-2.678-9.332c0-3.199-8.182,10.932-13.459,11.196c-5.276,0.267-14.515-3.999-17.416-9.332
					c0,0,0.791,12.53-2.903,12.53s-2.902,0.002-6.861,1.334c-3.958,1.334-7.125-1.064-10.555,2.135
					c-3.432,3.197-5.001,3.733-5.792,3.467c-0.793-0.27-5.957,0.125-8.359,6.168C840.037,392.931,834.058,425.855,834.323,428.07z"
					/>
				<path fill="#606060" d="M871.063,463.393c0,0,0.791-21.596,10.82-31.729c10.027-10.129,12.402-17.637,12.402-17.637
					s0-9.023,6.068-9.559c6.07-0.533,1.848-11.463,5.277-13.596c3.432-2.134-2.375-19.466-4.221-19.998
					c-1.848-0.533,5.54,0.532,15.041,11.197c0,0,0.528,0,4.223-1.333c3.694-1.332,17.153,0.269,18.737,3.466
					c0,0,7.652-6.132,12.401-10.664c4.75-4.533,5.541-0.533,5.541,2.668c0,3.198,0.265,11.463-2.373,17.061
					c0,0-2.113,4.268-1.849,7.199c0.265,2.935-0.791,11.199-4.751,15.465c-3.957,4.268-5.805,21.33-5.805,21.33
					s0.264,23.196-9.5,27.463C923.314,468.992,871.063,463.393,871.063,463.393z"/>
			</g>
		</g>
	</g>
	<path opacity="0.3" fill="#030000" d="M1066.648,468.19L873.65,375.857c0,0-24.015-10.004-55.669-7.338
		s-77.124-25.334-77.124-25.334s-23.863-9.332-35.863-10.666c0,0-6.834-1.502-5.667-6.336c1.167-4.832,17.833-5.332,27.333-4.332
		c0,0,4.5,0.313,4.5-1.928s-5.166-3.404-5.166-3.404s-108.668-43.437-94.668-60.053c0,0,5.238-12.388,36.479,5.555
		c0.283,0.162,0.568,0.328,0.855,0.496c32,18.666,45,16.334,51,11.334s19.667-14.332,52.667-15.666c0,0,33.976-6.002,45.654,0.666
		c11.679,6.666,14.922,8.332,26.134,12c11.212,3.666,42.879,19,53.212,26s33.011,10.784,37,12
		c3.989,1.214,105.66,27.348,132.671,44.348L1066.648,468.19z"/>
	<g>
		<path fill="#DFAFAF" d="M871.926,164.847c0,0,12.44-38.229-2.823-43.345c0,0-20.632-11.583-35.925,23.355l-30.518,57.957
			c0,0,1.597,18.992,39.209,16.621c0,0,16.094,6.985,21.762-7.879c0,0,16.197-1.646,17.348-17.794c0,0,0.28-13.727-6.648-20.443
			C874.33,173.319,870.479,169.9,871.926,164.847z"/>
		<path fill="#E9C0C0" d="M742.146,225.739c0,0,5.658,0.574,9.408,3.074s36.75,15.353,76.75-3.074c0,0,32-11.676,9.5-21.676
			c0,0-24-10-47.75,1.25"/>
		<path fill="#FBEDE4" d="M844.115,216.093c0,0-16.311-4.278-23.311,3.888c0,0-10.121,9.962-2.811,9.897
			C817.994,229.878,836.092,224.539,844.115,216.093z"/>
		<path fill="#E9C0C0" d="M926.32,134.604c0,0-57.016-12.79-61.516-3.29s-9,67-113.5,92c0,0-15.5,1.5-35,18s-48.5,34-67,17
			c0,0-10.5-6.5,17-23.5c0,0,38-22,49-43.5c0,0-39,49-98,42.5c0,0-47-3.5-40-27.5c0.285-0.45,6.676-9.252,30.5-0.5
			c0,0,21.5,12,66-29.5c0,0,106.714-139.826,173-149.044c0,0,102-18.793,147.25,0l-61.75,108.794L926.32,134.604z"/>
		<path fill="#FBEDE4" d="M667.305,237.813c0,0,5.5-3.25,8.25,2.25s-2.75,16-13.75,21c0,0-4.912,0.941-9.5-4c0,0-4.25-5.383,0-8.066
			C652.305,248.997,664.395,238.733,667.305,237.813z"/>
		<path fill="#FBEDE4" d="M579.305,208.063c0,0,3.25,11,15.5,7.5c0,0,9.763-4.289,10-7.5c0,0,0.801-2.49-8.5-4.25c0,0-11-3.5-17,2
			C579.305,205.813,578.735,206.663,579.305,208.063z"/>
		<path fill="#DFAFAF" d="M715.305,191.313c0,0,34.666-46.667,38.166-71.167c0,0,0.5-2.833,1.334-2.833s0.834,1.167,0,4.5
			S741.389,163.446,715.305,191.313z"/>
		<path fill="#DFAFAF" d="M741.564,225.854c0,0,57.377-13.11,75.553-29.906c0,0,7.998-5.076,8.644-4.55
			c0.648,0.525-4.322,4.692-7.072,6.751C815.938,200.209,779.384,220.694,741.564,225.854z"/>
		<path fill="#E9C0C0" d="M852.834,220.895c0,0,9.595-13.338,9.602-19.413c0,0-0.219-0.731,0.051-0.783s0.943-0.056,0.826,0.793
			C863.196,202.341,859.992,212.612,852.834,220.895z"/>
		<path fill="#FBEDE4" d="M845.822,204.146c0,0,0.482-7.834,9.149-7s10.833,1.167,10.833,1.167s3.498-0.029-2,10
			c0,0-5.311,11.063-12.5,9.421C851.305,217.734,846.673,217.646,845.822,204.146z"/>
		<path fill="#FBEDE4" d="M879.805,186.763c0,0-0.333-3.667-7.833,2.833c0,0-8.5,5.501-5,12.334c0,0,7.147,7.521,11.24,1.844
			C878.212,203.773,883.638,195.763,879.805,186.763z"/>
		<path fill="#204D9F" d="M1066.998,29.589c0,0-72.75-15.325-114.639-12.479c-45.369,3.082-52.825,75.755-39.759,114.753
			c0,0-2.283,27.346,157.399,45.383L1066.998,29.589z"/>
	</g>
</g>
</svg>
