<?xml version="1.0" encoding="utf-8"?>
<!-- Generator: Adobe Illustrator 16.0.0, SVG Export Plug-In . SVG Version: 6.00 Build 0)  -->
<!DOCTYPE svg PUBLIC "-//W3C//DTD SVG 1.1//EN" "http://www.w3.org/Graphics/SVG/1.1/DTD/svg11.dtd">
<svg version="1.1" id="Layer_1" xmlns="http://www.w3.org/2000/svg" xmlns:xlink="http://www.w3.org/1999/xlink" x="0px" y="0px"
	 width="78.5px" height="78.5px" viewBox="0 -28.5 78.5 78.5" enable-background="new 0 -28.5 78.5 78.5" xml:space="preserve">
<line fill="none" stroke="#231F20" stroke-width="4" stroke-linecap="round" stroke-miterlimit="10" x1="181.375" y1="-8.427" x2="219.637" y2="29.927"/>
<line fill="none" stroke="#000000" stroke-width="4" stroke-linecap="round" stroke-miterlimit="10" x1="219.637" y1="-8.52" x2="181.375" y2="30.02"/>
<g>
	<g>
		<g enable-background="new    ">
			<g>
				<polygon points="59.288,-6.56 59.288,-3.943 55.274,-7.952 55.274,-10.569 				"/>
			</g>
			<g>
				<polygon points="23.225,-10.569 23.225,-7.952 19.22,-3.943 19.22,-6.56 				"/>
			</g>
			<g>
				<polygon points="55.274,-10.569 55.274,-7.952 39.254,8.055 39.254,5.438 				"/>
			</g>
			<g>
				<polygon points="39.254,5.438 39.254,8.055 23.225,-7.952 23.225,-10.569 				"/>
			</g>
			<g>
				<polygon fill="#FFFFFF" points="59.288,-6.561 59.288,-3.943 43.259,12.055 43.259,9.438 				"/>
			</g>
			<g>
				<polygon fill="#FFFFFF" points="35.24,9.438 35.24,12.055 19.22,-3.943 19.22,-6.561 				"/>
			</g>
			<g>
				<polygon points="63.527,-6.56 63.527,-3.943 47.498,12.055 47.498,9.438 				"/>
			</g>
			<g>
				<polygon points="31.001,9.438 31.001,12.055 14.972,-3.943 14.972,-6.56 				"/>
			</g>
			<g>
				<polygon points="35.24,9.438 35.24,12.055 19.22,28.063 19.22,25.445 				"/>
			</g>
			<g>
				<polygon points="59.288,25.445 59.288,28.063 43.259,12.055 43.259,9.438 				"/>
			</g>
			<g>
				<polygon fill="#FFFFFF" points="39.254,13.446 39.254,16.063 23.225,32.07 23.225,29.453 				"/>
			</g>
			<g>
				<polygon fill="#FFFFFF" points="55.274,29.453 55.274,32.07 39.254,16.063 39.254,13.446 				"/>
			</g>
			<g>
				<polygon fill="#FFFFFF" points="59.288,25.445 59.288,28.062 55.274,32.07 55.274,29.453 				"/>
			</g>
			<g>
				<polygon fill="#FFFFFF" points="23.225,29.453 23.225,32.07 19.22,28.062 19.22,25.445 				"/>
			</g>
			<g>
				<path d="M63.527-6.56L47.498,9.438l16.029,16.007l-8.253,8.241L39.254,17.68L23.225,33.687l-8.253-8.241L31.001,9.438
					L14.972-6.56l8.253-8.242L39.254,1.205l16.021-16.007L63.527-6.56z M59.288,25.445L43.259,9.438L59.288-6.56l-4.014-4.009
					L39.254,5.438L23.225-10.569L19.22-6.56L35.24,9.438L19.22,25.445l4.005,4.008l16.029-16.007l16.021,16.007L59.288,25.445"/>
			</g>
			<g>
				<polygon fill="#FFFFFF" points="55.274,-10.569 59.288,-6.561 43.259,9.438 59.288,25.445 55.274,29.453 39.254,13.446 
					23.225,29.453 19.22,25.445 35.24,9.438 19.22,-6.561 23.225,-10.569 39.254,5.438 				"/>
			</g>
			<g>
				<polygon points="39.254,17.68 39.254,20.296 23.225,36.304 23.225,33.687 				"/>
			</g>
			<g>
				<polygon points="63.527,25.445 63.527,28.063 55.274,36.304 55.274,33.687 				"/>
			</g>
			<g>
				<polygon points="55.274,33.687 55.274,36.304 39.254,20.296 39.254,17.68 				"/>
			</g>
			<g>
				<polygon points="23.225,33.687 23.225,36.304 14.972,28.063 14.972,25.445 				"/>
			</g>
		</g>
	</g>
</g>
</svg>
