<?xml version="1.0" encoding="utf-8"?>
<!-- Generator: Adobe Illustrator 16.0.0, SVG Export Plug-In . SVG Version: 6.00 Build 0)  -->
<!DOCTYPE svg PUBLIC "-//W3C//DTD SVG 1.1//EN" "http://www.w3.org/Graphics/SVG/1.1/DTD/svg11.dtd">
<svg version="1.1" id="레이어_1" xmlns="http://www.w3.org/2000/svg" xmlns:xlink="http://www.w3.org/1999/xlink" x="0px"
	 y="0px" width="240.333px" height="163px" viewBox="0 0 240.333 163" enable-background="new 0 0 240.333 163"
	 xml:space="preserve">
<path d="M100.118,123.71V76.711c0,0,0-5.5-5.667-7.5H81.118l-18.333-5h-16.5c0,0-9.5,0.5-9,8.333l-0.019,19.334l56.353,31
	C93.618,122.878,96.785,124.878,100.118,123.71z"/>
<polygon fill="#FFFFFF" stroke="#000000" stroke-miterlimit="10" points="40.451,83.878 66.951,55.711 104.784,93.211 
	93.914,102.72 "/>
<path fill="#F5CAB2" stroke="#000000" stroke-miterlimit="10" d="M32.784,83.878h51.333c0,0,5.166-0.5,6.333,5l8.774,35.066
	l-59.941,0.133l-9.5-35.199C29.784,88.878,28.295,83.878,32.784,83.878z"/>
<path d="M200.117,123.71V76.711c0,0,0-5.5-5.666-7.5h-13.334l-18.332-5h-16.5c0,0-9.5,0.5-9,8.333l-0.019,19.334l56.352,31
	C193.617,122.878,196.785,124.878,200.117,123.71z"/>
<polygon fill="#FFFFFF" stroke="#000000" stroke-miterlimit="10" points="140.451,83.878 166.951,55.711 204.785,93.211 
	193.914,102.72 "/>
<path fill="#EECF96" stroke="#000000" stroke-miterlimit="10" d="M132.784,83.878h51.333c0,0,5.166-0.5,6.334,5l8.773,35.066
	l-59.94,0.133l-9.5-35.199C129.784,88.878,128.295,83.878,132.784,83.878z"/>
</svg>
