<?xml version="1.0" encoding="utf-8"?>
<!-- Generator: Adobe Illustrator 16.0.0, SVG Export Plug-In . SVG Version: 6.00 Build 0)  -->
<!DOCTYPE svg PUBLIC "-//W3C//DTD SVG 1.1//EN" "http://www.w3.org/Graphics/SVG/1.1/DTD/svg11.dtd">
<svg version="1.1" id="레이어_1" xmlns="http://www.w3.org/2000/svg" xmlns:xlink="http://www.w3.org/1999/xlink" x="0px"
	 y="0px" width="240.333px" height="163px" viewBox="0 0 240.333 163" enable-background="new 0 0 240.333 163"
	 xml:space="preserve">
<rect x="28.292" y="43.834" fill="none" stroke="#000000" stroke-miterlimit="10" width="183.748" height="90.333"/>
<rect x="69.551" y="76.178" fill="#FFFFFF" stroke="#000000" stroke-miterlimit="10" width="107.034" height="22.719"/>
<line fill="none" stroke="#000000" stroke-miterlimit="10" x1="69.551" y1="83.396" x2="177.417" y2="83.396"/>
<line fill="none" stroke="#000000" stroke-miterlimit="10" x1="69.551" y1="91.313" x2="176.583" y2="91.313"/>
<polygon fill="#FFFFFF" stroke="#000000" stroke-miterlimit="10" points="51.251,87.979 60.636,82.354 70.021,76.619 70.021,87.979 
	70.021,98.479 60.636,93.604 "/>
<polygon points="60.199,82.766 60.175,87.92 60.151,93.07 55.701,90.475 51.251,87.879 55.725,85.323 "/>
<rect x="176.583" y="76.178" fill="#FFFFFF" stroke="#000000" stroke-miterlimit="10" width="7.25" height="22.719"/>
<rect x="25.292" y="40.834" fill="#B2D2C4" stroke="#000000" stroke-miterlimit="10" width="6" height="6"/>
<rect x="112.083" y="40.834" fill="#B2D2C4" stroke="#000000" stroke-miterlimit="10" width="6" height="6"/>
<rect x="208.583" y="40.834" fill="#B2D2C4" stroke="#000000" stroke-miterlimit="10" width="6" height="6"/>
<rect x="25.292" y="131.167" fill="#B2D2C4" stroke="#000000" stroke-miterlimit="10" width="6" height="6"/>
<rect x="112.083" y="131.167" fill="#B2D2C4" stroke="#000000" stroke-miterlimit="10" width="6" height="6"/>
<rect x="208.583" y="131.167" fill="#B2D2C4" stroke="#000000" stroke-miterlimit="10" width="6" height="6"/>
</svg>
