<?xml version="1.0" encoding="utf-8"?>
<!-- Generator: Adobe Illustrator 16.0.0, SVG Export Plug-In . SVG Version: 6.00 Build 0)  -->
<!DOCTYPE svg PUBLIC "-//W3C//DTD SVG 1.1//EN" "http://www.w3.org/Graphics/SVG/1.1/DTD/svg11.dtd">
<svg version="1.1" id="레이어_1" xmlns="http://www.w3.org/2000/svg" xmlns:xlink="http://www.w3.org/1999/xlink" x="0px"
	 y="0px" width="163px" height="161px" viewBox="0 0 163 161" enable-background="new 0 0 163 161" xml:space="preserve">
<rect x="3.667" y="4.333" fill="#FFFFFF" stroke="#000000" stroke-miterlimit="10" width="155.333" height="17"/>
<rect x="128.583" y="10.167" fill="#ABABD0" stroke="#000000" stroke-miterlimit="10" width="5.667" height="5.333"/>
<rect x="137.667" y="10.167" fill="#ABABD0" stroke="#000000" stroke-miterlimit="10" width="5.667" height="5.333"/>
<rect x="147.251" y="10.167" fill="#ABABD0" stroke="#000000" stroke-miterlimit="10" width="5.667" height="5.333"/>
<rect x="3.667" y="21.225" fill="#ABABD0" stroke="#000000" stroke-miterlimit="10" width="155.333" height="137.334"/>
<path d="M29.663,43.346c0,0,0.957-1.567,1.555,0.285c0,0,2.956,1.266,4.349,0.396c0,0,1.13,0.851-0.309,1.391
	c-1.439,0.541-0.661,0.094-0.661,0.094s-3.111,0.608-4.631-0.02c0,0-0.242,3.801-2.82,2.524c0,0-0.467-1.07,0.258-1.298
	c0,0,0.929-0.574,0.886-1.325c0,0-3.801,0.348-4.069-3.338c0,0,0.311-0.928,1.052-0.149C25.271,41.904,27.416,44.273,29.663,43.346z
	"/>
<path d="M37.407,58.242c0,0,1.618-2.248,1.72,0.261c0,0,2.746-0.219,4.851,2.766c0,0-0.968,1.483-1.897,0.269
	c0,0-2.848-2.291-4.207,0.005c0,0-1.232,2.299-3.617,1.058l1.577-2.242c0,0-2.154-1.842-4.278-0.343c0,0-1.05-1.618,1.984-2.489
	C33.539,57.527,36.77,56.565,37.407,58.242z"/>
<path d="M83.408,135.571c0,0,1.617-2.249,1.721,0.261c0,0,2.746-0.219,4.852,2.767c0,0-0.969,1.482-1.898,0.268
	c0,0-2.848-2.29-4.207,0.006c0,0-1.232,2.298-3.617,1.058l1.577-2.241c0,0-2.155-1.844-4.278-0.344c0,0-1.049-1.62,1.983-2.49
	C79.541,134.854,82.771,133.894,83.408,135.571z"/>
<path d="M46.232,74.837c0,0-3.084-2.763-2.468-4.364c0.615-1.602,0.124-0.018,0.124-0.018S42.34,69.622,42,71.985
	c0,0,0.589,4.167,3.158,4.183c0,0-2.218,1.281-3.531,1.214c0,0-0.355,0.471,0.853,0.974c0,0,2.101,1.765,3.618-0.006l0.886-1.177
	c0,0,2.502,1.625,5.197,0.149c0,0,2.012-1.251-0.775-1.616c0,0-3.895,0.13-3.104-0.529c0,0,0.462-1.496-0.993-1.669
	C47.307,73.507,46.24,73.406,46.232,74.837z"/>
<path d="M52.778,88.703c0,0,0.409-1.572,1.31-1.006c0,0,1.359,0.691,0.218,1.548c0,0,3.543,0.265,4.82-0.233
	c0.045-0.018,0.086-0.036,0.126-0.056c1.15-0.572,0.492,2.14-1.365,2.402c0,0-3.435,0.706-4.069-0.655c0,0-0.739,3.48-1.49,3.082
	c0,0-2.156-0.295-1.165-1.539l1.166-1.807c0,0-4.167,0.445-4.053-2.103c0,0-0.657-2.187,0.611-1.483
	C48.888,86.854,51.284,88.852,52.778,88.703z"/>
<path d="M117.678,74.051c0,0,0.409-1.573,1.31-1.006c0,0,1.36,0.691,0.218,1.548c0,0,3.543,0.265,4.82-0.233
	c0.045-0.018,0.086-0.036,0.127-0.056c1.149-0.573,0.491,2.14-1.365,2.402c0,0-3.436,0.707-4.07-0.656c0,0-0.738,3.481-1.489,3.082
	c0,0-2.156-0.294-1.164-1.54l1.165-1.806c0,0-4.166,0.446-4.053-2.103c0,0-0.656-2.187,0.611-1.483
	C113.787,72.201,116.184,74.198,117.678,74.051z"/>
<path d="M62.695,103.493c0,0,0.016-1.676,1.655-1.245c0,0,1.122,0.347,0.506,1.129c-0.616,0.781-0.093,0.014-0.093,0.014
	s2.106,1.5,4.197,0.889c0,0,1.362,0.029,0.645,0.762c0,0-2.011,3.188-4.548,0.643c0,0-0.751-0.398-1.394,1.081
	c0,0-0.376,0.684-0.311,1.369c0,0-1.683,0.654-1.833-0.131c-0.01-0.053-0.014-0.111-0.009-0.177c0.072-1.052,0.79-2.006,0.79-2.006
	s-4.055,1.457-5.168-1.73c0,0-0.269-0.563,0.863-0.596C57.993,103.494,61.753,104.193,62.695,103.493z"/>
<path d="M72.38,119.766c0,0,2.441-1.04,2.7,0.125c0,0-0.725,0.228-0.739,0.798c0,0,2.94-1.078,4.509,2.203
	c0,0-0.696,1.771-2.104,0.298c0,0-2.095-1.078-3.329-0.224c-0.034,0.024-0.067,0.05-0.1,0.075c-1.217,0.994-1.956,1.129-2.106,2.066
	c0,0-0.227,0.632-1.582-0.471c0,0-0.309-0.619,1.031-1.188l0.745-0.987c0,0-2.661-2.077-4.003-2.191c0,0-1.737-1.353,1.529-1.468
	C68.93,118.802,71.123,119.124,72.38,119.766z"/>
<path d="M94.969,118.982c0,0,0.291-1.807,1.545-0.976c0,0,0.912,0.503,0.765,1.239c0,0,1.048-0.023,1.487,1.894
	c0,0,1.081,2.288,2.029,2.448c0,0-0.268,1.384-2.063,0.292c0,0-2.232-1.503-2.183-2.643l-0.53,0.416c0,0-0.834,1.254-0.828,1.885
	c0,0-1.859,1.735-2.01,0.073c0,0,1.356-1.419,1.346-2.088c0,0-4.607,1.034-4.639-1.865c0,0,0.096-1.107,1.268-0.559
	C91.156,119.1,93.318,119.512,94.969,118.982z"/>
<path d="M99.887,101.6c0,0-1.162,0.375-0.462,0.971l4.289,1.098c0,0-2.496,2.657-1.277,3.021c0,0,1.073,0.228,2.606-2.103
	c0,0,3.252,2.917,4.833,0.926c0,0,0.333-0.773-1.125-1.04c0,0-2.679-0.704-2.313-1.177c0.023-0.031,0.062-0.062,0.115-0.091
	c0.849-0.468,0.165-1.507-0.997-1.469c0,0-0.623,0.12-1.075,0.909C104.48,102.645,103.693,100.73,99.887,101.6z"/>
<path d="M111.607,86.316c0,0-1.439-1.396-4.369-0.393c0,0-0.799,0.008-1.131-0.408c0,0-1.192-0.252-0.641,0.68
	c0,0,1.394,2.266,5.057,1.537l-1.494,1.642c0,0-0.576,1.177,0.086,1.293c0,0,1.166,0.255,2.813-2.081c0,0,0.701-0.541,1.188,1.852
	c0,0,1.259,3.105,3.176,2.371c0,0,0.793-0.049-0.521-1.146c0,0-0.33-1.518-1.097-2.937c-0.1-0.185-0.206-0.368-0.321-0.546
	c-0.996-1.542-0.979-1.118-1.007-1.099c-0.029,0.02-0.029,0.02-0.029,0.02s0.844-1.065-0.303-1.472
	C113.014,85.629,112.202,85.207,111.607,86.316z"/>
<path d="M126.027,59.214c0,0-1.738-1.691-3.036-0.16c0,0-1.098,1.251-1.625,1.313c-0.048,0.005-0.091,0.001-0.128-0.015
	c-0.447-0.188-0.299,0.863,0.184,1.3c0,0,1.203,0.924,1.836-0.26c0,0,2.333-1.359,1.752-0.415l-1.254,1.713
	c0,0-0.41,0.815,0.766,0.944c0,0,0.961-0.051,2.52-2.123c0,0,0.752-0.042,0.803,1.654c0,0-0.166,2.253,0.69,2.511
	c0,0,1.187,0.653,0.913-1.434c-0.273-2.086-0.012-0.083-0.012-0.083s0.211-3.564-1.58-3.879c0,0,0.385-1.001-0.222-1.421
	C127.634,58.86,126.871,58.274,126.027,59.214z"/>
<path d="M133.368,44.802c0,0,0.562-1.09,1.872-0.75c0,0,0.469,0.944-0.842,1.045l3.438-0.087c0,0,1.169-0.06,0.271,1.015
	c0,0-2.336,2.392-3.998,1.196c0,0-0.934,0.09-1.574,0.917c0,0-1.219,1.497-1.869,0.474c0,0-0.998-1.248,0.014-1.39l1.678-0.785
	c0,0-3.807-1.187-3.211-4.259c0,0-0.61-2.986,0.423-2.669c0,0,0.833,0.24,1.038,1.537C130.607,41.047,131.985,45.145,133.368,44.802
	z"/>
</svg>
