<?xml version="1.0" encoding="utf-8"?>
<!-- Generator: Adobe Illustrator 16.0.0, SVG Export Plug-In . SVG Version: 6.00 Build 0)  -->
<!DOCTYPE svg PUBLIC "-//W3C//DTD SVG 1.1//EN" "http://www.w3.org/Graphics/SVG/1.1/DTD/svg11.dtd">
<svg version="1.1" id="레이어_1" xmlns="http://www.w3.org/2000/svg" xmlns:xlink="http://www.w3.org/1999/xlink" x="0px"
	 y="0px" width="163px" height="161px" viewBox="0 0 163 161" enable-background="new 0 0 163 161" xml:space="preserve">
<rect x="3.667" y="4.333" fill="#FFFFFF" stroke="#000000" stroke-miterlimit="10" width="155.333" height="17"/>
<rect x="128.583" y="10.167" fill="#F4C8C8" stroke="#000000" stroke-miterlimit="10" width="5.667" height="5.333"/>
<rect x="137.667" y="10.167" fill="#F4C8C8" stroke="#000000" stroke-miterlimit="10" width="5.667" height="5.333"/>
<rect x="147.251" y="10.167" fill="#F4C8C8" stroke="#000000" stroke-miterlimit="10" width="5.667" height="5.333"/>
<rect x="3.667" y="21.333" fill="#F4C8C8" stroke="#000000" stroke-miterlimit="10" width="155.333" height="137.334"/>
<path fill="#0F0F0F" d="M77.625,46.438c0,0-0.625,4.75-4.75,5.188c0,0,4.563,0.125,4.375,4.5c0,0,0.188-4.5,4.25-4.844
	C81.5,51.281,77.938,51.563,77.625,46.438z"/>
<path fill="#0F0F0F" d="M73.313,111.74c0,0-0.625,4.75-4.75,5.188c0,0,4.563,0.125,4.375,4.5c0,0,0.188-4.5,4.25-4.844
	C77.188,116.584,73.625,116.865,73.313,111.74z"/>
<path fill="#FFFFFF" stroke="#000000" stroke-miterlimit="10" d="M30.458,70.989c0,0-1.034,7.855-7.855,8.579
	c0,0,7.545,0.207,7.235,7.443c0,0,0.31-7.443,7.028-8.012C36.867,79,30.975,79.465,30.458,70.989z"/>
<path fill="#FFFFFF" stroke="#000000" stroke-miterlimit="10" d="M89.938,58.188c0,1.691-1.371,3.063-3.063,3.063l0,0
	c-1.691,0-3.063-1.371-3.063-3.063l0,0c0-1.691,1.371-3.063,3.063-3.063l0,0C88.566,55.125,89.938,56.496,89.938,58.188
	L89.938,58.188z"/>
<path fill="#FFFFFF" stroke="#000000" stroke-miterlimit="10" d="M96.063,107.438c0,1.691-1.371,3.063-3.063,3.063l0,0
	c-1.691,0-3.063-1.371-3.063-3.063l0,0c0-1.691,1.371-3.063,3.063-3.063l0,0C94.691,104.375,96.063,105.746,96.063,107.438
	L96.063,107.438z"/>
<path fill="#FFFFFF" stroke="#000000" stroke-miterlimit="10" d="M83.874,102.386c0,0.811-0.657,1.468-1.469,1.468l0,0
	c-0.811,0-1.468-0.657-1.468-1.468l0,0c0-0.812,0.657-1.469,1.468-1.469l0,0C83.217,100.917,83.874,101.574,83.874,102.386
	L83.874,102.386z"/>
<line fill="none" stroke="#000000" stroke-miterlimit="10" x1="133.083" y1="58.188" x2="130.917" y2="63.167"/>
<line fill="none" stroke="#000000" stroke-miterlimit="10" x1="136.167" y1="66.167" x2="141" y2="63.167"/>
<line fill="none" stroke="#000000" stroke-miterlimit="10" x1="137.75" y1="70.833" x2="144.333" y2="70.833"/>
<path fill="#FFFFFF" stroke="#000000" stroke-miterlimit="10" d="M116.25,74.875c0,0-37.625-18.625-70,15.625l5-2.813l4.188,0.125
	c0,0-15.938,12.563-14.313,31.438c0,0,7.375-12.625,13.25-17.75l0.375,9c0,0,20.234-27.852,59.805-23.488L116.25,74.875z"/>
<path fill="none" stroke="#000000" stroke-miterlimit="10" d="M116.875,76.125c0,0-36.5-8.25-61.438,11.688"/>
<path fill="none" stroke="#000000" stroke-miterlimit="10" d="M116.875,79c0,0-68.482-4.5-75.866,40.875"/>
<path fill="none" stroke="#000000" stroke-miterlimit="10" d="M115.173,82.584c0,0-40.173-2.959-60.798,18.916"/>
<polygon fill="#FFFFFF" stroke="#000000" stroke-miterlimit="10" points="119.5,74.25 127.583,67.667 126.333,79 134,82.75 
	126.167,85 127.333,94.334 120.5,86.834 113.833,95.667 114.833,83.667 107.583,81.667 116,78.5 111.583,68.75 "/>
<line fill="#FFFFFF" stroke="#000000" stroke-miterlimit="10" x1="122.583" y1="76.833" x2="119.333" y2="82.584"/>
<line fill="#FFFFFF" stroke="#000000" stroke-miterlimit="10" x1="119.333" y1="77.25" x2="123.25" y2="84.167"/>
<line fill="#FFFFFF" stroke="#000000" stroke-miterlimit="10" x1="117.75" y1="80.25" x2="125" y2="80.709"/>
</svg>
