<?xml version="1.0" encoding="utf-8"?>
<!-- Generator: Adobe Illustrator 16.0.0, SVG Export Plug-In . SVG Version: 6.00 Build 0)  -->
<!DOCTYPE svg PUBLIC "-//W3C//DTD SVG 1.1//EN" "http://www.w3.org/Graphics/SVG/1.1/DTD/svg11.dtd">
<svg version="1.1" id="레이어_1" xmlns="http://www.w3.org/2000/svg" xmlns:xlink="http://www.w3.org/1999/xlink" x="0px"
	 y="0px" width="163px" height="149.167px" viewBox="0 0 163 149.167" enable-background="new 0 0 163 149.167"
	 xml:space="preserve">
<rect x="3.667" y="4.333" fill="#FFFFFF" stroke="#000000" stroke-miterlimit="10" width="155.333" height="17"/>
<rect x="128.583" y="10.167" fill="#E57070" stroke="#000000" stroke-miterlimit="10" width="5.667" height="5.333"/>
<rect x="137.667" y="10.167" fill="#E57070" stroke="#000000" stroke-miterlimit="10" width="5.667" height="5.333"/>
<rect x="147.251" y="10.167" fill="#E57070" stroke="#000000" stroke-miterlimit="10" width="5.667" height="5.333"/>
<rect x="3.667" y="21.333" fill="#E57070" stroke="#000000" stroke-miterlimit="10" width="155.333" height="121.833"/>
<polygon points="119.239,69.903 139.963,49.795 117.582,59.502 "/>
<polygon fill="#FFFFFF" stroke="#000000" stroke-miterlimit="10" points="106.813,52.505 150.352,43.3 132.311,68.705 
	121.633,61.435 143.185,47.75 117.582,59.502 "/>
<polygon points="78.328,76.459 98.576,66.324 79.611,67.77 "/>
<polygon fill="#FFFFFF" stroke="#000000" stroke-miterlimit="10" points="72.791,59.509 109.736,63.072 89.027,78.776 82.35,70.32 
	101.139,65.5 79.611,67.77 "/>
<polygon points="42.44,73.726 63.729,71.981 46.621,66.572 "/>
<polygon fill="#FFFFFF" stroke="#000000" stroke-miterlimit="10" points="43.558,56.94 74.644,73.064 50.989,79.521 48.121,69.769 
	65.107,71.875 46.621,66.572 "/>
<polygon points="14.71,66.157 29.586,68.085 18.631,61.858 "/>
<polygon fill="#FFFFFF" stroke="#000000" stroke-miterlimit="10" points="17.942,54.794 36.923,70.432 19.729,71.392 19.192,64.274 
	30.548,68.214 18.631,61.858 "/>
<g>
	<path d="M22.516,102.728l-1.405,7.832h-0.707l-1.481-5.423l-1.481,5.423h-0.707l-1.404-7.832h1.021l0.851,5.347l1.294-5.006h0.852
		l1.294,5.006l0.851-5.347H22.516z"/>
	<path d="M27.411,108.38h-3.575v0.451c0.011,0.25,0.088,0.451,0.23,0.604c0.142,0.153,0.343,0.23,0.604,0.23h0.885
		c0.267,0,0.472-0.064,0.617-0.191c0.145-0.128,0.217-0.313,0.217-0.558h1.021v0.085c0,0.414-0.149,0.777-0.447,1.09
		c-0.298,0.312-0.668,0.468-1.111,0.468h-1.481c-0.442,0-0.813-0.156-1.111-0.468c-0.298-0.313-0.447-0.676-0.447-1.09v-2.333
		c0-0.414,0.149-0.777,0.447-1.089c0.298-0.313,0.668-0.469,1.111-0.469h1.481c0.442,0,0.813,0.156,1.111,0.469
		c0.298,0.312,0.447,0.675,0.447,1.089V108.38z M23.835,106.84v0.646h2.554v-0.646c0-0.244-0.074-0.444-0.221-0.601
		s-0.352-0.234-0.613-0.234H24.67c-0.261,0-0.466,0.078-0.613,0.234S23.835,106.596,23.835,106.84z"/>
	<path d="M28.56,110.56v-7.832h1.021v7.832H28.56z"/>
	<path d="M35.328,107.01h-1.021v-0.17c0-0.244-0.074-0.444-0.221-0.601s-0.352-0.234-0.613-0.234h-0.885
		c-0.261,0-0.466,0.078-0.613,0.234s-0.221,0.356-0.221,0.601v1.991c0.011,0.25,0.088,0.451,0.23,0.604
		c0.142,0.153,0.343,0.23,0.604,0.23h0.885c0.261,0,0.462-0.077,0.604-0.23c0.142-0.153,0.219-0.354,0.23-0.604v-0.17h1.021v0.341
		c0,0.414-0.149,0.777-0.447,1.09c-0.298,0.312-0.668,0.468-1.111,0.468h-1.481c-0.442,0-0.813-0.156-1.111-0.468
		c-0.298-0.313-0.447-0.676-0.447-1.09v-2.333c0-0.414,0.149-0.777,0.447-1.089c0.298-0.313,0.668-0.469,1.111-0.469h1.481
		c0.442,0,0.813,0.156,1.111,0.469c0.298,0.312,0.447,0.675,0.447,1.089V107.01z"/>
	<path d="M40.861,106.567v2.52c0,0.511-0.237,0.924-0.71,1.238c-0.474,0.315-1.003,0.473-1.588,0.473
		c-0.363,0-0.716-0.065-1.06-0.195c-0.344-0.131-0.636-0.331-0.877-0.601s-0.362-0.574-0.362-0.915v-2.52
		c0-0.341,0.121-0.646,0.362-0.915s0.533-0.47,0.877-0.601c0.343-0.131,0.696-0.195,1.06-0.195c0.584,0,1.114,0.157,1.588,0.472
		C40.624,105.644,40.861,106.057,40.861,106.567z M39.839,108.908v-2.162c0-0.341-0.132-0.598-0.396-0.771
		c-0.264-0.173-0.557-0.26-0.881-0.26c-0.323,0-0.617,0.087-0.881,0.26c-0.264,0.173-0.396,0.43-0.396,0.771v2.162
		c0,0.341,0.132,0.597,0.396,0.771c0.264,0.173,0.558,0.26,0.881,0.26c0.324,0,0.617-0.087,0.881-0.26
		C39.708,109.505,39.839,109.249,39.839,108.908z"/>
	<path d="M45.373,110.56h-1.021v-3.839c-0.028-0.478-0.25-0.716-0.664-0.716h-0.29c-0.215,0-0.363,0.058-0.442,0.171
		s-0.125,0.298-0.136,0.553v3.831h-1.021v-3.976c0-0.414,0.118-0.763,0.353-1.047c0.236-0.284,0.552-0.426,0.949-0.426h0.698
		c0.204,0,0.403,0.05,0.596,0.149c0.193,0.099,0.349,0.242,0.468,0.43c0.119-0.188,0.275-0.331,0.468-0.43
		c0.193-0.1,0.392-0.149,0.596-0.149h0.698c0.397,0,0.713,0.142,0.949,0.426c0.235,0.284,0.353,0.633,0.353,1.047v3.976h-1.021
		v-3.806c-0.011-0.255-0.057-0.443-0.136-0.565s-0.227-0.184-0.442-0.184h-0.29c-0.426,0-0.647,0.25-0.664,0.749V110.56z"/>
	<path d="M53.459,108.38h-3.575v0.451c0.011,0.25,0.088,0.451,0.23,0.604c0.142,0.153,0.343,0.23,0.604,0.23h0.885
		c0.267,0,0.472-0.064,0.617-0.191c0.145-0.128,0.217-0.313,0.217-0.558h1.021v0.085c0,0.414-0.149,0.777-0.447,1.09
		c-0.298,0.312-0.668,0.468-1.111,0.468H50.42c-0.442,0-0.813-0.156-1.111-0.468c-0.298-0.313-0.447-0.676-0.447-1.09v-2.333
		c0-0.414,0.149-0.777,0.447-1.089c0.298-0.313,0.668-0.469,1.111-0.469h1.481c0.442,0,0.813,0.156,1.111,0.469
		c0.298,0.312,0.447,0.675,0.447,1.089V108.38z M49.884,106.84v0.646h2.554v-0.646c0-0.244-0.074-0.444-0.221-0.601
		s-0.352-0.234-0.613-0.234h-0.885c-0.261,0-0.466,0.078-0.613,0.234S49.884,106.596,49.884,106.84z"/>
	<path d="M56.992,106.005v-0.894h1.277v-2.384h1.021v2.384h1.753v0.894h-1.753v2.826c0.011,0.25,0.088,0.451,0.23,0.604
		c0.142,0.153,0.343,0.23,0.604,0.23h0.852v0.894h-1.149c-0.442,0-0.813-0.156-1.111-0.468c-0.298-0.313-0.447-0.676-0.447-1.09
		v-2.997H56.992z"/>
	<path d="M66.339,106.567v2.52c0,0.511-0.237,0.924-0.71,1.238c-0.474,0.315-1.003,0.473-1.588,0.473
		c-0.363,0-0.716-0.065-1.06-0.195c-0.344-0.131-0.636-0.331-0.877-0.601s-0.362-0.574-0.362-0.915v-2.52
		c0-0.341,0.121-0.646,0.362-0.915s0.533-0.47,0.877-0.601c0.343-0.131,0.696-0.195,1.06-0.195c0.584,0,1.114,0.157,1.588,0.472
		C66.102,105.644,66.339,106.057,66.339,106.567z M65.317,108.908v-2.162c0-0.341-0.132-0.598-0.396-0.771
		c-0.264-0.173-0.557-0.26-0.881-0.26c-0.323,0-0.617,0.087-0.881,0.26c-0.264,0.173-0.396,0.43-0.396,0.771v2.162
		c0,0.341,0.132,0.597,0.396,0.771c0.264,0.173,0.558,0.26,0.881,0.26c0.324,0,0.617-0.087,0.881-0.26
		C65.186,109.505,65.317,109.249,65.317,108.908z"/>
	<path d="M69.872,106.005v-0.894h1.277v-2.384h1.021v2.384h1.753v0.894H72.17v2.826c0.011,0.25,0.088,0.451,0.23,0.604
		c0.142,0.153,0.343,0.23,0.604,0.23h0.852v0.894h-1.149c-0.442,0-0.813-0.156-1.111-0.468c-0.298-0.313-0.447-0.676-0.447-1.09
		v-2.997H69.872z"/>
	<path d="M79.218,110.56h-1.021v-3.72c0-0.244-0.074-0.444-0.221-0.601s-0.352-0.234-0.613-0.234h-1.72v4.555h-1.021v-7.832h1.021
		v2.384h2.018c0.442,0,0.813,0.156,1.111,0.469c0.298,0.312,0.447,0.675,0.447,1.089V110.56z"/>
	<path d="M84.752,108.38h-3.576v0.451c0.011,0.25,0.088,0.451,0.23,0.604c0.142,0.153,0.343,0.23,0.604,0.23h0.886
		c0.266,0,0.472-0.064,0.617-0.191c0.145-0.128,0.217-0.313,0.217-0.558h1.021v0.085c0,0.414-0.149,0.777-0.447,1.09
		c-0.298,0.312-0.668,0.468-1.111,0.468h-1.481c-0.442,0-0.813-0.156-1.111-0.468c-0.298-0.313-0.447-0.676-0.447-1.09v-2.333
		c0-0.414,0.149-0.777,0.447-1.089c0.298-0.313,0.668-0.469,1.111-0.469h1.481c0.443,0,0.813,0.156,1.111,0.469
		c0.298,0.312,0.447,0.675,0.447,1.089V108.38z M81.176,106.84v0.646h2.554v-0.646c0-0.244-0.074-0.444-0.222-0.601
		s-0.353-0.234-0.612-0.234h-0.886c-0.261,0-0.466,0.078-0.613,0.234S81.176,106.596,81.176,106.84z"/>
	<path d="M91.767,107.605h-0.528l-1.694-2.92v5.874h-1.021v-7.832h0.996l1.983,3.405l1.983-3.405h0.996v7.832H93.46v-5.874
		L91.767,107.605z"/>
	<path d="M95.119,110.56v-0.894h0.767v-6.044h-0.767v-0.895h2.554v0.895h-0.766v6.044h0.766v0.894H95.119z"/>
	<path d="M98.312,110.56v-7.832h0.979l3.107,5.712v-5.712h1.021v7.832h-0.996l-3.091-5.703v5.703H98.312z"/>
	<path d="M107.208,102.728h1.021v6.274c0,0.42-0.137,0.784-0.409,1.094s-0.627,0.464-1.063,0.464h-1.227
		c-0.437,0-0.791-0.154-1.063-0.464s-0.409-0.674-0.409-1.094v-0.682h1.021v0.511c0.023,0.557,0.272,0.835,0.749,0.835h0.631
		c0.477,0,0.726-0.278,0.749-0.835V102.728z"/>
	<path d="M112.954,102.728h1.021v6.274c0,0.414-0.149,0.777-0.447,1.09c-0.298,0.312-0.668,0.468-1.11,0.468h-1.651
		c-0.443,0-0.813-0.156-1.111-0.468c-0.298-0.313-0.447-0.676-0.447-1.09v-6.274h1.021v6.104c0.012,0.25,0.089,0.451,0.23,0.604
		s0.343,0.23,0.604,0.23h1.056c0.261,0,0.462-0.077,0.604-0.23c0.142-0.153,0.218-0.354,0.229-0.604V102.728z"/>
	<path d="M114.911,110.56v-7.832h0.979l3.107,5.712v-5.712h1.021v7.832h-0.996l-3.091-5.703v5.703H114.911z"/>
	<path d="M123.339,106.602h1.694c0.255,0,0.434,0.067,0.536,0.204c0.103,0.136,0.153,0.298,0.153,0.485v1.711
		c0,0.414-0.149,0.777-0.447,1.09c-0.298,0.312-0.668,0.468-1.11,0.468h-1.651c-0.443,0-0.813-0.156-1.111-0.468
		c-0.298-0.313-0.447-0.676-0.447-1.09v-4.716c0-0.415,0.149-0.778,0.447-1.09c0.298-0.313,0.668-0.469,1.111-0.469h1.651
		c0.442,0,0.813,0.156,1.11,0.469c0.298,0.312,0.447,0.675,0.447,1.09v0.596h-1.021v-0.426c0-0.244-0.074-0.444-0.222-0.601
		c-0.147-0.155-0.352-0.233-0.612-0.233h-1.056c-0.262,0-0.466,0.078-0.613,0.233c-0.147,0.156-0.222,0.356-0.222,0.601v4.375
		c0.012,0.25,0.089,0.451,0.23,0.604s0.343,0.23,0.604,0.23h1.056c0.261,0,0.462-0.077,0.604-0.23
		c0.142-0.153,0.218-0.354,0.229-0.604v-1.336h-1.362V106.602z"/>
	<path d="M132.269,108.253h-1.217c-0.46,0-0.835-0.124-1.124-0.371c-0.289-0.246-0.435-0.568-0.435-0.966v-0.502
		c0-0.397,0.146-0.714,0.435-0.949s0.664-0.354,1.124-0.354h1.48c0.448,0,0.82,0.145,1.115,0.435
		c0.295,0.289,0.443,0.636,0.443,1.038v0.256h-1.021v-0.086c0-0.238-0.073-0.422-0.218-0.553s-0.351-0.196-0.617-0.196h-0.885
		c-0.29,0-0.501,0.04-0.635,0.119c-0.133,0.08-0.2,0.233-0.2,0.46v0.162c0.006,0.227,0.075,0.386,0.209,0.477
		s0.342,0.136,0.626,0.136h1.183c0.454,0,0.827,0.128,1.12,0.384c0.292,0.255,0.438,0.584,0.438,0.987v0.374
		c0,0.409-0.148,0.754-0.443,1.034c-0.295,0.281-0.667,0.422-1.115,0.422h-1.48c-0.448,0-0.82-0.144-1.115-0.43
		c-0.296-0.287-0.443-0.635-0.443-1.043v-0.256h1.021v0.086c0.018,0.499,0.296,0.749,0.835,0.749h0.885
		c0.278,0,0.485-0.05,0.622-0.149c0.136-0.1,0.207-0.265,0.213-0.498v-0.119C133.069,108.485,132.802,108.27,132.269,108.253z"/>
	<path d="M136.261,103.937h-1.021v-1.209h1.021V103.937z M135.239,110.56v-5.703h1.021v5.703H135.239z"/>
	<path d="M137.172,106.005v-0.894h1.277v-2.384h1.021v2.384h1.754v0.894h-1.754v2.826c0.012,0.25,0.088,0.451,0.229,0.604
		c0.143,0.153,0.344,0.23,0.604,0.23h0.852v0.894h-1.149c-0.442,0-0.813-0.156-1.11-0.468c-0.299-0.313-0.447-0.676-0.447-1.09
		v-2.997H137.172z"/>
	<path d="M146.52,108.38h-3.576v0.451c0.012,0.25,0.089,0.451,0.23,0.604s0.343,0.23,0.604,0.23h0.885
		c0.267,0,0.473-0.064,0.617-0.191c0.145-0.128,0.218-0.313,0.218-0.558h1.021v0.085c0,0.414-0.149,0.777-0.447,1.09
		c-0.298,0.312-0.668,0.468-1.111,0.468h-1.48c-0.443,0-0.813-0.156-1.111-0.468c-0.298-0.313-0.447-0.676-0.447-1.09v-2.333
		c0-0.414,0.149-0.777,0.447-1.089c0.298-0.313,0.668-0.469,1.111-0.469h1.48c0.443,0,0.813,0.156,1.111,0.469
		c0.298,0.312,0.447,0.675,0.447,1.089V108.38z M142.943,106.84v0.646h2.555v-0.646c0-0.244-0.074-0.444-0.222-0.601
		s-0.352-0.234-0.613-0.234h-0.885c-0.262,0-0.466,0.078-0.613,0.234S142.943,106.596,142.943,106.84z"/>
	<path d="M149.073,110.695h-1.192v-1.208h1.192V110.695z"/>
	<path d="M15.629,123.329v-7.832h1.021v3.396h2.724v-3.396h1.021v7.832h-1.021v-3.541h-2.724v3.541H15.629z"/>
	<path d="M24.551,123.329h-1.66c-0.448,0-0.82-0.126-1.115-0.379c-0.295-0.253-0.442-0.561-0.442-0.924v-0.843
		c0-0.368,0.121-0.664,0.362-0.885c0.241-0.222,0.583-0.332,1.026-0.332h2.188v-0.443c-0.017-0.499-0.295-0.749-0.834-0.749h-0.885
		c-0.54,0-0.817,0.25-0.834,0.749v0.086h-1.021v-0.256c0-0.408,0.147-0.756,0.442-1.043c0.295-0.286,0.667-0.43,1.115-0.43h1.481
		c0.448,0,0.82,0.144,1.115,0.43c0.295,0.287,0.442,0.635,0.442,1.043v2.673c0,0.409-0.118,0.729-0.353,0.958
		C25.341,123.214,24.999,123.329,24.551,123.329z M23.189,122.436h1.183c0.255,0,0.409-0.031,0.459-0.094
		c0.051-0.063,0.077-0.21,0.077-0.442v-1.039h-1.805c-0.278,0-0.471,0.031-0.579,0.094c-0.108,0.063-0.165,0.195-0.17,0.4v0.502
		c0,0.21,0.068,0.358,0.204,0.447C22.695,122.392,22.905,122.436,23.189,122.436z"/>
	<path d="M30.595,117.881h1.081l-2.137,5.448h-0.834l-2.137-5.448h1.081l1.473,4.019L30.595,117.881z"/>
	<path d="M36.911,121.149h-3.575v0.451c0.011,0.25,0.088,0.451,0.23,0.604c0.142,0.153,0.343,0.23,0.604,0.23h0.885
		c0.267,0,0.472-0.064,0.617-0.191c0.145-0.128,0.217-0.313,0.217-0.558h1.021v0.085c0,0.414-0.149,0.777-0.447,1.09
		c-0.298,0.312-0.668,0.468-1.111,0.468h-1.481c-0.442,0-0.813-0.156-1.111-0.468c-0.298-0.313-0.447-0.676-0.447-1.09v-2.333
		c0-0.414,0.149-0.777,0.447-1.089c0.298-0.313,0.668-0.469,1.111-0.469h1.481c0.442,0,0.813,0.156,1.111,0.469
		c0.298,0.312,0.447,0.675,0.447,1.089V121.149z M33.335,119.609v0.646h2.554v-0.646c0-0.244-0.074-0.444-0.221-0.601
		s-0.352-0.234-0.613-0.234H34.17c-0.261,0-0.466,0.078-0.613,0.234S33.335,119.365,33.335,119.609z"/>
	<path d="M43.899,123.329h-1.66c-0.448,0-0.82-0.126-1.115-0.379c-0.295-0.253-0.442-0.561-0.442-0.924v-0.843
		c0-0.368,0.121-0.664,0.362-0.885c0.241-0.222,0.583-0.332,1.026-0.332h2.188v-0.443c-0.017-0.499-0.295-0.749-0.834-0.749h-0.885
		c-0.54,0-0.817,0.25-0.834,0.749v0.086h-1.021v-0.256c0-0.408,0.147-0.756,0.442-1.043c0.295-0.286,0.667-0.43,1.115-0.43h1.481
		c0.448,0,0.82,0.144,1.115,0.43c0.295,0.287,0.442,0.635,0.442,1.043v2.673c0,0.409-0.118,0.729-0.353,0.958
		C44.689,123.214,44.348,123.329,43.899,123.329z M42.538,122.436h1.183c0.255,0,0.409-0.031,0.459-0.094
		c0.051-0.063,0.077-0.21,0.077-0.442v-1.039h-1.805c-0.278,0-0.471,0.031-0.579,0.094c-0.108,0.063-0.165,0.195-0.17,0.4v0.502
		c0,0.21,0.068,0.358,0.204,0.447C42.043,122.392,42.253,122.436,42.538,122.436z"/>
	<path d="M53.646,123.329h-1.021v-3.72c-0.011-0.25-0.088-0.451-0.23-0.604c-0.142-0.153-0.343-0.23-0.604-0.23h-0.885
		c-0.261,0-0.463,0.077-0.604,0.23c-0.142,0.153-0.219,0.354-0.23,0.604v3.72H49.05v-3.891c0-0.414,0.149-0.777,0.447-1.089
		c0.298-0.313,0.668-0.469,1.111-0.469h1.481c0.442,0,0.813,0.156,1.111,0.469c0.298,0.312,0.447,0.675,0.447,1.089V123.329z"/>
	<path d="M55.817,116.706h-1.021v-1.209h1.021V116.706z M54.796,123.329v-5.703h1.021v5.703H54.796z"/>
	<path d="M61.563,119.779h-1.021v-0.17c0-0.244-0.074-0.444-0.221-0.601s-0.352-0.234-0.613-0.234h-0.885
		c-0.261,0-0.466,0.078-0.613,0.234s-0.221,0.356-0.221,0.601v1.991c0.011,0.25,0.088,0.451,0.23,0.604
		c0.142,0.153,0.343,0.23,0.604,0.23h0.885c0.261,0,0.462-0.077,0.604-0.23c0.142-0.153,0.219-0.354,0.23-0.604v-0.17h1.021v0.341
		c0,0.414-0.149,0.777-0.447,1.09c-0.298,0.312-0.668,0.468-1.111,0.468h-1.481c-0.442,0-0.813-0.156-1.111-0.468
		c-0.298-0.313-0.447-0.676-0.447-1.09v-2.333c0-0.414,0.149-0.777,0.447-1.089c0.298-0.313,0.668-0.469,1.111-0.469h1.481
		c0.442,0,0.813,0.156,1.111,0.469c0.298,0.312,0.447,0.675,0.447,1.089V119.779z"/>
	<path d="M67.096,121.149h-3.575v0.451c0.011,0.25,0.088,0.451,0.23,0.604c0.142,0.153,0.343,0.23,0.604,0.23h0.885
		c0.267,0,0.472-0.064,0.617-0.191c0.145-0.128,0.217-0.313,0.217-0.558h1.021v0.085c0,0.414-0.149,0.777-0.447,1.09
		c-0.298,0.312-0.668,0.468-1.111,0.468h-1.481c-0.442,0-0.813-0.156-1.111-0.468c-0.298-0.313-0.447-0.676-0.447-1.09v-2.333
		c0-0.414,0.149-0.777,0.447-1.089c0.298-0.313,0.668-0.469,1.111-0.469h1.481c0.442,0,0.813,0.156,1.111,0.469
		c0.298,0.312,0.447,0.675,0.447,1.089V121.149z M63.521,119.609v0.646h2.554v-0.646c0-0.244-0.074-0.444-0.221-0.601
		s-0.352-0.234-0.613-0.234h-0.885c-0.261,0-0.466,0.078-0.613,0.234S63.521,119.365,63.521,119.609z"/>
	<path d="M75.464,115.497v7.832h-3.039c-0.442,0-0.813-0.156-1.111-0.468c-0.298-0.313-0.447-0.676-0.447-1.09v-2.333
		c0-0.414,0.149-0.777,0.447-1.089c0.298-0.313,0.668-0.469,1.111-0.469h2.018v-2.384H75.464z M71.889,119.609v1.991
		c0.011,0.25,0.088,0.451,0.23,0.604c0.142,0.153,0.343,0.23,0.604,0.23h1.719v-3.661h-1.719c-0.261,0-0.466,0.078-0.613,0.234
		S71.889,119.365,71.889,119.609z"/>
	<path d="M79.618,123.329h-1.66c-0.448,0-0.82-0.126-1.115-0.379c-0.295-0.253-0.442-0.561-0.442-0.924v-0.843
		c0-0.368,0.121-0.664,0.362-0.885c0.241-0.222,0.583-0.332,1.026-0.332h2.188v-0.443c-0.017-0.499-0.295-0.749-0.834-0.749h-0.885
		c-0.54,0-0.817,0.25-0.834,0.749v0.086H76.4v-0.256c0-0.408,0.147-0.756,0.442-1.043c0.295-0.286,0.667-0.43,1.115-0.43h1.481
		c0.448,0,0.82,0.144,1.115,0.43c0.295,0.287,0.442,0.635,0.442,1.043v2.673c0,0.409-0.118,0.729-0.353,0.958
		C80.408,123.214,80.066,123.329,79.618,123.329z M78.256,122.436h1.183c0.255,0,0.409-0.031,0.459-0.094
		c0.051-0.063,0.077-0.21,0.077-0.442v-1.039h-1.805c-0.278,0-0.471,0.031-0.579,0.094c-0.108,0.063-0.165,0.195-0.17,0.4v0.502
		c0,0.21,0.068,0.358,0.204,0.447C77.762,122.392,77.972,122.436,78.256,122.436z"/>
	<path d="M85.509,121.72h-2.018c-0.442,0-0.813-0.155-1.11-0.468c-0.299-0.313-0.447-0.675-0.447-1.09v-2.281h1.021v2.111
		c0,0.244,0.074,0.444,0.221,0.6c0.148,0.156,0.353,0.234,0.613,0.234h1.72v-2.945h1.021v4.358c0,0.414-0.149,0.777-0.446,1.09
		c-0.299,0.313-0.669,0.468-1.111,0.468h-1.481c-0.437,0-0.799-0.15-1.085-0.451c-0.287-0.301-0.43-0.641-0.43-1.021v-0.17h1.022
		c0,0.222,0.068,0.401,0.204,0.541c0.136,0.139,0.331,0.208,0.587,0.208h0.886c0.261,0,0.462-0.076,0.604-0.229
		c0.142-0.153,0.219-0.354,0.229-0.604V121.72z"/>
	<path d="M88.871,123.551H87.68v-1.209h1.191V123.551z M87.765,121.328v-5.916h1.022v5.916H87.765z"/>
</g>
</svg>
