<?xml version="1.0" encoding="utf-8"?>
<!-- Generator: Adobe Illustrator 16.0.0, SVG Export Plug-In . SVG Version: 6.00 Build 0)  -->
<!DOCTYPE svg PUBLIC "-//W3C//DTD SVG 1.1//EN" "http://www.w3.org/Graphics/SVG/1.1/DTD/svg11.dtd">
<svg version="1.1" id="레이어_1" xmlns="http://www.w3.org/2000/svg" xmlns:xlink="http://www.w3.org/1999/xlink" x="0px"
	 y="0px" width="54.333px" height="46px" viewBox="0 0 54.333 46" enable-background="new 0 0 54.333 46" xml:space="preserve">
<path fill="#C5C0BB" d="M18.332,7.178l-0.009,0.046c-4.536-0.436-9.344,5.134-10.929,12.849c-1.585,7.716,0.637,14.73,4.977,16.118
	l-0.009,0.046l24.938,5.125l5.971-29.06L18.332,7.178z"/>
<ellipse transform="matrix(0.2013 -0.9795 0.9795 0.2013 5.892 60.8918)" fill="#C5C0BB" cx="40.284" cy="26.833" rx="14.833" ry="8.666"/>
<path fill="#EE9FBE" stroke="#000000" stroke-width="1.5" stroke-miterlimit="10" d="M16.044,4.454L16.035,4.5
	C11.5,4.065,6.691,9.635,5.106,17.35c-1.585,7.714,0.638,14.729,4.977,16.117l-0.01,0.046l24.938,5.124l5.971-29.058L16.044,4.454z"
	/>
<ellipse transform="matrix(0.2013 -0.9795 0.9795 0.2013 6.732 56.4744)" fill="#A893C4" stroke="#000000" stroke-width="1.5" stroke-miterlimit="10" cx="37.996" cy="24.109" rx="14.833" ry="8.666"/>
</svg>
