<?xml version="1.0" encoding="utf-8"?>
<!-- Generator: Adobe Illustrator 16.0.0, SVG Export Plug-In . SVG Version: 6.00 Build 0)  -->
<!DOCTYPE svg PUBLIC "-//W3C//DTD SVG 1.1//EN" "http://www.w3.org/Graphics/SVG/1.1/DTD/svg11.dtd">
<svg version="1.1" id="레이어_1" xmlns="http://www.w3.org/2000/svg" xmlns:xlink="http://www.w3.org/1999/xlink" x="0px"
	 y="0px" width="45.667px" height="75.333px" viewBox="0 0 45.667 75.333" enable-background="new 0 0 45.667 75.333"
	 xml:space="preserve">
<polygon fill="#C5C2BD" points="40.438,56.25 40.438,22 12.938,7.625 12.938,60.625 18.688,57.125 18.688,16.125 34.938,25.375 
	34.313,54 "/>
<polygon fill="#C5C2BD" points="7.563,10.25 7.563,69.375 34.313,54 34.938,25.375 28.688,27 28.688,51.25 12.938,60.625 
	12.938,7.625 "/>
<polygon fill="#C5C2BD" points="12.938,71.875 40.438,56.25 34.313,54 7.563,69.375 "/>
<polygon fill="#C5C2BD" points="18.688,21 28.688,27 34.938,25.375 18.688,16.125 "/>
<polygon fill="#9BA9D6" stroke="#000000" stroke-linejoin="bevel" stroke-miterlimit="10" points="37.625,52.5 37.625,18.25 
	10.125,3.875 10.125,56.875 15.875,53.375 15.875,12.375 32.125,21.625 31.5,50.25 "/>
<polygon fill="#FFFFFF" stroke="#000000" stroke-miterlimit="10" points="4.75,6.5 4.75,65.625 31.5,50.25 32.125,21.625 
	25.875,23.25 25.875,47.5 10.125,56.875 10.125,3.875 "/>
<polygon fill="#ACDCE4" stroke="#000000" stroke-linejoin="bevel" stroke-miterlimit="10" points="10.125,68.125 37.625,52.5 
	31.5,50.25 4.75,65.625 "/>
<polygon fill="#ACDCE4" stroke="#000000" stroke-linejoin="bevel" stroke-miterlimit="10" points="15.875,17.25 25.875,23.25 
	32.125,21.625 15.875,12.375 "/>
</svg>
