<?xml version="1.0" encoding="utf-8"?>
<!-- Generator: Adobe Illustrator 16.0.0, SVG Export Plug-In . SVG Version: 6.00 Build 0)  -->
<!DOCTYPE svg PUBLIC "-//W3C//DTD SVG 1.1//EN" "http://www.w3.org/Graphics/SVG/1.1/DTD/svg11.dtd">
<svg version="1.1" id="레이어_1" xmlns="http://www.w3.org/2000/svg" xmlns:xlink="http://www.w3.org/1999/xlink" x="0px"
	 y="0px" width="94.625px" height="24.729px" viewBox="0 0 94.625 24.729" enable-background="new 0 0 94.625 24.729"
	 xml:space="preserve">
<rect x="9.01" y="15.104" fill="#B62126" width="3.655" height="3.625"/>
<rect x="2.875" y="3.042" fill="#D92427" width="12.999" height="12.75"/>
<rect x="3.042" y="0" width="9.458" height="3.042"/>
<rect y="2.979" width="3.042" height="9.771"/>
<rect x="25.167" y="3.042" width="3.042" height="9.604"/>
<rect x="12.5" y="3.042" width="3.374" height="3.042"/>
<rect x="3.042" y="12.75" width="3.208" height="3.042"/>
<rect x="22" y="12.646" width="3.208" height="3.146"/>
<rect x="18.875" y="15.688" width="3.208" height="3.042"/>
<rect x="6.25" y="15.792" width="3.208" height="3.042"/>
<rect x="9.458" y="18.729" width="3.208" height="3.042"/>
<rect x="15.874" y="18.729" width="3.208" height="3.042"/>
<rect x="12.666" y="21.688" width="3.208" height="3.042"/>
<rect x="12.666" y="18.729" fill="#75161B" width="3.208" height="3.042"/>
<rect x="12.666" y="15.792" fill="#B62126" width="3.208" height="2.938"/>
<rect x="15.708" y="0" width="9.458" height="3.042"/>
<rect x="3.042" y="3.042" fill="#FFFFFF" width="3.041" height="6.438"/>
<rect x="42.218" y="15.104" fill="#B62126" width="3.655" height="3.625"/>
<rect x="36.083" y="3.042" fill="#D92427" width="16.75" height="12.75"/>
<rect x="36.25" y="0" width="9.458" height="3.042"/>
<rect x="33.208" y="2.979" width="3.042" height="9.771"/>
<rect x="58.374" y="3.042" width="3.042" height="9.604"/>
<rect x="45.708" y="3.042" width="3.208" height="3.042"/>
<rect x="36.25" y="12.75" width="3.208" height="3.042"/>
<rect x="55.208" y="12.646" width="3.208" height="3.146"/>
<rect x="52.083" y="15.688" width="3.208" height="3.042"/>
<rect x="39.458" y="15.792" width="3.208" height="3.042"/>
<rect x="42.666" y="18.729" width="3.208" height="3.042"/>
<rect x="49.081" y="18.729" width="3.209" height="3.042"/>
<rect x="45.874" y="21.688" width="3.208" height="3.042"/>
<rect x="55.208" y="3.042" fill="#75161B" width="3.208" height="9.604"/>
<rect x="52.083" y="12.646" fill="#75161B" width="3.208" height="3.146"/>
<rect x="49.081" y="15.792" fill="#75161B" width="3.209" height="2.938"/>
<rect x="45.874" y="18.729" fill="#75161B" width="3.208" height="3.042"/>
<rect x="52.29" y="3.042" fill="#B62126" width="3.001" height="9.604"/>
<rect x="49.081" y="12.646" fill="#B62126" width="3.209" height="3.146"/>
<rect x="45.874" y="15.792" fill="#B62126" width="3.208" height="2.938"/>
<rect x="48.916" y="0" width="9.458" height="3.042"/>
<rect x="36.25" y="3.042" fill="#FFFFFF" width="3.041" height="6.438"/>
<rect x="75.427" y="15.104" fill="#B62126" width="3.654" height="3.625"/>
<rect x="69.291" y="3.042" fill="#D92427" width="13" height="12.75"/>
<rect x="69.458" y="0" width="9.457" height="3.042"/>
<rect x="66.416" y="2.979" width="3.043" height="9.771"/>
<rect x="91.583" y="3.042" width="3.041" height="9.604"/>
<rect x="78.916" y="3.042" width="3.375" height="3.042"/>
<rect x="69.458" y="12.75" width="3.207" height="3.042"/>
<rect x="88.416" y="12.646" width="3.209" height="3.146"/>
<rect x="85.291" y="15.688" width="3.209" height="3.042"/>
<rect x="72.666" y="15.792" width="3.209" height="3.042"/>
<rect x="75.875" y="18.729" width="3.207" height="3.042"/>
<rect x="82.291" y="18.729" width="3.207" height="3.042"/>
<rect x="79.082" y="21.688" width="3.209" height="3.042"/>
<rect x="79.082" y="18.729" fill="#75161B" width="3.209" height="3.042"/>
<rect x="79.082" y="15.792" fill="#B62126" width="3.209" height="2.938"/>
<rect x="82.125" y="0" width="9.459" height="3.042"/>
<rect x="69.458" y="3.042" fill="#FFFFFF" width="3.041" height="6.438"/>
</svg>
