<?xml version="1.0" encoding="utf-8"?>
<!-- Generator: Adobe Illustrator 16.0.0, SVG Export Plug-In . SVG Version: 6.00 Build 0)  -->
<!DOCTYPE svg PUBLIC "-//W3C//DTD SVG 1.1//EN" "http://www.w3.org/Graphics/SVG/1.1/DTD/svg11.dtd">
<svg version="1.1" id="레이어_1" xmlns="http://www.w3.org/2000/svg" xmlns:xlink="http://www.w3.org/1999/xlink" x="0px"
	 y="0px" width="47.25px" height="55px" viewBox="0 0 47.25 55" enable-background="new 0 0 47.25 55" xml:space="preserve">
<path fill="#E14985" stroke="#000000" stroke-linejoin="bevel" stroke-miterlimit="10" d="M25.417,49.833L43.75,18.25
	c0,0,2.083-6.917-5.833-10.5c0,0,4.083,4.083,1.583,9.833L25.417,42.167L10,15.75c0,0-1.688-2.719,0.833-3.917
	c0,0-6.271-1.115-4.979,5.271L25.417,49.833z"/>
<path fill="#F4EABF" stroke="#000000" stroke-linejoin="bevel" stroke-miterlimit="10" d="M23.005,38.035L36,15.417
	c0,0,1.333-3.708-1.833-5.458c0,0-3.958-1.667-5.875,2.292L25.5,17.667l-2.375-4.16c0,0,2.5-6.507,8.313-7.569
	c0,0,9.063-1.301,8.793,9.089c0,0-0.207,1.432-0.578,2.185L25.417,42.167L23.005,38.035z"/>
<path fill="#F4EABF" stroke="#000000" stroke-linejoin="bevel" stroke-miterlimit="10" d="M25.292,25.917H20.75l-7-12.167
	c0,0-2.282-3.352-6.151-1.395c0,0-1.958,1.086-1.669,4.146c0,0,0.289,1.404,1.276,3.006l18.211,30.326l-4.854,0.479L3.125,20.188
	c0,0-2.625-5.875,0.688-9.375c0,0,3.313-4.438,8.904-2.542c0,0,2.346,0.459,4.498,4.014L25.292,25.917z"/>
<path fill="#D93949" stroke="#000000" stroke-linejoin="bevel" stroke-miterlimit="10" d="M36.081,12.264
	c0,0-2.341-0.722-4.461,2.611l-6.328,11.042l-8.254-13.931c0,0-0.833-1.225-1.612-2.023C13.501,7.99,10.623,6.67,6.875,8.5
	c0,0,5.209-5.042,11-1.417c0,0,2.541,1.583,7.583,10.417s0.042,0.167,0.042,0.167l3.132-5.788c0,0,1.65-2.869,4.656-2.167
	C33.289,9.712,35.406,9.969,36.081,12.264z"/>
</svg>
