<?xml version="1.0" encoding="utf-8"?>
<!-- Generator: Adobe Illustrator 16.0.0, SVG Export Plug-In . SVG Version: 6.00 Build 0)  -->
<!DOCTYPE svg PUBLIC "-//W3C//DTD SVG 1.1//EN" "http://www.w3.org/Graphics/SVG/1.1/DTD/svg11.dtd">
<svg version="1.1" id="레이어_1" xmlns="http://www.w3.org/2000/svg" xmlns:xlink="http://www.w3.org/1999/xlink" x="0px"
	 y="0px" width="48.312px" height="50.151px" viewBox="0 0 48.312 50.151" enable-background="new 0 0 48.312 50.151"
	 xml:space="preserve">
<polygon fill="#C5C1BC" points="13.729,7.876 3.312,27.034 13.729,27.034 "/>
<polygon fill="#C5C1BC" points="13.729,46.126 13.729,27.034 3.312,27.034 "/>
<polygon fill="#C5C1BC" points="25.229,27.034 13.729,27.034 13.729,46.126 30.646,36.58 "/>
<polygon fill="#C5C1BC" points="47.312,27.034 36.562,46.126 30.646,36.58 "/>
<polygon fill="#C5C1BC" points="30.646,36.58 36.562,46.126 13.729,46.126 "/>
<polygon fill="#C5C1BC" points="30.646,17.455 47.312,27.034 30.646,36.58 25.229,27.034 "/>
<polygon fill="#C5C1BC" points="30.646,17.455 36.271,7.542 47.312,27.034 "/>
<polygon fill="#C5C1BC" points="13.729,7.542 36.271,7.542 30.646,17.455 "/>
<polygon fill="#C5C1BC" points="13.729,7.542 13.729,27.034 25.229,27.034 30.646,17.455 "/>
<polygon fill="#DFD2DE" stroke="#000000" stroke-linejoin="bevel" stroke-miterlimit="10" points="11.573,4.607 1.156,23.766 
	11.573,23.766 "/>
<polygon fill="#BC9AB8" stroke="#000000" stroke-linejoin="bevel" stroke-miterlimit="10" points="11.573,42.857 11.573,23.766 
	1.156,23.766 "/>
<polygon fill="#EEC989" stroke="#000000" stroke-linejoin="bevel" stroke-miterlimit="10" points="23.073,23.766 11.573,23.766 
	11.573,42.857 28.489,33.312 "/>
<polygon fill="#783B67" stroke="#000000" stroke-linejoin="bevel" stroke-miterlimit="10" points="45.156,23.766 34.406,42.857 
	28.489,33.312 "/>
<polygon fill="#A792C4" stroke="#000000" stroke-linejoin="bevel" stroke-miterlimit="10" points="28.489,33.312 34.406,42.857 
	11.573,42.857 "/>
<polygon fill="#E698A0" stroke="#000000" stroke-linejoin="bevel" stroke-miterlimit="10" points="28.489,14.187 45.156,23.766 
	28.489,33.312 23.073,23.766 "/>
<polygon fill="#B21D4E" stroke="#000000" stroke-linejoin="bevel" stroke-miterlimit="10" points="28.489,14.187 34.114,4.274 
	45.156,23.766 "/>
<polygon fill="#EDB473" stroke="#000000" stroke-linejoin="bevel" stroke-miterlimit="10" points="11.573,4.274 34.114,4.274 
	28.489,14.187 "/>
<polygon fill="#E9E7E0" stroke="#000000" stroke-linejoin="bevel" stroke-miterlimit="10" points="11.573,4.274 11.573,23.766 
	23.073,23.766 28.489,14.187 "/>
</svg>
