<?xml version="1.0" encoding="utf-8"?>
<!-- Generator: Adobe Illustrator 16.0.0, SVG Export Plug-In . SVG Version: 6.00 Build 0)  -->
<!DOCTYPE svg PUBLIC "-//W3C//DTD SVG 1.1//EN" "http://www.w3.org/Graphics/SVG/1.1/DTD/svg11.dtd">
<svg version="1.1" id="레이어_1" xmlns="http://www.w3.org/2000/svg" xmlns:xlink="http://www.w3.org/1999/xlink" x="0px"
	 y="0px" width="56px" height="67.667px" viewBox="0 0 56 67.667" enable-background="new 0 0 56 67.667" xml:space="preserve">
<polygon fill="#C5C1BC" points="28.51,21.018 50.784,58.082 24.28,58.821 27.84,52.437 39.191,52.621 19.709,21.215 "/>
<polygon fill="#C5C1BC" points="13.055,9.543 9.185,14.996 35.811,14.418 12.156,58.384 15.805,63.98 44.917,9.68 "/>
<polygon fill="#C5C1BC" points="45.917,9.68 15.805,63.98 47.914,63.666 50.784,58.082 25.28,58.821 49.936,14.598 "/>
<polygon fill="#C5C1BC" points="35.811,14.29 32.175,20.771 19.709,21.086 39.191,52.621 32.34,52.52 9.185,14.867 "/>
<polygon fill="#E46572" stroke="#000000" stroke-width="1.2" stroke-linejoin="bevel" stroke-miterlimit="10" points="26.01,17.86 
	48.169,55.147 22.78,55.664 26.34,49.279 37.691,49.462 18.209,18.057 "/>
<polygon fill="#FFFFFF" stroke="#000000" stroke-width="1.2" stroke-linejoin="bevel" stroke-miterlimit="10" points="11.555,6.385 
	7.685,11.838 34.311,11.261 9.656,55.226 13.305,60.822 43.417,6.522 "/>
<polygon fill="#77C0E1" stroke="#000000" stroke-width="1.2" stroke-linejoin="bevel" stroke-miterlimit="10" points="22.78,55.664 
	47.436,11.44 43.417,6.522 13.305,60.822 45.414,60.507 48.284,54.923 "/>
<polygon fill="#77C0E1" stroke="#000000" stroke-width="1.2" stroke-linejoin="bevel" stroke-miterlimit="10" points="
	34.311,11.132 30.675,17.614 18.209,17.929 37.691,49.462 30.84,49.362 7.685,11.709 "/>
<polyline fill="#8EE3DC" points="43.5,7.599 43.578,7.599 46.719,11.505 31.709,38.563 28.813,34.052 "/>
</svg>
