<?xml version="1.0" encoding="utf-8"?>
<!-- Generator: Adobe Illustrator 16.0.0, SVG Export Plug-In . SVG Version: 6.00 Build 0)  -->
<!DOCTYPE svg PUBLIC "-//W3C//DTD SVG 1.1//EN" "http://www.w3.org/Graphics/SVG/1.1/DTD/svg11.dtd">
<svg version="1.1" id="레이어_1" xmlns="http://www.w3.org/2000/svg" xmlns:xlink="http://www.w3.org/1999/xlink" x="0px"
	 y="0px" width="30.796px" height="47.458px" viewBox="0 0 30.796 47.458" enable-background="new 0 0 30.796 47.458"
	 xml:space="preserve">
<polygon fill="#C5C2BD" points="13.5,4.348 5.26,26.114 11.533,25.238 "/>
<polygon fill="#C5C2BD" points="21.271,23.877 11.533,25.238 13.5,4.348 "/>
<polygon fill="#C5C2BD" points="27.28,23.819 21.751,24.591 14.1,5.369 "/>
<polygon fill="#C5C2BD" points="19.702,45.997 21.744,24.507 12.005,25.868 "/>
<polygon fill="#C5C2BD" points="21.751,24.591 27.28,23.819 19.709,46.081 "/>
<polygon fill="#C5C2BD" points="5.74,26.828 19.709,46.081 12.012,25.952 "/>
<polygon fill="#D24934" stroke="#000000" stroke-linejoin="bevel" stroke-miterlimit="10" points="12.045,2.069 3.806,23.835 
	10.079,22.958 "/>
<polygon fill="#FFFFFE" stroke="#000000" stroke-linejoin="bevel" stroke-miterlimit="10" points="19.817,21.598 10.079,22.958 
	12.045,2.069 "/>
<polygon fill="#F4CDD2" stroke="#000000" stroke-linejoin="bevel" stroke-miterlimit="10" points="25.347,20.825 19.817,21.598 
	12.167,2.375 "/>
<polygon fill="#A893C4" stroke="#000000" stroke-linejoin="bevel" stroke-miterlimit="10" points="17.776,43.086 19.817,21.598 
	10.079,22.958 "/>
<polygon fill="#AE76B0" stroke="#000000" stroke-linejoin="bevel" stroke-miterlimit="10" points="19.817,21.598 25.347,20.825 
	17.776,43.086 "/>
<polygon fill="#7456A2" stroke="#000000" stroke-linejoin="bevel" stroke-miterlimit="10" points="3.806,23.835 17.776,43.086 
	10.079,22.958 "/>
</svg>
