<?xml version="1.0" encoding="utf-8"?>
<!-- Generator: Adobe Illustrator 16.0.0, SVG Export Plug-In . SVG Version: 6.00 Build 0)  -->
<!DOCTYPE svg PUBLIC "-//W3C//DTD SVG 1.1//EN" "http://www.w3.org/Graphics/SVG/1.1/DTD/svg11.dtd">
<svg version="1.1" id="레이어_1" xmlns="http://www.w3.org/2000/svg" xmlns:xlink="http://www.w3.org/1999/xlink" x="0px"
	 y="0px" width="33px" height="30.25px" viewBox="0 0 33 30.25" enable-background="new 0 0 33 30.25" xml:space="preserve">
<polygon fill="#C5C1BC" points="11.386,7.354 6.136,16.604 12.698,24.667 22.323,20.604 21.698,9.792 "/>
<polygon fill="#C5C1BC" points="11.386,2.729 21.386,2.104 27.198,6.104 21.698,9.792 11.386,7.354 "/>
<polygon fill="#C5C1BC" points="22.323,20.604 28.636,22.667 31.448,13.979 27.198,5.948 21.698,9.792 "/>
<polygon fill="#C5C1BC" points="13.761,28.667 23.386,27.792 28.636,22.667 22.323,20.604 12.698,24.667 "/>
<polygon fill="#C5C1BC" points="3.886,16.542 8.573,23.542 13.761,28.667 12.698,24.667 6.136,16.604 "/>
<polygon fill="#C5C1BC" points="11.386,2.551 6.573,8.738 3.886,16.363 6.136,16.426 11.386,7.176 "/>
<polygon fill="#91AAC4" stroke="#000000" stroke-linejoin="bevel" stroke-miterlimit="10" points="9.136,6.729 3.886,15.979 
	10.448,24.042 20.073,19.979 19.448,9.167 "/>
<polygon fill="#FFFFFF" stroke="#000000" stroke-miterlimit="10" points="9.136,2.104 19.136,1.479 24.948,5.479 19.448,9.167 
	9.136,6.729 "/>
<polygon fill="#A6D8DB" stroke="#000000" stroke-linejoin="bevel" stroke-miterlimit="10" points="20.073,19.979 26.386,22.042 
	29.198,13.354 24.948,5.323 19.448,9.167 "/>
<polygon fill="#81809A" stroke="#000000" stroke-linejoin="bevel" stroke-miterlimit="10" points="11.511,28.042 21.136,27.167 
	26.386,22.042 20.073,19.979 10.448,24.042 "/>
<polygon fill="#AA94C5" stroke="#000000" stroke-linejoin="bevel" stroke-miterlimit="10" points="1.636,15.917 6.323,22.917 
	11.511,28.042 10.448,24.042 3.886,15.979 "/>
<polygon fill="#E5E5F0" stroke="#000000" stroke-linejoin="bevel" stroke-miterlimit="10" points="9.136,1.926 4.323,8.113 
	1.636,15.738 3.886,15.801 9.136,6.551 "/>
</svg>
