<?xml version="1.0" encoding="utf-8"?>
<!-- Generator: Adobe Illustrator 16.0.0, SVG Export Plug-In . SVG Version: 6.00 Build 0)  -->
<!DOCTYPE svg PUBLIC "-//W3C//DTD SVG 1.1//EN" "http://www.w3.org/Graphics/SVG/1.1/DTD/svg11.dtd">
<svg version="1.1" id="레이어_1" xmlns="http://www.w3.org/2000/svg" xmlns:xlink="http://www.w3.org/1999/xlink" x="0px"
	 y="0px" width="73px" height="16.625px" viewBox="0 0 73 16.625" enable-background="new 0 0 73 16.625" xml:space="preserve">
<g>
	<path d="M11.156,13.198c0,0.08-0.04,0.12-0.12,0.12c-0.064,0-0.096-0.04-0.096-0.12V2.85L7.008,7.984
		C6.983,8.015,6.963,8.042,6.946,8.066S6.897,8.101,6.848,8.101c-0.057,0-0.11-0.039-0.16-0.117l-3.92-5.119v10.333
		c0,0.08-0.04,0.12-0.12,0.12c-0.064,0-0.096-0.04-0.096-0.12V2.578c0-0.096,0.032-0.144,0.096-0.144
		c0.04,0,0.092,0.041,0.156,0.123l4.044,5.28l4.044-5.28c0.064-0.082,0.12-0.123,0.168-0.123c0.064,0,0.096,0.048,0.096,0.144
		V13.198z"/>
	<path d="M14.012,13.198c0,0.08-0.04,0.12-0.12,0.12c-0.064,0-0.096-0.04-0.096-0.12V2.578c0-0.08,0.04-0.12,0.12-0.12
		c0.064,0,0.096,0.04,0.096,0.12V13.198z"/>
	<path d="M25.352,13.174c0,0.096-0.033,0.144-0.097,0.144c-0.049,0-0.105-0.034-0.17-0.103L16.88,2.859v10.339
		c0,0.08-0.04,0.12-0.12,0.12c-0.064,0-0.096-0.04-0.096-0.12V2.581c0-0.096,0.032-0.144,0.096-0.144h0.084l0.072,0.12l8.22,10.356
		V2.569c0-0.088,0.032-0.132,0.096-0.132c0.08,0,0.12,0.044,0.12,0.132V13.174z"/>
	<path d="M35.384,8.171c0,0.76-0.046,1.398-0.138,1.915C35.154,10.602,35,11.041,34.783,11.4c-0.361,0.608-0.863,1.086-1.508,1.435
		c-0.645,0.348-1.372,0.522-2.181,0.522c-0.993,0-1.869-0.294-2.625-0.882c-0.757-0.588-1.244-1.302-1.46-2.142v-0.048v-0.048
		c0-0.064,0.032-0.096,0.096-0.096c0.056,0,0.096,0.036,0.12,0.108v0.036c0.336,0.928,0.846,1.636,1.53,2.124
		c0.684,0.488,1.506,0.732,2.466,0.732c0.616,0,1.198-0.128,1.746-0.384c0.548-0.256,1.01-0.624,1.386-1.104
		c0.32-0.4,0.536-0.893,0.648-1.477c0.112-0.584,0.168-1.336,0.168-2.257V2.554c0-0.08,0.04-0.12,0.12-0.12
		c0.064,0,0.096,0.04,0.096,0.12V8.171z"/>
	<path d="M46.988,8.933c0,0.664-0.068,1.219-0.204,1.667c-0.136,0.448-0.38,0.868-0.732,1.259c-0.912,0.999-2.072,1.499-3.48,1.499
		c-0.68,0-1.318-0.128-1.914-0.384c-0.596-0.256-1.114-0.627-1.554-1.115c-0.336-0.368-0.578-0.79-0.726-1.265
		s-0.222-1.029-0.222-1.661V2.578c0-0.08,0.038-0.12,0.114-0.12c0.068,0,0.102,0.04,0.102,0.12V8.89
		c0,0.646,0.068,1.195,0.204,1.646c0.136,0.451,0.376,0.86,0.721,1.228c0.874,0.918,1.963,1.377,3.269,1.377
		c1.313,0,2.407-0.459,3.28-1.377c0.345-0.359,0.585-0.765,0.721-1.216c0.136-0.451,0.204-1.004,0.204-1.658V2.578
		c0-0.08,0.04-0.12,0.12-0.12c0.064,0,0.096,0.04,0.096,0.12V8.933z"/>
	<path d="M58.028,13.174c0,0.096-0.032,0.144-0.098,0.144c-0.048,0-0.104-0.034-0.17-0.103L49.555,2.859v10.339
		c0,0.08-0.04,0.12-0.119,0.12c-0.064,0-0.097-0.04-0.097-0.12V2.581c0-0.096,0.032-0.144,0.097-0.144h0.084l0.071,0.12
		l8.221,10.356V2.569c0-0.088,0.031-0.132,0.096-0.132c0.08,0,0.12,0.044,0.12,0.132V13.174z"/>
	<path d="M70.316,9.865c0,0.104-0.101,0.328-0.3,0.672c-0.145,0.248-0.328,0.512-0.552,0.792c-1.072,1.328-2.448,1.992-4.129,1.992
		c-0.712,0-1.401-0.14-2.069-0.419s-1.263-0.679-1.782-1.199c-1.08-1.079-1.62-2.361-1.62-3.848c0-0.719,0.14-1.417,0.42-2.092
		s0.676-1.271,1.188-1.786c0.512-0.516,1.1-0.909,1.764-1.181c0.664-0.271,1.364-0.407,2.1-0.407c0.664,0,1.286,0.108,1.866,0.324
		c0.58,0.216,1.063,0.504,1.446,0.864l0.036,0.048c0.023,0.024,0.048,0.056,0.072,0.096c0,0.008,0.004,0.02,0.012,0.036
		c0,0.064-0.028,0.096-0.084,0.096L68.6,3.805l-0.036-0.024c-0.648-0.488-1.208-0.806-1.68-0.954
		c-0.473-0.148-0.988-0.222-1.549-0.222c-1.271,0-2.38,0.391-3.323,1.172c-0.601,0.495-1.072,1.104-1.416,1.83
		c-0.345,0.726-0.517,1.475-0.517,2.249c0,0.678,0.136,1.339,0.408,1.985c0.271,0.646,0.656,1.216,1.152,1.71
		s1.065,0.877,1.71,1.148c0.644,0.271,1.306,0.406,1.985,0.406c1.032,0,1.96-0.272,2.784-0.815c0.824-0.544,1.472-1.316,1.944-2.316
		H63.86c-0.08,0-0.12-0.038-0.12-0.115c0-0.067,0.04-0.102,0.12-0.102h6.313C70.268,9.757,70.316,9.793,70.316,9.865z"/>
</g>
</svg>
