<?xml version="1.0" encoding="utf-8"?>
<!-- Generator: Adobe Illustrator 16.0.0, SVG Export Plug-In . SVG Version: 6.00 Build 0)  -->
<!DOCTYPE svg PUBLIC "-//W3C//DTD SVG 1.1//EN" "http://www.w3.org/Graphics/SVG/1.1/DTD/svg11.dtd">
<svg version="1.1" id="레이어_1" xmlns="http://www.w3.org/2000/svg" xmlns:xlink="http://www.w3.org/1999/xlink" x="0px"
	 y="0px" width="66.667px" height="94px" viewBox="0 0 66.667 94" enable-background="new 0 0 66.667 94" xml:space="preserve">
<polygon fill="#ABABD4" points="36.647,24.208 59.647,33.031 34.729,39.441 13.647,33.031 13.333,30.327 "/>
<polygon fill="#ABABD4" points="36.647,50.583 59.647,59.406 34.729,65.816 13.647,59.406 13.333,56.702 "/>
<rect x="3.5" y="3.911" fill="#ABABD4" width="56.167" height="14.167"/>
<polygon fill="#E6AABB" points="59.667,18.077 13.667,30.327 13.667,15.744 59.667,3.911 "/>
<polygon fill="none" stroke="#000000" stroke-width="1.5" stroke-miterlimit="10" points="59.667,19.94 13.667,32.19 13.667,17.607 
	59.667,5.774 "/>
<polygon fill="#E6AABB" points="59.647,47.197 13.647,59.447 13.647,44.864 59.647,33.031 "/>
<polygon fill="none" stroke="#000000" stroke-width="1.5" stroke-miterlimit="10" points="60.188,48.753 13.647,61.311 
	13.647,46.728 60.188,34.253 "/>
<polygon fill="#E6AABB" points="59.647,73.614 13.647,85.864 13.647,71.281 59.647,59.447 "/>
<polygon fill="none" stroke="#000000" stroke-width="1.5" stroke-miterlimit="10" points="62.969,75.815 13.647,89.59 
	13.647,75.007 62.969,61.311 "/>
</svg>
