<?xml version="1.0" encoding="utf-8"?>
<!-- Generator: Adobe Illustrator 16.0.0, SVG Export Plug-In . SVG Version: 6.00 Build 0)  -->
<!DOCTYPE svg PUBLIC "-//W3C//DTD SVG 1.1//EN" "http://www.w3.org/Graphics/SVG/1.1/DTD/svg11.dtd">
<svg version="1.1" id="레이어_1" xmlns="http://www.w3.org/2000/svg" xmlns:xlink="http://www.w3.org/1999/xlink" x="0px"
	 y="0px" width="56.333px" height="60px" viewBox="0 0 56.333 60" enable-background="new 0 0 56.333 60" xml:space="preserve">
<polygon fill="#C5C1BC" points="48.99,47.697 38.425,14.33 19.596,20.292 25.973,40.432 22.192,48.884 11.386,14.238 43.799,3.975 
	54.629,38.175 "/>
<polyline fill="#C5C1BC" points="39.808,43.131 37.771,36.696 25.973,40.432 22.192,48.884 39.808,43.131 "/>
<polyline fill="#C5C1BC" points="33.387,22.852 39.83,43.2 22.192,48.884 11.304,14.175 5.308,23.984 16.02,58.137 48.99,47.697 
	38.425,14.33 38.067,14.443 "/>
<polygon fill="#C5C1BC" points="33.469,23.111 38.425,14.33 19.596,20.292 21.596,26.608 "/>
<polygon fill="#4FBA9D" stroke="#000000" stroke-linejoin="bevel" stroke-miterlimit="10" points="45.751,45.751 35.186,12.384 
	16.357,18.346 22.734,38.485 18.953,46.938 8.147,12.292 40.561,2.028 51.39,36.229 "/>
<polyline fill="#FFFFFF" stroke="#000000" stroke-miterlimit="10" points="36.57,41.185 34.532,34.75 22.734,38.485 18.953,46.938 
	36.57,41.185 "/>
<polyline fill="#EEE358" stroke="#000000" stroke-linejoin="bevel" stroke-miterlimit="10" points="30.148,20.906 36.592,41.254 
	18.953,46.938 8.065,12.229 2.069,22.038 12.781,56.191 45.751,45.751 35.186,12.384 34.829,12.497 "/>
<polygon fill="#FFFFFF" stroke="#000000" stroke-linejoin="bevel" stroke-miterlimit="10" points="30.23,21.164 35.186,12.384 
	16.357,18.346 18.357,24.662 "/>
</svg>
