<?xml version="1.0" encoding="utf-8"?>
<!-- Generator: Adobe Illustrator 16.0.0, SVG Export Plug-In . SVG Version: 6.00 Build 0)  -->
<!DOCTYPE svg PUBLIC "-//W3C//DTD SVG 1.1//EN" "http://www.w3.org/Graphics/SVG/1.1/DTD/svg11.dtd">
<svg version="1.1" id="레이어_1" xmlns="http://www.w3.org/2000/svg" xmlns:xlink="http://www.w3.org/1999/xlink" x="0px"
	 y="0px" width="193.382px" height="105.146px" viewBox="0 0 193.382 105.146" enable-background="new 0 0 193.382 105.146"
	 xml:space="preserve">
<g>
	<g>
		<g>
			<path fill-rule="evenodd" clip-rule="evenodd" fill="#040000" d="M43.393,60.92c0.873,0.059,0.754,1.109,1.489,1.305
				C44.257,63.537,43.229,62.061,43.393,60.92z"/>
		</g>
	</g>
	<g>
		<g>
			<g>
				<path fill="#040000" d="M105.248,34.057c-0.023-0.012-0.043-0.019-0.057-0.014C105.221,34.096,105.242,34.11,105.248,34.057z"/>
			</g>
		</g>
	</g>
	<g>
		<g>
			<g>
				<path fill="#040000" d="M103.27,42.335c0.033,0.127,0.061,0.197,0.082,0.231C103.326,42.423,103.299,42.319,103.27,42.335z"/>
			</g>
		</g>
	</g>
	<g>
		<g>
			<g>
				<path fill="#040000" d="M94.414,72.23c-0.047,0.066-0.122,0.197-0.105,0.215C94.363,72.359,94.406,72.279,94.414,72.23z"/>
			</g>
		</g>
	</g>
	<g>
		<g>
			<g>
				<path fill="#040000" d="M76.014,84.578c0.027,0.01,0.037,0.025,0.052,0.037C76.08,84.6,76.071,84.586,76.014,84.578z"/>
			</g>
		</g>
	</g>
	<g>
		<g>
			<g>
				<path fill="#040000" d="M100.398,51.521c-0.208,0.529-0.367,1.055-0.479,1.576c-0.109,0.52-0.222,1.039-0.336,1.559
					c-0.115,0.518-0.256,1.031-0.423,1.539s-0.407,1.016-0.721,1.521l-0.975,0.006l-0.175-0.891
					c-0.142,0.188-0.256,0.313-0.343,0.371s-0.159,0.074-0.222,0.047s-0.121-0.086-0.175-0.176s-0.115-0.184-0.185-0.281
					c-0.07-0.098-0.156-0.188-0.256-0.27c-0.102-0.082-0.232-0.131-0.393-0.148c0.098-0.279,0.219-0.479,0.363-0.592
					s0.301-0.184,0.471-0.205s0.342-0.008,0.52,0.039c0.177,0.049,0.35,0.096,0.518,0.143c0.168,0.045,0.322,0.078,0.46,0.094
					c0.138,0.018,0.247-0.012,0.327-0.086c0.08-0.072,0.129-0.211,0.146-0.412c0.018-0.203-0.014-0.5-0.092-0.893
					c0.211-0.045,0.326-0.117,0.344-0.219s0.001-0.211-0.051-0.328c-0.053-0.115-0.1-0.229-0.139-0.338s-0.006-0.199,0.1-0.266
					c-0.191-0.043-0.318-0.119-0.381-0.229c-0.063-0.111-0.092-0.227-0.088-0.35s0.021-0.242,0.052-0.359s0.044-0.201,0.042-0.252
					c-0.003-0.051-0.04-0.059-0.111-0.023c-0.072,0.033-0.209,0.139-0.412,0.313l-0.072,0.328c-0.109-0.043-0.173-0.098-0.19-0.166
					c-0.017-0.066-0.02-0.141-0.006-0.221c0.013-0.08,0.032-0.156,0.06-0.234c0.024-0.076,0.029-0.146,0.011-0.209
					c-0.019-0.064-0.069-0.111-0.153-0.145s-0.23-0.039-0.436-0.02l-0.999,1.232c0.152-0.066,0.277-0.084,0.376-0.053
					c0.098,0.029,0.182,0.086,0.252,0.164c0.068,0.08,0.129,0.168,0.181,0.268c0.052,0.098,0.106,0.178,0.166,0.242
					c0.06,0.063,0.132,0.096,0.22,0.096c0.086,0.002,0.201-0.051,0.343-0.156l0.331,0.676l-1.289,0.553l0.021-0.092
					c-0.188,0.014-0.373-0.014-0.559-0.08c-0.188-0.07-0.37-0.141-0.551-0.213c-0.182-0.072-0.354-0.123-0.521-0.156
					c-0.167-0.031-0.32-0.004-0.458,0.084l0.05-0.221c-0.121-0.119-0.243-0.176-0.367-0.172c-0.125,0.006-0.246,0.014-0.362,0.023
					s-0.226-0.002-0.327-0.037c-0.102-0.037-0.191-0.15-0.269-0.342c0.103-0.096,0.233-0.164,0.39-0.209
					c0.155-0.043,0.319-0.08,0.49-0.111c0.172-0.029,0.34-0.064,0.503-0.1c0.163-0.037,0.306-0.104,0.427-0.195
					s0.208-0.225,0.26-0.396c0.051-0.17,0.049-0.4-0.006-0.686c-0.149-0.033-0.257-0.094-0.324-0.182
					c-0.068-0.088-0.132-0.178-0.194-0.27c-0.062-0.092-0.14-0.168-0.23-0.23c-0.092-0.061-0.227-0.084-0.403-0.068
					c-0.102,0.043-0.172,0.111-0.211,0.209c-0.039,0.096-0.082,0.188-0.129,0.271c-0.046,0.086-0.107,0.15-0.18,0.193
					c-0.074,0.045-0.199,0.033-0.377-0.033c-0.035-0.092-0.025-0.162,0.027-0.215c0.052-0.053,0.104-0.098,0.152-0.137
					c0.051-0.041,0.083-0.084,0.098-0.129c0.016-0.049-0.027-0.115-0.127-0.201c-0.053-0.012-0.111-0.021-0.179-0.031
					c-0.065-0.01-0.128-0.01-0.185,0s-0.111,0.035-0.16,0.074c-0.051,0.039-0.084,0.102-0.104,0.189l-0.05,0.223l-0.069-0.742
					l-1.014,0.736c0.17,0.184,0.238,0.34,0.205,0.471c-0.033,0.129-0.102,0.252-0.204,0.367c-0.104,0.113-0.202,0.229-0.296,0.346
					c-0.095,0.115-0.115,0.258-0.061,0.426c-0.199,0.285-0.31,0.521-0.328,0.711c-0.018,0.188,0.02,0.342,0.117,0.463
					c0.097,0.123,0.232,0.225,0.406,0.303c0.175,0.08,0.355,0.154,0.541,0.223c0.187,0.07,0.363,0.141,0.529,0.213
					c0.168,0.074,0.293,0.168,0.377,0.283c0.085,0.113,0.107,0.258,0.069,0.434c-0.038,0.174-0.17,0.396-0.394,0.668
					c-0.096-0.15-0.151-0.281-0.168-0.395c-0.016-0.113-0.068-0.217-0.158-0.309l-0.813,0.451c-0.035-0.137-0.049-0.258-0.044-0.365
					c0.007-0.109-0.009-0.205-0.047-0.285l-0.858,0.537c-0.156-0.666-0.208-1.332-0.156-1.996c0.051-0.666,0.152-1.326,0.305-1.979
					c0.153-0.652,0.334-1.293,0.543-1.925c0.207-0.631,0.391-1.245,0.55-1.84l0.026-0.118c0.174,0.038,0.296,0.108,0.365,0.21
					c0.068,0.103,0.113,0.223,0.133,0.359s0.028,0.278,0.023,0.424s0.006,0.283,0.032,0.412c0.026,0.13,0.081,0.239,0.161,0.331
					c0.08,0.09,0.219,0.148,0.414,0.174c0.52,0.088,1.046,0.203,1.577,0.348c0.53,0.146,1.06,0.271,1.584,0.378
					c0.525,0.105,1.041,0.174,1.547,0.203s1.002-0.02,1.488-0.152c-0.005-0.146,0.026-0.285,0.093-0.417
					c0.065-0.133,0.146-0.256,0.24-0.373c0.094-0.117,0.19-0.223,0.289-0.32c0.1-0.098,0.186-0.185,0.257-0.259
					c0.253,0.092,0.409,0.206,0.466,0.342c0.057,0.137,0.074,0.291,0.049,0.463c-0.024,0.174-0.059,0.36-0.103,0.562
					C100.357,51.09,100.355,51.301,100.398,51.521z"/>
			</g>
		</g>
	</g>
	<g>
		<g>
			<g>
				<path fill="#040000" d="M96.741,61.785c-0.119,0.197-0.241,0.406-0.366,0.623c-0.123,0.217-0.264,0.422-0.422,0.615
					c-0.156,0.191-0.334,0.359-0.533,0.5s-0.429,0.238-0.689,0.291c0.021-0.26,0.02-0.52,0-0.783c-0.021-0.26-0.08-0.504-0.18-0.73
					s-0.252-0.426-0.46-0.604c-0.206-0.174-0.489-0.303-0.849-0.381c-0.205,0.012-0.393-0.053-0.562-0.195
					c-0.17-0.145-0.343-0.295-0.52-0.451c-0.177-0.158-0.366-0.285-0.569-0.381c-0.203-0.094-0.438-0.086-0.701,0.025
					c-0.004-0.271-0.064-0.453-0.182-0.545c-0.117-0.09-0.262-0.143-0.431-0.156c-0.169-0.012-0.348-0.018-0.536-0.016
					s-0.355-0.041-0.501-0.129c-0.241,0.055-0.438,0.145-0.592,0.271s-0.278,0.273-0.373,0.441
					c-0.095,0.166-0.167,0.354-0.216,0.557c-0.05,0.205-0.09,0.418-0.118,0.641c0.031,0.332,0.115,0.604,0.251,0.82
					c0.137,0.217,0.307,0.402,0.512,0.557c0.204,0.154,0.434,0.289,0.688,0.404c0.254,0.113,0.51,0.232,0.77,0.357
					c0.258,0.125,0.515,0.262,0.768,0.412c0.253,0.152,0.478,0.342,0.672,0.574l0.391-0.156c-0.006,0.287,0.053,0.455,0.176,0.502
					c0.122,0.047,0.266,0.053,0.429,0.014c0.163-0.037,0.321-0.072,0.476-0.105c0.155-0.031,0.264,0.023,0.325,0.164
					c-0.008-0.109,0.013-0.219,0.063-0.33c0.051-0.109,0.116-0.197,0.197-0.264c0.082-0.066,0.174-0.104,0.28-0.113
					c0.104-0.01,0.211,0.033,0.32,0.129c0.079,0.109,0.165,0.232,0.257,0.365c0.093,0.133,0.163,0.281,0.211,0.445
					c-0.187,0.189-0.359,0.426-0.516,0.705c-0.158,0.281-0.328,0.563-0.512,0.844c-0.184,0.279-0.389,0.537-0.617,0.77
					s-0.508,0.402-0.84,0.506c0.094-0.506,0.078-0.936-0.045-1.283c-0.123-0.352-0.318-0.658-0.584-0.92
					c-0.264-0.262-0.578-0.496-0.943-0.705c-0.365-0.207-0.741-0.414-1.129-0.619c-0.387-0.205-0.768-0.428-1.14-0.666
					s-0.694-0.523-0.966-0.852c-0.221-0.328-0.384-0.65-0.493-0.967c-0.108-0.314-0.228-0.641-0.358-0.979
					c0.164-0.049,0.265-0.137,0.3-0.266c0.035-0.131,0.055-0.275,0.056-0.436c0.002-0.16,0.01-0.32,0.021-0.479
					c0.013-0.158,0.066-0.293,0.163-0.402c0.171-0.232,0.378-0.445,0.626-0.641c0.246-0.195,0.511-0.355,0.793-0.479
					c0.281-0.123,0.576-0.205,0.887-0.242c0.31-0.039,0.609-0.023,0.9,0.047c0.5,0.227,0.973,0.488,1.416,0.791
					s0.885,0.586,1.324,0.854c0.438,0.268,0.887,0.498,1.346,0.688c0.458,0.191,0.953,0.295,1.484,0.311
					c-0.03-0.123-0.027-0.215,0.009-0.275c0.038-0.061,0.095-0.105,0.173-0.131s0.164-0.045,0.26-0.057
					c0.095-0.01,0.182-0.029,0.26-0.055c0.236,0.109,0.367,0.217,0.393,0.322c0.026,0.104,0.012,0.215-0.043,0.332
					s-0.116,0.25-0.184,0.398C96.701,61.416,96.691,61.588,96.741,61.785z"/>
			</g>
		</g>
	</g>
	<g>
		<g>
			<g>
				<path fill="#040000" d="M83.676,73.918c-0.227-0.252-0.378-0.551-0.453-0.898c-0.075-0.346-0.139-0.693-0.191-1.039
					c-0.055-0.35-0.135-0.672-0.24-0.973c-0.107-0.301-0.307-0.535-0.602-0.703l0.08-0.072c-0.068-0.225-0.176-0.391-0.318-0.496
					c-0.143-0.107-0.303-0.18-0.481-0.217c-0.179-0.039-0.372-0.059-0.58-0.057c-0.209,0-0.418-0.002-0.626-0.008
					s-0.41-0.025-0.604-0.063c-0.194-0.035-0.37-0.115-0.526-0.238c-0.066-0.289-0.052-0.496,0.044-0.623
					c0.096-0.129,0.224-0.227,0.382-0.297c0.159-0.07,0.329-0.131,0.509-0.186c0.181-0.053,0.321-0.148,0.425-0.289
					c0.277,0.016,0.558,0.104,0.839,0.266c0.282,0.162,0.563,0.342,0.843,0.541c0.279,0.199,0.557,0.385,0.832,0.561
					c0.275,0.172,0.544,0.283,0.807,0.33c0.264,0.045,0.521-0.002,0.771-0.143c0.252-0.141,0.492-0.434,0.719-0.875
					c0.189-0.193,0.295-0.344,0.32-0.457c0.025-0.111,0.004-0.199-0.064-0.264c-0.07-0.064-0.167-0.119-0.291-0.164
					c-0.123-0.045-0.242-0.102-0.355-0.168s-0.198-0.15-0.257-0.256c-0.056-0.104-0.052-0.254,0.017-0.445L84.1,66.549l0.027-0.293
					c-0.258-0.033-0.455-0.021-0.591,0.033c-0.136,0.057-0.26,0.113-0.37,0.17c-0.111,0.057-0.237,0.094-0.377,0.111
					s-0.35-0.023-0.629-0.121c0.096-0.133,0.169-0.291,0.217-0.471c0.048-0.182,0.105-0.344,0.175-0.49
					c0.067-0.145,0.159-0.25,0.274-0.316c0.113-0.066,0.289-0.055,0.523,0.035l0.708-0.758l-0.071-0.08
					c0.035,0.041,0.082,0.037,0.138-0.006c0.057-0.045,0.12-0.107,0.19-0.189c0.072-0.082,0.147-0.164,0.229-0.248
					c0.08-0.084,0.164-0.141,0.251-0.17c0.087-0.031,0.175-0.021,0.265,0.023c0.089,0.047,0.176,0.164,0.26,0.352l-0.502,1.51
					l4.4,4.586c0.023-0.176,0.062-0.289,0.115-0.336c0.053-0.049,0.112-0.059,0.176-0.033c0.066,0.025,0.137,0.064,0.213,0.117
					s0.152,0.09,0.23,0.117s0.154,0.023,0.229-0.006c0.074-0.031,0.141-0.127,0.201-0.287c0.164,0.355,0.185,0.676,0.064,0.957
					c-0.12,0.279-0.309,0.541-0.566,0.785c-0.257,0.24-0.549,0.469-0.873,0.682c-0.326,0.211-0.607,0.424-0.848,0.639
					c-0.316,0.33-0.645,0.605-0.986,0.826c-0.342,0.223-0.699,0.383-1.071,0.482s-0.759,0.129-1.159,0.09
					C84.543,74.223,84.12,74.107,83.676,73.918z M88.08,71.547c-0.039-0.084-0.057-0.209-0.05-0.377
					c0.006-0.168-0.001-0.316-0.022-0.447s-0.074-0.221-0.16-0.271c-0.086-0.049-0.237,0-0.454,0.146l0.045-0.633
					c-0.21,0.02-0.391-0.029-0.542-0.145c-0.152-0.117-0.199-0.277-0.145-0.484c-0.217-0.068-0.391-0.084-0.519-0.047
					c-0.13,0.037-0.231,0.1-0.31,0.188c-0.078,0.086-0.145,0.189-0.197,0.311c-0.055,0.121-0.115,0.236-0.182,0.35
					s-0.152,0.211-0.254,0.289c-0.103,0.08-0.242,0.121-0.42,0.125c-0.173,0.154-0.283,0.281-0.33,0.385
					c-0.047,0.102-0.059,0.189-0.034,0.264s0.068,0.139,0.132,0.197c0.063,0.057,0.113,0.119,0.15,0.189
					c0.037,0.068,0.049,0.146,0.034,0.238s-0.09,0.209-0.224,0.352c0.121,0.084,0.215,0.172,0.279,0.264s0.124,0.18,0.18,0.262
					c0.055,0.082,0.122,0.16,0.2,0.234c0.079,0.074,0.198,0.135,0.359,0.182c0.249-0.031,0.49-0.104,0.725-0.215
					c0.234-0.113,0.452-0.248,0.653-0.406c0.203-0.156,0.395-0.318,0.578-0.488S87.927,71.684,88.08,71.547z"/>
			</g>
		</g>
	</g>
	<g>
		<g>
			<g>
				<path fill="#040000" d="M77.139,78.799c-0.129-0.256-0.285-0.492-0.471-0.709c-0.184-0.219-0.369-0.432-0.556-0.643
					s-0.36-0.432-0.521-0.66c-0.16-0.23-0.283-0.488-0.369-0.775c-0.184-0.107-0.328-0.23-0.432-0.367
					c-0.105-0.139-0.194-0.291-0.27-0.457c-0.073-0.168-0.146-0.34-0.213-0.516c-0.07-0.176-0.16-0.346-0.273-0.508
					c0.061,0,0.109-0.014,0.145-0.043c0.035-0.027,0.066-0.066,0.092-0.113c0.026-0.049,0.051-0.102,0.072-0.156
					c0.021-0.057,0.051-0.107,0.086-0.156c-0.18-0.02-0.301-0.053-0.365-0.1c-0.064-0.049-0.092-0.109-0.085-0.184
					c0.009-0.074,0.032-0.156,0.071-0.246s0.076-0.182,0.109-0.273c0.035-0.092,0.046-0.184,0.035-0.271
					c-0.01-0.092-0.064-0.176-0.166-0.256c0.128-0.264,0.285-0.529,0.472-0.793s0.397-0.504,0.636-0.717
					c0.236-0.215,0.498-0.396,0.783-0.545c0.285-0.15,0.598-0.244,0.936-0.285c0.293-0.059,0.563-0.063,0.813-0.012
					c0.25,0.049,0.488,0.129,0.715,0.238c0.226,0.111,0.449,0.248,0.67,0.406s0.451,0.322,0.697,0.488
					c0.213,0.344,0.436,0.697,0.668,1.061c0.233,0.361,0.449,0.734,0.648,1.119c0.199,0.387,0.371,0.783,0.52,1.195
					c0.146,0.41,0.238,0.838,0.271,1.281c-0.107,0.244-0.205,0.514-0.291,0.807c-0.088,0.295-0.188,0.576-0.301,0.85
					c-0.112,0.271-0.252,0.52-0.419,0.744s-0.385,0.389-0.651,0.494c-0.289-0.055-0.561-0.053-0.815,0.006
					c-0.256,0.059-0.507,0.117-0.752,0.176s-0.49,0.096-0.733,0.107C77.65,79,77.398,78.936,77.139,78.799z M78.838,77.82
					c0.387-0.064,0.67-0.199,0.846-0.404c0.178-0.203,0.301-0.441,0.369-0.711s0.109-0.555,0.123-0.857s0.052-0.578,0.114-0.83
					c0.055-0.348-0.001-0.691-0.165-1.027c-0.165-0.338-0.385-0.654-0.66-0.951c-0.274-0.297-0.576-0.574-0.908-0.832
					c-0.33-0.26-0.641-0.48-0.934-0.662c-0.212-0.045-0.443-0.047-0.695-0.01c-0.252,0.035-0.483,0.104-0.695,0.199
					c-0.211,0.098-0.382,0.219-0.514,0.365c-0.131,0.146-0.187,0.309-0.166,0.488c0.076,0.092,0.109,0.191,0.1,0.303
					c-0.009,0.109-0.034,0.217-0.076,0.324c-0.042,0.105-0.087,0.209-0.137,0.309c-0.049,0.1-0.076,0.191-0.08,0.273
					s0.027,0.152,0.094,0.215c0.065,0.063,0.193,0.109,0.381,0.146c-0.023,0.072-0.044,0.158-0.063,0.264
					c-0.018,0.104-0.054,0.17-0.109,0.197l0.941,1.867c0.176,0.07,0.356,0.186,0.541,0.342c0.184,0.158,0.373,0.313,0.564,0.467
					c0.191,0.152,0.383,0.283,0.574,0.393C78.473,77.797,78.658,77.842,78.838,77.82z"/>
			</g>
		</g>
	</g>
	<g>
		<g>
			<g>
				<path fill="#040000" d="M71.273,81.424c-0.32,0.041-0.631,0.113-0.934,0.215s-0.603,0.188-0.898,0.256
					c-0.297,0.068-0.589,0.098-0.879,0.092c-0.289-0.006-0.584-0.096-0.887-0.268c-0.257-0.092-0.445-0.256-0.564-0.496
					c-0.121-0.238-0.212-0.504-0.275-0.797c-0.063-0.293-0.118-0.598-0.168-0.91c-0.049-0.314-0.132-0.596-0.25-0.844
					c0.117-0.264,0.262-0.496,0.434-0.697s0.358-0.383,0.561-0.545c0.203-0.162,0.416-0.309,0.639-0.439
					c0.224-0.131,0.443-0.246,0.658-0.346c0.125,0.027,0.279,0.025,0.46-0.004s0.366-0.066,0.558-0.113
					c0.191-0.045,0.37-0.088,0.535-0.129c0.165-0.039,0.295-0.051,0.39-0.035c-0.018-0.207-0.024-0.4-0.022-0.584
					c0.001-0.184-0.005-0.363-0.02-0.537c-0.016-0.176-0.046-0.35-0.092-0.521c-0.047-0.174-0.117-0.352-0.211-0.531
					c-0.119-0.002-0.246-0.043-0.383-0.123c-0.135-0.082-0.269-0.148-0.398-0.203c-0.131-0.053-0.254-0.07-0.368-0.051
					s-0.21,0.129-0.286,0.33c-0.031-0.15-0.117-0.27-0.256-0.363s-0.26-0.184-0.359-0.271c-0.102-0.09-0.145-0.189-0.127-0.303
					c0.016-0.113,0.166-0.256,0.449-0.426c0.355-0.131,0.736-0.225,1.14-0.279c0.404-0.055,0.802-0.088,1.192-0.1
					c0.391-0.01,0.759-0.006,1.105,0.01c0.346,0.018,0.634,0.027,0.863,0.033c0.023,0.232-0.023,0.408-0.141,0.523
					c-0.117,0.117-0.26,0.217-0.43,0.299s-0.338,0.17-0.507,0.26c-0.167,0.09-0.29,0.23-0.368,0.422
					c0.183,0.846,0.357,1.684,0.527,2.512c0.168,0.828,0.302,1.617,0.4,2.375c0.039,0.311,0.129,0.564,0.267,0.764
					c0.14,0.199,0.31,0.35,0.509,0.453c0.2,0.104,0.422,0.168,0.666,0.193c0.242,0.025,0.492,0.023,0.752-0.004
					c0.129,0.172,0.168,0.295,0.119,0.365c-0.049,0.068-0.131,0.123-0.246,0.162c-0.115,0.037-0.236,0.084-0.367,0.141
					c-0.129,0.055-0.206,0.158-0.228,0.309c-0.23-0.096-0.45-0.115-0.657-0.057c-0.207,0.057-0.413,0.127-0.619,0.209
					c-0.207,0.08-0.413,0.141-0.619,0.18C71.73,81.588,71.51,81.547,71.273,81.424z M70.761,80.699
					c-0.002-0.137,0.033-0.229,0.104-0.277c0.072-0.047,0.152-0.072,0.236-0.078c0.087-0.004,0.169-0.004,0.248,0.002
					c0.078,0.006,0.129-0.008,0.149-0.039l-0.124-1.152l0.104-0.021l-0.664-1.502c-0.283,0.088-0.519,0.119-0.706,0.096
					c-0.188-0.023-0.366-0.041-0.533-0.057c-0.167-0.014-0.338,0.004-0.511,0.049c-0.172,0.045-0.38,0.188-0.621,0.422
					c-0.205,0.152-0.375,0.33-0.511,0.527c-0.136,0.199-0.222,0.406-0.257,0.625c-0.035,0.217-0.012,0.434,0.07,0.648
					c0.084,0.215,0.245,0.416,0.486,0.602c0.236,0.123,0.453,0.184,0.649,0.182c0.196,0,0.39-0.018,0.579-0.047
					c0.189-0.033,0.39-0.057,0.601-0.076C70.273,80.584,70.505,80.617,70.761,80.699z"/>
			</g>
		</g>
	</g>
	<g>
		<g>
			<g>
				<path fill="#040000" d="M94.05,42.998c-0.233-0.053-0.403-0.163-0.508-0.331s-0.183-0.36-0.235-0.575
					c-0.053-0.216-0.097-0.438-0.133-0.664C93.137,41.201,93.072,41,92.98,40.83c0.353-0.258,0.711-0.438,1.076-0.544
					c0.366-0.104,0.734-0.191,1.109-0.262c0.375-0.071,0.755-0.15,1.14-0.237c0.384-0.089,0.768-0.247,1.149-0.477
					c0.169,0.005,0.307-0.042,0.414-0.142c0.109-0.1,0.181-0.221,0.217-0.367c0.037-0.145,0.035-0.298-0.008-0.463
					c-0.041-0.163-0.127-0.311-0.258-0.442c0.13-0.108,0.189-0.201,0.174-0.278c-0.013-0.076-0.047-0.151-0.1-0.224
					c-0.053-0.073-0.098-0.152-0.137-0.236c-0.037-0.084-0.018-0.186,0.061-0.301l0.499-0.608c0.285,0.344,0.495,0.726,0.634,1.145
					c0.137,0.418,0.25,0.852,0.342,1.301s0.178,0.903,0.261,1.362c0.083,0.458,0.204,0.898,0.364,1.322
					c-0.2,0.011-0.366-0.04-0.496-0.153c-0.129-0.114-0.242-0.251-0.338-0.41c-0.095-0.16-0.188-0.324-0.277-0.493
					c-0.091-0.169-0.199-0.304-0.326-0.408c-0.127-0.104-0.285-0.154-0.475-0.153c-0.189,0.002-0.436,0.091-0.736,0.269
					c-0.11,0.104-0.236,0.189-0.377,0.258c-0.143,0.067-0.288,0.134-0.439,0.197c-0.149,0.063-0.297,0.124-0.441,0.182
					c-0.145,0.059-0.275,0.129-0.391,0.213c-0.127-0.039-0.263-0.048-0.406-0.024c-0.143,0.021-0.287,0.056-0.43,0.107
					c-0.143,0.05-0.285,0.109-0.428,0.178c-0.141,0.068-0.276,0.135-0.404,0.199c0.061,0.144,0.104,0.279,0.129,0.407
					c0.024,0.129,0.037,0.257,0.04,0.383c0.003,0.128-0.004,0.263-0.02,0.405C94.088,42.677,94.069,42.832,94.05,42.998z"/>
			</g>
		</g>
	</g>
	<g>
		<g>
			<g>
				<path fill="#040000" d="M77.488,9.236c-0.222-0.065-0.414-0.114-0.527-0.122C77.278,9.209,77.429,9.244,77.488,9.236z"/>
			</g>
		</g>
	</g>
	<g>
		<g>
			<g>
				<path fill="#040000" d="M68.248,6.922c-0.032,0.011-0.063,0.022-0.08,0.039C68.214,6.948,68.232,6.936,68.248,6.922z"/>
			</g>
		</g>
	</g>
	<g>
		<g>
			<g>
				<path fill="#040000" d="M103.766,42.403c-0.346-1.865-0.232,0.432-0.414,0.164c0.094,0.494,0.137,1.563,0.215,1.051
					c-0.113,0.502-0.031,1.238,0.033,1.992c0.064,0.753,0.111,1.522-0.025,2.051c0.029,0.048,0.145-0.568,0.195,0.173
					c-0.016,1.107-0.16,1.02-0.248,1.464c0.031,0.165,0.029,0.668,0.006,1.108c-0.023,0.44-0.066,0.817-0.076,0.735
					c-0.018,0.74,0.381-0.749,0.385,0.293c0.113,0.723-0.197,1.646-0.299,2.469c-0.162,0.475-0.139,0.227-0.076-0.193
					c0.061-0.42,0.154-1.012,0.148-1.221c-0.109,0.93-0.254,1.857-0.43,2.781c-0.285,0.781-0.098-0.404,0.08-1.211
					c-0.33,1.074-0.568,2.49-0.504,2.854c-0.221,0.668-0.291,1.035-0.554,1.646c0.108-0.654-0.171-0.697,0.057-1.691
					c0.444-1.621,0.062,0.648,0.46-0.729l-0.135-0.162c0.24-0.572,0.225-1.08,0.342-1.727c0.113-0.352,0.045,0.092,0.02,0.338
					c0.227-1.168,0.465-2.094,0.389-3.01c-0.178,0.783-0.324,1.771-0.49,2.646c-0.166,0.873-0.346,1.629-0.527,1.943
					c-0.182,1.045-0.409,2.086-0.679,3.119c0.077,0.027,0.546-0.992,0.371-0.096c-0.31,0.291-0.697,1.154-1.195,2.281
					c0.186-0.17,0.047,0.305-0.103,0.758c-0.146,0.453-0.301,0.881-0.093,0.635c0.137-0.574,0.414-0.77,0.464-0.838
					c-0.465,1.111,0.121,0.229-0.135,0.842c-0.478,0.998-0.512,0.959-0.533,0.922c-0.025-0.043-0.041-0.082-0.561,0.865
					c0.123-0.451,0.439-1.584,0.814-2.711c-0.118,0.039-0.459,1.094-0.777,1.496c0.404-0.584-0.024,0.531,0.267,0.029
					c-0.652,1.604-1.435,3.498-2.575,5.289c-0.041-0.227,0.398-1.002,0.73-1.691c0.336-0.689,0.578-1.283,0.25-1.09
					c-0.469,0.91-0.336,0.988-0.791,1.676c-0.268,0.242-0.6,0.748-0.979,1.328c-0.377,0.582-0.803,1.238-1.231,1.795l0.454-0.436
					c-0.256,0.477-0.917,1.219-1.332,1.682l0.071-0.152c-0.114,0.17-0.229,0.338-0.347,0.506c-0.068,0.068-0.092,0.078-0.1,0.068
					c-0.182,0.287-0.574,0.742-1.039,1.232c-0.464,0.49-0.998,1.021-1.441,1.49c0.113,0.113,0.918-0.895,1.348-1.336
					c0.146-0.094,0.999-0.938,0.689-0.436c-0.541,0.598-0.98,1.125-1.453,1.66c-0.473,0.533-0.979,1.078-1.669,1.684
					c0.157-0.117,0.313-0.234,0.468-0.354c-0.359,0.475-0.994,0.957-1.67,1.516c-0.654,0.455-0.46,0.229-0.204-0.043
					c0.254-0.273,0.565-0.596,0.167-0.328c0.393-0.494,1.306-1.09,1.292-1.35c-0.294,0.166-0.589,0.33-0.886,0.488
					c-0.538,0.641-1.376,1.049-1.815,1.42l0.55-0.303c0.009,0.211-0.525,0.463-0.773,0.615l0.482-0.053
					c0.751-0.52,1.091-1.084,1.687-1.4c-0.589,0.553-0.79,0.797-1.027,1.066c-0.241,0.264-0.516,0.555-1.306,1.133
					c-0.127-0.025,0.283-0.25,0.402-0.432c-0.572,0.344-1.027,0.92-1.975,1.451c0.487-0.389,1.246-1.043,0.522-0.701
					c-0.124,0.158-0.247,0.32-0.374,0.477c-0.431,0.252-0.302,0.076-0.475,0.182c-0.615,0.352,0.245,0.082-0.731,0.633
					c-0.161,0.059-0.501,0.211-0.384,0.092c-1.109,0.643-0.496,0.369-1.506,1.033c0.942-0.521,1.124-0.297,0.15,0.277
					c-1.414,0.725-2.344,1.32-3.441,1.533l-0.61,0.385c0.358-0.332-0.956,0.32-1.444,0.455c-0.111-0.064,0.449-0.262,1.017-0.5
					c0.569-0.236,1.142-0.516,1.079-0.66c-0.967,0.375-0.586,0.107-0.313-0.098c-1.021,0.455-0.297,0.367-0.711,0.67
					c-0.016-0.035-0.463,0.135-0.841,0.254c-0.376,0.123-0.682,0.197-0.397,0.006c-0.902,0.307-0.997,0.547-1.682,0.723
					c0.078-0.105,0.165-0.236,0.071-0.313c-0.059,0.092-0.943,0.271-1.112,0.311c0.168-0.01-0.271,0.25,0.508-0.033
					c-0.078,0.104-0.546,0.24-0.986,0.357c-0.442,0.115-0.855,0.211-0.818,0.268c-0.063-0.074-0.499,0.023-1.029,0.145
					c-0.53,0.119-1.159,0.256-1.594,0.295c0.078,0.197,0.471,0.088,0.884-0.045c0.413-0.129,0.845-0.285,1.024-0.152
					c-0.552,0.197-1.512,0.4-2.567,0.576c-1.055,0.174-2.204,0.32-3.135,0.482c-1.63,0.035-0.011-0.154-0.354-0.283
					c0.741-0.086,1.205-0.123,1.646-0.158c0.439-0.035,0.855-0.074,1.486-0.205l-2.511,0.27c-0.882,0.096-1.719,0.176-2.236,0.254
					c-0.771,0.031-1.2-0.072-1.667-0.17c-0.466-0.1-0.969-0.188-1.897-0.188c0.239,0.145,0.197,0.178,0.778,0.25
					c-0.5,0.031-1.08-0.053-1.616-0.094c-0.337,0.059,0.823,0.164,0.071,0.182c-0.289-0.045-0.908-0.123-0.778-0.201l0.125-0.002
					c-0.895-0.023-1.206-0.152-1.485-0.25c-0.281-0.102-0.529-0.178-1.305-0.176c0.111,0.086,0.453,0.057,0.817,0.152
					c0.272,0.143-0.69,0.154-1.403,0.068c0.143-0.066-0.613-0.127-1.097-0.26c-0.147-0.109,0.16-0.057,0.539,0.014
					c0.379,0.068,0.831,0.15,0.962,0.119c-0.449-0.086-0.899-0.174-1.346-0.275l0.278,0.08c-0.497-0.047-0.995-0.105-1.493-0.174
					c1.029,0.186,0.449,0.297-0.006,0.211c-1.014-0.266-2.013-0.588-1.845-0.717c-0.167,0.133-1.411-0.242-2.292-0.518
					c0.932,0.385,0.074,0.18-0.222,0.133c-0.458-0.221-0.911-0.453-1.358-0.691c1.502,0.531-0.259-0.262,0.135-0.234
					c0.488,0.006,1.349,0.43,2.135,0.713c-0.721-0.406-1.268-0.566-1.799-0.703c-0.529-0.139-1.046-0.258-1.666-0.609
					c0.032-0.072,0.182-0.104,0.747,0.152c-0.208-0.143-1.247-0.361-2.069-0.865c0.201,0.158,0.626,0.537-0.268,0.182
					c-0.348-0.242-0.69-0.492-1.029-0.742c-1.26-0.734-0.54-0.049-1.637-0.572c0.205,0.174,0.414,0.342,0.625,0.512
					c-0.096,0.043-0.455-0.156-0.801-0.359c-0.347-0.199-0.682-0.4-0.748-0.33c0.646,0.402,1.086,0.488,1.755,0.92
					c0.175,0.309-0.934-0.402-1.374-0.561c-0.689-0.461-0.951-0.66-1.168-0.834c-0.213-0.176-0.381-0.326-0.846-0.73
					c0.063-0.131,0.525,0.082,0.979,0.258c0.451,0.176,0.889,0.318,0.877,0.092c-0.682-0.393-1.502-0.898-2.239-1.41
					c-0.737-0.51-1.388-1.025-1.756-1.393c-0.575-0.41-0.866-0.564-1.015-0.574c-0.146-0.012-0.146,0.117-0.119,0.248
					c-0.469-0.359-0.668-0.574-0.921-0.857l0.56,0.375c-0.689-0.545-1.227-0.982-1.752-1.449c-0.527-0.467-1.045-0.959-1.666-1.645
					c-0.734-0.744-0.58-0.322-0.512-0.043c-0.262-0.277-0.521-0.559-0.773-0.844l0.084,0.156c-0.305-0.074-0.914-0.898-1.373-1.51
					c0.061-0.051,0.361,0.307,0.373,0.242c-0.368-0.57-0.985-1.377-1.363-1.783c0.065-0.047,0.469,0.234,0.904,0.908
					c0.037,0.078-0.012,0.063,0.023,0.141c0.299,0.34,0.604,0.674,0.912,1.002c-1.055-1.156-1.416-2.049-1.243-2.119
					c-0.974-1.213,0.57,1.146-0.554-0.326c-0.542-1.109-1.17-2.072-1.682-2.953s-0.906-1.676-0.965-2.393
					c-0.59-0.959-1.318-2.109-1.939-3.764c-0.155,0.057-0.451-1.092-0.578-0.867c0.176,0.836,0.526,1.555,0.869,2.225
					c0.344,0.67,0.676,1.291,0.832,1.967c0.391,0.654,0.402,0.363,0.627,0.631c0.305,0.594,0.588,1.156,0.543,1.281
					c-0.409-0.664-0.535-0.719-0.684-0.82c-0.145-0.104-0.313-0.256-0.738-1.158c-0.023,0.289,0.733,1.727,1.057,2.371
					c-0.165-0.152-0.139,0.078,0.037,0.52c-0.365-0.385-1.002-1.357-1.36-1.855c0.157,0.158,0.026-0.211,0.142-0.072
					c-0.376-0.6-0.736-1.209-1.082-1.828c-0.165-0.637-0.119-0.842,0.09-0.555c-0.201-0.545-0.521-1.26-0.752-1.857
					c-0.232-0.596-0.378-1.068-0.267-1.107c-0.491-1.418,0.007,0.496-0.003,0.639l-0.053-0.117c0.176,0.5,0.361,0.998,0.559,1.492
					c-0.098,0.131-0.246-0.299-0.4-0.783c-0.156-0.482-0.313-1.021-0.477-1.104c-0.275-0.041-0.414-0.596-0.514-1.268
					c-0.103-0.674-0.16-1.463-0.328-1.998c0.217,0.391,0.439,0.777,0.667,1.158c-0.124-0.352-0.241-0.705-0.356-1.061
					c0.293,0.59,0.516,0.531,0.918,1.428c-0.206-0.734-0.404-1.635-0.566-2.471c-0.166-0.838-0.293-1.609-0.406-2.084
					c0.061-0.396,0.146-0.576,0.293-0.432c-0.228-0.729-0.273-1.32-0.277-1.885c-0.003-0.565,0.034-1.105-0.007-1.752
					c-0.11-0.683-0.134-0.336-0.159,0.061c-0.023,0.396-0.043,0.843-0.17,0.346c0.057-0.426-0.06-1.179-0.107-1.557
					c0.076,0.417,0.041,1.898,0.1,2.918c-0.074-0.759-0.236-0.659-0.328-0.864c0.022,0.426,0.057,0.851,0.093,1.278
					c-0.112-0.029-0.163-0.422-0.199-0.88c-0.034-0.457-0.054-0.979-0.126-1.273c0.219,0.364,0.211,0.155,0.432,0.518
					c-0.174-1.09-0.222-2.751-0.084-3.683c0.086-0.549,0.09,0.465,0.152,0.76c0.127-0.252-0.077-1.096,0.095-1.304
					c0.117,0.17-0.001,0.67,0.036,1.051c0.019-1.064,0.078-2.127,0.18-3.186c0.076,0.007,0.045,0.799-0.006,1.299
					c0.137-0.961,0.144-1.661,0.002-2.818c0.197-1.081,0.525-2.299,0.578-1.914c0.033-0.502-0.093-0.185-0.172-0.193
					c0.296-1.439,0.069-1.653,0.255-2.521l-0.288,0.626c0.227-0.688,0.191-0.78,0.143-0.856c-0.049-0.075-0.111-0.135,0.102-0.739
					c0.096,0.24,0.287,0.201,0.496,0.036c-0.094-0.24,0.242-0.981,0.4-1.502c-0.246,0.281,0.214-1.166-0.193-0.363
					c0.266-1.254,0.66-1.741,0.809-2.68c-0.129,0.268-0.066-0.003-0.008-0.287c0.062-0.283,0.123-0.579-0.023-0.36
					c0.452-1.16,0.984-1.854,0.992-1.48c-0.187,0.383-0.516,0.983-0.379,0.989c0.279-0.692,0.58-1.377,0.897-2.053
					c0.311-0.466,0.675-1.082,0.871-1.077c0.08-0.361,0.36-0.81,0.64-1.231c0.277-0.423,0.549-0.823,0.592-1.118
					c-0.268,0.723-0.734,1.134-0.9,1.377l0.143-0.318c-0.025,0.044-0.057,0.092-0.098,0.152c0.07-0.33,0.146-0.66,0.227-0.991
					c-0.578,0.747,0.078,0.241-0.572,1.386c-0.398,0.435-0.189-0.188,0.052-0.794c0.239-0.607,0.508-1.198,0.12-0.728
					c-0.578,0.807-0.253,0.795-0.556,1.553l0.108-0.182c-0.26,0.555-0.506,1.116-0.74,1.681c-0.127,0.034,0.051-0.499,0.053-0.499
					c-0.502,0.994-0.799,1.565-1.105,2.157c-0.302,0.593-0.613,1.208-1.045,2.332c0.096-0.152,0.53-0.488,0.217,0.528
					c-0.182,0.744-0.373,0.772-0.586,1.376c0.081-0.373,0.029-0.753,0.301-1.202l-0.209-0.028c0.179-0.893,0.156-1.133,0.176-1.443
					c0.025-0.309,0.088-0.692,0.544-1.847c-0.046-0.081,0.093-0.544,0.332-1.134c0.239-0.589,0.585-1.301,0.924-1.889l-0.427,0.521
					c0.207-0.683,0.29-0.716,0.396-0.79c0.107-0.074,0.235-0.189,0.585-1.024c0.606-0.52,1.595-1.484,1.262-0.524
					c0.716-1.024,0.83-1.459,1.475-2.382c0.582-0.432-0.002,0.42,0.26,0.443c0.441-0.682,0.988-1.555,0.522-1.148
					c0.331-0.396,0.673-0.784,1.019-1.168c0.063-0.002-0.281,0.43-0.418,0.599c0.401-0.447,1.051-1.405,1.214-1.716
					c-0.074,0.104-0.298,0.424-0.433,0.531c0.359-0.537,1.051-1.475,1.064-1.577c-0.545,0.779-0.795,0.679-1.32,1.534
					c0.008-0.103,0.02-0.315,0.383-0.69c-0.641,0.538-1.134,1.2-1.467,1.381c0.52-0.479,0.676-0.926,0.754-1.056
					c-0.439,0.452-1.176,1.467-1.369,1.846c-0.131-0.04-0.484,0.46-0.761,0.872c-0.276,0.413-0.481,0.735-0.358,0.319
					c0,0.16-0.506,0.923-0.812,1.302c-0.071-0.097,0.544-1.159,0.745-1.662c1.334-2.081,0.123,0.143,0.523-0.281
					c0.357-0.512,0.725-1.015,1.104-1.512c-0.145,0.128,0.321-0.703-0.418,0.275c0.217-0.551,0.877-1.555,1.607-2.206
					c0.092-0.219-0.363,0.327-0.508,0.492c0.084-0.213,0.66-1.303-0.381-0.141c0.295-0.335-0.39,0.658,0.188,0.098
					c-0.188,0.247-0.568,0.681-0.856,0.983c-0.289,0.302-0.493,0.469-0.345,0.16c-0.216,0.313-0.515,0.771-0.796,1.22
					c-0.28,0.449-0.544,0.888-0.704,1.155c-0.197,0.083,0.258-0.47,0.395-0.755c-0.4,0.608-0.786,1.226-1.155,1.854l0.443-0.456
					c-0.943,1.293-1.187,2.335-1.706,3.499c-0.097-0.249,0.391-1.193,0.733-1.968c-0.309,0.285-0.349,0.418-0.396,0.618
					c-0.049,0.202-0.107,0.471-0.438,1.048c-0.117,0.14-0.182,0.158-0.194,0.053c-0.114,0.341-0.224,0.681-0.328,1.022
					c-0.159,0.266-0.12,0.09-0.071-0.035c-0.304,0.862-0.226,0.885-0.205,0.967c0.025,0.085-0.016,0.226-0.455,1.351
					c0.335-0.646,0.436-0.938,0.512-1.212c0.079-0.272,0.135-0.525,0.417-1.071c0.227-0.282,0.121,0.059-0.037,0.517
					c-0.161,0.458-0.371,1.035-0.405,1.213c-0.262,0.528-0.471,0.795-0.668,1.111s-0.385,0.683-0.57,1.41
					c0.139-0.51,0.104-0.535,0.092-0.61c-0.008-0.074,0.009-0.198,0.291-0.892c0.227-0.813-0.256,0.373-0.424,0.495
					c-0.111,0.383,0.289-0.169-0.133,0.85l-0.013-0.052c-0.146,0.589-0.275,1.18-0.393,1.771c-0.315,0.777-0.522,1.703-0.7,2.562
					c-0.179,0.859-0.324,1.654-0.555,2.19l0.263-0.216c-0.205,1.026-0.437,2.494-0.484,3.233c-0.099-0.185-0.019-0.881,0.065-1.621
					c-0.352,1.854-0.377,3.529-0.275,4.796c0.207-0.904,0.206-1.035,0.391-1.888c0.088,0.615,0.016,0.965-0.077,1.361
					c-0.092,0.395-0.201,0.837-0.153,1.619c-0.207,0.037-0.162-0.484-0.373-0.099c0.116,0.656,0.08,1.747,0.225,2.482
					c-0.182,0.4-0.401-0.288-0.396-1.913c0.195-1.22-0.023-2.593,0.253-3.588l-0.187,0.602c0.052-1.233,0.188-1.968,0.254-3.024
					l0.023,0.047l-0.117-0.555l-0.094,0.565c-0.058-0.408-0.027-1.623,0.044-1.974c-0.161,0.878-0.151,1.365-0.103,1.737
					s0.138,0.63,0.17,1.056c-0.222,1.565-0.628,2.16-0.526,3.231c-0.104,0.079-0.253,0.966-0.306,0.248
					c-0.006-0.89,0.185-1.503,0.053-1.603c-0.072,0.935-0.139,0.572-0.195,1.998c0.168,0.278,0.302,1.346,0.458,2.354
					c0.101,1.059,0.165,2.421,0.185,3.263c-0.108-1.052-0.318-2.105-0.441-1.833c0.104,0.307,0.096,0.828,0.094,1.233
					c0.002,0.406,0.005,0.695,0.123,0.527c0.04,0.62,0.123,1.446,0.188,2.138c0.061,0.691,0.1,1.248,0,1.334
					c-0.275-1.152-0.271-2.307-0.404-3.296c0.02,0.275-0.014,0.55-0.081,0.393c-0.038-0.49-0.066-0.982-0.089-1.473
					c-0.02,0.561-0.045,0.788-0.054,1.053c-0.005,0.264,0.006,0.567,0.099,1.278c0.008-0.092,0.023-0.273,0.051-0.141
					c0.045,0.354,0.088,0.801,0.145,1.156l-0.197,0.072c0.121,0.525,0.199,1.309,0.336,2.199c0.135,0.891,0.328,1.889,0.652,2.824
					l-0.086-0.16c0.177,0.768,0.385,1.152,0.607,1.549c0.226,0.395,0.467,0.797,0.762,1.59c-0.25-0.434-0.258-0.193-0.321-0.078
					c0.372,0.77,0.366,1.25,0.628,2.07c-0.249-0.967,0.447,0.541,0.246-0.15c0.088-0.061,0.29,0.314,0.518,0.805
					c0.229,0.49,0.492,1.094,0.669,1.502c-0.007,0.299-0.336-0.313-0.606-0.842c-0.268-0.527-0.491-0.969-0.355-0.293
					c0.334,0.834,0.565,0.975,0.355,0.379c0.21,0.52,0.491,1.168,0.758,1.781c0.266,0.613,0.518,1.189,0.64,1.588
					c0.821,1.08,1.012,1.594,1.681,2.18c-0.387-0.602-0.572-0.541-0.936-1.369c0.219,0.252,0.441,0.5,0.666,0.746
					c0.68,1.096,1.117,2.043,1.615,2.785c-0.203-0.238-0.407-0.479-0.606-0.723l0.051,0.02c-0.276-0.244-0.896-1.289-0.94-1.098
					c0.609,0.619,0.838,1.281,1.598,2.117l-0.051-0.02c0.637,0.756,1.104,1.469,1.553,2.092c0.447,0.619,0.879,1.143,1.436,1.48
					c-0.246-0.262-0.606-0.898-0.404-0.777c0.223,0.402,1.058,1.27,0.951,1.311l-0.301-0.271c0.734,0.844,1.202,1.33,1.515,1.59
					c0.314,0.121,0.16-0.172,0.788,0.332c0.684,0.701,0.491,0.619,0.229,0.492c-0.258-0.129-0.578-0.314-0.127,0.188
					c0.479,0.383,0.97,0.754,1.464,1.117l0.23,0.354c1.008,0.926,2.021,1.604,3.078,2.24c1.058,0.635,2.161,1.229,3.418,1.947
					c-0.031,0.102-0.516-0.088-1.062-0.363c-0.548-0.275-1.155-0.635-1.458-0.83c0.652,0.652,1.889,1.127,2.889,1.82
					c0.973,0.574,1.82,0.777,1.711,0.598c1.273,0.541,0.836,0.535,0.979,0.646c0.253-0.008,0.764,0.191,1.351,0.424
					c0.585,0.236,1.247,0.508,1.777,0.68l0.003,0.137c0.563,0.154,1.128,0.299,1.695,0.428c-0.42-0.152-0.004-0.135,0.02-0.211
					l0.418,0.148c-0.754-0.42-1.667-0.676-2.58-0.975c-0.912-0.297-1.824-0.639-2.524-1.186c0.501,0.178-0.115-0.18,0.388-0.002
					c0.395,0.197,0.47,0.244,0.491,0.309c0.284,0.014,0.965,0.207,0.114-0.154c0.074-0.113,0.524,0.033,1.111,0.242
					c0.588,0.211,1.314,0.482,1.926,0.65c0.447,0.244,0.18,0.223-0.27,0.123c-0.447-0.098-1.072-0.279-1.339-0.32
					c0.458,0.162,0.868,0.197,1.507,0.496l-0.23,0.129c0.852,0.244,0.98,0.234,0.949,0.168c-0.029-0.066-0.217-0.197,0.002-0.229
					c0.528-0.086,1.496,0.49,1.967,0.602l-0.518-0.1c1.285,0.459,1.639,0.326,2.822,0.617l0.529,0.277
					c-0.734-0.256-1.204-0.301-1.603-0.314c-0.397-0.016-0.72-0.002-1.132-0.17c2.132,0.76-0.576,0.291-1.311,0.223
					c0.952,0.256,1.807,0.506,2.302,0.74c0.728,0.045,1.45,0.232,2.179,0.391c0.726,0.16,1.455,0.293,2.158,0.236
					c0.746,0.141-0.68,0.047,0.115,0.164c1.458,0.229,3.027,0.332,4.59,0.266c0.805,0.029,0.666,0.111,0.891,0.201
					c1.949,0.078,3.305-0.096,4.684-0.314c1.381-0.229,2.79-0.496,4.871-0.875c-0.195,0.08-0.391,0.156-0.587,0.232
					c0.878-0.148,1.63-0.291,2.022-0.539c0.586,0.033,1.494-0.262,2.422-0.604c0.928-0.34,1.873-0.725,2.607-0.811
					c0.89-0.305,1.32-0.555,1.697-0.795c0.375-0.242,0.695-0.479,1.347-0.816c0.034,0.068-0.308,0.396,0.396,0.098
					c2.145-1.109,4.096-2.314,5.996-3.691c1.895-1.381,3.74-2.938,5.586-4.832c-0.01,0.053-0.18,0.26-0.268,0.359
					c1.235-1.189,2.318-2.512,3.287-3.818c0.971-1.305,1.821-2.6,2.634-3.764c0.257-0.473,1.011-1.875,0.641-1.525
					c-0.354,0.557-0.552,0.541-0.622,0.447c0.579-1.105,0.773-1.346,0.941-1.484c0.164-0.143,0.297-0.184,0.664-0.936
					c0.486-0.346-0.336,1.018-0.139,1.129c0.346-0.74,0.67-1.488,0.973-2.242c0.672-1.203,1.063-2.527,1.596-3.602
					c-0.215,0.488,0.129,0.234-0.291,1.025c0.037-0.129-0.012-0.053,0.027-0.182c-0.393,0.943-0.48,1.209-0.541,1.455
					c-0.063,0.246-0.098,0.475-0.461,1.313c0.314-0.74,0.67-1.617,0.996-2.48l0.885-2.375c-0.137,0.119-0.063-0.16,0.043-0.523
					c0.105-0.361,0.238-0.807,0.238-1.014l0.043-0.082c-0.074-0.021,0.117-0.881,0.156-1.148l0.314-0.285
					c0.121-0.611-0.156,0.143-0.035-0.465c0.08-0.434,0.287-1.416,0.471-2.32c0.188-0.904,0.359-1.729,0.494-1.822
					c0.125-1.063,0.027-1.381,0.158-2.478c0.053,0.092,0.053,0.359,0.08,0.402c0.137-1.167,0.195-2.476,0.205-3.768
					c0.012-1.293-0.027-2.57-0.049-3.686c-0.209-1.808-0.484-3.343-0.85-4.441c0.111,0.475,0.279,1.881,0.006,1.028
					c-0.172-0.462-0.268-1.202-0.463-1.925c0.164,0.146-0.303-1.875,0.111-0.433c0.088-0.213-0.102-1.002-0.311-1.733
					c-0.205-0.731-0.424-1.407-0.295-1.434c-0.088-0.158-0.277-0.751-0.51-1.39c-0.232-0.638-0.51-1.319-0.721-1.665
					c0.047-0.209,0.482,1.051,0.549,1.025c-0.121-0.303-0.244-0.604-0.371-0.902l0.072-0.028c-0.303-0.885-0.582-1.371-0.834-1.76
					c-0.256-0.39-0.486-0.682-0.744-1.169l0.047,0.025l-0.365-0.655c0.193,0.231,0.385,0.464,0.574,0.701
					c-0.268-0.534-0.52-0.916-0.782-1.307c-0.264-0.393-0.542-0.792-0.884-1.357l-0.006-0.148c-0.151-0.22-0.306-0.437-0.461-0.653
					c0.079,0.11,0.127,0.133,0.1,0.049c-0.277-0.271-0.621-0.782-0.972-1.281c-0.349-0.5-0.71-0.984-0.977-1.224
					c-0.274-0.446-0.332-0.956-0.89-1.416l0.277-0.044c0.539,0.699,0.593,0.863,0.666,1.027c0.07,0.166,0.16,0.33,0.711,1.076
					c-0.242-0.66-0.922-1.781-1.801-2.945c-0.875-1.167-1.949-2.366-2.851-3.281c-0.776-0.694-1.743-1.665-2.663-2.471
					c-0.916-0.809-1.78-1.452-2.24-1.575l0.267,0.015c-0.892-0.749-1.813-1.465-2.765-2.141c-1.257-0.792-2.551-1.563-3.813-2.212
					c-1.26-0.651-2.486-1.177-3.567-1.509L79.71,6.482c-1.165-0.236-3.05-0.847-4.887-1.262c-1.832-0.424-3.603-0.663-4.392-0.519
					c-1.277-0.303,0.417-0.141,0.563-0.2c-0.475-0.1-1.125-0.124-1.767-0.15c-0.642-0.03-1.272-0.063-1.724-0.215
					c0.007-0.086,1.362,0.054,0.755-0.055c-0.688-0.211-1.014,0.054-1.796-0.156c0.34,0.169-1.284,0.249-2.454,0.291
					c0.216,0.005,0.216,0.007,0.308,0.024c0.17,0.116-0.701,0.087-1.178,0.119c0,0,0.043-0.031,0.172-0.046
					c-3.018,0.147-6.229,0.614-9.389,1.431c-3.16,0.811-6.264,1.973-9.109,3.363c0.329-0.211,0.662-0.416,0.997-0.618
					c-0.788,0.462-2.231,1.171-2.694,1.411l0.109-0.077c-0.797,0.319-1.176,0.624-1.512,0.896c-0.338,0.273-0.629,0.519-1.246,0.77
					l0.201-0.164l-2.221,1.456c-0.674,0.456-1.324,0.939-2.04,1.647c-0.624,0.483-0.917,0.684-1.169,0.841
					c-0.25,0.157-0.459,0.272-0.893,0.617c-0.656,0.65-0.846,1.069-0.859,1.122l0.316-0.308c0.436-0.246-0.593,0.767-0.982,1.295
					c0.243-0.103,0.384-0.049,0.637-0.116c0.257-0.065,0.621-0.258,1.336-0.816c0.445-0.493,0.741-0.651,1.054-0.818
					c0.313-0.166,0.644-0.342,1.189-0.845c0.224-0.388,0.667-0.694,1.165-1.023c0.502-0.33,1.057-0.682,1.527-1.188
					c-0.23,0.296,0.107,0.074,0.406-0.102c0.297-0.178,0.549-0.314,0.132,0.115c0.269-0.097,0.826-0.546,1.46-1.004
					c0.631-0.459,1.338-0.928,1.844-1.111c-0.127,0.124-0.068,0.143-0.271,0.293c0.605-0.424,0.848-0.513,1.049-0.571
					c0.205-0.055,0.371-0.077,0.852-0.331l-0.132-0.163c0.344-0.255,0.522-0.184,0.844-0.383c-0.278,0.107-0.881,0.313-0.624,0.084
					c0.429-0.275,0.78-0.523,1.278-0.759c0.038,0.068-0.292,0.265-0.512,0.4c-0.002-0.003,1.08-0.495,1.197-0.436
					c-0.358,0.232-0.851,0.469-1.136,0.736c1.424-0.614,0.141,0.003,0.891-0.171c-0.296-0.136,1.174-0.654,1.932-1.007
					c0.115,0.058-0.533,0.247-0.693,0.398c0.814-0.114,1.355-0.343,1.946-0.624c0.59-0.277,1.229-0.609,2.222-0.86
					c-0.031,0.041-0.264,0.136-0.381,0.187c0.902-0.35,1.607-0.304,2.174-0.592c0.451-0.092,0.509-0.03,0.625,0.005
					c0.115,0.037,0.288,0.05,0.977-0.099c-0.229-0.079,0.18-0.155,0.645-0.234s0.987-0.16,0.984-0.295
					c0.365-0.006,0.73-0.01,1.095-0.007c0.464-0.138,0.388-0.236,0.425-0.341c0.039-0.1,0.191-0.211,1.131-0.319
					c1.718-0.054-0.121,0.445,0.883,0.502l0.404-0.176c0.279,0.015,0.558,0.034,0.836,0.056L62.084,6.4
					c0.494-0.076,1.405-0.053,1.408,0.027c-0.081,0.061-0.619,0.073-0.694,0.138c0.408-0.082,1.226-0.006,2.04,0.068
					c0.816,0.071,1.631,0.143,2.076-0.025c0.48,0.101,1.475,0.2,1.334,0.314c0.229-0.065,0.771,0.01,1.336,0.111
					c0.564,0.101,1.15,0.227,1.48,0.23c-0.093,0.045,0.497,0.246,0.987,0.3c-0.632-0.195-0.216-0.181,0.245-0.186
					c0.271,0.122,0.813,0.246,1.309,0.384c0.495,0.139,0.945,0.286,1.036,0.423c0.899,0.133,0.625-0.099,0.86-0.19
					c0.261,0.146,0.838,0.348,1.295,0.546c0.457,0.195,0.797,0.378,0.603,0.438c-0.454-0.2-1.497-0.585-1.348-0.363
					c0.867,0.376,0.409,0.059,1.153,0.287c-0.068,0.021,0.447,0.318,0.283,0.334c0.438,0.131,1.037,0.358,1.623,0.646
					c-0.902-0.487,0.67,0.089,0.139-0.231c-0.324-0.071-0.65-0.139-0.977-0.2c-1.115-0.406-0.186-0.214-0.588-0.428
					c0.992,0.34,1.408,0.436,1.814,0.516c0.406,0.083,0.807,0.146,1.732,0.518c0.322,0.194,0.884,0.553,1.066,0.652
					c-0.598-0.288-0.582-0.028-0.268,0.178c1.071,0.333,1.686,1.032,2.434,1.531c-0.644-0.445-0.218-0.362,0.058-0.262
					c0.847,0.433,0.987,0.559,1.005,0.628c0.016,0.071-0.094,0.093,0.223,0.361c1.223,0.788,2.142,1.553,2.981,2.286
					c0.841,0.737,1.604,1.442,2.505,2.186c-0.22-0.303-0.447-0.602-0.676-0.9l-0.405-0.099c-0.553-0.68,0.409-0.23,0.863,0.015
					c0.054,0.129,1.134,1.098,0.637,0.781c0.36,0.302,0.716,0.611,1.064,0.928c-0.085-0.213-0.763-0.829-0.228-0.429
					c0.292,0.367,1.256,1.447,0.545,0.868c0.512,0.538,1.19,1.208,1.168,1.009c0.799,0.898-0.266,0.063-0.684-0.271
					c0.625,0.71,0.41,0.734,0.184,0.557c0.296,0.319,0.586,0.646,0.873,0.975c-0.227-0.183-0.284-0.134-0.51-0.313
					c0.5,0.696,1.053,1.038,1.37,1.72l0.329,0.161c0.656,0.991,0.916,1.456,1.182,1.894c0.261,0.439,0.525,0.853,1.082,1.803
					l-0.084-0.379c0.525,0.661,0.629,0.958,0.758,1.317c0.124,0.364,0.275,0.791,0.814,1.775c0.619,1.103,0.98,1.842,1.096,1.61
					c0.357,0.649,0.309,0.853,0.364,1.186c0.314,0.486,0.931,1.582,1.085,2.487l-0.677-1.549c-0.061,0.111,0.096,0.576,0.284,1.133
					c0.189,0.557,0.403,1.208,0.486,1.674c0.133,0.302,0.398,0.952,0.662,1.677c0.268,0.725,0.531,1.523,0.719,2.099
					c0.055-0.56,0.33-0.407,0.662,0.645c-0.139-0.146,0.105,1.472,0.088,2.227c-0.148-0.354-0.125,1.686-0.322,0.124
					c0.012-0.459,0.152-0.688,0.01-1.301c-0.068,0.389-0.082,1.396-0.117,2.431c-0.068-0.073-0.186-0.604-0.24-1.133
					C103.701,42.621,103.721,42.449,103.766,42.403z"/>
			</g>
		</g>
	</g>
	<g>
		<g>
			<g>
				<path fill="#040000" d="M62.803,83.113c-0.554-0.133-1.096-0.217-1.627-0.252c-0.53-0.037-1.061-0.074-1.591-0.115
					c-0.529-0.039-1.058-0.107-1.584-0.201c-0.525-0.094-1.062-0.26-1.608-0.498l-0.142-0.965l0.856-0.297
					c-0.207-0.115-0.346-0.211-0.415-0.289c-0.07-0.076-0.097-0.148-0.078-0.213c0.019-0.066,0.069-0.131,0.149-0.197
					c0.082-0.064,0.165-0.141,0.253-0.223c0.087-0.082,0.163-0.18,0.23-0.291c0.066-0.111,0.097-0.248,0.092-0.41
					c0.29,0.059,0.503,0.15,0.638,0.277c0.133,0.127,0.223,0.271,0.268,0.438c0.046,0.164,0.059,0.338,0.035,0.52
					s-0.045,0.359-0.067,0.531c-0.022,0.174-0.031,0.33-0.029,0.469c0.003,0.139,0.047,0.244,0.131,0.313
					c0.085,0.07,0.228,0.098,0.431,0.086s0.492-0.082,0.869-0.215c0.074,0.203,0.162,0.305,0.266,0.309s0.208-0.029,0.316-0.098
					c0.109-0.066,0.215-0.129,0.316-0.184c0.104-0.055,0.195-0.035,0.278,0.063c0.015-0.197,0.071-0.334,0.172-0.41
					c0.101-0.078,0.21-0.123,0.333-0.137c0.121-0.014,0.242-0.014,0.362,0.002c0.12,0.012,0.206,0.014,0.255,0.004
					c0.051-0.008,0.053-0.047,0.01-0.113c-0.045-0.064-0.168-0.188-0.369-0.363l-0.334-0.025c0.025-0.115,0.072-0.186,0.137-0.211
					c0.064-0.027,0.137-0.039,0.218-0.039c0.08,0.002,0.16,0.012,0.239,0.025c0.08,0.016,0.15,0.01,0.211-0.018
					c0.061-0.025,0.1-0.084,0.12-0.172s0.007-0.232-0.041-0.432l-1.362-0.816c0.088,0.141,0.123,0.262,0.107,0.363
					c-0.018,0.102-0.061,0.193-0.129,0.271c-0.068,0.08-0.148,0.152-0.238,0.219c-0.09,0.064-0.162,0.131-0.217,0.197
					c-0.055,0.068-0.076,0.145-0.064,0.23s0.08,0.193,0.204,0.318l-0.624,0.424l-0.729-1.199l0.094,0.008
					c-0.039-0.182-0.039-0.371,0.003-0.564s0.085-0.385,0.132-0.574c0.045-0.189,0.072-0.369,0.08-0.539
					c0.009-0.17-0.041-0.316-0.147-0.439l0.228,0.016c0.1-0.135,0.139-0.264,0.116-0.387c-0.021-0.123-0.046-0.24-0.073-0.355
					c-0.027-0.113-0.03-0.225-0.01-0.33c0.021-0.105,0.122-0.211,0.301-0.313c0.109,0.088,0.196,0.207,0.262,0.355
					c0.064,0.148,0.124,0.305,0.179,0.471s0.112,0.326,0.171,0.484c0.061,0.156,0.145,0.287,0.253,0.395s0.251,0.174,0.429,0.201
					c0.177,0.025,0.403-0.008,0.679-0.104c0.013-0.152,0.056-0.268,0.135-0.346c0.077-0.08,0.157-0.156,0.239-0.23
					s0.146-0.162,0.194-0.26c0.048-0.1,0.052-0.236,0.011-0.41c-0.055-0.094-0.133-0.154-0.234-0.18s-0.198-0.055-0.289-0.09
					c-0.092-0.033-0.164-0.084-0.217-0.15s-0.06-0.191-0.02-0.377c0.085-0.047,0.156-0.049,0.216-0.004s0.112,0.09,0.158,0.133
					s0.093,0.07,0.142,0.078s0.108-0.043,0.18-0.154c0.004-0.053,0.007-0.113,0.007-0.182c0.001-0.066-0.007-0.127-0.025-0.182
					c-0.019-0.057-0.051-0.105-0.097-0.15c-0.046-0.043-0.113-0.068-0.203-0.074l-0.227-0.018l0.726-0.174l-0.873-0.9
					c-0.157,0.195-0.304,0.285-0.437,0.27c-0.133-0.014-0.264-0.064-0.392-0.15s-0.257-0.168-0.386-0.244
					c-0.127-0.078-0.271-0.076-0.43,0c-0.311-0.158-0.561-0.232-0.748-0.225c-0.189,0.008-0.336,0.068-0.443,0.182
					s-0.189,0.262-0.243,0.445s-0.103,0.373-0.144,0.566c-0.043,0.193-0.088,0.379-0.137,0.555s-0.125,0.313-0.227,0.412
					s-0.24,0.143-0.42,0.129c-0.178-0.012-0.416-0.111-0.716-0.295c0.134-0.115,0.256-0.189,0.366-0.221
					c0.109-0.033,0.204-0.1,0.284-0.201l-0.562-0.74c0.129-0.055,0.248-0.086,0.355-0.096c0.109-0.01,0.2-0.037,0.275-0.086
					l-0.653-0.775c0.638-0.246,1.289-0.393,1.956-0.436c0.666-0.043,1.333-0.035,2,0.023c0.668,0.061,1.328,0.148,1.982,0.266
					s1.288,0.213,1.9,0.287l0.12,0.008c-0.013,0.178-0.066,0.309-0.157,0.393c-0.092,0.082-0.203,0.143-0.337,0.182
					c-0.132,0.039-0.271,0.066-0.416,0.082c-0.145,0.018-0.278,0.047-0.403,0.09c-0.125,0.045-0.227,0.113-0.305,0.207
					c-0.078,0.092-0.117,0.236-0.113,0.434c-0.014,0.527-0.055,1.064-0.123,1.611c-0.068,0.545-0.118,1.086-0.149,1.621
					c-0.032,0.535-0.027,1.055,0.015,1.561c0.042,0.504,0.163,0.988,0.359,1.451c0.146-0.025,0.289-0.014,0.429,0.033
					s0.274,0.107,0.402,0.186c0.128,0.076,0.248,0.156,0.357,0.242c0.11,0.084,0.208,0.156,0.293,0.217
					c-0.056,0.264-0.147,0.434-0.274,0.51s-0.277,0.113-0.451,0.113c-0.175,0-0.365-0.008-0.57-0.023
					C63.223,83.012,63.015,83.039,62.803,83.113z"/>
			</g>
		</g>
	</g>
	<g>
		<g>
			<g>
				<path fill="#040000" d="M44.163,77.953c-0.416-0.391-0.847-0.73-1.29-1.025c-0.442-0.293-0.885-0.588-1.324-0.887
					c-0.441-0.297-0.866-0.615-1.277-0.957c-0.41-0.342-0.795-0.752-1.15-1.23l0.354-0.908l0.891,0.164
					c-0.122-0.201-0.195-0.354-0.219-0.455c-0.022-0.102-0.011-0.176,0.038-0.223c0.049-0.049,0.125-0.082,0.229-0.098
					c0.103-0.018,0.212-0.041,0.328-0.07c0.117-0.027,0.232-0.074,0.345-0.139c0.114-0.064,0.208-0.166,0.282-0.311
					c0.226,0.195,0.364,0.381,0.418,0.557c0.053,0.176,0.059,0.348,0.018,0.514c-0.043,0.166-0.118,0.322-0.229,0.469
					c-0.109,0.146-0.217,0.289-0.322,0.43c-0.104,0.139-0.189,0.27-0.256,0.391c-0.066,0.123-0.08,0.234-0.041,0.338
					c0.039,0.102,0.149,0.197,0.33,0.287c0.182,0.09,0.47,0.172,0.863,0.242c-0.036,0.215-0.01,0.348,0.078,0.4
					c0.088,0.055,0.195,0.078,0.322,0.072c0.128-0.006,0.25-0.006,0.367-0.004c0.116,0.004,0.186,0.068,0.21,0.191
					c0.11-0.162,0.228-0.254,0.353-0.271c0.126-0.018,0.244-0.002,0.356,0.047s0.218,0.109,0.315,0.182
					c0.098,0.07,0.17,0.115,0.219,0.131c0.048,0.016,0.068-0.016,0.063-0.094c-0.006-0.08-0.053-0.246-0.141-0.5l-0.278-0.188
					c0.08-0.086,0.155-0.125,0.225-0.115c0.069,0.008,0.139,0.033,0.207,0.074c0.07,0.041,0.135,0.09,0.197,0.141
					c0.062,0.053,0.125,0.082,0.19,0.09c0.065,0.006,0.128-0.023,0.19-0.092c0.061-0.066,0.12-0.197,0.179-0.395l-0.78-1.385
					c0.007,0.168-0.023,0.289-0.088,0.369s-0.146,0.139-0.246,0.174s-0.204,0.059-0.314,0.07s-0.205,0.033-0.287,0.066
					c-0.08,0.031-0.137,0.088-0.17,0.168c-0.032,0.08-0.025,0.205,0.021,0.377l-0.751,0.059l-0.041-1.4l0.078,0.051
					c0.056-0.178,0.149-0.34,0.281-0.488c0.133-0.148,0.266-0.293,0.398-0.434c0.135-0.143,0.246-0.285,0.338-0.428
					c0.091-0.145,0.121-0.297,0.09-0.457l0.188,0.127c0.153-0.068,0.251-0.16,0.293-0.277c0.042-0.119,0.079-0.234,0.112-0.346
					c0.033-0.113,0.084-0.211,0.155-0.291s0.21-0.123,0.415-0.125c0.052,0.133,0.068,0.277,0.052,0.439
					c-0.017,0.16-0.042,0.326-0.077,0.498c-0.034,0.17-0.064,0.338-0.09,0.504s-0.018,0.322,0.022,0.469
					c0.042,0.146,0.134,0.275,0.274,0.387c0.14,0.111,0.354,0.193,0.641,0.246c0.085-0.125,0.182-0.203,0.287-0.232
					c0.107-0.031,0.215-0.059,0.322-0.082c0.107-0.025,0.207-0.068,0.299-0.131c0.09-0.063,0.162-0.18,0.211-0.35
					c-0.002-0.109-0.039-0.201-0.115-0.271c-0.074-0.074-0.145-0.146-0.207-0.221s-0.101-0.154-0.113-0.24
					c-0.014-0.084,0.044-0.195,0.171-0.336c0.097,0,0.159,0.035,0.188,0.104s0.054,0.133,0.071,0.193
					c0.019,0.061,0.048,0.107,0.085,0.139c0.038,0.031,0.115,0.016,0.232-0.047c0.03-0.043,0.063-0.094,0.096-0.152
					c0.034-0.059,0.057-0.115,0.068-0.174c0.012-0.057,0.008-0.115-0.01-0.176c-0.019-0.061-0.064-0.115-0.139-0.166l-0.189-0.129
					l0.717,0.209l-0.313-1.213c-0.233,0.09-0.403,0.096-0.513,0.018c-0.108-0.078-0.197-0.188-0.266-0.324
					c-0.068-0.139-0.141-0.273-0.214-0.402c-0.073-0.131-0.198-0.203-0.374-0.213c-0.191-0.291-0.371-0.48-0.539-0.566
					s-0.327-0.107-0.476-0.063c-0.149,0.045-0.292,0.135-0.431,0.268s-0.273,0.273-0.406,0.422
					c-0.131,0.148-0.262,0.285-0.393,0.412c-0.129,0.131-0.264,0.211-0.4,0.248c-0.138,0.035-0.281,0.004-0.429-0.096
					s-0.307-0.303-0.476-0.611c0.174-0.035,0.315-0.037,0.428-0.012c0.111,0.027,0.227,0.016,0.346-0.033l-0.122-0.922
					c0.14,0.018,0.257,0.049,0.356,0.094c0.1,0.047,0.192,0.066,0.282,0.063l-0.184-0.998c0.675,0.102,1.313,0.297,1.914,0.59
					c0.601,0.291,1.176,0.629,1.726,1.012c0.552,0.381,1.082,0.785,1.592,1.211c0.511,0.426,1.014,0.822,1.51,1.189l0.101,0.066
					c-0.101,0.148-0.21,0.236-0.331,0.262c-0.119,0.027-0.248,0.023-0.383-0.008s-0.269-0.076-0.402-0.133
					c-0.133-0.059-0.266-0.1-0.395-0.123c-0.131-0.021-0.252-0.012-0.367,0.029c-0.113,0.041-0.219,0.148-0.313,0.32
					c-0.272,0.453-0.573,0.898-0.903,1.34c-0.329,0.439-0.641,0.885-0.934,1.334c-0.292,0.449-0.545,0.904-0.758,1.363
					s-0.349,0.939-0.406,1.439c0.139,0.051,0.258,0.131,0.355,0.24s0.184,0.23,0.258,0.361c0.073,0.129,0.138,0.26,0.191,0.387
					c0.053,0.127,0.103,0.24,0.146,0.334c-0.18,0.201-0.343,0.305-0.49,0.307c-0.147,0.004-0.297-0.039-0.449-0.125
					s-0.313-0.188-0.482-0.303C44.579,78.07,44.385,77.994,44.163,77.953z"/>
			</g>
		</g>
	</g>
	<g>
		<g>
			<g>
				<path fill="#040000" d="M40.91,66.992c-0.186-0.154-0.329-0.332-0.433-0.531c-0.103-0.197-0.162-0.402-0.179-0.615
					c-0.018-0.211,0.001-0.422,0.057-0.629c0.057-0.207,0.146-0.389,0.27-0.543c0.213-0.203,0.484-0.316,0.813-0.342
					c0.329-0.023,0.636,0.029,0.915,0.156c0.252,0.082,0.444,0.209,0.58,0.383c0.134,0.174,0.229,0.371,0.283,0.59
					c0.056,0.219,0.066,0.449,0.031,0.693c-0.033,0.242-0.104,0.469-0.211,0.682c-0.062,0.232-0.177,0.369-0.346,0.414
					c-0.168,0.043-0.358,0.045-0.568,0.004c-0.211-0.039-0.425-0.096-0.641-0.166C41.266,67.016,41.075,66.984,40.91,66.992z"/>
			</g>
		</g>
	</g>
	<g>
		<g>
			<g>
				<path fill="#040000" d="M32.926,67.188c-0.119-0.199-0.244-0.404-0.377-0.617s-0.246-0.432-0.342-0.662
					c-0.096-0.229-0.158-0.465-0.189-0.707c-0.029-0.242-0.006-0.49,0.07-0.744c0.219,0.139,0.449,0.262,0.689,0.369
					c0.24,0.105,0.483,0.168,0.729,0.188c0.246,0.02,0.496-0.02,0.748-0.119c0.254-0.1,0.5-0.289,0.74-0.568
					c0.086-0.186,0.231-0.32,0.438-0.402s0.42-0.162,0.643-0.244c0.223-0.08,0.424-0.188,0.604-0.322
					c0.181-0.133,0.283-0.344,0.311-0.631c0.241,0.127,0.43,0.16,0.566,0.1c0.135-0.061,0.248-0.162,0.34-0.305
					c0.092-0.145,0.182-0.299,0.268-0.467c0.088-0.166,0.205-0.293,0.35-0.381c0.067-0.236,0.08-0.453,0.043-0.648
					c-0.04-0.195-0.111-0.375-0.213-0.537s-0.232-0.314-0.389-0.455c-0.157-0.139-0.326-0.275-0.509-0.406
					c-0.307-0.129-0.587-0.184-0.843-0.168c-0.255,0.02-0.498,0.08-0.73,0.189c-0.232,0.107-0.459,0.246-0.682,0.414
					c-0.221,0.168-0.448,0.338-0.68,0.508s-0.473,0.33-0.727,0.482c-0.253,0.152-0.527,0.258-0.822,0.32l-0.048,0.42
					c-0.25-0.143-0.426-0.17-0.526-0.084c-0.1,0.084-0.17,0.209-0.215,0.371c-0.043,0.16-0.088,0.318-0.133,0.469
					c-0.043,0.152-0.143,0.221-0.297,0.209c0.101,0.045,0.187,0.115,0.26,0.211c0.074,0.098,0.12,0.197,0.141,0.299
					c0.02,0.104,0.01,0.205-0.031,0.301c-0.041,0.098-0.129,0.172-0.266,0.223c-0.135,0.018-0.283,0.035-0.444,0.053
					c-0.161,0.02-0.324,0.01-0.492-0.025c-0.079-0.254-0.205-0.518-0.378-0.789c-0.172-0.271-0.339-0.555-0.5-0.848
					c-0.161-0.295-0.289-0.598-0.387-0.908s-0.113-0.637-0.048-0.979c0.401,0.32,0.785,0.51,1.152,0.566
					c0.366,0.057,0.729,0.031,1.085-0.08c0.356-0.107,0.713-0.273,1.067-0.498c0.356-0.223,0.716-0.455,1.08-0.699
					s0.739-0.475,1.126-0.689c0.387-0.217,0.789-0.365,1.207-0.449c0.395-0.039,0.756-0.031,1.084,0.023
					c0.328,0.053,0.672,0.102,1.033,0.146c-0.035,0.166-0.004,0.297,0.092,0.389c0.098,0.094,0.217,0.178,0.356,0.256
					s0.277,0.16,0.411,0.246c0.136,0.086,0.229,0.197,0.278,0.334c0.124,0.258,0.213,0.543,0.269,0.854
					c0.057,0.311,0.072,0.619,0.047,0.926c-0.024,0.307-0.094,0.605-0.205,0.895c-0.113,0.291-0.268,0.549-0.469,0.771
					c-0.435,0.334-0.891,0.625-1.367,0.873c-0.476,0.248-0.936,0.504-1.379,0.764c-0.442,0.26-0.855,0.547-1.241,0.859
					c-0.385,0.314-0.71,0.701-0.976,1.162c0.123,0.031,0.201,0.078,0.238,0.139s0.049,0.133,0.035,0.213
					c-0.015,0.082-0.039,0.166-0.074,0.256c-0.035,0.088-0.061,0.174-0.074,0.256c-0.208,0.156-0.364,0.219-0.469,0.193
					c-0.104-0.025-0.195-0.09-0.273-0.195c-0.078-0.104-0.166-0.221-0.264-0.35S33.122,67.238,32.926,67.188z"/>
			</g>
		</g>
	</g>
	<g>
		<g>
			<g>
				<path fill="#040000" d="M33.773,55.254c-0.1-0.223-0.154-0.443-0.162-0.666c-0.008-0.225,0.027-0.434,0.104-0.635
					c0.075-0.197,0.184-0.379,0.322-0.543c0.139-0.162,0.297-0.287,0.476-0.375c0.28-0.092,0.574-0.076,0.882,0.043
					c0.307,0.119,0.561,0.299,0.76,0.533c0.191,0.182,0.311,0.381,0.357,0.596s0.049,0.434,0.004,0.654s-0.135,0.434-0.271,0.639
					c-0.135,0.205-0.295,0.379-0.482,0.525c-0.156,0.184-0.32,0.258-0.49,0.225c-0.172-0.033-0.344-0.113-0.516-0.24
					c-0.174-0.127-0.343-0.268-0.508-0.426C34.084,55.426,33.926,55.316,33.773,55.254z"/>
			</g>
		</g>
	</g>
	<g>
		<g>
			<g>
				<path fill="#040000" d="M27.208,39.966c0.231,0.03,0.481,0.026,0.751-0.011c0.271-0.037,0.506-0.159,0.704-0.369
					c0.066,0.181,0.145,0.276,0.233,0.288c0.088,0.011,0.184-0.011,0.285-0.064c0.102-0.055,0.207-0.11,0.318-0.168
					c0.111-0.059,0.223-0.066,0.336-0.024c0.232,0.004,0.475-0.001,0.724-0.014s0.499-0.049,0.75-0.106
					c0.25-0.057,0.489-0.142,0.715-0.252c0.227-0.109,0.427-0.257,0.604-0.441c0.078,0.1,0.176,0.158,0.295,0.174
					s0.248,0.017,0.385,0.002c0.137-0.014,0.277-0.033,0.421-0.061c0.143-0.026,0.267-0.032,0.374-0.019
					c0.162-0.276,0.354-0.521,0.575-0.736s0.404-0.43,0.55-0.645c0.215,0.145,0.359,0.303,0.432,0.475
					c0.072,0.171,0.104,0.349,0.093,0.532s-0.048,0.375-0.114,0.572c-0.066,0.199-0.127,0.401-0.181,0.605s-0.087,0.41-0.101,0.616
					c-0.012,0.205,0.027,0.408,0.118,0.609c-0.104,0.104-0.21,0.161-0.32,0.175c-0.109,0.013-0.222,0.007-0.335-0.017
					c-0.115-0.023-0.225-0.049-0.329-0.076s-0.202-0.033-0.294-0.019c-0.056-0.061-0.084-0.116-0.087-0.166
					s-0.005-0.096-0.009-0.137s-0.018-0.085-0.037-0.134c-0.021-0.047-0.072-0.104-0.154-0.168c-0.428,0.17-0.729,0.419-0.908,0.747
					c-0.177,0.328-0.296,0.724-0.355,1.184c-0.092,0.222-0.106,0.388-0.044,0.494c0.063,0.107,0.154,0.198,0.276,0.272
					c0.12,0.074,0.243,0.153,0.367,0.236c0.125,0.084,0.202,0.214,0.234,0.389l1.336-1.245c0.043,0.302,0.076,0.608,0.104,0.919
					c0.027,0.31,0.031,0.616,0.01,0.92s-0.076,0.603-0.164,0.897c-0.087,0.295-0.226,0.574-0.412,0.839
					c-0.215-0.154-0.389-0.31-0.521-0.467c-0.133-0.156-0.18-0.381-0.143-0.674c-0.521-0.419-1.111-0.772-1.768-1.061
					c-0.656-0.287-1.316-0.558-1.982-0.811s-1.312-0.515-1.938-0.785c-0.628-0.271-1.178-0.594-1.651-0.971
					c-0.031-0.175-0.027-0.33,0.014-0.464c0.039-0.135,0.102-0.251,0.187-0.348c0.085-0.098,0.186-0.187,0.304-0.265
					C26.973,40.118,27.091,40.042,27.208,39.966z M27.96,41.361l0.282-0.302c0.182,0.195,0.389,0.359,0.618,0.493
					c0.231,0.133,0.47,0.236,0.718,0.309c0.247,0.073,0.488,0.118,0.725,0.135c0.237,0.018,0.443,0.006,0.619-0.034l0.497,0.551
					c0.142-0.189,0.22-0.358,0.235-0.51s0.009-0.299-0.018-0.442c-0.026-0.143-0.049-0.285-0.066-0.427
					c-0.018-0.143,0.012-0.299,0.088-0.469c-0.088,0.052-0.167,0.071-0.236,0.058c-0.07-0.014-0.141-0.031-0.211-0.055
					c-0.068-0.022-0.141-0.038-0.216-0.048s-0.161,0.01-0.258,0.061c-0.241,0.059-0.497,0.103-0.767,0.131
					c-0.27,0.027-0.531,0.062-0.783,0.101c-0.253,0.04-0.487,0.093-0.703,0.159C28.268,41.138,28.094,41.235,27.96,41.361z"/>
			</g>
		</g>
	</g>
	<g>
		<g>
			<g>
				<path fill="#040000" d="M28.421,32.169c0.14-0.513,0.308-1.009,0.505-1.488c0.198-0.479,0.445-0.92,0.742-1.324
					c0.296-0.402,0.7-0.729,1.213-0.978c0.1,0.062,0.131,0.176,0.094,0.345s-0.1,0.354-0.189,0.553
					c-0.09,0.2-0.18,0.402-0.271,0.606c-0.091,0.203-0.141,0.374-0.15,0.51c-0.009,0.138,0.048,0.228,0.17,0.27s0.356,0,0.7-0.126
					c-0.197,0.169-0.315,0.3-0.355,0.396c-0.04,0.094-0.031,0.171,0.027,0.229c0.057,0.058,0.146,0.104,0.267,0.141
					c0.121,0.037,0.244,0.077,0.371,0.121s0.241,0.1,0.345,0.167c0.102,0.067,0.154,0.166,0.159,0.293
					c0.102-0.103,0.19-0.146,0.265-0.128c0.076,0.017,0.142,0.057,0.197,0.12c0.056,0.063,0.108,0.138,0.158,0.227
					c0.051,0.089,0.102,0.156,0.154,0.203s0.113,0.055,0.18,0.024c0.065-0.03,0.146-0.132,0.238-0.307
					c0.158,0.154,0.33,0.276,0.516,0.363c0.186,0.089,0.38,0.151,0.582,0.188c0.203,0.037,0.411,0.059,0.626,0.068
					c0.215,0.008,0.431,0.009,0.646,0.003c-0.091,0.214-0.029,0.366,0.185,0.456c0.285,0.015,0.52-0.044,0.701-0.177
					c0.182-0.131,0.334-0.288,0.459-0.468s0.23-0.355,0.317-0.527s0.181-0.29,0.28-0.354c0.101-0.064,0.215-0.048,0.343,0.051
					c0.129,0.097,0.296,0.325,0.504,0.685l-1.981,4.691l-0.574,0.12c-0.087-0.161-0.168-0.329-0.24-0.501
					c-0.072-0.171-0.12-0.352-0.143-0.54c-0.021-0.188-0.01-0.385,0.037-0.587c0.047-0.203,0.15-0.412,0.309-0.627
					c-0.336-0.239-0.711-0.463-1.127-0.673c-0.416-0.209-0.85-0.406-1.299-0.593c-0.451-0.185-0.906-0.353-1.365-0.504
					c-0.461-0.15-0.9-0.28-1.32-0.39c-0.012-0.199-0.058-0.315-0.136-0.348c-0.078-0.034-0.173-0.04-0.284-0.019
					c-0.11,0.021-0.229,0.047-0.352,0.076c-0.124,0.03-0.235,0.011-0.332-0.059l-0.948,1.592l-0.729-0.309
					C28.113,33.174,28.281,32.683,28.421,32.169z"/>
			</g>
		</g>
	</g>
	<g>
		<g>
			<g>
				<path fill="#040000" d="M37.916,21.051c0.269,0.208,0.472,0.475,0.608,0.802c0.138,0.326,0.264,0.656,0.379,0.988
					c0.114,0.333,0.253,0.637,0.411,0.912c0.16,0.276,0.398,0.471,0.719,0.583l-0.065,0.085c0.108,0.209,0.243,0.353,0.403,0.431
					s0.33,0.12,0.513,0.126c0.182,0.006,0.376-0.011,0.581-0.05c0.205-0.038,0.411-0.074,0.617-0.107
					c0.206-0.031,0.407-0.048,0.605-0.048c0.197,0.001,0.385,0.047,0.563,0.139c0.117,0.272,0.139,0.479,0.068,0.622
					s-0.179,0.263-0.322,0.361c-0.144,0.098-0.299,0.189-0.467,0.273c-0.167,0.085-0.289,0.206-0.364,0.361
					c-0.276,0.036-0.567-0.001-0.874-0.108s-0.615-0.233-0.927-0.379s-0.618-0.278-0.92-0.399s-0.587-0.181-0.853-0.179
					c-0.268,0.003-0.512,0.096-0.734,0.28c-0.223,0.184-0.404,0.514-0.547,0.99c-0.15,0.223-0.229,0.392-0.232,0.507
					c-0.005,0.115,0.033,0.198,0.112,0.249s0.185,0.087,0.314,0.108s0.257,0.055,0.381,0.1s0.223,0.114,0.298,0.206
					c0.076,0.092,0.098,0.239,0.065,0.44l0.587,0.03l0.027,0.293c0.26-0.014,0.451-0.061,0.574-0.14s0.234-0.157,0.334-0.233
					s0.215-0.136,0.35-0.179c0.135-0.042,0.348-0.04,0.641,0.005c-0.07,0.148-0.112,0.317-0.127,0.504s-0.043,0.356-0.084,0.512
					s-0.11,0.274-0.211,0.361c-0.102,0.086-0.275,0.106-0.523,0.062l-0.558,0.872l0.085,0.066c-0.042-0.033-0.087-0.022-0.134,0.031
					c-0.048,0.054-0.099,0.127-0.154,0.221c-0.056,0.093-0.114,0.188-0.179,0.285c-0.064,0.097-0.136,0.168-0.217,0.214
					c-0.08,0.045-0.168,0.053-0.264,0.023s-0.203-0.128-0.32-0.299l0.221-1.575l-5.16-3.71c0.01,0.177-0.008,0.294-0.051,0.35
					c-0.045,0.057-0.101,0.078-0.17,0.064c-0.067-0.013-0.145-0.038-0.229-0.076c-0.084-0.037-0.167-0.062-0.248-0.073
					c-0.082-0.012-0.156,0.004-0.223,0.048c-0.068,0.043-0.117,0.149-0.146,0.319c-0.226-0.322-0.305-0.632-0.238-0.931
					c0.068-0.298,0.206-0.589,0.416-0.874c0.209-0.284,0.453-0.561,0.735-0.828c0.28-0.269,0.521-0.529,0.717-0.784
					c0.251-0.381,0.524-0.713,0.82-0.992c0.295-0.279,0.617-0.501,0.966-0.667c0.348-0.165,0.723-0.265,1.122-0.3
					C37.008,20.911,37.445,20.946,37.916,21.051z M34.016,24.182c0.054,0.076,0.093,0.196,0.117,0.362s0.059,0.312,0.104,0.437
					c0.044,0.125,0.113,0.203,0.207,0.236c0.092,0.032,0.232-0.043,0.42-0.226l0.07,0.631c0.203-0.058,0.389-0.042,0.559,0.044
					c0.171,0.087,0.247,0.236,0.229,0.448c0.226,0.029,0.399,0.013,0.52-0.047s0.21-0.14,0.271-0.239s0.106-0.214,0.138-0.342
					c0.032-0.129,0.07-0.254,0.114-0.378c0.045-0.124,0.111-0.233,0.197-0.33s0.217-0.163,0.391-0.198
					c0.143-0.183,0.227-0.329,0.256-0.438c0.026-0.108,0.021-0.196-0.016-0.266c-0.037-0.068-0.092-0.125-0.165-0.17
					c-0.072-0.045-0.133-0.097-0.183-0.158c-0.049-0.061-0.074-0.137-0.076-0.229c-0.002-0.092,0.05-0.221,0.156-0.388
					c-0.135-0.059-0.242-0.128-0.322-0.207s-0.155-0.153-0.225-0.225c-0.068-0.071-0.149-0.135-0.24-0.194
					c-0.09-0.059-0.219-0.096-0.387-0.113c-0.238,0.075-0.463,0.189-0.672,0.344c-0.21,0.154-0.399,0.326-0.57,0.517
					c-0.17,0.189-0.33,0.385-0.48,0.586C34.279,23.839,34.142,24.02,34.016,24.182z"/>
			</g>
		</g>
	</g>
	<g>
		<g>
			<g>
				<path fill="#040000" d="M45.359,12.918c-0.037-0.235-0.025-0.416,0.035-0.541c0.06-0.125,0.146-0.218,0.257-0.276
					c0.11-0.06,0.24-0.097,0.388-0.113c0.147-0.016,0.295-0.041,0.439-0.075s0.279-0.083,0.402-0.146
					c0.124-0.064,0.222-0.174,0.295-0.328l1.725,1.849c-0.076-0.047-0.114-0.046-0.114,0.003c0.001,0.048-0.015,0.106-0.044,0.176
					c0.321,0.18,0.586,0.424,0.793,0.735c0.207,0.313,0.408,0.633,0.604,0.964c0.196,0.33,0.414,0.646,0.654,0.943
					c0.24,0.299,0.552,0.529,0.936,0.693c-0.168-0.106-0.267-0.213-0.296-0.322c-0.028-0.108-0.026-0.221,0.01-0.336
					c0.035-0.115,0.089-0.23,0.163-0.348c0.074-0.115,0.127-0.229,0.16-0.339c0.033-0.109,0.033-0.212-0.002-0.31
					c-0.033-0.097-0.139-0.183-0.313-0.257c0.01-0.216,0.014-0.478,0.01-0.784c-0.002-0.308-0.021-0.634-0.055-0.98
					c-0.034-0.349-0.083-0.711-0.148-1.09c-0.064-0.378-0.152-0.748-0.258-1.109c0.031-0.281,0.107-0.505,0.229-0.669
					c0.122-0.165,0.268-0.288,0.437-0.37c0.169-0.084,0.358-0.135,0.565-0.155c0.209-0.021,0.416-0.04,0.621-0.055
					c0.205-0.016,0.402-0.034,0.592-0.058c0.188-0.022,0.354-0.071,0.496-0.148c-0.073,0.154-0.135,0.297-0.184,0.427
					c-0.048,0.131-0.105,0.253-0.17,0.365c-0.065,0.112-0.146,0.22-0.24,0.319c-0.094,0.102-0.215,0.195-0.363,0.284
					c0.122,0.086,0.186,0.156,0.193,0.211s-0.01,0.119-0.052,0.194c-0.042,0.074-0.091,0.162-0.147,0.261
					c-0.057,0.101-0.083,0.227-0.079,0.379c0.063,0.013,0.119,0.031,0.167,0.056c0.049,0.023,0.09,0.044,0.125,0.059
					c0.033,0.015,0.07,0.02,0.105,0.014c0.038-0.005,0.08-0.031,0.127-0.079l0.131,0.323c-0.082-0.034-0.138-0.067-0.17-0.098
					c-0.031-0.031-0.064-0.006-0.1,0.075l0.619,0.894c-0.059,0.023-0.102,0.021-0.131-0.005c-0.031-0.026-0.075-0.028-0.133-0.005
					c0.313,0.153,0.5,0.353,0.564,0.596c0.064,0.244,0.1,0.492,0.104,0.746c0.005,0.252,0.038,0.494,0.097,0.726
					s0.24,0.412,0.543,0.541c-0.118,0.114-0.17,0.214-0.154,0.3s0.059,0.165,0.131,0.236c0.072,0.072,0.15,0.144,0.238,0.215
					c0.086,0.071,0.146,0.148,0.18,0.23l0.084,0.212l-0.111,0.045c-0.06,0.092-0.073,0.159-0.041,0.204s0.086,0.081,0.16,0.109
					s0.153,0.047,0.238,0.055c0.086,0.01,0.148,0.025,0.186,0.049l0.43-0.548c0.083,0.063,0.164,0.155,0.242,0.278
					s0.131,0.248,0.158,0.376c0.027,0.129,0.02,0.248-0.023,0.357c-0.043,0.108-0.136,0.177-0.277,0.205
					c-0.191,0.077-0.41,0.166-0.657,0.271c-0.247,0.104-0.501,0.186-0.76,0.247c-0.26,0.061-0.509,0.089-0.746,0.084
					c-0.237-0.006-0.438-0.087-0.597-0.245c0.298-0.216,0.481-0.432,0.549-0.646s0.084-0.437,0.051-0.663
					c-0.033-0.228-0.096-0.469-0.189-0.725c-0.094-0.257-0.154-0.538-0.181-0.845l0.224-0.09c-0.209-0.041-0.354-0.13-0.432-0.268
					c-0.08-0.136-0.133-0.295-0.163-0.476c-0.028-0.182-0.047-0.369-0.053-0.564c-0.007-0.194-0.045-0.374-0.115-0.539
					c-0.071-0.163-0.188-0.297-0.349-0.4c-0.162-0.104-0.41-0.15-0.743-0.142l0.501,0.925c-0.061-0.005-0.13-0.029-0.211-0.074
					c-0.08-0.045-0.159-0.086-0.236-0.122c-0.077-0.035-0.146-0.049-0.21-0.038s-0.106,0.069-0.132,0.176
					c0.047,0.116,0.088,0.242,0.123,0.377s0.118,0.21,0.249,0.225l0.435-0.175c-0.27,0.07-0.448,0.146-0.535,0.229
					c-0.088,0.085-0.125,0.177-0.113,0.277c0.012,0.102,0.057,0.208,0.137,0.321c0.078,0.112,0.15,0.232,0.217,0.36
					s0.107,0.26,0.123,0.397c0.018,0.138-0.026,0.281-0.131,0.429l0.131,0.322l-0.125,0.051l0.703,2.36
					c-0.261,0.191-0.487,0.292-0.68,0.303c-0.194,0.01-0.364-0.042-0.511-0.156s-0.282-0.271-0.407-0.473
					c-0.123-0.2-0.244-0.412-0.363-0.634c-0.117-0.222-0.242-0.441-0.371-0.658c-0.132-0.218-0.279-0.399-0.443-0.545l-1.203-1.77
					l-0.322,0.13c0.025-0.174,0.033-0.317,0.022-0.429c-0.011-0.11-0.033-0.203-0.067-0.275c-0.034-0.073-0.081-0.129-0.14-0.168
					c-0.06-0.038-0.13-0.076-0.21-0.11l0.111-0.045c0.049-0.116,0.061-0.19,0.033-0.224c-0.027-0.032-0.069-0.052-0.125-0.058
					c-0.056-0.007-0.117-0.018-0.186-0.033c-0.07-0.016-0.121-0.065-0.154-0.147l-0.224,0.089c0.028,0.239,0.097,0.458,0.206,0.654
					c0.107,0.197,0.219,0.394,0.336,0.587c0.116,0.194,0.223,0.39,0.316,0.588s0.143,0.423,0.146,0.671l0.223-0.09
					c-0.133,0.218-0.18,0.443-0.139,0.677c0.041,0.234,0.125,0.462,0.254,0.686c0.127,0.223,0.277,0.435,0.449,0.635
					s0.318,0.368,0.439,0.503c0.117,0.049,0.246,0.081,0.387,0.097s0.273,0.042,0.399,0.078s0.228,0.099,0.307,0.188
					s0.11,0.232,0.094,0.432c-0.108,0.207-0.232,0.36-0.37,0.459c-0.14,0.1-0.291,0.172-0.455,0.219
					c-0.164,0.046-0.332,0.078-0.504,0.095c-0.172,0.016-0.34,0.047-0.504,0.094s-0.317,0.12-0.459,0.221
					c-0.143,0.101-0.264,0.258-0.36,0.47c-0.048-0.048-0.132-0.105-0.251-0.174c-0.118-0.067-0.224-0.15-0.315-0.248
					c-0.093-0.098-0.154-0.208-0.185-0.331c-0.029-0.123,0.023-0.255,0.159-0.396l0.156,0.067c0.214-0.403,0.335-0.8,0.362-1.186
					c0.027-0.387-0.008-0.768-0.105-1.143c-0.098-0.374-0.241-0.75-0.431-1.126c-0.19-0.377-0.386-0.755-0.587-1.137
					c-0.201-0.381-0.396-0.767-0.588-1.157c-0.19-0.391-0.336-0.796-0.439-1.218L45.359,12.918z M52.301,12.295l-0.224,0.09
					l0.394,0.333L52.301,12.295z"/>
			</g>
		</g>
	</g>
	<g>
		<g>
			<g>
				<path fill="#040000" d="M61.993,9c0.013,0.232,0.063,0.478,0.147,0.737c0.087,0.259,0.25,0.467,0.492,0.623
					c-0.165,0.099-0.245,0.192-0.24,0.281c0.005,0.09,0.043,0.18,0.115,0.27c0.072,0.091,0.146,0.185,0.224,0.283
					s0.105,0.207,0.085,0.323c0.039,0.231,0.088,0.468,0.146,0.711c0.058,0.243,0.139,0.482,0.241,0.718
					c0.102,0.236,0.228,0.455,0.378,0.657c0.149,0.202,0.33,0.374,0.545,0.514c-0.084,0.094-0.123,0.201-0.117,0.321
					c0.008,0.121,0.029,0.247,0.068,0.379c0.039,0.133,0.084,0.267,0.137,0.402c0.052,0.136,0.081,0.258,0.086,0.364
					c0.302,0.108,0.578,0.253,0.83,0.431c0.251,0.179,0.496,0.32,0.734,0.423c-0.104,0.238-0.233,0.408-0.389,0.511
					c-0.156,0.104-0.324,0.166-0.507,0.189c-0.181,0.023-0.376,0.021-0.583-0.009c-0.209-0.028-0.418-0.051-0.628-0.065
					c-0.212-0.016-0.419-0.011-0.624,0.014c-0.203,0.024-0.396,0.101-0.578,0.227c-0.12-0.083-0.197-0.177-0.23-0.282
					s-0.047-0.217-0.045-0.333c0.003-0.116,0.008-0.229,0.016-0.337c0.007-0.107-0.005-0.205-0.037-0.293
					c0.051-0.065,0.1-0.104,0.148-0.116c0.049-0.011,0.093-0.023,0.133-0.033c0.039-0.012,0.08-0.031,0.123-0.062
					c0.044-0.028,0.09-0.089,0.139-0.182c-0.245-0.389-0.545-0.641-0.9-0.756c-0.355-0.114-0.766-0.159-1.229-0.134
					c-0.236-0.049-0.4-0.034-0.494,0.047c-0.095,0.082-0.166,0.188-0.218,0.321s-0.105,0.268-0.166,0.405
					c-0.059,0.137-0.173,0.237-0.339,0.301l1.469,1.086c-0.289,0.097-0.584,0.188-0.884,0.271c-0.3,0.084-0.601,0.143-0.903,0.177
					c-0.302,0.035-0.605,0.035-0.912,0.004c-0.307-0.033-0.605-0.117-0.9-0.253c0.113-0.239,0.234-0.438,0.363-0.598
					c0.131-0.158,0.343-0.247,0.637-0.263c0.316-0.59,0.557-1.233,0.72-1.932s0.308-1.397,0.435-2.098s0.266-1.384,0.418-2.05
					c0.151-0.666,0.369-1.267,0.652-1.8c0.166-0.063,0.319-0.088,0.459-0.073c0.14,0.016,0.266,0.056,0.376,0.12
					c0.11,0.066,0.216,0.149,0.315,0.252C61.801,8.795,61.898,8.897,61.993,9z M60.76,9.994l0.348,0.223
					c-0.158,0.215-0.282,0.446-0.371,0.698c-0.089,0.251-0.146,0.504-0.172,0.761c-0.027,0.256-0.027,0.503,0,0.738
					c0.026,0.235,0.074,0.437,0.146,0.603l-0.451,0.588c0.212,0.104,0.394,0.151,0.545,0.139c0.15-0.013,0.295-0.046,0.43-0.098
					c0.137-0.053,0.272-0.1,0.41-0.144c0.135-0.043,0.294-0.043,0.476,0.001c-0.066-0.077-0.1-0.151-0.1-0.223
					c0.001-0.072,0.006-0.144,0.015-0.216c0.01-0.072,0.013-0.146,0.009-0.222c-0.005-0.076-0.04-0.156-0.108-0.243
					c-0.102-0.226-0.191-0.47-0.268-0.729c-0.077-0.26-0.157-0.51-0.242-0.752c-0.086-0.241-0.181-0.461-0.285-0.662
					C61.035,10.255,60.908,10.102,60.76,9.994z"/>
			</g>
		</g>
	</g>
	<g>
		<g>
			<g>
				<path fill="#040000" d="M69.866,8.778c0.53,0.043,1.048,0.119,1.556,0.227c0.507,0.106,0.986,0.271,1.436,0.488
					c0.451,0.219,0.846,0.557,1.184,1.016c-0.043,0.11-0.15,0.162-0.323,0.156c-0.173-0.007-0.365-0.035-0.577-0.087
					c-0.213-0.052-0.429-0.104-0.645-0.156c-0.218-0.053-0.395-0.071-0.53-0.056c-0.137,0.016-0.214,0.088-0.233,0.217
					c-0.02,0.128,0.064,0.351,0.251,0.665c-0.202-0.163-0.353-0.255-0.453-0.277s-0.175,0-0.221,0.067
					c-0.048,0.067-0.077,0.164-0.091,0.289s-0.031,0.254-0.051,0.387c-0.021,0.132-0.055,0.256-0.104,0.368
					c-0.047,0.113-0.134,0.184-0.259,0.211c0.12,0.081,0.178,0.16,0.175,0.237c-0.004,0.076-0.031,0.148-0.082,0.215
					c-0.053,0.066-0.115,0.133-0.195,0.197c-0.077,0.065-0.135,0.128-0.172,0.188c-0.036,0.061-0.033,0.12,0.008,0.181
					c0.043,0.06,0.156,0.119,0.346,0.179c-0.123,0.184-0.211,0.375-0.264,0.573c-0.054,0.198-0.08,0.401-0.079,0.606
					c0,0.206,0.016,0.415,0.047,0.628c0.03,0.213,0.069,0.425,0.112,0.636c-0.226-0.05-0.365,0.039-0.415,0.266
					c0.038,0.283,0.14,0.502,0.302,0.656c0.162,0.155,0.344,0.277,0.543,0.366c0.2,0.091,0.393,0.163,0.577,0.218
					s0.317,0.125,0.399,0.211c0.081,0.087,0.085,0.202,0.013,0.347c-0.073,0.144-0.268,0.351-0.583,0.618l-4.973-1.097l-0.223-0.543
					c0.144-0.114,0.294-0.225,0.449-0.327c0.155-0.104,0.324-0.182,0.506-0.238c0.182-0.056,0.376-0.079,0.584-0.07
					c0.209,0.01,0.432,0.073,0.673,0.19c0.173-0.373,0.325-0.784,0.456-1.23s0.246-0.908,0.347-1.385s0.185-0.955,0.249-1.435
					c0.064-0.48,0.111-0.937,0.144-1.368c0.193-0.049,0.3-0.114,0.318-0.197s0.007-0.178-0.034-0.281
					c-0.041-0.105-0.088-0.217-0.139-0.333c-0.053-0.117-0.053-0.229-0.002-0.337l-1.738-0.645l0.17-0.772
					C68.822,8.657,69.336,8.734,69.866,8.778z"/>
			</g>
		</g>
	</g>
	<g>
		<g>
			<g>
				<path fill="#040000" d="M77.619,11.299c0.375,0.123,0.744,0.254,1.111,0.394c0.366,0.139,0.74,0.294,1.119,0.465
					s0.779,0.384,1.201,0.638c-0.148,0.184-0.311,0.346-0.486,0.485c-0.175,0.14-0.379,0.183-0.614,0.129
					c-0.072-0.169-0.158-0.288-0.259-0.356c-0.1-0.069-0.205-0.112-0.316-0.131c-0.111-0.02-0.229-0.027-0.35-0.027
					c-0.123,0.002-0.241-0.014-0.356-0.044c-0.022,0.119-0.073,0.219-0.151,0.299s-0.167,0.151-0.266,0.215
					c-0.1,0.063-0.195,0.121-0.289,0.173s-0.166,0.112-0.218,0.181c-0.052,0.069-0.068,0.148-0.051,0.238
					c0.019,0.091,0.089,0.199,0.214,0.326c-0.102,0.078-0.213,0.147-0.332,0.21c-0.119,0.063-0.183,0.159-0.189,0.287l0.037,0.414
					l-0.565,0.095c-0.062,0.361-0.154,0.714-0.28,1.057c-0.127,0.343-0.236,0.669-0.33,0.979s-0.143,0.602-0.147,0.877
					c-0.005,0.276,0.08,0.526,0.255,0.75c0.217,0.085,0.412,0.156,0.585,0.212c0.173,0.057,0.34,0.112,0.503,0.168
					c0.162,0.057,0.321,0.113,0.478,0.171c0.157,0.059,0.331,0.124,0.526,0.196c0.107-0.034,0.213-0.102,0.313-0.205
					s0.203-0.217,0.308-0.337c0.105-0.122,0.215-0.237,0.33-0.349c0.114-0.111,0.236-0.19,0.367-0.237
					c0.132-0.047,0.271-0.048,0.421-0.005c0.147,0.044,0.316,0.156,0.504,0.336c0.048,0.158,0.083,0.311,0.106,0.459
					c0.021,0.148,0.051,0.29,0.086,0.425c0.033,0.135,0.092,0.259,0.172,0.373c0.082,0.113,0.209,0.216,0.383,0.309
					c-0.146,0.217-0.315,0.455-0.51,0.716c-0.193,0.261-0.41,0.487-0.648,0.68c-0.238,0.191-0.506,0.318-0.801,0.379
					s-0.62-0.003-0.977-0.192c-0.523-0.308-1.014-0.612-1.473-0.911c-0.458-0.299-0.916-0.6-1.371-0.902
					c-0.457-0.303-0.923-0.602-1.398-0.895c-0.477-0.294-0.995-0.589-1.555-0.887c0.035-0.203,0.086-0.34,0.15-0.413
					c0.063-0.072,0.137-0.106,0.221-0.103s0.176,0.032,0.274,0.084c0.099,0.053,0.202,0.105,0.311,0.158s0.221,0.094,0.336,0.125
					c0.115,0.03,0.228,0.021,0.337-0.033c0.32-0.416,0.653-0.875,0.995-1.375c0.343-0.502,0.664-1.026,0.966-1.575
					c0.301-0.548,0.563-1.104,0.787-1.668c0.224-0.563,0.381-1.114,0.475-1.651l-1.117-1.125
					C76.852,11.036,77.244,11.176,77.619,11.299z"/>
			</g>
		</g>
	</g>
	<g>
		<g>
			<g>
				<path fill="#040000" d="M92.594,31.748c0.193-0.07,0.42-0.164,0.68-0.281c0.26-0.118,0.529-0.226,0.812-0.321
					c0.281-0.098,0.56-0.169,0.833-0.216c0.274-0.048,0.515-0.034,0.721,0.038c0.316,0.004,0.647,0.085,0.998,0.244
					c0.35,0.159,0.67,0.375,0.959,0.65c0.014,0.126,0.041,0.251,0.082,0.376s0.08,0.247,0.118,0.365s0.066,0.235,0.087,0.351
					c0.021,0.114,0.017,0.225-0.012,0.327c-0.027,0.104-0.091,0.203-0.19,0.298c-0.099,0.095-0.245,0.181-0.442,0.26
					c-0.111,0.03-0.218,0.063-0.322,0.098c-0.104,0.034-0.203,0.056-0.298,0.063c-0.094,0.006-0.185-0.005-0.269-0.035
					c-0.084-0.029-0.165-0.092-0.242-0.187c-0.002-0.147,0.027-0.318,0.086-0.511c0.061-0.193,0.102-0.383,0.123-0.569
					c0.023-0.188,0.008-0.362-0.047-0.522c-0.055-0.161-0.193-0.289-0.42-0.384c-0.152-0.105-0.281-0.143-0.387-0.111
					c-0.105,0.032-0.211,0.075-0.313,0.128c-0.103,0.055-0.21,0.093-0.319,0.114c-0.111,0.022-0.248-0.03-0.409-0.154
					c0.109,0.275,0.239,0.516,0.389,0.721c0.149,0.204,0.288,0.407,0.417,0.606c0.128,0.2,0.23,0.421,0.308,0.661
					c0.077,0.239,0.097,0.532,0.062,0.878c-0.099,0.219-0.238,0.439-0.42,0.66c-0.183,0.221-0.394,0.422-0.634,0.604
					s-0.502,0.332-0.784,0.449c-0.283,0.118-0.574,0.183-0.873,0.194c-0.301-0.104-0.603-0.235-0.904-0.39
					c-0.301-0.155-0.561-0.36-0.777-0.615c-0.262-0.381-0.387-0.755-0.371-1.121c0.014-0.366,0.107-0.714,0.28-1.044
					c0.173-0.329,0.398-0.634,0.677-0.913C92.069,32.179,92.336,31.942,92.594,31.748z M91.845,34.829
					c0.144,0.182,0.302,0.349,0.478,0.502s0.357,0.263,0.546,0.328c0.153-0.004,0.292-0.014,0.413-0.029s0.238-0.044,0.353-0.083
					s0.229-0.086,0.349-0.139c0.119-0.054,0.248-0.114,0.387-0.182c0.044-0.17,0.092-0.329,0.144-0.48
					c0.052-0.149,0.096-0.295,0.129-0.437c0.032-0.141,0.051-0.286,0.053-0.436c0.003-0.149-0.027-0.312-0.088-0.484
					c-0.097-0.056-0.208-0.128-0.334-0.22s-0.261-0.183-0.403-0.274c-0.142-0.092-0.289-0.175-0.442-0.25
					c-0.152-0.073-0.306-0.121-0.46-0.141c-0.154-0.019-0.302-0.002-0.444,0.051c-0.143,0.054-0.272,0.159-0.392,0.318l0.115,0.238
					c-0.129,0.039-0.238,0.128-0.327,0.27c-0.089,0.14-0.151,0.3-0.19,0.478c-0.039,0.179-0.049,0.358-0.028,0.536
					C91.72,34.573,91.768,34.717,91.845,34.829z"/>
			</g>
		</g>
	</g>
	<g>
		<g>
			<g>
				<path fill="#040000" d="M89.65,31.37c-0.216-0.322-0.445-0.661-0.689-1.018c-0.244-0.358-0.471-0.722-0.682-1.093
					s-0.395-0.743-0.553-1.117c-0.156-0.372-0.254-0.737-0.29-1.095c0.187-0.05,0.37-0.074,0.548-0.074
					c0.177,0,0.355,0.011,0.536,0.033s0.362,0.054,0.545,0.092s0.366,0.076,0.552,0.112c0.08-0.121,0.125-0.255,0.137-0.402
					s0.012-0.294-0.002-0.438c-0.012-0.145-0.023-0.282-0.035-0.415c-0.014-0.131-0.006-0.246,0.021-0.345s0.084-0.175,0.171-0.229
					c0.087-0.055,0.225-0.072,0.414-0.056l0.431-0.835l-0.132-0.026c-0.04-0.134-0.021-0.225,0.054-0.271s0.164-0.074,0.268-0.084
					c0.103-0.011,0.203-0.015,0.303-0.013c0.098,0.002,0.159-0.018,0.182-0.059c-0.006,0.028-0.037,0.066-0.094,0.113
					c-0.058,0.047-0.118,0.099-0.183,0.154c-0.065,0.056-0.122,0.118-0.174,0.187s-0.075,0.144-0.071,0.226l0.047,0.07
					c0.104-0.01,0.199-0.051,0.287-0.122s0.174-0.152,0.257-0.242c0.084-0.091,0.168-0.179,0.254-0.266
					c0.085-0.087,0.175-0.156,0.269-0.205c0.094-0.051,0.193-0.068,0.3-0.056c0.106,0.014,0.228,0.076,0.362,0.189
					c-0.006,0.131,0.008,0.217,0.04,0.259c0.032,0.041,0.078,0.062,0.136,0.062c0.059-0.002,0.123-0.014,0.193-0.034
					c0.07-0.022,0.139-0.036,0.207-0.044c0.066-0.007,0.127,0.004,0.179,0.032c0.054,0.028,0.092,0.097,0.116,0.208
					c0.274,0.172,0.506,0.367,0.693,0.59c0.186,0.222,0.342,0.456,0.465,0.703c0.124,0.248,0.225,0.502,0.303,0.764
					c0.078,0.261,0.146,0.52,0.209,0.774c-0.028,0.248-0.092,0.47-0.189,0.667c-0.096,0.195-0.217,0.357-0.36,0.483
					c-0.145,0.126-0.313,0.211-0.511,0.253c-0.195,0.043-0.412,0.033-0.648-0.028c-0.155-0.031-0.246-0.078-0.271-0.142
					c-0.025-0.063-0.031-0.134-0.016-0.212s0.027-0.16,0.037-0.247s-0.025-0.172-0.105-0.253c0.199-0.108,0.373-0.246,0.521-0.414
					c0.15-0.168,0.26-0.35,0.328-0.544c0.069-0.194,0.09-0.396,0.063-0.607c-0.026-0.211-0.119-0.416-0.278-0.613
					c-0.16-0.113-0.327-0.223-0.501-0.331c-0.174-0.107-0.355-0.195-0.545-0.264c-0.189-0.067-0.39-0.109-0.6-0.125
					c-0.21-0.017-0.426,0.013-0.648,0.085c-0.057,0.115-0.162,0.247-0.313,0.395s-0.283,0.311-0.396,0.488s-0.18,0.373-0.198,0.584
					c-0.02,0.213,0.069,0.447,0.268,0.704c0.115,0.083,0.218,0.165,0.306,0.246s0.174,0.159,0.258,0.233
					c0.084,0.075,0.172,0.145,0.263,0.211s0.194,0.129,0.31,0.188c-0.092,0.153-0.217,0.255-0.375,0.302
					c-0.16,0.048-0.334,0.065-0.523,0.053c-0.191-0.013-0.387-0.035-0.588-0.069c-0.201-0.036-0.396-0.059-0.583-0.073
					c-0.187-0.015-0.355,0-0.506,0.04c-0.149,0.042-0.268,0.139-0.354,0.288c0.097,0.359,0.206,0.614,0.325,0.769
					c0.119,0.151,0.248,0.247,0.389,0.285c0.139,0.037,0.289,0.04,0.449,0.008c0.162-0.031,0.33-0.055,0.506-0.071
					c0.176-0.016,0.358-0.001,0.55,0.044c0.19,0.045,0.388,0.166,0.587,0.362c-0.131,0.172-0.273,0.347-0.431,0.524
					c-0.156,0.177-0.329,0.33-0.517,0.461c-0.188,0.13-0.389,0.227-0.602,0.288C90.111,31.431,89.887,31.431,89.65,31.37z"/>
			</g>
		</g>
	</g>
	<g>
		<g>
			<g>
				<path fill="#040000" d="M83.262,23.251c0.051-0.15,0.085-0.279,0.102-0.388s0.043-0.201,0.078-0.28
					c0.037-0.078,0.096-0.149,0.181-0.213s0.218-0.124,0.397-0.179c0.022-0.198,0.064-0.337,0.127-0.415
					c0.064-0.078,0.142-0.127,0.234-0.147c0.092-0.02,0.195-0.018,0.311,0.007c0.114,0.025,0.23,0.045,0.346,0.061
					c0.116,0.014,0.234,0.015,0.353,0c0.12-0.015,0.226-0.07,0.322-0.165c0.384,0.007,0.771-0.053,1.159-0.176
					c0.389-0.124,0.777-0.255,1.168-0.393c0.39-0.14,0.782-0.257,1.178-0.354c0.396-0.098,0.791-0.116,1.185-0.054
					c0.048,0.195,0.033,0.363-0.047,0.506c-0.081,0.141-0.19,0.268-0.329,0.381c-0.141,0.112-0.296,0.217-0.466,0.313
					c-0.171,0.097-0.323,0.2-0.461,0.312c-0.353,0.111-0.731,0.191-1.136,0.238c-0.406,0.047-0.803,0.097-1.195,0.149
					c-0.391,0.054-0.76,0.127-1.111,0.22c-0.35,0.092-0.647,0.238-0.895,0.437c0.01,0.192,0.051,0.359,0.123,0.505
					s0.152,0.279,0.242,0.401s0.176,0.235,0.26,0.34c0.084,0.104,0.143,0.214,0.175,0.333c0.223,0.074,0.421,0.097,0.597,0.067
					c0.176-0.028,0.337-0.081,0.482-0.158s0.284-0.158,0.416-0.24c0.131-0.084,0.26-0.144,0.387-0.177
					c0.126-0.034,0.259-0.024,0.398,0.031c0.139,0.055,0.29,0.184,0.453,0.386c-0.209,0.133-0.4,0.283-0.573,0.449
					c-0.173,0.167-0.342,0.333-0.507,0.497c-0.165,0.165-0.338,0.319-0.515,0.463c-0.178,0.144-0.374,0.262-0.589,0.354
					c-0.313-0.163-0.58-0.38-0.802-0.648s-0.433-0.553-0.634-0.852c-0.2-0.299-0.41-0.593-0.629-0.882
					C83.827,23.692,83.566,23.449,83.262,23.251z"/>
			</g>
		</g>
	</g>
	<g>
		<g>
			<g>
				<path fill="#040000" d="M75.814,66.268c1.715-1.092,3.315-2.424,4.75-4c1.721-1.891,3.073-3.988,4.063-6.201
					c-1.112-0.168-2.229-0.354-3.355-0.568C78.044,56.906,76.762,61.74,75.814,66.268z"/>
			</g>
		</g>
		<g>
			<g>
				<path fill="#040000" d="M58.113,55.205c-1.113,1.438-0.854,4.266,1.031,2.949C58.283,57.314,59.268,55.965,58.113,55.205z"/>
			</g>
		</g>
		<g>
			<g>
				<path fill="#040000" d="M86.654,46.309c-0.059-6.281-2.63-12.521-7.641-17.083c-0.924-0.841-1.896-1.593-2.908-2.258
					c0.792,5.813,1.234,11.722,2.727,17.342C81.383,44.77,84.007,45.497,86.654,46.309z"/>
			</g>
		</g>
		<g>
			<g>
				<path fill="#040000" d="M59.014,63.152c-2.238-1.182-5.995-0.939-7.195-3.406c0.057-1.889,2.361-1.664,3.42-2.455
					c0.437-1.27,0.441-2.422,0.318-3.537c-3.877-1.541-10.305-3.431-10.672-7.409c-1.578-1.074-4.109-1.154-4.058-2.978
					c1.024-2.278,3.149-0.573,4.665-1.072c2.934-5.264,8.184-2.13,12.834-1.169c3.161-6.478,3.413-12.152,4.226-17.981
					c-6.11,0.188-12.14,2.756-16.579,7.633c-8.695,9.552-8.002,24.345,1.551,33.041c3.349,3.049,7.342,4.941,11.49,5.703
					C59.023,67.396,59.053,65.264,59.014,63.152z"/>
			</g>
		</g>
	</g>
	<g>
		<g>
			<path fill="#040000" d="M59.238,82.457l-0.086-0.414c-0.93-4.488-0.896-9.279-0.865-13.912c0.01-1.482,0.02-3.012-0.002-4.51
				c-0.635-0.268-1.389-0.453-2.179-0.648c-1.097-0.271-2.231-0.551-3.186-1.092c-0.819-0.465-1.396-1.059-1.765-1.814l-0.078-0.162
				l0.006-0.182c0.053-1.785,1.584-2.256,2.597-2.566c0.353-0.109,0.69-0.213,0.939-0.344c0.239-0.789,0.315-1.58,0.246-2.541
				c-0.352-0.135-0.72-0.275-1.101-0.418c-1.771-0.67-3.781-1.43-5.506-2.406c-2.416-1.372-3.748-2.9-4.057-4.661
				c-0.404-0.229-0.882-0.416-1.343-0.598c-0.466-0.183-0.948-0.373-1.366-0.61c-0.002,0-0.002-0.001-0.004-0.001
				c-0.359-0.205-1.438-0.821-1.396-2.231l0.004-0.146l0.06-0.136c0.892-1.981,2.569-1.704,3.681-1.521
				c0.432,0.071,0.844,0.139,1.181,0.103c2.63-4.35,6.857-3.104,10.597-2.002c0.76,0.225,1.543,0.455,2.3,0.636
				c2.386-5.106,2.948-9.631,3.542-14.412c0.439-3.521,0.892-7.161,2.146-10.992l0.181-0.554l0.582,0.05
				c1.817,0.159,3.73,0.689,5.581,1.201c1.452,0.403,2.954,0.819,4.356,1.036l0.463,0.072l0.131,0.448
				c1.34,4.591,1.925,9.44,2.49,14.13c0.498,4.123,1.012,8.382,2.039,12.412c3.676,0.707,7.525,1.94,11.253,3.136
				c3.917,1.256,7.964,2.553,11.759,3.216c0.691-1.434,0.955-2.75,1.234-4.136c0.338-1.684,0.689-3.423,1.828-5.386l0.254-0.435
				l0.496,0.077c1.82,0.285,4.395,0.855,6.334,1.956c2.328,1.321,2.861,2.911,2.773,4.219c0.492-0.047,0.967-0.274,1.49-0.527
				c0.891-0.429,1.898-0.914,3.174-0.565l0.576,0.157l-0.037,0.596c-0.053,0.91,0.057,2.1,0.172,3.357
				c0.287,3.12,0.613,6.653-1.066,9.09c-0.867,1.26-2.076,1.629-3.143,1.955c-0.652,0.199-1.279,0.391-1.859,0.766
				c1.326,2.088,0.855,5.365-1.402,9.762l-0.344,0.67l-0.66-0.359c-1.01-0.549-1.994-0.881-2.943-1.201
				c-0.918-0.309-1.785-0.602-2.596-1.061c-0.498-0.281-0.926-0.602-1.309-0.975c-1.199-1.174-1.469-2.811-1.73-4.391
				c-0.217-1.314-0.422-2.559-1.156-3.287c-4.941-1.729-9.684-2.369-14.271-2.99c-2.242-0.303-4.557-0.615-6.883-1.051
				c-3.102,1.561-4.236,7.174-5.152,11.703c-0.238,1.178-0.465,2.291-0.711,3.297c-0.269,1.09-0.514,2.199-0.752,3.271
				c-0.809,3.65-1.645,7.424-3.469,10.775l-0.311,0.572l-0.604-0.24c-2.052-0.807-4.067-1.295-6.015-1.766
				c-1.527-0.369-3.105-0.752-4.716-1.287L59.238,82.457z M59.738,62.703l0.01,0.434c0.031,1.664,0.02,3.363,0.008,5.004
				c-0.029,4.412-0.06,8.967,0.752,13.188c1.416,0.449,2.825,0.791,4.193,1.121c1.804,0.438,3.664,0.887,5.59,1.594
				c1.521-3.02,2.254-6.33,3.027-9.822c0.239-1.082,0.487-2.199,0.76-3.307c0.24-0.977,0.463-2.074,0.697-3.236
				c1.055-5.217,2.25-11.129,6.203-12.854l0.209-0.09l0.223,0.041c2.365,0.453,4.742,0.775,7.039,1.086
				c4.705,0.635,9.571,1.293,14.707,3.109l0.133,0.047l0.105,0.092c1.211,1.061,1.479,2.68,1.736,4.244
				c0.232,1.41,0.453,2.742,1.309,3.58c0.289,0.283,0.621,0.527,1.006,0.746c0.688,0.391,1.488,0.66,2.338,0.947
				c0.768,0.258,1.617,0.545,2.498,0.959c1.367-2.83,2.467-6.305,0.818-8.068l-0.506-0.541l0.545-0.502
				c0.969-0.889,2.023-1.213,2.955-1.498c0.998-0.305,1.785-0.547,2.363-1.385c1.377-1.996,1.076-5.25,0.813-8.12
				c-0.096-1.032-0.188-2.019-0.191-2.89c-0.529,0.022-1.033,0.265-1.592,0.534c-0.889,0.429-1.898,0.914-3.174,0.565l-0.705-0.192
				l0.189-0.706c0.131-0.495,0.533-2.002-1.939-3.404c-1.635-0.928-3.873-1.441-5.33-1.697c-0.826,1.574-1.113,2.997-1.414,4.496
				c-0.316,1.572-0.643,3.198-1.619,5.007l-0.246,0.461l-0.516-0.082c-4.058-0.65-8.351-2.026-12.503-3.356
				c-3.839-1.23-7.808-2.503-11.529-3.176l-0.459-0.083l-0.12-0.451c-1.132-4.262-1.672-8.735-2.193-13.063
				c-0.54-4.479-1.099-9.104-2.316-13.451c-1.342-0.241-2.72-0.623-4.058-0.994c-1.583-0.438-3.212-0.89-4.733-1.089
				c-1.076,3.494-1.496,6.874-1.903,10.148c-0.603,4.846-1.226,9.855-3.931,15.398l-0.25,0.513l-0.559-0.115
				c-0.986-0.204-1.999-0.502-2.979-0.791c-3.767-1.11-7.021-2.069-9.063,1.599l-0.141,0.251l-0.271,0.089
				c-0.712,0.234-1.463,0.11-2.125,0.001c-1.191-0.196-1.651-0.202-2.031,0.532c0.027,0.267,0.174,0.501,0.652,0.773
				c0.328,0.186,0.742,0.349,1.18,0.521c0.64,0.251,1.316,0.52,1.899,0.917l0.287,0.195l0.032,0.345
				c0.129,1.404,1.23,2.677,3.369,3.891c1.623,0.921,3.576,1.657,5.3,2.31c0.542,0.203,1.062,0.4,1.542,0.592l0.41,0.162
				l0.049,0.439c0.111,0.994,0.17,2.332-0.354,3.857l-0.073,0.215l-0.181,0.137c-0.456,0.338-1.021,0.514-1.568,0.682
				c-0.99,0.305-1.45,0.498-1.542,1.031c0.237,0.404,0.584,0.729,1.077,1.008c0.777,0.441,1.813,0.697,2.812,0.943
				c1.001,0.246,2.036,0.502,2.897,0.957L59.738,62.703z M57.578,59.049L57.578,59.049c-0.41-0.232-0.688-0.658-0.803-1.232
				c-0.196-0.975,0.115-2.234,0.757-3.063l0.417-0.539l0.568,0.375c0.949,0.625,0.954,1.557,0.957,2.174
				c0.003,0.49,0.02,0.707,0.184,0.865l0.633,0.621l-0.726,0.508C58.639,59.404,57.974,59.273,57.578,59.049z"/>
		</g>
	</g>
	<g>
		<g>
			<g>
				<g>
					<path fill="#040000" d="M5.799,9.432c11.081-0.829,21.914,1.959,32.16,5.965c9.639,3.767,18.586,9.468,28.581,12.25
						c9.503,2.645,19.631,2.8,29.422,2.634c5.729-0.097,11.462-0.226,17.177,0.3c5.395,0.495,10.486,1.859,15.404,4.118
						c5.002,2.297,9.611,5.376,14.318,8.206c4.668,2.809,9.51,5.176,14.65,6.997c9.914,3.511,21.111,5.161,31.299,1.87
						c1.297-0.418,0.375-2.332-0.91-1.917c-9.461,3.056-19.887,1.347-29.1-1.752c-9.326-3.137-17.127-8.786-25.682-13.451
						c-4.113-2.243-8.451-4.108-13.033-5.142c-5.582-1.258-11.35-1.448-17.051-1.438c-10.447,0.02-20.879,0.49-31.219-1.38
						c-11.394-2.063-21.311-8.486-31.912-12.803C28.963,9.434,17.316,6.454,5.431,7.342C4.066,7.444,4.447,9.534,5.799,9.432
						L5.799,9.432z"/>
				</g>
			</g>
		</g>
		<g>
			<g>
				<g>
					<path fill="#040000" d="M5.799,18.498c11.081-0.829,21.914,1.959,32.16,5.964c9.639,3.768,18.586,9.468,28.581,12.25
						c9.503,2.645,19.631,2.8,29.422,2.635c5.729-0.098,11.462-0.226,17.177,0.299c5.395,0.495,10.486,1.86,15.404,4.119
						c5.002,2.297,9.611,5.375,14.318,8.205c4.668,2.809,9.51,5.178,14.65,6.998c9.914,3.51,21.111,5.16,31.299,1.871
						c1.297-0.42,0.375-2.332-0.91-1.918c-9.461,3.055-19.887,1.348-29.1-1.752c-9.326-3.139-17.127-8.788-25.682-13.452
						c-4.113-2.243-8.451-4.109-13.033-5.142c-5.582-1.259-11.35-1.449-17.051-1.438c-10.447,0.02-20.879,0.49-31.219-1.381
						c-11.394-2.062-21.311-8.485-31.912-12.803c-10.941-4.454-22.588-7.435-34.474-6.546C4.066,16.509,4.447,18.598,5.799,18.498
						L5.799,18.498z"/>
				</g>
			</g>
		</g>
		<g>
			<g>
				<g>
					<path fill="#040000" d="M5.799,27.86c11.081-0.829,21.914,1.959,32.16,5.964c9.639,3.768,18.586,9.469,28.581,12.25
						c9.503,2.645,19.631,2.8,29.422,2.634c5.729-0.097,11.462-0.225,17.177,0.3c5.395,0.495,10.486,1.86,15.404,4.12
						c5.002,2.297,9.611,5.375,14.318,8.205c4.668,2.809,9.51,5.176,14.65,6.998c9.914,3.51,21.111,5.158,31.299,1.869
						c1.297-0.42,0.375-2.332-0.91-1.916c-9.461,3.055-19.887,1.346-29.1-1.754c-9.326-3.137-17.127-8.787-25.682-13.451
						c-4.113-2.242-8.451-4.109-13.033-5.142c-5.582-1.258-11.35-1.448-17.051-1.438c-10.447,0.02-20.879,0.49-31.219-1.381
						c-11.394-2.062-21.311-8.484-31.912-12.803C28.963,27.862,17.316,24.88,5.431,25.77C4.066,25.872,4.447,27.961,5.799,27.86
						L5.799,27.86z"/>
				</g>
			</g>
		</g>
		<g>
			<g>
				<g>
					<path fill="#040000" d="M5.799,37.41c11.081-0.829,21.914,1.959,32.16,5.964c9.639,3.768,18.586,9.468,28.581,12.25
						c9.503,2.646,19.631,2.801,29.422,2.635c5.729-0.098,11.462-0.227,17.177,0.299c5.395,0.496,10.486,1.861,15.404,4.119
						c5.002,2.297,9.611,5.375,14.318,8.207c4.668,2.807,9.51,5.176,14.65,6.996c9.914,3.512,21.111,5.16,31.299,1.871
						c1.297-0.42,0.375-2.332-0.91-1.918c-9.461,3.055-19.887,1.348-29.1-1.752c-9.326-3.137-17.127-8.787-25.682-13.451
						c-4.113-2.244-8.451-4.109-13.033-5.143c-5.582-1.258-11.35-1.449-17.051-1.438c-10.447,0.02-20.879,0.49-31.219-1.381
						c-11.394-2.063-21.311-8.486-31.912-12.802c-10.941-4.454-22.588-7.435-34.474-6.547C4.066,35.421,4.447,37.51,5.799,37.41
						L5.799,37.41z"/>
				</g>
			</g>
		</g>
		<g>
			<g>
				<g>
					<path fill="#040000" d="M5.799,46.474c11.081-0.828,21.914,1.959,32.16,5.963c9.639,3.77,18.586,9.469,28.581,12.25
						c9.503,2.646,19.631,2.801,29.422,2.635c5.729-0.096,11.462-0.225,17.177,0.299c5.395,0.496,10.486,1.861,15.404,4.121
						c5.002,2.297,9.611,5.375,14.318,8.205c4.668,2.807,9.51,5.176,14.65,6.996c9.914,3.512,21.111,5.16,31.299,1.871
						c1.297-0.42,0.375-2.332-0.91-1.918c-9.461,3.057-19.887,1.348-29.1-1.752c-9.326-3.137-17.127-8.787-25.682-13.451
						c-4.113-2.242-8.451-4.109-13.033-5.143c-5.582-1.258-11.35-1.449-17.051-1.438c-10.447,0.02-20.879,0.49-31.219-1.381
						C60.423,61.67,50.506,55.248,39.904,50.93c-10.941-4.454-22.588-7.434-34.474-6.545C4.066,44.487,4.447,46.576,5.799,46.474
						L5.799,46.474z"/>
				</g>
			</g>
		</g>
		<g>
			<g>
				<g>
					<path fill="#040000" d="M5.799,55.836c11.081-0.828,21.914,1.959,32.16,5.965c9.639,3.768,18.586,9.469,28.581,12.25
						c9.503,2.645,19.631,2.801,29.422,2.635c5.729-0.098,11.462-0.227,17.177,0.299c5.395,0.496,10.486,1.861,15.404,4.119
						c5.002,2.297,9.611,5.375,14.318,8.205c4.668,2.809,9.51,5.176,14.65,6.998c9.914,3.512,21.111,5.16,31.299,1.869
						c1.297-0.418,0.375-2.332-0.91-1.916c-9.461,3.055-19.887,1.348-29.1-1.754c-9.326-3.137-17.127-8.785-25.682-13.449
						c-4.113-2.244-8.451-4.109-13.033-5.143c-5.582-1.258-11.35-1.449-17.051-1.438c-10.447,0.02-20.879,0.49-31.219-1.383
						c-11.394-2.061-21.311-8.484-31.912-12.801c-10.941-4.455-22.588-7.436-34.474-6.547C4.066,53.85,4.447,55.938,5.799,55.836
						L5.799,55.836z"/>
				</g>
			</g>
		</g>
	</g>
</g>
</svg>
