<?xml version="1.0" encoding="utf-8"?>
<!-- Generator: Adobe Illustrator 16.0.0, SVG Export Plug-In . SVG Version: 6.00 Build 0)  -->
<!DOCTYPE svg PUBLIC "-//W3C//DTD SVG 1.1//EN" "http://www.w3.org/Graphics/SVG/1.1/DTD/svg11.dtd">
<svg version="1.1" id="레이어_1" xmlns="http://www.w3.org/2000/svg" xmlns:xlink="http://www.w3.org/1999/xlink" x="0px"
	 y="0px" width="59.625px" height="57.099px" viewBox="0 0 59.625 57.099" enable-background="new 0 0 59.625 57.099"
	 xml:space="preserve">
<polygon fill="#C5C2BD" points="48.614,11.547 40.747,13.58 46.757,19.591 54.624,17.558 "/>
<polygon fill="#C5C2BD" points="39.425,14.473 32.884,38.869 38.98,45.207 45.435,20.484 "/>
<polygon fill="#C5C2BD" points="45.933,49.702 38.449,51.41 46.757,19.591 54.624,17.558 "/>
<polygon fill="#C5C2BD" points="15.207,21.191 9.373,15.357 7.104,23.459 12.967,29.323 "/>
<polygon fill="#C5C2BD" points="41.281,6.43 9.373,15.357 15.207,21.191 47.292,12.44 "/>
<polygon fill="#C5C2BD" points="38.449,22.151 14.29,28.43 16.529,20.298 40.714,13.702 "/>
<polygon fill="#C5C2BD" points="40.441,43.78 32.026,46.166 29.905,54.063 38.449,51.41 "/>
<polygon fill="#C5C2BD" points="38.691,44.906 21.139,27.124 12.967,29.323 30.704,47.059 "/>
<polygon fill="#C5C2BD" points="8.426,22.566 6.334,30.492 29.905,54.063 32.026,46.166 "/>
<polygon fill="#9BCA9E" stroke="#000000" stroke-linejoin="bevel" stroke-miterlimit="10" points="45.745,8.154 37.878,10.187 
	43.888,16.198 51.755,14.165 "/>
<polygon fill="#DBD570" stroke="#000000" stroke-linejoin="bevel" stroke-miterlimit="10" points="37.878,10.187 31.337,34.583 
	37.433,40.92 43.888,16.198 "/>
<polygon fill="#6D8D9D" stroke="#000000" stroke-linejoin="bevel" stroke-miterlimit="10" points="43.063,46.309 35.58,48.017 
	43.888,16.198 51.755,14.165 "/>
<polygon fill="#9BCA9E" stroke="#000000" stroke-linejoin="bevel" stroke-miterlimit="10" points="13.66,16.905 7.826,11.071 
	5.557,19.173 11.42,25.037 "/>
<polygon fill="#FFFFFF" stroke="#000000" stroke-linejoin="bevel" stroke-miterlimit="10" points="39.734,2.144 7.826,11.071 
	13.66,16.905 45.745,8.154 "/>
<polygon fill="#E0DA70" stroke="#000000" stroke-linejoin="bevel" stroke-miterlimit="10" points="35.58,18.758 11.42,25.037 
	13.66,16.905 37.845,10.309 "/>
<polygon fill="#9BCA9E" stroke="#000000" stroke-linejoin="bevel" stroke-miterlimit="10" points="37.572,40.387 29.157,42.773 
	27.036,50.669 35.58,48.017 "/>
<polygon fill="#6D8D9D" stroke="#000000" stroke-linejoin="bevel" stroke-miterlimit="10" points="37.144,40.62 19.592,22.837 
	11.42,25.037 29.157,42.773 "/>
<polygon fill="#E0DA70" stroke="#000000" stroke-linejoin="bevel" stroke-miterlimit="10" points="5.557,19.173 3.465,27.099 
	27.036,50.669 29.157,42.773 "/>
</svg>
