<?xml version="1.0" encoding="iso-8859-1"?>
<!-- Generator: Adobe Illustrator 19.0.0, SVG Export Plug-In . SVG Version: 6.00 Build 0)  -->
<svg version="1.1" id="Capa_1" xmlns="http://www.w3.org/2000/svg" xmlns:xlink="http://www.w3.org/1999/xlink" x="0px" y="0px"
	 viewBox="0 0 512.001 512.001" style="enable-background:new 0 0 512.001 512.001;" xml:space="preserve">
<g>
	<g>
		<path d="M481.781,487.176c-6.016,4.698-10.767,8.41-20.987,8.41c-10.219,0-14.971-3.711-20.986-8.411
			c-6.61-5.163-14.836-11.589-30.22-11.589c-15.382,0-23.607,6.426-30.216,11.59c-6.015,4.699-10.765,8.41-20.982,8.41
			c-10.218,0-14.968-3.711-20.983-8.41c-6.609-5.164-14.835-11.59-30.217-11.59c-15.382,0-23.607,6.426-30.216,11.59
			c-6.014,4.699-10.765,8.41-20.982,8.41c-10.216,0-14.967-3.711-20.98-8.41c-6.609-5.164-14.834-11.59-30.216-11.59
			s-23.608,6.426-30.217,11.59c-6.015,4.699-10.765,8.41-20.982,8.41c-10.217,0-14.968-3.711-20.982-8.41
			c-6.609-5.164-14.834-11.59-30.216-11.59c-15.382,0-23.607,6.426-30.217,11.59c-6.015,4.699-10.765,8.41-20.983,8.41
			c-10.217,0-14.967-3.711-20.981-8.41c-6.609-5.164-14.835-11.59-30.217-11.59v15c10.217,0,14.967,3.711,20.981,8.41
			c6.609,5.164,14.835,11.59,30.217,11.59s23.608-6.426,30.217-11.59c6.015-4.699,10.765-8.41,20.982-8.41
			c10.217,0,14.967,3.711,20.981,8.41c6.609,5.164,14.835,11.59,30.217,11.59c15.382,0,23.607-6.426,30.217-11.59
			c6.015-4.699,10.765-8.41,20.983-8.41c10.217,0,14.967,3.711,20.981,8.41c6.609,5.164,14.834,11.59,30.216,11.59
			s23.607-6.426,30.217-11.59c6.014-4.699,10.764-8.41,20.981-8.41c10.218,0,14.968,3.711,20.983,8.41
			c6.609,5.164,14.835,11.59,30.217,11.59s23.608-6.426,30.217-11.59c6.015-4.699,10.765-8.41,20.982-8.41
			c10.219,0,14.97,3.711,20.985,8.41c6.61,5.164,14.836,11.59,30.22,11.59c15.383,0,23.61-6.426,30.22-11.589
			c6.015-4.699,10.767-8.411,20.986-8.411v-15C496.617,475.585,488.391,482.012,481.781,487.176z"/>
	</g>
</g>
<g>
	<g>
		<path d="M111,101.586c-15.164,0-27.5,12.336-27.5,27.5v37.5h55v-37.5C138.5,113.922,126.164,101.586,111,101.586z M123.5,151.586
			h-25v-22.5c0-6.893,5.607-12.5,12.5-12.5s12.5,5.607,12.5,12.5V151.586z"/>
	</g>
</g>
<g>
	<g>
		<path d="M401,101.586c-15.164,0-27.5,12.336-27.5,27.5v37.5h55v-37.5C428.5,113.922,416.164,101.586,401,101.586z M413.5,151.586
			h-25v-22.5c0-6.893,5.607-12.5,12.5-12.5s12.5,5.607,12.5,12.5V151.586z"/>
	</g>
</g>
<g>
	<g>
		<path d="M481.78,451.175c-4.26,3.328-7.896,6.153-13.28,7.523v-61.112H512v0v-15h-21.5v-154.87
			c2.713,3.459,5.606,6.935,8.706,10.384l11.155-10.028c-22.967-25.548-34.566-53.465-36.861-59.359V76.876L446,34.251
			l-11.626,18.02L401,1.416l-33.374,50.855L356,34.251l-27.5,42.625v50.709h-50L256,110.711l-22.5,16.875h-50v-50.71L156,34.251
			l-11.626,18.02L111,1.416L77.626,52.271L66,34.251L38.5,76.876v91.843c-2.281,5.882-13.807,33.707-36.861,59.352l11.155,10.028
			c3.1-3.449,5.993-6.925,8.706-10.384v154.87H0v15h43.5v61.114c-5.386-1.369-9.022-4.195-13.283-7.524
			c-6.609-5.164-14.835-11.59-30.217-11.59v15c10.217,0,14.967,3.711,20.981,8.41c6.609,5.164,14.835,11.59,30.217,11.59
			s23.608-6.426,30.217-11.59c6.015-4.699,10.765-8.41,20.982-8.41c10.217,0,14.967,3.711,20.981,8.41
			c6.609,5.164,14.835,11.59,30.217,11.59c15.382,0,23.607-6.426,30.217-11.59c6.015-4.699,10.765-8.41,20.983-8.41
			c10.217,0,14.967,3.711,20.981,8.41c6.609,5.164,14.834,11.59,30.216,11.59s23.607-6.426,30.217-11.59
			c6.014-4.699,10.764-8.41,20.981-8.41c10.218,0,14.968,3.711,20.983,8.41c6.609,5.164,14.835,11.59,30.217,11.59
			s23.608-6.426,30.217-11.59c6.015-4.699,10.765-8.41,20.982-8.41c10.219,0,14.97,3.711,20.985,8.41
			c6.61,5.164,14.836,11.59,30.22,11.59c15.383,0,23.61-6.426,30.22-11.589c6.015-4.699,10.767-8.411,20.986-8.411v-15
			C496.616,439.585,488.39,446.011,481.78,451.175z M401,28.755l24.48,37.302l-3.567,5.528h-41.826l-3.567-5.528L401,28.755z
			 M343.5,81.295L356,61.92l15.913,24.666h58.174L446,61.92l12.5,19.375v85.684l-15.606,15.606h-83.787L343.5,166.979V81.295z
			 M363.5,302.585v-45h75v45H363.5z M438.5,317.585v65h-75v-65H438.5z M363.5,242.586v-45h75v45H363.5z M283.5,142.586h45v20h-45
			V142.586z M243.5,138.836l12.5-9.375l12.5,9.375v23.75h-25V138.836z M183.5,142.586h45v20h-45V142.586z M111,28.755l24.48,37.302
			l-3.567,5.528H90.087l-3.567-5.528L111,28.755z M53.5,81.295L66,61.92l15.913,24.666h58.174L156,61.92l12.5,19.375v85.684
			l-15.606,15.606H69.106L53.5,166.979V81.295z M73.5,302.585v-45h75v45H73.5z M148.5,317.585v65h-75v-65H148.5z M73.5,242.586v-45
			h75v45H73.5z M36.5,382.586L36.5,382.586V206.007c5.399-8.893,9.387-16.815,12.096-22.719l9.904,9.904v189.394H36.5z
			 M163.5,458.029c-2.733,0.979-5.894,1.557-9.904,1.557c-10.217,0-14.968-3.711-20.982-8.41
			c-6.609-5.164-14.834-11.59-30.216-11.59s-23.607,6.426-30.217,11.59c-4.365,3.41-8.074,6.292-13.681,7.621v-61.211h105V458.029z
			 M333.501,448.202H333.5c-6.023-4.365-13.8-8.616-26.31-8.616c-15.382,0-23.607,6.426-30.216,11.59
			c-6.014,4.699-10.765,8.41-20.982,8.41c-10.216,0-14.967-3.711-20.98-8.41c-6.609-5.164-14.834-11.59-30.216-11.59
			c-12.5,0-20.274,4.244-26.295,8.605v-20.605h155V448.202z M178.5,412.585v-15h70v15H178.5z M263.5,412.585v-15h70v15H263.5z
			 M348.499,382.585h-185V193.192h0.001l15.606-15.606h153.787l15.606,15.606V382.585z M453.501,458.798L453.501,458.798
			c-5.613-1.328-9.325-4.211-13.692-7.623c-6.61-5.163-14.836-11.589-30.22-11.589c-15.382,0-23.607,6.426-30.216,11.59
			c-6.015,4.699-10.765,8.41-20.982,8.41c-4.003,0-7.161-0.576-9.89-1.551v-60.449h105V458.798z M453.5,382.585V193.192l9.904-9.904
			c2.709,5.904,6.697,13.825,12.096,22.719v176.579H453.5z"/>
	</g>
</g>
<g>
	<g>
		<rect x="88.5" y="330.08" width="15" height="40"/>
	</g>
</g>
<g>
	<g>
		<rect x="118.5" y="330.08" width="15" height="40"/>
	</g>
</g>
<g>
	<g>
		<rect x="118.5" y="212.59" width="15" height="15"/>
	</g>
</g>
<g>
	<g>
		<rect x="88.5" y="212.59" width="15" height="15"/>
	</g>
</g>
<g>
	<g>
		<rect x="118.5" y="272.58" width="15" height="15"/>
	</g>
</g>
<g>
	<g>
		<rect x="88.5" y="272.58" width="15" height="15"/>
	</g>
</g>
<g>
	<g>
		<rect x="378.5" y="330.08" width="15" height="40"/>
	</g>
</g>
<g>
	<g>
		<rect x="408.5" y="330.08" width="15" height="40"/>
	</g>
</g>
<g>
	<g>
		<rect x="378.5" y="212.59" width="15" height="15"/>
	</g>
</g>
<g>
	<g>
		<rect x="408.5" y="212.59" width="15" height="15"/>
	</g>
</g>
<g>
	<g>
		<rect x="408.5" y="272.58" width="15" height="15"/>
	</g>
</g>
<g>
	<g>
		<rect x="378.5" y="272.58" width="15" height="15"/>
	</g>
</g>
<g>
	<g>
		<rect x="101" y="412.58" width="50" height="15"/>
	</g>
</g>
<g>
	<g>
		<rect x="71" y="412.58" width="15" height="15"/>
	</g>
</g>
<g>
	<g>
		<rect x="361" y="412.58" width="15" height="15"/>
	</g>
</g>
<g>
	<g>
		<rect x="391" y="412.58" width="50" height="15"/>
	</g>
</g>
<g>
</g>
<g>
</g>
<g>
</g>
<g>
</g>
<g>
</g>
<g>
</g>
<g>
</g>
<g>
</g>
<g>
</g>
<g>
</g>
<g>
</g>
<g>
</g>
<g>
</g>
<g>
</g>
<g>
</g>
</svg>
