<svg id="Capa_1" enable-background="new 0 0 497 497" height="512" viewBox="0 0 497 497" width="512" xmlns="http://www.w3.org/2000/svg"><g><g><path d="m203.686 398.674-42.554 26.629c-14.119 8.836-30.386 13.506-47.043 13.506-23.688 0-45.958-9.225-62.708-25.975-7.09-7.091-7.09-18.587 0-25.678s18.587-7.092 25.678.001c9.89 9.891 23.041 15.338 37.029 15.338 9.836 0 19.441-2.758 27.779-7.976l42.555-26.629z" fill="#e27858"/></g><path d="m208.09 465.324 12.339 15.838 28.177-15.838v-54.14h-40.516z" fill="#e27858"/><path d="m289.121 465.324-12.338 15.838-28.177-15.838v-54.14h40.515z" fill="#dc6742"/><path d="m184.422 367.89-42.555 26.629c-.219.137-.442.265-.662.398 4.516 11.411 10.802 21.935 18.515 31.235.471-.282.945-.557 1.411-.849l42.554-26.629z" fill="#dc6742"/><circle cx="248.606" cy="352.562" fill="#e7886e" r="85.448"/><path d="m116.689 5.195c-9.245-7.502-22.664-6.806-31.083 1.613l-20.908 20.908c-8.419 8.419-9.115 21.838-1.613 31.083l9.694 11.946 45.288-10.567 10.567-45.288z" fill="#f8d070"/><path d="m128.635 14.89-55.855 55.855 31.115 38.326 63.066-63.066z" fill="#fd5f7e"/><circle cx="85.977" cy="175.766" fill="#ffbe9c" r="51.625"/><circle cx="411.023" cy="175.766" fill="#ffd3bc" r="51.625"/><ellipse cx="248.5" cy="165.999" fill="#ed9b83" rx="162.523" ry="154.189"/><path d="m156.961 179.373c0-72.413 38.96-135.368 96.288-167.493-1.578-.043-3.161-.07-4.75-.07-89.759 0-162.523 69.033-162.523 154.189 0 73.662 54.451 135.249 127.247 150.535-34.675-34.607-56.262-83.263-56.262-137.161z" fill="#e7886e"/><path d="m352.414 112.958c-15.024-25.333-46.521-35.481-73.16-22.917-3.218 1.518-6.418 3.259-9.558 5.254-12.956 8.23-29.434 8.23-42.391 0-3.538-2.247-7.15-4.172-10.779-5.819-25.846-11.725-56.39-1.974-71.192 22.242-9.8 16.032-15.402 34.559-15.402 54.281 0 60.783 53.189 110.234 118.568 110.234s118.568-49.451 118.568-110.234c0-19.216-5.317-37.297-14.654-53.041z" fill="#ffd3bc"/><g fill="#423e4f"><path d="m183.11 148.061c-4.142 0-7.5 3.358-7.5 7.5v12.549c0 4.142 3.358 7.5 7.5 7.5s7.5-3.358 7.5-7.5v-12.549c0-4.142-3.358-7.5-7.5-7.5z"/><path d="m313.721 148.061c-4.142 0-7.5 3.358-7.5 7.5v12.549c0 4.142 3.358 7.5 7.5 7.5s7.5-3.358 7.5-7.5v-12.549c0-4.142-3.357-7.5-7.5-7.5z"/><path d="m278.84 168.093c-4.142 0-7.5 3.358-7.5 7.5 0 4.2-3.417 7.617-7.617 7.617s-7.617-3.417-7.617-7.617c0-4.142-3.358-7.5-7.5-7.5s-7.5 3.358-7.5 7.5c0 4.2-3.417 7.617-7.617 7.617s-7.617-3.417-7.617-7.617c0-4.142-3.358-7.5-7.5-7.5s-7.5 3.358-7.5 7.5c0 12.471 10.146 22.617 22.617 22.617 5.807 0 11.108-2.201 15.117-5.811 4.009 3.61 9.31 5.811 15.117 5.811 12.471 0 22.617-10.146 22.617-22.617 0-4.142-3.358-7.5-7.5-7.5z"/></g><circle cx="248.606" cy="352.562" fill="#ffbe9c" r="44.92"/><path d="m154.497 304.469c-13.567 0-24.565 10.998-24.565 24.565 0 13.567 10.998 24.565 24.565 24.565h45.411v-49.131h-45.411z" fill="#e27858"/><path d="m342.715 304.469c13.567 0 24.565 10.998 24.565 24.565 0 13.567-10.998 24.565-24.565 24.565h-45.411v-49.131h45.411z" fill="#e27858"/><g fill="#ffd3bc"><path d="m204.221 300.804c-15.591 0-28.231 12.639-28.231 28.23 0 15.591 12.639 28.23 28.23 28.23 10.071 0 18.235-8.164 18.235-18.235v-19.99c.002-10.071-8.162-18.235-18.234-18.235z"/><path d="m292.991 300.804c15.591 0 28.231 12.639 28.231 28.23 0 15.591-12.639 28.23-28.23 28.23-10.071 0-18.235-8.164-18.235-18.235v-19.99c-.002-10.071 8.163-18.235 18.234-18.235z"/><path d="m208.09 465.324c-8.747 0-15.838 7.091-15.838 15.838 0 8.747 7.091 15.838 15.838 15.838h23.957c9.145 0 16.558-7.413 16.558-16.558v-15.118z"/><path d="m289.121 465.324c8.747 0 15.838 7.091 15.838 15.838 0 8.747-7.091 15.838-15.838 15.838h-23.957c-9.145 0-16.558-7.413-16.558-16.558v-15.118z"/></g><path d="m248.606 237.133 10.836 62.598-10.836 62.598c-20.489 0-37.098-16.609-37.098-37.098v-51.001c0-20.488 16.609-37.097 37.098-37.097z" fill="#f8e86a"/><path d="m248.606 237.133v125.197c20.489 0 37.098-16.609 37.098-37.098v-51.001c0-20.489-16.609-37.098-37.098-37.098z" fill="#f8d070"/><path d="m156.961 179.373c0-33.89 8.543-65.703 23.499-93.261-14.191 3.434-27.021 12.344-35.127 25.605-9.8 16.032-15.402 34.559-15.402 54.281 0 32.467 15.179 61.697 39.281 81.888-7.905-21.257-12.251-44.356-12.251-68.513z" fill="#ffbe9c"/></g></svg>