<?xml version="1.0" encoding="utf-8"?>
<!-- Generator: Adobe Illustrator 16.0.0, SVG Export Plug-In . SVG Version: 6.00 Build 0)  -->
<!DOCTYPE svg PUBLIC "-//W3C//DTD SVG 1.1//EN" "http://www.w3.org/Graphics/SVG/1.1/DTD/svg11.dtd">
<svg version="1.1" id="Capa_1" xmlns="http://www.w3.org/2000/svg" xmlns:xlink="http://www.w3.org/1999/xlink" x="0px" y="0px"
	 width="297.333px" height="302.167px" viewBox="351.167 -2.167 297.333 302.167"
	 enable-background="new 351.167 -2.167 297.333 302.167" xml:space="preserve">
<path fill="#EC5569" d="M353.124,55.229v120.218c0,30.502,24.727,55.229,55.229,55.229h77.474c0.625,0,1.223,0.258,1.651,0.714
	l62.219,66.155c4.804,5.108,13.38,1.709,13.38-5.303v-59.301c0-1.252,1.014-2.266,2.266-2.266h26.305
	c30.502,0,55.229-24.727,55.229-55.229V55.229C646.876,24.727,622.15,0,591.646,0H408.353C377.852,0,353.124,24.727,353.124,55.229z
	"/>
<path fill="#E63950" d="M539.841,210.064v77.002l9.855,10.479c4.804,5.108,13.38,1.709,13.38-5.303v-59.301
	c0-1.25,1.014-2.266,2.266-2.266h26.305c30.502,0,55.229-24.727,55.229-55.229V55.229c0-20.551-11.226-38.479-27.878-47.991
	c1.281,4.99,1.969,10.25,1.969,15.686V149.52c0,32.12-23.938,58.158-53.467,58.158h-25.466
	C540.822,207.678,539.841,208.746,539.841,210.064L539.841,210.064z"/>
<path fill="#EC5569" d="M437.944,122.454l58.695,58.704c1.889,1.889,4.951,1.889,6.84,0l58.577-58.578
	c14.022-14.022,14.022-36.757,0-50.779l0,0c-14.022-14.022-36.757-14.022-50.778,0l-7.795,7.794c-1.889,1.889-4.951,1.889-6.84,0
	l-7.92-7.921c-14.023-14.022-36.758-14.022-50.779,0l0,0C423.922,85.698,423.922,108.432,437.944,122.454z"/>
<path fill="#FFF5F5" d="M437.944,122.454l58.695,58.704c1.889,1.889,4.951,1.889,6.84,0l58.577-58.578
	c14.022-14.022,14.022-36.757,0-50.779l0,0c-14.022-14.022-36.757-14.022-50.778,0l-7.795,7.794c-1.889,1.889-4.951,1.889-6.84,0
	l-7.92-7.921c-14.023-14.022-36.758-14.022-50.779,0l0,0C423.922,85.698,423.922,108.432,437.944,122.454z"/>
<path fill="#DCE6EB" d="M490.668,175.188l5.971,5.971c1.889,1.889,4.951,1.889,6.84,0l58.578-58.578
	c14.021-14.022,14.021-36.757,0-50.779l0,0c-9.422-9.423-22.776-12.503-34.78-9.262c5.858,1.582,11.398,4.662,15.998,9.262l0,0
	c14.021,14.022,14.021,36.757,0,50.779L490.668,175.188z"/>
</svg>
