<?xml version="1.0" encoding="utf-8"?>
<!-- Generator: Adobe Illustrator 16.0.0, SVG Export Plug-In . SVG Version: 6.00 Build 0)  -->
<!DOCTYPE svg PUBLIC "-//W3C//DTD SVG 1.1//EN" "http://www.w3.org/Graphics/SVG/1.1/DTD/svg11.dtd">
<svg version="1.1" id="Capa_1" xmlns="http://www.w3.org/2000/svg" xmlns:xlink="http://www.w3.org/1999/xlink" x="0px" y="0px"
	 width="517.5px" height="205px" viewBox="-5.5 151.5 517.5 205" enable-background="new -5.5 151.5 517.5 205"
	 xml:space="preserve">
<g id="XMLID_2134_">
	<g id="XMLID_2135_">
		<path id="XMLID_2700_" fill="#89DF8F" d="M179.333,285.5H57.586c-26.28,0-47.584-21.305-47.584-47.584
			c0-17.903,14.513-32.416,32.416-32.416H96.63h-0.128c0-22.091,17.909-40,40-40s40,17.909,40,40
			c0-17.383,14.092-31.475,31.475-31.475c9.623,0,18.233,4.324,24.006,11.13c5.773-6.806,14.383-11.13,24.006-11.13
			c9.623,0,18.232,4.324,24.006,11.13c5.772-6.806,14.383-11.13,24.006-11.13c9.624,0,18.233,4.324,24.006,11.13
			c5.772-6.806,14.382-11.13,24.007-11.13c9.623,0,18.233,4.324,24.006,11.13c5.773-6.806,14.383-11.13,24.006-11.13
			c17.383,0,31.475,14.092,31.475,31.475c38.936,0,70.5,31.564,70.5,70.5c0,38.936-31.564,70.5-70.5,70.501
			c-7.988,0-10.837-10.565-3.932-14.581l13.673-7.953c6.352-3.693,10.259-10.486,10.259-17.835c0-11.396-9.236-20.632-20.632-20.632
			h-73.323H179.333z"/>
		<g id="XMLID_2698_">
			<path id="XMLID_2699_" fill="#B8ECBC" d="M204.268,320.143l7.246-7.245c9.019-9.021,13.985-21.013,13.985-33.769V265.5
				c0-11.046-8.954-20-20-20s-20,8.954-20,20v13.63c0,2.071-0.806,4.019-2.271,5.481l-7.246,7.246
				c-7.811,7.811-7.811,20.475,0,28.285c3.906,3.904,9.024,5.857,14.143,5.857S200.361,324.047,204.268,320.143z"/>
		</g>
		<g id="XMLID_2695_">
			<path id="XMLID_2697_" fill="#B8ECBC" d="M336.313,320.143l7.246-7.245c9.019-9.021,13.985-21.013,13.985-33.769V265.5
				c0-11.046-8.954-20-20-20s-20,8.954-20,20v13.63c0,2.071-0.806,4.019-2.271,5.481l-7.246,7.246
				c-7.811,7.811-7.811,20.475,0,28.285c3.906,3.904,9.024,5.857,14.143,5.857S332.407,324.047,336.313,320.143z"/>
		</g>
	</g>
	<g id="XMLID_197_">
		<path id="XMLID_198_" d="M136.5,215.5c2.63,0,5.21-1.07,7.07-2.93c1.859-1.86,2.93-4.44,2.93-7.07s-1.07-5.21-2.93-7.07
			c-1.86-1.86-4.44-2.93-7.07-2.93s-5.21,1.07-7.07,2.93c-1.859,1.86-2.93,4.44-2.93,7.07s1.07,5.21,2.93,7.07
			C131.29,214.43,133.87,215.5,136.5,215.5z"/>
		<path id="XMLID_201_" d="M29.496,197.519C12.407,202.997,0,219.032,0,237.917c0,31.753,25.833,57.585,57.585,57.585h104.448
			c-3.969,10.667-1.682,23.153,6.878,31.713c5.668,5.667,13.202,8.787,21.214,8.787c8.014,0,15.546-3.12,21.213-8.786l7.247-7.247
			c6.931-6.932,11.874-15.317,14.563-24.468h60.93c-3.969,10.667-1.682,23.153,6.878,31.713c5.668,5.667,13.202,8.787,21.214,8.787
			c8.014,0,15.546-3.12,21.213-8.786l7.247-7.247c6.931-6.932,11.874-15.317,14.563-24.468h65.675
			c5.862,0,10.632,4.77,10.632,10.632c0,3.772-2.025,7.294-5.287,9.191l-13.673,7.953c-7.058,4.104-10.372,12.159-8.246,20.044
			c2.126,7.883,9.041,13.18,17.206,13.18c25.357,0,48.719-11.586,64.093-31.784c3.345-4.395,2.494-10.669-1.901-14.014
			c-4.395-3.346-10.668-2.494-14.014,1.9c-9.652,12.685-23.49,20.851-38.89,23.199l5.481-3.188
			c9.395-5.464,15.23-15.61,15.23-26.479c0-16.891-13.741-30.632-30.632-30.632h-63.323v-10c0-16.542-13.458-30-30-30
			s-30,13.458-30,30v10H235.5v-10c0-16.542-13.458-30-30-30s-30,13.458-30,30v10H57.584c-14.551,0-27.188-8.317-33.431-20.444
			h38.842c5.522,0,10-4.477,10-10s-4.478-10-10-10H20.188c1.409-11.014,10.837-19.556,22.227-19.556h54.212c5.523,0,10-4.477,10-10
			c0-0.473-0.032-0.937-0.096-1.392c0.729-15.898,13.892-28.608,29.968-28.608c16.542,0,30,13.458,30,30c0,5.523,4.478,10,10,10
			s10-4.477,10-10c0-11.842,9.634-21.475,21.476-21.475c6.313,0,12.283,2.769,16.381,7.599c1.898,2.24,4.688,3.531,7.625,3.531
			c2.937,0,5.725-1.291,7.625-3.531c4.097-4.829,10.066-7.599,16.38-7.599s12.284,2.769,16.381,7.599
			c1.9,2.24,4.689,3.531,7.626,3.531s5.725-1.291,7.625-3.531c4.097-4.829,10.067-7.599,16.381-7.599s12.284,2.77,16.38,7.599
			c1.9,2.239,4.688,3.531,7.626,3.531s5.726-1.291,7.626-3.531c4.098-4.829,10.067-7.599,16.381-7.599s12.284,2.769,16.381,7.599
			c1.9,2.24,4.689,3.531,7.627,3.531c2.937,0,5.726-1.291,7.625-3.531c4.097-4.829,10.067-7.599,16.381-7.599
			c11.841,0,21.474,9.634,21.474,21.475c0,5.523,4.478,10,10,10c19.06,0,36.619,8.711,48.179,23.9
			c3.344,4.395,9.62,5.245,14.014,1.901c4.396-3.345,5.246-9.619,1.902-14.014c-13.559-17.815-33.324-28.93-55.197-31.308
			c-4.313-18.296-20.777-31.955-40.371-31.955c-8.7,0-17.061,2.718-24.006,7.657c-6.947-4.939-15.308-7.657-24.008-7.657
			c-8.699,0-17.059,2.718-24.006,7.657c-6.945-4.939-15.305-7.657-24.006-7.657c-8.7,0-17.059,2.718-24.006,7.657
			c-6.946-4.939-15.307-7.657-24.006-7.657c-8.7,0-17.059,2.718-24.006,7.657c-6.946-4.939-15.307-7.657-24.006-7.657
			c-11.935,0-22.709,5.067-30.283,13.163c-9.025-13.091-24.125-21.689-41.192-21.689c-24.146,0-44.349,17.206-48.996,40H49.321
			c-0.863-4.646-4.93-8.167-9.825-8.167c-5.523,0-10,4.477-10,10V197.519L29.496,197.519z M315.098,313.071
			c-3.897-3.899-3.897-10.243,0.002-14.143l7.246-7.245c3.352-3.352,5.199-7.811,5.199-12.555V265.5c0-5.514,4.486-10,10-10
			s10,4.486,10,10v13.629c0,10.085-3.927,19.566-11.059,26.696l-7.245,7.246c-1.888,1.889-4.4,2.929-7.071,2.929
			S316.986,314.96,315.098,313.071L315.098,313.071z M183.053,313.071c-3.898-3.899-3.898-10.243,0.002-14.143l7.245-7.245
			c3.353-3.352,5.2-7.811,5.2-12.555V265.5c0-5.514,4.486-10,10-10s10,4.486,10,10v13.629c0,10.085-3.927,19.566-11.059,26.696
			l-7.246,7.246c-1.887,1.889-4.399,2.929-7.07,2.929S184.941,314.96,183.053,313.071L183.053,313.071z"/>
		<path id="XMLID_203_" d="M494.93,283.07c1.86,1.859,4.44,2.93,7.07,2.93s5.21-1.07,7.07-2.93c1.859-1.86,2.93-4.44,2.93-7.07
			s-1.07-5.21-2.93-7.07c-1.86-1.859-4.44-2.93-7.07-2.93s-5.21,1.07-7.07,2.93c-1.859,1.86-2.93,4.44-2.93,7.07
			S493.07,281.21,494.93,283.07z"/>
	</g>
</g>
</svg>
