<svg width="120" height="140" viewBox="0 0 109 129" fill="none" xmlns="http://www.w3.org/2000/svg">
<path d="M6.43778 115.921C-2.35395 102.652 -0.264238 85.8144 11.1098 78.2914L14.5429 76.0226C25.9169 68.5593 42.2316 73.1268 51.0233 86.3816C54.9405 92.294 56.3486 99.5203 54.9377 106.471C53.5269 113.422 49.4128 119.527 43.5004 123.444C37.5879 127.361 30.3616 128.769 23.411 127.359C16.4604 125.948 10.355 121.834 6.43778 115.921Z" fill="#F04B3E" stroke="black" stroke-width="3"/>
<path d="M58.9792 98.3825C50.1874 85.1128 52.2772 68.2757 63.6512 60.7527L67.0694 58.4839C78.3837 50.9311 94.8028 55.4986 103.55 68.8429C107.467 74.7533 108.876 81.9778 107.466 88.927C106.057 95.8762 101.945 101.981 96.0343 105.898C90.1239 109.815 82.8994 111.224 75.9502 109.815C69.001 108.405 62.8964 104.293 58.9792 98.3825Z" fill="#F04B3E" stroke="black" stroke-width="3"/>
<path opacity="0.7" d="M82.6527 73.0514C79.9236 74.8557 76.5906 75.5044 73.384 74.8553C70.1775 74.2061 67.3592 72.3121 65.5468 69.5884C65.3823 69.3634 65.2651 69.1074 65.2024 68.8358C65.1397 68.5642 65.1327 68.2827 65.182 68.0083C65.2312 67.734 65.3357 67.4725 65.489 67.2397C65.6422 67.0068 65.8412 66.8076 66.0737 66.6539C66.3063 66.5002 66.5676 66.3953 66.8419 66.3456C67.1161 66.2958 67.3977 66.3023 67.6694 66.3645C67.9411 66.4267 68.1973 66.5435 68.4226 66.7077C68.6479 66.8718 68.8375 67.08 68.9799 67.3196C70.1874 69.1362 72.0659 70.3999 74.2037 70.8336C76.3414 71.2673 78.5639 70.8356 80.3838 69.6332C80.6088 69.4687 80.8648 69.3515 81.1364 69.2888C81.408 69.226 81.6895 69.2191 81.9639 69.2684C82.2383 69.3176 82.4998 69.4221 82.7326 69.5753C82.9654 69.7286 83.1647 69.9275 83.3184 70.1601C83.4721 70.3927 83.577 70.654 83.6267 70.9282C83.6764 71.2025 83.67 71.484 83.6077 71.7557C83.5455 72.0275 83.4288 72.2837 83.2646 72.509C83.1004 72.7342 82.8922 72.9239 82.6527 73.0663V73.0514Z" fill="#F57564"/>
<path opacity="0.7" d="M32.6786 92.633C29.9496 94.4373 26.6165 95.086 23.41 94.4369C20.2035 93.7878 17.3852 91.8938 15.5728 89.1701C15.4199 88.9446 15.3129 88.6913 15.2579 88.4245C15.2029 88.1578 15.201 87.8828 15.2523 87.6153C15.3036 87.3478 15.4071 87.093 15.5568 86.8654C15.7066 86.6379 15.8997 86.4421 16.1251 86.2892C16.3505 86.1363 16.6038 86.0293 16.8706 85.9744C17.1374 85.9194 17.4124 85.9175 17.6799 85.9687C17.9474 86.02 18.2022 86.1235 18.4297 86.2732C18.6572 86.423 18.853 86.6161 19.0059 86.8415C20.2134 88.6581 22.0919 89.9218 24.2296 90.3555C26.3674 90.7892 28.5898 90.3575 30.4098 89.1551C30.6348 88.9906 30.8908 88.8734 31.1624 88.8107C31.434 88.7479 31.7155 88.741 31.9899 88.7903C32.2642 88.8395 32.5257 88.944 32.7586 89.0972C32.9914 89.2505 33.1907 89.4495 33.3444 89.682C33.498 89.9146 33.6029 90.1759 33.6527 90.4502C33.7024 90.7244 33.696 91.0059 33.6337 91.2777C33.5715 91.5494 33.4547 91.8056 33.2906 92.0309C33.1264 92.2562 32.9182 92.4458 32.6786 92.5882V92.633Z" fill="#F57564"/>
<path d="M79.0255 65.3489C78.7311 65.5426 78.392 65.6575 78.0405 65.6827C77.689 65.7078 77.3369 65.6424 77.0179 65.4927C76.699 65.3429 76.4237 65.1138 76.2186 64.8273C76.0134 64.5408 75.8852 64.2065 75.8461 63.8562C74.4431 45.9444 65.9797 35.8093 43.0078 25.2861C52.7996 45.9593 45.9931 72.4091 32.0517 81.6935C31.5967 81.964 31.055 82.049 30.539 81.9308C30.023 81.8126 29.5723 81.5003 29.2805 81.0586C28.9886 80.617 28.878 80.0799 28.9715 79.5589C29.0651 79.0379 29.3556 78.5729 29.7829 78.2603C43.2168 69.3044 49.1127 41.0933 36.4998 22.062C36.2777 21.694 36.1762 21.2658 36.2096 20.8373C36.243 20.4089 36.4096 20.0016 36.686 19.6725C36.9624 19.3434 37.3349 19.109 37.7512 19.0022C38.1674 18.8953 38.6067 18.9214 39.0075 19.0766C63.4571 29.2864 78.0851 39.8693 79.8763 63.4682C79.9125 63.8288 79.8529 64.1926 79.7035 64.5228C79.5541 64.853 79.3202 65.138 79.0255 65.3489Z" fill="#824B3D" stroke="black" stroke-width="3"/>
<path d="M36.9028 20.4205C47.1275 20.8981 55.8744 11.2556 56.3073 1.01601C46.1423 0.553285 37.3954 10.1958 36.9028 20.4205Z" fill="#51B224" stroke="black" stroke-width="3"/>
<path d="M10.1246 20.9433C17.0058 28.511 30.0217 27.8692 37.5894 20.9433C30.6188 13.4203 17.6924 14.0621 10.1246 20.9433Z" fill="#82C60A" stroke="black" stroke-width="3"/>
</svg>
