<?xml version="1.0" encoding="utf-8"?>
<!-- Generator: Adobe Illustrator 16.0.0, SVG Export Plug-In . SVG Version: 6.00 Build 0)  -->
<!DOCTYPE svg PUBLIC "-//W3C//DTD SVG 1.1//EN" "http://www.w3.org/Graphics/SVG/1.1/DTD/svg11.dtd">
<svg version="1.1" id="Capa_1" xmlns="http://www.w3.org/2000/svg" xmlns:xlink="http://www.w3.org/1999/xlink" x="0px" y="0px"
	 width="383px" height="383px" viewBox="0 0 383 383" enable-background="new 0 0 383 383" xml:space="preserve">
<g>
	<path fill="#241E60" d="M109.435,277.769c0,0-0.197,4.963,4.651,4.963c6.031,0,55.97-0.064,55.97-0.064l0.082-45.861
		c0,0-0.789-7.562,6.55-7.562h23.222c8.68,0,8.145,7.562,8.145,7.562l-0.099,45.714c0,0,47.349,0,54.785,0
		c6.154,0,5.876-6.181,5.876-6.181v-84.55l-77.213-68.682l-81.968,68.682L109.435,277.769L109.435,277.769z"/>
	<path fill="#241E60" d="M79.245,185.396c0,0,6.959,12.827,22.138,0l90.705-76.734l85.041,76.258c17.568,12.672,24.151,0,24.151,0
		L192.087,86.006L79.245,185.396z"/>
	<polygon fill="#241E60" points="275.066,108.48 253.191,108.48 253.282,135.007 275.066,153.487 	"/>
</g>
</svg>
