<?xml version="1.0" encoding="utf-8"?>
<!-- Generator: Adobe Illustrator 16.0.0, SVG Export Plug-In . SVG Version: 6.00 Build 0)  -->
<!DOCTYPE svg PUBLIC "-//W3C//DTD SVG 1.1//EN" "http://www.w3.org/Graphics/SVG/1.1/DTD/svg11.dtd">
<svg version="1.1" id="Capa_1" xmlns="http://www.w3.org/2000/svg" xmlns:xlink="http://www.w3.org/1999/xlink" x="0px" y="0px"
	 width="265px" height="304.5px" viewBox="367.5 -4.5 265 304.5" enable-background="new 367.5 -4.5 265 304.5"
	 xml:space="preserve">
<path fill="#F8305F" d="M500.376,186.648l-2.539-1.27c-22.855-12.697-50.154-41.901-53.328-66.025
	c-1.904-9.523,1.27-19.046,8.253-25.395c5.079-5.714,12.063-8.888,19.681-8.888c15.871,0,27.299,14.602,28.568,16.506
	c0.635-1.27,12.697-16.506,27.934-16.506c6.984,0,14.603,3.174,19.681,8.888c6.983,6.349,10.158,15.872,8.254,25.395
	c-3.175,24.125-30.474,53.328-53.328,66.025L500.376,186.648z"/>
<path fill="#FFFFFF" d="M424.828,293.305v-70.469c-29.204-22.855-45.71-58.408-45.71-95.229c0-8.253,0.635-15.871,2.539-24.125
	C394.989,38.091,459.745-4.444,525.136,8.888c65.39,13.332,107.926,78.087,94.594,143.478
	c-13.332,65.39-77.453,107.926-143.478,94.594L424.828,293.305z M504.82,96.499l-4.444,4.444l-4.443-4.444
	c-6.349-6.349-15.237-10.792-24.125-11.427c-6.983,0-14.602,3.174-19.681,8.888c-6.983,6.349-10.158,15.872-8.253,25.395
	c3.809,27.299,35.552,57.137,56.502,67.93c20.315-10.793,52.693-40.631,56.503-67.93c1.904-9.523-1.271-19.046-8.254-25.395
	c-5.078-5.714-12.062-8.888-19.681-8.888C519.422,85.706,511.169,90.15,504.82,96.499z"/>
<g>
	<path fill="#28150B" d="M401.973,45.71c-45.709,54.598-38.091,135.225,15.872,180.3v67.295c0,1.904,0.635,3.174,1.904,4.444
		c2.539,2.539,6.349,3.174,8.888,0.635l49.52-44.44c6.983,1.27,14.602,1.904,21.585,1.904c70.47,0,128.241-57.137,128.241-127.606
		C627.982,57.772,570.846,0,500.376,0C462.284,0,426.732,16.506,401.973,45.71z M384.832,128.241c0-8.253,1.27-15.871,2.539-23.49
		c12.697-62.851,73.009-102.847,135.86-90.15c62.851,12.697,102.847,73.009,90.149,135.86s-73.644,102.847-135.859,90.15h-1.27
		c-1.905,0-3.175,0.635-4.444,1.904l-40.631,36.822v-56.502c0-1.905-1.27-3.81-2.539-5.08
		C401.338,196.172,384.832,162.523,384.832,128.241z"/>
	<path fill="#28150B" d="M447.048,89.515c-8.253,7.618-12.063,19.045-10.157,30.473c4.443,29.838,38.091,60.946,60.312,72.374
		c1.904,0.635,3.809,0.635,5.714,0c22.854-11.428,55.867-42.536,60.312-72.374c1.904-11.428-1.905-22.855-10.158-30.473
		c-6.349-6.983-15.236-10.792-24.125-10.792c-10.792,0.635-20.95,5.079-28.568,13.332c-7.618-7.619-17.775-12.697-28.568-13.332
		C462.92,79.357,454.031,83.167,447.048,89.515z M455.937,98.403c4.443-3.81,10.157-6.984,15.871-6.984
		c13.332,0,23.489,13.967,23.489,13.967c0,0.635,0.636,0.635,1.271,1.27c3.174,2.54,6.983,1.904,8.888-1.27
		c0,0,10.157-13.967,22.854-13.967c6.349,0,12.063,2.54,15.872,6.984c5.714,5.079,7.618,12.697,6.349,19.68
		c-2.54,21.585-27.934,49.519-50.154,61.582c-21.585-12.697-46.979-39.996-50.153-61.582
		C448.317,111.1,450.857,103.482,455.937,98.403z"/>
</g>
</svg>
