<svg width="230" height="216" viewBox="0 0 230 216" fill="none" xmlns="http://www.w3.org/2000/svg">
<path d="M18.0001 20.002L39.0001 41.002" stroke="#241E60" stroke-width="8" stroke-linecap="round"/>
<path d="M4.45496 46.6816L32.5454 56.3216" stroke="#241E60" stroke-width="8" stroke-linecap="round"/>
<path d="M40.9496 4.72852L52.0507 32.2742" stroke="#241E60" stroke-width="8" stroke-linecap="round"/>
<path fill-rule="evenodd" clip-rule="evenodd" d="M143.419 25.1683C190.827 33.5566 222.514 78.7245 214.268 126.157L214.245 126.288L214.222 126.419C211.558 141.472 205.183 154.938 196.207 166.045L190.118 200.759L154.512 194.514C141.545 198.621 127.427 199.757 113.102 197.244C65.5782 188.909 33.8099 143.626 42.1456 96.1018C50.4735 48.6219 95.6808 16.8681 143.157 25.1222L143.419 25.1683ZM171.71 163.321L182.438 102.159L156.467 97.6034L155.556 102.797L144.321 100.827L134.598 76.035L137.902 57.1959L129.731 55.7626C125.237 54.9744 120.915 58.0064 120.126 62.5004L115.38 89.5591L92.0161 85.461C87.5217 84.6727 83.1997 87.7049 82.4114 92.1992C81.4598 97.6243 85.2228 101.115 90.2209 101.992C85.8139 101.219 81.576 104.192 80.803 108.599C79.8828 113.846 83.5072 117.333 88.3779 118.187C84.0498 117.428 79.8874 120.348 79.1282 124.676C77.9234 131.545 83.4057 133.538 88.6916 134.465C84.3635 133.706 80.201 136.626 79.4419 140.954C78.6827 145.282 81.6029 149.444 85.9311 150.204L118.075 155.842L129.45 150.555L146.65 153.572L145.739 158.766L171.71 163.321Z" fill="#ED6E8C"/>
<path fill-rule="evenodd" clip-rule="evenodd" d="M182.438 102.159L171.71 163.322L145.739 158.766C149.315 138.379 152.891 117.991 156.467 97.6039L182.438 102.159Z" fill="#AFD1F2"/>
<path fill-rule="evenodd" clip-rule="evenodd" d="M155.556 102.797L146.65 153.571L129.45 150.554L118.075 155.841L85.9308 150.203C81.6027 149.444 78.6824 145.282 79.4416 140.953C80.2008 136.625 84.3632 133.705 88.6913 134.465C83.4054 133.537 77.9231 131.544 79.1279 124.676C79.887 120.348 84.0496 117.427 88.3777 118.186C83.5069 117.332 79.8825 113.845 80.8027 108.599C81.5757 104.192 85.8136 101.218 90.2206 101.991C85.2225 101.115 81.4595 97.6239 82.4111 92.1988C83.1994 87.7045 87.5215 84.6724 92.0158 85.4607L115.38 89.5587L120.126 62.5C120.914 58.0057 125.236 54.9739 129.731 55.7622L137.902 57.1955L134.598 76.035L144.321 100.827L155.556 102.797Z" fill="#FEDBAD"/>
<path fill-rule="evenodd" clip-rule="evenodd" d="M182.438 102.159L174.646 100.793L163.918 161.955L171.71 163.322L182.438 102.159Z" fill="#99C5F2"/>
<path fill-rule="evenodd" clip-rule="evenodd" d="M155.556 102.797L146.65 153.571L138.859 152.204L146.398 109.223L139.913 108.085L126.807 74.6681L130.111 55.829L137.903 57.1955L134.598 76.0347L144.321 100.826L155.556 102.797Z" fill="#FAB684"/>
<path fill-rule="evenodd" clip-rule="evenodd" d="M214.268 126.156C211.708 140.816 205.564 154.466 196.207 166.045L190.118 200.759L182.327 199.392L188.415 164.679C227.771 115.978 204.372 38.9647 139.377 24.5543C188.622 30.946 222.811 77.0183 214.268 126.156Z" fill="#DB4B6D"/>
<path d="M49.9369 97.4685L55.131 98.3795C61.4842 62.1583 93.9461 35.7935 130.64 37.052L130.821 31.7819C111.854 31.1313 93.2247 37.3567 78.3646 49.3104C63.3632 61.3782 53.2672 78.4811 49.9369 97.4685ZM135.723 37.3985C137.495 37.5797 139.274 37.8261 141.011 38.1307L141.922 32.9365C140.061 32.6102 138.156 32.3464 136.259 32.1525L135.723 37.3985Z" fill="white"/>
<path d="M158.336 132.733L163.53 133.644L166.263 118.061L161.069 117.15L158.336 132.733ZM161.98 111.956L167.175 112.867L168.086 107.673L162.891 106.762L161.98 111.956Z" fill="white"/>
<path d="M168.111 188.868L173.305 189.779L174.216 184.585L169.022 183.674L168.111 188.868ZM178.499 190.69L183.694 191.601L184.605 186.407L179.41 185.496L178.499 190.69Z" fill="white"/>
<path d="M113.558 194.647C126.948 196.996 140.834 196.08 153.715 192L154.331 191.805L187.976 197.706L193.727 164.919L194.156 164.388C203.121 153.294 209.169 139.962 211.648 125.832C215.519 103.759 210.631 81.4505 197.883 63.015L202.221 60.0155C215.762 79.5986 220.954 103.296 216.842 126.743C214.249 141.525 207.977 155.487 198.687 167.167L192.259 203.812L154.687 197.221C141.175 201.392 126.655 202.299 112.647 199.842C89.9694 195.864 69.8927 183.519 56.1146 165.079L60.3389 161.923C73.3093 179.281 92.2095 190.903 113.558 194.647Z" fill="black"/>
<path d="M76.5071 37.5178C96.187 23.7114 120.065 18.3949 143.744 22.5481C165.657 26.3916 185.28 38.1451 199 55.6428L194.85 58.8965C181.935 42.4246 163.461 31.3605 142.833 27.7422C96.8168 19.6711 52.8138 50.5414 44.7427 96.5573C40.9984 117.905 45.494 139.632 57.4019 157.736L52.9959 160.634C40.347 141.402 35.5712 118.322 39.5486 95.6462C43.7017 71.9679 56.8273 51.3242 76.5071 37.5178Z" fill="black"/>
<path d="M79.8144 91.7434C80.8559 85.8058 86.5341 81.8223 92.4721 82.8638L124.027 88.3984L123.116 93.5926L91.561 88.0579C88.4871 87.5187 85.5477 89.5806 85.0086 92.6545C84.1013 97.8271 89.1173 99.121 90.6766 99.3945L98.8674 100.831L97.9563 106.025L89.7655 104.589C86.7792 104.065 83.9236 106.068 83.3998 109.054C82.6995 113.047 85.7472 115.048 88.8332 115.589L96.0565 116.856L95.1455 122.051L87.9222 120.784C85.0149 120.274 82.2349 122.224 81.725 125.131C81.1541 128.386 82.1964 130.649 89.1469 131.868L93.296 132.595L92.3849 137.79L88.2358 137.062C85.3285 136.552 82.5486 138.502 82.0387 141.409C81.5287 144.317 83.4789 147.097 86.3863 147.607L99.8609 149.97L98.9499 155.164L85.4752 152.801C79.7038 151.788 75.8322 146.27 76.8445 140.498C77.2865 137.979 78.588 135.82 80.3942 134.273C80.2085 134.146 80.0268 134.013 79.8499 133.874C77.8395 132.3 75.6316 129.347 76.5308 124.221C77.0405 121.315 78.6928 118.89 80.9445 117.329C78.6326 114.991 77.5746 111.741 78.2056 108.144C78.7238 105.19 80.4068 102.727 82.6993 101.144C80.2819 98.7623 79.1675 95.432 79.8144 91.7434Z" fill="black"/>
<path d="M173.851 166.373L142.686 160.907L143.598 155.713L129.81 153.294L118.435 158.581L104.144 156.075L105.056 150.88L117.714 153.101L129.089 147.814L144.509 150.518L148.05 130.326L153.245 131.237L148.792 156.624L169.568 160.268L171.846 147.283L177.04 148.194L173.851 166.373Z" fill="black"/>
<path d="M185.49 100.017L177.951 143L172.757 142.089L179.385 104.3L158.608 100.656L154.156 126.043L148.961 125.132L152.503 104.939L142.407 103.168L131.873 76.3088L134.85 59.3375L129.276 58.3597C126.202 57.8206 123.263 59.8825 122.724 62.9561L119.344 82.2235L114.15 81.3125L117.53 62.045C118.571 56.1074 124.249 52.1241 130.187 53.1656L140.955 55.0544L137.323 75.7617L146.235 98.4854L153.414 99.7446L154.325 94.5508L185.49 100.017Z" fill="black"/>
</svg>
