<svg id="Capa_1" enable-background="new 0 0 512 512" height="512" viewBox="0 0 512 512" width="512" xmlns="http://www.w3.org/2000/svg"><g><path d="m391.75 74.305c-2.901-35.994-33.009-64.305-69.75-64.305-21.189 0-40.164 9.427-53 24.301-12.836-14.874-31.811-24.301-53-24.301-34.924 0-63.868 25.578-69.137 59.022-.288-.004-.573-.022-.863-.022-38.66 0-70 31.34-70 70s31.34 70 70 70c34.924 0 63.868-25.578 69.137-59.022.288.004.573.022.863.022 21.189 0 27.164 36.874 40 22 7.096 8.222 29.062-31.522 39.25-27.305 2.901 35.994 33.009 64.305 69.75 64.305 38.66 0 70-31.34 70-70 0-29.184-17.864-54.187-43.25-64.695z" fill="#fff1a0"/><path d="m76 172 1.44 11.31 45.349 297.421c1.846 12.228 12.354 21.268 24.72 21.268h216.981c12.366 0 22.874-9.041 24.72-21.268l45.35-297.421 1.44-11.31c0-24.85-20.15-45-45-45s-45 20.15-45 45c0-24.85-20.15-45-45-45s-45 20.15-45 45c0-24.85-20.15-45-45-45s-45 20.15-45 45c0-24.85-20.15-45-45-45s-45 20.15-45 45z" fill="#ff7d95"/><ellipse cx="258" cy="326" fill="#fff" rx="123.533" ry="85.056" transform="matrix(.828 -.561 .561 .828 -138.494 200.968)"/><g><circle cx="212" cy="87" r="10"/><path d="m443.357 155.158c1.087-5.295 1.643-10.716 1.643-16.158 0-30.481-17.078-57.913-43.985-71.45-2.766-17.687-11.385-33.927-24.649-46.228-14.827-13.75-34.134-21.322-54.366-21.322-19.646 0-38.45 7.221-53 20.101-14.55-12.88-33.354-20.101-53-20.101-19.171 0-37.717 6.889-52.22 19.397-12.229 10.547-20.949 24.507-25.075 39.932-40.706 3.696-72.705 38.017-72.705 79.671 0 6.108.697 12.176 2.066 18.084-2.066 6.916-1.986 16.176-1.986 16.176l46.82 308.98c1.25 8.27 5.44 15.84 11.78 21.29 6.35 5.46 14.46 8.47 22.83 8.47h216.98c8.369 0 16.479-3.01 22.829-8.47 6.341-5.46 10.53-13.03 11.78-21.31l26.33-172.68c.4-2.64-.25-5.27-1.83-7.43-1.59-2.15-3.91-3.55-6.55-3.96-2.87-.43-5.8.41-8 2.28-1.82 1.56-3.03 3.72-3.4 6.1l-26.319 172.69c-1.12 7.41-7.36 12.78-14.84 12.78h-31.494l8.084-112.312c13.292-13.835 23.818-29.325 30.761-45.562 12.578-29.415 12.064-57.879-1.447-80.149-4.861-8.012-11.202-14.83-18.801-20.359l4.382-60.899c.009-.125.004-.247.008-.371.004-.116.018-.231.018-.347 0-9.34 3.649-18.12 10.25-24.75 6.629-6.611 15.419-10.251 24.749-10.251s18.12 3.64 24.75 10.25c6.45 6.47 10.09 15.04 10.24 24.14l-6.921 47.16c-.829 5.45 2.931 10.56 8.381 11.39 2.859.44 5.8-.4 7.989-2.27 1.83-1.56 3.04-3.73 3.4-6.11l7.161-49.56c0-5.784-.896-11.426-2.643-16.842zm-295.857 336.842c-7.35 0-13.73-5.49-14.82-12.76l-46.67-307.83c.15-9.11 3.79-17.69 10.24-24.16 6.63-6.61 15.42-10.25 24.75-10.25s18.12 3.64 24.75 10.25c6.6 6.62 10.24 15.41 10.25 24.75 0 .121.014.24.018.361.004.119-.001.237.008.357l8.064 112c-8.256 10.458-14.998 21.619-19.931 33.156-12.578 29.415-12.064 57.879 1.448 80.149 6.808 11.22 16.5 20.114 28.527 26.364l4.87 67.613zm98.5-265.699c-12.805 4.551-25.492 10.755-37.561 18.523-9.279 5.972-17.902 12.645-25.74 19.866l-6.693-92.957c.069-9.23 3.707-17.916 10.243-24.482 6.631-6.611 15.421-10.251 24.751-10.251s18.12 3.64 24.75 10.25c6.6 6.62 10.24 15.41 10.25 24.75zm-46.944 265.699-4.326-60.062c.162.038.319.084.482.122 7.929 1.83 16.294 2.725 24.926 2.725 8.422 0 17.098-.873 25.862-2.543v59.758zm66.944 0v-64.948c14.159-4.641 28.237-11.3 41.561-19.875 4.171-2.684 8.204-5.514 12.098-8.468l-6.716 93.291zm87.452-165.737c-10.498 24.55-30.641 47.313-56.716 64.097-31.94 20.558-68.211 28.861-97.027 22.213-16.646-3.841-29.441-12.459-37.003-24.923-10.074-16.604-10.13-38.591-.158-61.912 10.498-24.55 30.64-47.314 56.715-64.097 24.693-15.893 51.969-24.461 76.392-24.461 7.169 0 14.097.739 20.636 2.248 16.646 3.841 29.441 12.459 37.003 24.923 10.074 16.604 10.13 38.591.158 61.912zm-32.664-106.323c-16.841-3.886-35.659-3.553-54.788.621v-48.561c0-9.34 3.649-18.12 10.25-24.75 6.63-6.61 15.42-10.25 24.75-10.25s18.12 3.64 24.75 10.25c6.536 6.556 10.164 15.241 10.243 24.48l-3.715 51.635c-3.664-1.354-7.494-2.503-11.49-3.425zm91.622-98.62c-6.78-2.86-13.98-4.32-21.41-4.32-8.98 0-17.9 2.22-25.78 6.4-7.6 4.05-14.25 9.91-19.22 16.97-4.97-7.06-11.62-12.92-19.22-16.97-7.881-4.18-16.801-6.4-25.78-6.4-8.98 0-17.9 2.22-25.78 6.4-7.6 4.05-14.25 9.91-19.22 16.97-4.97-7.06-11.62-12.92-19.22-16.97-7.88-4.18-16.8-6.4-25.78-6.4s-17.9 2.22-25.78 6.4c-7.6 4.05-14.25 9.91-19.22 16.97-4.97-7.06-11.62-12.92-19.22-16.97-7.88-4.18-16.8-6.4-25.78-6.4-7.42 0-14.63 1.46-21.41 4.32-4.59 1.941-8.843 4.484-12.72 7.563 4.677-27.413 27.996-48.543 56.372-49.814 11.277 8.647 28.608 8.931 30.758 8.931 5.523 0 10-4.477 10-10s-4.477-10-10-10c-3.892 0-11.24-.985-16.043-3.252 6.8-26.254 30.333-44.748 58.043-44.748 17.438 0 33.998 7.594 45.432 20.835 1.899 2.2 4.662 3.464 7.568 3.464s5.669-1.265 7.568-3.464c11.434-13.241 27.994-20.835 45.432-20.835 31.032 0 57.292 24.204 59.782 55.103.302 3.742 2.674 7 6.143 8.437 19.062 7.891 32.411 24.697 36.065 44.448-3.566-2.682-7.438-4.916-11.58-6.668z"/><path d="m338.778 65.599c-5.793 1.056-16.239 1.17-20.257-1.939-4.367-3.379-10.647-2.579-14.029 1.789-3.38 4.368-2.578 10.648 1.789 14.028 7.098 5.492 16.809 6.792 24.412 6.792 6.012 0 10.707-.813 11.75-1.009 5.418-1.017 8.978-6.224 7.976-11.645-1.004-5.421-6.217-9.002-11.641-8.016z"/><path d="m230.228 331.562 44.946-28.086c4.684-2.927 6.108-9.096 3.182-13.78-2.928-4.684-9.096-6.108-13.779-3.181l-44.947 28.086c-4.684 2.927-6.108 9.096-3.181 13.78 1.897 3.036 5.156 4.702 8.49 4.702 1.809 0 3.641-.491 5.289-1.521z"/><path d="m298.493 312.489-70.388 43.983c-4.684 2.927-6.108 9.096-3.181 13.78 1.897 3.036 5.156 4.702 8.49 4.702 1.81 0 3.642-.491 5.29-1.521l70.387-43.983c4.684-2.927 6.108-9.096 3.182-13.78s-9.097-6.108-13.78-3.181z"/><circle cx="422.17" cy="264.54" r="10"/></g></g></svg>