<?xml version="1.0" encoding="utf-8"?>
<!-- Generator: Adobe Illustrator 23.0.1, SVG Export Plug-In . SVG Version: 6.00 Build 0)  -->
<svg version="1.1" id="Layer_1" xmlns="http://www.w3.org/2000/svg" xmlns:xlink="http://www.w3.org/1999/xlink" x="0px" y="0px"
	 viewBox="0 0 358 317" style="enable-background:new 0 0 358 317;" xml:space="preserve">
<style type="text/css">
	.st0{fill:#D0D1D5;}
	.st1{fill:#EFEEFF;}
	.st2{fill:#F7F6FF;}
	.st3{fill:#E8E9ED;}
	.st4{fill:#F3F5F7;}
	.st5{fill:#DADCDE;}
	.st6{fill:#E2E0FF;}
	.st7{fill:none;stroke:#424350;stroke-width:6;stroke-linecap:round;stroke-miterlimit:10;}
	.st8{fill:#6C63FF;}
	.st9{fill:#514ABF;}
	.st10{fill:#FFFFFF;}
	.st11{fill:#B5B1FF;}
	.st12{fill:#E5E5E5;}
	.st13{fill:#FFD2D5;}
	.st14{fill:#0FD2DB;}
	.st15{fill:#0EFFE9;}
	.st16{fill:#2C00E2;}
	.st17{fill:#6615FF;}
	.st18{fill:none;stroke:#ABA7FF;stroke-width:5;stroke-miterlimit:10;}
	.st19{fill:none;stroke:#5DD288;stroke-width:5;stroke-linecap:round;stroke-miterlimit:10;}
	.st20{fill:none;stroke:#847DFF;stroke-width:5;stroke-miterlimit:10;}
	.st21{fill:none;stroke:#5D53FF;stroke-width:5;stroke-miterlimit:10;}
	.st22{fill:#6056FF;}
	.st23{font-family:'MyriadPro-Regular';}
	.st24{font-size:16.0784px;}
	.st25{fill:#837CFF;}
	.st26{font-size:14.4689px;}
	.st27{font-size:11.6685px;}
	.st28{fill:url(#SVGID_1_);}
	.st29{fill:url(#SVGID_2_);}
	.st30{fill:url(#SVGID_3_);}
	.st31{fill:url(#SVGID_4_);}
	.st32{fill:url(#SVGID_5_);}
	.st33{fill:url(#SVGID_6_);}
	.st34{fill:url(#SVGID_7_);}
	.st35{fill:url(#SVGID_8_);}
	.st36{fill:url(#SVGID_9_);}
	.st37{fill:url(#SVGID_10_);}
	.st38{fill:url(#SVGID_11_);}
	.st39{fill:url(#SVGID_12_);}
	.st40{fill:url(#SVGID_13_);}
	.st41{fill:url(#SVGID_14_);}
	.st42{fill:url(#SVGID_15_);}
</style>
<rect x="306.02" y="166.47" class="st0" width="29.95" height="3.24"/>
<g>
	<path class="st1" d="M264.48,58.26c0,0-18.3,20.96-53.9,22.63c-35.6,1.66-91.83-23.62-91.83-23.62s-63.88-33.94-79.52,4.99
		s-1.66,50.57,0,58.56s11.31,38.6-5.66,57.23s-41.59,59.89,24.95,76.19s228.25,4.33,228.25,4.33s81.18-8.65,28.95-55.23
		s-31.28-66.54-24.95-70.2c6.32-3.66,41.26-24.29,33.27-46.25C316.05,64.91,294.09,49.27,264.48,58.26z"/>
	<ellipse class="st2" cx="170.94" cy="294.28" rx="22.33" ry="3.87"/>
	<rect x="8.62" y="84.54" class="st3" width="81.85" height="81.85"/>
	<rect x="16.85" y="99.01" class="st0" width="29.95" height="3.24"/>
	<rect x="263.15" y="84.54" class="st3" width="81.85" height="81.85"/>
	<rect x="271.38" y="99.01" class="st0" width="29.95" height="3.24"/>
	<rect x="66.01" y="106.25" class="st4" width="91.58" height="91.83"/>
	<rect x="78.24" y="125.47" class="st5" width="30.44" height="3.74"/>
	<rect x="78.24" y="137.19" class="st5" width="30.44" height="3.74"/>
	<rect x="118.66" y="135.2" class="st6" width="113.79" height="113.79"/>
	<rect x="196.02" y="106.25" class="st4" width="91.58" height="91.83"/>
	<rect x="208.25" y="125.47" class="st5" width="30.44" height="3.74"/>
	<g>
		<path class="st7" d="M250.31,183.77c0,0,2.38,13.37-6.24,24.07c-8.62,10.7-12.78,17.53-12.78,26.45l6.83-5.35
			c0,0,6.54-5.94,12.18-8.32c5.65-2.38,11.29-5.35,14.26-10.1s6.83-11.29,6.83-11.29"/>
		<path class="st8" d="M249.25,178.02c0.92-1.92,2.44-3.37,5.41-1.85c2.97,1.52,2.44,4.09,1.78,5.41c-0.66,1.32-6.08,5.28-6.08,5.28
			S248.32,179.94,249.25,178.02z"/>
		<path class="st8" d="M253.73,188.83c1.78-1.17,3.83-1.63,5.59,1.2c1.77,2.83-0.01,4.77-1.26,5.56s-7.93,1.4-7.93,1.4
			S251.95,190,253.73,188.83z"/>
		<path class="st9" d="M273.54,192.73c1.78-1.17,3.83-1.63,5.59,1.2c1.77,2.83-0.01,4.77-1.26,5.56c-1.25,0.79-7.93,1.4-7.93,1.4
			S271.76,193.9,273.54,192.73z"/>
		<path class="st9" d="M272.52,204.48c2.11-0.23,4.15,0.29,4.44,3.61c0.29,3.32-2.17,4.24-3.64,4.38c-1.47,0.14-7.7-2.35-7.7-2.35
			S270.41,204.71,272.52,204.48z"/>
		<path class="st9" d="M258.46,204.06c0.09-2.12,0.91-4.06,4.24-3.84c3.33,0.22,3.86,2.79,3.78,4.27c-0.08,1.47-3.49,7.26-3.49,7.26
			S258.37,206.19,258.46,204.06z"/>
		<path class="st9" d="M242.62,214.69c-0.35-2.1,0.06-4.16,3.36-4.63c3.3-0.47,4.35,1.94,4.58,3.4s-1.93,7.82-1.93,7.82
			S242.96,216.79,242.62,214.69z"/>
		<path class="st9" d="M261.13,219.21c1.91,0.93,3.36,2.45,1.84,5.42c-1.52,2.97-4.1,2.44-5.42,1.77c-1.32-0.66-5.27-6.08-5.27-6.08
			S259.21,218.28,261.13,219.21z"/>
		<path class="st9" d="M245.53,227c2.07,0.5,3.81,1.67,2.96,4.9c-0.85,3.23-3.48,3.26-4.91,2.89c-1.43-0.36-6.45-4.81-6.45-4.81
			S243.46,226.5,245.53,227z"/>
		<path class="st8" d="M241.34,193.86c-0.61-2.04-0.48-4.13,2.74-5.02c3.22-0.89,4.57,1.37,4.97,2.79c0.41,1.42-0.91,8-0.91,8
			S241.96,195.9,241.34,193.86z"/>
		<path class="st8" d="M237.81,220.54c2.04-0.59,4.14-0.42,4.99,2.81c0.85,3.23-1.43,4.55-2.85,4.94s-7.99-1.01-7.99-1.01
			S235.77,221.13,237.81,220.54z"/>
		<path class="st8" d="M230.38,209.88c-1-1.88-1.28-3.96,1.7-5.46c2.98-1.5,4.75,0.45,5.42,1.76c0.68,1.31,0.68,8.02,0.68,8.02
			S231.38,211.75,230.38,209.88z"/>
		<path class="st8" d="M249.58,207.34c2.12,0.17,4.02,1.06,3.68,4.38c-0.34,3.32-2.93,3.76-4.4,3.62c-1.47-0.14-7.12-3.75-7.12-3.75
			S247.46,207.17,249.58,207.34z"/>
	</g>
	<rect x="208.25" y="137.19" class="st5" width="30.44" height="3.74"/>
	<rect x="122.41" y="129.21" class="st10" width="113.79" height="113.79"/>
	<rect x="134.14" y="141.94" class="st11" width="89.59" height="3.99"/>
	<rect x="134.14" y="166.14" class="st12" width="56.9" height="4.49"/>
	<rect x="134.14" y="189.35" class="st12" width="56.9" height="4.49"/>
	<rect x="134.14" y="200.83" class="st12" width="75.61" height="4.74"/>
	<g>
		<path class="st8" d="M173.82,290.16l-0.5,5.91c0,0,2.41,0.33,3.66-0.67c1.25-1,2.5-1.75,2.5-1.75l1.5-2.33c0,0,0-1.91-3.16-0.91
			S173.82,290.16,173.82,290.16z"/>
		<path class="st13" d="M172.99,246.58c0,0,0.67,11.4,0.67,12.14c0,0.75,0,6.32,0,6.32l0.25,26.37c0,0,3.08,0.33,3.83-0.42
			c0.75-0.75,1.75-11.73,1.75-11.73l1.08-17.22l0.17-12.23L172.99,246.58z"/>
		<path class="st8" d="M166.5,289c0,0,2.58-0.83,3.16-0.58s1,2.08-0.42,3.16s-2.08,1.75-2.5,2.25s-4.08,0.83-4.08,0.83v-4.82
			L166.5,289z"/>
		<path class="st13" d="M188.46,190.85c0,0,1.83-0.83,1.83-2.5c0-1.66-2.66-10.98-2.66-10.98s-4.33-6.65-2-8.82
			c2.33-2.16,4.49,6.82,4.49,6.82s0,2.66,0.83,2.83c0.83,0.17,4.66,12.48,4.66,12.48s0.33,7.99-4.16,4.82
			S188.46,190.85,188.46,190.85z"/>
		<path class="st13" d="M162.34,251.9l-0.17,5.57l-0.83,9.73l1.5,23.87c0,0,1.5,0.17,2.83,0.17c1.33,0,1.83-1.08,1.83-1.08
			s-0.83-20.3-0.17-23.29c0.67-2.99,2-5.32,2-5.32l0.33-13.97L162.34,251.9z"/>
		<path class="st13" d="M156.57,210.87v10.2c0,0,1.55,5.99,2,6.65s3.33-4.55,3.33-4.55s-1.33-10.43-1.11-11.87
			C161.01,209.87,156.57,210.87,156.57,210.87z"/>
		<g>
			<path class="st14" d="M162.01,209.2l-0.67,4.1c0,0-6.54,0.44-6.21-0.67c0.33-1.11,0.44-4.33,0.44-4.33L162.01,209.2z"/>
			<path class="st14" d="M185.8,190.51l3.33-0.5c0,0,5.32-0.67,5.49,1.33c0.17,2-3.11,5.77-3.11,5.77l-4.71-2.61L185.8,190.51z"/>
			<path class="st15" d="M158.9,218.74c-0.34-0.62,1-4.21,2.11-4.55c1.11-0.33,0.78-3.66,0.78-3.66l-6.54-0.55l0.89-14.53
				c0,0-0.55-5.77,8.76-5.77s16.19-1.22,16.19-1.22s1.66,0.55,3.88,1.55c2.22,1,3.66,0.33,3.66,0.33l4.33,2.22l-1.44,4.55
				c0,0-8.21-1.11-9.09,0.33c-0.89,1.44-0.78,4.55-0.78,4.55s-1.33,2.22-1.11,5.88c0.22,3.66-1.11,2.88,0.33,4.21
				c1.44,1.33,0.44,5.1,1.44,5.99c0,0,3.16,10.37,1.33,24.18c0,0-0.67,7.32,1.33,10.81c0,0-8.48-2.33-13.48,0.5
				c-4.99,2.83-9.15,0.83-12.48-1c-3.33-1.83-13.14-2.5-10.31-4.99C151.53,245.08,160.96,222.51,158.9,218.74z"/>
			<path class="st14" d="M174.87,214.53c0,0-9.09,3.99-10.76,4.44C162.45,219.41,173.1,218.07,174.87,214.53z"/>
			<path class="st14" d="M175.98,229.83c0,0-19.08,14.53-22.85,16.64C149.37,248.57,174.43,233.82,175.98,229.83z"/>
			<path class="st14" d="M171.99,236.04c0,0-5.88,5.66-7.99,6.43S170.99,240.26,171.99,236.04z"/>
			<polygon class="st14" points="161.79,210.53 163.01,200.77 162.67,211.31 			"/>
			<path class="st14" d="M184.52,196.67l-3.55,0.44C180.97,197.11,183.97,196.34,184.52,196.67z"/>
		</g>
		<g>
			<path class="st16" d="M180.97,172.05c0,0,4.44,2.99,3.22,7.1s-6.77,5.43-6.77,5.43l6.1,6.1c0,0,0.78,3.55-2,5.21
				c-2.77,1.66-2.22,0-2.77,1.66c-0.55,1.66-0.78,5.55-0.78,5.55l1.55,2.55c0,0,0,5.99-5.43,6.32c-5.43,0.33-1.33-1.22-2.77-0.11
				c-1.44,1.11-4.77,4.44-8.76,0.44v-5.21c0,0,1.33-4.21-1.77-4.33c-3.11-0.11-3.11-3.77-2-5.88S180.97,172.05,180.97,172.05z"/>
			<path class="st17" d="M180.97,180.92c0,0-0.55-1.55,2.55-3.88c3.11-2.33-6.32-8.98-9.98-9.54c-3.66-0.55-7.87-1.55-8.76,2.22
				c-0.89,3.77-3.77,8.87-6.43,9.87c-2.66,1,2.44,6.99,1.66,9.32c-0.78,2.33-2.77,7.32-1.66,9.21c1.11,1.89,2.77,0.78,3.44,2
				c0.67,1.22-0.55,7.99,0.78,8.98c1.33,1,4.77,2.22,6.32,1.66c1.55-0.55,1-2.44,2.66-2.44c1.66,0,8.43,0,7.65-3.44
				c-0.78-3.44-2.44-9.21,0.11-10.76c2.55-1.55,4.99-1.66,3.33-5.43C180.97,184.91,179.98,180.81,180.97,180.92z"/>
		</g>
	</g>
	<g>
		<g>
			<circle class="st18" cx="49.91" cy="57.41" r="9.28"/>
			<polyline class="st19" points="45.38,57.76 48.21,60.58 54.36,54.43 			"/>
		</g>
		<g>
			<circle class="st20" cx="112.3" cy="85.35" r="11.29"/>
			<polyline class="st19" points="106.8,85.77 110.24,89.21 117.73,81.72 			"/>
		</g>
		<g>
			<circle class="st20" cx="241.65" cy="85.65" r="11.29"/>
		</g>
		<g>
			<g>
				<circle class="st21" cx="176.76" cy="108.21" r="15.35"/>
			</g>
			<text transform="matrix(1 0 0 1 172.9004 113.96)" class="st22 st23 st24">3</text>
		</g>
		<text transform="matrix(1 0 0 1 237.9424 89.8965)" class="st25 st23 st26">4</text>
		<g>
			<circle class="st20" cx="304.38" cy="57.41" r="8.74"/>
		</g>
		<text transform="matrix(1 0 0 1 301.3838 60.8369)" class="st25 st23 st27">5</text>
	</g>
</g>
<g>
	<linearGradient id="SVGID_1_" gradientUnits="userSpaceOnUse" x1="258.446" y1="140.7121" x2="266.6488" y2="140.7121">
		<stop  offset="0" style="stop-color:#623FB2"/>
		<stop  offset="0.4888" style="stop-color:#779AC6"/>
		<stop  offset="0.9944" style="stop-color:#727DB2"/>
	</linearGradient>
	<path class="st28" d="M266.4,134.4c0,0-3.49-0.85-6.39,3.15c-2.9,4.01-1.19,9.63,0.51,9.54c1.7-0.09,3.58-1.02,3.58-1.02
		S267.59,138.49,266.4,134.4z"/>
	<linearGradient id="SVGID_2_" gradientUnits="userSpaceOnUse" x1="259.5622" y1="140.7496" x2="265.6893" y2="140.7496">
		<stop  offset="0" style="stop-color:#8025B9"/>
		<stop  offset="0.4888" style="stop-color:#7422B8"/>
		<stop  offset="0.9944" style="stop-color:#6B53AE"/>
	</linearGradient>
	<path class="st29" d="M265.21,135.25c0,0-9.89,2.98-3.49,10.99C261.71,146.25,267.34,139,265.21,135.25z"/>
	<linearGradient id="SVGID_3_" gradientUnits="userSpaceOnUse" x1="293.67" y1="140.3661" x2="302.8734" y2="140.3661">
		<stop  offset="0" style="stop-color:#70B5D8"/>
		<stop  offset="0.4888" style="stop-color:#86DDF1"/>
		<stop  offset="0.9944" style="stop-color:#7BE2F6"/>
	</linearGradient>
	<polygon class="st30" points="295.54,142.67 295.8,141.3 302.11,143.69 302.87,140.88 294.78,137.04 293.67,140.88 294.78,140.96 
		294.44,142.75 	"/>
	<linearGradient id="SVGID_4_" gradientUnits="userSpaceOnUse" x1="293.5847" y1="144.3713" x2="296.3117" y2="144.3713">
		<stop  offset="0" style="stop-color:#73BDDD"/>
		<stop  offset="0.4888" style="stop-color:#94DFF4"/>
		<stop  offset="0.9944" style="stop-color:#B8EEF8"/>
	</linearGradient>
	<polygon class="st31" points="293.58,145.56 294.01,142.16 296.31,142.41 295.12,146.59 	"/>
	<radialGradient id="SVGID_5_" cx="293.7231" cy="146.4842" r="3.6618" gradientUnits="userSpaceOnUse">
		<stop  offset="0" style="stop-color:#96E4F1"/>
		<stop  offset="1" style="stop-color:#77A3DD"/>
	</radialGradient>
	<path class="st32" d="M296.73,148.71l-6.74-2.01c-0.67-0.2-1.06-0.92-0.86-1.59l0,0c0.2-0.67,0.92-1.06,1.59-0.86l6.74,2.01
		c0.67,0.2,1.06,0.92,0.86,1.59l0,0C298.12,148.53,297.4,148.91,296.73,148.71z"/>
	<linearGradient id="SVGID_6_" gradientUnits="userSpaceOnUse" x1="314.7186" y1="154.7678" x2="316.7638" y2="154.7678">
		<stop  offset="0" style="stop-color:#A9F7FC"/>
		<stop  offset="0.4888" style="stop-color:#8CD7E7"/>
		<stop  offset="1" style="stop-color:#7CD8F3"/>
	</linearGradient>
	<polygon class="st33" points="316.42,153.83 314.72,154.43 315.32,155.71 316.76,155.71 	"/>
	<linearGradient id="SVGID_7_" gradientUnits="userSpaceOnUse" x1="309.2647" y1="156.6" x2="312.9703" y2="156.6">
		<stop  offset="0" style="stop-color:#7093CC"/>
		<stop  offset="0.4888" style="stop-color:#84DBF4"/>
		<stop  offset="0.9944" style="stop-color:#9FC6DB"/>
	</linearGradient>
	<path class="st34" d="M309.26,158.32l0.43-3.31c0,0,1.79-0.55,2.56,0c0.77,0.55,1.11,3.42,0.09,3.42
		C311.31,158.43,309.26,158.32,309.26,158.32z"/>
	<linearGradient id="SVGID_8_" gradientUnits="userSpaceOnUse" x1="298.8682" y1="154.6933" x2="309.9464" y2="154.6933">
		<stop  offset="0" style="stop-color:#70B5D8"/>
		<stop  offset="0.4888" style="stop-color:#86DDF1"/>
		<stop  offset="0.9944" style="stop-color:#7BE2F6"/>
	</linearGradient>
	<path class="st35" d="M299.46,156.39l8.18,2.39c0,0,1.02,1.11,1.62-1.11c0.6-2.22,0.68-3.66,0.68-3.66l-9.37-3.66l-1.7,6.05H299.46
		z"/>
	<linearGradient id="SVGID_9_" gradientUnits="userSpaceOnUse" x1="277.99" y1="149.3991" x2="300.6954" y2="149.3991">
		<stop  offset="0" style="stop-color:#73BDDD"/>
		<stop  offset="0.4888" style="stop-color:#94DFF4"/>
		<stop  offset="0.9944" style="stop-color:#B8EEF8"/>
	</linearGradient>
	<path class="st36" d="M280.89,142.07l19.51,7.67c0,0,1.36,5.11-1.79,6.99l-20.62-5.45L280.89,142.07z"/>
	<linearGradient id="SVGID_10_" gradientUnits="userSpaceOnUse" x1="263.5883" y1="143.3913" x2="281.5113" y2="143.3913">
		<stop  offset="0" style="stop-color:#70B5D8"/>
		<stop  offset="0.4888" style="stop-color:#C1EBED"/>
		<stop  offset="0.9944" style="stop-color:#D2F8FC"/>
	</linearGradient>
	<path class="st37" d="M281.06,141.3l-14.74-6.39c0,0,2.73,6.48-2.73,12.53l14.4,4.43C277.99,151.87,283.02,144.54,281.06,141.3z"/>
	<linearGradient id="SVGID_11_" gradientUnits="userSpaceOnUse" x1="260.5205" y1="141.1757" x2="266.9973" y2="141.1757">
		<stop  offset="0" style="stop-color:#623FB2"/>
		<stop  offset="0.4888" style="stop-color:#779AC6"/>
		<stop  offset="0.9944" style="stop-color:#727DB2"/>
	</linearGradient>
	<path class="st38" d="M266.4,134.4l-1.62,0.43c0,0,0.85,8.52-4.26,12.27l2.73,0.85C263.25,147.95,268.79,141.73,266.4,134.4z"/>
	<linearGradient id="SVGID_12_" gradientUnits="userSpaceOnUse" x1="287.3639" y1="137.3409" x2="295.1187" y2="137.3409">
		<stop  offset="0" style="stop-color:#70B5D8"/>
		<stop  offset="0.4888" style="stop-color:#86DDF1"/>
		<stop  offset="0.9944" style="stop-color:#7BE2F6"/>
	</linearGradient>
	<path class="st39" d="M295.12,136.79c0,0-0.6,3.66-1.7,4.09l-6.05-1.96l0.94-5.11L295.12,136.79z"/>
	
		<linearGradient id="SVGID_13_" gradientUnits="userSpaceOnUse" x1="297.6356" y1="-115.625" x2="300.7034" y2="-115.625" gradientTransform="matrix(0.9255 0.2087 -0.2085 0.9248 -13.7554 180.4069)">
		<stop  offset="0" style="stop-color:#70B5D8"/>
		<stop  offset="0.4888" style="stop-color:#86DDF1"/>
		<stop  offset="0.9944" style="stop-color:#7BE2F6"/>
	</linearGradient>
	<path class="st40" d="M288.65,136.22c0.38-1.7,0.06-3.22-0.73-3.39c-0.78-0.18-1.73,1.06-2.11,2.75c-0.38,1.7-0.06,3.22,0.73,3.39
		C287.32,139.15,288.27,137.92,288.65,136.22z"/>
	
		<linearGradient id="SVGID_14_" gradientUnits="userSpaceOnUse" x1="297.8139" y1="-115.625" x2="300.5251" y2="-115.625" gradientTransform="matrix(0.9255 0.2087 -0.2085 0.9248 -13.7554 180.4069)">
		<stop  offset="0" style="stop-color:#8025B9"/>
		<stop  offset="0.4888" style="stop-color:#7422B8"/>
		<stop  offset="0.9944" style="stop-color:#6B53AE"/>
	</linearGradient>
	<path class="st41" d="M288.48,136.18c0.34-1.5,0.05-2.84-0.64-3c-0.69-0.16-1.53,0.93-1.87,2.43c-0.34,1.5-0.05,2.84,0.64,3
		C287.31,138.77,288.15,137.68,288.48,136.18z"/>
	<linearGradient id="SVGID_15_" gradientUnits="userSpaceOnUse" x1="311.4803" y1="155.9093" x2="315.1447" y2="155.9093">
		<stop  offset="0" style="stop-color:#81B1D9"/>
		<stop  offset="0.4888" style="stop-color:#AAD9EC"/>
		<stop  offset="1" style="stop-color:#CCE7DD"/>
	</linearGradient>
	<path class="st42" d="M311.48,155.36c0,0,2.56-1.11,3.24-0.94c0.68,0.17,0.34,2.13,0.34,2.13l-2.3,0.85
		C312.76,157.41,312.59,155.45,311.48,155.36z"/>
</g>
</svg>
