<?xml version="1.0" encoding="utf-8"?>
<!-- Generator: Adobe Illustrator 23.0.1, SVG Export Plug-In . SVG Version: 6.00 Build 0)  -->
<svg version="1.1" id="Layer_1" xmlns="http://www.w3.org/2000/svg" xmlns:xlink="http://www.w3.org/1999/xlink" x="0px" y="0px"
	 viewBox="0 0 285 545" style="enable-background:new 0 0 285 545;" xml:space="preserve">
<style type="text/css">
	.st0{fill:#F1F1F1;}
	.st1{fill:none;stroke:#3F3D56;stroke-width:4;stroke-miterlimit:10;}
	.st2{fill:#3F3D56;}
	.st3{fill:#6C63FF;}
	.st4{clip-path:url(#SVGID_1_);fill:#3F3D56;}
	.st5{clip-path:url(#SVGID_1_);}
	.st6{fill:none;stroke:#3F3D56;stroke-width:2;stroke-linecap:round;stroke-miterlimit:10;}
	.st7{clip-path:url(#SVGID_2_);fill:#6C63FF;}
	.st8{clip-path:url(#SVGID_2_);}
	.st9{fill:none;stroke:#6C63FF;stroke-width:2;stroke-miterlimit:10;}
	.st10{fill:none;stroke:#3F3D56;stroke-width:2;stroke-miterlimit:10;}
	.st11{fill:#655CFF;}
	.st12{clip-path:url(#SVGID_3_);}
	.st13{fill:url(#SVGID_4_);}
	.st14{fill:url(#SVGID_5_);}
	.st15{fill:url(#SVGID_6_);}
	.st16{fill:url(#SVGID_7_);}
	.st17{fill:#017ED0;}
	.st18{fill:url(#SVGID_8_);}
	.st19{fill:url(#SVGID_9_);}
	.st20{fill:#1A53D0;}
	.st21{fill:#BC51E6;}
	.st22{fill:#8C2DE7;}
	.st23{fill:url(#SVGID_10_);}
	.st24{fill:#FFBDFF;}
	.st25{fill:#FFC7FF;}
	.st26{fill:#E09FFF;}
	.st27{fill:#FED0FF;}
	.st28{fill:#DF9FFF;}
	.st29{fill:#E0A0FF;}
	.st30{fill:url(#SVGID_11_);}
	.st31{opacity:0.52;fill:#F3A1FF;}
	.st32{fill:#FFA5FF;}
	.st33{fill:none;}
	.st34{fill:#FFBFFE;}
	.st35{fill:url(#SVGID_12_);}
	.st36{fill:url(#SVGID_13_);}
	.st37{fill:url(#SVGID_14_);}
	.st38{fill:url(#SVGID_15_);}
	.st39{fill:url(#SVGID_16_);}
	.st40{fill:url(#SVGID_17_);}
	.st41{fill:url(#SVGID_18_);}
	.st42{fill:#CF20A6;}
	.st43{fill:#D526A9;}
	.st44{fill:url(#SVGID_19_);}
	.st45{fill:url(#SVGID_20_);}
	.st46{fill:url(#SVGID_21_);}
	.st47{fill:url(#SVGID_22_);}
	.st48{fill:url(#SVGID_23_);}
	.st49{fill:url(#SVGID_24_);}
	.st50{fill:url(#SVGID_25_);stroke:#FFFFFF;stroke-miterlimit:10;}
	.st51{fill:#FFFFFF;}
	.st52{fill:url(#SVGID_26_);}
	.st53{fill:url(#SVGID_27_);stroke:#FFFFFF;stroke-miterlimit:10;}
	.st54{fill:url(#SVGID_28_);}
	.st55{fill:url(#SVGID_29_);stroke:#FFFFFF;stroke-miterlimit:10;}
	.st56{opacity:0.53;}
	.st57{fill:url(#SVGID_30_);}
	.st58{fill:url(#SVGID_31_);stroke:#FFFFFF;stroke-miterlimit:10;}
	.st59{fill:url(#SVGID_32_);}
	.st60{fill:url(#SVGID_33_);stroke:#FFFFFF;stroke-miterlimit:10;}
	.st61{fill:url(#SVGID_34_);}
	.st62{opacity:0.77;fill:url(#SVGID_35_);}
</style>
<g>
	<g>
		<g>
			<g>
				<g>
					<g>
						<ellipse class="st0" cx="82.41" cy="86.95" rx="3.95" ry="3.87"/>
						<ellipse class="st0" cx="210.64" cy="99.25" rx="3.37" ry="3.31"/>
						<ellipse class="st0" cx="76.86" cy="215.09" rx="3.37" ry="3.31"/>
						<ellipse class="st1" cx="166.65" cy="92.44" rx="3.88" ry="3.81"/>
						<ellipse class="st1" cx="133.45" cy="92.44" rx="3.88" ry="3.81"/>
						<ellipse class="st2" cx="150.05" cy="92.44" rx="4.5" ry="4.42"/>
					</g>
					<polygon class="st0" points="198.43,231.99 70.65,194.7 101.06,94.26 228.84,131.55 					"/>
				</g>
				<rect x="22.18" y="117.51" class="st3" width="115.94" height="80.03"/>
				<g>
					<defs>
						<rect id="SVGID_39_" x="22.18" y="117.51" width="115.94" height="80.03"/>
					</defs>
					<clipPath id="SVGID_1_">
						<use xlink:href="#SVGID_39_"  style="overflow:visible;"/>
					</clipPath>
					<rect x="13.8" y="109.98" class="st4" width="105.24" height="69.17"/>
					<g class="st5">
						<line class="st6" x1="116.66" y1="176.59" x2="129.74" y2="189.61"/>
						<line class="st6" x1="130.22" y1="187.15" x2="130.22" y2="190.13"/>
						<line class="st6" x1="130.22" y1="190.13" x2="127.19" y2="190.13"/>
					</g>
				</g>
			</g>
			<g>
				<rect x="186.16" y="135.83" class="st2" width="61.9" height="54.37"/>
				<g>
					<defs>
						<rect id="SVGID_41_" x="186.16" y="135.83" width="61.9" height="54.37"/>
					</defs>
					<clipPath id="SVGID_2_">
						<use xlink:href="#SVGID_41_"  style="overflow:visible;"/>
					</clipPath>
					<rect x="183.57" y="132.24" class="st7" width="38.62" height="28.02"/>
					<g class="st8">
						<line class="st9" x1="249.12" y1="191.43" x2="226.38" y2="163.41"/>
						<line class="st9" x1="229.05" y1="163.21" x2="225.89" y2="163.21"/>
						<line class="st9" x1="226.09" y1="166.12" x2="226.09" y2="163.01"/>
					</g>
				</g>
			</g>
		</g>
		<g>
			<g>
				<line class="st10" x1="144.59" y1="162.71" x2="176.96" y2="162.71"/>
				<polyline class="st10" points="175.14,164.82 177.26,162.73 175.2,160.71 				"/>
				<polyline class="st10" points="146.68,164.82 144.55,162.73 146.61,160.71 				"/>
			</g>
			<ellipse class="st2" cx="160.91" cy="162.66" rx="2.75" ry="2.7"/>
			<ellipse class="st11" cx="153.32" cy="162.77" rx="1.43" ry="1.4"/>
			<ellipse class="st11" cx="168.5" cy="162.77" rx="1.43" ry="1.4"/>
		</g>
	</g>
	<g>
		<defs>
			<rect id="SVGID_43_" x="0.28" y="0.34" width="285.76" height="386.66"/>
		</defs>
		<clipPath id="SVGID_3_">
			<use xlink:href="#SVGID_43_"  style="overflow:visible;"/>
		</clipPath>
		<g class="st12">
			<g>
				<linearGradient id="SVGID_4_" gradientUnits="userSpaceOnUse" x1="74.9783" y1="393.9492" x2="207.1286" y2="393.9492">
					<stop  offset="0.0223" style="stop-color:#2005C4"/>
					<stop  offset="0.2542" style="stop-color:#4726CB"/>
					<stop  offset="0.5335" style="stop-color:#4E48D0"/>
					<stop  offset="0.7849" style="stop-color:#1354CF"/>
					<stop  offset="1" style="stop-color:#0058D0"/>
				</linearGradient>
				<path class="st13" d="M118.18,390.91c-12.04-13.92-19.26-28.89-25.41-32.43c-3.96-2.28-8.79-4.88-11.75-6.45
					c-3.02,6.14-4.99,12.81-5.72,19.81c11.87,11.96,37.19,37.26,39.13,37.46c2.03,0.21,32.81,19.48,49.63,26.59
					c4.63-1.62,9.01-3.71,13.07-6.21C163.12,421.98,127.76,401.99,118.18,390.91z"/>
				<linearGradient id="SVGID_5_" gradientUnits="userSpaceOnUse" x1="74.9783" y1="411.8556" x2="207.1286" y2="411.8556">
					<stop  offset="0.0223" style="stop-color:#2005C4"/>
					<stop  offset="0.2542" style="stop-color:#4726CB"/>
					<stop  offset="0.5335" style="stop-color:#4E48D0"/>
					<stop  offset="0.7849" style="stop-color:#1354CF"/>
					<stop  offset="1" style="stop-color:#0058D0"/>
				</linearGradient>
				<path class="st14" d="M75.29,383.92c3.27,32.02,32.43,56.66,67.27,55.85c0.31-0.01,0.61-0.02,0.91-0.03l-66.22-54.61
					L75.29,383.92z"/>
				<linearGradient id="SVGID_6_" gradientUnits="userSpaceOnUse" x1="74.9783" y1="347.9335" x2="207.1286" y2="347.9335">
					<stop  offset="0.0223" style="stop-color:#2005C4"/>
					<stop  offset="0.2542" style="stop-color:#4726CB"/>
					<stop  offset="0.5335" style="stop-color:#4E48D0"/>
					<stop  offset="0.7849" style="stop-color:#1354CF"/>
					<stop  offset="1" style="stop-color:#0058D0"/>
				</linearGradient>
				<path class="st15" d="M173.54,362.15c13.78,3.02,20.86,10.9,23.4,12.87c1.35,1.05,6.04,3.21,10.13,5.01
					c0.05-1.24,0.06-2.5,0.03-3.76c-0.83-34.22-31.08-61.26-67.56-60.41c-14.46,0.34-27.73,5.01-38.43,12.66
					c0.82,1.12,1.69,2.59,2.61,4.48C110.82,347.58,159.77,359.13,173.54,362.15z"/>
				<linearGradient id="SVGID_7_" gradientUnits="userSpaceOnUse" x1="74.9783" y1="378.9425" x2="207.1286" y2="378.9425">
					<stop  offset="0.0223" style="stop-color:#2005C4"/>
					<stop  offset="0.2542" style="stop-color:#4726CB"/>
					<stop  offset="0.5335" style="stop-color:#4E48D0"/>
					<stop  offset="0.7849" style="stop-color:#1354CF"/>
					<stop  offset="1" style="stop-color:#0058D0"/>
				</linearGradient>
				<path class="st16" d="M204.68,394.44c-5.81-6.94-17.84-16.29-41.7-19.69c-32.56-4.63-59-32.01-67.48-41.74
					c-3.5,3.14-6.64,6.63-9.34,10.42c2.76,3.53,9.92,12.13,14.9,13.07c6.29,1.18,28.89,11.82,34.77,23.11
					c5.04,9.66,32.11,39.23,48.12,45.25C193.78,416.97,201.1,406.42,204.68,394.44z"/>
				<path class="st17" d="M75.3,371.83c-0.26,2.47-0.36,4.98-0.3,7.53c0.04,1.54,0.14,3.06,0.29,4.56l1.97,1.21l66.22,54.61
					c7.23-0.26,14.15-1.6,20.59-3.86c-16.83-7.11-47.6-26.38-49.63-26.59C112.49,409.09,87.17,383.79,75.3,371.83z"/>
				<linearGradient id="SVGID_8_" gradientUnits="userSpaceOnUse" x1="74.9783" y1="386.5495" x2="207.1286" y2="386.5495">
					<stop  offset="0.0223" style="stop-color:#2005C4"/>
					<stop  offset="0.2542" style="stop-color:#4726CB"/>
					<stop  offset="0.5335" style="stop-color:#4E48D0"/>
					<stop  offset="0.7849" style="stop-color:#1354CF"/>
					<stop  offset="1" style="stop-color:#0058D0"/>
				</linearGradient>
				<path class="st18" d="M135.83,379.61c-5.88-11.29-28.49-21.93-34.77-23.11c-4.98-0.94-12.15-9.54-14.9-13.07
					c-1.94,2.72-3.66,5.59-5.13,8.59c2.95,1.57,7.79,4.17,11.75,6.45c6.15,3.55,13.37,18.51,25.41,32.43
					c9.58,11.08,44.95,31.07,58.96,38.76c2.38-1.46,4.66-3.07,6.81-4.8C167.94,418.85,140.87,389.28,135.83,379.61z M111.89,369.64
					c13.37-3.55,16.18,17.07,16.18,17.07C117.11,383.29,111.89,369.64,111.89,369.64z"/>
				<linearGradient id="SVGID_9_" gradientUnits="userSpaceOnUse" x1="135.9872" y1="383.3516" x2="123.8757" y2="393.6739">
					<stop  offset="0" style="stop-color:#5974CF"/>
					<stop  offset="1" style="stop-color:#257BD0"/>
				</linearGradient>
				<path class="st19" d="M135.83,379.61c-5.88-11.29-28.49-21.93-34.77-23.11c-4.98-0.94-12.15-9.54-14.9-13.07
					c-1.94,2.72-3.66,5.59-5.13,8.59c2.95,1.57,7.79,4.17,11.75,6.45c6.15,3.55,13.37,18.51,25.41,32.43
					c9.58,11.08,44.95,31.07,58.96,38.76c2.38-1.46,4.66-3.07,6.81-4.8C167.94,418.85,140.87,389.28,135.83,379.61z M111.89,369.64
					c13.37-3.55,16.18,17.07,16.18,17.07C117.11,383.29,111.89,369.64,111.89,369.64z"/>
				<path class="st20" d="M111.89,369.64c0,0,5.22,13.65,16.18,17.07C128.07,386.7,125.26,366.09,111.89,369.64z"/>
				<path class="st21" d="M162.98,374.76c23.86,3.39,35.89,12.75,41.7,19.69c1.38-4.62,2.2-9.44,2.4-14.42
					c-4.09-1.8-8.78-3.96-10.13-5.01c-2.54-1.97-9.63-9.85-23.4-12.87c-13.78-3.02-62.72-14.57-69.81-29.15
					c-0.92-1.9-1.79-3.36-2.61-4.48c-1.96,1.4-3.84,2.9-5.62,4.5C103.97,342.74,130.42,370.13,162.98,374.76z M187.19,373.97
					c0,0-11.5,1.31-23.54-6.04C163.65,367.93,175.02,365.43,187.19,373.97z"/>
				<path class="st22" d="M187.19,373.97c-12.17-8.53-23.54-6.04-23.54-6.04C175.68,375.28,187.19,373.97,187.19,373.97z"/>
			</g>
			<linearGradient id="SVGID_10_" gradientUnits="userSpaceOnUse" x1="146.8882" y1="343.9536" x2="154.7938" y2="303.3712">
				<stop  offset="0.0223" style="stop-color:#2005C4"/>
				<stop  offset="0.2542" style="stop-color:#4726CB"/>
				<stop  offset="0.5335" style="stop-color:#4E48D0"/>
				<stop  offset="0.7849" style="stop-color:#1354CF"/>
				<stop  offset="1" style="stop-color:#0058D0"/>
			</linearGradient>
			<path class="st23" d="M155.41,333.8l6.12,5.98l-5.01,3.84c0,0-14.74,2.13-20.58,0c-5.84-2.13,1.39-7.68,1.39-7.68
				S145.03,329.62,155.41,333.8z"/>
			<path class="st24" d="M156.51,304.07c0,0,3.3,7.79,3.03,17.07c-0.27,9.28-1.52,22.67-1.52,22.67l-4.81,1.66l-0.53-15.23
				c0,0-0.62-11.55-2.94-14.27S156.51,304.07,156.51,304.07z"/>
			<path class="st25" d="M140.64,321.41c0,0,1.44,19.52,3.18,21.71c1.73,2.19,9.24,0.96,9.24,0.96s1.01-27.4-3.39-30.11
				C145.26,311.25,140.64,321.41,140.64,321.41z"/>
			<g>
				<path class="st26" d="M110.33,260.88c0,0-1.81-0.59-3.14,0.72c-1.34,1.31-2.14,2.89-2.14,2.89l0.27-3.81l3.95-2.1L110.33,260.88
					z"/>
				<g>
					<path class="st27" d="M114.07,257.86c0,0,7.69,4.33,10.63,6.37c2.94,2.04,4.35,0.07,4.35,0.07l6.41-3.72l-0.86-2.64l-6.62,4.73
						c0,0,0.13,1.51-2.34,0.26s-11.17-6.56-11.17-6.56s-2.41,0.13-3.34,0.53c-0.94,0.39-3.41,1.12-4.08,1.05
						c-0.67-0.07-2.74,2.36-3.28,2.43l0.33,5.78c0,0,0.87,0.98,1.2-1.05c0.33-2.04-0.33-4,1.81-5.12c2.14-1.12,2.74-0.72,1.81,0.98
						c-0.94,1.71-1.54,2.04-1.54,2.04s0.18,0.57,0.97,0.26c1-1.43,2.76-4.51,3.17-4.86C112.07,257.92,114.07,257.86,114.07,257.86z"
						/>
					<path class="st26" d="M129.05,264.29c0,0-1.4,1.97-4.35-0.07c-2.94-2.04-10.63-6.37-10.63-6.37s-2.01,0.07-2.54,0.53
						c-0.41,0.35-2.17,3.43-3.17,4.86c0.28-0.11,0.64-0.33,1.1-0.72c1.74-1.51,3.54-3.02,5.88-0.92c2.34,2.1,9.7,6.56,9.7,6.56
						s3.41,2.1,4.21,1.31c0.8-0.79,7.56-4.79,7.56-4.79l-1.34-4.12L129.05,264.29z"/>
				</g>
			</g>
			<g>
				<path class="st28" d="M189.19,260.59c-1.2-1.38-2.47-1.31-2.47-1.31l-6.82,2.89c0,0-3.08,1.25-3.48,1.31
					c-0.28,0.05-4.5-2.59-6.95-4.14l-2.21,3.62c0,0,0.47,0.53,5.02,3.15c4.55,2.63,9.9-0.92,11.1-1.38c1.2-0.46,4.48-3.61,4.48-3.61
					s2.21,1.05,3.54,2.43c0.48,0.49,0.86,0.58,1.16,0.49C191.53,263.03,189.96,261.48,189.19,260.59z"/>
				<path class="st29" d="M193.81,260.86c0,0-2.27-2.17-2.61-0.92c-0.19,0.69,0.22,1.46,0.79,1.95c-0.2-0.32-0.08-0.66,0.15-0.77
					c0.67-0.33,3.14,2.43,5.35,3.87c0.55,0.36,0.93,0.48,1.19,0.47C197.1,264.05,193.81,260.86,193.81,260.86z"/>
				<linearGradient id="SVGID_11_" gradientUnits="userSpaceOnUse" x1="179.067" y1="253.068" x2="189.1335" y2="270.908">
					<stop  offset="0.0223" style="stop-color:#FFE0FF"/>
					<stop  offset="1" style="stop-color:#FACAFD"/>
				</linearGradient>
				<path class="st30" d="M191.2,259.94c0.33-1.25,2.61,0.92,2.61,0.92s3.3,3.2,4.87,4.6c0.81-0.05-0.22-1.12-0.22-1.12
					s-1.87-1.97-2.41-3.15c-0.53-1.18-1.5-2.23-1.5-2.23s-7.39-1.43-7.65-1.33s-2.18,1.46-2.18,1.46s-7.89,3.02-8.36,3.15
					c-0.47,0.13-6.09-4.2-6.09-4.2l-0.8,1.31c2.45,1.55,6.67,4.19,6.95,4.14c0.4-0.07,3.48-1.31,3.48-1.31l6.82-2.89
					c0,0,1.27-0.07,2.47,1.31c0.77,0.88,2.34,2.44,3.37,3.45c0.53-0.16,0.25-0.79,0.25-0.79s-0.38-0.69-0.75-1.28
					C191.48,261.48,191.01,260.63,191.2,259.94z"/>
			</g>
			<path class="st31" d="M141.08,326.55c0.18,1.84,1.47,2.64,5.2,2.34c4.01-0.33,6.88-4.34,7.9-6.53c0.83-1.8,4.94-8.25,4.94-8.25
				l-0.74-4.93L141.08,326.55z"/>
			<g>
				<g>
					<g>
						<path class="st24" d="M153.36,249.05c-2.25-0.64-4.06-1.93-5.2-2.93c0.02,1.25-0.8,2.85-2.16,4.61c0,0,2.9,2.35,5.76,2
							c1.57-0.19,3.16-1.02,4.28-1.73C155.48,250.16,154.64,249.42,153.36,249.05z"/>
						<path class="st32" d="M154.07,243.36c0-1.31-6.33,0.61-6.33,0.61s0.39,0.84,0.41,2.14c1.15,1.01,2.95,2.29,5.2,2.93
							c1.29,0.36,2.13,1.11,2.68,1.95c0.91-0.58,1.51-1.07,1.51-1.07S154.07,244.67,154.07,243.36z"/>
					</g>
					<g>
						<path class="st33" d="M146.14,231.03c0.05,0.19,0.14,0.59,0.17,1.15c0.11-0.14,0.18-0.23,0.19-0.24
							C146.37,231.67,146.25,231.37,146.14,231.03z"/>
						<path class="st33" d="M154.69,235.83c0.29,0.66,0.51,1.33,0.67,1.98c0.24,0.4,0.44,0.84,0.59,1.35
							c-0.26-1.66-0.93-2.97-0.93-2.97S154.89,236.04,154.69,235.83z"/>
						<path class="st34" d="M151.62,233.82c-1.21,0-3.62,1.36-5.13-1.88c-0.01,0.01-0.08,0.09-0.19,0.24
							c0.04,0.94-0.1,2.35-0.88,4.09c-0.24,0.54-0.38,1.07-0.43,1.58c0.84-1.49,1.93-3.45,2.04-3.76c0.18-0.53-0.18,0.53,1.52,0.53
							c1.44,0,5.13,0.44,6.81,3.2c-0.16-0.64-0.38-1.32-0.67-1.98C154.06,235.18,152.64,233.82,151.62,233.82z"/>
						<linearGradient id="SVGID_12_" gradientUnits="userSpaceOnUse" x1="144.1535" y1="240.291" x2="155.7254" y2="240.291">
							<stop  offset="0.0223" style="stop-color:#FFE0FF"/>
							<stop  offset="1" style="stop-color:#FFF1FF"/>
						</linearGradient>
						<path class="st35" d="M148.55,234.61c-1.69,0-1.34-1.05-1.52-0.53c-0.11,0.32-1.2,2.27-2.04,3.76
							c-0.27,2.59,1.72,4.7,4.18,5.25c2.94,0.66,3.34,1.58,3.34,1.58s-4.08-1.29-4.85-0.2c0.48,0.38,1.03,0.76,1.64,1.12
							c0,0,0.94,1.05,2.81,1.05c1.87,0,3.61-3.28,3.61-6.17c0-0.67-0.11-1.63-0.37-2.66C153.68,235.05,149.99,234.61,148.55,234.61z
							"/>
						<linearGradient id="SVGID_13_" gradientUnits="userSpaceOnUse" x1="137.631" y1="246.3773" x2="196.2754" y2="246.3773">
							<stop  offset="0.0223" style="stop-color:#B2099D"/>
							<stop  offset="1" style="stop-color:#DD38B7"/>
						</linearGradient>
						<path class="st36" d="M141.25,244.12c0.65,1.08,1.07,2.23,1.07,2.23s-0.21,1.59,0.84,2.28c-0.12-0.2-0.23-0.57-0.31-1.24
							C142.64,245.83,142.12,245.12,141.25,244.12z"/>
						<linearGradient id="SVGID_14_" gradientUnits="userSpaceOnUse" x1="137.631" y1="230.8952" x2="196.2754" y2="230.8952">
							<stop  offset="0.0223" style="stop-color:#B2099D"/>
							<stop  offset="1" style="stop-color:#DD38B7"/>
						</linearGradient>
						<path class="st37" d="M146.05,230.76c0.03,0.1,0.06,0.18,0.09,0.27c-0.03-0.09-0.04-0.14-0.04-0.14L146.05,230.76z"/>
						<linearGradient id="SVGID_15_" gradientUnits="userSpaceOnUse" x1="144.1549" y1="235.6767" x2="155.7268" y2="235.6767">
							<stop  offset="0.0223" style="stop-color:#FFE0FF"/>
							<stop  offset="1" style="stop-color:#FFF1FF"/>
						</linearGradient>
						<path class="st38" d="M145.43,236.27c0.78-1.75,0.92-3.15,0.88-4.09c-0.63,0.83-2.59,3.7-2.06,7
							c0.18-0.32,0.45-0.79,0.75-1.33C145.05,237.34,145.19,236.81,145.43,236.27z"/>
						<linearGradient id="SVGID_16_" gradientUnits="userSpaceOnUse" x1="144.1535" y1="233.6718" x2="155.7254" y2="233.6718">
							<stop  offset="0.0223" style="stop-color:#FFE0FF"/>
							<stop  offset="1" style="stop-color:#FFF1FF"/>
						</linearGradient>
						<path class="st39" d="M151.62,233.82c1.01,0,2.43,1.36,3.06,2.01c-1.23-2.83-3.7-5.36-8.19-3.89c0,0,0,0,0,0
							C148,235.18,150.41,233.82,151.62,233.82z"/>
						<linearGradient id="SVGID_17_" gradientUnits="userSpaceOnUse" x1="144.1535" y1="241.2623" x2="155.7254" y2="241.2623">
							<stop  offset="0.0223" style="stop-color:#FFE0FF"/>
							<stop  offset="1" style="stop-color:#FFF1FF"/>
						</linearGradient>
						<path class="st40" d="M152.52,244.68c0,0-0.4-0.92-3.34-1.58c-2.46-0.55-4.45-2.66-4.18-5.25c-0.3,0.53-0.57,1.01-0.75,1.33
							c0.27,1.73,1.23,3.57,3.42,5.3C148.44,243.38,152.52,244.68,152.52,244.68z"/>
						<linearGradient id="SVGID_18_" gradientUnits="userSpaceOnUse" x1="90.7633" y1="228.3611" x2="506.472" y2="228.3611">
							<stop  offset="0.0223" style="stop-color:#B2099D"/>
							<stop  offset="1" style="stop-color:#DD38B7"/>
						</linearGradient>
						<path class="st41" d="M188.49,208.17c-4.01,0.79-7.76,2.63-9.09,3.94c-1.34,1.31-8.02,7.48-9.63,8.4
							c-1.6,0.92-3.48-0.39-8.29,3.02c-4.81,3.41-6.02,0-12.84,1.18c-6.82,1.18-3.51,2.66-8.12,7.25s-2.67,9.95-1.1,10.34
							c0.16,0.04,0.32,0.12,0.48,0.22c-0.15-0.19-0.31-0.39-0.48-0.61c-2.01-2.67-0.45-5.03-0.13-5.78c0.31-0.74,4.1-6.26,4.1-6.26
							c0.36,1.05-3.66,6.87-3.97,9.28c-0.31,2.41,2.18,2.54,3.3,4.95c1.11,2.41,1.11,4.29,1.11,4.29s-0.15,0.32-0.34,0.4
							c0.57,0.22,1.59,0.88,2.81,0.47c4.28-1.44,1.64-2.36,2.04-3.81c0.02-0.08-0.41-0.89-0.37-0.95c0.77-1.09,4.55,0.17,4.55,0.17
							s-0.4-0.92-3.34-1.58c-2.46-0.55-4.45-2.66-4.18-5.25c0.05-0.51,0.19-1.04,0.43-1.58c0.78-1.75,1.11-3,1.07-3.94l-0.01-0.35
							l0.01-0.04c1.51,3.24,3.92,1.88,5.13,1.88c1.01,0,2.43,1.36,3.06,2.01c-1-2.3-2.82-4.4-5.87-4.32
							c3.06-0.08,4.87,2.03,5.87,4.32c0.2,0.21,0.2,0.37,0.2,0.37s0.47,1.3,0.74,2.95c0.18,1.14,0.16,2.53-0.4,3.68
							c-2.11,4.33,1.17,5.25,3.58,4.2c2.41-1.05,17.25-3.41,20.6-11.29c3.34-7.88,10.03-9.85,10.03-9.85
							c-2.67-0.26-9.76,4.73-9.76,4.73s1.47-9.32,6.95-11.42s9.23-7.09,9.63-9.98C196.65,206.34,192.5,207.39,188.49,208.17z
							 M177.21,219.03c-0.31,3.85-2.72,4.11-3.79,4.68c-1.07,0.57-3.61,2.14-5.13,2.28c-1.52,0.13-4.06,2.36-4.06,2.36
							s0.22-0.44,2.1-2.06c1.87-1.62,8.11-3.98,9.18-4.73C176.59,220.82,177.21,219.03,177.21,219.03z M143.15,243.36
							c-3.08-1.4-2.63-5.95-1.38-7.48c1.25-1.53,3.25-5.78,3.25-5.78c0.31,0.96-1.74,7.7-1.92,9.32c-0.18,1.62,3.52,5.43,3.52,5.43
							S146.23,244.76,143.15,243.36z M144.71,228.09c0,0,2.41,0.74,4.68-0.74c2.27-1.49,5.48-0.66,8.11-0.79
							c2.63-0.13,2.36,0.09,4.73-2.32c2.36-2.41,4.86-1.79,6.2-1.93c1.34-0.13,4.41-1.79,4.41-1.79c-0.04,0.88-3.3,3.28-5.22,3.41
							c-1.92,0.13-3.48,0.92-4.95,1.4c-1.47,0.48-1.29,1.23-1.74,1.88c-0.45,0.66-2.76,0.31-5.57,0.26
							c-2.81-0.04-3.92,0.26-5.62,1.27C148.06,229.75,144.71,228.09,144.71,228.09z M150.38,231.06c0,0,1.16-0.57,5.93,1.01
							c4.77,1.58,7.58,0.7,8.07,0.26c0.49-0.44,4.01-3.33,4.41-3.85s5.66-3.94,6.33-3.46c0,0-3.12,2.14-4.46,3.98
							c-1.34,1.84-3.3,6.08-6.87,5.95C160.23,234.83,152.78,233.08,150.38,231.06z M157.28,237.52c-0.11-0.18-0.15-0.36-0.08-0.54
							C157.2,236.97,157.2,237.19,157.28,237.52c0.47,0.79,2.24,1.51,2.24,1.51c2.36,2.06,8.78-1.23,10.08-3.76
							c1.29-2.54,2.94-3.72,2.94-3.72s-1.83,2.54-1.92,3.72c-0.09,1.18-3.83,4.46-4.59,4.9c-0.76,0.44-4.95,0.35-6.87-0.39
							C157.87,239.27,157.43,238.18,157.28,237.52z M175.39,233.25c-0.67,1.14-1.25,4.68-2.41,6.92c-1.16,2.23-6.2,3.41-10.97,3.59
							c-1.83,0.07-2.81,0.29-3.32,0.55c-0.2,0.26-0.36,0.55-0.46,0.9c0,0-0.37-0.48,0.46-0.9c1.51-1.91,5.6-1.59,10.32-3.13
							c5.35-1.75,4.5-6.35,5.48-8.8c0.98-2.45,4.99-7.22,4.99-7.22S176.05,232.11,175.39,233.25z"/>
						<path class="st42" d="M155.37,227.48c2.81,0.04,5.13,0.39,5.57-0.26c0.45-0.66,0.27-1.4,1.74-1.88
							c1.47-0.48,3.03-1.27,4.95-1.4c1.92-0.13,5.17-2.54,5.22-3.41c0,0-3.08,1.66-4.41,1.79c-1.34,0.13-3.83-0.48-6.2,1.93
							c-2.36,2.41-2.1,2.19-4.73,2.32s-5.84-0.7-8.11,0.79c-2.27,1.49-4.68,0.74-4.68,0.74s3.34,1.66,5.04,0.66
							C151.45,227.74,152.56,227.43,155.37,227.48z"/>
						<path class="st43" d="M164.24,228.35c0,0,2.54-2.23,4.06-2.36s4.06-1.71,5.13-2.28c1.07-0.57,3.48-0.83,3.79-4.68
							c0,0-0.62,1.79-1.69,2.54c-1.07,0.74-7.31,3.11-9.18,4.73C164.46,227.91,164.24,228.35,164.24,228.35z"/>
						<path class="st43" d="M170.66,229.01c1.34-1.84,4.46-3.98,4.46-3.98c-0.67-0.48-5.93,2.93-6.33,3.46
							c-0.4,0.53-3.92,3.41-4.41,3.85c-0.49,0.44-3.3,1.31-8.07-0.26c-4.77-1.58-5.93-1.01-5.93-1.01c2.41,2.01,9.85,3.76,13.42,3.9
							C167.36,235.09,169.32,230.85,170.66,229.01z"/>
						<path class="st43" d="M157.28,237.52c-0.07-0.32-0.08-0.54-0.08-0.54C157.13,237.15,157.17,237.34,157.28,237.52z"/>
						<path class="st43" d="M166.02,240.17c0.76-0.44,4.5-3.72,4.59-4.9c0.09-1.18,1.92-3.72,1.92-3.72s-1.65,1.18-2.94,3.72
							c-1.29,2.54-7.71,5.82-10.08,3.76c0,0-1.77-0.73-2.24-1.51c0.15,0.66,0.59,1.76,1.88,2.26
							C161.07,240.52,165.27,240.61,166.02,240.17z"/>
						<path class="st43" d="M169.01,241.17c-4.72,1.54-8.81,1.22-10.32,3.13c0.52-0.25,1.5-0.48,3.32-0.55
							c4.77-0.18,9.81-1.36,10.97-3.59c1.16-2.23,1.74-5.78,2.41-6.92c0.67-1.14,4.1-8.1,4.1-8.1s-4.01,4.77-4.99,7.22
							C173.51,234.83,174.36,239.42,169.01,241.17z"/>
						<path class="st43" d="M158.22,245.2c0.1-0.35,0.26-0.64,0.46-0.9C157.85,244.72,158.22,245.2,158.22,245.2z"/>
						<path class="st43" d="M141.77,235.88c-1.25,1.53-1.69,6.08,1.38,7.48c3.08,1.4,3.48,1.49,3.48,1.49s-3.7-3.81-3.52-5.43
							c0.18-1.62,2.23-8.36,1.92-9.32C145.03,230.1,143.02,234.35,141.77,235.88z"/>
						<path class="st43" d="M139.89,242.53c0.52,0.65,0.98,1.15,1.36,1.59C140.86,243.48,140.39,242.87,139.89,242.53z"/>
						<path class="st43" d="M143.48,248.8c-0.12-0.05-0.23-0.1-0.33-0.17C143.27,248.82,143.38,248.84,143.48,248.8z"/>
						<path class="st43" d="M143.82,248.4c0,0,0-1.88-1.11-4.29c-1.11-2.41-3.61-2.54-3.3-4.95c0.31-2.41,4.32-8.23,3.97-9.28
							c0,0-3.79,5.51-4.1,6.26c-0.31,0.74-1.87,3.11,0.13,5.78c0.17,0.22,0.32,0.42,0.48,0.61c0.51,0.33,0.97,0.95,1.36,1.59
							c0.87,1,1.4,1.71,1.59,3.27c0.09,0.67,0.2,1.05,0.31,1.24c0.1,0.06,0.21,0.12,0.33,0.17
							C143.67,248.72,143.82,248.4,143.82,248.4z"/>
					</g>
				</g>
				<g>
					<linearGradient id="SVGID_19_" gradientUnits="userSpaceOnUse" x1="142.7077" y1="255.9257" x2="170.3343" y2="255.9257">
						<stop  offset="0.0782" style="stop-color:#FFE0FF"/>
						<stop  offset="1" style="stop-color:#FFFFFF"/>
					</linearGradient>
					<path class="st44" d="M160.17,256.9l8.46,5.06c0.88-1.83,1.7-3.61,1.7-3.79c0-0.39-4.28-5.12-6.02-5.12
						c-1.74,0-6.82-3.15-6.82-3.15s-3.21,2.63-5.97,2.54c-2.76-0.09-5.53-1.84-5.53-1.84s-1.75,0.36-3.29,0.91
						c1.42,0.33,2.78,0.7,3.55,1.01C148.4,253.39,160.17,256.9,160.17,256.9z"/>
					<linearGradient id="SVGID_20_" gradientUnits="userSpaceOnUse" x1="199.4712" y1="304.3401" x2="200.1136" y2="304.3401">
						<stop  offset="0.0223" style="stop-color:#FFE0FF"/>
						<stop  offset="1" style="stop-color:#EE98F9"/>
					</linearGradient>
					<path class="st45" d="M199.47,303.34c0.42,1.19,0.64,2.01,0.64,2.01C200.05,304.71,199.83,304.03,199.47,303.34z"/>
					<linearGradient id="SVGID_21_" gradientUnits="userSpaceOnUse" x1="135.7446" y1="256.1088" x2="159.498" y2="298.2052">
						<stop  offset="0.0223" style="stop-color:#FFE0FF"/>
						<stop  offset="1" style="stop-color:#FACAFD"/>
					</linearGradient>
					<path class="st46" d="M189.95,295.76c0,0-5.35,1.58-7.31,5.08c-1.96,3.5-6.42,0-7.67,0c-1.25,0-8.74,0.35-11.23-2.63
						c0,0-8.92-6.13-9.63-13.48c-0.71-7.35,1.78-11.38,1.78-11.38l5.75-13.09l4.95,5.91c0,0,1.05-2.14,2.04-4.22l-8.46-5.06
						c0,0-11.77-3.5-13.91-4.38c-0.77-0.32-2.13-0.68-3.55-1.01c-0.87,0.31-1.68,0.69-2.06,1.1c-1.07,1.14-6.78,5.78-6.78,5.78
						l2.16,6.58c1.73-1.25,3.78-2.93,3.99-3.87c0.36-1.58,3.21-8.05,3.21-8.05s2.67,2.45,3.39,4.55c0.71,2.1,2.67,10.85-0.89,17.16
						c0,0,0.53,5.95-0.53,7.88c-1.07,1.93-5.35,16.11-5.88,18.21c-0.44,1.71-1.11,18.06,0.3,25.86c4.62,0.26,12.03,1.81,15.75-8.18
						c4.64-12.43,17.48-17.68,20.15-12.95c0,0,3.74,8.93,6.78,2.45c3.03-6.48,8.02-11.9,11.59-9.98c0.87,0.47,1.67,1.01,2.39,1.58
						C195.18,297.72,193.28,296.09,189.95,295.76z"/>
					<linearGradient id="SVGID_22_" gradientUnits="userSpaceOnUse" x1="125.4449" y1="272.8835" x2="139.9985" y2="297.2706">
						<stop  offset="0.0223" style="stop-color:#FFE0FF"/>
						<stop  offset="1" style="stop-color:#EE98F9"/>
					</linearGradient>
					<path class="st47" d="M139.31,300.84c0.53-2.1,4.81-16.28,5.88-18.21c1.07-1.93,0.53-7.88,0.53-7.88
						c3.57-6.3,1.6-15.06,0.89-17.16c-0.71-2.1-3.39-4.55-3.39-4.55s-2.85,6.48-3.21,8.05c-0.21,0.94-2.26,2.62-3.99,3.87l0.43,1.3
						l4.46-3.85l3.92,14.44c0,0-5.35,13.65-9.09,17.68c-3.74,4.03-5.88,40.09-2.5,42.19c0,0,0-8.4,3.57-9.8
						c0.7-0.28,1.66-0.29,2.79-0.22C138.2,318.9,138.87,302.55,139.31,300.84z"/>
					<linearGradient id="SVGID_23_" gradientUnits="userSpaceOnUse" x1="153.9791" y1="281.8008" x2="199.4712" y2="281.8008">
						<stop  offset="0.0223" style="stop-color:#FFE0FF"/>
						<stop  offset="1" style="stop-color:#EE98F9"/>
					</linearGradient>
					<path class="st48" d="M199.47,303.34c-1.14-3.22-3.77-9.2-7.6-9.46c-5.26-0.35-9.58,1.62-10.52,3.76c0,0-14.4-3.68-15.78-6.21
						c-1.38-2.54-4.24-4.99-4.64-9.06s-1.56-5.69-1.56-5.69l1.07-6.83l1.2-9.58l-5.75,13.09c0,0-2.5,4.03-1.78,11.38
						c0.71,7.35,9.63,13.48,9.63,13.48c2.5,2.98,9.99,2.63,11.23,2.63c1.25,0,5.71,3.5,7.67,0c1.96-3.5,7.31-5.08,7.31-5.08
						c3.33,0.33,5.23,1.97,6.32,3.86C197.71,300.76,198.82,302.07,199.47,303.34z"/>
				</g>
			</g>
			<g>
				<linearGradient id="SVGID_24_" gradientUnits="userSpaceOnUse" x1="75.9596" y1="270.0716" x2="77.8" y2="285.9782">
					<stop  offset="0.0223" style="stop-color:#C29AEA"/>
					<stop  offset="0.3883" style="stop-color:#FCBAE1"/>
					<stop  offset="0.7905" style="stop-color:#EC50F9"/>
					<stop  offset="1" style="stop-color:#C243F1"/>
				</linearGradient>
				<path class="st49" d="M83.08,269.02l-10.57-0.53c0,0-4.28,8.4-2.14,13.39h4.15l0.27,3.55l8.43,0.13
					C83.21,285.57,75.46,280.31,83.08,269.02z"/>
				<linearGradient id="SVGID_25_" gradientUnits="userSpaceOnUse" x1="72.7311" y1="282.0624" x2="73.1466" y2="285.6536">
					<stop  offset="0.0223" style="stop-color:#C29AEA"/>
					<stop  offset="0.3883" style="stop-color:#FCBAE1"/>
					<stop  offset="0.7905" style="stop-color:#EC50F9"/>
					<stop  offset="1" style="stop-color:#C243F1"/>
				</linearGradient>
				<path class="st50" d="M70.38,281.89l4.55-0.13l0.53,3.68C75.46,285.43,71.71,284.12,70.38,281.89z"/>
				<path class="st51" d="M78.56,273.71l-4.82-0.18c-0.18-0.01-0.32-0.16-0.31-0.33v0c0.01-0.18,0.16-0.31,0.34-0.31l4.82,0.18
					c0.18,0.01,0.32,0.16,0.31,0.33l0,0C78.9,273.58,78.74,273.72,78.56,273.71z"/>
				<path class="st51" d="M77.83,278.05l-4.37-0.17c-0.18-0.01-0.32-0.16-0.31-0.33l0,0c0.01-0.18,0.16-0.31,0.34-0.31l4.37,0.17
					c0.18,0.01,0.32,0.16,0.31,0.33l0,0C78.17,277.91,78.01,278.05,77.83,278.05z"/>
				<path class="st51" d="M78.93,271.89l-4.82-0.18c-0.18-0.01-0.32-0.16-0.31-0.33l0,0c0.01-0.18,0.16-0.31,0.34-0.31l4.82,0.18
					c0.18,0.01,0.32,0.16,0.31,0.33l0,0C79.27,271.75,79.11,271.89,78.93,271.89z"/>
				<path class="st51" d="M78.18,275.96l-2.14-0.08c-0.18-0.01-0.32-0.16-0.31-0.33l0,0c0.01-0.18,0.16-0.31,0.34-0.31l2.14,0.08
					c0.18,0.01,0.32,0.16,0.31,0.33l0,0C78.51,275.83,78.36,275.97,78.18,275.96z"/>
				<path class="st51" d="M77.72,280.14l-1.02-0.04c-0.18-0.01-0.32-0.16-0.31-0.33l0,0c0.01-0.18,0.16-0.31,0.34-0.31l1.02,0.04
					c0.18,0.01,0.32,0.16,0.31,0.33l0,0C78.05,280,77.89,280.14,77.72,280.14z"/>
			</g>
			<g>
				
					<linearGradient id="SVGID_26_" gradientUnits="userSpaceOnUse" x1="5735.4673" y1="-1501.9935" x2="5736.9243" y2="-1489.4032" gradientTransform="matrix(-0.8464 0.5326 0.5326 0.8464 5862.6177 -1537.0432)">
					<stop  offset="0.0223" style="stop-color:#C29AEA"/>
					<stop  offset="0.3883" style="stop-color:#FCBAE1"/>
					<stop  offset="0.7905" style="stop-color:#EC50F9"/>
					<stop  offset="1" style="stop-color:#C243F1"/>
				</linearGradient>
				<path class="st52" d="M202.5,248.82l7.5-4.73c0,0,7.08,3.86,7.86,8.09l-3.04,1.72l1.47,2.49l-6.11,3.58
					C210.17,259.97,213.39,253.23,202.5,248.82z"/>
				
					<linearGradient id="SVGID_27_" gradientUnits="userSpaceOnUse" x1="5732.3916" y1="-1492.0941" x2="5732.7109" y2="-1489.3362" gradientTransform="matrix(-0.8464 0.5326 0.5326 0.8464 5862.6177 -1537.0432)">
					<stop  offset="0.0223" style="stop-color:#C29AEA"/>
					<stop  offset="0.3883" style="stop-color:#FCBAE1"/>
					<stop  offset="0.7905" style="stop-color:#EC50F9"/>
					<stop  offset="1" style="stop-color:#C243F1"/>
				</linearGradient>
				<path class="st53" d="M217.85,252.19l-3.39,1.8l1.33,2.69C215.79,256.67,217.92,254.24,217.85,252.19z"/>
				<path class="st51" d="M208.01,250.09l3.44-2.12c0.13-0.08,0.16-0.24,0.07-0.35l0,0c-0.09-0.12-0.26-0.14-0.39-0.07l-3.44,2.12
					c-0.13,0.08-0.16,0.24-0.07,0.35l0,0C207.7,250.14,207.88,250.17,208.01,250.09z"/>
				<path class="st51" d="M210.58,252.7l3.12-1.92c0.13-0.08,0.16-0.24,0.07-0.35l0,0c-0.09-0.12-0.26-0.14-0.39-0.07l-3.12,1.92
					c-0.13,0.08-0.16,0.24-0.07,0.35l0,0C210.28,252.75,210.45,252.78,210.58,252.7z"/>
				<path class="st51" d="M206.88,249.02l3.44-2.12c0.13-0.08,0.16-0.24,0.07-0.35l0,0c-0.09-0.12-0.26-0.14-0.39-0.07l-3.44,2.12
					c-0.13,0.08-0.16,0.24-0.07,0.35l0,0C206.58,249.07,206.75,249.1,206.88,249.02z"/>
				<path class="st51" d="M209.35,251.44l1.53-0.94c0.13-0.08,0.16-0.24,0.07-0.35l0,0c-0.09-0.12-0.26-0.14-0.39-0.07l-1.53,0.94
					c-0.13,0.08-0.16,0.24-0.07,0.35l0,0C209.05,251.49,209.22,251.52,209.35,251.44z"/>
				<path class="st51" d="M211.65,254.05l0.73-0.45c0.13-0.08,0.16-0.24,0.07-0.35l0,0c-0.09-0.12-0.26-0.14-0.39-0.07l-0.73,0.45
					c-0.13,0.08-0.16,0.24-0.07,0.35l0,0C211.34,254.1,211.52,254.13,211.65,254.05z"/>
			</g>
			<g>
				
					<linearGradient id="SVGID_28_" gradientUnits="userSpaceOnUse" x1="4580.4312" y1="-2874.4436" x2="4581.8354" y2="-2862.3069" gradientTransform="matrix(-0.4782 0.8783 0.8783 0.4782 4860.9434 -2447.8596)">
					<stop  offset="0.0223" style="stop-color:#C29AEA"/>
					<stop  offset="0.3883" style="stop-color:#FCBAE1"/>
					<stop  offset="0.7905" style="stop-color:#EC50F9"/>
					<stop  offset="1" style="stop-color:#C243F1"/>
				</linearGradient>
				<path class="st54" d="M142.25,205.81l4.4-8.47c0,0,7.71-0.46,10.17,2.94l-1.87,3.25l2.32,1.43l-3.71,6.65
					C153.57,211.62,153.45,203.73,142.25,205.81z"/>
				
					<linearGradient id="SVGID_29_" gradientUnits="userSpaceOnUse" x1="4577.229" y1="-2865.1611" x2="4577.5449" y2="-2862.4329" gradientTransform="matrix(-0.4782 0.8783 0.8783 0.4782 4860.9434 -2447.8596)">
					<stop  offset="0.0223" style="stop-color:#C29AEA"/>
					<stop  offset="0.3883" style="stop-color:#FCBAE1"/>
					<stop  offset="0.7905" style="stop-color:#EC50F9"/>
					<stop  offset="1" style="stop-color:#C243F1"/>
				</linearGradient>
				<path class="st55" d="M156.83,200.29l-2.14,3.52l2.29,1.69C156.97,205.5,157.76,202.11,156.83,200.29z"/>
				<path class="st51" d="M147.51,203.89l2.05-3.84c0.08-0.14,0.04-0.31-0.09-0.36l0,0c-0.12-0.06-0.29,0.02-0.36,0.16l-2.05,3.84
					c-0.08,0.14-0.04,0.31,0.09,0.36l0,0C147.27,204.1,147.44,204.03,147.51,203.89z"/>
				<path class="st51" d="M150.82,204.81l1.86-3.48c0.08-0.14,0.04-0.31-0.09-0.36l0,0c-0.12-0.06-0.29,0.02-0.36,0.16l-1.86,3.48
					c-0.08,0.14-0.04,0.31,0.09,0.36l0,0C150.58,205.02,150.74,204.95,150.82,204.81z"/>
				<path class="st51" d="M146.09,203.55l2.05-3.84c0.08-0.14,0.04-0.31-0.09-0.36l0,0c-0.12-0.06-0.29,0.02-0.36,0.16l-2.05,3.84
					c-0.08,0.14-0.04,0.31,0.09,0.36l0,0C145.85,203.76,146.01,203.69,146.09,203.55z"/>
				<path class="st51" d="M149.23,204.36l0.91-1.7c0.08-0.14,0.04-0.31-0.09-0.36l0,0c-0.12-0.06-0.29,0.02-0.36,0.16l-0.91,1.7
					c-0.08,0.14-0.04,0.31,0.09,0.36l0,0C148.99,204.57,149.16,204.5,149.23,204.36z"/>
				<path class="st51" d="M152.31,205.44l0.43-0.81c0.08-0.14,0.04-0.31-0.09-0.36l0,0c-0.12-0.06-0.29,0.02-0.36,0.16l-0.43,0.81
					c-0.08,0.14-0.04,0.31,0.09,0.36l0,0C152.07,205.65,152.24,205.58,152.31,205.44z"/>
			</g>
			<g class="st56">
				
					<linearGradient id="SVGID_30_" gradientUnits="userSpaceOnUse" x1="5110.4072" y1="2344.8669" x2="5113.0171" y2="2367.4226" gradientTransform="matrix(-0.7007 -0.7135 -0.7135 0.7007 5488.2793 2312.0803)">
					<stop  offset="0.0223" style="stop-color:#C29AEA"/>
					<stop  offset="0.3883" style="stop-color:#FCBAE1"/>
					<stop  offset="0.7905" style="stop-color:#EC50F9"/>
					<stop  offset="1" style="stop-color:#C243F1"/>
				</linearGradient>
				<path class="st57" d="M228.35,300.01l11.12,10.91c0,0-4.12,13.43-11.25,16.34l-4.16-4.49l-3.81,3.42l-8.58-9
					C211.67,317.18,224.69,320.09,228.35,300.01z"/>
				
					<linearGradient id="SVGID_31_" gradientUnits="userSpaceOnUse" x1="5105.2065" y1="2362.3289" x2="5105.7852" y2="2367.3271" gradientTransform="matrix(-0.7007 -0.7135 -0.7135 0.7007 5488.2793 2312.0803)">
					<stop  offset="0.0223" style="stop-color:#C29AEA"/>
					<stop  offset="0.3883" style="stop-color:#FCBAE1"/>
					<stop  offset="0.7905" style="stop-color:#EC50F9"/>
					<stop  offset="1" style="stop-color:#C243F1"/>
				</linearGradient>
				<path class="st58" d="M228.21,327.25l-4.43-5.07l-4.21,3.27C219.57,325.45,224.64,328.14,228.21,327.25z"/>
				<path class="st51" d="M228.19,309.81l5.01,5.03c0.19,0.19,0.48,0.18,0.65-0.01l0,0c0.17-0.19,0.16-0.5-0.03-0.69l-5.01-5.03
					c-0.19-0.19-0.48-0.18-0.65,0.01l0,0C227.98,309.31,228,309.63,228.19,309.81z"/>
				<path class="st51" d="M224.58,315.14l4.55,4.56c0.19,0.19,0.48,0.18,0.65-0.01l0,0c0.17-0.19,0.16-0.5-0.03-0.69l-4.55-4.56
					c-0.19-0.19-0.48-0.18-0.65,0.01l0,0C224.38,314.64,224.39,314.95,224.58,315.14z"/>
				<path class="st51" d="M229.64,307.5l5.01,5.03c0.19,0.19,0.48,0.18,0.65-0.01l0,0c0.17-0.19,0.16-0.5-0.03-0.69l-5.01-5.03
					c-0.19-0.19-0.48-0.18-0.65,0.01l0,0C229.44,307,229.45,307.31,229.64,307.5z"/>
				<path class="st51" d="M226.32,312.59l2.22,2.23c0.19,0.19,0.48,0.18,0.65-0.01l0,0c0.17-0.19,0.16-0.5-0.03-0.69l-2.22-2.23
					c-0.19-0.19-0.48-0.18-0.65,0.01l0,0C226.12,312.09,226.13,312.4,226.32,312.59z"/>
				<path class="st51" d="M222.61,317.46l1.06,1.07c0.19,0.19,0.48,0.18,0.65-0.01l0,0c0.17-0.19,0.16-0.5-0.03-0.69l-1.06-1.07
					c-0.19-0.19-0.48-0.18-0.65,0.01l0,0C222.41,316.96,222.42,317.27,222.61,317.46z"/>
			</g>
			<g class="st56">
				
					<linearGradient id="SVGID_32_" gradientUnits="userSpaceOnUse" x1="1337.0109" y1="-2090.8003" x2="1339.6276" y2="-2068.1848" gradientTransform="matrix(0.5364 -0.844 0.844 0.5364 1094.2068 2572.0471)">
					<stop  offset="0.0223" style="stop-color:#C29AEA"/>
					<stop  offset="0.3883" style="stop-color:#FCBAE1"/>
					<stop  offset="0.7905" style="stop-color:#EC50F9"/>
					<stop  offset="1" style="stop-color:#C243F1"/>
				</linearGradient>
				<path class="st59" d="M50.92,312.05l-8.55,12.94c0,0,6.88,12.3,14.48,13.67l3.11-5.25l4.46,2.56l6.48-10.56
					C70.89,325.43,58.76,330.94,50.92,312.05z"/>
				
					<linearGradient id="SVGID_33_" gradientUnits="userSpaceOnUse" x1="1331.822" y1="-2073.27" x2="1332.4012" y2="-2068.2646" gradientTransform="matrix(0.5364 -0.844 0.844 0.5364 1094.2068 2572.0471)">
					<stop  offset="0.0223" style="stop-color:#C29AEA"/>
					<stop  offset="0.3883" style="stop-color:#FCBAE1"/>
					<stop  offset="0.7905" style="stop-color:#EC50F9"/>
					<stop  offset="1" style="stop-color:#C243F1"/>
				</linearGradient>
				<path class="st60" d="M56.84,338.67l3.25-5.86l4.82,2.33C64.91,335.14,60.53,338.8,56.84,338.67z"/>
				<path class="st51" d="M53.16,321.61l-3.83,5.95c-0.14,0.22-0.43,0.28-0.63,0.12l0,0c-0.21-0.15-0.26-0.46-0.12-0.68l3.83-5.95
					c0.14-0.22,0.43-0.28,0.63-0.12h0C53.25,321.08,53.31,321.39,53.16,321.61z"/>
				<path class="st51" d="M57.82,326.08l-3.48,5.4c-0.14,0.22-0.43,0.28-0.63,0.12l0,0c-0.21-0.15-0.26-0.46-0.12-0.68l3.48-5.4
					c0.14-0.22,0.43-0.28,0.63-0.12l0,0C57.91,325.55,57.96,325.86,57.82,326.08z"/>
				<path class="st51" d="M51.25,319.65l-3.83,5.95c-0.14,0.22-0.43,0.28-0.63,0.12l0,0c-0.21-0.15-0.26-0.46-0.12-0.68l3.83-5.95
					c0.14-0.22,0.43-0.28,0.63-0.12l0,0C51.34,319.12,51.39,319.42,51.25,319.65z"/>
				<path class="st51" d="M55.58,323.94l-1.7,2.64c-0.14,0.22-0.43,0.28-0.63,0.12l0,0c-0.21-0.15-0.26-0.46-0.12-0.68l1.7-2.64
					c0.14-0.22,0.43-0.28,0.63-0.12h0C55.67,323.41,55.72,323.72,55.58,323.94z"/>
				<path class="st51" d="M60.24,327.94l-0.81,1.26c-0.14,0.22-0.43,0.28-0.63,0.12h0c-0.21-0.15-0.26-0.46-0.12-0.68l0.81-1.26
					c0.14-0.22,0.43-0.28,0.63-0.12l0,0C60.33,327.41,60.39,327.72,60.24,327.94z"/>
			</g>
			<linearGradient id="SVGID_34_" gradientUnits="userSpaceOnUse" x1="133.6677" y1="345.7613" x2="162.0425" y2="345.7613">
				<stop  offset="0.0223" style="stop-color:#2005C4"/>
				<stop  offset="0.2542" style="stop-color:#4726CB"/>
				<stop  offset="0.5335" style="stop-color:#4E48D0"/>
				<stop  offset="0.7849" style="stop-color:#1354CF"/>
				<stop  offset="1" style="stop-color:#0058D0"/>
			</linearGradient>
			<path class="st61" d="M162.04,339.04c0,0-26.73,6.41-28.17,2.54c-1.45-3.87,5.05,13.53,15.65,10.55
				C160.12,349.16,162.04,339.04,162.04,339.04z"/>
			<linearGradient id="SVGID_35_" gradientUnits="userSpaceOnUse" x1="-696.7943" y1="150.3862" x2="569.8712" y2="519.4877">
				<stop  offset="0.0223" style="stop-color:#2008B1"/>
				<stop  offset="0.2542" style="stop-color:#2B14B3"/>
				<stop  offset="0.5084" style="stop-color:#1354CF"/>
				<stop  offset="0.7545" style="stop-color:#381DB5"/>
				<stop  offset="0.8316" style="stop-color:#2F2ABB"/>
				<stop  offset="0.9747" style="stop-color:#184DCC"/>
				<stop  offset="1" style="stop-color:#1354CF"/>
			</linearGradient>
			<path class="st62" d="M203.2,396.27c-0.79,2.22-1.71,4.38-2.75,6.49c6.54,3.98,9.95,7.43,9.23,9.85
				c-0.86,2.9-7.49,3.91-17.99,3.26c-7.03-0.44-15.81-1.62-25.76-3.48c-8.28-1.55-17.37-3.56-26.95-6.01
				c-4.67-1.19-9.45-2.48-14.31-3.88c-9.29-2.66-18.14-5.46-26.32-8.31c-6.11-2.13-11.85-4.27-17.1-6.39
				c-2.15-0.87-4.21-1.73-6.19-2.58c-17.98-7.75-28.86-14.88-27.63-19.04c1.12-3.77,11.99-4.35,28.47-2.23
				c0.43-1.89,0.95-3.75,1.55-5.57c-32.75-6.04-55.74-6.53-57.65-0.1c-2.06,6.95,21.13,20.1,56.53,33.32
				c5.31,1.98,10.9,3.97,16.72,5.94c4.32,1.46,8.76,2.91,13.32,4.34c5.51,1.73,11.18,3.43,16.97,5.09
				c9.85,2.82,19.46,5.34,28.66,7.54c8.21,1.96,16.09,3.67,23.51,5.11c3.64,0.71,7.18,1.35,10.59,1.92
				c29.29,4.94,49.43,4.96,51.21-1.03C238.89,415.16,225.54,406.15,203.2,396.27z"/>
		</g>
	</g>
</g>
</svg>
