<?xml version="1.0" encoding="utf-8"?>
<!-- Generator: Adobe Illustrator 22.0.1, SVG Export Plug-In . SVG Version: 6.00 Build 0)  -->
<svg version="1.1" id="Capa_1" xmlns="http://www.w3.org/2000/svg" xmlns:xlink="http://www.w3.org/1999/xlink" x="0px" y="0px"
	 viewBox="0 0 512 512" style="enable-background:new 0 0 512 512;" xml:space="preserve">
<style type="text/css">
	.st0{fill:#88EAD7;}
	.st1{fill:#DAF2ED;}
	.st2{fill:#FFFFFF;}
	.st3{fill:#1ABC9C;}
</style>
<g>
	<circle class="st0" cx="256" cy="246.15" r="246.15"/>
	<ellipse class="st1" cx="256" cy="246.15" rx="216.61" ry="246.15"/>
	<path class="st2" d="M39.38,246.15C39.38,110.21,136.37,0,256,0C120.05,0,9.85,110.21,9.85,246.15S120.05,492.31,256,492.31
		C136.37,492.31,39.38,382.1,39.38,246.15z"/>
	<g>
		<path class="st3" d="M256,512C114.61,512,0,397.39,0,256S114.61,0,256,0s256,114.61,256,256C511.84,397.32,397.32,511.84,256,512z
			 M256,19.69C125.49,19.69,19.69,125.49,19.69,256S125.49,492.31,256,492.31S492.31,386.51,492.31,256
			C492.16,125.55,386.45,19.84,256,19.69z"/>
		<path class="st3" d="M167.38,354.46c-3.98,0-7.57-2.4-9.1-6.08c-1.52-3.68-0.68-7.91,2.13-10.73l177.23-177.23
			c2.48-2.52,6.12-3.52,9.54-2.62c3.42,0.91,6.09,3.58,7,7s-0.09,7.06-2.62,9.54L174.35,351.58
			C172.5,353.43,170,354.46,167.38,354.46z"/>
		<path class="st3" d="M344.61,354.46c-2.61,0-5.12-1.04-6.96-2.89L160.42,174.35c-3.79-3.85-3.76-10.04,0.06-13.86
			s10.01-3.85,13.86-0.06l177.23,177.23c2.82,2.82,3.66,7.05,2.13,10.73S348.6,354.46,344.61,354.46z"/>
	</g>
</g>
</svg>
