<?xml version="1.0" encoding="utf-8"?>
<!-- Generator: Adobe Illustrator 22.0.1, SVG Export Plug-In . SVG Version: 6.00 Build 0)  -->
<svg version="1.1" id="Layer_1" xmlns="http://www.w3.org/2000/svg" xmlns:xlink="http://www.w3.org/1999/xlink" x="0px" y="0px"
	 viewBox="0 0 3000 2000" style="enable-background:new 0 0 3000 2000;" xml:space="preserve">
<style type="text/css">
	.st0{fill:url(#SVGID_1_);}
	.st1{fill:url(#SVGID_2_);}
	.st2{fill:url(#SVGID_3_);}
	.st3{fill:url(#SVGID_4_);}
	.st4{fill:url(#SVGID_5_);}
	.st5{fill:url(#SVGID_6_);}
	.st6{fill:url(#SVGID_7_);}
	.st7{fill:url(#SVGID_8_);}
	.st8{fill:url(#SVGID_9_);}
	.st9{fill:url(#SVGID_10_);}
	.st10{fill:url(#SVGID_11_);}
	.st11{fill:none;stroke:#BB563D;stroke-miterlimit:10;}
	.st12{fill:#FFFFFF;}
	.st13{fill:none;stroke:#FFFFFF;stroke-width:3;stroke-miterlimit:10;}
	.st14{fill:url(#SVGID_12_);}
	.st15{fill:url(#SVGID_13_);}
	.st16{fill:url(#SVGID_14_);}
	.st17{fill:url(#SVGID_15_);}
	.st18{fill:url(#SVGID_16_);}
	.st19{fill:url(#XMLID_2_);}
	.st20{fill:url(#XMLID_3_);}
	.st21{fill:url(#XMLID_4_);}
	.st22{fill:url(#XMLID_5_);}
	.st23{fill:url(#XMLID_6_);}
	.st24{fill:url(#XMLID_7_);}
	.st25{fill:url(#XMLID_8_);}
	.st26{fill:url(#XMLID_9_);}
	.st27{fill:url(#XMLID_10_);}
	.st28{fill:url(#XMLID_11_);}
	.st29{fill:url(#XMLID_12_);}
	.st30{fill:url(#XMLID_13_);}
	.st31{fill:url(#SVGID_17_);}
	.st32{fill:url(#SVGID_18_);}
	.st33{fill:url(#SVGID_19_);}
	.st34{fill:url(#SVGID_20_);}
	.st35{fill:url(#SVGID_21_);}
	.st36{fill:url(#SVGID_22_);}
	.st37{fill:url(#SVGID_23_);}
	.st38{fill:url(#SVGID_24_);}
	.st39{fill:url(#SVGID_25_);}
	.st40{fill:url(#SVGID_26_);}
	.st41{fill:url(#SVGID_27_);}
	.st42{fill:url(#SVGID_28_);}
</style>
<g>
	<g>
		<g>
			<linearGradient id="SVGID_1_" gradientUnits="userSpaceOnUse" x1="730.9128" y1="1635.573" x2="1070.0391" y2="1635.573">
				<stop  offset="0" style="stop-color:#004578"/>
				<stop  offset="0.5" style="stop-color:#002730"/>
				<stop  offset="1" style="stop-color:#003045"/>
			</linearGradient>
			<path class="st0" d="M1043.85,1927.95c0,0-5.14-157.54-89.06-198.52c0,0-200-79.33-222.52-260.68c0,0-23.26-94.57,122.15-124.4
				c0,0,109.39-27.25,126.24,181.93c0,0-1.86,42.97,28.33,80.05C1009,1606.34,1118.82,1728.03,1043.85,1927.95z"/>
			<linearGradient id="SVGID_2_" gradientUnits="userSpaceOnUse" x1="814.4265" y1="1641.7504" x2="1046.3634" y2="1641.7504">
				<stop  offset="0" style="stop-color:#004578"/>
				<stop  offset="0.5" style="stop-color:#002730"/>
				<stop  offset="1" style="stop-color:#003045"/>
			</linearGradient>
			<path class="st1" d="M1043.85,1927.95c0,0,26.58-220.88-93.22-315.77c-119.8-94.89-136.21-256.64-136.21-256.64"/>
		</g>
		<g>
			<linearGradient id="SVGID_3_" gradientUnits="userSpaceOnUse" x1="582.1102" y1="1958.939" x2="1067.0406" y2="1958.939">
				<stop  offset="0" style="stop-color:#004578"/>
				<stop  offset="0.5" style="stop-color:#002730"/>
				<stop  offset="1" style="stop-color:#003045"/>
			</linearGradient>
			<path class="st2" d="M1067.04,1839.98c0,0-98.49,84.04-169.8,55.77c0,0-158.83-77.54-281.39,9.14c0,0-70.29,38.2-7.94,142.99
				c0,0,43.98,81.49,180.31-24.02c0,0,25.06-24.9,64.28-27.09C852.49,1996.76,987.14,1996.11,1067.04,1839.98z"/>
			<linearGradient id="SVGID_4_" gradientUnits="userSpaceOnUse" x1="592.5627" y1="1928.6848" x2="1067.0406" y2="1928.6848">
				<stop  offset="0" style="stop-color:#004578"/>
				<stop  offset="0.5" style="stop-color:#002730"/>
				<stop  offset="1" style="stop-color:#003045"/>
			</linearGradient>
			<path class="st3" d="M1067.04,1839.98c0,0-119.4,138.35-243.29,118.12c-123.9-20.23-231.18,59.3-231.18,59.3"/>
		</g>
		<g>
			<linearGradient id="SVGID_5_" gradientUnits="userSpaceOnUse" x1="570.4797" y1="1734.1794" x2="1083.834" y2="1734.1794">
				<stop  offset="0" style="stop-color:#004578"/>
				<stop  offset="0.5" style="stop-color:#002730"/>
				<stop  offset="1" style="stop-color:#003045"/>
			</linearGradient>
			<path class="st4" d="M1083.83,1852.44c0,0-137.37-1.06-174.9-73.28c0,0-73.46-172.53-231.96-188.21c0,0-82.9-18.22-105.73,109.12
				c0,0-21.37,95.9,161.25,106.04c0,0,37.4-2.55,70.36,22.95C802.87,1829.06,911.27,1922.1,1083.83,1852.44z"/>
			<linearGradient id="SVGID_6_" gradientUnits="userSpaceOnUse" x1="580.1296" y1="1760.4529" x2="1083.834" y2="1760.4529">
				<stop  offset="0" style="stop-color:#004578"/>
				<stop  offset="0.5" style="stop-color:#002730"/>
				<stop  offset="1" style="stop-color:#003045"/>
			</linearGradient>
			<path class="st5" d="M1083.83,1852.44c0,0-191.87,27.96-277.14-74.36c-85.28-102.32-226.56-113.1-226.56-113.1"/>
		</g>
		<g>
			<linearGradient id="SVGID_7_" gradientUnits="userSpaceOnUse" x1="1033.7477" y1="1608.6803" x2="1264.1442" y2="1608.6803">
				<stop  offset="0" style="stop-color:#004578"/>
				<stop  offset="0.5" style="stop-color:#002730"/>
				<stop  offset="1" style="stop-color:#003045"/>
			</linearGradient>
			<path class="st6" d="M1033.75,1869.19c0,0,83.67-108.95,49.81-182.97c0,0-90.84-164.05-5.69-298.66c0,0,36.64-76.57,151.08-16.23
				c0,0,88.75,42.15-15.59,192.36c0,0-25.02,27.91-25.19,69.59C1188.15,1633.29,1194.82,1776,1033.75,1869.19z"/>
			<linearGradient id="SVGID_8_" gradientUnits="userSpaceOnUse" x1="1033.7477" y1="1612.9724" x2="1195.8105" y2="1612.9724">
				<stop  offset="0" style="stop-color:#004578"/>
				<stop  offset="0.5" style="stop-color:#002730"/>
				<stop  offset="1" style="stop-color:#003045"/>
			</linearGradient>
			<path class="st7" d="M1033.75,1869.19c0,0,140.07-134.07,111.86-264.24s50.2-248.2,50.2-248.2"/>
		</g>
		<g>
			<linearGradient id="SVGID_9_" gradientUnits="userSpaceOnUse" x1="1041.4958" y1="1670.8496" x2="1487.4308" y2="1670.8496">
				<stop  offset="0" style="stop-color:#004578"/>
				<stop  offset="0.5" style="stop-color:#002730"/>
				<stop  offset="1" style="stop-color:#003045"/>
			</linearGradient>
			<path class="st8" d="M1041.5,1862.4c0,0,130.11-44.07,143.1-124.42c0,0,15.67-186.87,161.26-251.44c0,0,73.01-43.29,134.61,70.48
				c0,0,50.36,84.37-119.88,151.25c0,0-36.31,9.3-59.62,43.85C1300.97,1752.12,1227.19,1874.45,1041.5,1862.4z"/>
			<linearGradient id="SVGID_10_" gradientUnits="userSpaceOnUse" x1="1041.4958" y1="1694.442" x2="1461.0375" y2="1694.442">
				<stop  offset="0" style="stop-color:#004578"/>
				<stop  offset="0.5" style="stop-color:#002730"/>
				<stop  offset="1" style="stop-color:#003045"/>
			</linearGradient>
			<path class="st9" d="M1041.5,1862.4c0,0,190.96-33.6,239.86-157.5s179.68-178.43,179.68-178.43"/>
		</g>
	</g>
	<g>
		<linearGradient id="SVGID_11_" gradientUnits="userSpaceOnUse" x1="2531.5557" y1="1276.0702" x2="3005.532" y2="1276.0702">
			<stop  offset="0" style="stop-color:#29A87C"/>
			<stop  offset="1" style="stop-color:#EAEF61"/>
		</linearGradient>
		<path class="st10" d="M2531.56,981.1c0,0,73.11,117.23,68.07,176.48c0,0,1.26,93.28,51.68,119.75c0,0,47.9,16.39,65.55,75.63
			c0,0,28.99,151.27,288.67,218.08c0,0-27.73-375.65-226.9-397.08c0,0-30.25,0.3-61.77-55.32
			C2716.86,1118.65,2679.04,1051.69,2531.56,981.1z"/>
		<path class="st11" d="M2531.56,981.1c0,0,165.14,171.44,243.29,308.84c78.16,137.4,230.69,281.11,230.69,281.11"/>
	</g>
	<g>
		<path class="st12" d="M1794.41,1681.92c-16.32,21.96-42.48,30.18-42.48,30.18s-18.94,7.33-18.49-47.37
			c3.31-51.29,27.61-75.16,59.03-75.7C1804.51,1588.82,1818.39,1649.66,1794.41,1681.92z"/>
		<path class="st13" d="M1750.48,1710.96c0,0-31.12,99.58-28.53,169.34"/>
	</g>
	<g>
		<linearGradient id="SVGID_12_" gradientUnits="userSpaceOnUse" x1="1948.6272" y1="1728.6304" x2="2059.8933" y2="1728.6304">
			<stop  offset="0" style="stop-color:#02797A"/>
			<stop  offset="1" style="stop-color:#17C1D8"/>
		</linearGradient>
		<path class="st14" d="M2059.89,1804.78c0,0-25.67,3.66-42.55-29.2c0,0-1.63-6.92-14.23-10.09c0,0-24.35-7.86-22.66-31.59
			c0,0,2.99-20.41-16.55-25.5c0,0-36.21-18.71,2.82-50.94c0,0,23.21-19.77,48.33,18.53c0,0,15.87,25.27,9.84,36.98
			c0,0-9.55,18.48,9.09,36.21c0,0,16.47,11.64,12,25.81C2045.99,1775,2035.92,1797.86,2059.89,1804.78z"/>
		<linearGradient id="SVGID_13_" gradientUnits="userSpaceOnUse" x1="1972.1047" y1="1735.3832" x2="2057.3013" y2="1735.3832">
			<stop  offset="0" style="stop-color:#02797A"/>
			<stop  offset="1" style="stop-color:#17C1D8"/>
		</linearGradient>
		<path class="st15" d="M1972.1,1666.57c0,0,31.93,20.18,29.16,49.44c0,0-3.99,19.85,4.31,26.07c0,0,16.04,8.69,20.61,21.91
			c0,0,7.84,39.4,31.12,40.21"/>
	</g>
	<g>
		<linearGradient id="SVGID_14_" gradientUnits="userSpaceOnUse" x1="1891.7755" y1="1781.6211" x2="1972" y2="1781.6211">
			<stop  offset="0" style="stop-color:#02797A"/>
			<stop  offset="1" style="stop-color:#17C1D8"/>
		</linearGradient>
		<path class="st16" d="M1972,1827.25c0,0-16.13,4.29-29.42-15.44c0,0-1.57-4.3-9.86-5.37c0,0-16.17-3.18-16.88-18.48
			c0,0,0.37-13.27-12.51-15.05c0,0-24.57-9.22-2.06-32.78c0,0,13.34-14.4,32.31,8.19c0,0,12.06,14.95,9.09,22.9
			c0,0-4.71,12.54,8.56,22.47c0,0,11.42,6.19,9.63,15.59C1960.86,1809.27,1956.15,1824.65,1972,1827.25z"/>
		<linearGradient id="SVGID_15_" gradientUnits="userSpaceOnUse" x1="1905.3969" y1="1786.3291" x2="1970.2987" y2="1786.3291">
			<stop  offset="0" style="stop-color:#02797A"/>
			<stop  offset="1" style="stop-color:#17C1D8"/>
		</linearGradient>
		<path class="st17" d="M1905.4,1745.53c0,0,21.95,10.48,22.39,29.4c0,0-1.05,12.99,4.73,16.34c0,0,10.91,4.34,14.84,12.45
			c0,0,8,24.6,22.94,23.35"/>
	</g>
	<linearGradient id="SVGID_16_" gradientUnits="userSpaceOnUse" x1="2348.9729" y1="1250.1881" x2="2401.0681" y2="1250.1881">
		<stop  offset="0" style="stop-color:#F75A53"/>
		<stop  offset="1" style="stop-color:#FEB888"/>
	</linearGradient>
	<path class="st18" d="M2401.07,1266.51c0,0-35.24-1-45.83-8.73c0,0-17.64-10.36,6.3-22.85c0,0,9.06-3.82,22.73,3.06
		C2384.27,1237.99,2397.63,1245.27,2401.07,1266.51z"/>
	<g id="XMLID_900_">
		<linearGradient id="XMLID_2_" gradientUnits="userSpaceOnUse" x1="2258.8794" y1="1406.8157" x2="2297.8757" y2="1406.8157">
			<stop  offset="0" style="stop-color:#FFF45B"/>
			<stop  offset="1" style="stop-color:#8AE18E"/>
		</linearGradient>
		<path id="XMLID_836_" class="st19" d="M2297.87,1451.76c0,0,0.71-85.93-21.94-89.7S2246.6,1413.47,2297.87,1451.76z"/>
		<linearGradient id="XMLID_3_" gradientUnits="userSpaceOnUse" x1="2188.1877" y1="1479.2518" x2="2307.6658" y2="1479.2518">
			<stop  offset="0" style="stop-color:#FFF45B"/>
			<stop  offset="1" style="stop-color:#8AE18E"/>
		</linearGradient>
		<path id="XMLID_885_" class="st20" d="M2307.67,1493.28c0,0-83.33-51.07-108.49-33.04
			C2174.02,1478.26,2185.01,1520.34,2307.67,1493.28z"/>
		<linearGradient id="XMLID_4_" gradientUnits="userSpaceOnUse" x1="2307.6658" y1="1435.6676" x2="2385.8616" y2="1435.6676">
			<stop  offset="0" style="stop-color:#FFF45B"/>
			<stop  offset="1" style="stop-color:#8AE18E"/>
		</linearGradient>
		<path id="XMLID_887_" class="st21" d="M2339.75,1397.28l-32.08,96c0,0,86.01-68.79,77.62-97.51
			C2376.9,1367.05,2346.37,1377.45,2339.75,1397.28z"/>
		<linearGradient id="XMLID_5_" gradientUnits="userSpaceOnUse" x1="2199.4973" y1="1536.8278" x2="2319.6357" y2="1536.8278">
			<stop  offset="0" style="stop-color:#FFF45B"/>
			<stop  offset="1" style="stop-color:#8AE18E"/>
		</linearGradient>
		<path id="XMLID_886_" class="st22" d="M2319.64,1520.17c0,0-114.75-16.8-119.6,9.4
			C2195.2,1555.77,2221.85,1583.51,2319.64,1520.17z"/>
		<linearGradient id="XMLID_6_" gradientUnits="userSpaceOnUse" x1="2319.6357" y1="1466.7391" x2="2421.3804" y2="1466.7391">
			<stop  offset="0" style="stop-color:#FFF45B"/>
			<stop  offset="1" style="stop-color:#8AE18E"/>
		</linearGradient>
		<path id="XMLID_888_" class="st23" d="M2383.84,1428.37c0,0-48.45,71.58-64.21,91.8c0,0,100.56-62.04,101.71-89.13
			C2422.49,1403.96,2395.07,1411.87,2383.84,1428.37z"/>
		<linearGradient id="XMLID_7_" gradientUnits="userSpaceOnUse" x1="2220.7095" y1="1575.6737" x2="2332.7175" y2="1575.6737">
			<stop  offset="0" style="stop-color:#FFF45B"/>
			<stop  offset="1" style="stop-color:#8AE18E"/>
		</linearGradient>
		<path id="XMLID_889_" class="st24" d="M2332.72,1549.56c0,0-104.86,10.37-110.66,29.46
			C2216.25,1598.11,2225.14,1630.46,2332.72,1549.56z"/>
		<linearGradient id="XMLID_8_" gradientUnits="userSpaceOnUse" x1="2332.7175" y1="1502.4772" x2="2461.2346" y2="1502.4772">
			<stop  offset="0" style="stop-color:#FFF45B"/>
			<stop  offset="1" style="stop-color:#8AE18E"/>
		</linearGradient>
		<path id="XMLID_892_" class="st25" d="M2427.01,1458.61l-94.3,90.95c0,0,125.93-42.14,128.4-73.67
			C2463.58,1444.36,2427.01,1458.61,2427.01,1458.61z"/>
		<linearGradient id="XMLID_9_" gradientUnits="userSpaceOnUse" x1="2255.6458" y1="1616.1224" x2="2338.7141" y2="1616.1224">
			<stop  offset="0" style="stop-color:#FFF45B"/>
			<stop  offset="1" style="stop-color:#8AE18E"/>
		</linearGradient>
		<path id="XMLID_891_" class="st26" d="M2338.71,1568.54c0,0-75.07,53.23-82.41,76.3
			C2248.97,1667.91,2304.41,1692.69,2338.71,1568.54z"/>
		<linearGradient id="XMLID_10_" gradientUnits="userSpaceOnUse" x1="2341.0981" y1="1533.3629" x2="2499.2786" y2="1533.3629">
			<stop  offset="0" style="stop-color:#FFF45B"/>
			<stop  offset="1" style="stop-color:#8AE18E"/>
		</linearGradient>
		<path id="XMLID_895_" class="st27" d="M2341.1,1568.38c0,0,143.21-95.99,156.97-65.09
			C2511.82,1534.19,2405.17,1577.27,2341.1,1568.38z"/>
		<linearGradient id="XMLID_11_" gradientUnits="userSpaceOnUse" x1="2281.1355" y1="1658.3877" x2="2346.1892" y2="1658.3877">
			<stop  offset="0" style="stop-color:#FFF45B"/>
			<stop  offset="1" style="stop-color:#8AE18E"/>
		</linearGradient>
		<path id="XMLID_897_" class="st28" d="M2345.52,1592.88c0,0-85.25,100.56-59.56,125.02
			C2311.65,1742.36,2351.85,1690.31,2345.52,1592.88z"/>
		<linearGradient id="XMLID_12_" gradientUnits="userSpaceOnUse" x1="2348.0654" y1="1586.9238" x2="2503" y2="1586.9238">
			<stop  offset="0" style="stop-color:#FFF45B"/>
			<stop  offset="1" style="stop-color:#8AE18E"/>
		</linearGradient>
		<path id="XMLID_898_" class="st29" d="M2348.07,1589.55c0,0,146.88-50.69,154.66-3.54S2348.07,1589.55,2348.07,1589.55z"/>
		<linearGradient id="XMLID_13_" gradientUnits="userSpaceOnUse" x1="2294.2751" y1="1583.6088" x2="2423.8403" y2="1583.6088">
			<stop  offset="0" style="stop-color:#FFF45B"/>
			<stop  offset="1" style="stop-color:#8AE18E"/>
		</linearGradient>
		<path id="XMLID_899_" class="st30" d="M2294.64,1448.92c0,0,46.22,170.8,121.39,272.67c0,0,9.94,0.77,7.4-3.3
			c-2.54-4.06-82.47-106.65-125.05-271.04C2298.38,1447.25,2292.83,1442.53,2294.64,1448.92z"/>
	</g>
	<g>
		<linearGradient id="SVGID_17_" gradientUnits="userSpaceOnUse" x1="2475.7874" y1="1628.7659" x2="2586.0991" y2="1628.7659">
			<stop  offset="0" style="stop-color:#02797A"/>
			<stop  offset="1" style="stop-color:#17C1D8"/>
		</linearGradient>
		<path class="st31" d="M2475.79,1760.33c0,0,39.6-6.57,49.18-62.94c0,0-0.83-10.97,16.29-21.52c0,0,32.28-22.96,18.7-57.2
			c0,0-13.93-28.72,12.52-45.36c0,0,44.71-44.51-27.92-73.87c0,0-43.48-18.35-62.69,49.9c0,0-11.63,44.69,2.73,59.18
			c0,0,22.72,22.82,3.47,57.69c0,0-18.89,24.86-5.67,43.69C2482.41,1709.9,2507.95,1738.94,2475.79,1760.33z"/>
		<linearGradient id="SVGID_18_" gradientUnits="userSpaceOnUse" x1="2479.3433" y1="1636.8291" x2="2540.8831" y2="1636.8291">
			<stop  offset="0" style="stop-color:#02797A"/>
			<stop  offset="1" style="stop-color:#17C1D8"/>
		</linearGradient>
		<path class="st32" d="M2540.88,1515.39c0,0-37.72,44.68-19.97,86.57c0,0,15.16,27.44,5.8,40.49c0,0-19.62,20.31-20.2,41.95
			c0,0,6.81,61.81-27.17,73.87"/>
	</g>
	<g>
		<g>
			
				<linearGradient id="SVGID_19_" gradientUnits="userSpaceOnUse" x1="2047.9952" y1="1223.353" x2="2124.7681" y2="1223.353" gradientTransform="matrix(-0.9368 0.3497 -0.3497 -0.9368 5269.5234 2070.6814)">
				<stop  offset="0" style="stop-color:#84EC9E"/>
				<stop  offset="0.5053" style="stop-color:#42DF90"/>
				<stop  offset="1" style="stop-color:#00CC80"/>
			</linearGradient>
			<path class="st33" d="M2881.5,1749.17c0,0,13.41-43.85-5.84-63.02c0,0-47.59-40.65-36.73-92.69c0,0,2.49-28.22,45.33-22.75
				c0,0,32.67,2.79,17.63,61.96c0,0-4.55,11.65,0.27,24.7C2902.17,1657.36,2920.95,1701.19,2881.5,1749.17z"/>
			
				<linearGradient id="SVGID_20_" gradientUnits="userSpaceOnUse" x1="2869.4875" y1="1659.3774" x2="2895.0903" y2="1659.3774" gradientTransform="matrix(1 1.570291e-03 -1.570291e-03 1 2.8444 -4.2998)">
				<stop  offset="0" style="stop-color:#84EC9E"/>
				<stop  offset="0.5053" style="stop-color:#42DF90"/>
				<stop  offset="1" style="stop-color:#00CC80"/>
			</linearGradient>
			<path class="st34" d="M2881.5,1749.17c0,0,28.1-58.3,4.05-95.69c-24.05-37.39-13.35-83.46-13.35-83.46"/>
		</g>
		<g>
			
				<linearGradient id="SVGID_21_" gradientUnits="userSpaceOnUse" x1="2103.3274" y1="1182.2535" x2="2245.1099" y2="1182.2535" gradientTransform="matrix(-0.9368 0.3497 -0.3497 -0.9368 5269.5234 2070.6814)">
				<stop  offset="0" style="stop-color:#84EC9E"/>
				<stop  offset="0.5053" style="stop-color:#42DF90"/>
				<stop  offset="1" style="stop-color:#00CC80"/>
			</linearGradient>
			<path class="st35" d="M2896.16,1727.13c0,0-35.02,13.87-51.99-0.62c0,0-36.42-36.29-78.32-23.96c0,0-22.94,3.9-15.64,38.61
				c0,0,4.44,26.57,51.89,10.35c0,0,9.24-4.5,20.24-1.41C2822.35,1750.11,2859.48,1762.59,2896.16,1727.13z"/>
			
				<linearGradient id="SVGID_22_" gradientUnits="userSpaceOnUse" x1="2748.7368" y1="1734.6228" x2="2896.0286" y2="1734.6228" gradientTransform="matrix(1 1.570291e-03 -1.570291e-03 1 2.8444 -4.2998)">
				<stop  offset="0" style="stop-color:#84EC9E"/>
				<stop  offset="0.5053" style="stop-color:#42DF90"/>
				<stop  offset="1" style="stop-color:#00CC80"/>
			</linearGradient>
			<path class="st36" d="M2896.16,1727.13c0,0-45.88,26.85-78.08,9.62c-32.2-17.23-69.22-5.43-69.22-5.43"/>
		</g>
		<g>
			
				<linearGradient id="SVGID_23_" gradientUnits="userSpaceOnUse" x1="2101.8474" y1="1216.5756" x2="2195.49" y2="1216.5756" gradientTransform="matrix(-0.9368 0.3497 -0.3497 -0.9368 5269.5234 2070.6814)">
				<stop  offset="0" style="stop-color:#84EC9E"/>
				<stop  offset="0.5053" style="stop-color:#42DF90"/>
				<stop  offset="1" style="stop-color:#00CC80"/>
			</linearGradient>
			<path class="st37" d="M2899.61,1732.14c0,0-37.71-13.22-41.25-36.63c0,0-3.99-54.4-46.14-73.63c0,0-21.11-12.81-39.37,20.09
				c0,0-14.9,24.39,34.41,44.36c0,0,10.53,2.82,17.21,12.94C2824.47,1699.27,2845.56,1735.08,2899.61,1732.14z"/>
			
				<linearGradient id="SVGID_24_" gradientUnits="userSpaceOnUse" x1="2778.3154" y1="1682.4904" x2="2899.4866" y2="1682.4904" gradientTransform="matrix(1 1.570291e-03 -1.570291e-03 1 2.8444 -4.2998)">
				<stop  offset="0" style="stop-color:#84EC9E"/>
				<stop  offset="0.5053" style="stop-color:#42DF90"/>
				<stop  offset="1" style="stop-color:#00CC80"/>
			</linearGradient>
			<path class="st38" d="M2899.61,1732.14c0,0-55.44-10.36-69.29-46.54c-13.85-36.19-51.72-52.45-51.72-52.45"/>
		</g>
		<g>
			
				<linearGradient id="SVGID_25_" gradientUnits="userSpaceOnUse" x1="1979.2115" y1="1201.589" x2="2116.2053" y2="1201.589" gradientTransform="matrix(-0.9368 0.3497 -0.3497 -0.9368 5269.5234 2070.6814)">
				<stop  offset="0" style="stop-color:#84EC9E"/>
				<stop  offset="0.5053" style="stop-color:#42DF90"/>
				<stop  offset="1" style="stop-color:#00CC80"/>
			</linearGradient>
			<path class="st39" d="M2884.25,1732.04c0,0,33.28-22.12,30.93-45.68c0,0-9.57-53.7,26.53-82.75c0,0,17.29-17.63,43.11,9.75
				c0,0,20.47,19.95-22.39,51.48c0,0-9.51,5.33-13.48,16.79C2948.94,1681.63,2937.35,1721.54,2884.25,1732.04z"/>
			
				<linearGradient id="SVGID_26_" gradientUnits="userSpaceOnUse" x1="2884.123" y1="1668.8363" x2="2976.7461" y2="1668.8363" gradientTransform="matrix(1 1.570291e-03 -1.570291e-03 1 2.8444 -4.2998)">
				<stop  offset="0" style="stop-color:#84EC9E"/>
				<stop  offset="0.5053" style="stop-color:#42DF90"/>
				<stop  offset="1" style="stop-color:#00CC80"/>
			</linearGradient>
			<path class="st40" d="M2884.25,1732.04c0,0,51.17-23.73,55.65-62.21c4.48-38.49,37.17-63.6,37.17-63.6"/>
		</g>
		<g>
			
				<linearGradient id="SVGID_27_" gradientUnits="userSpaceOnUse" x1="1956.8325" y1="1152.3536" x2="2113.2102" y2="1152.3536" gradientTransform="matrix(-0.9368 0.3497 -0.3497 -0.9368 5269.5234 2070.6814)">
				<stop  offset="0" style="stop-color:#84EC9E"/>
				<stop  offset="0.5053" style="stop-color:#42DF90"/>
				<stop  offset="1" style="stop-color:#00CC80"/>
			</linearGradient>
			<path class="st41" d="M2887.02,1730.9c0,0,39.96,0.11,51.1-20.78c0,0,21.89-49.96,68.05-54.04c0,0,24.17-5.05,30.42,32.06
				c0,0,5.92,27.96-47.23,30.35c0,0-10.87-0.86-20.54,6.46C2968.82,1724.96,2937,1751.69,2887.02,1730.9z"/>
			
				<linearGradient id="SVGID_28_" gradientUnits="userSpaceOnUse" x1="2886.8928" y1="1704.6422" x2="3033.8982" y2="1704.6422" gradientTransform="matrix(1 1.570291e-03 -1.570291e-03 1 2.8444 -4.2998)">
				<stop  offset="0" style="stop-color:#84EC9E"/>
				<stop  offset="0.5053" style="stop-color:#42DF90"/>
				<stop  offset="1" style="stop-color:#00CC80"/>
			</linearGradient>
			<path class="st42" d="M2887.02,1730.9c0,0,55.73,8.72,80.84-20.79c25.12-29.5,66.25-32.21,66.25-32.21"/>
		</g>
	</g>
</g>
</svg>
