<?xml version="1.0" encoding="utf-8"?>
<!-- Generator: Adobe Illustrator 22.0.1, SVG Export Plug-In . SVG Version: 6.00 Build 0)  -->
<svg version="1.1" id="Layer_1" xmlns="http://www.w3.org/2000/svg" xmlns:xlink="http://www.w3.org/1999/xlink" x="0px" y="0px"
	 viewBox="0 0 3000 2000" style="enable-background:new 0 0 3000 2000;" xml:space="preserve">
<style type="text/css">
	.st0{fill:url(#SVGID_1_);}
	.st1{fill:url(#SVGID_2_);}
	.st2{fill:url(#SVGID_3_);}
	.st3{fill:#FFFFFF;}
	.st4{fill:#005668;}
	.st5{fill:#EFC7BF;}
	.st6{fill:url(#SVGID_4_);}
	.st7{fill:#DADADA;}
	.st8{fill:#CEE9EA;}
	.st9{fill:url(#SVGID_5_);}
	.st10{fill:#EAB2A7;}
	.st11{fill:url(#SVGID_6_);}
	.st12{fill:url(#SVGID_7_);}
	.st13{fill:url(#SVGID_8_);}
	.st14{fill:#E7AB99;}
	.st15{fill:url(#SVGID_9_);}
	.st16{fill:url(#SVGID_10_);}
	.st17{fill:url(#SVGID_11_);}
	.st18{fill:url(#SVGID_12_);}
	.st19{fill:url(#SVGID_13_);}
	.st20{fill:url(#SVGID_14_);}
	.st21{opacity:0.44;}
	.st22{fill:#D2D2D2;}
</style>
<g>
	<linearGradient id="SVGID_1_" gradientUnits="userSpaceOnUse" x1="1800.6454" y1="887.1495" x2="1980.1776" y2="887.1495">
		<stop  offset="0" style="stop-color:#002E3E"/>
		<stop  offset="0.5588" style="stop-color:#188FAC"/>
		<stop  offset="1" style="stop-color:#2ABFCE;stop-opacity:0.8"/>
	</linearGradient>
	<path class="st0" d="M1800.65,950.96l156.72-16.46c43.38-30.42,11.56-87.06,11.56-87.06c-5.02-3.83-2.1-24.09-2.1-24.09"/>
	<linearGradient id="SVGID_2_" gradientUnits="userSpaceOnUse" x1="1672.4467" y1="885.63" x2="1980.3531" y2="885.63">
		<stop  offset="0" style="stop-color:#002E3E"/>
		<stop  offset="0.5588" style="stop-color:#188FAC"/>
		<stop  offset="1" style="stop-color:#2ABFCE;stop-opacity:0.8"/>
	</linearGradient>
	<path class="st1" d="M1968.93,847.44c-3.96-13.98-2.1-24.09-2.1-24.09c-44.11-23.74-119.71,29.2-119.71,29.2
		c-22.98,30.4-70.48,2.14-70.48,2.14c-112.36-35.51-104.05,75.33-104.05,75.33c17.8,9.53,40.17,1.35,40.17,1.35
		c49.81-31.13,88.28,22.68,88.28,22.68l156.33-19.55C2001.15,903.89,1968.93,847.44,1968.93,847.44z"/>
	<linearGradient id="SVGID_3_" gradientUnits="userSpaceOnUse" x1="1960.552" y1="1760.4081" x2="2172.7424" y2="1760.4081">
		<stop  offset="0" style="stop-color:#FFE0CA"/>
		<stop  offset="0.4733" style="stop-color:#FFE6DF"/>
		<stop  offset="1" style="stop-color:#FFECF8"/>
	</linearGradient>
	<path class="st2" d="M1960.55,1596.07c0,0,94.1,223.49,108.21,317.71l-1.96,43.1l105.94,9.62c0,0-12.37-26.96-70.57-48.8
		c0,0-47.15-229.3-83.1-345.63c-12.36-39.98,0,0,0,0L1960.55,1596.07z"/>
	<path class="st3" d="M2016.94,1740.07c0,0,31.79,82.22,51.82,173.71l-1.96,43.1l105.94,9.62c0,0-12.37-26.96-70.57-48.8
		c-16.66-80.85-27.23-139.88-44.59-200.19L2016.94,1740.07z"/>
	<path class="st4" d="M2156.45,1947.8c0,0-37.1,19.66-87.82-34.63l-1.88,44.92l106.25,8.71
		C2172.99,1966.8,2168.86,1955.24,2156.45,1947.8"/>
	<path class="st5" d="M1869.47,891.57c0,0-2.3,27.09-13.31,34.59c0,0,38.95,34.7,60.91-2.56c0,0-13.13-16.06-13.54-30.48
		C1903.53,893.12,1889.04,906.85,1869.47,891.57z"/>
	<linearGradient id="SVGID_4_" gradientUnits="userSpaceOnUse" x1="1782.4222" y1="1762.9044" x2="1865.1387" y2="1762.9044">
		<stop  offset="0" style="stop-color:#FFE0CA"/>
		<stop  offset="0.4733" style="stop-color:#FFE6DF"/>
		<stop  offset="1" style="stop-color:#FFECF8"/>
	</linearGradient>
	<path class="st6" d="M1795.24,1573.4l36.2,335.19c0,0-46.48,19.48-49.02,40.16l80.62,3.67l-2.28-37.7l4.38-324.58L1795.24,1573.4"
		/>
	<path class="st3" d="M1816.48,1770.01l46.31-5.57l-2.03,150.28c0,0-25.96,40.14-68.87,18.3c0,0,12.49-12.74,39.55-24.43
		l-9.94-92.04L1816.48,1770.01z"/>
	<path class="st4" d="M1860.76,1914.72c0,0-25.28,39.91-68.87,18.3c0,0-8.81,7.86-9.47,15.73l80.62,3.67L1860.76,1914.72z"/>
	<polygon class="st7" points="1822.29,1024.06 1811.31,1069.99 1822.76,1044.94 	"/>
	<path class="st8" d="M1822.44,1023.73c0,0-2.6,27.48,20.47,30.79c24.8,3.56,57.46,7.6,98.94,1.62c0,0,12.04,29.02-60.95,21.85
		C1880.89,1077.99,1809.25,1080.72,1822.44,1023.73z"/>
	<linearGradient id="SVGID_5_" gradientUnits="userSpaceOnUse" x1="1599.0051" y1="1186.285" x2="1794.1388" y2="1186.285">
		<stop  offset="0" style="stop-color:#FFE0CA"/>
		<stop  offset="0.4733" style="stop-color:#FFE6DF"/>
		<stop  offset="1" style="stop-color:#FFECF8"/>
	</linearGradient>
	<path class="st9" d="M1762.65,1050.87c0,0-59.95,142.38-97.64,197.19c0,0-18.02,32.77-49.59,35.07c0,0-16.69,3.51-15.77,18.48
		l-0.54,9.57c0,0-2.04,12.07,12.2,3.71l19.59-20.39c0,0,15.21-6.24,10.81,8.49c0,0-13.97,25.65,6.16,16.89
		c0,0,11.71-11.28,16.26-40.93c0,0,100.03-133.91,130-206.67L1762.65,1050.87z"/>
	<path class="st10" d="M1851.33,839.08c0,0,2.64,16.72,14.04,43.1c0,0,8.25,24.87,38.16,10.94c0,0-7.64,12.58-28.31,6.84
		c0,0-4.78,23.11-19.06,26.19c0,0,9.9-5.61,13.31-34.59c0,0-7.46-8.15-12.75-18.61C1849.32,858.31,1844.71,843.98,1851.33,839.08z"
		/>
	<g>
		<linearGradient id="SVGID_6_" gradientUnits="userSpaceOnUse" x1="1908.412" y1="890.6428" x2="1857.0852" y2="1164.3854">
			<stop  offset="0.0307" style="stop-color:#12B4C6"/>
			<stop  offset="0.4106" style="stop-color:#078D92"/>
			<stop  offset="1" style="stop-color:#005264"/>
		</linearGradient>
		<path class="st11" d="M1938.17,1119.01c0,0,0.15,14.95,4.24,29.33c-5.9-21.15-4.68-55.32-4.68-55.32
			c-0.36-38.94,17.49-67.99,17.49-67.99l25.64,34.23l21.94-25.13c21.02-28.37,5.59-40.8,5.59-40.8
			c-54.88-83.02-92.32-68.72-92.32-68.72c-22.98,36.28-60.91,2.56-60.91,2.56c-39.72-6.07-55.13,27.89-55.13,27.89
			c-33.29,51.81-48.36,90.05-48.36,90.05l53.79,36.58l17.78-39.18c12.38,32.81,13.87,55.4,10.88,70.83c0,0,0-0.01,0-0.01
			C1834.13,1113.3,1882.69,1128.67,1938.17,1119.01z"/>
		<linearGradient id="SVGID_7_" gradientUnits="userSpaceOnUse" x1="1489.3871" y1="1370.6515" x2="2035.0621" y2="1370.6515">
			<stop  offset="0.139" style="stop-color:#F0624E"/>
			<stop  offset="1" style="stop-color:#E88E63"/>
		</linearGradient>
		<path class="st12" d="M2034.95,1531.92c-26.37-150.56-31.29-214.59-31.29-214.59c-18.71-104.3-53.66-156.55-53.66-156.55
			c-2.4-2.42-4.29-6.23-5.8-10.82c0,0,0,0,0,0c0,0-37.03,26.2-131.54-6.1c-70.03,18.41-57.6,93.89-57.6,93.89
			c5.92,83.72-148.3,48.17-148.3,48.17c-107.86-23.17-117.32,93.84-117.32,93.84c-2.38,108.01,68.59,86.31,68.59,86.31
			c116.01-18.18,146.65,34.94,146.65,34.94c36.29,57.91,90.56,72.38,90.56,72.38C2047.77,1645.68,2034.95,1531.92,2034.95,1531.92z"
			/>
		<linearGradient id="SVGID_8_" gradientUnits="userSpaceOnUse" x1="1812.6604" y1="1136.1465" x2="1944.202" y2="1136.1465">
			<stop  offset="0.0307" style="stop-color:#12B4C6"/>
			<stop  offset="0.4106" style="stop-color:#078D92"/>
			<stop  offset="1" style="stop-color:#005264"/>
		</linearGradient>
		<path class="st13" d="M1944.2,1149.96C1944.2,1149.96,1944.2,1149.96,1944.2,1149.96c-0.28-0.85-0.54-1.72-0.79-2.62
			c-4.09-14.37-4.24-29.33-4.24-29.33c-55.48,9.66-104.03-5.71-104.03-5.71c0,0,0,0.01,0,0.01c-4.99,25.77-22.47,31.55-22.47,31.55
			C1907.17,1176.16,1944.2,1149.96,1944.2,1149.96z"/>
		<path class="st8" d="M1943.41,1147.34c0.25,0.9,0.51,1.77,0.79,2.62C1943.92,1149.09,1943.66,1148.22,1943.41,1147.34z"/>
		<path class="st8" d="M1835.13,1112.31c-5.61,25.72-22.47,31.55-22.47,31.55S1830.14,1138.09,1835.13,1112.31z"/>
	</g>
	<path class="st14" d="M1984.83,1054.86l0.56,2.15c0,0,40.66,10.96,44.75,24.66c0,0-3.08-25.71-22.82-53.66L1984.83,1054.86z"/>
	<linearGradient id="SVGID_9_" gradientUnits="userSpaceOnUse" x1="1753.3231" y1="1069.9149" x2="1794.1388" y2="1069.9149">
		<stop  offset="0" style="stop-color:#F2CEB6"/>
		<stop  offset="0.4733" style="stop-color:#FFE6DF"/>
		<stop  offset="1" style="stop-color:#FFECF8"/>
	</linearGradient>
	<polygon class="st15" points="1794.14,1072.28 1762.65,1050.87 1753.32,1072.54 1786.59,1088.96 	"/>
	<linearGradient id="SVGID_10_" gradientUnits="userSpaceOnUse" x1="1843.4611" y1="1055.8846" x2="2030.6738" y2="1055.8846">
		<stop  offset="0" style="stop-color:#FFE0CA"/>
		<stop  offset="0.4733" style="stop-color:#FFE6DF"/>
		<stop  offset="1" style="stop-color:#FFECF8"/>
	</linearGradient>
	<path class="st16" d="M2007.32,1028.01c0,0,41.43,60.22,13.93,84.56c0,0-19.96,7.89-37.32-6.1l-68.57-48.65
		c0,0-13.26-7.46-33.38-4.78c0,0-13.28,1.8-12.35-9.76c0,0-7.49-2.34-4.83-8.22c0,0-12.44,1.03-8.74-10c0,0-12.61-1.11-12.56-8.17
		c0,0-1.87-5.82,19.56-2.18l47.66,1.46l0.84-18.45c0,0,7.67-4.45,8.42,8.38l-1.04,11.15c0,0-1.22,27.14,18.5,24.3
		c0,0,27.97,9.13,47.95,15.44l-0.56-2.15L2007.32,1028.01z"/>
	<linearGradient id="SVGID_11_" gradientUnits="userSpaceOnUse" x1="1820.8472" y1="1357.4955" x2="1775.2234" y2="1425.931">
		<stop  offset="0.0307" style="stop-color:#E88E63"/>
		<stop  offset="0.4106" style="stop-color:#EF6750"/>
		<stop  offset="1" style="stop-color:#F0624E"/>
	</linearGradient>
	<path class="st17" d="M1812.66,1143.87c0,0-0.39,11.58,25.69,18.37c0,0-27.84,28.73-6.14,61.71c0,0,101.61,210.19-25.05,181.23
		c0,0-138.35-44.48-49.55,98.38c0,0,102.83,136.8,276.93,26.04c0,0,1.29,4.97,0.17,10.52c0,0-73.88,49.62-144.18,41.02l-0.61,12.98
		c0,0-74.1-10.38-114.77-28.31c-35.36-15.58-58.69-43.99-71.05-65.68c0,0-33.63-52.99-146.08-34.04c0,0-71.97,21.65-68.5-87.21
		c0,0,10.98-125.04,128.55-89.69c0,0,138.04,24.88,137.29-47.14C1755.37,1242.04,1740.03,1162.36,1812.66,1143.87z"/>
	<linearGradient id="SVGID_12_" gradientUnits="userSpaceOnUse" x1="1752.6808" y1="990.3552" x2="1856.1644" y2="990.3552">
		<stop  offset="0.0307" style="stop-color:#12B4C6"/>
		<stop  offset="0.4106" style="stop-color:#078D92"/>
		<stop  offset="1" style="stop-color:#005264"/>
	</linearGradient>
	<path class="st18" d="M1856.16,926.15c0,0-36.16-8.04-55.13,27.89c0,0-33.13,51.42-48.36,90.05l16.53,11.24
		c0,0,24.53-66.83,40.32-97.57C1809.53,957.76,1822.86,928.64,1856.16,926.15z"/>
	<linearGradient id="SVGID_13_" gradientUnits="userSpaceOnUse" x1="1848.5011" y1="844.8014" x2="1938.871" y2="844.8014">
		<stop  offset="0" style="stop-color:#FFE0CA"/>
		<stop  offset="0.4733" style="stop-color:#FFE6DF"/>
		<stop  offset="1" style="stop-color:#FFECF8"/>
	</linearGradient>
	<path class="st19" d="M1852.81,806.56c0,0,9.92-24.61,53-12.39c0,0,30.96,7.15,25.25,30.08c0,0,12.48-7.7,5.9,11.07
		c0,0-1.98,8.31-10.93,14.57c0,0-11.58,49.61-37.42,48.95c0,0-24.04,1.04-38.38-41.21c0,0-4.52-13.4,1.11-18.55
		C1851.33,839.08,1846.47,825.86,1852.81,806.56z"/>
	<linearGradient id="SVGID_14_" gradientUnits="userSpaceOnUse" x1="1651.5131" y1="832.4014" x2="1971.1974" y2="832.4014">
		<stop  offset="0" style="stop-color:#002E3E"/>
		<stop  offset="0.5588" style="stop-color:#188FAC"/>
		<stop  offset="1" style="stop-color:#2ABFCE;stop-opacity:0.8"/>
	</linearGradient>
	<path class="st20" d="M1967,823l-35.31-1.01L1924,838c0.35-1.04,0.6-2.09,0.77-3.15c3.19-20.18-25.56-42-40.77-44.85
		c-16-3-26,60-26,60l-7-11l-4,28c0,0-137,74-167.66,65.49c-30.66-8.51-27.75-80.7-27.75-80.7s30.5-72.6,109.27-45.82
		c41.85-1.03,59.61-44.48,59.61-44.48S1851,718,1885,736S1989,723,1967,823z"/>
</g>
<g class="st21">
	<g>
		<g>
			<g>
				<g>
					<g>
						<path class="st22" d="M1681.86,1447.55c0.72,0.06,0.47-0.37,0.58-0.44C1681.23,1447.17,1681.89,1447.66,1681.86,1447.55z"/>
						<polygon class="st22" points="1669.9,1448.2 1670.12,1448.03 1668.35,1448.41 						"/>
						<path class="st22" d="M1658.74,1447.95c1.04,0.73,4.05-0.03,6.03,0.27l0.32,0.17l0.91-0.55
							C1663.58,1447.87,1660.44,1448.18,1658.74,1447.95z"/>
						<path class="st22" d="M1652.82,1446.29c0.36,0.29-1.29,0.21,1.39,0.11c-0.13-0.03-0.17-0.05-0.25-0.08
							C1653.71,1446.33,1653.38,1446.32,1652.82,1446.29z"/>
						<path class="st22" d="M1653.95,1446.33C1655.13,1446.33,1653.19,1446.08,1653.95,1446.33L1653.95,1446.33z"/>
						<path class="st22" d="M1648.52,1446.39l1.55-0.22c-0.32-0.17-1.7-0.23-1.18-0.34
							C1647.3,1445.93,1647.62,1446.1,1648.52,1446.39z"/>
						<path class="st22" d="M1647.04,1446.88l0.8-0.09C1647.71,1446.72,1647.5,1446.69,1647.04,1446.88z"/>
						<path class="st22" d="M1649.55,1446.6l-1.71,0.19c0.22,0.12,0.24,0.35,0.78-0.07
							C1648.49,1446.93,1648.83,1446.74,1649.55,1446.6z"/>
						<path class="st22" d="M1650.51,1446.73c0.87,0.17,1.99,0.29,0.43,0.51C1653.91,1447.19,1653.48,1446.68,1650.51,1446.73z"/>
						<path class="st22" d="M1658.15,1448.68l1.16,0.23l1.01-0.22C1659.82,1448.8,1658.09,1448.45,1658.15,1448.68z"/>
						<path class="st22" d="M1638.88,1445.86c-0.1,0.15,0.51,0.41,0.63,0.61l1.15-0.16
							C1640.06,1446.2,1638.95,1446.08,1638.88,1445.86z"/>
						<path class="st22" d="M1639.5,1446.47l-1.72,0.23C1639.32,1446.75,1639.6,1446.63,1639.5,1446.47z"/>
						<polygon class="st22" points="1646.75,1447.67 1649.57,1447.17 1646.21,1447.67 						"/>
						<polygon class="st22" points="1632.34,1445.74 1633.31,1445.4 1631.58,1445.91 						"/>
						<path class="st22" d="M1628,1445.74c0.72-0.28-0.98-0.51-0.22-0.67c-1.18,0.04-2.19,0.27-3.1,0.49
							C1625.65,1445.44,1626.68,1445.49,1628,1445.74z"/>
						<path class="st22" d="M1623.16,1445.86c0.48-0.06,0.98-0.18,1.52-0.31C1624.18,1445.62,1623.67,1445.71,1623.16,1445.86z"/>
						<path class="st22" d="M1634.87,1446.58c-0.13-0.09-0.38-0.34-1.34-0.45l0.67,0.44
							C1634.41,1446.57,1634.64,1446.58,1634.87,1446.58z"/>
						<path class="st22" d="M1634.22,1446.58l-0.02-0.01c-0.73-0.02-1.24-0.04-1.45-0.04
							C1632.93,1446.53,1633.38,1446.55,1634.22,1446.58z"/>
						<path class="st22" d="M1635.04,1446.59c-0.06,0-0.11,0-0.17,0C1634.94,1446.62,1634.98,1446.64,1635.04,1446.59z"/>
						<path class="st22" d="M1642.27,1447.21c-1.01,0.22-3.11,0.44-1.09,0.84C1641.91,1447.77,1640.75,1447.54,1642.27,1447.21z"/>
						<path class="st22" d="M1635.87,1447.13l1.82,0.13c-0.03-0.11-0.36-0.28,0.14-0.39L1635.87,1447.13z"/>
						<polygon class="st22" points="1634.98,1447.25 1635.87,1447.13 1635.2,1447.09 						"/>
						<path class="st22" d="M1626.27,1446.3c-0.79,0.18-1.65,0.18-2.62,0.2c1.04,0.1,2.11,0.16,3.13,0.17
							C1626.94,1446.54,1627.39,1446.3,1626.27,1446.3z"/>
						<path class="st22" d="M1630.14,1446.47c-0.05,0.01-0.12,0.02-0.17,0.02C1630.07,1446.53,1630.15,1446.55,1630.14,1446.47z"/>
						<path class="st22" d="M1614.1,1446.39c0.05,0.03,0.1,0.05,0.15,0.08c0.01-0.03,0.02-0.05,0.04-0.07L1614.1,1446.39z"/>
						<path class="st22" d="M1626.96,1446.75c0.78,0.09,1.25-0.01,1.7-0.13c-0.59,0.03-1.2,0.06-1.87,0.05
							C1626.72,1446.73,1626.71,1446.77,1626.96,1446.75z"/>
						<path class="st22" d="M1620.5,1446.03c0.41,0.09,0.87,0.18,1.35,0.25C1621.45,1446.14,1620.64,1445.92,1620.5,1446.03z"/>
						<path class="st22" d="M1629.7,1446.37c0.04-0.01,0.07-0.01,0.12-0.02C1629.56,1446.26,1629.59,1446.31,1629.7,1446.37z"/>
						<path class="st22" d="M1629.7,1446.37c-0.4,0.06-0.72,0.16-1.04,0.25c0.48-0.03,0.92-0.07,1.3-0.12
							C1629.87,1446.46,1629.77,1446.42,1629.7,1446.37z"/>
						<path class="st22" d="M1611.18,1449.1c0.14-0.4,2.2-0.74,3.97-0.3c1.75-0.28,0.62-1.59-0.89-2.34
							c-0.06,0.17-0.06,0.33-1.86,0.55c0.63,0.22,3.98,0.55,2.46,0.89c-2.38,0.18-1.95-0.16-3.1-0.38c0.98,0.5-3.03,0.69-2.52,1.42
							l2.09-0.23C1611.36,1448.82,1610.6,1448.99,1611.18,1449.1z"/>
						<path class="st22" d="M1617.68,1446.55l0.74-0.04c-0.84-0.08-1.44-0.24-2.55-0.57c-1.23,0.18-1.49,0.32-1.57,0.46l3.64,0.1
							L1617.68,1446.55z"/>
						<path class="st22" d="M1621.74,1446.54c-0.58,0.42-2.36,0.59-1.28,1.06c2.17,0,1.52-0.34,2.82-0.51
							c-3.5,0.06,1.01-0.23-1.52-0.5c0.69-0.07,1.31-0.08,1.89-0.09c-0.63-0.06-1.24-0.13-1.81-0.22c0.03,0.01,0.05,0.02,0.08,0.03
							l0.02,0l0,0.01c0.15,0.06,0.2,0.09,0.03,0.06c-0.01,0.01-0.05,0.01-0.07,0.01
							C1621.87,1446.44,1621.81,1446.49,1621.74,1446.54c-1.01-0.1-0.16-0.12,0.16-0.16c0.01-0.02,0.04-0.04,0.04-0.06
							c0,0-0.01,0-0.01-0.01l-3.51,0.2C1619.16,1446.57,1620.09,1446.57,1621.74,1446.54z"/>
						<path class="st22" d="M1639.3,1448.95c-0.11-0.04-0.1-0.07-0.11-0.1C1638.96,1448.89,1638.88,1448.93,1639.3,1448.95z"/>
						<path class="st22" d="M1637.86,1448.66c0.26-0.06,0.47-0.22,1.3-0.17c0.72,0.14-0.01,0.21,0.03,0.35
							c0.5-0.11,1.75-0.28,0.19-0.52l-0.25,0.06c-1.41-0.17-3.21-0.73-2.97-0.79C1636.57,1447.99,1636.93,1448.27,1637.86,1448.66z"
							/>
						<path class="st22" d="M1629.7,1447.71l-2.92,0.17l1.48,0.39l-0.07-0.22C1629.85,1448.16,1629.49,1447.88,1629.7,1447.71z"/>
						<polygon class="st22" points="1613.77,1446.17 1614.16,1445.72 1612.47,1446.35 						"/>
						<polygon class="st22" points="1609.98,1446.19 1610.12,1445.79 1609.12,1446.02 						"/>
						<path class="st22" d="M1395.71,1440.65l-0.9-0.33C1395.23,1440.49,1395.5,1440.6,1395.71,1440.65z"/>
						<path class="st22" d="M1401.88,1442.97l0.21-0.14C1401.77,1442.85,1401.63,1442.89,1401.88,1442.97z"/>
						<path class="st22" d="M1516.81,1445.58c-1.25-0.38-2.63-0.97-2.49-0.52l0.38,0.44
							C1515.57,1445.43,1516.24,1445.49,1516.81,1445.58z"/>
						<path class="st22" d="M1453,1446.7c0.12,0.05,0.24,0.1,0.36,0.15c0.31-0.14,0.6-0.26,0.86-0.38
							C1453.85,1446.54,1453.43,1446.62,1453,1446.7z"/>
						<path class="st22" d="M1452.03,1448.45l-1.64-0.36C1450.76,1448.21,1451.29,1448.33,1452.03,1448.45z"/>
						<path class="st22" d="M1405.75,1412.57l0.44-0.93C1405.07,1412.56,1405.7,1412.33,1405.75,1412.57z"/>
						<path class="st22" d="M1571.11,1446.05c-1.08-0.18-1.93-0.25-2.69-0.28C1569.72,1446.03,1570.77,1446.41,1571.11,1446.05z"/>
						<path class="st22" d="M1399.79,1437.39c-0.49-0.1-0.71-0.1-0.74-0.01C1399.55,1437.51,1399.85,1437.53,1399.79,1437.39z"/>
						<path class="st22" d="M1565.31,1445.76c0.19,0.04,0.38,0.07,0.57,0.11c0.79-0.07,1.58-0.12,2.54-0.09
							C1567.47,1445.59,1566.37,1445.47,1565.31,1445.76z"/>
						<path class="st22" d="M1441.15,1356.14c0.09,0.01,0.2,0.02,0.28,0.03C1441.45,1356.11,1441.33,1356.11,1441.15,1356.14z"/>
						<path class="st22" d="M1477.16,1358.79c-0.35,0.04-0.93,0.06-1.47,0.09C1475.96,1358.9,1476.4,1358.88,1477.16,1358.79z"/>
						<path class="st22" d="M1594.71,1445.86C1595.51,1445.84,1594.84,1445.82,1594.71,1445.86L1594.71,1445.86z"/>
						<path class="st22" d="M1598.61,1447.61c-0.17,0.05-0.3,0.11-0.32,0.21C1598.35,1447.72,1598.47,1447.65,1598.61,1447.61z"/>
						<path class="st22" d="M1557.28,1448.42c-0.02,0-0.04,0-0.07,0C1557.45,1448.5,1557.41,1448.48,1557.28,1448.42z"/>
						<path class="st22" d="M1595.92,1446.07c-0.3-0.06-0.65-0.1-1.03-0.14C1595.06,1445.97,1595.37,1446.01,1595.92,1446.07z"/>
						<path class="st22" d="M1595.76,1445.86c0.28,0.02,0.5,0.03,0.7,0.05C1596.56,1445.84,1596.47,1445.79,1595.76,1445.86z"/>
						<path class="st22" d="M1593.59,1445.88c0.46,0,0.89,0.02,1.3,0.06c-0.16-0.03-0.22-0.06-0.18-0.07
							C1594.47,1445.87,1594.14,1445.87,1593.59,1445.88z"/>
						<path class="st22" d="M1385.93,1375.04c-0.03-0.04-0.08-0.1-0.11-0.15C1385.05,1374.46,1385.35,1374.69,1385.93,1375.04z"/>
						<path class="st22" d="M1495.82,1449.83c0.04,0,0.06-0.01,0.09-0.02c-0.04-0.01-0.08-0.01-0.12-0.02L1495.82,1449.83z"/>
						<path class="st22" d="M1492.92,1450.11c1.24-0.52,1.94-0.44,2.87-0.31l-0.94-1.27L1492.92,1450.11z"/>
						<path class="st22" d="M1390.86,1425.32c-0.56,0.56-1.13,1.14-1.64,1.86c0.45-1.53,1.16-2.6,1.47-3.11
							c0.31-0.53,0.23-0.56-0.71,0.16c0.22,0.28-0.03,0.88-0.46,1.73c-0.42,0.84-1.03,1.96-1.41,3.35
							c-0.39,1.37-0.41,3.02-0.03,4.18c0.36,1.17,0.94,1.78,1.27,1.72c0.21,0.61,0.48,1.17,0.79,1.71
							c-0.31-0.44-0.44-0.44-0.71-0.91c0.77,1.75,1.52,1.93,2.23,2.2c0.75,0.23,1.55,0.44,3.11,1.43c1.07,0.7,1.8,1.22,0.95,1.01
							c0.91,0.3,1.81,0.57,2.7,0.79c0.74,0.31,0.48,0.46-0.26,0.15c1.33,0.47,2.65,0.87,3.98,1.21l-0.04,0.03
							c0.63-0.04,1.98-0.01,2.64,0c0.95,0.44-0.54,0.01-0.32,0.24c0.75,0.08,1.51,0.14,2.26,0.2c0.82,0.54-1.08,0.49-2.58,0.04
							c1.74,1.81,1.89,0.17,6.17,1.81l-2.12-0.24c1.2,1.04,2.89,1.07,5.18,1.93c-0.53-0.32-4.52-2.03-2.07-1.92
							c0.65,0.22,1.54,0.42,2.87,0.36c-0.06,0.47,1.22,0.57,2.8,0.76l-0.2,0.62c1.74,0.06,1.64-0.29,2.68-0.44
							c1.89,0.3,2.23,0.84,2.63,1.31c3.04,0.46-2.01-1.03,1.61-0.74c2.5,0.52,4.31,0.44,7.37,0.33c1.75,0.37-0.34,0.36,0.28,0.6
							l1.61-0.38c0.38,0.04,0.25,0.19,0.18,0.26c1.34-0.09,0.16-0.63,2.25-0.64c0.61-0.66,4.19,1.35,6.81,0.71
							c0.62,0.22-0.33,0.37-0.15,0.63c3.56-0.3,3.05-0.19,5.98-0.74l2.44,0.55c-1.79-0.57,0.56-1.02,2.6-1.39
							c-0.63-0.26-1.17-0.49-1.53-0.61l3.24-0.19c0.39,0.12,0.05,0.33-0.49,0.57c0.22-0.05,0.43-0.09,0.6-0.13
							c1.14,0.29,0.53,0.63-0.31,0.95c-0.39-0.15-0.77-0.3-1.15-0.45c-0.82,0.35-1.58,0.74-1.44,1.13c0.21-0.06,0.62-0.11,1.07-0.12
							c-0.21,0.1-0.35,0.18-0.26,0.25c0.11,0.07,0.45-0.05,0.99-0.19l0.7,0.75l0.19-0.27l4.22,0.63c3.06-0.6,5.73-1.55,10.54-1.7
							c-1.21,0.49-0.28,0.85-0.37,1.46c-1.29-0.7-3.73,0.16-6.22-0.06c1.3,0.12,1,0.4,0.67,0.49l4.46-0.45
							c-0.12,0.5,0.93,0.41,2.09,0.65c-0.85-1.03,3.33-0.57,5.15-0.83c0.1,0.34-0.34,0.67-2.54,0.53c2.41,0.82,3.18-1.09,5.55-0.39
							c-0.54-0.01-0.83-0.06-1.04,0.1c1.27-0.27,4.33,0.04,3.6,0.32l-0.54-0.01c3.57,0.21,10.88,0.23,11.43-0.61
							c0.03,0.11-0.49,1.02-0.71,1.19l6.42-2.76c-0.57,0.72,1.56,2.49-1.41,2.86c0.85,0.12,1.9,0.26,3.7,0.02
							c-0.58-0.11-1.43-1.08-0.64-1.13c2.17,0.84,1.51,0.46,4.18,1.19c-0.87-0.17,0.11-1.3,1.49-1.25c-0.22,0.17,0.1,1.13-0.4,1.24
							l3.44-1.08c-0.86,0.19-0.16,0.95,0.6,1.28c-0.35-0.22,2.96,0.05,3.87-0.05l-1.45-0.28c3.86,0.21,3.83-1.54,7.67-1.45
							c-0.47,0.23-1.16,1.42,0.79,1.58c0.9-0.57,3.98-2.73,7.37-3.15l0.65,0.33l2.6-0.36c-1.63,0.86-6.19,2.64-8.68,3.33
							c1.44,0.27,0.4,0.39,2.57,0.38c0.76,0.31-1.18,0.46-1.82,0.47l5.04,0.24c-0.22-0.67,3.86-0.65,3.67-1.21l-5.48,0.66
							c-0.22-0.67,3.18-1.88,6.75-1.74c0.91,0.27-0.69,1.19-0.62,1.42c0.47-0.23,3.39-0.42,3.72-0.25l-1.52,0.35
							c1.99,0.27,3.25-0.87,5.64-0.21c0.82,0.05,2.46,0.88,2.6,0.48c-1.34-0.78-1.59-3.15-0.69-3.72c0.29,0.05,4.33,0.76,5.26,1.14
							c1.35,0.61-2.05,1.42-0.89,1.94c0.05-0.18,0.8-0.41,1.12-0.48c0.87,0.16-0.36,0.57,1.52,0.49c0.32-0.68,3.83,0.08,0.89-0.57
							c1.84-0.18,1.96,0.15,4.12,0.13c-0.69-0.44,1.95-1.49,3.79-1.67c-0.11,0.17,0.3,0.4,0.5,0.5c3.77,0.08,5.8,0.4,9.32,0.43
							c0.32,0.17,2.02,0.38,1.3,0.67c0.51-0.12,0.97-0.35,2.06-0.36c2.1,0.6-2.42,0.08-0.82,0.79c0.14-0.4,2.81-0.53,4.36-0.77
							c-0.47-0.61-3.57-0.14-5.12,0.1c0-0.84,2.7-1.71,6.38-2.08c2.92-0.19,1.26,0.55,1.77,0.44c5.49,0.18,4.69-1.44,9.24-0.8
							c1.81,0.55,0.07,1.07,0.47,1.46c-2.38,0.19-3.65-0.37-5.27-0.35l1.99,0.27c-0.76,0.17-2.35,0.3-3.21,0.14
							c1.51,0.49,9.27,0.15,13.51,0.63c0.75-0.17,2.05-0.35,1.44-0.57l-1.34,0.06c-1.23-0.44,2.53-0.58,0.83-0.8
							c1.8-0.29,3.82-0.75,6.35-0.49l0.47,0.62c-0.05-0.18-1.65-0.38-2.36-0.2c1.06-0.26,3.87,0.86,5.04,0.07l-1.77-0.44
							c1.81-0.29,4.05-0.92,6.29-0.71c-1.02-0.62-0.52,0.06-2.11-0.66c1.37,0.89-5.74-0.09-3.53,0.86
							c-1.63-0.84-2.83-0.37-4.96-1.09c0.06,0.2,0.75,0.39-1.13,0.28c-0.09,0.06-0.29,0.13-0.41,0.17
							c-0.06-0.01-0.08-0.01-0.13-0.02c0.04,0.01,0.07,0.02,0.1,0.02c-0.08,0.03-0.09,0.04,0.04,0.01c0.45,0.09,0.81,0.2,0.96,0.32
							c-0.94,0.46-3.93,0.42-4.95,0.65c-1.12-0.1,0.47-0.23-0.14-0.45l-1.52,0.35c-0.15-0.45-2.96-0.77-0.33-1.01l-2.37-0.04
							c-1.39-0.26-3.31-0.38-4.5-0.19c-1.12-0.1-2.83,0.48-1.85,0.13l-3.72,0.25l-0.03-0.11c-3.67-0.08-7.55,0.7-11.74-0.14
							c-1.24,0.11-2.51,0.24-4.58,0.1l-0.4-0.39c-1.59,0.13-4.76-0.42-5.44-0.01c-1.7-1.06-7.69-0.27-10.47-0.47l-0.11,0.51
							c-1.92-0.04-3.76,0.09-6.14,0.28l0.14,0.45c-2.05,0.35-5.27-0.35-8.52-0.33c0.22-0.17,1.05-0.12,1.63-0.01
							c-3.87-1.04-8.19,0.68-11.7-0.09c-0.88,0.16-1.51,0.09-2.13-0.02c0.08,0,0.15-0.01,0.22-0.02c-0.09,0-0.22-0.01-0.36-0.01
							c-0.39-0.08-0.78-0.17-1.22-0.25c0.37,0.11,0.72,0.21,1.02,0.25c-0.68,0-1.7,0.05-2.71,0.15l-0.42-0.49
							c-0.08,0-0.15,0.01-0.23,0.01c-0.98-0.19-0.79,0.22-0.27,0.59c-0.51,0.07-0.97,0.16-1.33,0.28c-0.79-0.79-2.64,0.23-3.72-0.61
							c-0.68,0.4-5.05,0.24-5.6,1.09c-0.03-0.11-0.33-0.17,0.21-0.17c-1.12-0.11-2.24-0.22-3.24,0l-0.47-0.62l-2.46,0.79
							c-1.48-0.4-2.09-0.62-0.61-1.07c-3.57,0.67-2.89,0.23-5.94,0.89l0.15-0.39c-1.08,0-2.82,0.49-3.47,0.15
							c-2.41-0.79-11.98-0.35-18.17-1.25c1.17,1.2-2.87-0.61-3.14,0.28c-0.35-0.29-1.21-0.47-0.2-0.68
							c-3.18,0.16-4.74-0.6-6.96,0.07c-0.35-0.29,0.69-0.38,0.38-0.55c-0.26,0.05-1.01,0.2-1.34,0.02
							c-0.32-0.18,0.47-0.21,0.98-0.31c-3.23-0.08-3.6,0.74-3.87,1.53c-1.62-0.45-2.44-0.43-3.65,0.03c-0.56-0.29-1.5-0.61,0.52-0.6
							c-1.13-0.08-6.88-0.74-7.03-0.12c-0.34-0.18-1.58-0.14-1.88-0.09c-2.53-0.2-2.75-0.27-5.24-0.38l0.68,0.15
							c-1.04,0.7-2.08,0.03-4.09-0.04l0.06-0.07c-4.54-0.93-2.01,0.11-6.47-0.94l0.2,0.5c-0.53,0.99-3.95-1-6.59-0.92l0.91,0.38
							c-1.48,0.19-3.81-1.88-5.21-2.21c-0.3-0.13,0.51-0.07,0.95-0.08c-3.62-1.13-0.57,0.57-3.36,0.29
							c-0.46-0.42,0.78-0.74-1.05-1.11c-0.86-0.4-5.55,0.16-7.87-1.1c0.48,0.38,0.97,0.76-0.33,0.66c-0.97-0.19-2.2-0.76-3.38-1.29
							c-1.19-0.52-2.33-0.99-3.28-0.93c-0.2-0.15-0.26-0.26-0.24-0.32c-0.71-0.17-1.81-0.57-2.8-1c-0.99-0.42-1.84-0.9-2.3-1
							c0.05-0.53-0.34-1.06-0.7-1.66c-0.35-0.6-0.73-1.24-0.8-2.02c-0.1-0.78,0.08-1.67,0.39-2.27c0.31-0.6,0.68-0.91,0.99-0.7
							c0.69-1.16,1.66-2.28,2.7-3.33l0.03,0.19c2.12-1.89,2.77-2.77,3.35-3.7c0.61-0.33,0.3,0.08,0.3,0.18
							c3.62-2.34,4.04-2.47,6.67-5.35l0.61,0.15c0.32-0.43,1.76-1.27,3.42-2.61c1.65-1.32,3.55-3.25,4.51-5.52
							c0.02,0.07,0.06,0.21-0.08,0.58c0.6-1.24,1.27-2.6,1.76-4.12c0.5-1.5,0.77-3.17,0.69-4.72c-0.14-3.14-1.49-5.46-2.73-5.81
							c-0.73-0.93-1.53-1.77-2.36-2.54c1.31,1.76,1,1.77,0.56,1.5c-0.46-0.26-1.11-0.73-0.71,0.05c-1.04-1.25-2.42-3.58-0.95-2.15
							l0.15,0.3c0.61-0.02-0.21-1.1-1.2-2.13c-0.98-1.03-2.11-2-1.86-2.21c-3.23-2.73-6.58-5.13-9.86-7.44
							c-3.27-2.3-6.56-4.47-9.46-6.69c0.07,0.36,0.16,0.73,0.24,1.1c-0.69-0.52-1.37-1.06-2-1.62c-0.37-0.57-0.3-0.99,1.05,0.16
							c-0.51-0.89-2.39-1.67-2.52-1.63c-0.38-0.55-0.34-0.73-0.29-0.81c0.08-0.06,0.24,0.02,0.41,0.11c0.28,0.1,1.02,0.67,0.7,0.31
							l-0.35-0.35c-0.08-0.09-0.15-0.16-0.21-0.25c0,0.05,0,0.11,0.01,0.16c-0.29-0.15-0.53-0.25-0.73-0.47
							c-0.18-0.2-0.42-0.61-0.1-1.21c0.62-0.61,0.66-0.08,0.87-0.28c0.04,0.03,0.11-0.01,0.33-0.23l0.17-0.1l0.27-0.15
							c0.17-0.1,0.42-0.2,0.62-0.3c0.44-0.2,0.91-0.38,1.39-0.55c-0.44-0.03-0.9-0.06-1.35-0.07c1.13-0.82,2.81-1.01,1.17-1.14
							c1.19,0.08,4.11-0.68,7.06-1.24c2.93-0.59,5.79-1.09,6.5-1.04c1.99-0.72,4.04-0.98,6.58-1.23c-0.64-0.05-1.1-0.65,1.1-0.82
							c-0.65,1.41,4.07,0.13,5.94,0.93c-1.65-0.49,6.22-0.74,3.65-1.41c1.84-0.05,0.16,0.49,1.57,0.68
							c4.32-0.89,9.64-0.43,15.03-0.96c0.07-0.18-0.85-0.39,0.29-0.73l2.91,0.7c1.06-0.15,0.92-1.08,2.91-0.58
							c-0.28-0.13-0.71-0.33,0-0.43c10.64,0.23,21.64-1.84,32.48-0.66c-1.47-0.28-0.5-0.36,0.61-0.41c-0.73-0.05,0-0.44-0.15-0.67
							l4.54,0.49c0.8-0.69,4.84-0.23,5.29-0.87l-1.43,0.17c1.87-0.81-2.72-1.56-2.48-2.53c-2.1,0.93-5.67-1.04-9.11,0.31
							c-0.78-0.16,0.65-0.34,0.22-0.54c-0.87,0.45-1.94,0.58-3.93,0.48l0.22-0.11c-5.57,0.34-7.97,0.04-14.25,0.08l0.49,0.45
							c-1.35,0-1.64-0.13-2.27-0.22c-1.51,0.79,3.78-0.15,2.41,0.71c-1.83-0.88-9.48,0.48-10.75-0.54
							c-2.07,0.12,0.64,0.51-1.43,0.63l-0.57-0.26l-0.5,0.41c-1.36,0.02-2.07-0.31-2.13-0.56c0.33,0.01,0.93-0.13,1.28-0.17
							c-1.78-0.24-4.96,0.43-5.57,0.36l2,0.05c-5.63,0.63-12.56,0.75-17.96,1.84l0.43,0.19c-4.12,0.79-3.36,0.05-7.91,0.71
							l0.16-0.07c-0.89,0.32-2.1,0.56-3.35,0.69c1.12-0.4-2.23-0.25-0.75-0.72c-4.46,1.01-2.2,0.62-5.06,1.85l-0.74-0.27
							c-0.96,0.49-1.02,0.66-3.27,1.13c1.81-0.62-1.55-0.32,0.48-1.08c-2.46-0.01-4.22,0.55-5.64,1.02
							c-1.42,0.47-2.51,0.86-3.78,0.62c-0.96,0.82,0.12,0.63,1.28,0.37c1.16-0.27,2.42-0.6,1.83-0.36c1.09,0.09-1.62,1.15-3.1,1.5
							c-0.75,0.22-1.48,0.1-2.52,0.16c-0.52,0.03-1.12,0.1-1.85,0.34c-0.36,0.11-0.76,0.27-1.24,0.54c-0.51,0.3-1.07,0.68-1.55,1.2
							c0.39-0.41,0.38-0.47,0.83-0.84c-0.97,0.57-1.62,1.48-1.95,2.51c-0.34,1.05-0.27,2.21,0.01,3.48c0.57,0.6,1.04,1.28,1.47,1.81
							c0.23,0.28,0.41,0.46,0.59,0.56c0.18,0.11,0.36,0.14,0.56,0.06c-0.24-0.23-0.45-0.43-0.71-0.71c-0.26-0.28-0.5-0.6-0.74-0.92
							c-0.46-0.66-0.82-1.4-0.95-2.19c0.28,1.33,1.39,2.44,2.38,3.21c0.97,0.76,2.04,1.52,3.25,2.71c-0.3-0.03-1.23-0.47-1.85-0.85
							c0.63,0.84,1.6,1.09,2.29,1.88c-0.35,0.23-1.28-0.37-2.36-1.24c-0.54-0.43-1.12-0.94-1.69-1.46c-0.14-0.13-0.29-0.27-0.43-0.4
							l-0.21-0.2l-0.24-0.25c-0.32-0.32-0.63-0.68-0.92-0.99c0.13,0.38,0.48,0.9,0.9,1.34c0.37,0.39,0.75,0.7,1.09,0.97
							c0.66,0.52,1.08,0.84,0.34,0.78c1.97,0.31,3.1,2.66,5.79,3.45l-0.41,0.3c0.39,0.17,1.24,0.47,1.87,0.9l-1.5-0.25
							c2.08,0.75,3.2,2.63,5.04,3.49c-3.56-2.29-0.49-1-1.8-2.26c4.72,2.32,1.89,2.65,6.76,5.69c-0.67-0.39-2.25-1.88-1.11-1.38
							c0.85,0.7,1.93,1.67,2.32,2.26c3.08,2.15-0.17-0.74,1.29-0.02c0.68,1.23,1.62,0.92,3.02,1.83l-0.3,0.38
							c1.52,1.48,1.85,1.51,2.2,1.48c0.32-0.02,0.66-0.09,1.83,1.42c-0.53-0.24-1.06-0.46-1.59-0.67c0.51,0.41,1,0.84,1.48,1.28
							l-0.67,0.08c0.86,0.62,1.34,1.1,1.75,1.62c0.41,0.52,0.73,1.09,1.14,1.95c0.04-0.55,0.97-0.25,1.64,1.38
							c0.07,0.6-0.1,0.48-0.16,0.5c-0.09,0.02,0,0.16,0.28,1.28c-0.42-0.46-0.87-0.84-0.85-1.93c-0.19-0.04-0.48-0.35-0.67-0.38
							c0.11,0.61,0.36,1.27,0.55,1.89c0.19,0.62,0.32,1.2,0.36,1.58c-0.01-0.29-0.02-0.64,0.01-0.83c0.4,0.97,0.6,2.04,0.59,3.17
							c-0.29,0.47-0.33,0.02-0.4-0.38c-0.06,0.63,0.03,1.14-0.3,2.09c-0.28-0.38-0.61-0.5-0.45-1.75c-0.08,0.94-0.34,1.94-0.75,2.94
							c-0.23,0.12-1.29,1.13-1.17,0.7c-0.6,0.65-1.16,1.63-1.9,2.66c-0.74,1.02-1.65,2.08-2.78,2.78c-0.06,0.15-0.23,0.38-0.64,0.76
							c-1.02,0.73-2.08,1.29-3.16,1.94c-1.15,0.7-2.33,1.5-3.48,2.7c-0.64,0.17-1.27,0.38-1.91,0.57c-1.92,1.76,2.51-0.9-0.65,2.01
							c-2.15,2.17-1.26,0.31-2.2,0.89c-0.44,0.68-1.05,1.61-1.74,2.66c-0.71,1.07-1.55,2.21-2.53,3.57
							C1389.81,1426.76,1390.34,1426.11,1390.86,1425.32z M1411.19,1444.87c-0.6,0-1.84,0.08-2.22-0.29
							C1409.75,1444.18,1410.21,1444.54,1411.19,1444.87z M1457.42,1447.83c-0.44,0.14-1.12,0.03-1.87-0.18
							C1456.1,1447.63,1456.73,1447.67,1457.42,1447.83z M1585.89,1446.19c-0.02,0.01-0.04,0.02-0.06,0.02
							C1584.51,1446.02,1584.98,1446.1,1585.89,1446.19z M1588.61,1446.42c0.27-0.07,0.26-0.13,0.14-0.2
							c-0.19,0.12-0.8,0.12-1.5,0.09C1587.44,1446.43,1587.79,1446.52,1588.61,1446.42z M1386.43,1368.4c-0.1,0.02-0.2,0.06-0.3,0.1
							C1386.5,1367.98,1386.46,1368.2,1386.43,1368.4z"/>
						<path class="st22" d="M1452.16,1448.25c-0.16-0.09-0.2-0.18-0.24-0.27C1451.68,1448.05,1451.67,1448.14,1452.16,1448.25z"/>
						<path class="st22" d="M1405.67,1412.75l0.07-0.05c0.02-0.05,0.02-0.09,0.01-0.12L1405.67,1412.75z"/>
						<path class="st22" d="M1546.42,1450.26c-0.56-0.07-0.87-0.16-1.08-0.26C1545.31,1450.12,1545.56,1450.22,1546.42,1450.26z"/>
						<path class="st22" d="M1603.04,1445.72l-1.75,0.11c0.84-0.02,1.14,0.09,1.57,0.17
							C1602.83,1445.88,1602.5,1445.72,1603.04,1445.72z"/>
						<path class="st22" d="M1618.15,1448.85c0.26-0.06,0.54,0,0.79-0.06l-0.07-0.22
							C1617.79,1448.57,1617.03,1448.75,1618.15,1448.85z"/>
						<path class="st22" d="M1604.64,1447.33c0.13,0.41,1.23,0.28,2.45,0.22c-0.07,0-0.14,0-0.22,0
							C1607.24,1446.98,1605.94,1447.16,1604.64,1447.33z"/>
						<path class="st22" d="M1607.38,1447.54c0.38-0.02,0.76-0.02,1.13,0C1608.65,1447.31,1608.05,1447.49,1607.38,1447.54z"/>
						<path class="st22" d="M1592.06,1446.18c0.58,0.11,0.37-0.52,0.69-0.35C1593.41,1445.32,1588.89,1446.42,1592.06,1446.18z"/>
						<polygon class="st22" points="1605.62,1448.68 1605.19,1448.17 1604.5,1448.57 						"/>
						<path class="st22" d="M1595.98,1448.23l1.95,0.15c-0.03-0.08,0.22-0.13,0.52-0.17
							C1597.25,1448.19,1595.93,1448.08,1595.98,1448.23z"/>
						<path class="st22" d="M1598.45,1448.22c0.63,0.01,1.22,0.01,1.57-0.07C1599.69,1448.15,1598.96,1448.16,1598.45,1448.22z"/>
						<polygon class="st22" points="1602.95,1448.81 1602.37,1448.7 1601,1448.65 						"/>
						<path class="st22" d="M1575,1447.99l-2.13,0.13c-0.22,0.17,0.36,0.28,1.16,0.21C1574.53,1448.22,1575.33,1448.15,1575,1447.99
							z"/>
						<path class="st22" d="M1581.43,1449.4c-0.58-0.11-0.61-0.22-0.94-0.39l-0.07,0.62L1581.43,1449.4z"/>
						<path class="st22" d="M1575.22,1449.51c-0.21,0.17-3.09,0.48-0.39,0.45C1575.04,1449.79,1577.18,1449.66,1575.22,1449.51z"/>
						<polygon class="st22" points="1543.13,1448.54 1543.68,1448.53 1543.6,1447.51 						"/>
						<path class="st22" d="M1514.82,1450.76c2.52,0.27,0.61-0.62,2.88-0.3c0.6-0.24-1.86-0.27-1.25-0.47
							C1514.93,1450.23,1514.13,1450.08,1514.82,1450.76z"/>
						<path class="st22" d="M1516.45,1449.99c0.24-0.04,0.5-0.08,0.78-0.15C1516.79,1449.91,1516.58,1449.95,1516.45,1449.99z"/>
						<polygon class="st22" points="1483.12,1359.11 1484.75,1359.26 1483.69,1358.96 						"/>
						<path class="st22" d="M1486.2,1358.24l0.4,0.64l0.95-0.62C1487.2,1358.3,1486.49,1358.38,1486.2,1358.24z"/>
						<path class="st22" d="M1415.51,1446.91l0.15-0.14c-0.23-0.21-0.61-0.28-1.37-0.42L1415.51,1446.91z"/>
						<path class="st22" d="M1393.37,1440.1c0.12,0.09,0.25,0.16,0.38,0.24c-0.14-0.3-0.27-0.62-0.39-0.93L1393.37,1440.1z"/>
						<path class="st22" d="M1394.3,1419.9c-0.64,0.52-1.27,1.28-1.89,1.86C1393.66,1420.39,1394.95,1420.32,1394.3,1419.9z"/>
					</g>
				</g>
			</g>
		</g>
	</g>
	<g>
		<g>
			<g>
				<g>
					<g>
						<path class="st22" d="M2006.88,1337.95c-1.77-0.05-1.14,0.37-1.4,0.44C2008.44,1338.33,2006.81,1337.84,2006.88,1337.95z"/>
						<polygon class="st22" points="2036.1,1337.38 2035.58,1337.55 2039.89,1337.2 						"/>
						<path class="st22" d="M2063.42,1337.9c-2.57-0.76-9.91-0.06-14.77-0.42l-0.8-0.18l-2.21,0.53
							C2051.57,1337.86,2059.26,1337.63,2063.42,1337.9z"/>
						<path class="st22" d="M2077.99,1339.65c-0.9-0.29,3.16-0.21-3.4-0.12c0.33,0.04,0.42,0.05,0.62,0.08
							C2075.79,1339.62,2076.61,1339.63,2077.99,1339.65z"/>
						<path class="st22" d="M2075.2,1339.61C2072.32,1339.59,2077.08,1339.87,2075.2,1339.61L2075.2,1339.61z"/>
						<path class="st22" d="M2088.53,1339.54l-3.8,0.24c0.79,0.17,4.18,0.21,2.92,0.32
							C2091.55,1339.97,2090.75,1339.81,2088.53,1339.54z"/>
						<path class="st22" d="M2092.13,1339.02l-1.97,0.1C2090.51,1339.19,2091.03,1339.21,2092.13,1339.02z"/>
						<path class="st22" d="M2085.98,1339.34l4.18-0.22c-0.55-0.12-0.61-0.35-1.92,0.08
							C2088.59,1338.99,2087.76,1339.19,2085.98,1339.34z"/>
						<path class="st22" d="M2083.62,1339.23c-2.13-0.17-4.88-0.3-1.07-0.51C2075.29,1338.75,2076.35,1339.26,2083.62,1339.23z"/>
						<path class="st22" d="M2064.83,1337.19l-2.84-0.26l-2.46,0.19C2060.76,1337.03,2065,1337.42,2064.83,1337.19z"/>
						<path class="st22" d="M2112.27,1339.48c0.23-0.16-1.3-0.35-1.59-0.54l-2.81,0.28
							C2109.32,1339.28,2112.07,1339.26,2112.27,1339.48z"/>
						<path class="st22" d="M2110.68,1338.94l4.2-0.43C2111.12,1338.64,2110.44,1338.79,2110.68,1338.94z"/>
						<path class="st22" d="M2092.81,1338.22l-6.9,0.55c2.74-0.19,5.48-0.34,8.23-0.57L2092.81,1338.22z"/>
						<path class="st22" d="M2128.4,1338.48l-2.37,0.55l4.22-0.89C2129.63,1338.27,2129.02,1338.37,2128.4,1338.48z"/>
						<path class="st22" d="M2139.08,1337.24c-1.73,0.53,2.49,0.16,0.64,0.59c1.45-0.23,2.79-0.48,4.03-0.76
							c1.24-0.31,2.4-0.62,3.49-0.92c-1.17,0.26-2.39,0.49-3.72,0.69C2142.18,1337.01,2140.72,1337.14,2139.08,1337.24z"/>
						<path class="st22" d="M2150.91,1335.18c-1.16,0.31-2.36,0.63-3.67,0.98C2148.48,1335.87,2149.7,1335.6,2150.91,1335.18z"/>
						<path class="st22" d="M2122.06,1338.18c0.33,0.08,0.98,0.27,3.35,0.18l-1.69-0.29
							C2123.22,1338.1,2122.64,1338.15,2122.06,1338.18z"/>
						<path class="st22" d="M2123.66,1338.05l0.06,0.01c1.8-0.13,3.05-0.23,3.58-0.27
							C2126.84,1337.83,2125.75,1337.91,2123.66,1338.05z"/>
						<path class="st22" d="M2121.64,1338.2c0.15-0.01,0.27-0.01,0.42-0.02C2121.9,1338.15,2121.8,1338.14,2121.64,1338.2z"/>
						<path class="st22" d="M2103.83,1338.45c2.47-0.28,7.6-0.69,2.61-0.92C2104.68,1337.86,2107.53,1338.01,2103.83,1338.45z"/>
						<path class="st22" d="M2119.55,1337.79l-4.47,0.16c0.09,0.11,0.91,0.24-0.31,0.41L2119.55,1337.79z"/>
						<polygon class="st22" points="2121.73,1337.53 2119.55,1337.79 2121.21,1337.73 						"/>
						<path class="st22" d="M2143.22,1336.09c1.89-0.49,3.99-0.87,6.35-1.3c-2.56,0.33-5.18,0.79-7.68,1.12
							C2141.56,1336.09,2140.49,1336.48,2143.22,1336.09z"/>
						<path class="st22" d="M2133.72,1337.18c0.13-0.02,0.3-0.05,0.43-0.07C2133.88,1337.1,2133.67,1337.11,2133.72,1337.18z"/>
						<path class="st22" d="M2172.54,1329c-0.13,0.02-0.25,0.03-0.39,0.04c-0.02,0.03-0.03,0.06-0.06,0.1L2172.54,1329z"/>
						<path class="st22" d="M2141.45,1335.89c-1.93,0.18-3.05,0.44-4.13,0.72c1.43-0.24,2.94-0.47,4.57-0.7
							C2142.04,1335.82,2142.06,1335.78,2141.45,1335.89z"/>
						<path class="st22" d="M2157.35,1333.64c-1.01,0.14-2.14,0.3-3.34,0.46C2155.01,1334.03,2157.03,1333.85,2157.35,1333.64z"/>
						<path class="st22" d="M2134.81,1337.16c-0.1,0.02-0.18,0.03-0.29,0.05C2135.16,1337.23,2135.08,1337.19,2134.81,1337.16z"/>
						<path class="st22" d="M2134.81,1337.16c0.98-0.17,1.75-0.34,2.51-0.55c-1.16,0.18-2.24,0.36-3.18,0.5
							C2134.39,1337.11,2134.63,1337.13,2134.81,1337.16z"/>
						<path class="st22" d="M2178.36,1324.07c-0.09,0.24-1.28,0.89-2.98,1.61c-1.72,0.66-3.96,1.37-6.09,1.85
							c-2,0.75-2.26,1.22-1.52,1.49c0.37,0.13,0.99,0.21,1.75,0.22c0.76-0.01,1.66-0.07,2.62-0.19c0.07-0.21,0.04-0.34,4.17-1.98
							c-1.54,0.32-9.51,2.59-6.06,1.09c5.5-2.02,4.62-1.32,7.36-2.12c-1.22,0.19,0.47-0.63,2.27-1.52c1.82-0.86,3.68-1.94,2.96-2.03
							c-1.53,0.76-3.11,1.39-4.67,2.07C2178.06,1324.48,2179.73,1323.67,2178.36,1324.07z"/>
						<path class="st22" d="M2164,1331.42c-0.58,0.19-1.17,0.36-1.76,0.51c2.05-0.43,3.51-0.74,6.26-1.18
							c2.88-1.04,3.42-1.44,3.59-1.61c-2.85,0.97-5.78,1.68-8.68,2.51L2164,1331.42z"/>
						<path class="st22" d="M2154.22,1333.79c1.33-0.66,5.54-1.87,2.83-1.7c-5.22,1.14-3.59,1.11-6.69,1.95
							c8.46-1.84-2.39,0.73,3.79-0.28c-1.66,0.41-3.15,0.76-4.57,1.03c1.55-0.24,3.04-0.47,4.44-0.69c-0.08,0.01-0.14,0.01-0.2,0.01
							l-0.04,0.01l0.01-0.01c-0.38,0.02-0.5,0.01-0.09-0.04c0.03-0.01,0.13-0.03,0.18-0.04
							C2153.92,1333.96,2154.06,1333.88,2154.22,1333.79c2.48-0.41,0.41,0.03-0.35,0.24c-0.02,0.03-0.09,0.06-0.09,0.08
							c0.01,0,0.02,0,0.03,0c2.83-0.61,5.63-1.43,8.42-2.18c-0.9,0.19-1.91,0.42-3.19,0.73c-0.64,0.16-1.35,0.33-2.14,0.53
							C2156.11,1333.38,2155.22,1333.57,2154.22,1333.79z"/>
						<path class="st22" d="M2110.99,1336.45c0.27,0.03,0.26,0.06,0.28,0.09C2111.82,1336.46,2112.03,1336.42,2110.99,1336.45z"/>
						<path class="st22" d="M2114.53,1336.57c-0.62,0.08-1.13,0.28-3.17,0.31c-1.77-0.06,0-0.21-0.1-0.35
							c-1.22,0.16-4.27,0.48-0.43,0.54l0.61-0.08c3.46,0.04,7.94,0.29,7.34,0.39C2117.76,1337.04,2116.85,1336.84,2114.53,1336.57z"
							/>
						<path class="st22" d="M2134.61,1335.84c2.38-0.29,4.73-0.75,7.1-1.13l-3.67,0.13l0.21,0.2
							C2134.19,1335.49,2135.09,1335.59,2134.61,1335.84z"/>
						<path class="st22" d="M2173.39,1328.95l-0.77,0.73c1.26-0.65,2.53-1.26,3.78-1.93
							C2175.4,1328.17,2174.39,1328.55,2173.39,1328.95z"/>
						<path class="st22" d="M2182.25,1325.72l-0.18,0.49c0.76-0.35,1.48-0.78,2.22-1.16
							C2183.61,1325.27,2182.94,1325.51,2182.25,1325.72z"/>
						<path class="st22" d="M1845.4,1236.76l-2.08,0.28C1844.31,1236.93,1844.94,1236.84,1845.4,1236.76z"/>
						<path class="st22" d="M1860.55,1235.59l0.36-0.22C1860.21,1235.53,1859.93,1235.63,1860.55,1235.59z"/>
						<path class="st22" d="M2141.18,1227.24c-3.03-0.6-6.42-1.39-6.08-0.93l0.91,0.5
							C2138.16,1226.87,2139.79,1227.04,2141.18,1227.24z"/>
						<path class="st22" d="M1984.82,1227.07c0.29,0.04,0.6,0.07,0.9,0.11c0.74-0.17,1.44-0.32,2.06-0.46
							C1986.89,1226.83,1985.88,1226.95,1984.82,1227.07z"/>
						<path class="st22" d="M1982.71,1228.92l-4.04-0.17C1979.58,1228.82,1980.88,1228.88,1982.71,1228.92z"/>
						<path class="st22" d="M1762.95,1245.72l-2.37,0.75C1764.37,1245.98,1762.68,1245.98,1762.95,1245.72z"/>
						<path class="st22" d="M2260.33,1270.06c1.25-2.79,1.51-5.54,1.06-7.8c0.25,1.98-0.06,3.75-0.37,5.06
							c-0.18,0.65-0.34,1.21-0.47,1.67C2260.41,1269.44,2260.33,1269.8,2260.33,1270.06z"/>
						<path class="st22" d="M1851,1231.69c-1.28,0.18-1.82,0.31-1.77,0.41C1850.54,1231.92,1851.28,1231.77,1851,1231.69z"/>
						<path class="st22" d="M2257.15,1254.35c0.32,0.43,0.65,0.82,0.96,1.27c1.41,1.68,2.72,3.75,3.28,6.65
							c-0.16-1.47-0.68-2.97-1.4-4.36C2259.24,1256.54,2258.26,1255.32,2257.15,1254.35z"/>
						<path class="st22" d="M1462.4,1249.61c-0.21-0.05-0.47-0.11-0.67-0.16C1461.66,1249.49,1461.96,1249.54,1462.4,1249.61z"/>
						<path class="st22" d="M1377.78,1226.11c0.83,0.22,2.18,0.62,3.45,0.99C1380.62,1226.88,1379.58,1226.58,1377.78,1226.11z"/>
						<path class="st22" d="M2215.96,1308.56C2214.3,1309.67,2215.72,1308.77,2215.96,1308.56L2215.96,1308.56z"/>
						<path class="st22" d="M2206.81,1312.1c0.34-0.25,0.59-0.46,0.58-0.57C2207.31,1311.7,2207.1,1311.9,2206.81,1312.1z"/>
						<path class="st22" d="M2238.47,1246.23c-0.05-0.02-0.1-0.04-0.16-0.06C2238.83,1246.46,2238.74,1246.41,2238.47,1246.23z"/>
						<path class="st22" d="M2213.31,1309.98c0.66-0.35,1.44-0.73,2.24-1.23C2215.18,1308.94,2214.5,1309.32,2213.31,1309.98z"/>
						<path class="st22" d="M2213.76,1309.94c-0.6,0.34-1.07,0.61-1.51,0.87C2212.07,1311,2212.29,1310.92,2213.76,1309.94z"/>
						<path class="st22" d="M2218.27,1307.03c-0.95,0.63-1.85,1.19-2.73,1.72c0.34-0.19,0.49-0.26,0.41-0.19
							C2216.44,1308.24,2217.13,1307.78,2218.27,1307.03z"/>
						<path class="st22" d="M1623.66,1258.74c-0.13-0.01-0.28-0.02-0.42-0.03C1621.25,1258.94,1622.12,1258.89,1623.66,1258.74z"/>
						<path class="st22" d="M2089.72,1229.14c0.09-0.01,0.14-0.01,0.23-0.01c-0.09-0.01-0.21-0.02-0.29-0.02L2089.72,1229.14z"/>
						<path class="st22" d="M2082.65,1229.26c3.02-0.46,4.73-0.35,7.01-0.16l-2.3-1.32L2082.65,1229.26z"/>
						<path class="st22" d="M1809.19,1240.19l4.98-0.1c-5.9,1.22-10.23,1.44-5.54,1.52c0.56-1.44,19.18-2,19.75-3.38l3.28-0.01
							c-0.94,0.07-1.08,0.16-2,0.23c6.4,0.09,4.62-1.4,12.81-1.91c2.86-0.13,4.86-0.1,2.93,0.22l6.32-0.85
							c1.85-0.12,1.42,0.15-0.42,0.27l9.68-0.86l-0.07,0.05c1.37-0.32,4.47-0.88,5.99-1.13c2.48,0.02-1.22,0.23-0.58,0.36l5.34-0.72
							c2.21,0.2-2.21,0.85-5.92,1.07c5.11,0.99,4.43-0.68,15.3-0.63l-5.05,0.52c3.32,0.54,7.25-0.01,13.01,0.11
							c-1.37-0.17-11.55-0.45-5.75-1.18c1.65-0.01,3.81-0.1,6.94-0.57c0.06,0.48,3.12,0.17,6.96-0.09l-0.22,0.66
							c4.14-0.43,3.79-0.74,6.22-1.17c4.63-0.2,5.62,0.24,6.73,0.6c7.42-0.3-5.16-0.52,3.61-1.11c6.18-0.09,10.49-0.57,17.86-1.29
							c4.33,0.02-0.74,0.43,0.82,0.54l3.8-0.68c0.94-0.03,0.64,0.14,0.49,0.23c3.22-0.34,0.24-0.65,5.3-1.04
							c1.34-0.76,10.45,0.6,16.7-0.42c1.55,0.13-0.73,0.42-0.25,0.65c8.6-0.82,7.37-0.63,14.42-1.55l6.04,0.25
							c-4.44-0.36,1.2-1.09,6.15-1.67c-1.58-0.2-2.93-0.36-3.83-0.44l7.91-0.53c0.96,0.09,0.17,0.32-1.13,0.62
							c0.54-0.07,1.05-0.14,1.45-0.19c2.84,0.18,1.38,0.58-0.64,0.98c-0.97-0.11-1.93-0.22-2.86-0.33
							c-1.95,0.43-3.76,0.91-3.35,1.27c0.51-0.09,1.5-0.17,2.59-0.24c-0.51,0.12-0.83,0.22-0.59,0.28c0.27,0.06,1.09-0.1,2.38-0.29
							l1.81,0.67l0.43-0.29l10.36,0.24c7.39-0.84,13.82-2,25.58-2.37c-2.92,0.54-0.62,0.86-0.78,1.48
							c-3.21-0.63-9.1,0.34-15.19,0.29c3.18,0.03,2.48,0.33,1.68,0.45l10.86-0.7c-0.24,0.51,2.31,0.36,5.15,0.56
							c-2.15-0.99,8.1-0.71,12.52-1c0.27,0.34-0.79,0.67-6.18,0.6c5.95,0.75,7.69-1.18,13.53-0.51c-1.32,0-2.03-0.05-2.55,0.12
							c3.08-0.29,10.6,0.01,8.83,0.29l-1.31,0c8.74,0.15,26.61,0.39,27.93-0.4c0.08,0.11-1.17,1-1.7,1.16
							c5.22-0.84,10.45-1.64,15.68-2.42c-1.4,0.69,3.82,2.6-3.44,2.77c2.08,0.17,4.64,0.37,9.04,0.28c-1.41-0.16-3.5-1.18-1.56-1.18
							c5.29,1.02,3.68,0.57,10.21,1.54c-2.12-0.25,0.29-1.3,3.65-1.1c-0.53,0.15,0.23,1.14-1.01,1.2l8.42-0.71
							c-2.1,0.1-0.42,0.93,1.43,1.35c-0.85-0.27,7.22,0.42,9.45,0.46l-3.52-0.47c9.42,0.75,9.42-1.01,18.77-0.25
							c-1.15,0.14-2.9,1.21,1.84,1.72c2.22-0.4,9.87-1.99,18.2-1.58l1.55,0.49l6.39,0.32c-4.06,0.39-15.31,1.08-21.41,1.3
							c3.5,0.56,0.95,0.47,6.22,0.91c1.83,0.48-2.91,0.2-4.46,0.09c4.08,0.42,8.15,0.88,12.22,1.36c-0.47-0.75,9.42,0.35,9.02-0.25
							c-4.45-0.29-8.91-0.52-13.36-0.73c-0.48-0.72,7.89-1.18,16.56,0.01c2.17,0.53-1.79,0.99-1.64,1.23
							c1.15-0.11,8.27,0.59,9.04,0.88l-3.71-0.13c4.77,0.88,7.97,0.16,13.64,1.7c1.98,0.35,5.77,1.83,6.18,1.5
							c-3.09-1.31-3.35-3.76-1.08-3.96c0.35,0.08,2.94,0.71,5.71,1.45c2.77,0.75,5.71,1.62,6.8,2.04c3.12,1.27-5.17,0.39-2.51,1.48
							c0.15-0.15,1.99-0.02,2.75,0.08c2.03,0.61-0.97,0.36,3.52,1.27c0.91-0.52,9.04,2.25,2.24-0.07c4.4,0.89,4.6,1.25,9.66,2.67
							c-1.49-0.9,4.98-0.16,9.31,1.3c-0.31,0.07,0.57,0.62,0.98,0.91c4.28,1.72,7.46,3.34,10.36,5.22c1.45,0.93,2.83,1.94,4.17,3.13
							c1.34,1.19,2.68,2.55,3.78,4.33c0.15,0.36,0.65,1.45,0.83,2.3c0.2,0.85,0.2,1.39-0.17,0.67c0.14,0.25,0.2,0.52,0.31,0.79
							c0.11,0.28,0.22,0.57,0.28,0.92c0.07,0.35,0.17,0.74,0.17,1.21c0.01,0.23,0.02,0.48,0.02,0.75c-0.03,0.27-0.06,0.56-0.1,0.86
							c-0.36,1.16-0.55,1.37-0.52,1.13c0.01-0.24,0.19-0.93,0.23-1.68c0.13-1.5-0.18-3.02-0.38-1.31c0.18,0.13,0.43,1.67-0.11,3.6
							c-0.48,1.94-1.7,4.14-2.73,5.67c0.6-0.25,1.93-1.99,2.85-4.27c0.93-2.28,1.02-5.07,0.47-6.73c0.21-0.05,0.52,0.28,0.78,1
							c0.3,0.71,0.48,1.84,0.4,3.28c-0.08,1.44-0.55,3.15-1.39,4.94c-0.84,1.78-2.05,3.63-3.55,5.41c-0.62,0.68-1.13,1.23-1.54,1.65
							c-0.43,0.41-0.76,0.7-1.02,0.91c-0.51,0.43-0.71,0.52-0.77,0.47c-0.12-0.08,0.29-0.69-0.13-0.21
							c-10.48,8.54-7.93,8.49-17.21,14.85c-3.9,2.21-0.8-0.74-1.83-0.47c2.3-1.79,4.11-3.12,5.76-4.26
							c1.64-1.15,3.14-2.11,4.67-3.37c-1.31,0.96-2.66,1.87-3.99,2.81c0.68-0.64,1.76-1.58,2.9-2.51c1.12-0.95,2.29-1.9,3.16-2.51
							c-1.57,1.01-6.03,4.52-11.23,8.44c-5.23,3.88-11.22,8.13-15.7,10.74c-1.44,1.15-4.01,3.05-2.63,2.41l2.71-1.85
							c2.77-1.29-4.86,3.88-1.26,1.78c-1.75,1.36-3.67,2.72-5.81,4.16c-2.12,1.48-4.55,2.88-7.33,4.29l-1.32,0.03
							c0.2,0.09,3.73-1.67,5.17-2.68c-1.07,0.75-3.25,1.74-5.43,2.79c-2.2,1.01-4.42,2.03-5.51,3.05l4.09-1.61
							c-3.8,2.33-8.48,5.38-13.7,7.33c2.57-0.44,1.18-0.5,5.06-1.53c-1.74,0.31,1.51-1.15,4.48-2.58c2.94-1.5,5.64-2.88,2.98-2.04
							c0.99-0.28,1.89-0.6,2.76-0.95c0.86-0.37,1.67-0.79,2.52-1.22c0.85-0.43,1.73-0.89,2.72-1.36c0.99-0.46,2.06-0.96,3.28-1.51
							c-0.24-0.09-1.8,0.64,2.24-1.69c0.15-0.16,0.54-0.48,0.78-0.68c0.13-0.07,0.17-0.09,0.28-0.15c-0.08,0.04-0.15,0.07-0.23,0.11
							c0.16-0.13,0.17-0.15-0.09,0.04c-1,0.5-1.82,0.87-2.19,0.97c0.86-0.82,2.91-2.11,4.91-3.53c2.01-1.41,4.04-2.8,5.02-3.58
							c2.33-1.46-0.82,0.84,0.54,0.18l2.86-2.42c0.55,0.16,6.44-3.57,1.26,0.36c1.6-1.11,3.23-2.2,4.78-3.37
							c1.46-0.92,3.16-2.06,4.77-3.21c1.61-1.15,3.09-2.37,4.19-3.33c2.25-1.6,5.17-4.69,3.51-2.91l6.92-6l0.14,0.03
							c3.55-2.96,7.06-6.47,9.53-11.2c1.2-2.36,2.05-5.18,1.92-8.17c-0.06-1.5-0.43-2.97-0.93-4.39c-0.54-1.4-1.28-2.7-2.1-3.93
							c-2.29-2.6-4.99-4.71-9.54-7.43l-0.72-0.84c-1.83-0.9-4.53-2.28-7.03-3.36c-2.5-1.09-4.78-1.9-5.65-1.98
							c-1.85-1.2-6.45-2.72-11.42-3.94c-4.97-1.25-10.32-2.23-13.68-2.99l-0.35,0.45c-4.64-0.95-9.14-1.61-14.96-2.31l0.29,0.5
							c-5.04-0.43-12.79-2.21-20.73-3.08c0.56-0.11,2.56,0.18,3.97,0.45c-9.36-2.18-20.07-1.46-28.6-2.9
							c-2.16-0.02-3.71-0.19-5.2-0.42c0.2,0.01,0.38,0.02,0.53,0.02c-0.22-0.02-0.55-0.05-0.88-0.07c-0.94-0.15-1.91-0.3-2.96-0.46
							c0.89,0.18,1.74,0.33,2.49,0.43c-1.66-0.11-4.17-0.25-6.64-0.3l-1.02-0.55c-0.2-0.01-0.36-0.02-0.57-0.03
							c-2.4-0.34-1.96,0.09-0.69,0.54c-1.24-0.01-2.39,0.02-3.27,0.08c-1.91-0.91-6.47-0.14-9.1-1.11
							c-1.68,0.29-12.4-0.33-13.75,0.47c-0.08-0.11-0.8-0.2,0.53-0.15c-2.74-0.22-5.48-0.43-7.95-0.29l-1.14-0.66l-6.02,0.61
							c-3.63-0.5-5.13-0.75-1.5-1.11c-8.76,0.46-7.1,0.05-14.54,0.59l0.37-0.39c-2.66-0.05-6.91,0.4-8.51,0.04
							c-5.93-0.9-29.39-0.5-44.64-1.07c2.97,1.15-7.09-0.48-7.69,0.44c-0.89-0.27-3.02-0.4-0.55-0.67
							c-7.78,0.35-11.7-0.3-17.06,0.55c-0.9-0.26,1.66-0.43,0.86-0.58c-0.62,0.07-2.47,0.28-3.28,0.13
							c-0.8-0.15,1.14-0.25,2.37-0.39c-7.95,0.19-8.74,1.07-9.3,1.88c-4.03-0.29-6.04-0.19-8.94,0.41
							c-1.41-0.22-3.75-0.44,1.18-0.66c-2.78,0.02-16.98,0.09-17.24,0.75c-0.88-0.14-3.88,0.08-4.61,0.18
							c-6.23,0.18-6.78,0.14-12.9,0.44l1.7,0.04c-2.38,0.86-5.08,0.37-10,0.67l0.14-0.09c-11.33-0.05-4.87,0.47-16.05,0.37
							l0.63,0.45c-0.99,1.08-9.91-0.11-16.36,0.64l2.35,0.14c-3.51,0.54-9.95-0.84-13.51-0.76c-0.78-0.04,1.21-0.22,2.29-0.35
							c-9.33-0.05-1.17,0.7-8.08,1.27c-1.3-0.26,1.59-0.97-3.07-0.73c-2.34-0.14-13.44,1.99-19.83,1.81
							c1.42,0.16,2.83,0.32-0.37,0.75c-4.92,0.45-13.39,0.01-17.77,1.19c-0.63-0.02-0.87-0.07-0.9-0.13
							c-3.75,0.51-12.19,1.36-14.42,2.01c-3.63-1.38-23.28,2.95-23.34,1.44l-11.54,1.25l0.29-0.19c-7.39,0.67-9.96,1.33-12.51,1.98
							c-1.72,0.09-0.49-0.19-0.36-0.29c-10.81,0.91-11.88,1.11-20.81,2.96l-1-0.38c-2.41,0.58-15.66,1.18-26.11,3.26
							c0.1-0.07,0.3-0.2,1.13-0.39c-5.88,1.1-13.03,1.89-19.19,2.55c-6.16,0.68-11.35,1.37-13.4,2.57
							c-2.58,0.54-5.17,0.97-7.76,1.42c10.14-1.05-1.41,0.95,2.79,0.76c-3.97,0.57-10.37,0.67-5.48,0l0.78,0
							c1.69-1.15-12.62,1.14-12.42,0.47c-19.94,2.09-39.47,2.92-58.22,3.62c0.73,0.23,1.46,0.45,2.19,0.65
							c-2.18,0.09-4.37,0.1-6.55,0.16c-1.72-0.12-2.32-0.51,2.35-0.61c-2.47-0.35-7.82,0.56-7.95,0.72
							c-9.15-0.05,3.55-0.95,0.75-0.89l-3.8,0.16l0.86,0.06c-3.08,0.37-3.35,0.75-8.96,0.74c-3.55-0.12-1.83-0.44-3.23-0.46
							c0.01-0.05-0.46-0.07-2.14-0.01l-8.25-0.02l3.3,0.56c-3.66,0.34-7.76-0.1-3.95,0.63c-2.79-0.56-10.49-0.71-17.91-0.89
							c-7.42-0.27-14.58-0.39-16.28-0.66c-5.13,0.13-10.19-0.1-16.44-0.55c1.55,0.23,2.44,0.95-2.95,0.48
							c1.03-0.6-1.43-0.92-4.68-1.25c-3.25-0.33-7.29-0.67-9.42-1.38c3.83,0.99-15.3-1.23-9.29,0.22c-4.48-0.53-0.23-0.5-3.6-1.17
							c-10.72-0.63-23.46-2.9-36.58-4.72c-0.23,0.14,1.93,0.73-0.93,0.58c-2.27-0.61-4.53-1.26-6.79-1.93
							c-2.6-0.33-2.54,0.62-7.17-0.74c0.64,0.25,1.6,0.63-0.14,0.41c-12.74-2.58-25.8-4.89-38.82-7.69
							c-13.02-2.79-26.01-6.07-38.44-10.46c3.34,1.3,1.04,0.69-1.58-0.05c1.68,0.56-0.16,0.41,0.11,0.73
							c-3.47-1.25-6.93-2.5-10.37-3.82c-2.13,0.07-11.26-3.59-12.53-3.42l3.34,1.03c-4.66-0.77,5.65,3.64,4.72,4.31
							c5.22,0.8,12.82,5.31,21.44,6.42c1.78,0.68-1.64-0.13-0.72,0.35c2.21,0.17,4.76,0.78,9.43,2.19l-0.56-0.04
							c13.28,3.29,18.89,5.02,33.88,8.47l-1.02-0.7c3.22,0.74,3.87,1.02,5.36,1.46c3.85,0.06-9.07-1.93-5.53-2.01
							c4.07,1.96,22.83,4.48,25.57,6.02c5,0.89-1.37-0.8,3.63,0.09l1.28,0.51l1.33-0.17c3.28,0.59,4.88,1.22,4.96,1.49
							c-0.79-0.16-2.28-0.3-3.14-0.41c2.11,0.52,5.12,0.97,7.79,1.34c2.67,0.34,5,0.57,5.72,0.74l-4.81-0.88
							c13.75,1.82,30.52,4.24,43.91,4.94l-0.99-0.31c5.11,0.26,7.14,0.5,9.3,0.79c2.15,0.29,4.43,0.63,10.04,0.92l-0.41,0.02
							c2.26-0.06,5.26,0.04,8.32,0.29c-2.85,0.07,5.29,0.87,1.56,0.91c11.1,0.16,5.5-0.05,12.85-0.49l1.67,0.46
							c2.51-0.19,2.72-0.39,8.32-0.29c-4.6,0.16,3.55,0.69-1.61,0.93c5.86,0.59,10.24,0.58,13.81,0.48
							c3.57-0.11,6.35-0.18,9.04,0.45c5.41-0.95-10.17-0.71-7.14-0.89c-2.52-0.37,4.47-0.7,8.15-0.55c1.88,0.03,3.47,0.4,5.78,0.73
							c2.31,0.31,5.33,0.61,10.06,0.57c-0.94,0-1,0.08-1.94,0.08c3.54,0.22,6.93-0.35,11.28-0.05c2.42-0.69,5.64-0.12,6.32-0.93
							l-8.66,0.42c4.91-0.34,9.49-1.39,17.59-1.16c-0.62,0.18-3.02,0.45-4.67,0.61c2.37,0.15,4.55-0.24,7.01-0.14
							c-0.67,0.89-10.52,0.48-15.78,1.25c2.55,0.26,9.95-0.85,7.33,0.08c1.89-0.6,4.21-0.62,6.87-0.64
							c2.65-0.06,5.64-0.11,8.81-0.68l-0.4,0.49c1.01-0.12,3.09-0.45,4.96-0.53l-3.34,0.78c2.58-0.39,5.08-0.4,7.56-0.37
							c2.48,0.01,4.93-0.02,7.4-0.33c-10.39,0.75-2.37-0.4-6.78-0.44c6.38-0.76,8.24-0.59,10.3-0.37c2.06,0.19,4.32,0.53,11.48-0.21
							c-1.93,0.29-7.31,0.29-4.29-0.14c2.74-0.08,6.35-0.29,8.05-0.19c9.48-0.99-1.5-0.35,2.51-1.02c3.28,0.27,4.64-0.67,8.77-1.24
							l0.08,0.48c10.83-0.88,2.75-1.31,12.5-2.06l-4.03,1.15l5.04-0.76l-0.98,0.67c2.73-0.52,4.53-0.81,6.32-1.03
							c1.79-0.2,3.57-0.39,6.27-0.69c-1.29-0.16,0.59-0.97,5.34-1.65c3.29-0.17-1.75,0.71,4.98-0.31c-1.48,0.51-3.1,1.12-6.1,1.1
							c-0.28,0.2-1.46,0.51-1.75,0.71c3.54-0.17,8.81-1.17,11.25-1.52c-0.94,0.12-2.07,0.25-2.66,0.26
							c3.24-0.67,6.46-1.36,9.66-2.08c1.56-0.05,0.36,0.28-0.82,0.6c1.96-0.35,3.3-0.77,6.19-1.23c-0.69,0.5-0.46,0.87-4.53,1.66
							l9.21-1.78c0.64,0.07,4.83-0.2,3.64,0.11c5.17-0.49,12.53-2.47,19.41-3.03c0.35-0.12,1.05-0.28,2.5-0.52
							c6.44-0.71,12.19-0.91,19.76-2.31l4.41,0.22c5.96-0.81-5.96-0.24,3.97-1.59c7.03-0.98,2.7,0.32,5.19,0.25
							c3.47-0.73,9.5-2.06,16.04-2.13C1812.89,1239.87,1811.19,1239.94,1809.19,1240.19z M1883.11,1233.77
							c-1.43,0.2-4.27,0.7-5.33,0.49C1879.37,1233.59,1880.65,1233.78,1883.11,1233.77z M1995.77,1227.76
							c-1.07,0.18-2.72,0.14-4.59-0.01C1992.53,1227.69,1994.07,1227.67,1995.77,1227.76z M2233.64,1295.82
							c0.04-0.04,0.07-0.07,0.11-0.11C2236.46,1293.95,2235.5,1294.57,2233.64,1295.82z M2228.11,1299.63
							c-0.51,0.44-0.44,0.47-0.17,0.36c0.32-0.36,1.52-1.27,2.92-2.26C2230.41,1297.92,2229.66,1298.36,2228.11,1299.63z
							 M1602.56,1255.9l1.3,0.12C1600.93,1256.17,1601.75,1256.04,1602.56,1255.9z"/>
						<path class="st22" d="M1982.99,1228.7c-0.41-0.07-0.52-0.16-0.62-0.25C1981.81,1228.55,1981.8,1228.65,1982.99,1228.7z"/>
						<path class="st22" d="M1763.39,1245.59l-0.22,0.02c-0.12,0.04-0.18,0.08-0.21,0.11L1763.39,1245.59z"/>
						<path class="st22" d="M2212.54,1240.85c-1.32-0.35-2.05-0.58-2.52-0.78C2209.92,1240.18,2210.51,1240.4,2212.54,1240.85z"/>
						<path class="st22" d="M2198.13,1318.99l3.8-2.09c-1.85,0.98-2.57,1.22-3.54,1.64
							C2198.52,1318.6,2199.33,1318.37,2198.13,1318.99z"/>
						<path class="st22" d="M2162.23,1329.52c-0.59,0.2-1.28,0.32-1.87,0.52l0.22,0.18
							C2163.17,1329.6,2164.9,1328.87,2162.23,1329.52z"/>
						<path class="st22" d="M2193.84,1319.34c-0.49-0.22-2.87,1.04-5.57,2.37c0.16-0.08,0.32-0.15,0.48-0.22
							C2188.18,1322.38,2191.02,1320.86,2193.84,1319.34z"/>
						<path class="st22" d="M2187.63,1321.99c-0.85,0.38-1.72,0.75-2.56,1.08C2184.83,1323.42,2186.13,1322.68,2187.63,1321.99z"/>
						<path class="st22" d="M2221.26,1304.71c-1.26,0.69-0.47,0.92-1.24,1.23c-0.54,0.64,1.41-0.76,2.61-1.84
							C2223.84,1303.02,2224.41,1302.38,2221.26,1304.71z"/>
						<polygon class="st22" points="2191.06,1319.16 2192.25,1319.16 2193.6,1318.08 						"/>
						<path class="st22" d="M2212.02,1308.24l-4.17,2.36c0.1,0.03-0.38,0.4-1.02,0.8
							C2209.38,1309.91,2212.19,1308.3,2212.02,1308.24z"/>
						<path class="st22" d="M2206.83,1311.4c-1.35,0.74-2.62,1.46-3.32,1.95C2204.23,1312.94,2205.79,1312.05,2206.83,1311.4z"/>
						<path class="st22" d="M2196.87,1316.16l1.31-0.55c1-0.51,2.03-0.98,3.01-1.53
							C2199.77,1314.82,2198.31,1315.47,2196.87,1316.16z"/>
						<path class="st22" d="M2253.15,1277.4c1.17-1.31,2.28-2.69,3.21-4.19c0.15-0.54-0.69,0.61-1.87,2.16
							c-0.38,0.51-0.86,1.15-1.18,1.58C2252.96,1277.38,2252.81,1277.63,2253.15,1277.4z"/>
						<path class="st22" d="M2240.28,1286.63c1.16-0.8,1.3-0.78,2.02-1.15l-0.27-0.58L2240.28,1286.63z"/>
						<path class="st22" d="M2251.66,1276.75c0.35-0.43,4.38-5.82,0.32-0.98C2251.79,1276.27,2248.22,1279.92,2251.66,1276.75z"/>
						<polygon class="st22" points="2204.99,1237.62 2206.29,1237.86 2206.3,1236.82 						"/>
						<path class="st22" d="M2136.08,1232.08c6.13,0.67,1.51-0.53,7.04,0.18c1.46-0.13-4.52-0.58-3.03-0.68
							C2136.36,1231.56,2134.42,1231.3,2136.08,1232.08z"/>
						<path class="st22" d="M2140.09,1231.58c0.6,0,1.23,0,1.91-0.02C2140.92,1231.55,2140.41,1231.56,2140.09,1231.58z"/>
						<polygon class="st22" points="1364.11,1221.26 1360.44,1219.79 1362.74,1220.93 						"/>
						<path class="st22" d="M1356.7,1219.5l-0.65-0.93l-2.4-0.27C1354.46,1218.59,1356.11,1219.14,1356.7,1219.5z"/>
						<path class="st22" d="M1894.2,1234.37l0.29-0.17c-0.62-0.13-1.55-0.09-3.41,0L1894.2,1234.37z"/>
						<polygon class="st22" points="1840.47,1237.81 1841.4,1237.75 1839.62,1237.31 						"/>
						<path class="st22" d="M1795.58,1242.86c1.83-0.17,3.98-0.53,5.82-0.7C1797.42,1242.69,1795.01,1242.18,1795.58,1242.86z"/>
					</g>
				</g>
			</g>
		</g>
	</g>
</g>
</svg>
