<?xml version="1.0" encoding="utf-8"?>
<!-- Generator: Adobe Illustrator 22.0.1, SVG Export Plug-In . SVG Version: 6.00 Build 0)  -->
<svg version="1.1" id="Layer_1" xmlns="http://www.w3.org/2000/svg" xmlns:xlink="http://www.w3.org/1999/xlink" x="0px" y="0px"
	 viewBox="0 0 3000 2000" style="enable-background:new 0 0 3000 2000;" xml:space="preserve">
<style type="text/css">
	.st0{fill:url(#SVGID_1_);}
	.st1{fill:url(#SVGID_2_);}
	.st2{fill:url(#SVGID_3_);}
	.st3{fill:url(#SVGID_4_);}
	.st4{fill:url(#SVGID_5_);}
	.st5{fill:url(#SVGID_6_);}
	.st6{fill:url(#SVGID_7_);}
	.st7{fill:url(#SVGID_8_);}
	.st8{fill:url(#SVGID_9_);}
	.st9{fill:url(#SVGID_10_);}
	.st10{fill:url(#SVGID_11_);}
	.st11{fill:url(#SVGID_12_);}
	.st12{fill:url(#SVGID_13_);}
	.st13{fill:url(#SVGID_14_);}
	.st14{fill:url(#SVGID_15_);}
	.st15{fill:url(#SVGID_16_);}
	.st16{fill:url(#SVGID_17_);}
	.st17{fill:url(#SVGID_18_);}
	.st18{fill:url(#SVGID_19_);}
	.st19{fill:url(#SVGID_20_);}
	.st20{fill:url(#SVGID_21_);}
	.st21{fill:none;stroke:#F3E5E4;stroke-miterlimit:10;}
	.st22{fill:url(#SVGID_22_);}
	.st23{fill:url(#SVGID_23_);}
	.st24{fill:url(#SVGID_24_);}
	.st25{fill:url(#SVGID_25_);}
	.st26{fill:url(#SVGID_26_);}
	.st27{fill:url(#SVGID_27_);}
	.st28{fill:url(#SVGID_28_);}
	.st29{fill:url(#SVGID_29_);}
	.st30{fill:url(#SVGID_30_);}
	.st31{fill:url(#SVGID_31_);}
	.st32{fill:url(#SVGID_32_);}
	.st33{fill:url(#SVGID_33_);}
	.st34{fill:url(#SVGID_34_);}
	.st35{fill:url(#SVGID_35_);}
	.st36{fill:url(#SVGID_36_);}
	.st37{fill:url(#SVGID_37_);}
	.st38{fill:url(#SVGID_38_);}
	.st39{fill:url(#SVGID_39_);}
</style>
<linearGradient id="SVGID_1_" gradientUnits="userSpaceOnUse" x1="2653" y1="1892" x2="3007" y2="1892">
	<stop  offset="0" style="stop-color:#29A87C"/>
	<stop  offset="1" style="stop-color:#EAEF61"/>
</linearGradient>
<path class="st0" d="M2653,2003c0,0,16-2,23-63c0,0,29-113,159,0c0,0,76,79,115-89c0,0,23-58,57-70v222H2653z"/>
<g>
	<linearGradient id="SVGID_2_" gradientUnits="userSpaceOnUse" x1="2314.9958" y1="1856.9807" x2="2747.2751" y2="1856.9807">
		<stop  offset="0" style="stop-color:#008C79"/>
		<stop  offset="0.484" style="stop-color:#00B27D"/>
		<stop  offset="1" style="stop-color:#00CC80"/>
	</linearGradient>
	<path class="st1" d="M2374.09,2002c0,0-45.02-48.77-59.09-123.81c0,0,41.27,28.14,59.09,75.97c0,0,15.95,33.77,40.33,29.08
		c0,0-13.13-28.14-12.19-53.46c0,0-6.57-51.59-17.82-76.91c0,0-17.82-74.1,5.63-60.03c0,0,62.84,55.34,60.97,109.74l0.04,76.91
		c0,0,26.22-57.22,17.78-131.31c0,0-13.13-174.46,53.46-128.5c0,0,41.27,77.85-38.46,255.13c0,0,26.98-42.21,49.13-53.46
		c0,0,26.84-29.29,27.78-64.35c0,0,7.5-58.52,67.53-101.66c0,0,53.46-43.15,27.2,30.95c0,0-37.52,109.74-77.85,155.7
		c0,0-17.82,15.95-42.21,54.4c0,0,87.23,1.88,97.55-39.39c0,0,10.32-32.83,77.85-60.97c0,0,61.91-27.2,24.39,23.45
		c0,0-30.95,33.77-36.58,50.65c0,0-12.19,21.57-36.58,31.89H2374.09z"/>
	<linearGradient id="SVGID_3_" gradientUnits="userSpaceOnUse" x1="2314.9958" y1="1940.0946" x2="2414.4197" y2="1940.0946">
		<stop  offset="0" style="stop-color:#008C79"/>
		<stop  offset="0.484" style="stop-color:#00B27D"/>
		<stop  offset="1" style="stop-color:#00CC80"/>
	</linearGradient>
	<path class="st2" d="M2315,1878.19c0,0,37.52,51.59,43.15,71.28c0,0,15.01,41.27,56.28,52.53"/>
	<linearGradient id="SVGID_4_" gradientUnits="userSpaceOnUse" x1="2385.7876" y1="1896.5685" x2="2437.8687" y2="1896.5685">
		<stop  offset="0" style="stop-color:#008C79"/>
		<stop  offset="0.484" style="stop-color:#00B27D"/>
		<stop  offset="1" style="stop-color:#00CC80"/>
	</linearGradient>
	<path class="st3" d="M2385.79,1791.14c0,0,42.7,76.73,52.08,210.86"/>
	<linearGradient id="SVGID_5_" gradientUnits="userSpaceOnUse" x1="2463.1934" y1="1857.7046" x2="2510.2996" y2="1857.7046">
		<stop  offset="0" style="stop-color:#008C79"/>
		<stop  offset="0.484" style="stop-color:#00B27D"/>
		<stop  offset="1" style="stop-color:#00CC80"/>
	</linearGradient>
	<path class="st4" d="M2510.3,1713.41c0,0-15.22,85.78-12.4,143.57c0,0-2.81,89.68-34.7,145.02"/>
	<linearGradient id="SVGID_6_" gradientUnits="userSpaceOnUse" x1="2496.022" y1="1874.0884" x2="2660.7502" y2="1874.0884">
		<stop  offset="0" style="stop-color:#008C79"/>
		<stop  offset="0.484" style="stop-color:#00B27D"/>
		<stop  offset="1" style="stop-color:#00CC80"/>
	</linearGradient>
	<path class="st5" d="M2660.75,1746.18c0,0-56.86,61.67-72.81,126.38c0,0-17.94,56.28-56.81,86.29c0,0-31.36,23.45-35.11,43.15"/>
	<linearGradient id="SVGID_7_" gradientUnits="userSpaceOnUse" x1="2613.2671" y1="1947.3401" x2="2746.7793" y2="1947.3401">
		<stop  offset="0" style="stop-color:#008C79"/>
		<stop  offset="0.484" style="stop-color:#00B27D"/>
		<stop  offset="1" style="stop-color:#00CC80"/>
	</linearGradient>
	<path class="st6" d="M2746.78,1892.68c0,0-50.03,24.9-74.42,59.61c0,0-18.76,33.77-59.09,49.71"/>
</g>
<g>
	<linearGradient id="SVGID_8_" gradientUnits="userSpaceOnUse" x1="1533" y1="1776" x2="1764.5818" y2="1776">
		<stop  offset="0" style="stop-color:#FFF45B"/>
		<stop  offset="1" style="stop-color:#8AE18E"/>
	</linearGradient>
	<path class="st7" d="M1715,1545c0,0-160,208-182,462h224C1757,2007,1791,1791,1715,1545z"/>
	<linearGradient id="SVGID_9_" gradientUnits="userSpaceOnUse" x1="1635" y1="1778.3728" x2="1714.35" y2="1778.3728">
		<stop  offset="0" style="stop-color:#FFF45B"/>
		<stop  offset="1" style="stop-color:#8AE18E"/>
	</linearGradient>
	<path class="st8" d="M1714.35,1549.75c-12.22,54.21-71.6,314.36-79.35,457.25"/>
	<linearGradient id="SVGID_10_" gradientUnits="userSpaceOnUse" x1="1677.6226" y1="1695.7645" x2="1724" y2="1695.7645">
		<stop  offset="0" style="stop-color:#FFF45B"/>
		<stop  offset="1" style="stop-color:#8AE18E"/>
	</linearGradient>
	<line class="st9" x1="1724" y1="1670" x2="1677.62" y2="1721.53"/>
	<linearGradient id="SVGID_11_" gradientUnits="userSpaceOnUse" x1="1665" y1="1665.8822" x2="1682.8022" y2="1665.8822">
		<stop  offset="0" style="stop-color:#FFF45B"/>
		<stop  offset="1" style="stop-color:#8AE18E"/>
	</linearGradient>
	<line class="st10" x1="1665" y1="1636" x2="1682.8" y2="1695.76"/>
	<linearGradient id="SVGID_12_" gradientUnits="userSpaceOnUse" x1="1628.75" y1="1752.6561" x2="1664.0925" y2="1752.6561">
		<stop  offset="0" style="stop-color:#FFF45B"/>
		<stop  offset="1" style="stop-color:#8AE18E"/>
	</linearGradient>
	<line class="st11" x1="1664.09" y1="1792.56" x2="1628.75" y2="1712.75"/>
	<linearGradient id="SVGID_13_" gradientUnits="userSpaceOnUse" x1="1666.5" y1="1766.125" x2="1732" y2="1766.125">
		<stop  offset="0" style="stop-color:#FFF45B"/>
		<stop  offset="1" style="stop-color:#8AE18E"/>
	</linearGradient>
	<line class="st12" x1="1732" y1="1745.25" x2="1666.5" y2="1787"/>
	<linearGradient id="SVGID_14_" gradientUnits="userSpaceOnUse" x1="1617.75" y1="1815.1703" x2="1653.3091" y2="1815.1703">
		<stop  offset="0" style="stop-color:#FFF45B"/>
		<stop  offset="1" style="stop-color:#8AE18E"/>
	</linearGradient>
	<line class="st13" x1="1617.75" y1="1775.25" x2="1653.31" y2="1855.09"/>
	<linearGradient id="SVGID_15_" gradientUnits="userSpaceOnUse" x1="1654.2753" y1="1828.2111" x2="1721.5" y2="1828.2111">
		<stop  offset="0" style="stop-color:#FFF45B"/>
		<stop  offset="1" style="stop-color:#8AE18E"/>
	</linearGradient>
	<line class="st14" x1="1721.5" y1="1807.25" x2="1654.28" y2="1849.17"/>
	<linearGradient id="SVGID_16_" gradientUnits="userSpaceOnUse" x1="1584" y1="1892.625" x2="1638.75" y2="1892.625">
		<stop  offset="0" style="stop-color:#FFF45B"/>
		<stop  offset="1" style="stop-color:#8AE18E"/>
	</linearGradient>
	<line class="st15" x1="1584" y1="1844.25" x2="1638.75" y2="1941"/>
	<linearGradient id="SVGID_17_" gradientUnits="userSpaceOnUse" x1="1642.75" y1="1913.125" x2="1702.25" y2="1913.125">
		<stop  offset="0" style="stop-color:#FFF45B"/>
		<stop  offset="1" style="stop-color:#8AE18E"/>
	</linearGradient>
	<line class="st16" x1="1702.25" y1="1886.5" x2="1642.75" y2="1939.75"/>
	<linearGradient id="SVGID_18_" gradientUnits="userSpaceOnUse" x1="1588.25" y1="1984" x2="1632.5" y2="1984">
		<stop  offset="0" style="stop-color:#FFF45B"/>
		<stop  offset="1" style="stop-color:#8AE18E"/>
	</linearGradient>
	<line class="st17" x1="1588.25" y1="1961" x2="1632.5" y2="2007"/>
	<linearGradient id="SVGID_19_" gradientUnits="userSpaceOnUse" x1="1636.5" y1="1981.375" x2="1687.8876" y2="1981.375">
		<stop  offset="0" style="stop-color:#FFF45B"/>
		<stop  offset="1" style="stop-color:#8AE18E"/>
	</linearGradient>
	<line class="st18" x1="1687.89" y1="1955.75" x2="1636.5" y2="2007"/>
</g>
<linearGradient id="SVGID_20_" gradientUnits="userSpaceOnUse" x1="935" y1="1818.0961" x2="1593" y2="1818.0961">
	<stop  offset="0" style="stop-color:#02797A"/>
	<stop  offset="1" style="stop-color:#17C1D8"/>
</linearGradient>
<path class="st19" d="M935,2006c0,0,255-499,354-347c0,0,45,62,66,139c0,0,39,208,81,150c0,0,39-47,60-161c0,0,19-86,97,133v86H935z
	"/>
<g>
	<g>
		<linearGradient id="SVGID_21_" gradientUnits="userSpaceOnUse" x1="808.1411" y1="1920.2931" x2="1045.0265" y2="1920.2931">
			<stop  offset="0" style="stop-color:#29A87C"/>
			<stop  offset="1" style="stop-color:#EAEF61"/>
		</linearGradient>
		<path class="st20" d="M808.14,2021.91c0,0,68.78-25.97,76.35-66.81c0,0,9.95-94.57,87.06-131.31c0,0,38.77-23.92,70.09,31.6
			c0,0,25.69,41.03-64.39,79.65c0,0-19.17,5.74-31.74,23.81C945.51,1958.85,905.62,2022.6,808.14,2021.91z"/>
		<path class="st21" d="M808.14,2021.91c0,0,100.66-22.46,127.5-86.27c26.84-63.81,96.07-95.07,96.07-95.07"/>
	</g>
	<g>
		<linearGradient id="SVGID_22_" gradientUnits="userSpaceOnUse" x1="693.5135" y1="1926.7172" x2="849.8104" y2="1926.7172">
			<stop  offset="0" style="stop-color:#29A87C"/>
			<stop  offset="1" style="stop-color:#EAEF61"/>
		</linearGradient>
		<path class="st22" d="M849.81,2018.17c0,0-49.35-27.94-45.81-61.65c0,0,14.31-77.3-39.21-114.78c0,0-25.62-23.23-64.01,18.36
			c0,0-30.41,30.49,33.13,70.8c0,0,14.11,6.58,19.98,22.43C753.89,1953.33,771.02,2008.81,849.81,2018.17z"/>
		<path class="st21" d="M849.81,2018.17c0,0-75.9-28.35-82.47-82.55c-6.57-54.21-55.04-86.46-55.04-86.46"/>
	</g>
	<g>
		<linearGradient id="SVGID_23_" gradientUnits="userSpaceOnUse" x1="814.3914" y1="1908.8237" x2="912.4397" y2="1908.8237">
			<stop  offset="0" style="stop-color:#29A87C"/>
			<stop  offset="1" style="stop-color:#EAEF61"/>
		</linearGradient>
		<path class="st23" d="M846.42,2026.99c0,0-16.71-56.87,10.43-83.29c0,0,66.85-56.44,53.94-124.24c0,0-2.34-36.98-61.31-27.13
			c0,0-44.93,5.69-26.57,82.61c0,0,5.8,15.05-1.31,32.52C821.59,1907.46,794.15,1966.29,846.42,2026.99z"/>
		<path class="st21" d="M846.42,2026.99c0,0-36.31-74.97-1.88-125.66c34.43-50.69,21.52-110.64,21.52-110.64"/>
	</g>
	<g>
		<linearGradient id="SVGID_24_" gradientUnits="userSpaceOnUse" x1="832.7725" y1="1997.2158" x2="1079" y2="1997.2158">
			<stop  offset="0" style="stop-color:#29A87C"/>
			<stop  offset="1" style="stop-color:#EAEF61"/>
		</linearGradient>
		<path class="st24" d="M832.77,2008.85c0,0,58.47,18.05,86.86-7.13c0,0,60.94-62.33,130.9-47.55c0,0,38.32,3.54,26.04,59.91
			c0,0-7.48,43.02-86.72,22.68c0,0-15.43-6.1-33.82,0.13C956.03,2036.88,893.98,2061.23,832.77,2008.85z"/>
		<path class="st21" d="M832.77,2008.85c0,0,76.59,37.53,130.43,6.18s115.65-16.84,115.65-16.84"/>
	</g>
	<g>
		<linearGradient id="SVGID_25_" gradientUnits="userSpaceOnUse" x1="836.7328" y1="2083.177" x2="1049.6086" y2="2083.177">
			<stop  offset="0" style="stop-color:#29A87C"/>
			<stop  offset="1" style="stop-color:#EAEF61"/>
		</linearGradient>
		<path class="st25" d="M836.73,2011.02c0,0,35.69,47.04,72.72,40.24c0,0,84.31-21.81,130.97,28.51c0,0,28.2,23.59-14.23,66.23
			c0,0-30.88,33.56-81.64-26.6c0,0-8.64-13.58-26.78-17.98C917.78,2101.43,854.64,2089.5,836.73,2011.02z"/>
		<path class="st21" d="M836.73,2011.02c0,0,38.68,73.74,99.4,75.18s101.1,47.17,101.1,47.17"/>
	</g>
</g>
<g>
	<linearGradient id="SVGID_26_" gradientUnits="userSpaceOnUse" x1="1376.1571" y1="1828.7222" x2="1556.7389" y2="1828.7222">
		<stop  offset="0" style="stop-color:#FFF45B"/>
		<stop  offset="1" style="stop-color:#8AE18E"/>
	</linearGradient>
	<path class="st26" d="M1518.08,1648.59c0,0-124.76,162.19-141.92,360.26h174.67C1550.83,2008.85,1577.34,1840.42,1518.08,1648.59z"
		/>
	<linearGradient id="SVGID_27_" gradientUnits="userSpaceOnUse" x1="1455.6942" y1="1830.5724" x2="1517.5695" y2="1830.5724">
		<stop  offset="0" style="stop-color:#FFF45B"/>
		<stop  offset="1" style="stop-color:#8AE18E"/>
	</linearGradient>
	<path class="st27" d="M1517.57,1652.29c-9.53,42.27-55.83,245.13-61.88,356.56"/>
	<linearGradient id="SVGID_28_" gradientUnits="userSpaceOnUse" x1="1488.9303" y1="1766.1565" x2="1525.0942" y2="1766.1565">
		<stop  offset="0" style="stop-color:#FFF45B"/>
		<stop  offset="1" style="stop-color:#8AE18E"/>
	</linearGradient>
	<line class="st28" x1="1525.09" y1="1746.07" x2="1488.93" y2="1786.25"/>
	<linearGradient id="SVGID_29_" gradientUnits="userSpaceOnUse" x1="1479.0875" y1="1742.855" x2="1492.9692" y2="1742.855">
		<stop  offset="0" style="stop-color:#FFF45B"/>
		<stop  offset="1" style="stop-color:#8AE18E"/>
	</linearGradient>
	<line class="st29" x1="1479.09" y1="1719.55" x2="1492.97" y2="1766.16"/>
	<linearGradient id="SVGID_30_" gradientUnits="userSpaceOnUse" x1="1450.8207" y1="1810.5192" x2="1478.3799" y2="1810.5192">
		<stop  offset="0" style="stop-color:#FFF45B"/>
		<stop  offset="1" style="stop-color:#8AE18E"/>
	</linearGradient>
	<line class="st30" x1="1478.38" y1="1841.64" x2="1450.82" y2="1779.4"/>
	<linearGradient id="SVGID_31_" gradientUnits="userSpaceOnUse" x1="1480.2572" y1="1821.0219" x2="1531.3324" y2="1821.0219">
		<stop  offset="0" style="stop-color:#FFF45B"/>
		<stop  offset="1" style="stop-color:#8AE18E"/>
	</linearGradient>
	<line class="st31" x1="1531.33" y1="1804.74" x2="1480.26" y2="1837.3"/>
	<linearGradient id="SVGID_32_" gradientUnits="userSpaceOnUse" x1="1442.2432" y1="1859.2662" x2="1469.9712" y2="1859.2662">
		<stop  offset="0" style="stop-color:#FFF45B"/>
		<stop  offset="1" style="stop-color:#8AE18E"/>
	</linearGradient>
	<line class="st32" x1="1442.24" y1="1828.14" x2="1469.97" y2="1890.4"/>
	<linearGradient id="SVGID_33_" gradientUnits="userSpaceOnUse" x1="1470.7246" y1="1869.4351" x2="1523.1448" y2="1869.4351">
		<stop  offset="0" style="stop-color:#FFF45B"/>
		<stop  offset="1" style="stop-color:#8AE18E"/>
	</linearGradient>
	<line class="st33" x1="1523.14" y1="1853.09" x2="1470.72" y2="1885.78"/>
	<linearGradient id="SVGID_34_" gradientUnits="userSpaceOnUse" x1="1415.9257" y1="1919.6635" x2="1458.6184" y2="1919.6635">
		<stop  offset="0" style="stop-color:#FFF45B"/>
		<stop  offset="1" style="stop-color:#8AE18E"/>
	</linearGradient>
	<line class="st34" x1="1415.93" y1="1881.94" x2="1458.62" y2="1957.39"/>
	<linearGradient id="SVGID_35_" gradientUnits="userSpaceOnUse" x1="1461.7375" y1="1935.6488" x2="1508.1342" y2="1935.6488">
		<stop  offset="0" style="stop-color:#FFF45B"/>
		<stop  offset="1" style="stop-color:#8AE18E"/>
	</linearGradient>
	<line class="st35" x1="1508.13" y1="1914.89" x2="1461.74" y2="1956.41"/>
	<linearGradient id="SVGID_36_" gradientUnits="userSpaceOnUse" x1="1419.2397" y1="1990.9154" x2="1453.7448" y2="1990.9154">
		<stop  offset="0" style="stop-color:#FFF45B"/>
		<stop  offset="1" style="stop-color:#8AE18E"/>
	</linearGradient>
	<line class="st36" x1="1419.24" y1="1972.98" x2="1453.74" y2="2008.85"/>
	<linearGradient id="SVGID_37_" gradientUnits="userSpaceOnUse" x1="1456.8639" y1="1988.8685" x2="1496.9347" y2="1988.8685">
		<stop  offset="0" style="stop-color:#FFF45B"/>
		<stop  offset="1" style="stop-color:#8AE18E"/>
	</linearGradient>
	<line class="st37" x1="1496.93" y1="1968.89" x2="1456.86" y2="2008.85"/>
</g>
<g>
	<linearGradient id="SVGID_38_" gradientUnits="userSpaceOnUse" x1="1117.5813" y1="1871.3207" x2="1201.9821" y2="1871.3207">
		<stop  offset="0" style="stop-color:#02797A"/>
		<stop  offset="1" style="stop-color:#17C1D8"/>
	</linearGradient>
	<path class="st38" d="M1165.83,1712.72c0,0-117.04,194.89,13.46,317.2C1179.29,2029.92,1238.39,1936.24,1165.83,1712.72z"/>
	<linearGradient id="SVGID_39_" gradientUnits="userSpaceOnUse" x1="1154.7024" y1="1871.296" x2="1179.3929" y2="1871.296">
		<stop  offset="0" style="stop-color:#02797A"/>
		<stop  offset="1" style="stop-color:#17C1D8"/>
	</linearGradient>
	<path class="st39" d="M1165.09,1715.56c0,0-31.08,244.92,14.31,311.47"/>
</g>
</svg>
