<?xml version="1.0" encoding="utf-8"?>
<!-- Generator: Adobe Illustrator 22.0.1, SVG Export Plug-In . SVG Version: 6.00 Build 0)  -->
<svg version="1.1" id="Layer_1" xmlns="http://www.w3.org/2000/svg" xmlns:xlink="http://www.w3.org/1999/xlink" x="0px" y="0px"
	 viewBox="0 0 3000 2000" style="enable-background:new 0 0 3000 2000;" xml:space="preserve">
<style type="text/css">
	.st0{fill:#FFFFFF;}
	.st1{fill:none;stroke:#FFFFFF;stroke-width:3;stroke-miterlimit:10;}
	.st2{fill:url(#SVGID_1_);}
	.st3{fill:url(#SVGID_2_);}
	.st4{fill:url(#SVGID_3_);}
	.st5{fill:url(#SVGID_4_);}
	.st6{fill:url(#SVGID_5_);}
	.st7{fill:url(#SVGID_6_);}
	.st8{fill:#F2F4F3;}
	.st9{fill:none;stroke:#C55B5E;stroke-width:3;stroke-linecap:round;stroke-linejoin:round;stroke-miterlimit:10;}
	.st10{fill:url(#SVGID_7_);}
	.st11{fill:url(#SVGID_8_);}
	.st12{fill:url(#SVGID_9_);}
	.st13{fill:#F85842;}
	.st14{fill:url(#SVGID_10_);}
	.st15{fill:url(#SVGID_11_);}
	.st16{fill:url(#SVGID_12_);}
	.st17{fill:url(#SVGID_13_);}
	.st18{fill:url(#SVGID_14_);}
	.st19{fill:url(#SVGID_15_);}
	.st20{fill:url(#SVGID_16_);}
	.st21{fill:url(#SVGID_17_);}
	.st22{fill:none;stroke:#B28147;stroke-width:4;stroke-miterlimit:10;}
	.st23{fill:url(#SVGID_18_);}
	.st24{fill:url(#SVGID_19_);}
	.st25{fill:url(#SVGID_20_);}
	.st26{fill:url(#SVGID_21_);}
	.st27{fill:url(#SVGID_22_);}
	.st28{fill:url(#SVGID_23_);}
	.st29{fill:url(#SVGID_24_);}
	.st30{fill:url(#SVGID_25_);}
	.st31{fill:url(#SVGID_26_);}
	.st32{fill:url(#SVGID_27_);}
	.st33{fill:url(#SVGID_28_);}
	.st34{fill:url(#SVGID_29_);}
	.st35{fill:none;stroke:#E4A7A3;stroke-width:2;stroke-miterlimit:10;}
</style>
<g>
	<g>
		<path class="st0" d="M848.76,1670.88c0,0-7,9-20,6c0,0-52.33-12.67-58.33-52.69c0,0-29-105.37,36.33-112.71
			c0,0,46.67-15.04,67.67,83.35c0,0,9.67,37.03-5.67,55.03L848.76,1670.88z"/>
		<path class="st1" d="M837.93,1673.38c0,0,30,28.51,37,154.05c0,0-4.5,149.55,14.5,195.57"/>
	</g>
	<g>
		<linearGradient id="SVGID_1_" gradientUnits="userSpaceOnUse" x1="1013.0836" y1="1724.1729" x2="1071.5627" y2="1724.1729">
			<stop  offset="0" style="stop-color:#FFF45B"/>
			<stop  offset="1" style="stop-color:#8AE18E"/>
		</linearGradient>
		<path class="st2" d="M1067.67,1729.89c-8.02,13.69-52.62,32.15-52.62,32.15s-5.71-47.95,2.31-61.63
			c8.02-13.69,25.78-18.19,39.67-10.04C1070.92,1698.5,1075.69,1716.2,1067.67,1729.89z"/>
		<linearGradient id="SVGID_2_" gradientUnits="userSpaceOnUse" x1="1016.0441" y1="1735.6589" x2="1044.9634" y2="1735.6589">
			<stop  offset="0" style="stop-color:#FFF45B"/>
			<stop  offset="1" style="stop-color:#8AE18E"/>
		</linearGradient>
		<line class="st3" x1="1044.96" y1="1710.97" x2="1016.04" y2="1760.35"/>
	</g>
	<g>
		<linearGradient id="SVGID_3_" gradientUnits="userSpaceOnUse" x1="929.2715" y1="1682.1448" x2="979.0149" y2="1682.1448">
			<stop  offset="0" style="stop-color:#FFF45B"/>
			<stop  offset="1" style="stop-color:#8AE18E"/>
		</linearGradient>
		<path class="st4" d="M979.01,1670.82c0.13,13.74-24.44,47.3-24.44,47.3s-25.18-33.1-25.3-46.84s10.91-24.98,24.64-25.11
			S978.89,1657.08,979.01,1670.82z"/>
		<linearGradient id="SVGID_4_" gradientUnits="userSpaceOnUse" x1="954.1052" y1="1691.6387" x2="954.5578" y2="1691.6387">
			<stop  offset="0" style="stop-color:#FFF45B"/>
			<stop  offset="1" style="stop-color:#8AE18E"/>
		</linearGradient>
		<line class="st5" x1="954.11" y1="1666.86" x2="954.56" y2="1716.42"/>
	</g>
	<g>
		<linearGradient id="SVGID_5_" gradientUnits="userSpaceOnUse" x1="849.3177" y1="1733.1396" x2="895.2028" y2="1733.1396">
			<stop  offset="0" style="stop-color:#FFF45B"/>
			<stop  offset="1" style="stop-color:#8AE18E"/>
		</linearGradient>
		<path class="st6" d="M881.95,1716.19c7.75,7.35,13.26,39.2,13.26,39.2s-32.1-3.78-39.85-11.12s-8.08-19.59-0.74-27.34
			C861.96,1709.17,874.2,1708.84,881.95,1716.19z"/>
		<linearGradient id="SVGID_6_" gradientUnits="userSpaceOnUse" x1="866.2847" y1="1741.2343" x2="894.2445" y2="1741.2343">
			<stop  offset="0" style="stop-color:#FFF45B"/>
			<stop  offset="1" style="stop-color:#8AE18E"/>
		</linearGradient>
		<line class="st7" x1="866.28" y1="1727.99" x2="894.24" y2="1754.48"/>
	</g>
	<g>
		<g>
			<g>
				
					<ellipse transform="matrix(0.996 -0.0892 0.0892 0.996 -116.3243 104.9979)" class="st8" cx="1116.47" cy="1353.84" rx="54.81" ry="57.88"/>
				
					<ellipse transform="matrix(0.996 -0.0892 0.0892 0.996 -117.8265 97.8893)" class="st8" cx="1036.19" cy="1367.09" rx="60.48" ry="63.86"/>
				
					<ellipse transform="matrix(0.2481 -0.9687 0.9687 0.2481 -585.2819 2103.5891)" class="st8" cx="1062.51" cy="1428.84" rx="65.37" ry="50.25"/>
				
					<ellipse transform="matrix(0.1502 -0.9886 0.9886 0.1502 -387.2594 2361.8257)" class="st8" cx="1180.31" cy="1406.19" rx="65.57" ry="55.49"/>
				
					<ellipse transform="matrix(0.1157 -0.9933 0.9933 0.1157 -431.4734 2409.2581)" class="st8" cx="1137.38" cy="1446.96" rx="65.67" ry="50.04"/>
			</g>
			<g>
				
					<ellipse transform="matrix(0.996 -0.0892 0.0892 0.996 -118.9986 104.6969)" class="st0" cx="1111.76" cy="1383.61" rx="54.81" ry="57.88"/>
				
					<ellipse transform="matrix(0.996 -0.0892 0.0892 0.996 -120.5008 97.5883)" class="st0" cx="1031.49" cy="1396.86" rx="60.48" ry="63.86"/>
				
					<ellipse transform="matrix(0.2481 -0.9687 0.9687 0.2481 -617.6554 2121.4124)" class="st0" cx="1057.8" cy="1458.61" rx="65.37" ry="50.25"/>
				
					<ellipse transform="matrix(0.1502 -0.9886 0.9886 0.1502 -420.6864 2382.4688)" class="st0" cx="1175.6" cy="1435.96" rx="65.57" ry="55.49"/>
				
					<ellipse transform="matrix(0.1157 -0.9933 0.9933 0.1157 -465.2009 2430.9072)" class="st0" cx="1132.67" cy="1476.73" rx="65.67" ry="50.04"/>
			</g>
		</g>
		<polyline class="st9" points="1123.05,1477.59 1086.68,1506.93 1058.92,1470.95 		"/>
		<path class="st9" d="M1086.68,1506.93c0,0-50.99,376.23,172.38,440.24"/>
	</g>
	<g>
		<linearGradient id="SVGID_7_" gradientUnits="userSpaceOnUse" x1="2301.2688" y1="1780.38" x2="2404.6602" y2="1780.38">
			<stop  offset="0" style="stop-color:#02797A"/>
			<stop  offset="1" style="stop-color:#17C1D8"/>
		</linearGradient>
		<path class="st10" d="M2380.26,1914.8c0,0-38.28-12.07-39.85-69.24c0,0,2.36-10.75-13.11-23.61c0,0-28.73-27.28-10.49-59.28
			c0,0,17.83-26.49-6.03-46.69c0,0-38.02-50.36,38.02-69.24c0,0,45.62-12.07,55.06,58.23c0,0,5.24,45.9-11.01,58.23
			c0,0-25.7,19.41-11.54,56.65c0,0,15.21,27.28-0.52,44.06C2380.78,1863.92,2351.41,1889.1,2380.26,1914.8z"/>
		<linearGradient id="SVGID_8_" gradientUnits="userSpaceOnUse" x1="2344.6533" y1="1787.6581" x2="2377.0251" y2="1787.6581">
			<stop  offset="0" style="stop-color:#02797A"/>
			<stop  offset="1" style="stop-color:#17C1D8"/>
		</linearGradient>
		<path class="st11" d="M2350.2,1663.06c0,0,31.07,49.55,7.62,88.55c0,0-18.86,25.04-11.43,39.29c0,0,16.57,22.87,14.11,44.39
			c0,0-15.42,60.27,16.53,76.98"/>
	</g>
	<g>
		<g>
			
				<linearGradient id="SVGID_9_" gradientUnits="userSpaceOnUse" x1="2610.916" y1="1326.4253" x2="2628.6008" y2="1326.4253" gradientTransform="matrix(0.9913 0.1319 -0.1319 0.9913 209.9303 -308.943)">
				<stop  offset="0" style="stop-color:#F75A53"/>
				<stop  offset="1" style="stop-color:#FEB888"/>
			</linearGradient>
			<path class="st12" d="M2651.1,1273.5l-21.06,158.32C2630.04,1431.82,2598.81,1364.89,2651.1,1273.5z"/>
			<path class="st13" d="M2651.17,1272.98l-21.06,158.32C2630.11,1431.31,2677.75,1374.87,2651.17,1272.98z"/>
		</g>
		<g>
			
				<linearGradient id="SVGID_10_" gradientUnits="userSpaceOnUse" x1="2548.2507" y1="1493.2856" x2="2628.6077" y2="1493.2856" gradientTransform="matrix(0.9913 0.1319 -0.1319 0.9913 209.9303 -308.943)">
				<stop  offset="0" style="stop-color:#F75A53"/>
				<stop  offset="1" style="stop-color:#FEB888"/>
			</linearGradient>
			<path class="st14" d="M2547.13,1445.68l63.21,134.17C2610.34,1579.85,2550.86,1554.11,2547.13,1445.68z"/>
			<path class="st13" d="M2546.93,1445.24l63.21,134.17C2610.14,1579.41,2620.37,1500.6,2546.93,1445.24z"/>
		</g>
		<g>
			
				<linearGradient id="SVGID_11_" gradientUnits="userSpaceOnUse" x1="2548.1162" y1="1401.9602" x2="2628.4729" y2="1401.9602" gradientTransform="matrix(0.9913 0.1319 -0.1319 0.9913 209.9303 -308.943)">
				<stop  offset="0" style="stop-color:#F75A53"/>
				<stop  offset="1" style="stop-color:#FEB888"/>
			</linearGradient>
			<path class="st15" d="M2559.05,1355.13l63.21,134.17C2622.26,1489.3,2562.78,1463.57,2559.05,1355.13z"/>
			<path class="st13" d="M2558.84,1354.7l63.21,134.17C2622.05,1488.87,2632.28,1410.06,2558.84,1354.7z"/>
		</g>
		<g>
			
				<linearGradient id="SVGID_12_" gradientUnits="userSpaceOnUse" x1="2628.3425" y1="1401.7615" x2="2708.688" y2="1401.7615" gradientTransform="matrix(0.9913 0.1319 -0.1319 0.9913 209.9303 -308.943)">
				<stop  offset="0" style="stop-color:#F75A53"/>
				<stop  offset="1" style="stop-color:#FEB888"/>
			</linearGradient>
			<path class="st16" d="M2718.24,1376.12l-96.09,112.97C2622.16,1489.09,2686.3,1479.81,2718.24,1376.12z"/>
			<path class="st13" d="M2718.56,1375.75l-96.09,112.97C2622.47,1488.72,2633.2,1409.97,2718.56,1375.75z"/>
		</g>
		<g>
			
				<linearGradient id="SVGID_13_" gradientUnits="userSpaceOnUse" x1="2628.0859" y1="1492.6823" x2="2708.4312" y2="1492.6823" gradientTransform="matrix(0.9913 0.1319 -0.1319 0.9913 209.9303 -308.943)">
				<stop  offset="0" style="stop-color:#F75A53"/>
				<stop  offset="1" style="stop-color:#FEB888"/>
			</linearGradient>
			<path class="st17" d="M2705.99,1466.21l-96.09,112.97C2609.91,1579.18,2674.05,1569.9,2705.99,1466.21z"/>
			<path class="st13" d="M2706.31,1465.85l-96.09,112.97C2610.22,1578.81,2620.95,1500.07,2706.31,1465.85z"/>
		</g>
		<g>
			
				<linearGradient id="SVGID_14_" gradientUnits="userSpaceOnUse" x1="2627.9604" y1="1598.873" x2="2708.3057" y2="1598.873" gradientTransform="matrix(0.9913 0.1319 -0.1319 0.9913 209.9303 -308.943)">
				<stop  offset="0" style="stop-color:#F75A53"/>
				<stop  offset="1" style="stop-color:#FEB888"/>
			</linearGradient>
			<path class="st18" d="M2691.86,1571.46l-96.09,112.97C2595.77,1684.43,2659.91,1675.15,2691.86,1571.46z"/>
			<path class="st13" d="M2692.17,1571.09l-96.09,112.97C2596.09,1684.06,2606.82,1605.31,2692.17,1571.09z"/>
		</g>
		<g>
			
				<linearGradient id="SVGID_15_" gradientUnits="userSpaceOnUse" x1="2628.0959" y1="1708.4619" x2="2708.4412" y2="1708.4619" gradientTransform="matrix(0.9913 0.1319 -0.1319 0.9913 209.9303 -308.943)">
				<stop  offset="0" style="stop-color:#F75A53"/>
				<stop  offset="1" style="stop-color:#FEB888"/>
			</linearGradient>
			<path class="st19" d="M2677.54,1680.11l-96.09,112.97C2581.45,1793.07,2645.59,1783.79,2677.54,1680.11z"/>
			<path class="st13" d="M2677.85,1679.74l-96.09,112.97C2581.76,1792.71,2592.5,1713.96,2677.85,1679.74z"/>
		</g>
		<g>
			
				<linearGradient id="SVGID_16_" gradientUnits="userSpaceOnUse" x1="2547.9949" y1="1599.0718" x2="2628.3518" y2="1599.0718" gradientTransform="matrix(0.9913 0.1319 -0.1319 0.9913 209.9303 -308.943)">
				<stop  offset="0" style="stop-color:#F75A53"/>
				<stop  offset="1" style="stop-color:#FEB888"/>
			</linearGradient>
			<path class="st20" d="M2532.93,1550.5l63.21,134.17C2596.13,1684.68,2536.65,1658.94,2532.93,1550.5z"/>
			<path class="st13" d="M2532.72,1550.07l63.21,134.17C2595.93,1684.24,2606.16,1605.43,2532.72,1550.07z"/>
		</g>
		<g>
			
				<linearGradient id="SVGID_17_" gradientUnits="userSpaceOnUse" x1="2547.8694" y1="1708.6606" x2="2628.2263" y2="1708.6606" gradientTransform="matrix(0.9913 0.1319 -0.1319 0.9913 209.9303 -308.943)">
				<stop  offset="0" style="stop-color:#F75A53"/>
				<stop  offset="1" style="stop-color:#FEB888"/>
			</linearGradient>
			<path class="st21" d="M2518.34,1659.12l63.21,134.17C2581.55,1793.29,2522.07,1767.55,2518.34,1659.12z"/>
			<path class="st13" d="M2518.14,1658.68l63.21,134.17C2581.35,1792.86,2591.58,1714.04,2518.14,1658.68z"/>
		</g>
		<line class="st22" x1="2630.91" y1="1424.42" x2="2572.14" y2="1866.16"/>
	</g>
	<g>
		<linearGradient id="SVGID_18_" gradientUnits="userSpaceOnUse" x1="1316.3356" y1="1560.4121" x2="1397.0457" y2="1560.4121">
			<stop  offset="0" style="stop-color:#84EC9E"/>
			<stop  offset="0.5053" style="stop-color:#42DF90"/>
			<stop  offset="1" style="stop-color:#00CC80"/>
		</linearGradient>
		<path class="st23" d="M1316.34,1547.06c0,0,20.92,66.96,80.71,25.54C1397.05,1572.61,1374.15,1508.44,1316.34,1547.06z"/>
		<linearGradient id="SVGID_19_" gradientUnits="userSpaceOnUse" x1="1316.3356" y1="1559.8365" x2="1397.0457" y2="1559.8365">
			<stop  offset="0" style="stop-color:#84EC9E"/>
			<stop  offset="0.5053" style="stop-color:#42DF90"/>
			<stop  offset="1" style="stop-color:#00CC80"/>
		</linearGradient>
		<line class="st24" x1="1316.34" y1="1547.06" x2="1397.05" y2="1572.61"/>
		<linearGradient id="SVGID_20_" gradientUnits="userSpaceOnUse" x1="1329.1505" y1="1539.8615" x2="1329.1505" y2="1539.8615">
			<stop  offset="0" style="stop-color:#84EC9E"/>
			<stop  offset="0.5053" style="stop-color:#42DF90"/>
			<stop  offset="1" style="stop-color:#00CC80"/>
		</linearGradient>
		<path class="st25" d="M1329.15,1539.86"/>
		<linearGradient id="SVGID_21_" gradientUnits="userSpaceOnUse" x1="1323.2749" y1="1550.8129" x2="1336.4099" y2="1550.8129">
			<stop  offset="0" style="stop-color:#84EC9E"/>
			<stop  offset="0.5053" style="stop-color:#42DF90"/>
			<stop  offset="1" style="stop-color:#00CC80"/>
		</linearGradient>
		<polyline class="st26" points="1329.15,1539.86 1336.41,1553.42 1323.27,1561.76 		"/>
		<linearGradient id="SVGID_22_" gradientUnits="userSpaceOnUse" x1="1327.1598" y1="1552.546" x2="1344.7229" y2="1552.546">
			<stop  offset="0" style="stop-color:#84EC9E"/>
			<stop  offset="0.5053" style="stop-color:#42DF90"/>
			<stop  offset="1" style="stop-color:#00CC80"/>
		</linearGradient>
		<polyline class="st27" points="1334.84,1537.59 1344.72,1556.05 1327.16,1567.5 		"/>
		<linearGradient id="SVGID_23_" gradientUnits="userSpaceOnUse" x1="1331.5759" y1="1565.7109" x2="1353.0789" y2="1565.7109">
			<stop  offset="0" style="stop-color:#84EC9E"/>
			<stop  offset="0.5053" style="stop-color:#42DF90"/>
			<stop  offset="1" style="stop-color:#00CC80"/>
		</linearGradient>
		<line class="st28" x1="1331.58" y1="1572.73" x2="1353.08" y2="1558.69"/>
		<linearGradient id="SVGID_24_" gradientUnits="userSpaceOnUse" x1="1340.4368" y1="1547.2393" x2="1352.5117" y2="1547.2393">
			<stop  offset="0" style="stop-color:#84EC9E"/>
			<stop  offset="0.5053" style="stop-color:#42DF90"/>
			<stop  offset="1" style="stop-color:#00CC80"/>
		</linearGradient>
		<line class="st29" x1="1340.44" y1="1535.96" x2="1352.51" y2="1558.51"/>
		<linearGradient id="SVGID_25_" gradientUnits="userSpaceOnUse" x1="1340.7913" y1="1557.5454" x2="1366.4457" y2="1557.5454">
			<stop  offset="0" style="stop-color:#84EC9E"/>
			<stop  offset="0.5053" style="stop-color:#42DF90"/>
			<stop  offset="1" style="stop-color:#00CC80"/>
		</linearGradient>
		<polyline class="st30" points="1340.79,1580.33 1366.45,1562.92 1353.27,1534.76 		"/>
		<linearGradient id="SVGID_26_" gradientUnits="userSpaceOnUse" x1="1354.8041" y1="1562.2076" x2="1379.6047" y2="1562.2076">
			<stop  offset="0" style="stop-color:#84EC9E"/>
			<stop  offset="0.5053" style="stop-color:#42DF90"/>
			<stop  offset="1" style="stop-color:#00CC80"/>
		</linearGradient>
		<polyline class="st31" points="1354.8,1585.64 1379.6,1567.09 1368.55,1538.77 		"/>
		<linearGradient id="SVGID_27_" gradientUnits="userSpaceOnUse" x1="1375.3278" y1="1569.3152" x2="1390.8553" y2="1569.3152">
			<stop  offset="0" style="stop-color:#84EC9E"/>
			<stop  offset="0.5053" style="stop-color:#42DF90"/>
			<stop  offset="1" style="stop-color:#00CC80"/>
		</linearGradient>
		<polyline class="st32" points="1375.33,1583.76 1390.86,1570.65 1387.15,1554.87 		"/>
	</g>
	<g>
		<linearGradient id="SVGID_28_" gradientUnits="userSpaceOnUse" x1="1550.5571" y1="1545.9684" x2="1614.1929" y2="1545.9684">
			<stop  offset="0" style="stop-color:#FFF45B"/>
			<stop  offset="1" style="stop-color:#8AE18E"/>
		</linearGradient>
		<path class="st33" d="M1614.19,1531.48c0.16,17.58-31.27,60.51-31.27,60.51s-32.21-42.35-32.37-59.92
			c-0.16-17.58,13.95-31.96,31.53-32.12C1599.66,1499.79,1614.03,1513.91,1614.19,1531.48z"/>
		<linearGradient id="SVGID_29_" gradientUnits="userSpaceOnUse" x1="1581.796" y1="1560.287" x2="1582.375" y2="1560.287">
			<stop  offset="0" style="stop-color:#FFF45B"/>
			<stop  offset="1" style="stop-color:#8AE18E"/>
		</linearGradient>
		<line class="st34" x1="1581.8" y1="1528.58" x2="1582.38" y2="1591.99"/>
	</g>
	<g>
		<path class="st0" d="M1479.2,1573.45c0,0-42.95-1.18-31.18,52.97C1448.02,1626.42,1493.32,1619.94,1479.2,1573.45z"/>
		<path class="st35" d="M1448.02,1626.42c0,0-3.53,15.3-15.88,24.13"/>
	</g>
</g>
</svg>
