<?xml version="1.0" encoding="utf-8"?>
<!-- Generator: Adobe Illustrator 22.0.1, SVG Export Plug-In . SVG Version: 6.00 Build 0)  -->
<svg version="1.1" id="Capa_1" xmlns="http://www.w3.org/2000/svg" xmlns:xlink="http://www.w3.org/1999/xlink" x="0px" y="0px"
	 viewBox="0 0 612 425" style="enable-background:new 0 0 612 425;" xml:space="preserve">
<style type="text/css">
	.st0{fill:#FFFFFF;}
</style>
<g>
	<path class="st0" d="M306.77,256.81h0.13c4.61,0,9.18-1.34,12.87-3.78l1-0.64c0.22-0.14,0.45-0.27,0.67-0.42l11.66-9.64
		L611.36,12.7c-0.58-0.79-1.56-1.34-2.6-1.34H3.23c-0.75,0-1.45,0.27-2,0.73l291.12,239.95
		C296.02,255.08,301.26,256.81,306.77,256.81z M0,43.9v340.37L208.55,215.8L0,43.9z M403.67,216.94L612,384.36V45.03L403.67,216.94z
		 M337.43,271.58c-8.3,6.81-19.17,10.57-30.58,10.57c-11.45,0-22.3-3.73-30.59-10.52l-47.76-39.39L0,416.81v0.59
		c0,1.75,1.5,3.24,3.28,3.24h605.49c1.74,0,3.23-1.49,3.23-3.26v-0.54L383.69,233.4L337.43,271.58z"/>
</g>
</svg>
